<?xml version="1.0" encoding="utf-8"?>
<!-- Generator: Adobe Illustrator 25.2.1, SVG Export Plug-In . SVG Version: 6.00 Build 0)  -->
<svg version="1.1" id="Layer_1" xmlns="http://www.w3.org/2000/svg" xmlns:xlink="http://www.w3.org/1999/xlink" x="0px" y="0px"
	 viewBox="0 0 720 480" style="enable-background:new 0 0 720 480;" xml:space="preserve">
<g>
	<path d="M0,0h720v480H0V0z"/>
	<path style="fill:#CC092F;" d="M0,0h720v240H0V0z"/>
	<path style="fill-rule:evenodd;clip-rule:evenodd;fill:#FFCB00;" d="M312.7,164.6H342l8.9-27.6l9.1,27.6h29.3l-23.5,17.5l9.1,28.1
		l-24-17.1l-23.8,17.1l9.1-28.1L312.7,164.6z"/>
	<path style="fill-rule:evenodd;clip-rule:evenodd;fill:#FFCB00;" d="M419.8,315.8l-23.1-18c23.3-19,38.4-48.1,38.4-80.5
		c0-49.5-35.3-91.1-81.9-100.9l3.6-16.8c6.5,1.4,14.1,4.2,20.3,6.3l6-10.1c6.5,3.1,13.7,6.2,19.7,10.1l-4.6,10.8
		c6,3.8,13.3,9.8,17.3,14.5l9-7c4.8,5.3,10.6,10.8,14.7,16.6l-8.2,8.4c5.3,7.7,7.3,11.3,11.2,20.2l11.5-2.7c2.2,6.7,5.5,15,6.7,21.9
		l-10.9,4.3c1.3,5.4,3,14.9,2.9,22.8c0,0.5,0,1,0,1.5l11.3,1.6c-0.5,7-0.7,14.9-2.2,21.9h-11.8c-1.7,7.2-3.8,16-6.5,22.7l9.8,5.8
		c-3.1,6.2-6.2,13.7-10.3,19.7l-10.8-4.6c-4.1,6-8.6,11.8-13.7,17.1l7,9.1C423.4,312.2,421.8,313.8,419.8,315.8 M369.2,313.6
		l17.4,10.5c-1.6,1.5-6.5,4-7.8,4.5l2.8,10.9c-6.7,2.2-13.9,5.3-21.4,6.7l-4.3-10.8c-7,1.4-13.9,2.4-21.1,2.4l-1.4,11.3
		c-6.7-0.5-14.9,0-22.3-1.7v-11.3c-6.7-1.2-13.2-2.9-19.5-5L286,341c-5.8-2.4-13.5-5.3-19.7-9.1l4.1-10.8c-5-2.6-9.6-6-13.9-9.4
		l10.8-13.7c17.8,14.2,40.1,22.6,64.6,22.6C344.9,320.6,357.6,318.4,369.2,313.6"/>
</g>
</svg>
