<?xml version="1.0" encoding="utf-8"?>
<!-- Generator: Adobe Illustrator 25.2.1, SVG Export Plug-In . SVG Version: 6.00 Build 0)  -->
<svg version="1.1" id="Layer_1" xmlns="http://www.w3.org/2000/svg" xmlns:xlink="http://www.w3.org/1999/xlink" x="0px" y="0px"
	 viewBox="0 0 720 480" style="enable-background:new 0 0 720 480;" xml:space="preserve">
<path style="fill:#D0103A;" d="M0,0h720v480H0V0z"/>
<path style="fill:#FEDF00;" d="M0,0h489.6v480H0V0z"/>
<path style="fill:#0018A8;" d="M0,0h230.4v480H0V0z"/>
<path style="fill:#C7B37F;" d="M337.9,129.2c8.7,0,12.2,7.1,20.9,7.1c5.4,0,8.5-1.7,13.1-4.2c3.3-1.8,5.3-2.7,9.1-2.7
	c3.8,0,6.2,1.1,8.1,4.2c1.1,1.8,2,5.2,1.5,7.2c-0.7,3.1-1.7,6-3.1,8.9c-0.7,1.7-1.5,2.7-1.5,4.5c0,4.4,6.3,5.9,10.5,6
	c0.9,0,8.7,0.1,13.5-4.5c-2.6-0.1-5.5-2-5.5-4.5c0-2.8,2.1-4.7,4.9-5.5c0.5-0.2,1.4,0.3,1.9,0.1c0.7-0.3,0.4-1.1,1-1.5
	c1.4-1.1,2.3-1.7,4.1-1.7c1.2,0,1.9,0.2,2.8,0.8c0.5,0.3,0.7,0.8,1.3,0.8c1.3,0,1.9-0.8,3.2-0.8c1,0,1.7,0.1,2.6,0.6
	c0.8,0.4,0.7,1.6,1.6,1.6c0.4,0,2.7-0.9,3.9-0.9c2.5,0,3.8,0.9,5.4,2.7c0.4,0.5,0.7,1.5,1.2,1.5c2.2,0.2,4.2,1.3,5.4,3.2
	c0.3,0.4,0.7,1.5,1.3,1.7c0.6,0.2,1.1,0.2,1.9,0.7c1.8,1.1,3.2,3.2,3.1,5.2c0,0.7-0.3,1.6-0.5,2.3c-2.1,7-7.2,9.3-12.2,15.3
	c-2.2,2.6-3.9,4.6-3.9,8c0,0.8,1,2.3,1.5,2.9c-0.3-1.5,0.5-3.5,2.2-3.6c2.4-0.1,4.2,1.6,4.5,3.8c0.1,0.5-0.1,1.4-0.4,2
	c1.4-0.8,2.9-1.3,4.5-1.5c0.8-0.1,1.3-0.1,2.1-0.1c3.8,0.1,7.9,2.1,10.5,4.2c7.7,6.3,8.7,15.4,8.3,18c-0.9,5.7-0.3,15.9-15.5,20
	c2.8,1.1,4.7,3.1,4.7,5.6c0,2.7-2.2,5-5,5c-1.6,0-2.7-0.4-3.9-1.5c-3.2,3-3.8,6.1-3.8,10.3c0,2.5,0.5,4,1.6,6.3
	c1.2,2.4,2,3.9,4.2,5.6c1.1-1.6,2.3-2.8,4.4-2.8c2,0,3.7,0.6,4.5,2.3c0.2,0.5,0,0.9,0.3,1.5c0.4,0.7,1,0.8,1.3,1.5
	c0.6,1,0,1.9,0.5,2.9c0.3,0.7,1,0.8,1.3,1.5c0.5,1,0.6,1.8,0.6,2.9c0,3.2-3.1,5.5-6.5,5.5c-1,0-1.6-0.4-2.6-0.3
	c1.9,1.8,3.4,2.6,4.9,4.8c2.1,3.2,2.7,5.5,3.2,9.2c0.1,0.7,0.1,1.1,0.1,1.8c0,4.8-0.8,7.7-3.1,12c-2.2,4.1-4,6.4-7.9,9.1
	c-6.1,4.2-10.6,5.4-18,6.8c-4.1,0.8-8.2,1.3-12.3,1.5c-6.2,0.4-9.7,0.4-15.9,0.8c-8.1,0.5-13.7,1.6-19.4,7.1
	c2.7,1.9,4.6,3.7,4.6,6.9c0,3.3-2.1,5.6-5.4,6.6c-0.8,0.2-1.3,0-2,0.4c-0.9,0.4-0.8,1.4-1.6,1.8c-1.4,0.9-2.6,1.1-4.3,1.1
	c-3,0-5.1-0.7-7.2-2.7c-2.5,2-3.3,3.7-6.1,5.2c-0.9,0.5-1.4,1.2-2.4,1.2c-1.7,0-2.4-1-3.8-1.9c-1.9-1.2-3.5-2.7-5-4.4
	c-2.5,1.4-4.1,2.6-7,2.6c-1.8,0-3-0.2-4.5-1.2c-0.8-0.5-0.9-1.2-1.7-1.6c-0.8-0.5-1.5-0.3-2.4-0.7c-3.4-1.4-5.6-3.8-5.6-7.3
	c0-3.1,2-5.1,5-6.3c-5.6-5.4-11.2-6.3-19.1-6.8c-6.1-0.4-9.6-0.4-15.8-0.8c-4.9-0.3-7.6-0.8-12.4-1.5c-3.7-0.6-5.8-0.8-9.2-2.2
	c-11.5-5.1-18.9-12.1-20.4-24.1c-0.1-1-0.1-1.6-0.1-2.7c0-6.3,2.6-10.1,7.2-14.5c-1.2-0.3-2,0.1-3.2-0.3c-2.9-1-5-2.9-5-5.9
	c0-1.1,0.1-1.8,0.6-2.8c0.4-0.7,1.2-0.8,1.3-1.5c0.2-1-0.1-1.7,0.4-2.6c0.3-0.6,0.9-0.7,1.2-1.4c1-2,2.3-3.6,4.6-3.6
	c2,0,3.3,1,4.3,2.6c1.9-0.9,2.5-2.2,3.6-4c1.8-2.9,2.6-4.9,2.6-8.3c0-2.4-0.2-3.7-1-6c-0.6-1.6-0.8-2.7-2-3.9c-1,1-2.4,1.5-3.9,1.5
	c-3.2,0-5.7-2.6-5.7-5.7c-0.1-2.2,1.3-4.1,3.4-4.9c-1.7-1.4-3.3-1.6-5.2-2.7c-2.9-1.8-4-3.6-5.9-6.4c-1.3-1.8-1.6-3.1-2.2-5.1
	c-0.8-2.5-1.2-4-1.2-6.6c0-0.7,0-1.1,0.1-1.7c0.7-5.3,1.7-8.6,5.2-12.7c2.1-2.5,3.5-4,6.5-5.2c2.6-1.1,4.1-1.9,7-1.9
	c0.9,0,1.4,0,2.2,0.1c1.3,0.2,2.1,0.3,3.3,0.9c0.4,0.2,1.2,0.9,1.2,0.4c0-0.6-0.3-0.9-0.3-1.4c0-2.2,1.7-4.3,4-4.3
	c1.7,0,2.4,1.4,3.2,2.8c0.5-0.7,0.8-1.6,0.8-2.4c0-3.7-2.1-5.6-4.5-8.4c-5.2-6.2-11.8-9.2-11.8-17.2c0-2.4,1.2-4,3.4-5.2
	c0.6-0.3,1.5,0,2.1-0.4c0.5-0.3,0.5-1,0.8-1.5c0.5-0.8,1-1.1,1.7-1.7c1.2-1,2.2-0.7,3.6-1.6c0.7-0.4,0.8-1,1.3-1.6
	c1.5-1.7,2.8-2.5,5.1-2.5c1.2,0,1.8,0,2.9,0.4c0.4,0.1,1.1,0.7,1.2,0.6c0.4-0.5,1-0.9,1.6-1.2c1-0.4,1.4-0.6,2.5-0.6
	c1.2,0,2.1,0.7,3.3,0.7c0.5,0,0.6-0.4,0.9-0.7c1.1-0.7,1.7-1.1,3.1-1.1c1.3,0,2,0.4,3.1,1.1c1,0.6,1.2,1.4,2.2,2
	c0.6,0.3,1.1,0.2,1.7,0.4c2.9,0.9,5.1,2.8,5.1,5.7c0,1.6-0.4,2.7-1.6,3.7c-1,0.8-1.9,0.7-3.2,1.1c4,3.1,7.6,3.8,12.7,3.8
	c4.7,0,10.5-1.8,10.5-6.3c0-2.1-1.2-3.2-2.1-5.1c-1.6-3.4-2.4-5.5-2.4-9.2c0-3,0.3-4.8,2.1-7.2C332.5,129.8,334.7,129.2,337.9,129.2
	L337.9,129.2z"/>
<g>
	<path style="fill:none;stroke:#703D29;stroke-width:1.04;stroke-linejoin:round;" d="M306.4,153.2c0.4,1.3,1.4,2.2,2.8,2.6
		c1.6,0.3,3.3-0.2,4.3-1.5c1.1-1.3,1-3,0.6-4.3c-0.3-0.9-1-1.7-1.9-2.4L306.4,153.2L306.4,153.2L306.4,153.2z"/>
	<path style="fill:none;stroke:#703D29;stroke-width:1.04;stroke-linecap:round;" d="M451.2,235.8c-1.3-3.1-4.8-1.7-5,0
		c-0.5,3.9,3.1,5.1,5.7,4.5c1.2-0.3,2.2-1,2.8-2.1c0.7-1.2,0.9-2.7,0.4-4c-0.2-0.6-0.5-1.2-1-1.8c-0.4-0.5-0.9-0.9-1.4-1.3
		c-1-0.6-2.1-0.7-3.8-0.7c-6.3,0-11.8,7.1-13.6,14.4c-0.6,2.4-1.4,7.8-0.3,12.9c1.2,5.4,3.7,9.2,6.6,12.1c1.6,1.5,3.7,2.9,6.5,4.4
		c0.8,0.5,3.1,1.4,4.7,1.8s3.1,0.4,4.4,0.1c3.7-0.8,5.4-4.1,3.6-7.4c-1.5-2.8-6-4.3-8.2-0.8c-0.3,0.5-0.4,1.1-0.5,1.7
		c0,0.9,0.4,2.1,1.1,2.5c1.6,1,4.2,0.7,4.1-2"/>
	<path style="fill:none;stroke:#703D29;stroke-width:1.28;" d="M431.8,276.4c1.3-1.4,4.1-3.5,7.4-3.9c3.4-0.4,6.3,0.5,9.2,2.1
		c5.8,3,9,6.2,11.2,12.1c0.5,1.5,1,3.8,0.9,6.2c-0.1,3.8-1.1,8-2.2,10.1c-1,1.8-3.5,9.6-17.2,15c-8,3.2-20.4,3.9-28.9,4.2
		c-11.7,0.4-22.5,0.9-28.8,8.2"/>
	<g>
		<path style="fill:none;stroke:#703D29;stroke-width:1.12;" d="M434.7,289c-0.3-1.2,0-2.3,1-3.6c1.3-1.7,4.1-2.3,6.6-1
			c0.8,0.4,1.9,1,2.9,2.2c0.4,0.5,1,1.2,1.3,1.7c0.8,1.2,1.1,2.3,1.2,2.7c2.8,7.5-1.6,15.6-7.4,18.9c-4.5,2.5-9.8,3.7-16.2,4.4
			c-2.9,0.3-4.5,0.3-7.4,0.4c-2.3,0.1-4.3,0.1-6.2,0c-1.6,0-3,0-4.5,0c-2.7-0.1-5.4-0.1-8.1,0.1c-3.3,0.2-5.7,0.3-8.5,0.7
			c-1.8,0.3-3.9,0.6-6.2,1c-0.7,0.1-1.3,0.3-2,0.5l-1.4,0.4c-4,1.2-7.9,2.6-11,4.5c-1,0.6-2,1.2-2.8,1.9c-0.5,0.4-1.1,0.9-1.5,1.3
			c-2.2,2-4.4,4.2-4.9,7.2c-0.1,0.5-0.1,1.1-0.1,1.7c0,1.9,1.6,4.5,6.1,5.4 M371.8,157.1c0.9,1.6,1.4,2.6,0.9,4.2c-0.6,1.9-2,3-4,3
			c-4.5,0-7.1-5.1-5.1-8.3c3.6-5.7,10.5-2.5,16.8,0.3c-0.3-1.5-0.8-1.9-0.8-3.8c0.1-4.5,3.7-6.5,5-10.7c0.8-2.5,1.2-4.6-0.7-6.4
			c-1.7-1.5-3.6-1.5-5.8-0.7c-4.3,1.6-9.5,6.3-18.7,6.4c-9.2-0.1-14.4-4.8-18.7-6.4c-2.2-0.8-4.1-0.8-5.8,0.7
			c-1.9,1.8-1.6,3.9-0.7,6.4c1.4,4.2,4.9,6.2,5,10.7c0.1,1.8-0.5,2.3-0.8,3.8c6.4-2.8,13.5-6.3,16.8-0.3c1.9,3.3-0.6,8.3-5.1,8.3
			c-2,0-3.4-1.2-4-3c-0.5-1.6,0-3,0.9-4.2"/>
		<path style="fill:none;stroke:#703D29;stroke-width:1.12;stroke-linecap:round;" d="M353.9,154.1c1.7,1.3,3,2.8,2.8,5.3
			c-0.2,2.7-0.9,3.4-3.2,4.8 M356.2,160.3c-0.1,1.6-0.8,2.7-2.5,3.4"/>
	</g>
	<path style="fill:#C7B37F;" d="M311.3,147.1l0.8,0.5l0.8,0.9l0.6,1.1l0.3,0.9l0.1,1.2l-0.1,0.8l-0.3,0.9l-0.6,0.6l-0.7,0.7l-1,0.5
		l-1.2,0.3l-1.1,0.2l-1.1-0.5l-1-0.7l-0.6-0.9l-0.4-1.1V152L311.3,147.1L311.3,147.1z"/>
	<path style="fill:none;stroke:#703D29;stroke-width:1.04;stroke-linecap:round;" d="M309.6,151.2c-0.3-1.8-2.5-2.1-3.4-1.1
		c-1.3,1.6-0.4,4.3,2.3,5.1c1.6,0.3,3.3-0.2,4.3-1.5c1.1-1.3,1-3,0.6-4.3c-0.3-0.9-1-1.6-1.9-2.3c-3.1-2.2-8-1.7-9.6,2
		c-2.1,4.8,2.5,8.4,6.7,11.1c5.3,3.4,11.3,4,15.8,4c10.3-0.1,18.1-4.8,23.2-7.5c1.2-0.6,2.4-0.5,3,0.2c0.7,0.9,0.6,2.2-0.3,2.9"/>
	<path style="fill:none;stroke:#703D29;stroke-width:1.06;" d="M279.1,284.1l-2.3,0.8l-2.3,1.7l-1,1.3l-1.3,2.1l-0.6,1.6l-0.4,2
		l-0.2,1.5 M292.3,284.3l-0.2,1.9l-0.3,1.3l-1,2.3l-1.6,2l-1.7,1.3l-1.2,0.6l-1.7,0.4"/>
	<path style="fill:none;stroke:#703D29;stroke-width:1.2;" d="M359.7,335.5c-0.4,1.8-2.2,3.8-6,4.5l-0.7,0.1"/>
	<path style="fill:none;stroke:#703D29;stroke-width:1.36;" d="M454.7,278.8c2.4,2.1,4.1,4.7,5.4,8.3c0.5,1.5,1,3.8,0.9,6.2
		c-0.1,3.8-1.1,8-2.2,10.1c-1,1.8-3.5,9.6-17.2,15c-8,3.2-20.4,3.9-28.9,4.2c-11.5,0.4-22.2,0.8-28.5,7.9"/>
	<path style="fill:none;stroke:#703D29;stroke-width:0.93;" d="M435.9,285.9c0.9-1.1,4-2.5,6.5-1.2c1.1,0.5,2,1.3,2.7,2.2"/>
	<path style="fill:none;stroke:#703D29;stroke-width:1.36;" d="M451.8,276.2c0.6,0.2,1.1,0.4,1.6,0.5c1.6,0.4,3.1,0.5,4.4,0.1
		c3.2-0.9,5.2-3.7,3.6-7.4c-0.4-0.9-1.1-1.7-2-2.3"/>
	<path style="fill:none;stroke:#703D29;stroke-width:1.04;stroke-linecap:round;" d="M270.3,196.9c-2.1,1.3-3.7,1.6-5.4,3.4
		c-1.7,3.1-2.3,4.8-3,7.3 M313.8,152.2c0,1.8-1.4,3-3.4,3.4"/>
	<path style="fill:none;stroke:#703D29;" d="M446.8,188.6c5.3-0.1,20.8,3.9,20.9,21.2c0.1,17.1-11.1,19.9-15.6,21"/>
	<path style="fill:none;stroke:#703D29;stroke-width:1.04;" d="M448.1,188.6c9.2-0.4,18.6,6.1,19.1,22.1c0.3,12.5-9,18.2-13.5,19.4"
		/>
	<g>
		<path style="fill:none;stroke:#703D29;stroke-width:0.88;" d="M443,249l0.1-1.7l0.6-2.7l0.8-2.1l1-1.7l1.2-1.4 M455.6,235.7
			l-0.1,1.7l-0.5,1.1l-0.8,1.1l-0.9,0.6l-1.4,0.5l-1.2,0.1l-0.9-0.1 M433.7,184.1l0.4-1.8l0.8-1.7l1.1-1.7l1.9-2.3l1.5-1.6l2.4-2.3
			l2.1-2l1.3-1.4l1.7-2l1.5-2.2l0.9-1.8l0.5-2.3l0.2-2.9l-0.3-0.8 M435.9,294.5l1.8-0.3l1.4-0.7l0.8-0.7l0.5-0.8l0.4-1.3v-0.9
			 M262.8,276.6l1.3,0.1l1.7-0.1l1.7-0.6 M273.2,236.8l-0.2,1.5l-0.4,0.7l-0.5,0.6l-0.7,0.5l-0.8,0.3l-1.1,0.2l-0.7,0.1 M279.9,224
			l-0.4,2.3l-0.5,1l-1,1.3l-1.3,1l-1.3,0.6l-2.6,0.6 M290,188.2l-0.5,1.4l-0.6,1l-0.8,1.1l-1.2,1l-1.4,0.6l-1.2,0.3l-0.7-0.1
			 M284,187v1.1"/>
	</g>
	<g>
		<path style="fill:none;stroke:#703D29;stroke-width:0.99;stroke-linecap:round;" d="M286.1,222.9c-0.7,0.6-1.5,1.1-2.4,1.4
			 M453.1,272.3c0.1,0.1,0.4,0.2,0.5,0.2c1.6,0.9,4.7-0.2,3.8-2.6"/>
		<path style="fill:none;stroke:#703D29;stroke-width:0.99;" d="M447.5,239.6c1.1,1.4,3.3,1.8,5,1.4c1.2-0.3,2.2-1,2.8-2.1
			c0.7-1.2,0.9-2.7,0.4-4c-0.2-0.6-0.5-1.2-1-1.8c-0.4-0.6-0.9-1.1-1.5-1.5c-0.1-0.1-0.2-0.2-0.4-0.3 M460.1,267.7
			c0.3-1.4-0.2-2.9-1.4-3.9c-0.3-0.3-0.6-0.7-1-0.8 M458.3,263.5c-0.1-2-1.8-3.4-3.9-3.8 M449.7,262.7c-0.5-0.4-1-0.7-1.5-1.2
			c-2.8-2.7-4.8-6.8-4.9-11.4c0-4.4,1.8-9,4-10.7 M383.8,330.1l2-1.8l1.4-1l2.6-1.5l2.5-1.1l1.7-0.4l3.5-0.8l4-0.6 M368.4,343.7
			c-1.5,2.1-4.9,5.3-8.6,6.6c-3.6-1.3-7.1-4.5-8.6-6.6"/>
		<path style="fill:none;stroke:#703D29;stroke-width:0.99;stroke-linecap:round;" d="M353.7,339.2c-0.4,1.6-1.3,3.2-2.5,4.4"/>
		<path style="fill:none;stroke:#703D29;stroke-width:0.99;" d="M354.1,337l-0.5,2.3 M350.9,343.8l-1.1,1l-1.9,1l-2.2,0.6
			 M339.5,156c0.3-0.8,0.6-1.4,0.5-2.7c-0.1-4.5-3.6-6.5-5-10.7c-0.8-2.5-1.2-4.6,0.7-6.4c1.7-1.5,3.6-1.5,5.8-0.7
			c4.3,1.6,9.6,6.3,18.7,6.4c-9.2-0.1-14.4-4.8-18.7-6.4c-2.2-0.8-4.3-1-5.9,0.5c-1.9,1.8-1.4,4.1-0.6,6.6c1.4,4.2,4.7,6.2,4.9,10.7
			c0,1.3-0.3,1.9-0.6,2.8 M360.1,141.5c9-0.5,16.7-6.2,19.2-6.7c2.2-0.4,3.5-0.2,5.1,1.2c-1.6-1.4-3.5-1.4-5.6-0.6
			c-4.3,1.6-9.5,6.3-18.7,6.4 M449.7,262.8c-4.4-3.1-7-8-7-13.2c0-4.4,1.9-9,4-10.7 M368,343.4c-1.5,2.1-4.9,5.3-8.6,6.6
			c-3.6-1.3-7.1-4.5-8.6-6.6"/>
		<path style="fill:none;stroke:#703D29;stroke-width:0.99;stroke-linecap:round;" d="M345,158.2l2.6-1.4c1.2-0.6,2.6-0.5,3.2,0.2
			c0.7,0.8,0.8,2.2-0.2,3"/>
		<path style="fill:none;stroke:#703D29;stroke-width:0.99;" d="M331.5,164.2c6.2-1.2,11.2-3.9,15-5.9 M382.9,334.2
			c0.5,0.3,0.8,1,0.8,1c0.1,0.3,0.3,0.6,0.4,0.9c0.3,1.6-0.8,2.6-2.2,2.8c-1.7,0.2-3.3-0.7-3.9-2.2 M331.2,163.9
			c6.2-1.2,11.2-3.9,15-5.9 M456,272.6c-1.2,0.4-1.8,0.4-3.3-0.2c-0.6-0.3-1.3-0.6-2.1-1.1c-2.9-1.5-6.3-4-9.5-9.7
			c-1.5-2.6-2.3-5.4-2.5-8.4c-0.1-2.1,0.2-4.2,0.7-6.7c0.9-4.1,2-6.3,4.6-9.7c1.3-1.7,2.4-2.7,4.8-2.8 M287.2,191.9
			c1.9,1.5,3,3.8,3,6.1c0,3.3-2.9,8.7-10.1,10.7c-2.8,0.7-5.5,0.1-7.1-0.8"/>
		<path style="fill:none;stroke:#703D29;stroke-width:0.99;" d="M288.3,203.2c1.3,0.9,1.8,1.8,1.8,3.5c0,1.1-0.8,2.6-2.1,4
			c-2.2,2.3-5.8,4.2-9.9,4.3c-2.4,0.1-4.8-0.6-6.8-1.9c-2.1-1.3-3.7-3.4-4.3-5.8"/>
		<path style="fill:none;stroke:#703D29;stroke-width:0.99;" d="M288.2,210.3c1.5,1.3,1.9,2.9,1.9,4.9c0,2.9-1.3,5.2-4.1,7.6
			c-0.6,0.5-1.4,1-2.2,1.5 M429.4,200.7v3.8 M429.1,199.7v5.3 M429.4,188.2v7 M429.1,186.6v9.5 M427,284c-1.1,2.3-2.7,4.4-4.7,6.1
			c-2.2,2.1-3.8,3-6.6,4.4c-2.7,1.3-4.4,1.7-7.4,2.3c-2.5,0.6-5.1,0.9-7.7,0.9c-2.8,0.1-4.4,0-7.1-0.2c-3-0.2-4.6-0.6-7.6-0.8
			c-2.4-0.2-3.8-0.4-6.3-0.4s-4,0-6.5,0.4c-2,0.3-4,0.8-5.8,1.5c-3,1.2-6.4,3.2-7.2,4.1c-0.7-0.9-4.1-2.9-7.2-4.1
			c-1.9-0.7-3.8-1.3-5.8-1.5c-2.1-0.4-4.3-0.5-6.5-0.4c-2.5,0-3.8,0.2-6.3,0.4c-3,0.3-4.6,0.6-7.6,0.8c-2.8,0.2-4.4,0.3-7.1,0.2
			c-2.6,0-5.2-0.3-7.7-0.9c-3-0.6-4.7-1.1-7.4-2.3c-2.8-1.3-4.3-2.3-6.6-4.4l-0.7-0.7 M344.7,346.6l2-0.2 M380.8,343.8l2-0.2
			l1.9-0.7l1.4-0.8l1.8-2.1l0.4-0.8l0.3-1.8l0.1-0.8 M441.5,190.2c0.9-2.8-0.2-5.8-3.1-5.7 M290,234.3c-0.6,2.1-2.1,3.9-4,5
			 M290.1,189.3c-0.7,2-2,3.4-4.1,4.3c-2.1,0.9-4.5,0.1-5.8-0.9"/>
		<path style="fill:none;stroke:#703D29;stroke-width:0.99;stroke-linecap:round;" d="M274.3,199.7c1.7,0.9,3.5-0.4,3.1-2.5
			c-0.3-1.3-1.5-2.2-2.8-2.4"/>
		<path style="fill:none;stroke:#703D29;stroke-width:0.99;" d="M281.4,290c0.4,0.3,0.5,0.8,1,0.9c0.8,0.1,1.3,0.4,2.1-0.6
			c0.9-1.2,0.4-3-0.5-4.2c-1-1.2-4-2.3-6.6-1c-1.1,0.5-2.1,1.3-2.9,2.2c-0.4,0.5-1,1.2-1.3,1.7c-0.8,1.2-1.1,2.2-1.2,2.7
			c-2.3,6.2,0.4,12.8,4.7,16.8"/>
		<path style="fill:none;stroke:#703D29;stroke-width:0.99;stroke-linecap:round;" d="M382.7,334.1c0.3,0.3,0.5,0.5,0.7,0.9
			c0.1,0.3,0.3,0.6,0.3,0.9c0.3,1.6-0.8,2.6-2.2,2.8c-1.9,0.2-3.2-0.9-3.8-2.2"/>
		<path style="fill:none;stroke:#703D29;stroke-width:0.99;" d="M438.1,148.7c3.8,0.4,7,3.9,7,7.5c0,4.7-1.7,6.5-4.3,9.9
			c-2.8,3.6-12,10.3-12,17.9c0,4.6,1.3,7.5,4.8,9c2.2,1,4.9-0.1,6-1.1c2.9-2.5,1.7-6.9-1.3-7.4c-3.7-0.6-4.4,4.9-0.8,4.5 M457.7,263
			c-0.3-1.9-2-3.3-4.1-3.3c-2.3,0-4.2,1.8-4.1,4l0,0c0,1.1,0.4,2.1,1.2,2.8"/>
		<path style="fill:none;stroke:#703D29;stroke-width:0.99;" d="M431.8,191.9c-1.9,1.5-3,3.8-3,6.1c0,3.3,2.9,8.7,10.1,10.7
			c2.7,0.7,5.4,0.7,7-0.3 M270.4,197.3c-1.7,0.5-3.9,1.6-5.4,3.7c-1.3,1.8-2.1,4.3-2.6,6.5c-0.2,1-0.5,4,0.2,7.1
			c0.4,2.2,1.3,4.2,2.6,6c0.3,0.5,0.7,0.9,1.2,1.3c0.4,0.4,0.9,0.7,1.3,0.9 M339.6,321.6c5.5,2.3,9.5,4,12.8,9.1
			c1.1,1.6,1.3,3.9,1.3,5.2c0,2.9-1.2,6.1-3.8,8.2c-2.3,1.9-4.7,2.4-7.5,2.2c-2.2-0.2-4.2-1.7-4.5-2.8 M285.8,223
			c3.1,2.3,4.4,4.5,4.4,8.1c0,4-2.1,6.6-4.5,8"/>
		<path style="fill:none;stroke:#703D29;stroke-width:0.99;stroke-linecap:round;" d="M283,236.2c4.6,5.4,7,8.7,7.2,15.1
			c0.1,6.1-1.9,10.2-5.7,14.6"/>
		<path style="fill:none;stroke:#703D29;stroke-width:0.99;" d="M371,164.3c0.9-0.6,1.5-1.4,1.8-2.4c0.5-1.6,0.6-3-0.3-4.2
			c1.1,1.4,1.2,2.5,0.9,4.2c-0.2,1.1-0.9,1.6-1.8,2.4 M429.4,256.6v17.3h0.1c0,0,0,1.6-0.2,2.7c-0.1,0.7-0.2,1.3-0.3,1.9"/>
		<path style="fill:none;stroke:#703D29;stroke-width:0.99;" d="M429.1,255v18.7h0.1c0,0,0,1.6-0.2,2.7c-0.1,0.9-0.3,1.9-0.5,2.8
			 M429.1,233.1v15.6 M429.4,234.3V247 M429.4,218.2v9.5 M429.1,217.1v11.7 M429.4,208.5v3.7 M429.1,207.8v5.3 M427,283l-0.4,0.7
			c-1.1,2.3-2.7,4.4-4.7,6.1c-2.2,2.1-3.8,3-6.6,4.4c-2.7,1.3-4.4,1.7-7.4,2.3c-2.5,0.6-5.1,0.9-7.7,0.9c-2.8,0.1-4.4,0-7.1-0.2
			c-3-0.2-4.6-0.6-7.6-0.8c-2.4-0.2-3.8-0.4-6.3-0.4s-4,0-6.5,0.4c-2,0.3-4,0.8-5.8,1.5c-3,1.2-6.4,3.2-7.2,4.1
			c-0.7-0.9-4.1-2.9-7.2-4.1c-1.9-0.7-3.8-1.3-5.8-1.5c-2.1-0.4-4.3-0.5-6.5-0.4c-2.5,0-3.8,0.2-6.3,0.4c-3,0.2-4.6,0.6-7.6,0.8
			c-2.8,0.2-4.4,0.3-7.1,0.2c-2.6,0-5.2-0.3-7.7-0.9c-3-0.6-4.7-1-7.4-2.3c-2.8-1.3-4.3-2.3-6.6-4.4c-1.2-1.1-2-2-2.8-3
			 M292.6,283.4c0.5,3.4-1,6.7-2.5,8.2c-1,1-3,2.8-5.6,2.8c-4.2,0.1-5.5-2.7-5.8-3.4"/>
		<path style="fill:none;stroke:#703D29;stroke-width:0.99;" d="M287.6,281.6c0.8,0.7,1.5,1.6,2.1,2.7c1.1,1.9,0.7,5.1-0.1,6.6
			c-0.1,0.2-0.2,0.3-0.3,0.5 M266.4,310.8c2.5,2.5,6.4,5.3,12.2,7.6c8,3.2,20.4,3.9,28.9,4.2c11.3,0.4,21.7,0.9,28.1,7.5
			 M355.2,325.7c1.9,1.8,3.8,3.6,4.6,6 M351.5,344c-0.2,0.2-0.5,0.5-0.8,0.7c-2.3,1.9-4.7,2.5-7.5,2.2c-2.2-0.2-4.2-1.7-4.8-2.8
			 M332.4,341c0.1,0.1,0.2,0.3,0.3,0.4c1.5,1.5,3.5,2.5,5.7,2.6 M368.7,344c-1.5,2.1-4.9,5.3-8.6,6.6c-3.6-1.3-7.1-4.5-8.6-6.6
			l-0.3-0.5 M368.7,344c0.3,0.3,0.5,0.5,0.8,0.8c2.3,1.9,4.6,2.5,7.5,2.2c2.2-0.2,3.9-1.6,4.6-2.8c0,0,0.4-0.4,0.5-0.8"/>
		<path style="fill:none;stroke:#703D29;stroke-width:0.99;" d="M381.4,343.5l-0.8,1.3l-1.3,1l-1.9,0.8l-1.7,0.1"/>
		<path style="fill:none;stroke:#703D29;stroke-width:0.99;" d="M385.9,331.4c1.1,0.8,2,1.9,2.6,3.1c0.4,0.8,0.5,1.6,0.6,2.5
			c0.1,1.6-0.5,3.2-1.6,4.4c-1.7,1.8-4.1,2.7-6.6,2.6 M381.1,343.8c-2.3,0.1-4.3-0.8-5.8-2.3 M446.9,268.8c-2.2-2-4-4.3-5.4-6.9
			c-1.5-2.6-2.3-5.4-2.5-8.4c-0.1-2.1,0.2-4.2,0.7-6.7c0.9-4.1,2.5-7.2,4.6-9.7c0.7-0.9,1.6-1.9,2.3-2.4 M445.1,153.5
			c2.9,0.2,5.5,3.1,5.5,6c-0.1,4.2-1.5,5.9-5,10c-3,3.5-11.9,9.7-11.6,15.6c0,1,0.6,2.1,1.3,3 M431.7,191.8c0.6,0.6,1.4,1.1,2.3,1.5
			c1.6,0.7,3.5,0.3,4.8-0.3 M415,146.7c1,0.6,1.9,1.6,2.5,2.8c2.1,4.8-2.5,8.4-6.7,11.1c-2.8,1.8-6,3-9.3,3.5"/>
		<path style="fill:none;stroke:#703D29;stroke-width:0.99;" d="M410.2,156c-1,0-2.2-0.3-3.5-1.6c-0.3-0.3-0.6-0.7-0.8-1.1
			 M389.1,158.5c-0.6-0.3-1.1-0.6-1.5-1c-1-1.1-1.7-2.5-0.9-4.7c0.7-2,4.1-7.7,4.3-11.7c0.3-6-2.2-9.6-6-11"/>
		<path style="fill:none;stroke:#703D29;stroke-width:0.99;stroke-linecap:round;" d="M390.7,139.8l-0.1,2.3l-0.6,2.3l-1.2,3.2
			l-0.9,2l-1,2l-0.5,1.4l-0.2,1l0.1,1 M429,290.3c0.2,0.5,0.7,0.9,0.7,0.9c0.7,1.2,3.6,3.2,6.1,3.2c4.2,0.1,5.3-2.8,5.4-3.4
			c0.5-3.1-0.6-3.9-2.2-4.8c0,0-1-0.5-2.2-0.3"/>
		<path style="fill:none;stroke:#703D29;stroke-width:0.99;" d="M266.6,276.8c-1.5,0.4-2.9,0.4-4.1,0c-3.2-0.9-5.8-3.8-4.4-7.4
			 M273,235.3c0.3,0.3,0.4,0.8,0.5,1.1c0.5,3.9-3.1,5.1-5.7,4.4c-1.4-0.4-2.6-1.3-3.4-2.4c-0.5-0.8-0.7-1.6-0.7-2.5 M288.5,210.6
			c0.6,0.6,1.1,1.2,1.4,1.9 M288.6,203.4c0.5,0.4,1,0.8,1.3,1.4"/>
		<path style="fill:none;stroke:#703D29;stroke-width:0.99;stroke-linecap:round;" d="M290.1,208.4c-0.4,0.9-1,1.8-1.7,2.6
			c-2.2,2.3-5.8,4.2-9.9,4.3c-2.4,0.1-4.8-0.6-6.8-1.9c-2.5-1.6-4.1-3.8-4.6-6"/>
		<path style="fill:none;stroke:#703D29;stroke-width:0.99;" d="M287.4,192.1c1.2,1,2.1,2.2,2.7,3.6"/>
		<path style="fill:none;stroke:#703D29;stroke-width:0.99;stroke-linecap:round;" d="M290.1,200.6c-1,3.1-4,7-9.7,8.4
			c-2.7,0.7-6.3-0.2-7.5-1.1"/>
		<path style="fill:none;stroke:#703D29;stroke-width:0.99;" d="M270,199.9c0.3,2.8,2.3,4.9,6,5c5.3,0.1,8.5-7.2,3.8-12.4"/>
		<path style="fill:none;stroke:#703D29;stroke-width:0.99;stroke-linecap:round;" d="M258.1,224.5c0.8,0.9,1.7,1.8,2.6,2.5
			c1.9,1.6,4.2,2.8,6.7,3.5 M273.4,231.1c4.7-0.5,7.4-3.9,6.9-7.8c-0.4-3-3.3-5.3-5.2-5.4"/>
		<path style="fill:none;stroke:#703D29;stroke-width:0.99;" d="M281.1,184.4c2.1-0.1,3.2,1.7,3.2,3.2"/>
		<path style="fill:none;stroke:#703D29;stroke-width:0.99;stroke-linecap:round;" d="M280.6,157.6c1.1,2.6,3.1,4.8,5.7,6.2
			 M448.5,197c1.9,2.5,0.7,7.5-4.6,7.6c-2,0-3.9-1-5-2.7"/>
		<path style="fill:none;stroke:#703D29;stroke-width:0.99;" d="M429.4,164.1V181"/>
		<path style="fill:none;stroke:#703D29;stroke-width:0.99;stroke-linecap:round;" d="M274.2,199.6c1.6,1.1,3.7-0.8,2.9-2.8
			c-0.5-1.4-2.6-2.8-5.4-1c-3.1,2-2.2,8.3,3.7,8.4c5.3,0.1,8.5-7.2,3.8-12.4c-4.5-5-12.8-3.8-18.1,0.3c-2.3,1.7-6.6,6.3-7.9,12.5
			c-0.4,1.9-0.7,3.5-0.7,5.4c0,1.3,0.1,2.7,0.5,4.5c0.6,2.9,1.8,5.6,3.5,8.1c0.5,0.7,1,1.3,1.5,1.8c0.9,0.9,1.2,1.3,2.1,2.1
			c3,2.4,7,4.3,11.8,4.1c5.3-0.2,8.3-3.7,7.7-7.9c-0.5-4-4.8-6-7.6-4.2c-1.9,1.3-2.6,5.2,0.8,6.2c1.9,0.5,3.6-1.8,2.2-3.1
			 M420.8,144.5c3-1.6,5.4-1.3,7.1,1c1.9,2.5,2.2,5.8,1.7,7.7c-0.6,2.9-1.5,4.1-3.9,6.2"/>
		<path style="fill:none;stroke:#703D29;stroke-width:0.99;stroke-linecap:round;" d="M428.1,145.7c3.5-2.2,7.2-1.3,9.3,1.7
			c1.5,2.1,1.9,3.9,1.8,6.6c-0.2,4.5-3.2,8.1-6.4,9.9"/>
		<path style="fill:none;stroke:#703D29;stroke-width:0.99;" d="M444.4,153.4c2.9,0.2,5.1,2.7,5.1,5.5c0,4.1-1.2,5.9-4.6,10
			c-3,3.5-11.9,9.7-11.6,15.6c0.1,2.2,2.1,4.3,3.8,4.5"/>
		<path style="fill:none;stroke:#703D29;stroke-width:0.99;stroke-linecap:round;" d="M444.8,199.6c-1.6,1.1-3.7-0.7-2.8-2.6
			c0.6-1.3,2.5-3,5.3-1.2c3.1,2,2.2,8.3-3.7,8.4c-5.3,0.1-8.9-7.1-3.8-12.4c4.6-4.9,13.2-3.9,18.6,0.2c2.3,1.7,6.9,6.5,7.9,12.7
			c1.2,7.6,1,16.8-7.2,22.6c-3.3,2.3-7.9,3.3-11.9,3.2c-5.3-0.2-8.3-3.7-7.7-7.9c0.5-4,4.6-5.7,7.6-4.2c3.1,1.6,2.6,5.8-0.8,6.2
			c-2,0.2-3.6-1.8-2.2-3.1"/>
		<path style="fill:none;stroke:#703D29;stroke-width:0.99;" d="M442,197c0.9-3.7,4.2-4.1,7-4c7.4,0.1,12.5,8.5,12.6,16.6
			c0.1,10.2-4.6,16.3-12.4,16.6c-2,0.1-5.5-0.8-5.6-3.2"/>
		<path style="fill:none;stroke:#703D29;stroke-width:0.99;stroke-linecap:square;" d="M446.5,195.4c7.8,1.7,10.6,8.4,10.6,14.8
			c0,5.2-0.5,12.4-11.2,14.9"/>
		<path style="fill:none;stroke:#703D29;stroke-width:0.99;" d="M459.4,267.1c0.4-2.3-1.1-4.5-3.5-4.9s-4.7,1.1-5.1,3.3
			c-0.3,1.5,0.3,3.1,1.6,4"/>
		<path style="fill:none;stroke:#703D29;stroke-width:0.99;stroke-linecap:round;" d="M443.8,260.8c1.5,2.1,3.3,4.4,7,6.3
			 M449.4,278.4c-3.7-2.3-10.7-5.3-17-2.4c-2.3,1.1-3.9,2.5-4.8,4.7c-1.6,4,0.2,8.4,2,10.3c1,1,3,2.8,5.6,2.8
			c4.3,0.1,5.3-2.8,5.4-3.4c0.5-2.9-1.3-4.1-2.2-4.4c-0.7-0.2-3.1-0.2-3.6,1.4c-0.2,0.5-0.2,1.5,0.2,2.2"/>
		<path style="fill:none;stroke:#703D29;stroke-width:0.99;stroke-linecap:round;" d="M383,334.7c1.2,2.3-0.2,3.4-1.8,3.6
			c-2.4,0.3-3.7-1.5-3.9-3.2c-0.2-2.6,1.8-4.9,4.6-5c0.1,0,0.2,0,0.4,0c2.5,0,4.6,1.6,5.6,3.8c0.4,0.8,0.5,1.6,0.6,2.5
			c0.1,1.6-0.5,3.2-1.6,4.4c-1.4,1.6-3.7,2.6-6.1,2.7c-4.8,0.2-8.5-4-8.5-8.4c0-8.3,12.9-12.8,18-13.9c6.3-1.4,10.1-2,20.2-2.5
			c4-0.2,7-0.1,11.4-0.5c4-0.4,6-0.6,10.1-1.5c5.1-1.1,9.8-3.1,14.1-6.8c3.3-2.8,5.1-4.8,6.7-8.7c1.3-3.4,1.9-10-1.4-14.9
			c-2.9-4.3-7-6.6-11.6-7.2c-4.2-0.6-7.9,1.1-10.1,5.1c-1.1,1.9-0.7,5.1,0.1,6.6c0.7,1.3,2.8,3.2,5.4,3.2c4.3,0.1,5.3-2.8,5.4-3.4
			c0.5-2.9-1.3-4.1-2.2-4.4c-0.7-0.2-3.1-0.2-3.6,1.4c-0.2,0.5-0.2,1.5,0.3,2.2"/>
		<path style="fill:none;stroke:#703D29;stroke-width:0.99;stroke-linecap:round;" d="M379.4,321.6c-5.5,2.3-9.5,4-12.8,9.1
			c-1.1,1.6-1.3,3.9-1.3,5.2c0,2.9,1.2,6.1,3.8,8.2c2.3,1.9,4.7,2.4,7.5,2.2c2.2-0.2,4.2-1.7,4.5-2.8"/>
		<path style="fill:none;stroke:#703D29;stroke-width:0.99;" d="M433.2,223c-2.5,0.8-4.4,4.5-4.4,8.1c0,4,2.1,6.6,4.5,8"/>
		<path style="fill:none;stroke:#703D29;stroke-width:0.99;stroke-linecap:round;" d="M436,236.2c-4.6,5.4-7,8.7-7.2,15.1
			c-0.1,6.1,1.9,10.2,5.7,14.6"/>
		<path style="fill:none;stroke:#703D29;stroke-width:0.99;" d="M411.6,145.8l0.4-0.6c1.9-2.7,5.3-3.4,7.7-1.6
			c3,2.1,3.7,5.8,2.9,9.6c-0.5,2.4-2.2,4.4-4.6,5.8"/>
		<path style="fill:none;stroke:#703D29;stroke-width:0.99;stroke-linecap:round;" d="M298.2,144.5c-2.9-1.3-5.3-1-7.1,1
			c-2.1,2.3-2.2,5.8-1.7,7.7c0.6,2.9,1.5,4.1,3.9,6.2"/>
		<path style="fill:none;stroke:#703D29;stroke-width:0.99;" d="M290.9,145.7c-3.5-2.2-7.2-1.3-9.3,1.7c-1.5,2.1-1.9,3.9-1.8,6.6
			c0.2,4.5,3.2,8.1,6.4,9.9"/>
		<path style="fill:none;stroke:#703D29;stroke-width:0.99;" d="M280.9,148.7c-3.8,0.4-6.8,3.5-6.8,7.2c0,4.7,1.2,6.7,4,10.3
			s12,10.3,12,17.9c0,4.6-1.3,7.5-4.8,9c-2.2,1-4.9-0.1-6-1.1c-2.9-2.5-1.7-6.9,1.3-7.4c3.7-0.6,4.4,4.9,0.8,4.5"/>
		<path style="fill:none;stroke:#703D29;stroke-width:0.99;" d="M274.6,153.4c-2.9,0.2-5.7,2.6-5.7,5.4c0,4.1,1.7,6,5.2,10.1
			c3,3.5,11.3,9.6,11.1,15.5c-0.1,2.2-1.7,5-3.2,4.7"/>
		<path style="fill:none;stroke:#703D29;stroke-width:0.99;stroke-linecap:round;" d="M267.8,235.8c1.3-3.1,4.8-1.7,5,0
			c0.5,3.9-3.1,5.1-5.7,4.5c-1.2-0.3-2.2-1-2.8-2.1c-0.7-1.2-0.9-2.7-0.4-4c0.2-0.6,0.5-1.2,1-1.8c0.4-0.5,0.9-0.9,1.4-1.3
			c1-0.6,2.1-0.7,3.8-0.7c6.3,0,11.8,7.1,13.6,14.4c0.6,2.4,1.4,7.8,0.3,12.9c-1.2,5.4-3.7,9.2-6.6,12.1c-1.6,1.5-3.7,2.9-6.5,4.4
			c-1.5,0.7-3.1,1.4-4.7,1.8s-3.1,0.5-4.4,0.1c-3.2-0.9-5.2-3.7-3.6-7.4c1.3-2.9,6-4.3,8.2-0.8c0.2,0.3,0.5,1,0.5,1.7
			c0,0.9-0.4,2.1-1.1,2.5c-1.6,1-4.2,0.7-4.1-2"/>
		<path style="fill:none;stroke:#703D29;stroke-width:0.99;" d="M263,272.6c1.2,0.4,1.8,0.4,3.3-0.2c0.6-0.3,1.3-0.6,2.1-1.1
			c2.9-1.5,6.3-4,9.5-9.7c1.5-2.6,2.3-5.4,2.5-8.4c0.1-2.1-0.2-4.2-0.7-6.7c-0.9-4.1-2-6.3-4.6-9.7c-1.3-1.7-2.4-2.7-4.8-2.8
			 M259.6,267.1c-0.4-2.3,1.1-4.5,3.5-4.9s4.7,1.1,5.1,3.3c0.3,1.5-0.3,3.1-1.6,4"/>
		<path style="fill:none;stroke:#703D29;stroke-width:0.99;" d="M261.3,263c0.3-1.9,2-3.3,4.1-3.3c2.3,0,4.2,1.8,4.1,4l0,0
			c0,1.1-0.4,2.1-1.2,2.8"/>
		<path style="fill:none;stroke:#703D29;stroke-width:0.99;" d="M269.3,262.8c4.4-3.1,7-8,7-13.2c0-4.4-1.9-9-4-10.7"/>
		<path style="fill:none;stroke:#703D29;stroke-width:0.99;stroke-linecap:round;" d="M275.2,260.8c-1.5,2.1-3.3,4.4-7,6.3"/>
		<path style="fill:none;stroke:#703D29;stroke-width:0.99;" d="M286.4,276.1c-1-2.3-3.1-3.4-6.5-3.8c-3.4-0.3-6.3,0.5-9.2,2.1
			c-5.8,3-9,6.2-11.2,12.1c-0.5,1.5-1,3.8-0.9,6.2c0.1,3.8,1.1,8,2.2,10.1c1,1.8,3.5,9.6,17.2,15c8,3.2,20.4,3.9,28.9,4.2
			c11.7,0.4,22.5,0.9,28.8,8.2"/>
		<path style="fill:none;stroke:#703D29;stroke-width:0.99;stroke-linecap:round;" d="M269.6,278.4c3.7-2.3,10.7-5.3,17-2.4
			c2.3,1.1,3.9,2.5,4.8,4.7c1.6,4-0.2,8.4-2,10.3c-1,1-3,2.8-5.6,2.8c-4.3,0.1-5.3-2.8-5.4-3.4c-0.5-2.9,1.3-4.1,2.2-4.4
			c0.7-0.2,3.1-0.2,3.6,1.4c0.2,0.5,0.2,1.5-0.2,2.2"/>
		<path style="fill:none;stroke:#703D29;stroke-width:0.99;" d="M284.3,289c0.3-1.2,0.2-2.4-1-3.6c-1.1-1.2-4.1-2.3-6.6-1
			c-1.1,0.5-2.1,1.3-2.9,2.2c-0.4,0.5-1,1.2-1.3,1.7c-0.8,1.2-1.1,2.3-1.2,2.7c-2.8,7.5,1.7,15.4,7.4,18.9c4.9,3,10,3.8,16.2,4.4
			c2.9,0.2,4.5,0.3,7.4,0.4c2.3,0.1,4.3,0.1,6.2,0c1.5,0,3,0,4.5,0c2.4-0.1,5-0.1,8.1,0.1c3.3,0.2,5.7,0.3,8.5,0.7
			c1.8,0.3,3.9,0.6,6.2,1c0.7,0.1,1.3,0.3,2,0.5l1.4,0.4c4,1.2,7.9,2.6,11,4.5c1,0.6,2,1.1,2.8,1.9c0.6,0.5,1.1,0.9,1.5,1.3
			c2.2,2,4.4,4.2,4.9,7.2c0.1,0.5,0.1,1.1,0.1,1.7c0,1.9-1.6,4.5-6.1,5.4"/>
		<path style="fill:none;stroke:#703D29;stroke-width:0.99;" d="M336,334.7c-1.2,2.3,0.2,3.4,1.8,3.6c2.4,0.3,3.7-1.5,3.9-3.2
			c0.2-2.6-1.8-4.9-4.6-5c-0.1,0-0.2,0-0.4,0c-2.5,0-4.6,1.6-5.6,3.8c-0.4,0.8-0.5,1.6-0.6,2.5c-0.1,1.6,0.5,3.2,1.6,4.4
			c1.4,1.6,3.7,2.6,6.1,2.7c4.8,0.2,8.5-4,8.5-8.4c0-8.3-12.9-12.8-18-13.9c-6.3-1.4-10.1-2-20.2-2.5c-4-0.2-7-0.1-11.4-0.5
			c-4-0.4-6-0.6-10.1-1.5c-5.1-1.1-9.8-3.1-14.1-6.8c-3.3-2.8-5.1-4.8-6.7-8.7c-1.3-3.4-1.9-10,1.4-14.9c2.9-4.3,7-6.6,11.6-7.2
			c4.2-0.6,7.9,1.1,10.1,5.1c1.1,1.9,0.7,5.1-0.1,6.6c-0.7,1.3-2.8,3.2-5.4,3.2c-4.3,0.1-5.3-2.8-5.4-3.4c-0.5-2.9,1.3-4.1,2.2-4.4
			c0.7-0.2,3.1-0.2,3.6,1.4c0.2,0.5,0.2,1.5-0.2,2.2"/>
		<path style="fill:none;stroke:#703D29;stroke-width:0.99;stroke-linecap:round;" d="M307.4,145.8l-0.4-0.6
			c-1.9-2.7-5.3-3.4-7.7-1.6c-3,2.1-3.7,5.8-2.9,9.6c0.5,2.4,2.2,4.4,4.6,5.8"/>
		<path style="fill:none;stroke:#703D29;stroke-width:0.99;" d="M412.6,153.9c-4.5,4.7-9.1,6.2-15.8,6.4c-2.1,0.1-6.2-0.6-8.5-2.2
			c-1.5-1-3.2-2.8-2.1-5.8c0.7-2,4.1-7.7,4.3-11.7c0.3-6-2.2-9.3-6-10.6c-7-2.4-14.6,4.3-19.2,5.7c-1.8,0.6-3.8,0.9-5.8,0.9
			c-2,0.1-3.9-0.2-5.8-0.9c-4.6-1.4-12.1-8.1-19.2-5.7c-3.8,1.3-6.2,4.6-6,10.6c0.2,3.9,3.6,9.6,4.3,11.7c1.1,3-0.6,4.8-2.1,5.8
			c-2.4,1.6-6.4,2.3-8.5,2.2c-6.8-0.2-11.3-1.7-15.8-6.4"/>
		<path style="fill:none;stroke:#703D29;stroke-width:0.99;stroke-linecap:round;" d="M334.5,319.7c0.9,0.3,0.2-0.2,5.9,2.2
			c5.5,2.3,9.3,4.3,12.7,9.4c1.1,1.6,1.3,3.9,1.3,5.2c0,0.9-0.1,1.7-0.3,2.6"/>
		<path style="fill:none;stroke:#703D29;stroke-width:0.99;" d="M334.9,342.9c1.1,0.5,2.4,0.8,3.7,0.9c4.8,0.2,8.5-4.1,8.5-8.4
			c0-3-1.7-5.5-4.1-7.5"/>
		<path style="fill:none;stroke:#703D29;stroke-width:0.99;stroke-linecap:round;" d="M335.9,334.7c-1.2,2.4,0.5,3.8,2.1,3.9
			c2.4,0.3,3.8-1.5,3.9-3.2c0.1-1.8-0.8-3.5-2.4-4.4"/>
		<path style="fill:none;stroke:#703D29;stroke-width:0.99;" d="M438.9,148.7c3.6,0,6.8,3.8,6.8,7.8c0,4.5-2.5,7.3-4.4,9.4
			c-1.5,1.7-3.1,3.2-5,5"/>
		<path style="fill:none;stroke:#703D29;stroke-width:0.99;stroke-linecap:round;" d="M434.6,145.1c1.2,0.5,2.3,1.5,3.1,2.6
			c1.5,2.1,1.9,3.9,1.8,6.6c-0.2,4.5-3.6,7.7-6.7,9.6 M427.5,145.1c0.3,0.2,0.5,0.4,0.7,0.7c2.1,2.4,2.2,5.8,1.7,7.7
			c-0.7,2.9-1.7,4.1-4.2,5.9 M420,143.9c3,2.1,3.9,5.8,2.9,9.6c-0.7,2.7-2.5,4.3-4.7,5.6 M430.7,203.2c0.4,1,0.9,1.3,1.7,2.1
			c1.9,1.8,4.3,3.1,6.9,3.8c2.8,0.7,5.2,0.2,7.1-0.9 M263,266c1.4,0,2.8,0.9,3.7,2.4c0.2,0.3,0.5,0.9,0.5,1.6c0,0.9-0.4,1.9-1.2,2.4
			c-1.6,1-4.5,0.6-4.4-2.2"/>
		<path style="fill:none;stroke:#703D29;stroke-width:0.99;" d="M271.7,230.7c5.5,1,10.9,7.4,12.6,14.3c0.6,2.4,1.4,7.8,0.3,12.9
			c-1.2,5.4-3.7,9.2-6.6,12.1c-0.7,0.7-1.5,1.3-2.4,2l-1.2,0.8 M265.5,259.7c2.3,0,4.3,2.1,4.3,4.3c0,1.1-0.4,2.1-1.2,2.8"/>
		<path style="fill:none;stroke:#703D29;stroke-width:0.99;" d="M264,262.2c2.4,0,4.6,2.2,4.6,4.5c0,1.3-0.6,2.5-1.7,3.3"/>
		<path style="fill:none;stroke:#703D29;stroke-width:0.99;stroke-linecap:round;" d="M285.7,239.5c2.2,2.8,3.6,5.2,4.3,8.3
			 M289.9,256.8c-0.4,1.5-0.9,3-1.6,4.3c-1,1.9-2.4,3.5-4,5"/>
		<path style="fill:none;stroke:#703D29;stroke-width:0.99;" d="M286.1,223.2c2.1,1.6,3.4,3.2,4,5.1"/>
		<path style="fill:none;stroke:#703D29;stroke-width:0.99;stroke-linecap:round;" d="M290.1,218c-0.6,1.8-1.8,3.2-3.8,4.9
			 M276,204.5l2.4-0.6l1.4-1l0.9-1.2l0.8-1.9l0.3-1.6"/>
		<path style="fill:none;stroke:#703D29;stroke-width:0.99;" d="M271.1,196.4c-0.8,0.2-1.7,0.5-2.8,0.9c-1.4,0.6-2.8,1.6-4,3.1
			c-1.3,1.8-2.1,4.3-2.6,6.5c-0.2,1-0.5,4,0.2,7.1c0.4,2.2,1.3,4.2,2.6,6c0.4,0.6,0.8,1,1.2,1.4c1.5,1.4,2.8,2.2,5,1.8"/>
		<path style="fill:none;stroke:#703D29;stroke-width:0.99;stroke-linecap:round;" d="M284.7,186.2c-0.4,1.4-1.2,3.1-3.4,2.9"/>
		<path style="fill:none;stroke:#703D29;stroke-width:0.99;" d="M276.4,195.6c-2.2-2-6.8-2.6-11.4,0.2c-0.6,0.4-1.2,0.8-1.8,1.3
			c-0.6,0.5-1.1,1.1-1.6,1.7c-0.5,0.7-1.2,1.8-1.6,2.6c-0.5,0.9-0.8,1.9-1.1,2.8c-0.6,2.2-0.9,4.4-0.7,6.7c0.1,1,0.2,2,0.4,2.9
			c0.4,2.3,1.3,4.6,2.5,6.6c1,1.6,3.5,5.3,8.7,5.8c2,0.2,5.5-0.7,5.6-3.2"/>
		<path style="fill:none;stroke:#703D29;stroke-width:0.99;stroke-linecap:round;" d="M409.2,151.1c0.3-1.8,2.6-2.1,3.4-1.1
			c1.3,1.6,0.4,4.4-2.2,5.2c-1.6,0.3-3.3-0.2-4.3-1.5c-1.1-1.3-1-3-0.6-4.3c0.3-0.9,1-1.6,1.9-2.3c3.1-2.2,8-1.7,9.6,2
			c2.1,4.8-2.5,8.4-6.7,11.1c-5.3,3.4-11.3,4-15.8,4c-10.3-0.1-18.1-4.8-23.2-7.5c-1.2-0.6-2.4-0.5-3,0.2c-0.7,0.9-0.6,2.2,0.3,2.9"
			/>
		<path style="fill:none;stroke:#703D29;stroke-width:0.99;stroke-linecap:round;" d="M411.3,149.5c1.1,0,1.4,0.5,1.7,0.9
			c1.3,1.6,0.3,4.4-2.3,5.2 M430.8,210.7c-3.9,4.1-0.3,11.1,2.6,12.6c1,0.8,1.4,0.3,2.3,0.8"/>
		<path style="fill:none;stroke:#703D29;stroke-width:0.99;" d="M431,203c-1.3,0.9-1.7,1.8-1.8,3.5c0,1.4,0.2,2.9,1.6,4.3
			c2.1,2.1,6.3,4,10.4,4c2.4,0.1,4.8-0.6,6.8-1.9c2.1-1.3,3.7-3.4,4.3-5.8 M428.8,273.3c0,0,0,1.6-0.2,2.7c-0.3,2.6-1.1,5.1-2.4,7.4
			c-1.1,2.3-2.7,4.4-4.7,6.1c-2.2,2.1-3.8,3-6.6,4.4c-2.7,1.3-4.4,1.7-7.4,2.3c-2.5,0.6-5.1,0.9-7.7,0.9c-2.8,0.1-4.4,0-7.1-0.2
			c-3-0.2-4.6-0.6-7.6-0.8c-2.4-0.2-3.8-0.4-6.3-0.4s-4,0-6.5,0.4c-2,0.3-4,0.8-5.8,1.5c-3,1.2-6.4,3.2-7.2,4.1
			c-0.7-0.9-4.1-2.9-7.2-4.1c-1.9-0.7-3.8-1.3-5.8-1.5c-2.1-0.4-4.3-0.5-6.5-0.4c-2.5,0-3.8,0.2-6.3,0.4c-3,0.2-4.6,0.6-7.6,0.8
			c-2.8,0.2-4.4,0.3-7.1,0.2c-3-0.1-4.8-0.3-7.7-0.9c-3-0.6-4.7-1-7.4-2.3c-2.8-1.3-4.3-2.3-6.6-4.4c-2-1.7-3.6-3.8-4.7-6.1
			c-1.3-2.3-2.1-4.8-2.3-7.4c-0.1-1-0.2-2.7-0.2-2.7v-109h138.6L428.8,273.3L428.8,273.3L428.8,273.3z"/>
	</g>
	<g>
		<path style="fill:#C7B37F;stroke:#C7B37F;stroke-width:0.51;" d="M278.9,288.9c0-1.5,1.3-2.7,2.8-2.7c1.6,0,2.8,1.2,2.8,2.7
			s-1.3,2.7-2.8,2.7C280.2,291.6,278.9,290.4,278.9,288.9z M261.7,270c0-1.3,0.9-2.4,2-2.4s2,1.1,2,2.4s-0.9,2.4-2,2.4
			S261.7,271.3,261.7,270z"/>
		<path style="fill:#C7B37F;" d="M271.5,222.4c0-1.1,0.9-2,1.9-2c1.1,0,1.9,0.9,1.9,2s-0.9,2-1.9,2
			C272.3,224.4,271.5,223.5,271.5,222.4z M305.9,152.1c-0.1-1.1,0.6-2.1,1.5-2.2c1-0.1,1.9,0.7,2,1.8s-0.6,2.1-1.5,2.2
			C306.9,154,306.1,153.2,305.9,152.1z"/>
	</g>
	<g>
		<path style="fill:none;stroke:#C7B37F;stroke-width:0.99;stroke-linecap:round;" d="M269.2,233.5c-0.4,0.2-0.6,0.3-1,0.6
			c-0.3,0.3-0.4,0.4-0.6,0.9c-0.2,0.4-0.2,0.8-0.3,1.3 M272.7,265c0.4-0.5,0.6-0.7,1-1.2c0.3-0.4,0.5-0.6,0.8-1s0.4-0.6,0.6-1
			c0.3-0.5,0.5-0.9,0.8-1.4 M274.4,275.3c-0.7,0.3-1.1,0.4-1.7,0.7c-0.5,0.2-0.8,0.4-1.2,0.7c-0.6,0.3-0.9,0.5-1.4,0.9
			s-0.8,0.6-1.4,1 M285.5,238.1c-0.4-0.4-0.6-0.6-0.9-0.9c-0.4-0.4-0.6-0.6-1-0.9c-0.4-0.3-0.7-0.5-1.1-0.8"/>
		<path style="fill:none;stroke:#C7B37F;stroke-width:0.99;" d="M286,223.9c-0.5,0.2-0.8,0.4-1.4,0.6c-0.6,0.2-1.1,0.3-1.7,0.3"/>
		<path style="fill:none;stroke:#C7B37F;stroke-width:0.99;stroke-linecap:round;" d="M267.1,206.2c0.2,0.6,0.2,1,0.5,1.6
			c0.3,0.8,0.6,1.2,1,1.8c0.5,0.7,0.8,1.1,1.4,1.7c0.6,0.5,0.9,0.8,1.6,1.2c0.6,0.4,1,0.5,1.7,0.9 M272.2,207.1
			c0.5,0.3,0.8,0.5,1.4,0.7c0.5,0.2,0.8,0.3,1.4,0.4c0.7,0.2,1.2,0.2,1.9,0.2c0.8,0,1.1,0,2.1-0.2 M287.1,164.7
			c-0.9-0.5-1.4-0.7-2.3-1.3c-0.8-0.5-1.5-1-2.1-1.6c-0.5-0.4-0.9-0.9-1.3-1.4s-0.6-0.9-0.9-1.4 M288.9,154.1
			c0.3,0.7,0.4,1.2,0.7,1.8c0.5,0.9,0.9,1.4,1.6,2.2c1,1.1,1.9,1.4,3.1,2.2 M295.9,154c0.3,0.6,0.4,1,0.7,1.7
			c0.3,0.5,0.5,0.8,0.9,1.3c0.5,0.6,0.9,0.9,1.5,1.4c0.7,0.6,1.3,0.7,2.1,1.2"/>
	</g>
	<path style="fill:#703D29;stroke:#703D29;stroke-width:0.28;" d="M375,145.3c-0.1-1.8-1.9-2-2.7-2c-2.1,0-2.6,1.2-5.2,2.6
		c-3.2,1.7-4.6,2-7.5,2.1c-2.9,0-4.3-0.4-7.6-2.1c-2.6-1.3-3-2.5-5.1-2.5c-1.4,0-2.6,1.2-2.5,2.6c0,0,0,0,0,0.1c0,0,0,0.5,0.1,0.9
		c0,0.1,0.2,0.1,0.3,0.2c0-0.8,0.2-1.2,0.6-1.8c0.4-0.5,1.1-0.9,1.8-0.9c2.1,0,2.9,1.3,5.4,2.6c3.2,1.7,4.6,2,7.5,2.1
		c2.9,0,4.3-0.4,7.6-2.1c2.6-1.3,3.3-2.7,5.4-2.7c0.7,0,1.2,0.4,1.5,1.1c0.1,0.4,0.1,0.7,0.1,0.9c0,0.1,0.1,0.1,0.2,0.2
		C374.8,146.2,375,146.1,375,145.3L375,145.3z"/>
</g>
<g>
	<path style="fill:#703D29;" d="M297.4,297.9c0.6-0.6,1-0.4,1.1-0.7c0.1-0.2-0.1-0.2-0.3-0.3c-0.3-0.1-0.6-0.2-1-0.3
		c-0.3-0.1-0.6-0.3-1-0.4c-0.1,0-0.5-0.2-0.5,0c-0.2,0.4,1.2,0.4,0.7,1.5c-0.1,0.2-0.3,0.6-0.9,1.3l-3,3.1c-0.1,0.1-0.2,0.2-0.2,0.2
		c-0.1,0-0.1-0.2-0.1-0.3v-4.4c0-0.8,0.1-1.4,0.2-1.8c0.2-0.5,0.8-0.1,0.9-0.4c0.1-0.2,0-0.2-0.3-0.3c-0.2-0.1-0.5-0.1-1.3-0.4
		c-0.4-0.1-0.7-0.3-1.1-0.5c-0.2-0.1-0.5-0.3-0.6,0c0,0.1,0.1,0.2,0.1,0.2c0.4,0.3,0.5,0.5,0.5,1l0.1,8c0,0.6,0.1,0.7,0.2,0.8
		c0.1,0,0.2,0,0.5-0.3L297.4,297.9L297.4,297.9z"/>
	<path style="fill:#703D29;" d="M300.9,299.1c0.4-1.2,1.1-0.5,1.2-0.9c0.1-0.1,0-0.2-0.3-0.3c-0.7-0.2-1.1-0.3-1.5-0.4
		s-0.8-0.3-1.3-0.4c-0.1,0-0.4-0.2-0.5,0c-0.1,0.4,1.3,0.5,0.9,1.6l-1.9,5.9c-0.4,1.2-1.1,0.6-1.2,1c0,0.1,0,0.2,0.1,0.2
		c0.3,0.1,0.8,0.2,1.3,0.3c0.9,0.3,1.3,0.4,1.7,0.6c0.3,0.1,0.4,0.1,0.4-0.1c0.1-0.4-1.4-0.2-0.9-1.7L300.9,299.1L300.9,299.1z
		 M305.1,300.3c0.2-0.7,0.6-0.6,1-0.5c1.2,0.3,1.5,1.4,1.2,2.6c-0.2,0.7-0.5,1.4-2.3,0.9c-0.4-0.1-0.8-0.2-0.7-0.5L305.1,300.3z
		 M301.9,305.6c-0.5,1.5-1.3,0.9-1.4,1.3c-0.1,0.2,0.2,0.3,0.3,0.3c0.6,0.2,1.2,0.3,1.8,0.5c0.5,0.1,0.8,0.3,1,0.3
		c0.3,0.1,0.4,0,0.4-0.1c0.1-0.4-1.2-0.3-0.8-1.6l0.7-2.1c0.1-0.4,0.1-0.5,0.7-0.4c0.6,0.2,0.8,0.3,0.8,0.9l0.4,2.2
		c0.1,0.8,0.3,1.7,1.2,1.9c0.5,0.1,1.3,0.1,1.4-0.3c0-0.1,0-0.2-0.1-0.2s-0.3,0-0.4,0s-0.3-0.1-0.4-0.3c-0.4-1.8-0.8-3.8-0.8-3.9
		s0.4-0.1,0.8-0.3c0.4-0.2,0.9-0.6,1.2-1.3c0.2-0.6,0.5-2.4-2.1-3.1c-0.8-0.2-1.6-0.4-2.4-0.6c-0.7-0.2-0.8-0.3-1.3-0.4
		c-0.1,0-0.3,0-0.3,0.1c-0.1,0.4,1.3,0.3,0.8,1.7L301.9,305.6L301.9,305.6z M311.4,308.2c-0.4,1.5-1.5,0.6-1.7,1.1
		c-0.1,0.3,0.1,0.3,0.3,0.4c0.5,0.1,0.9,0.1,1.7,0.3c0.8,0.2,1.2,0.3,1.6,0.4c0.3,0.1,0.6,0.2,0.6-0.1c0.1-0.3-1.5-0.3-1.1-1.9
		l1.4-5.6c0.1-0.6,0.3-0.6,0.8-0.5l1,0.2c1.4,0.3,0.6,1.5,1.1,1.7c0.3,0.1,0.3-0.4,0.3-0.6l0.2-1.2c0-0.1,0.1-0.3-0.1-0.3
		c-1.1-0.3-1.9-0.4-3.6-0.8s-2.5-0.6-3.6-0.9c-0.2,0-0.2,0.1-0.3,0.3l-0.6,1.6c-0.1,0.2-0.2,0.4,0,0.5c0.5,0.1,0.6-1.6,1.9-1.3
		l1,0.2c0.5,0.1,0.6,0.2,0.4,0.8L311.4,308.2L311.4,308.2z M325.7,304.7c0.5-0.7,0.9-0.5,1-0.8c0-0.2-0.1-0.2-0.4-0.3
		c-0.3-0.1-0.7-0.1-1-0.1c-0.3-0.1-0.7-0.2-1-0.2c-0.1,0-0.5-0.1-0.5,0.1c-0.1,0.4,1.2,0.2,1,1.4c0,0.2-0.1,0.6-0.7,1.4l-2.4,3.5
		c-0.1,0.1-0.1,0.2-0.2,0.2s-0.1-0.2-0.1-0.3l-0.8-4.3c-0.1-0.8-0.2-1.4-0.1-1.8c0.1-0.5,0.8-0.2,0.8-0.6c0-0.2,0-0.2-0.4-0.3
		c-0.2,0-0.5,0-1.3-0.2c-0.4-0.1-0.8-0.2-1.2-0.3c-0.2,0-0.5-0.2-0.6,0.1c0,0.1,0.1,0.2,0.2,0.2c0.5,0.2,0.6,0.4,0.7,0.9l1.5,7.8
		c0.1,0.6,0.2,0.7,0.3,0.7c0.1,0,0.2,0,0.4-0.3L325.7,304.7L325.7,304.7z M326.3,312c0,0.3,0,0.4,0.3,0.5c0.7,0.3,1.2,0.7,1.9,0.8
		c1.6,0.2,2.9-0.7,3.2-2.4c0.3-1.6-0.4-2.3-1.6-3.1c-1.5-1-2.1-1.3-1.9-2.1c0.1-0.9,0.8-1.2,1.6-1.1c2.1,0.3,1.8,2.7,2.1,2.7
		c0.3,0,0.3-0.1,0.4-0.4l0.2-1.7c0-0.3,0.1-0.5-0.1-0.5s-0.5,0.1-0.6,0.1c-0.4-0.1-0.8-0.6-1.7-0.8c-1.4-0.2-2.5,0.7-2.8,2.1
		c-0.2,1.3,0.4,1.9,1.3,2.6c1.8,1.2,2.5,1.5,2.3,2.6c-0.2,1-1,1.5-1.9,1.4c-1.3-0.2-1.9-1.5-2-2.7c0-0.2,0-0.3-0.2-0.3
		c-0.3,0-0.2,0.3-0.2,0.5L326.3,312L326.3,312z M344.1,307.2c0.4-0.7,0.9-0.6,0.9-0.9c0-0.2-0.2-0.2-0.4-0.2c-0.3,0-0.7,0-1,0
		s-0.7-0.1-1-0.1c-0.1,0-0.5-0.1-0.5,0.2c0,0.4,1.2,0.1,1.1,1.3c0,0.2-0.1,0.7-0.5,1.5l-2,3.8c0,0.1-0.1,0.3-0.2,0.3
		s-0.1-0.2-0.1-0.3l-1.2-4.2c-0.2-0.6-0.3-1.2-0.3-1.8c0-0.5,0.7-0.3,0.8-0.6c0-0.2,0-0.2-0.4-0.2c-0.2,0-0.5,0-1.3,0
		c-0.4,0-0.8-0.1-1.2-0.1c-0.2,0-0.5-0.1-0.6,0.2c0,0.1,0.1,0.2,0.2,0.2c0.5,0.2,0.6,0.3,0.8,0.8l2.4,7.6c0.2,0.5,0.3,0.7,0.4,0.7
		s0.2-0.1,0.4-0.4L344.1,307.2L344.1,307.2z"/>
	<path style="fill:#703D29;" d="M346,313.4c0,1.3-1.2,1.1-1.2,1.6c0,0.2,0.2,0.2,0.4,0.2c0.3,0,0.6,0,1,0s0.8,0.1,1.4,0.1
		c0.2,0,0.5,0,0.5-0.2c0-0.6-1.5,0.3-1.5-2.2v-4.4c0-0.1,0-0.2,0.1-0.2s0.1,0.1,0.2,0.2l5.8,6.7c0.1,0.1,0.1,0.2,0.3,0.2
		c0.1,0,0.1-0.1,0.1-0.4l0.1-7.2c0-1.3,1-1,1-1.4c0,0,0-0.2-0.2-0.2c-0.1,0-0.5,0-1.3,0s-1.2-0.1-1.4-0.1c-0.2,0-0.2,0.1-0.2,0.2
		c0,0.4,1.5,0.2,1.5,1.4v4.3c0,0.3,0,0.5-0.1,0.5s-0.2-0.2-0.4-0.3l-4.8-5.7c-0.2-0.2-0.1-0.3-0.5-0.3c-0.6,0-1,0-1.3,0
		c-0.2,0-0.4-0.1-0.7-0.1c-0.1,0-0.2,0.1-0.2,0.2c0,0.6,1.4-0.2,1.3,2.2L346,313.4L346,313.4z M357.7,307.6c0-1.2,0.9-0.7,0.9-1.2
		c0-0.2-0.1-0.2-0.4-0.2c-0.7,0-1.1,0-1.6,0c-0.4,0-0.9-0.1-1.4-0.1c-0.1,0-0.4,0-0.4,0.2c0,0.4,1.3,0.1,1.3,1.3v6.1
		c0,1.2-0.9,0.9-0.9,1.3c0,0.1,0,0.2,0.1,0.2c0.3,0,0.8,0,1.4,0c0.9,0,1.4,0.1,1.8,0.1c0.3,0,0.4,0,0.4-0.2c0-0.4-1.4,0.2-1.3-1.4
		L357.7,307.6L357.7,307.6z M362.8,313.6c0,1.5-1.4,0.9-1.4,1.4c0,0.3,0.2,0.3,0.4,0.3c0.5,0,0.9-0.1,1.7-0.1c0.8,0,1.2,0,1.7,0
		c0.4,0,0.6,0,0.6-0.3c0-0.4-1.5,0-1.6-1.5l-0.1-5.8c0-0.6,0.1-0.7,0.6-0.7h1c1.4-0.1,1,1.4,1.5,1.4c0.3,0,0.2-0.5,0.1-0.7l-0.1-1.2
		c0-0.1,0-0.3-0.2-0.3c-1.1,0-1.9,0.1-3.7,0.1c-1.8,0-2.6,0-3.7,0c-0.2,0-0.2,0.2-0.2,0.3l-0.2,1.7c0,0.2-0.1,0.4,0.2,0.4
		c0.5,0,0.2-1.7,1.5-1.7h1c0.5,0,0.6,0.1,0.6,0.7L362.8,313.6L362.8,313.6z M369.8,311.1c-0.2,0-0.4,0-0.4-0.1c0-0.2,0-0.3,0.1-0.5
		l0.7-2.3c0.1-0.1,0.1-0.2,0.1-0.2c0.1,0,0,0,0.1,0.1l1.2,2.2c0.1,0.1,0.2,0.3,0.2,0.5c0,0.1-0.2,0.1-0.4,0.1L369.8,311.1z
		 M371.9,311.7c0.3,0,0.4,0.1,0.9,1.1c0.2,0.3,0.3,0.6,0.3,0.8c0.1,0.8-0.8,0.7-0.8,1.1c0,0.2,0.2,0.1,0.4,0.1
		c0.3,0,0.8-0.1,1.3-0.1c0.8-0.1,1.1,0,1.6-0.1c0.3,0,0.4,0,0.4-0.2c0-0.4-0.6,0.1-1.1-0.8L371,306c-0.2-0.4-0.2-0.4-0.3-0.4
		c-0.2,0-0.2,0.3-0.3,0.5l-2.6,8c-0.2,0.7-0.9,0.7-0.8,1c0,0.2,0.2,0.1,0.4,0.1c0.3,0,0.7-0.1,1.1-0.1s0.8,0,1.1,0
		c0.3,0,0.6,0,0.6-0.2c0-0.3-1.3,0-1.4-1c0-0.3,0.1-0.8,0.2-1c0.2-0.9,0.5-0.9,0.7-0.9L371.9,311.7L371.9,311.7z M381.3,306.4
		c-0.1-0.9-0.1-0.9,1.4-1.1c2.3-0.3,1.6,1.3,2.1,1.2c0.3,0,0.2-0.4,0.1-0.6l-0.2-1.2c0-0.1-0.1-0.2-0.3-0.2
		c-1.1,0.1-1.9,0.3-2.7,0.4c-1.8,0.2-2.7,0.3-3.2,0.3c-0.2,0-0.2,0.1-0.2,0.3c0.1,0.5,1.4-0.1,1.5,1.1l0.8,5.9
		c0.2,1.5-0.8,1-0.7,1.6c0,0.1,0.1,0.1,0.3,0.1c0.7-0.1,1.2-0.2,1.5-0.2c0.5-0.1,1-0.1,1.4-0.1c0.3,0,0.6,0,0.5-0.3
		c0-0.3-1.4,0.1-1.5-1.3l-0.3-1.9c-0.1-0.7-0.2-0.9,0.4-1l0.9-0.1c1.2-0.2,1.1,1.2,1.5,1.2c0.3,0,0.2-0.5,0.1-0.6l-0.4-2.2
		c-0.1-0.3-0.2-0.3-0.3-0.3c-0.2,0-0.1,1.2-1.2,1.3l-0.7,0.1c-0.5,0.1-0.5,0-0.6-0.6L381.3,306.4L381.3,306.4z M385.7,309.3
		c0.5,2.6,2.4,4,4.8,3.5c3.8-0.7,3.9-3.9,3.6-5.6c-0.5-2.7-2.6-4-4.9-3.5C386.3,304.2,385.1,306.5,385.7,309.3z M387,308.3
		c-0.4-1.8-0.1-3.7,1.9-4.1c1.5-0.3,3.3,0.9,3.8,3.7c0.4,2.1,0.1,3.9-2,4.3C388.6,312.6,387.4,310.1,387,308.3L387,308.3z
		 M396.4,303.8c-0.2-0.7,0.2-0.8,0.6-0.9c1.2-0.3,2.1,0.5,2.4,1.7c0.2,0.7,0.3,1.4-1.5,1.9c-0.4,0.1-0.8,0.2-0.9-0.1L396.4,303.8
		L396.4,303.8z M396.4,309.9c0.4,1.6-0.6,1.4-0.6,1.8c0.1,0.2,0.3,0.2,0.4,0.1c0.6-0.1,1.2-0.3,1.8-0.5c0.5-0.1,0.8-0.1,1-0.2
		c0.3-0.1,0.3-0.2,0.3-0.3c-0.1-0.4-1.2,0.3-1.5-1l-0.5-2.2c-0.1-0.4-0.2-0.5,0.4-0.6s0.8-0.1,1.2,0.4l1.5,1.7
		c0.5,0.6,1.1,1.3,2.1,1.1c0.5-0.1,1.2-0.6,1.1-0.9c0-0.1-0.1-0.2-0.2-0.1c-0.1,0-0.2,0.1-0.3,0.2c-0.1,0-0.3,0.1-0.5-0.1
		c-1.2-1.4-2.7-2.9-2.7-3s0.3-0.3,0.6-0.7c0.3-0.4,0.5-0.9,0.3-1.7c-0.1-0.6-0.8-2.3-3.4-1.7c-0.8,0.2-1.6,0.4-2.4,0.6
		c-0.7,0.2-0.8,0.1-1.4,0.3c-0.1,0-0.2,0.1-0.2,0.2c0.1,0.5,1.3-0.3,1.6,1.1L396.4,309.9L396.4,309.9z M406.1,307.9
		c0.4,1.5-1.1,1.2-1,1.7c0.1,0.3,0.3,0.2,0.5,0.2c0.5-0.1,0.8-0.3,1.6-0.5c0.8-0.2,1.2-0.2,1.7-0.3c0.3-0.1,0.6-0.1,0.5-0.4
		s-1.5,0.4-1.9-1.1l-1.5-5.6c-0.2-0.6-0.1-0.7,0.4-0.8l1-0.2c1.3-0.4,1.3,1.1,1.8,1c0.3-0.1,0-0.5,0-0.7l-0.4-1.1
		c0-0.1-0.1-0.3-0.3-0.3c-1.1,0.3-1.9,0.5-3.6,0.9s-2.5,0.6-3.6,0.8c-0.2,0-0.1,0.2-0.1,0.3l0.3,1.7c0,0.2,0,0.5,0.3,0.4
		c0.5-0.1-0.3-1.7,1.1-2l1-0.2c0.5-0.1,0.6-0.1,0.8,0.5L406.1,307.9L406.1,307.9z M412.3,300c-0.3-1.2,0.7-1,0.5-1.4
		c0-0.2-0.1-0.2-0.5-0.1c-0.7,0.2-1.1,0.3-1.5,0.4s-0.9,0.2-1.3,0.3c-0.1,0-0.4,0.1-0.3,0.3c0.1,0.4,1.3-0.3,1.7,0.9l1.7,5.9
		c0.3,1.2-0.6,1.1-0.5,1.5c0,0.1,0.1,0.1,0.2,0.1c0.3-0.1,0.8-0.3,1.3-0.4c0.9-0.2,1.3-0.3,1.8-0.4c0.3-0.1,0.4-0.2,0.3-0.3
		c-0.1-0.4-1.3,0.5-1.7-1L412.3,300z M414.8,302.9c0.9,2.5,3,3.6,5.3,2.9c3.7-1.2,3.3-4.4,2.7-6.1c-0.9-2.6-3.2-3.6-5.4-2.9
		C414.7,297.7,413.9,300.2,414.8,302.9z M416,301.7c-0.6-1.8-0.6-3.6,1.3-4.3c1.5-0.5,3.4,0.5,4.3,3.1c0.7,2,0.6,3.8-1.3,4.5
		C418.3,305.8,416.6,303.5,416,301.7L416,301.7z M424.6,295.9c-0.3-0.7,0.1-0.8,0.5-1c1.1-0.4,2.1,0.2,2.6,1.4
		c0.3,0.7,0.5,1.4-1.2,2c-0.3,0.1-0.8,0.3-0.9,0L424.6,295.9L424.6,295.9z M425.5,302c0.6,1.5-0.5,1.4-0.3,1.8
		c0.1,0.2,0.3,0.1,0.4,0.1c0.6-0.2,1.1-0.5,1.7-0.7c0.5-0.2,0.8-0.2,1-0.3c0.3-0.1,0.3-0.2,0.3-0.3c-0.2-0.4-1.1,0.5-1.6-0.8
		l-0.9-2.1c-0.2-0.4-0.3-0.5,0.3-0.7c0.6-0.2,0.8-0.2,1.3,0.2l1.7,1.5c0.6,0.6,1.3,1.2,2.2,0.8c0.5-0.2,1.1-0.7,0.9-1.1
		c0-0.1-0.1-0.1-0.2-0.1s-0.2,0.2-0.3,0.2c-0.1,0-0.3,0.1-0.5,0c-1.4-1.2-3.1-2.6-3.1-2.6c-0.1-0.1,0.2-0.3,0.4-0.7
		c0.2-0.4,0.4-1,0-1.7c-0.2-0.5-1.1-2.1-3.6-1.2c-0.8,0.3-1.5,0.6-2.3,0.9c-0.7,0.3-0.8,0.3-1.3,0.4c-0.1,0.1-0.2,0.2-0.2,0.3
		c0.2,0.4,1.2-0.5,1.8,0.9L425.5,302L425.5,302z"/>
</g>
<g>
	<path style="fill:#D52B1E;" d="M297.1,170.9h59.2v56.2h-59.2V170.9z"/>
	<path id="a" style="fill:#FFFFFF;" d="M324.9,215.2c0,0,0,2-0.6,3.6c-0.7,1.9-0.7,1.9-1.3,2.8c-0.7,1.1-1.6,2-2.7,2.7
		c-1.4,0.9-2.8,1.3-4.3,1.2c-4-0.3-5.8-4.4-6.7-7.7c-1-3.5-3.7-5.4-5.4-4.2c-1,0.7-1.1,2-0.2,3.2c0.9,1.3,3,1.9,3,1.9l-2.1,2.6
		c0,0-4.5-0.6-5.4-5.1c-0.3-1.7,0.5-4.9,3.5-5.8c3.8-1.2,6.2,1.4,7.4,3.6c1.6,3,2.3,8.5,6.8,7.7c2.4-0.5,3.6-3.8,3.6-5.4l1.8-1.8
		L324.9,215.2L324.9,215.2L324.9,215.2z"/>
	<g transform="matrix(-1 0 0 1 907.52 0)">
		<path id="a_1_" style="fill:#FFFFFF;" d="M328.6,215.2c0,0,0,2,0.6,3.6c0.7,1.9,0.7,1.9,1.3,2.8c0.7,1.1,1.6,2,2.7,2.7
			c1.4,0.9,2.8,1.3,4.3,1.2c4-0.3,5.8-4.4,6.7-7.7c1-3.5,3.7-5.4,5.4-4.2c1,0.7,1.1,2,0.2,3.2c-0.9,1.3-3,1.9-3,1.9l2.1,2.6
			c0,0,4.5-0.6,5.4-5.1c0.3-1.7-0.5-4.9-3.5-5.8c-3.8-1.2-6.2,1.4-7.4,3.6c-1.6,3-2.3,8.5-6.8,7.7c-2.4-0.5-3.6-3.8-3.6-5.4
			l-1.8-1.8L328.6,215.2L328.6,215.2L328.6,215.2z"/>
	</g>
	<path style="fill:#FEDF00;" d="M332,191.3l7.7-8c0,0,1.2-0.9,1.2-2.3l-1.6,0.2l-0.4-0.8l-0.1-0.8l2.1-0.4c0-0.3,0-0.6,0.1-0.9
		c0.1-0.3,0.1-0.5,0.2-0.9l-2.3,0.2c0.1-0.4,0.1-0.6,0.2-1c0.1-0.3,0.1-0.4,0.4-0.8c0.4-0.1,0.8-0.2,1.4-0.2c0.5,0,0.8,0,1.4-0.1
		c1.3-2.3,6.6-4.4,10.4-0.6c2.7,2.7,2.2,7.7-1.4,9c-1.7,0.7-3.6,0.4-4.9-0.8l1.4-2.7c2,1.1,3.6-0.3,3.5-1.7
		c-0.1-1.8-1.4-2.9-3.1-3.1c-1.6-0.1-2.8,0.8-3.5,2.1c-0.5,0.9-0.2,1.5-0.4,2.4c-0.2,1-0.1,1.6-0.4,2.6c-0.3,0.9-0.9,1.8-1.7,2.5
		l-7.9,8.2l-30.9,31.9l-2.3-2L332,191.3L332,191.3z"/>
	<path style="fill:#FFFFFF;" d="M309.2,194.1c0,0,1.9,9.2,8.5,22.9c3.4-1.2,5.3-1.9,8.9-1.9s5.5,0.6,8.9,1.9
		c6.6-13.8,8.5-22.9,8.5-22.9l-17.4-21.4L309.2,194.1L309.2,194.1z"/>
	<path style="fill:#FEDF00;" d="M328.4,179.9l12.1,14.8c0,0-1.6,7.2-6.5,18.1c-1.9-0.4-3.5-0.8-5.6-0.9V179.9L328.4,179.9z
		 M325,179.9l-12.1,14.8c0,0,1.6,7.2,6.5,18.1c1.9-0.4,3.5-0.8,5.6-0.9V179.9L325,179.9z"/>
</g>
<g>
	<path style="fill:#FEDF00;" d="M362.6,170.9h59.2v56.2h-59.2V170.9z"/>
	<path style="fill:#D52B1E;" d="M370.9,170.9h8.8v56.2h-8.8V170.9z M387.8,170.9h8.8v56.2h-8.8V170.9z M404.7,170.9h8.8v56.2h-8.8
		V170.9z"/>
</g>
<g>
	<path style="fill:#FEDF00;" d="M297.3,275.9c0.2,1,0.5,2.7,1.6,4.5c1.1,1.6,0.7,1.6,3.1,4.1c1.2,1.3,3,2.3,4.5,3.1
		c1.5,0.7,2.5,1.1,4.9,1.7c4.7,1.2,8,1.2,11.9,1.1c3.1-0.1,5.4-0.5,7.4-0.7c2.8-0.4,4.8-0.6,8-0.7c1.5-0.1,3-0.1,4.4,0
		c1.7,0.1,3.4,0.3,5.3,0.7c2.7,0.6,5.3,1.3,7.9,2.2v-58.7h-59.2v40.1C297.1,273.3,297.2,275.3,297.3,275.9L297.3,275.9z"/>
	<path style="fill:#D52B1E;stroke:#D52B1E;stroke-width:0.51;" d="M304.2,286.2l2.8,1.5l3.8,1.3v-55.9h-6.6L304.2,286.2L304.2,286.2
		z M337.1,288.8v-55.6h-6.6v56.5c0,0,4.5-0.5,6.6-0.7V288.8z M350.2,233.2h-6.6V289c2.1,0.2,4.3,0.6,6.6,1.2V233.2L350.2,233.2z
		 M323.9,233.2v57.1c-0.1,0-4.4,0.2-6.6,0v-57.1L323.9,233.2z"/>
</g>
<path style="fill:#FEDF00;" d="M421.5,275.9c-0.2,1.6-0.8,3.1-1.6,4.5c-1.1,1.6-0.7,1.6-3.1,4.1c-1.2,1.3-3,2.3-4.5,3.1
	c-1.5,0.8-2.5,1.1-4.9,1.7c-4.7,1.2-8,1.2-11.9,1.1c-3.1-0.1-5.4-0.5-7.4-0.7c-2.8-0.4-4.8-0.6-8-0.7c-1.5-0.1-2.9-0.1-4.4,0
	c-1.7,0.1-3.4,0.3-5.3,0.7c-3.9,0.8-7.9,2.2-7.9,2.2v-58.7h59.2v40.1C421.8,273.3,421.7,275.3,421.5,275.9L421.5,275.9z"/>
<g id="b">
	<path style="fill:#D52B1E;" d="M377.7,237.9l-0.4,0.2c-0.2,0.2-0.3,0.4-0.6,0.6c-0.3,0.3-0.6,0.3-0.9,0.6c-0.2,0.1-0.3,0.1-0.4,0.3
		c-0.2,0.2-0.1,0.4-0.2,0.7s-0.3,0.4-0.5,0.6c-0.3,0.3-0.5,0.4-0.8,0.7s-0.4,0.5-0.8,0.7c-0.1,0-0.1,0.1-0.2,0.1c-0.2,0-0.2,0-0.4,0
		c-0.3,0.1-0.4,0.4-0.6,0.5c0.1,0.2,0.1,0.3,0.2,0.4c0.1,0.2,0.5,0.8,0.6,1c0.2,0.2,0.2,0.5,0.4,0.5c0.4,0.1,0.6,0.1,1,0.1
		c0.6,0.1,0.9,0.1,1.5,0.3c0.4,0.2,0.6,0.4,1.1,0.6c0.3,0.1,0.6,0.2,0.9,0.3c0.3,0,0.4,0.1,0.7,0.1c0.2,0,0.3-0.1,0.4-0.1h0.1v0.3
		v0.1l0,0l1.5,0.6c-0.1,0.1-0.1,0.2-0.1,0.3c-0.1,0.2-0.1,0.5,0,0.6c0.5,1.3,0.8,2.1,1.1,2.2c0.4,0.2,0.6,0.6,0.8,1
		c-0.1,0.1-0.2,0.1-0.3,0.2c-0.4,0.4-0.8,0.7-1.2,1.2c-0.5,0.8-0.9,0.8-0.2,1.9c0.4,0.6,0.6,0.8,1.1,1.6c0.3,0.5,0.4,0.8,0.6,1.4
		c0.1,0.5,0.2,0.8,0.2,1.4l0.7,0.3l0.5-0.4l0.5-0.8v-0.6c-0.2-0.1-0.2-0.3-0.2-0.5c0.1-0.3,0.4-0.2,0.5-0.4c0.2-0.3-0.2-0.5-0.5-0.8
		c-0.4-0.5-1-0.6-1.2-1.3c0-0.2,0.1-0.3,0.3-0.5c0.6-0.6,0.8-0.7,1.4-1.2c0.2,0.1,0.4,0.1,0.7,0.1c0.2,0,0.4,0.1,1,0.3
		c0.4,0.1,0.6,0.1,0.9,0l0.3-0.1c0,0.2,0.1,0.3,0.1,0.5c0,0.7-0.1,2.1,0.1,2.4c0.1,0.1,0.1,0.2,0.2,0.4c0.1,0.2,0.2,0.3,0.2,0.5
		c0,0.5,0,0.8,0,1.3s-0.1,0.7-0.2,1.2c-0.1,0.3-0.1,0.5-0.3,0.7c-0.2,0.2-0.4,0.3-0.7,0.5l-0.1,0.7l0.8,0.3l0.9,0.2l0.5-0.2
		c0-0.2,0-0.3,0.1-0.4c0.1-0.2,0.2-0.3,0.3-0.4c0.3-0.1,0.5,0.1,0.6-0.1s0.1-0.2,0-0.5c0-0.5-0.1-0.7-0.2-1.1
		c-0.1-0.6-0.2-1.3-0.1-1.9c0-0.4,0-0.7,0.1-1.1c0.1-0.6,0.3-0.9,0.5-1.5c0.2-0.7,0.2-1.1,0.3-1.7c2.3,0.3,4.2,0.3,6.7-0.3
		c0.1,0,0.5-0.2,0.5-0.2c0.6,0.5,1.2,0.9,2,1.1v0.7c0,0.2,0,0.3,0.1,0.5c0.1,0.1,0.1,0.2,0.3,0.2c0.2,0,0.3,0,0.5-0.1
		s0.1-0.3,0.2-0.5c0-0.1,0-0.4,0-0.5c0.3,0,0.4,0,0.6,0c0.3,0,0.4,0,0.6,0v0.3c0,0.2-0.1,0.3,0,0.5s0.2,0.2,0.4,0.3
		c0.1,0,0.3,0,0.4-0.1c0.2-0.1,0.2-0.3,0.2-0.6c0-0.1,0-0.5,0-0.5l0.7-0.3c0,0.2,0,0.4-0.1,0.6c0,0.2-0.1,0.4-0.2,0.6
		c-0.1,0.4-0.3,0.6-0.5,0.9c-0.3,0.4-0.4,0.7-0.7,1.1c-0.2,0.2-0.3,0.3-0.4,0.5c-0.2,0.2-0.2,0.4-0.4,0.6c-0.2,0.3-0.4,0.5-0.7,0.7
		c-0.5,0.4-0.8,0.1-1.5,0.6l-0.2,0.7l1,0.4l0.9,0.2l0.3-0.2c0-0.2,0-0.3,0.2-0.5s0.3-0.2,0.6-0.3c0.3,0,0.5,0,0.7-0.2
		c0.3-0.2,0.3-0.6,0.5-1c0.5-1,1.3-1.9,2.2-2.7c0.4-0.4,0.8-0.5,1.2-1c0.2-0.2,0.4-0.3,0.4-0.6c0-0.2-0.1-0.3-0.2-0.5
		c-0.1-0.3-0.1-0.7-0.1-0.7c1.1,0.5,0.7,0.4,0.9,1c0.2,0.4,0,0.7,0,1.2c0.1,0.5,0.3,0.8,0.4,1.3c0.1,0.6-0.1,1-0.2,1.6
		c-0.1,0.5-0.1,0.9-0.3,1.4c-0.2,0.4-0.5,0.8-0.8,1.1c-0.1,0.1-0.3,0.2-0.4,0.3l-0.1,0.7l0.8,0.3l1.2,0.3l0.3-0.2
		c0.1-0.4,0-1.1,0.3-1.2c0.3,0,0.5,0,0.6-0.2c0-0.1,0-0.2,0.1-0.4c0.2-1.3,0.3-2.5,0.4-3.1c0.2-0.7,0.2-0.8,0.3-1.3
		c0.1-0.5-0.1-0.2,0.3-1.2c0.5-1.4-0.1-1.6-0.8-2.5c-0.3-0.5-0.4-0.7-0.5-1c-0.1-0.6,0.1-1,0.1-1.9c0-0.7,0-1.3,0-2
		c0.1,0,0.2-0.1,0.3-0.1c0.8-0.4,1.2-0.6,1.7-1.7c0.2-0.3,0.2-0.7,0.2-1c0-0.2-0.1-0.5-0.1-0.7c0-0.3-0.1-0.4-0.2-0.6
		c-0.1-0.2-0.2-0.4-0.4-0.6c-0.6-0.6-1.3-0.8-2-1c-1.1-0.4-1.8-0.3-3-0.4c-1.2-0.1-1.9-0.1-3.1,0c-1.4,0.1-2.3,0.4-3.7,0.5
		c-1.4,0.2-2.1,0.3-3.5,0.3c-1.6,0-3.2-0.3-4.2-0.2c-1.8,0.1-1.8,0.5-4.5,0.7c-1.4,0.1-2.8,0.1-2.8,0.1l-1.6-0.5
		c0.6-0.2,0.8-0.3,1.1-0.7c0.2-0.2,0.2-0.5,0.4-0.7c0.2-0.2,0.3-0.4,0.6-0.7c-0.2-0.1-0.4-0.2-0.7-0.3c-0.3-0.1-0.4,0-0.7,0
		c-0.4,0-0.6,0.1-0.9,0.2c-0.3,0.1-0.4,0.2-0.6,0.4c0,0-0.9-0.6-1.6-0.8C379.1,238.2,378.7,238,377.7,237.9L377.7,237.9z M379.1,246
		L379.1,246L379.1,246L379.1,246L379.1,246z"/>
	<g>
		<path style="fill:none;stroke:#FEDF00;stroke-width:0.99;stroke-linecap:round;" d="M409.5,246.5l-0.5,0.2
			c-0.6,0.3-1.1,0.3-1.9,0.3c-1.9,0.1-3.1-0.7-5-0.6c-1,0.1-1.5,0.8-2.5,1.1c-0.5,0.1-0.7,0.2-1.2,0.2l0.4-0.7c0,0-0.9,0.2-1.5,0.2
			c-0.4,0-0.7,0-1.1-0.1l0.7-0.7c0,0-0.6-0.1-0.9-0.2c-0.3-0.1-0.5-0.3-0.8-0.4c0.5-0.1,0.7-0.1,1.2-0.2c1.1-0.3,1.5-0.8,2.8-0.9
			c0.8-0.1,2.2,0,5.5,0.5c2.2,0.3,3.2,0.2,4-0.2c0.6-0.2,0.7-0.7,0.8-1.2c0.1-0.5-0.3-1-0.6-1.2c-0.1-0.1-0.3-0.2-0.8-0.2"/>
		<path style="fill:#FCD900;stroke:#FEDF00;stroke-width:0.51;" d="M377.9,240.4c-0.4,0-0.6,0-1,0.2c-0.3,0.2-0.4,0.5-0.6,0.8
			c0.3,0.1,0.5,0.2,0.8,0.2c0.3-0.1,0.4-0.2,0.6-0.3C377.8,241,377.9,240.8,377.9,240.4L377.9,240.4z"/>
		<path style="fill:none;stroke:#FEDF00;stroke-width:0.99;stroke-linecap:round;" d="M385.9,249.5c0,0,0.2,0.3,0.3,0.5
			c0.2,0.4,0.3,0.6,0.4,1c0.1,0.5,0.1,0.9,0.2,1.4c0,0.1,0,0.2,0.1,0.3v0.8 M391.7,248.7l-0.3,0.9c-0.3,0.9-0.5,1.4-0.7,2.4
			c0,0.2-0.1,0.3-0.1,0.4 M382.9,249.7c0.6,0.1,0.4,2.3,1.3,2.8"/>
		<path style="fill:none;stroke:#FEDF00;stroke-width:0.99;" d="M403.3,253.6l0.3-0.2c0.7-0.3,1.4-0.7,1.9-1.2"/>
		<path style="fill:none;stroke:#FEDF00;stroke-width:0.99;stroke-linecap:round;" d="M397.7,252.4c2.5-0.6,4.2-1.8,5.5-2
			 M400.3,249.3c0.2,0,0.4,0,0.6,0c1.1-0.1,1.2,0.5,2,0.9c1.3,0.7,1.5,1.6,3.1,2.3l0.2,0.1l0.6,0.3"/>
		<path style="fill:#FCD900;stroke:#FEDF00;stroke-width:0.51;" d="M372.7,243.1c0.2,0,0.3,0.1,0.5,0c0.2,0,0.4-0.2,0.6-0.2
			s0.3,0,0.5,0.1c0.1,0.1,0.1,0.1,0.2,0.2c0.1,0.1,0.1,0.2,0.1,0.3c0,0.2-0.2,0.3-0.4,0.3c-0.2,0-0.3,0-0.4-0.2c0-0.1-0.1-0.2,0-0.3
			c-0.2,0.1-0.4,0.1-0.6,0C373,243.4,372.9,243.3,372.7,243.1z"/>
	</g>
	<g>
		<path style="fill:#0065BD;" d="M378.1,249.7c-0.6-0.2-1.4-0.6-1.4-0.6c0.2-0.2,0.4-0.2,0.6-0.4c0.3-0.3,0.3-0.5,0.4-0.9
			c0.2-0.4,0.1-0.7,0.5-0.9c0.2-0.2,0.5-0.2,0.8-0.1c0.3,0.1,0.5,0.3,0.6,0.5c0.1,0.4-0.1,0.6-0.2,1s-0.2,0.6-0.1,1
			c0.1,0.3,0.2,0.4,0.3,0.6C379.6,250,378.7,249.9,378.1,249.7z M377.4,250.4c0-0.2,0.2-0.4,0.4-0.4c0.3,0,0.5,0.2,0.5,0.4
			s-0.2,0.4-0.4,0.4C377.6,250.8,377.4,250.6,377.4,250.4L377.4,250.4z M376.1,239H376c-0.3-0.2-0.3-0.5-0.4-0.8s-0.2-0.5-0.2-0.8
			s0-0.4,0-0.7c0-0.2,0-0.4,0-0.6c0-0.3,0-0.4-0.2-0.6c-0.1-0.1-0.3-0.2-0.2-0.3c0.1-0.1,0.2,0,0.3,0c0.3,0,0.5,0.1,0.7,0.3
			c0.3,0.2,0.4,0.4,0.5,0.7c0.1,0.4,0.2,0.6,0.3,1c0.1,0.2,0.1,0.3,0.2,0.5s0.2,0.3,0.4,0.4l0,0c-0.2,0.2-0.3,0.4-0.6,0.6
			C376.5,238.8,376.3,238.9,376.1,239L376.1,239L376.1,239z M378.7,246.3l1.6,0.7c1.1-0.6,2-1.6,2.5-2.7c0.6-1.2,0.7-1.8,1-3
			l-1.3-0.4h-0.3c-0.4,1.2-0.5,1.9-1.2,2.9c-0.6,0.9-1.2,1.6-1.9,2.1L378.7,246.3L378.7,246.3z M382.3,258.8
			c0.3-0.3,0.4-0.6,0.7-0.9c0.3-0.3,0.6-0.5,0.9-0.8c0.1,0,0.2,0,0.3,0c0,0.6-0.1,1.3-0.4,1.9c-0.1,0.3-0.1,0.4-0.3,0.7
			c-0.1,0.2-0.2,0.2-0.3,0.3C382.9,259.6,382.3,259.2,382.3,258.8L382.3,258.8z M406,260c0.4,0.1,0.7,0.2,1.1,0.4
			c0.4,0.2,0.6,0.4,1.1,0.6c0,0.1,0.1,0.2,0,0.3c-0.7,0.2-1.3,0.2-2,0.2c-0.3,0-0.5,0-0.8-0.1c-0.2-0.1-0.3-0.1-0.5-0.2
			C405.4,260.8,405.6,260.1,406,260L406,260z M399,258.6c0.4,0.1,0.7,0.2,1.1,0.4c0.4,0.2,0.6,0.4,1.1,0.6c0,0.1,0.1,0.2,0,0.3
			c-0.7,0.2-1.3,0.2-2,0.2c-0.3,0-0.5,0-0.8-0.1c-0.2-0.1-0.3-0.1-0.5-0.2C398.4,259.4,398.6,258.7,399,258.6L399,258.6z
			 M386.5,260.1c0.4,0.1,0.7,0.2,1.1,0.4c0.4,0.2,0.6,0.4,1.1,0.6c0,0.1,0.1,0.2,0,0.3c-0.7,0.2-1.3,0.2-2,0.2c-0.3,0-0.5,0-0.8-0.1
			c-0.2-0.1-0.3-0.1-0.5-0.2C385.9,260.9,386.1,260.2,386.5,260.1L386.5,260.1z M380.1,239.7c-0.4-0.2-0.8-0.7-0.5-1.1
			c0.1-0.1,0.3-0.1,0.4-0.3s0.1-0.3,0.1-0.6s-0.1-0.4-0.1-0.6c-0.1-0.3-0.1-0.4-0.1-0.7c0-0.4,0-0.7,0.2-1.1
			c0.2-0.2,0.5-0.4,0.6-0.4c0.1,0.1,0,0.3,0,0.6s0.1,0.5,0.2,0.8c0.1,0.4,0.3,0.5,0.5,0.9c0.1,0.4,0.3,0.6,0.3,0.9
			c0,0.3,0,0.5-0.1,0.8c-0.1,0.2-0.2,0.4-0.4,0.6c-0.2,0.2-0.3,0.2-0.6,0.3C380.3,239.8,380.2,239.7,380.1,239.7L380.1,239.7z"/>
	</g>
</g>
<g>
	<g id="b_1_">
		<path style="fill:#D52B1E;" d="M377.7,263l-0.4,0.2c-0.2,0.2-0.3,0.4-0.6,0.6c-0.3,0.3-0.6,0.3-0.9,0.6c-0.2,0.1-0.3,0.1-0.4,0.3
			c-0.2,0.2-0.1,0.4-0.2,0.7c-0.1,0.3-0.3,0.4-0.5,0.6c-0.3,0.3-0.5,0.4-0.8,0.7c-0.3,0.3-0.4,0.5-0.8,0.7c-0.1,0-0.1,0.1-0.2,0.1
			c-0.2,0-0.2,0-0.4,0c-0.3,0.1-0.4,0.4-0.6,0.5c0.1,0.2,0.1,0.3,0.2,0.4c0.1,0.2,0.5,0.8,0.6,1c0.2,0.2,0.2,0.5,0.4,0.5
			c0.4,0.1,0.6,0.1,1,0.1c0.6,0.1,0.9,0.1,1.5,0.3c0.4,0.2,0.6,0.4,1.1,0.6c0.3,0.1,0.6,0.2,0.9,0.3c0.3,0,0.4,0.1,0.7,0.1
			c0.2,0,0.3-0.1,0.4-0.1h0.1v0.3v0.1l0,0l1.5,0.6c-0.1,0.1-0.1,0.2-0.1,0.3c-0.1,0.2-0.1,0.5,0,0.6c0.5,1.3,0.8,2.1,1.1,2.2
			c0.4,0.2,0.6,0.6,0.8,1c-0.1,0.1-0.2,0.1-0.3,0.2c-0.4,0.4-0.8,0.7-1.2,1.2c-0.5,0.8-0.9,0.8-0.2,1.9c0.4,0.6,0.6,0.8,1.1,1.6
			c0.3,0.5,0.4,0.8,0.6,1.4c0.1,0.5,0.2,0.8,0.2,1.4l0.7,0.3l0.5-0.4l0.5-0.8v-0.6c-0.2-0.1-0.2-0.3-0.2-0.5
			c0.1-0.3,0.4-0.2,0.5-0.4c0.2-0.3-0.2-0.5-0.5-0.8c-0.4-0.5-1-0.6-1.2-1.3c0-0.2,0.1-0.3,0.3-0.5c0.6-0.6,0.8-0.7,1.4-1.2
			c0.2,0.1,0.4,0.1,0.7,0.1c0.2,0,0.4,0.1,1,0.3c0.4,0.1,0.6,0.1,0.9,0l0.3-0.1c0,0.2,0.1,0.3,0.1,0.5c0,0.7-0.1,2.1,0.1,2.4
			c0.1,0.1,0.1,0.2,0.2,0.4c0.1,0.2,0.2,0.3,0.2,0.5c0,0.5,0,0.8,0,1.3s-0.1,0.7-0.2,1.2c-0.1,0.3-0.1,0.5-0.3,0.7
			c-0.2,0.2-0.4,0.3-0.7,0.5l-0.1,0.7l0.8,0.3l0.9,0.2l0.5-0.2c0-0.2,0-0.3,0.1-0.4c0.1-0.2,0.2-0.3,0.3-0.4
			c0.3-0.1,0.5,0.1,0.6-0.1s0.1-0.2,0-0.5c0-0.5-0.1-0.7-0.2-1.1c-0.1-0.6-0.2-1.3-0.1-1.9c0-0.4,0-0.7,0.1-1.1
			c0.1-0.6,0.3-0.9,0.5-1.5c0.2-0.7,0.2-1.1,0.3-1.7c2.3,0.3,4.2,0.3,6.7-0.3c0.1,0,0.5-0.2,0.5-0.2c0.6,0.5,1.2,0.9,2,1.1v0.7
			c0,0.2,0,0.3,0.1,0.5c0.1,0.1,0.1,0.2,0.3,0.2c0.2,0,0.3,0,0.5-0.1s0.1-0.3,0.2-0.5c0-0.1,0-0.4,0-0.5c0.3,0,0.4,0,0.6,0
			c0.3,0,0.4,0,0.6,0v0.3c0,0.2-0.1,0.3,0,0.5s0.2,0.2,0.4,0.3c0.1,0,0.3,0,0.4-0.1c0.2-0.1,0.2-0.3,0.2-0.6c0-0.1,0-0.5,0-0.5
			l0.7-0.3c0,0.2,0,0.4-0.1,0.6c0,0.2-0.1,0.4-0.2,0.6c-0.1,0.4-0.3,0.6-0.5,0.9c-0.3,0.4-0.4,0.7-0.7,1.1c-0.2,0.2-0.3,0.3-0.4,0.5
			c-0.2,0.2-0.2,0.4-0.4,0.6c-0.2,0.3-0.4,0.5-0.7,0.7c-0.5,0.4-0.8,0.1-1.5,0.6l-0.2,0.7l1,0.4l0.9,0.2l0.3-0.2
			c0-0.2,0-0.3,0.2-0.5s0.3-0.2,0.6-0.3c0.3,0,0.5,0,0.7-0.2c0.3-0.2,0.3-0.6,0.5-1c0.5-1,1.3-1.9,2.2-2.7c0.4-0.4,0.8-0.5,1.2-1
			c0.2-0.2,0.4-0.3,0.4-0.6c0-0.2-0.1-0.3-0.2-0.5c-0.1-0.3-0.1-0.7-0.1-0.7c1.1,0.5,0.7,0.4,0.9,1c0.2,0.4,0,0.7,0,1.2
			c0.1,0.5,0.3,0.8,0.4,1.3c0.1,0.6-0.1,1-0.2,1.6c-0.1,0.5-0.1,0.9-0.3,1.4c-0.2,0.4-0.5,0.8-0.8,1.1c-0.1,0.1-0.3,0.2-0.4,0.3
			l-0.1,0.7l0.8,0.3l1.2,0.3l0.3-0.2c0.1-0.4,0-1.1,0.3-1.2c0.3,0,0.5,0,0.6-0.2c0-0.1,0-0.2,0.1-0.4c0.2-1.3,0.3-2.5,0.4-3.1
			c0.2-0.7,0.2-0.8,0.3-1.3c0.1-0.5-0.1-0.2,0.3-1.2c0.5-1.4-0.1-1.6-0.8-2.5c-0.3-0.5-0.4-0.7-0.5-1c-0.1-0.6,0.1-1,0.1-1.9
			c0-0.7,0-1.3,0-2c0.1,0,0.2-0.1,0.3-0.1c0.8-0.4,1.2-0.6,1.7-1.7c0.2-0.3,0.2-0.7,0.2-1c0-0.2-0.1-0.5-0.1-0.7
			c0-0.3-0.1-0.4-0.2-0.6s-0.2-0.4-0.4-0.6c-0.6-0.6-1.3-0.8-2-1c-1.1-0.4-1.8-0.3-3-0.4s-1.9-0.1-3.1,0c-1.4,0.1-2.3,0.4-3.7,0.5
			c-1.4,0.2-2.1,0.3-3.5,0.3c-1.6,0-3.2-0.3-4.2-0.2c-1.8,0.1-1.8,0.5-4.5,0.7c-1.4,0.1-2.8,0.1-2.8,0.1l-1.6-0.5
			c0.6-0.2,0.8-0.3,1.1-0.7c0.2-0.2,0.2-0.5,0.4-0.7c0.2-0.2,0.3-0.4,0.6-0.7c-0.2-0.1-0.4-0.2-0.7-0.3c-0.3-0.1-0.4,0-0.7,0
			c-0.4,0-0.6,0.1-0.9,0.2s-0.4,0.2-0.6,0.4c0,0-0.9-0.6-1.6-0.8C379.1,263.3,378.7,263.1,377.7,263L377.7,263z M379.1,271.1
			L379.1,271.1L379.1,271.1L379.1,271.1L379.1,271.1z"/>
		<g>
			<path style="fill:none;stroke:#FEDF00;stroke-width:0.99;stroke-linecap:round;" d="M409.5,271.6l-0.5,0.2
				c-0.6,0.3-1.1,0.3-1.9,0.3c-1.9,0.1-3.1-0.7-5-0.6c-1,0.1-1.5,0.8-2.5,1.1c-0.5,0.1-0.7,0.2-1.2,0.2l0.4-0.7c0,0-0.9,0.2-1.5,0.2
				c-0.4,0-0.7,0-1.1-0.1l0.7-0.7c0,0-0.6-0.1-0.9-0.2s-0.5-0.3-0.8-0.4c0.5-0.1,0.7-0.1,1.2-0.2c1.1-0.3,1.5-0.8,2.8-0.9
				c0.8-0.1,2.2,0,5.5,0.5c2.2,0.3,3.2,0.2,4-0.2c0.6-0.2,0.7-0.7,0.8-1.2c0.1-0.5-0.3-1-0.6-1.2c-0.1-0.1-0.3-0.2-0.8-0.2"/>
			<path style="fill:#FCD900;stroke:#FEDF00;stroke-width:0.51;" d="M377.9,265.5c-0.4,0-0.6,0-1,0.2c-0.3,0.2-0.4,0.5-0.6,0.8
				c0.3,0.1,0.5,0.2,0.8,0.2c0.3-0.1,0.4-0.2,0.6-0.3C377.8,266.1,377.9,265.9,377.9,265.5L377.9,265.5z"/>
			<path style="fill:none;stroke:#FEDF00;stroke-width:0.99;stroke-linecap:round;" d="M385.9,274.5c0,0,0.2,0.3,0.3,0.5
				c0.2,0.4,0.3,0.6,0.4,1c0.1,0.5,0.1,0.9,0.2,1.4c0,0.1,0,0.2,0.1,0.3v0.8 M391.7,273.8l-0.3,0.9c-0.3,0.9-0.5,1.4-0.7,2.4
				c0,0.2-0.1,0.3-0.1,0.4 M382.9,274.8c0.6,0.1,0.4,2.3,1.3,2.8"/>
			<path style="fill:none;stroke:#FEDF00;stroke-width:0.99;" d="M403.3,278.7l0.3-0.2c0.7-0.3,1.4-0.7,1.9-1.2"/>
			<path style="fill:none;stroke:#FEDF00;stroke-width:0.99;stroke-linecap:round;" d="M397.7,277.4c2.5-0.6,4.2-1.8,5.5-2
				 M400.3,274.4c0.2,0,0.4,0,0.6,0c1.1-0.1,1.2,0.5,2,0.9c1.3,0.7,1.5,1.6,3.1,2.3l0.2,0.1l0.6,0.3"/>
			<path style="fill:#FCD900;stroke:#FEDF00;stroke-width:0.51;" d="M372.7,268.2c0.2,0,0.3,0.1,0.5,0c0.2,0,0.4-0.2,0.6-0.2
				s0.3,0,0.5,0.1c0.1,0.1,0.1,0.1,0.2,0.2s0.1,0.2,0.1,0.3c0,0.2-0.2,0.3-0.4,0.3c-0.2,0-0.3,0-0.4-0.2c0-0.1-0.1-0.2,0-0.3
				c-0.2,0.1-0.4,0.1-0.6,0C373,268.5,372.9,268.4,372.7,268.2z"/>
		</g>
		<g>
			<path style="fill:#0065BD;" d="M378.1,274.8c-0.6-0.2-1.4-0.6-1.4-0.6c0.2-0.2,0.4-0.2,0.6-0.4c0.3-0.3,0.3-0.5,0.4-0.9
				c0.2-0.4,0.1-0.7,0.5-0.9c0.2-0.2,0.5-0.2,0.8-0.1s0.5,0.3,0.6,0.5c0.1,0.4-0.1,0.6-0.2,1s-0.2,0.6-0.1,1
				c0.1,0.3,0.2,0.4,0.3,0.6C379.6,275.1,378.7,275,378.1,274.8z M377.4,275.5c0-0.2,0.2-0.4,0.4-0.4c0.3,0,0.5,0.2,0.5,0.4
				c0,0.2-0.2,0.4-0.4,0.4C377.6,275.9,377.4,275.7,377.4,275.5L377.4,275.5z M376.1,264.1L376,264c-0.3-0.2-0.3-0.5-0.4-0.8
				s-0.2-0.5-0.2-0.8s0-0.4,0-0.7c0-0.2,0-0.4,0-0.6c0-0.3,0-0.4-0.2-0.6c-0.1-0.1-0.3-0.2-0.2-0.3c0.1-0.1,0.2,0,0.3,0
				c0.3,0,0.5,0.1,0.7,0.3c0.3,0.2,0.4,0.4,0.5,0.7c0.1,0.4,0.2,0.6,0.3,1c0.1,0.2,0.1,0.3,0.2,0.5s0.2,0.3,0.4,0.4l0,0
				c-0.2,0.2-0.3,0.4-0.6,0.6C376.5,263.9,376.3,264,376.1,264.1L376.1,264.1L376.1,264.1z M378.7,271.4l1.6,0.7
				c1.1-0.6,2-1.6,2.5-2.7c0.6-1.2,0.7-1.8,1-3l-1.3-0.4h-0.3c-0.4,1.2-0.5,1.9-1.2,2.9c-0.6,0.9-1.2,1.6-1.9,2.1L378.7,271.4
				L378.7,271.4z M382.3,283.9c0.3-0.3,0.4-0.6,0.7-0.9c0.3-0.3,0.6-0.5,0.9-0.8c0.1,0,0.2,0,0.3,0c0,0.6-0.1,1.3-0.4,1.9
				c-0.1,0.3-0.1,0.4-0.3,0.7c-0.1,0.2-0.2,0.2-0.3,0.3C382.9,284.7,382.3,284.3,382.3,283.9L382.3,283.9z M406,285.1
				c0.4,0.1,0.7,0.2,1.1,0.4c0.4,0.2,0.6,0.4,1.1,0.6c0,0.1,0.1,0.2,0,0.3c-0.7,0.2-1.3,0.2-2,0.2c-0.3,0-0.5,0-0.8-0.1
				c-0.2-0.1-0.3-0.1-0.5-0.2C405.4,285.9,405.6,285.2,406,285.1L406,285.1z M399,283.7c0.4,0.1,0.7,0.2,1.1,0.4
				c0.4,0.2,0.6,0.4,1.1,0.6c0,0.1,0.1,0.2,0,0.3c-0.7,0.2-1.3,0.2-2,0.2c-0.3,0-0.5,0-0.8-0.1c-0.2-0.1-0.3-0.1-0.5-0.2
				C398.4,284.5,398.6,283.8,399,283.7L399,283.7z M386.5,285.2c0.4,0.1,0.7,0.2,1.1,0.4c0.4,0.2,0.6,0.4,1.1,0.6
				c0,0.1,0.1,0.2,0,0.3c-0.7,0.2-1.3,0.2-2,0.2c-0.3,0-0.5,0-0.8-0.1c-0.2-0.1-0.3-0.1-0.5-0.2
				C385.9,285.9,386.1,285.3,386.5,285.2L386.5,285.2z M380.1,264.8c-0.4-0.2-0.8-0.7-0.5-1.1c0.1-0.1,0.3-0.1,0.4-0.3
				c0.1-0.2,0.1-0.3,0.1-0.6c0-0.3-0.1-0.4-0.1-0.6c-0.1-0.3-0.1-0.4-0.1-0.7c0-0.4,0-0.7,0.2-1.1c0.2-0.2,0.5-0.4,0.6-0.4
				c0.1,0.1,0,0.3,0,0.6c0,0.3,0.1,0.5,0.2,0.8c0.1,0.4,0.3,0.5,0.5,0.9c0.1,0.4,0.3,0.6,0.3,0.9s0,0.5-0.1,0.8
				c-0.1,0.2-0.2,0.4-0.4,0.6c-0.2,0.2-0.3,0.2-0.6,0.3C380.3,264.8,380.2,264.8,380.1,264.8L380.1,264.8z"/>
		</g>
	</g>
</g>
<g>
	<path style="fill:none;stroke:#703D29;stroke-width:0.8;" d="M297.1,170.9h59.2v56.2h-59.2V170.9z M362.6,170.9h59.2v56.2h-59.2
		V170.9z M297.3,275.9c0.2,1,0.5,2.7,1.6,4.5c1.1,1.6,0.7,1.6,3.1,4.1c1.2,1.3,3,2.3,4.5,3.1c1.5,0.7,2.5,1.1,4.9,1.7
		c4.7,1.2,8,1.2,11.9,1.1c3.1-0.1,5.4-0.5,7.4-0.7c2.8-0.4,4.8-0.6,8-0.7c1.5-0.1,3-0.1,4.4,0c1.7,0.1,3.4,0.3,5.3,0.7
		c2.7,0.6,5.3,1.3,7.9,2.2v-58.7h-59.2v40.1C297.1,273.3,297.2,275.3,297.3,275.9L297.3,275.9z M421.5,275.9
		c-0.2,1.6-0.8,3.1-1.6,4.5c-1.1,1.6-0.7,1.6-3.1,4.1c-1.2,1.3-3,2.3-4.5,3.1c-1.5,0.8-2.5,1.1-4.9,1.7c-4.7,1.2-8,1.2-11.9,1.1
		c-3.1-0.1-5.4-0.5-7.4-0.7c-2.8-0.4-4.8-0.6-8-0.7c-1.5-0.1-2.9-0.1-4.4,0c-1.7,0.1-3.4,0.3-5.3,0.7c-3.9,0.8-7.9,2.2-7.9,2.2
		v-58.7h59.2v40.1C421.8,273.3,421.7,275.3,421.5,275.9L421.5,275.9z"/>
</g>
</svg>
