<?xml version="1.0" encoding="utf-8"?>
<!-- Generator: Adobe Illustrator 25.2.1, SVG Export Plug-In . SVG Version: 6.00 Build 0)  -->
<svg version="1.1" id="Layer_1" xmlns="http://www.w3.org/2000/svg" xmlns:xlink="http://www.w3.org/1999/xlink" x="0px" y="0px"
	 viewBox="0 0 720 480" style="enable-background:new 0 0 720 480;" xml:space="preserve">
<g>
	<rect style="fill:#D22730;" width="720" height="480"/>
	<path style="fill:#FFFFFF;" d="M4,0h80v480H4V0z"/>
	<g id="b">
		<path id="a" style="fill:#D22730;" d="M45.8,0v17.4h-3.5V0H45.8z M0.8,30.4h6.3v-6.9h3.2V15h4.5V7.7h3.7V0h11.1v7.7h3.6V15h4.5
			v8.4h3.2v6.9h4.9v10.8h-4.9v6.9h-3.2v8.4h-4.5v7.4h-3.6v7.9H27v6.6h-6v-6.6h-2.6v-7.9h-3.7v-7.4h-4.5v-8.4H7.1v-6.9H0.8 M0.8,3.6
			h6.3v9.6H0.8 M25.6,16.1h-3.3v6.5h-3.1v8.2h-3V41h3v8.2h3.1v6.4h3.3v-6.4h3.1V41h3.1V30.8h-3.1v-8.2h-3.1V16.1z M25.9,30.9v9.6H22
			v-9.6H25.9z M0.8,56.1h6.3v10.3H0.8 M45.8,57.1v14.6h-3.5V57.1H45.8z M37.1,73.3v7.3H41V88h4.8v9.8H41v7.6h-3.8v7.3h-4.5v-7.3
			h-3.8v-7.6h-3.2V88h3.2v-7.5h3.8v-7.3H37.1z M0.8,88h6.3v-7.5H11v-7.3h4.4v7.3h3.8V88h3.2v9.8h-3.2v7.6h-3.8v7.3H11v-7.3H7.1v-7.6
			H0.8 M36.6,88.2h-3.3v9.3h3.3V88.2z M14.9,88.2h-3.3v9.3h3.3V88.2z M16.2,241.9v-5h-2.7v-7.6H9.8v-4.6H7.1v-7.4H0.8v-17.1h6.3v4.9
			h2.7v7.1h3.6v8.5h5.1v-7.7h3.8v-5.7H25v-6.7h3.6v-7.1h2.6v-7.3h2.6V179h3.4v-10h-4.6v-9.1h-5v-5.4h-8.3v7.9h4.8v7.1H21v8.7h-3.8
			v7.7h-4.7v-7.7H8.6v-8.7H6.2v-7.1H0.8v-13.5h6.3v-8.7h2.4v-6.7h2.2v-7.7H15v-7.6h3.1v-5h3.8v-7.6h4.6v7.6h3.8v5h3.2v7.6h3.1v7.7
			H39v6.6h2.6v5.8h4.2v42.3H41v7.1h-1.4v7.5h-3.5v7.3H34v5.3h-2.2v5.7h-3.8v5.5h-5.5v15.5 M45.8,112.5v14.6h-3.5v-14.6H45.8z
			 M0.8,115.3h6.3v10.3H0.8 M0.8,177.5h6.3v10.3H0.8V177.5z M45.6,203.7v9.4h-3.4v-9.4H45.6z M41,241.9v-5.9h-2.1v-4.6h-3v-13.8h3
			v5.5h3.2v8.1h3.5v10.5 M28.5,241.8V235h3.4v6.8"/>
		<g transform="matrix(-1 0 0 1 110 0)">
			<path id="a_1_" style="fill:#D22730;" d="M42.2,0v17.4h3.5V0H42.2z M87.2,30.4h-6.3v-6.9h-3.2V15h-4.5V7.7h-3.7V0H58.4v7.7h-3.6
				V15h-4.5v8.4h-3.2v6.9h-4.9v10.8h4.9v6.9h3.2v8.4h4.5v7.4h3.6v7.9H61v6.6h6v-6.6h2.6v-7.9h3.7v-7.4h4.5v-8.4h3.2v-6.9h6.3
				 M87.2,3.6h-6.3v9.6h6.3 M62.4,16.1h3.3v6.5h3.1v8.2h3V41h-3v8.2h-3.1v6.4h-3.3v-6.4h-3.1V41h-3.1V30.8h3.1v-8.2h3.1V16.1z
				 M62.1,30.9v9.6H66v-9.6H62.1z M87.2,56.1h-6.3v10.3h6.3 M42.2,57.1v14.6h3.5V57.1H42.2z M50.9,73.3v7.3H47V88h-4.8v9.8H47v7.6
				h3.8v7.3h4.5v-7.3h3.8v-7.6h3.2V88h-3.2v-7.5h-3.8v-7.3H50.9z M87.2,88h-6.3v-7.5H77v-7.3h-4.4v7.3h-3.8V88h-3.2v9.8h3.2v7.6h3.8
				v7.3H77v-7.3h3.8v-7.6h6.3 M51.4,88.2h3.3v9.3h-3.3V88.2z M73.1,88.2h3.3v9.3h-3.3V88.2z M71.8,241.9v-5h2.7v-7.6h3.6v-4.6h2.7
				v-7.4h6.3v-17.1h-6.3v4.9h-2.7v7.1h-3.6v8.5h-5.1v-7.7h-3.8v-5.7H63v-6.7h-3.6v-7.1h-2.6v-7.3h-2.6V179h-3.4v-10h4.6v-9.1h5v-5.4
				h8.3v7.9h-4.8v7.1H67v8.7h3.8v7.7h4.7v-7.7h3.9v-8.7h2.4v-7.1h5.4v-13.5h-6.3v-8.7h-2.4v-6.7h-2.2v-7.7H73v-7.6h-3.1v-5h-3.8
				v-7.6h-4.6v7.6h-3.8v5h-3.2v7.6h-3.1v7.7H49v6.6h-2.6v5.8h-4.2v42.3H47v7.1h1.4v7.5h3.5v7.3H54v5.3h2.2v5.7h3.8v5.5h5.5v15.5
				 M42.2,112.5v14.6h3.5v-14.6H42.2z M87.2,115.3h-6.3v10.3h6.3 M87.2,177.5h-6.3v10.3h6.3V177.5z M42.4,203.7v9.4h3.4v-9.4H42.4z
				 M47,241.9v-5.9h2.1v-4.6h3v-13.8h-3v5.5h-3.2v8.1h-3.5v10.5 M59.5,241.8V235h-3.4v6.8"/>
		</g>
	</g>
	<g transform="matrix(1 0 0 -1 0 450)">
		<g id="b_1_">
			<path id="a_2_" style="fill:#D22730;" d="M45.8,480v-17.4h-3.5V480H45.8z M0.8,449.6h6.3v6.9h3.2v8.4h4.5v7.4h3.7v7.7h11.1v-7.7
				h3.6V465h4.5v-8.4h3.2v-6.9h4.9v-10.8h-4.9v-6.9h-3.2v-8.4h-4.5v-7.4h-3.6v-7.9H27v-6.6h-6v6.6h-2.6v7.9h-3.7v7.4h-4.5v8.4H7.1
				v6.9H0.8 M0.8,476.4h6.3v-9.6H0.8 M25.6,463.9h-3.3v-6.5h-3.1v-8.2h-3V439h3v-8.2h3.1v-6.4h3.3v6.4h3.1v8.2h3.1v10.1h-3.1v8.2
				h-3.1V463.9z M25.9,449.1v-9.6H22v9.6H25.9z M0.8,423.9h6.3v-10.3H0.8 M45.8,422.9v-14.6h-3.5v14.6H45.8z M37.1,406.7v-7.3H41
				V392h4.8v-9.8H41v-7.6h-3.8v-7.3h-4.5v7.3h-3.8v7.6h-3.2v9.8h3.2v7.5h3.8v7.3H37.1z M0.8,392h6.3v7.5H11v7.3h4.4v-7.3h3.8V392
				h3.2v-9.8h-3.2v-7.6h-3.8v-7.3H11v7.3H7.1v7.6H0.8 M36.6,391.8h-3.3v-9.3h3.3V391.8z M14.9,391.8h-3.3v-9.3h3.3V391.8z
				 M16.2,238.1v5h-2.7v7.6H9.8v4.6H7.1v7.4H0.8v17.1h6.3v-4.9h2.7v-7.1h3.6v-8.5h5.1v7.7h3.8v5.7H25v6.7h3.6v7.1h2.6v7.3h2.6v7.5
				h3.4v10h-4.6v9.1h-5v5.4h-8.3v-7.9h4.8v-7.1H21v-8.7h-3.8v-7.7h-4.7v7.7H8.6v8.7H6.2v7.1H0.8v13.5h6.3v8.7h2.4v6.7h2.2v7.7H15
				v7.6h3.1v5h3.8v7.6h4.6v-7.6h3.8v-5h3.2v-7.6h3.1v-7.7H39v-6.6h2.6v-5.8h4.2v-42.3H41v-7.1h-1.4v-7.5h-3.5v-7.3H34v-5.3h-2.2
				v-5.7h-3.8v-5.5h-5.5v-15.5 M45.8,367.5v-14.6h-3.5v14.6H45.8z M0.8,364.7h6.3v-10.3H0.8 M0.8,302.5h6.3v-10.3H0.8V302.5z
				 M45.6,276.3v-9.4h-3.4v9.4H45.6z M41,238.1v5.9h-2.1v4.6h-3v13.8h3v-5.5h3.2v-8.1h3.5v-10.5 M28.5,238.2v6.8h3.4v-6.8"/>
			<g transform="matrix(-1 0 0 1 110 0)">
				<path id="a_3_" style="fill:#D22730;" d="M42.2,480v-17.4h3.5V480H42.2z M87.2,449.6h-6.3v6.9h-3.2v8.4h-4.5v7.4h-3.7v7.7H58.4
					v-7.7h-3.6V465h-4.5v-8.4h-3.2v-6.9h-4.9v-10.8h4.9v-6.9h3.2v-8.4h4.5v-7.4h3.6v-7.9H61v-6.6h6v6.6h2.6v7.9h3.7v7.4h4.5v8.4h3.2
					v6.9h6.3 M87.2,476.4h-6.3v-9.6h6.3 M62.4,463.9h3.3v-6.5h3.1v-8.2h3V439h-3v-8.2h-3.1v-6.4h-3.3v6.4h-3.1v8.2h-3.1v10.1h3.1
					v8.2h3.1V463.9z M62.1,449.1v-9.6H66v9.6H62.1z M87.2,423.9h-6.3v-10.3h6.3 M42.2,422.9v-14.6h3.5v14.6H42.2z M50.9,406.7v-7.3
					H47V392h-4.8v-9.8H47v-7.6h3.8v-7.3h4.5v7.3h3.8v7.6h3.2v9.8h-3.2v7.5h-3.8v7.3H50.9z M87.2,392h-6.3v7.5H77v7.3h-4.4v-7.3h-3.8
					V392h-3.2v-9.8h3.2v-7.6h3.8v-7.3H77v7.3h3.8v7.6h6.3 M51.4,391.8h3.3v-9.3h-3.3V391.8z M73.1,391.8h3.3v-9.3h-3.3V391.8z
					 M71.8,238.1v5h2.7v7.6h3.6v4.6h2.7v7.4h6.3v17.1h-6.3v-4.9h-2.7v-7.1h-3.6v-8.5h-5.1v7.7h-3.8v5.7H63v6.7h-3.6v7.1h-2.6v7.3
					h-2.6v7.5h-3.4v10h4.6v9.1h5v5.4h8.3v-7.9h-4.8v-7.1H67v-8.7h3.8v-7.7h4.7v7.7h3.9v8.7h2.4v7.1h5.4v13.5h-6.3v8.7h-2.4v6.7h-2.2
					v7.7H73v7.6h-3.1v5h-3.8v7.6h-4.6v-7.6h-3.8v-5h-3.2v-7.6h-3.1v-7.7H49v-6.6h-2.6v-5.8h-4.2v-42.3H47v-7.1h1.4v-7.5h3.5v-7.3H54
					v-5.3h2.2v-5.7h3.8v-5.5h5.5v-15.5 M42.2,367.5v-14.6h3.5v14.6H42.2z M87.2,364.7h-6.3v-10.3h6.3 M87.2,302.5h-6.3v-10.3h6.3
					V302.5z M42.4,276.3v-9.4h3.4v9.4H42.4z M47,238.1v5.9h2.1v4.6h3v13.8h-3v-5.5h-3.2v-8.1h-3.5v-10.5 M59.5,238.2v6.8h-3.4v-6.8"
					/>
			</g>
		</g>
	</g>
	<path style="fill:#009739;" d="M84,320h636v160H84V320z"/>
</g>
</svg>
