<?xml version="1.0" encoding="utf-8"?>
<!-- Generator: Adobe Illustrator 25.2.1, SVG Export Plug-In . SVG Version: 6.00 Build 0)  -->
<svg version="1.1" id="Layer_1" xmlns="http://www.w3.org/2000/svg" xmlns:xlink="http://www.w3.org/1999/xlink" x="0px" y="0px"
	 viewBox="0 0 720 480" style="enable-background:new 0 0 720 480;" xml:space="preserve">
<g>
	<path style="fill-rule:evenodd;clip-rule:evenodd;fill:#D90F19;" d="M0,0h720v480H0V0z"/>
	<path style="fill-rule:evenodd;clip-rule:evenodd;fill:#171696;" d="M0,48h720v384H0V48z"/>
	<ellipse style="fill:#FFFFFF;" cx="360" cy="240" rx="126" ry="140"/>
	<path style="fill:#AD7D5A;stroke:#000000;stroke-width:0.475;stroke-miterlimit:3.111;" d="M294.4,293.6c-0.3,1.3-0.6,2.7-0.7,4.1
		c0,0.4-0.3,2.4,0.7,2.5c0.8,0.1,1-2.1,1-2.1s-0.7,2.4,0.2,2.7c1.2,0.3,1.4-2.7,1.4-2.7c-0.1,0.8-1,3,0.2,3.2
		c1.2,0.2,1.6-2.9,1.6-2.9s-1,3.1,0.2,3.2c1.2,0.1,1.2-3,1.2-3s-0.6,3.7,1,3.4c0.9-0.2,1.1-1.4,1.3-2.2c0.3-1.1,0.9-2.6,0.1-4.9
		c-0.5-1.7-0.3-2.2-0.3-2.2s-1.9,1.6-3.4,2.7C298.1,295.8,294.4,293.5,294.4,293.6L294.4,293.6z M314.4,290.3
		c-0.3-0.2-0.3,1.4-0.4,2.1c-0.1,0.8,0.1,2.4,2.5,2.3c2.3-0.2,4.5-0.8,5.9-0.4c1.5,0.4,3.1,0.6,4.7,0.5c0.8,0,1.7-0.1,2.5-0.4
		c0.5-0.2,1.5,0.3,2,0.3s1.2-0.8,1.2-1.4c-0.1-1-0.9-1-2.1-1.1c-1.1-0.1-2.3-0.3-3.3-0.7c-1.2-0.6-2.5-1.2-3.8-1.5
		c0,0-3.3,0.2-4,0.2C318.8,290.3,314.8,290.5,314.4,290.3L314.4,290.3z"/>
	<path style="fill:none;stroke:#006600;stroke-width:0.475;stroke-miterlimit:3.111;" d="M303.4,295.7l-0.1-3.5l1.3,1.2l0.3-2.7
		c0.5-0.2,1.4,1.1,1.4,1.1l-0.1-2.7l2,2.4c-0.1-1.1,0.1-2.2,0.5-3.3c0,0,1.5,1.4,1.5,3.1c0,1.4,1.3-2.1,1.3-2.1l1.1,3.9l0.9-1.4
		l0.8,3l1.6-2.7l1.3,3.1l2.9-0.2l0.3,1.8l1.3-1.6l1.7,1.2c0.7-0.2,1.4-0.4,2.2-0.5c0.8,0,1.6,1.1,1.6,1.1c0.3-0.6,0.7-1,1.1-1.4
		c0.5-0.4,1.3,0.6,1.5,1.2l1.1-2.2c0.6,0.7,1.2,1.4,1.6,2.2c0.1-0.8,0.3-1.7,0.5-2.4c0.3-0.6,0.9,0.2,1.3,1l0.9-3.3
		c0.7,0.2,1.3,0.7,1.6,1.4c0.8,1.2,0.8-1.8,0.8-1.8c0.9,1.3,1.5,2.6,2.1,4.1 M381,295.3c0.3-0.9,0.7-1.8,1.3-2.5
		c0,0,1.4,1.9,1.4,2.5c0.4-0.2,0.8-0.5,1.2-0.8l1.1,1.2l1.3-1l1.2,1.2l2.3-1.1l0.9,1.1l3.5-0.5l1.3,0.6l1.2-1.7l1.2,1.4l1.8-2
		c0.4,0.4,0.8,0.9,1.1,1.4c0.7-0.4,1.3-0.8,1.8-1.4c0,0,1.4-0.6,1.6,0.4c0,0,0.9-0.8,0.8-1.6c-0.1-0.8,1-0.2,1.4,0.8
		c0,0,0.4-1.7,1.5-1.8c0.5,0.8,0.7,1.8,0.5,2.8c0.7-0.7,1.5-1.2,2.4-1.6c0.2,1.3,0.1,2.6-0.2,3.9c0,0,1.7-3.1,2.1-2.1
		c0.3,1.3,0.4,2.7,0.1,4.1l1.5-1.1l0.5,2.1l1.6-0.4 M340.7,305.4c0.5-1.1,1.2-2,2-2.9c1,0.9,1.7,2,2.2,3.3c0.1-0.8,0.4-1.6,0.8-2.3
		c0,0,2.1,1.1,2.4,2.5c0.3-0.7,0.8-1.3,1.3-1.8c0.5-0.5,1.1,1.6,1.1,2.8c0,0,1.3-1.5,2.1-1.6c0,0,1.4,0.8,1.8,3.4
		c0,0,1.4-1.4,1.8-1.2c0,0,1.6,1.2,1.2,2.9c-0.2,0.9,1.6-1.1,3.9-1.7l2,1.7c0,0,1.8-2.7,2.4-3.6c0,0,1.5,0.6,1.5,1.6
		c0,0,0.7-2.9,1.2-3.2c0.5-0.4,1.3,0.9,1.3,1.7c0,0,0.2-2.2,1.3-2.7c0,0,1.1,0.8,1.1,1.7c0,0,1.2-2.5,2.1-3.1"/>
	<path style="fill:#5AC800;" d="M303.4,295.7l-0.1-3.5l1.3,1.2l0.3-2.7c0.5-0.2,1.4,1.1,1.4,1.1l-0.1-2.7l2,2.4
		c-0.1-1.1,0.1-2.2,0.5-3.3c0,0,1.5,1.4,1.5,3.1c0,1.4,1.3-2.1,1.3-2.1l1.1,3.9l0.9-1.4l0.8,3l1.6-2.7l1.3,3.1l2.9-0.2l0.3,1.8
		l1.3-1.6l1.7,1.2c0.7-0.2,1.4-0.4,2.2-0.5c0.8,0,1.6,1.1,1.6,1.1c0.3-0.6,0.7-1,1.1-1.4c0.5-0.4,1.3,0.6,1.5,1.2l1.1-2.2
		c0.6,0.7,1.2,1.4,1.6,2.2c0.1-0.8,0.3-1.7,0.5-2.4c0.3-0.6,0.9,0.2,1.3,1l0.9-3.3c0.7,0.2,1.3,0.7,1.6,1.4c0.8,1.2,0.8-1.8,0.8-1.8
		c0.9,1.3,1.5,2.6,2,4.1c0,0-11.3,4.3-19.3,3.1C311.1,297.7,303.4,295.7,303.4,295.7 M381,295.3c0.3-0.9,0.7-1.8,1.3-2.5
		c0,0,1.4,1.9,1.4,2.5c0.4-0.2,0.8-0.5,1.2-0.8l1.1,1.2l1.3-1l1.2,1.2l2.3-1.1l0.9,1.1l3.5-0.5l1.3,0.6l1.2-1.7l1.2,1.4l1.8-2.1
		c0.4,0.4,0.8,0.9,1.1,1.4c0.7-0.4,1.3-0.8,1.8-1.4c0,0,1.4-0.6,1.6,0.4c0,0,0.9-0.8,0.8-1.6c-0.1-0.8,1-0.2,1.4,0.8
		c0,0,0.4-1.7,1.5-1.8c0.5,0.8,0.7,1.8,0.5,2.8c0.7-0.7,1.5-1.2,2.4-1.6c0.2,1.3,0.1,2.6-0.2,3.9c0,0,1.7-3.1,2.1-2.1
		c0.3,1.3,0.4,2.7,0.1,4.1l1.5-1.1l0.5,2.1l1.6-0.4c-6.2,1-12.6,1.2-18.9,0.7C392.6,299.1,386.7,297.6,381,295.3 M374.2,302.8
		c0.4-0.3-3.1,8-11.5,8.4c-11.8,0.6-21.9-5.9-21.9-5.9c0.5-1.1,1.2-2,2-2.9c1,0.9,1.7,2,2.2,3.3c0.1-0.8,0.4-1.6,0.8-2.3
		c0,0,2.1,1.1,2.4,2.5c0.3-0.7,0.8-1.3,1.3-1.8c0.5-0.5,1.1,1.6,1.1,2.8c0,0,1.3-1.5,2.1-1.6c0,0,1.4,0.8,1.8,3.4
		c0,0,1.4-1.4,1.8-1.2c0,0,1.6,1.2,1.2,2.9c-0.2,0.9,1.6-1.1,3.9-1.7l2,1.7c0,0,1.8-2.7,2.4-3.6c0,0,1.5,0.6,1.5,1.6
		c0,0,0.7-2.9,1.2-3.2c0.5-0.4,1.3,0.9,1.3,1.7c0,0,0.2-2.2,1.3-2.7c0,0,1.1,0.8,1.1,1.7C372.2,306,373.3,303.4,374.2,302.8
		L374.2,302.8z"/>
	<path style="fill:#66FF66;" d="M382.8,146.6c-0.6-0.1-1.1-0.3-1.6-0.7L382.8,146.6"/>
	<path style="fill:none;stroke:#006600;stroke-width:0.475;stroke-miterlimit:3.111;" d="M382.8,146.6c-0.6-0.1-1.1-0.3-1.6-0.7"/>
	<path style="fill:none;" d="M365,161.7l0.9,0.6l1,0.2c0,0,1,1.1,2.2,2.1c0.9,0.8,0.9-0.2,0.9-0.2l0.5,2.4h0.8
		c-0.1,0.8-0.2,1.6-0.2,2.4l1.3-1.2l1.5,1.4c0,0,1.1-1.1,1.6-1.1c0.3,0,0.6-0.3,0.8-0.6h0.1c-3.6-1.9-5.2-3.9-4.1-5.9
		c1.8-3.4,4.7-1.2,5.7-0.8l13.3,7.9c0,0,0.9-0.6,0.3-1.2c-0.6-0.7-0.9-1.7-0.8-2.7c0.2-0.6,1.7,1.9,2.5,2.1c0.8,0.2,2.5,0.5,2.5,0.5
		l-0.1-0.8c0,0,2.2,1.7,2.2,2.5c0,0,1.6-0.9,1-1.4c-0.5-0.5,2.4,1.3,2.6,2.3l0.6-0.8c0.1-1.3,0.4-2.5,1-3.6c0.3-0.6,0.8-1.1,1.4-1.4
		c0,0,0.7-1.3,1.4-1.3c-0.4-0.3-0.7-0.7-1-1.1c-0.3-0.4-0.7-0.7-1.2-0.9c0.5-0.4,0.9-0.8,1.3-1.2c0.1-0.2,0.3-0.4,0.5-0.5
		c-0.8-0.7-1.7-1.3-2.7-1.7c0,0-0.1-2-1.4-2.1h0.6c0,0-1-2.1-2-2.2c0.3-0.4,0.7-0.7,1.2-0.8c0,0-1.2-1.7-2.7-1.1l1-0.5
		c0,0-0.8-0.9-3.1-0.5c0.1-0.8-0.2-1.5-0.8-1.9c0,0-0.9,0.1-0.9,0.8c-0.5-0.5-1.2-0.8-1.8-0.8c-1,0,0.3,1.2,0.3,1.2s-1.4-1-2.2-0.7
		c0,0,0.3-1.7-0.5-2.7c-0.5,0.3-1,0.8-1.3,1.4l-0.3-0.8c0,0-1.4,1.8-1.6,1.3c-0.2-0.5-0.3-1-0.4-1.6l-0.8,1.4l0.1-1.9
		c-0.8,0.6-1.4,1.6-1.7,2.6c-0.5,0.5-0.8,1.2-1,1.9c-0.3-0.4-0.8-0.5-1.2-0.2c-0.1,0.1-0.2,0.1-0.2,0.2c-0.6,1.1,0,0.8,0,0.8
		c-0.3,0.3-0.6,0.5-1,0.5l0.1,0.6c-0.5-0.3-1-0.4-1.6-0.3l0.3,0.9c0,0-1.8,0.2-1.8-1.4c0,0-1.5-0.8-1.7,0.1c0,0-1.2,0-1.1,0.8
		c-0.2-0.4-0.5-0.8-1-0.9c-0.7-0.2-0.1,1-0.1,1c-0.2-0.6-0.5-1.1-1-1.4c-0.8-0.4-0.1,0.8-0.1,0.8s-1.1-1-0.5-1.7c0,0-1,1.1-0.5,2.1
		l-0.7,0.5c0,0-0.3-0.4-0.3-0.7c0.1-0.3-1.2,0.9-1.2,0.9s-0.8-2,0-2c-0.8,0-1.5,0.8-1.5,1.7c-0.6,0.1-1.2,0.2-1.7,0.4
		c-0.9,0.3,0.6,1,0.6,1c-0.7-0.2-1.4-0.1-2.1,0.1l0.5,0.7c0,0-0.5-0.5-1.6-0.1c-1.2,0.4,0.3,0.6,0.3,0.6c-0.6-0.2-1.2-0.2-1.8,0
		c-0.6,0.3,0.2,0.8,0.2,0.8s-2.3-0.8-2.6-0.5c-0.3,0.2,0.8,1.4,0.8,1.4s-1.4,0.4-1.6,1.5l1.2,0.5c-0.3,0.2-0.6,0.5-0.8,0.9
		c-0.3,0.6,0.8,0.3,0.8,0.3s-1.5,1.2-1.5,2.1c0.7,0.2,1.4,0,1.9-0.5c0.8-0.9,0.3-0.6,0.3-0.6l0.1,0.6c0,0,1.6-0.8,1.6-1.2
		c0-0.4-0.3,0.6-0.3,0.6l1.6-0.9L365,161.7"/>
	<path style="fill:none;" d="M363.7,137.9l-0.3-1.7c1.2,0,2.3,0.2,3.5,0.5l0.6-1.6c0.8,0.4,1.5,0.9,2.2,1.4c0,0,3.2-0.9,4.2-0.5
		l-0.4,1.7c1.3,0.1,2.6,0.3,3.9,0.6c0.9,0.4-0.4,1.2-0.4,1.2s3.3,0.5,4.8,1.4c1.5,1,1.5,1.8,0.8,2.1l1.8,3.3c0,0-2.9,0.4-3.5,1.2
		s-1.1-0.8-1.1-0.8l-0.5,2.3c-0.9-0.5-1.8-1.1-2.6-1.8c0,0-0.9,1.2-0.3,1.8c-1.4,0-2.7-1-3.4-2.4c0,0-1.4-0.2-1.4,1.2
		c0,0-1.6-2.1-2.1-2.7l-1.8,0.6c-0.3-0.5-0.7-0.8-1.2-1.1c-0.8-0.2-0.2,1.1-0.2,1.1l-1.1-1.4l-1.1-1.4c0,0-1,1.4-1.7,1.4
		c-0.7,0-0.7-1-0.5-1.7c0.2-0.6-2.2-0.8-2.4,0c0,0-0.7-3,1.8-3.9L363.7,137.9"/>
	<path style="fill:#D67C59;stroke:#000000;stroke-width:0.475;stroke-miterlimit:3.111;" d="M380.8,147.6c0,0,0.4-1.1,1.2-0.5
		c0.7,0.6,0.9,3.3,0.9,3.3l-1.1,0.6C381.7,151,382.3,150,380.8,147.6L380.8,147.6z M374.6,171.5c0,0,0.5-0.8-0.2-2.7l1.1-0.4
		c0.2,1,0.2,2.1-0.1,3L374.6,171.5 M393.5,167.3l-2.6,1.7l1.3,0.7l3.1-2.1L393.5,167.3 M358.7,178.6c-0.7,0.6-0.8,1.7-1.2,2.3
		c-0.3,0.6-1.4,1.4-1.4,2.4c-0.2,0.9-0.1,1.9,0.1,2.7c0.4,1.2,2.1,6.6,1.4,10.7c-0.8,4.1-0.5,5.8-0.2,6.5c0.3,0.6,1.1,2.3,1.6,2.3
		c1.1-0.2,0.6-0.5,1-1.3c1-2,0-17.2-0.5-21.5c-0.3-2.3-0.9-4.5-1.8-6.5c-0.1-0.4-0.4-1.4-0.6-2c-1-2.7-2.3-5.1-2.3-10.8
		c0,0-3.4,0.8-6.2-6.4c-1.5-3.6-3.7-3.3-6.3-4.5l1.2-0.8c0,0,2.2,1.2,3.3,1.2s0.8-2.4,0.8-2.4l1.1-1.2v5.3c0,2.4,3,5.8,4.8,6.8
		c1.1,0.6,2.5-1.9,2.2-4.3c-0.2-1.9-0.2-3.8,0-5.7l1.5,1c-0.3,0.5-0.4,1.1-0.4,1.7c0.2,0.6,1-0.6,1.5-1.2c0,0,0.1,0.2,0.7,0.2
		c0,0-1.1,2-1.6,3.1c-0.5,1-0.5,4.9-0.5,6.3s0.5,4.8,0.5,5.8c0,0.8,1.3,3.9,2.3,5.8c0.4,0.9,0.8,1.8,1.2,2.7
		c0.8,1.4,0.9,2.4,1.4,3.6c0.6,1.7,1,3.5,1.1,5.4c0.1,0.8,0.3,3.6,0.5,5.5c0.2,1.8,1.6,0.4,3.2-0.9c1.6-1.4,1.6-4.6,1.6-4.6
		s1.3-1.2,1.1-0.5c-0.1,0.8,0.7,1.5,0.7,1.5c-1,2.6-0.4,2.3,0.6,2.2c1-0.2,4.6-3.1,4.6-3.1c0.5-0.2,2.6-0.2,2.3,0
		c-0.4,0.2-1,1.4-1,1.4l2.3-0.3c-0.8,0.7-3.9,2.7-4.6,3.1c-2,1.2-4,2.2-6,3.2c-1.6,0.8-4.7,2.4-4.8,4.2c-0.1,1.7,0.2,6.5,0,8
		c-0.1,1.5-0.7,8.3-0.7,8.3h-7.3c0,0,1.4-5.9-0.1-7.5c-1.4-1.7-4.8-6.5-7-8.2c-2.2-1.6,1.4-0.4,1.4-0.4v-1.7l3.4,4.5
		c0,0,5.8-5.7,0-13.4c-1.8-2.4-3.7-6.2-5.1-6.5c-1.5-0.7-3.2-0.7-4.8,0c-2.6,0.8-8.8,0.8-11.4-3.7l2.2-0.4l1.8-0.8
		c0,0-0.8,2.9,4.4,2.9c5.1,0,5.9,0,5.5-5.3l1.5-0.8l1.1,1.2c0,0-0.8,2.9-0.3,4.1c0.3,1.2,2.2,2.1,3.6,3.3c0.4,0.4,1,0.6,1.5,0.6
		c0.6-0.1,0.8-0.1,1.6-1c0.7-1,1.4-1.8,2.2-2.7c0,0,0.6-1.1,0.8-1.2L358.7,178.6L358.7,178.6z"/>
	<path style="fill:#D67C59;stroke:#000000;stroke-width:0.475;stroke-miterlimit:3.111;" d="M359.8,174.6c0.5-0.8,0.9-1.6,1.3-2.4
		c0.8-1.5,1.8-2.4,2.9-4.3c1-1.8,1.4-4,1-6.2l1,0.6l0.1,2.9c0.6-0.6,1.2-1.1,1.8-1.5l0.5,0.3c-3.1,3.7-5.7,7.9-7.9,12.3L359.8,174.6
		L359.8,174.6z M323.8,158.8c0.5,1.1,1.1,3.1,2.7,4.7l1.1-0.4c0,0-2.5-3.3-2.5-4.7L323.8,158.8 M330.2,156.9c0,0,0.3,3.9-0.5,5.3
		l1.1-0.6c0,0,0.8-2.7,0.5-4.1L330.2,156.9L330.2,156.9z M366.3,144.7c0,0-0.2,5.5,0.8,8.8l1.3-0.5c-0.1-0.7,0.3-1.3,0.9-1.4
		c1.8-0.6,3.5-1.6,5-2.8l-0.4-1.2c-0.9,0.8-1.9,1.6-2.9,2.2c-0.9,0.4-1.4,0.8-2.2,0.6c-0.8-0.2-1.6-1.6-1.1-4.7L366.3,144.7z
		 M380.8,170.2c-0.2,1.8-0.2,3.7-0.1,5.5l1.2,0.3c0,0-0.3-4.6,0.5-5L380.8,170.2 M386,173.1c0,0-1.3,2.5-2.8,2.7l2.4-0.5
		c0.6-0.4,1.2-1,1.7-1.6L386,173.1"/>
	<path style="fill:#338A00;stroke:#003300;stroke-width:0.475;stroke-miterlimit:3.111;" d="M365,161.6l0.9,0.6l1,0.2
		c0,0,1,1.1,2.2,2c0.9,0.8,0.9-0.2,0.9-0.2l0.5,2.4h0.8c-0.1,0.8-0.2,1.6-0.2,2.4l1.3-1.2l1.5,1.4c0,0,1.1-1.1,1.6-1.1
		c0.3,0,0.6-0.3,0.8-0.6h0.1c-3.6-1.9-5.2-3.9-4.1-5.9c1.8-3.4,4.7-1.2,5.7-0.8l13.3,7.9c0,0,0.9-0.6,0.3-1.2
		c-0.6-0.7-0.9-1.7-0.8-2.7c0.2-0.6,1.7,1.9,2.5,2.1c0.8,0.2,2.5,0.5,2.5,0.5l-0.1-0.8c0,0,2.2,1.7,2.2,2.5c0,0,1.6-0.9,1-1.4
		c-0.5-0.5,2.4,1.3,2.6,2.3l0.6-0.8c0.1-1.3,0.4-2.5,1-3.6c0.3-0.6,0.8-1.1,1.4-1.4c0,0,0.7-1.3,1.4-1.3c-0.4-0.3-0.7-0.7-1-1.1
		c-0.3-0.4-0.7-0.7-1.2-0.9c0.5-0.4,0.9-0.8,1.3-1.2c0.1-0.2,0.3-0.4,0.5-0.5c-0.8-0.7-1.7-1.3-2.7-1.7c0,0-0.1-2-1.4-2.1h0.6
		c0,0-1-2.1-2-2.2c0.3-0.4,0.7-0.7,1.2-0.8c0,0-1.2-1.7-2.7-1.1l1-0.5c0,0-0.8-0.9-3.1-0.5c0.1-0.8-0.2-1.5-0.8-1.9
		c0,0-0.9,0.1-0.9,0.8c-0.5-0.5-1.2-0.8-1.8-0.8c-1,0,0.3,1.2,0.3,1.2s-1.4-1-2.2-0.7c0,0,0.3-1.7-0.5-2.7c-0.5,0.3-1,0.8-1.3,1.4
		l-0.3-0.8c0,0-1.4,1.8-1.6,1.3c-0.2-0.5-0.3-1-0.4-1.6l-0.8,1.4l0.1-1.9c-0.8,0.6-1.4,1.5-1.7,2.6c-0.5,0.5-0.8,1.2-1,1.9
		c-0.3-0.4-0.8-0.5-1.2-0.2c-0.1,0.1-0.2,0.1-0.2,0.2c-0.6,1.1,0,0.8,0,0.8c-0.3,0.3-0.6,0.5-1,0.5l0.1,0.6c-0.5-0.3-1-0.4-1.6-0.3
		l0.3,0.9c0,0-1.8,0.2-1.8-1.4c0,0-1.5-0.8-1.7,0.1l-1.1,0.8c-0.2-0.4-0.5-0.8-1-0.9c-0.7-0.2-0.1,1-0.1,1c-0.2-0.6-0.5-1.1-1-1.4
		c-0.8-0.4-0.1,0.8-0.1,0.8s-1.1-1-0.5-1.7c0,0-1,1.1-0.5,2.1l-0.7,0.5c0,0-0.3-0.4-0.3-0.7c0.1-0.3-1.2,0.9-1.2,0.9s-0.8-2,0-2
		c-0.8,0-1.5,0.8-1.5,1.7c-0.6,0.1-1.2,0.2-1.7,0.4c-0.9,0.3,0.6,1,0.6,1c-0.7-0.2-1.4-0.1-2.1,0.2l0.5,0.7c0,0-0.5-0.5-1.6-0.1
		c-1.2,0.4,0.3,0.6,0.3,0.6c-0.6-0.2-1.2-0.2-1.8,0c-0.6,0.3,0.2,0.8,0.2,0.8s-2.3-0.8-2.6-0.5s0.8,1.4,0.8,1.4s-1.4,0.4-1.6,1.5
		l1.2,0.5c-0.3,0.2-0.6,0.5-0.8,0.9c-0.3,0.6,0.8,0.3,0.8,0.3s-1.5,1.2-1.5,2.1c0.7,0.2,1.4,0,1.9-0.5c0.8-0.9,0.3-0.6,0.3-0.6
		l0.1,0.6c0,0,1.6-0.8,1.6-1.2c0-0.4-0.3,0.6-0.3,0.6l1.6-0.9L365,161.6L365,161.6L365,161.6z"/>
	<path style="fill:#338A00;stroke:#003300;stroke-width:0.475;stroke-miterlimit:3.111;" d="M363.7,138l-0.3-1.7l3.5,0.5l0.6-1.6
		c0.8,0.4,1.5,0.9,2.2,1.4c0,0,3.2-0.9,4.2-0.5l-0.4,1.7c1.3,0.1,2.6,0.3,3.9,0.6c0.9,0.4-0.4,1.2-0.4,1.2s3.3,0.5,4.8,1.4
		c1.5,1,1.5,1.8,0.8,2l1.8,3.3c0,0-2.9,0.4-3.5,1.2s-1.1-0.8-1.1-0.8l-0.5,2.3c-0.9-0.5-1.8-1.1-2.6-1.8c0,0-0.9,1.2-0.3,1.8
		l-3.4-2.4c0,0-1.4-0.2-1.4,1.2c0,0-1.6-2.1-2-2.7l-1.8,0.6c-0.3-0.5-0.7-0.8-1.2-1.1c-0.8-0.1-0.2,1.1-0.2,1.1l-1.1-1.4l-1.1-1.4
		c0,0-1,1.4-1.7,1.4c-0.7,0-0.7-1-0.5-1.7c0.2-0.6-2.2-0.8-2.4,0c0,0-0.7-3,1.8-3.9L363.7,138L363.7,138z M350.5,148.4l-1.2,1.2
		l-0.7-0.4l-1.4,1.7L347,150l-0.8,1.4l-1.2-0.5l-0.5,1l-1-0.2c-0.4,0.5-0.9,0.8-1.4,1.1c-0.5,0.2,0-1.4,0-1.4s-0.8,1.5-1.4,1.5
		c-0.5,0-0.3-0.7-0.3-0.7s-0.3,1-1,1.1c-0.6,0.1-0.3-0.8-0.3-0.8l-1.1,0.9v-0.8l-0.5-0.2c0,0,0.3-1.4,0.8-1.7
		c0.5-0.3-0.5-1.2-0.5-1.2l0.5-0.6c0,0-1.4-0.4-1.4-0.1c0,0,0.7-2.1,1.6-2.4l0.1-2.3c0.5-0.5,1.2-0.8,1.8-1c1-0.2-0.3-1.7-0.3-1.7
		l2.2-1.4l0.3-1.7l3.4,0.3l0.7-1.6l2.7,0.8l2.3-1.3l1.6,2.1l2.5,0.2c0,0-0.1,1.9-0.1,2.4c1.1,0.4,2.2,0.8,3.3,1.3
		c-0.2,0.8-0.4,1.6-0.5,2.4c0.9-0.3,1.8-0.4,2.7-0.5c0,0,0.2,2.1,0.3,2.7c0,0,3.5,1.2,3.7,1.9c-0.4,0.3-0.8,0.7-1.2,1.2
		c0.2,1,0.3,2.1,0.4,3.1l-0.3,0.5c-0.5-0.6-1.2-1-1.8-1.2l-0.7,1.7l-1.2-0.9l-0.8,0.1c0,0-0.6-0.8-1.1-0.8l-0.1-0.8l-1,0.7
		c0,0-1.5-0.8-1.5-1.4c0-0.5,0.1-1.2,0.1-1.2l-1.6,1.2c-0.2-0.4-0.3-0.8-0.3-1.3c0.1-0.4-0.6,0.9-0.6,0.9c-0.3-0.6-0.6-1.2-0.8-1.9
		l-0.2,1.3C352.3,150.2,350.7,149.6,350.5,148.4L350.5,148.4L350.5,148.4z"/>
	<path style="fill:#338A00;stroke:#003300;stroke-width:0.475;stroke-miterlimit:3.111;" d="M328.6,155.8c0,0,2.9,1.6,2.9,2.4
		c0,0,0.8-1.7,0.3-2.3l1.1,0.8c0,0,0.3-1.5-0.1-2c-0.3-0.4,2.5-1.7,3.1,0.4c0,0,1.7-2-1.6-3.6c0,0-0.3-1.2,1.7-0.9
		c-0.1-0.4-0.3-0.8-0.6-1.1h1.9c-0.8-0.7-1.8-1.2-2.9-1.4c-1.6-0.3-0.6-0.5-0.7-0.9c-0.1-0.6-0.1-1.2,0-1.7
		c-0.6-0.2-1.2-0.2-1.7,0.1l0.3-0.4c0,0-1.8-0.5-2.5-0.1c-0.6-0.3-1-1-0.9-1.7c-0.7,0-1.3,0.4-1.5,1.1c-0.6,0.7-1.4,1.1-2.3,1.2
		c-0.4-0.1-0.8-0.3-1.2-0.6l-0.8,2.1l-1.3-0.1l0.4,0.8c0,0-2-0.6-2.6,0c0.4,0.6,0.6,1.4,0.5,2.2c-0.7,0.1-1.3,0.3-1.9,0.6
		c-0.4,0.3,0.5,0.5,0.5,0.5s-1.8,0.6-2.2,1.2l0.7,0.6l-0.8,1.2l0.7,0.1c0,0-1.2,0.4-1.8,0.6c-0.6,0.2,1.1,0.4,1.1,0.4l-0.8,0.8
		l1.3,0.2c-0.5,1.4-0.9,3-1.1,4.5c0,0,1.6-2.1,2-2.3l-1.2,2.3c0,0,2.3-0.8,2.5-1.2c0.2-0.5,0.4-0.8,0.4-0.8l0.1,1.3
		c0.4-0.6,0.7-1.2,1-1.9c0.1-0.5,1.4,0.5,1.4,0.5v-0.8c0,0,1.2,0.5,1.6,0.5c0.5,0.1,0.5-0.2,0.5-0.2l1.2-0.2l-0.2,1.1
		c0.4-0.3,0.8-0.7,1-1.2c0.1-0.6,0.5,0,0.5,0l0.5-2.4L328.6,155.8L328.6,155.8z M319.2,166.6l1.1,2.5c-0.8,0.2-1.5,0.6-2.2,1.2
		c0.2,4.2-0.8,4-0.8,4c0.1,0.7,0.1,1.5-0.2,2.2l5.4-3.6l0.1-0.4l6.4-3.3l0.2,0.4l1.8-1.1l1.3,3.8l-1.3,0.8c0.1,1.3,1.4,3.6,1.4,3.6
		l1.7-0.5l1.8-0.8c0,0,0.1,1.1,0.1,0.8c0-0.3,2-1.1,2-1.1l0.9,1c0.7-0.1,1.9-1.9,1.9-1.9l1.4,0.6c0.3-0.5,0.4-1,0.5-1.6
		c0-0.6,1.8-0.6,1.8-0.6l1.2,1l1.6-1.4c0,0,0.5,1.1,1.1,1.2c0.7,0.1,2.4,1.5,2.4,1.2c0.2-0.7,0.5-1.3,0.8-2l2.9,1.3
		c-0.4-1.1-0.8-2.2-1.4-3.2c0,0,1.4-1.2,1.1-1.5c-0.3-0.3-1.1,0-1.1,0l0.8-1.8H353l0.3-0.5l-1.8-0.8l1-2.1c-0.4-0.5-5.1-1.6-5.1-1.6
		l1.1-1.1c0,0-0.5-0.9-1.1-0.9s-3.4,0.1-3.6-0.2c-0.4-0.5-0.8-1-1.2-1.4l-1.8,1.4l-0.9-0.3l-1.6,0.7c0,0,0,1-0.2,0.3
		c-0.5-0.8-1-1.5-1.6-2.2c-0.3,0.5-2.1,3-2.1,3s-0.3,1.3-0.9,0.4c-0.7-0.9-2.1-1.9-2.3-1.1c-0.2,0.8-1.5,1.6-1.8,1.4
		c-0.3-0.2-1.8-0.1-1.9,0.4c-0.1,0.5-1.7,1.9-1.7,1.9c-0.9-0.3-1.8-0.4-2.7-0.2c-0.3,0.5-0.4,1-0.5,1.5L319.2,166.6L319.2,166.6
		L319.2,166.6L319.2,166.6z M350.1,197.4v-1.6l1.6,1.2l1-1.2l1.2,1.4l0.8-1.4v2.2l1.8-1.8l1.1,0.5v-1.7c0,0,1.3-2.4,0.8-2.9l1.1-0.4
		c-0.8-0.9-1.6-1.7-2.4-2.4c-0.4-0.3-0.8-0.4-1.3-0.5c-0.7-0.8-1.5-1.5-2.4-2.1c-0.5-0.2-1.1,0-1.4,0.5c-0.3-0.7-0.9-1.2-1.5-1.4
		c-0.9-0.2-0.9,0.8-0.9,0.8c-0.5-0.5-1-0.9-1.6-1.1c-0.9-0.5-0.3,0.9-0.3,0.9l-3.1-1.1l0.4,1.1l-2.9-0.8l0.3,1.2l-2-0.4l-0.1,1
		l-2.9,0.6l0.5,1.1l-1.8-0.8v1.4l-2.1,0.8l0.8,0.8c0,0-2.7,1.4-3.3,1.9c-0.5,0.4,1.1,1.2,1.1,1.2l-2.9-0.5l1.1,1.1l-2.6,2.7l1.8,1.4
		l-1.1,1.8l2.7,0.6l1.1,2.1l2.3-0.5v2.3l3.3-2.9c0,0,2.4,2.4,2.6,1.7c0.1-0.9,0.1-1.8,0.1-2.7h1.2v-2.1l0.9,0.8l1.5-2.4l2,3l1.5-3.9
		L350.1,197.4L350.1,197.4z M363.5,188.2l-0.3-3.5l-1,1.1l0.4-3.3l-1.5-0.3l0.5-3.2l-1.1-0.6l0.3-1.5l1.1-0.9l2-2.1l4.6,0.1l0.5-1.7
		l3.3,0.6c0.5,0.7,2.3-1.4,2.3-1.4h0.7l0.8,1.6c0,0,2.4-0.4,3.5,0.5l-1.3,2l2.4,0.2l1.6,0.4l1.7-0.6l2.2-0.2l0.5,1h2.1l-0.7,0.9
		l2.7,1.4l-0.5,0.6c0.8,0.3,1.7,0.5,2.6,0.6h0.5c0,0,0.5,1.4-0.2,2c0,0,0.8,2.1,2.4,2.4c1.6,0.4,1.6,0.4,1.8,0.8
		c0.2,1.1-0.4,2.1-1.3,2.4c-0.2,0-0.3,0.1-0.5,0v2.1c-0.6,0.6-1.2,1.3-1.6,2l-1.1-0.8c-0.5,0.6-0.8,1.3-1,2.1c0,0-2.4-3.5-3.3-3.6
		c-1-0.2-0.8,2-0.8,2l-2.6-2.4l-0.3,1.7l-2.2-2l-1.3,1l-2.3-2.7l-2.3,0.3l0.9-1.3H375l-0.5-2.7l-0.4,2.2l-1.6-1.2l-2.1,2.6
		c-0.3-0.5-0.5-1-0.6-1.5c-0.3-1.2-1.3,1.4-1.3,1.4l-0.8-1.9l-0.9,1.9c-0.4-0.7-0.9-1.4-1.5-1.9
		C364.5,184.3,363.7,186.9,363.5,188.2L363.5,188.2z M364,196.1l0.1-1.2l3.9-1.7l3.3-1.4l1.6-0.8l0.8,1.4l1-2l1.5,2.1l0.8-1.1
		l1.3,1.1h1.1l0.2,1.6c0,0,2.7,0.2,2.9-0.4s0.5,2,0.5,2l2.6,0.4l0.5,3.3c0,0,1.3,3,0.9,4.3c-0.3,1.3-1.4-1.6-1.4-1.6
		c-0.1,1-0.2,1.9-0.4,2.9c-0.1,0.6-3.5-0.6-3.5-0.6l-1.4,3c0,0-1.5-2.4-2.2-2.4c-0.8,0-0.8,2.4-0.8,2.4s-2.2-2.9-3.1-4.1
		c-0.9-1.2-1.1,1.2-1.1,1.2s-1.4-2.7-1.4-3.4c0-0.8-1.3-1.7-1.3-1.7s-2.3,2.9-3.9,3.6c0,0,0.2-1.8-0.3-2.4c-0.5-0.6-2.2,1.2-2.2,1.2
		C363.3,200,363.3,198,364,196.1L364,196.1z"/>
	<path style="fill:none;stroke:#004B00;stroke-width:0.475;stroke-miterlimit:3.111;" d="M382,150.9l0.3,1.5
		c0.7-0.2,1.4-0.2,2.1-0.2c-0.1,0.6-0.3,1.2-0.5,1.7c0,0,1.6-0.3,2.4,0.2L386,155l1.9,0.9l-1.8,1.6c0,0,2.9,1.1,3.4,2.1
		c0,0-1.8,1.4-2.1,1.4c-0.3-0.2-0.1,0.6,0.4,1.3l-1.6-0.1c0.3,0.7,0.5,1.4,0.5,2.2c-0.1,0.6-2.6,0.5-2.6,0.5 M394,160.7
		c0,0,0.5-3-0.3-3.8c0,0,1.8,1.7,2.9,1.7c1.2,0.1-0.1-2.5-0.1-2.5c0.8,0.5,1.7,0.9,2.5,1.2c0.8,0.2-0.6-1.9-0.6-1.9s0.5-1,1.8-0.1
		 M368.6,143.3c0-0.4,0-0.7-0.2-1.1c-1.6-2.5,1.7,1.9,2.4,2.1 M373.9,144.3c0.5,0.4,1,0.7,1.6,0.9c0.5,0-0.3-2.4-0.6-2.7
		c-0.3-0.3,2,1,2.8,1.1c0.8,0.2,1-1.5,1-1.5c1,0.2,2.1,0.4,3.1,0.8 M364.2,142.4c0,0-0.2-1.6-0.3-2.3 M347,150
		c-0.1-0.3,0.7-1.7,0.3-2.3c0.3,0.3,0.6,0.4,1,0.5c0.4,0.1,0.3-1.7,0.3-1.7l0.5,0.2c0,0,1.4-0.8,1.2-1.4c-0.3-0.6,1,0.9,1,0.9
		s0.8-0.9,0.8-1.3s1,0.9,1,0.9s1-0.2,1-0.9s1.3,0.2,1.3,0.2c0.3-0.4,0.4-0.9,0.5-1.4 M342,151.5c0,0,0.6-1.6-0.1-2.7 M325.4,156.5
		c0.1-0.8,0.4-2.8,0.1-3.1c-0.3-0.3,0.7,0.3,1.5,0.5 M333.5,153.6c-0.8-0.9-1.3-1.4-2.6-1.4 M319.6,158.7c0.3-0.8,0.4-1.7,0.3-2.6
		 M337.4,196.4l0.9-2.1l1.1,2.9l0.8-1.8l0.3,0.6l1.6-2l1.8,3 M372.4,184.1l1.2-2.6l1.6,0.9l0.8-2.5l1.6,1.1l1-2.4l1.8,0.5l0.1-1.7
		c0.6,0.4,1.2,0.9,1.6,1.4c0.4,0.6,0-2,0-2l1.5,0.8c0.4-0.4,0.5-1,0.2-1.5c-0.1-0.2-0.3-0.3-0.6-0.4"/>
	<path style="fill:none;stroke:#004B00;stroke-width:0.475;stroke-miterlimit:3.111;" d="M376.9,180.9l1.6,2.7l1.4-1.7l1.2,3
		l1.6-1.1l2.3,1.4l1-0.9l2.5,2l1-2.4l2.2,0.8l1.4-2.7 M334.1,174.7c0,0,1-1.8,0.6-2.7c-0.4-0.8,2,1.4,2,1.4s0.5-1.8,0.2-2.7
		c-0.4-0.8,2.7,2.4,2.7,2.4s0.5-2.8,0-3.4c-0.5-0.6,3,0.8,3,0.8s1.4-0.5,0.9-1.3s2.4,1.2,2.4,1.2s0.7-2,0-2.8c-0.8-0.8,2.2,1,2.2,1
		l-1.1-2.2l2.4,0.2l-0.2-2.4 M370.4,199.4l1.6-0.8l1.4,1.5l1.5-2.7l1.8,2l0.3-2l2,0.9l0.4-1.2l2.2,1.3l0.2-1.8l1.1,0.4l0.2-1.2"/>
	<path style="fill:#9DC9E2;" d="M334.6,285.9c-1.7-3.2-3.1-6.6-4.2-10.1l29.6-28.9l29.6,28.9c-1.1,3.6-2.5,7.1-4.3,10.3l-0.2,0.4
		c-0.7-0.3-1.5-0.6-2.2-1c-0.5,0.5-1.1,0.9-1.7,1.1c-0.7,0-1.4-0.4-1.9-1c-0.7,0.7-1.7,1-2.6,1c-0.7,0-1.4-0.4-1.8-1.1
		c0,0-1.4,1.2-2.3,1c-0.6-0.2-1.1-0.5-1.5-0.9c-0.5,0.7-1.2,1-2,0.9c-0.7-0.2-1.5-0.5-2.1-0.9c-0.9,0.4-1.8,0.8-2.8,1
		c-1.1,0.2-2.1-1.1-2.1-1.1c-0.6,0.5-1.3,0.8-2,1.1c-0.9-0.3-1.8-0.6-2.6-1.1c-0.9,0.4-1.9,0.6-2.9,0.8c-1-0.2-1.9-0.5-2.8-1
		c-0.9,0.3-1.9,0.5-2.9,0.6c-0.8-0.1-1.6-0.3-2.3-0.6c0,0-1.6,0.8-2.5,0.6c-0.6-0.1-1.2-0.3-1.7-0.6c-0.9,0.4-1.9,0.7-2.9,0.6
		c-0.8-0.2-1.6-0.6-2.4-1.1C337,284.8,336.8,285.4,334.6,285.9L334.6,285.9"/>
	<path style="fill:#FFFFFF;stroke:#000000;stroke-width:0.665;stroke-miterlimit:3.111;" d="M360.1,213.5v33.3l-29.6,29.1
		c-2.1-6.8-3.1-13.9-3.1-21.1v-41.3H360.1"/>
	<path style="fill:#FFE682;stroke:#000000;stroke-width:0.665;stroke-miterlimit:3.111;" d="M360.1,213.5v33.3l29.5,29.1
		c2.1-6.8,3.1-13.9,3.1-21.1v-41.3H360.1"/>
	<path style="fill:#D67C59;stroke:#000000;stroke-width:0.475;stroke-miterlimit:3.111;" d="M341,279c2.2,1.3,1.5,0.9,6.1,2.7
		c3.8,1.4,8.1,2.1,14.5,2.1c5.6,0,8.7-0.5,10.5-1c1.8-0.6,2.3-1.4,2.3-1.4l-4.6,5.2c0,0-18.4,1.1-21.7-1.3
		C346.6,284.5,343.8,282,341,279L341,279z"/>
	<path style="fill:none;stroke:#000000;stroke-width:0.475;stroke-linecap:round;stroke-miterlimit:3.111;" d="M368,269.3
		c0,0,5.9,3.7,0,10.9 M341.5,279.3l8.5-9l-1,12 M353.5,283.3v-19.9 M368,283.4v-21.3 M360.6,283.8V261"/>
	<path style="fill:#D90F19;stroke:#000000;stroke-width:0.475;stroke-linejoin:round;" d="M353.5,264.5l-3.8,1.4l3.8,0.5V264.5
		 M360.6,261.3l-4,1.7l4,0.2V261.3z M368,262.5l-4,1.7l4,0.2V262.5z M370.4,272.2c-0.2-0.9,2.4-0.8,2.4-0.8s0.8,3,0,4.9l-2.2-0.5
		C370.7,274.6,370.6,273.4,370.4,272.2L370.4,272.2z"/>
	<path style="fill:#FFFFFF;stroke:#000000;stroke-width:0.475;stroke-linejoin:round;" d="M342.8,278.1l7.2-7.8l-0.3,4.6
		c0,0-3.7,2.7-3.7,4.6L342.8,278.1 M346.6,279.7c0.5-1.5,1.5-2.8,2.8-3.6l-0.2,4.9L346.6,279.7L346.6,279.7z M357,266.3
		c1.7-0.3,3.4-0.3,5.1,0c0,0-0.3,3.3,0,3.9c0,0-4-1.1-5.7,0.6C356.4,270.8,355.9,267.7,357,266.3L357,266.3z M350.7,267.1
		c1.7-0.3,3.4-0.3,5.1,0c0,0-0.5,3.6-0.2,4.3c0,0-3.3-2.1-4.9-0.4C350.7,271,349.6,268.5,350.7,267.1L350.7,267.1z"/>
	<path style="fill:#FFFFFF;stroke:#000000;stroke-width:0.475;stroke-linecap:round;stroke-linejoin:round;" d="M350.5,271.4
		c1.7-0.2,3.4-0.2,5.1,0c0,0-0.3,3.3,0,3.9c0,0-3.8-1-5.5,0.6C350.2,275.8,349.4,272.8,350.5,271.4z M356.4,270.8
		c0,0,4.2-0.6,6.4-0.2c0,0-0.9,2.7,0.2,4.5c0,0-4.6-1.4-6.3,0.2C356.7,275.2,355.3,272.2,356.4,270.8L356.4,270.8z M350.2,275.8
		l5.7,0.5c0,0-0.5,4.6-0.2,5.2c0,0-4.6-1.2-5.5,0.5C350.2,282,348.7,277.7,350.2,275.8L350.2,275.8L350.2,275.8z M356.6,275.8
		c0,0,4.9-0.4,7.2,0c0,0-1.3,3.5,0.1,6.5c0,0-6.4-2-7.3-0.4C356.6,282,355.1,277.7,356.6,275.8L356.6,275.8z M364.1,266.3
		c1.7-0.3,3.4-0.3,5.1,0c0,0-0.3,3.3,0,3.9c0,0-4-1.1-5.7,0.6C363.6,270.8,363,267.7,364.1,266.3L364.1,266.3z M364.1,270.8
		c1.7-0.2,3.4-0.2,5.1,0c0,0-0.3,3.3,0,3.9c0,0-4-1-5.7,0.6C363.6,275.2,363,272.2,364.1,270.8L364.1,270.8z M364.5,275.5
		c1.7-0.3,3.5-0.3,5.2,0c0,0-0.8,5.1-0.4,5.7c0,0-3.3-1.7-4.9-0.2C364.3,280.9,363.4,276.9,364.5,275.5L364.5,275.5z"/>
	<path style="fill:#FFFFFF;stroke:#000000;stroke-width:0.475;stroke-miterlimit:3.111;" d="M370.6,275.8c0,0,1,3.9,2.2,4.3
		l-1.6,2.2c0,0-2-1.6-2.2-3.4C369.6,278,370.2,277,370.6,275.8L370.6,275.8z"/>
	<path style="fill:#006AC8;" d="M385.2,286.3c-4.7,8.7-12.4,16.9-25.2,22c-12.9-5.2-20.8-13.7-25.4-22.4l0.1-0.1
		c2.1-0.5,2.3-1.1,2.3-1.1c0.7,0.5,1.6,0.8,2.4,1.1c1,0,2-0.2,2.9-0.6c0.6,0.3,1.1,0.5,1.7,0.6c0.9,0.2,2.5-0.6,2.5-0.6
		c0.7,0.3,1.5,0.5,2.3,0.6c1-0.1,1.9-0.3,2.9-0.6c0.9,0.4,1.8,0.8,2.8,1c1-0.2,1.9-0.4,2.9-0.8c0.8,0.5,1.7,0.8,2.6,1.1
		c0.7-0.2,1.4-0.6,2-1.1c0,0,1,1.3,2,1.1c1-0.2,1.9-0.5,2.8-1c0.7,0.4,1.4,0.7,2.1,0.9c0.8,0.1,1.5-0.3,2-0.9
		c0.4,0.4,0.9,0.8,1.5,0.9c1,0.2,2.3-1,2.3-1c0.5,0.6,1.1,1,1.8,1.1c0.9,0,1.9-0.3,2.6-1c0.5,0.6,1.2,1,1.9,1
		c0.6-0.2,1.2-0.6,1.7-1.1C382.9,285.5,384.6,286.1,385.2,286.3"/>
	<path style="fill:none;stroke:#000000;stroke-width:0.475;stroke-miterlimit:3.111;" d="M384.1,288.3c-1,0.1-1.2-0.7-1.2-0.7
		s-1.4,1.3-2.7,1.1c-0.8-0.1-1.5-0.5-2-1.2c0,0-1.4,1.3-2.4,1.1c-0.6-0.1-1.2-0.4-1.6-0.9c-0.5,0.6-1.3,1-2.1,0.9
		c-0.8-0.1-1.5-0.4-2.2-0.9c-1,0.4-2,0.8-3,1.1c-1.2,0.2-2.1-1.2-2.1-1.2c-1,0.4-2.1,0.7-3.2,1c-0.9-0.2-1.7-0.6-2.5-1
		c-0.6,0.5-1.3,0.8-2,0.9c-1-0.2-2-0.6-3-1.1c-1,0.3-2,0.5-3,0.6c-0.8-0.1-1.6-0.3-2.4-0.6c0,0-1.8,0.8-2.7,0.6
		c-0.6-0.1-1.2-0.3-1.7-0.6c-1,0.4-2,0.6-3.1,0.6c-0.9-0.2-1.7-0.6-2.5-1.1c0,0-0.2,0.5-2.5,1.1h-0.1"/>
	<path style="fill:#006AC8;stroke:#000000;stroke-width:0.569;stroke-miterlimit:3.111;" d="M341.6,291.4c0,0-0.2,0.5-2,0.9
		c0,0-0.5,0.1-0.5,0.1c0.2,0,0.3-0.1,0.4-0.1c-0.2,0.1-0.3,0.1-0.5,0.2c2.2,3.4,5,6.3,8.2,8.5c3.1,2.4,6.8,5.2,12.9,7.2
		c6.5-2.8,8.2-3.9,12.4-7c4.2-3.4,6.4-5.6,8.8-9.1c-1.8,1.2-1.6,1.2-2.5,1c-0.6-0.2-1.2-0.5-1.7-1c-0.5,0.7-1.3,1-2,1
		c-0.8-0.2-1.5-0.5-2.2-1c-0.9,0.7-1.9,1-3,1.1c-0.8-0.1-1.6-0.6-2.1-1.2c-1.1,0.4-2.1,0.7-3.2,1c-0.9-0.2-1.7-0.5-2.5-1
		c-0.6,0.5-1.3,0.8-2.1,0.9c-1-0.2-2-0.6-3-1.1c-1,0.3-2,0.5-3,0.6c-0.8-0.1-1.6-0.3-2.4-0.6c0,0-1.7,0.8-2.7,0.6
		c-0.6-0.1-1.2-0.3-1.7-0.6c-1,0.4-2,0.6-3.1,0.6C343.2,292.2,342.4,291.9,341.6,291.4L341.6,291.4z"/>
	<path style="fill:#006AC8;stroke:#000000;stroke-width:0.569;stroke-miterlimit:3.111;" d="M360.2,308.3c6.7-3.1,7.9-3.9,11.9-6.7
		c-0.7,0-2.8-0.7-2-1c-0.5,0.5-1,0.7-1.6,0.8c-1-0.2-2-0.6-2.9-1.1c-1,0.3-2,0.5-3,0.6c-0.8-0.1-1.6-0.3-2.4-0.6
		c0,0-1.8,0.8-2.7,0.6c-0.6-0.1-1.2-0.3-1.7-0.6c0,0-2,0.8-3.1,0.6c-0.9-0.2-1.7-0.6-2.5-1.1c-0.9,0.5-1.8,0.9-2.7,1.1
		C351.2,304.3,355.5,306.8,360.2,308.3L360.2,308.3z"/>
	<path style="fill:#D67C59;stroke:#000000;stroke-width:0.475;stroke-miterlimit:6.667;" d="M332.5,216.4c-0.5,0-1,0.3-1.9,1.2
		c-1.4,1.4-1.9,2.8-0.1,4.5l9,9.1c1.3,1.4,3.1,1.7,3.9,2.4l9.1,10.4c1.2,1.1,1.7,1.9,1,2.8c-0.7,1.6,0.1,1.8,0.2,1.8
		c1.2,0.3,0.6-0.6,0.7-1c0.3-0.9,1-1.7,1.8-2.2c0.4-0.2,0.7-0.1,0.8,0.2c0.4,0.2,0.8-0.5,0.2-1.2c-0.5-0.8-1.3,0.5-2.2,0.2
		c-0.6-0.4-1.2-0.9-1.7-1.6c-0.8-1-1.8-1.8-2.3-2.6c-2-2.8-4.1-5.5-6.4-8c-1-0.7-0.8-3.5-1.5-4.3c-0.1-0.6-7-8.2-9.4-10.9
		C333.4,216.7,333,216.5,332.5,216.4L332.5,216.4z"/>
	<path style="fill:none;stroke:#000000;stroke-width:0.467;stroke-miterlimit:3.111;" d="M332.9,220.5l9.4,10.3"/>
	<path style="fill:#E8E8E6;stroke:#000000;stroke-width:0.533;stroke-miterlimit:3.111;" d="M345.6,225.2c0.1-0.3,0.5-1.1,0.8-2
		c0.1-0.3,2.7-4.8,3.9-4.9c0,0,7.8,6.3,7.9,6.4c0,0.3-3.4,6-3.7,5.6C354.5,230.3,345.3,226,345.6,225.2L345.6,225.2z"/>
	<path style="fill:#CCB8C8;" d="M350.6,226.7c-1.1-0.9-2.9-1.8-4.3-2.9l-0.6,1.5c0.5,0.6,7,4,8.1,4.7
		C352.8,228.7,351.7,227.6,350.6,226.7L350.6,226.7z"/>
	<path style="fill:none;stroke:#000000;stroke-width:0.373;stroke-miterlimit:3.111;" d="M346.3,223.6c0.8,0.7,2.4,1.8,3.4,2.4
		c1.9,1.5,3.2,3.1,4.5,4"/>
	<path style="fill:#D67C59;stroke:#000000;stroke-width:0.475;stroke-miterlimit:3.111;" d="M330.4,250.7l17.9-24.6
		c0.8-0.4,1.7,0,2.1,0.9c0.1,0.2,0.1,0.5,0.1,0.7l-16.9,25.6C332.2,253.1,331,252.1,330.4,250.7L330.4,250.7z M390.3,251
		c-0.5,0.4-1.1,0.6-1.7,0.7c-1.2-1.5-2.1-3.1-3.8-5.1L367,222.2l1.8-2l16.1,20.9c2.1,2.4,4.1,5,5.9,7.7
		C390.9,248.8,391.1,250.3,390.3,251L390.3,251z"/>
	<path style="fill:#E8E8E6;stroke:#000000;stroke-width:0.475;stroke-miterlimit:3.111;" d="M373.1,225.3l-2.9-3.8
		c0,0-2.2,0.3-2.6,1.6c0,0-1.6,2.9-5.7,3.2c0.9,3.5,3.1,6.5,6,8.3c0,0,1.8-5.5,3.5-6.5C371.4,228.1,373.2,226.6,373.1,225.3
		L373.1,225.3z"/>
	<path style="fill:#D67C59;stroke:#000000;stroke-width:0.475;stroke-miterlimit:3.111;" d="M365.9,242.2c-0.4-0.2-0.8,0-1.4,0.4
		c-0.5,0.4-1.2,0.2-1.2-0.5c0.1-0.7,0-0.6,0.8-1.1c1-0.6,2.3-0.8,3.4-0.4L365.9,242.2 M385.4,220.6c-0.2-0.6-0.2-1.3,0.2-1.7
		c0.5-0.6,0.5-1.7-0.7-1.1c-1.2,0.5-1.6,2-0.6,4.2L385.4,220.6L385.4,220.6z"/>
	<path style="fill:#E8E8E6;stroke:#000000;stroke-width:0.475;stroke-miterlimit:3.111;" d="M365.5,242.6l20.2-22.3l5,5.9
		c0,0-1-0.5-1.4-0.2c-0.3,0.3,0.4,1.4,0.4,1.4s-1-0.4-1.4-0.1c-0.5,0.3,0,1.6,0,1.6s-0.8-0.7-1.2-0.4c-0.3,0.3,0,1.7,0,1.7
		s-1.1-0.4-1.4-0.1c-0.3,0.3,0,1.6,0,1.6s-1.1-0.6-1.6,0c-0.5,0.6,0.3,1.4,0.3,1.4s-1.4-0.6-1.9,0.3c-0.3,0.5-0.3,1.2,0.1,1.7
		c0,0-1.1-0.6-1.4-0.3s0,1.7,0,1.7s-1-0.6-1.6,0.2c-0.4,0.4-0.3,1.1,0.1,1.5c0,0,0,0,0,0c0,0-0.9-0.6-1.4-0.3
		c-0.5,0.3,0.1,1.7,0.1,1.7s-0.9-0.7-1.5,0c-0.4,0.4-0.4,1.1,0,1.5c-0.4-0.5-1.1-0.5-1.5,0c-0.4,0.5-0.4,1.2,0,1.7l0,0
		c0,0-1.1-0.6-1.5,0c-0.5,0.6,0.1,1.4,0.1,1.4s-0.8-0.5-1.4-0.2c-0.5,0.3,0,1.7,0,1.7s-0.8-1-1.2-0.5c-0.4,0.5,0.1,1.8,0.1,1.8
		s-0.8-1-1.2-0.5c-0.5,0.5,0.3,1.6,0.3,1.6s-1.4-0.7-1-0.7L365.5,242.6z"/>
	<path style="fill:#4D4D4D;" d="M384.6,222.1l-1.6,1.7l0.3,6c0,0,0.3-1.7,0.8-0.5c0,0,0.1-1.4,0.5-1.2
		C384.4,228,384.6,222.1,384.6,222.1 M381.7,225.4l-1.2,1.2l0.4,6c0,0,0.3-2.3,0.8-0.5c0,0-0.1-1.5-0.1-2.1L381.7,225.4
		 M369.4,238.8l-1.1,1.3l0.3,3.6c0,0,0.3-2.4,0.8-0.5c0,0-0.1-1.5-0.1-2.1C369.3,241.6,369.4,238.8,369.4,238.8"/>
	<path style="fill:none;stroke:#4D4D4D;stroke-width:0.855;stroke-miterlimit:3.111;" d="M368.1,223.8c0.8,0.8,2.9,3.9,2.9,3.9
		 M369,225.5c-0.2,0.9-0.5,1.7-1,2.4 M369.3,225.8c-0.1,0.9-0.4,1.7-1,2.3 M369.7,226.2c-0.1,0.5-0.3,0.9-0.5,1.3 M369.9,226.7
		c0,0.4-0.2,0.5-0.3,0.7 M367.4,225.2c-1,0.9-2.2,1.6-3.4,2.2 M366.8,226.1c-0.7,0.7-1.4,1.2-2.2,1.7 M366.6,227
		c-0.5,0.5-1.1,0.9-1.6,1.3 M366.2,227.9c-0.3,0.4-0.6,0.7-1,0.9"/>
	<path style="fill:none;stroke:#4D4D4D;stroke-width:0.855;stroke-linecap:square;stroke-miterlimit:3.111;" d="M354.3,228.7
		c0.3-0.7,0.7-1.5,1.1-2.2c0.3-0.6,0.8-1.1,1.3-1.6"/>
	<path style="fill:#358B03;stroke:#006600;stroke-width:0.475;stroke-miterlimit:3.111;" d="M288.3,290c1,0.5,0-3.7,0.3-5.3
		c0.4-1.7,3.4,4.1,4.8,4.9c1.5,0.8,10.7-4,10.7-4l2.2-4.6l1.2,3.7c0,0,2.5-3.3,3.3-4.5c0.8-1.2,0,2.4-0.8,3.6
		c-0.8,1.2,2.2,1.7,1.8,4.1s2.9-1.7,2.9-1.7l8.5,0.8c0,0,1.4-5.7,3.7-9l0.7,3.6l3.5-3.9c3.9,11.4,12.1,23.8,28.9,30.5
		c15.8-6.4,23.9-17.7,28.2-28.5l4.7,5.4c1.5-0.5,2.9-1,4.4-1.7c0.8-0.4,8.7,3.1,8.7,3.1c0.8,0.3,1.5,0.7,2.2,1.2
		c0.8,0.6,0.2-2.7,0.2-2.7s4,0.8,3.7,3.3c0,0,0.9-2.3,1.6-2.7c0.8-0.4,2.5,2.1,2.9,2.9c0.3,0.8,9,2,10.3,2.8c0.5,0.6,0.8,1.3,1,2.1
		c0,0,1.8-0.2,3.3-0.2c-0.6,0.4-1.1,1.1-1.1,1.9c0,1.2-0.6,2.3-1.6,2.8c-1.1,0.6,0,1.1,1.4,1.2c1.5,0.2,0,2.3-2.9,3.5
		c0,0-0.7,1.8,0.5,2.4c0,0-2.5,0.2-2.9-0.6c-0.4,0.9-0.7,1.9-0.9,2.9c0,0-2.7-1-3.5-1.4c0,0-1.1,1.2-0.3,1.8c0,0-5-0.6-5.9-2.7
		c0,0-1.8,0.6-1.4,1.3c0,0-3.5-2.7-4.6-2.7l-0.8,1.4c0,0-2.4-1.6-3.1-1.6c-0.7,0-0.1,1.2-0.1,1.2l-3.3-2.3l-1.3,2.3
		c-1.2-0.6-2.4-1.3-3.5-2.1c-0.7-0.6-0.9,1.2-1.4,1.4c0,0-1.1-1.7-2.6-1.4c0,0-0.5,2-0.3,2.7c0,0-4.2-1-5-1.2c-0.8-0.2-0.3,1,0,1.8
		c0,0-3.1-1-3.8-1.6l-0.2,1.6c0,0-2.6-0.2-3.1-0.8l-1.6,2.5h-2.4l-0.5,2.2c0,0-4.1-1.7-4.5-0.5c-0.2,0.6-0.3,1.3-0.3,2l-3.4-0.3
		l-1,2c0,0-4.6-1.9-5.7-1.2c-1,0.7-2,1.4-3.1,1.9c-0.9-1.1-2-1.9-3.3-2.3c-1.2-0.2-3.8,1.6-4.8,1c0,0,0-1.4-0.8-1.8
		c-0.9-0.5-1.9-0.2-2.5,0.6c0,0-0.5-0.8-1.5-2.4c-0.9-1.7-2.2,0.2-2.2,0.2l-0.2-2l-2.5-0.2c-0.9-0.1-1.6-0.8-1.8-1.7
		c0,0-3.9,0.5-4.4,0.2l1-1c0,0-5.3,1.2-6.4,0.8c-1.2-0.4,1.2-2.1,1.2-2.1s-4.9-1.4-5.9-1.6c-0.9-0.2-6.2,1-7,1
		c-0.8,0-1.1-1.4-1.1-1.4c-0.7,0.7-1.5,1.2-2.4,1.6c0,0-0.9-2.4-0.3-2.7c0,0-3.5,1.1-3.7,2.1c0,0-0.9-1.6-0.8-2.3
		c0,0-1.6,2.9-2.4,3.5c-0.8,0.6-0.1-1.4-0.1-1.4s-2,2.9-2.8,3.1V303c0,0-5.9,3.5-7.5,3c0,0,0-1.4,0.5-1.8l-3.7-0.2
		c-0.9-0.2-2-0.6-2.9-0.8c-0.9-0.2,1.3-1.2,2.8-0.8c0,0-4.1-1.7-5.3-0.8c0,0-0.5-1.7,1.6-2.3c0,0-2.8-3-4.4-2.8c0,0,1.8-1.2,3.4-0.6
		c0,0-1.7-5.2-2.8-5.8C283.4,290.1,287.2,289.4,288.3,290L288.3,290z"/>
	<path style="fill:#D67C59;stroke:#000000;stroke-width:0.475;stroke-miterlimit:3.111;" d="M282.7,200.9l49.8-28.6
		c0.2-1.5-0.5-2.6-1.3-3.8c-14.2,7.8-27.2,17.2-43,22.9c-0.9,0.4-8.8,4-12.8,9.4c-0.8,1-1.3,2.2-1.4,3.5c0,0,0.1,2.4,0.6,3.1
		c0.1,0.5,0.4,0.9,0.9,1.2c0.2,0.1,0.5,0.2,0.8,0.1c0.4,0.1,0.9,0.1,1.8-1.5C279.3,204.8,280.9,202.8,282.7,200.9L282.7,200.9z"/>
	<path style="fill:#E8E8E6;stroke:#000000;stroke-width:0.475;stroke-miterlimit:3.111;" d="M322.7,172.5l6.4-3.4c0,0,2.2,1.8,2,3.9
		c0,0,0.5,4.7,5.7,8c-3.1,3.9-7.5,6.3-12.2,6.7c0,0,0.9-8.1-0.7-10.5c0,0-0.3,0.3-0.2-0.1c0.2-0.8-0.2-3.5-1.2-4.1
		C322.5,172.9,322.7,172.7,322.7,172.5L322.7,172.5z"/>
	<path style="fill:none;stroke:#4D4B4D;stroke-width:0.76;stroke-miterlimit:3.111;" d="M330.2,173.5c-1.4,0.6-5.8,3.2-5.8,3.2
		 M328.1,175c-0.1,0.8-0.5,2.6,0,3.9 M327.5,175.3c-0.3,1.2-0.3,2.4,0.1,3.6 M326.8,175.6c-0.2,0.7-0.2,1.4,0,2.1 M326.3,176.1
		c-0.1,0.3-0.1,0.7,0,1 M330.3,175.9c0.9,1.8,1.9,3.5,3.1,5.1 M330.6,177.3c0.5,1.3,1.2,2.5,2,3.6 M330.5,178.6c0.3,1,0.8,2,1.4,2.9
		 M330.5,180.1c0.1,0.7,0.4,1.3,0.8,1.9"/>
	<path style="fill:#D67C59;stroke:#000000;stroke-width:0.475;stroke-miterlimit:6.667;" d="M375,159.1c-0.9,0.1-1.7,0.8-2.7,2.6
		c-1.6,3.4-1.2,5.3,3.7,7.6l0,0l18.3,9.9c3.7,2,5,0.1,7.1,1.1l36.1,20.4c3.1,1.5,4.8,2,4.4,3.8c-0.1,2.3,0.7,2.6,1.2,2.7
		c0.8,0.4,1.4,0.6,1.5-0.4c0.1-0.2-0.1-0.5-0.3-0.9c-0.3-0.4-0.4-1-0.4-1.5c0-0.4,0.1-0.8,0.3-1.2c0.3-0.5,0.7-1,1.1-1.4
		c0.2-0.3,0.5-0.5,0.8-0.6c0.3,0,0.5,0.1,0.8,0.2c0.3,0.2,0.6,0.5,0.9,0.7c1.2-0.1,0.1-2-0.7-2.7c-1.8-0.9-2,1.2-3.9,1
		c-1.6-0.7-3.2-1.5-4.7-2.4c-2.3-1.4-5.4-3-6.2-3.9c-2.3-0.5-19.6-11.3-29.5-16.8c-1.1-1-1.6-4.6-3.7-5.8c-0.6-1-13.9-7.7-20.9-11.6
		C376.9,159.5,375.9,159,375,159.1L375,159.1z"/>
	<path style="fill:#AD7C59;fill-opacity:0.99;stroke:#000000;stroke-width:0.475;stroke-miterlimit:3.733;" d="M316.6,177.3
		c-0.1,0.5-0.5,0.2-0.5,0.3c-0.3,1.6-0.2,2.4-0.5,3.3c-0.5,0.8-1.3,1.5-2.1,2c-1.4,0.5-3,2.3-5.7,0.6c-0.2-0.1-0.3-0.2-0.4-0.4
		c0.4,1.9-0.4,3.8-2,4.6c-1,0.5-10.6,6.2-10.6,6.2c-0.6,1.5-0.8,3.2-0.3,4.9c0.1,0.5,0.2,0.8-0.2,1.1c-1.2,1.2-2,2.8-2.5,4.5
		c0,0-2.1-1-2.1-2.4c0-1.4,0.8-2.2,1-3.3c0.2-1,0.8-3.5,0.5-4.3c-0.3-0.8-1.5-1.1-2-1.4c-0.4-0.3-1,0.3-0.9,1
		c0.1,0.8,0.5,0.6,1.1,0.8c-0.3,0.8-0.5,1.6-0.5,2.5l-6.2,3.6c0,0,0.8,1.2,1.1,1.7c0.3,0.5,0.9,7.6,2.7,10.9
		c1.8,3.3,2.5,2.4,2.9,2.9c0.3,0.4,0.9,1,1.4,1.4c0.5,0.4,2.6,0.6,3-0.7c0.4-1.3,1.1-2.3,2.1-3.1c1.3-1.1,4-4,4-5.3
		c0,0,1.6,5,1.4,9.2c3.6,0.8,7.2,1.3,10.9,1.4c5.1,0.1,7.7-1.1,7.7-1.1s0.7-4.8,0.4-5.7c0.4,1.4,0.8,2.8,1.4,4.2
		c0.7,1.3,1.4,3.9,2.9,4.1c1.3-0.1,2.3-1,2.8-2.3v-5h5.8c0-0.1,2.6,1.1,3.4,0.9c0.8-0.1,1.3-0.9,0.5-1.2l-0.3-0.2
		c0.6,0.1,1.2,0.2,1.7,0.5h2.9c0.1-0.1,0-0.3-0.1-0.4c-0.2-0.9-1.7-1.7-2.8-2.2c-1-0.5-2.1-0.8-3.1-1.1c-1.4-0.1-2.8,0-4.2,0.3
		c-1.3,0.1-2.6,0.5-3.9,1c-0.3,0.2-0.7,0.3-0.5-0.7c0.2-1.1,0.1-5.9-0.9-7.9c-0.6-1.2-0.8-2.6-0.5-3.9c0.1-2.2,0.1-4.4,0-6.6
		c-0.2-1.2-1.7-2.9-4.4-3.3c-2.6-0.4-4.8-2.7-4.9-4.6C316,181.9,316.1,179.6,316.6,177.3"/>
	<path style="fill:#B68A6A;stroke:#000000;stroke-width:0.475;stroke-miterlimit:3.733;" d="M305,168.7c-0.4,2.3-0.5,4.6-0.4,6.9
		c0.2,1.7,0.7,3.4,1.4,5c0.3,1.1,1,2.1,1.8,2.9c2.4,1.7,4.7-0.2,5.9-0.8c0.8-0.4,1.4-1,1.8-1.8c0.3-0.9,0.2-1.6,0.5-3.3
		c0.2-0.1,0.3-0.2,0.5-0.3c0.3-0.7,0.6-1.5,0.8-2.3c0.3-0.8-0.4-1.6-1.2-1.4c0.5-1.4,0.6-2.9,0.3-4.4c-0.1-0.5,0.3-1.7-0.4-1.4
		c-3.1,1.4-6.7,1.1-10,1.1c-0.3,0-0.5-0.6-0.9-0.5C305.1,168.3,305,168.6,305,168.7"/>
	<path style="stroke:#000000;stroke-width:0.475;stroke-miterlimit:3.733;" d="M304.7,170c-0.3-0.3-0.4-1,0-2.4
		c0.5-1.4,0-1.5,0.8-2.4c0.8-0.8,0.5-1.2,1-1.4c0.5-0.2,1.9-0.2,2.4-0.4c0.6-0.4,1.3-0.6,2-0.7c1.4-0.3,2.8-0.1,4,0.5
		c1,0.6,1.7,2.1,2.3,2.7c0.7,0.5,1.1,2.7,1,5.9c-0.2,3.2-0.8,2.6-0.8,2.6s-0.8-1.5-1.5-0.2c0-0.7,0-1.4,0.1-2.1
		c0.1-0.9-0.4-2.6,0.1-3.7c0,0-3.9,1.4-5.9,1.3c-2.1-0.2-4.9-0.7-5.1-1.2L304.7,170"/>
	<path style="fill:#FFFFFF;stroke:#FFFFFF;stroke-width:0.475;stroke-miterlimit:3.733;" d="M306.7,167.4c-0.2-0.5-1.2-2.1-0.4-2.7
		c0.8-0.5,0.3,2,1.3,2.6C307.5,167.3,307.2,168.4,306.7,167.4L306.7,167.4z"/>
	<path style="fill:none;stroke:#000000;stroke-width:0.475;stroke-miterlimit:3.733;" d="M308.9,173.6c-0.3,1.3-0.5,1.6-0.6,2.4
		 M315.4,177.2c0.1,0.5,0.3,0.2,0.6,0.3 M316.3,174.5c0.3-0.5,0.8-0.2,0.5,0.9"/>
	<path style="fill:none;stroke:#000000;stroke-width:0.475;stroke-miterlimit:3.733;" d="M305,171.8c0.6,0.2,1.2,0.5,1.8,0.8
		c1,0.5,0.4,2.1,0.1,3.2c-0.1,0.5-0.7,1.4-0.4,1.9c0.3,0.6,0.8,0.2,1.4,0.3c0-0.2,0.4-0.4,0.5-0.4c0.5-0.1,0.8,0.4,1.1,0.2
		c0.4-0.2,0.3-0.9,0.2-1.3 M309.7,173.1c0.1-0.3,0.7-0.6,1-0.7c1.4-0.3,2.5-0.5,3.6,0.4 M310.5,181.1c-1.2,0.3-2.4,0.5-3.5-0.2
		 M307,180.3c0.5-0.3,0.8-0.6,1.4-0.2c0.2-0.1,0.5-0.2,0.8-0.3c0.5,0,1,0.2,1.4,0.6 M306.9,180.6c1.2-0.2,2.4-0.2,3.6,0.1"/>
	<path style="fill:#FFFFFF;stroke:#000000;stroke-width:0.283;stroke-linecap:round;stroke-linejoin:round;" d="M304.9,173.6
		c0.5-0.1,1-0.7,2.1,0.2c0.8,0.5-1.2,1.1-0.9,1c-0.9,0.2-1.2-0.4-1.2-0.8C304.9,173.8,304.7,173.6,304.9,173.6L304.9,173.6z
		 M310.5,174.2c0.5-1.1,1.2-0.8,1.9-0.6c0.4,0.1,0.8,0.2,1.1,0.5c-0.8,0.2-0.5,0.2-1.1,0.5c-0.6,0.3-1.2,0.5-1.6,0.2
		c-0.1-0.2-0.5-0.4-0.5-0.7C310.4,174.1,310.4,174.2,310.5,174.2L310.5,174.2z"/>
	<path style="stroke:#000000;stroke-width:0.285;stroke-miterlimit:3.733;" d="M305.8,174.5c0.3,0,0.5-0.3,0.5-0.6
		c0.1-0.3-0.1-0.6-0.4-0.7c-0.3-0.1-0.6,0.1-0.6,0.5c0,0.1,0,0.1,0,0.2C305.3,174.2,305.5,174.5,305.8,174.5
		C305.8,174.5,305.8,174.5,305.8,174.5z M311.7,174.6c0.3,0,0.5-0.3,0.5-0.7c0-0.3-0.2-0.6-0.5-0.6c0,0,0,0,0,0
		c-0.3,0-0.5,0.2-0.5,0.5c0,0,0,0,0,0.1C311.1,174.3,311.3,174.6,311.7,174.6L311.7,174.6z"/>
	<g>
		<path style="fill:none;stroke:#000000;stroke-width:0.475;stroke-miterlimit:3.733;" d="M340.8,213.5c-0.3-0.5-0.7-0.8-1.2-1
			l-1.4-0.8c-0.5-0.3-1.2-0.4-1.6-0.7 M336.9,213.1c-0.2-0.2-0.3-0.2-0.5-0.4c-0.2-0.1-0.5-0.1-0.7-0.2c-0.1,0-0.1-0.2-0.1-0.2
			c-0.6-0.1-1.2-0.4-1.6-1 M291.8,204.4c0.6,0.5,2.1,1.7,2.3,3.9c0.1,0.8,0.4,1.6,0.7,2.3 M285.9,204.7c0.3,1.3,0.4,5.5,4,10
			 M286.6,198.8c-0.3,0.8-0.6,1.6,0.1,2.2 M296.4,209c0.8-1.9,3.1-1.7,3.1-3.6"/>
		<path style="fill:none;stroke:#000000;stroke-width:0.475;stroke-miterlimit:3.733;" d="M299.8,208.8c-0.2-2.1-0.6-3.3-0.3-6.5
			c0.2-2,0.2-4.1,0-6.1c0,0,1.1,5.8-2.5,7 M320.2,212.6c0-1.6,0.2-3.1,0.6-4.6c0.8-4.2-0.8-5.8-0.1-6.8c0.5-0.9,1.4-2.8,0.3-6.6
			c0,0,1.9,7.8-3,7.8c-5,0-4.8-2.1-4.8-2.1"/>
		<path style="fill:none;stroke:#000000;stroke-width:0.475;stroke-miterlimit:3.733;" d="M299.5,196.2c0,1.6,0,6.3,6.1,6.3
			c1.8,0,3.8-1.4,4.9-2.4 M312.1,198c-0.2-1.7-0.2-3.4-0.2-5.2 M302.7,190.3c2-0.3,4-0.5,6-0.5 M308.9,185.1
			c0.3,1.7-0.2,4.3,2.6,4.7 M314.5,184.5c-0.3,1.1-0.5,2.2-0.5,3.3 M314,189.8c1.2,0,3.3-0.8,6.1-0.2 M321.1,206.6
			c0.5,1.2,0.7,2.8,2.4,4.6 M302.1,202.8c0.1,1-1.2,4.3-0.2,6.9c1,2.7,0.7,5.8-0.8,8.3 M305.6,203.7c-0.5,1.2-1.5,2.4-1.7,3.5
			 M308.4,206c0,0.8-1.8,6.5-3.1,8.1c0,0,2.4,1.1,2,4.9 M312.2,203.4c0,1-0.1,1.2,0.6,1.8 M314.5,205.2c0.9,1.2,3.7,4.9,3.1,6.9
			 M312.6,207.2c0.2,2.2,0.1,4.5-0.4,6.7 M310.8,213.8c-1,0-1.9,0.9-2.1,2.1 M314.6,213.5c0.8-0.2,2.3,1.2,2.3,5.3 M327.4,211.2
			c-1.4,0.5-2.1,1.3-1.6,0.8c-0.5,0.4-0.9,0.8-1.4,1.1"/>
		<path style="stroke:#000000;stroke-width:0.285;stroke-miterlimit:3.733;" d="M303.2,201.8c0.4,0,0.7-0.3,0.8-0.7
			c0-0.3-0.3-0.6-0.8-0.6c-0.3-0.1-0.6,0.2-0.7,0.5c-0.1,0.4,0.2,0.7,0.5,0.8C303,201.9,303.1,201.9,303.2,201.8L303.2,201.8z
			 M318.7,202.1c0.4,0,0.7-0.3,0.7-0.7c0-0.4-0.3-0.6-0.7-0.6c-0.4,0-0.8,0.2-0.8,0.6C318,201.8,318.3,202.1,318.7,202.1
			L318.7,202.1z"/>
		<path style="fill:#E8E8E6;stroke:#000000;stroke-width:0.475;stroke-miterlimit:3.733;" d="M297,233.1c0.8-5.9,3.3-10.9,3.4-11.3
			c2.4,0.5,4.7,0.8,7.1,1.1c2.6,0.4,5.2,0.4,7.7,0.1c2-0.2,4.6-0.6,4.6-0.6c0.5,1.1,0.8,2.4,0.9,3.6c0.2,3.9,1.5,20.7,1.6,25.1
			c0,0,0.5,2.7,0.5,9.2c0,7.1,1.8,21.7,1.8,29.4l-1.8,0.4c0,0-9.7,0.8-9.7-0.6c0-1.6-0.5-20.2,0.9-31.5c-0.2-1.4-0.5-2.8-0.9-4.1
			c-0.5-1.8-2.9-7.5-2.9-8.7c0,0-3.8,12-4,14.1c-0.2,1.9-0.8,28.6-1.1,30.8c0,0-5.5,4.7-6.3,5.2c-0.8,0.4-6.1-2.5-6.2-3.3
			c-0.2-0.8,0.5-9.9,3.1-24.8c1-5.3,0.4-6.3,0.4-7.7S296.1,239,297,233.1L297,233.1z"/>
		<path style="fill:none;stroke:#000000;stroke-width:0.475;stroke-miterlimit:3.733;" d="M306.2,259.3c-0.3,1.7-1.2,3.2-2.4,4.3
			 M301.9,223.6c-0.2,1-1.5,5.5-4.8,8.1 M306.7,224.4c-0.8,2.7-3.7,16.9-4.2,33.9 M302.3,263.6c-0.1,1.6-0.9,13.4-1.1,15.5
			 M300.6,281.4c-1.2,4.5-1.8,9.2-1.8,13.9 M320.5,268.5c-0.1,1.4-0.7,11.7,2.4,20.9 M310.4,225.2c-0.2,1.7-0.5,12.5-0.5,13.3
			s1.1,2.1,1.6,2.3c0,0-1.1,0.4-1.3,4.5 M307.5,235.6c-0.5,2.9-1.2,5.7-2.1,8.4 M314.3,225c0,0,3.3,0.8,3.5,0c0,0,1.1,22,2.6,34.3
			 M312.8,227.8c0,1.4-0.4,12.3-0.4,12.3 M314.1,241.7c0,0,1.3,2,1,3 M303,223.8c1.1,0.4,2.1,0.6,2.1,0.6 M308.6,225.6
			c-0.2,1.1-0.3,2.3-0.4,3.4 M314.1,258.1c0.7,0.9,0.9,2.1,0.5,3.3"/>
		<path style="fill:#D67C59;stroke:#000000;stroke-width:0.475;stroke-miterlimit:3.733;" d="M299.9,221.6c0,0,0-2.4,0.8-3.6
			c0,0,2.3,0.5,5.6,0.9c3.3,0.4,6,0.7,8.5,0.4c1.7-0.2,3.3-0.6,5-1c0,0,0.7,3.6,0.3,4.1c-1.9,0.4-3.7,0.6-5.6,0.8
			c-3.2,0.1-6.5-0.1-9.7-0.6C302.6,222.2,300.6,221.8,299.9,221.6L299.9,221.6z"/>
		<path style="fill:#FFFFFF;stroke:#000000;stroke-width:0.475;stroke-miterlimit:3.733;" d="M302,221.9l0.4-3.6l0.7,0.1l-0.1,3.8
			L302,221.9z M316.8,218.9l0.1,4.1l0.8-0.2l-0.1-4.2L316.8,218.9z M306.3,218.9l-0.3,4h0.5l0.5-4H306.3z"/>
		<path style="fill:#653024;stroke:#000000;stroke-width:0.475;stroke-miterlimit:3.733;" d="M294.4,293.6c-0.3,1.3-0.6,2.7-0.7,4.1
			c0,0.4-0.3,2.4,0.7,2.5c0.8,0.1,1-2.1,1-2.1s-0.7,2.4,0.2,2.7c1.2,0.3,1.4-2.7,1.4-2.7c-0.1,0.8-1,3,0.2,3.2
			c1.2,0.2,1.6-2.9,1.6-2.9s-1,3.1,0.2,3.2c1.2,0.1,1.2-3,1.2-3s-0.6,3.7,1,3.4c0.9-0.2,1.1-1.4,1.3-2.2c0.3-1.1,0.9-2.6,0.1-4.9
			c-0.5-1.7-0.3-2.2-0.3-2.2s-1.9,1.6-3.4,2.7C298.1,295.8,294.4,293.5,294.4,293.6L294.4,293.6z M314.4,290.3
			c-0.3-0.2-0.3,1.4-0.4,2.1c-0.1,0.8,0.1,2.4,2.5,2.3c2.3-0.2,4.5-0.8,5.9-0.4c1.5,0.4,3.1,0.6,4.7,0.5c0.8,0,1.7-0.1,2.5-0.4
			c0.5-0.2,1.5,0.3,2,0.3c0.5,0,1.2-0.8,1.2-1.4c-0.1-1-0.9-1-2.1-1.1c-1.1-0.1-2.3-0.3-3.3-0.7c-1.2-0.6-2.5-1.2-3.8-1.5
			c0,0-3.3,0.2-4,0.2S314.8,290.5,314.4,290.3L314.4,290.3z"/>
	</g>
	<path style="fill:#AD7C59;stroke:#000000;stroke-width:0.475;stroke-linecap:round;stroke-linejoin:round;" d="M280.3,195.8
		c-0.3,0.2-0.8-1.5,0.3-2.2c0,0,0.3-1.4,1.4-1.6c0.5-0.8,1.3-1.2,2.2-1.2c0,0,1.5-1.1,2-1c0.9,0.4,1.6,1.2,2,2.1
		c0.1,0.6,0,1.3-0.3,1.8c-0.4,0.5-0.7-0.1-0.8-0.7c0.2,0.6-0.1,1.3-0.5,1.6c-0.8,0.5-0.8,0.2-0.8-0.5c0,0-0.2,1.2-0.8,1.4
		c-0.5,0.2-0.9-0.3-1.3-0.3c0,0,0.7,0.6,0.2,1.1c-0.4,0.3-1,0.3-1.4-0.1C282.1,195.8,281.7,194.9,280.3,195.8L280.3,195.8z"/>
	<path style="fill:#AD7C59;stroke:#000000;stroke-width:0.475;stroke-linecap:round;stroke-miterlimit:3.733;" d="M287,193
		c-0.4-1.3-1.5-2.2-2.7-2.1 M285.7,194.1c-0.2-0.3-0.3-0.6-0.5-0.9c-0.6-1.1-1.9-1.1-3-1.4 M283.9,195.2c-0.4-0.3-0.5-0.9-1-1.1
		c-0.7-0.4-1.4-0.6-2.2-0.5"/>
	<path style="fill:#653024;stroke:#000000;stroke-width:0.475;stroke-miterlimit:3.733;" d="M403.5,177.3c0.5-0.2,0.3,0.5,0.4,0.7
		c0.1,1,0.3,2,0.5,3c0.4,0.8,0.5,1.1,1.2,1.5c1.1,0.7,4.3,2.7,6.6,1.1c0.2-0.1,0.3-0.2,0.5-0.4c-0.4,1.9,0.4,3.8,2,4.6
		c0.9,0.5,10.5,6.2,10.5,6.2c0.6,1.5,0.8,3.2,0.4,4.9c-0.1,0.5-0.3,0.8,0.1,1.1c1.2,1.2,2.1,2.8,2.5,4.5c0,0,2-1,2-2.4
		s-0.8-2.2-1-3.3c-0.1-1-0.7-3.5-0.4-4.3c0.3-0.8,1.4-1.1,1.9-1.4c0.5-0.3,1,0.3,0.9,1c-0.1,0.8-0.5,0.6-1.1,0.8
		c0.4,0.8,0.6,1.6,0.5,2.5l6.3,3.6c0,0-0.8,1.2-1.1,1.7c-0.3,0.5-1,7.6-2.8,10.9c-1.8,3.3-2.5,2.4-2.8,2.9c-0.4,0.4-1,1-1.4,1.4
		c-0.4,0.4-2.5,0.6-3-0.7c-0.4-1.3-1.1-2.3-2.1-3.1c-1.3-1.1-4-4-4-5.3c0,0-1.6,5-1.4,9.2c-3.6,0.8-7.2,1.3-10.9,1.4
		c-5.1,0.1-7.7-1.1-7.7-1.1s-0.7-4.8-0.4-5.7c-0.4,1.4-0.8,2.8-1.4,4.2c-0.8,1.3-1.5,4-2.9,4.1c-1.5,0.1-2.7-1.6-2.9-2.3v-5h-5.8
		c0-0.1-2.5,1.1-3.4,0.9c-0.8-0.1-1.2-0.9-0.5-1.2l0.3-0.2c-0.6,0.1-1.2,0.2-1.7,0.5h-2.9c0-0.1,0.1-0.3,0.1-0.4
		c0.2-0.9,1.7-1.7,2.9-2.2c1-0.5,2-0.8,3.1-1.1c1.4-0.1,2.8,0,4.2,0.3c1.3,0.1,2.6,0.4,3.9,1c0.3,0.2,0.8,0.3,0.5-0.7
		c-0.2-1.1-0.8-4.2,0.2-6.2c0.5-1.2,0.7-2.6,0.5-3.9c-0.1-1.3-0.8-4.2-0.8-5.5c0-4.3,2.9-6,5.5-6.9c2.9-1,4.8-2.1,4.6-3.9
		C403.3,182.1,403.8,178.8,403.5,177.3"/>
	<path style="fill:#653024;stroke:#000000;stroke-width:0.475;stroke-miterlimit:3.733;" d="M415.1,168.7c0.6,2.5,0.8,3.1,0.8,3.9
		c0,0.9-0.3,1.1-0.1,2.1c0.5,1.8-0.5,3.8-1.6,5.9c-0.5,1-1,2.3-1.8,2.9c-2.3,1.6-5-0.3-6.4-1c-0.6-0.3-1.1-0.9-1.4-1.6
		c-0.2-1-0.4-2-0.5-3c0-0.2,0.1-0.9-0.4-0.7c-0.8-1.1-0.7-1.5-1-2.3c-0.3-0.8,0.6-1.6,1.4-1.4c-0.5-1.4-0.5-3-0.2-4.4
		c0.1-0.5-0.3-1.7,0.3-1.4c3.1,1.4,6.7,1.1,10,1.1c0.3,0,0.5-0.6,0.9-0.5C415,168.3,415,168.6,415.1,168.7"/>
	<path style="stroke:#000000;stroke-width:0.475;stroke-miterlimit:3.733;" d="M415.4,170c0.3-0.3,0.1-1.7-0.2-3.3
		c-0.1-0.8-0.7-1.1-1.4-1.9c-0.4-0.5-0.9-0.9-1.5-1.1c-0.4-0.2-1.4-0.2-1.8-0.4c-0.4-0.2-1.5-0.1-2.5,0.1c-1.4,0.2-2.1,0.2-3.1,0.8
		c-1,0.5-1.8,1.3-2.2,2.4c-0.3,0.8-0.8,1.9-0.5,5.1c0.1,3.2,0.7,2.6,0.7,2.6s0.8-1.2,1.2-0.5c0,0-0.1-1.7-0.2-2.7
		c-0.1-1.2,0-2.3,0.3-3.4c2,0.8,4,1.2,6.1,1.3c2.1,0,4.7-0.2,4.8-0.8L415.4,170L415.4,170z"/>
	<path style="fill:none;stroke:#000000;stroke-width:0.475;stroke-miterlimit:3.733;" d="M411.1,173.6c0.4,1.3,0.1,0.9,0.3,1.7
		 M404.5,176.8c0,0.6-0.4,0.5-0.7,0.5"/>
	<path style="fill:none;stroke:#000000;stroke-width:0.475;stroke-miterlimit:3.733;" d="M415.4,172.6c-0.6-0.5-1.8-0.2-2.3,0.1
		c-1,0.5-0.5,1.7-0.1,2.7c0.1,0.5,0.7,1.3,0.3,1.8c-0.3,0.6-0.5,0.3-1.1,0.4c0.1-0.2-0.5,0-0.8,0c-0.4-0.1-0.6,0.3-1,0.2
		c-0.4-0.2-0.3-0.9-0.2-1.3 M410.4,173.1c0-0.3-0.9-0.6-1.8-0.7c-1.5-0.1-1.6,0.1-2.8,1 M413.5,180.1c-0.3-0.5-0.7-0.7-1.4-0.3
		c0-0.2-1-0.3-1-0.3c-0.5,0-1,0.2-1.4,0.5 M413.3,180.5c-0.6-0.5-2.2-0.1-3.8-0.1 M409.7,181c1.1,0.5,2.4,0.5,3.5,0"/>
	<path style="fill:#FFFFFF;stroke:#000000;stroke-width:0.285;stroke-linecap:round;stroke-linejoin:round;" d="M415.2,173.6
		c-0.5-0.1-0.7-0.7-2.1,0.2c-0.8,0.5,1.2,1.1,1,1c0.5,0.2,1-0.1,1.1-0.6c0-0.1,0-0.1,0-0.2C415.2,173.8,415.3,173.6,415.2,173.6
		L415.2,173.6z M409.6,174.2c0-0.6-1.2-0.8-1.9-0.6c-0.4,0.1-0.7,0.2-1,0.5c0.7,0.2,0.5,0.2,1,0.5c0.6,0.3,0.8,0.6,1.6,0.2
		c0.3-0.1,0.5-0.4,0.5-0.7C409.7,174.1,409.6,174.2,409.6,174.2L409.6,174.2z"/>
	<path style="stroke:#000000;stroke-width:0.285;stroke-miterlimit:3.733;" d="M414.3,174.5c-0.3,0-0.5-0.3-0.5-0.6v0
		c0-0.3,0.2-0.6,0.5-0.7c0,0,0,0,0,0c0.3,0,0.5,0.3,0.5,0.7C414.8,174.2,414.6,174.5,414.3,174.5L414.3,174.5z M408.4,174.6
		c-0.3,0-0.5-0.3-0.5-0.7c0-0.3,0.2-0.6,0.5-0.6c0,0,0,0,0,0c0.3,0,0.5,0.2,0.5,0.5c0,0,0,0,0,0.1
		C409,174.3,408.8,174.6,408.4,174.6C408.4,174.6,408.4,174.6,408.4,174.6L408.4,174.6z"/>
	<g>
		<path style="fill:none;stroke:#000000;stroke-width:0.475;stroke-miterlimit:3.733;" d="M379.2,213.5c0.3-0.5,0.7-0.8,1.2-1
			l1.4-0.8c0.5-0.3,1.2-0.4,1.6-0.7 M383.1,213.1c0.2-0.2,0.3-0.2,0.5-0.4c0.2-0.1,0.5-0.1,0.7-0.2c0.1,0,0.1-0.2,0.1-0.2
			c0.6-0.1,1.2-0.4,1.6-1 M428.3,204.4c-0.6,0.5-2.1,1.7-2.3,3.9c-0.1,0.8-0.4,1.6-0.7,2.3 M434.2,204.7c-0.3,1.3-0.4,5.5-4,10
			 M433.5,198.8c0.3,0.8,0.6,1.6-0.1,2.2 M423.7,209c-0.8-1.9-3.1-1.7-3.1-3.6"/>
		<path style="fill:none;stroke:#000000;stroke-width:0.475;stroke-miterlimit:3.733;" d="M420.2,208.8c0.2-2.1,0.6-3.3,0.3-6.5
			c-0.2-2-0.2-4.1,0-6.1c0,0-1.1,5.8,2.5,7 M399.9,212.6c0-1.6-0.2-3.1-0.6-4.6c-0.8-4.2,0.8-5.8,0.1-6.8c-0.5-0.9-1.4-2.8-0.3-6.6
			c0,0-1.9,7.8,3,7.8c5,0,4.8-2.1,4.8-2.1"/>
		<path style="fill:none;stroke:#000000;stroke-width:0.475;stroke-miterlimit:3.733;" d="M420.5,196.2c0,1.6,0,6.3-6.1,6.3
			c-1.8,0-3.8-1.4-4.9-2.4 M408,198c0.2-1.7,0.2-3.4,0.2-5.2 M417.4,190.3c-2-0.3-4-0.5-6-0.5 M411.2,185.1
			c-0.3,1.7,0.2,4.3-2.6,4.7 M405.6,184.5c0.3,1.1,0.5,2.2,0.5,3.3 M406,189.8c-1.2,0-3.3-0.8-6.1-0.2 M399,206.6
			c-0.5,1.2-0.7,2.8-2.4,4.6 M417.9,202.8c-0.1,1,1.2,4.3,0.2,6.9c-1,2.7-0.7,5.8,0.8,8.3 M414.4,203.7c0.5,1.2,1.5,2.4,1.7,3.5
			 M411.7,206c0,0.8,1.8,6.5,3.1,8.1c0,0-2.4,1.1-2,4.9 M407.9,203.4c0,1,0.1,1.2-0.6,1.8 M405.6,205.2c-0.9,1.2-3.7,4.9-3.1,6.9
			 M407.5,207.2c-0.2,2.2-0.1,4.5,0.4,6.7 M409.3,213.8c1,0,1.9,0.9,2.1,2.1 M405.5,213.5c-0.8-0.2-2.3,1.2-2.3,5.3 M392.7,211.2
			c1.4,0.5,2.1,1.3,1.6,0.8c0.5,0.4,0.9,0.8,1.4,1.1"/>
		<path style="stroke:#000000;stroke-width:0.285;stroke-miterlimit:3.733;" d="M416.9,201.8c-0.4,0-0.7-0.3-0.8-0.7
			c0-0.3,0.3-0.6,0.8-0.6c0.3-0.1,0.6,0.2,0.7,0.5c0.1,0.4-0.2,0.7-0.5,0.8C417,201.9,417,201.9,416.9,201.8L416.9,201.8z
			 M401.4,202.1c-0.4,0-0.7-0.3-0.7-0.7c0-0.4,0.3-0.6,0.7-0.6c0.4,0,0.8,0.2,0.8,0.6C402.1,201.8,401.7,202.1,401.4,202.1
			L401.4,202.1z"/>
		<path style="fill:#E8E8E6;stroke:#000000;stroke-width:0.475;stroke-miterlimit:3.733;" d="M423.1,233.1
			c-0.8-5.9-3.4-10.9-3.4-11.3c-2.4,0.5-4.7,0.8-7.1,1.1c-2.6,0.4-5.2,0.4-7.7,0.1c-2-0.2-4.6-0.6-4.6-0.6c-0.5,1.1-0.8,2.4-0.9,3.6
			c-0.2,3.9-1.5,20.7-1.6,25.1c0,0-0.5,2.7-0.5,9.2c0,7.1-1.8,21.7-1.8,29.4l1.8,0.4c0,0,9.7,0.8,9.7-0.6c0-1.6,0.5-20.2-0.9-31.5
			c0.2-1.4,0.5-2.8,0.9-4.1c0.5-1.8,2.9-7.5,2.9-8.7c0,0,3.8,12,4,14.1c0.2,1.9,0.8,28.6,1.1,30.8c0,0,5.5,4.7,6.3,5.2
			c0.8,0.4,6.1-2.5,6.2-3.3c0.2-0.8-0.5-9.9-3.1-24.8c-1-5.3-0.4-6.3-0.4-7.7S423.9,239,423.1,233.1L423.1,233.1z"/>
		<path style="fill:none;stroke:#000000;stroke-width:0.475;stroke-miterlimit:3.733;" d="M413.9,259.3c0.3,1.7,1.2,3.2,2.4,4.3
			 M418.1,223.6c0.2,1,1.5,5.5,4.8,8.1 M413.3,224.4c0.8,2.7,3.7,16.9,4.2,33.9 M417.8,263.6c0.1,1.6,0.9,13.4,1.1,15.5
			 M419.4,281.4c1.2,4.5,1.8,9.2,1.8,13.9 M399.6,268.5c0.1,1.4,0.7,11.7-2.4,20.9 M409.6,225.2c0.2,1.7,0.5,12.5,0.5,13.3
			c0,0.8-1.1,2.1-1.6,2.3c0,0,1.1,0.4,1.3,4.5 M412.6,235.6c0.5,2.9,1.2,5.7,2.1,8.4 M405.8,225c0,0-3.3,0.8-3.5,0
			c0,0-1.1,22-2.6,34.3 M407.2,227.8c0,1.4,0.4,12.3,0.4,12.3 M406,241.7c0,0-1.3,2.1-1,3 M417,223.8c-1.1,0.4-2.1,0.6-2.1,0.6
			 M411.5,225.6c0.2,1.1,0.3,2.3,0.4,3.4 M406,258.1c-0.7,0.9-0.9,2.1-0.5,3.3"/>
		<path style="fill:#D67C59;stroke:#000000;stroke-width:0.475;stroke-miterlimit:3.733;" d="M420.2,221.6c0,0,0-2.4-0.8-3.6
			c0,0-2.3,0.5-5.6,0.9c-3.3,0.4-6,0.7-8.5,0.4c-1.7-0.2-3.3-0.6-5-1c0,0-0.7,3.6-0.3,4.1c1.9,0.4,3.7,0.6,5.6,0.8
			c3.2,0.1,6.5-0.1,9.7-0.6C417.5,222.2,419.5,221.8,420.2,221.6L420.2,221.6z"/>
		<path style="fill:#FFFFFF;stroke:#000000;stroke-width:0.475;stroke-miterlimit:3.733;" d="M418.1,221.9l-0.4-3.6l-0.7,0.1
			l0.1,3.8L418.1,221.9z M403.2,218.9l-0.1,4.1l-0.8-0.2l0.1-4.2L403.2,218.9z M413.8,218.9l0.3,4h-0.5l-0.5-4H413.8z"/>
		<path style="fill:#653024;stroke:#000000;stroke-width:0.475;stroke-miterlimit:3.733;" d="M425.6,293.5c0.3,1.3,0.6,2.7,0.7,4.1
			c0,0.4,0.3,2.4-0.7,2.5c-0.8,0.1-1-2.1-1-2.1s0.7,2.4-0.2,2.7c-1.2,0.3-1.4-2.7-1.4-2.7c0.1,0.8,1,3-0.2,3.2
			c-1.2,0.2-1.6-2.9-1.6-2.9s1,3.1-0.2,3.2c-1.2,0.1-1.2-3-1.2-3s0.6,3.7-1,3.4c-0.9-0.2-1.1-1.4-1.3-2.2c-0.3-1.1-0.9-2.6-0.1-4.9
			c0.5-1.7,0.3-2.2,0.3-2.2s1.9,1.6,3.4,2.7C422,295.7,425.6,293.5,425.6,293.5L425.6,293.5z M405.7,290.3c0.3-0.2,0.3,1.4,0.4,2.1
			c0.1,0.8-0.1,2.4-2.5,2.3c-2.3-0.2-4.5-0.8-5.9-0.4c-1.5,0.4-3.1,0.6-4.7,0.5c-0.8,0-1.7-0.1-2.5-0.4c-0.5-0.2-1.5,0.3-2,0.3
			s-1.2-0.8-1.2-1.4c0.1-1,0.9-1,2.1-1.1c1.1-0.1,2.3-0.3,3.3-0.7c1.2-0.6,2.5-1.2,3.8-1.5c0,0,3.3,0.2,4,0.2
			S405.3,290.5,405.7,290.3L405.7,290.3z"/>
	</g>
	<path style="fill:#653024;stroke:#000000;stroke-width:0.475;stroke-linecap:round;stroke-miterlimit:3.733;" d="M438.8,198.5
		c0.3,0.2,1.3-1.5,0.3-2.3c0,0-0.3-1.4-1.4-1.5c0,0-0.9-1.4-2.2-1.2c0,0-1.4-1.1-2-1.1c-0.9,0.5-1.6,1.2-2.1,2.2
		c-0.1,0.6,0,1.3,0.3,1.8c0.4,0.4,0.7-0.1,0.8-0.8c-0.2,0.6,0.1,1.3,0.5,1.7c0.8,0.5,0.8,0.1,0.8-0.5c0,0,0.2,1.2,0.8,1.4
		c0.5,0.2,0.9-0.3,1.3-0.3c0,0-0.7,0.6-0.2,1c0.4,0.4,1,0.3,1.4-0.1C437.6,198.6,437.4,197.6,438.8,198.5L438.8,198.5z"/>
	<path style="fill:#653024;stroke:#000000;stroke-width:0.475;stroke-linecap:round;stroke-linejoin:round;" d="M432.7,195.7
		c0.3-1.4,1.5-2.3,2.7-2.1 M434,196.8c0.1-0.3,0.2-0.6,0.4-0.9c0.6-1.1,2-1.1,3.1-1.4 M435.7,197.9c0.4-0.3,0.5-0.8,1-1.1
		c0.7-0.4,1.4-0.6,2.2-0.5"/>
	<path style="fill:#653024;" d="M432.5,193.5c-0.5,0.4-1,1-1.3,1.7c-0.1,0.6,0,1.3,0.3,1.8c0.4,0.3,0.6,0,0.7-0.6
		c-0.1,0.6,0.1,1.2,0.6,1.5c0.8,0.5,0.8,0.1,0.8-0.5c0,0,0.2,1.2,0.8,1.4c0.5,0.2,0.9-0.3,1.3-0.3c0,0-0.7,0.6-0.2,1
		c0.4,0.4,1,0.3,1.4-0.1c0.4-0.3,0.2-1.3,1.6-0.4c0.2,0.1,0.5-0.3,0.7-0.9l-5.2-4.1L432.5,193.5z"/>
	<path style="fill:#653024;stroke:#000000;stroke-width:0.475;stroke-miterlimit:3.733;" d="M431.4,194.5c-1,1.9,0.3,3.1,0.8,2
		c-0.1,1.8,1.1,1.7,1.5,1.1c0.4,1.9,1.2,1,2,0.9c-0.8,1.7,1,1.2,1.4,0.8c0.6-1,0.9-0.2,1.4-0.3l0.8-0.9 M433.9,193.8
		c-1,0.5-1.7,1.6-1.7,2.8 M435.5,194.9c-1,0.5-1.7,1.6-1.7,2.8 M437.4,196.4c-1.1,0.7-1.2,1.3-1.7,2.1"/>
	<path style="fill:#FFE682;" d="M360.1,335.5c15.4,0.2,24.5-6.1,29.5-9.8c11.7-8.7,14.2-9,16.1-8.9c2.2,0.2,5.4,1.1,5.5,3.2
		c0.2,3.3-4.6,4.7-7.3,4.7c-2.8,0-10.1-2.1-10.1-2.1l-1.9,1.4c1.3,0.7,16.3,6.2,19.1,1c2.9-5.3,5.9-13.9,5.9-13.9
		c-2.3-4.1-6.3-6.5-10.6-6.5c-7.4,0-14.6,5.2-19.3,9c-4.8,3.9-10.8,9.2-26.8,9.2s-22.1-5.3-26.9-9.2c-4.8-3.9-12-9-19.3-9
		c-4.3,0-8.4,2.5-10.7,6.5c0,0,2.9,8.6,5.9,13.9c2.9,5.2,17.8-0.3,19.1-1l-1.8-1.4c0,0-7.4,2.1-10.1,2.1c-2.8,0-7.6-1.4-7.4-4.7
		c0.1-2.1,3.3-3,5.5-3.2c1.9-0.1,4.4,0.2,16.1,8.9C335.5,329.4,344.6,335.4,360.1,335.5"/>
	<path style="fill:#FFE682;" d="M335.3,315.4c0,0,0-1.4-0.2-3.6c-0.3-2.7-1.7-3.4-2.9-3c-0.8,0.3-2.3,2.4-2.3,2.4v0.1
		c-0.7-0.5-1.4-1-2.1-1.4c0.5-0.7,3.7-2.8,4.4-2.8c0.7,0,10.1,4.3,13.1,7.1c0.8,0.8,1.3,5.5,0.9,7
		C342.4,320,338.6,318.1,335.3,315.4L335.3,315.4 M330.8,326c-1.4,1.8-2.1,4.1-2.1,6.5c-0.1,4.9,3.1,5.2,5.3,5.1
		c2.5-0.1,4.6-1.7,4.5-6.9C335.8,329.3,333.2,327.8,330.8,326 M384.7,315.4c0,0,0.1-1.4,0.3-3.6c0.3-2.7,1.6-3.4,2.8-3
		c0.8,0.3,2.3,2.4,2.3,2.4v0.1c0.7-0.5,1.4-1,2.1-1.4c-0.5-0.7-3.7-2.8-4.4-2.8c-0.8,0-10.2,4.3-13.2,7.1c-0.7,0.8-1.2,5.5-0.9,7
		C377.7,320,381.4,318.1,384.7,315.4L384.7,315.4 M389.2,326c1.4,1.8,2.1,4.1,2.1,6.5c0.1,4.9-3.1,5.2-5.3,5.1
		c-2.5-0.1-4.5-1.7-4.5-6.9C384.3,329.3,386.8,327.8,389.2,326"/>
	<path style="fill:#171696;" d="M326.3,322.6c0,0-7.3,2.1-10,2.1c-2.8,0-7.6-1.4-7.4-4.7c0.1-2.1,3.4-3,5.5-3.2
		C316.1,316.6,318.2,316.9,326.3,322.6 M393.7,322.6c0,0,7.3,2.1,10.1,2.1c2.7,0,7.5-1.4,7.3-4.7c-0.1-2.1-3.3-3-5.5-3.2
		C404,316.6,401.8,316.9,393.7,322.6 M335.3,315.4c-0.7-0.6-1.5-1.2-2.2-1.8c-1-0.8-2.1-1.6-3.1-2.4c0,0,1.5-2.1,2.3-2.4
		c1.2-0.5,2.6,0.2,2.9,3C335.3,313.9,335.3,315.4,335.3,315.4 M330.3,336.9c1.1,0.6,2.4,0.9,3.6,0.7c2.5-0.1,4.6-1.7,4.5-6.9
		c2.7,1.4,5.4,2.4,8.3,3.1c0.6,1,0.9,2.2,1,3.4c0.2,1.9-1,3.9-2.3,3.8c0,0-7.2-1.4-11.6-2.3C331.3,338.2,330.3,336.9,330.3,336.9
		 M384.7,315.4l2.3-1.8c1-0.8,2-1.6,3.1-2.4c0,0-1.5-2.1-2.3-2.4c-1.2-0.5-2.5,0.2-2.8,3C384.8,313.9,384.7,315.4,384.7,315.4
		 M389.7,336.9c-1.1,0.6-2.4,0.9-3.6,0.7c-2.5-0.1-4.5-1.7-4.5-6.9c-2.6,1.3-5.4,2.4-8.2,3.1c-0.6,1-1,2.2-1,3.4
		c-0.1,1.9,1,3.9,2.3,3.8c0,0,7.2-1.4,11.6-2.3C388.8,338.1,389.7,336.9,389.7,336.9"/>
	<path style="fill:none;stroke:#000000;stroke-width:0.665;stroke-miterlimit:3.111;" d="M360.1,335.5c15.4,0.2,24.5-6.1,29.5-9.8
		c11.7-8.7,14.2-9,16.1-8.9c2.2,0.2,5.4,1.1,5.5,3.2c0.2,3.3-4.6,4.7-7.3,4.7c-2.8,0-10.1-2-10.1-2l-1.9,1.4
		c1.3,0.7,16.3,6.2,19.1,1c2.9-5.3,5.9-13.9,5.9-13.9c-2.3-4.1-6.3-6.5-10.6-6.5c-7.4,0-14.6,5.2-19.3,9c-4.8,3.9-10.8,9.2-26.8,9.2
		c-16,0-22.1-5.3-26.9-9.2s-12-9-19.3-9c-4.3,0-8.4,2.5-10.7,6.5c0,0,2.9,8.6,5.9,13.9c2.9,5.2,17.8-0.3,19.1-1l-1.8-1.4
		c0,0-7.4,2-10.1,2c-2.8,0-7.6-1.4-7.4-4.7c0.1-2.1,3.3-3,5.5-3.2c1.9-0.2,4.4,0.2,16.1,8.9C335.5,329.4,344.6,335.4,360.1,335.5
		L360.1,335.5z"/>
	<path style="fill:none;stroke:#000000;stroke-width:0.665;stroke-miterlimit:3.111;" d="M326.3,322.6c0,0-7.3,2.1-10,2.1
		c-2.8,0-7.6-1.4-7.4-4.7c0.1-2.1,3.4-3,5.5-3.2C316.1,316.6,318.2,316.9,326.3,322.6L326.3,322.6z M393.7,322.6
		c0,0,7.3,2.1,10.1,2.1c2.7,0,7.5-1.4,7.3-4.7c-0.1-2.1-3.3-3-5.5-3.2C403.9,316.6,401.8,316.9,393.7,322.6L393.7,322.6z
		 M335.3,315.4c-0.7-0.6-1.5-1.2-2.2-1.8c-1-0.8-2-1.6-3.1-2.4c0,0,1.5-2.1,2.3-2.4c1.2-0.5,2.6,0.2,2.9,3
		C335.3,313.9,335.3,315.4,335.3,315.4L335.3,315.4z"/>
	<path style="fill:none;stroke:#000000;stroke-width:0.665;stroke-miterlimit:3.111;" d="M335.3,315.4c0,0,0-1.4-0.2-3.6
		c-0.3-2.7-1.7-3.4-2.9-3c-0.8,0.3-2.3,2.4-2.3,2.4v0.1c-0.7-0.5-1.4-1-2.1-1.4c0.5-0.7,3.7-2.8,4.4-2.8c0.7,0,10.1,4.3,13.1,7.1
		c0.8,0.8,1.3,5.5,0.9,7C342.4,320,338.6,318.1,335.3,315.4 M330.8,326c-1.4,1.8-2.1,4.1-2.1,6.5c-0.1,4.9,3.1,5.2,5.3,5.1
		c2.5-0.1,4.6-1.7,4.5-6.9C335.8,329.3,333.2,327.8,330.8,326L330.8,326z"/>
	<path style="fill:none;stroke:#000000;stroke-width:0.665;stroke-miterlimit:3.111;" d="M332.5,327.1c-1.1,1.4-1.8,3.2-1.9,5
		c-0.1,2.4,1.3,3.8,3.1,3.6c2.6-0.1,3.6-4.1,2.4-6.3L332.5,327.1z"/>
	<path style="fill:none;stroke:#000000;stroke-width:0.665;stroke-miterlimit:3.111;" d="M330.3,336.9c1.1,0.6,2.4,0.9,3.6,0.7
		c2.5-0.1,4.6-1.7,4.5-6.9c2.7,1.4,5.4,2.4,8.3,3.1c0.6,1,0.9,2.2,1,3.4c0.2,1.9-1,4-2.3,3.8c0,0-7.2-1.4-11.6-2.3
		C331.3,338.1,330.3,336.9,330.3,336.9L330.3,336.9z M384.7,315.4c0.8-0.6,1.5-1.2,2.3-1.8c1-0.8,2-1.6,3.1-2.4c0,0-1.5-2.1-2.3-2.4
		c-1.2-0.5-2.5,0.2-2.8,3C384.9,313,384.8,314.2,384.7,315.4L384.7,315.4L384.7,315.4z"/>
	<path style="fill:none;stroke:#000000;stroke-width:0.665;stroke-miterlimit:3.111;" d="M384.7,315.4c0,0,0.1-1.4,0.3-3.6
		c0.3-2.7,1.6-3.4,2.8-3c0.8,0.3,2.3,2.4,2.3,2.4v0.1c0.7-0.5,1.4-1,2.1-1.4c-0.5-0.7-3.7-2.8-4.4-2.8c-0.8,0-10.2,4.3-13.2,7.1
		c-0.7,0.8-1.2,5.5-0.9,7C377.7,320,381.4,318.1,384.7,315.4 M389.2,326c1.4,1.8,2.1,4.1,2.1,6.5c0.1,4.9-3.1,5.2-5.3,5.1
		c-2.5-0.1-4.5-1.7-4.5-6.9C384.3,329.3,386.8,327.8,389.2,326L389.2,326z"/>
	<path style="fill:none;stroke:#000000;stroke-width:0.665;stroke-miterlimit:3.111;" d="M387.5,327.1c1.1,1.4,1.8,3.2,1.9,5
		c0.3,1.7-0.7,3.3-2.3,3.6c-0.3,0.1-0.6,0.1-0.9,0c-2.6-0.1-3.6-4.1-2.4-6.3L387.5,327.1z"/>
	<path style="fill:none;stroke:#000000;stroke-width:0.665;stroke-miterlimit:3.111;" d="M389.7,336.9c-1.1,0.6-2.4,0.9-3.6,0.7
		c-2.5-0.1-4.5-1.7-4.5-6.9c-2.6,1.3-5.4,2.4-8.2,3.1c-0.6,1-1,2.2-1,3.4c-0.1,1.9,1,4,2.3,3.8c0,0,7.2-1.4,11.6-2.3
		C388.8,338.1,389.7,336.9,389.7,336.9L389.7,336.9z"/>
	<path style="fill:none;stroke:#FFFFFF;stroke-width:0.664;stroke-miterlimit:3.111;" d="M346.2,335.1c0,0,2.3,1.8-0.5,4.1
		 M339.4,333.9l6.9,3.3 M340.6,335.6l5.1,2.4 M342.3,334.2l3.8,1.9 M373.9,335.1c0,0-2.3,1.8,0.4,4.1 M380.6,333.9l-6.9,3.3
		 M379.5,335.6l-5.1,2.4 M377.7,334.2l-3.8,1.9"/>
	<path style="stroke:#000000;stroke-width:0.653;stroke-miterlimit:3.111;" d="M319.1,311.7c0.1,0.2,0.2,0.4,0.2,0.5
		c0,0.2,0,0.4,0,0.6c-0.1,0.5-0.4,1-0.8,1.3c-0.5,0.3-1,0.4-1.5,0.3c-0.3-0.1-0.5-0.2-0.8-0.3c-0.2-0.1-0.4-0.3-0.6-0.5
		c-0.1,0.1-0.2,0.2-0.2,0.3l-0.3-0.1c0.1-0.7,0.2-1.5,0.3-2.2c0.1,0,0.2,0,0.3,0.1c0,0.3,0.1,0.5,0.1,0.8c0.1,0.2,0.1,0.5,0.3,0.7
		c0.1,0.2,0.3,0.4,0.4,0.5c0.3,0.3,0.7,0.4,1.1,0.3c0.1,0,0.3-0.1,0.4-0.2c0.1-0.1,0.2-0.2,0.3-0.3c0.1-0.1,0.1-0.3,0.1-0.4
		c0-0.3,0-0.5-0.1-0.8c-0.1-0.3-0.3-0.5-0.5-0.6c-0.2-0.1-0.4-0.3-0.6-0.4c-0.2-0.1-0.4-0.3-0.6-0.4c-0.3-0.2-0.5-0.5-0.7-0.8
		c-0.1-0.3-0.2-0.7-0.1-1.1c0-0.2,0.1-0.5,0.3-0.6c0.1-0.2,0.3-0.4,0.5-0.5c0.2-0.1,0.4-0.2,0.6-0.3c0.2,0,0.5,0,0.7,0
		c0.2,0,0.5,0.1,0.7,0.3c0.2,0.1,0.4,0.3,0.5,0.4l0.2-0.3c0.1,0,0.2,0,0.3,0.1l-0.3,2.1c-0.1,0-0.2,0-0.3-0.1c0-0.2,0-0.5-0.1-0.7
		c0-0.2-0.1-0.5-0.2-0.7c-0.1-0.2-0.2-0.4-0.4-0.5c-0.2-0.2-0.4-0.3-0.6-0.3c-0.2-0.1-0.5,0-0.7,0.1c-0.2,0.1-0.3,0.4-0.4,0.6
		c0,0.2,0,0.5,0.1,0.7c0.1,0.2,0.2,0.4,0.4,0.6c0.2,0.1,0.4,0.3,0.5,0.4c0.2,0.1,0.3,0.2,0.5,0.4c0.2,0.1,0.3,0.2,0.4,0.4
		C318.9,311.4,319.1,311.6,319.1,311.7 M327.5,313c-0.1-0.1-0.2-0.1-0.3-0.1c-0.1-0.1-0.3-0.1-0.4-0.1c-0.1,0-0.3,0.1-0.4,0.3
		c-0.2,0.2-0.3,0.4-0.4,0.7c-0.4,0.8-0.8,1.7-1.2,2.5c-0.1,0.3-0.3,0.5-0.6,0.7c-0.2,0.2-0.5,0.3-0.8,0.3c-0.3,0-0.5,0-0.8-0.1
		c-0.2-0.1-0.5-0.2-0.7-0.3c-0.3-0.2-0.5-0.4-0.8-0.6c-0.2-0.2-0.3-0.5-0.4-0.7c-0.1-0.2-0.1-0.5-0.1-0.8c0-0.2,0.1-0.5,0.2-0.7
		l1.7-3.4c0-0.1,0.1-0.2,0.1-0.3c0-0.1,0-0.2-0.1-0.3c-0.1-0.1-0.1-0.2-0.2-0.2c-0.1-0.1-0.1-0.1-0.2-0.2l0.1-0.3
		c0.7,0.4,1.4,0.9,2.2,1.3l-0.1,0.3c-0.1,0-0.2-0.1-0.3-0.1c-0.1,0-0.2-0.1-0.3-0.1c-0.1,0-0.2,0-0.2,0.1c-0.1,0.1-0.1,0.1-0.2,0.2
		c-0.5,1.1-1,2.1-1.6,3.2c-0.1,0.2-0.1,0.3-0.2,0.5c-0.1,0.2-0.1,0.4-0.1,0.6c0,0.2,0.1,0.4,0.2,0.6c0.2,0.2,0.4,0.4,0.6,0.6
		c0.2,0.2,0.5,0.2,0.7,0.3c0.2,0,0.4,0,0.6-0.1c0.2-0.1,0.3-0.2,0.4-0.3c0.1-0.1,0.2-0.3,0.3-0.4l1.2-2.3c0.1-0.2,0.2-0.5,0.3-0.8
		c0.1-0.2,0.1-0.3,0-0.5c-0.1-0.1-0.2-0.3-0.3-0.4c-0.1-0.1-0.2-0.2-0.3-0.3l0.1-0.3c0.7,0.4,1.4,0.9,2.1,1.3L327.5,313
		 M330.6,318.8c0.1,0.2,0.1,0.4,0.1,0.7c0,0.3-0.1,0.5-0.2,0.8c-0.1,0.2-0.3,0.4-0.5,0.6c-0.2,0.1-0.4,0.2-0.7,0.2
		c-0.2,0-0.5,0-0.7-0.1c-0.2-0.1-0.5-0.2-0.7-0.3l-2.4-1.6l0.1-0.3c0.1,0,0.1,0.1,0.3,0.1c0.1,0,0.2,0.1,0.3,0.1c0.1,0,0.2,0,0.2,0
		c0.1-0.1,0.1-0.1,0.2-0.2c0.7-1.4,1.4-2.7,2.1-4.1c0-0.1,0.1-0.2,0.1-0.3c0-0.1,0-0.2-0.1-0.3c-0.1-0.1-0.1-0.2-0.2-0.2
		c-0.1-0.1-0.1-0.1-0.2-0.2c0-0.1,0.1-0.2,0.1-0.3c0.8,0.5,1.6,1,2.4,1.5c0.2,0.1,0.3,0.2,0.5,0.4c0.1,0.2,0.3,0.3,0.4,0.5
		c0.1,0.2,0.2,0.4,0.2,0.6c0,0.2-0.1,0.5-0.2,0.7c-0.1,0.2-0.2,0.3-0.4,0.5c-0.1,0.1-0.3,0.2-0.5,0.2c-0.2,0-0.3,0-0.5,0
		c-0.2,0-0.4-0.1-0.6-0.1l0,0c0.2,0.1,0.3,0.3,0.4,0.4C330.3,318.4,330.5,318.6,330.6,318.8L330.6,318.8z M330.1,317.4
		c0.1-0.1,0.3-0.1,0.4-0.3c0.1-0.1,0.2-0.3,0.3-0.4c0.2-0.3,0.2-0.6,0.1-0.9c-0.1-0.3-0.3-0.6-0.6-0.7c-0.1,0-0.2-0.1-0.3-0.2
		c-0.1-0.1-0.2-0.1-0.3-0.2l-1.1,2.2l0.5,0.3c0.2,0.1,0.4,0.2,0.6,0.2C329.8,317.5,330,317.5,330.1,317.4L330.1,317.4z M329.7,319.6
		c0.2-0.3,0.2-0.7,0.1-1c-0.1-0.4-0.4-0.7-0.7-0.9c-0.1-0.1-0.3-0.2-0.4-0.2c-0.1-0.1-0.2-0.1-0.2-0.1c-0.3,0.7-0.7,1.3-1,2
		c-0.1,0.1-0.1,0.3,0,0.5c0.1,0.2,0.3,0.4,0.5,0.5c0.3,0.2,0.7,0.3,1,0.2C329.2,320.2,329.5,319.9,329.7,319.6L329.7,319.6z
		 M342.9,322.9c-0.1,0-0.2-0.1-0.3-0.1c-0.1,0-0.3,0-0.4,0c-0.1,0.1-0.3,0.2-0.3,0.3c-0.1,0.2-0.2,0.5-0.3,0.7l-1,2.6
		c-0.1,0.3-0.3,0.6-0.5,0.8c-0.2,0.2-0.5,0.3-0.7,0.4c-0.3,0.1-0.5,0.1-0.8,0c-0.2,0-0.5-0.1-0.7-0.2c-0.3-0.1-0.6-0.3-0.8-0.6
		c-0.2-0.2-0.4-0.4-0.5-0.7c-0.1-0.2-0.2-0.5-0.2-0.7c0-0.2,0-0.5,0.1-0.7l1.4-3.5c0-0.1,0.1-0.2,0.1-0.3c0-0.1-0.1-0.2-0.1-0.3
		c-0.1-0.1-0.1-0.2-0.2-0.2c-0.1-0.1-0.1-0.1-0.2-0.2l0.1-0.3l2.3,1.1c0,0.1-0.1,0.2-0.1,0.3c-0.1,0-0.2-0.1-0.3-0.1
		c-0.1,0-0.2,0-0.3-0.1c-0.1,0-0.2,0-0.2,0.1c-0.1,0.1-0.1,0.1-0.1,0.2l-1.3,3.3c-0.1,0.2-0.1,0.3-0.1,0.5c0,0.2,0,0.4,0,0.6
		c0,0.2,0.1,0.4,0.3,0.6c0.2,0.2,0.4,0.4,0.7,0.5c0.2,0.1,0.5,0.2,0.8,0.2c0.2,0,0.4-0.1,0.6-0.2c0.2-0.1,0.3-0.2,0.4-0.4
		c0.1-0.1,0.2-0.3,0.3-0.5l0.9-2.5c0.1-0.3,0.2-0.5,0.2-0.8c0-0.2,0-0.3,0-0.5c-0.1-0.1-0.2-0.3-0.3-0.3c-0.1-0.1-0.2-0.2-0.3-0.2
		l0.1-0.3l2.2,1.1C343,322.7,343,322.8,342.9,322.9 M349.4,331.3l-2.5-0.8l0.1-0.3c0.1,0,0.2,0.1,0.4,0.1c0.1,0,0.2,0,0.3,0
		c0.1,0,0.2-0.1,0.2-0.1c0.1-0.1,0.1-0.2,0.1-0.3l1.2-4.6c0,0,0,0-0.1,0c-1.1,1.6-2.2,3.1-3.3,4.7c-0.1,0-0.1,0-0.2-0.1
		c-0.1-2-0.3-4-0.4-6c0,0,0,0-0.1,0l-1,3.7c-0.1,0.3-0.1,0.6-0.2,0.8c0,0.2,0,0.3,0.1,0.5c0.1,0.1,0.2,0.2,0.3,0.3
		c0.1,0.1,0.2,0.1,0.3,0.2l-0.1,0.3l-2.3-0.7l0.1-0.3c0.1,0,0.3,0,0.4,0.1c0.1,0,0.2,0,0.3,0c0.1-0.1,0.2-0.2,0.3-0.3
		c0.1-0.3,0.2-0.5,0.3-0.8l0.8-3.2c0-0.2,0.1-0.3,0.1-0.5c0-0.1,0-0.2-0.1-0.3c-0.1-0.1-0.2-0.2-0.3-0.3c-0.1-0.1-0.2-0.1-0.3-0.2
		l0.1-0.3l1.9,0.6c0.1,1.7,0.3,3.5,0.4,5.2c0.8-1.2,1.6-2.3,2.4-3.5c0.1-0.1,0.2-0.3,0.3-0.4c0.1-0.1,0.1-0.2,0.1-0.3l1.9,0.6
		l-0.1,0.3c-0.1,0-0.2,0-0.3-0.1c-0.1,0-0.2,0-0.3,0c-0.1,0-0.2,0-0.2,0.1c-0.1,0.1-0.1,0.2-0.1,0.3l-1.2,4.5c0,0.1,0,0.2,0,0.3
		c0,0.1,0.1,0.2,0.1,0.2c0.1,0.1,0.2,0.1,0.2,0.2c0.1,0.1,0.2,0.1,0.3,0.1C349.4,331.1,349.4,331.2,349.4,331.3 M355.5,329.2
		c0.2,0.2,0.3,0.3,0.4,0.6c0.1,0.2,0.1,0.5,0.1,0.8c0,0.3-0.1,0.5-0.3,0.8c-0.1,0.2-0.3,0.4-0.5,0.5c-0.2,0.1-0.4,0.2-0.7,0.2
		c-0.2,0-0.5,0-0.7,0c-0.9-0.1-1.9-0.3-2.8-0.4l0-0.3c0.1,0,0.2,0,0.3,0c0.1,0,0.2,0,0.3,0c0.1,0,0.2-0.1,0.2-0.1
		c0-0.1,0.1-0.2,0.1-0.3l0.5-4.7c0-0.1,0-0.2,0-0.3c0-0.1-0.1-0.2-0.2-0.2c-0.1-0.1-0.2-0.1-0.3-0.1c-0.1,0-0.2-0.1-0.3-0.1l0-0.3
		l2.7,0.4c0.2,0,0.4,0.1,0.6,0.2c0.2,0.1,0.4,0.2,0.5,0.3c0.2,0.1,0.3,0.3,0.4,0.5c0.1,0.2,0.1,0.5,0.1,0.7c0,0.4-0.2,0.8-0.5,1
		c-0.1,0.1-0.3,0.2-0.5,0.2c-0.2,0.1-0.4,0.1-0.6,0.1l0,0c0.2,0.1,0.4,0.1,0.6,0.2C355.1,329,355.3,329.1,355.5,329.2L355.5,329.2z
		 M354.6,328.1c0.1-0.1,0.2-0.2,0.3-0.4c0.1-0.2,0.1-0.4,0.1-0.5c0.1-0.3,0-0.6-0.2-0.9c-0.2-0.3-0.5-0.4-0.8-0.4
		c-0.1,0-0.2,0-0.3,0l-0.3,0c-0.1,0.8-0.2,1.7-0.3,2.5l0.5,0.1c0.2,0,0.4,0,0.6,0C354.3,328.3,354.5,328.2,354.6,328.1L354.6,328.1z
		 M354.9,330.3c0-0.4,0-0.7-0.2-1c-0.2-0.3-0.6-0.5-1-0.5c-0.2,0-0.5-0.1-0.7-0.1c-0.1,0.8-0.2,1.5-0.3,2.3c0,0.2,0,0.4,0.2,0.5
		c0.2,0.1,0.4,0.2,0.6,0.2c0.3,0.1,0.7,0,1-0.3C354.7,331.1,354.9,330.7,354.9,330.3L354.9,330.3z M362.9,332.3h-1.6
		c-0.3-0.6-0.7-1.1-1-1.6c-0.3-0.5-0.6-0.9-0.9-1.4h-0.6v2.1c0,0.1,0,0.2,0,0.3c0,0.1,0.1,0.2,0.2,0.2c0.1,0,0.2,0,0.3,0.1
		c0.1,0,0.2,0,0.3,0v0.3h-2.5V332c0.1,0,0.2,0,0.3,0c0.1,0,0.2,0,0.3-0.1c0.1,0,0.1-0.1,0.2-0.2c0-0.1,0.1-0.2,0.1-0.3v-4.7
		c0-0.1,0-0.2,0-0.3c0-0.1-0.1-0.2-0.2-0.2c-0.1,0-0.2-0.1-0.3-0.1c-0.1,0-0.2,0-0.3,0v-0.3h2.7c0.2,0,0.5,0,0.7,0.1
		c0.2,0.1,0.4,0.1,0.6,0.3c0.2,0.1,0.3,0.3,0.4,0.5c0.1,0.2,0.2,0.5,0.2,0.7c0,0.2,0,0.5-0.1,0.7c-0.1,0.2-0.2,0.4-0.3,0.5
		c-0.1,0.1-0.3,0.3-0.5,0.3c-0.2,0.1-0.4,0.2-0.6,0.2c0.3,0.4,0.5,0.8,0.7,1.1c0.2,0.3,0.4,0.6,0.7,1.1c0.2,0.3,0.4,0.5,0.6,0.6
		c0.1,0,0.2,0.1,0.3,0.1c0.1,0,0.2,0,0.3,0L362.9,332.3L362.9,332.3z M360.7,327.5c0-0.7-0.4-1.2-1-1.3c-0.1,0-0.1,0-0.2,0h-0.7v2.8
		h0.5c0.7,0,1.3-0.6,1.4-1.4C360.7,327.6,360.7,327.5,360.7,327.5L360.7,327.5z M369.8,331.8l-2.5,0.2l0-0.3c0.2,0,0.4-0.1,0.5-0.1
		c0.1-0.1,0.2-0.1,0.2-0.2c0,0,0-0.1,0-0.1c0,0,0-0.1,0-0.1c-0.2-0.5-0.4-0.9-0.6-1.4l-2.1,0.2c-0.1,0.2-0.1,0.4-0.1,0.6
		c0,0.2-0.1,0.3-0.1,0.5c0,0.1,0,0.2-0.1,0.3c0,0.1,0,0.1,0,0.2c0,0.1,0.1,0.2,0.3,0.3c0.2,0.1,0.4,0.1,0.6,0.1l0,0.3l-2.2,0.2
		c0-0.1,0-0.2,0-0.3c0.1,0,0.2,0,0.3-0.1c0.1,0,0.2-0.1,0.3-0.1c0.1-0.1,0.2-0.2,0.2-0.3c0.1-0.1,0.1-0.2,0.2-0.4
		c0.2-0.8,0.5-1.8,0.8-2.8s0.6-2,0.8-2.8l0.3,0c0.8,1.8,1.6,3.6,2.4,5.4c0,0.1,0.1,0.2,0.2,0.3c0.1,0.1,0.1,0.1,0.2,0.2
		c0.1,0,0.2,0.1,0.3,0.1c0.1,0,0.2,0,0.3,0C369.8,331.6,369.8,331.7,369.8,331.8L369.8,331.8z M367.2,329.4
		c-0.4-0.8-0.7-1.6-1.1-2.4c-0.2,0.9-0.5,1.7-0.7,2.6L367.2,329.4z M378.2,324.2l-0.3,0.1c-0.1-0.2-0.3-0.5-0.5-0.6
		c-0.2-0.2-0.4-0.3-0.6-0.3c-0.1,0-0.2,0-0.3,0.1c-0.1,0-0.2,0.1-0.4,0.1l-1,0.3l0.6,2.5c0.2-0.1,0.4-0.1,0.7-0.2
		c0.2,0,0.3-0.1,0.5-0.2c0.1-0.1,0.2-0.2,0.2-0.3c0-0.1,0.1-0.2,0.1-0.4c0-0.2,0-0.3,0-0.5l0.3-0.1c0.2,0.8,0.4,1.7,0.6,2.5
		c-0.1,0-0.2,0.1-0.3,0.1c0-0.1-0.1-0.3-0.2-0.4c-0.1-0.1-0.1-0.2-0.2-0.3c-0.1-0.1-0.2-0.1-0.4-0.1c-0.2,0-0.3,0-0.5,0.1l-0.7,0.2
		l0.5,2.2c0,0.1,0.1,0.2,0.1,0.2c0.1,0.1,0.1,0.1,0.2,0.1c0.1,0,0.2,0,0.3,0c0.1,0,0.2,0,0.3,0l0.1,0.3l-2.5,0.7l-0.1-0.3
		c0.1,0,0.2-0.1,0.3-0.1c0.1,0,0.2-0.1,0.2-0.1c0.1-0.1,0.1-0.1,0.1-0.2c0-0.1,0-0.2,0-0.3l-1.1-4.5c0-0.1-0.1-0.2-0.1-0.2
		c-0.1-0.1-0.1-0.1-0.2-0.1c-0.1,0-0.2,0-0.3,0c-0.1,0-0.2,0-0.3,0l-0.1-0.3c1.5-0.5,3-0.9,4.5-1.4L378.2,324.2 M384.8,323.7
		l0.6,1.8l-4.2,2.2l-0.1-0.3c0.1,0,0.1-0.1,0.3-0.2c0.1,0,0.1-0.1,0.2-0.2c0.1-0.1,0.1-0.2,0.1-0.2c0-0.1,0-0.2-0.1-0.3l-1.8-4.2
		c0-0.1-0.1-0.2-0.1-0.2c-0.1-0.1-0.2-0.1-0.2-0.1c-0.1,0-0.2,0-0.3,0c-0.1,0-0.2,0-0.3,0.1c0-0.1-0.1-0.2-0.1-0.3l2.3-1.2l0.1,0.3
		c-0.1,0.1-0.2,0.1-0.3,0.2c-0.1,0.1-0.1,0.1-0.2,0.2c-0.1,0.1-0.1,0.2-0.1,0.3c0,0.1,0,0.2,0.1,0.3l1.7,3.9
		c0.1,0.1,0.1,0.3,0.2,0.4c0,0.1,0.1,0.1,0.2,0.2c0.1,0,0.2,0,0.3,0c0.2-0.1,0.3-0.1,0.5-0.2c0.1,0,0.2-0.1,0.3-0.2
		c0.1-0.1,0.2-0.1,0.3-0.2c0.1-0.1,0.1-0.1,0.2-0.2c0.1-0.1,0.1-0.1,0.1-0.2c0.1-0.3,0.1-0.5,0.1-0.8c0-0.3,0-0.5,0-0.8L384.8,323.7
		 M388,317.2c0.4,0.1,0.7,0.3,1,0.6c0.3,0.3,0.6,0.7,0.8,1.1c0.2,0.4,0.4,0.9,0.5,1.3c0.1,0.4,0,0.9,0,1.3c-0.3,1.3-1.3,2.2-2.4,2.4
		c-0.4,0.1-0.7,0-1.1-0.1c-0.4-0.1-0.7-0.3-1-0.6c-0.3-0.3-0.6-0.6-0.8-1c-0.2-0.4-0.4-0.9-0.5-1.4c-0.1-0.4,0-0.9,0-1.3
		c0.1-0.4,0.3-0.8,0.5-1.1c0.2-0.3,0.5-0.6,0.8-0.8c0.3-0.2,0.7-0.4,1.1-0.4C387.2,317.1,387.6,317.1,388,317.2L388,317.2z
		 M389.5,321.5c0-0.3,0-0.7-0.1-1c-0.1-0.4-0.3-0.7-0.4-1.1c-0.2-0.4-0.4-0.7-0.7-1c-0.2-0.3-0.5-0.5-0.7-0.6
		c-0.2-0.1-0.5-0.2-0.8-0.2c-0.3,0-0.5,0.1-0.8,0.3c-0.3,0.2-0.5,0.4-0.6,0.7c-0.1,0.3-0.2,0.6-0.2,0.9c0,0.3,0.1,0.7,0.2,1
		c0.1,0.4,0.3,0.7,0.4,1c0.2,0.3,0.4,0.7,0.6,1c0.2,0.3,0.5,0.5,0.7,0.6c0.2,0.1,0.5,0.2,0.8,0.2c0.3,0,0.6-0.1,0.8-0.3
		c0.2-0.2,0.4-0.4,0.6-0.7C389.5,322.2,389.5,321.9,389.5,321.5L389.5,321.5z M396.9,317.1c-0.4,0.3-0.9,0.7-1.3,1
		c-0.6-0.3-1.1-0.5-1.6-0.7s-1-0.3-1.5-0.5l-0.5,0.4l1.1,1.7c0.1,0.1,0.1,0.1,0.2,0.2c0.1,0,0.2,0.1,0.3,0c0.1,0,0.2-0.1,0.2-0.1
		c0.1-0.1,0.2-0.1,0.3-0.2l0.2,0.3c-0.7,0.5-1.4,1.1-2,1.6c-0.1-0.1-0.1-0.2-0.2-0.3c0.1,0,0.1-0.1,0.2-0.2c0.1-0.1,0.1-0.1,0.2-0.2
		c0-0.1,0.1-0.2,0.1-0.3c0-0.1,0-0.2-0.1-0.3c-0.8-1.3-1.6-2.6-2.5-3.8c0-0.1-0.1-0.1-0.2-0.2c-0.1-0.1-0.2-0.1-0.3,0
		c-0.2,0.1-0.4,0.1-0.5,0.3l-0.2-0.3l2.2-1.8c0.2-0.2,0.4-0.3,0.6-0.4c0.2-0.1,0.4-0.1,0.6-0.2c0.2,0,0.4,0,0.6,0.1
		c0.2,0.1,0.4,0.3,0.5,0.5c0.1,0.2,0.2,0.4,0.3,0.6c0,0.2,0,0.4,0,0.6c0,0.2-0.1,0.4-0.2,0.6c-0.1,0.2-0.2,0.4-0.3,0.6
		c0.5,0.2,0.8,0.3,1.2,0.4c0.3,0.1,0.7,0.2,1.1,0.4c0.3,0.1,0.6,0.1,0.8,0.1c0.1,0,0.2-0.1,0.3-0.1c0.1,0,0.2-0.1,0.2-0.1
		C396.8,316.9,396.9,317,396.9,317.1L396.9,317.1z M392.6,314.6c-0.3-0.6-1-0.8-1.5-0.4c-0.1,0-0.1,0.1-0.2,0.1l-0.6,0.5l1.5,2.3
		l0.5-0.4c0.6-0.4,0.8-1.3,0.4-2C392.6,314.6,392.6,314.6,392.6,314.6L392.6,314.6z M401.8,313c0.2,0.6,0.3,1.2,0.5,1.8l-4.6,1.9
		c0-0.1-0.1-0.2-0.1-0.3c0.1,0,0.2-0.1,0.3-0.2c0.1,0,0.2-0.1,0.2-0.2c0.1-0.1,0.1-0.1,0.1-0.2c0-0.1,0-0.2,0-0.3
		c-0.5-1.5-1-2.9-1.5-4.4c0-0.1-0.1-0.2-0.1-0.2c-0.1-0.1-0.2-0.1-0.2-0.1c-0.1,0-0.2,0-0.3,0c-0.1,0-0.2,0-0.3,0.1
		c0-0.1-0.1-0.2-0.1-0.3l4.3-1.8l0.5,1.5c-0.1,0-0.2,0.1-0.3,0.1c-0.2-0.2-0.3-0.4-0.6-0.6c-0.2-0.2-0.4-0.2-0.6-0.2
		c-0.1,0-0.2,0.1-0.3,0.1c-0.1,0-0.2,0.1-0.4,0.2l-0.9,0.4c0.3,0.8,0.5,1.6,0.8,2.4c0.2-0.1,0.4-0.2,0.6-0.3
		c0.2-0.1,0.3-0.1,0.4-0.2c0.1-0.1,0.1-0.2,0.2-0.3c0-0.1,0-0.3,0-0.4c0-0.1,0-0.3-0.1-0.4l0.3-0.1l0.8,2.4c-0.1,0-0.2,0.1-0.3,0.1
		c-0.1-0.1-0.1-0.3-0.2-0.4c-0.1-0.1-0.2-0.2-0.3-0.3c-0.1-0.1-0.2-0.1-0.3-0.1c-0.1,0-0.3,0.1-0.4,0.1l-0.6,0.3
		c0.2,0.6,0.4,1.2,0.6,1.8c0,0.1,0.1,0.3,0.2,0.4c0,0.1,0.1,0.2,0.2,0.2c0.1,0,0.2,0,0.3,0c0.1,0,0.3-0.1,0.5-0.2
		c0.1,0,0.2-0.1,0.3-0.1c0.1,0,0.2-0.1,0.4-0.2c0.1-0.1,0.2-0.1,0.3-0.2c0.1-0.1,0.1-0.1,0.2-0.2c0.1-0.3,0.1-0.5,0.2-0.8
		c0-0.2,0-0.5,0-0.7C401.6,313.1,401.7,313,401.8,313 M406.8,308.5c0.3,0.3,0.6,0.6,0.7,1c0.2,0.4,0.3,0.9,0.4,1.4
		c0.1,0.5,0,1-0.1,1.4c-0.1,0.4-0.3,0.8-0.5,1.2c-0.2,0.3-0.5,0.6-0.8,0.8c-0.3,0.2-0.7,0.3-1.1,0.4c-0.4,0.1-0.8,0-1.2-0.1
		c-0.4-0.1-0.7-0.3-1-0.6c-0.3-0.3-0.5-0.6-0.7-1c-0.2-0.4-0.3-0.9-0.4-1.3c-0.1-0.5,0-1,0.1-1.4c0.1-0.4,0.3-0.8,0.5-1.2
		c0.5-0.7,1.1-1.1,1.9-1.2c0.4-0.1,0.8,0,1.1,0.1C406.2,308,406.5,308.2,406.8,308.5L406.8,308.5z M406.7,313.1
		c0.1-0.3,0.2-0.6,0.2-1c0-0.4,0-0.8,0-1.2c0-0.4-0.1-0.8-0.3-1.2c-0.1-0.3-0.3-0.6-0.5-0.9c-0.2-0.2-0.4-0.4-0.6-0.5
		c-0.3-0.1-0.5-0.1-0.8-0.1c-0.3,0-0.6,0.2-0.8,0.4c-0.2,0.2-0.4,0.5-0.5,0.8c-0.1,0.3-0.2,0.6-0.2,1c-0.1,0.8,0,1.6,0.3,2.3
		c0.1,0.3,0.3,0.6,0.5,0.9c0.2,0.2,0.4,0.4,0.6,0.5c0.3,0.1,0.6,0.2,0.8,0.1c0.3,0,0.5-0.2,0.8-0.3
		C406.4,313.7,406.6,313.4,406.7,313.1L406.7,313.1z"/>
	<path style="fill:none;stroke:#000000;stroke-width:0.949;stroke-miterlimit:3.111;" d="M337.5,213.5h45.2 M386.3,213.5h6.3v41.3
		c0,8.2-1,40.9-32.6,53.6c-31.7-12.7-32.7-45.4-32.7-53.6v-41.3h6.4"/>
	<path style="fill:#338A00;stroke:#075400;stroke-width:0.497;stroke-miterlimit:6.667;" d="M355.7,106.3c-2.4,0-5.2,1.3-7.9,4.6
		l0,0c6.7-2.2,9.6,2.8,12.4,5.9c-8.1,0-16.2,1-24.1,3c-2.6-6.4-11.7-14.1-18.9-2.4c6.5-3.4,10.1,1.3,13.4,3.9
		c-6.6,2.1-13.1,4.8-19.3,8.2c0,0,0-0.1-0.1-0.2c-2.7-5.7-16.6-12.6-19.8,3.1c6.9-7.9,13.7,0.8,17.7-1.7
		c-6.2,3.6-12.1,7.9-17.6,12.7c0,0-0.1-0.1-0.1-0.1c-3.7-4.9-18.6-8.4-18.8,7.7c5-9.2,13.2-2.7,16.8-5.7
		c-5.9,5.4-11.2,11.5-15.9,18.1c-0.1-0.1-0.2-0.2-0.3-0.3c-4.1-4.5-19.3-6.3-18,9.7c4.3-9.9,13.4-3.8,16.4-7.8
		c-0.5,0.6-0.8,1.4-0.9,2.2c-4.4,6.7-8.2,13.8-11.3,21.3c-5.1-3-20.1-0.2-14.9,14.8l0,0c1.7-10.8,11.9-7.7,13.9-12.4
		c0,0,0,0.1,0,0.2c-3.1,8-5.4,16.4-7,24.9c-6.3,0.2-16.6,6.8-9.1,18.5c-0.5-7.9,4.8-9.9,8.2-12.4c-0.8,5.8-1.1,11.7-1.1,17.7
		c0,1.8,0,3.5,0.1,5.3c-5.7,2.7-13.1,14.2-1.4,21.4c-3.3-6.3-0.3-10.5,1.8-14.1c0.7,7.7,2.1,15.3,4,22.6
		c-5.3,3.8-10.7,14.5,0.4,20.7c-3.6-6.2-0.5-10.6,1.5-14.3c2.4,7.4,5.5,14.6,9.1,21.4c-4.3,5.1-7.1,17.7,5.6,20.1
		c-5.2-4.9-3.3-10.1-2.4-14.4c4.2,6.9,9,13.3,14.4,19.2c-4,5.3-6.2,18.3,6.7,19.8c-6.2-5.1-3.3-11.4-3.1-15.9
		c6.3,6.3,13.2,11.7,20.7,16.3c-1.1,6.9,2.2,18.6,14,13.8c-6.4-1.3-7.3-6.5-8.4-10.6c7.4,3.9,15.1,6.9,23.1,8.9
		c-0.1,7,4.1,16.8,14.9,11.4c-6.6-0.8-7.8-6.1-9.1-10.2c6.2,1.2,12.4,1.8,18.7,1.8c1.2,0,2.4,0,3.6-0.1c1.4,6.8,8.7,16.3,17.8,6.7
		c-7,1.7-9.6-3.7-12.2-7c8.2-0.7,16.3-2.5,24.2-5.3c3.8,5.6,13,10.6,18.4-1.3c-5.2,3.7-9.1,1.1-12.3-1.1c6.4-2.7,12.5-6.1,18.4-10
		c4.7,4.3,18,6.1,17.8-9c-3.5,6.6-8.6,5.4-12.6,5.2c6.4-4.9,12.3-10.6,17.6-16.8c5.6,3.3,17,3.3,16.3-10.7
		c-3.2,6.8-8.4,5.8-12.3,5.8c5-6.6,9.4-13.7,13-21.3c6.2,1.2,17.5-3.2,12.1-16.3l0,0c-0.8,7.4-5.7,8.6-9.4,10.2
		c3.4-8.2,6.1-16.8,7.8-25.6c6.2-1.5,14.8-9.5,6.2-19.6c1.3,6.4-2,9.5-4.9,12c0.9-6.2,1.3-12.5,1.3-18.8c0-0.9,0-1.8,0-2.6
		c6-2.1,13.9-11.1,4.4-20.2c2.1,7-1.9,10.4-4.7,13.5c-0.5-6.9-1.5-13.8-3-20.6c5.3-3.5,11.4-15.9-1.1-21.4c4.3,6.1,1.1,10.9-0.5,15
		c-2-7.2-4.6-14.1-7.7-20.8c4.5-4.8,7.9-17.6-4.9-20.4c5.1,5.1,3,10.4,1.9,14.6c-3.4-6.3-7.3-12.2-11.6-17.8
		c2.4-6.5,1.3-18.7-11.1-16.7c5.3,2.4,5.9,6.8,6.1,10.7c-4.4-4.9-9.2-9.4-14.3-13.5c1.7-6.6-1.4-20.1-13.9-14.9l0,0
		c6.6,1.3,7.5,6.8,8.6,10.9c-6.3-4.4-12.9-8.1-19.8-11c1.1-6.8-3.3-19.7-15.2-13.2c7.4,0.6,8.3,7.1,10,11.2
		c-9.2-3.3-18.7-5.2-28.3-5.8C365.2,112.4,361.1,106.2,355.7,106.3L355.7,106.3z M360.4,119.9c0.6,0,1.1,0,1.6,0
		c-3.7,2.5-6.9,10.6-14.9,8.4c8.6,10.8,18.1-1.5,19.1-8.2c9.4,0.6,18.8,2.5,27.7,5.7c-4.2,1.4-9.5,6.7-15.8,1.7
		c4.5,13.3,17.1,5.9,20.4,0.1c7.5,3.2,14.7,7.3,21.5,12.2c-4.3,0.3-10.6,6.2-16.9,0.1c3.3,13.6,16.3,7.8,20.2,2.4
		c5.9,4.7,11.3,10,16.2,15.9c0.2,0.7,0.6,1.4,1.2,1.9c-3.7-3.2-12.6,3.9-18.3-4.7c0.5,14.9,16,11.1,20.1,6.4
		c4.5,5.8,8.4,12.1,11.8,18.7c-3.8-2.4-12-0.9-14.5-9.8c-3.9,13.8,10.7,16.3,16.4,13.7c3.3,7,5.9,14.3,7.9,21.9
		c-3.5-2.8-11.3-3.3-12.3-12.2C446,206.7,459,212,465.3,211c1.7,7.6,2.7,15.4,3,23.2c-1.4-4.6-10.5-7.7-8.5-17.4
		c-9.9,10.2,2.7,20.6,8.6,20.9c0,0.7,0,1.4,0,2.2c0,7.5-0.6,15.1-1.9,22.5c-0.3,0.5-0.4,1-0.4,1.6c0.2-5.2-10.1-9.1-7-19.2
		c-10.8,9,0.8,20.8,6.6,21.8c-1.9,9.3-4.8,18.3-8.6,26.8c-0.3-4.8-6.4-11.4-1.2-18.9c-12.5,4.6-5.7,19.1-0.5,22.7
		c-3.9,8-8.6,15.4-14,22.2c1.4-4.5-2.3-13.3,5-18.3c-13.4-0.6-11.4,16.4-7.5,21.4c-5.6,6.6-11.9,12.5-18.7,17.5
		c0.9-4.7-1.5-12.7,5.5-17.1c-12.4-1.2-12.2,13.4-9.2,19.7c-6.4,4.3-13.1,7.9-20.1,10.6c-0.6-0.2-1.3-0.2-1.9,0
		c4.5-1.6,4.2-13.6,13.9-14c-11.6-8.1-17.5,8.6-16.1,14.8c0,0.2,0.1,0.4,0.2,0.7c-7.9,2.7-16.1,4.4-24.3,5.1
		c3.9-2.2,7.6-10.2,15.5-7.3c-8.2-11.9-18.9,1.1-19.7,7.5c-1.1,0-2.3,0.1-3.4,0.1c-6.8,0-13.6-0.7-20.3-2.1
		c-0.3-0.5-0.8-0.8-1.3-1.1c4.4,1.9,11.1-7.5,18.8-1c-4.3-14.3-18.5-5.7-21,0c-0.2,0.4-0.3,0.7-0.4,1.1c-9.1-2.3-17.9-5.9-26.1-10.7
		c0,0,0,0,0,0c4.3,2.3,11.5-6.7,18.8,0.4c-3.4-14.5-17.9-7.2-20.8-1.6c-6.8-4.2-13.2-9.2-19-14.9c4.2,0.9,10.6,0.2,13.4,7.6
		c2.7-14.2-12.2-15-17.6-11.8c-5.9-6.4-11.1-13.5-15.6-21.2c3.7,2.5,12.2,0.5,15,9.5c3.6-14.1-11.5-15.9-17-13
		c-4.1-7.8-7.5-16-10-24.6c1.5,4.9,12.3,4.7,12.5,15.3c7.4-12.7-7.6-19.4-13.2-17.9c-2.1-8.1-3.5-16.4-4.1-24.9
		c3,3.5,11.2,4.9,11.1,14.1c7.2-11.5-5-18.6-11.3-18.5c-0.1-1.6-0.1-3.1-0.1-4.7c0-6.2,0.4-12.4,1.3-18.5c1.6,4.5,7.8,9.6,4.2,17.6
		c11.5-7.1,2.3-20.1-3.4-22.4c1.2-6.6,2.8-13,5-19.3c1.4,4.2,3.2,9.3-0.8,14.4c11.4-3.4,7.8-15.8,3.3-21.1
		c2.6-6.3,5.6-12.3,9.1-18.1c0.3,4.2,0.3,9-4.4,12.5c11.5,0.2,11.3-12.2,8.5-18.8c4-5.7,8.4-11,13.3-15.8
		c-0.2,4.6,0.2,10.6-5.6,13.9c11.6,1.5,12.4-11.4,10.1-18.2c4.4-3.9,9-7.4,13.9-10.5c-1.1,4.5-1.9,10.3-8.1,12.2
		c11.1,4.2,14.3-8.1,13.4-15.3c6.5-3.6,13.4-6.5,20.4-8.6c-3.3,3.2-5.3,11.6-13.5,10.7c10.3,9.4,18-5.3,17.7-11.9
		C344.6,120.9,352.5,119.9,360.4,119.9L360.4,119.9z"/>
	<path style="fill:#AD7D5A;stroke:#000000;stroke-width:0.475;stroke-miterlimit:3.111;" d="M294.4,293.6c-0.3,1.3-0.6,2.7-0.7,4.1
		c0,0.4-0.3,2.4,0.7,2.5c0.8,0.1,1-2.1,1-2.1s-0.7,2.4,0.2,2.7c1.2,0.3,1.4-2.7,1.4-2.7c-0.1,0.8-1,3,0.2,3.2
		c1.2,0.2,1.6-2.9,1.6-2.9s-1,3.1,0.2,3.2c1.2,0.1,1.2-3,1.2-3s-0.6,3.7,1,3.4c0.9-0.2,1.1-1.4,1.3-2.2c0.3-1.1,0.9-2.6,0.1-4.9
		c-0.5-1.7-0.3-2.2-0.3-2.2s-1.9,1.6-3.4,2.7C298.1,295.8,294.4,293.5,294.4,293.6L294.4,293.6z M314.4,290.3
		c-0.3-0.2-0.3,1.4-0.4,2.1c-0.1,0.8,0.1,2.4,2.5,2.3c2.3-0.2,4.5-0.8,5.9-0.4c1.5,0.4,3.1,0.6,4.7,0.5c0.8,0,1.7-0.1,2.5-0.4
		c0.5-0.2,1.5,0.3,2,0.3c0.5,0,1.2-0.8,1.2-1.4c-0.1-1-0.9-1-2.1-1.1c-1.1-0.1-2.3-0.3-3.3-0.7c-1.2-0.6-2.5-1.2-3.8-1.5
		c0,0-3.3,0.2-4,0.2S314.8,290.5,314.4,290.3L314.4,290.3z"/>
	<path style="fill:none;stroke:#006600;stroke-width:0.475;stroke-miterlimit:3.111;" d="M303.4,295.7l-0.1-3.5l1.3,1.2l0.3-2.7
		c0.5-0.2,1.4,1.1,1.4,1.1l-0.1-2.7l2,2.4c-0.1-1.1,0.1-2.2,0.5-3.3c0,0,1.5,1.4,1.5,3.1c0,1.4,1.3-2.1,1.3-2.1
		c0.3,1.2,1.1,3.9,1.1,3.9l0.9-1.4l0.8,3l1.6-2.7l1.3,3.1l2.9-0.2l0.3,1.8l1.3-1.6l1.7,1.2c0.7-0.2,1.4-0.4,2.2-0.5
		c0.8,0,1.6,1.1,1.6,1.1c0.3-0.6,0.7-1,1.1-1.4c0.5-0.4,1.3,0.6,1.5,1.2l1.1-2.2c0.6,0.7,1.2,1.4,1.6,2.2c0.1-0.8,0.3-1.7,0.5-2.4
		c0.3-0.6,0.9,0.2,1.3,1l0.9-3.3c0.7,0.2,1.3,0.7,1.6,1.4c0.8,1.2,0.8-1.8,0.8-1.8c0.9,1.3,1.5,2.6,2.1,4.1 M381,295.3
		c0.3-0.9,0.7-1.8,1.3-2.5c0,0,1.4,1.9,1.4,2.5c0.4-0.2,0.8-0.5,1.2-0.8l1.1,1.2l1.3-1l1.2,1.2l2.3-1.1l0.9,1.1l3.5-0.5l1.3,0.6
		l1.2-1.7l1.2,1.4l1.8-2c0.4,0.4,0.8,0.9,1.1,1.4c0.7-0.4,1.3-0.8,1.8-1.4c0,0,1.4-0.6,1.6,0.4c0,0,0.9-0.8,0.8-1.6
		c-0.1-0.8,1-0.2,1.4,0.8c0,0,0.4-1.7,1.5-1.8c0.5,0.8,0.7,1.8,0.5,2.8c0.7-0.7,1.5-1.2,2.4-1.6c0.2,1.3,0.1,2.6-0.2,3.9
		c0,0,1.7-3.1,2.1-2.1c0.3,1.3,0.4,2.7,0.1,4.1l1.5-1.1l0.5,2.1l1.6-0.4 M340.7,305.4c0.5-1.1,1.2-2,2-2.9c1,0.9,1.7,2,2.2,3.3
		c0.1-0.8,0.4-1.6,0.8-2.3c0,0,2.1,1.1,2.4,2.5c0.3-0.7,0.8-1.3,1.3-1.8c0.5-0.5,1.1,1.6,1.1,2.8c0,0,1.3-1.5,2.1-1.6
		c0,0,1.4,0.8,1.8,3.4c0,0,1.4-1.4,1.8-1.2c0,0,1.6,1.2,1.2,2.9c-0.2,0.9,1.6-1.1,3.9-1.7l2,1.7c0,0,1.8-2.7,2.4-3.6
		c0,0,1.5,0.6,1.5,1.6c0,0,0.7-2.9,1.2-3.2c0.5-0.4,1.3,0.9,1.3,1.7c0,0,0.2-2.2,1.3-2.7c0,0,1.1,0.8,1.1,1.7c0,0,1.2-2.5,2.1-3.1"
		/>
	<path style="fill:#5AC800;" d="M303.4,295.7l-0.1-3.5l1.3,1.2l0.3-2.7c0.5-0.2,1.4,1.1,1.4,1.1l-0.1-2.7l2,2.4
		c-0.1-1.1,0.1-2.2,0.5-3.3c0,0,1.5,1.4,1.5,3.1c0,1.4,1.3-2.1,1.3-2.1c0.3,1.2,1.1,3.9,1.1,3.9l0.9-1.4l0.8,3l1.6-2.7l1.3,3.1
		l2.9-0.2l0.3,1.8l1.3-1.6l1.7,1.2c0.7-0.2,1.4-0.4,2.2-0.5c0.8,0,1.6,1.1,1.6,1.1c0.3-0.6,0.7-1,1.1-1.4c0.5-0.4,1.3,0.6,1.5,1.2
		l1.1-2.2c0.6,0.7,1.2,1.4,1.6,2.2c0.1-0.8,0.3-1.7,0.5-2.4c0.3-0.6,0.9,0.2,1.3,1l0.9-3.3c0.7,0.2,1.3,0.7,1.6,1.4
		c0.8,1.2,0.8-1.8,0.8-1.8c0.9,1.3,1.5,2.6,2,4.1c0,0-11.3,4.3-19.3,3.1C311.1,297.7,303.4,295.7,303.4,295.7 M381,295.3
		c0.3-0.9,0.7-1.8,1.3-2.5c0,0,1.4,1.9,1.4,2.5c0.4-0.2,0.8-0.5,1.2-0.8l1.1,1.2l1.3-1l1.2,1.2l2.3-1.1l0.9,1.1l3.5-0.5l1.3,0.6
		l1.2-1.7l1.2,1.4l1.8-2.1c0.4,0.4,0.8,0.9,1.1,1.4c0.7-0.4,1.3-0.8,1.8-1.4c0,0,1.4-0.6,1.6,0.4c0,0,0.9-0.8,0.8-1.6
		c-0.1-0.8,1-0.2,1.4,0.8c0,0,0.4-1.7,1.5-1.8c0.5,0.8,0.7,1.8,0.5,2.8c0.7-0.7,1.5-1.2,2.4-1.6c0.2,1.3,0.1,2.6-0.2,3.9
		c0,0,1.7-3.1,2.1-2.1c0.3,1.3,0.4,2.7,0.1,4.1l1.5-1.1l0.5,2.1l1.6-0.4c-6.2,1-12.6,1.2-18.9,0.7
		C392.7,299.1,386.7,297.6,381,295.3 M374.2,302.8c0.4-0.3-3.1,8-11.5,8.4c-11.8,0.6-21.9-5.9-21.9-5.9c0.5-1.1,1.2-2,2-2.9
		c1,0.9,1.7,2,2.2,3.3c0.1-0.8,0.4-1.6,0.8-2.3c0,0,2.1,1.1,2.4,2.5c0.3-0.7,0.8-1.3,1.3-1.8c0.5-0.5,1.1,1.6,1.1,2.8
		c0,0,1.3-1.5,2.1-1.6c0,0,1.4,0.8,1.8,3.4c0,0,1.4-1.4,1.8-1.2c0,0,1.6,1.2,1.2,2.9c-0.2,0.9,1.6-1.1,3.9-1.7l2,1.7
		c0,0,1.8-2.7,2.4-3.6c0,0,1.5,0.6,1.5,1.6c0,0,0.7-2.9,1.2-3.2c0.5-0.4,1.3,0.9,1.3,1.7c0,0,0.2-2.2,1.3-2.7c0,0,1.1,0.8,1.1,1.7
		C372.2,306,373.3,303.4,374.2,302.8L374.2,302.8z"/>
</g>
</svg>
