<?xml version="1.0" encoding="utf-8"?>
<!-- Generator: Adobe Illustrator 26.3.1, SVG Export Plug-In . SVG Version: 6.00 Build 0)  -->
<svg version="1.1" id="Layer_1" xmlns="http://www.w3.org/2000/svg" xmlns:xlink="http://www.w3.org/1999/xlink" x="0px" y="0px"
	 viewBox="0 0 720 480" style="enable-background:new 0 0 720 480;" xml:space="preserve">
<style type="text/css">
	.st0{fill:#EE1C25;}
	.st1{fill:#FFFF00;}
</style>
<g>
	<path class="st0" d="M0,0h720v480H0V0z"/>
</g>
<g>
	<polygon class="st1" points="210.8,177.5 291.5,119 191.7,119 161,24.2 130.2,119 30.6,119 111.2,177.4 80.5,271.9 161,213.6 
		241.4,271.9 	"/>
	<polygon class="st1" points="339,59.6 360.1,63.4 345.3,47.9 355.3,29.1 336.1,38.4 321.3,23 324.2,44.2 305.1,53.5 326,57.3 
		329,78.4 	"/>
	<polygon class="st1" points="399.5,117.7 420,111.7 399.9,104.5 400.5,83.1 387.5,100.1 367.3,92.9 379.4,110.5 366.3,127.4 
		386.8,121.4 398.8,139.1 	"/>
	<polygon class="st1" points="344.1,256.1 360.5,242.3 339.2,243.9 331.2,224.1 326,244.8 304.8,246.4 322.9,257.7 317.7,278.4 
		334.1,264.6 352.2,275.9 	"/>
	<polygon class="st1" points="395,204.5 416.3,206.5 400.2,192.4 408.7,172.8 390.3,183.7 374.2,169.6 378.9,190.4 360.5,201.3 
		381.9,203.3 386.6,224.1 	"/>
</g>
</svg>
