<?xml version="1.0" encoding="utf-8"?>
<!-- Generator: Adobe Illustrator 25.2.1, SVG Export Plug-In . SVG Version: 6.00 Build 0)  -->
<svg version="1.1" id="Layer_1" xmlns="http://www.w3.org/2000/svg" xmlns:xlink="http://www.w3.org/1999/xlink" x="0px" y="0px"
	 viewBox="0 0 720 480" style="enable-background:new 0 0 720 480;" xml:space="preserve">
<g>
	<path style="fill:#EE1C25;" d="M0,0h720v480H0V0z"/>
	<g transform="matrix(3 0 0 3 5 5)">
		<path id="a" style="fill:#FFFF00;" d="M120,48l42.3,130.2L51.5,97.8h137.1L77.7,178.2L120,48z"/>
	</g>
	<g transform="rotate(23.036 .093 25.536)">
		<path id="a_1_" style="fill:#FFFF00;" d="M249.4,25.9l-4,45.5l-23.5-39.2l42.1,17.9l-44.5,10.2L249.4,25.9z"/>
	</g>
	<g transform="rotate(45.87 1.273 16.18)">
		<path id="a_2_" style="fill:#FFFF00;" d="M305.2,79.3l-21.3,40.4l-6.5-45.2l31.8,32.8l-45-7.8L305.2,79.3z"/>
	</g>
	<g transform="rotate(69.945 .996 12.078)">
		<path id="a_3_" style="fill:#FFFF00;" d="M310.5,159.8l-35.9,28.1l12.5-43.9l15.7,42.9l-37.9-25.5L310.5,159.8z"/>
	</g>
	<g transform="rotate(20.66 -19.689 31.932)">
		<path id="a_4_" style="fill:#FFFF00;" d="M248.5,193.5l-2.1,45.6L221.2,201l42.8,16.1l-44.1,12.1L248.5,193.5z"/>
	</g>
</g>
</svg>
