<?xml version="1.0" encoding="utf-8"?>
<!-- Generator: Adobe Illustrator 25.2.1, SVG Export Plug-In . SVG Version: 6.00 Build 0)  -->
<svg version="1.1" id="Layer_1" xmlns="http://www.w3.org/2000/svg" xmlns:xlink="http://www.w3.org/1999/xlink" x="0px" y="0px"
	 viewBox="0 0 720 480" style="enable-background:new 0 0 720 480;" xml:space="preserve">
<g>
	<g>
		<defs>
			<rect id="SVGID_1_" x="3.8" y="2.6" width="712.5" height="477.4"/>
		</defs>
		<clipPath id="SVGID_2_">
			<use xlink:href="#SVGID_1_"  style="overflow:visible;"/>
		</clipPath>
		<path style="clip-path:url(#SVGID_2_);fill:#012169;" d="M3.8,2.6h712.5V480H3.8V2.6z"/>
		<g style="clip-path:url(#SVGID_2_);">
			<g>
				<g>
					<g>
						<defs>
							<rect id="SVGID_3_" x="3.8" y="2.6" width="335.8" height="249.5"/>
						</defs>
						<clipPath id="SVGID_4_">
							<use xlink:href="#SVGID_3_"  style="overflow:visible;"/>
						</clipPath>
						<g style="clip-path:url(#SVGID_4_);">
							<path style="fill:#012169;" d="M3.8,2.6v249.5h335.8V2.6H3.8z"/>
							<g>
								<path d="M3.8,2.6l335.8,249.5 M339.6,2.6L3.8,252.1"/>
								<polygon style="fill:#FFFFFF;" points="332,274.4 171.7,155.2 11.3,274.4 -3.8,229.8 134.1,127.4 -3.8,24.9 11.3,-19.7 
									171.7,99.5 332,-19.7 347.1,24.9 209.2,127.4 347.1,229.8 								"/>
							</g>
							<g>
								<g>
									<g>
										<defs>
											<polygon id="SVGID_5_" points="171.7,127.4 339.6,127.4 339.6,252.1 171.7,252.1 3.8,252.1 3.8,127.4 3.8,2.6 171.7,2.6 
												339.6,2.6 											"/>
										</defs>
										<clipPath id="SVGID_6_">
											<use xlink:href="#SVGID_5_"  style="overflow:visible;"/>
										</clipPath>
										<g style="clip-path:url(#SVGID_6_);">
											<path d="M3.8,2.6l335.8,249.5 M339.6,2.6L3.8,252.1"/>
											<polygon style="fill:#C8102E;" points="334.6,266.9 171.7,146 8.7,266.9 -1.2,237.3 146.6,127.4 -1.2,17.5 8.7,-12.2 
												171.7,108.8 334.6,-12.2 344.5,17.5 196.7,127.4 344.5,237.3 											"/>
										</g>
									</g>
								</g>
							</g>
							<g>
								<path d="M171.7,2.6v249.5 M3.8,127.4h335.8"/>
								<polygon style="fill:#FFFFFF;" points="199.7,252.1 143.7,252.1 143.7,168.9 3.8,168.9 3.8,85.8 143.7,85.8 143.7,2.6 
									199.7,2.6 199.7,85.8 339.6,85.8 339.6,168.9 199.7,168.9 								"/>
							</g>
							<g>
								<path d="M171.7,2.6v249.5 M3.8,127.4h335.8"/>
								<polygon style="fill:#C8102E;" points="188.5,252.1 154.9,252.1 154.9,152.3 3.8,152.3 3.8,102.5 154.9,102.5 154.9,2.6 
									188.5,2.6 188.5,102.5 339.6,102.5 339.6,152.3 188.5,152.3 								"/>
							</g>
						</g>
					</g>
				</g>
			</g>
		</g>
	</g>
	<g transform="translate(7200 2400)">
		<g id="d">
			<path id="c" style="fill:#FFFFFF;" d="M-6661.9-2319.6l6,21.1h19.4l-15.7,13l6,21.1l-15.7-13l-15.7,13l6-21.1l-15.7-13h19.4
				L-6661.9-2319.6z"/>
			<g transform="rotate(24)">
				<path id="c_1_" style="fill:#FFFFFF;" d="M-6601.8-2304.9l-2,22.1l17.7,9l-18.9,4.6l-2,22.1l-9.8-19.2l-19,4.5l13-16.5
					l-9.7-19.1l17.7,9L-6601.8-2304.9z"/>
			</g>
			<g transform="rotate(48)">
				<path id="c_2_" style="fill:#FFFFFF;" d="M-6552-2263.6l-9.7,19.2l13,16.5l-18.9-4.6l-9.7,19.2l-2.1-22.1l-19-4.7l17.8-9l-2-22
					l13,16.5L-6552-2263.6z"/>
			</g>
		</g>
		<g transform="rotate(72)">
			<g id="d_1_">
				<path id="c_3_" style="fill:#FFFFFF;" d="M-6521.3-2202.8l-15.7,13.1l6,21.1l-15.6-13l-15.7,13.1l5.9-21.1l-15.7-13.1l19.4,0
					l6-21l6,21.1L-6521.3-2202.8z"/>
				<g transform="rotate(24)">
					<path id="c_4_" style="fill:#FFFFFF;" d="M-6514.9-2132.8l-19,4.6l-2,22l-9.7-19.2l-19,4.6l12.9-16.5l-9.6-19.2l17.8,9
						l12.9-16.5l-2,22L-6514.9-2132.8z"/>
				</g>
				<g transform="rotate(48)">
					<path id="c_5_" style="fill:#FFFFFF;" d="M-6533.9-2066l-19-4.6l-9.7,19.2l-2-22l-19-4.6l17.7-9.1l-2-22.1l13,16.5l17.7-9
						l-9.7,19.2L-6533.9-2066z"/>
				</g>
			</g>
		</g>
		<g transform="rotate(144)">
			<g id="d_2_">
				<path id="c_6_" style="fill:#FFFFFF;" d="M-6575-2013.8l-15.7-13.1l-15.7,13l6-21l-15.7-13.1l19.4-0.1l6.1-21.1l6,21.1l19.3,0
					l-15.7,13L-6575-2013.8z"/>
				<g transform="rotate(24)">
					<path id="c_7_" style="fill:#FFFFFF;" d="M-6631.1-1985.2l-9.7-19.2l-18.9,4.6l13-16.4l-9.7-19.2l17.8,9l13-16.4l-2,22.1
						l17.7,9l-18.9,4.6L-6631.1-1985.2z"/>
				</g>
				<g transform="rotate(48)">
					<path id="c_8_" style="fill:#FFFFFF;" d="M-6692.6-1985.2l-2-22.1l-18.9-4.6l17.7-9l-2-22.1l13,16.4l17.8-9l-9.7,19.2l13,16.4
						l-18.9-4.6L-6692.6-1985.2z"/>
				</g>
			</g>
		</g>
		<g transform="rotate(216)">
			<g id="d_3_">
				<path id="c_9_" style="fill:#FFFFFF;" d="M-6748.8-2013.8l6-21.1l-15.7-13l19.3,0l6-21.1l6.1,21.1l19.4,0.1l-15.7,13.1l6,21
					l-15.7-13L-6748.8-2013.8z"/>
				<g transform="rotate(24)">
					<path id="c_10_" style="fill:#FFFFFF;" d="M-6789.9-2066l13-16.5l-9.7-19.2l17.7,9l13-16.5l-2,22.1l17.7,9.1l-19,4.6l-2,22
						l-9.7-19.2L-6789.9-2066z"/>
				</g>
				<g transform="rotate(48)">
					<path id="c_11_" style="fill:#FFFFFF;" d="M-6808.9-2132.8l17.8-9l-2-22l12.9,16.5l17.8-9l-9.6,19.2l12.9,16.5l-19-4.6
						l-9.7,19.2l-2-22L-6808.9-2132.8z"/>
				</g>
			</g>
		</g>
		<g transform="rotate(288)">
			<g id="d_4_">
				<path id="c_12_" style="fill:#FFFFFF;" d="M-6802.5-2202.8l19.4,0l6-21.1l6,21l19.4,0l-15.7,13.1l5.9,21.1l-15.7-13.1l-15.6,13
					l6-21.1L-6802.5-2202.8z"/>
				<g transform="rotate(24)">
					<path id="c_13_" style="fill:#FFFFFF;" d="M-6771.7-2263.6l17.8,9l13-16.5l-2,22l17.8,9l-19,4.7l-2.1,22.1l-9.7-19.2l-18.9,4.6
						l13-16.5L-6771.7-2263.6z"/>
				</g>
				<g transform="rotate(48)">
					<path id="c_14_" style="fill:#FFFFFF;" d="M-6722-2304.9l13,16.5l17.7-9l-9.7,19.1l13,16.5l-19-4.5l-9.8,19.2l-2-22.1
						l-18.9-4.6l17.7-9L-6722-2304.9z"/>
				</g>
			</g>
		</g>
	</g>
</g>
</svg>
