<?xml version="1.0" encoding="utf-8"?>
<!-- Generator: Adobe Illustrator 25.2.1, SVG Export Plug-In . SVG Version: 6.00 Build 0)  -->
<svg version="1.1" id="Layer_1" xmlns="http://www.w3.org/2000/svg" xmlns:xlink="http://www.w3.org/1999/xlink" x="0px" y="0px"
	 viewBox="0 0 720 480" style="enable-background:new 0 0 720 480;" xml:space="preserve">
<g>
	<path style="fill:#012169;" d="M0,0.1h720V480H0V0.1z"/>
	<path style="stroke:#FFFFFF;stroke-width:60;" d="M0,0.1l360,239.9 M360,0.1L0,240.1"/>
	<g>
		<defs>
			<path id="SVGID_1_" d="M0,0.1v120h420v120h-60L0,0.1z M360,0.1H180V280H0v-40L360,0.1z"/>
		</defs>
		<clipPath id="SVGID_2_">
			<use xlink:href="#SVGID_1_"  style="overflow:visible;"/>
		</clipPath>
		<path style="clip-path:url(#SVGID_2_);stroke:#C8102E;stroke-width:40;" d="M0,0.1l360,239.9 M360,0.1L0,240.1"/>
	</g>
	<path style="stroke:#FFFFFF;stroke-width:100;" d="M180,0.1V280 M0,120.1h420"/>
	<path style="stroke:#C8102E;stroke-width:60;" d="M180,0.1V280 M0,120.1h420"/>
	<path style="fill:#012169;" d="M0,240.1h360V0.1h360V480H0V240.1z"/>
	<path style="fill:#FFFFFF;stroke:#FFFFFF;stroke-width:9.6;stroke-linejoin:round;" d="M593.8,186.4v74.7c0,64.8-23,87-53.8,104.6
		c-30.8-17.6-54.1-39.9-54.1-104.6v-74.7H593.8z"/>
	<g>
		<g id="b">
			<path style="fill:#FCEA83;stroke:#FFFFFF;stroke-width:9.6;stroke-linejoin:round;" d="M452.7,359.7c1.7,6.1,14.1,14.2,28.5,3.8
				c9.8-7.3,16.1-17.6,22.1-36c1.7-4.6,2.6-10.3-1.4-13.8c-3.2-3.1-8.3-6.5-10.6-9.6c-1.1-1.5-2.3-2.7-3.2-3.8
				c0.6,0.8,1.2,1.5,1.7,2.7c5.8,9.2-0.3,22.6-6.6,30.7c-4.6,5.7-12.9,19.9-25,6.5C455.5,337.1,449.5,349.7,452.7,359.7L452.7,359.7
				z M627.5,359.7c-2,6.1-14.4,14.2-28.5,3.8c-9.8-7.3-16.1-17.6-22.4-36c-1.4-4.6-2.3-10.3,1.7-13.8c3.2-3.1,8.3-6.5,10.6-9.6
				c1.2-1.5,2-2.7,3.2-3.8c-0.6,0.8-1.2,1.5-1.7,2.7c-5.8,9.2,0.3,22.6,6.3,30.7c4.6,5.7,13.2,19.9,25.3,6.5
				C624.6,337.1,630.3,349.7,627.5,359.7L627.5,359.7z"/>
			<path style="fill:#FCEA83;stroke:#FFFFFF;stroke-width:9.6;stroke-linejoin:round;" d="M540.1,392.6c23,0,58.4-13.8,77.3-62.1
				c3.2-8,0-12.3-3.7-14.9c-4-2.3-8.9-7.7-11.5-11.1c4.6,6.1,3.7,10.3,0.6,17.2c-14.7,32.6-34.8,49.1-62.7,49.1s-48-16.5-62.7-49.1
				c-3.2-6.9-4-11.1,0.3-17.2c-2.3,3.4-7.5,8.8-11.5,11.1c-3.7,2.7-6.9,6.9-3.7,14.9C481.4,378.8,517.1,392.6,540.1,392.6
				L540.1,392.6z"/>
		</g>
	</g>
	<g>
		<path id="c" style="fill:#C8102E;stroke:#FFFFFF;stroke-width:9.6;stroke-linejoin:round;" d="M486.9,327.9
			c-0.6-3.8-4.3-2.3-5.5,2.3c-1.4-2.7-2.9-5.4-4-8.4c-3.5-6.9-4-11.5,0.9-18c2.3-3.1,6.9-6.5,10.1-2.7
			C494.9,308.3,491.5,320.2,486.9,327.9z M593,327.9c0.6-3.8,4.6-2.3,5.8,2.3c1.4-2.7,2.9-5.4,4-8.4c3.4-6.9,4-11.5-1.2-18
			c-2-3.1-6.6-6.5-10.1-2.7C585.2,308.3,588.4,320.2,593,327.9z M452.7,359.7c-2.9-5.7-5.2-20.7-5.8-24.5c-0.9-3.4-1.2-6.5,2-8
			c3.2-1.5,6,3.8,7.5,8.4c1.4,4.6,3.7,11.5,6.3,19.9C456.4,350.5,451.2,353.9,452.7,359.7L452.7,359.7z M627.5,359.7
			c2.6-5.7,4.9-20.7,5.8-24.5c0.6-3.4,1.2-6.5-2-8c-3.2-1.5-6,3.8-7.5,8.4c-1.4,4.6-3.7,11.5-6.3,19.9
			C623.7,350.5,628.6,353.9,627.5,359.7L627.5,359.7z"/>
	</g>
	<g>
		<g id="b_1_">
			<path style="fill:#FCEA83;stroke:#000000;stroke-width:1.438;" d="M452.7,359.7c1.7,6.1,14.1,14.2,28.5,3.8
				c9.8-7.3,16.1-17.6,22.1-36c1.7-4.6,2.6-10.3-1.4-13.8c-3.2-3.1-8.3-6.5-10.6-9.6c-1.1-1.5-2.3-2.7-3.2-3.8
				c0.6,0.8,1.2,1.5,1.7,2.7c5.8,9.2-0.3,22.6-6.6,30.7c-4.6,5.7-12.9,19.9-25,6.5C455.5,337.1,449.5,349.7,452.7,359.7L452.7,359.7
				z M627.5,359.7c-2,6.1-14.4,14.2-28.5,3.8c-9.8-7.3-16.1-17.6-22.4-36c-1.4-4.6-2.3-10.3,1.7-13.8c3.2-3.1,8.3-6.5,10.6-9.6
				c1.2-1.5,2-2.7,3.2-3.8c-0.6,0.8-1.2,1.5-1.7,2.7c-5.8,9.2,0.3,22.6,6.3,30.7c4.6,5.7,13.2,19.9,25.3,6.5
				C624.6,337.1,630.3,349.7,627.5,359.7L627.5,359.7z"/>
			<path style="fill:#FCEA83;stroke:#000000;stroke-width:1.438;" d="M540.1,392.6c23,0,58.4-13.8,77.3-62.1c3.2-8,0-12.3-3.7-14.9
				c-4-2.3-8.9-7.7-11.5-11.1c4.6,6.1,3.7,10.3,0.6,17.2c-14.7,32.6-34.8,49.1-62.7,49.1s-48-16.5-62.7-49.1
				c-3.2-6.9-4-11.1,0.3-17.2c-2.3,3.4-7.5,8.8-11.5,11.1c-3.7,2.7-6.9,6.9-3.7,14.9C481.4,378.8,517.1,392.6,540.1,392.6
				L540.1,392.6z"/>
		</g>
		<path id="c_1_" style="fill:#C8102E;stroke:#000000;stroke-width:1.438;" d="M486.9,327.9c-0.6-3.8-4.3-2.3-5.5,2.3
			c-1.4-2.7-2.9-5.4-4-8.4c-3.5-6.9-4-11.5,0.9-18c2.3-3.1,6.9-6.5,10.1-2.7C494.9,308.3,491.5,320.2,486.9,327.9z M593,327.9
			c0.6-3.8,4.6-2.3,5.8,2.3c1.4-2.7,2.9-5.4,4-8.4c3.4-6.9,4-11.5-1.2-18c-2-3.1-6.6-6.5-10.1-2.7
			C585.2,308.3,588.4,320.2,593,327.9z M452.7,359.7c-2.9-5.7-5.2-20.7-5.8-24.5c-0.9-3.4-1.2-6.5,2-8c3.2-1.5,6,3.8,7.5,8.4
			c1.4,4.6,3.7,11.5,6.3,19.9C456.4,350.5,451.2,353.9,452.7,359.7L452.7,359.7z M627.5,359.7c2.6-5.7,4.9-20.7,5.8-24.5
			c0.6-3.4,1.2-6.5-2-8c-3.2-1.5-6,3.8-7.5,8.4c-1.4,4.6-3.7,11.5-6.3,19.9C623.7,350.5,628.6,353.9,627.5,359.7L627.5,359.7z"/>
		<g>
			<path style="fill:#00493D;" d="M469.3,325.2l-2.3,1.5c-0.6,0.4-0.6,1.2-0.6,1.5h-0.3l-1.2-3.4h0.3c0,0.4,0.3,0.8,0.9,0.4l4.9-3.4
				c0.6-0.4,0.6-0.8,0.3-1.2l0.3-0.4l1.4,3.8h-0.3c-0.3-0.4-0.6-0.8-1.1-0.4l-2,1.5l0.9,2.3l2.3-1.1c0.6-0.4,0.3-1.2,0.3-1.5h0.3
				l1.2,3.4c-0.3-0.4-0.6-0.8-1.2-0.4l-4.9,3.5c-0.6,0.4-0.6,0.8-0.3,1.1l-0.3,0.4l-1.4-3.4l0.3-0.4c0.3,0.4,0.6,0.8,1.2,0.4
				l2.3-1.5L469.3,325.2z M474.2,330.2c0.6-0.4,0.6-0.8,0.3-1.5h0.3l2.9,5.7l-2,1.9v-0.4c1.2-1.1,1.2-2.7,0.9-3.1
				c-0.3-0.4-0.6-0.8-0.6-1.2c-0.3,0-0.3-0.4-0.9,0.4c-0.3,0.4-2,1.9-2,1.9c0.3,0.4,0.6,1.5,2,0.4h0.3l-3.2,3.1v-0.4
				c1.4-1.5,0.9-2.7,0.6-3.1l-2,1.9c-0.6,0.4-0.6,0.8-0.6,1.1c0.3,0,0.3,0.4,0.6,0.8c0.3,0.8,1.2,1.5,2.6,0.8l0.3,0.4l-2.3,1.1
				l-2.9-6.1h0.3c0.3,0.4,0.6,0.8,1.1,0.4L474.2,330.2z M478.8,344.7l-2,2.3c-0.3,0.4-0.3,1.2,0,1.5h-0.3l-2-2.7l0.3-0.4
				c0.3,0.4,0.6,0.8,1.2,0l3.7-5c0.6-0.4,0.6-0.8,0.3-1.5l2,3.1c-0.3-0.4-0.9-0.4-1.2,0l-1.7,2.3l1.4,1.9l1.7-1.9
				c0.6-0.8,0.3-1.2,0-1.5l0.3-0.4l2,3.1h-0.3c-0.3,0-0.6-0.4-1.1,0.4l-3.7,4.6c-0.6,0.8-0.6,1.2-0.3,1.5v0.4l-2-3.1
				c0.3,0,0.9,0.4,1.2,0l2-2.7L478.8,344.7z M483.1,352.8l0.9,1.2l1.2-3.4c0,0-0.9,0.4-2.3,1.5L483.1,352.8l-0.3,0.4l-0.6-0.8
				c-0.3,0.4-0.6,0.4-0.9,0.8c-0.9,0.8-0.6,1.1-0.3,1.5v0.4l-1.4-1.9h0.3l1.1-0.4l5.8-4.2l0.3,0.4c0,0-0.3,0.4-2.9,8
				c0,0.8-0.3,1.1,0,1.9l-2.3-2.7l0.3-0.4c0.3,0.8,0.9,0.8,1.1,0c0-0.4,0.3-1.1,0.3-1.5l-0.9-1.2L483.1,352.8z M485.4,360.4l0.3-0.4
				c0.3,0.4,0.6,0.4,1.1,0l3.7-6.5l-0.3-0.4c-0.6-0.4-1.4-0.4-2.3,0.8v-0.4l1.2-1.9l4.3,4.2l-1.4,2.3h-0.3c0.9-1.2,0.6-2.7,0-3.1
				v-0.4l-3.7,6.5c-0.6,0.4-0.3,1.2,0,1.5h-0.3L485.4,360.4z"/>
			<path style="fill:#00493D;" d="M492.9,362l-1.4,2.7c-0.3,0.8,0,1.1,0.3,1.5l-0.3,0.4l-2.3-2.3v-0.4c0.6,0.4,0.9,0.4,1.2-0.4
				l3.2-5.7c0.3-0.8,0-1.1-0.3-1.5l0.3-0.4l2.3,2.3v0.4c-0.6-0.4-0.9-0.4-1.2,0.4l-1.4,2.7l1.7,1.5l1.4-2.7c0.3-0.8,0-1.2-0.3-1.5
				l0.3-0.4l2.3,2.3v0.4c-0.3-0.4-0.9-0.4-1.2,0.4l-2.9,6.1c-0.6,0.4-0.3,0.8,0,1.1v0.4L492,367h0.3c0.3,0,0.6,0,0.9-0.4l1.4-3.1
				L492.9,362z M498.7,372.7l0.3-0.4c0.3,0.4,0.9,0.4,1.1-0.4l2.3-6.5c0.3-0.8,0-1.2-0.3-1.5l4.9,3.1l-1.2,3.1l-0.3-0.4
				c0.9-1.5,0-3.1-0.3-3.4c-0.3,0-0.6-0.4-0.9-0.4c-0.3,0-0.3,0-0.6,0.8c-0.3,0.4-1.2,2.7-1.2,2.7c0.3,0.4,0.9,1.2,2-0.8h0.3
				l-1.7,4.6l-0.3-0.4c0.9-2.3-0.3-2.7-0.6-2.7l-1.2,3.1c-0.3,0.8,0,1.2,0.3,1.2v0.4L498.7,372.7z M507,378.1
				c-0.9-0.8-0.9-3.1,0-5.4c0.6-2.3,1.7-4.2,2.9-3.4c0.9,0.4,0.6,2.7,0,5C509,376.9,507.9,378.5,507,378.1h-0.3
				c2,1.2,3.5-0.4,4.3-3.1c0.9-2.3,0.6-5-1.2-6.1c-1.7-1.1-3.4,0.4-4.3,3.1c-0.9,2.7-0.6,5.4,1.2,6.1H507z M515.9,378.8l1.2-4.6
				c0.3-0.8,0-1.2-0.3-1.5l1.4,0.4v0.4c-0.3,0-0.6,0-0.9,0.8l-1.2,4.6c-0.6,1.9-1.4,3.4-3.2,2.7c-1.2-0.4-2-2.3-1.4-4.2l1.4-5
				c0.3-0.8,0-1.2-0.3-1.5v-0.4l2.6,1.5v0.4c-0.3-0.4-0.9-0.4-0.9,0.4l-1.4,5c-0.3,1.5-0.3,3.1,0.6,3.4
				C514.5,381.5,515.3,380.8,515.9,378.8L515.9,378.8z"/>
			<path style="fill:#00493D;" d="M518.5,373.9c0-0.4,0-0.4-0.3-0.4l2,0.4l1.7,7.3l0.9-4.6c0.3-0.8,0-1.2-0.3-1.5l1.7,0.4l-0.3,0.4
				c-0.3,0-0.6,0-0.9,0.8l-1.4,8.4h-0.3l-2.3-9.2l-1.4,6.1c0,1.2,0.3,1.2,0.6,1.5v0.4l-1.7-0.8v-0.4c0.3,0.4,0.9,0,0.9-0.8l1.4-6.9
				L518.5,373.9L518.5,373.9z"/>
			<path style="fill:#00493D;" d="M528.3,381.5c-0.6,3.4-1.7,4.2-2.3,4.2h-0.6c0,0-0.3-0.4,0-0.8l0.9-7.7c0.3-0.4,0.3-0.8,0.6-0.4
				h0.6C528,376.9,528.6,378.5,528.3,381.5l0.9,0.4c0.6-3.8-0.6-5.4-2-5.8c-1.2-0.4-2.9-0.8-2.9-0.8v0.4c0.3,0.4,0.9,0.4,0.6,1.5
				l-0.9,6.9c-0.3,0.8-0.6,1.1-0.9,1.1h-0.3l2.9,0.8c1.4,0.4,2.9,0,3.5-4.2L528.3,381.5z M530.9,378.5c0-0.8-0.6-1.2-0.9-1.2v-0.4
				l5.2,0.8l-0.3,3.1c0-1.9-0.9-2.7-1.4-2.7c-0.3-0.4-0.6-0.4-0.9-0.4c-0.3,0-0.3,0-0.3,1.2c0,0.4-0.3,3.1-0.3,3.1
				c0.3,0,1.2,0.4,1.7-1.9l-0.3,5h-0.3c0-2.3-0.9-2.3-1.1-2.3l-0.3,3.4c0,0.8,0,0.8,0.3,0.8l0.6,0.4c0.9,0,1.7-0.4,2.3-2.7h0.3
				l-0.6,3.1l-5.5-0.8c0.6,0,0.9-0.4,1.2-1.2L530.9,378.5z M540.4,383.1c0,3.4-0.9,4.6-1.7,4.6c-0.3-0.4-0.3-0.4-0.6-0.4l-0.3-0.4
				l0.3-8c0-0.4,0-0.4,0.3-0.4h0.6C539.5,378.5,540.4,379.6,540.4,383.1h1.2c0-3.8-1.4-5-2.9-5c-1.2-0.4-2.9-0.4-2.9-0.4v0.4
				c0.3,0,0.9,0.4,0.9,1.2l-0.3,7.3c0,0.8-0.3,1.2-0.6,1.2v0.4h2.6c1.4,0,2.9-0.8,3.2-5H540.4L540.4,383.1z M548.7,386.1
				c0,0.8,0.3,0.8,0.9,0.8v0.4l-3.2,0.4c0.3-0.4,0.9-0.8,0.9-1.5l-0.6-7.3c-0.3-0.8-0.6-0.8-1.2-0.8v-0.4l3.2-0.4
				c-0.3,0.4-0.9,0.8-0.6,1.5L548.7,386.1z M551.6,386.9v-0.4c0.3,0,0.6-0.4,0.6-1.1l-1.1-8h-0.3c-0.6,0.4-1.2,1.2-0.9,2.7h-0.3
				l-0.3-2.7l5.2-1.2l0.3,2.7h-0.3c0-1.5-0.9-1.9-1.7-1.9h-0.3l1.2,8c0,0.8,0.3,1.2,0.9,1.2v0.4L551.6,386.9z M563.9,379.2l-1.2-4.6
				c0-0.8-0.6-0.8-0.9-0.8v-0.4l1.4-0.8v0.4c-0.3,0.4-0.3,0.4-0.3,1.1l1.2,5c0.3,1.5,0.3,3.8-1.4,4.6c-1.2,0.4-2.6-0.4-2.9-2.7
				l-1.2-5c-0.3-0.8-0.6-0.8-0.9-0.8l-0.3-0.4l2.9-1.1v0.4c-0.3,0.4-0.6,0.8-0.3,1.5l0.9,5c0.3,1.5,1.2,2.3,2,2.3
				C563.9,382.7,564.2,381.1,563.9,379.2L563.9,379.2z M567.1,376.5c1.4-0.8,1.2-1.9,0.9-3.1c-0.3-1.2-0.9-1.9-1.4-1.5
				c-0.3,0-0.6,0.4-0.3,0.8L567.1,376.5l0.3,0.4l0.6,3.1c0.3,0.8,0.9,0.8,1.2,0.4v0.4l-2.6,1.5l-0.3-0.4c0.6-0.4,0.6-0.8,0.6-1.5
				l-2-6.5c-0.3-1.1-0.6-0.8-1.2-0.8v-0.4l2.9-1.5c1.1-0.4,2.3,0,2.9,1.5c0.3,1.9-0.3,3.1-1.4,3.8c-0.3,0-0.6,0.4-0.6,0.4
				L567.1,376.5z M574.3,377.7c-0.9,0.4-2-1.2-2.9-3.8c-0.9-2.3-0.9-4.6,0-5c0.9-0.4,2,1.1,2.9,3.4
				C575.1,374.6,575.1,376.9,574.3,377.7c1.7-0.8,2.3-3.4,1.4-6.1c-0.9-2.3-2.6-3.8-4.3-3.1c-1.7,1.2-2.3,3.8-1.4,6.1
				C570.8,377.3,572.6,378.8,574.3,377.7L574.3,377.7z M574.6,367H574l1.7-1.5l5.2,3.8l-1.7-4.2c-0.3-0.8-0.9-0.8-1.2-0.8v-0.4
				l1.4-0.8c-0.3,0.4-0.6,0.8,0,1.5l2.9,7.7l-0.3,0.4l-6.3-4.6l2.3,5.7c0.3,0.8,0.9,0.8,1.2,0.4v0.4l-1.4,1.1v-0.4
				c0.3-0.4,0.3-0.8,0-1.5l-2.3-6.1L574.6,367L574.6,367z M587.5,368.1v-0.4c0-0.4,0.3-0.8,0-1.5l-3.5-6.5h-0.3
				c-0.6,0.4-0.9,1.9,0,3.1l-0.3,0.4l-1.1-2.7l4.3-3.8l1.2,2.3c-0.9-1.1-1.7-1.1-2.3-0.8l-0.3,0.4l3.4,6.5c0.3,0.8,0.9,0.8,1.2,0.4
				v0.4L587.5,368.1z M590.7,358.9l1.7,2.7c0.3,0.4,0.9,0.4,1.2,0v0.4l-2.3,2.7v-0.4c0.3-0.4,0.3-0.8,0-1.5l-3.4-5.7
				c-0.3-0.8-0.6-0.4-1.2-0.4l2.3-2.7v0.4c0,0.4-0.3,0.8,0,1.5l1.4,2.3l1.7-1.5l-1.4-2.7c-0.3-0.8-0.9-0.4-1.2-0.4l2.3-2.7v0.4
				c-0.3,0.4-0.3,0.8,0,1.5l3.4,5.7c0.3,0.4,0.6,0.4,0.9,0l0.3,0.4l-2.3,2.7l-0.3-0.4c0.3-0.4,0.6-0.8,0.3-1.5l-1.7-2.7L590.7,358.9
				z M593.3,350.9c-0.3-0.4-0.9-0.4-1.2,0v-0.4l3.7-4.6l1.7,2.3h-0.3c-0.9-1.5-2-0.8-2.6-0.4c0,0.4-0.3,0.4-0.6,0.8
				c0,0,0,0.4,0.3,1.1l1.7,2.3c0.3-0.4,1.2-1.2,0-3.1h0.3l2.3,3.4v0.4c-1.4-1.9-2-0.8-2.3-0.4l1.7,2.3c0.3,0.8,0.6,0.8,0.6,0.8
				l0.9-1.2c0.3-0.4,0.6-1.5,0-3.8h0.3l1.1,2.7l-3.7,5l-0.3-0.4c0.3-0.4,0.6-0.8,0-1.5L593.3,350.9z M600.2,340.1
				c-0.3,0.4-0.3,1.2,0.3,1.5c0.6,0.8,1.1,0.8,2.3,0c0.6-0.4,1.7-0.8,2.6,0.4c1.4,1.9,0.9,3.4,0.6,4.2c-0.3,0.4-0.9,0.8-1.2,1.2
				c-0.3,0-0.3,0-0.3,0.4v0.4l-2-2.3h0.3c1.1,0.8,2.3,1.1,2.9,0c0.6-0.8,0-1.5-0.3-1.9c-0.6-0.8-1.2-0.8-2,0c-0.9,0.4-2,0.4-2.9-0.4
				c-1.2-1.5-1.2-2.7-0.6-3.8c0.3-0.4,0.9-0.8,1.2-1.2c0.3,0,0.3,0,0-0.8l2,1.9h-0.3C601.3,339,600.4,339.4,600.2,340.1L600.2,340.1
				z M602.7,337.1c-0.6-0.4-0.9,0-1.2,0.4h-0.3l3.2-6.1l2,1.9l-0.3,0.4c-1.1-1.2-2.3-0.4-2.6,0c0,0.4-0.3,0.8-0.3,1.2
				c-0.3,0-0.3,0.4,0.3,0.8c0.3,0.4,2,1.9,2,1.9c0.3-0.4,0.9-1.1-0.3-2.7v-0.4l2.9,3.1c-1.7-1.1-2,0-2.3,0.4l2,1.9
				c0.6,0.4,0.9,0.4,0.9,0.4c0-0.4,0.3-0.8,0.6-1.2c0.3-0.8,0.6-1.9-0.6-3.4l0.3-0.4l1.4,2.3l-2.9,5.7h-0.3c0.3-0.8,0.3-1.2-0.3-1.9
				L602.7,337.1z M610.5,330.2l-0.9,1.9c-1.2-1.5-1.7-2.7-1.7-2.7L610.5,330.2h0.6c0.3,0,0.9,0.4,1.1,0.4c0.9,0.4,0.6,0.8,0.3,1.5
				h0.3l1.4-3.4c-0.6,0.8-0.9,0.4-1.4,0.4c-6-1.5-6.6-1.9-6.6-1.9v0.4l4.6,6.9c0.3,0.4,0.3,1.1,0.3,1.5h0.3l0.9-1.9l-0.3-0.4
				c-0.3,0.8-0.6,1.2-1.2,0l-0.6-0.8l0.9-2.7H610.5z M608.8,321.7c-0.3,0.4-0.3,1.2,0.6,1.5c0.9,0.4,1.1,0,2-0.8
				c0.9-0.8,1.7-1.5,2.9-0.8c1.7,1.2,1.4,3.1,1.2,3.8c-0.3,0.4-0.6,1.2-0.9,1.5v0.8l-2.3-1.5c1.4,0.4,2.6,0,2.9-1.2
				c0.3-0.8-0.3-1.5-0.6-1.9c-0.6-0.4-1.2,0-2,0.8c-0.9,1.2-1.7,1.5-2.9,0.8c-1.2-0.8-1.7-1.9-1.2-3.1c0-0.8,0.6-1.2,0.9-1.5
				c0-0.4,0-0.4-0.3-0.8V319l2.3,1.5h-0.3C609.6,320.2,608.8,321,608.8,321.7L608.8,321.7z"/>
		</g>
	</g>
	<g>
		<g id="d">
			<path style="fill:#FFFFFF;stroke:#FFFFFF;stroke-width:9.6;stroke-linejoin:round;" d="M517.9,186c-3.7,1.2-6.3,1.5-9.8-2.7
				c-2.3-3.1-1.7-8.4,0.6-10.3c2.6-2.3,4.9-3.8,8.1-2.7c3.2,1.2,11.5,11.5,9.5,11.9C524.2,182.2,521.1,184.9,517.9,186z
				 M526.8,167.6c1.2-1.2,2.6-1.9,6.3-2.3c3.5-0.4,6-0.4,6.9,3.1c1.2,4.2,2,9.2,4.3,11.5c-1.4,1.1-8.6,2.3-11.2,0.4
				C529.7,178,528.8,169.2,526.8,167.6z M551.6,168c1.2-1.2,2.6-1.2,6.3-0.8c3.7,0.4,5.2,0.8,6,4.2c0.9,3.8,0,8.8,1.7,12.3
				c-1.7,0.8-7.5,0.8-9.5-1.9C553,178.8,553.3,169.9,551.6,168z"/>
			<path style="fill:#073163;stroke:#FFFFFF;stroke-width:9.6;stroke-linejoin:round;" d="M568.8,170.3c-2.6-0.8-4.3-1.2-5.5,0
				c1.4,2.3,0.3,11.5,3.2,14.6c2,1.9,7.2,2.3,8.3-1.9C576.3,179.1,576.3,173.4,568.8,170.3z M539.2,166.5c0.9-1.2,2.6-1.5,6-1.5
				c3.7,0,6,0.8,7.2,3.8c1.2,3.8,0.9,8.8,2.9,11.9c-0.9,1.5-8.6,1.5-10.9-0.8C541.2,177.2,540.9,168.4,539.2,166.5z M514.8,169.9
				c0-1.9,2-2.3,7.2-2.7c5.2-0.8,5.5-0.4,7.2,4.6c0.9,2.7,2,7.3,4.3,8.8c-6.3,1.9-8.3,3.1-11.8,0.4c-2.6-1.9-5.5-6.5-6-8.4
				C515.3,171.5,515.3,170.3,514.8,169.9L514.8,169.9z"/>
		</g>
	</g>
	<g>
		<g id="e">
			<path style="fill:#059334;stroke:#FFFFFF;stroke-width:9.6;stroke-linejoin:round;" d="M515.3,135.8c-2,0-3.7-1.2-4.9-3.1
				c-2-3.4-7.5-5-9.8-1.9c-0.9,0.8-2,0.8-2.9,1.2c-1.4,0-3.2,1.9-2.6,5.7c1.1-1.2,1.4,0,2.3,0c0.6-0.4,0.3,0.4,0.3,1.2
				c0,1.9,3.2,5.7,6,5.4c3.2,0,4.6,1.5,5.2,2.3c0.9,1.1,0.3,0.8,0.9,2.7c0.9,1.2,1.2,1.5-0.3,3.1c-2,2.3-3.5,7.7,0,11.9
				c3.7,3.8,13.2,9.6,23.9-1.5c10.4-10.7,26.5-4.6,27.6-0.8c1.4,3.8,2,6.1,2.3,8c0.3,1.5,1.7,3.1,3.7,2.7c2,0,4.3,1.1,5.5,2.3
				c1.4,1.2,3.5,0.8,2.9-2.7c-1.2-10.7-6-12.3-6.6-17.2c2.9,0.4,4.9,0.4,6-1.2c0.9-1.5,2-4.2,3.2-5c0.9-0.8,0.9-1.5-0.3-1.2
				c-1.4,0.4-2.3,1.2-4.9,0.8C559.6,146.6,522.5,133.2,515.3,135.8L515.3,135.8z"/>
			<path style="stroke:#FFFFFF;stroke-width:9.6;stroke-linejoin:round;" d="M574,148.9c-1.4,1.2-2.9,3.1-5.5,7.7
				c-2.9,5-11.5,10-22.1,10c-10.4,0-16.7-2.3-21.3-7.3c-2.6-2.7-4.6-4.2-6.3-5.4c-3.2-1.9-3.7-6.1-2.9-9.6c-0.9,1.9-1.4,3.8-3.2,3.4
				c-1.2,0-3.4,0-2.9,1.5c-0.3-0.8-0.3-1.9-0.6-2.3l-0.6-0.8c0.9,0.8,2.9-1.5,4.3-1.5c1.2,0.4,2.6-1.5,2.3-3.8
				c-0.3-1.9-0.6-3.4-0.9-5c2.3-1.5,32.5,5.7,38.5,6.5C559,142.7,576.3,146.2,574,148.9L574,148.9z"/>
			<path style="fill:#059334;stroke:#FFFFFF;stroke-width:9.6;stroke-linejoin:round;" d="M519.4,134.3c2.9-3.8,6.3-5.7,9.8-4.6h0.9
				c1.7-1.9,5.8-2.3,8.1-0.8h1.2c3.5-1.5,10.1,0,12.4,3.1l0.9,0.8c7.8-0.8,12.4,3.8,17.8,11.1c0.6,0.8,1.4,2.3,2.9,2.7
				c1.7,0.4,2,1.5,0.6,2.7c-1.7,1.2-3.2,3.1-6,7.3c-2.6,4.6-10.9,9.2-21.3,9.2c-10.1,0-16.1-2.3-20.7-6.9c-2.6-2.7-4.6-4.2-6-5.4
				c-1.7-0.8-4-3.8-3.2-6.9c0.6-3.1-0.9-6.9-2-10.7c0.9-0.8,3.2-1.9,4.3-1.2L519.4,134.3L519.4,134.3z"/>
			<g>
				<path style="fill:#00493D;stroke:#FFFFFF;stroke-width:9.6;stroke-linejoin:round;" d="M570.3,143.9
					c-5.5-7.3-10.1-11.9-17.8-11.1c0,0.4,0,1.5-0.3,2.3c4.6,2.3,11.2,9.2,14.1,14.2C567.4,147.7,569.4,145.8,570.3,143.9
					L570.3,143.9z M551.6,132c-2.3-3.1-8.9-4.6-12.4-3.1c0,1.5,0,3.8-0.6,5.4c2,1.1,3.7,3.8,5.5,6.5c1.2-0.4,4-1.5,5.5-1.9
					C550.1,137.4,551.3,133.9,551.6,132z M538,128.9c-2.3-1.5-6.3-1.2-8.1,0.8c-0.6,1.5-0.9,4.6-0.9,6.1c1.2,0,2.9,1.2,3.4,1.9
					c1.7-0.8,4-2.3,4.9-3.4C537.8,132.8,538.3,130.5,538,128.9L538,128.9z M519.4,134.3c2.9-3.8,6.3-5.7,9.8-4.6
					c-0.6,1.1-0.9,3.4-0.9,5.7c-3.2-0.4-7.2,0.8-8.9,2.3V134.3z"/>
				<path style="fill:#00493D;stroke:#FFFFFF;stroke-width:9.6;stroke-linejoin:round;" d="M565.1,150c-2.6-5-8.9-10.7-13.2-13.4
					c0,0.4-0.6,1.9-0.9,3.1c1.7,3.4,5.2,11.1,6.6,15.3C559,154.2,563.1,151.9,565.1,150L565.1,150z M543.2,158.4
					c0.6-5.4,0.9-13,0.9-15.7c1.4-0.4,4.3-1.5,5.5-1.9c1.4,3.1,4.9,11.1,6.3,14.9C552.4,156.9,546.7,158.8,543.2,158.4z
					 M533.2,140.1c1.4-0.8,3.4-2.3,4.9-3.8c1.2,1.1,3.4,3.8,4.3,5.4c0,3.4-0.9,13.4-1.2,16.9c-2.3,0-6-0.8-8.1-2.3
					C533.4,150.4,533.7,143.9,533.2,140.1z M518.8,144.6c0.3-0.8,0.6-3.4,0.6-4.6c2.3-1.9,8.1-3.8,12.4-0.8c0.3,3.8,0,13.4-0.3,15.7
					C527.7,151.2,521.7,145.8,518.8,144.6L518.8,144.6z"/>
			</g>
			<g>
				<path d="M504.4,137.8c-0.6,0-0.9-2.3-2-2.3c-0.3,0-1.2,0.4-1.4,0c0,0.8,0.3,1.5,0.6,1.9C501.8,138.5,503.3,137.8,504.4,137.8z"
					/>
				<path style="fill:none;stroke:#FFFFFF;stroke-width:9.6;stroke-linejoin:round;" d="M504.4,144.3c3.5,0,4-5.7,5.8-6.1
					 M506.4,144.6c2.6,1.5,4.6-6.5,6.6-6.1 M501.2,134.7c0.9,0,1.4-1.5,2.9,0.4c0.6,0.8,1.4,1.1,2,1.1 M505.6,140.4
					c-1.2,2.3-3.2,3.8-4.3,3.1 M500.7,130.9c-0.9,0.8-1.4,2.3-2,3.4 M497.8,136.6v1.9"/>
			</g>
		</g>
	</g>
	<g>
		<g id="f">
			<path style="stroke:#FFFFFF;stroke-width:9.6;stroke-linejoin:round;" d="M528.6,130.9c-6-6.1-13.2-11.9-19.8-13
				c4.3,3.4,16.4,16.1,19.6,20.3"/>
			<path style="stroke:#FFFFFF;stroke-width:9.6;stroke-linejoin:round;" d="M532,125.1c-7.2-6.5-15.5-13.8-23.6-14.6
				c6,4.2,15,14.2,19.8,22.2 M541.2,114.4c4-11.9,8.3-18.4,14.1-25.7c-2.9,8-6,24.5-7.5,31"/>
			<path style="stroke:#FFFFFF;stroke-width:9.6;stroke-linejoin:round;" d="M547.5,112.5c2.9-8.4,7.2-15.7,14.7-20.3
				c-3.7,5-9.5,19.9-10.9,28"/>
			<path style="stroke:#FFFFFF;stroke-width:9.6;stroke-linejoin:round;" d="M550.1,120.1c3.5-6.5,10.4-18.8,22.7-25.3
				c-7.2,9.6-17.8,27.2-20.4,34.1 M554.2,128.6c5.2-3.8,15.5-10,23-8c-4.6,2.3-18.4,10.7-24.4,18.4"/>
			<path style="stroke:#FFFFFF;stroke-width:9.6;stroke-linejoin:round;" d="M553,125.9c4.9-6.9,13.8-17.2,23.3-21.5
				c-6.9,8.8-21.6,28.7-23.6,31.8 M539.2,121.7c-3.5-14.2-8.6-27.6-16.4-31.8c4.3,8.4,9.8,20.7,12.7,39.1 M532.6,121.3
				c-5.8-9.2-13.5-18.4-22.4-20.3c6,4.6,16.1,18,19.8,31"/>
			<path style="stroke:#FFFFFF;stroke-width:9.6;stroke-linejoin:round;" d="M535.7,120.9c-7.2-17.2-12.7-20.3-15.8-23.8
				c2.6,6.5,8.9,23.8,12.7,31"/>
			<path style="fill:none;stroke:#FFFFFF;stroke-width:9.6;stroke-linejoin:round;" d="M521.4,119.7c3.5,2.7,8.6,9.2,10.4,13.4"/>
			<path style="stroke:#FFFFFF;stroke-width:9.6;stroke-linejoin:round;" d="M521.4,127.8c1.7,1.9,4.9,4.2,7.8,7.7 M555.6,133.5
				c2.9-3.1,9.2-8,12.4-9.6 M553.6,130.9c2.9-5,8.6-11.9,10.6-14.2 M561.6,107.1c-2.6,3.8-8.6,13.4-10.9,18 M554.2,103.6
				c-2,3.4-6,13.4-7.2,16.9 M531.4,104.4c1.7,6.1,4.9,16.5,6,20.7 M528.8,110.9c1.2,2.3,3.4,7.7,4.3,11.5"/>
		</g>
	</g>
	<g>
		<g id="g">
			<path style="stroke:#FFFFFF;stroke-width:9.6;stroke-linejoin:round;" d="M538.6,109c0-3.4,1.7-7.3,3.5-7.3c2,0,3.5,4.6,3.5,7.3
				c0,3.1-1.7,5.7-3.5,5.7C540.3,114.8,538.6,112.5,538.6,109L538.6,109z"/>
			<path style="stroke:#FFFFFF;stroke-width:9.6;stroke-linejoin:round;" d="M534.9,112.1c0.3-3.8,2.3-6.9,4-6.5
				c1.7,0.4,2.6,5,2.3,7.7c-0.3,3.1-2.3,5.4-3.7,5C536,118.2,534.6,115.5,534.9,112.1L534.9,112.1z M542.7,113.2
				c-0.6-3.4,0.6-7.3,2.3-7.7c1.7-0.4,3.4,3.4,3.7,6.5c0.6,3.1-0.9,6.1-2.3,6.1C545,118.6,542.9,116.7,542.7,113.2z"/>
			<path style="stroke:#FFFFFF;stroke-width:9.6;stroke-linejoin:round;" d="M538.3,116.3c0-3.8,1.7-7.3,3.5-7.3
				c2,0,3.5,4.2,3.5,7.3s-1.7,5.7-3.5,5.7C540.1,122,538.3,119.7,538.3,116.3L538.3,116.3z"/>
			<path style="stroke:#FFFFFF;stroke-width:9.6;stroke-linejoin:round;" d="M533.2,118.2c0-3.4,2-7.3,3.7-7.3
				c1.7,0,3.5,4.6,3.5,7.3c0,3.1-2,5.7-3.5,5.7C535.2,124,533.2,121.7,533.2,118.2z M543.8,116.7c0-3.4,1.7-7.3,3.5-7.3
				c2,0,3.5,4.6,3.5,7.3c0,3.1-1.7,5.7-3.5,5.7C545.5,122.4,543.8,120.1,543.8,116.7L543.8,116.7z"/>
			<path style="stroke:#FFFFFF;stroke-width:9.6;stroke-linejoin:round;" d="M542.7,119.7c0-3.8,2-7.3,3.7-7.3
				c1.7,0,3.5,4.2,3.5,7.3s-1.7,5.7-3.5,5.7C544.7,125.5,542.7,123.2,542.7,119.7z"/>
			<path style="stroke:#FFFFFF;stroke-width:9.6;stroke-linejoin:round;" d="M538,123.2c0-3.8,1.7-7.3,3.5-7.3c2,0,3.5,4.6,3.5,7.3
				c0,3.1-1.7,5.7-3.5,5.7C539.8,128.9,538.1,126.6,538,123.2L538,123.2z M530.9,123.2c0-3.8,1.4-7.3,2.9-7.3c1.4,0,2.6,4.6,2.6,7.3
				c0,3.1-1.4,5.7-2.6,5.7C532.3,128.9,530.9,126.6,530.9,123.2z M547,122.4c0-3.4,1.4-6.9,2.9-6.9c1.4,0,2.9,4.2,2.9,6.9
				c0,3.4-1.7,5.7-2.9,5.7C548.4,128.2,547,125.9,547,122.4z"/>
			<path style="stroke:#FFFFFF;stroke-width:9.6;stroke-linejoin:round;" d="M548.7,128.9c0.6-3.8,2.3-6.9,3.5-6.5
				c1.2,0.4,1.4,5,0.9,7.7c-0.3,3.4-2,5.4-3.2,5C548.7,134.7,548.1,132,548.7,128.9L548.7,128.9z"/>
			<path style="stroke:#FFFFFF;stroke-width:9.6;stroke-linejoin:round;" d="M543.2,127.8c0.3-3.4,2-6.9,3.5-6.5
				c1.7,0,2.6,4.6,2.3,7.3c-0.3,3.5-1.7,5.7-3.2,5.4C544.4,133.9,542.9,131.2,543.2,127.8L543.2,127.8z M535.2,128.9
				c-0.9-3.8-2.6-6.5-3.7-6.1c-1.2,0.4-1.4,5-0.9,7.7c0.6,3.1,2.3,5,3.5,4.6C534.9,134.7,535.7,132,535.2,128.9L535.2,128.9z"/>
			<path style="stroke:#FFFFFF;stroke-width:9.6;stroke-linejoin:round;" d="M533.2,128.2c0-3.4,1.4-6.9,2.9-6.9
				c1.7,0,2.9,4.2,2.9,6.9c0,3.4-1.4,5.7-2.9,5.7C534.9,133.9,533.2,131.6,533.2,128.2z"/>
			<path style="stroke:#FFFFFF;stroke-width:9.6;stroke-linejoin:round;" d="M537.5,129.7c0-3.8,1.7-7.3,3.5-7.3
				c2,0,3.5,4.2,3.5,7.3s-1.7,5.7-3.5,5.7C539.2,135.5,537.5,133.2,537.5,129.7L537.5,129.7z M538.9,87.5c-0.6,3.1-2.6,5.7-1.2,10
				c-2.6-1.2-4.9-1.5-6.9,1.5c2.6-0.4,4.9,0.8,6,3.1c-2.3-0.4-3.4,1.2-4,3.1c2-0.8,4-1.5,4.9-1.2c-0.9,1.2-2.3,3.1-2.6,4.6
				c1.7-1.9,3.7-1.5,4.9-2.7c-0.9,2.7,0.9,5.4,2.3,8c-0.3-3.8,1.4-6.5,0.6-8.4c2.6,0.8,2.9,3.8,6.6,3.8c-1.4-1.1-2.3-5-4-5
				c0.9-0.4,4.3-0.8,4.9,0c-0.6-1.5-2.6-3.1-3.7-3.1c1.2-1.5,3.2-4.6,4.6-5.4c-2,0.4-5.2,0.8-6.3,3.1c2.9-3.1,2.3-8.8,5.5-9.6
				c-1.7-0.4-4.3,1.1-6.3,3.8c0.9-2.3,0.9-5.4,2-6.1c-2.3,0.8-4.9,4.6-5.8,6.5C540.4,91.8,539.5,88.7,538.9,87.5L538.9,87.5z
				 M540.4,93.7c0,1.2,0,3.4-0.3,4.2 M544.1,93.3c-0.6,0.8-1.7,3.4-1.7,5.7"/>
			<path style="fill:none;stroke:#FFFFFF;stroke-width:9.6;stroke-linejoin:round;" d="M545.8,97.9c-0.9,0.8-1.7,1.9-2,3.4"/>
		</g>
	</g>
	<g>
		<g id="d_1_">
			<path style="fill:#FFFFFF;stroke:#000000;stroke-width:1.438;" d="M517.9,186c-3.7,1.2-6.3,1.5-9.8-2.7
				c-2.3-3.1-1.7-8.4,0.6-10.3c2.6-2.3,4.9-3.8,8.1-2.7c3.2,1.2,11.5,11.5,9.5,11.9C524.2,182.2,521.1,184.9,517.9,186z
				 M526.8,167.6c1.2-1.2,2.6-1.9,6.3-2.3c3.5-0.4,6-0.4,6.9,3.1c1.2,4.2,2,9.2,4.3,11.5c-1.4,1.1-8.6,2.3-11.2,0.4
				C529.7,178,528.8,169.2,526.8,167.6z M551.6,168c1.2-1.2,2.6-1.2,6.3-0.8c3.7,0.4,5.2,0.8,6,4.2c0.9,3.8,0,8.8,1.7,12.3
				c-1.7,0.8-7.5,0.8-9.5-1.9C553,178.8,553.3,169.9,551.6,168z"/>
			<path style="fill:#073163;stroke:#000000;stroke-width:1.438;" d="M568.8,170.3c-2.6-0.8-4.3-1.2-5.5,0
				c1.4,2.3,0.3,11.5,3.2,14.6c2,1.9,7.2,2.3,8.3-1.9C576.3,179.1,576.3,173.4,568.8,170.3z M539.2,166.5c0.9-1.2,2.6-1.5,6-1.5
				c3.7,0,6,0.8,7.2,3.8c1.2,3.8,0.9,8.8,2.9,11.9c-0.9,1.5-8.6,1.5-10.9-0.8C541.2,177.2,540.9,168.4,539.2,166.5z M514.8,169.9
				c0-1.9,2-2.3,7.2-2.7c5.2-0.8,5.5-0.4,7.2,4.6c0.9,2.7,2,7.3,4.3,8.8c-6.3,1.9-8.3,3.1-11.8,0.4c-2.6-1.9-5.5-6.5-6-8.4
				C515.3,171.5,515.3,170.3,514.8,169.9L514.8,169.9z"/>
		</g>
		<g>
			<g id="f_1_">
				<path style="fill:#F9D050;stroke:#000000;stroke-width:0.647;" d="M528.6,130.9c-6-6.1-13.2-11.9-19.8-13
					c4.3,3.4,16.4,16.1,19.6,20.3"/>
				<path style="fill:#F9D050;stroke:#000000;stroke-width:0.647;" d="M532,125.1c-7.2-6.5-15.5-13.8-23.6-14.6
					c6,4.2,15,14.2,19.8,22.2 M541.2,114.4c4-11.9,8.3-18.4,14.1-25.7c-2.9,8-6,24.5-7.5,31"/>
				<path style="fill:#F9D050;stroke:#000000;stroke-width:0.647;" d="M547.5,112.5c2.9-8.4,7.2-15.7,14.7-20.3
					c-3.7,5-9.5,19.9-10.9,28"/>
				<path style="fill:#F9D050;stroke:#000000;stroke-width:0.647;" d="M550.1,120.1c3.5-6.5,10.4-18.8,22.7-25.3
					c-7.2,9.6-17.8,27.2-20.4,34.1 M554.2,128.6c5.2-3.8,15.5-10,23-8c-4.6,2.3-18.4,10.7-24.4,18.4"/>
				<path style="fill:#F9D050;stroke:#000000;stroke-width:0.647;" d="M553,125.9c4.9-6.9,13.8-17.2,23.3-21.5
					c-6.9,8.8-21.6,28.7-23.6,31.8 M539.2,121.7c-3.5-14.2-8.6-27.6-16.4-31.8c4.3,8.4,9.8,20.7,12.7,39.1 M532.6,121.3
					c-5.8-9.2-13.5-18.4-22.4-20.3c6,4.6,16.1,18,19.8,31"/>
				<path style="fill:#F9D050;stroke:#000000;stroke-width:0.647;" d="M535.7,120.9c-7.2-17.2-12.7-20.3-15.8-23.8
					c2.6,6.5,8.9,23.8,12.7,31"/>
				<path style="fill:none;stroke:#000000;stroke-width:0.647;" d="M521.4,119.7c3.5,2.7,8.6,9.2,10.4,13.4"/>
				<path style="fill:#F9D050;stroke:#000000;stroke-width:0.647;" d="M521.4,127.8c1.7,1.9,4.9,4.2,7.8,7.7 M555.6,133.5
					c2.9-3.1,9.2-8,12.4-9.6 M553.6,130.9c2.9-5,8.6-11.9,10.6-14.2 M561.6,107.1c-2.6,3.8-8.6,13.4-10.9,18 M554.2,103.6
					c-2,3.4-6,13.4-7.2,16.9 M531.4,104.4c1.7,6.1,4.9,16.5,6,20.7 M528.8,110.9c1.2,2.3,3.4,7.7,4.3,11.5"/>
			</g>
			<g id="g_1_">
				<path style="fill:#F9D050;stroke:#000000;stroke-width:0.647;" d="M538.6,109c0-3.4,1.7-7.3,3.5-7.3c2,0,3.5,4.6,3.5,7.3
					c0,3.1-1.7,5.7-3.5,5.7C540.3,114.8,538.6,112.5,538.6,109L538.6,109z"/>
				<path style="fill:#F9D050;stroke:#000000;stroke-width:0.647;" d="M534.9,112.1c0.3-3.8,2.3-6.9,4-6.5c1.7,0.4,2.6,5,2.3,7.7
					c-0.3,3.1-2.3,5.4-3.7,5C536,118.2,534.6,115.5,534.9,112.1L534.9,112.1z M542.7,113.2c-0.6-3.4,0.6-7.3,2.3-7.7
					c1.7-0.4,3.4,3.4,3.7,6.5c0.6,3.1-0.9,6.1-2.3,6.1C545,118.6,542.9,116.7,542.7,113.2z"/>
				<path style="fill:#F9D050;stroke:#000000;stroke-width:0.647;" d="M538.3,116.3c0-3.8,1.7-7.3,3.5-7.3c2,0,3.5,4.2,3.5,7.3
					s-1.7,5.7-3.5,5.7C540.1,122,538.3,119.7,538.3,116.3L538.3,116.3z"/>
				<path style="fill:#F9D050;stroke:#000000;stroke-width:0.647;" d="M533.2,118.2c0-3.4,2-7.3,3.7-7.3c1.7,0,3.5,4.6,3.5,7.3
					c0,3.1-2,5.7-3.5,5.7C535.2,124,533.2,121.7,533.2,118.2z M543.8,116.7c0-3.4,1.7-7.3,3.5-7.3c2,0,3.5,4.6,3.5,7.3
					c0,3.1-1.7,5.7-3.5,5.7C545.5,122.4,543.8,120.1,543.8,116.7L543.8,116.7z"/>
				<path style="fill:#F9D050;stroke:#000000;stroke-width:0.647;" d="M542.7,119.7c0-3.8,2-7.3,3.7-7.3c1.7,0,3.5,4.2,3.5,7.3
					s-1.7,5.7-3.5,5.7C544.7,125.5,542.7,123.2,542.7,119.7z"/>
				<path style="fill:#F9D050;stroke:#000000;stroke-width:0.647;" d="M538,123.2c0-3.8,1.7-7.3,3.5-7.3c2,0,3.5,4.6,3.5,7.3
					c0,3.1-1.7,5.7-3.5,5.7C539.8,128.9,538.1,126.6,538,123.2L538,123.2z M530.9,123.2c0-3.8,1.4-7.3,2.9-7.3
					c1.4,0,2.6,4.6,2.6,7.3c0,3.1-1.4,5.7-2.6,5.7C532.3,128.9,530.9,126.6,530.9,123.2z M547,122.4c0-3.4,1.4-6.9,2.9-6.9
					c1.4,0,2.9,4.2,2.9,6.9c0,3.4-1.7,5.7-2.9,5.7C548.4,128.2,547,125.9,547,122.4z"/>
				<path style="fill:#F9D050;stroke:#000000;stroke-width:0.647;" d="M548.7,128.9c0.6-3.8,2.3-6.9,3.5-6.5c1.2,0.4,1.4,5,0.9,7.7
					c-0.3,3.4-2,5.4-3.2,5C548.7,134.7,548.1,132,548.7,128.9L548.7,128.9z"/>
				<path style="fill:#F9D050;stroke:#000000;stroke-width:0.647;" d="M543.2,127.8c0.3-3.4,2-6.9,3.5-6.5c1.7,0,2.6,4.6,2.3,7.3
					c-0.3,3.5-1.7,5.7-3.2,5.4C544.4,133.9,542.9,131.2,543.2,127.8L543.2,127.8z M535.2,128.9c-0.9-3.8-2.6-6.5-3.7-6.1
					c-1.2,0.4-1.4,5-0.9,7.7c0.6,3.1,2.3,5,3.5,4.6C534.9,134.7,535.7,132,535.2,128.9L535.2,128.9z"/>
				<path style="fill:#F9D050;stroke:#000000;stroke-width:0.647;" d="M533.2,128.2c0-3.4,1.4-6.9,2.9-6.9c1.7,0,2.9,4.2,2.9,6.9
					c0,3.4-1.4,5.7-2.9,5.7C534.9,133.9,533.2,131.6,533.2,128.2z"/>
				<path style="fill:#F9D050;stroke:#000000;stroke-width:0.647;" d="M537.5,129.7c0-3.8,1.7-7.3,3.5-7.3c2,0,3.5,4.2,3.5,7.3
					s-1.7,5.7-3.5,5.7C539.2,135.5,537.5,133.2,537.5,129.7L537.5,129.7z M538.9,87.5c-0.6,3.1-2.6,5.7-1.2,10
					c-2.6-1.2-4.9-1.5-6.9,1.5c2.6-0.4,4.9,0.8,6,3.1c-2.3-0.4-3.4,1.2-4,3.1c2-0.8,4-1.5,4.9-1.2c-0.9,1.2-2.3,3.1-2.6,4.6
					c1.7-1.9,3.7-1.5,4.9-2.7c-0.9,2.7,0.9,5.4,2.3,8c-0.3-3.8,1.4-6.5,0.6-8.4c2.6,0.8,2.9,3.8,6.6,3.8c-1.4-1.1-2.3-5-4-5
					c0.9-0.4,4.3-0.8,4.9,0c-0.6-1.5-2.6-3.1-3.7-3.1c1.2-1.5,3.2-4.6,4.6-5.4c-2,0.4-5.2,0.8-6.3,3.1c2.9-3.1,2.3-8.8,5.5-9.6
					c-1.7-0.4-4.3,1.1-6.3,3.8c0.9-2.3,0.9-5.4,2-6.1c-2.3,0.8-4.9,4.6-5.8,6.5C540.4,91.8,539.5,88.7,538.9,87.5L538.9,87.5z
					 M540.4,93.7c0,1.2,0,3.4-0.3,4.2 M544.1,93.3c-0.6,0.8-1.7,3.4-1.7,5.7"/>
				<path style="fill:none;stroke:#000000;stroke-width:0.647;" d="M545.8,97.9c-0.9,0.8-1.7,1.9-2,3.4"/>
			</g>
		</g>
		<g id="e_1_">
			<path style="fill:#059334;stroke:#000000;stroke-width:1.438;" d="M515.3,135.8c-2,0-3.7-1.2-4.9-3.1c-2-3.4-7.5-5-9.8-1.9
				c-0.9,0.8-2,0.8-2.9,1.2c-1.4,0-3.2,1.9-2.6,5.7c1.1-1.2,1.4,0,2.3,0c0.6-0.4,0.3,0.4,0.3,1.2c0,1.9,3.2,5.7,6,5.4
				c3.2,0,4.6,1.5,5.2,2.3c0.9,1.1,0.3,0.8,0.9,2.7c0.9,1.2,1.2,1.5-0.3,3.1c-2,2.3-3.5,7.7,0,11.9c3.7,3.8,13.2,9.6,23.9-1.5
				c10.4-10.7,26.5-4.6,27.6-0.8c1.4,3.8,2,6.1,2.3,8c0.3,1.5,1.7,3.1,3.7,2.7c2,0,4.3,1.1,5.5,2.3c1.4,1.2,3.5,0.8,2.9-2.7
				c-1.2-10.7-6-12.3-6.6-17.2c2.9,0.4,4.9,0.4,6-1.2c0.9-1.5,2-4.2,3.2-5c0.9-0.8,0.9-1.5-0.3-1.2c-1.4,0.4-2.3,1.2-4.9,0.8
				C559.6,146.6,522.5,133.2,515.3,135.8L515.3,135.8z"/>
			<path style="stroke:#000000;stroke-width:1.438;" d="M574,148.9c-1.4,1.2-2.9,3.1-5.5,7.7c-2.9,5-11.5,10-22.1,10
				c-10.4,0-16.7-2.3-21.3-7.3c-2.6-2.7-4.6-4.2-6.3-5.4c-3.2-1.9-3.7-6.1-2.9-9.6c-0.9,1.9-1.4,3.8-3.2,3.4c-1.2,0-3.4,0-2.9,1.5
				c-0.3-0.8-0.3-1.9-0.6-2.3l-0.6-0.8c0.9,0.8,2.9-1.5,4.3-1.5c1.2,0.4,2.6-1.5,2.3-3.8c-0.3-1.9-0.6-3.4-0.9-5
				c2.3-1.5,32.5,5.7,38.5,6.5C559,142.7,576.3,146.2,574,148.9L574,148.9z"/>
			<path style="fill:#059334;stroke:#000000;stroke-width:1.438;" d="M519.4,134.3c2.9-3.8,6.3-5.7,9.8-4.6h0.9
				c1.7-1.9,5.8-2.3,8.1-0.8h1.2c3.5-1.5,10.1,0,12.4,3.1l0.9,0.8c7.8-0.8,12.4,3.8,17.8,11.1c0.6,0.8,1.4,2.3,2.9,2.7
				c1.7,0.4,2,1.5,0.6,2.7c-1.7,1.2-3.2,3.1-6,7.3c-2.6,4.6-10.9,9.2-21.3,9.2c-10.1,0-16.1-2.3-20.7-6.9c-2.6-2.7-4.6-4.2-6-5.4
				c-1.7-0.8-4-3.8-3.2-6.9c0.6-3.1-0.9-6.9-2-10.7c0.9-0.8,3.2-1.9,4.3-1.2L519.4,134.3L519.4,134.3z"/>
			<g>
				<path style="fill:#00493D;stroke:#000000;stroke-width:1.438;" d="M570.3,143.9c-5.5-7.3-10.1-11.9-17.8-11.1
					c0,0.4,0,1.5-0.3,2.3c4.6,2.3,11.2,9.2,14.1,14.2C567.4,147.7,569.4,145.8,570.3,143.9L570.3,143.9z M551.6,132
					c-2.3-3.1-8.9-4.6-12.4-3.1c0,1.5,0,3.8-0.6,5.4c2,1.1,3.7,3.8,5.5,6.5c1.2-0.4,4-1.5,5.5-1.9
					C550.1,137.4,551.3,133.9,551.6,132z M538,128.9c-2.3-1.5-6.3-1.2-8.1,0.8c-0.6,1.5-0.9,4.6-0.9,6.1c1.2,0,2.9,1.2,3.4,1.9
					c1.7-0.8,4-2.3,4.9-3.4C537.8,132.8,538.3,130.5,538,128.9L538,128.9z M519.4,134.3c2.9-3.8,6.3-5.7,9.8-4.6
					c-0.6,1.1-0.9,3.4-0.9,5.7c-3.2-0.4-7.2,0.8-8.9,2.3V134.3z"/>
				<path style="fill:#00493D;stroke:#000000;stroke-width:1.438;" d="M565.1,150c-2.6-5-8.9-10.7-13.2-13.4c0,0.4-0.6,1.9-0.9,3.1
					c1.7,3.4,5.2,11.1,6.6,15.3C559,154.2,563.1,151.9,565.1,150L565.1,150z M543.2,158.4c0.6-5.4,0.9-13,0.9-15.7
					c1.4-0.4,4.3-1.5,5.5-1.9c1.4,3.1,4.9,11.1,6.3,14.9C552.4,156.9,546.7,158.8,543.2,158.4z M533.2,140.1
					c1.4-0.8,3.4-2.3,4.9-3.8c1.2,1.1,3.4,3.8,4.3,5.4c0,3.4-0.9,13.4-1.2,16.9c-2.3,0-6-0.8-8.1-2.3
					C533.4,150.4,533.7,143.9,533.2,140.1z M518.8,144.6c0.3-0.8,0.6-3.4,0.6-4.6c2.3-1.9,8.1-3.8,12.4-0.8c0.3,3.8,0,13.4-0.3,15.7
					C527.7,151.2,521.7,145.8,518.8,144.6L518.8,144.6z"/>
			</g>
			<g>
				<path d="M504.4,137.8c-0.6,0-0.9-2.3-2-2.3c-0.3,0-1.2,0.4-1.4,0c0,0.8,0.3,1.5,0.6,1.9C501.8,138.5,503.3,137.8,504.4,137.8z"
					/>
				<path style="fill:none;stroke:#000000;stroke-width:1.438;" d="M504.4,144.3c3.5,0,4-5.7,5.8-6.1 M506.4,144.6
					c2.6,1.5,4.6-6.5,6.6-6.1 M501.2,134.7c0.9,0,1.4-1.5,2.9,0.4c0.6,0.8,1.4,1.1,2,1.1 M505.6,140.4c-1.2,2.3-3.2,3.8-4.3,3.1
					 M500.7,130.9c-0.9,0.8-1.4,2.3-2,3.4 M497.8,136.6v1.9"/>
			</g>
		</g>
	</g>
	<g transform="translate(.002 -.032)">
		<path style="fill:#FFFFFF;" d="M593.8,186.4v74.7c0,64.8-23,87-53.8,104.6C509.3,348.2,486,326,486,261.2v-74.7H593.8L593.8,186.4
			z"/>
		<path style="fill:#CF142B;" d="M540.1,249.7c2.6,0,6.6-3.1,10.1-7.7c3.7-5.4,10.1-7.3,16.7,0c6.6,7.3,10.6,4.2,14.1,0
			c3.5-4.2,6.3-5.7,12.9-5.7v-49.8H486v49.8c6.6,0,9.5,1.5,12.9,5.8c3.5,4.2,7.5,7.3,14.1,0c6.9-7.3,12.9-5.4,17,0
			C533.2,246.6,537.2,249.7,540.1,249.7L540.1,249.7z"/>
		<path style="fill:#0B50A0;" d="M540.1,288c3.4,0,10.4-5,12.1-6.1c6.3-5,10.9-0.4,14.7,1.9c4,2.3,11.5,5,16.1,0
			c4.6-5,7.2-4.6,10.4-4.6c0.6-5.7,0.6-11.5,0.6-18v-4.6c-4-1.2-6,0.4-10.4,5.4c-4.3,5-9.2,3.8-15.5,0.8c-6-3.5-12.1-9.6-18.1,0
			c-1.7,2.7-5.8,6.5-9.8,6.5c-4.3,0-8.1-3.8-9.8-6.5c-6.3-9.6-12.1-3.5-18.1,0c-6.3,3.1-11.5,4.2-15.8-0.8c-4-5-6-6.5-10.4-5.4v4.6
			c0,6.5,0.3,12.3,0.9,18c3.2,0,5.5-0.4,10.1,4.6c4.6,5,12.4,2.3,16.1,0c4-2.3,8.6-6.9,15-1.9C529.7,283,536.3,288,540.1,288
			L540.1,288z M540.1,304.5c4.3,0,9.5-2.3,14.1-5.7c5.8-4.2,9.8-2.3,15.5,1.5c6,3.8,10.9,2.7,14.4,0c1.7-1.5,3.2-4.6,6.9-3.5
			c-1.7,9.6-4.3,18-7.5,24.9c-5.8,1.9-8.9,1.9-15-1.5c-6-3.8-13.5-6.1-17.5-2.7c-3.7,3.1-7.8,4.6-10.9,4.6c-3.2,0-7.2-1.5-10.9-4.6
			c-4-3.4-11.5-1.2-17.5,2.7c-6,3.5-9.2,3.5-15,1.5c-3.2-6.9-5.8-15.3-7.5-24.9c3.7-1.1,5.2,1.9,6.9,3.5c3.2,2.7,8.3,3.8,14.1,0
			c6-3.8,10.1-5.7,15.8-1.5C530.6,302.2,535.7,304.5,540.1,304.5L540.1,304.5z M540.1,365.8c11.5-6.5,22.1-13.8,30.8-23.8
			c-2.3-1.2-3.7-0.4-5.8-2.3c-2-1.9-8.1-2.7-13.2,1.1c-5.5,3.4-7.8,4.2-11.8,4.2c-4,0-6.3-0.8-11.8-4.2c-5.2-3.8-11.2-3.1-13.2-1.1
			c-2,1.9-3.5,1.1-5.8,2.3C517.9,352,528.3,359.3,540.1,365.8L540.1,365.8z"/>
		<g id="h">
			<path style="fill:#F9D050;" d="M498.7,306.8l14.4-59l14.4,59l-37.7-36.4h46.6L498.7,306.8z"/>
			<path style="fill:#024919;" d="M501.5,301.4l29.9-29.1h-36.8l29.6,29.1L513,254.7L501.5,301.4z"/>
		</g>
		<g>
			<g id="h_1_">
				<path style="fill:#F9D050;" d="M552.7,306.8l14.4-59l14.4,59l-37.7-36.4h46.6L552.7,306.8z"/>
				<path style="fill:#024919;" d="M555.6,301.4l29.9-29.1h-36.8l29.6,29.1l-11.2-46.8L555.6,301.4z"/>
			</g>
		</g>
		<g>
			<g id="h_2_">
				<path style="fill:#F9D050;" d="M525.7,348.6l14.4-59l14.4,59l-37.7-36.4h46.6L525.7,348.6z"/>
				<path style="fill:#024919;" d="M528.6,343.2l29.9-29.1h-36.8l29.6,29.1l-11.2-46.8L528.6,343.2z"/>
			</g>
		</g>
		<path style="fill:none;stroke:#000000;stroke-width:1.438;" d="M593.8,186.4v74.7c0,64.8-23,87-53.8,104.6
			C509.3,348.2,486,326,486,261.2v-74.7H593.8L593.8,186.4z"/>
		<path style="fill:#E4C900;stroke:#806600;stroke-width:0.697;" d="M517.3,224.6c0,0-1.8,0-2.6-0.6c-0.8-0.6-1.6-2.8-1.6-2.8
			s-2,0.4-2.9,0.2c-1-0.3-2.3-1.7-2.3-1.7c0.9-0.2,1.6-0.4,2.5-1.3c0,0-1.8-0.1-2.8-0.6c-0.9-0.5-2.3-2-2.3-2
			c0.8-0.3,1.7-0.2,2.4-1.3c0,0-1.7,0-2.5-0.4c-0.8-0.4-2-1.9-2-1.9c1-0.1,1.9-0.3,2.5-1.4c0,0-1.8,0.1-2.5-0.3
			c-1-0.5-2.6-2.3-2.6-2.3c1-0.1,2-0.2,2.7-1l-0.6-1.5c-0.7-1.8-2.1-1.2-3-1.7c-0.9-0.5-1.4-1.8-1.5-2.6c-0.1-1.3,0.4-3.4,2.7-2.9
			c-1.1-2.3,0-3.9,1.2-4.6c1.1-0.6,2.2-0.5,2.9,2c0,0,1-1.1,1.6-1.3c0.8-0.2,1.7,0.1,2,1.1c0.1,0.4,0.2,1.3,0,1.8
			c-0.3,0.8-1,1.3-1.2,2.5c-0.2,1.3,0.7,3.6,0.7,3.6s4.3,4.6,6.3,7.1c1.1,1.3,3,4.2,3,4.2l0.1-0.1h4.3l0.4,9.7L517.3,224.6
			L517.3,224.6z"/>
		<path style="fill:#E4C900;stroke:#806600;stroke-width:0.697;" d="M0,0.1"/>
		<path style="fill:#FFEFA7;" d="M510.7,211.6c-2.5-5.7-3-4.8-6.1-7.6C506.8,209.1,506.6,208.7,510.7,211.6z"/>
		<path style="fill:#377BC8;stroke:#2C5AA0;stroke-width:0.697;" d="M505.4,192.7c0.8,1.4,0.9,2,0.7,3.6c0.4,0.5,0.8,0.7,1.1,0.5
			c0.6-0.3,1-1,0.8-1.9C507.5,194.5,507.4,193.3,505.4,192.7z M500.5,193.5c-0.3,0-0.8,0-1.3,0.2c1.2,0.8,1.4,1.3,1.8,2.8
			c0.5,0.3,0.9,0.2,1.2-0.1c0.5-0.6,0.6-1.4,0.1-2.2C501.8,194.1,501.5,193.5,500.5,193.5z M499,199.6c-0.5,0.2-1.3-0.5-3,1.2
			c1.3,0.1,1.7,0.4,2.5,1.6c0.6,0,0.9-0.3,1-0.7C499.9,200.8,499.7,200.1,499,199.6z"/>
		<path style="fill:#E4C900;stroke:#806600;stroke-width:0.697;" d="M538.6,229.1c-0.8-0.3-1.7-1.6-2.5-1.6c-0.8,0-1.4,0.6-1.9,1.5
			c-0.2,0.4,0.1,1.9,0.4,2.2l1.5,1.3c0,0-0.9,1.4-1,2.2c-0.1,0.7,0.2,1.2,0.6,1.8c0.5,0.7,0.6,1,1.4,1.1c0.5,0.1,1.5-0.2,1.5-0.2
			s0,1.1,0.2,1.6c0.5,0.9,1.3,1.8,2.2,1.6c0.7-0.1,1-0.3,1.4-1c0.3-0.6,0.2-2,0.7-2.6l2-2.5c0.9,0.7,0.9,1.8,0.7,2.8
			c0,0,1.3-1.1,1.7-1.9c0.4-0.8,0.6-2.7,0.6-2.7c0.8,1,1.1,1.9,0.9,3.1c0,0,1.3-1.1,1.7-1.9c0.5-0.9,0.9-2.8,0.9-2.8
			c0.6,0.8,0.7,1.9,0.5,3.2c0,0,1.5-1.3,1.9-2.4c0.3-0.8,0.5-2.3,0.5-2.3c1.8,0.2,3-0.9,3-1.9c0.1-0.8-0.6-2-2.1-2.3
			c0,0-0.5-1.1-0.7-1.8c-0.1-0.5-0.1-1.2,0-1.7c0.3-1.1,1-2,1.7-2.7c1-1.1,3.1-2.4,3.1-2.4l-0.6-4.2l-7.2-1.5l-8,2.6
			c1.5,0.9,4.7,3.9,4.5,5.1c-0.1,0.4-0.8,0.8-1.1,1.4c-0.2,0.4-0.1,1.1,0.2,1.5c0.3,0.6,1.1,0.8,1.4,1.3c0.2,0.5,0.3,1,0.1,1.5
			c-0.5,1-2.4,1.4-3.3,1.9c-1.6,1-4.4,3-4.4,3C540.2,229.8,539.4,229.4,538.6,229.1L538.6,229.1z"/>
		<path style="fill:#FFE66F;" d="M541.4,231.1c0,0,2-1.4,3.1-2.1c1.7-1.1,4.6-1.4,5.4-3.7c0,0,0.2-0.5,0.1-1.2
			c-0.1-1.1-1.5-1.9-1.1-3.1l0.4-0.9c0,0,1.5,0.8,1.9,1.5c0.3,0.5,0.4,1.4,0.8,1.8c0.5,0.4,1.6,0.2,1.6,0.2l0.7,2.7
			c0,0,1.1,0,1.5,0.7c0.1,0.2,0.1,0.5,0.1,0.8c-0.1,0.4-0.8,0.5-1,0.6c-0.6,0.3-1.4-0.6-1.4-0.6s0.3,1.8,0.2,2.4
			c-0.1,0.4-0.5,1.1-0.5,1.1c-0.3-0.7-0.5-1-1.9-2c0,0-0.2,1.6-0.5,2.6c-0.2,0.5-0.7,1.2-0.7,1.2s-0.3-0.9-0.6-1.2
			c-0.5-0.7-1.8-1-1.8-1s-0.3,1.9-0.6,3c-0.1,0.4-0.4,0.9-0.4,0.9s-0.3-0.9-0.5-1.2c-0.3-0.4-1.1-0.8-1.1-0.8l-2.7,3
			c0,0-0.4,1.8-1.1,2.3c-0.4,0.3-0.6,0.2-1-0.1c-0.2-0.1-0.4-0.4-0.4-0.7c-0.2-0.9,0.3-2,0.3-2s-1.5,0.8-2.4,0.4
			c-0.4-0.1-0.8-0.5-0.8-1c0-1.2,1.2-2.3,1.2-2.3s-1.4-0.5-2-1.5c-0.2-0.4-0.3-1-0.1-1.3c0.2-0.4,0.8-0.4,1.1-0.3
			c0.7,0.2,1,1.3,1.8,1.5L541.4,231.1L541.4,231.1z"/>
		<path style="fill:#FFEFA7;" d="M550.8,227.6c-3.5-0.2-6.3,2-9.1,4.6C545.2,232.2,548,230.6,550.8,227.6L550.8,227.6z"/>
		<path style="fill:#EFD300;stroke:#806600;stroke-width:0.697;" d="M553.2,216c0,0-0.1,3.5-1.2,4.3c-0.5,0.4-1.1,0.5-1.6,0.3
			c-0.5-0.3-0.8-1-1-1.6c-0.1-0.4-0.3-1.5-0.3-1.5s-1.7-1-2.5-1.1c-1.3-0.1-3.9,0.9-3.9,0.9c0.4-1.8,1.6-3.3,2.8-4.7l4.3-0.4
			L553.2,216L553.2,216z"/>
		<path style="fill:#EFD300;stroke:#806600;stroke-width:0.697;" d="M0,0.1"/>
		<path style="fill:#EFD300;stroke:#806600;stroke-width:0.697;" d="M0,0.1"/>
		<path style="fill:#FFF1A1;" d="M560.6,189.1l0,0.1L560.6,189.1L560.6,189.1L560.6,189.1z M560.6,189.3l-0.2,1.3l-1.1,1.5l-1.3,0.5
			l-2.1-0.3l-3.2-0.6h-3.6l-4,0.8l-3.9,1.3l-2.2,1.3c0,0,1.5,0.4,2.3,0.3c2.3-0.2,4.4-1.5,6.7-2c1.4-0.3,2.7-0.6,4.1-0.5
			c1.8,0.1,3.5,1.1,5.3,1.2c0.9,0.1,2,0.3,2.8-0.3c0.5-0.4,1-1.1,1.1-1.9C561.2,191,560.7,189.6,560.6,189.3L560.6,189.3z
			 M571.9,197.3l-4.7,0.4l-5.6,1.8c6.4,1.5,14-4.8,16.9,3.7l0-1.3l-1.3-2.6l-1.9-1.5L571.9,197.3L571.9,197.3z M578.7,203.2
			L578.7,203.2l0.1,0.2C578.7,203.3,578.7,203.3,578.7,203.2L578.7,203.2z M549.5,211.3c7.1,6.1,8,15.4,17.3,11.3
			C558.4,223.6,557.9,212.7,549.5,211.3z M542.3,212.8c-8.2,4.4-10.4,4.2-11.4,5.8c-0.4,0.7-0.5,1.5-0.9,2.5
			c-0.4,0.9-1.2,1.9-2.1,2.7C533.8,223.5,538.4,215.3,542.3,212.8L542.3,212.8z M570.5,221.8c0.8,4.5,2.9,7.2,5.2,9.9
			C574.7,227.2,573,224.2,570.5,221.8z M516.4,227.6c-4.6,0.5-4.8,2.9-6.6,4.1C514.6,231,514.2,230.2,516.4,227.6z"/>
		<path style="fill:none;stroke:#806600;stroke-width:0.697;" d="M561.5,193.1c1-0.2,3.1-0.8,3.8-1.9l1.2-1.9
			c-0.2,3.2-1.2,5.3-3.4,6.7c-1.7,1.1-3.7,1.4-5.6,1.1c-1.2-0.2-3.4-1.1-3.4-1.1c1.2,2.1,0.6,3.6-0.9,4.6c0,0,0.2-2-0.2-2.3
			c-1-0.6-2.1,0.2-3.1,1.1c-0.8,0.7-1.9,1-2.7,1c-1.3,0-2,0-3.3-0.7c-0.7-0.4-2-2-2.6-1.8c-1.2,0.3-2.7,0.5-3.3,2
			c-0.2,0.5-0.2,1.3,0,1.8c0.5,1.2,1.5,1.8,2.4,2.2c2.7,1,4.9,1,7.6,0.3c2.7-0.6,5.9-1.9,8.7-2.6c2.7-0.8,6.2-2.2,8.3-2.9
			c3.6-1.2,5.3-1.4,8-1.3c4.8,0.1,6.3,3.9,6.2,8c-0.1,4.2-3,6.1-5.5,7.3c-4.3,2.1-10.3,0.9-14,0.8c0,0,1.3,1.6,1.8,2.3
			c0.7,0.8,1,2.6,1.8,3c1.1,0.6,2.9-0.6,4-0.7c1.7-0.1,4.5,0.1,4.5,0.1c0.4-0.7,0.7-1.1,1.2-1.3c0.3-0.1,0.8-0.1,1.1,0
			c0.5,0.3,0.9,1.2,0.6,2.9c0,0,0.4,0.7,0.9,0.9c0.6,0.2,1.2,0,1.6,0.2c0.5,0.3,1.4,1,1.4,1s-0.9,0.4-1.3,0.8c-0.3,0.2-0.6,1-0.6,1
			s1.3,0,1.8,0.4c0.6,0.4,1.1,1.4,1.1,1.4s-0.8-0.1-1.1,0.3c-0.3,0.3-0.7,1-0.7,1s1.5-0.2,2,0.5c0.4,0.6,1,1.6,1,1.6s-0.8,0-1.2,0.1
			c-0.2,0.1-0.7,0.5-0.7,0.5s1,0.8,1.5,1.7c0.4,0.7,0.5,2.4,0.5,2.4s-0.6-0.7-1-0.9c-0.2-0.2-0.8-0.1-0.8-0.1l0.2,3.4
			c0.1,0.8,0.8,1.7,1,2.4c0.2,0.8,0.1,1.1-0.2,1.8c-0.4,0.9-1.2,1.1-2,0.9c-0.4-0.1-1-0.9-1-0.9s-0.4,1.1-0.7,1.5
			c-0.5,0.6-0.7,0.7-1.3,0.7c-0.5,0-0.9-0.4-1.2-0.9c-0.4-0.6-0.6-2.3-0.6-2.3l-1.4,0.4c-0.3,0.1-1.2-0.6-1.4-1
			c-0.2-0.9-0.2-1.9,0.2-2.6c0.4-0.7,1.5-0.7,2.1-1.1c0.7-0.5,1.4-2,1.4-2s-2.4-2.7-3.4-4.4c-0.6-0.9-1.5-3.1-1.5-3.1
			s-3,1.4-4.2,1.6c-2.8,0.7-5.8,0-5.8,0c-4.3,0-7.2-9.8-11.1-12.1c-1.2-0.7-1.8-0.6-3-0.2c-4.5,1.5-9.4,10-13.9,11.8
			c-1.8,0.7-5.7,1-5.7,1s-0.6,2-1.2,2.6c-0.7,0.6-2.3,0.7-2.3,0.7s-0.4,2.4-0.9,3.3c-0.5,1-1.9,1.9-1.9,1.9c0.2-1.1,0.3-1.9,0-3.3
			c0,0-0.7,1.9-1.4,2.8c-0.6,0.8-2,1.8-2,1.8c0.1-1,0.4-2,0-3.2c0,0-0.6,1.9-1.1,2.7c-0.5,0.7-1.8,1.5-1.8,1.5
			c0.3-1.1,0.4-2.2,0-3.3c0,0-0.6,2-1,2.7c-0.7,0.9-2.3,1.9-2.3,1.9c0.3-1.1,0.5-2.3,0.3-3.4l-1.1,0c-1.4,0-1.4,1.8-2.1,2.7
			c-0.6,0.8-1.6,0.8-2.1,0.6c-0.8-0.5-1.6-2-0.6-4.4c-1.8,0.3-2.7-1.5-2.7-3.1c0-1.5,0.4-2.9,2.1-2.7c0,0-0.2-1.3-0.1-2
			c0.1-1,0.6-1.8,1.3-1.7c0.3,0,0.8,0.3,1.1,0.8c0.4,0.7,0.5,1.6,1.1,2.4c0.7,0.8,2.5,0.8,2.5,0.8s3.4-2.9,5.6-4.1
			c1.2-0.6,4.5-1.6,4.5-1.6l0.1-13.3c2,0.2,1.1,0.2,2.9,0.1c2.4-0.1,8.9,1.5,8.9,1.5l4.6-0.5c0,0,7.6-1.9,11.3-2.4
			c1.8-0.3,3.7-0.5,5.5-0.3c2.8,0.2,5.1,1.3,7.8,1.6c2.2,0.2,3.7,0.6,5.9,0.3c3.1-0.3,8.7,0.1,10.5-4.5c0.5-1.2,0.2-2.8-0.5-3.7
			c-0.9-1.2-1.6-1.7-2.8-1.2c-0.6,0.2-1.4,0.9-1.5,1.8c0,0.5,0,0.9,0.3,1.5c0.5,1,1,1.4,1,1.4s-1.6,0.1-2.2-0.6c-0.6-0.8-1-3-1-3
			c-0.3,0.6-0.5,1.3-0.5,2.2c0,0.8,0,1.2,0.6,2.4c0,0-1.4-0.1-2.1-1.3c-0.5-0.8-0.8-3.1-0.8-3.1c-0.4,0.6-0.7,1.6-0.7,2.3
			c0,1,0.3,1.5,0.4,2.6c0,0-1.4-0.6-2-1.8c-0.4-0.9-0.7-3.2-0.7-3.2c-1.6,0.6-4.7,1.4-8.1,2.5c-2.4,0.8-6,1.9-8.6,2.4
			c-4.4,0.8-7.6,0.4-10.3-1.3c-1.4-0.9-2-1.7-2.4-3.8c-0.2-1.1,0.1-2.8,0.8-4c1-1.8,2.7-3.1,4.6-3.8c0,0,5-2,7.9-2.4
			c4.7-0.6,6.6,0.3,8.6,0.7c1.3,0.2,2.6-0.2,3-0.9c0.3-0.6,0.9-1.2,0.1-2.7c0,0,1,0,1.6,1.8C561.8,191.4,561.5,193.1,561.5,193.1
			L561.5,193.1L561.5,193.1z"/>
		<path style="fill:#FEE46E;" d="M527.5,211.9c1.1,0.9,2.3-0.3,2.5-0.4c0,0-0.5-0.5-0.9-1.7c-0.2-0.8-0.3-2.2-0.3-2.8
			c-0.1-2.4,0.6-2.8,0.7-2.6c0,0,1.2-0.5,1.7-1.1c0.5-0.5,0.7-1.3,0.8-2.1c0.2-1.2-0.1-2.9-0.1-2.9c-1.7-0.1-2.2,0.2-2.6,0.9
			c0,0,0-1.2-0.3-2.3c-0.1-0.5-0.4-1.3-0.7-1.9c-0.3-0.5-0.6-0.8-0.6-0.8c0,0.6-0.4,1.2-0.6,1.6c0,0-0.2-2.4-0.6-3.2
			c-0.3-0.7-1.3-1.5-1.3-1.5c0,0-1.1,0.1-1.6,0.4c-0.7,0.4-1.8,2.3-1.8,2.3c0-0.5-0.1-1.3,0.1-1.8c0,0-0.3,0-0.8,0.2
			c-0.4,0.2-1,0.7-1.3,1.1c-0.6,0.7-1.1,1.7-1.1,1.7c0-0.9-0.3-1.5-1.8-2.6c0,0-1,1.2-1.3,2.3c-0.2,0.7-0.4,1.6-0.2,2.4
			c0.2,0.8,1,2.1,1,2.1c0.1-0.1,0.6,0.7-0.5,2.7c-0.3,0.5-0.9,1.6-1.4,2.1c-0.8,0.7-1.4,0.8-1.4,0.8c0.4,1.3,0.5,1.9,2,2.2
			c-3.4,3.2-3.7,8.4-1.2,12.7c0.2-0.5,0.7-1.7,1.1-2.2c0,0,0,2.5,1,3.8c0.3,0.4,0.5,2.8,0.9,3.5c0.4,0.7,1,1.4,1,1.4
			s0.4-1.9,1.1-2.2c0.7-0.3,1.9-0.8,2.3-0.9c0.8-0.3,2.3-2.7,2.3-2.7l-0.3,2.8C527.6,221.4,528.6,217.4,527.5,211.9L527.5,211.9z"/>
		<path style="fill:#504416;" d="M518.9,204.7c0.2,1.7-0.4,5-0.9,5.9l2.9,1.5l2.8,0.4c-0.2-1.6,0.9-4.6,1.5-5.6l-2.1,0.1l-0.9-1.2
			l-1.7,0.5L518.9,204.7L518.9,204.7z"/>
		<path style="fill:#FFFFFF;" d="M519.5,205.6c-0.4,1.8-0.2,2.1-0.1,2.9l0.8-2.4L519.5,205.6L519.5,205.6z M523.5,207.4l-0.2,2.6
			c0.3-0.6,0.7-0.7,1.1-2.5L523.5,207.4z M519.4,209.2c-0.3,0.6-0.7,0.7-1.1,2.5l0.8,0.1L519.4,209.2z M523,210.6l-0.8,2.4l0.7,0.5
			C523.3,211.6,523.1,211.3,523,210.6L523,210.6z M0,0.1 M0,0.1 M0,0.1"/>
		<path style="fill:#E4C900;" d="M519.8,196.3c-0.4-0.1-0.9,0-1.1,0.4c-0.2,0.2-0.2,0.9-0.2,0.9l0.6,0l0.7,0.3l1.5,0.9l1.6-0.1
			c0,0-0.9-0.5-1.3-0.8C521,197.4,520.5,196.5,519.8,196.3L519.8,196.3z M527.5,199.3c-0.6-0.2-1.2,0.2-1.8,0.2
			c-0.5,0-1.5-0.3-1.5-0.3l1.3,1.2l1.6,0.3l0.7,0.3l0.5,0.4c0,0,0.3-0.6,0.2-0.9c-0.1-0.5-0.5-0.9-0.8-1.1
			C527.7,199.3,527.6,199.3,527.5,199.3L527.5,199.3z M518.2,210.7c-1.5,5,4.4,7.5,5.3,2C521.9,212.5,520.2,212.2,518.2,210.7z"/>
		<path style="fill:#806600;" d="M518,210.2l-0.1,0.4c-0.4,1.3-0.3,2.6,0.1,3.5c0.4,0.9,1.1,1.6,1.9,1.9c0.8,0.3,1.6,0.3,2.4-0.2
			c0.7-0.5,1.3-1.5,1.6-3l0.1-0.4l-0.3,0c-1.6-0.1-3.2-0.5-5.2-2L518,210.2L518,210.2z M518.2,210.8c1.7,1.2,3.8,1.8,5.3,1.9
			c-0.2,1-0.7,2.2-1.2,2.6c-0.6,0.4-1.7,0.5-2.4,0.3c-0.6-0.3-1.5-1.3-1.8-2.1C517.8,212.8,518,211.8,518.2,210.8L518.2,210.8z"/>
		<path style="fill:#377BC8;stroke:#2C5AA0;stroke-width:0.697;" d="M520.6,206.3c-0.7,3.3-1.4,7-0.9,10.4c1.8-2.5,2.7-6.1,3.4-9.4
			c0-0.1-0.5-0.4-0.6-0.5c-0.2-0.3-0.4-0.9-0.4-0.9s-0.5,0.4-0.8,0.5C521.1,206.5,520.6,206.3,520.6,206.3z"/>
		<path style="fill:#377BC8;stroke:#2C5AA0;stroke-width:0.697;" d="M0,0.1"/>
		<path style="fill:none;stroke:#806600;stroke-width:0.697;" d="M527.5,211.9c1.1,0.9,2.3-0.3,2.5-0.4c0,0-0.5-0.5-0.9-1.7
			c-0.2-0.8-0.3-2.2-0.3-2.8c-0.1-2.4,0.6-2.8,0.7-2.6c0,0,1.2-0.5,1.7-1.1c0.5-0.5,0.7-1.3,0.8-2.1c0.2-1.2-0.1-2.9-0.1-2.9
			c-1.7-0.1-2.2,0.2-2.6,0.9c0,0,0-1.2-0.3-2.3c-0.1-0.5-0.4-1.3-0.7-1.9c-0.3-0.5-0.6-0.8-0.6-0.8c0,0.6-0.4,1.2-0.6,1.6
			c-0.2-2.2-0.6-3.4-1.9-4.7c-1.6,0-2.5,1.1-3.4,2.6c0-0.5-0.1-1.3,0.1-1.8c0,0-0.3,0-0.8,0.2c-0.5,0.2-1,0.7-1.3,1.1
			c-0.6,0.7-1.1,1.7-1.1,1.7c0-0.9-0.3-1.5-1.8-2.6c0,0-1,1.2-1.3,2.3c-0.2,0.7-0.4,1.6-0.2,2.4c0.2,0.8,1,2.1,1,2.1
			c0.1-0.1,0.6,0.7-0.5,2.7c-0.3,0.5-0.9,1.6-1.4,2.1c-0.8,0.7-1.4,0.8-1.4,0.8c0.4,1.3,0.5,1.9,2,2.2c-3.4,3.2-3.7,8.4-1.2,12.7
			c0.2-0.5,0.7-1.7,1.1-2.2c0,0,0,2.5,1,3.8c0.3,0.4,0.5,2.8,0.9,3.5c0.4,0.7,1,1.4,1,1.4s0.4-1.9,1.1-2.2c0.7-0.3,1.9-0.8,2.3-0.9
			c0.8-0.3,2.3-2.7,2.3-2.7l-0.3,2.8C527.6,221.4,528.6,217.4,527.5,211.9L527.5,211.9z"/>
		<path style="fill:none;stroke:#806600;stroke-width:0.697;" d="M0,0.1"/>
		<path style="fill:#2B2200;" d="M520.2,198.5c0.3,0.1,0.4,0.4,0.4,0.8 M521.3,199.3c0.2,0.3,0.7,0.4,1,0.2c0.4-0.1,0.5-0.5,0.3-0.7
			s-0.7-0.4-1-0.2c-0.1,0-0.2,0.1-0.3,0.2c-0.1,0-0.1,0-0.2,0L521.3,199.3z M526.2,200.8c0.3,0.1,0.4,0.4,0.4,0.8 M527.2,201.6
			c0.2,0.3,0.7,0.4,1,0.2s0.5-0.5,0.3-0.7c-0.2-0.3-0.7-0.4-1-0.2c-0.1,0-0.2,0.1-0.3,0.2c-0.1,0-0.1,0-0.2,0L527.2,201.6z M0,0.1"
			/>
	</g>
</g>
</svg>
