<?xml version="1.0" encoding="utf-8"?>
<!-- Generator: Adobe Illustrator 25.2.1, SVG Export Plug-In . SVG Version: 6.00 Build 0)  -->
<svg version="1.1" id="Layer_1" xmlns="http://www.w3.org/2000/svg" xmlns:xlink="http://www.w3.org/1999/xlink" x="0px" y="0px"
	 viewBox="0 0 720 480" style="enable-background:new 0 0 720 480;" xml:space="preserve">
<path id="a" style="fill:#FFFFFF;" d="M-90-60"/>
<g transform="matrix(-1 0 0 1 900 0)">
	<path id="a_1_" style="fill:#FFFFFF;" d="M810-60"/>
</g>
<g>
	<path style="fill:#FFFFFF;" d="M0,0h720v480H0V0z"/>
	<path style="fill:#D57800;" d="M581.7,83.2l-1.9,0.8l-0.7,0.3l-2.3-0.1l-2.1,1l-3.8,2.6l-0.2,0.1l-1.4,0.4l-1.3-0.6l-0.7,0.3
		l-0.3,1.5l-0.7,1.1l-0.9,0.6l-3,0.3l-2.6,1.3l-3.3-0.9l-1.5,0.6l-3.3,3l-1.7,0.8l-0.6,0l-2.2-0.1l-0.9,0.3l-1.4,1.4l-2.7,0.2
		l-0.8,0.6l-1.3,2.6l-1.4,1.4l-0.8,0.2l-0.9-0.3l-0.7,0.1l-0.3,1.7l-0.6,0.7l-1.8,0.6l-1.4,1.2l-1.2,0.6l-1.7,0h-0.4l-1.7,0.9
		l-3.1,0.3l-1.3,1.2l-0.3,0.3l-0.6,0.4l-1,0.6l-0.2,0.1l-1.2-0.2l-1.4,0.6l-0.6-0.9l-1,0.6l-1.3,0.1l-1.6-0.7l-1.2-0.5l-0.9,0.1
		l-0.3,1.6l0,0.2l-0.9,1.2l-1.7,1.1l-0.2,0.3l-2,2.6l-3.8,4l-3.2,1.6l-3.3,1l-2.3,1.9l-6.1,3l-9.6,4.8l-2,0.6l-2.8,0.4l-5,1.8
		l-4.4,1.3l-0.2,0.1l-0.9,0.3l-6.2,1.9l-2.9-0.3l-1.7,0.6l-4.5-0.5l-3.1,0.1l-2,0.4l-3.7,1.8l-6.3,3l-2.1,1.9l-3.2,1.7l-3.8,1.2
		l0-1.6l0-0.1l-1.3,0.4l-0.9,0.3l-3.1,0.5h-1.7l-1.1-0.3L415,149l-6.3,2.1l-7,0.7l-3.5,1.1l-2.6,0l-1.6,0.5l-3.2,0.4l-1.1-0.3
		l-0.3-0.1l-9.4,0.4l-4.3-0.5l-2.1,0.5l-3.4-1.2l-5-0.6l-1.2-0.4l-2.6-0.8l-1.2,0.7l-0.9,0.1l-2.1-0.8l-0.8,0l-1.8,0.6l-1-0.3
		l-0.9-0.8l-2.2-0.3l-1.3-1.1l-7.5,1l-2-0.6l-6.8-2l-1.1,0.1l-1.4,1l-2,0.7l-1.8,0.5l-2.4,0.1l-2.8-0.7l-2.9-1.4l-1.1-0.3l-2.4,0.2
		l-0.7,0.1l-4.4-2.3l-5.6-3.5l-3.8-1.8l-1.4-0.2l-0.2,0.7l0.7,2.2l0.2,2.2l-0.1,2.1l0,1.3l0.4,1.1l1.4,1.5l0.6,1.5l0.4,4.2l0,4.3
		l-0.7,6.8l-0.2,1l-0.8,3.5l-0.7,3.3l-2.8,8.7l-0.8,1.1l-1.9,1.3l-4.3,3l-3.2,1.8l-1,0.4l-2.6,0.2l-1.6-0.1l-2-1.1l-2-0.5l-2.6-1.9
		l-2.9-0.6l-3.2-1.8l-0.8-1l-1.7-0.2l-2.4-0.7v0l-0.9-0.3l-0.6-0.2l-3-0.1l-2.8-1.3l-1.5-0.4l-2-0.1l-2.1,1l-1.1,0.5l-1.4-0.5
		l-1,0.1l-1.1,1.7l-0.1,0.3l-0.8,0.4l-1,0l-0.8,0l-0.8,0.4l-1.1,0.5l-1,0.4l-0.5,0.2l0,0l-0.3,0.1l-0.5,0.1l-0.6,0.1l-1.1-0.7
		l-0.6-0.4l-1-0.2l-0.5,0.4l-0.1,1.8l-0.5,1.1l-1.6,1.4l-1.6,1.4l-1.1,1.6l-2.9,6.7l-1.8,2.7l-0.6,0.6l-1.9,2.1L222,207l-3.9,3.1
		l-3.7,1.4l-3.2,0.7l-1.6,0l-3-0.4l-2.7-0.8l-2.9-1.8l-3.2-2.6l-4.6-4.6l-0.7-0.4l-0.1-0.1l-1.5-0.9l-1.1,0l-0.4,0.7l-0.2,1
		l-0.2,0.9l-0.5,5.1l0,0.3l0.3,2.1l3.5,4.9l1.1,2.6l0.2,0.3l0.7,1.2l0.6,0.9l0.1,0.1l1.2,3.6l-0.8,2l0.4,1.4l-1.1,0.8l-0.2,1.2
		l3.2,4l0.7,1.7l-0.8,2.4l-1.2,1.3l-0.3,0.4l0.2,1l1.5,1.3l2.5,2.2l1.3,3.3l1,0.9l1.2-0.2l0.6,0.5l1,0l1,1l0.6,0.3l1,0.5l0.8,1
		l0.2,3.1l1.5,3.9l0,2.1l0,0.3l0.9,1.6l0.3,1.2l-0.5,3.3l1.2,1l1.3-0.3l0.8,0.1l1.3,1.1l1.6,2.4l1.5-0.2l1,0.5l4.7,4.3l1.1,0.5
		l0.1,0l0.8,0.4l1,1l1.5-1l0.2,0l1.6-0.1l0.7,0.5l1.4,0.9l1.8,0l3.9,1.2l1.7,0.4l3.4,2.1l1.4,0.9l0.9,0.7l1.1,0.9l2.3,1l2,0.5
		l1.1,0.3l0.8,0.3l0,0h0l0,0.1l4.2,1.6l2.3,0.5l2.1,0.8l1.5,0.6l1.1,0l1.6-1.3l1.5-0.1l1.3,0.3l1.3-0.2l2-1.2l0.4-0.6l1.4-0.7
		l4.8-0.6l1.4,0.5l3.6-1.6l2.4,0.7l2.1-0.8l4.6,1l1.2,0.9l1.4,1.6l0.2,0l1.5,0l-0.6,1.1l2,2.1l1.8,2.8l0.1,0.4l1.3,3.9l1,1.4
		l0.7,1.9l0,1.3l-1.1,0.8l-0.2,0.5l-0.1,0.2l0.2,0.5l0.4-0.2l0.8-0.4l0.9-0.1l1.7,0.2l1.1,0.1l1.7-0.9l1.1-0.6l1.8,0.8l2,0l0.8,0.4
		l2.4,1.1l1.2,0.1l0.5-0.3l0.3-0.7l-0.1-0.8l-0.9-1.1l-2-2.4l-0.8-1.2l-0.6-1.7l-0.2-2.2l-0.1-1.5l0.3-2l0.5-0.7l0.4-1.6h0l0.1-0.4
		l1.1-1.5l3-1.9l3.2-2.9l2.5-1.7l2.6-1.1l0.1-0.3l0.3,0.1l6.6-2.3l0.1,0l3-0.5l19.9,1.4l0.7-0.2v0l0.7-1.9l0.4-0.3l0.2-0.2l2.2-1
		l1-0.1l2.8,0.7l1.2,0.3l1.9-1l1.3,0l2.7-1.5l1.7,0l0.6-0.3l3.3-2.4l3.2-0.9l0.8-0.4l0.3-0.2l3.2-1.7l2.1-1.6l1.8-0.9l2-0.5l5.1-0.4
		l1-1.7l2.2-0.3l1.3-1.5l1.5-0.6l1.1-1.6l0.9-1.3l1.3-0.7l4.1-0.3l4.8,0.6l0.6-0.4l1.1-3.9l1.1-0.7l3.1-4.5l0-1.6V243l0.5-1.9
		l-0.3-3.5l0.4-3.6l1.9-4.5l1.7-1.8l2.7-1.8l1.4-0.6l2-0.3v0l0.3,0l0.5-0.1l6.7-0.1c0.1-0.1,2.5,0,2.5,0l2.2,0l5.7,1l0.4,0.1
		l1.9,0.6l2.2,1.7l2.4,2.3l0.4,0.4l1.5,0.6l0.5,0.2l1.3-0.2l1.8-0.9l1.4-1.1l1.8-1l0-0.1l1-1.6l0,0l0,0v0h0l0.4-0.6l3.6-1.4l4.2-0.2
		l0.5-0.3l0.3-0.1l1.1-1.3l1,0l2.5,0.9l1.8-0.4l1.4,0.6l1.1-0.1l2.1-0.2l2.2,1.5l1.3,0.2l4.5,2.6l0.2,0l0.1,0l0.3,0l0.5-0.2l0.8-0.2
		l0.1,0l0.1,0.1l0.5,0.7l0.7,0.1l0.8-1.1l-0.3-0.5l-0.1-0.2l-1.6-0.3l-1.5-2.5l1.4-1.5l-2.2-2.7l-0.4-0.4l-0.1-0.2l-0.7-1.1
		l-3.8-5.8l-4.9-3.9l-1.7-1.4l0,0l-0.6-0.5l-2.6-2.7l-1.9-2.5l-0.2-0.5l-0.4-0.8l-1.1-2.5l-2-1.5l-1.6-1.8l-0.1-0.1l-3.3-4.5
		l-0.5-0.8l-0.8-0.5l-1.7,0l-0.2-0.2l-0.1-0.1l0.1-0.1l0.8-0.8l0.9-0.2l0.4-0.9l-1.7-4.9l0-0.2l-0.1-1.6l1.4-7.1l0.2-0.9l2.3-4.8
		l1.5-1.2l1.6-3.1l1.4-2l1.3-1.3l0.2-0.1l2.3-1.4l2-0.3l1.9-0.3l3.3,1l3.1-0.1l0.6-0.1l1.4-0.2l2.3-0.7l1.1-0.7l0.6-0.9l1.2-4
		l0.4-1.3l0.7-1.4l4.2-4.9l3.2-3l7.2-5.3l3.5-2.1l1.8-1.1l16.1-7.2l4.2-4.2l2.2-2.2l3.9-2.6l4.5-1.8l3.9-3.1l0.8-1.1l1.1-3.4
		l0.9-0.2l0.8-1.7l0.2-0.5l3.2-2.2l0.4-0.2l12.3-6.2l1.8,0.2l1-1.4l3.6-0.6l0.7-0.1l0.9-0.4l0.8-1.3v-0.3l0.1-3.4l0.8-0.9l0.4-2.3
		l0.4-0.5l0.4-0.5l1-0.7L581.7,83.2L581.7,83.2L581.7,83.2z"/>
</g>
</svg>
