<?xml version="1.0" encoding="utf-8"?>
<!-- Generator: Adobe Illustrator 25.2.1, SVG Export Plug-In . SVG Version: 6.00 Build 0)  -->
<svg version="1.1" id="Layer_1" xmlns="http://www.w3.org/2000/svg" xmlns:xlink="http://www.w3.org/1999/xlink" x="0px" y="0px"
	 viewBox="0 0 720 480" style="enable-background:new 0 0 720 480;" xml:space="preserve">
<g>
	<rect width="720" height="480"/>
	<rect style="fill:#FFFFFF;" width="720" height="320"/>
	<rect style="fill:#CE1126;" width="720" height="160"/>
	<g>
		<path style="fill:#FFFFFF;stroke:#C09300;stroke-width:1.2703;stroke-linejoin:round;" d="M360.6,241.9l54.8,50.9l-3.9-92.4
			c-0.6-14-12.7-10.8-21.6-5.7c-9,5.7-19.2,5.7-30,1.9c-10.8,3.8-21,3.8-30-1.9c-8.8-5-21-8.3-21.6,5.7l-3.9,92.4L360.6,241.9
			L360.6,241.9z"/>
		<g id="w">
			<path style="fill:#C09300;" d="M314.8,197.2L311,287l-6.4,5.7l3.9-92.4C310.3,199.1,313.5,197.2,314.8,197.2L314.8,197.2z"/>
			<path style="fill:#C09300;" d="M322.5,203.6l-3.2,75.2l-6.4,6.6l3.9-86.8C318,199.8,321.8,202.9,322.5,203.6L322.5,203.6z"/>
			<path style="fill:#C09300;" d="M329.5,209.4l-2.5,62.7l-5.2,5l3.2-71.5C326.3,206.8,328.8,208.7,329.5,209.4L329.5,209.4z"/>
			<path style="fill:#C09300;" d="M337,212.6l-2.5,53.4l-5.1,4.1l2.5-59.5C333.3,211.2,335.8,212.6,337,212.6L337,212.6z"/>
			<path style="fill:#C09300;" d="M344,212.6l-1.8,44.5l-5.2,5.1l2-49C340.3,213.1,343.5,213.1,344,212.6L344,212.6z"/>
		</g>
		<g transform="matrix(-1,0,0,1,900,0)">
			<g id="w_1_">
				<path style="fill:#C09300;" d="M405.2,197.2L409,287l6.4,5.7l-3.9-92.4C409.7,199.1,406.5,197.2,405.2,197.2L405.2,197.2z"/>
				<path style="fill:#C09300;" d="M397.5,203.6l3.2,75.2l6.4,6.6l-3.9-86.8C402,199.8,398.2,202.9,397.5,203.6L397.5,203.6z"/>
				<path style="fill:#C09300;" d="M390.5,209.4l2.5,62.7l5.2,5l-3.2-71.5C393.7,206.8,391.2,208.7,390.5,209.4L390.5,209.4z"/>
				<path style="fill:#C09300;" d="M383,212.6l2.5,53.4l5.1,4.1l-2.5-59.5C386.7,211.2,384.2,212.6,383,212.6L383,212.6z"/>
				<path style="fill:#C09300;" d="M376,212.6l1.8,44.5l5.2,5.1l-2-49C379.7,213.1,376.5,213.1,376,212.6L376,212.6z"/>
			</g>
		</g>
		<path style="fill:#C09300;stroke:#C09300;stroke-width:1.0739;" d="M362.5,252l7.7,35l-2.5,2.5l-2.6-2l-4.4-31.2l1.8,31.2
			l-2.5,3.2l-2.5-3.2l1.8-31.2l-4.4,31.2l-2.6,2l-2.5-2.5l7.7-35H362.5L362.5,252z"/>
		<g id="b">
			<path style="fill:#FFFFFF;stroke:#C09300;stroke-width:1.1888;stroke-linejoin:round;" d="M342.8,236.7l-15.3,54.2l21,3.2l9-40.7
				L342.8,236.7L342.8,236.7z"/>
			<path style="fill:none;stroke:#C09300;stroke-width:1.2705;stroke-linejoin:round;" d="M337.7,255.2l1.8,4.5l9.9-9.5"/>
			<path style="fill:none;stroke:#C09300;stroke-width:1.2705;stroke-linejoin:round;" d="M344.6,243.9l2.1,19.5l6.3-8.3"/>
			<path style="fill:none;stroke:#C09300;stroke-width:1.2705;stroke-linejoin:round;" d="M350.5,258.4l3.4,11.9"/>
			<path style="fill:none;stroke:#C09300;stroke-width:1.2705;stroke-linejoin:round;" d="M355.3,265.9l-7,10.6 M350.5,287.1
				l-2.2-10.6l-1.9-10.7l-4.7,6.3l-2-7.3l-6.5,6.7l3.3,12.2l4.6-7.5l2.5,7.7l4.7-7.3"/>
			<path style="fill:none;stroke:#C09300;stroke-width:1.2705;stroke-linejoin:round;" d="M332,289.6l4.2-6l2.8,9.2l3.8-6.4l2.5,7.7
				"/>
		</g>
		<g transform="matrix(-1,0,0,1,900,0)">
			<g id="b_1_">
				<path style="fill:#FFFFFF;stroke:#C09300;stroke-width:1.1888;stroke-linejoin:round;" d="M377.2,236.7l15.3,54.2l-21,3.2
					l-9-40.7L377.2,236.7L377.2,236.7z"/>
				<path style="fill:none;stroke:#C09300;stroke-width:1.2705;stroke-linejoin:round;" d="M382.3,255.2l-1.8,4.5l-9.9-9.5"/>
				<path style="fill:none;stroke:#C09300;stroke-width:1.2705;stroke-linejoin:round;" d="M375.4,243.9l-2.1,19.5l-6.3-8.3"/>
				<path style="fill:none;stroke:#C09300;stroke-width:1.2705;stroke-linejoin:round;" d="M369.5,258.4l-3.4,11.9"/>
				<path style="fill:none;stroke:#C09300;stroke-width:1.2705;stroke-linejoin:round;" d="M364.7,265.9l7,10.6 M369.5,287.1
					l2.2-10.6l1.9-10.7l4.7,6.3l2-7.3l6.5,6.7l-3.3,12.2l-4.6-7.5l-2.5,7.7l-4.7-7.3"/>
				<path style="fill:none;stroke:#C09300;stroke-width:1.2705;stroke-linejoin:round;" d="M388,289.6l-4.2-6l-2.8,9.2l-3.8-6.4
					l-2.5,7.7"/>
			</g>
		</g>
		<g>
			<path style="fill:#FFFFFF;stroke:#C09300;stroke-width:2.3777;stroke-linecap:round;stroke-linejoin:round;" d="M360,315
				c16,0,31.2-1.3,40.2-3.8c3.8-0.7,3.8-2.6,3.8-5.2c3.8-1.3,1.8-5.7,4.5-5.7c-2.6,0.7-3.2-4.5-6.4-3.8c0-4.5-4.5-5.1-8.3-3.8
				c-7.6,2.5-21,3.1-33.7,3.1c-12.7-0.6-26.1-0.6-33.7-3.1c-3.8-1.3-8.3-0.7-8.3,3.8c-3.2-0.7-3.8,4.5-6.4,3.8
				c2.6,0,0.7,4.5,4.5,5.7c0,2.5,0,4.5,3.9,5.2C328.8,313.8,344,315,360,315L360,315z"/>
			<path style="fill:#FFFFFF;stroke:#C09300;stroke-width:1.2705;stroke-linecap:round;stroke-linejoin:round;" d="M338.3,290.8
				c5.2,0.7,10.9,1.3,15.4,0.7c2.5,0,4.4,4.4-0.7,5.1c-4.5,0.6-11.5,0-15.3-0.7c-3.2-0.6-10.2-1.8-14.7-3.1
				c-4.5-1.9-1.3-5.7,1.3-5.2C328.2,288.9,333.3,290.1,338.3,290.8L338.3,290.8z"/>
			<path style="fill:#FFFFFF;stroke:#C09300;stroke-width:1.2705;stroke-linecap:round;stroke-linejoin:round;" d="M381.7,290.8
				c-5.2,0.7-10.9,1.3-15.3,0.7c-2.6,0-4.5,4.4,0.6,5.1c4.5,0.6,11.5,0,15.3-0.7c3.2-0.6,10.2-1.8,14.7-3.1c4.5-1.9,1.3-5.7-1.3-5.2
				C391.8,288.9,386.7,290.1,381.7,290.8L381.7,290.8z"/>
			<path style="fill:#FFFFFF;stroke:#C09300;stroke-width:1.2705;stroke-linecap:round;stroke-linejoin:round;" d="M322.5,288.3
				c-3.9-0.7-5.7,3.8-4.5,6.3c0.6-1.3,3.2-1.3,3.8-2.5C322.5,290.1,321.2,290.1,322.5,288.3L322.5,288.3z"/>
			<path style="fill:#FFFFFF;stroke:#C09300;stroke-width:1.2705;stroke-linecap:round;stroke-linejoin:round;" d="M337.7,300
				c0-2.5,2.5-2.2,2.5-4.7c0-1.3-0.7-3.2-1.9-3.2c-1.3,0-2.5,1.3-2.5,2.5C335.2,297.1,337.7,297.5,337.7,300z"/>
			<path style="fill:#FFFFFF;stroke:#C09300;stroke-width:1.2705;stroke-linecap:round;stroke-linejoin:round;" d="M355.9,292.8
				c3.8,0,3.4,5.1,1.6,7.6c0-1.8-3.2-2.5-3.2-3.8C354.3,294.6,357.2,294.6,355.9,292.8L355.9,292.8z"/>
			<path style="fill:#FFFFFF;stroke:#C09300;stroke-width:1.2705;stroke-linecap:round;stroke-linejoin:round;" d="M397.5,288.3
				c3.9-0.7,5.7,3.8,4.5,6.3c-0.6-1.3-3.2-1.3-3.8-2.5C397.5,290.1,398.8,290.1,397.5,288.3L397.5,288.3z"/>
			<path style="fill:#FFFFFF;stroke:#C09300;stroke-width:1.2705;stroke-linecap:round;stroke-linejoin:round;" d="M382.3,300
				c0-2.5-2.5-2.2-2.5-4.7c0-1.3,0.7-3.2,2-3.2c1.3,0,2.5,1.3,2.5,2.5C384.8,297.1,382.3,297.5,382.3,300L382.3,300z"/>
			<path style="fill:#FFFFFF;stroke:#C09300;stroke-width:1.2705;stroke-linecap:round;stroke-linejoin:round;" d="M364.1,292.8
				c-3.8,0-3.4,5.1-1.6,7.6c0-1.8,3.2-2.5,3.2-3.8C365.7,294.6,362.8,294.6,364.1,292.8z"/>
			<g>
				<path style="fill:#FFFFFF;stroke:#C09300;stroke-width:0.8915;stroke-linecap:round;stroke-linejoin:round;" d="M323.7,289.6
					c1.3,0,3.2,0.6,3.8,1.3L323.7,289.6L323.7,289.6z"/>
				<path style="fill:#FFFFFF;stroke:#C09300;stroke-width:0.8915;stroke-linecap:round;stroke-linejoin:round;" d="M330,291.5
					c0.7,0,3.2,0.6,4.5,1.3L330,291.5L330,291.5z"/>
				<path style="fill:#FFFFFF;stroke:#C09300;stroke-width:0.8915;stroke-linecap:round;stroke-linejoin:round;" d="M353,294
					c-1.3,0-3.8,0-4.5,0.6L353,294L353,294z"/>
				<path style="fill:#FFFFFF;stroke:#C09300;stroke-width:0.8915;stroke-linecap:round;stroke-linejoin:round;" d="M346,294
					c-0.7-0.7-3.2-0.7-4.5,0H346L346,294z"/>
				<path style="fill:#FFFFFF;stroke:#C09300;stroke-width:0.8915;stroke-linecap:round;stroke-linejoin:round;" d="M396.3,289.6
					c-1.3,0-3.1,0.6-3.8,1.3L396.3,289.6z"/>
				<path style="fill:#FFFFFF;stroke:#C09300;stroke-width:0.8915;stroke-linecap:round;stroke-linejoin:round;" d="M390,291.5
					c-0.7,0-3.2,0.6-4.5,1.3L390,291.5L390,291.5z"/>
				<path style="fill:#FFFFFF;stroke:#C09300;stroke-width:0.8915;stroke-linecap:round;stroke-linejoin:round;" d="M367,294
					c1.3,0,3.8,0,4.5,0.6L367,294L367,294z"/>
				<path style="fill:#FFFFFF;stroke:#C09300;stroke-width:0.8915;stroke-linecap:round;stroke-linejoin:round;" d="M374,294
					c0.7-0.7,3.2-0.7,4.5,0H374L374,294z"/>
			</g>
			<g>
				<path style="fill:#C09300;" d="M322.7,299.7c-0.4-0.1-0.7-0.4-0.5-0.8c0.1-0.5,0.5-0.8,0.9-0.6c0.2,0.1,0.7,0.5,0.7,0.7
					c0,0.2-0.2,0.6-0.3,0.6c0,0-0.1,0-0.1,0.1C323.1,299.7,322.9,299.7,322.7,299.7L322.7,299.7z"/>
				<path style="fill:#C09300;" d="M366.6,302.8c-0.2-0.1-0.4-0.4-0.4-0.6c0-0.3,0.5-0.8,0.7-0.8c0.1,0,0.5,0.2,0.7,0.3
					c0.3,0.3,0.2,0.7-0.1,1C367.3,302.8,366.9,302.9,366.6,302.8L366.6,302.8z"/>
				<path style="fill:#C09300;" d="M366.9,304.8c-0.3-0.1-0.5-0.3-0.5-0.7c0-0.4,0-0.4,0.4-0.7l0.3-0.2l0.3,0.1
					c0.4,0.2,0.6,0.4,0.6,0.6c0,0.3-0.2,0.6-0.5,0.7C367.2,304.9,367.2,304.9,366.9,304.8L366.9,304.8z"/>
				<path style="fill:#C09300;" d="M326.2,296.1c-0.3,0-0.7,0.2-0.9,0.4c-0.5,0.1-1.1,0.4-1.6,0.1c-0.5-0.2-1.2,0-1.2,0.6
					c0.1,0.5,0.9,0.8,1.3,0.5c0.3-0.4,1.2-0.7,1.3,0.1c-0.4,0.6-0.3,1.3-0.6,1.9c0,0.4-0.2,0.7-0.4,1c-0.4,0-0.8,0-1.1,0.2
					c-0.5,0-1,0.3-1.3,0.7c-0.3,0.5-0.6,0.9-0.7,1.5c0.1,0.6,0.8,0.7,1.2,0.8c0.5,0.1,1.1,0.3,1.6,0.5c0.9,0.2,1.7,0.5,2.5,0.7
					c1.3,0.4,2.6,0.6,3.9,0.9c0.1,0,0.3,0.1,0.4,0.1c0.5,0.1,0.8-0.5,0.9-0.9c0.3-0.9,0.5-1.9,0.7-2.8c0.2-0.4,0.4-1.2-0.3-1
					c-0.4,0.2-0.8,0.6-1.3,0.6c-0.7,0-0.3,0.8,0,1.1c0.1,0.5-0.1,1-0.4,1.4c-0.4,0.3-0.9,0-1.4-0.1c-0.5,0-1.4-0.2-1-0.9
					c0.2-0.5,0.2-1,0.4-1.4c0.2-0.5,0.3-1,0.4-1.5c-0.3-0.6-0.8,0.2-1.2,0.3c-0.3,0.2-1.3,0.3-0.8,0.8c0.5,0.3,0.1,1,0,1.4
					c0,0.6-0.7,0.8-1.2,0.6c-0.5,0-1.2-0.4-0.8-1c0.1-0.5,0.3-0.9,0.3-1.4c0.2-0.6,0.3-1.1,0.6-1.6c0.1-0.5,0.3-1,0.5-1.4
					c0-0.5,0.4-1,0.4-1.6C326.5,296.2,326.4,296.1,326.2,296.1L326.2,296.1z M323.3,301.9c0.1,0,0.1,0,0.2,0c0.2,0.1,0.2,0.2,0,0.4
					c-0.1,0.1-0.2,0.2-0.2,0.1c-0.4,0-0.5-0.1-0.5-0.2c0-0.1,0-0.2,0.3-0.3C323.2,301.9,323.3,301.9,323.3,301.9L323.3,301.9z"/>
				<path style="fill:#C09300;" d="M322.5,305.9c-0.4-0.4-0.3-0.6,0.3-1.1c0.3-0.2,0.4-0.2,0.7,0.1c0.4,0.4,0.5,0.7,0.1,1
					c-0.2,0.2-0.3,0.2-0.5,0.2C322.8,306.1,322.7,306.1,322.5,305.9L322.5,305.9z"/>
				<path style="fill:#C09300;" d="M324.9,306.6c-0.4-0.1-0.6-0.5-0.5-0.9c0.1-0.3,0.2-0.4,0.7-0.4c0.6,0,0.7,0.1,0.7,0.6
					c0,0.3,0,0.3-0.2,0.5C325.5,306.6,325.2,306.7,324.9,306.6L324.9,306.6z"/>
				<path style="fill:#C09300;" d="M396.2,306.7c-0.2-0.2-0.2-0.2-0.2-0.4c0-0.3,0.2-0.6,0.6-0.8c0.5-0.2,0.8-0.2,1,0.1
					c0.3,0.5,0.3,0.7-0.1,1c-0.2,0.2-0.2,0.2-0.6,0.2C396.5,306.9,396.4,306.9,396.2,306.7L396.2,306.7z"/>
				<path style="fill:#C09300;" d="M328.2,307.6c-0.3-0.1-0.4-0.3-0.4-0.6c0-0.3,0-0.3,0.2-0.5c0.1-0.1,0.3-0.2,0.5-0.2
					c0.2,0,0.3,0,0.5,0.1c0.4,0.3,0.5,0.6,0.3,0.9C328.9,307.7,328.6,307.7,328.2,307.6L328.2,307.6z"/>
				<path style="fill:#C09300;" d="M345.7,308.4c-0.1-0.1-0.2-0.1-0.2-0.2c0-0.4,0-0.9,0.2-1.3c0.1-0.4,0-0.9,0.2-1.3
					c0.1-0.7,0.1-1.5,0.3-2.2c0-0.4,0-0.8,0.2-1.1c0.1-0.6,0-1.2,0.2-1.8c0-0.2,0.2-0.8,0.4-0.4c0.3,0.5,0.7,0.8,1.1,1.2
					c0.4,0.2,0,0.5-0.2,0.6c-0.3,0.1-0.4,0.5-0.4,0.8c0,0.3-0.2,0.6-0.2,1c-0.1,0.5-0.1,1-0.1,1.5c-0.1,0.5-0.1,1-0.1,1.5
					c0,0.3-0.1,0.6-0.1,0.9c0,0.3-0.1,0.7-0.3,0.9C346.3,308.6,345.9,308.6,345.7,308.4L345.7,308.4z"/>
				<path style="fill:#C09300;" d="M369.5,300.6c-0.4,0.3-0.7,0.6-1.1,1c-0.5,0.4,0.4,0.6,0.5,0.9c0.1,0.5,0.1,1,0.1,1.5
					c0.1,0.4,0.2,0.9,0.2,1.4c0,0.5-0.7,0.4-1,0.7c-0.4,0.2-0.6,0.6-0.8,0.8c-0.2,0.4-0.2,0.9-0.3,1.3c0,0.4-0.2,0.8,0,1.1
					c0,0,0.1,0.1,0.1,0.1c0.1,0.1,0.3,0,0.4,0.1c0.4,0,0.8,0,1.2-0.1c1-0.2,1.9-0.2,2.9-0.2c0.6,0,1.2-0.2,1.8-0.2
					c0.5,0.1,0.7-0.4,0.7-0.8c-0.3-0.5,0-1.1-0.2-1.7c-0.2-0.5-0.1-1.1-0.2-1.7c0-0.4-0.6-0.6-0.8-0.3c-0.3,0.3-0.7,0.3-0.9,0.7
					c-0.2,0.5,0.5,0.5,0.6,0.9c0.1,0.4,0.1,0.8,0.1,1.2c0.1,0.5-0.4,0.5-0.8,0.5c-0.4,0.2-1,0.3-1.3-0.2c-0.2-0.4-0.1-0.8-0.2-1.2
					c0-0.7-0.2-1.4-0.2-2.1c0-0.9-0.2-1.7-0.2-2.6C370,301,370,300.4,369.5,300.6L369.5,300.6z M369,307.2l0.2,0l0,0.3l0,0.3
					l-0.3,0.1c-0.2,0.1-0.3,0.1-0.3,0.1c0,0-0.1,0-0.1-0.1c-0.2-0.1-0.1-0.3,0.1-0.5C368.7,307.2,368.8,307.1,369,307.2L369,307.2z"
					/>
				<path style="fill:#C09300;" d="M345,299.7c-0.3,0.1-0.7,0.6-1,0.6c-0.7,0-0.6,0.7-0.1,1c0.1,0.2,0,0.5,0,0.7
					c0.1,0.6-0.3,1.1-0.2,1.8c0,0.7-0.2,1.4-0.3,2.1c-0.2,0.7-0.2,1.5-0.3,2.2c-0.1,0.7-0.6,0.4-1,0.2c0-0.3,0-0.6,0-0.9
					c0.2-0.7-0.4-0.8-0.9-0.9c-0.5,0.1-0.8-0.4-0.7-0.9c0.2-0.3,0.8-0.2,1.2-0.2c0.8,0.2,0.8-0.9,0.3-1.2c-0.3-0.5-1-0.7-1.1-1.2
					c0.1-0.7-0.4-1.4-0.9-1.7c-0.9-0.1-1.5,0.7-1.9,1.4c-0.4,0.1-0.7,0.2-1.1,0.4c-0.6,0.1-1.4,1.1-0.6,1.5c0.4,0.1,1.8,0.4,1.2,1
					c-0.3,0.6-1,0.6-1.5,0.4c-0.6,0-1.2-0.3-1.2-1c-0.1-0.6-0.1-1.2-0.4-1.8c-0.1-0.7-0.9-0.5-0.9,0.1c-0.6,0.4-0.5,1.1-0.1,1.6
					c0.3,0.6,0,1.3-0.2,1.8c-0.2,0.7-0.9,0.7-1.5,1c-0.3,0.1-1.3-0.1-0.9,0.5c0.6,0.2,1.3,0.4,1.9,0.2c0.7-0.1,1.2-0.5,1.6-1.1
					c0.4-0.4,1.2-0.2,1.8-0.2c0.6,0,1.3,0.4,1.8,0.1c0.2-0.5,1-1.2,1.2-0.4c0,0.7,0.6,1.1,1.2,1c0.7,0,0.4,0.5,0.4,0.9
					c0,0.7,0.5,1.1,1.1,1.5c0.2,0.1,0.4,0,0.6,0c0.6-0.2,1.2-0.5,1.4-1.1c0.2-0.5,0.2-1.2,0.4-1.7c0.1-0.9,0.3-1.8,0.4-2.7
					c0.2-0.8,0.2-1.7,0.3-2.6c0.1-0.6,0.2-1.3,0.2-1.9C345.3,299.7,345.2,299.7,345,299.7L345,299.7z M339.6,303.1
					c0.1,0,0.2,0.2,0.2,0.4c0,0.3,0.2,0.5,0.4,0.6c0.1,0,0.1,0.2,0,0.3c-0.1,0.1-0.3,0.1-0.5,0.1c-0.5,0-0.7-0.1-1-0.4l-0.2-0.1
					l0.2-0.1c0.1-0.1,0.3-0.3,0.5-0.4C339.3,303.1,339.5,303,339.6,303.1L339.6,303.1z"/>
				<path style="fill:#C09300;" d="M392.4,296.8c-0.5,0-0.9,0.1-1.3,0.2c-0.8-0.1-1.2,0.8-0.4,1.2c0.5,1.2,1.2-0.3,2-0.1
					c1.1,0.2,1.2,1.5,1.4,2.4c0.1,0.9,0.3,1.8,0.6,2.7c0.8,0.9-0.6,1.4-1.1,0.7c-0.5-0.5-1.5-1.2-2.1-0.5c-0.7,0.3-0.8,1.3-1.4,1.5
					c-1,0.3-1.1-0.9-1.6-1.4c-0.5-0.7-1.4-0.7-2.1-0.9c-0.3-0.7-0.2-1.9-0.9-2.4c-0.6,0.2-1.7,1.4-0.8,1.9c0.9,0.8-0.4,1.1-0.8,1.7
					c-0.6,0.7-0.7,1.5-0.8,2.4c-1,0.6-1.2-0.6-1.3-1.4c-0.1-0.9-0.8-0.6-1.4-0.3c-0.8,0.3-1.1,1-1.7,1.6c-0.1,0.5,0,1.1,0,1.6
					c0.2,0.6,1,0.3,1.4,0.3c0.8-0.3,1.1,0.5,0.5,1c-0.4,0.5-1.8,0.3-1.6,1.1c0.4,0.1,0.9,0,1.3,0c0.9-0.2,1.8-0.9,1.9-1.8
					c0.1-0.8,1.3-0.7,2-0.9c0.8-0.2,1.8-0.3,2,0.8c0.6,0.6,1.8,1.3,2.4,0.5c0.6-0.4,0.9-1.1,0.9-1.8c-0.1-0.6,1-0.7,1.3-0.3
					c0.4,0.7,1.7,0.5,2.4,0.1c0.7-0.5,0.8-1.4,1.8-1.4c1.4-0.4,2.9-0.7,4.3-1.2c1.1-0.2-0.2-1-0.5-1.4c-0.9-0.4-1.6,1.3-2.6,0.4
					c-0.7-0.6-0.7-1.7-1-2.5c-0.2-1.1-0.1-2.3-0.9-3.2C393.9,296.9,393.2,296.7,392.4,296.8L392.4,296.8z M387,304.3
					c0.1,0,0.2,0,0.4,0.1c0.4,0.2,0.6,0.5,0.6,0.8c0,0.2,0,0.2-0.3,0.3c-0.2,0.1-0.3,0.2-0.4,0.1c-0.1,0-0.5-0.3-0.5-0.4
					c0,0,0-0.2-0.1-0.4c-0.1-0.3-0.1-0.3,0.1-0.4C386.8,304.4,386.8,304.3,387,304.3z M392.2,304.6c0.3,0,0.5,0.1,0.6,0.3
					c0.1,0.3,0,0.5-0.3,0.6c-0.2,0.1-0.3,0.1-0.4,0.1c0,0-0.2-0.1-0.3-0.2c-0.2-0.1-0.2-0.2-0.2-0.4
					C391.5,304.8,391.8,304.6,392.2,304.6z M385,304.7c0.1,0,0.2,0,0.3,0.1c0.1,0.1,0.2,0.2,0.2,0.5c0,0.2,0,0.4,0,0.5
					c0,0.2,0,0.2-0.5,0.2c-0.5,0-0.6-0.1-0.5-0.5c0-0.3,0-0.4,0.2-0.5C384.8,304.7,384.9,304.7,385,304.7z M380.6,305.8
					c0.2,0,0.3,0.2,0.4,0.4c0.1,0.3,0,0.4-0.2,0.5c-0.2,0.1-0.6,0.1-0.7,0c0,0-0.1-0.1-0.1-0.1c-0.1-0.1,0-0.1,0-0.2
					c0,0,0.1-0.1,0.1-0.1c0,0,0.1-0.1,0.1-0.2C380.3,305.8,380.5,305.8,380.6,305.8L380.6,305.8z M388,306.8c0.1,0,0.3,0,0.3,0.1
					c0.1,0.1,0.1,0.3,0,0.4c-0.1,0.1-0.7,0.1-0.9,0c-0.1,0-0.1-0.1-0.1-0.2c0-0.1,0-0.2,0.2-0.3C387.7,306.8,387.9,306.8,388,306.8
					L388,306.8z"/>
				<path style="fill:#C09300;" d="M374.3,310.6c-0.1-0.1-0.2-0.1-0.1-0.2c0.1-0.2,0.4-0.3,0.7-0.4c0.4-0.2,0.8-0.5,1.1-0.9
					c0-0.3,0.3-0.4,0.3-0.7c0-0.4,0-0.8-0.1-1.1c-0.1-0.3-0.4-0.6-0.7-0.8c-0.2-0.2-0.5-0.2-0.6-0.5c0-0.3,0.2-0.5,0.3-0.7
					c0.2-0.3,0.3-0.7,0.5-1c0.2-0.2,0.5,0,0.6,0.2c0.2,0.2,0.3,0.5,0.4,0.7c0.2,0.3,0.5,0.6,0.5,0.9c0.1,0.2,0.3,0.5,0.3,0.8
					c0,0.3,0.2,0.6,0.2,1c0,0.4,0,0.9-0.2,1.3c-0.1,0.2-0.3,0.4-0.5,0.6c-0.3,0.2-0.5,0.5-0.9,0.6c-0.2,0.1-0.4,0.3-0.7,0.3
					C375.2,310.7,374.8,310.7,374.3,310.6C374.4,310.7,374.3,310.6,374.3,310.6L374.3,310.6z"/>
				<path style="fill:#C09300;" d="M368.8,311c-0.2-0.2-0.2-0.3-0.2-0.5c0-0.2,0-0.3,0.2-0.5c0.4-0.4,0.5-0.4,1.1-0.1
					c0.6,0.3,0.8,0.3,0.8,0.1c0.1-0.2,0.4-0.4,0.7-0.4c0.2,0,0.3,0,0.5,0.2c0.2,0.2,0.2,0.2,0.2,0.5c0,0.4,0,0.4-0.2,0.6
					c-0.2,0.2-0.3,0.2-0.5,0.2c-0.3,0-0.6-0.2-0.6-0.5c0-0.2-0.1-0.2-0.2-0.1c0,0-0.1,0.1-0.2,0.1c-0.2,0-0.4,0.2-0.6,0.4
					c-0.1,0.1-0.2,0.1-0.4,0.1C369.1,311.2,369,311.2,368.8,311L368.8,311z"/>
				<path style="fill:#C09300;" d="M353,303.9c-0.5,0-1.1,0.5-1.2,1c0.1,0.6,0.6,1.2,0.3,1.8c0.2,0.8-0.6,1.1-1.2,0.6
					c-0.3-0.8-0.5-1.6-1-2.3c-0.6-0.2-0.9,0.8-1.4,1.2c0.2,0.6,0.9,1.1,1,1.9c0.2,0.7-0.3,1.5-0.9,1.9c-0.5,0.5-1.3,0.3-2,0.4
					c-0.8,0.5,0.6,0.7,1,0.7c0.8,0.1,1.7,0,2.3-0.6c0.6-0.3,0.6-1.4,1.3-1.5c1.3-0.1,2.5,0.2,3.8,0.2c0.7,0.2,1.7-0.1,2.2,0.4
					c0,0.9,0.8,1.4,1.5,1.8c0.4,0.1,0.8-0.4,1.2-0.5c0.8-0.2,0.5-1.2,1-1.6c1.3-0.1,2.7-0.1,4-0.1c0.3,0,0.3-0.4,0.5-0.5
					c0-0.5,0-1-0.1-1.5c-0.3-0.6,0-1.5-0.4-2c-0.7-0.2-1.2,0.4-1.9,0.5c-0.7,0.3-1.4,1-1.4,1.9c-0.4,0.7-1.1-0.1-0.9-0.7
					c0-0.3,0.1-0.6,0-0.8c-0.4-0.5-1.1-0.3-1.7-0.4c-0.8,0-1.6-0.1-2.4-0.1c-0.7-0.1-1.5,0.1-2.1-0.1c-0.8,0-0.7-0.8-0.9-1.4
					C353.3,303.9,353.1,303.9,353,303.9L353,303.9z M354.6,306.8c0.3,0,0.5,0,0.8,0.1c0.3,0.1,0.7-0.1,1.1,0
					c0.8,0.1,1.6,0.1,2.4,0.2c0.2,0,0.4,0.1,0.5,0.3c0,0.5,0,1.1,0,1.6c0,0.2,0.1,0.5-0.1,0.6c-0.1,0-0.1,0.1-0.2,0.1
					c-0.2-0.1-0.4-0.2-0.5-0.4c0-0.3,0-0.6,0-0.9c0-0.1,0-0.2,0-0.2c-0.2-0.1-0.4-0.2-0.6-0.2c-0.7,0-1.3-0.1-2-0.1
					c-0.6,0-1.1,0-1.7-0.1c-0.2-0.1-0.5-0.1-0.6-0.3c-0.2-0.2,0.1-0.5,0.3-0.6C354,306.9,354.3,306.8,354.6,306.8L354.6,306.8z
					 M363.6,307c0.1,0,0.2,0,0.2,0.3c0,0.2,0.1,0.3,0.1,0.4c0,0.1,0,0.1-0.1,0.2c-0.4,0.1-0.8,0.1-0.9-0.1c-0.1-0.1,0-0.3,0.1-0.4
					C363.2,307.2,363.4,307,363.6,307L363.6,307z"/>
			</g>
		</g>
		<path style="fill:#FFFFFF;stroke:#C09300;stroke-width:1.1502;" d="M360,261.8c26.1-20.1,23.9-49.5,23.9-49.5
			c-0.7,0.1-1.3,0.2-2,0.2c-5.5,0-18.5-3.1-21.6-7.1c-3.3,3.6-16.6,7.1-22.1,7.1c-0.7,0-1.4-0.1-2-0.2
			C336.1,212.3,333.9,241.7,360,261.8L360,261.8z"/>
		<path style="fill:#FFFFFF;stroke:#C09300;stroke-width:0.9157;" d="M381.8,214.4c-0.2,0-0.5,0-0.7,0c-5,0-16.5-2.5-20.9-6.4
			c-4.7,3.5-16.4,6.4-21.3,6.4c-0.2,0-0.5,0-0.7-0.1c0,1.1,0,2.3,0.1,3.3c0.3,3.9,0.9,7.9,2,11.6c3.3,11.9,10,22,19.7,29.7
			c9.7-7.7,16.4-17.8,19.7-29.7c1-3.8,1.7-7.7,2-11.6C381.7,216.6,381.8,215.5,381.8,214.4L381.8,214.4z"/>
		<path style="fill:#C09300;" d="M351.5,212c-4.7,1.5-9.8,2.4-12.6,2.4c-0.2,0-0.5,0-0.7-0.1c0,1.1,0.1,2.3,0.1,3.3
			c0.3,3.9,0.9,7.8,2,11.6c2.2,8,6,15.2,11.2,21.4L351.5,212L351.5,212z"/>
		<path style="fill:#C09300;" d="M368,212v39.4c5.4-6.3,9.4-13.8,11.7-22c1-3.8,1.7-7.7,2-11.6c0.1-1,0.1-2.2,0.1-3.2
			c-0.2,0-0.4,0-0.7,0C378.1,214.5,372.8,213.5,368,212L368,212z"/>
		<g>
			<path style="fill:#FFFFFF;stroke:#C09300;stroke-width:1.2179;" d="M369.8,202.5c0.5,0-0.7-2.9-0.7-2.9c1.4,1.4,6.7,1.8,6.7,1.8
				c-3.2-1.4-6.4-12.1-6-20.6c0.3-8.5-1.2-11.9-2.5-13.1c-1.6-1.6-6.7-3-10.1-3.2c-1.9-0.1-1.6,1.4-1.6,1.4
				c-3.5-0.9-7.1-1.3-8.7-0.2c-1.5,1-1.8,6-0.7,5.1c2.7-2.1,5-0.2,6.6,2.1c1.4,2,1.3,7.8-0.7,14.6c-2.1,7.1-8,14.2-8,14.2
				c3.2,0,7.6-2.8,7.6-2.8l-1.1,4.4c3.4-1.6,6-4.1,6-4.1l3.2,3.4c1.1-1.4,3.2-3.4,3.2-3.4S365.8,202.1,369.8,202.5L369.8,202.5z"/>
			<path style="fill:none;stroke:#C09300;stroke-width:1.2704;" d="M356.9,182.1c0,0-1.8,13.1-5.1,16.9"/>
			<path style="fill:none;stroke:#C09300;stroke-width:1.2704;" d="M359.7,181.7c0,0-0.7,13.3-3,17.6"/>
			<path style="fill:none;stroke:#C09300;stroke-width:1.2704;" d="M362.2,182.2c0,0,0,14.6,0.9,17"/>
			<path style="fill:none;stroke:#C09300;stroke-width:1.2704;" d="M365.4,183c0,0,0.7,12.2,3.7,16.7"/>
			<path style="fill:#C09300;stroke:#C09300;stroke-width:0.3542;" d="M353.7,175.7c-0.2-1.2-0.4-2.1-0.8-2.7
				c-1.6-2.3-3.9-4.3-6.6-2.1c0,0,0.9-2.8,2.9-2.9c1.5-0.1,4.9,1.1,7.9,6.3c0,0-2.2-0.5-2.8,0C353.3,175.1,353.7,175.7,353.7,175.7
				L353.7,175.7z"/>
			<path style="fill:#C09300;stroke:#C09300;stroke-width:0.3542;" d="M346,167.4c0.2-0.7,0.6-1.4,1-1.7c1.6-1.1,5.1-0.7,8.7,0.2
				c0,0-0.3-1.5,1.6-1.4c3.4,0.2,8.5,1.6,10.1,3.2c0.4,0.4,0.8,1,1.2,1.9h-0.1c-0.8-1.1-3-1-3.5-1c-0.8,0.1-1.4,0.1-2.5,0.3
				c-0.5,0.1-1.3,0.3-1.8,0.6c-0.3,0.3-0.6,1.3-1.2,1.3c-0.8,0-0.8-0.2-1-0.5c-0.3-0.3-0.4-0.8-0.7-0.8c-0.9,0.2-2.3-0.5-4.1-1.9
				c-1.8-1.4-2.5-1.8-4.8-1.6c-2.3,0.2-3,1.5-3,1.5L346,167.4L346,167.4z"/>
			<circle style="fill:#FFFFFF;" cx="359.1" cy="168.5" r="0.9"/>
		</g>
	</g>
</g>
</svg>
