<?xml version="1.0" encoding="utf-8"?>
<!-- Generator: Adobe Illustrator 25.2.1, SVG Export Plug-In . SVG Version: 6.00 Build 0)  -->
<svg version="1.1" id="Layer_1" xmlns="http://www.w3.org/2000/svg" xmlns:xlink="http://www.w3.org/1999/xlink" x="0px" y="0px"
	 viewBox="0 0 720 480" style="enable-background:new 0 0 720 480;" xml:space="preserve">
<g>
	<path style="fill:#012169;" d="M0,0.7h720V480H0V0.7z"/>
	<path style="fill:#550000;stroke:#550000;stroke-width:1.318;stroke-linejoin:round;" d="M598.9,384.9c-3.7-0.8-6.8-3-10.4-7.9
		l-1.8-2.3l-2.1,1c-11.2,5-24.3,8.5-40,8.8c-20.4,0.5-37.8-3.5-48.1-9.5l-3.2-1.6l-1.7,2.3c-3.7,5.3-7.4,8-11.7,8.4
		c-4,0.4-9.6-2.3-12.3-6c-1.1-1.5-1.3-2.1-1.9-5.2c-0.5-2.9-1.7-7.3-2.6-9.2c-0.4-0.9-1.3-2.6-2.1-3.8c-3.6-5.8-3.7-6.2-2.6-8.4
		c1.4-2.9,3.5-4.7,6-5.2c0.8-0.2,1.5-0.3,1.6-0.4c0.1-0.1-0.3-0.9-0.8-1.9c-1.2-2.6-2.1-4.9-1.9-5.1c0.1-0.1,1.2-1.1,2.3-2.2
		c4.7-4.4,5.9-7,7.6-15.7c0.5-2.7,1.2-5.4,1.4-6c1.1-2.5,3.4-4,6.6-4.3c2.4-0.2,3.7,0.2,6.3,1.8c5.2,3.2,10.5,9.1,14.9,16.5l1.9,3.2
		l-0.1,2.7c-0.4,8.8-1,13.7-2.1,18.1c-0.4,1.7-0.6,2.8-0.5,2.9c0.3,0.4,6.3,2.8,9.3,3.8c4.7,1.5,10.5,2.7,17.1,3.5
		c4.1,0.5,19.6,0.5,23.5,0c6.3-0.8,13.6-2.5,18.2-4.1c3.9-1.4,8.2-3.3,8.2-3.6c0-0.2-0.1-0.8-0.3-1.3c-1-3.1-1.8-9.5-2.1-16.6
		l-0.2-4.9l1.8-2.9c2.1-3.5,5.7-8.3,8.1-10.8c2.4-2.5,5.8-5.3,7.9-6.4c4.1-2.2,9.6-1,11.4,2.5c0.3,0.6,1.2,3.4,2,6.2
		c2.5,9,3.5,11,8,15c0.9,0.8,1.7,1.7,1.7,1.9c0,0.2-0.7,2.2-1.5,4.4c-0.8,2.2-1.5,4.1-1.5,4.2c0,0.1,0.4,0.2,0.9,0.2
		c2.8,0,6.3,2.9,7.4,6.2c0.5,1.3,0.3,2.1-0.8,4c-0.5,0.9-1.5,2.6-2.3,3.9c-1.9,3.3-3.1,6.5-4,10.7c-1.3,5.7-1.3,5.9-2.7,7.6
		c-1.5,1.9-4.9,4.2-7.1,4.9C603,384.9,600.3,385.2,598.9,384.9L598.9,384.9z"/>
	<g>
		<path style="fill:none;stroke:#552200;stroke-width:0.158;stroke-linejoin:round;" d="M592.2,348.8l6.5-7.9c0-3.8-1.7-6.9-3.9-8
			c-2-1-3.8-1.1-6.1,2.2C589,341,589.8,344.1,592.2,348.8z"/>
		<path style="fill:#951B1D;" d="M599.8,360.7l2.1,4.2c0.5,0.1,0.9,0.2,1.4,0.3c-0.3,2.8,0.9,6.9,0.9,6.9s-8.1,6-12.3,8.9
			c-2.2-2.1-4.1-5-6-8.7l-2-4.3c2-1,3.9-1.9,4.1-2c0.4-0.2,9.3-4.9,9.3-4.9L599.8,360.7z"/>
		<path style="fill:#E2A950;" d="M602.1,365c5.5,1.4,11.5,2,11.9,9.6c0.2,5.7-7.9,10.2-12.9,10.6c-4.3,0.4-8.2-2.6-11.7-7.1
			C593.4,375.4,601.6,371.7,602.1,365L602.1,365z"/>
		<path style="fill:none;stroke:#552200;stroke-width:0.158;stroke-linejoin:round;" d="M614,374.6c0.2,5.7-7.9,10.6-12.9,10.6
			c-6,0-10.9-4.3-15.2-12.7l-6.5-13.9c-3.1-6.6-3.6-16.6-3.8-25.6c3.8-6.7,8.1-13.1,14.7-18.2c3.3-2.5,6.8-4.7,11.7-2.3
			c3.3,1.5,4,4.7,4.5,8.1c-0.3,14-1.1,27.9-6.6,40.2l2.1,4.2C607.4,366.3,613.7,366.9,614,374.6L614,374.6z"/>
		<path style="fill:none;stroke:#552200;stroke-width:0.158;stroke-linejoin:round;" d="M0,0"/>
		<path style="fill:none;stroke:#552200;stroke-width:0.158;stroke-linejoin:round;" d="M0,0"/>
		<path style="fill:none;stroke:#552200;stroke-width:0.158;stroke-linejoin:round;" d="M0,0"/>
		<path style="fill:#CA6B5B;" d="M588.4,316.2c0,0.7,0.1,1.5,0.1,2.3c0,1.1,0,2.3,0.1,3.4c0,0.6,0,1.3,0,1.9c0,1.1,0,2.1,0,3.2
			c0,0.9,0,1.9,0,2.8c0,0.7,0,1.5,0,2.2c0,0.4,0,0.7,0,1.1c0,0.7,0.1,1.4,0.1,2v0c0,0-0.1,5,0.6,7.5c0.6,2.2,2.4,5.1,2.4,5.1
			l-8.3,6.1l-4.8,2.7c0,0,0,0,0,0c0-0.1,0-0.1-0.1-0.2c0,0,0,0,0,0c-1.7-6.3-2.8-16.3-2.9-23.5C579,326.9,582.8,321,588.4,316.2
			L588.4,316.2z"/>
		<path style="fill:#CA6B5B;" d="M0,0"/>
		<path style="fill:#CA6B5B;" d="M0,0"/>
		<path style="fill:#CA6B5B;" d="M0,0"/>
		<path style="fill:none;stroke:#552200;stroke-width:0.158;stroke-linejoin:round;" d="M588.4,316.2c0.7,10.7-1.3,22.8,3.3,31.6
			c-3.7,3.8-8.2,6.6-13.1,8.9c-2.4-6.6-2.8-15.5-3-23.7C579,326.9,582.8,321,588.4,316.2z"/>
		<path style="fill:#FAECBD;" d="M599.1,339.5c0.7-0.9,1.7-2.4,2.4-3.8c2.1-3.7,3.7-7.6,4.4-11.1c0.3-1.2,0.4-1.9,0.4-3.1
			c0-1,0-1.1-0.1-1.8c-0.4-2.4-0.9-4-1.8-5.2c-0.8-1-1.5-1.6-2.9-2.2c-1.4-0.6-2.6-0.9-3.9-0.8c-2.1,0.1-4,0.9-6.8,3
			c-0.7,0.5-2,1.6-2.2,1.7c-0.1,0.1-0.1,0.1,0,0.6c0.1,1.6,0.1,2.9,0.1,9.3c0,4.8,0,6.9,0.1,7.7c0,0.6,0.1,1.1,0.1,1.1
			c0,0,0.1-0.1,0.4-0.4c0.6-0.8,1.1-1.2,1.6-1.6c1.2-0.8,2.5-0.8,4,0c1.6,0.8,2.9,2.6,3.5,4.9c0.2,0.6,0.3,1.4,0.4,1.8
			c0,0.2,0,0.3,0.1,0.4C598.8,339.9,598.9,339.8,599.1,339.5L599.1,339.5z"/>
		<path style="fill:#AE4C33;stroke:#000000;stroke-width:1.100000e-02;stroke-linejoin:round;" d="M589.3,334.2
			c0.8-1,1.7-1.7,2.5-1.9c0.3-0.1,0.3-0.1,0.3-0.3c0-0.1,0.2-4.4,0.4-9.5c0.2-5.1,0.3-9.3,0.3-9.4c-0.1-0.1-2.9,1.9-4,2.8
			c-0.4,0.4-0.4,0.3-0.3,1.4c0,0.4,0.1,4.4,0.1,8.9s0.1,8.2,0.1,8.4c0,0.1,0.1,0.2,0.1,0.2C588.9,334.8,589.1,334.5,589.3,334.2
			L589.3,334.2z"/>
		<path style="fill:#DBA35A;stroke:#000000;stroke-width:1.600000e-02;stroke-linejoin:round;" d="M595,332.8c0,0,0.5-4.8,1.1-10.6
			c0.6-5.8,1.1-10.6,1-10.6c-0.1-0.1-1.4,0.2-2,0.4c-0.4,0.1-1,0.4-1.4,0.7l-0.8,0.4v0.7c0,0.7-0.6,16.5-0.6,17.8l0,0.7l0.3-0.1
			c0.4-0.1,1.4,0.1,2,0.4C594.8,332.7,595,332.8,595,332.8z"/>
		<path style="fill:#DBA35A;stroke:#000000;stroke-width:1.600000e-02;stroke-linejoin:round;" d="M0,0"/>
		<path style="fill:#012169;stroke:#550000;stroke-width:0.989;stroke-linejoin:round;" d="M593,345.2l3.3-3.3l1.6-1.9
			c0,0,0.8-0.6,0.7-1.1c-0.5-2.9-1.9-5.1-3.8-6c-2.1-1-3.7-0.6-5.4,1.5l-0.6,0.8l0.1,1.1c0.3,4.2,0.9,7.4,2.3,10.3
			c0.2,0.5,0.8-0.4,0.9-0.4C592,346.2,593,345.2,593,345.2L593,345.2z"/>
	</g>
	<path style="fill:none;stroke:#552200;stroke-width:0.158;stroke-linejoin:round;" d="M487.8,348l-6.5-7.9c0-3.8,1.7-6.9,3.9-8
		c2-1,3.8-1.1,6.1,2.2C491,340.2,490.2,343.2,487.8,348L487.8,348z"/>
	<path style="fill:#951B1D;" d="M480.2,359.9l-2.1,4.2c-0.5,0.1-0.9,0.2-1.4,0.3c0.3,2.8-0.9,6.9-0.9,6.9s8.1,6,12.3,8.9
		c2.2-2.1,4.1-5,6-8.7l2-4.3c-2-1-3.9-1.9-4.1-2c-0.4-0.2-9.3-4.9-9.3-4.9L480.2,359.9z"/>
	<path style="fill:#E2A950;" d="M477.9,364.1c-5.5,1.4-11.5,2-11.9,9.6c-0.2,5.7,7.9,10.2,12.9,10.6c4.3,0.4,8.2-2.6,11.7-7.1
		C486.6,374.6,478.4,370.9,477.9,364.1L477.9,364.1z"/>
	<path style="fill:none;stroke:#552200;stroke-width:0.158;stroke-linejoin:round;" d="M466,373.8c-0.2,5.7,7.9,10.6,12.9,10.6
		c6,0,10.9-4.3,15.2-12.7l6.5-13.9c3.1-6.6,3.6-16.6,3.8-25.6c-3.8-6.7-8.1-13.1-14.7-18.2c-3.3-2.5-6.8-4.7-11.7-2.3
		c-3.3,1.5-4,4.7-4.5,8.1c0.3,14,1.1,27.9,6.6,40.2l-2.1,4.2C472.6,365.5,466.4,366,466,373.8L466,373.8z"/>
	<path style="fill:#C98C26;" d="M490.2,341.8c-0.5,1.8-1.1,3.5-1.9,5.2c3.7,3.8,8.2,6.6,13.1,8.9c0-0.1,0.1-0.2,0.1-0.3
		c0.2-0.5,0.4-1,0.5-1.6c0.1-0.3,0.1-0.5,0.2-0.8c0.1-0.2,0.1-0.5,0.2-0.7c0.1-0.3,0.2-0.6,0.2-0.9c0-0.1,0-0.2,0.1-0.3
		C498.4,348,494.5,345.1,490.2,341.8L490.2,341.8z"/>
	<path style="fill:#EED3A6;stroke:#552200;stroke-width:0.158;stroke-linejoin:round;" d="M473.6,319.7
		c-1.5,12.9-6.1,15.9-10.4,19.4c0,0,13.8,45.4,77.1,44.8c53.9,0,71-27.6,76.5-46c-9.1-6.7-8.3-12.3-10.4-18.2
		c2,11.9-17.3,44.2-65.8,44.3C483.8,364,472.8,326.4,473.6,319.7z"/>
	<path style="fill:#EED3A6;stroke:#552200;stroke-width:0.158;stroke-linejoin:round;" d="M0,0"/>
	<path style="fill:#E2A950;" d="M472.3,326.3c-2.1,7.5-5.7,9.9-9.2,12.8c0,0,4.6,15,20.5,27.7c-0.2-2.7-1.3-14.5-1.3-15
		c0-0.5,0-7.6-0.5-8c-0.5-0.4-6-8.4-6.2-9C475.6,334.4,473.6,329.4,472.3,326.3L472.3,326.3z"/>
	<path style="fill:#C98C26;" d="M611.1,333c1.6,2,3.5,3.4,5.3,4.9c0,0-0.8,4.9-4.3,10.8c-0.4-1-1.2-2.5-1.2-2.7c0-0.5-0.7-4-0.7-4.9
		c0-0.9,0.2-5.2,0.2-6.1C610.4,334.7,610.7,334,611.1,333L611.1,333z"/>
	<path style="fill:none;stroke:#552200;stroke-width:0.158;stroke-linejoin:round;" d="M473.6,319.7c-1.5,12.9-6.1,15.9-10.4,19.4
		c0,0,13.8,45.4,77.1,44.8c53.9,0,71-27.6,76.5-46c-9.1-6.7-8.3-12.3-10.4-18.2c2,11.9-17.3,44.2-65.8,44.3
		C483.8,364,472.8,326.4,473.6,319.7z"/>
	<path style="fill:none;stroke:#552200;stroke-width:0.158;stroke-linejoin:round;" d="M0,0"/>
	<path style="fill:#C47645;" d="M471.7,365.8c-0.5,0.2-1,0.4-1.5,0.7c0.1,1.8-0.8,3.3-0.7,5c0.1,1.4,0.6,2.8,1.2,4
		c0.8,1.7,1.9,3.1,3.2,4.2c1.4,1.2,3.1,1.9,4.7,2.5c1.6,0.6,2.6,0.6,5.1,1.2c0.7-0.3,1.3-0.6,1.9-1c-1-0.7-2.8-1-3.8-1.6
		c-1-0.6-2.3-1.2-3.5-2.1c-1.1-0.9-2.2-2-2.4-2.2s-2-3-2.2-3.4C473.6,372.6,472,367.7,471.7,365.8L471.7,365.8z"/>
	<path style="fill:#C47645;" d="M0,0"/>
	<path style="fill:#C47645;" d="M0,0"/>
	<path style="fill:#F2D196;" d="M491.4,331.8c-0.1,2.8-0.3,5.5-0.8,8.1c3.6,2.3,10.3,6.6,12.7,8.1c0.1-0.3,0.1-0.7,0.1-1
		c0.1-0.6,0.2-1.2,0.2-1.8c0-0.2,0.1-0.5,0.1-0.7l0,0c0,0,0-0.1,0-0.1c0.1-1.1,0.2-2.2,0.3-3.3c0-0.1,0-0.2,0-0.3L491.4,331.8z"/>
	<path style="fill:#C98C26;" d="M468.5,334.3c-1.6,2-3.5,3.4-5.3,4.9c0,0,1.3,4.2,4.9,10.1c0.4-1,0.6-1.8,0.6-2c0-0.5,0.7-4,0.7-4.9
		c0-0.9-0.2-5.2-0.2-6.1C469.3,336,469,335.2,468.5,334.3L468.5,334.3z"/>
	<g>
		<path style="fill:#F9E7D9;stroke:#550000;stroke-width:0.158;stroke-linejoin:round;" d="M472.7,376.8l-3-11.7l5.3,4l0.7,2.2
			l-0.2,2l-0.3,1.4l-0.8,1.1L472.7,376.8z"/>
		<path style="fill:#E6BA74;" d="M458,352.5c-0.6,1.3-0.1,1.9,0,2.7c0,0,4.1,5.9,5.6,9.5c1.2,2.8,2.4,9.2,2.4,9.2
			c-0.4-2.3,2.8-5.9,5.1-6.1c1.8-0.2,4.1,1.6,4.5,3.9c0.3,2.1-0.8,4.8-2.8,5.3c5.4-1.6,2.7-8.5,1.7-11.7c0,0-1.6-3.6-2.1-5.6
			c-1-3.9-1.9-12-1.9-12C463.9,344.3,460.4,347.3,458,352.5L458,352.5z"/>
		<path style="fill:#F9E7D9;" d="M465.2,346.2c-2.4,0.1-4.2,1.5-5.7,3.7c2.5,5.7,6.4,14.3,6.4,14.3l-4.6-14.3c1.7-2.6,4-3,6.5-1.7
			l-0.2-1.7C466.8,346.3,465.9,346.2,465.2,346.2L465.2,346.2z"/>
		<path style="fill:#F9E7D9;" d="M0,0"/>
		<path style="fill:#F9E7D9;" d="M0,0"/>
		<path style="fill:none;stroke:#552200;stroke-width:0.102;stroke-linejoin:round;" d="M458,352.5c-0.6,1.3-0.1,1.9,0,2.7
			c0,0,4.1,5.9,5.6,9.5c1.2,2.8,2.4,9.2,2.4,9.2c-0.4-2.3,2.8-5.9,5.1-6.1c1.8-0.2,4.1,1.6,4.5,3.9c0.3,2.1-0.8,4.8-2.8,5.3
			c5.4-1.6,2.7-8.5,1.7-11.7c0,0-1.6-3.6-2.1-5.6c-1-3.9-1.9-12-1.9-12C463.9,344.3,460.4,347.3,458,352.5L458,352.5z"/>
	</g>
	<path style="fill:#951B1D;" d="M488.9,345.8c-0.2,0.4-0.4,0.8-0.6,1.2c3.7,3.8,8.2,6.6,13.1,8.9c0.2-0.5,0.4-1.1,0.6-1.7
		L488.9,345.8z"/>
	<path style="fill:none;stroke:#552200;stroke-width:0.158;stroke-linejoin:round;" d="M491.6,315.4c-0.7,10.7,1.3,22.8-3.3,31.6
		c3.7,3.8,8.2,6.6,13.1,8.9c2.4-6.6,2.8-15.5,3-23.7C501,326,497.2,320.2,491.6,315.4L491.6,315.4z"/>
	<path style="fill:#FAECBD;" d="M597.9,344.2c-22.5,21.1-74.3,33.2-110.1,3.8l0.2,21.9c11.7,7.9,28.5,14.2,52.3,14
		c27.8,0,45.8-7.4,57.5-17L597.9,344.2z"/>
	<g>
		<path d="M487.5,358.3c-0.7,1.7-1.7,2.7-2.9,3.1c-1.2,0.4-2.4,0.1-3.7-0.9l-2.2-1.7c0.6-0.7,1.2-1.8,1.8-3.2l1.8-4.1
			c0.6-1.3,1-2.6,1.3-4l0.9,0.7C488.1,351.1,489.2,354.4,487.5,358.3L487.5,358.3z M486.1,357.2c0.6-1.4,0.8-2.8,0.5-4.1
			c-0.3-1.3-0.9-2.3-2-3.1l-3.8,8.8C483.2,360.3,485,359.8,486.1,357.2L486.1,357.2z M493.6,366.3l-1.5,1.9l-4.7-2.9
			c0.5-0.8,1.1-2,1.7-3.8l1.4-4.1c0.4-1.3,0.8-2.6,1-3.9l4.8,3l-1.3,1.5c-0.5-0.8-1-1.4-1.7-1.8c-0.1-0.1-0.3-0.2-0.6-0.4l-1.3,3.9
			l2.9,1.8l-1.5,1.4c-0.4-0.7-1-1.3-1.8-1.9l-1.4,4.1c1.1,0.5,1.8,0.9,2,1C492.2,366.3,492.9,366.4,493.6,366.3L493.6,366.3z
			 M500.3,368.6c-0.3,1.1-0.9,1.9-1.7,2.2c-0.7,0.3-1.6,0.2-2.4-0.2c-0.6-0.3-1.1-0.8-1.5-1.4l0.7-2.4c0.1,0.6,0.3,1.1,0.5,1.4
			c0.2,0.4,0.5,0.7,0.9,0.9c0.4,0.2,0.8,0.2,1.2,0c0.4-0.2,0.7-0.6,0.9-1.1c0.2-0.6,0-1.3-0.4-2.2l-1.2-2.4c-0.4-1-0.4-2-0.2-2.9
			c0.3-1,0.8-1.7,1.6-2.1c0.7-0.3,1.4-0.3,2.2,0.2c0.5,0.3,1,0.7,1.5,1.3l-0.6,2.2c-0.2-0.6-0.4-1-0.5-1.2c-0.2-0.3-0.5-0.6-0.8-0.8
			c-0.4-0.2-0.7-0.2-1,0c-0.3,0.2-0.6,0.5-0.7,1c-0.2,0.6,0,1.3,0.4,2.2l1.1,2.5C500.5,366.7,500.6,367.7,500.3,368.6L500.3,368.6z
			 M503.8,374l-2-0.9c0.5-1,0.8-2,1.1-3.1l1.3-5.6c0.3-1.4,0.5-2.7,0.6-3.8l2,0.9c-0.5,1-0.9,2.1-1.2,3.5l-1.3,5.5
			C504,371.6,503.9,372.8,503.8,374L503.8,374z M513.6,377.7l-1.7-0.6c-0.8-1.8-1.6-4.1-2.4-7l-0.4,1.8c-0.3,1.4-0.4,2.8-0.5,4.1
			l-2.1-0.8c0.4-0.8,0.8-2,1.1-3.6l1.1-5.3c0.2-1.1,0.3-2.3,0.4-3.7l1,0.4c1.3,0.5,2.2,1,2.8,1.6c0.9,0.9,1.2,2.1,0.9,3.6
			c-0.3,1.5-1.1,2.3-2.5,2.6C511.9,372.9,512.6,375.3,513.6,377.7L513.6,377.7z M512.3,367.7c0.3-1.5-0.3-2.6-1.7-3.3l-1,5.1
			c0.6,0.1,1.2,0.1,1.6-0.2C511.8,369,512.1,368.5,512.3,367.7z M521.4,377.3l-1.2,2.3l-5-1.4c0.4-0.9,0.7-2.3,1-4.2l0.7-4.5
			c0.2-1.4,0.3-2.8,0.3-4.1l5.2,1.5l-1.1,1.8c-0.6-0.6-1.2-1.1-1.9-1.3c-0.1,0-0.3-0.1-0.7-0.2l-0.7,4.1l3.1,0.9l-1.2,1.8
			c-0.5-0.6-1.2-1-2.1-1.3l-0.7,4.4c1.1,0.2,1.8,0.3,2.1,0.3C520,377.7,520.7,377.6,521.4,377.3L521.4,377.3z M536,367.7l-0.6,2.2
			c-0.5-0.3-1-0.6-1.3-0.7c-0.3-0.1-0.8-0.2-1.4-0.2l-0.2,7.7c-0.1,2,0,3.6,0.2,4.6l-2.3-0.1c0.3-1,0.4-2.5,0.5-4.7l0.2-7.6
			c-0.7,0-1.3,0.1-1.7,0.1c-0.6,0.1-1.1,0.2-1.6,0.4l0.6-2.2L536,367.7z M545.9,381.2l-2.3,0.1c0.2-1.1,0.3-2,0.3-2.8l-0.1-3.5
			l-4.4,0.1l0,1.8c0,1.5,0.2,3,0.4,4.4l-2.3,0.1c0.2-1.1,0.3-2.4,0.3-4.1l-0.1-5.5c0-1.7-0.2-3.1-0.4-4.3l2.3-0.1
			c-0.2,1.3-0.3,2.4-0.3,3.4l0.1,2.6l4.4-0.1l0-1.8c0-1.4-0.2-2.8-0.4-4.1l2.3-0.1c-0.2,1.2-0.3,2.5-0.3,4l0.1,5.1
			C545.5,378.4,545.7,380,545.9,381.2L545.9,381.2z M555.1,377.6l-0.7,2.8L549,381c0.2-1.1,0.2-2.6,0.1-4.6l-0.3-4.8
			c-0.1-1.5-0.3-3-0.6-4.3l5.6-0.6l-0.7,2.3c-0.7-0.4-1.5-0.6-2.2-0.5c-0.1,0-0.3,0-0.7,0.1l0.3,4.5l3.3-0.4l-0.8,2.3
			c-0.7-0.4-1.5-0.5-2.4-0.5l0.3,4.8c1.2-0.2,2-0.4,2.2-0.5C553.8,378.5,554.5,378.1,555.1,377.6L555.1,377.6z M570.9,376.7
			l-1.8,0.5c-1.4-1.1-3-2.7-4.7-4.9l0.3,1.8c0.2,1.5,0.6,2.9,1,4.1l-2.2,0.6c0.1-1,0-2.4-0.3-4l-0.9-5.6c-0.2-1.1-0.5-2.3-0.9-3.6
			l1.1-0.3c1.4-0.4,2.4-0.5,3.2-0.3c1.1,0.3,1.8,1.2,2.1,2.8c0.2,1.5-0.2,2.8-1.4,3.9C567.6,373.4,569.1,375.1,570.9,376.7
			L570.9,376.7z M566.2,368.3c-0.3-1.6-1.2-2.3-2.7-2l0.8,5.4c0.6-0.3,1.1-0.7,1.5-1.2C566.2,369.9,566.3,369.1,566.2,368.3
			L566.2,368.3z M574.6,375.3l-2.1,0.8c0-1.2-0.1-2.4-0.3-3.5l-1.2-5.8c-0.3-1.5-0.7-2.7-1.1-3.7l2.1-0.8c0,1.2,0.1,2.5,0.4,4
			l1.2,5.7C573.8,373.1,574.2,374.2,574.6,375.3z M583.7,364.1c0,0.7,0.1,1.4,0.2,1.9c0.1,0.3,0.2,0.9,0.4,1.8
			c0.2,0.9,0.5,1.7,0.7,2.2c-1,1-2.1,1.8-3.1,2.3c-1.5,0.7-2.8,0.7-4,0c-1.2-0.7-2.1-2.1-2.6-4c-0.5-2-0.5-3.9,0.2-5.6
			c0.6-1.7,1.7-2.9,3.2-3.6c0.7-0.3,1.6-0.5,2.5-0.6l0.6,2.2c-1-0.4-2-0.4-3,0.1c-1,0.5-1.7,1.4-2.1,2.7c-0.3,1.2-0.3,2.5,0.1,4
			c0.4,1.4,0.9,2.5,1.7,3.1c0.8,0.7,1.7,0.8,2.8,0.4c0.5-0.2,1.1-0.7,1.8-1.4l-0.4-1.6c-0.3-1-0.6-1.9-1.1-2.7L583.7,364.1z
			 M595.2,364.4l-2,1.3c-0.1-1.1-0.3-2-0.6-2.6l-1.1-3l-3.8,2.5l0.6,1.6c0.5,1.4,1.1,2.6,1.7,3.7l-2,1.3c-0.1-1.1-0.5-2.3-1-3.8
			l-1.7-4.8c-0.5-1.5-1.1-2.7-1.7-3.6l2-1.3c0.2,1.2,0.4,2.3,0.8,3.2l0.8,2.2l3.8-2.5l-0.6-1.6c-0.4-1.2-1-2.4-1.6-3.4l2-1.3
			c0.2,1.2,0.5,2.4,0.9,3.7l1.6,4.5C594,362.1,594.6,363.4,595.2,364.4L595.2,364.4z M598.3,345.8l0.5,2.2c-0.5,0.1-1,0.3-1.3,0.5
			c-0.3,0.2-0.7,0.5-1.2,0.9l3,6.3c0.8,1.6,1.5,2.8,2.1,3.5l-1.9,1.6c-0.2-1-0.7-2.3-1.6-4.1l-3-6.3c-0.6,0.6-1,1-1.3,1.3
			c-0.4,0.5-0.8,1.1-1.1,1.6l-0.4-2.2L598.3,345.8z"/>
	</g>
	<path style="fill:#FAECBD;" d="M480.9,338.7c-0.7-0.9-1.7-2.4-2.4-3.8c-2.1-3.7-3.7-7.6-4.4-11.1c-0.3-1.2-0.4-1.9-0.4-3.1
		c0-1,0-1.1,0.1-1.8c0.4-2.4,0.9-4,1.8-5.2c0.8-1,1.5-1.6,2.9-2.2c1.4-0.6,2.6-0.9,3.9-0.8c2.1,0.1,4,0.9,6.8,3
		c0.7,0.5,2,1.6,2.2,1.7c0.1,0.1,0.1,0.1,0,0.6c-0.1,1.6-0.1,2.9-0.1,9.3c0,4.8,0,6.9-0.1,7.7c0,0.6-0.1,1.1-0.1,1.1
		c0,0-0.1-0.1-0.4-0.4c-0.6-0.8-1.1-1.2-1.6-1.6c-1.2-0.8-2.5-0.8-4,0c-1.6,0.8-2.9,2.6-3.5,4.9c-0.2,0.6-0.3,1.4-0.4,1.8
		c0,0.2,0,0.3-0.1,0.4C481.2,339.1,481.1,339,480.9,338.7L480.9,338.7z"/>
	<path style="fill:#AE4C33;stroke:#000000;stroke-width:1.100000e-02;stroke-linejoin:round;" d="M490.7,333.4
		c-0.8-1-1.7-1.7-2.5-1.9c-0.3-0.1-0.3-0.1-0.3-0.3c0-0.1-0.2-4.4-0.4-9.5c-0.2-5.1-0.3-9.3-0.3-9.4c0.1-0.1,2.9,1.9,4,2.8
		c0.4,0.4,0.4,0.3,0.3,1.4c0,0.4-0.1,4.4-0.1,8.9c0,4.5-0.1,8.2-0.1,8.4c0,0.1-0.1,0.2-0.1,0.2C491.1,333.9,490.9,333.7,490.7,333.4
		z"/>
	<path style="fill:#DBA35A;stroke:#000000;stroke-width:1.600000e-02;stroke-linejoin:round;" d="M485,332c0,0-0.5-4.8-1.1-10.6
		s-1.1-10.6-1-10.6c0.1-0.1,1.4,0.2,2,0.4c0.4,0.1,1,0.4,1.4,0.7l0.8,0.4v0.7c0,0.7,0.6,16.5,0.6,17.8l0,0.7l-0.3-0.1
		c-0.4-0.1-1.4,0.1-2,0.4C485.2,331.9,485,332,485,332z"/>
	<path style="fill:#E9BE79;stroke:#000000;stroke-width:1.600000e-02;stroke-linejoin:round;" d="M480.3,337.8
		c-2.5-3.7-4.3-7.4-5.5-11c-1.1-3.5-1.4-6.1-1-8.5c0.7-3.8,2-5.6,4.7-6.8c1.2-0.5,2.2-0.7,3.2-0.8c0.5,0,0.9,0,0.9,0
		c0,0,0.4,3.7,0.9,8.2c0.5,4.5,0.9,9.3,1.1,10.6l0.3,2.5l-0.5,0.3c-1.6,1.1-2.7,3.2-3.2,5.8c-0.1,0.4-0.2,0.8-0.2,0.8
		S480.8,338.4,480.3,337.8L480.3,337.8z"/>
	<path style="fill:#012169;stroke:#550000;stroke-width:0.989;stroke-linejoin:round;" d="M487.3,346.1c-1.9-1.8-3.6-3.7-5.2-5.8
		c-0.5-0.7-0.9-1.2-0.9-1.3c0,0,0.1-0.5,0.2-1c0.5-2.9,1.9-5.1,3.8-6c2.1-1,3.7-0.6,5.4,1.5l0.6,0.8l-0.1,1.1
		c-0.3,4.2-1.1,7.7-2.5,10.7c-0.2,0.5-0.4,0.8-0.4,0.8C488.2,346.9,487.8,346.6,487.3,346.1z M474.3,364.8c-0.3-0.4-1.8-4.6-2-5.7
		c-0.3-1.2-0.7-3.6-0.9-4.4l-0.1-0.5l0.8,1c1.8,2.3,4.2,5,5.9,6.7c0.4,0.4,0.7,0.7,0.7,0.8c0,0.1-0.5,1.1-0.7,1.4
		c0,0-0.8,0.2-1.7,0.4c-0.9,0.2-1.7,0.4-1.8,0.4C474.5,364.9,474.4,364.9,474.3,364.8L474.3,364.8z"/>
	<g>
		<path style="fill:#F9E7D9;stroke:#550000;stroke-width:0.158;stroke-linejoin:round;" d="M607.3,377.7l3-11.7l-5.3,4l-0.7,2.2
			l0.2,2l0.3,1.4l0.8,1.1L607.3,377.7z"/>
		<path style="fill:#E6BA74;" d="M622,353.3c0.6,1.3,0.1,1.9,0,2.7c0,0-4.1,5.9-5.6,9.5c-1.2,2.8-2.4,9.2-2.4,9.2
			c0.4-2.3-2.8-5.9-5.1-6.1c-1.8-0.2-4.1,1.6-4.5,3.9c-0.3,2.1,0.8,4.8,2.8,5.3c-5.4-1.6-2.7-8.5-1.7-11.7c0,0,1.6-3.6,2.1-5.6
			c1-3.9,1.9-12,1.9-12C616.1,345.1,619.6,348.2,622,353.3L622,353.3z"/>
		<path style="fill:#F9E7D9;" d="M614.9,347c2.4,0.1,4.2,1.5,5.7,3.7c-2.5,5.7-6.4,14.3-6.4,14.3l4.6-14.3c-1.7-2.6-4-3-6.5-1.7
			l0.2-1.7C613.3,347.1,614.1,347,614.9,347L614.9,347z"/>
		<path style="fill:#F9E7D9;" d="M0,0"/>
		<path style="fill:#F9E7D9;" d="M0,0"/>
		<path style="fill:none;stroke:#552200;stroke-width:0.102;stroke-linejoin:round;" d="M622,353.3c0.6,1.3,0.1,1.9,0,2.7
			c0,0-4.1,5.9-5.6,9.5c-1.2,2.8-2.4,9.2-2.4,9.2c0.4-2.3-2.8-5.9-5.1-6.1c-1.8-0.2-4.1,1.6-4.5,3.9c-0.3,2.1,0.8,4.8,2.8,5.3
			c-5.4-1.6-2.7-8.5-1.7-11.7c0,0,1.6-3.6,2.1-5.6c1-3.9,1.9-12,1.9-12C616.1,345.1,619.6,348.2,622,353.3L622,353.3z"/>
	</g>
	<path style="fill:#012169;stroke:#550000;stroke-width:0.923;stroke-linejoin:round;" d="M605.6,365.7c0.3-0.4,1.6-4.5,1.8-5.5
		c0.3-1.1,0.9-3.3,1-4.2l0.1-0.4l-0.7,0.9c-1.6,2.2-4,5-5.5,6.6c-0.4,0.4-0.6,0.7-0.6,0.7c0,0.1,0.4,0.9,0.6,1.1
		c0,0,0.7,0.2,1.5,0.4c0.8,0.2,1.6,0.4,1.7,0.4C605.4,365.8,605.5,365.7,605.6,365.7L605.6,365.7z"/>
	<path style="fill-rule:evenodd;clip-rule:evenodd;fill:#2A7FFF;" d="M539.4,352.9c0,0-76.5-25.9-76-124.2l0.6-130h150.8l0.6,129.3
		C615.9,326.3,539.4,352.9,539.4,352.9L539.4,352.9z"/>
	<path style="fill-rule:evenodd;clip-rule:evenodd;fill:#2A7FFF;" d="M0,0"/>
	<g>
		<path style="fill:#C27E50;" d="M517.1,187.6c0.2,1,1.1,5.5,1.1,6.8s-0.7,5.8-0.7,7.1c0,1.3-1.4,8.7-1.4,8.7l3.7,0.8l1.5-4.8
			c0,0,0.6-4.4,0.6-5c0-0.6,0.5-8.8,0.5-8.8l-0.2-5.3L517.1,187.6z"/>
		<path style="fill:#AB612E;" d="M521.4,189.1l-3.6,0.1c0.2,0.6,0.1,1.4,0.8,2.6c0.7,1.1,1.4,2.3,1.7,2.7c0.3,0.4,0.5,1.1,0.5,2.4
			c0,1.2,0.1,2.2,0.1,3.7c0,1.5-0.7,4.6-0.8,5.5c-0.2,0.8-1.2,4.6-1.2,4.6s0.8-0.5,1.3-0.2l1.4-4.2c0,0,0.6-4.4,0.6-5
			c0-0.6,0.5-8.8,0.5-8.8l-0.1-2.4L521.4,189.1z"/>
		<path d="M516.1,210.3l-2.4,3.5c0.1,0.3,0.4,1,0.6,1.3c0.1,0.1,1.2-2,1.3-1.9c0.1,0.2-1.2,2.1-1,2.3c0.8,1,2.1,1.5,3.9,1.2
			c1.4-0.4,2-0.7,2.5-1.8l-1.1-3.9L516.1,210.3z"/>
		<path style="fill:#A1A1A1;" d="M516.9,211.5c-0.1,0.2-1.9,3.7-1.9,3.8c1.3,1.9,5,1.6,5.1,0.1c-1.9,0.4-3.1,1-4.3-1L516.9,211.5z"
			/>
	</g>
	<path style="fill:#ACACAC;" d="M510.3,188.6c0.8,0.5,2.2,4.2,2.2,4.2s0.8,1.9,1.4,2c0.6,0.2,0-0.8,1.4,0.5c1.4,1.4,3.2,2.4,3.2,2.4
		l2.6-0.2c0,0,2.6-0.7,3.1-1c0.5-0.3,0.8,0.2,1.1-1.7c0.4-1.9,0.9-2.2,1-4.8c0.1-2.5,0.1-7,0.1-7l-0.5-2.9h-3.4l-4.6,0.3l-3.3-0.3
		l-1.5,2.9L510.3,188.6z"/>
	<g>
		<path style="fill:#D7B5A0;stroke:#7D5035;stroke-width:0.422;stroke-linejoin:round;" d="M509.6,123.6c0,0-1-2-1.2-2.3
			c-0.2-0.4-0.9-2-1.6-3.6c-0.7-1.6-0.7-2.2-1.3-3c-0.7-0.9-1.6-1.6-2.6-2c-1.5-0.6-3.1-0.6-4.6-0.5c-0.9,0-1.7,0.2-2.6,0.6
			c-1.3,0.6-3.4,2.1-3.7,2.4s-2.2,2.8-2.2,2.8s-1,1.3-1.3,1.7c-0.3,0.4-1.5,2-1.9,2.4c-0.4,0.4-1.7,2.7-2,3
			c-0.3,0.3-0.4,0.6-0.8,1.1c-0.4,0.5-0.6,1.1-0.8,1.4c-0.1,0.3-0.5,1-0.5,1s0,1.1,0.1,1.6c0.1,0.6,0,2.1,0.3,2.9
			c0.2,0.4,0.9,0.9,0.9,0.9c2.3,0.1,4.5,0.5,4.4-1.5c-0.5,1.5-2.6,2.9-4.4,1.5l-0.2,1.1c0.1,0.5,0.1,1,0.5,1.3
			c1.3,0.8,2.3,0.9,3.3,1l2.9-0.6c1-0.1,3.8-0.2,5.1,1.8c0.9,1.4,2.8,6.1,2.4,7.8l12.6-0.4l-0.1-12.8l-0.3-6.8L509.6,123.6z"/>
		<path style="fill:#D0A386;" d="M492.3,115.1c-0.3,0.4-0.4,0.7-1.1,1.3c-0.6,0.6-1.2,1.4-2.3,3c-1.1,1.6-2.2,2.3-1.2,2.9
			c0.9,0.6,0.6,1,0.8,1.5c0.2,0.5,0.1,1.4,0.6,2.9c0.4,1.5,2.6,1.7,2.6,1.7s1.7,0.5,1.8-0.3c0.1-0.8-0.5-2.4,0.6-2.6
			c1.1-0.2,1.5,0.9,2.3-0.3c0.8-1.2,0.4-3.4,1.3-4.3c0.9-0.8,1.1-1.4,1.1-1.4s-1.8,0.6-2.4,0.5c-0.6,0-2.3-0.9-2.5-1.6
			c-0.2-0.7-0.5-3.9-0.5-3.9L492.3,115.1z"/>
		<path style="stroke:#000000;stroke-width:0.158;stroke-linejoin:round;" d="M482.7,130l0.6-1.1c0.4,0,0.6,0.2,0.8,0.5
			c0.2,0.2,0.5,0.3,0.7-0.1l0-1c0.3,0.3,0.6,0.6,0.7,1c-0.1,0.5-0.3,1-1.2,1.1c-0.4,0.2-0.9,0.8-1.3,1.5
			C482.8,131.2,482.8,130.5,482.7,130L482.7,130z"/>
		<path style="fill:#DEC7B7;" d="M487.6,121.3c0.8,0.8,1.2,0.6,1.3,2.1c0.1,1.5-0.2,1.4,0,1.7c0.2,0.4,1.1,1.2,1.3,2.1
			c0.2,0.9,0.2,1.5,0.1,2.1c-0.1,0.6-0.2,1.1-0.2,1.4c0.1,0.3,0.3,1.5,0.3,1.5s-0.7-0.3-1-1.2c-0.2-0.9-0.3-0.4-1.3-1
			c-4.9,9.1-2.2-3-2.4-3.5c-0.2-0.5-1.4-1.2-1.4-1.2C485.5,123.9,486.6,121.7,487.6,121.3z"/>
		<path style="fill:#DEC7B7;" d="M0,0"/>
	</g>
	<path style="fill:#DEC7B7;" d="M0,0"/>
	<g>
		<path style="fill:#C27E50;" d="M524.6,192.2c0,1.6,0.4,4.9,0.5,7.2c0.1,2.3,0.1,3.6,0.1,5v3.4l-0.4,2.6l3.7,0c0,0-0.3-1-0.2-2.4
			c0.2-2.2,0.4-5.1,0.4-5.6c0-0.8-0.2-6.6-0.2-6.6l-0.7-3.3L524.6,192.2z"/>
		<path style="fill:#AB612E;" d="M524.9,194.9c0,0-0.1,3.1,0.2,4.1c0.3,1,2.1,0.5,2.5,2.2c0.4,1.6,0.8,3.5,0.8,3.5l0.2-2l0.5-2
			l0.5-3.3l-1.3-9.8c0,0-4.4,0-4.4,0.6C523.9,188.8,524.9,194.9,524.9,194.9L524.9,194.9z"/>
		<path d="M524.8,210.4l-2.1,3.8c0.1,0.3,0.5,1,0.7,1.2c0.1,0.1,1.1-2.1,1.1-2c0.1,0.1-1,2.3-0.8,2.4c0.9,0.9,2.2,1.2,4,0.6
			c1.4-0.6,1.9-1,2.3-2.2l-1.4-3.7L524.8,210.4z"/>
		<path style="fill:#A1A1A1;" d="M525.7,211.4c-0.1,0.2-1.6,4-1.5,4c1.5,1.7,5.1,0.9,5-0.7c-1.9,0.7-3,1.4-4.4-0.3L525.7,211.4z"/>
	</g>
	<g>
		<path style="fill:#C27E50;" d="M565.9,180.2c0.5,3.9,1.4,8.1,2.4,10.3c1,2.2,2.7,7.7,2.7,7.7s-0.9,4.2-0.9,5.2c0,1-1,6-1,6
			l3.6-0.5c0,0,1.7-3.3,2.1-5.4c0.3-2,1.7-4.8,1.7-5.7s-1-3.9-1-3.9s-0.2-6-0.2-7c0-1,0.1-7.3,0.1-7.3L565.9,180.2z"/>
		<path style="fill:#AB612E;" d="M575.5,179.8l-7.3,0.3c0.8,2.3,1.4,4,2.5,6.2c1.3,2.6,0.5,1.7,1.9,5.2c1.3,3.5,0.9,3.9,1.9,5.5
			c1,1.6,1.2,2.9,1.2,2.9s0.5-0.7,0.9-1.7c0-0.1,0-0.2,0-0.3c0-0.9-1-3.9-1-3.9s-0.2-6-0.2-7C575.4,186,575.5,179.8,575.5,179.8
			L575.5,179.8z"/>
		<path d="M569.8,210.4l-0.6,3.5c1,1.3,2.9,0.6,4.8-0.1l-1.1-4.8l-3.7,0.4l-1.4,4.3c0.7,0.4,1.4,0.7,1.2,0L569.8,210.4z"/>
		<path style="fill:#8A8A8A;" d="M572.6,210c0.1,0.3,0.9,3.4,0.9,3.4c-1.3,0.7-2.6,1-3.7,0.3l3-0.8L572.6,210z"/>
	</g>
	<path style="fill:#ACACAC;" d="M562.5,182.3c0.8,0.5,2.2,4.2,2.2,4.2s0.8,1.9,1.4,2c0.6,0.2,0-0.8,1.4,0.5c1.4,1.4,3.2,2.4,3.2,2.4
		l2.6-0.2c0,0,2.6-0.7,3.1-1c0.5-0.3,0.8,0.2,1.1-1.7c0.4-1.9,0.9-2.2,1-4.8c0.1-2.5,0.1-7,0.1-7l-0.5-2.9h-3.4l-4.6,0.3l-3.3-0.3
		l-1.5,2.9L562.5,182.3z"/>
	<g>
		<path style="fill:#C27E50;" d="M579.1,183.8c0.8,3,3.2,6.1,3.6,7.2c0.5,1.1,0.1,0.6,1.5,3.1c0.1,3.3,0.8,6.1,0.5,7.5
			c-0.3,1.4-1,5.6-1,5.6l3.4-0.4c0,0,0.8-1.9,1.2-2.8c0.5-0.9,1.2-3.2,1.2-3.2s-0.1-4.2-0.1-4.7s-0.9-6.4-0.9-6.4l-2.1-4.1l-1.7-2.4
			L579.1,183.8z"/>
		<path style="fill:#AB612E;" d="M580.2,182.5c0.7,2,2.7,5.7,4,6.4c1.3,0.6,1.4,1.8,1.4,1.8s0.4,0.9,0.3,2.8
			c-0.1,1.9-0.8,2.7,0.3,4.3c1.1,1.6,2.2,2.1,2.2,2.1l1.1,0.8l0.3-5.4l-0.8-3.4l-0.4-3.2l-0.4-4.8l-3.4-2.7L580.2,182.5z"/>
		<path d="M584.4,207.8l-0.6,3.5c1,1.3,2.9,0.6,4.8-0.1l-1.1-4.8l-3.7,0.4l-1.4,4.3c0.7,0.4,1.4,0.7,1.2,0L584.4,207.8z"/>
		<path style="fill:#8A8A8A;" d="M587.3,207.5c0.1,0.3,0.9,3.4,0.9,3.4c-1.3,0.7-2.6,1-3.7,0.3l3-0.8L587.3,207.5z"/>
	</g>
	<path style="fill:#C9C9C9;stroke:#B3B3B3;stroke-width:0.158;stroke-linejoin:round;" d="M492.4,114.8c0.7-1.6,1.3-1.7,1.9-2.5
		c0.4-0.5,1.3-1.5,1.3-1.5s-0.1-1.6,0.3-2.1c0.6-0.8,2.6-0.8,2.6-0.8s0-1.3,0.4-1.5c0.6-0.4,2,0.8,2,0.8s0.4-1.2,0.7-1.3
		c0.7-0.3,2.1,0.7,2.1,0.7s1-0.7,1.5-0.7c0.7,0.1,1.1,1.1,1.9,1.4c0.8,0.3,1.6,0.4,2.3,0.9c0.4,0.3,1,1.1,1,1.1s1.2,0.4,1.8,0.8
		c0.6,0.4,1.6,1.3,1.6,1.3s0.7,0.4,1.1,0.7c0.8,0.7,2.2,2.5,2.2,2.5s1.4,0.8,2,1.3c0.6,0.5,1.9,1.5,1.9,1.5s1.3,1.4,2,2.1
		c0.6,0.6,1.7,1.9,1.7,1.9s1.1,0.6,1.4,1.2c0.3,0.5,0.2,1.5,0.4,1.7c0.2,0.2,1.2,0.4,1.7,0.9c0.5,0.5,1.3,1.8,1.3,1.8
		c8.4,1.5,17,1.9,26,0.9c0,0,10.3-2.3,15.4-2.4c3.2,0,6.6-0.3,9.6,1.2c3.3,1.6,8.7,8.1,8.7,8.1l2.7,6.5l1.8,7.5
		c1.5,6.8-0.4,12.4-1.3,7.5c-0.5,0.7-2-6.5-1.9-6.6l-0.5-4l1,7.5l0.7,4.3l-0.5,2.5l-0.5-1.6l0.5,3.4l1.7,4v1.8l-0.3,0.5l-0.1,5.4
		l-1.7,0.7c0.5,1.8,0.8,3.5,0.4,4.9l-1.1,2.9l-2.1,1.7c0,1.2,0.4,2.5-0.5,3.6c-0.7,0.2-1.4,1.3-2.3-0.1c0,0-0.9,1.3-1.4,1.3
		c-0.6,0-1.5-1.2-1.5-1.2l-1.7,0.4l-2.3-1.6l-1.8,1.1h-1.2l-2.8-2.6c0,0-2.4-0.7-2.7,0c-0.3,0.7-1.4,1.1-1.4,1.1l-2.3-1l-2.2,0.8
		l-1,1l-1.8,1.7l-1.6-0.2c0,0-2-0.4-2.2,0.4c-0.2,0.7-0.5,2.3-1.2,2.4c-0.7,0.1-1.7-1.9-1.7-1.9s-0.5,1.2-0.9,1.4
		c-0.7,0.4-2.3-0.4-2.3-0.4s-0.9,1.2-1.4,1.3c-0.6,0.1-1.8-0.7-1.8-0.7s-0.9,0.6-1.4,0.5c-0.6-0.1-1.6-1.3-1.6-1.3s-1.2,0.7-1.8,0.7
		c-0.9,0.1-2.7-0.5-2.7-0.5s-0.8,0.5-1.2,0.5c-0.8-0.1-1.5-1.1-2.3-1.3c-0.5-0.1-0.9,1-1.1,1c-0.6,0-1.2-0.5-1.2-0.5l-0.4-1.2
		l-0.7-0.3l-0.4,0.3c0.6,1.1-0.2,0.7-0.5,1l0.4,1.8c-0.1,0.7,0.3,1.4-1.2,1.9c0,0-1.2-0.6-1.3,0c-0.1,0.6-0.5,1.3-0.5,1.3
		s-1.6,0-1.4,0.5c0.3,0.9,0.6,1.8,0,2.8c0,0-1.2,0.6-1.9,0.4c-0.6-0.1-1.4-1.2-1.4-1.2l-0.6-2.2c0,0-1.9-0.1-2.6-0.7
		c-0.8-0.7-1.8-3.1-1.8-3.1h-1.7c0,0-2.4-0.1-2.8-0.1c-0.4,0-4.6,0.2-6.7-1c-1.6-0.9-4-4.3-4-4.3s-1.9-2.4-2.5-3.8
		c-0.4-0.9-0.7-3-0.7-3l-1.1-2.3c0,0-1.1-1.8-1.4-2.9c-0.1-0.5,0-1.6,0-1.6l-0.3-5.5c0,0-0.6-2.1-0.6-3.2c0-1.5,0.8-4.4,0.8-4.4
		l0.3-3l-0.4-3c0,0,0.2-1.5,0-2.2c-0.3-1.1-1.3-1.7-1.8-2.8c-0.4-0.8-0.6-1.6-0.8-2.5c-0.1-0.8,0.2-1.7,0.1-2.5
		c-0.1-1.1-0.9-3.3-0.9-3.3l0.4-1.1c0,0,2.6-3.5,3.4-3.5s2.5,0.6,3.5-0.2c1.2-1,2.3-3,2.2-4.9c-0.1-1.9-2.1-2.8-2.6-4.6
		c-0.6-2-0.6-6.5-0.6-6.5l-0.8-2.6l-1.2-1.8l-3.3-0.8L492.4,114.8z"/>
	<path style="fill:#ACACAC;" d="M501.6,163.6c2.2,0.4,2.9,0.6,4.7-0.1c1.8-0.7,3.5-1.7,3.5-1.7s-1,2.1-1.9,2.7
		c-0.9,0.6-2.2,1.7-2.2,2.2c0.1,0.4,0.2,0.1,1.4-0.5c1.2-0.6,3.6-2.3,1.8,0.6c-1.9,2.9-2.7,3.3-2.9,3.9c-0.2,0.6-1,2.2-0.9,3.1
		c0.1,0.9,3-0.5,3-0.5s-1.2,1.2-2.5,2.9c-1.2,1.6-1.9,2.4-1.9,2.4s-1.4-1-1.5-4.7c-0.1-3.7-0.9-7.7-1.1-8.5c-0.2-0.8,0-1.9,0-1.9
		L501.6,163.6z"/>
	<path style="fill:#ACACAC;" d="M0,0"/>
	<path style="fill:#ACACAC;" d="M0,0"/>
	<path style="fill:#2C1C12;" d="M506.1,125.5c-0.2-1.4-0.5-2.8,0.1-4.6c0.3-1.5,1.9-2.7,3.2-3c2-0.4,5,0.1,5.8,2.3
		c0.5,1.5,0.7,3.4-1.4,4.3c-1.6,0.8-3.2,3.4-5,3.8C508,127.4,507.7,126.3,506.1,125.5L506.1,125.5z"/>
	<path style="fill:#D6B39D;" d="M506,125.3c-0.2-1.4-0.5-2.8,0.1-4.5c0.3-1.4,1.9-2.6,3.1-2.9c1.9-0.4,4.9,0.1,5.6,2.2
		c0.5,1.4,0.7,3.3-1.4,4.2c-1.6,0.8-3.1,3.3-4.9,3.7C507.8,127.1,507.6,126.1,506,125.3z"/>
	<path style="fill:#181818;stroke:#6F3F1E;stroke-width:0.158;stroke-linejoin:round;" d="M507.5,124.2c0.8-0.4,1,1,1,1.4
		c1.7-1.9,3.6-3.8,4.3-3.5C513.1,119.8,507.8,118.8,507.5,124.2L507.5,124.2z"/>
	<g>
		<path style="fill-rule:evenodd;clip-rule:evenodd;stroke:#000000;stroke-width:0.158;stroke-linejoin:round;" d="M496.2,117.9
			c-0.6,0-1,0.4-1.2,1l0,0.2c0,0-0.1,0.2-0.2,0.3c-0.1,0.1-0.4,0.3-0.5,0.5c-0.2,0.3-0.5,0.7-0.6,1.1c-0.1,0.3-0.2,1.1-0.2,1.1
			s0.2-0.7,0.4-1.1c0.2-0.3,0.3-0.6,0.5-0.9c0.1-0.2,0.5-0.4,0.5-0.4l0.2,0.3l-0.1-0.6c0.1,1.1,0.8,1.5,1.3,1.5
			c0.7,0,1.3-0.6,1.3-1.4C497.5,118.5,496.9,117.9,496.2,117.9L496.2,117.9z"/>
		<path style="fill-rule:evenodd;clip-rule:evenodd;stroke:#000000;stroke-width:0.158;stroke-linejoin:round;" d="M0,0"/>
		<path style="stroke:#000000;stroke-width:0.158;stroke-linejoin:round;" d="M495.5,119.4l0.1,0.3l1.2,0c0,0,0.2-0.3,0.2-0.3
			C496.8,119.4,495.5,119.4,495.5,119.4L495.5,119.4z"/>
		<path style="stroke:#000000;stroke-width:0.158;stroke-linejoin:round;" d="M0,0"/>
	</g>
	<path style="stroke:#000000;stroke-width:0.158;stroke-linejoin:round;" d="M0,0"/>
	<path style="fill:#C99472;" d="M506.3,123c0,0,0.9-3.2,2-3.9c1.4-0.9,3.2-0.9,4.6,0.1c0.4,0.3,0.8,1.6,0.8,1.6s-1-0.7-1.6-0.7
		c-1.6,0-2.6-0.1-3.8,0.6C507.6,121.1,506.3,123,506.3,123z"/>
	<path style="fill:#ACACAC;" d="M498.5,144.9c2.2,0.2,3.7,0,4.3,0c0.6,0-0.5-0.2,0.8,1.4c1.2,1.6,0,1.2,1.7,1.9
		c1.7,0.6,5.3,0.2,5.3,0.2s-1.5,1.6-2.6,1.6c-1.1,0-4.2-0.4-5.1,0c-0.9,0.4-2,2.1-2,2.1l0.5,2.1h-1.2l0.5-4.3l-1.4-2.9L498.5,144.9z
		 M522.3,122.7c0,0,0.6,1.9,0.6,3.3c0,1.4,0.5,2.1,0.5,2.1l0.3,1.4l1.5,0.2l1.1,3.3c0,0,0-4.9,1.2-4.1c1.2,0.8,1.1-1.2,1.7,1
		c0.6,2.3,1.2,4.3,1.2,4.3s-0.9-2.1,0.9-2.3c1.9-0.2,2.8-0.8,2.9,0.4c0.2,1.2,0,1.4-0.2,2.9c-0.2,1.4-0.6,3.5-0.2,2.5
		c0.5-1,0.2-2.3,0.9-1.9c0.8,0.4,0.5-1.2,1.2,1.9c0.8,3.1,0.8,3.5,0.8,3.5s0.3-0.2,0.6-3.7c0.3-3.5-0.8-3.9,0.3-5.3s1.7-3.5,3.2-2.5
		c1.5,1,1.4-1.2,2.2,3.5c0.8,4.7,1.4,6.2,1.4,6.2s0-1.4-0.2-4.9c-0.2-3.5-0.3-4.5-0.3-4.5l-2.6-1.2c0,0-4.2,0.8-4.8,0.8
		c-0.6,0-2.6,0-3.7-0.6c-1.1-0.6-6.6-2.5-6.6-2.5l-3.6-2.7L522.3,122.7z M548.1,129.5c5.6,0,5.9-0.4,9.3-0.4c3.4,0,4.8-1.6,6.6-1.9
		c1.9-0.2,2.9-0.2,5.6-0.2c2.6,0,2.5-1.9,7-0.2c4.5,1.6,4.9,2.1,5.7,2.5c0.8,0.4,3.7,2.9,3.7,2.9l3.6,4.7c0,0-3.4-3.9-4.3-4.7
		c-0.9-0.8-5.1-2.1-5.1-2.1s-0.9-0.2-0.9,1.2s1.7,3.7,1.7,3.7l3.1,2.5l1.1,2.9l-2.8-3.3c0,0-1.7-0.8-1.9,0.2c-0.2,1,0.5,2.7,0.5,2.7
		s-1.7-2.5-2.5-4.5c-0.8-2.1-1.2-3.5-2.2-4.3c-0.9-0.8-2.9-1.9-2.9-1.9s-4-1.6-3.4,0c0.6,1.6,0.5,0.8,1.2,2.9
		c0.8,2.1,1.4,1.4,3.2,5.1c1.9,3.7,2.3,4.3,0.9,2.5c-1.4-1.9-1.7-2.3-2.6-4.1c-0.9-1.9-1.7-3.1-2.8-3.3c-1.1-0.2-1.4-1.4-1.4,0.2
		c0,1.6-0.9,0.6,0,2.7c0.9,2.1,0.8,1.9,1.2,4.1c0.5,2.3,2,6,2,6s-1.4-0.8-1.9-2.5c-0.5-1.6-2-3.9-2.3-6c-0.3-2.1-1.5-4.3-1.5-4.3
		l-2-0.4c0,0-0.5,0.8-0.5,1.9s-0.3-0.8-0.3,1.9c0,2.7,0.2,1.6,0.5,4.9c0.3,3.3,0,1-0.6-0.4c-0.6-1.4-1.1-3.1-1.5-5.3
		c-0.5-2.3-0.9-3.7-0.9-3.7l-1.2,1.6l-0.9-1.9c0,0-1.5-0.4-1.5,0.4s-0.8,2.9-0.8,4.7v6c0,0-0.8-3.1-0.8-4.3c0-1.2-0.9-4.9-1.2-4.1
		c-0.3,0.8-2.2,0.8-2.2,1.9v2.5c0,0,0.9,0-0.6-3.9C549.8,130.3,548.1,129.5,548.1,129.5L548.1,129.5z M0,0"/>
	<path style="fill:#ACACAC;" d="M515,183.6c1.4-0.4,1.2,2,4.6,1.5c3.4-0.4,5.5-2.2,5.9-3.2c0.4-1,0.4-5.7,0.9-5.2
		c0.4,0.4,0.8,3.8,1.5,4.2c0.8,0.4,1.1,1.7,2.2,0.4c1.1-1.3,1.6-1.7,1.7-3.1c0.1-1.3-0.1-4.5,0.4-3.9c0.5,0.6,2,5.8,2,5.8
		s0-4.8,0.7-3.6c0.7,1.2,1.6,4.2,1.6,4.2s0.7-3.5,1.6-3.6c0.5-0.1,1.2,2.2,2.6,2.9c3.9,1.7,2.4,0.4,3.9,1.4c1.5,1-0.5-2.7,2-2.7
		c1,0,1.2,2.5,1.9,3.3c1.1,1.2,1.6-1,1.6-1s1.9-2.9,2.2-3.6c0.3-0.7-0.4-6.7,0.8-3.2c1.2,3.5,2.9,4.5,2.9,4.5l1.2,1
		c0,0,1.6-1.4,2.1-1.2c0.4,0.1,1.3,0.5,1.9,0.5c0.5,0,1.1-1.4,1.6-2l1.3-2c0,0-0.3-2.6,2.7-2.9c1.4-0.3,2,5.5,3.1,5.8
		c1.1,0.3-1.5-6.5,0.3-4.6c1.9,1.9,1.6,4.6,2.9,5.7c5,10.7,0.6,1.4,1.1,2.2l1.9,2.1c0,0,1,4,0.2,4.5c-1.4,0.9-1.9-1.4-1.9-1.4
		s-2.9-4.2-4.5-4.4c-1.6-0.1-2.7-1.9-5.8,0c-3.1,1.9-1.9,1.2-4.5,2.5c-2.6,1.3-3.1,2-5,1.9s-2.9,0.8-5,0.8s0.7-0.6-3.3,0.3
		c-3.1,0.7-6.3,1.4-9,1c-0.8-0.1-1.6,0.6-2.3,0.1c-0.7-2.6,0.9-2.7,0.8-3.9c-2.3,0.9-2.5,1-3.6,1.9c-1.6,2.9-0.5,2.9-1.9,4
		c-1.4,1.2-2.9,3.7-2.9,3.7s-0.2,0.4-2-2.2c-1.7-2.6,1.1-0.4-2.3-1.6c-3.4-1.2-0.4-1.5-3.2-1.9c-0.3,0.2-1.7-1.7-1.7-1.7L515,183.6z
		"/>
	<path style="fill:#959595;" d="M568.9,169c0,0,0,2.5-0.4,3.6c-0.5,1.2-1.1,0-3.1,0.3c-2,0.3-1.2,3.2-1.2,3.2l-1.6,2.9l-0.7,0.6
		l-3.6,1.4c0,0-2,0-3-1.1c-1-1.1-0.9-0.8-1.7-1.6c-0.8-0.8-1.8,1.4-2.1,2c-0.3,0.6-1.5,2.2-3,2.4c-1.4,0.2-1.3-2.3-1.8-3.2
		c-0.5-0.9-0.2,1.5-0.7,2.5c-0.5,1.1-1,0.2-2.9-0.9s-2.1,0.3-2.1,0.3l-3.1-3.6c0,0-0.2,2.1-0.6,4.5c-0.5,2.4-1.8,3-2.4,6.1
		c-0.1,0.5-0.5,0.6-0.6,0.9c0.1,0,0.8,0.6,1.4,0.6c0.2,0,0.6-0.9,1.1-0.8c0.8,0.1,1.5,1,2.3,1.1c0.4,0,1.2-0.4,1.2-0.4
		s1.8,0.5,2.7,0.4c0.6-0.1,1.8-0.6,1.8-0.6s1,1,1.6,1.1c0.5,0.1,1.4-0.4,1.4-0.4s1.2,0.7,1.8,0.6c0.6-0.1,1.4-1.1,1.4-1.1
		s1.6,0.6,2.3,0.3c0.4-0.2,0.9-1.2,0.9-1.2s1,1.7,1.7,1.6c0.7-0.1,1-1.4,1.2-2c0.2-0.6,2.2-0.3,2.2-0.3l1.8-0.3l1.6-0.9l1-0.8
		c0,0,1.4-0.7,2.2-0.7c0.8,0,1.5,0.9,2.3,0.8c0.5-0.1,0.9-0.7,1.4-0.9c0.9-0.3,1.8-0.3,2.7,0c0.7,0.2,1.8,1.4,1.8,1.4
		c0,0,1.8,0,1.8,0c-0.6-0.3-3.6-1.8-4-5.2c-0.6-3.1-0.5-1.6-1.6-4.5C569.4,174.4,568.9,169,568.9,169L568.9,169z M523.5,186.1
		c1.1,0,2.5-0.6,2.7-1c0.2-0.4,0.1-1.4,0.4-1.3c0.3,0.1,0.2,1.5,0.9,1.6c0.6,0.1,2.9-2,2.2-0.7c-0.7,1.2-2.3,1.4-2.4,2.7
		c-0.1,1.2-0.5,1.7-0.5,1.7s-0.5-1.4-0.9-1.6C525.4,187.2,523.5,186.1,523.5,186.1L523.5,186.1z M0,0"/>
	<path style="fill:#959595;" d="M593,165.5c-0.4,0.3-0.7,0.8-0.9,1c-0.4,0.4,0.1,2.6,0.1,3.6c0,1-1.1,2.2-2.3,2.5
		c-1.2,0.3-0.5,3.1-0.9,4.6c-0.4,1.4-0.4,2.9-0.6,4c-0.3,1.1-2.1,2-2.3,3c-0.1,0.7,0.2,2,0.7,3.3c0.3-0.1,0.5-0.3,0.8-0.4
		c0.9-1.1,0.5-2.4,0.5-3.6l2.1-1.7l1.1-2.9c0.5-1.4,0.1-3.2-0.4-4.9l1.7-0.7l0.1-5.4l0.3-0.5L593,165.5L593,165.5z"/>
	<path style="fill:#E5E5E5;" d="M514.3,180c0.7,0.1,3,1.6,3.6,2.8c0.6,1.2,0.2,1.9,1.6,3.7c1.4,1.8,3.4,2.7,3.6,2.9
		c0.2,0.1,1,1,2.5,1.4c1.5,0.4,0.7,1.3,1.6,0.9c0.9-0.4,0.8-0.9,1.5-2.1c0.7-1.2,1.5-2.8,1.9-3.2c0.4-0.4,0.9-1.4,0.9-2.8
		c0.1-1.4,0.9-1,0.1-3.4c-0.9-2.4-2.7-6-3.1-7.5c-0.4-1.5-1.1-3.8-1.4-3.6c-0.3,0.1-3.3,1-3.8,2c-0.5,1-2.8,2.8-3.2,3.4
		c-0.4,0.6-2.6,2.3-3,2.9C516.8,178,514.5,180.1,514.3,180L514.3,180z"/>
	<path style="fill:#C9C9C9;stroke:#B3B3B3;stroke-width:0.158;stroke-linejoin:round;" d="M515.6,177.4c2.3-0.2,2.2-0.6,3.6-0.6
		c1.4,0,0.2,0.1,2.6,0.1c2.4,0,3-0.3,4.3-1.3c1.3-1,2.6-3.6,2.6-3.6s-1.1,2.4-2.3,4c-1.2,1.6-1.9,1.6-3.3,1.4c-1.4-0.1-3.8,0-3.8,0
		l-5.2,0.6L515.6,177.4z M519,181.6c0,0,2.2,0.1,3.3,0.1c1.3-0.1,2.7,0.1,3.9-0.4c0.8-0.4,2.3-1.8,2.3-1.8s-1,1.1-1.6,1.5
		c-0.7,0.5-1.5,1-2.3,1.2c-1.2,0.3-2.5,0-3.7-0.2C520.3,181.8,519,181.6,519,181.6L519,181.6z M522.7,185.9c0,0,1.3,0.6,2.7,0
		c1.4-0.6,1.3-0.6,2.6-1.3c1.3-0.7,2.1-1.7,1.6-1.2c-0.4,0.6-2.2,1.7-2.2,1.7l-2.7,0.9L522.7,185.9z"/>
	<g>
		<path style="fill:#3D6C1E;" d="M495.5,217.9l4.8-2.5c-1.8-3.4-2.2-7.3-2.2-11.3c2,2.4,3.6,5.1,5.3,8.3c-2.9-4.8-2.7-7.3-2.5-12
			l3.7,7.5c-0.2-2.5-0.6-4.9,0.8-8c1.6,2.2,1.9,5.5,2.3,8.8c0.3-2.5,0.8-4.2,2-6.6c1,2.7,1.1,5.9,1.1,9.4c0.7-2.5,1.3-4.9,2.5-6.8
			c0.5,2.2,0.8,5.8,0.6,8.2c0.5-3.2,2.2-3.9,4.2-4.2c0.3,0.8,0.2,2-0.6,3.9c1.1-1.5,2.2-3,4.2-3.9c-0.1,1.5-0.2,3.1-1.5,4.7
			c2-2.7,3.4-5.8,6.9-7.8l-2.2,8.4c1.5-4.1,3.5-8,8-10.9c0,1.9-0.1,3.8-0.9,5.6c1.5-3.3,4-5.4,7.6-6.4c-0.2,2.2-1.4,4-2.6,5.8
			c1.9-2.3,3.7-5.1,7.3-6l-3.1,6.4c2.3-2,4.2-4.6,7.3-4.9c0.4,1-2.8,5.1-2.8,5.1s6.5-7.3,10-7c-1,3.1-2,5-4.5,7.2
			c2-2,3.7-4.7,6.6-5.1c-0.4,1.8,0.6,3.4-1.9,5.6c1.8-1,3.6-2.6,5.3-0.5c0.2-1.7,0.7-2.9,1.4-3.8c1.8,1.9,2.3,2.8,2.9,4.7
			c-0.5-2.4-0.3-4.6,0.2-6.8c2.5,1.9,1.8,5,2.2,7.7c0.4-2.9-0.9-6.5,2.1-8.3c0.8,2.2,0.9,4,0.8,5.8c2.3-1.2,3.8-2.5,4.5-3.9
			c0.9,0.5,1,1.6-0.2,3.9c1.9-2.1,3.7-4.8,5.6-4.3c-0.3,1.1-0.4,2.6-1,4.6c1.8-4.1,3.4-4.9,6.4-5.2c-0.2,1.7-1.4,4-3.1,6.6
			c3.1-5.5,6.4-8,9.7-7.2c-0.9,2.5-1.3,5-4.3,7c2.6-1.8,5.1-4.7,8-1.2c-1.6,2.3-4.3,3.4-7.5,3.8l7.3,9l-0.3,8.8L495,227.6
			L495.5,217.9z"/>
		<path style="fill:#294814;stroke:#007300;stroke-width:0.159;stroke-linejoin:round;" d="M504.6,216.9c0,0,2.8,1.3,2.5-0.2
			c-0.3-1.5-1.4-4.5-1.4-4.5s1-0.6,1.5,0c0.5,0.6,1.4,1.2,1.4,1.2l0.3-1.7l-1.3-1.9c0,0,0.5-1,1.1,0c0.5,1,0.9,1.6,1.4,2.2
			c0.5,0.6,2.1,1.9,2.1,1.9l1-1.7l1,1.3l1.4-2.2l0.8,3.2l2.3-2.6c0,0-0.1,1.5,0,2.2c0.1,0.7-0.3,2.6,0.7,2c1-0.6,2.7-2.6,2.7-2.6
			s-1.1,2.5-0.4,2.8c0.7,0.3,0.5,1.6,1.5,0.3c1-1.3,1-1.5,1.8-2.5c0.8-1,1.1-3.5,1.1-1.5c0,2,0.1,2.9,0.1,2.9s0.1,1,0.8,0.9
			c0.7-0.1,1-0.4,1.5-1.2c0.5-0.7,0.9-2.5,1.6-2.8c0.8-0.3,1.4-0.1,2.4-0.9c1-0.7,2.5-1.6,2.9-1.6c0.4,0-1.1-1,1.1,0.3
			c2.2,1.3,2.5,1,2.9,1.5c0.4,0.4,0.5,0.3,3.2,2.2c2.6,1.9,2.1-3.3,2.1-3.3s6.3,9.3,7,9.4c0.6,0.1-2.7-5-2.3-4.9
			c1.3,0.3,3,2.7,3,2.7l0.5-1.7l-2.8-2.5l3.8,0.1l-1.8-2.3l-0.1-1.5c0,0,1-0.1,1.4,0.1c0.4,0.3-0.5,1.7,2.2,1.6
			c2.7-0.1,2.8-0.6,2.8-0.6s0.9-0.6,1.4,0.7c0.5,1.3,0-0.4,1.5,0.3c1.5,0.7,1.1,2.2,1.6,0.6c0.5-1.6,0.7-2.5,0.7-2.5l1,3.2
			c0,0,0.8,0.7,0.9,0.1c0.1-0.6,0.4-2,0.4-2l0.8,2.2l0.7-1l0.7-1.3l1.6-0.7l1.5-0.6l0.9,0.7l0.5-0.4l1.2,0.1l1-0.4l1,0.6l1.1,0.6
			l1.4,1.2c0,0-0.9,0.4,0.9-0.1c1.7-0.6,2-1.7,3.3-1.7c1.3,0,3.3-1,3.9-0.6c0.7,0.4,0.5-0.9,1.3,1c0.8,1.9,0.9,1,1.4,4.1
			c0.5,3.1,0.5,2.6,0.5,6.3c0,3.6-0.2,5.5-0.2,5.5l-26-0.1l-37.9-1l-15.3-0.1l-5.7-1.7l-1.3-3.7l2.6,1L504.6,216.9z"/>
		<path style="fill:#98B432;" d="M510,218.4l1.1,11.4l4.4,3.5l7.2,0.1l0.1-6.8l-1.7,1.1l1.1-3.6l-2,0.6l0.6-2.4l-2.4,1.1l-0.7-3.3
			l-1.2,2.1l-0.4-2.9l-1.2,1.9l0.2-2.8l-1.5,2l-0.5-2.9l-1,3.5L510,218.4z M555.5,216.9l0.4,5.2l-2.1-2.6l1.1,6.8l3.6,3.6l7.5,2.4
			l-0.3-2.3l0.4-3l1.9-1.3l-1.8-2.3l-1.6,1v-2l-1.5,1.3l-0.2-4.6l-1.9,3.6l0-3.3l-2.2,1.7l0.1-3.7l-1,1.8l-0.8-4.1l-0.7,2.9
			L555.5,216.9z M567.7,223.8l4.4,3.2l7.2-3l-0.9-8.8l-1.2,2.6l-0.5-2.8l-1,2.4l-1.6-2.6v3.1l-2.2-3.4v5.2c0,0-2.5-2.9-2.5-2.5
			c0,0.4,0.4,2.7,0.4,2.7l-1.9,0.2l2.2,2L567.7,223.8z"/>
		<path style="fill:#3D6C1E;" d="M499.3,208.5c0.1,0.7-0.2,0.7,0.7,2.5c0.9,1.8,0.8,1.7,1.4,3.1c0.7,1.4,0.9,2.1,0.9,2.1l-2.1,0.7
			l3-0.4l0.8-0.3c0,0-1.1-0.9-1.2-1.3c-0.1-0.4-1.4-2.3-1.6-3.3c-0.2-0.9-0.9-2.5-0.9-2.5L499.3,208.5z"/>
		<path style="fill:#98B432;" d="M499.2,208c0,0.3,0.3,0.4,0.5,1.5c0.3,1.1,0.6,2.1,0.7,2.4c0.1,0.3,0.6,1.6,0.9,2
			c0.3,0.4,0.9,1.2,0.9,1.2l-0.5-2.8c0,0-0.7-1.7-0.8-2.2C500.7,209.5,499.2,208,499.2,208L499.2,208z M501.3,204.2
			c-0.1,0.3-0.1,2,0.1,2.4c0.2,0.4,0.2,0.8,0.6,1.9c0.4,1.1,1.1,2.5,1.1,2.5L501.3,204.2z M505.3,201.7c0,0-0.4,1.5-0.4,2.3
			c0,1.2,0.4,3.6,0.4,3.6L505.3,201.7z M509.6,203.2l0.5,3.2l0.2,4c0,0-1.1-2.5-1-2.9C509.5,207.3,509.6,203.2,509.6,203.2
			L509.6,203.2z M513.1,206.2l0.4,2.6l-0.1,2.9c0,0-0.5-1.7-0.6-2.6C512.8,208.1,513.1,206.2,513.1,206.2L513.1,206.2z M517.6,209.4
			l0.1,1.2l-0.3,1.4l-0.8,0.3l0.4-0.8c0,0,0.3-0.9,0.3-1C517.3,210.5,517.6,209.4,517.6,209.4L517.6,209.4z M521.3,209.5
			c0,0.1,0,1.3,0,1.3l-0.6,1.6l-1.2,1.3l0.8-1.6l0.7-1.5L521.3,209.5z M526.3,206.7c0,0-0.5,1.7-0.5,2c0,0.2-0.8,3.3-0.8,3.3
			l-0.5,1.6c0,0-1.8,1.4-1.6,1.3c0.2,0,1.1-1.1,1.3-1.6c0.2-0.5,0.8-2.8,0.9-3.1s0.7-2.5,0.7-2.5L526.3,206.7z M532.5,204.3
			c0,0.3-0.2,2.1-0.2,2.5c-0.1,0.5-0.4,1.3-0.5,1.7c-0.1,0.4-0.8,1.7-1,2.1c-0.2,0.4-1,0.9-1.2,1.2c-0.2,0.3-0.8,0.7-1,1.1
			s-1.2,2-1.2,2s0.2-1.3,0.4-1.8c0.2-0.5-0.1-1,0.7-1.6c0.8-0.7,1.3-0.9,1.5-1.1c0.2-0.2,0.6-0.9,0.8-1.4c0.2-0.5,0.8-2.2,0.9-2.4
			C531.7,206.4,532.5,204.3,532.5,204.3L532.5,204.3z M538.8,203.2c0,0.2-0.3,1.4-0.4,1.6c-0.1,0.2-0.6,1.1-0.8,1.5
			c-0.2,0.4-0.8,1-0.9,1.2c-0.2,0.2-0.1,0.5-0.7,0.9c-0.6,0.5-0.9,0.6-1.2,0.8c-0.3,0.2-1.2,0.8-1.2,0.8s0.9-1.2,1.3-1.5
			c0.4-0.3,1-0.6,1.3-1.3c0.3-0.7,1.4-2.2,1.4-2.2s0.2-0.6,0.6-0.9S538.8,203.2,538.8,203.2L538.8,203.2z M543.4,203
			c-0.2,0.3-0.4,0.4-0.7,1.1c-0.3,0.7-0.4,0.8-0.8,1.6c-0.3,0.8-0.5,1-0.8,1.6c-0.3,0.7-0.4,1.1-0.7,1.4c-0.3,0.4-1.6,1.2-1.6,1.2
			s0.4-0.7,0.8-1.1c0.5-0.5,0.6-1.2,1-1.8c0.4-0.6,1.5-2.9,1.5-2.9L543.4,203z M547.8,204.1c0,0.1,0,0.5-0.4,0.9
			c-0.4,0.4-0.8,0.8-0.9,1.1c-0.2,0.3-0.3,0.2-0.8,1.1c-0.5,0.9-0.9,1.1-1.3,1.8c-0.3,0.7-1.6,1.6-1.6,1.6s0.7-0.8,1.2-1.5
			c0.5-0.7,0.5-1.4,1.1-2c0.7-0.7,0.9-0.9,1.3-1.3C546.9,205.2,547.8,204.1,547.8,204.1L547.8,204.1z M555.1,202.2
			c-0.1,0.3-0.4,0.9-0.7,1.7c-0.4,0.8-0.6,1.1-0.9,1.7c-0.3,0.6-0.5,1-0.7,1.7c-0.2,0.7-0.1,0.8-0.4,1.3c-0.3,0.5-0.8,0.7-1.3,0.9
			c-0.5,0.2-1.2,0.4-1.8,0.6c-0.6,0.2-1.4,0.8-1.4,0.8s0.7-0.9,1.1-1.2c0.4-0.3,1.1-0.7,1.6-1c0.5-0.3,1.1-0.7,1.4-1.1
			c0.2-0.4,0.6-1.3,0.8-1.7c0.1-0.4,0.8-1.6,1-1.8c0.1-0.2,0.4-0.8,0.5-1.1C554.2,203,555.1,202.2,555.1,202.2L555.1,202.2z
			 M557.2,204.6c-0.1,0.3-0.4,0.6-0.4,1.2c0,0.7,0.1,1.1,0,1.4c-0.1,0.3-0.2,0.4-0.5,0.8c-0.4,0.4-0.8,0.5-1,1
			c-0.2,0.5-0.3,0.7-0.3,0.7s0.1-1.2,0.4-1.7c0.3-0.5,0.6-0.8,0.8-1c0.2-0.3,0.3-0.5,0.4-0.9c0.1-0.4,0.1-0.8,0.2-1
			C556.9,205,557.2,204.6,557.2,204.6L557.2,204.6z M562.6,205.9c0,0-0.4,0.5-0.5,1.1c-0.1,0.6-0.3,1.3-0.2,1.9
			c0.1,0.6,0.2,0.7,0.2,0.3c0-0.4,0-1,0.2-1.3c0.2-0.4,0.4-1.5,0.4-1.5L562.6,205.9z M565.9,204.2c-0.1,0.6-0.4,0.3-0.4,1.3
			c0,1-0.1,0.9,0,1.7c0.1,0.8,0.1,1.5,0.3,2.4c0.2,0.9,0.4,1.5,0.4,1.5s-0.2-1.6-0.1-2.1c0-0.4,0-1.3,0-2c0.1-0.6,0-1.4,0-1.7
			C566.2,205,565.9,204.2,565.9,204.2L565.9,204.2z M569.5,203.2c0,0-0.5,0.2-0.7,0.6c-0.1,0.5-0.5,0.3-0.5,1.5c0,1.2,0,0.7,0,1.7
			c0,1-0.1,2.8-0.1,2.8s0.3-0.4,0.3-1.2c0-0.8,0-1.5,0.1-2.2c0.2-0.7,0.1-1.3,0.3-1.6C569,204.5,569.5,203.2,569.5,203.2
			L569.5,203.2z M575.3,205.2c0,0.3,0,0.7-0.1,1c-0.1,0.4,0,0.3-0.4,1.1c-0.4,0.9-0.8,1.3-0.8,1.3s1-1.1,1.3-1.7
			c0.2-0.3,0.3-0.7,0.3-1.1c0-0.4-0.3-1.1-0.3-1.1S575.3,204.9,575.3,205.2L575.3,205.2z M579.9,204.1c0,0.3-0.1,0.8-0.1,1.2
			c0,0.4-0.2,0.7-0.2,1.3c-0.1,0.6-0.1,0.8-0.3,1.2c-0.2,0.3-0.2,0.3-0.6,0.8c-0.4,0.5-0.4,0.8-0.1,0.5c0.3-0.3,0.6-0.4,0.8-0.8
			c0.2-0.4,0.3-1.2,0.5-1.6c0.1-0.4,0.2-1,0.2-1.4c0-0.4,0-0.8,0-0.9S579.9,204.1,579.9,204.1L579.9,204.1z M585.1,203.7
			c0,0.3,0.1,0.7,0,1.1s-0.2,0.7-0.4,1.2c-0.1,0.5-0.4,0.8-0.7,1.3s-0.4,0.8-0.7,1.1c-0.3,0.3-1.1,0.7-1.1,0.7s0.9-0.9,1.1-1.2
			c0.2-0.3,0.3-0.9,0.6-1.4s0.4-1,0.6-1.3c0.1-0.3,0.3-0.8,0.3-0.9C585,204.2,585.1,203.7,585.1,203.7L585.1,203.7z M592,202.9
			c-0.1,0.2-0.2,0.3-0.3,0.9c-0.1,0.6-0.2,0.9-0.4,1.4c-0.2,0.5-0.6,0.9-0.8,1.5c-0.2,0.5-0.4,0.8-0.8,1.2c-0.3,0.5-1.9,1.1-1.9,1.1
			s0.5-0.4,1.1-1.1c0.5-0.7,0.8-1.4,1.1-2c0.3-0.6,0.4-1.5,0.9-2.1C591.4,203.3,592,202.9,592,202.9L592,202.9z M595.5,208.2
			c-0.4,0.3-0.6,0.3-1,0.8c-0.4,0.6-1.4,1-1.9,1.2c-0.5,0.2-1.7,0.3-2,0.4c-0.2,0.1-1.9,0.3-1.9,0.3s0.4,0.4,1.1,0.4
			c0.7,0,1.2-0.4,1.7-0.4c0.5,0,0.9-0.4,1.3-0.4c0.4,0,1.5-0.7,1.6-0.8s0.4-0.3,0.7-0.6C595.2,208.7,595.5,208.2,595.5,208.2
			L595.5,208.2z"/>
	</g>
	<path style="fill:#98B432;" d="M0,0"/>
	<path style="fill:#98B432;" d="M0,0"/>
	<path style="fill-rule:evenodd;clip-rule:evenodd;fill:#FFFFFF;stroke:#000000;stroke-width:1.234;" d="M540.6,355
		c0,0-79.2-23.7-78.8-122V94.3l155.3,0l1.2,137.9C618.7,330.6,540.6,355,540.6,355L540.6,355z M540.5,350.6c0,0-76.2-23.6-75.7-122
		l0.6-130h148.4l1,129.3C615.2,326.3,540.5,350.6,540.5,350.6L540.5,350.6z"/>
	<g transform="matrix(1.48121 0 0 1.54883 323.943 -124.042)">
		<g>
			
				<path style="fill:none;stroke:#512007;stroke-width:0.385;stroke-linecap:round;stroke-linejoin:round;stroke-opacity:0.996;" d="
				M155.2,282.9c0.6-2.8,4.7-22.4,4.7-22.4l1.2-3.5 M157.3,281.3c0-0.2,3.8-24.3,3.8-24.3 M159.1,279.1c0.1-1,1.9-18.1,1.9-18.1
				l0.1-3.9"/>
			
				<path style="fill:none;stroke:#512007;stroke-width:0.385;stroke-linecap:round;stroke-linejoin:round;stroke-opacity:0.996;" d="
				M156.8,275l2.8,0.4 M157.5,271.9l2.5,0.5 M158.1,268.8l2.1,0.5 M158.7,265.8l1.9,0.5"/>
			
				<path style="fill:none;stroke:#512007;stroke-width:0.385;stroke-linecap:round;stroke-linejoin:round;stroke-opacity:0.996;" d="
				M159.4,262.7l1.5,0.4"/>
			
				<path style="fill:none;stroke:#512007;stroke-width:0.385;stroke-linecap:round;stroke-linejoin:round;stroke-opacity:0.996;" d="
				M157.1,273.5l2.7,0.5 M157.7,270.4l2.5,0.5 M158.4,267.3l2.1,0.5 M158.9,264.3l1.9,0.5"/>
			
				<path style="fill:none;stroke:#512007;stroke-width:0.395;stroke-linecap:round;stroke-linejoin:round;stroke-opacity:0.996;" d="
				M156.4,276.5l3,0.4"/>
			
				<path style="fill:none;stroke:#512007;stroke-width:0.404;stroke-linecap:round;stroke-linejoin:round;stroke-opacity:0.996;" d="
				M156.1,278.1l3.2,0.4"/>
		</g>
		<path style="fill:none;stroke:#512007;stroke-width:0.271;stroke-linecap:round;stroke-linejoin:round;stroke-opacity:0.996;" d="
			M161,228.3l5.6,4.2l1.6,5.1"/>
		<g>
			
				<path style="fill:none;stroke:#512007;stroke-width:0.317;stroke-linecap:round;stroke-linejoin:round;stroke-opacity:0.996;" d="
				M139.6,284.6c0.7-3.5,4.9-23.4,4.9-23.4l1.4-4.2 M141.6,285.3c0-0.3,4.4-28.3,4.4-28.3 M143.3,285.5c0.2-1.2,2.5-23.7,2.5-23.7
				l0.2-4.8"/>
			
				<path style="fill:none;stroke:#512007;stroke-width:0.317;stroke-linecap:round;stroke-linejoin:round;stroke-opacity:0.996;" d="
				M140.7,278.9l3.4,0.5 M141.5,275.1l3,0.6 M142.3,271.4l2.6,0.6 M143,267.7l2.3,0.6"/>
			
				<path style="fill:none;stroke:#512007;stroke-width:0.317;stroke-linecap:round;stroke-linejoin:round;stroke-opacity:0.996;" d="
				M143.8,264l1.8,0.5"/>
			
				<path style="fill:none;stroke:#512007;stroke-width:0.317;stroke-linecap:round;stroke-linejoin:round;stroke-opacity:0.996;" d="
				M141,277l3.3,0.6 M141.8,273.3l3,0.6 M142.6,269.5l2.6,0.6 M143.2,265.8l2.3,0.6 M140.2,280.8l3.6,0.5 M139.8,282.6l3.9,0.5"/>
		</g>
		<path style="fill:none;stroke:#512007;stroke-width:0.271;stroke-linecap:round;stroke-linejoin:round;stroke-opacity:0.996;" d="
			M114.2,263.8c6.7-11.2,11.7-22.3,16.5-34.3 M103.6,257.5c3.3-2.7,15.4-12.4,22.4-19.9c3.5-3.7,4.8-8.5,4.8-8.5 M131.4,229.2
			c-0.2,0,5.1,4.8,5.1,4.8l1,5.4 M171.3,263.8c-0.2,0-19.9-33-19.9-33.2c0-0.2-5.4-5.4-5.4-5.2l-4.6,8"/>
		<g>
			
				<path style="fill:none;stroke:#512007;stroke-width:0.474;stroke-linecap:round;stroke-linejoin:round;stroke-opacity:0.996;" d="
				M125.8,277.1l3.9-16.9l1-2.4 M127.1,277.6l3.1-17.3l0.4-2.5 M128.4,277.4l2.4-16.8l-0.2-2.7 M125.9,274.8l3.1,0.5"/>
			
				<path style="fill:none;stroke:#512007;stroke-width:0.484;stroke-linecap:round;stroke-linejoin:round;stroke-opacity:0.996;" d="
				M126.7,272.3l2.6,0.4 M127.3,269.8l2.4,0.4 M127.8,267.4l2.2,0.3 M128.5,264.9l1.8,0.3"/>
			
				<path style="fill:none;stroke:#512007;stroke-width:0.474;stroke-linecap:round;stroke-linejoin:round;stroke-opacity:0.996;" d="
				M129,262.4l1.8,0.4"/>
			
				<path style="fill:none;stroke:#512007;stroke-width:0.484;stroke-linecap:round;stroke-linejoin:round;stroke-opacity:0.996;" d="
				M128.6,263.6l1.8,0.3 M128,266.1l2.2,0.3 M127.4,268.6l2.4,0.4"/>
		</g>
		<g>
			
				<path style="fill:#FFFFFF;fill-opacity:0.996;stroke:#512007;stroke-width:0.542;stroke-linecap:round;stroke-linejoin:round;stroke-opacity:0.996;" d="
				M160.2,228.9c0,0-1.4-0.7-2.1-0.6c-0.7,0.1-1.3,0.9-2,1c-0.6,0.1-1.2-0.4-1.8-0.2c-0.6,0.1-1.5,0.9-1.5,0.9s1-0.5,1.5-0.3
				c0.7,0.2,1.1,1.4,1.9,1.5c0.7,0.1,1.3-1,2-0.9c0.8,0,2.2,1.3,2.2,1.3L160.2,228.9z"/>
		</g>
		<g transform="translate(.233)">
			
				<path style="fill:#DD8B59;stroke:#512007;stroke-width:0.541;stroke-linecap:round;stroke-linejoin:round;stroke-opacity:0.996;" d="
				M145.1,225.6h1.4v58.3h-1.4V225.6z"/>
			<path style="fill:#E6AB87;" d="M145.4,225.6h1v58.3h-1V225.6z"/>
			<path style="fill:#EFC9B2;" d="M145.6,225.6h0.5v58.3h-0.5V225.6z"/>
			
				<rect x="144.7" y="224.8" style="fill:#DD8B59;stroke:#512007;stroke-width:0.541;stroke-linecap:round;stroke-linejoin:round;stroke-opacity:0.996;" width="2.3" height="0.6"/>
		</g>
		<g>
			
				<path style="fill:#DD8B59;stroke:#512007;stroke-width:0.541;stroke-linecap:round;stroke-linejoin:round;stroke-opacity:0.996;" d="
				M130.4,229.3h1.4v58.3h-1.4V229.3z"/>
			
				<rect x="129.9" y="228.4" style="fill:#DD8B59;stroke:#512007;stroke-width:0.541;stroke-linecap:round;stroke-linejoin:round;stroke-opacity:0.996;" width="2.3" height="0.6"/>
			<path style="fill:#E6AB87;" d="M130.7,229.3h0.9v58.1h-0.9V229.3z"/>
			<path style="fill:#EFC9B2;" d="M130.9,229.3h0.4v58.1h-0.4V229.3z"/>
		</g>
		<g>
			
				<path style="fill:#DD8B59;stroke:#512007;stroke-width:0.541;stroke-linecap:round;stroke-linejoin:round;stroke-opacity:0.996;" d="
				M160.4,228.3h1.4v58.3h-1.4V228.3z"/>
			
				<rect x="159.9" y="227.5" style="fill:#DD8B59;stroke:#512007;stroke-width:0.541;stroke-linecap:round;stroke-linejoin:round;stroke-opacity:0.996;" width="2.3" height="0.6"/>
		</g>
		<path style="fill:#E6AB87;" d="M160.6,228.3h1v58.3h-1V228.3z"/>
		<path style="fill:none;stroke:#512007;stroke-width:0.271;stroke-linecap:round;stroke-linejoin:round;stroke-opacity:0.996;" d="
			M106.8,259.5l6.5-1.7l9.9,11.8l-7.9,1.7L106.8,259.5z"/>
		<path style="fill:#EFC9B2;" d="M160.9,228.3h0.5v58.3h-0.5V228.3z"/>
		<g>
			
				<path style="fill:none;stroke:#512007;stroke-width:0.474;stroke-linecap:round;stroke-linejoin:round;stroke-opacity:0.996;" d="
				M166.1,276.2l-3.9-16.9l-1-2.4 M164.8,276.7l-3.1-17.3l-0.4-2.5 M163.4,276.4l-2.4-16.8l0.2-2.7 M165.9,273.8l-3.1,0.5"/>
			
				<path style="fill:none;stroke:#512007;stroke-width:0.484;stroke-linecap:round;stroke-linejoin:round;stroke-opacity:0.996;" d="
				M165.1,271.4l-2.6,0.4 M164.6,268.9l-2.4,0.4 M164,266.4l-2.2,0.3 M163.4,263.9l-1.8,0.3"/>
			
				<path style="fill:none;stroke:#512007;stroke-width:0.474;stroke-linecap:round;stroke-linejoin:round;stroke-opacity:0.996;" d="
				M162.9,261.4l-1.8,0.4"/>
			
				<path style="fill:none;stroke:#512007;stroke-width:0.484;stroke-linecap:round;stroke-linejoin:round;stroke-opacity:0.996;" d="
				M163.2,262.7l-1.8,0.3 M163.8,265.2l-2.2,0.3 M164.4,267.7l-2.4,0.4 M164.8,270.2l-2.4,0.4"/>
		</g>
		
			<path style="fill-rule:evenodd;clip-rule:evenodd;fill:#E98E01;stroke:#512007;stroke-width:0.541;stroke-linecap:round;stroke-linejoin:round;stroke-opacity:0.996;" d="
			M179.6,272c-0.2-0.7-0.3-1.9-0.3-2.9c-0.1-0.9-0.1-1.9,0-2.8c0.1-1,0.7-3,0.7-3s-15.2,2.9-15.2,3.1c0-0.3-0.1,5.5-0.1,5.5
			L179.6,272z"/>
		
			<path style="fill-rule:evenodd;clip-rule:evenodd;fill:#E9B001;stroke:#512007;stroke-width:0.541;stroke-linecap:round;stroke-linejoin:round;stroke-opacity:0.996;" d="
			M176.4,265.6l0,5.3h1.9l0-5.7L176.4,265.6z M173.6,266.2l0,4.7l1.9-0.1l0-5.1L173.6,266.2z M170.9,270.9l0-4l1.8-0.4l0.1,4.4
			L170.9,270.9z M168.2,270.9l0-3.5l1.8-0.4l0,3.9L168.2,270.9z M165.4,270.9l0.1-3l1.8-0.4l0,3.4L165.4,270.9z"/>
		
			<path style="fill-rule:evenodd;clip-rule:evenodd;fill:#DD8B59;stroke:#512007;stroke-width:0.541;stroke-linecap:round;stroke-linejoin:round;stroke-opacity:0.996;" d="
			M112.9,256.9c0,0.7,2.2,14.9,2.2,14.9c0,0.3,0.8,0.4,0.7-0.3c0-0.2-2.4-14.7-2.4-14.7C113.2,256.5,113.2,256.7,112.9,256.9
			L112.9,256.9z"/>
		
			<path style="fill-rule:evenodd;clip-rule:evenodd;fill:#DD8B59;stroke:#512007;stroke-width:0.541;stroke-linecap:round;stroke-linejoin:round;stroke-opacity:0.996;" d="
			M106.6,258.8l14.7,8.6l0,0.8l-14.6-8.3l-5.3-4L106.6,258.8L106.6,258.8z"/>
		
			<path style="fill-rule:evenodd;clip-rule:evenodd;fill:#FEC618;stroke:#512007;stroke-width:0.541;stroke-linecap:round;stroke-linejoin:round;stroke-opacity:0.996;" d="
			M125.1,245c0,0-2.3,2.2-1.8,6.4s2.8,6.6,3,6.6c0.2,0,2.3-2.9,4.4-3.6c2.1-0.7,7.3-0.3,7.3-0.3s-2.7-3.7-2.1-7.2
			c0.5-3.5,2.6-6.5,2.6-6.5S125.6,245,125.1,245L125.1,245z"/>
		<path style="fill:none;stroke:#512007;stroke-width:0.271;stroke-linecap:round;stroke-linejoin:round;stroke-opacity:0.996;" d="
			M179.3,262l-10.8-22.8"/>
		
			<path style="fill-rule:evenodd;clip-rule:evenodd;fill:#FEC618;stroke:#512007;stroke-width:0.541;stroke-linecap:round;stroke-linejoin:round;stroke-opacity:0.996;" d="
			M140.6,241.1c0,0.5-2.4,3.9-2.2,7.6c0.1,3.5,1.9,8.9,2.1,8.9c0.2,0,2.9-3.7,5.2-4.4c2.3-0.7,7.7,0.2,7.6,0.2
			c-0.2,0-1.9-5.8-1.9-8.4c0-2.6,2.9-8.8,2.9-8.8L140.6,241.1z"/>
		<g>
			<path style="fill:#FED65B;" d="M152.3,240.7c-2.9,0.9-9.9,3.1-13.2,4c-0.2,0.9-0.4,1.8-0.4,2.6c0,1.1-0.1,2.6,0.1,4l12.8-3.9
				c-0.2-0.9-0.4-1.9-0.3-2.6C151.3,243.6,151.8,242.1,152.3,240.7L152.3,240.7z"/>
			<path style="fill:#FEDF82;" d="M151.8,242.1l-13.1,3.8c-0.1,0.5-0.2,0.9-0.2,1.3c0,0.8-0.2,1.7,0,2.6l12.8-3.8
				c-0.1-0.5-0.1-1-0.1-1.4C151.3,244,151.5,243.1,151.8,242.1z"/>
		</g>
		<g transform="matrix(.9935 -.1088 .11896 .9935 -31.642 44.095)">
			<g id="b" transform="matrix(.99572 .08841 -.09667 .99572 28.306 -28.34)">
				
					<path id="a" text-rendering="auto" vector-effect="none" shape-rendering="auto" color-rendering="auto" image-rendering="auto" style="fill:#FF0000;fill-opacity:0.996;stroke:#512007;stroke-width:0.8194;stroke-miterlimit:4.0316;stroke-opacity:0.996;" d="
					M151.9,220.6l-0.2-0.7l-0.6,0.1l0.4-0.6l-0.3-0.6l0.6,0.1l0.3-0.7l0.2,0.7l0.6-0.1l-0.4,0.6l0.3,0.6l-0.6-0.1L151.9,220.6z"/>
			</g>
			<g transform="translate(5.666 -.532)">
				<g id="b_1_" transform="matrix(.99572 .08841 -.09667 .99572 28.306 -28.34)">
					
						<path id="a_1_" text-rendering="auto" vector-effect="none" shape-rendering="auto" color-rendering="auto" image-rendering="auto" style="fill:#FF0000;fill-opacity:0.996;stroke:#512007;stroke-width:0.8194;stroke-miterlimit:4.0316;stroke-opacity:0.996;" d="
						M155.3,220.1l-0.2-0.7l-0.6,0.1l0.4-0.6l-0.3-0.6l0.6,0.1l0.3-0.7l0.2,0.7l0.6-0.1l-0.4,0.6l0.3,0.6l-0.6-0.1L155.3,220.1z"/>
				</g>
			</g>
			<g transform="translate(-5.708 .577)">
				<g id="b_2_" transform="matrix(.99572 .08841 -.09667 .99572 28.306 -28.34)">
					
						<path id="a_2_" text-rendering="auto" vector-effect="none" shape-rendering="auto" color-rendering="auto" image-rendering="auto" style="fill:#FF0000;fill-opacity:0.996;stroke:#512007;stroke-width:0.8194;stroke-miterlimit:4.0316;stroke-opacity:0.996;" d="
						M148.4,221.2l-0.2-0.7l-0.6,0.1l0.4-0.6l-0.3-0.6l0.6,0.1l0.3-0.7l0.2,0.7l0.6-0.1L149,220l0.3,0.6l-0.6-0.1L148.4,221.2z"/>
				</g>
			</g>
		</g>
		<path style="fill:none;stroke:#512007;stroke-width:0.271;stroke-linecap:round;stroke-linejoin:round;stroke-opacity:0.996;" d="
			M140.4,258.4c0,0,4.7,10.6,8.5,14.3c3.8,3.7,9.1,7.2,9.1,7.2 M125.9,257.8c1.2,2.8,1,8.1,2.4,10c1.4,1.9,3.5,6,3.5,6"/>
		<path style="fill:none;stroke:#512007;stroke-width:0.271;stroke-linecap:round;stroke-linejoin:round;stroke-opacity:0.996;" d="
			M126.2,258.1c0.7,1.4,2.6,8.3,3.8,10.4c0.9,1.9,9.8,13.7,9.8,13.7"/>
		
			<path style="fill:#DD8B59;stroke:#512007;stroke-width:0.541;stroke-linecap:round;stroke-linejoin:round;stroke-opacity:0.996;" d="
			M172.3,256.3h0.3v9.1h-0.3V256.3z"/>
		
			<path style="fill-rule:evenodd;clip-rule:evenodd;fill:#E96A01;stroke:#512007;stroke-width:0.541;stroke-linecap:round;stroke-linejoin:round;stroke-opacity:0.996;" d="
			M164.1,267.3c1.9,0,16.4-3.7,16.4-3.7s0.5-2.3,0-2.3s-16.4,4.4-16.4,4.4V267.3z"/>
		
			<path id="a_3_" text-rendering="auto" vector-effect="none" shape-rendering="auto" color-rendering="auto" image-rendering="auto" style="fill:#FF0000;fill-opacity:0.996;stroke:#512007;stroke-width:0.8194;stroke-miterlimit:4.0316;stroke-opacity:0.996;" d="
			M145.9,242.9l-0.3-0.7l-0.6,0.1l0.3-0.6l-0.4-0.6l0.6,0.1l0.2-0.7l0.3,0.7l0.6-0.1l-0.3,0.6l0.4,0.6l-0.6-0.1L145.9,242.9z"/>
		<g transform="matrix(.99274 -.11507 .12581 .99274 -32.657 51.235)">
			<g id="b_3_" transform="matrix(.99572 .08841 -.09667 .99572 28.306 -28.34)">
				
					<path id="a_4_" text-rendering="auto" vector-effect="none" shape-rendering="auto" color-rendering="auto" image-rendering="auto" style="fill:#FF0000;fill-opacity:0.996;stroke:#512007;stroke-width:0.8194;stroke-miterlimit:4.0317;stroke-opacity:0.996;" d="
					M145.9,250.3l-0.3-0.7l-0.6,0.2l0.3-0.6l-0.4-0.6l0.6,0l0.2-0.7l0.3,0.7l0.6-0.2l-0.3,0.6l0.4,0.6l-0.6,0L145.9,250.3z"/>
			</g>
		</g>
		
			<rect x="159.9" y="227.5" transform="matrix(-1 -4.929202e-03 4.929202e-03 -1 321.0493 456.3901)" style="fill:#DD8B59;stroke:#512007;stroke-width:0.541;stroke-linecap:round;stroke-linejoin:round;stroke-opacity:0.996;" width="2.3" height="0.6"/>
		
			<path style="fill-rule:evenodd;clip-rule:evenodd;fill:#FEC618;stroke:#512007;stroke-width:0.541;stroke-linecap:round;stroke-linejoin:round;stroke-opacity:0.996;" d="
			M155.6,236.3c-0.1,0.5,0.9,1.5,1.8,1.4c0.8-0.1,1-0.9,1.3-1.3c0.2,0.4,0.5,2.4,2.6,1.5c1.8-0.9,1.6-2.2,1.9-2.5
			c0.2,0.1,0.4,0.5,0.8,0.5c1.5,0.1,2.8-3.3,2.6-3.3C166.4,232.5,156,236.4,155.6,236.3L155.6,236.3z"/>
		
			<path style="fill:#DD8B59;stroke:#512007;stroke-width:0.541;stroke-linecap:round;stroke-linejoin:round;stroke-opacity:0.996;" d="
			M155.3,235.6l11.5-3.9l0.2,0.8l-11.5,3.9L155.3,235.6z"/>
		
			<path style="fill-rule:evenodd;clip-rule:evenodd;fill:#FEC618;stroke:#512007;stroke-width:0.541;stroke-linecap:round;stroke-linejoin:round;stroke-opacity:0.996;" d="
			M140.3,234.6c0,0,0.6,1.6,1.7,1.4c1.1-0.2,1.1-1.7,1.1-1.7s0.7,2.3,2.4,1.8c1.7-0.5,2.1-2.9,2.1-2.9s0.9,1.6,2.2,0.7
			c1.4-0.9,1.9-3.3,1.7-3.3C151.4,230.7,140.3,234.6,140.3,234.6z"/>
		
			<path style="fill:#DD8B59;stroke:#512007;stroke-width:0.541;stroke-linecap:round;stroke-linejoin:round;stroke-opacity:0.996;" d="
			M140.1,233.9l11.5-3.9l0.2,0.8l-11.5,3.9L140.1,233.9z"/>
		
			<path style="fill-rule:evenodd;clip-rule:evenodd;fill:#FEC618;stroke:#512007;stroke-width:0.541;stroke-linecap:round;stroke-linejoin:round;stroke-opacity:0.996;" d="
			M125.7,238c-0.3,0.3,0.1,1.7,1.3,1.6c1.5-0.2,1.6-2.1,1.6-2.1s0.4,2.6,2.3,2.1c1.9-0.5,2.9-3.9,2.9-3.9s0,1.3,1.3,1.1
			c1.3-0.5,1.5-2.6,1.5-2.6C133,235.5,129.3,236.7,125.7,238L125.7,238z"/>
		
			<path style="fill:#DD8B59;stroke:#512007;stroke-width:0.541;stroke-linecap:round;stroke-linejoin:round;stroke-opacity:0.996;" d="
			M125.3,237.4l11.5-3.9l0.2,0.8l-11.5,3.9L125.3,237.4z"/>
		<g>
			
				<path style="fill:#FFFFFF;fill-opacity:0.996;stroke:#512007;stroke-width:0.541;stroke-linecap:round;stroke-linejoin:round;stroke-opacity:0.996;" d="
				M145.1,226.1c0,0-2.3-1.1-3.5-1c-1.2,0.1-2.1,1.5-3.2,1.7c-1,0.2-2-0.6-3.1-0.4c-0.9,0.2-2.6,1.5-2.6,1.5s1.7-0.8,2.5-0.6
				c1.2,0.3,1.9,2.4,3.1,2.5c1.2,0.2,2.1-1.6,3.3-1.6c1.3,0.1,3.6,2.1,3.6,2.1L145.1,226.1z"/>
			<path style="fill:#AA0000;" d="M141.6,225.1c-0.1,0-0.1,0-0.2,0v1.2c-1.1,0.2-1.9,1.7-3,1.8c-1,0.1-1.9-1.2-2.9-1.2
				c-0.7,0-1.7,0.4-2.3,0.7l0,0c0.6-0.3,1.6-0.7,2.3-0.6c1.1,0.1,1.9,1.8,3,1.8c1.1,0,1.9-1.6,3-1.6c0,0,0,0,0,0v1.2
				c0.1,0,0.1,0,0.2,0c0.1,0,0.5,0.1,0.6,0.1v-1.1c1.3,0.3,2.9,1.5,2.9,1.5l0-1.5c0,0-1.6-0.8-2.9-1v-1.3
				C142,225.1,141.7,225.1,141.6,225.1L141.6,225.1z"/>
		</g>
		<g>
			
				<path style="fill:#FFFFFF;fill-opacity:0.996;stroke:#512007;stroke-width:0.542;stroke-linecap:round;stroke-linejoin:round;stroke-opacity:0.996;" d="
				M130.3,229.9c0,0-2.1-1-3.1-0.9c-1,0.1-1.8,1.3-2.8,1.5c-0.9,0.2-1.8-0.5-2.7-0.3c-0.8,0.2-2.2,1.3-2.2,1.3s1.4-0.7,2.2-0.5
				c1.1,0.3,1.7,2.1,2.7,2.2c1,0.1,1.8-1.4,2.9-1.4c1.1,0,3.1,1.8,3.1,1.8L130.3,229.9z"/>
		</g>
		
			<path style="fill:#DD8B59;stroke:#512007;stroke-width:0.541;stroke-linecap:round;stroke-linejoin:round;stroke-opacity:0.996;" d="
			M123.6,244.4l14.8-5.1l0.2,1l-14.8,5.1L123.6,244.4z M139.4,240.3l14.8-5.1l0.2,1l-14.8,5.1L139.4,240.3z"/>
		
			<path style="fill:#DD8B59;stroke:#512007;stroke-width:0.541;stroke-linecap:round;stroke-linejoin:round;stroke-opacity:0.996;" d="
			M139.4,240.3l14.8-5.1l0.2,1l-14.8,5.1L139.4,240.3z M155.3,258.3l11.5-3.9l0.2,0.8l-11.5,3.9L155.3,258.3z"/>
		
			<path style="fill:#DD8B59;stroke:#512007;stroke-width:0.541;stroke-linecap:round;stroke-linejoin:round;stroke-opacity:0.996;" d="
			M155.3,258.3l11.5-3.9l0.2,0.8l-11.5,3.9L155.3,258.3z"/>
		<g>
			
				<path style="fill:none;stroke:#512007;stroke-width:0.385;stroke-linecap:round;stroke-linejoin:round;stroke-opacity:0.996;" d="
				M136.7,281.4c-0.6-2.8-4.5-21.3-4.5-21.3l-1.2-3.5 M134.6,279.8c0-0.2-3.6-23.2-3.6-23.2 M132.8,277.6c-0.1-1-1.7-17-1.7-17
				l-0.1-3.9"/>
			
				<path style="fill:none;stroke:#512007;stroke-width:0.385;stroke-linecap:round;stroke-linejoin:round;stroke-opacity:0.996;" d="
				M135.3,274.5l-2.8,0.4 M134.7,271.3l-2.5,0.5 M134,268.3l-2.1,0.5 M133.4,265.3l-1.9,0.5"/>
			
				<path style="fill:none;stroke:#512007;stroke-width:0.385;stroke-linecap:round;stroke-linejoin:round;stroke-opacity:0.996;" d="
				M132.7,262.3l-1.5,0.4"/>
			
				<path style="fill:none;stroke:#512007;stroke-width:0.385;stroke-linecap:round;stroke-linejoin:round;stroke-opacity:0.996;" d="
				M135.1,272.9l-2.8,0.4 M134.4,269.9l-2.5,0.5 M133.8,266.9l-2.1,0.5 M133.2,263.9l-1.9,0.5"/>
		</g>
		
			<path style="fill-rule:evenodd;clip-rule:evenodd;fill:#FEC618;stroke:#512007;stroke-width:0.541;stroke-linecap:round;stroke-linejoin:round;stroke-opacity:0.996;" d="
			M125.9,259.5c-0.3,0.3,0.1,1.7,1.3,1.6c1.5-0.2,1.6-1.6,1.6-1.6s0.6,1.9,2.5,1.4c1.9-0.5,2.7-3.2,2.7-3.2s0,0.8,1.3,0.6
			c1.3-0.5,1.5-2.6,1.5-2.6C133.2,257,129.5,258.2,125.9,259.5L125.9,259.5z"/>
		
			<path style="fill:#DD8B59;stroke:#512007;stroke-width:0.541;stroke-linecap:round;stroke-linejoin:round;stroke-opacity:0.996;" d="
			M123.6,259.1l14.8-5.1l0.2,1l-14.8,5.1L123.6,259.1z"/>
		<g>
			
				<path style="fill:#FEC618;stroke:#512007;stroke-width:0.541;stroke-linecap:round;stroke-linejoin:round;stroke-opacity:0.996;" d="
				M172.3,256.3c0,0-1.1-0.5-1.6-0.4c-0.5,0.1-0.9,0.7-1.5,0.8c-0.5,0.1-0.9-0.3-1.4-0.2c-0.4,0.1-1.2,0.7-1.2,0.7s0.7-0.3,1.1-0.2
				c0.5,0.1,0.8,1.1,1.4,1.1c0.5,0.1,0.9-0.7,1.5-0.7c0.6,0,1.6,0.9,1.6,0.9L172.3,256.3z"/>
		</g>
		
			<path style="fill-rule:evenodd;clip-rule:evenodd;fill:#FEC618;stroke:#512007;stroke-width:0.541;stroke-linecap:round;stroke-linejoin:round;stroke-opacity:0.996;" d="
			M155.3,243.3c0,0-1.4,3.8-1.4,5.8c0,3,1.8,8.6,2,8.6c0.2,0,2.9-3.7,5-3.9c2.1-0.2,6.7-0.2,6.7-0.2s-2-4.5-1.8-7.1
			c0.2-2.6,2.5-8,2.5-8L155.3,243.3z"/>
		
			<path style="fill:#DD8B59;stroke:#512007;stroke-width:0.541;stroke-linecap:round;stroke-linejoin:round;stroke-opacity:0.996;" d="
			M153.6,242.8l14.8-5.1l0.2,1l-14.8,5.1L153.6,242.8z"/>
		<path style="fill:none;stroke:#512007;stroke-width:0.271;stroke-linecap:round;stroke-linejoin:round;stroke-opacity:0.996;" d="
			M122.7,273.2c0.6-0.4,0.5-1.5-0.2-1.4 M119.9,269.8c1.5,0.8,1.7-1.5,1.1-1.2 M120.9,271.7c1.2,0.2,1.3-1.6,0.7-1.3"/>
		<g>
			
				<path style="fill:none;stroke:#512007;stroke-width:0.317;stroke-linecap:round;stroke-linejoin:round;stroke-opacity:0.996;" d="
				M152.3,284.2c-0.7-3.5-4.9-22.9-4.9-22.9l-1.4-4.2 M150.5,284.7c0-0.3-4.5-27.5-4.5-27.5 M148.6,284.9
				c-0.2-1.2-2.4-22.9-2.4-22.9l-0.2-4.8"/>
			
				<path style="fill:none;stroke:#512007;stroke-width:0.317;stroke-linecap:round;stroke-linejoin:round;stroke-opacity:0.996;" d="
				M151.2,279l-3.4,0.5 M150.4,275.2l-3,0.6 M149.7,271.5l-2.6,0.6 M148.9,267.8l-2.3,0.6"/>
			
				<path style="fill:none;stroke:#512007;stroke-width:0.317;stroke-linecap:round;stroke-linejoin:round;stroke-opacity:0.996;" d="
				M148.1,264.1l-1.8,0.5"/>
			
				<path style="fill:none;stroke:#512007;stroke-width:0.317;stroke-linecap:round;stroke-linejoin:round;stroke-opacity:0.996;" d="
				M151,277.1l-3.3,0.6 M150.1,273.3l-3,0.6 M149.4,269.6l-2.6,0.6 M148.7,265.9l-2.3,0.6 M151.7,280.9l-3.6,0.5 M152.1,282.7
				l-3.9,0.5"/>
		</g>
		
			<path style="fill-rule:evenodd;clip-rule:evenodd;fill:#FEC618;stroke:#512007;stroke-width:0.541;stroke-linecap:round;stroke-linejoin:round;stroke-opacity:0.996;" d="
			M140.6,258.7c0,0,0.7,1.8,1.9,1.6c1.2-0.2,1.2-1.8,1.2-1.8s0.7,2.5,2.6,2c1.9-0.5,2.3-3.2,2.3-3.2s1,1.7,2.4,0.8s2.1-3.7,1.9-3.7
			C152.9,254.4,140.6,258.7,140.6,258.7L140.6,258.7z"/>
		
			<path style="fill:#DD8B59;stroke:#512007;stroke-width:0.541;stroke-linecap:round;stroke-linejoin:round;stroke-opacity:0.996;" d="
			M139.1,258.4l14.8-5.1l0.2,1l-14.8,5.1L139.1,258.4z"/>
		<path style="fill:none;stroke:#512007;stroke-width:0.271;stroke-linecap:round;stroke-linejoin:round;stroke-opacity:0.996;" d="
			M155.7,258.3c0,0,1.1,9,3,12.7c1,1.9,4.2,4.4,4.2,4.4"/>
		
			<path style="fill-rule:evenodd;clip-rule:evenodd;fill:#FEC618;stroke:#512007;stroke-width:0.541;stroke-linecap:round;stroke-linejoin:round;stroke-opacity:0.996;" d="
			M155.7,258.9c-0.1,0.5,0.9,1.5,1.8,1.4c0.8-0.1,1-0.9,1.3-1.3c0.2,0.4,0.5,2.4,2.6,1.5c1.8-0.9,1.6-2.2,1.9-2.5
			c0.2,0.1,0.4,0.5,0.8,0.5c1.5,0.1,2.8-3.3,2.6-3.3S156,259.1,155.7,258.9L155.7,258.9z"/>
		
			<path style="fill:#DD8B59;stroke:#512007;stroke-width:0.541;stroke-linecap:round;stroke-linejoin:round;stroke-opacity:0.996;" d="
			M153.6,258.7l14.8-5.1l0.2,1l-14.8,5.1L153.6,258.7z"/>
		
			<path style="fill-rule:evenodd;clip-rule:evenodd;fill:#E96A01;stroke:#512007;stroke-width:0.541;stroke-linecap:round;stroke-linejoin:round;stroke-opacity:0.996;" d="
			M163.4,273.1l16.7,0.5c0.3-0.8,0.2-1.2,0-1.6l-16.7-0.2L163.4,273.1z"/>
		<path style="fill:#E6AB87;" d="M123.9,259.3l14.4-4.9l0.1,0.5l-14.4,4.9L123.9,259.3z"/>
		<path style="fill:#EFC9B2;" d="M124,259.3l14-4.8l0.1,0.4l-14.1,4.8L124,259.3z"/>
		<path style="fill:#E6AB87;" d="M124,244.6l14.4-4.9l0.1,0.5l-14.4,4.9L124,244.6z"/>
		<path style="fill:#EFC9B2;" d="M124.1,244.6l14-4.8l0.1,0.4l-14.1,4.8L124.1,244.6z"/>
		<path style="fill:#E6AB87;" d="M125.6,237.5l10.9-3.7l0.1,0.4l-10.9,3.7L125.6,237.5z"/>
		<path style="fill:#EFC9B2;" d="M125.7,237.6l10.6-3.6l0.1,0.3l-10.6,3.6L125.7,237.6z"/>
		<path style="fill:#E6AB87;" d="M140.5,234l10.9-3.7l0.1,0.4l-10.9,3.7L140.5,234z"/>
		<path style="fill:#EFC9B2;" d="M140.6,234l10.6-3.6l0.1,0.3l-10.6,3.6L140.6,234z"/>
		<path style="fill:#E6AB87;" d="M155.6,235.8l10.9-3.7l0.1,0.4l-10.9,3.7L155.6,235.8z"/>
		<path style="fill:#EFC9B2;" d="M155.7,235.8l10.6-3.6l0.1,0.3l-10.6,3.6L155.7,235.8z"/>
		<path style="fill:#E6AB87;" d="M139.7,240.5l14.4-4.9l0.1,0.5l-14.4,4.9L139.7,240.5z"/>
		<path style="fill:#EFC9B2;" d="M139.8,240.5l14-4.8l0.1,0.4l-14.1,4.8L139.8,240.5z"/>
		<path style="fill:#E6AB87;" d="M153.9,242.9l14.4-4.9l0.1,0.5l-14.4,4.9L153.9,242.9z"/>
		<path style="fill:#EFC9B2;" d="M154,243l14-4.8l0.1,0.4l-14.1,4.8L154,243z"/>
		<path style="fill:#E6AB87;" d="M139.3,258.5l14.4-4.9l0.1,0.5l-14.4,4.9L139.3,258.5z"/>
		<path style="fill:#EFC9B2;" d="M139.5,258.6l14-4.8l0.1,0.4l-14.1,4.8L139.5,258.6z"/>
		<path style="fill:#FED65B;" d="M166.8,242.6c-2.7,0.9-9.4,3.1-12.5,4c-0.2,0.9-0.4,1.8-0.4,2.6c0,1.1,0.2,2.6,0.6,4l11.7-3.9
			c-0.2-0.9-0.4-1.9-0.3-2.6C165.9,245.5,166.3,244,166.8,242.6L166.8,242.6z"/>
		<path style="fill:#FEDF82;" d="M166.3,244l-12.3,3.8c-0.1,0.5-0.1,0.9-0.1,1.3c0,0.8,0.1,1.7,0.3,2.6l11.7-3.8
			c-0.1-0.5-0.1-1-0.1-1.4C165.8,245.9,166,245,166.3,244z"/>
		<path style="fill:#E6AB87;" d="M153.8,258.9l14.4-4.9l0.1,0.5l-14.4,4.9L153.8,258.9z"/>
		<path style="fill:#EFC9B2;" d="M154,258.9l14-4.8l0.1,0.4l-14.1,4.8L154,258.9z"/>
		<g id="d" transform="translate(14.52 2.971)">
			<g id="c" transform="translate(8.712 5.555)">
				
					<ellipse id="e" vector-effect="none" transform="matrix(-1 -4.929202e-03 4.929202e-03 -1 292.907 571.9648)" style="fill-rule:evenodd;clip-rule:evenodd;fill:#552200;stroke:#2B1100;stroke-width:0.541;stroke-linecap:round;stroke-linejoin:round;stroke-opacity:0.996;" cx="147.2" cy="285.6" rx="0.6" ry="0.7"/>
			</g>
		</g>
		<g transform="translate(-.135)">
			
				<ellipse id="e_1_" vector-effect="none" transform="matrix(-1 -4.929202e-03 4.929202e-03 -1 265.1704 558.2742)" style="fill-rule:evenodd;clip-rule:evenodd;fill:#552200;stroke:#2B1100;stroke-width:0.541;stroke-linecap:round;stroke-linejoin:round;stroke-opacity:0.996;" cx="133.3" cy="278.8" rx="0.6" ry="0.7"/>
			<g transform="translate(23.503 -8.526)">
				<g id="d_1_" transform="translate(14.52 2.971)">
					<g id="c_1_" transform="translate(8.712 5.555)">
						
							<ellipse id="e_2_" vector-effect="none" transform="matrix(-1 -4.929202e-03 4.929202e-03 -1 321.252 558.4124)" style="fill-rule:evenodd;clip-rule:evenodd;fill:#552200;stroke:#2B1100;stroke-width:0.541;stroke-linecap:round;stroke-linejoin:round;stroke-opacity:0.996;" cx="161.3" cy="278.8" rx="0.6" ry="0.7"/>
					</g>
				</g>
			</g>
		</g>
		<g transform="translate(-.101)">
			<g id="c_2_" transform="translate(8.712 5.555)">
				
					<ellipse id="e_3_" vector-effect="none" transform="matrix(-1 -4.929202e-03 4.929202e-03 -1 275.5757 567.1752)" style="fill-rule:evenodd;clip-rule:evenodd;fill:#552200;stroke:#2B1100;stroke-width:0.541;stroke-linecap:round;stroke-linejoin:round;stroke-opacity:0.996;" cx="138.5" cy="283.2" rx="0.6" ry="0.7"/>
			</g>
			<g transform="translate(29.243)">
				<g id="c_3_" transform="translate(8.712 5.555)">
					
						<ellipse id="e_4_" vector-effect="none" transform="matrix(-1 -4.929202e-03 4.929202e-03 -1 310.6671 567.2617)" style="fill-rule:evenodd;clip-rule:evenodd;fill:#552200;stroke:#2B1100;stroke-width:0.541;stroke-linecap:round;stroke-linejoin:round;stroke-opacity:0.996;" cx="156" cy="283.2" rx="0.6" ry="0.7"/>
				</g>
			</g>
		</g>
	</g>
	<path style="fill:none;stroke:#512007;stroke-width:0.232;stroke-linecap:round;stroke-linejoin:round;stroke-opacity:0.996;" d="
		M508.1,299.2l7.9,3.2c2,12.7,19.5,19.8,30.7,18.6c9.6-1.1,17.8-10.6,23.8-21.7"/>
	<path style="fill:none;stroke:#512007;stroke-width:0.232;stroke-linecap:round;stroke-linejoin:round;stroke-opacity:0.996;" d="
		M514.5,301.9c0.6,8.4,8.5,23.3,29.8,23.3c20.6,0,28.8-26,28.8-26"/>
	<path style="fill:none;stroke:#512007;stroke-width:0.269;stroke-linecap:round;stroke-linejoin:round;stroke-opacity:0.996;" d="
		M512.3,301.1c0.6,9.7,7.3,29.9,32,29.9c23.9,0,32.4-31.5,32.4-31.5"/>
	<path style="fill:none;stroke:#512007;stroke-width:0.301;stroke-linecap:round;stroke-linejoin:round;stroke-opacity:0.996;" d="
		M510.3,300.3c-0.2,7.2,7.9,36.5,33.9,36c23.1-0.4,32.7-28.8,34.9-36.6"/>
	
		<path style="fill:none;stroke:#512007;stroke-width:4.200000e-02;stroke-linecap:round;stroke-linejoin:round;stroke-opacity:0.996;" d="
		M541.2,324.9c-7.4-0.6-13.4-3-18.2-7.2c-1.4-1.2-2.2-2.1-3.4-3.7c-2.5-3.3-4.2-7.1-4.7-10.8c-0.1-0.5-0.1-1-0.1-1
		c0,0,0.3,0.1,0.6,0.2l0.6,0.2l0.1,0.6c0.2,0.9,0.6,2.3,1.1,3.4c1.2,2.6,3.1,5.1,5.6,7.2c1.1,1,3.7,2.7,5.1,3.4
		c6.7,3.5,14.8,5,20.5,3.7c5.7-1.3,11.2-5.4,16.4-12.4c1.9-2.6,3.3-4.7,5.1-7.8l0.6-1.1l1.1,0c0.6,0,1.1,0,1.1,0.1
		c0,0-0.2,0.7-0.5,1.5c-1.5,3.9-3.7,7.9-6.2,11.3c-5.3,7.4-11.9,11.7-19.2,12.5C546,325,542.3,325,541.2,324.9L541.2,324.9z"/>
	
		<path style="fill:none;stroke:#512007;stroke-width:4.200000e-02;stroke-linecap:round;stroke-linejoin:round;stroke-opacity:0.996;" d="
		M0,0"/>
	
		<path style="fill:none;stroke:#512007;stroke-width:4.200000e-02;stroke-linecap:round;stroke-linejoin:round;stroke-opacity:0.996;" d="
		M541.7,336c-5.7-0.4-10-1.9-14.3-4.8c-5.8-3.9-10.7-10.1-13.8-18c-1.3-3.2-2.4-7-2.8-9.7c-0.2-1.6-0.4-3.1-0.3-3.1
		c0,0,0.4,0.1,0.8,0.3l0.8,0.3l0.1,0.6c0.2,2.1,0.7,4.7,1.3,6.7c2.6,8.8,7.7,15.4,14.8,19.2c3.3,1.7,6.9,2.8,11.3,3.4
		c1.8,0.2,7.3,0.2,8.7-0.1c6.8-1.2,12.5-4.6,17.7-10.8c1-1.2,2.9-3.7,3.8-5.2c2.7-4.2,5.2-9.6,6.6-14.2l0.3-1.1h1c0.5,0,1,0,1,0.1
		c0.2,0.2-2,6.3-3.2,9.2c-3.5,8.3-8,14.9-13.1,19.4c-4.7,4.2-9.8,6.6-15.5,7.3C546.1,335.9,542.6,336,541.7,336L541.7,336z"/>
	
		<path style="fill:none;stroke:#512007;stroke-width:4.200000e-02;stroke-linecap:round;stroke-linejoin:round;stroke-opacity:0.996;" d="
		M540.2,338c-3-0.3-5.4-0.8-7.9-1.8c-8.8-3.3-15.9-11.4-20.5-23c-1.7-4.2-3.1-9.8-3.3-12.7l0-0.9l0.4,0.2c0.2,0.1,0.6,0.2,0.9,0.3
		l0.4,0.2l0.1,0.9c0.3,4.6,2.1,10.8,4.8,16.1c5.4,10.6,13.5,17.2,23.4,18.8c13.4,2.2,24.8-4,33.3-18.3c2.7-4.6,5.4-10.6,7.1-16.2
		l0.5-1.8l0.6,0l0.6,0l-0.1,0.6c-0.8,3.7-2.3,8.4-3.9,12.2c-4.3,10-10.5,17.4-18,21.5c-3.9,2.2-8.2,3.5-12.9,3.9
		C544.5,338.1,541.1,338.1,540.2,338L540.2,338z"/>
	
		<path style="fill:none;stroke:#512007;stroke-width:4.200000e-02;stroke-linecap:round;stroke-linejoin:round;stroke-opacity:0.996;" d="
		M0,0"/>
	
		<path style="fill:none;stroke:#512007;stroke-width:4.200000e-02;stroke-linecap:round;stroke-linejoin:round;stroke-opacity:0.996;" d="
		M0,0"/>
	<path style="fill:#E98E01;" d="M539.7,335.7c-4.4-0.6-7.8-1.8-11.2-3.9c-6.1-3.7-11.1-9.8-14.6-17.8c-1.1-2.5-2.2-6-2.8-8.6
		c-0.3-1.5-0.6-3.7-0.6-4.5c0-0.5,0-0.5,0.2-0.4c0.1,0,0.4,0.2,0.7,0.3c0.3,0.1,0.6,0.2,0.6,0.3c0,0,0.1,0.5,0.2,1.1
		c0.4,3.2,1.1,6,2.2,9c1.2,3.3,2.7,5.9,4.8,8.7c5.3,6.9,13,10.7,22.5,11.2c5.1,0.3,8.4-0.2,12.4-1.8c6.4-2.6,12.5-8.5,17.1-16.6
		c2.1-3.7,4.2-8.3,5.3-11.8l0.4-1.2h0.3c0.2,0,0.6,0,1,0.1c0.8,0.1,0.8-0.1,0,2.1c-1.1,3.6-3,8.3-4.5,11.2
		c-5.2,10.3-11.6,17.1-19,20.5c-2.1,0.9-4,1.5-6.6,2C546.7,335.9,541.2,335.9,539.7,335.7L539.7,335.7z"/>
	<path style="fill:#D05F01;" d="M540.6,338c-3.5-0.3-5.7-0.8-8.3-1.8c-5.2-2-9.7-5.5-13.6-10.5c-3-3.9-5.4-8.2-7.3-13.3
		c-1.6-4.2-2.7-8.9-3-12l-0.1-0.8l0.8,0.3c0.4,0.2,0.8,0.3,0.8,0.4c0,0,0.1,0.6,0.1,1.2c0.3,3.1,1.2,7,2.6,10.7
		c3.7,9.7,9.7,17.1,17,21c4.3,2.2,8.6,3.3,13.7,3.3c3.2,0,5.7-0.4,8.5-1.3c7.8-2.5,14.5-8.5,20-18c1-1.8,2.7-5,3.7-7.3
		c0.9-2,2.5-6.3,3.1-8.4l0.5-1.6l0.6,0l0.6,0l-0.1,0.5c-0.1,0.3-0.2,0.7-0.2,1c0,0.2-0.3,1.1-0.5,2c-2.2,7.9-5.4,14.9-9.5,20.3
		c-6.2,8.2-13.8,12.9-23.2,14.1C545.7,337.9,541.4,338.1,540.6,338L540.6,338z"/>
</g>
<g>
	<g>
		<g>
			<g>
				<defs>
					<rect id="SVGID_1_" x="0.3" y="0.9" width="365.1" height="237.2"/>
				</defs>
				<clipPath id="SVGID_2_">
					<use xlink:href="#SVGID_1_"  style="overflow:visible;"/>
				</clipPath>
				<g style="clip-path:url(#SVGID_2_);">
					<path style="fill:#012169;" d="M0.3,0.9v237.2h365.1V0.9H0.3z"/>
					<g>
						<path d="M0.3,0.9l365.1,237.2 M365.4,0.9L0.3,238.1"/>
						<polygon style="fill:#FFFFFF;" points="357.2,259.3 182.9,146 8.5,259.3 -7.9,216.9 142,119.5 -7.9,22.1 8.5,-20.3 182.9,93 
							357.2,-20.3 373.6,22.1 223.7,119.5 373.6,216.9 						"/>
					</g>
					<g>
						<g>
							<g>
								<defs>
									<polygon id="SVGID_3_" points="182.9,119.5 365.4,119.5 365.4,238.1 182.9,238.1 0.3,238.1 0.3,119.5 0.3,0.9 182.9,0.9 
										365.4,0.9 									"/>
								</defs>
								<clipPath id="SVGID_4_">
									<use xlink:href="#SVGID_3_"  style="overflow:visible;"/>
								</clipPath>
								<g style="clip-path:url(#SVGID_4_);">
									<path d="M0.3,0.9l365.1,237.2 M365.4,0.9L0.3,238.1"/>
									<polygon style="fill:#C8102E;" points="360,252.2 182.9,137.2 5.7,252.2 -5.1,224 155.6,119.5 -5.1,15 5.7,-13.2 
										182.9,101.8 360,-13.2 370.8,15 210.1,119.5 370.8,224 									"/>
								</g>
							</g>
						</g>
					</g>
					<g>
						<path d="M182.9,0.9v237.2 M0.3,119.5h365.1"/>
						<polygon style="fill:#FFFFFF;" points="213.3,238.1 152.4,238.1 152.4,159 0.3,159 0.3,80 152.4,80 152.4,0.9 213.3,0.9 
							213.3,80 365.4,80 365.4,159 213.3,159 						"/>
					</g>
					<g>
						<path d="M182.9,0.9v237.2 M0.3,119.5h365.1"/>
						<polygon style="fill:#C8102E;" points="201.1,238.1 164.6,238.1 164.6,143.2 0.3,143.2 0.3,95.8 164.6,95.8 164.6,0.9 
							201.1,0.9 201.1,95.8 365.4,95.8 365.4,143.2 201.1,143.2 						"/>
					</g>
				</g>
			</g>
		</g>
	</g>
</g>
</svg>
