<?xml version="1.0" encoding="utf-8"?>
<!-- Generator: Adobe Illustrator 25.2.1, SVG Export Plug-In . SVG Version: 6.00 Build 0)  -->
<svg version="1.1" id="Layer_1" xmlns="http://www.w3.org/2000/svg" xmlns:xlink="http://www.w3.org/1999/xlink" x="0px" y="0px"
	 viewBox="0 0 720 480" style="enable-background:new 0 0 720 480;" xml:space="preserve">
<g>
	<rect style="fill:#DA000C;" width="720" height="480"/>
	<rect style="fill:#FFFFFF;" width="720" height="321.6"/>
	<g>
		<g id="castle_half">
			<rect x="276.4" y="218.1" width="90" height="82.5"/>
			<path style="fill:#DA000C;stroke:#000000;stroke-linecap:square;" d="M323.2,288.5h-54.9l-12.2,10.7v11.3h67.1"/>
			<path style="fill:#DA000C;stroke:#000000;stroke-linecap:square;" d="M300.2,241.1c7.9,0,14.4,8.8,14.4,19.6v27.7h10.3v-105
				h-56.6v105h17.6v-27.7C285.8,250.3,292.2,241.1,300.2,241.1z"/>
			<rect x="287.6" y="112.4" width="26" height="63.7"/>
			<path style="fill:#DA000C;stroke:#000000;stroke-linecap:square;" d="M313.6,166.2h-22.8v-10.8h-16.7v10.8h-11.3v-10.8H256V175
				h57.6 M262.7,174.9h49.2v8.5h-49.2V174.9z"/>
			<path style="fill:#DA000C;stroke:#000000;stroke-linecap:square;" d="M282.3,89.3v66.2h8.5v-18.2c0-6.8,3.6-12.4,8.6-12.7
				c0.2,0,0.3,0,0.5,0c5.3,0,9.5,5.7,9.5,12.7v18.2h8.1V89.3H282.3z"/>
			<path style="fill:#DA000C;stroke:#000000;stroke-linecap:square;" d="M279.2,80.3v9h41.1v-9H279.2z"/>
			<path style="fill:#DA000C;stroke:#000000;stroke-linecap:square;" d="M273.9,63.2v17.2h49.4V63.2h-7.6v8.7h-9.2v-8.7h-14v8.7
				h-9.2v-8.7H273.9z"/>
			<path style="fill:#DA000C;stroke:#000000;stroke-linecap:square;" d="M256.1,299.2h67.4"/>
			<path style="fill:#DA000C;stroke:#000000;stroke-linecap:square;" d="M367,294h-45.6l-13.8,8.8v13.2H367"/>
			<path style="fill:#DA000C;stroke:#000000;" d="M307.6,302.8h60.8"/>
		</g>
		<g transform="matrix(-1,0,0,1,512,0)">
			<g id="castle_half_1_">
				<rect x="353.6" y="218.1" width="90" height="82.5"/>
				<path style="fill:#DA000C;stroke:#000000;stroke-linecap:square;" d="M396.8,288.5h54.9l12.2,10.7v11.3h-67.1"/>
				<path style="fill:#DA000C;stroke:#000000;stroke-linecap:square;" d="M419.8,241.1c-7.9,0-14.4,8.8-14.4,19.6v27.7h-10.3v-105
					h56.6v105h-17.6v-27.7C434.2,250.3,427.8,241.1,419.8,241.1z"/>
				<rect x="406.3" y="112.4" width="26" height="63.7"/>
				<path style="fill:#DA000C;stroke:#000000;stroke-linecap:square;" d="M406.4,166.2h22.8v-10.8h16.7v10.8h11.3v-10.8h6.8V175
					h-57.6 M457.3,174.9h-49.2v8.5h49.2V174.9z"/>
				<path style="fill:#DA000C;stroke:#000000;stroke-linecap:square;" d="M437.7,89.3v66.2h-8.5v-18.2c0-6.8-3.6-12.4-8.6-12.7
					c-0.2,0-0.3,0-0.5,0c-5.3,0-9.5,5.7-9.5,12.7v18.2h-8.1V89.3H437.7z"/>
				<path style="fill:#DA000C;stroke:#000000;stroke-linecap:square;" d="M440.8,80.3v9h-41.1v-9H440.8z"/>
				<path style="fill:#DA000C;stroke:#000000;stroke-linecap:square;" d="M446.1,63.2v17.2h-49.4V63.2h7.6v8.7h9.2v-8.7h14v8.7h9.2
					v-8.7H446.1z"/>
				<path style="fill:#DA000C;stroke:#000000;stroke-linecap:square;" d="M463.9,299.2h-67.4"/>
				<path style="fill:#DA000C;stroke:#000000;stroke-linecap:square;" d="M353,294h45.6l13.8,8.8v13.2H353"/>
				<path style="fill:#DA000C;stroke:#000000;" d="M412.4,302.8h-60.8"/>
			</g>
		</g>
		<g>
			<g>
				<path style="fill:#F8D80E;stroke:#000000;stroke-width:0.768;stroke-linecap:round;" d="M384.3,281.3c-3.7,1.7-7.1,4.4-10.5,7
					c-4.4,3.4-8.6,7.2-12.5,11.4c-1.4,1.2-2.7,2.6-3.8,4.3c-1.4,1.6-2.9,3.9-2.6,6.6c0.1,1.2,1.2-1.4,2-1.5c1.3-1,2.9-1.3,4.4-0.9
					c1.8-2.5,4.1-4.2,6.1-6.4c4.2-4.2,8.8-7.8,13.4-11.2c1.6-1.1,3.2-2.2,5-3C385.3,285.5,384.8,283.4,384.3,281.3L384.3,281.3z"/>
				<path style="fill:#F8D80E;stroke:#000000;stroke-linecap:round;" d="M366.2,295.1v7.3"/>
				<path style="fill:#F8D80E;stroke:#000000;stroke-linecap:round;" d="M369.6,291.9v7.3"/>
				<path style="fill:#F8D80E;stroke:#000000;stroke-linecap:round;" d="M373,289.1v7.2"/>
				<path style="fill:#F8D80E;stroke:#000000;stroke-linecap:round;" d="M376.4,286.3v7.5"/>
				<path style="fill:#F8D80E;stroke:#000000;stroke-width:0.768;stroke-linecap:round;" d="M335.9,281.5c-0.6,2.1-1.1,4.1-1.7,6.2
					c7.8,3.9,15.2,9.1,22.2,15.1c2.4,2.2,4.9,4.2,6.7,7.2c0.4,1.5-0.7,2.8-1.8,2.3c-1-0.5-2-1-3.1,0c-1.6,0.9-3,4-0.6,5
					c3.3,2.9,8.6,1.6,10.1-3.5c0.8-2.6,0.9-6-0.7-8.1c-2.9-4.4-6.7-7.5-10.4-10.6C350,289.9,343.2,285.1,335.9,281.5L335.9,281.5z"
					/>
				<path style="fill:#F8D80E;stroke:#000000;stroke-linecap:round;" d="M357.3,296.3l-0.4,6.3"/>
				<path style="fill:#F8D80E;stroke:#000000;stroke-linecap:round;" d="M361.2,299.5l-1.2,6.1"/>
				<path style="fill:#F8D80E;stroke:#000000;stroke-linecap:round;" d="M365.3,303.8l-2.5,4.8"/>
				<path style="fill:#F8D80E;stroke:#000000;stroke-linecap:round;" d="M366.6,315.3l-3.7-2.6"/>
				<path style="fill:#F8D80E;stroke:#000000;stroke-linecap:round;" d="M367.8,310.2l-4.2,0.5"/>
				<path style="fill:#F8D80E;stroke:#000000;stroke-linecap:round;" d="M362.3,318.3l-0.3-4.9"/>
				<path style="fill:#F8D80E;stroke:#000000;stroke-linecap:round;" d="M360.8,312.7l-3.5,3.4"/>
				<path style="fill:#F8D80E;stroke:#000000;stroke-linecap:round;" d="M344.1,286.8v5.8"/>
				<path style="fill:#F8D80E;stroke:#000000;stroke-linecap:round;" d="M352.9,293v6.6"/>
				<path style="fill:#F8D80E;stroke:#000000;stroke-linecap:round;" d="M348.5,289.9v6.2"/>
			</g>
			<path style="fill:#F8D80E;stroke:#000000;" d="M331.6,426.7v15.1h7.1v-7.6h9.6v7.6h7.6v-15.1H331.6z M331.6,447.4v15.1h24.3
				v-15.1h-7.6v7.6h-9.6v-7.6H331.6z"/>
			<rect x="355.9" y="363.1" style="fill:#F8D80E;stroke:#000000;" width="7" height="109"/>
			<rect x="355.9" y="372.5" style="fill:#F8D80E;stroke:#000000;" width="7" height="93.9"/>
			<path style="fill:#F8D80E;stroke:#000000;stroke-width:1.024;" d="M359.4,336.4l14.9,11.6l-14.9,11.5L344.4,348L359.4,336.4z
				 M339.4,343.8h-3.9v8.3h3.9l20,15.5l20-15.5h3.9v-8.3h-3.9l-20-15.5L339.4,343.8z"/>
			<path style="fill:#F8D80E;stroke:#000000;stroke-width:1.024;" d="M359.1,308c-3.4,0.6-5.9,5.1-5.8,9.6c0,7,0,14,0,21
				c0.2,4.5,3.1,8.6,6.6,8.6c2.8,0.4,5.6-1.8,6.8-5.2c-0.8-0.6-1.6-1.3-2.4-1.9c-0.6,2.2-2.4,3.6-4.2,3.3c-2.3,0.1-4.2-2.9-4-5.9
				c0-7,0-13.9,0-20.9c0.1-2.8,2.2-5.2,4.3-4.9c0.9-0.3,2.1,1.3,2.6-0.1c0.8-1.6-0.6-2.8-1.4-3.6C360.9,307.9,360,308.1,359.1,308
				L359.1,308z M367.2,315.4c-0.6,1.4-1.7,2.2-2.6,3v14.1c0.9,0.7,1.9,1.4,2.8,2.2c0-6,0-12,0-18
				C367.3,316.2,367.4,315.6,367.2,315.4L367.2,315.4z"/>
		</g>
		<g>
			<rect x="338.6" y="71.9" width="41.2" height="99.9"/>
			<path style="fill:#DA000C;stroke:#000000;" d="M335.7,72v83.6h13.1v-24.8c0-5.7,2.7-13.7,11.2-13.7s11.2,7.9,11.2,13.7v24.8h13.1
				V72H335.7z M358,81.3h4v28.6h-4V81.3z M346.4,87h4.1v20.9h-4.1V87z M369.5,87h4.1v20.9h-4.1V87z"/>
			<path style="fill:#DA000C;stroke:#000000;" d="M331.3,59.9v11.9h57.4V59.9H331.3z"/>
			<path style="fill:#DA000C;stroke:#000000;" d="M325.9,46.1v13.8h68.2V46.1h-8.6v7.6h-9.7v-7.6h-11v7.6h-9.7v-7.6h-11v7.6h-9.7
				v-7.6H325.9z"/>
			<path style="fill:#DA000C;stroke:#000000;" d="M313.2,183.5v8.6h93.5v-8.6H313.2z"/>
			<path style="fill:#DA000C;stroke:#000000;" d="M309.4,155.4v28h101.2v-28H401v10.8h-12.7v-10.8h-17.1v10.8h-22.3v-10.8h-17.1
				v10.8H319v-10.8H309.4z"/>
			<path style="fill:#DA000C;stroke:#000000;stroke-linejoin:round;" d="M321.6,192.1V294h18.1v-38.1c0-18,9-26.4,20.3-26.4
				c10.9,0,20.3,8.5,20.3,26.4V294h18.1V192.1H321.6z"/>
		</g>
	</g>
</g>
</svg>
