<?xml version="1.0" encoding="utf-8"?>
<!-- Generator: Adobe Illustrator 25.2.1, SVG Export Plug-In . SVG Version: 6.00 Build 0)  -->
<svg version="1.1" id="Layer_1" xmlns="http://www.w3.org/2000/svg" xmlns:xlink="http://www.w3.org/1999/xlink" x="0px" y="0px"
	 viewBox="0 0 720 480" style="enable-background:new 0 0 720 480;" xml:space="preserve">
<g>
	<rect style="fill:#CE1126;" width="720" height="480"/>
	<rect x="60.5" y="67.2" style="fill:#007A5E;" width="599" height="345.6"/>
	<path style="fill:#FCD116;" d="M60.5,67.2h599l-599,345.6h599L60.5,67.2z"/>
	<ellipse style="fill:#CE1126;" cx="360" cy="240" rx="51.8" ry="57.6"/>
	<g transform="translate(250,150) scale(33)">
		<g id="s">
			<g id="c">
				<path id="t" style="fill:#FCD116;" d="M360,187.2l-14.7,50.2l22.6,8.2"/>
				<g transform="scale(-1,1)">
					<path id="t_1_" style="fill:#FCD116;" d="M360,187.2l14.7,50.2l-22.6,8.2"/>
				</g>
			</g>
			<g transform="rotate(72)">
				<g id="c_1_">
					<path id="t_2_" style="fill:#FCD116;" d="M405.2,223.7h-47.5v26.4"/>
					<g transform="scale(-1,1)">
						<path id="t_3_" style="fill:#FCD116;" d="M405.2,223.7l-38.4,31l-14-21.4"/>
					</g>
				</g>
			</g>
			<g transform="rotate(144)">
				<g id="c_2_">
					<path id="t_4_" style="fill:#FCD116;" d="M387.9,282.7l-14.7-50.2l-22.6,8.2"/>
					<g transform="scale(-1,1)">
						<path id="t_5_" style="fill:#FCD116;" d="M387.9,282.7l-38.4-31l14-21.4"/>
					</g>
				</g>
			</g>
			<g transform="rotate(216)">
				<g id="c_3_">
					<path id="t_6_" style="fill:#FCD116;" d="M332.1,282.7l38.4-31l-14-21.4"/>
					<g transform="scale(-1,1)">
						<path id="t_7_" style="fill:#FCD116;" d="M332.1,282.7l14.7-50.2l22.6,8.2"/>
					</g>
				</g>
			</g>
			<g transform="rotate(288)">
				<g id="c_4_">
					<path id="t_8_" style="fill:#FCD116;" d="M314.8,223.7l38.4,31l14-21.4"/>
					<g transform="scale(-1,1)">
						<path id="t_9_" style="fill:#FCD116;" d="M314.8,223.7h47.5v26.4"/>
					</g>
				</g>
			</g>
		</g>
	</g>
	<g>
		<g id="s2" transform="translate(250,21) scale(19.5)">
			<g id="s_1_">
				<g id="c_5_">
					<path id="t_10_" style="fill:#FCD116;" d="M216,2.4l-8.7,29.7l13.4,4.8"/>
					<g transform="scale(-1,1)">
						<path id="t_11_" style="fill:#FCD116;" d="M216,2.4l8.7,29.7l-13.4,4.8"/>
					</g>
				</g>
				<g transform="rotate(72)">
					<g id="c_6_">
						<path id="t_12_" style="fill:#FCD116;" d="M242.7,24h-28.1v15.6"/>
						<g transform="scale(-1,1)">
							<path id="t_13_" style="fill:#FCD116;" d="M242.7,24L220,42.3l-8.3-12.6"/>
						</g>
					</g>
				</g>
				<g transform="rotate(144)">
					<g id="c_7_">
						<path id="t_14_" style="fill:#FCD116;" d="M232.5,58.8l-8.7-29.7L210.5,34"/>
						<g transform="scale(-1,1)">
							<path id="t_15_" style="fill:#FCD116;" d="M232.5,58.8l-22.7-18.3l8.3-12.6"/>
						</g>
					</g>
				</g>
				<g transform="rotate(216)">
					<g id="c_8_">
						<path id="t_16_" style="fill:#FCD116;" d="M199.5,58.8l22.7-18.3L214,27.9"/>
						<g transform="scale(-1,1)">
							<path id="t_17_" style="fill:#FCD116;" d="M199.5,58.8l8.7-29.7l13.4,4.8"/>
						</g>
					</g>
				</g>
				<g transform="rotate(288)">
					<g id="c_9_">
						<path id="t_18_" style="fill:#FCD116;" d="M189.3,24L212,42.3l8.3-12.6"/>
						<g transform="scale(-1,1)">
							<path id="t_19_" style="fill:#FCD116;" d="M189.3,24h28.1v15.6"/>
						</g>
					</g>
				</g>
			</g>
		</g>
	</g>
	<g id="s2_1_" transform="translate(250,21) scale(19.5)">
		<g id="s_2_">
			<g id="c_10_">
				<path id="t_20_" style="fill:#FCD116;" d="M360,2.4l-8.7,29.7l13.4,4.8"/>
				<g transform="scale(-1,1)">
					<path id="t_21_" style="fill:#FCD116;" d="M360,2.4l8.7,29.7l-13.4,4.8"/>
				</g>
			</g>
			<g transform="rotate(72)">
				<g id="c_11_">
					<path id="t_22_" style="fill:#FCD116;" d="M386.7,24h-28.1v15.6"/>
					<g transform="scale(-1,1)">
						<path id="t_23_" style="fill:#FCD116;" d="M386.7,24L364,42.3l-8.3-12.6"/>
					</g>
				</g>
			</g>
			<g transform="rotate(144)">
				<g id="c_12_">
					<path id="t_24_" style="fill:#FCD116;" d="M376.5,58.8l-8.7-29.7L354.5,34"/>
					<g transform="scale(-1,1)">
						<path id="t_25_" style="fill:#FCD116;" d="M376.5,58.8l-22.7-18.3l8.3-12.6"/>
					</g>
				</g>
			</g>
			<g transform="rotate(216)">
				<g id="c_13_">
					<path id="t_26_" style="fill:#FCD116;" d="M343.5,58.8l22.7-18.3L358,27.9"/>
					<g transform="scale(-1,1)">
						<path id="t_27_" style="fill:#FCD116;" d="M343.5,58.8l8.7-29.7l13.4,4.8"/>
					</g>
				</g>
			</g>
			<g transform="rotate(288)">
				<g id="c_14_">
					<path id="t_28_" style="fill:#FCD116;" d="M333.3,24L356,42.3l8.3-12.6"/>
					<g transform="scale(-1,1)">
						<path id="t_29_" style="fill:#FCD116;" d="M333.3,24h28.1v15.6"/>
					</g>
				</g>
			</g>
		</g>
	</g>
	<g>
		<g id="s2_2_" transform="translate(250,21) scale(19.5)">
			<g id="s_3_">
				<g id="c_15_">
					<path id="t_30_" style="fill:#FCD116;" d="M504,2.4l-8.7,29.7l13.4,4.8"/>
					<g transform="scale(-1,1)">
						<path id="t_31_" style="fill:#FCD116;" d="M504,2.4l8.7,29.7l-13.4,4.8"/>
					</g>
				</g>
				<g transform="rotate(72)">
					<g id="c_16_">
						<path id="t_32_" style="fill:#FCD116;" d="M530.7,24h-28.1v15.6"/>
						<g transform="scale(-1,1)">
							<path id="t_33_" style="fill:#FCD116;" d="M530.7,24L508,42.3l-8.3-12.6"/>
						</g>
					</g>
				</g>
				<g transform="rotate(144)">
					<g id="c_17_">
						<path id="t_34_" style="fill:#FCD116;" d="M520.5,58.8l-8.7-29.7L498.5,34"/>
						<g transform="scale(-1,1)">
							<path id="t_35_" style="fill:#FCD116;" d="M520.5,58.8l-22.7-18.3l8.3-12.6"/>
						</g>
					</g>
				</g>
				<g transform="rotate(216)">
					<g id="c_18_">
						<path id="t_36_" style="fill:#FCD116;" d="M487.5,58.8l22.7-18.3L502,27.9"/>
						<g transform="scale(-1,1)">
							<path id="t_37_" style="fill:#FCD116;" d="M487.5,58.8l8.7-29.7l13.4,4.8"/>
						</g>
					</g>
				</g>
				<g transform="rotate(288)">
					<g id="c_19_">
						<path id="t_38_" style="fill:#FCD116;" d="M477.3,24L500,42.3l8.3-12.6"/>
						<g transform="scale(-1,1)">
							<path id="t_39_" style="fill:#FCD116;" d="M477.3,24h28.1v15.6"/>
						</g>
					</g>
				</g>
			</g>
		</g>
	</g>
	<g>
		<g id="s2_3_" transform="translate(250,21) scale(19.5)">
			<g id="s_4_">
				<g id="c_20_">
					<path id="t_40_" style="fill:#FCD116;" d="M216,415.2l-8.7,29.7l13.4,4.8"/>
					<g transform="scale(-1,1)">
						<path id="t_41_" style="fill:#FCD116;" d="M216,415.2l8.7,29.7l-13.4,4.8"/>
					</g>
				</g>
				<g transform="rotate(72)">
					<g id="c_21_">
						<path id="t_42_" style="fill:#FCD116;" d="M242.7,436.8h-28.1v15.6"/>
						<g transform="scale(-1,1)">
							<path id="t_43_" style="fill:#FCD116;" d="M242.7,436.8L220,455.1l-8.3-12.6"/>
						</g>
					</g>
				</g>
				<g transform="rotate(144)">
					<g id="c_22_">
						<path id="t_44_" style="fill:#FCD116;" d="M232.5,471.6l-8.7-29.7l-13.4,4.8"/>
						<g transform="scale(-1,1)">
							<path id="t_45_" style="fill:#FCD116;" d="M232.5,471.6l-22.7-18.3l8.3-12.6"/>
						</g>
					</g>
				</g>
				<g transform="rotate(216)">
					<g id="c_23_">
						<path id="t_46_" style="fill:#FCD116;" d="M199.5,471.6l22.7-18.3l-8.3-12.6"/>
						<g transform="scale(-1,1)">
							<path id="t_47_" style="fill:#FCD116;" d="M199.5,471.6l8.7-29.7l13.4,4.8"/>
						</g>
					</g>
				</g>
				<g transform="rotate(288)">
					<g id="c_24_">
						<path id="t_48_" style="fill:#FCD116;" d="M189.3,436.8l22.7,18.3l8.3-12.6"/>
						<g transform="scale(-1,1)">
							<path id="t_49_" style="fill:#FCD116;" d="M189.3,436.8h28.1v15.6"/>
						</g>
					</g>
				</g>
			</g>
		</g>
	</g>
	<g>
		<g id="s2_4_" transform="translate(250,21) scale(19.5)">
			<g id="s_5_">
				<g id="c_25_">
					<path id="t_50_" style="fill:#FCD116;" d="M360,415.2l-8.7,29.7l13.4,4.8"/>
					<g transform="scale(-1,1)">
						<path id="t_51_" style="fill:#FCD116;" d="M360,415.2l8.7,29.7l-13.4,4.8"/>
					</g>
				</g>
				<g transform="rotate(72)">
					<g id="c_26_">
						<path id="t_52_" style="fill:#FCD116;" d="M386.7,436.8h-28.1v15.6"/>
						<g transform="scale(-1,1)">
							<path id="t_53_" style="fill:#FCD116;" d="M386.7,436.8L364,455.1l-8.3-12.6"/>
						</g>
					</g>
				</g>
				<g transform="rotate(144)">
					<g id="c_27_">
						<path id="t_54_" style="fill:#FCD116;" d="M376.5,471.6l-8.7-29.7l-13.4,4.8"/>
						<g transform="scale(-1,1)">
							<path id="t_55_" style="fill:#FCD116;" d="M376.5,471.6l-22.7-18.3l8.3-12.6"/>
						</g>
					</g>
				</g>
				<g transform="rotate(216)">
					<g id="c_28_">
						<path id="t_56_" style="fill:#FCD116;" d="M343.5,471.6l22.7-18.3l-8.3-12.6"/>
						<g transform="scale(-1,1)">
							<path id="t_57_" style="fill:#FCD116;" d="M343.5,471.6l8.7-29.7l13.4,4.8"/>
						</g>
					</g>
				</g>
				<g transform="rotate(288)">
					<g id="c_29_">
						<path id="t_58_" style="fill:#FCD116;" d="M333.3,436.8l22.7,18.3l8.3-12.6"/>
						<g transform="scale(-1,1)">
							<path id="t_59_" style="fill:#FCD116;" d="M333.3,436.8h28.1v15.6"/>
						</g>
					</g>
				</g>
			</g>
		</g>
	</g>
	<g>
		<g id="s2_5_" transform="translate(250,21) scale(19.5)">
			<g id="s_6_">
				<g id="c_30_">
					<path id="t_60_" style="fill:#FCD116;" d="M504,415.2l-8.7,29.7l13.4,4.8"/>
					<g transform="scale(-1,1)">
						<path id="t_61_" style="fill:#FCD116;" d="M504,415.2l8.7,29.7l-13.4,4.8"/>
					</g>
				</g>
				<g transform="rotate(72)">
					<g id="c_31_">
						<path id="t_62_" style="fill:#FCD116;" d="M530.7,436.8h-28.1v15.6"/>
						<g transform="scale(-1,1)">
							<path id="t_63_" style="fill:#FCD116;" d="M530.7,436.8L508,455.1l-8.3-12.6"/>
						</g>
					</g>
				</g>
				<g transform="rotate(144)">
					<g id="c_32_">
						<path id="t_64_" style="fill:#FCD116;" d="M520.5,471.6l-8.7-29.7l-13.4,4.8"/>
						<g transform="scale(-1,1)">
							<path id="t_65_" style="fill:#FCD116;" d="M520.5,471.6l-22.7-18.3l8.3-12.6"/>
						</g>
					</g>
				</g>
				<g transform="rotate(216)">
					<g id="c_33_">
						<path id="t_66_" style="fill:#FCD116;" d="M487.5,471.6l22.7-18.3l-8.3-12.6"/>
						<g transform="scale(-1,1)">
							<path id="t_67_" style="fill:#FCD116;" d="M487.5,471.6l8.7-29.7l13.4,4.8"/>
						</g>
					</g>
				</g>
				<g transform="rotate(288)">
					<g id="c_34_">
						<path id="t_68_" style="fill:#FCD116;" d="M477.3,436.8l22.7,18.3l8.3-12.6"/>
						<g transform="scale(-1,1)">
							<path id="t_69_" style="fill:#FCD116;" d="M477.3,436.8h28.1v15.6"/>
						</g>
					</g>
				</g>
			</g>
		</g>
	</g>
	<path style="fill:#CE1126;" d="M97.6,240.7c6.5,13.4,19.1,28,30.1,33.2c0.2-13.6-4.2-31.1-10.1-45
		C117.5,228.8,97.6,240.7,97.6,240.7z"/>
	<path style="fill:#FCD116;" d="M86.6,194.6c9.4,21.8-24.4,73.7,31.9,85.9c-6.9-10.5-11.4-27.9-9.7-41.9c11.8,5,24.2,19.6,29.3,30.8
		C152.7,210,100.2,213.6,86.6,194.6z"/>
</g>
</svg>
