<?xml version="1.0" encoding="utf-8"?>
<!-- Generator: Adobe Illustrator 25.2.1, SVG Export Plug-In . SVG Version: 6.00 Build 0)  -->
<svg version="1.1" id="Layer_1" xmlns="http://www.w3.org/2000/svg" xmlns:xlink="http://www.w3.org/1999/xlink" x="0px" y="0px"
	 viewBox="0 0 720 480" style="enable-background:new 0 0 720 480;" xml:space="preserve">
<g>
	<path style="fill:#4997D0;" d="M0,0h720v480H0V0z"/>
	<path style="fill:#FFFFFF;" d="M240,0h240v480H240V0z"/>
	<g>
		<g>
			<path style="fill:none;stroke:#24420E;stroke-width:0.44;" d="M339.1,302c2-0.3,3.1-0.9,4.5-1.4 M345.3,297.3
				c1,1.1,1.8,2.3,2.2,3.7 M341.4,297c1,1,1.8,2.1,2.4,3.3 M306.6,191c-0.8,1.3-2.3,2.2-3.6,2.7 M302.8,193.6c0-1.1-0.2-2.4,0-3.5
				 M301.3,194.1c0.1,0.3,0.3,1.1,0.5,1.6 M303.3,196.5c-0.3,0.1-1.1,0.2-1.5,0.3 M298.9,196c0,2,0.2,4.4,0.4,6.3 M297.9,201.5
				c0.4,0.6,0.7,1.2,1.2,1.5 M295.6,208.2c0.4,0.8,0.7,1.7,1,3.2 M299.4,207.7c-0.3,0.2-0.9,0.7-1.4,1.2 M299.1,212.4
				c-0.7,0.7-1.6,1.2-2.6,1.7 M293.7,246.4c0.8,1.4,1.8,2.7,3,3.7 M297.1,251.5c-0.8-0.1-1.5-0.4-2.2-0.8 M298.2,257.5l1.3,0.8
				 M299.1,261c0.9,0.7,1.9,1.8,2.8,3.1 M300.9,266.4c1,0.2,1.9,0.5,2.4,0.8 M302.5,269.2l1.6,0.1 M305,264.9
				c-0.1,1.2-0.2,2.4-0.4,3.4 M305.4,269.6l0.3-1.3 M309.2,273.1l-0.1,2.6 M338.5,298l-0.9,1.3 M335.9,296.2l-0.5-1.5"/>
		</g>
		<g>
			<path style="fill:#406325;stroke:#24420E;stroke-width:0.16;" d="M364.6,307.9c-0.6-1-1.6-1.6-2.5-2.1
				c-5.8-3.2-11.5-4.7-18.1-5.8c-1.5-0.3-3-1.8-4.6-2.6c-3.7-1.9-7.9-2.6-11.5-4.6c-0.6-0.3-1.1-0.7-1.6-1.2c-1.4-1.8-4-2.3-5.7-4
				c-6.2-6.3-12.9-12.1-16.3-20.4c-4.2-10.2-9.4-20.6-8.7-32.2c0.5-7.3-0.6-14.7,1.1-21.6c2.5-10.3,5.7-20.5,11.5-29l-1,0.7
				c-5.9,8.5-9.1,18.7-11.6,29c-1.7,7-0.7,14.3-1.1,21.6c-0.7,11.6,4.5,22,8.7,32.2c3.4,8.3,10.1,14.1,16.3,20.4
				c1.6,1.6,4.2,2.2,5.6,4c0.4,0.5,1.4,1.1,1.6,1.2c3.6,1.9,7.8,2.7,11.5,4.5c1.5,0.8,3.1,2.3,4.6,2.6c6.5,1.1,12.3,2.6,18.1,5.8
				c1,0.5,1.8,1.2,2.5,2.1L364.6,307.9"/>
			<g>
				<path style="fill:#67923D;stroke:#24420E;stroke-width:0.16;" d="M304.8,265.3c-2.1-5-1-17.3-0.2-18.8
					C309.6,256.9,307.9,265.5,304.8,265.3z M339.2,301.6c-5.3,0.3-15.5,7.4-16.4,9.1C334.1,310.8,340.8,304.9,339.2,301.6z
					 M344.7,298.2c-5.1-4.4-10.6-18.9-10.5-21.2C345.5,285.6,348.4,296.4,344.7,298.2z"/>
				<path style="fill:#67923D;stroke:#24420E;stroke-width:0.16;" d="M341,298.2c-5.2-3.4-11.8-16.1-12-18.2
					C340.4,286.6,344.2,296.1,341,298.2z M329.3,292.8c0.7-6.3-4.3-19.4-5.7-20.8C321.4,285.2,325.8,294.1,329.3,292.8z
					 M308.8,273.4c-1.7-4.5-0.5-15.5,0.4-16.8C313.3,265.9,311.6,273.6,308.8,273.4z M298.5,211.9c2.7-5.3,13.8-12.6,15.7-12.7
					C309.2,210.8,300.7,215,298.5,211.9z"/>
				<path style="fill:#67923D;stroke:#24420E;stroke-width:0.16;" d="M299.1,207.5c1.6-5.8,11.2-15.4,13-16
					C309.3,204,301.8,210,299.1,207.5z M319.9,286.8c-3.8-4.9-6-19.1-5.5-21.1C322.9,275.7,323.5,285.9,319.9,286.8L319.9,286.8z
					 M298.4,257.6c-5.2,0.9-16-3.7-17.2-5.1C292.1,250,299.5,254.2,298.4,257.6z M296.8,249.9c0.6-4.5,6.5-12.6,7.8-13.3
					C303.7,246.1,298.9,251.4,296.8,249.9z M335.3,296.7c-6.4,0.3-18.5,8.9-19.6,10.9C329.2,307.7,337.2,300.6,335.3,296.7z"/>
			</g>
			<g>
				<path style="fill:#406325;stroke:#24420E;stroke-width:0.16;" d="M304.8,265.2c3.2,0.2,4.8-8.3-0.2-18.7
					C305.5,256.3,305.5,264.3,304.8,265.2z M313.2,281.2c-3.4-4.4-14.5-9.1-16.3-8.9C303.6,281.9,311.8,284.3,313.2,281.2z
					 M294.9,238.8c-0.9-6.4-9.2-18.2-11.1-19.2C285,233.4,291.7,241,294.9,238.8z M301.2,266.2c-3.8-2.9-14.2-4.3-15.7-3.8
					C293.1,269.1,300.6,269.2,301.2,266.2z M294.2,246.4c-2.2-4.6-11.1-10.8-12.7-11C285.6,245.3,292.4,248.9,294.2,246.4z
					 M296.2,208.3c0.7-6.1-4.1-18.8-5.5-20.1C288.5,200.9,292.9,209.5,296.2,208.3z M299.5,196.4c2-5.2,0.6-17.9-0.4-19.5
					C294.4,187.7,296.3,196.6,299.5,196.4z"/>
				<path style="fill:#406325;stroke:#24420E;stroke-width:0.16;" d="M303.3,190.3c2.4-3.8,3.1-14.1,2.6-15.6
					C300.5,182.5,300.7,189.8,303.3,190.3z M307.8,185.4c3.3-2.8,6.9-12.4,6.8-13.9C307.3,177,305.4,184.1,307.8,185.4z
					 M295.7,219.9c0.1,0.7-0.7-6.5-7.5-14.6C288.5,217.1,292.9,221.6,295.7,219.9z M320.2,288.5c-4.6-3.6-17.5-5.4-19.3-4.7
					C310.3,292.1,319.5,292.2,320.2,288.5z M329.2,292.7c-3.4,1.3-7.8-7.5-5.7-20.7C325.7,283.2,328.2,292.1,329.2,292.7z
					 M339.2,301.6c1.6,3.3-5,9.2-16.3,9C331.8,306.8,338.8,302.8,339.2,301.6z M344.7,298.1c3.6-1.8,0.8-12.4-10.5-21.1
					C340.7,287.5,345.1,296.7,344.7,298.1z"/>
				<path style="fill:#406325;stroke:#24420E;stroke-width:0.16;" d="M340.9,298.1c3.2-2.1-0.5-11.6-11.9-18.1
					C336.1,289,341.1,296.8,340.9,298.1L340.9,298.1z M308.8,273.3c2.8,0.2,4.5-7.4,0.4-16.7C309.7,265.4,309.5,272.6,308.8,273.3z
					 M298.5,212c2.2,3.1,10.5-1,15.6-12.7C306.5,206.7,299.7,212.1,298.5,212z"/>
				<path style="fill:#406325;stroke:#24420E;stroke-width:0.16;" d="M299.1,207.5c2.8,2.5,10.2-3.4,13-16
					C306,200.5,300.4,207.3,299.1,207.5z M319.9,286.7c3.6-0.9,3-11-5.4-21C318.2,276.4,320.5,285.5,319.9,286.7z M298.3,257.6
					c1-3.4-6.2-7.5-17.1-5C290.4,254.3,297.7,256.6,298.3,257.6z M296.8,249.9c2.2,1.5,6.9-3.7,7.7-13.3
					C301,243.9,297.7,249.6,296.8,249.9z M335.2,296.8c1.9,3.9-6,10.9-19.5,10.8C326.4,303,334.7,298.2,335.2,296.8z"/>
				<path style="fill:#406325;stroke:#24420E;stroke-width:0.16;" d="M299.5,261c-2-5-11.1-12.4-12.7-12.7
					C290.5,259.3,297.5,263.7,299.5,261z"/>
			</g>
			<g>
				<path style="fill:#67923D;stroke:#24420E;stroke-width:0.16;" d="M294.3,219.1c3.1-3.7,13.1-7.3,14.7-7.1
					C303,220.4,295.6,222.1,294.3,219.1z M313.1,281.2c-1.3,3.1-9.5,0.7-16.2-8.9C305,277.8,312.1,281.5,313.1,281.2z M294.8,238.8
					c-3.2,2.2-9.8-5.4-11-19.1C288.8,230.2,293.6,238.4,294.8,238.8z M301.1,266.2c-0.6,3-8,2.9-15.6-3.8
					C293.5,265.2,300.3,266.7,301.1,266.2L301.1,266.2z M294.1,246.3c-1.7,2.6-8.5-1-12.6-10.9C287.6,241.7,293.1,246.4,294.1,246.3
					z M296.1,208.2c-3.3,1.2-7.6-7.3-5.5-20C292.7,199,295.1,207.6,296.1,208.2z M299.5,196.4c-3.2,0.2-5.2-8.6-0.4-19.5
					C298.5,187.1,298.7,195.5,299.5,196.4z M303.3,190.2c-2.6-0.4-2.8-7.7,2.6-15.5C303.8,182.7,302.8,189.4,303.3,190.2z
					 M307.7,185.4c-2.4-1.3-0.5-8.3,6.8-13.9C310.4,178.4,307.5,184.4,307.7,185.4z"/>
				<path style="fill:#67923D;stroke:#24420E;stroke-width:0.16;" d="M295.7,219.9c-2.8,1.7-7.2-2.8-7.5-14.7
					C292,214.6,294.6,219.5,295.7,219.9z M320.1,288.6c-0.7,3.7-9.9,3.5-19.3-4.7C310.7,287.3,319,289.2,320.1,288.6z M314,281
					c-3-3.5-5.4-13.9-5.1-15.4C315.7,272.6,316.6,280.1,314,281z M301.3,261c-2.7-4.6-2.9-16.7-2.2-18.4
					C305.3,252.1,304.6,260.7,301.3,261z M299.4,261.1c-2.1,2.6-8.9-1.7-12.7-12.7C292.8,255.7,298.3,261,299.4,261.1z"/>
			</g>
			<g>
				<path style="fill:#406325;stroke:#24420E;stroke-width:0.16;" d="M294.3,219.2c1.2,2.9,8.6,1.2,14.6-7.1
					C299.9,217.5,296.4,219.9,294.3,219.2z M301.3,260.9c3.2-0.3,4-8.8-2.2-18.3C301.1,252.1,301.9,259.9,301.3,260.9z M314,280.9
					c2.6-0.9,1.7-8.4-5-15.3C312.3,273.4,314.4,280,314,280.9z"/>
				<path style="fill:#406325;stroke:#24420E;stroke-width:0.16;" d="M295.7,233.4c1.5-6.7-1.3-18.1-3.2-20.4
					C288.9,225.3,292.3,234.2,295.7,233.4z"/>
			</g>
			<path style="fill:#67923D;stroke:#24420E;stroke-width:0.16;" d="M295.4,235c-4.4,1.1-6.5-9.6-3.1-21.7
				C293.2,224.2,294.5,234.3,295.4,235z"/>
			<path style="fill:#67923D;stroke:#24420E;stroke-width:0.16;" d="M294.5,235c-0.4-6,5.2-18.5,6.7-19.8
				C302.7,227.9,297.9,236.3,294.5,235z"/>
			<path style="fill:#406325;stroke:#24420E;stroke-width:0.16;" d="M294.6,234.9c3.3,1.3,8.1-7,6.6-19.6
				C298.6,225.8,295.7,234.2,294.6,234.9z"/>
			<path style="fill:#67923D;stroke:#24420E;stroke-width:0.16;" d="M295.6,242.6c0-6.1,6.4-17.8,7.9-18.9
				C304.1,236.6,298.8,244.4,295.6,242.6z"/>
			<path style="fill:#406325;stroke:#24420E;stroke-width:0.16;" d="M295.7,242.7c3.2,1.8,8.5-5.9,7.9-18.8
				C300.2,234.2,296.7,242.2,295.7,242.7z"/>
		</g>
		<g>
			<ellipse style="fill:#BA1F3E;stroke:#511124;stroke-width:0.19;" cx="297.6" cy="201" rx="0.8" ry="0.9"/>
			<ellipse style="fill:#BA1F3E;stroke:#511124;stroke-width:0.19;" cx="303.9" cy="196.1" rx="0.8" ry="0.9"/>
			<ellipse style="fill:#BA1F3E;stroke:#511124;stroke-width:0.19;" cx="301.2" cy="193.4" rx="0.8" ry="0.9"/>
			<ellipse style="fill:#BA1F3E;stroke:#511124;stroke-width:0.22;" cx="294.4" cy="250.5" rx="1" ry="1"/>
			<ellipse style="fill:#BA1F3E;stroke:#511124;stroke-width:0.22;" cx="296.3" cy="237.7" rx="1" ry="1"/>
			<ellipse style="fill:#BA1F3E;stroke:#511124;stroke-width:0.22;" cx="306.2" cy="267.6" rx="1" ry="1"/>
			<ellipse style="fill:#BA1F3E;stroke:#511124;stroke-width:0.22;" cx="301.8" cy="269.1" rx="1" ry="1"/>
			<ellipse style="fill:#BA1F3E;stroke:#511124;stroke-width:0.22;" cx="335" cy="294.1" rx="1" ry="1"/>
			<ellipse style="fill:#BA1F3E;stroke:#511124;stroke-width:0.22;" cx="337.2" cy="299.8" rx="1" ry="1"/>
		</g>
	</g>
	<g>
		<g>
			<path style="fill:none;stroke:#24420E;stroke-width:0.44;" d="M420.9,207.2c0.5,0.5,0.9,0.6,1.7,1.5 M417.6,193.5
				c0-1.1-0.5-2.9-0.7-4 M419.5,191.9c0,1.6-0.2,3-0.8,4.4 M415.6,195.9c1.3,1.3,2.6,2.5,3.9,3.1 M422.4,200
				c0.1,1.6-0.1,3.2-0.5,4.8 M422.1,206l1-1.8 M421.7,213.9c1.1,0.2,2.1,1.6,2.6,2.8 M424.7,215.7l1.2-1.8 M427.2,238.5
				c-0.5,1-1.2,1.9-1.8,2.8 M422.4,241.3c0.6,1.2,1.2,2.4,1.9,3.2 M426.2,249.2c-0.9,1.3-2,2.4-3.3,3.2 M423,256
				c-0.8,0.6-1.8,2.4-2.8,3.8 M426.5,243.6l-1.6,0.7 M423.9,238.3l0.9,0.9 M417.9,269.1c-0.6-0.1-1.1,0-1.6,0.1 M414.8,267.6
				l0.5,1.3 M409.4,273c-0.2,1.5-0.1,3,0.1,4.5 M412.8,270.3l0.8,1.8 M416.5,272l-1.9,0.3 M391.4,292.5l-0.7,1.4 M399.7,290.7
				c-1.1,0.2-2.1,0-3.1-0.2 M392.5,295.3c-0.7-0.3-1.5-0.6-2.2-0.8 M379.2,296.7c-0.7,0.6-1.5,2-2.3,3.3 M376.5,296.3
				c-1.8,1-2.4,3-3.3,4.6 M375.3,303.3c-1.4-0.5-2.7-1-4-1.6 M383.9,301.1c-1.7-1-3.6-0.9-5.4-1.2 M386.6,299.6
				c-2.7-0.6-5.3-0.5-7.7-0.1 M384.7,297.4l-1.1-0.5 M379.5,301.4l-1.7-1 M421.2,261c-0.9,0.7-1.9,1.8-2.8,3.1 M419.8,200.4
				l-1.6-0.6"/>
		</g>
		<g>
			<path style="fill:#406325;stroke:#24420E;stroke-width:0.16;" d="M355.8,307.9c0.6-1,1.6-1.6,2.5-2.1c5.8-3.2,11.5-4.7,18.1-5.8
				c1.5-0.3,3-1.8,4.6-2.6c3.7-1.9,7.9-2.6,11.5-4.6c0.6-0.3,1.1-0.7,1.6-1.2c1.4-1.8,4-2.3,5.7-4c6.2-6.3,12.9-12.1,16.3-20.4
				c4.2-10.2,9.4-20.6,8.7-32.2c-0.5-7.3,0.6-14.7-1.1-21.6c-2.5-10.3-5.7-20.5-11.6-29l1,0.7c5.9,8.5,9.1,18.7,11.6,29
				c1.7,7,0.7,14.3,1.1,21.6c0.7,11.5-4.5,22-8.7,32.2c-3.5,8.3-10.1,14.1-16.3,20.4c-1.6,1.6-4.2,2.2-5.7,4c-0.5,0.5-1,0.9-1.6,1.2
				c-3.6,1.9-7.8,2.7-11.5,4.5c-1.5,0.8-3.1,2.3-4.6,2.5c-6.5,1.1-12.3,2.6-18.1,5.8c-1,0.5-1.8,1.2-2.5,2.1L355.8,307.9"/>
			<g>
				<path style="fill:#406325;stroke:#24420E;stroke-width:0.16;" d="M415.2,267.7c2.1-5.9,0-19.9-1.1-21.6
					C409.1,258.4,411.6,268.1,415.2,267.7z"/>
				<path style="fill:#406325;stroke:#24420E;stroke-width:0.16;" d="M409.9,273.3c1.7-4.5,0.5-15.5-0.4-16.8
					C405.4,265.9,407.1,273.5,409.9,273.3z M422.5,214c-2.5-4.9-12.7-11.5-14.4-11.7C412.7,213,420.5,216.9,422.5,214z"/>
				<path style="fill:#406325;stroke:#24420E;stroke-width:0.16;" d="M421.3,207.6c-1.3-4.9-9.3-12.8-10.9-13.4
					C412.8,204.7,419,209.7,421.3,207.6z M424.9,219.5c-2.7-3.2-11.4-6.3-12.8-6.2C417.4,220.6,423.8,222.1,424.9,219.5z
					 M422.8,256.6c4.6,0.8,14.2-3.3,15.3-4.5C428.4,249.9,421.9,253.6,422.8,256.6z M422.7,252.1c0-4.5-4.8-13.5-6-14.3
					C416.3,247.4,420.3,253.3,422.7,252.1z"/>
				<path style="fill:#406325;stroke:#24420E;stroke-width:0.16;" d="M423,241.2c0-6.1-6.4-17.8-7.9-18.9
					C414.4,235.2,419.8,242.9,423,241.2z M383.3,301.4c3.4,4.4,14.7,8.9,16.6,8.7C393.3,300.3,384.8,298,383.3,301.4L383.3,301.4z"
					/>
			</g>
			<g>
				<path style="fill:#67923D;stroke:#24420E;stroke-width:0.16;" d="M415.2,267.5c-3.6,0.4-6.1-9.2-1-21.4
					C413.8,257.5,414.3,266.6,415.2,267.5z M375.1,302.5c5.3,0.3,15.5,7.4,16.4,9.1C380.2,311.7,373.5,305.7,375.1,302.5z
					 M375.1,296.1c1.6-6.4,11.2-17,13.1-17.7C385.6,292.1,378,298.8,375.1,296.1z M391.1,292.7c-0.7-6.3,4.3-19.4,5.7-20.8
					C399,285.1,394.5,294,391.1,292.7z M407.2,281.1c3.4-4.4,14.5-9.1,16.3-8.9C416.8,281.9,408.6,284.3,407.2,281.1z M426.5,238.5
					c0.7-5.1,7.3-14.3,8.7-15.1C434.3,234.2,429,240.2,426.5,238.5z"/>
				<path style="fill:#67923D;stroke:#24420E;stroke-width:0.16;" d="M417.8,268.9c4.4-3.4,16.6-5,18.3-4.4
					C427.2,272.3,418.4,272.4,417.8,268.9z M425.5,249.3c2.3-4.8,11.7-11.3,13.3-11.5C434.4,248.2,427.3,252,425.5,249.3z
					 M424.4,212.9c-0.1-6.1,6-18.2,7.5-19.4C432.7,206.4,427.5,214.4,424.4,212.9z M419.2,192.1c-1.7-4.2-0.8-14.7-0.1-16.1
					C423.3,184.9,421.8,192.2,419.2,192.1z M416,190.4c-4-3.7-8-15.8-7.8-17.7C417,180.1,419,189,416,190.4z"/>
				<path style="fill:#67923D;stroke:#24420E;stroke-width:0.16;" d="M424.7,218c-0.2,0.7,2.2-6.2,10.7-12.2
					C432.4,217.2,427.1,220.4,424.7,218z M399.1,290c5.2-4.1,19.9-6.1,21.9-5.4C410.4,294,399.9,294.2,399.1,290z M409.9,273.3
					c-2.8,0.2-4.5-7.4-0.4-16.7C409,265.3,409.2,272.5,409.9,273.3z M422.5,214c-2,2.9-9.7-1-14.3-11.7
					C415.2,209.2,421.4,214.1,422.5,214z M421.2,207.6c-2.3,2.1-8.5-2.9-10.8-13.3C415.5,201.8,420.2,207.4,421.2,207.6z
					 M424.9,219.6c-1,2.5-7.5,1.1-12.7-6.2C420,218.2,423.1,220.2,424.9,219.6z M422.9,256.6c-0.9-3,5.5-6.7,15.2-4.4
					C429.9,253.7,423.4,255.7,422.9,256.6z M422.6,252.1c-2.4,1.2-6.3-4.7-5.9-14.3C419.2,245.6,421.8,251.7,422.6,252.1z"/>
				<path style="fill:#67923D;stroke:#24420E;stroke-width:0.16;" d="M422.9,241.3c-3.2,1.8-8.5-5.9-7.9-18.8
					C418.4,232.7,421.8,240.8,422.9,241.3z M383.4,301.3c1.5-3.3,9.9-1.1,16.5,8.7C391.6,304.6,384.5,301,383.4,301.3L383.4,301.3z"
					/>
			</g>
			<g>
				<path style="fill:#406325;stroke:#24420E;stroke-width:0.16;" d="M391.2,292.7c3.4,1.3,7.8-7.5,5.7-20.7
					C394.7,283.1,392.2,292,391.2,292.7z"/>
				<path style="fill:#406325;stroke:#24420E;stroke-width:0.16;" d="M398.9,288.5c3.3-5.3,4.2-19.6,3.4-21.6
					C394.9,277.8,395.3,288,398.9,288.5z M375.1,302.5c-1.6,3.3,5,9.2,16.3,9C382.5,307.6,375.5,303.7,375.1,302.5L375.1,302.5z
					 M375.2,296.1c2.8,2.7,10.4-4,13.1-17.7C382.2,288.3,376.5,295.8,375.2,296.1L375.2,296.1z M407.3,281.1
					c1.3,3.1,9.5,0.7,16.2-8.9C415.3,277.7,408.3,281.4,407.3,281.1z M426.6,238.5c2.5,1.7,7.8-4.2,8.7-15
					C431.3,231.8,427.5,238.2,426.6,238.5z M417.8,269c0.7,3.5,9.3,3.3,18.2-4.4C426.7,267.7,418.8,269.5,417.8,269z M425.6,249.3
					c1.8,2.7,8.9-1.1,13.2-11.5C432.4,244.5,426.6,249.3,425.6,249.3z M424.4,212.8c3.2,1.6,8.3-6.4,7.4-19.3
					C428.8,204,425.5,212.3,424.4,212.8z M419.2,192.1c2.7,0.1,4.1-7.2-0.1-16C419.8,184.5,419.8,191.4,419.2,192.1z M416,190.3
					c3-1.4,1-10.2-7.8-17.6C413.1,181.6,416.4,189.2,416,190.3z M424.8,218.1c2.4,2.4,7.6-0.8,10.6-12.3
					C429.5,213.9,425.9,217.9,424.8,218.1z M399.2,290c0.8,4.2,11.2,4,21.8-5.4C409.8,288.5,400.4,290.7,399.2,290z"/>
				<path style="fill:#406325;stroke:#24420E;stroke-width:0.16;" d="M404.4,283.8c2.5-3.9,3.2-14.6,2.7-16.1
					C401.4,275.8,401.7,283.4,404.4,283.8z M419.1,260.9c2.7-4.6,2.9-16.7,2.2-18.4C415,252,415.8,260.6,419.1,260.9z"/>
			</g>
			<g>
				<path style="fill:#67923D;stroke:#24420E;stroke-width:0.16;" d="M398.8,288.4c-3.6-0.5-4-10.6,3.4-21.5
					C399.5,278,398.2,287.3,398.8,288.4z M425.2,233.8c-0.7-6.2,3-16.1,5-18C432.1,227.3,428.2,234.9,425.2,233.8z M404.3,283.8
					c-2.7-0.4-2.9-8,2.7-16C404.9,276,403.8,282.9,404.3,283.8z M421.9,200.4c-1.6-4.7,0-16,0.9-17.4
					C426.7,192.8,424.8,200.6,421.9,200.4z M378.3,296.5c1.9-6.5,12.1-16.9,14.1-17.5C389.1,292.9,381.1,299.4,378.3,296.5z
					 M419.2,263.2c2-5,11.1-12.4,12.7-12.7C428.2,261.5,421.2,265.9,419.2,263.2z M419.1,260.8c-3.2-0.3-4-8.8,2.2-18.3
					C419.3,252,418.5,259.9,419.1,260.8z"/>
			</g>
			<path style="fill:#406325;stroke:#24420E;stroke-width:0.16;" d="M425.2,235.2c3.9,1.5,6.8-7.9,4.9-19.1
				C428.4,225.8,426.2,234.7,425.2,235.2z"/>
			<path style="fill:#406325;stroke:#24420E;stroke-width:0.16;" d="M425.8,234.9c0.4-6-5.2-18.5-6.7-19.8
				C417.6,227.8,422.5,236.2,425.8,234.9z M421.9,200.3c2.9,0.3,4.9-7.5,0.9-17.4C423.1,192.1,422.6,199.6,421.9,200.3z
				 M378.4,296.4c2.8,2.9,10.8-3.5,14-17.5C385.8,288.8,379.7,296.2,378.4,296.4z M419.4,263.2c2.1,2.6,8.9-1.7,12.7-12.7
				C425.9,257.8,420.4,263.2,419.4,263.2z"/>
			<path style="fill:#67923D;stroke:#24420E;stroke-width:0.16;" d="M425.7,234.8c-3.3,1.3-8.1-7-6.6-19.6
				C421.7,225.8,424.7,234.2,425.7,234.8z"/>
		</g>
		<g>
			<ellipse style="fill:#BA1F3E;stroke:#511124;stroke-width:0.22;" cx="423.5" cy="203.9" rx="0.8" ry="0.9"/>
			<ellipse style="fill:#BA1F3E;stroke:#511124;stroke-width:0.22;" cx="426.3" cy="213.5" rx="0.8" ry="0.9"/>
			<ellipse style="fill:#BA1F3E;stroke:#511124;stroke-width:0.22;" cx="427.3" cy="243.4" rx="1" ry="1"/>
			<ellipse style="fill:#BA1F3E;stroke:#511124;stroke-width:0.22;" cx="423.5" cy="237.8" rx="1" ry="1"/>
			<ellipse style="fill:#BA1F3E;stroke:#511124;stroke-width:0.22;" cx="412.4" cy="269.7" rx="1" ry="1"/>
			<ellipse style="fill:#BA1F3E;stroke:#511124;stroke-width:0.22;" cx="417.2" cy="271.9" rx="1" ry="1"/>
			<ellipse style="fill:#BA1F3E;stroke:#511124;stroke-width:0.22;" cx="385.3" cy="297.8" rx="1" ry="1"/>
			<ellipse style="fill:#BA1F3E;stroke:#511124;stroke-width:0.22;" cx="380.1" cy="301.8" rx="1" ry="1"/>
			<ellipse style="fill:#BA1F3E;stroke:#511124;stroke-width:0.22;" cx="417.8" cy="199.4" rx="0.8" ry="0.9"/>
		</g>
	</g>
	<g id="b">
		<path style="fill:#8C959D;stroke:#485654;stroke-width:0.11;" d="M325.7,269c-0.1,0.9,0.6,1.9,1.6,1.7c0.3-0.1,0.5-0.5,0.1-0.4
			c-0.3,0.1-0.7-0.1-0.9-0.3c-0.4-0.4-0.5-1-0.3-1.5L325.7,269L325.7,269L325.7,269z"/>
		<path style="fill:#8C959D;" d="M327.9,270.7c-0.8,0.9-1.9,1.3-2.6,0.7c-0.4-0.4-0.6-1-0.4-1.5l-0.8,1c0,0.1,0.5,1,1.3,1.4
			c0.9,0.4,2.2-0.2,3-1.2c0.6-0.7,1.2-1.9,0.7-2.9c-0.3-0.6-0.9-1.1-1.5-1.4l-0.8,0.9c0.4-0.2,0.9-0.1,1.3,0.2
			C329.2,268.7,328.6,269.8,327.9,270.7z"/>
		<path style="fill:#485654;" d="M327.9,270.7c-0.2,0.3-0.5,0.6-0.9,0.8c-0.3,0.2-0.7,0.3-1.1,0.2c-0.2,0-0.4-0.1-0.5-0.2
			s-0.3-0.3-0.4-0.5s-0.2-0.4-0.2-0.6s0-0.4,0.1-0.6l0.1,0.1l-0.8,1v-0.1c0.2,0.4,0.5,0.8,0.8,1c0.3,0.3,0.7,0.5,1.1,0.5
			s0.8-0.2,1.2-0.4c0.4-0.2,0.7-0.5,1-0.8s0.5-0.7,0.7-1.1s0.3-0.8,0.3-1.3c0-0.2-0.1-0.4-0.2-0.6s-0.2-0.4-0.4-0.5
			c-0.3-0.3-0.6-0.6-1-0.7h0.1l-0.8,0.9l-0.1-0.1c0.2-0.1,0.4-0.1,0.6-0.1s0.4,0.1,0.5,0.2c0.3,0.2,0.6,0.5,0.7,0.9s0,0.8-0.2,1.2
			C328.4,270.1,328.2,270.4,327.9,270.7L327.9,270.7L327.9,270.7z M327.9,270.7c0.2-0.3,0.5-0.6,0.6-1s0.2-0.8,0.1-1.1
			c-0.1-0.4-0.4-0.7-0.7-0.8c-0.3-0.2-0.7-0.2-1-0.1l-0.1-0.1l0.8-0.9l0,0l0,0c0.6,0.3,1.1,0.7,1.5,1.3c0.1,0.2,0.2,0.4,0.2,0.7
			c0,0.5-0.1,0.9-0.3,1.4c-0.2,0.4-0.4,0.8-0.7,1.2c-0.3,0.3-0.6,0.6-1,0.9c-0.4,0.2-0.8,0.4-1.3,0.4s-0.9-0.2-1.2-0.5
			c-0.3-0.3-0.6-0.7-0.8-1.1l0,0l0,0l0.8-1l0.1,0.1c-0.1,0.2-0.1,0.4-0.1,0.6s0.1,0.4,0.2,0.5c0.1,0.2,0.2,0.3,0.4,0.4
			c0.1,0.1,0.3,0.2,0.5,0.2c0.4,0.1,0.8,0,1.1-0.2C327.4,271.2,327.7,271,327.9,270.7z"/>
		<path style="fill:#6C301E;stroke:#351710;stroke-width:0.22;stroke-linejoin:round;" d="M386.4,199.4L356.3,231
			c-2.3,2.4-28.5,29.1-30.8,31.5c-0.8,1.1-3.2,3.9-3.4,4.3c-1.6,1.8-3.3,4.3-5.4,6.4c-0.4,0.5-0.9,0.3-1.3,0.6
			c-1.4,1-2.7,2.1-3.8,3.5l-9.2,10.8c-0.6,0.7-0.8,1.1-0.4,1.5l5,7.1c0.9,1,2,1.5,2.4,0.6c2.4-4.4,8.2-11,10.4-16.3
			c1.3-3.1,3-8.8,4.2-10.2c1.5-1.7,5.4-6.2,8.9-10.2l0.7-0.8l0.7-0.8c17.6-19.2,38-42.4,52.9-58.8C386.6,199.6,387,200,386.4,199.4
			L386.4,199.4z"/>
		<path style="fill:#8C959D;stroke:#485654;stroke-width:0.11;" d="M323.9,262.5c-0.9,0-1.5-0.6-2.1-1.1c0.9,0.3,1.8,0.6,2.6,0.3
			L323.9,262.5z"/>
		<path style="fill:#B2B6BA;stroke:#485654;stroke-width:0.22;" d="M417.8,176.1l-23.8,21c-0.2,0.3-0.5,0.2-0.7,0l-2.2-1.9v-0.1
			c0-0.1,0-0.3-0.1-0.4l1.1-1.2c0.1-0.2,0.1-0.2-0.1-0.4l-0.4-0.5c-0.2-0.1-0.3,0-0.5,0.1l-1.1,1.2c-0.6,0-1,0.5-1,1.1
			c-14.4,15-26.9,28.4-41.2,43.1l-16.9,17.2c-0.6,0.8-3.2,2.3-5,3.5c-0.5,0.3-1,0.7-1.4,1.2l-1.4,4.3c-0.4,1-1.8,3.2-1.9,3.4
			c1.8,1.9,1.7,1.8,2.9,3c1.4-1.6,5-5.7,8.3-9.5c0.3-0.3,0.3-0.3,0.6-0.8c-0.5-0.8-1.2-1.6-2-2.2l-0.5-0.4c-0.1-0.1,0.2-0.4,0.3-0.5
			c19.9-20.5,41.2-43,58.7-61.3c0.3,0.1,0.5,0,0.8-0.1l2.1,2.6c0.5,0.5,0.9,0.5,1.3,0.3L417.8,176.1L417.8,176.1z"/>
		<path style="fill:#485654;" d="M323.2,264.3c0.1,0,0.3,0,0.4,0c0.2,0,0.3-0.1,0.4-0.1l0,0c0.3-1.3,0.7-2.5,1.1-3.8l0,0
			c-0.1-0.2-0.3-0.3-0.5-0.4c0.2,0,0.4,0.2,0.6,0.4l0,0l0,0l-0.5,1.9l-0.6,1.9l0,0l0,0c-0.1,0.1-0.3,0.1-0.5,0.1
			C323.5,264.4,323.4,264.3,323.2,264.3L323.2,264.3z"/>
		<ellipse style="fill:none;stroke:#485654;stroke-width:0.16;" cx="328.6" cy="262.5" rx="0.5" ry="0.5"/>
		<ellipse style="fill:none;stroke:#485654;stroke-width:0.16;" cx="325.8" cy="265.5" rx="0.5" ry="0.5"/>
		<path style="fill:#485654;" d="M330.7,257.9c-0.5-0.4-0.9-0.8-1.3-1.3C329.9,257,330.3,257.4,330.7,257.9z"/>
		<path style="fill:#8C959D;stroke:#485654;stroke-width:0.11;" d="M376.6,207.2l2.6,2.7l0.5-0.5l-2.6-2.7L376.6,207.2z"/>
	</g>
	<g>
		<path style="fill:#67923D;stroke:#24420E;stroke-width:0.16;" d="M325.4,292.3c-5.9-2.7-20.2-0.5-21.9,0.7
			C315.7,299.4,325.7,296.7,325.4,292.3z M392.2,294.9c5.9-2.7,20.2-0.5,21.9,0.7C401.9,302.1,392,299.4,392.2,294.9z"/>
		<path style="fill:#406325;stroke:#24420E;stroke-width:0.16;" d="M325.3,292.4c0.2,4.4-9.6,7.1-21.8,0.7
			C315,293.9,324.4,293.4,325.3,292.4z M392.3,295c-0.2,4.4,9.6,7.1,21.8,0.7C402.6,296.5,393.3,296.1,392.3,295z"/>
	</g>
	<g id="c">
		<path style="fill:#B2B6BA;stroke:#485654;stroke-width:0.22;" d="M381.4,288c-15.5-24.1-39-43.7-57.1-54.4c2.7-0.1,8.6,3.1,11,4.8
			c18,12.3,33.2,28.6,49.2,47.9c-0.8,0.9-1.7,1.7-2.6,2.4L381.4,288L381.4,288z"/>
		<path style="fill:#8C959D;" d="M382.9,287.8l-1.1,1.1c-17.3-23.7-41.3-46.4-57.5-55.3C346.9,244.7,365.9,267,382.9,287.8
			L382.9,287.8L382.9,287.8z"/>
		<path style="fill:#485654;" d="M382.9,287.8l-1.1,1.1c-4-5.5-8.2-10.7-12.7-15.8c-4.4-5.1-9-10-13.8-14.7
			c-4.8-4.7-9.7-9.2-14.9-13.4c-2.6-2.1-5.2-4.1-7.9-6c-2.7-1.9-5.5-3.7-8.3-5.3l0.1-0.2c5.9,2.9,11.5,6.6,16.8,10.6
			c5.3,4.1,10.3,8.5,15,13.3s9.3,9.7,13.7,14.8c8.7,10.3,4.4,5.1-0.1,0.1c-4.4-5.1-9-10-13.8-14.8c-4.8-4.7-9.8-9.2-15-13.3
			c-5.3-4.1-10.9-7.6-16.8-10.6l0.1-0.2c2.9,1.6,5.7,3.4,8.4,5.3c2.7,1.9,5.3,4,7.9,6.1c5.1,4.2,10.1,8.7,14.8,13.4
			c4.8,4.7,9.3,9.6,13.8,14.7c4.4,5.1,8.6,10.4,12.6,15.8l0,0L382.9,287.8C382.9,287.8,378.6,282.6,382.9,287.8z"/>
		<g>
			<path style="fill:#FAB81C;stroke:#6C301E;stroke-width:0.22;" d="M388.1,284.1c-1.4,0.4-2.7,1-3.9,1.8c-0.2,1.1-1.5,2.4-2.7,2.6
				l-0.5-0.6c0,0-0.1-0.1-0.1,0c-0.1,0.1-0.3,0.2-0.4,0.3c-0.5-0.1-1,0.2-1.2,0.8c-0.3,0.8,0.3,1.8,0.9,2.5c0.7,0.6,1,0.9,1.8,0.7
				c0.8-0.2,1.3-1,1.4-1.2c2.8,3.6,4.9,5.5,8.4,8.5c1.6,0,2.4-1,1.9-2.2c-0.2-0.4-0.6-0.7-1-0.5c0-0.1,0-0.2,0-0.4
				c1.8-1.8,2.6-4.1,0.7-7.9C391.8,285.1,389.9,284,388.1,284.1L388.1,284.1L388.1,284.1z M392.8,287.7c0.3,0.6,0.5,1.1,0.8,1.6
				c1.1,2.4,0.2,5.3-1.7,6.2c-0.1,0-0.1,0-0.2,0c0.3-0.6-0.6-1.7-1.1-1.3c0.2-0.6-0.5-1.6-1.1-1.4c0.3-0.6-0.4-1.5-1.1-1.2
				c0.3-0.6-0.2-1.5-0.9-1.3c0.2-0.7-0.3-1.4-1-1.3c0.1-0.6-0.1-0.9-0.4-1.2c0.8-0.7,1.8-1.7,2.6-2.2
				C390.7,284.7,392,286.5,392.8,287.7L392.8,287.7z"/>
			<path style="fill:#FAB81C;stroke:#6C301E;stroke-width:0.11;" d="M393.7,290.2c-0.4-0.2-0.6-0.6-0.4-0.9c0.1-0.3,0.5-0.4,0.9-0.1
				c0.4,0.2,0.6,0.6,0.5,0.9C394.5,290.3,394.1,290.4,393.7,290.2L393.7,290.2L393.7,290.2z"/>
			<path style="fill:#FAB81C;stroke:#6C301E;stroke-width:0.11;" d="M393.4,289.4c-0.4-0.2-0.6-0.6-0.4-0.9c0.1-0.3,0.5-0.4,0.9-0.1
				c0.4,0.2,0.6,0.6,0.5,0.9C394.3,289.5,393.8,289.6,393.4,289.4L393.4,289.4L393.4,289.4z"/>
			<path style="fill:#FAB81C;stroke:#6C301E;stroke-width:0.11;" d="M393,288.5c-0.4-0.2-0.6-0.6-0.4-0.9c0.1-0.3,0.5-0.4,0.9-0.1
				c0.4,0.2,0.6,0.6,0.5,0.9C393.8,288.6,393.4,288.7,393,288.5L393,288.5L393,288.5z"/>
			<path style="fill:#FAB81C;stroke:#6C301E;stroke-width:0.11;" d="M392.4,287.7c-0.4-0.2-0.6-0.6-0.4-0.9c0.1-0.3,0.5-0.4,0.9-0.1
				c0.4,0.2,0.6,0.6,0.5,0.9C393.2,287.8,392.8,287.9,392.4,287.7L392.4,287.7L392.4,287.7z"/>
			<path style="fill:#FAB81C;stroke:#6C301E;stroke-width:0.11;" d="M391.6,286.9c-0.4-0.2-0.6-0.6-0.4-0.9v-0.1
				c0.1,0.1,0.5,0.2,0.4-0.1c-0.1-0.1-0.1-0.2-0.1-0.1c0.1,0,0.3,0.1,0.5,0.2c0.4,0.2,0.6,0.6,0.5,0.9
				C392.4,287,392,287.1,391.6,286.9L391.6,286.9L391.6,286.9z"/>
		</g>
		<g>
			<path style="fill:#FAB81C;" d="M383.5,290.9c0.5-1.4,1.5-2.7,2.6-3 M383.6,291.1c0.9,0.2,2.5-1,2.8-2.1 M384.5,292.2
				c1.2,0.3,2.5-1,2.9-1.9 M385.6,293.5c1.5,0,2.4-1.1,2.8-1.9 M386.8,294.7c1.2,0,2.4-1.1,2.7-1.9 M387.9,295.8
				c1.4-0.1,2.3-0.7,2.7-1.7 M389.1,297c1.2,0.1,2.2-0.7,2.6-1.5 M390.4,298.1c1.2,0.1,2-0.7,2.4-1.5"/>
		</g>
		<g>
			<path style="fill:#6C301E;" d="M383.5,290.9c0.3-1,0.9-1.9,1.7-2.6c0.3-0.2,0.6-0.4,0.9-0.5c-0.3,0.1-0.6,0.3-0.9,0.5
				s-0.5,0.5-0.7,0.7C384.1,289.6,383.7,290.2,383.5,290.9L383.5,290.9z M383.6,291.1c0.3,0,0.6,0,0.9-0.2c0.6-0.3,1.1-0.6,1.5-1.1
				c0.2-0.2,0.4-0.5,0.5-0.8c-0.1,0.3-0.3,0.6-0.5,0.8c-0.4,0.5-0.9,0.9-1.5,1.1C384.2,291.1,383.9,291.1,383.6,291.1L383.6,291.1z
				 M384.5,292.2c0.3,0.1,0.6,0,0.9-0.1s0.6-0.2,0.8-0.4c0.5-0.4,0.9-0.9,1.2-1.4c-0.3,0.6-0.7,1.1-1.2,1.5
				c-0.2,0.2-0.5,0.3-0.8,0.4C385.1,292.3,384.8,292.3,384.5,292.2L384.5,292.2z M385.6,293.5c0.6,0,1.2-0.2,1.6-0.6
				c0.2-0.2,0.4-0.4,0.6-0.6s0.4-0.5,0.5-0.8c-0.2,0.6-0.6,1.1-1.1,1.4C386.8,293.4,386.2,293.6,385.6,293.5z M386.8,294.7
				c0.6,0,1.1-0.3,1.6-0.6c0.5-0.3,0.9-0.8,1.2-1.3c-0.1,0.3-0.3,0.5-0.5,0.8c-0.4,0.5-0.9,0.8-1.4,1
				C387.3,294.7,387.1,294.7,386.8,294.7L386.8,294.7z M387.9,295.8c0.3,0,0.5-0.1,0.8-0.2c0.5-0.1,1-0.4,1.4-0.8
				c0.2-0.2,0.4-0.4,0.5-0.7c-0.1,0.3-0.3,0.5-0.5,0.7s-0.4,0.4-0.7,0.5C389,295.7,388.4,295.9,387.9,295.8L387.9,295.8z M389.1,297
				c0.5,0,1-0.1,1.5-0.4c0.2-0.1,0.4-0.3,0.6-0.5s0.4-0.4,0.5-0.6c-0.1,0.3-0.2,0.5-0.4,0.7C390.7,296.8,389.9,297.1,389.1,297z
				 M390.4,298.1c0.2,0,0.5,0,0.7-0.1c0.5-0.1,0.9-0.4,1.2-0.8c0.2-0.2,0.3-0.4,0.4-0.6C392.4,297.7,391.4,298.3,390.4,298.1z"/>
		</g>
	</g>
	<g>
		<path style="fill:#406325;stroke:#24420E;stroke-width:0.16;" d="M306.9,192c5.4-1.9,14-12.4,14.6-14.3
			C309.8,181,304.5,189.2,306.9,192z M416.2,195.8c-1.3-5.6-10-15.2-11.7-15.9C406.6,192,413.5,198.1,416.2,195.8z"/>
		<path style="fill:#67923D;stroke:#24420E;stroke-width:0.16;" d="M306.9,192c-2.5-2.9,2.8-10.9,14.5-14.3
			C313.2,184.5,307,190.7,306.9,192L306.9,192z M416.2,195.8c-2.7,2.3-9.5-3.7-11.6-15.8C410,188.8,415.1,195.6,416.2,195.8z"/>
	</g>
	<g>
		
			<radialGradient id="SVGID_1_" cx="466.7534" cy="730.52" r="16.53" gradientTransform="matrix(0.75 0 0 0.8 -14.5 -337.8)" gradientUnits="userSpaceOnUse">
			<stop  offset="0.22" style="stop-color:#F9F0AA"/>
			<stop  offset="1" style="stop-color:#B07E09"/>
		</radialGradient>
		<path style="fill:url(#SVGID_1_);stroke:#999270;stroke-width:0.16;" d="M339.2,254.5c0,0-4.6,0.5-5.9-6.3c-1.4-7.3,4-8,4-8
			s6.1-0.6,9.9-0.7l1.7,14.4L339.2,254.5L339.2,254.5z"/>
		
			<radialGradient id="SVGID_2_" cx="470.8933" cy="735.25" r="10.91" gradientTransform="matrix(0.75 0 0 0.8 -14.5 -337.8)" gradientUnits="userSpaceOnUse">
			<stop  offset="0.22" style="stop-color:#F9F0AA"/>
			<stop  offset="1" style="stop-color:#B07E09"/>
		</radialGradient>
		<path style="fill:url(#SVGID_2_);stroke:#999270;stroke-width:0.16;" d="M339.8,252.3c0,0-3,0.6-3.6-4.4c-0.4-3.6,1.6-4.1,1.6-4.1
			l6.9,1.2v6.6L339.8,252.3z"/>
		
			<radialGradient id="SVGID_3_" cx="473.4433" cy="730.89" r="9.78" gradientTransform="matrix(0.75 0 0 0.8 -14.5 -337.8)" gradientUnits="userSpaceOnUse">
			<stop  offset="0.22" style="stop-color:#F9F0AA"/>
			<stop  offset="1" style="stop-color:#B07E09"/>
		</radialGradient>
		<path style="fill:url(#SVGID_3_);stroke:#999270;stroke-width:0.16;" d="M337.8,243.8c0,0,4.4-0.3,6.7-0.7l1,4.6l-5.3,0.4
			C340.2,248,339.8,243.9,337.8,243.8L337.8,243.8z"/>
		
			<radialGradient id="SVGID_4_" cx="477.7234" cy="729.31" r="17.35" gradientTransform="matrix(0.75 0 0 0.8 -14.5 -337.8)" gradientUnits="userSpaceOnUse">
			<stop  offset="0.22" style="stop-color:#F9F0AA"/>
			<stop  offset="1" style="stop-color:#B07E09"/>
		</radialGradient>
		<path style="fill:url(#SVGID_4_);stroke:#999270;stroke-width:0.16;" d="M336.9,240.3c0,0,5.7-1.5,6.4,5.2
			c0.2,1.7-0.7,5.7-3.5,6.8l10.4-1.2l-0.9-12l-3.5,0.3C345.7,239.4,338.3,239.7,336.9,240.3z"/>
		<path style="fill:#F9F0AA;stroke:#999270;stroke-width:0.16;" d="M339.2,254.5c0,0,38.9-2.8,42.9-2.6c11.8-6.9-0.1-34-10-49.2
			c1.1-3.4-22.4-11.1-33-10.4c-1.3,0.1-2.6,0.2-3.9,0.3c-5.8,0.7-5.8,8.6-3.5,13.5c2.3,4.8,22.7,44.1,8.4,48.2L339.2,254.5z"/>
		
			<linearGradient id="SVGID_5_" gradientUnits="userSpaceOnUse" x1="355.3654" y1="569.3137" x2="354.1321" y2="547.6646" gradientTransform="matrix(1 0 0 1 0 -362)">
			<stop  offset="0.22" style="stop-color:#B07E09;stop-opacity:0"/>
			<stop  offset="1" style="stop-color:#B07E09"/>
		</linearGradient>
		<path style="fill:url(#SVGID_5_);stroke:#999270;stroke-width:0.16;" d="M380.8,218.7c-2.5-5.6-5.5-10.9-8.8-16
			c1.1-3.4-22.4-11.1-33-10.4c-1.3,0.1-2.6,0.2-3.9,0.3c-5.8,0.7-5.8,8.6-3.5,13.5c0.7,1.5,3.2,6.4,5.9,12.6"/>
		
			<linearGradient id="SVGID_6_" gradientUnits="userSpaceOnUse" x1="362.313" y1="599.3541" x2="364.1862" y2="623.1022" gradientTransform="matrix(1 0 0 1 0 -362)">
			<stop  offset="0.22" style="stop-color:#B07E09;stop-opacity:0"/>
			<stop  offset="1" style="stop-color:#B07E09"/>
		</linearGradient>
		<path style="fill:url(#SVGID_6_);stroke:#999270;stroke-width:0.16;" d="M341.3,228c4.2,11.7,6.5,24.1-1.2,26.3l-0.9,0.2
			c0,0,38.9-2.8,42.9-2.6c6.4-3.7,5.8-13.4,2.4-24"/>
		
			<radialGradient id="SVGID_7_" cx="465.3134" cy="674.61" r="13.02" gradientTransform="matrix(0.75 0 0 0.8 -14.5 -337.8)" gradientUnits="userSpaceOnUse">
			<stop  offset="0.22" style="stop-color:#F9F0AA"/>
			<stop  offset="1" style="stop-color:#B07E09"/>
		</radialGradient>
		<path style="fill:url(#SVGID_7_);stroke:#999270;stroke-width:0.16;" d="M335.5,194.8c-2.8,0-3.5,2.8-3.5,4.7c0.1,4.7,3.5,5,3.5,5
			l4.5-0.3l2.1-9.7L335.5,194.8L335.5,194.8z"/>
		
			<linearGradient id="SVGID_8_" gradientUnits="userSpaceOnUse" x1="338.5787" y1="561.5836" x2="341.5976" y2="554.5369" gradientTransform="matrix(1 0 0 1 0 -362)">
			<stop  offset="0.22" style="stop-color:#F9F0AA"/>
			<stop  offset="1" style="stop-color:#B07E09"/>
		</linearGradient>
		<path style="fill:url(#SVGID_8_);stroke:#999270;stroke-width:0.16;" d="M335.5,194.8l6.6-0.4l0.7,7.3L337,202
			C337.1,202,338.9,196.2,335.5,194.8L335.5,194.8z"/>
		
			<linearGradient id="SVGID_9_" gradientUnits="userSpaceOnUse" x1="354.9285" y1="551.9208" x2="356.9942" y2="578.0965" gradientTransform="matrix(1 0 0 1 0 -362)">
			<stop  offset="0.22" style="stop-color:#F9F0AA"/>
			<stop  offset="1" style="stop-color:#B07E09"/>
		</linearGradient>
		<path style="fill:url(#SVGID_9_);stroke:#999270;stroke-width:0.16;" d="M372.1,202.6c5-0.9,5-8.1,1.5-10.9
			c-11.6-0.5-26.9-0.1-38,0.8c1.3,0,4.7,0.3,5.1,5.2c0.1,2.2-0.7,4.3-2.3,5.6c-0.8,0.7-1.9,1.1-2.9,1.2c0.2,0.1,1.6,0,2.7-0.1
			c0.5,0,1.9-0.2,2.3-0.3C356.3,201.9,372,202.6,372.1,202.6L372.1,202.6z"/>
		<g>
			<path style="fill:#B07E09;" d="M343.9,213.9c-0.1-0.3-0.2-0.6-0.5-0.6c-0.2,0-0.5,0-0.4-0.3c0.2-0.1,0.4,0,0.6,0
				c0.4,0,0.8-0.1,1.3-0.1c0.3,0.1,0.2,0.4-0.1,0.4c-0.3,0.1-0.1,0.5-0.1,0.6c0.3,0.8,0.7,1.7,1,2.5c0.1,0.2,0.3,0.5,0.5,0.5
				c0.3,0,0.6,0,0.8-0.1c0.2-0.2,0.2-0.5,0.1-0.8s0.4-0.2,0.4,0c0.1,0.3,0.2,0.7,0.3,1c0,0.2-0.2,0.1-0.3,0.1
				c-0.8,0.1-1.5,0.1-2.2,0.2c-0.2,0-0.6,0.2-0.7-0.1s0.4-0.1,0.5-0.4c0-0.3-0.2-0.5-0.2-0.7L343.9,213.9L343.9,213.9z M347.5,213.7
				c-0.1-0.3-0.2-0.6-0.5-0.6c-0.2,0-0.5,0-0.5-0.3c0.1-0.1,0.3,0,0.5-0.1c0.4,0,0.9-0.1,1.3-0.1c0.2,0,0.3,0.4,0,0.4
				s-0.3,0.3-0.2,0.5c0.4,0.9,0.7,1.8,1.1,2.7c0.1,0.2,0.2,0.4,0.4,0.5c0.2,0,0.5,0,0.5,0.3c0,0.2-0.3,0.1-0.5,0.1
				c-0.4,0-0.8,0-1.2,0.1c-0.2,0-0.4,0-0.4-0.2s0.4-0.1,0.5-0.3c0-0.3-0.2-0.5-0.2-0.7L347.5,213.7L347.5,213.7z M350.8,214.2
				c0.1,0.2,0.3,0,0.4,0.1c0.2,0,0.4-0.2,0.4-0.4c0-0.4-0.2-0.7-0.5-1c-0.3-0.2-0.6-0.2-0.9-0.1c0,0.1,0.1,0.2,0.1,0.4L350.8,214.2
				L350.8,214.2z M351.3,215.5c0.1,0.3,0.2,0.6,0.4,0.8c0.2,0.1,0.4,0.1,0.6,0.1s0.4-0.3,0.3-0.5c-0.1-0.5-0.4-1-0.9-1.2
				c-0.2,0-0.5,0-0.7,0c0,0.1,0.1,0.2,0.1,0.3L351.3,215.5L351.3,215.5z M349.8,213.6c-0.1-0.3-0.2-0.6-0.5-0.7
				c-0.2-0.1-0.5,0-0.5-0.3c0-0.2,0.4-0.1,0.6-0.1c0.6,0,1.3-0.2,2,0c0.5,0.1,1,0.6,1.1,1.3c0,0.3-0.2,0.5-0.4,0.7
				c0-0.1,0.3,0,0.4,0.1c0.5,0.2,0.8,0.5,1,0.9c0.1,0.3,0.3,0.7,0,1.1c-0.3,0.3-0.7,0.3-1.1,0.3c-0.6,0-1.1,0-1.7,0.1
				c-0.2,0-0.3-0.4-0.1-0.4c0.3,0,0.3-0.3,0.2-0.5L349.8,213.6L349.8,213.6z M355.4,212.1c0.2,0,0.3,0.3,0.3,0.4
				c0.1,0.2,0.2,0.4,0.3,0.7c-0.2,0.2-0.4-0.1-0.5-0.3s-0.3-0.4-0.5-0.4c-0.3,0-0.6,0-0.9,0.1c-0.1,0.1,0.1,0.3,0.1,0.5
				c0.1,0.4,0.3,0.7,0.4,1.1c0.2,0,0.5,0,0.6-0.2s-0.2-0.6,0.2-0.5c0.2,0.1,0.2,0.5,0.3,0.7c0.1,0.3,0.3,0.6,0.4,0.9
				c-0.2,0.2-0.4-0.1-0.5-0.3c-0.1-0.3-0.5-0.2-0.7-0.2s-0.1,0.1,0,0.2c0.2,0.4,0.3,0.8,0.5,1.2c0.2,0.3,0.5,0.2,0.8,0.2
				c0.2,0,0.5,0,0.7-0.3c0.2-0.2-0.2-0.6,0.1-0.7c0.3,0,0.3,0.3,0.3,0.5c0.1,0.2,0.1,0.4,0.2,0.7c0,0.2-0.2,0.1-0.3,0.1
				c-0.8,0.1-1.5,0.1-2.3,0.2c-0.2,0-0.6,0.2-0.7-0.2c0-0.2,0.5-0.1,0.4-0.4c-0.1-0.3-0.2-0.5-0.3-0.8c-0.3-0.7-0.5-1.4-0.8-2.1
				c-0.1-0.2-0.3-0.5-0.5-0.5s-0.5-0.1-0.4-0.3c0.3-0.1,0.5,0,0.8,0L355.4,212.1L355.4,212.1z M357.1,213.1
				c-0.1-0.3-0.2-0.6-0.5-0.7c-0.2-0.1-0.5,0-0.5-0.3c0.2-0.1,0.5,0,0.7-0.1c0.6,0,1.2-0.2,1.8,0c0.6,0.2,1.1,0.8,1.2,1.5
				c0,0.3-0.2,0.6-0.5,0.7c-0.2,0,0.2,0.1,0.2,0.2c0.5,0.2,0.8,0.7,1.1,1.2c0.1,0.2,0.4,0.6,0.4,0.2c0-0.4,0.5-0.1,0.4,0.2
				c0,0.3-0.3,0.5-0.5,0.5c-0.4,0-0.7-0.2-0.9-0.5c-0.3-0.4-0.5-1-1-1.3c-0.2-0.1-0.4-0.2-0.6-0.1c0,0.1,0.1,0.2,0.1,0.3
				c0.1,0.3,0.2,0.7,0.4,1c0.2,0.2,0.5,0.3,0.7,0.3c0.3,0.1,0.2,0.5-0.1,0.3c-0.4,0-0.9,0-1.3,0.1c-0.2,0.1-0.7,0-0.5-0.3
				c0.2,0,0.5-0.1,0.4-0.4c-0.2-0.7-0.5-1.4-0.8-2.1L357.1,213.1L357.1,213.1z M358.1,213.9c0.1,0.3,0.5,0.1,0.7,0.1
				c0.3-0.1,0.3-0.4,0.2-0.6c-0.1-0.4-0.3-0.8-0.7-1c-0.2,0-0.6-0.2-0.7,0.1C357.7,212.9,357.9,213.3,358.1,213.9L358.1,213.9
				L358.1,213.9z M363.6,215.2c0.1,0.2,0.2,0.5,0.4,0.5c0.2,0,0.5,0,0.5,0.3c0,0.2-0.3,0.1-0.5,0.1c-0.4,0-0.8,0-1.2,0.1
				c-0.2,0.1-0.4,0-0.4-0.3c0.1-0.2,0.5,0,0.5-0.3c-0.1-0.3-0.2-0.6-0.3-0.9l-0.9-2.3c-0.1-0.2-0.3-0.2-0.5-0.2s-0.5,0-0.5,0.3
				c-0.1,0.2,0.2,0.5,0,0.6c-0.2,0-0.3-0.2-0.3-0.4c-0.1-0.2-0.2-0.5-0.3-0.7c0-0.2,0.2-0.1,0.4-0.2l3.1-0.1c0.2,0,0.4,0.2,0.4,0.4
				c0.1,0.3,0.2,0.5,0.3,0.8c-0.1,0.3-0.4,0-0.4-0.2c-0.2-0.3-0.4-0.6-0.7-0.6c-0.2,0-0.5-0.1-0.6,0.1c0,0.2,0.1,0.4,0.2,0.5
				L363.6,215.2L363.6,215.2z M366.4,214.5c-0.2,0-0.1,0.2-0.1,0.3c0,0.2,0,0.5,0,0.7c0.1,0.2,0.4,0.2,0.6,0.2
				c0.2,0.1,0.1,0.4-0.1,0.3c-0.3,0-0.6-0.1-1,0c-0.2,0.1-0.5-0.1-0.4-0.3c0.2,0,0.3-0.1,0.4-0.3c0.1-0.3,0-0.7,0-1v-3
				c0.1-0.2,0.4,0,0.5,0.1c0.9,1.2,1.8,2.4,2.7,3.6c0.2,0.2,0.3,0.3,0.6,0.3c0.2,0,0.3,0.4,0,0.3c-0.4,0-0.8,0-1.2,0
				c-0.2,0-0.4,0.1-0.5,0c-0.2-0.1-0.1-0.3,0.1-0.3c0.3-0.1,0-0.4-0.1-0.5c-0.1-0.2-0.3-0.4-0.4-0.6c-0.1-0.1-0.3,0-0.4,0
				L366.4,214.5L366.4,214.5z M367.2,214.1c0.1,0,0-0.1-0.1-0.2l-1-1.3c0.1,0,0,0.1,0,0.2v1.3H367.2L367.2,214.1z M369.5,212.6
				c-0.1-0.3-0.3-0.7-0.6-0.8c-0.2,0-0.5-0.1-0.3-0.4c0.4,0,0.8,0,1.2,0c0.5,0,1.1,0,1.6,0.2c1.1,0.4,2,1.4,2.2,2.7
				c0.1,0.5-0.1,1-0.5,1.3c-0.5,0.4-1.2,0.3-1.9,0.3c-0.4,0-0.7,0-1,0.1c-0.2,0-0.3-0.4,0-0.4s0.3-0.3,0.2-0.5L369.5,212.6
				L369.5,212.6z M371,214.6c0.1,0.3,0.2,0.6,0.4,0.8c0.2,0.1,0.5,0.1,0.7,0.1c0.3,0,0.5-0.4,0.5-0.7c0-0.6-0.2-1.2-0.5-1.7
				c-0.3-0.6-0.8-1-1.4-1.1c-0.2,0-0.5-0.1-0.8,0c-0.1,0.1,0,0.2,0.1,0.3L371,214.6L371,214.6z M355.2,224.5
				c0.1,0.3,0.3,0.5,0.6,0.5c0.2,0,0.5,0,0.5,0.3c-0.1,0.2-0.4,0.1-0.6,0.1c-0.4,0-0.8,0-1.2,0.1c-0.2,0-0.4,0.1-0.6,0
				s-0.1-0.4,0.1-0.3c0.2,0,0.5-0.1,0.5-0.4c0-0.2-0.1-0.4-0.2-0.6l-0.9-2.2c-0.1-0.3-0.3-0.3-0.5-0.2c-0.2,0-0.5,0.1-0.5-0.2
				c0-0.2,0.4-0.2,0.5-0.3c0.2-0.1,0.5-0.2,0.7-0.3c0.2,0,0.2,0.1,0.3,0.3L355.2,224.5L355.2,224.5z M355.7,220.9c0.5,0,1,0.1,1.5,0
				c0.2,0,0.1-0.4,0.3-0.4c0.3,0,0.2,0.4,0.2,0.6c0,0.2-0.1,0.4-0.3,0.5h-0.1c-0.4,0-0.8,0-1.2,0c0.1,0.3,0.2,0.6,0.3,1
				c0-0.1,0.3-0.1,0.5-0.1c0.8,0,1.6,0.4,2,1.2c0.2,0.4,0.2,0.9,0,1.2c-0.3,0.4-0.8,0.4-1.2,0.4c-0.4,0-0.8-0.1-1-0.4
				c-0.1-0.2-0.1-0.5,0.2-0.5c0.2,0,0.5,0.2,0.5,0.5c0.1,0.2,0.4,0.1,0.6,0.1s0.4-0.2,0.4-0.4c0-0.4-0.1-0.8-0.3-1.1
				c-0.2-0.3-0.6-0.6-1-0.6c-0.2,0-0.4,0.1-0.6,0.1s-0.3-0.3-0.3-0.5c-0.2-0.5-0.3-1-0.5-1.5C355.6,221,355.7,220.9,355.7,220.9z
				 M360.9,221.8c-0.1-0.3-0.3-0.7-0.6-0.8c-0.2,0-0.5-0.1-0.3-0.3c0.4,0,0.8,0,1.3-0.1s1.1-0.1,1.6,0.1c1.1,0.4,2,1.5,2.2,2.7
				c0.1,0.5-0.1,1-0.5,1.2c-0.5,0.4-1.2,0.3-1.8,0.3c-0.3,0-0.7,0.1-1,0.1c-0.2,0-0.3-0.4,0-0.4s0.3-0.4,0.1-0.6L360.9,221.8
				L360.9,221.8z M362.4,223.7c0.1,0.3,0.2,0.6,0.4,0.8c0.2,0.1,0.5,0.1,0.7,0c0.3-0.1,0.5-0.4,0.5-0.8c0-0.6-0.2-1.2-0.5-1.7
				c-0.3-0.6-0.8-1-1.4-1.1c-0.2,0-0.5-0.1-0.7,0c-0.1,0.1,0,0.2,0.1,0.3L362.4,223.7z M367.2,220.3c0.2,0,0.3,0.2,0.3,0.4
				c0.1,0.2,0.2,0.4,0.3,0.7c-0.1,0.2-0.4,0-0.4-0.2c-0.1-0.2-0.3-0.4-0.5-0.4c-0.3,0-0.6,0-0.9,0c-0.2,0.1,0,0.3,0,0.4
				c0.1,0.4,0.3,0.7,0.4,1.1c0.2,0,0.4,0,0.6-0.1c0.1-0.2-0.2-0.6,0.2-0.5c0.2,0.1,0.2,0.5,0.3,0.7c0.1,0.3,0.3,0.6,0.4,0.9
				c-0.1,0.3-0.4,0-0.5-0.2c-0.1-0.3-0.4-0.3-0.6-0.3c-0.1,0-0.3,0-0.2,0.2c0.2,0.4,0.3,0.8,0.5,1.2c0.2,0.3,0.5,0.2,0.8,0.2
				c0.2,0,0.5,0,0.7-0.3c0.1-0.2-0.2-0.5,0.1-0.6c0.3-0.1,0.3,0.2,0.4,0.4s0.1,0.5,0.2,0.7c0,0.2-0.2,0.1-0.3,0.1
				c-0.8,0-1.5,0-2.3,0.1c-0.2,0-0.5,0.2-0.7-0.1c-0.1-0.3,0.4-0.2,0.4-0.4s-0.1-0.5-0.2-0.7c-0.3-0.8-0.6-1.6-0.9-2.3
				c-0.1-0.2-0.3-0.5-0.6-0.5c-0.2,0-0.4-0.1-0.3-0.3c0.3-0.1,0.5,0,0.8,0L367.2,220.3L367.2,220.3z M346.8,231.7
				c0.1,0.4,0.5,0.6,0.8,0.7c0.6,0.2,1.2,0.4,1.6,0.9c0.2,0.3,0.4,0.7,0.4,1.1c0,0.4-0.4,0.7-0.7,0.8c-0.4,0.1-0.9,0.1-1.3-0.1
				c-0.2-0.1-0.1,0.4-0.4,0.2c-0.2-0.1-0.1-0.4-0.2-0.6c-0.1-0.3-0.2-0.5-0.3-0.8c0-0.3,0.4-0.1,0.4,0.1c0.2,0.5,0.7,0.9,1.2,0.9
				c0.3,0,0.6-0.1,0.6-0.5s-0.3-0.8-0.6-0.9c-0.5-0.3-1-0.4-1.5-0.6c-0.4-0.3-0.7-0.8-0.7-1.3c0-0.4,0.3-0.6,0.6-0.7
				c0.4-0.1,0.8-0.2,1.2,0c0.2,0.1,0.3-0.2,0.5-0.1c0.1,0.2,0.1,0.4,0.1,0.5c0.1,0.2,0.2,0.4,0.2,0.7c-0.1,0.2-0.4,0-0.4-0.2
				c-0.2-0.3-0.4-0.6-0.7-0.6c-0.3,0-0.6,0-0.8,0.2C346.7,231.4,346.7,231.6,346.8,231.7L346.8,231.7z M351.8,230.4
				c0.2,0,0.3,0.2,0.3,0.4c0.1,0.2,0.1,0.4,0.2,0.6c-0.1,0.2-0.4,0-0.4-0.2c-0.1-0.2-0.3-0.5-0.5-0.4c-0.3,0-0.6,0-0.9,0.1
				c-0.2,0.1,0,0.3,0,0.5l0.3,1.1c0.2,0,0.4,0,0.6-0.1c0.1-0.2-0.1-0.5,0.1-0.6c0.3,0,0.3,0.4,0.3,0.5c0.1,0.4,0.2,0.7,0.3,1
				c-0.1,0.3-0.4,0-0.4-0.2c-0.1-0.3-0.4-0.3-0.6-0.3c-0.1,0-0.3,0-0.2,0.2c0.1,0.4,0.2,0.8,0.4,1.2c0.1,0.2,0.3,0.3,0.5,0.3
				c0.3,0,0.6,0,0.9-0.2c0.2-0.2,0-0.5,0.1-0.7c0.2-0.2,0.4,0,0.4,0.3s0.1,0.5,0.2,0.8c0,0.2-0.2,0.1-0.3,0.1
				c-0.8,0.1-1.5,0.1-2.3,0.2c-0.2,0-0.5,0.2-0.6-0.1s0.3-0.2,0.4-0.4s-0.1-0.5-0.1-0.7c-0.2-0.8-0.5-1.6-0.8-2.4
				c-0.1-0.2-0.2-0.5-0.5-0.5c-0.2,0-0.5-0.1-0.3-0.3c0.3-0.1,0.5,0,0.8-0.1L351.8,230.4L351.8,230.4z M354.9,233.7
				c0.1,0.2,0.2,0.5,0.5,0.6c0.2,0.1,0.5-0.1,0.5,0.2s-0.4,0.1-0.5,0.2c-0.4,0-0.8,0-1.1,0.1c-0.2,0-0.4,0.1-0.5-0.1
				c0-0.3,0.3-0.1,0.4-0.3s0-0.4-0.1-0.6c-0.3-0.8-0.5-1.6-0.8-2.4c-0.1-0.2-0.2-0.5-0.5-0.6c-0.2,0-0.5,0-0.4-0.3
				c0.1-0.1,0.4,0,0.5-0.1c0.6,0,1.1-0.2,1.6-0.1c0.6,0,1.1,0.4,1.3,1c0.1,0.3,0.2,0.7-0.1,1c-0.3,0.4-0.8,0.4-1.2,0.5
				c-0.2,0,0,0.2,0,0.2L354.9,233.7L354.9,233.7z M354.5,232.4c0.2,0,0.3,0,0.5-0.1s0.4-0.3,0.3-0.6c0-0.3-0.2-0.7-0.4-0.9
				c-0.2-0.2-0.6-0.2-0.8-0.1c-0.1,0.1,0,0.3,0,0.4L354.5,232.4L354.5,232.4z M359.1,233.5c0.1,0.2,0.1,0.5,0.4,0.5
				c0.2,0,0.5,0,0.5,0.3c0,0.2-0.3,0.1-0.5,0.1c-0.4,0-0.8,0-1.2,0.1c-0.2,0.1-0.4,0-0.4-0.2c0.1-0.2,0.5,0,0.5-0.3
				s-0.2-0.6-0.2-0.9l-0.7-2.3c-0.1-0.2-0.3-0.2-0.5-0.2s-0.5,0-0.5,0.3c-0.1,0.2,0,0.4,0,0.6c-0.2,0.1-0.4-0.1-0.3-0.3
				c-0.1-0.3-0.1-0.5-0.3-0.8c0-0.2,0.2-0.2,0.4-0.2l3.1-0.2c0.2,0,0.4,0.2,0.4,0.4c0.1,0.3,0.2,0.5,0.3,0.8c0,0.2-0.4,0.1-0.4-0.1
				c-0.1-0.3-0.3-0.6-0.7-0.6c-0.2,0-0.5,0-0.6,0.1c0,0.2,0.1,0.3,0.1,0.5L359.1,233.5L359.1,233.5z M360.7,230.9
				c-0.1-0.2-0.2-0.6-0.4-0.6c-0.2,0-0.5,0-0.5-0.3c0.1-0.2,0.3-0.1,0.5-0.1c0.5,0,0.9,0,1.3-0.1c0.2-0.1,0.4,0.3,0.1,0.3
				c-0.2,0-0.4,0.2-0.3,0.4c0.1,0.4,0.2,0.8,0.4,1.3c0.2,0.6,0.4,1.2,0.5,1.8c0.1,0.2,0.2,0.3,0.4,0.4c0.2,0,0.5,0,0.4,0.3
				c-0.1,0.1-0.4,0-0.5,0.1c-0.4,0-0.8,0-1.2,0.1c-0.2,0.1-0.4-0.1-0.3-0.3c0.2-0.1,0.5,0,0.5-0.3c-0.1-0.3-0.2-0.6-0.3-1
				L360.7,230.9z M365,229.6c0.2,0,0.2,0.2,0.3,0.4c0.1,0.2,0.2,0.4,0.2,0.6c-0.1,0.2-0.4,0-0.4-0.2c-0.1-0.2-0.2-0.5-0.5-0.4
				c-0.3,0-0.6,0-0.9,0c-0.2,0.1,0,0.3,0,0.5c0.1,0.4,0.2,0.7,0.3,1.1c0.2,0,0.4,0,0.6-0.1c0.1-0.2-0.1-0.5,0.1-0.6
				c0.3,0,0.3,0.4,0.3,0.6c0.1,0.4,0.2,0.7,0.3,1c-0.1,0.2-0.4,0-0.4-0.2c-0.1-0.3-0.3-0.4-0.6-0.3c-0.1,0-0.4-0.1-0.3,0.1
				c0.1,0.4,0.2,0.8,0.4,1.2c0.1,0.2,0.3,0.3,0.5,0.3c0.3,0,0.6,0,0.9-0.2c0.2-0.2,0-0.5,0.1-0.7c0.2-0.2,0.4,0.1,0.4,0.3
				c0,0.3,0.1,0.5,0.2,0.8c0,0.2-0.2,0.1-0.3,0.1c-0.8,0-1.6,0.1-2.3,0.1c-0.2,0-0.5,0.2-0.6-0.1c-0.2-0.3,0.3-0.2,0.4-0.4
				s0-0.4-0.1-0.6l-0.7-2.4c-0.1-0.2-0.2-0.6-0.5-0.6c-0.2,0-0.5-0.1-0.3-0.3c0.3-0.1,0.5,0,0.8,0L365,229.6L365,229.6z
				 M366.5,230.4c-0.1-0.3-0.3-0.5-0.5-0.5c-0.3,0.1-0.4-0.5,0-0.3c0.4,0,0.8-0.1,1.1,0c0.2,0.2,0.3,0.5,0.5,0.7l1.6,2.3
				c-0.1,0,0-0.1,0-0.2l0.3-2.8c0.2-0.2,0.5-0.1,0.8-0.2c0.2,0,0.7-0.1,0.6,0.3c-0.3,0-0.6,0.2-0.4,0.5c0.3,1,0.6,1.9,0.8,2.9
				c0.1,0.3,0.4,0.4,0.6,0.4s0.2,0.5,0,0.3c-0.4,0-0.9,0-1.3,0.1c-0.2,0.1-0.6,0-0.5-0.3c0.2,0,0.6-0.1,0.4-0.5
				c-0.2-0.8-0.5-1.7-0.7-2.5c0.1,0.1,0,0.2,0,0.3c-0.1,0.8-0.2,1.6-0.2,2.4c0,0.2,0,0.5-0.1,0.6c-0.2,0.1-0.3-0.1-0.4-0.2l-2.1-3
				c0.1,0,0.1,0.2,0.1,0.2c0.2,0.8,0.4,1.5,0.7,2.3c0.1,0.3,0.4,0.4,0.6,0.4c0.3,0.2,0.1,0.4-0.2,0.3c-0.4-0.1-0.8,0-1.1,0.1
				c-0.2,0-0.2-0.4,0-0.4c0.4,0,0.2-0.4,0.2-0.6L366.5,230.4L366.5,230.4L366.5,230.4z M373,231c0,0.2,0.3,0.1,0.4,0.1
				c0.2,0,0.5-0.1,0.5-0.4c0-0.4-0.1-0.7-0.4-1c-0.2-0.2-0.6-0.2-0.9-0.2c0,0.1,0,0.2,0.1,0.4L373,231L373,231z M373.4,232.3
				c0.1,0.3,0.1,0.6,0.3,0.8c0.2,0.1,0.4,0.1,0.6,0.1s0.4-0.2,0.3-0.4c0-0.5-0.2-1-0.7-1.2c-0.3-0.1-0.5-0.1-0.8-0.1
				c-0.1,0.1,0,0.2,0,0.3L373.4,232.3L373.4,232.3z M372.1,230.4c-0.1-0.3-0.2-0.6-0.4-0.8c-0.2-0.1-0.5,0-0.5-0.3
				c0.1-0.2,0.4-0.1,0.6-0.1c0.7,0,1.4-0.2,2,0c0.5,0.1,1,0.7,1,1.2c0,0.3-0.2,0.6-0.5,0.7c0-0.1,0.3,0.1,0.4,0.1
				c0.4,0.2,0.8,0.4,0.9,0.9c0.1,0.3,0.2,0.8,0,1.1c-0.3,0.3-0.7,0.3-1.1,0.4c-0.6,0-1.2,0-1.8,0.1c-0.2,0-0.3-0.4,0-0.4
				s0.3-0.3,0.2-0.5L372.1,230.4L372.1,230.4z M375.8,230.2c-0.1-0.3-0.2-0.6-0.4-0.8c-0.2-0.1-0.5,0-0.5-0.3c0.1-0.2,0.5,0,0.7-0.1
				c0.5,0,1-0.1,1.5,0c0.6,0.1,1.2,0.5,1.3,1.2c0.1,0.3,0,0.8-0.3,1c-0.1,0.1-0.4,0.2-0.3,0.2c0.5,0.2,0.8,0.6,1.1,1
				c0.1,0.2,0.2,0.5,0.4,0.6c0.2,0.2,0.2-0.1,0.3-0.3c0.3-0.1,0.4,0.3,0.3,0.5c-0.1,0.3-0.5,0.4-0.8,0.3c-0.3-0.1-0.4-0.3-0.6-0.5
				c-0.3-0.4-0.4-0.9-0.8-1.3c-0.2-0.2-0.4-0.2-0.6-0.2c-0.1,0.1,0,0.2,0,0.3c0.1,0.3,0.2,0.6,0.3,0.9c0.1,0.3,0.4,0.3,0.7,0.3
				c0.2,0,0.3,0.4,0,0.3c-0.5,0-0.9-0.1-1.4,0c-0.2,0-0.4,0.1-0.5-0.1c-0.2-0.3,0.3-0.2,0.4-0.4s0-0.4-0.1-0.7L375.8,230.2
				L375.8,230.2z M376.8,231c0.1,0.3,0.4,0.1,0.6,0.1s0.4-0.3,0.3-0.5c-0.1-0.4-0.1-0.8-0.4-1c-0.2-0.2-0.5-0.2-0.8-0.1
				c-0.1,0.1,0,0.3,0,0.4L376.8,231L376.8,231z M382,229c0.2,0,0.2,0.2,0.3,0.4c0.1,0.2,0.1,0.4,0.2,0.7c-0.1,0.2-0.4,0-0.4-0.2
				c-0.1-0.2-0.2-0.5-0.5-0.5s-0.6,0-1,0c-0.2,0.1,0,0.3,0,0.4c0.1,0.4,0.2,0.7,0.3,1.1c0.2,0,0.4,0,0.6-0.1s-0.1-0.5,0.1-0.6
				c0.3-0.1,0.3,0.3,0.3,0.5c0,0.4,0.2,0.7,0.3,1.1c-0.1,0.2-0.4,0-0.4-0.2c-0.1-0.2-0.3-0.4-0.5-0.4c-0.1,0-0.4-0.1-0.3,0.1
				c0.1,0.4,0.2,0.9,0.4,1.3c0.1,0.2,0.3,0.3,0.5,0.3c0.3,0,0.6,0,0.9-0.2c0.2-0.2,0.1-0.5,0.1-0.7c0.2-0.1,0.4,0.1,0.4,0.3
				c0,0.3,0.1,0.5,0.2,0.8c0,0.2-0.2,0.1-0.3,0.1c-0.8,0-1.6,0-2.3,0.1c-0.2,0-0.4,0.1-0.6,0c-0.2-0.3,0.2-0.2,0.4-0.4
				c0.1-0.2,0-0.4,0-0.6c-0.2-0.8-0.4-1.6-0.7-2.5c-0.1-0.2-0.2-0.5-0.5-0.6c-0.2,0-0.5-0.1-0.4-0.3c0.2-0.1,0.5,0,0.7,0L382,229
				L382,229z M357.4,239.5c-0.1-0.3-0.2-0.7-0.5-0.8c-0.2,0-0.5,0-0.4-0.3c0.2-0.1,0.5,0,0.8-0.1c0.6,0,1.2-0.2,1.8,0
				c0.9,0.2,1.7,0.9,1.9,1.9c0.2,0.6,0.2,1.3-0.2,1.8c-0.4,0.5-1.1,0.7-1.7,0.7c-0.5,0-0.9,0-1.4,0.1c-0.2,0.1-0.5-0.1-0.3-0.3
				c0.2-0.1,0.5-0.1,0.4-0.4c-0.1-0.4-0.2-0.8-0.3-1.2L357.4,239.5L357.4,239.5z M358.6,241.4c0.1,0.3,0.1,0.6,0.3,0.8
				c0.2,0.1,0.5,0.1,0.7,0.1c0.4-0.1,0.6-0.4,0.7-0.8c0.1-0.6,0-1.2-0.3-1.8c-0.2-0.5-0.6-0.9-1.1-1c-0.3-0.1-0.6-0.1-0.9,0
				c-0.1,0.1,0,0.2,0,0.3L358.6,241.4L358.6,241.4z M363.9,237.9c0.2,0,0.2,0.2,0.3,0.4c0,0.2,0.1,0.4,0.2,0.7
				c-0.1,0.2-0.4,0-0.4-0.2c-0.1-0.2-0.2-0.5-0.4-0.5c-0.3,0-0.6,0-1,0c-0.2,0.1,0,0.3,0,0.5c0.1,0.4,0.2,0.7,0.3,1.1
				c0.2,0,0.4,0,0.6-0.1c0.2-0.2-0.1-0.5,0.2-0.6c0.3,0,0.2,0.4,0.3,0.6c0,0.4,0.2,0.7,0.3,1c-0.1,0.2-0.4,0-0.4-0.2
				c-0.1-0.3-0.3-0.4-0.5-0.3c-0.1,0-0.4-0.1-0.3,0.1c0.1,0.4,0.2,0.8,0.3,1.2c0.1,0.2,0.3,0.3,0.5,0.3c0.3,0,0.7,0,0.9-0.2
				c0.2-0.2,0-0.5,0.1-0.7c0.2-0.1,0.4,0.1,0.3,0.3c0,0.3,0.1,0.5,0.1,0.8c0,0.2-0.2,0.1-0.4,0.1c-0.8,0.1-1.5,0.1-2.3,0.2
				c-0.2,0-0.4,0.1-0.6,0c-0.2-0.2,0.1-0.3,0.2-0.4c0.2-0.1,0.2-0.4,0.1-0.5c-0.2-0.9-0.4-1.7-0.6-2.6c-0.1-0.2-0.2-0.5-0.4-0.6
				c-0.2,0-0.5-0.1-0.3-0.3c0.2-0.1,0.5,0,0.7-0.1H363.9L363.9,237.9z M368.8,241.1c0,0.2,0.2,0.5,0.4,0.5c0.2,0.1,0.5,0,0.5,0.2
				c0.1,0.3-0.3,0.2-0.5,0.2c-0.4,0-0.9,0-1.3,0.1c-0.2,0-0.4,0.1-0.7,0.1c-0.2-0.1-0.1-0.4,0.1-0.4s0.5-0.1,0.5-0.4
				c0-0.2-0.1-0.4-0.1-0.6l-0.5-2.2c0-0.3-0.3-0.3-0.5-0.2c-0.2,0-0.4,0.1-0.5-0.1c0-0.3,0.4-0.2,0.5-0.3c0.3-0.1,0.6-0.2,0.8-0.3
				c0.2,0,0.2,0.1,0.2,0.3L368.8,241.1L368.8,241.1z M371.5,238.5c-0.1-0.3-0.2-0.6-0.5-0.7c-0.2,0-0.5,0-0.6,0.3s0,0.6,0.3,0.8
				c0.2,0.2,0.5,0.2,0.7,0.4c0-0.1,0.2-0.3,0.2-0.4C371.6,238.7,371.6,238.6,371.5,238.5z M372.2,240.8c-0.1-0.4-0.4-0.6-0.8-0.8
				c-0.1,0-0.3-0.2-0.4-0.1c-0.2,0.2-0.3,0.6-0.2,0.9c0.1,0.4,0.4,0.8,0.8,0.8c0.3,0,0.6-0.1,0.7-0.4
				C372.2,241.1,372.2,240.9,372.2,240.8L372.2,240.8z M372.8,240.6c0.1,0.4,0,0.8-0.4,1c-0.5,0.3-1,0.4-1.5,0.2
				c-0.5-0.1-0.8-0.5-0.9-1c-0.1-0.4,0.1-0.8,0.4-1c0.1-0.1,0.4-0.1,0.1-0.2c-0.4-0.2-0.7-0.5-0.8-1c-0.1-0.4,0.1-0.8,0.4-1
				c0.6-0.4,1.6-0.2,1.9,0.5c0.2,0.3,0.2,0.7,0,1c-0.1,0.2-0.2,0.3-0.4,0.4c0.4,0.1,0.7,0.3,0.9,0.6
				C372.7,240.3,372.8,240.4,372.8,240.6L372.8,240.6z M375.3,241.1c0.2,0,0.4-0.1,0.4-0.3c0.1-0.2-0.1-0.5,0.2-0.5
				c0.2,0,0.2,0.3,0.2,0.5c0,0.3,0,0.7-0.3,0.9c-0.2,0.1-0.4,0.1-0.6,0.1c-0.4,0-0.8-0.1-1.3-0.1c-0.2,0-0.4,0.2-0.5,0.1
				c-0.1-0.2-0.1-0.4,0-0.6c0.1-0.5,0.5-0.9,0.8-1.2c0.2-0.2,0.5-0.5,0.6-0.9c0-0.3-0.1-0.7-0.2-1c-0.2-0.4-0.7-0.5-1-0.3
				c-0.2,0.1-0.3,0.4-0.2,0.6c0.2,0.1,0.5,0,0.5,0.3c0.1,0.2,0,0.5-0.2,0.5c-0.3,0-0.6-0.2-0.7-0.6c-0.1-0.4,0-0.9,0.4-1.1
				c0.4-0.2,0.8-0.2,1.3-0.1c0.4,0.1,0.8,0.5,0.9,0.9c0.1,0.3,0.1,0.7-0.1,1.1c-0.3,0.6-0.9,0.9-1.2,1.3c-0.1,0.1-0.2,0.3-0.1,0.5
				c0.1-0.2,0.3-0.1,0.4-0.1C374.8,241,375,241.1,375.3,241.1L375.3,241.1z M378.2,240.7c0,0.2,0.2,0.5,0.4,0.5
				c0.2,0.1,0.4,0,0.5,0.2c0.1,0.3-0.2,0.2-0.4,0.2c-0.4,0-0.9,0-1.3,0c-0.2,0-0.4,0.1-0.6,0s-0.1-0.4,0.1-0.4s0.5-0.1,0.5-0.3
				s-0.1-0.4-0.1-0.6l-0.4-2.2c0-0.2-0.2-0.3-0.4-0.2c-0.2,0-0.4,0.1-0.5-0.1c-0.1-0.3,0.3-0.3,0.4-0.4c0.3-0.1,0.6-0.2,0.9-0.3
				c0.2,0,0.2,0.1,0.2,0.3L378.2,240.7L378.2,240.7z"/>
		</g>
	</g>
	<g>
		
			<radialGradient id="SVGID_10_" cx="497.1933" cy="637.52" r="0.34" gradientTransform="matrix(0.75 0 0 0.8 -14.5 -337.8)" gradientUnits="userSpaceOnUse">
			<stop  offset="0.26" style="stop-color:#A50A0A"/>
			<stop  offset="1" style="stop-color:#4C0505"/>
		</radialGradient>
		<path style="fill:url(#SVGID_10_);stroke:#4C0505;stroke-width:0.22;" d="M356.8,175.5l-2.8,3.6c-0.9,4.2,1.3,7.4,5.7,10.1
			c3.6,2.4,10.2,3,12.2,1l-10.3-10.4L356.8,175.5z"/>
		<path style="fill:#448127;stroke:#34541F;stroke-width:0.22;" d="M377.7,283.4c-0.5-0.6-1-1.3-1.5-1.9c-6.4,9-14.4,17.1-24.5,22.9
			C363,300.9,370.4,292.1,377.7,283.4z M366.1,312c4-8.6,8.8-17.2,13.6-25.9c-0.5-0.7-1.1-1.4-1.6-2.1
			C372.6,293.8,366.2,305.4,366.1,312z M397.4,220.4c-0.7-3.4-1.7-7.1-3.2-10.4c-2-4.4-5-8.7-8.9-13.4c-7-8.1-14.1-16-23.9-21.8
			l0.1-0.1h0.1h0.1l-0.1-0.2h0.4l-0.2-0.2h0.3l-0.3-0.3h0.3l-0.2-0.3h0.4l-0.2-0.3h0.3l-0.3-0.3l0.4-0.1l-0.3-0.2l0.4-0.1l-0.3-0.2
			l0.4-0.2l-0.4-0.2l0.5-0.2l-0.5-0.4l0.5-0.2l-0.5-0.2l0.5-0.2l-0.5-0.1l0.4-0.5h-0.5l0.2-0.5h-0.5l0,0l0.3-0.4l-0.5,0.1l0.2-0.5
			l-0.5,0.3l0.1-0.6L361,169l0.1-0.6l-0.4,0.4v-0.6l-0.4,0.4V168l-0.4,0.5v-0.6l-0.3,0.4l-0.1-0.5l-0.3,0.5l-0.1-0.6l-0.2,0.6
			l-0.1-0.6l-0.2,0.6l-0.2-0.5l-0.2,0.5l-0.1-0.5l-0.2,0.6l-0.2-0.5l-0.2,0.6l-0.2-0.6l-0.1,0.7l-0.3-0.5v0.6l-0.3-0.5v0.6l-0.3-0.5
			v0.6l-0.3-0.3l0.2,0.6l-0.4-0.2l0.2,0.5l-0.3-0.2l0.1,0.5l-0.3-0.1l0.2,0.4v0.1h-0.2l0.1,0.3c-0.3,0.9-0.3,1.9-0.3,2.8
			c0,0.2,0.4,0.4,0.5,0.5c0.2,0.4,0.2,0.5,0.2,0.5c-1.2,2.1-2.3,3.7-2.4,6c1-1.3,2-2.9,3.3-2.9c-0.7,1.2-1,4.9-0.2,5.5l0.6-1.1
			c0,0.9,0.1,1.4,0.3,1.9c0.2-0.5,0.5-1,0.7-1.4c0.1,1.2,0.2,2.2,0.5,2.7c0.3-0.6,0.8-1,1.2-1.3c-0.2,0.7-0.4,1.3-0.3,2.2
			c0.5-0.9,1-1.4,1.5-2c-0.3,1.3,0,2.2,0.3,3.6c0.3-1.7,0.4-1.8,1.1-2.5c0.1,1.5-0.2,2.9,0.1,3.8c0.7-1.3,1.1-1.2,1.5-2
			c-0.1,1.3-0.3,2.6,0,3.8c0.2-0.9,0.7-1.6,1.5-2.1c0,1.8,0.4,1.5-0.6,3c0.4,0.2,1.9-0.3,2.7-0.7c-0.4,0.9-0.3,1.7-0.7,2.4
			c0.8-0.4,1.5-1.1,2.2-1.9c-0.3,1.1-1.1,2.2-0.7,3.2c0.2-1,1-1.8,1.7-2c-0.1,0.6-0.2,1.7-1,2.3c1.8,0.2,2.5-1.1,3.5-2.2
			c-0.1,1.1-0.1,2,1.2,3.5c-0.3-1.9,0.2-1.5,1-2.7c0.4,1.7,0.9,3.5,2.5,4.8c-0.7-1.8-0.8-2.8-0.4-3.9c0.2,1.2,1.3,2.6,1.5,3.7
			c0.1-1.2,0.3-2.4,0.7-3.2c0.5,1.4,0.9,2.9,1,4.5c0.4-0.8,0.7-1.6,0.9-2.5c14.8,16.5,18.1,37.5,1.9,59.6
			c5.8-4.2,7.3-10.9,10.6-16.5c-3.2,7.4-4.6,15.8-10.1,21.9c5.4-5,6.5-9.5,9.8-14.3c-3.4,10-8.2,21-14.9,31c1.2,1.4,2.4,2.8,3.5,4.1
			l3.1-5.5C391.7,265,403.2,247.3,397.4,220.4L397.4,220.4z"/>
	</g>
	<path style="fill:#EAC102;stroke:#A08307;stroke-width:0.22;" d="M354.9,172.2c-0.8,0.2-1,0.5-1.6,1.2c0.7,0.2,1.3,0.2,1.9,0.2
		c0.2,0,0.3-0.3,0.2-0.5l-0.1-0.8c0-0.2-0.5-0.2-0.7-0.1L354.9,172.2L354.9,172.2z"/>
	<path style="fill:#A08307;" d="M353.3,173.4c0.5-0.2,1.1-0.3,1.6-0.4C354.4,173.2,353.8,173.3,353.3,173.4z"/>
	<ellipse style="stroke:#000000;stroke-width:0.1;" cx="358.3" cy="172.3" rx="0.6" ry="0.6"/>
	
		<radialGradient id="SVGID_11_" cx="-29.4215" cy="603.7143" r="0.5" gradientTransform="matrix(0.51 0 0 0.56 373.4 -165.872)" gradientUnits="userSpaceOnUse">
		<stop  offset="0" style="stop-color:#FFFFFF"/>
		<stop  offset="1" style="stop-color:#FFFFFF;stop-opacity:0"/>
	</radialGradient>
	<ellipse style="fill:url(#SVGID_11_);" cx="358.4" cy="172.2" rx="0.3" ry="0.3"/>
	<g>
		<path style="fill:#34541F;" d="M366.1,311.8c0.7-2.4,1.5-4.7,2.5-7c0.9-2.3,2-4.5,3.1-6.7c1.7-3.3,3.4-6.6,5.3-9.7l1.9-3.2
			l-1.8,3.2l-1.8,3.2c-1.2,2.2-2.4,4.3-3.5,6.5s-2.2,4.4-3.1,6.7C367.8,307.1,366.9,309.4,366.1,311.8L366.1,311.8z M352,304.2
			c7.5-3.5,14.1-8.7,19.6-15.3c1.8-2.2,3.5-4.4,5.2-6.7c-1.6,2.3-3.3,4.6-5.1,6.8c-1.8,2.2-3.7,4.2-5.8,6.1
			C361.7,298.9,357,301.9,352,304.2L352,304.2z M380,280.7c1.1-1.7,2.2-3.5,3.2-5.3s2-3.6,3-5.5s1.9-3.7,2.8-5.6l2.8-5.6l-1.3,2.9
			l-1.3,2.8c-0.9,1.9-1.8,3.8-2.8,5.6c-1,1.8-1.9,3.7-3,5.5C382.3,277.3,381.1,279,380,280.7L380,280.7z M384.4,260.6
			c2.6-3.3,4.7-6.9,6.4-10.7c1.7-3.9,2.9-7.9,3.7-12l0.3-1.6c0.2-1.6,0.4-3.1,0.5-4.7c0.1-2.1,0.1-4.2,0-6.4
			c-0.3-4.2-1.2-8.4-2.7-12.3c1.6,3.9,2.5,8.1,2.8,12.3c0.2,3.2,0.2,6.4-0.2,9.6c-0.1,0.5-0.1,1-0.2,1.6l-0.3,1.6
			c-0.8,4.2-2.1,8.2-3.8,12.1C389.2,253.8,387,257.4,384.4,260.6L384.4,260.6z"/>
		<path style="fill:#34541F;" d="M383.2,256.1c1.4-1.4,2.6-3,3.7-4.7s2-3.5,2.8-5.3s1.6-3.7,2.3-5.6c0.3-0.9,0.7-1.9,1-2.9l0.2-0.7
			l0.2-0.7c0.1-0.5,0.3-1,0.4-1.5l0,0c0.4-2,0.6-4.1,0.6-6.1c0-2.1-0.1-4.1-0.4-6.2c-0.3-2-0.8-4-1.3-6s-1.2-3.9-1.9-5.8
			c0.8,1.9,1.4,3.8,2,5.8s1,4,1.3,6s0.5,4.1,0.5,6.2c0,2.1-0.2,4.1-0.6,6.2l0,0c-0.2,0.5-0.3,1-0.4,1.4l-0.2,0.7l-0.3,0.7
			c-0.3,1-0.7,1.9-1,2.9c-0.7,1.9-1.5,3.8-2.3,5.6s-1.8,3.6-2.9,5.3C385.8,253.1,384.5,254.7,383.2,256.1L383.2,256.1z"/>
		<path style="fill:#34541F;" d="M378.8,279.4c0.9-1.3,1.8-2.7,2.7-4l1.3-2c0.4-0.7,0.9-1.3,1.3-2c0.8-1.4,1.5-2.8,2.2-4.3
			s1.4-2.9,2-4.4c1.3-3,2.6-5.9,3.7-9s2-6.2,2.6-9.4s1.1-6.4,1.4-9.7c0.3-3.2,0.4-6.5,0-9.8c-0.3-3.3-1-6.5-2-9.6s-2.3-6.1-3.8-8.9
			c1.5,2.8,2.8,5.8,3.9,8.9c1,3.1,1.7,6.3,2.1,9.6c0.3,3.3,0.3,6.6,0,9.8c-0.3,3.3-0.8,6.5-1.4,9.7s-1.5,6.4-2.6,9.4s-2.4,6-3.8,9
			c-0.7,1.5-1.4,2.9-2,4.4c-0.7,1.5-1.4,2.9-2.2,4.3c-0.4,0.7-0.9,1.4-1.3,2l-1.3,2C380.6,276.7,379.7,278.1,378.8,279.4
			L378.8,279.4z"/>
		<path style="fill:#34541F;" d="M380.9,281.8c1.8-3.1,3.5-6.1,5.2-9.3c1.7-3.1,3.4-6.3,4.9-9.5s2.8-6.6,3.8-10s1.7-7,2-10.6
			c0.4-3.6,0.7-7.2,0.7-10.8s-0.3-7.2-0.9-10.7s-1.6-7-3-10.3s-3.1-6.4-5.2-9.2c2.1,2.8,3.9,5.9,5.3,9.2s2.4,6.8,3,10.3
			s0.9,7.2,0.9,10.8c0,4.5-0.3,9-1,13.5c-0.4,2.7-1,5.3-1.7,7.9c-1,3.4-2.3,6.8-3.8,10c-1.5,3.2-3.2,6.4-4.9,9.5
			C384.4,275.7,382.7,278.8,380.9,281.8L380.9,281.8z M360,176.6c0.4,0,0.7,0,1.1,0.1c1.1,0.2,2.1,0.5,3.1,1
			c1.3,0.6,2.5,1.4,3.7,2.3c1.7,1.4,3.3,3,4.6,4.7c0.5,0.6,0.9,1.2,1.3,1.8c-0.9-1.2-1.8-2.3-2.8-3.4c-1-1.1-2.1-2.1-3.2-3
			s-2.3-1.7-3.6-2.3c-0.6-0.3-1.3-0.6-2-0.8C361.4,176.8,360.7,176.6,360,176.6L360,176.6z"/>
	</g>
	<g>
		<path style="fill:#448127;" d="M372.3,185.3c0,0,2.3,1.4,3.5,3.6c0,0-3.5-0.7-6.1-3.7"/>
		<path style="fill:#34541F;" d="M372.3,185.3c0.7,0.4,1.4,0.9,2,1.5s1.2,1.3,1.6,2l0.1,0.2h-0.2c-1.2-0.3-2.3-0.8-3.3-1.4
			c-1-0.6-2-1.4-2.7-2.4c0.8,0.9,1.8,1.7,2.8,2.3c0.5,0.3,1,0.6,1.6,0.8c0.5,0.2,1.1,0.4,1.7,0.5l-0.1,0.1c-0.2-0.4-0.5-0.7-0.7-1
			c-0.5-0.7-1.1-1.3-1.8-1.8C373,185.8,372.6,185.5,372.3,185.3L372.3,185.3z"/>
		<path style="fill:#448127;" d="M367.2,184.6c0,0,5.4,3.7,6.2,4c0,0-1.2-2.8-3.8-4"/>
		<path style="fill:#34541F;" d="M367.2,184.6l3.1,2c0.8,0.5,1.5,1,2.3,1.5c0.3,0.2,0.5,0.3,0.8,0.4l-0.1,0.1
			c-0.4-0.8-0.9-1.6-1.6-2.3c-0.6-0.7-1.4-1.3-2.2-1.7c0.4,0.2,0.8,0.4,1.2,0.7c1.1,0.8,2,2,2.7,3.3l0.1,0.2l-0.2-0.1
			c-0.6-0.3-1.1-0.6-1.6-0.9l-1.5-1C369.2,186,368.2,185.3,367.2,184.6L367.2,184.6z"/>
		<path style="fill:#448127;" d="M369.3,182.7c0,0,2.8,1.3,3.5,3.5c0,0-5.1-2.3-6-3.5"/>
		<path style="fill:#34541F;" d="M369.3,182.7c0.8,0.3,1.5,0.8,2.1,1.3c0.3,0.3,0.6,0.6,0.9,1c0.2,0.4,0.5,0.7,0.6,1.2l0.1,0.2
			l-0.2-0.1c-1-0.5-2.1-1-3.1-1.5c-0.5-0.3-1-0.6-1.5-0.9c-0.2-0.2-0.5-0.3-0.7-0.5s-0.5-0.4-0.6-0.6c0.2,0.2,0.4,0.4,0.7,0.6
			c0.2,0.2,0.5,0.3,0.7,0.5c1.5,0.9,3.1,1.6,4.6,2.4l-0.1,0.1c-0.1-0.4-0.3-0.8-0.5-1.1s-0.5-0.7-0.8-0.9
			C370.7,183.6,370.1,183.1,369.3,182.7L369.3,182.7z"/>
		<path style="fill:#448127;" d="M365.1,185c0,0,5,3.8,6.5,3.8c0,0-1.5-2.6-4-3.8"/>
		<path style="fill:#34541F;" d="M365.1,185c1,0.7,2.1,1.4,3.1,2.1c0.5,0.3,1.1,0.7,1.6,1c0.3,0.1,0.6,0.3,0.8,0.4
			c0.3,0.1,0.6,0.2,0.9,0.2l-0.1,0.1c-0.5-0.8-1.1-1.5-1.7-2.2c-0.7-0.7-1.4-1.2-2.2-1.6c0.8,0.4,1.6,0.9,2.3,1.5
			c0.7,0.6,1.3,1.4,1.8,2.2l0.1,0.1h-0.2c-0.3,0-0.6-0.1-0.9-0.2c-0.3-0.1-0.6-0.3-0.8-0.4c-0.6-0.3-1.1-0.6-1.6-1
			C367.1,186.5,366.1,185.8,365.1,185L365.1,185z"/>
		<path style="fill:#448127;" d="M365.1,186.2c0,0,2.6,2.3,4.1,2.3c0,0-1.5-2.6-4.1-3.8"/>
		<path style="fill:#34541F;" d="M365.1,186.2c0.6,0.5,1.3,1,1.9,1.4c0.3,0.2,0.7,0.4,1,0.6c0.2,0.1,0.4,0.2,0.5,0.2
			c0.2,0.1,0.4,0.1,0.6,0.1l-0.1,0.1c-0.2-0.4-0.5-0.8-0.8-1.2c-0.9-1.1-2-2-3.2-2.7c0.8,0.4,1.6,0.9,2.3,1.5
			c0.7,0.6,1.3,1.4,1.8,2.2l0.1,0.1h-0.1c-0.4,0-0.8-0.1-1.2-0.3c-0.4-0.2-0.7-0.4-1-0.6C366.3,187.3,365.7,186.7,365.1,186.2
			L365.1,186.2z"/>
		<path style="fill:#448127;" d="M363.8,180.9c0,0,5.4,4.1,6,6.3c0,0-4.9-2.4-5.8-3.6"/>
		<path style="fill:#34541F;" d="M363.8,180.9c1.2,0.9,2.3,1.8,3.4,2.8c0.5,0.5,1.1,1,1.5,1.6c0.2,0.3,0.5,0.6,0.7,0.9
			c0.2,0.3,0.4,0.6,0.5,1v0.2l-0.2-0.1c-1-0.5-2-1.1-3-1.6c-0.5-0.3-1-0.6-1.5-0.9c-0.2-0.2-0.5-0.3-0.7-0.5s-0.5-0.4-0.6-0.6
			c0.2,0.2,0.4,0.4,0.6,0.6c0.2,0.2,0.5,0.3,0.7,0.5c0.5,0.3,1,0.6,1.5,0.9c1,0.6,2,1.1,3,1.6l-0.1,0.1c-0.1-0.3-0.3-0.7-0.5-1
			s-0.4-0.6-0.7-0.9c-0.5-0.6-1-1.1-1.5-1.6C366,182.8,364.9,181.9,363.8,180.9L363.8,180.9z"/>
	</g>
	<g>
		<path style="fill:#406325;stroke:#24420E;stroke-width:0.16;" d="M333.8,296.3c-3.7,2.9-13.9,4.3-15.3,3.8
			C325.9,293.5,333.2,293.3,333.8,296.3z M386.1,299.8c3.9,3.8,15.8,6.4,17.6,6C395.8,297.2,387.1,296.3,386.1,299.8z"/>
		<path style="fill:#67923D;stroke:#24420E;stroke-width:0.16;" d="M333.7,296.2c-0.5-2.9-7.8-2.8-15.3,3.8
			C326.3,297.3,332.9,295.7,333.7,296.2z M386.2,299.8c1-3.5,9.6-2.7,17.5,6C394.8,301.7,387.2,299.3,386.2,299.8z"/>
	</g>
</g>
</svg>
