<?xml version="1.0" encoding="utf-8"?>
<!-- Generator: Adobe Illustrator 25.2.1, SVG Export Plug-In . SVG Version: 6.00 Build 0)  -->
<svg version="1.1"
	 id="Layer_1" text-rendering="geometricPrecision" shape-rendering="geometricPrecision" image-rendering="optimizeQuality"
	 xmlns="http://www.w3.org/2000/svg" xmlns:xlink="http://www.w3.org/1999/xlink" x="0px" y="0px" viewBox="0 0 720 480"
	 style="enable-background:new 0 0 720 480;" xml:space="preserve">
<g>
	<path style="fill-rule:evenodd;clip-rule:evenodd;fill:#C62139;" d="M0,0h720v480H0V0z"/>
	<path style="fill-rule:evenodd;clip-rule:evenodd;fill:#00297B;" d="M17.6,21.8h684.9v436.4H17.6V21.8z"/>
	<path style="fill-rule:evenodd;clip-rule:evenodd;fill:#92DBFC;" d="M360.2,118c0,0-60.1,59.5-60.1,121.2
		c0,61.8,60.1,122.8,60.1,122.8S420,305.4,420,239.2C419.9,173,360.2,118,360.2,118L360.2,118z"/>
	<path style="fill-rule:evenodd;clip-rule:evenodd;fill:#008CE7;" d="M306.7,276.9c15.7,46.7,53.5,85.1,53.5,85.1
		s38.5-36.5,53.7-85.1"/>
	<path style="fill-rule:evenodd;clip-rule:evenodd;fill:#9C8431;" d="M414.1,263.4c-9.3,8.2-61.4,4.3-61.4,4.3l-2.9,9.2l62.1,0.2
		c0.3-1.3,0.9-2.8,1.1-4L414.1,263.4z"/>
	<path style="fill-rule:evenodd;clip-rule:evenodd;fill:#FFDE52;" d="M320.7,301.6c2.6,0.1,5.3,0.8,7.6,2.4
		c4.2,2.8,6.7,2.7,11.2,2.8c4.8,0.1,8.5,4.4,13.7,4.6c9.5,0.3,13.5,6.2,6.1,6.2c-3.5,0-11-2.9-14.6-2.3c-5.5,0.7-8.7,1.2-12.7,5.2
		C328.2,314.8,324.3,308.4,320.7,301.6L320.7,301.6z M339.5,331c2.4-2,4-3.6,6.3-3.6c4.4-0.2,6-3.6,11.1-3.6
		c5.8,1.3,13.7-0.9,18.3-2.1c8.2-2.4,4.3-9.5-0.7-12.1c-4-2.1-11.5-0.1-16.2-2.2c-3.5-1.7-0.6-4.4,1.3-5c1.9-0.4,4,0.4,6.4,0.8
		c4.3,0.5,9.6,0,13.4-0.8c7.7-1.5,7.4-4.3,11.2-4.4c2.7-0.2,4.8-1.2,6.7-2.8c2.2-1.8,4.5-5.5,7.1-5.4l1.6,0.1
		c-16.3,39.2-45.6,65-45.6,65S350.7,345.9,339.5,331L339.5,331z"/>
	<path style="fill-rule:evenodd;clip-rule:evenodd;fill:#8C4200;" d="M377,302.3c1,4.9,2.1,6.5,6.2,7.8c4.1,1.2,10.3-3.7,6.4-8.4
		c-3.7-4.4-7.5-5.6-10.8-9.5c-5.1-6.3-12.1-19.2-15.4-31.5c-3.6-13.4-3-51.1-2.8-70.2c0-0.2,0.4-0.4,0.5-0.4
		c0.2-0.4,0.5,0.1,0.1-2.7c-0.1-0.7-0.6-1.5-0.6-2.2c0-1.3-3.6,1.4-4.5,3.7c-0.2,0.5,0.7,2,0.7,2.3c0.1,18.3-1.5,54.5,2.5,70.9
		c2.4,10.1,6.8,18,10.8,25.2C372.5,291.9,376,296.9,377,302.3L377,302.3z"/>
	<g>
		<path style="fill:#FFFFFF;" d="M332.1,248.6c0,0-0.2,0-0.4-0.1c-1.3-0.2-2.6-0.8-3.6-1.8c-1.4-1.3-2.3-3.4-2.6-5.9
			c-0.1-0.7-0.1-2.5,0-3.2c0.2-2,0.8-3.7,1.7-4.9c0.2-0.4,0.7-0.9,1-1.2c0.7-0.6,1.6-1.1,2.5-1.4c0.7-0.2,1.1-0.3,1.9-0.3
			c1.1,0,1.9,0.1,2.8,0.5c1.1,0.5,2,1.2,2.6,2.2c0.4,0.7,1,2.2,1,2.9c0,0.4-0.1,0.7-0.4,0.8c-0.1,0-0.5,0.2-1,0.4
			c-0.9,0.3-1,0.3-1.2,0.1c-0.1-0.1-0.2-0.2-0.3-0.7c-0.1-0.2-0.2-0.6-0.3-0.9c-0.2-0.4-0.2-0.6-0.5-0.8c-0.2-0.3-0.3-0.4-0.7-0.6
			c-0.8-0.5-1.6-0.6-2.6-0.5c-0.7,0.1-1.5,0.5-2,0.9c-1.1,1-1.7,3-1.6,5.4c0.1,3.2,1.2,5,3.5,5.6c0.4,0.1,1.4,0.1,1.8,0
			c0.7-0.2,1.7-0.6,2.2-1.1l0.2-0.2v-1v-1h-1.8h-1.8l-0.1-0.1c-0.1-0.1-0.1-0.2-0.2-0.2c-0.1-0.1-0.1-0.2-0.1-1.4s0-1.2,0.1-1.4
			c0-0.1,0.1-0.2,0.2-0.2l0.1-0.1h3.1h3.1l0.1,0.1c0.1,0.1,0.1,0.2,0.2,0.3l0.1,0.2v3.2c0,3.4,0,3.5-0.2,3.7c0,0.1-0.3,0.3-0.5,0.5
			c-1.4,1.3-3,2.1-4.6,2.3C333.6,248.7,332.4,248.7,332.1,248.6L332.1,248.6z M348.2,248.8c-1.6-0.2-2.8-0.7-3.7-1.8
			c-0.9-1-1.3-2.4-1.5-4.5c-0.1-0.6-0.1-1.2-0.1-6.2c0-5.3,0-5.5,0.1-5.7c0-0.1,0.1-0.2,0.2-0.3l0.1-0.1h1.1c1,0,1.1,0,1.2,0.1
			s0.2,0.2,0.2,0.3l0.1,0.2v5.7c0,5,0,5.7,0.1,6.1c0.1,1,0.3,1.4,0.7,1.9c0.5,0.6,1,0.8,2,0.9c0.9,0,1.5-0.1,2-0.4
			c0.6-0.4,0.9-0.9,1.1-2.2c0.1-0.5,0.1-0.6,0.1-6.2c0-6.4,0-5.8,0.3-6.1l0.1-0.1h1.1c1.2,0,1.2,0,1.4,0.3l0.1,0.2v5.1
			c0,5.1,0,6.2-0.1,7.2c-0.2,2.1-0.8,3.4-1.8,4.4c-0.4,0.3-0.5,0.5-0.8,0.7c-0.5,0.3-1.2,0.6-1.9,0.7
			C349.7,248.8,348.5,248.8,348.2,248.8L348.2,248.8z M362.5,248.5c0,0-0.1-0.1-0.2-0.2c-0.2-0.2-0.2-0.4-0.2-0.7
			c0.1-0.3,5.3-17,5.3-17.1c0.2-0.3,0.2-0.3,1.4-0.3c1.2,0,1.3,0,1.4,0.3c0,0.1,1.3,3.9,2.9,8.6c2.4,7.4,2.8,8.5,2.8,8.7
			c0,0.3-0.1,0.4-0.3,0.6c-0.1,0.1-0.1,0.1-1.3,0.1h-1.2l-0.1-0.1c-0.2-0.2-0.2-0.1-1-2.7c-0.4-1.2-0.7-2.2-0.7-2.2
			c0-0.1-0.2-0.1-2.4-0.1c-2.3,0-2.4,0-2.4,0.1c0,0-0.3,1.1-0.7,2.3c-0.4,1.2-0.7,2.3-0.7,2.4c0,0.1-0.1,0.2-0.2,0.2
			c-0.1,0.1-0.1,0.1-1.2,0.1C363.1,248.6,362.6,248.5,362.5,248.5L362.5,248.5z M370.3,240c-0.1-0.2-1.3-4.5-1.4-4.6
			c0,0,0,0-0.1,0.1c-0.1,0.2-1.4,4.6-1.4,4.6s0.6,0,1.4,0h1.4L370.3,240z M381.3,248.5c-0.2-0.1-0.3-0.3-0.4-0.5c0-0.1,0-2.9,0-8.7
			v-8.6l0.1-0.2c0.2-0.3,0.2-0.3,1.8-0.3c1.4,0,1.5,0,1.6,0.1c0.1,0,0.2,0.1,0.2,0.2c0,0.1,0.8,2.9,1.7,6.3c0.9,3.4,1.7,6.1,1.7,6.1
			s0.8-2.7,1.7-6.1c1.1-3.8,1.7-6.2,1.8-6.3c0.2-0.3,0.2-0.3,1.7-0.3c1.3,0,1.4,0,1.5,0.1c0.1,0,0.2,0.2,0.2,0.3l0.1,0.2v8.6
			c0,8.1,0,8.6-0.1,8.8c0,0.1-0.1,0.2-0.2,0.3l-0.1,0.1h-1.1c-1,0-1.1,0-1.2-0.1s-0.1-0.2-0.2-0.2l-0.1-0.1v-4.9v-4.9l-0.2,0.7
			c-0.1,0.4-0.7,2.6-1.4,5c-1.2,4.2-1.2,4.3-1.4,4.5c-0.1,0.1-0.2,0.2-0.3,0.2c-0.1,0-0.5,0-1,0c-0.8,0-0.9,0-1-0.1
			s-0.2-0.2-0.2-0.2c0-0.1-0.7-2.4-1.4-5.2c-0.8-2.8-1.4-5-1.4-5s0,2.2,0,5c0,5.6,0,5.2-0.3,5.4l-0.1,0.1h-1
			C381.8,248.6,381.4,248.5,381.3,248.5L381.3,248.5z"/>
		<path style="fill:#BD0728;" d="M332.1,247.9c-1.8-0.3-3.4-1.2-4.4-2.7c-0.8-1.2-1.4-2.8-1.5-4.6c-0.1-0.6-0.1-2,0-2.6
			c0.2-2,0.8-3.8,1.7-5c1.5-2.1,4.7-3,7.3-2c1.6,0.6,2.6,1.9,3.1,4c0.1,0.3,0.1,0.5,0.1,0.6c0,0-1.4,0.5-1.5,0.5s-0.1-0.1-0.2-0.4
			c-0.3-0.9-0.6-1.7-1.1-2.1c-0.9-0.9-2.3-1.3-3.8-1c-1,0.2-2,0.8-2.6,1.6c-0.9,1.2-1.3,2.7-1.3,4.7s0.2,3.5,0.9,4.7
			c1.1,2,3.6,2.9,5.8,2.1c0.7-0.3,1.5-0.7,2-1.2l0.3-0.2v-1.6v-1.6h-2h-2v-1v-1h2.9h2.9v3.1v3.1l-0.3,0.3c-1.3,1.2-2.6,1.9-4,2.2
			C333.8,247.9,332.6,248,332.1,247.9L332.1,247.9z M347.9,248c-1.3-0.2-2.3-0.7-3-1.6c-0.7-0.8-1-1.8-1.2-3.2c-0.1-1-0.1-1.6-0.1-7
			v-5.3h0.9h0.9v5.7c0,6,0,5.9,0.2,6.9c0.2,1.2,0.9,2,1.9,2.4c0.8,0.3,1.9,0.3,2.8,0c1.1-0.3,1.7-1.1,1.9-2.4c0.2-1,0.2-0.9,0.2-7
			V231h0.9h0.9v5.1c0,3,0,5.4,0,5.8c-0.1,2.6-0.7,4-2,5.1c-0.5,0.4-1.2,0.7-1.9,0.9C349.9,248,348.3,248.1,347.9,248L347.9,248z
			 M362.8,247.6c0-0.1,1.2-3.9,2.6-8.4l2.5-8.1h0.9h1l2.7,8.3c1.5,4.6,2.7,8.4,2.8,8.4c0,0.1,0,0.1-1,0.1h-1l-0.2-0.6
			c-0.1-0.3-0.4-1.4-0.8-2.5l-0.6-2h-2.9h-2.9l-0.7,2.5l-0.7,2.5h-0.9h-0.9L362.8,247.6z M371.2,240.9c0,0-0.4-1.3-0.9-2.9
			c-0.5-1.5-1-3.3-1.2-4c-0.2-0.6-0.3-1.2-0.3-1.2s-0.1,0.3-0.1,0.6c-0.2,1.2-0.4,2-1.3,4.7c-0.4,1.5-0.8,2.7-0.8,2.7
			c0,0.1,0.1,0.1,2.3,0.1C371.1,240.9,371.2,240.9,371.2,240.9L371.2,240.9z M381.5,239.4V231h1.3h1.3l1.8,6.7
			c1,3.7,1.8,6.9,1.9,7.2s0.1,0.5,0.1,0.5s0.2-0.8,0.5-1.8s1.2-4.2,2-7.2l1.5-5.4h1.2h1.2v8.4v8.4h-0.8h-0.8v-7.1c0-3.9,0-7,0-7
			s-0.8,3-1.8,6.5c-1,3.6-1.9,6.7-2,7l-0.2,0.5h-1.6l-1.9-7.1c-1.1-3.9-1.9-7.1-2-7.2c0,0,0,3.2,0,7.1v7.2h-0.8h-0.8L381.5,239.4z"
			/>
	</g>
	<path style="fill-rule:evenodd;clip-rule:evenodd;fill:#109421;" d="M322.8,185c0.3,0.4,0.2,2.3,0.2,2.3c0.2,0.2,3.6-3.6,3.6-3.4
		c0,0.8,0.1,2.4,0.1,2.4s3.5-4.1,3.7-3.7c0.2,0.5,0,2.9,0,2.9s2.3-3.2,2.8-3.8c0.3-0.4,0.3,0.5,0.3,2c0,0.3,3.8-3.5,4.1-3.6
		c0.5-0.1,0.6,2,0.6,2.5c0,0.4,3.5-2.5,3.4-2.1l0.3,2.2c1-0.2,3.3-1.3,4.8-1c0.5,0.1,0.4,0.4,0,0.6c-6.8,3.4-12.1,8.6-15.1,15.8
		c-1,2.5-1.4,4.6-1.1,5.1c0,0,1.2-3.3,2.6-3.8c0.2-0.1,0.3,2.1,0.5,2c0,0,1-3.3,1.8-4.5c0.2-0.3,0.5,1.7,0.8,1.4
		c0,0,0.5-2.2,1.6-3.7c0.2-0.2,0.4,2.1,0.6,1.9c1.1-1.3,2.1-4.4,2.6-4.7c0.3-0.3,0.3,2.6,0.6,2.4c0,0,1.6-3.9,2.5-4.6
		c0.6-0.5,0.6,2.1,0.6,2.1c1.2-1.5,2.5-3.9,3.2-5c0.3-0.5,0.1,3.2,0.4,3.4c0.4,0.2,3-2.8,3.3-2.9c0.2,0,0.4,0.9-0.1,1.6
		c0,0.1-3.2,4.6-3.2,4.6c0.6,0.1,0.9-0.1,1.3,0.1c1.3,0.4-2.5,3.1-2.4,3.6c0,0,1.8,0,1.2,0.4c-0.4,0.3-2.8,4.2-2.8,4
		c0-0.1,1.2,0,1.2,0.5c0,0.8-2,4.9-2,4.9c-0.1-0.1,1.1-0.2,1.2,0.2c0.3,0.7-2,4.1-1.6,4.6c0.1,0.1,1.3,0,1.9,0.2
		c0.3,0.1,1,6,0.8,5.8c0-0.1,0.8-5.6,1.3-7.3c0.3-1,1.3,1.5,1.4,1.3c0,0-0.2-3.6-0.1-5.3c0-0.5,0.8,0.5,0.8,0c0-1-0.1-2.1,0.1-3.1
		c0.1-0.7,0.8,1.3,1,0.8c0,0-0.8-3.6-0.4-4.6c0.2-0.7,0.7,1.6,1,1.7c0,0-0.2-2.8,0.2-3.5l1.1,1.4c0.2-0.4,0.2-4.8,0.4-5.2
		c0.2-0.3,1.3,1.6,1.4,1.3s-0.5-3.5-0.3-3.8c0.2-0.4,1.4,0.9,1.4,0.9c0.5-0.6,0.5-2.1,0.7-2.7c0.6-1.5,3.7-1.7,4.1-0.6
		c0.2,0.5,0.1,1.2,0,2c0,0,1.6,0.2,1.6,0c0,0-0.2,1.8-0.1,3.8c0,0.3,1.6-0.1,1.6,0.2c0.1,1.9-0.2,2-0.2,2c0,0.1,1.1-0.2,1.1-0.1
		c0.1,0.9-0.1,2-0.6,3.1c-0.1,0.2,1.5-0.1,1.5,0c0.2,1.4,0.2,2.5,0,4.5c0,0.2,1.5-1.4,1.5-1.2c0.2,1.7,0,3.5,0.1,5.2
		c0,0.4,1-1.2,1.1-0.7s-0.2,3.8-0.1,3.9c0,0,1.6-0.1,1.8,0.1c1.3,1.5,1.1,4.2,1.1,4.2c0.4-0.3,0.2-3.5-0.1-6.5
		c0-0.3,1.3-0.2,1.2-0.5c0,0-1.4-1.1-1.9-4.1c-0.1-0.6,1.4-0.5,1.4-0.5c-0.4-1.2-1.1-1.4-1.7-2.5c-0.2-0.4,1.5-0.5,1.5-0.6
		c0-1.1-1.5-1.7-2.2-2.8c-0.3-0.5,1.6-0.5,1.6-0.5c-0.6-1-2.4-1.4-3.4-2.7c-0.5-0.7,1.9-1.4,1.8-1.5c-0.3-1-2.5-1.3-3.6-2.5
		c-0.2-0.2,1.4-1,1.4-1c-0.2-0.4-3.8-3.4-1.9-3.1c0.8,0.1,2.3,1.5,2.5,1.3c0,0-0.1-1.7,0.1-1.9c0.6-0.8,2.7,3.3,3.4,3.1
		c0,0,0.3-2.9,0.6-3c0.8-0.2,1.7,4.2,2.4,4.2c0.1,0,0.2-2.6,0.5-2.7c0.4-0.2,0.9,2.9,1.5,3.5c0.5,0.6,0.5-2.4,0.8-1.8
		c0.5,0.9,0.6,2.8,1.3,3.6c0.5,0.5,0.5-2.6,1-2.2c0.6,0.5,0.4,2.1,1.1,2.9c0.3,0.4,0.5-2.1,0.9-1.7c0.3,0.3,0.5,3.3,0.9,3.8
		c0.4,0.6,0.9-1.6,1.4-1.2c0.3,0.3,0.2,2.9,0.5,3.4c0.6,1.2,0.9-1.4,1.3-1c0.3,0.3,0.9,3.3,1.1,3.5c0.6,0.5,0.9-1.4,1.3-1.1
		c0.3,0.2,0.9,4.1,1.2,4c0.2-0.1,0.6-8.8-2.1-12.5c-4.4-6-12.3-9.5-18.8-9.6c0,0,3.2-0.8,3.3-1.5c0.2-1.3,1.8-1.2,2.9-0.9
		c0.2,0.1,0.1-2.4,0.1-2.4c1,0,1.9,0.7,2.9,1.4c0.3,0.2-0.6-2.4-0.3-2.2c1.2,0.9,2.6,1.1,3.4,2.2c0.2,0.3-0.3-2-0.3-2
		c0.6-0.2,1.8,0.9,2.3,2c0.2,0.5,0-2.7,0.2-2.1c0,0,2.2,0.9,2.4,2c0,0,0.2-2,0.5-1.9c0.9,0.3,1.6,2.1,2.3,2.4c0,0-0.3-1.8-0.1-1.7
		c1.6,0.5,3.4,1.8,3.4,1.7c-0.9-2.8-4.4-5.8-10.5-6.6c-1.1-0.1-5.7-0.4-9.5,0.7c-3.2,0.9-5.6,1.4-5.1,0.8c2.1-2.5,5.5-2.8,6.4-3.4
		c0.7-0.4-2.2-1.8-1.7-2c0.6-0.2,3.2-0.4,3.2-0.4c0.6-0.5-1.9-1.6-1.5-2.4c0.7-1.6,5-0.1,5.4-0.7c0.1-0.2-1.9-1.7-1.8-1.9
		c0.3-0.8,4.2,0.6,4.2-0.1c0,0-1.2-1.1-2-2c-0.1-0.1,3.4-1.3,3.4-1.3c-0.1-0.1-0.6-0.6-1.4-0.9c-0.7-0.4,3.1-1.6,3.1-1.6
		c-4.9-2.8-17.5,5.1-20,13.3c-0.7,1.9-0.7-0.2-0.5-1.8c0.1-1.8,0.3-3.3,0.2-5c0-0.5-1,1.3-1.1,0.8c-0.3-1.7,0.5-3.6,0.2-5.6
		c-0.1-0.6-1.4,1.9-1.6,1.3c-0.5-1.8,0.4-4.3,0-6.7c-0.1-1-1.4,2-1.8,1.2c-0.5-1-0.3-4.7-0.5-5.2c-0.2-0.4-1.3,1.8-1.4,1.3
		c-1.5-6.7,0.5-7.6-2.4-3.8c-0.1,0.1-0.7-4-0.8-3.9c-1.2,3.1-3.1-2.2-3.8-1.7c-0.5,0.4,1.3,2.4,1.4,3.4c0,0.4-1.7,0.5-1.7,0.5
		c0,0.8,3.2,2.9,3.3,3.8c0.1,0.7-2.3,0.5-2.3,0.5c0.1,0.9,2.7,1.8,2.9,2.8c0.1,0.6-1.2,0.7-1.2,1.2c0.1,0.9,2.6,2.6,2.7,3.4
		c0.1,0.6-1.6,0.9-1.6,1.4c0,0.7,3.3,3,3.3,3.6c0,0.9-1.3,0.4-2,0.9c-0.9,0.6,2.8,3.3,2.9,4s-1.4,0.1-1.5,0.7
		c-0.1,0.8,1.8,2,2.2,3.3c0.4,1.3,0,1.7-0.6,1.1c-1.2-1.1-6.1-7.5-7.4-9.2c-1.9-2.5-5.7-5.3-9.6-5.5c-0.4,0.2,2.1,2.3,2.1,3.1
		c0,0.2-1.1,0.5-1.1,0.6c0.7,0.8,2.8,1.9,2.8,1.9l-0.6,1.4c0.1,0.4,1.2,0.5,2.8,1.2c0,0-1.2,0.9-1.1,1c0.9,0.8,2.5,1.5,2.5,1.5
		l-1.6,0.7c-0.1,0.4,3.7,2.3,3.7,2.3s-1.2,1.3-1.1,1.3c0.3,0.4,3.1,1.2,3.1,1.2c0,0.1-2,0.8-1.9,0.8c0.7,0.9,2.7,1.2,3.2,2.7
		c0,0,0.3,0.8-0.5,0.7c-3.1-1.4-8-4.3-17.3-3.2c-9.6,1.6-16.9,11.9-16.7,12.9C319,187.4,322.5,184.4,322.8,185L322.8,185z"/>
	<g transform="translate(201503.018 49556.295)">
		
			<ellipse transform="matrix(0.9942 -0.1076 0.1076 0.9942 4143.4106 -21929.9707)" style="fill-rule:evenodd;clip-rule:evenodd;fill:#8C4200;" cx="-201148" cy="-49361" rx="2.1" ry="2.6"/>
		
			<ellipse transform="matrix(0.1076 -0.9942 0.9942 0.1076 -130420.5469 -244032.875)" style="fill-rule:evenodd;clip-rule:evenodd;fill:#8C4200;" cx="-201144.8" cy="-49367.8" rx="3" ry="2.3"/>
		
			<ellipse transform="matrix(0.1076 -0.9942 0.9942 0.1076 -130425.3984 -244033.5938)" style="fill-rule:evenodd;clip-rule:evenodd;fill:#8C4200;" cx="-201147.6" cy="-49365.5" rx="3.2" ry="2.5"/>
	</g>
	<path style="fill-rule:evenodd;clip-rule:evenodd;" d="M339.2,287.4h3v2.8h-3V287.4z"/>
	<path style="fill-rule:evenodd;clip-rule:evenodd;fill:#8C4200;" d="M323.9,289.2c0,0,20,1.9,32.3-1.4c0,0,1,0.9-0.5,3
		s-5.2,2.6-7.3,3.1c0,0-0.5,1.4-0.5,2.1s1.3,0.6,1.9,0.5l0.6-0.2c0,0-0.3,2.7-7.9,3c-2.5,0.1-10.7,0.3-12.4-2.7c0,0,1.5,0.2,1.9,0
		s0.1-2.1,0-2.4s-5.3,0-8-3.1c-0.7-0.9-1-1.8-1-2.2C323.1,289,323.9,289.2,323.9,289.2z M334.3,294.5c0,0,5.5,0.9,11.8,0
		c0,0,0.2,1.5-0.1,2s-7.6,1-11.2,0.2C334.2,296.5,334.2,295.6,334.3,294.5z"/>
	<path style="fill-rule:evenodd;clip-rule:evenodd;fill:#FDF9FF;" d="M326.7,288c0,0,7.4-9.8,5.2-30.3c0,0,7.7,2.5,15.6,16.6
		c0,0,2.3,2.9,5,13.1L326.7,288z"/>
	<path style="fill-rule:evenodd;clip-rule:evenodd;fill:#C62139;" d="M360.2,110.9c0,0-63.7,58.9-63.7,128.3s63.7,130,63.7,130
		s63.2-55.5,63.2-130C423.5,164.7,360.2,110.9,360.2,110.9L360.2,110.9z M360.2,125.1c0,0-56.6,52.4-56.6,114.1
		c0,61.8,56.6,115.6,56.6,115.6s56.3-49.4,56.3-115.6C416.4,173,360.2,125.1,360.2,125.1L360.2,125.1z"/>
</g>
</svg>
