<?xml version="1.0" encoding="utf-8"?>
<!-- Generator: Adobe Illustrator 25.2.1, SVG Export Plug-In . SVG Version: 6.00 Build 0)  -->
<svg version="1.1" id="Layer_1" xmlns="http://www.w3.org/2000/svg" xmlns:xlink="http://www.w3.org/1999/xlink" x="0px" y="0px"
	 viewBox="0 0 720 480" style="enable-background:new 0 0 720 480;" xml:space="preserve">
<g>
	<rect style="fill:#0073CF;" width="720" height="480"/>
	<rect y="160" style="fill:#FFFFFF;" width="720" height="160"/>
	<polygon style="fill:#0073CF;" points="367.3,243.1 379,231.8 364.5,231.8 360,213.3 355.5,231.8 341,231.8 352.7,243.1 
		348.2,261.6 360,250.2 371.8,261.6 	"/>
	<polygon style="fill:#0073CF;" points="467.3,200.5 479,189.1 464.5,189.1 460,170.7 455.5,189.1 441,189.1 452.7,200.5 
		448.2,218.9 460,207.5 471.8,218.9 	"/>
	<polygon style="fill:#0073CF;" points="467.3,280.5 479,269.1 464.5,269.1 460,250.7 455.5,269.1 441,269.1 452.7,280.5 
		448.2,298.9 460,287.5 471.8,298.9 	"/>
	<polygon style="fill:#0073CF;" points="267.3,200.5 279,189.1 264.5,189.1 260,170.7 255.5,189.1 241,189.1 252.7,200.5 
		248.2,218.9 260,207.5 271.8,218.9 	"/>
	<polygon style="fill:#0073CF;" points="267.3,280.5 279,269.1 264.5,269.1 260,250.7 255.5,269.1 241,269.1 252.7,280.5 
		248.2,298.9 260,287.5 271.8,298.9 	"/>
</g>
</svg>
