<?xml version="1.0" encoding="utf-8"?>
<!-- Generator: Adobe Illustrator 25.2.1, SVG Export Plug-In . SVG Version: 6.00 Build 0)  -->
<svg version="1.1"
	 id="Layer_1" xmlns:cc="http://creativecommons.org/ns#" xmlns:dc="http://purl.org/dc/elements/1.1/" xmlns:inkscape="http://www.inkscape.org/namespaces/inkscape" xmlns:rdf="http://www.w3.org/1999/02/22-rdf-syntax-ns#" xmlns:sodipodi="http://sodipodi.sourceforge.net/DTD/sodipodi-0.dtd" xmlns:svg="http://www.w3.org/2000/svg"
	 xmlns="http://www.w3.org/2000/svg" xmlns:xlink="http://www.w3.org/1999/xlink" x="0px" y="0px" viewBox="0 0 720 480"
	 style="enable-background:new 0 0 720 480;" xml:space="preserve">
<g>
	<path id="rect2489"   style="fill:#CF142B;" d="M0,0h720v480H0V0z"/>
</g>
<path id="path4504"  style=";fill:#F9DD16;fill-opacity:0.9874;stroke:#000000;stroke-width:0.294;stroke-miterlimit:10;" d="
	M308.1,215.1c-0.9-1.2,18,9.1,20.6,9.3c3.6-1.7,18.2-18.3,18.2-18.3c0.1,1.6,6.3,10.5,7.8,11.4c-5.7,6.1-15.9,7.7-22.2,13.5
	c3.5,9.1,3.8,12,7.5,23c0,0-12.2,1.6-12.2,1.5c-3.8-5.2,0.3-25.1,0.3-25.1c-6.2-3.7-16.9-3.1-23.1-6.8
	C305.9,222.6,308.5,217.4,308.1,215.1L308.1,215.1z"/>
<g id="g4408" transform="matrix(0.3498026,0,0,0.3498026,163.24255,23.83426)">
	<g id="g4470" transform="matrix(-1.107009,2.132209,-2.132209,-1.10701,906.73765,-15.62964)">

			<path id="path4472"  style=";fill:#F9DD16;fill-opacity:0.9882;stroke:#000000;stroke-width:0.7063;stroke-miterlimit:2.825;" d="
			M307.8,166.5c0.2-0.5,1.2-5.4,1-5.4s-7.6-7.5-7.4-7.5s10.6,0.9,10.7,0.5c0-0.3,5.4-9.4,5.4-9.5c0-0.2,3.8,9.9,3.8,9.9l10,2.8l-8,6
			c0,0,0.4,9.8,0.4,10s-6.6-5.1-6.6-5.1l-8.2,1.7C308.9,169.8,308.2,166.8,307.8,166.5L307.8,166.5z"/>

			<path id="path4474"   style=";fill:#FFFFFF;stroke:#000000;stroke-width:1.0925;stroke-miterlimit:2.825;" d="
			M267.4,41.2C260,45,229.8,74,225.6,78.5c-3.8,6.2-10.8,14.4-17.7,19.8c-7.2,5-11.6,11.2-11.4,16.6c-0.9,6.9,3,11.1,6,15.5
			c1.9,2,4.6,3.1,7.6,2.9c6.2,0,6.5,1.6,9.6,2.3c10.6,13,27.7,21.5,39.9,28.4c8,2.9,13.4,6,15.2,7.9c3.1,5.9,1.6,12.1,0.7,15.2
			c-4.6,10.9-9.3,21.8-13.9,32.7c-2.8,8.8,6.3,5.9,7,4.1c4.5-4.8,10.1-2.4,21.8-28.6c4.5-4.9,8.9-9.7,13.4-14.6c0,0,4.7-2,4.7-2.4
			c7.7-7.7,3-11.1-0.7-11.9c-2.7-0.6-5.5-1.2-8.2-1.7c0,0-8.8-7.3-9.3-7.3c-3.2-11.1-23.2-33.5-28.1-36.4c-4.9-2.4-2.6-3.9-7.9-5.3
			c-3.9-1.5-1.2-1-10.1-2.9c-2.6-0.6-0.3-3.4,1.6-4.8c19.3-10.4,35-21.3,53.7-32.7c1-0.6,1.9-1.2,2.9-1.8
			c-0.8-9.9-1.6-19.8-2.4-29.8c-9.4-1.9-18.7-3.7-28.1-5.6C270.1,39.1,268.9,40.2,267.4,41.2L267.4,41.2z"/>

			<path id="path4476"   style=";fill:#F9DD16;" d="
			M271.4,198.9c0.1-0.3,18.7-5.1,18.7-5.1s-2.8,5.9-2.9,5.9l-18.7,6.6L271.4,198.9z"/>

			<path id="path4478"   style="fill:none;stroke:#000000;stroke-width:0.7063;stroke-miterlimit:2.825;" d="
			M231.5,146c4.5-8.3,15-15.6,21.8-18"/>

			<path id="path4480"   style="fill:none;stroke:#000000;stroke-width:0.781;stroke-miterlimit:2.825;" d="
			M270.7,199.1c1.2-0.4,6.6-2.3,8.1-2.6c1.7-0.5,3.3-1,4.9-1.6c1.8-0.5,3-0.9,4.9-1.4c1.5-0.6,3-1.1,4.6-1.6 M266.2,209
			c0.2-0.2,1.5-1.2,2.5-1.8c1.1-0.4,4.8-2.1,6.2-2.4c1.5-0.5,3-1,4.4-1.6c1.6-0.5,2.7-0.9,4.4-1.3c1.4-0.6,2.7-1.1,4.1-1.5"/>

			<path id="path4482"   style="fill:none;stroke:#000000;stroke-width:0.7063;stroke-miterlimit:2.825;" d="
			M281.9,142.7c-0.1,0-0.2,0-0.3,0c0.8-0.1,0.3-0.1-0.9,1.2c-0.5,0.9-4.1,3.3-6.6,3.6c-1.2,0.2-3.1,0.6-4.3,0.7
			c-0.3,0-0.8-0.1-1.1-0.1"/>

			<path id="path4484"  style="fill:none;stroke:#000000;stroke-width:0.7063;stroke-miterlimit:2.825;" d="
			M275.9,188.3c0.1,0,0.2,0,0.3,0c-0.3,0,0.7-0.1,1-0.1c1.4-0.1,2.7-0.1,3.9-0.2c1.3-0.1,2.6,0,3.9-0.1c1.3,0,2.9-0.2,4.2-0.2
			c1.5-0.1,2.7,0,4.3-0.2c1.3-0.1,1.9,0,3.4-0.1l-3.4,0.1c1.3-0.1,1.9,0,3.4-0.1"/>

			<path id="path4486"   style="fill:none;stroke:#000000;stroke-width:0.7063;stroke-miterlimit:2.825;" d="
			M263.6,216.3c0.2-0.2,1.4-1.2,2.3-1.8c1-0.4,4.4-2,5.7-2.4c1.4-0.5,2.7-1,4.1-1.5c1.5-0.5,2.5-0.9,4-1.3c1.3-0.6,2.5-1.1,3.8-1.5"
			/>

			<path id="path4488"   style="fill:none;stroke:#000000;stroke-width:0.7063;stroke-miterlimit:2.825;" d="
			M292.9,175.2c-1,1.9-0.1,2.2,0.2,3c0.6,0.7,2.2,1.7,4.9,2.1c1,0.1,1.8,0.3,3,0.5c0.8,0,1.2,0.1,1.8,0.2"/>

			<path id="path4490"  style="fill:none;stroke:#000000;stroke-width:0.7063;stroke-miterlimit:2.825;" d="
			M198.2,119.7c0.1,0,0.2,0,0.3,0c-0.8,0.1-0.3,0.1,1.2-1c0.9-0.9,1.7-1.3,2.6-2.2"/>

			<path id="path4492"   style="fill:none;stroke:#000000;stroke-width:0.7063;stroke-miterlimit:2.825;" d="
			M213.1,133.6c0.2,0,16-8.1,17.8-9.6c1.2-0.8,2.2-1.6,3.7-2.6c0.9-0.5,1.6-1.1,2.5-1.6c0.8-0.9,1.8-1.5,2.4-2.4
			c1-0.8,0.7-1.5,1.6-2.4c0.5-0.9,1.3-2.4,1.6-3.1"/>

			<path id="path4494"   style="fill:none;stroke:#000000;stroke-width:0.7063;stroke-miterlimit:2.825;" d="
			M260.4,119.5c0,0.4-0.5,1.9-0.6,3c-0.2,1.2-2.6,5.3-5,6.7"/>

			<path id="path4496"   style="fill:none;stroke:#000000;stroke-width:0.7063;stroke-miterlimit:2.825;" d="
			M233.5,122.2c0.1,0,2.3,0.4,6,1c4.4,0.9,13.3,5,14.2,5.6c0.9,0.5,2.5,0.9,3.1,1.6c0.9,0.6,1.6,1.4,2.3,2.2c0.8,0.9,1.5,1.6,2,2.4
			c2.6,1.7,8.7,14.7,8.8,15.4c0.3,0.7,0.8,1.6,1,2.3c0.5,0.5,0.8,1.3,1.3,2c0.4,1,1,1.5,1.5,2.2c0.8,0.4,1.8,1.3,2.9,1.7
			c1.1,0.7,2.1,1,2.9,1.4c1.2,0.3,14,6.2,14.6,6.5c1.1,0.7,4.6,3.7,1.5,6.4c-1.2,1-2.4,2.2-3.5,2.7c-1.1,1-2.5,1.5-3.7,2
			c-6.4,2.2-9.5,2-10.7,2.1c-0.4,0-0.9,0.1-1.3,0.1"/>

			<path id="path4498"  style="fill:none;stroke:#000000;stroke-width:0.7063;stroke-miterlimit:2.825;" d="
			M206.9,99.6c0.1,0,0.2,0,0.3,0c-0.7,0.1-0.3,0,1,0.1c1,0.3,2.5,0.5,3.5,0.7c1.1,0.2,2.5,0.2,3,0.5c1.2,0,1.8,0.6,2.7,1
			c1,0.7,1.8,1.2,2.9,1.7c1.3,0.7,2.4,1,3.7,1.6c1.4,0.1,2.3,0.4,3.8,0.2c1.4-0.1,2.6-0.1,4.1-0.2c1.2-0.1,2.4-0.3,3.7-0.4l-3.7,0.4
			c1.2-0.1,2.4-0.3,3.7-0.4"/>

			<path id="path4500"  style="fill:none;stroke:#000000;stroke-width:0.7063;stroke-miterlimit:2.825;" d="
			M294.5,64.6c-0.2,0-0.3,0-0.5,0.1c1-0.1,0.7-0.1-0.8,0.3c-1.6,0.8-3.7,1.6-5.2,2.3c-1.6,0.6-3.3,1.3-4.9,2.1c-1.8,1-3.4,1.8-5,2.9
			c-1.6,0.8-3.2,1.8-4.7,2.7c-1.5,0.8-2.8,1.6-4.2,2.6c-1.1,0.6-2.6,1.5-3.9,2.4c-1.1,0.5-2,1.2-2.8,1.8c-1.5,1.2-2.4,1.8-4,3
			c-0.8,0.7-1.9,1.5-3.2,2.5c-1.3,0.8-2.7,2.2-3.7,3c-0.7,0.7-1.7,1.6-2.6,2.2c-0.8,0.8-1.7,1.8-2.6,2.5c-0.6,0.7-1.7,1.7-2.7,2.7
			c-0.8,0.8-1.9,1.6-2.6,2.5c-1,0.9-1.8,1.9-2.9,2.7c-0.2,0.5-0.7,0.8-0.9,1.2"/>

			<path id="path4502"   style=";fill:#F9DD16;stroke:#000000;stroke-width:0.7063;stroke-miterlimit:2.825;" d="
			M204.1,114.3c3.9-0.6,10.3-0.4,10.5-0.4l8.6-1c4.6-0.9,5.8-2.4,6.6-3.6c2-2.4,3.2-3.3,4.8-5.1c2.3-1.6,4.7,1.2,4.9,1.2
			c6.6,5.1-0.2,12.9-0.6,13.2c-4,3.2-4.8,3.5-6.8,1.9c-1.9-2-2.5-2.9-4.2-3.5c-3.3-1.1-10.8,0.8-10.9,0.9c-0.1,0-3.9,1.6-3.9,1.6
			c-1.9,0.7-3.2,2.2-6.3,3c-3.2,0.5-4.2,0.4-5.5-1.6C199.5,118.4,201,114.9,204.1,114.3L204.1,114.3z"/>
	</g>
</g>
<g id="g4408_1_" transform="matrix(0.3498026,0,0,0.3498026,163.24255,23.83426)">
	<g id="g4470_1_" transform="matrix(-1.107009,2.132209,-2.132209,-1.10701,906.73765,-15.62964)">

			<path id="path4472_1_"  style=";fill:#F9DD16;fill-opacity:0.9882;stroke:#000000;stroke-width:0.7063;stroke-miterlimit:2.825;" d="
			M200.2-25.7c0.3,0.5,3.7,4.1,3.8,3.9c0.1-0.2,10.5-1.9,10.4-1.7c-0.1,0.2-6.9,8.1-6.6,8.4c0.2,0.2,4.6,9.8,4.6,9.9
			c0.2,0.1-10.3-2.6-10.3-2.6l-8.1,6.5l-0.3-10c0,0-8.2-5.3-8.4-5.4c-0.2-0.1,8-2.4,8-2.4l3.3-7.7C196.9-26.7,199.7-25.5,200.2-25.7
			L200.2-25.7z"/>

			<path id="path4474_1_"   style=";fill:#FFFFFF;stroke:#000000;stroke-width:1.0925;stroke-miterlimit:2.825;" d="
			M325.8,13.7c1.2-8.2-5.1-49.6-6.3-55.7c-2.9-6.7-5.5-17.1-5.9-25.9c0.1-8.8-2.4-15.9-7-18.9c-5.1-4.7-10.8-4-16.1-4.1
			c-2.7,0.4-5.2,2-6.8,4.5c-3.6,5.1-5.1,4.4-7.4,6.5c-16.7,1.1-33.5,10.2-46.2,16.2c-7,4.9-12.6,7.5-15.2,7.8
			c-6.6-0.9-10.8-5.7-12.8-8.2c-6.2-10.1-12.4-20.2-18.7-30.2c-5.6-7.4-8.5,1.7-7.4,3.3c1.3,6.4-3.9,9.6,10.8,34.3
			c1.4,6.5,2.8,12.9,4.2,19.4c0,0-1.1,5-0.8,5.2c1.8,10.7,7.3,8.9,10.1,6.3c2-1.9,4.2-3.8,6.1-5.7c0,0,11-3,11.3-3.4
			c10.9,3.8,40.7,0.4,45.9-1.9c4.8-2.6,4.7,0.1,8.9-3.4c3.5-2.3,1.5-0.4,8.2-6.6c2-1.8,2.9,1.7,3,4.1c-2.7,21.8-2.8,40.9-4.3,62.7
			c-0.1,1.2-0.1,2.2-0.2,3.4c8.5,5.1,17.1,10.1,25.7,15.2c7-6.6,13.8-13.1,20.8-19.7C326,17.1,325.8,15.5,325.8,13.7L325.8,13.7z"/>

			<path id="path4476_1_"   style=";fill:#F9DD16;" d="
			M194.8-74.1c0.2,0.3-6.6,18.2-6.6,18.2s-3.2-5.7-3.1-5.8l5.4-19.1L194.8-74.1z"/>

			<path id="path4478_1_"   style="fill:none;stroke:#000000;stroke-width:0.7063;stroke-miterlimit:2.825;" d="
			M261-76.1c4.2,8.5,4.1,21.3,2.1,28.2"/>

			<path id="path4480_1_"   style="fill:none;stroke:#000000;stroke-width:0.781;stroke-miterlimit:2.825;" d="
			M195-74.8c-0.4,1.2-1.9,6.7-2.6,8.1c-0.6,1.7-1.1,3.3-1.5,4.9c-0.6,1.8-1,3-1.7,4.8c-0.4,1.6-0.8,3.1-1.4,4.7 M189.5-84.2
			c0,0.3,0.1,1.9,0,3.1c-0.3,1.1-1.1,5.1-1.6,6.4c-0.5,1.5-0.9,3-1.2,4.5c-0.5,1.6-0.8,2.7-1.5,4.3c-0.3,1.5-0.7,2.8-1.1,4.2"/>

			<path id="path4482_1_"   style="fill:none;stroke:#000000;stroke-width:0.7063;stroke-miterlimit:2.825;" d="
			M234.6-33.1c0.1-0.1,0.1-0.2,0.2-0.2c-0.4,0.7-0.1,0.3-0.5-1.4c-0.4-0.9-0.3-5.3,0.9-7.5c0.5-1.1,1.3-2.9,1.9-3.9
			c0.2-0.2,0.5-0.6,0.7-0.8"/>

			<path id="path4484_1_"  style="fill:none;stroke:#000000;stroke-width:0.7063;stroke-miterlimit:2.825;" d="
			M200.8-64.3c-0.1,0.1-0.1,0.2-0.2,0.2c0.2-0.2-0.3,0.6-0.5,0.9c-0.7,1.2-1.5,2.3-2.1,3.3c-0.7,1.1-1.5,2.1-2.2,3.2
			c-0.8,1.1-1.5,2.5-2.3,3.5c-0.8,1.3-1.6,2.2-2.3,3.6c-0.7,1.1-1.1,1.6-1.9,2.8l1.9-2.8c-0.7,1.1-1.1,1.6-1.9,2.8"/>

			<path id="path4486_1_"   style="fill:none;stroke:#000000;stroke-width:0.7063;stroke-miterlimit:2.825;" d="
			M185.1-90.5c0,0.3,0.2,1.8,0.1,2.9c-0.3,1-0.9,4.7-1.3,6c-0.4,1.4-0.7,2.8-1.1,4.2c-0.5,1.5-0.7,2.6-1.2,4c-0.3,1.4-0.5,2.7-1,4"
			/>

			<path id="path4488_1_"   style="fill:none;stroke:#000000;stroke-width:0.7063;stroke-miterlimit:2.825;" d="
			M201.7-42.8c-1-1.9-1.7-1.4-2.6-1.6c-0.9,0.1-2.7,0.8-4.5,2.8c-0.7,0.8-1.3,1.3-2.1,2.2c-0.5,0.7-0.8,0.9-1.2,1.4"/>

			<path id="path4490_1_"  style="fill:none;stroke:#000000;stroke-width:0.7063;stroke-miterlimit:2.825;" d="
			M301.7-88.1c-0.1,0.1-0.1,0.2-0.2,0.2c0.4-0.7,0.1-0.3,0.1,1.6c0.2,1.3,0.1,2.1,0.3,3.4"/>

			<path id="path4492_1_"   style="fill:none;stroke:#000000;stroke-width:0.7063;stroke-miterlimit:2.825;" d="
			M281.7-84c-0.1,0.2-2.6,17.7-2.4,20.1c0,1.4,0,2.7,0,4.5c-0.1,1,0,1.9-0.1,3c0.3,1.2,0.2,2.3,0.6,3.3c0.1,1.3,0.8,1.4,1,2.7
			c0.4,0.9,1.2,2.4,1.6,3.1"/>

			<path id="path4494_1_"   style="fill:none;stroke:#000000;stroke-width:0.7063;stroke-miterlimit:2.825;" d="
			M265.9-37.2c-0.3-0.2-1.3-1.5-2.1-2.2c-0.9-0.9-2.8-5.2-2.6-8"/>

			<path id="path4496_1_"   style="fill:none;stroke:#000000;stroke-width:0.7063;stroke-miterlimit:2.825;" d="
			M279.3-60.7c-0.1,0.1-1.7,1.6-4.3,4.3c-3.3,3.1-11.8,8-12.8,8.4c-0.9,0.4-2.2,1.5-3.1,1.6c-1,0.4-2.1,0.5-3.1,0.6
			c-1.2,0.1-2.2,0.3-3.1,0.2c-2.9,1.1-17-1.4-17.7-1.7c-0.7-0.2-1.8-0.3-2.5-0.5c-0.7,0.1-1.5-0.1-2.4-0.1c-1-0.3-1.8,0-2.7,0
			c-0.8,0.4-2.1,0.7-3.1,1.4c-1.2,0.5-2,1.1-2.8,1.6c-0.9,0.8-13.1,7.8-13.7,8.2c-1.2,0.5-5.7,1.6-6.1-2.5c-0.1-1.6-0.4-3.2-0.2-4.4
			c-0.2-1.5,0.2-2.9,0.5-4.2c1.9-6.5,3.9-8.9,4.5-9.9c0.2-0.3,0.4-0.8,0.7-1.1"/>

			<path id="path4498_1_"  style="fill:none;stroke:#000000;stroke-width:0.7063;stroke-miterlimit:2.825;" d="
			M313.1-69.4c-0.1,0.1-0.1,0.2-0.2,0.2c0.3-0.6,0.2-0.2-0.7,0.8c-0.8,0.6-1.9,1.8-2.6,2.5c-0.8,0.8-1.6,1.9-2.1,2.2
			c-0.7,1-1.5,1.1-2.4,1.6c-1.1,0.4-2,0.8-3.1,1.4c-1.3,0.7-2.2,1.4-3.4,2.1c-0.9,1.1-1.7,1.6-2.4,3c-0.7,1.2-1.4,2.2-2.2,3.5
			c-0.6,1-1.1,2.1-1.8,3.3l1.8-3.3c-0.6,1-1.1,2.1-1.8,3.3"/>

			<path id="path4500_1_"  style="fill:none;stroke:#000000;stroke-width:0.7063;stroke-miterlimit:2.825;" d="
			M291.1,22.3c0.1-0.2,0.2-0.2,0.2-0.5c-0.5,0.9-0.3,0.6,0.2-0.8c0.3-1.8,0.8-3.9,1.1-5.6c0.4-1.7,0.8-3.4,1.1-5.2
			c0.2-2,0.5-3.8,0.5-5.8c0.3-1.8,0.4-3.7,0.5-5.4c0.2-1.7,0.3-3.2,0.3-4.9c0.1-1.2,0.3-3,0.3-4.6c0.2-1.2,0.2-2.3,0.1-3.3
			c-0.1-1.9-0.1-3-0.1-5c-0.1-1.1-0.1-2.4-0.2-4.1c0.1-1.5-0.2-3.5-0.3-4.8c-0.2-1-0.3-2.3-0.3-3.4c-0.2-1.1-0.5-2.4-0.5-3.6
			c-0.2-0.9-0.4-2.4-0.6-3.8c-0.2-1.1-0.2-2.5-0.5-3.6c-0.2-1.3-0.5-2.6-0.5-3.9c-0.3-0.5-0.2-1-0.5-1.4"/>

			<path id="path4502_1_"   style=";fill:#F9DD16;stroke:#000000;stroke-width:0.7063;stroke-miterlimit:2.825;" d="
			M302.7-80.2c-1.8,3.5-5.6,8.6-5.7,8.8l-4.2,7.6c-1.9,4.3-1.4,6.1-0.9,7.5c0.8,3,0.8,4.5,1.4,6.9c0,2.8-3.7,3.1-3.8,3.3
			c-8,2.4-10.4-7.6-10.4-8.1c-0.3-5.1-0.1-5.9,2.4-6.6c2.7-0.4,3.8-0.4,5.3-1.4c2.8-2.1,5.6-9.3,5.6-9.4c0.1-0.1,0.9-4.1,0.9-4.1
			c0.5-2,0.1-3.9,1.2-6.9c1.4-2.9,2.1-3.7,4.5-3.6C302-86.3,304-83,302.7-80.2L302.7-80.2z"/>
	</g>
</g>
<g id="g4408_2_" transform="matrix(0.3498026,0,0,0.3498026,163.24255,23.83426)">
	<g id="g4470_2_" transform="matrix(-1.107009,2.132209,-2.132209,-1.10701,906.73765,-15.62964)">

			<path id="path4472_3_"  style=";fill:#F9DD16;fill-opacity:0.9882;stroke:#000000;stroke-width:0.7063;stroke-miterlimit:2.825;" d="
			M418.1-8.8c-0.5,0-5.5,0.9-5.4,1.1c0.1,0.2-4.1,9.9-4.2,9.7c-0.1-0.2-3.2-10.2-3.6-10.1c-0.3,0.1-10.7-1.5-10.8-1.4
			c-0.2,0.1,7.7-7.3,7.7-7.3l-1.2-10.3l8.6,5.1c0,0,8.9-4.1,9.1-4.1c0.2-0.1-2.2,8-2.2,8l4.7,7C420.7-11.1,418.2-9.3,418.1-8.8
			L418.1-8.8z"/>

			<path id="path4474_2_"   style=";fill:#FFFFFF;stroke:#000000;stroke-width:1.0925;stroke-miterlimit:2.825;" d="
			M317.3,75.9c6.3,5.4,44.6,22.4,50.3,24.6c7.2,1.2,17.4,4.6,25,8.9c7.3,4.8,14.8,6.5,19.7,4.3c6.7-1.8,9.1-7,12.1-11.4
			c1.1-2.5,1.1-5.4-0.2-8.1c-2.3-5.7-1-6.6-1.5-9.8c8-14.7,9.4-33.8,11.2-47.7c-0.3-8.5,0.5-14.7,1.6-17.1
			c4.3-5.1,10.6-6.1,13.8-6.4c11.8,0.1,23.7,0.4,35.5,0.5c9.2-0.7,3.1-8.1,1.2-8c-6.1-2.4-6-8.4-34.7-9.4
			c-6.2-2.3-12.3-4.6-18.6-6.9c0,0-3.6-3.6-4-3.4c-10-4.2-11.4,1.4-10.8,5.1c0.5,2.7,1,5.5,1.5,8.2c0,0-3.4,10.9-3.2,11.4
			c-9.1,7.2-22.3,34.1-23.1,39.8c-0.4,5.4-2.6,3.9-1.9,9.3c0.1,4.2-0.5,1.5,1.1,10.4c0.4,2.6-3,1.6-5,0.3
			c-16.9-13.9-32.9-24.4-50.6-37.4c-0.9-0.7-1.8-1.3-2.8-2c-8.9,4.5-17.7,9-26.7,13.5c1.8,9.4,3.6,18.7,5.4,28.1
			C314.4,74.2,315.8,74.9,317.3,75.9L317.3,75.9z"/>

			<path id="path4476_2_"   style=";fill:#F9DD16;" d="
			M461.8,12.6c-0.3,0-11.8-15.4-11.8-15.4s6.5,0.4,6.6,0.5l13.2,14.8L461.8,12.6z"/>

			<path id="path4478_2_"   style="fill:none;stroke:#000000;stroke-width:0.7063;stroke-miterlimit:2.825;" d="
			M427.9,69.6c-9.4-1-20.1-8-24.9-13.4"/>

			<path id="path4480_2_"   style="fill:none;stroke:#000000;stroke-width:0.781;stroke-miterlimit:2.825;" d="
			M462.3,13.2c-0.8-1-4.6-5.2-5.5-6.5c-1.1-1.4-2.2-2.7-3.3-3.9c-1.1-1.5-2-2.4-3.1-4c-1.1-1.2-2.2-2.4-3.2-3.7 M473.2,13.6
			c-0.3-0.1-1.7-0.9-2.6-1.6c-0.8-0.9-3.8-3.7-4.6-4.8c-1-1.2-2.1-2.4-3.1-3.5c-1.1-1.3-1.9-2.2-2.9-3.6c-1.1-1.1-2-2.1-2.9-3.2"/>

			<path id="path4482_2_"   style="fill:none;stroke:#000000;stroke-width:0.7063;stroke-miterlimit:2.825;" d="
			M405.8,24.1c0,0.1,0.1,0.2,0.1,0.3c-0.4-0.7-0.2-0.2,1.5,0.4c1,0.1,4.6,2.6,5.8,4.8c0.6,1,1.7,2.6,2.3,3.7
			c0.1,0.3,0.2,0.8,0.3,1.1"/>

			<path id="path4484_2_"  style="fill:none;stroke:#000000;stroke-width:0.7063;stroke-miterlimit:2.825;" d="
			M450.3,12.5c0-0.1-0.1-0.2-0.1-0.3c0.1,0.3-0.4-0.6-0.5-0.9c-0.6-1.3-1.1-2.5-1.7-3.5c-0.6-1.2-1-2.4-1.6-3.6
			c-0.5-1.2-1.3-2.6-1.8-3.8c-0.7-1.4-1-2.5-1.8-3.9c-0.6-1.2-0.7-1.8-1.4-3.1l1.4,3.1c-0.6-1.2-0.7-1.8-1.4-3.1"/>

			<path id="path4486_2_"   style="fill:none;stroke:#000000;stroke-width:0.7063;stroke-miterlimit:2.825;" d="
			M480.9,13.3c-0.3-0.1-1.6-0.8-2.5-1.5c-0.7-0.8-3.5-3.3-4.4-4.4c-1-1.1-1.9-2.1-2.9-3.2c-1-1.2-1.8-2-2.7-3.2c-1-1-2-1.9-2.8-3"/>

			<path id="path4488_2_"   style="fill:none;stroke:#000000;stroke-width:0.7063;stroke-miterlimit:2.825;" d="
			M431.8,1.7c2.1,0.2,2.1-0.7,2.7-1.3c0.4-0.8,0.7-2.7,0.1-5.3c-0.3-1-0.4-1.8-0.7-3c-0.3-0.7-0.4-1.1-0.5-1.7"/>

			<path id="path4490_2_"  style="fill:none;stroke:#000000;stroke-width:0.7063;stroke-miterlimit:2.825;" d="
			M416.1,110.3c0-0.1-0.1-0.2-0.1-0.3c0.4,0.7,0.2,0.2-1.4-0.7c-1.2-0.5-1.8-1.1-3-1.6"/>

			<path id="path4492_2_"   style="fill:none;stroke:#000000;stroke-width:0.7063;stroke-miterlimit:2.825;" d="
			M423.4,91.3c-0.1-0.2-13.5-11.8-15.6-12.9c-1.2-0.8-2.3-1.4-3.8-2.4c-0.8-0.6-1.6-1.1-2.4-1.7c-1.1-0.4-2.1-1.1-3.1-1.3
			c-1.1-0.6-1.7-0.1-2.8-0.6c-1-0.1-2.7-0.3-3.5-0.3"/>

			<path id="path4494_2_"   style="fill:none;stroke:#000000;stroke-width:0.7063;stroke-miterlimit:2.825;" d="
			M392.5,52.8c0.4-0.2,1.9-0.3,3-0.6c1.2-0.3,5.9,0.4,8.1,2.1"/>

			<path id="path4496_2_"   style="fill:none;stroke:#000000;stroke-width:0.7063;stroke-miterlimit:2.825;" d="
			M405.1,76.7c0-0.1-0.5-2.3-1.3-5.9c-0.8-4.4-0.4-14.2-0.2-15.3c0.1-1-0.1-2.7,0.3-3.5c0.2-1.1,0.7-2,1.2-3c0.5-1.1,0.9-2,1.5-2.8
			c0.6-3,10.3-13.6,10.9-14c0.5-0.5,1.2-1.3,1.8-1.8c0.3-0.7,0.9-1.2,1.4-2c0.8-0.7,1-1.5,1.5-2.2c0.1-0.9,0.5-2.2,0.5-3.3
			c0.2-1.3,0.1-2.3,0.2-3.2c-0.2-1.2,0.5-15.3,0.5-16c0.2-1.3,1.7-5.7,5.4-3.8c1.4,0.7,2.9,1.4,3.8,2.2c1.3,0.6,2.3,1.7,3.2,2.7
			c4.5,5.1,5.4,8,6,9.1c0.2,0.4,0.4,0.8,0.6,1.2"/>

			<path id="path4498_2_"  style="fill:none;stroke:#000000;stroke-width:0.7063;stroke-miterlimit:2.825;" d="
			M394.3,109.8c0-0.1-0.1-0.2-0.1-0.3c0.4,0.6,0.1,0.3-0.3-1c-0.1-1-0.5-2.5-0.7-3.5c-0.2-1.1-0.8-2.4-0.7-3
			c-0.5-1.1-0.1-1.9-0.1-2.9c0.3-1.2,0.4-2.1,0.5-3.3c0.2-1.5,0-2.6,0.1-4c-0.4-1.3-0.5-2.3-1.2-3.6c-0.6-1.3-1.1-2.4-1.7-3.7
			c-0.5-1.1-1.2-2.1-1.8-3.3l1.8,3.3c-0.5-1.1-1.2-2.1-1.8-3.3"/>

			<path id="path4500_2_"  style="fill:none;stroke:#000000;stroke-width:0.7063;stroke-miterlimit:2.825;" d="
			M328.8,41.9c0.1,0.2,0.1,0.3,0.3,0.4c-0.5-0.9-0.4-0.6,0.6,0.6c1.3,1.2,2.9,2.8,4.1,3.9c1.2,1.3,2.4,2.6,3.8,3.7
			c1.6,1.3,3,2.5,4.6,3.5c1.3,1.2,2.9,2.3,4.3,3.3c1.3,1.1,2.5,2,4,2.9c1,0.8,2.4,1.8,3.7,2.7c0.9,0.8,1.9,1.4,2.7,1.9
			c1.7,0.9,2.6,1.5,4.3,2.6c1,0.5,2.1,1.2,3.5,2c1.2,0.9,3.1,1.7,4.2,2.3c0.9,0.4,2.1,1,3,1.6c1,0.4,2.3,0.9,3.3,1.5
			c0.9,0.3,2.2,0.9,3.5,1.5c1,0.4,2.2,1.2,3.3,1.5c1.2,0.6,2.4,0.9,3.6,1.7c0.5,0,1,0.3,1.5,0.4"/>

			<path id="path4502_2_"   style=";fill:#F9DD16;stroke:#000000;stroke-width:0.7063;stroke-miterlimit:2.825;" d="
			M408.9,106.9c-2-3.4-4.3-9.4-4.3-9.6l-4.2-7.6c-2.6-3.9-4.4-4.5-5.8-4.8c-3-0.9-4.3-1.7-6.5-2.5c-2.4-1.5-0.7-4.8-0.7-5
			c2.2-8,12-4.7,12.4-4.4c4.5,2.5,5.1,3.1,4.3,5.6c-1.1,2.5-1.7,3.4-1.7,5.2c0.2,3.5,4.8,9.7,4.9,9.8c0,0.1,3,3,3,3
			c1.4,1.5,3.2,2.1,5.2,4.7c1.7,2.8,2,3.7,0.6,5.7C414.5,109.6,410.6,109.5,408.9,106.9L408.9,106.9z"/>
	</g>
</g>
</svg>
