<?xml version="1.0" encoding="utf-8"?>
<!-- Generator: Adobe Illustrator 25.2.1, SVG Export Plug-In . SVG Version: 6.00 Build 0)  -->
<svg version="1.1" id="Layer_1" xmlns="http://www.w3.org/2000/svg" xmlns:xlink="http://www.w3.org/1999/xlink" x="0px" y="0px"
	 viewBox="0 0 720 480" style="enable-background:new 0 0 720 480;" xml:space="preserve">
<g>
	<rect style="fill:#032EA1;" width="720" height="480"/>
	<rect y="120" style="fill:#E00025;" width="720" height="240"/>
	<g transform="translate(117.14286,-434.9336)">
		<g>
			<path style="fill:#FFFFFF;stroke:#000000;stroke-width:0.96;stroke-linejoin:bevel;" d="M178,661.2h131.1v52.5H178V661.2z"/>
			
				<rect x="302.3" y="690.2" style="fill:#FFFFFF;stroke:#000000;stroke-width:0.96;stroke-linejoin:bevel;" width="4.1" height="19.8"/>
			
				<rect x="178" y="680.4" style="fill:#FFFFFF;stroke:#000000;stroke-width:0.96;stroke-linejoin:bevel;" width="131.1" height="6.1"/>
			
				<rect x="178" y="672.1" style="fill:#FFFFFF;stroke:#000000;stroke-width:0.96;stroke-linejoin:bevel;" width="131.1" height="5.4"/>
			
				<rect x="178" y="663.9" style="fill:#FFFFFF;stroke:#000000;stroke-width:0.9455;stroke-linejoin:bevel;" width="131.1" height="5.2"/>
			
				<rect x="212.5" y="690.2" style="fill:#FFFFFF;stroke:#000000;stroke-width:0.96;stroke-linejoin:bevel;" width="4.1" height="19.8"/>
			
				<rect x="268.9" y="690.2" style="fill:#FFFFFF;stroke:#000000;stroke-width:0.96;stroke-linejoin:bevel;" width="4.1" height="19.8"/>
			
				<rect x="179" y="690.2" style="fill:#FFFFFF;stroke:#000000;stroke-width:0.96;stroke-linejoin:bevel;" width="4.1" height="19.8"/>
			
				<rect x="187.1" y="690.2" style="fill:#FFFFFF;stroke:#000000;stroke-width:0.96;stroke-linejoin:bevel;" width="4.1" height="19.8"/>
			
				<rect x="195.7" y="690.2" style="fill:#FFFFFF;stroke:#000000;stroke-width:0.96;stroke-linejoin:bevel;" width="4.1" height="19.8"/>
			
				<rect x="204.4" y="690.2" style="fill:#FFFFFF;stroke:#000000;stroke-width:0.96;stroke-linejoin:bevel;" width="4.1" height="19.8"/>
			
				<rect x="276.7" y="690.2" style="fill:#FFFFFF;stroke:#000000;stroke-width:0.96;stroke-linejoin:bevel;" width="4.1" height="19.8"/>
			
				<rect x="285.4" y="690.2" style="fill:#FFFFFF;stroke:#000000;stroke-width:0.96;stroke-linejoin:bevel;" width="4.1" height="19.8"/>
			
				<rect x="294" y="690.2" style="fill:#FFFFFF;stroke:#000000;stroke-width:0.96;stroke-linejoin:bevel;" width="4.1" height="19.8"/>
			<path style="fill:#FFFFFF;stroke:#000000;stroke-width:0.96;" d="M126.7,716.5c2-1.1,4.3-3.6,5.1-6.4h222.4
				c0.8,2.8,3.1,5.3,5.1,6.4H126.7z"/>
		</g>
		<g>
			<g>
				<path style="fill:#FFFFFF;stroke:#000000;stroke-width:0.96;" d="M240.1,581.2c0,0-0.2-4.9,2.6-5c2.8,0.1,2.6,5,2.6,5H240.1z"/>
				<path style="fill:#FFFFFF;stroke:#000000;stroke-width:0.96;" d="M225.8,646.6V640c-0.1-3.3-3.2-3.6-3.3-6c0,0-0.4-3.6,0.5-5.3
					c1.2,4.9,3.5,4,3.5,2c0-1.7-1.3-3.4-3.9-7.6c-0.8-1.4-0.3-5.6,0.9-7.1c0.5,3.7,1,5.4,2.5,5.4c0.9,0,1.7-0.6,1.7-2.5
					c0-2.3-1.5-3.5-2.3-5.7c-0.9-2.5-0.3-5,1.2-6.5c0.6,3.6,0.4,5.1,2,5.1c3.1-1,0-5.7-0.7-6.9c-0.8-1.4,1-4.2,1-4.2
					c1,3.2,1.3,3.5,2.4,3.2c1.4-0.4,1.2-2.5-0.5-4.2c-1-1.1-0.9-2.7,0.2-3.9c1.1,2.3,2.6,2.1,2.7,0.8l-0.9-5.3h19.9l-1,5.1
					c-0.3,1.5,1.6,1.8,2.8-0.6c1.1,1.3,1.2,2.9,0.2,3.9c-1.7,1.7-1.8,3.8-0.5,4.2c1.1,0.3,1.4,0,2.4-3.2c0,0,1.6,1.9,1,4.2
					c-0.7,1.2-3.8,5.9-0.7,6.9c1.5,0,1.4-1.4,2-5.1c1.5,1.4,2.1,4,1.2,6.5c-0.8,2.1-2.3,3.3-2.3,5.7c0,1.8,0.8,2.5,1.7,2.5
					c1.5,0,2-1.8,2.5-5.4c1.2,1.5,1.7,5.8,0.9,7.1c-2.6,4.2-3.9,5.9-3.9,7.6c0,2,2.3,2.9,3.5-2c0.9,1.7,0.5,5.3,0.5,5.3
					c-0.1,2.4-3.2,2.7-3.3,6v6.6L225.8,646.6z"/>
				<path style="fill:#FFFFFF;stroke:#000000;stroke-width:0.96;" d="M234.1,591.4l-0.5-3.8h18.2l-0.5,3.8H234.1z"/>
				<path style="fill:#FFFFFF;stroke:#000000;stroke-width:0.96;" d="M235.3,587.6l-0.4-3.1h15.7l-0.4,3.1H235.3z"/>
				<path style="fill:#FFFFFF;stroke:#000000;stroke-width:0.96;" d="M237.8,584.4l-0.3-3.1H248l-0.3,3.1H237.8z"/>
				<path style="fill:#FFFFFF;stroke:#000000;stroke-width:0.96;" d="M275.8,716.5c-2.3-0.9-5.7-3.5-5.7-6.1v-29.2l3-4l-60.8,0
					l2.9,4v29.2c0,2.6-2.3,5.1-4.7,6.1L275.8,716.5z"/>
				
					<rect x="223.1" y="690.2" style="fill:#FFFFFF;stroke:#000000;stroke-width:0.96;stroke-linejoin:bevel;" width="4.1" height="19.8"/>
				
					<rect x="258.1" y="690.2" style="fill:#FFFFFF;stroke:#000000;stroke-width:0.96;stroke-linejoin:bevel;" width="4.1" height="19.8"/>
				<path style="fill:#FFFFFF;stroke:#000000;stroke-width:0.96;" d="M211.2,644v17.6v8.4v7.2h62.2v-7.1l0.1-26c-2.5,1-3,3.4-3,3.4
					v14.1h-56.2v-14.1C214.4,647.5,213.8,645.1,211.2,644L211.2,644z"/>
				<path style="fill:#FFFFFF;stroke:#000000;stroke-width:0.96;" d="M265,716.5c-2-0.9-6.5-3.5-6.5-6.1v-32.6
					c0.4-1.8,2.8-2.9,4.3-4h-41.3c2,1.1,4.2,2,4.9,4v32.6c0,2.6-3.5,5.1-5.5,6.1H265z"/>
				<path style="fill:#FFFFFF;stroke:#000000;stroke-width:0.96;" d="M270.6,674.1l0-23.5l-5.7,0v-2.3h-44.7v2.3l-5.7,0l0,23.5
					L270.6,674.1z"/>
				<path style="fill:#FFFFFF;stroke:#000000;stroke-width:0.96;" d="M256.1,716.5c-2-0.9-4.9-3.5-4.9-6.1v-27.9l1.6-2.5h-20.4
					l1.6,2.5v27.9c0,2.6-2.9,5.1-4.9,6.1L256.1,716.5z"/>
				<path style="fill:#FFFFFF;stroke:#000000;stroke-width:0.981;" d="M237.5,680l10.3,0v36.5h-10.3V680z"/>
				<path style="fill:#FFFFFF;stroke:#000000;stroke-width:0.96;stroke-linejoin:bevel;" d="M253.3,672c0-2.4,6.7-2.5,10.2-4.6H222
					c3.4,2,10,2.2,10,4.6l1.4,4.7l17.1,0.7L253.3,672z"/>
				<path style="fill:#FFFFFF;stroke:#000000;stroke-width:0.96;" d="M261.4,646.6c0-5.9,0.2-8.1,2-8.1l0,18.7
					c-4.3,1.6-7.3,7.3-7.3,7.3l-26.7,0c0,0-3-5.7-7.3-7.3v-18.7c2.1,0,2.2,2.4,2.2,8.1H261.4z"/>
				<path style="fill:#FFFFFF;stroke:#000000;stroke-width:0.96;" d="M263.3,644.2c0-6.7,5.6-7.5,5.6-7.5v6
					c-2.1-0.1-3.2,1.9-3.2,4.9c0,3,1.7,3,1.7,3v17h-4.1V644.2z"/>
				<path style="fill:#FFFFFF;stroke:#000000;stroke-width:0.96;" d="M222,644.2c0-6.7-5.6-7.5-5.6-7.5v6c2.1-0.1,3.2,1.9,3.2,4.9
					c0,3-1.7,3-1.7,3v17h4.1V644.2z"/>
			</g>
			<g>
				<path style="fill:none;stroke:#000000;stroke-width:0.8;" d="M233,597.8h19.7"/>
				<path style="fill:none;stroke:#000000;stroke-width:0.8;" d="M230.7,604.2h24.1"/>
				<path style="fill:none;stroke:#000000;stroke-width:0.8;" d="M228.4,612h28.7"/>
				<path style="fill:none;stroke:#000000;stroke-width:0.8;" d="M225.9,621.5h34"/>
				<path style="fill:none;stroke:#000000;stroke-width:0.8;" d="M225.1,632.3h35.1"/>
				<path style="fill:none;stroke:#000000;stroke-width:0.96;" d="M214.5,667.7h56.1"/>
				<rect x="232.3" y="667.7" style="fill:none;stroke:#000000;stroke-width:0.96;" width="20.8" height="8"/>
			</g>
			<g>
				<path style="fill:#FFFFFF;stroke:#000000;stroke-width:0.96;" d="M229.7,650.1c3.4,4.3,3.1,11.6,3.1,15.9h20
					c0-4.3-0.4-11.6,3.1-15.9H229.7z"/>
				<path style="fill:#FFFFFF;stroke:#000000;stroke-width:0.96;" d="M240.9,600.7l-2.7-1.5v-4.2c1.1,0.4,2.4,0.5,2.5,2.4
					c0.4-2.7,1.1-2.5,2.2-3.6c1.1,1,1.8,0.9,2.2,3.6c0.1-1.9,1.4-2,2.5-2.4v4.2l-2.7,1.5H240.9z"/>
				<path style="fill:#FFFFFF;stroke:#000000;stroke-width:0.96;" d="M240.7,607.6l-4.5-3.3v-3.9c1.6,0.4,3.4,0.5,3.6,2.6
					c0.6-2.9,1.6-4.4,3.1-5.5c1.6,1.1,2.6,2.6,3.1,5.5c0.2-2,2-2.2,3.6-2.6v3.9l-4.5,3.3H240.7z"/>
				<path style="fill:#FFFFFF;stroke:#000000;stroke-width:0.96;" d="M240.4,618.4l-5.2-4.8v-5.7c1.8,0.6,3.9,0.8,4.1,3.8
					c0.6-4.3,1.8-6.5,3.6-8.1c1.8,1.7,3,3.9,3.6,8.1c0.2-3,2.3-3.2,4.1-3.8v5.7l-5.2,4.8H240.4z"/>
				<path style="fill:#FFFFFF;stroke:#000000;stroke-width:0.96;" d="M250.1,624.7l-4.7,6.8H240l-4.7-6.8H250.1z"/>
				<path style="fill:#FFFFFF;stroke:#000000;stroke-width:0.96;" d="M232.5,636.2c2.4,1.3,3.2,4,3.5,9.1h13.3
					c0.3-5,1.1-7.7,3.5-9.1H232.5z"/>
				<path style="fill:#FFFFFF;stroke:#000000;stroke-width:0.96;stroke-linejoin:bevel;" d="M253,624.7v-6.8c-2.2,0.6-3.7,2-4.3,3.9
					c0-2.3-2.9-7.5-6-10.1c-3.1,2.9-6.1,7.7-6,10.1c-0.5-1.8-2.1-3.3-4.3-3.9v6.8L253,624.7z"/>
				<path style="fill:#FFFFFF;stroke:#000000;stroke-width:0.96;stroke-linejoin:bevel;" d="M254,636.2l0-6.8
					c-2.5,0.6-4.1,2-4.8,3.9c0-2.3-3.1-7.5-6.6-10.1c-3.4,2.9-6.6,7.7-6.6,10.1c-0.6-1.8-2.3-3.3-4.8-3.9v6.8L254,636.2z"/>
				<path style="fill:#FFFFFF;stroke:#000000;stroke-width:0.96;stroke-linejoin:bevel;" d="M256.8,650.2v-7.9
					c-3.1,0.8-5,3.2-5.9,4.6c0-4.3-4.6-10.8-8.2-12.9c-3.6,2.2-8.2,8.9-8.2,12.9c-1-1.4-2.9-3.7-5.9-4.6v7.9H256.8z"/>
				<path style="fill:#FFFFFF;stroke:#000000;stroke-width:0.96;stroke-linejoin:bevel;" d="M255.1,667.7v-8.1
					c-2.7,1.1-3.5,3.8-4.4,5.7c0.3-8.2-4.4-17.1-8.1-19.3c-3.6,2.2-8.5,11.3-8.1,19.3c-0.9-1.8-1.7-4.6-4.4-5.7v8.1L255.1,667.7z"/>
				<path style="fill:#FFFFFF;stroke:#000000;stroke-width:0.96;" d="M253.2,680v-8.1c-2.8,0.7-3,1.8-3.9,3.6
					c0.3-4.9-3-10.5-6.7-12.8c-3.6,2.2-7,7.9-6.7,12.8c-0.9-1.8-1-2.9-3.9-3.6v8.1H253.2z"/>
			</g>
		</g>
		<g id="tower">
			<g>
				<path style="fill:#FFFFFF;stroke:#000000;stroke-width:0.96;" d="M131.8,710.1v-24.5c-0.8-3.1-3.3-5.9-5.2-6.4v-21.6l4.3,2.4
					l4.9,22.6v27.6L131.8,710.1z"/>
				<path style="fill:#FFFFFF;stroke:#000000;stroke-width:0.96;" d="M131.8,710.2v-24.6c-0.8-3.1-3.3-5.9-5.2-6.4V656
					c2.9,0,4.3,3.9,4.3,3.9l4.9,22.6V710L131.8,710.2z"/>
				<path style="fill:#FFFFFF;stroke:#000000;stroke-width:0.96;" d="M128.7,716.5c2-0.9,4.9-3.5,4.9-6.1v-30.7l-1.4-2.5h50.1
					l-2,2.5v30.7c0,2.6,2,5.1,4,6.1H128.7z"/>
				<path style="fill:#FFFFFF;stroke:#000000;stroke-width:0.96;" d="M174.3,716.5c-2-0.9-4.9-3.5-4.9-6.1v-29.2l4.2-4l-34.1,0
					l4.2,4v29.2c0,2.6-2.9,5.1-4.9,6.1L174.3,716.5z"/>
				<path style="fill:#FFFFFF;stroke:#000000;stroke-width:0.96;" d="M169.5,716.5c-2-0.9-4.9-3.5-4.9-6.1V684l2.7-4h-21.7l2.7,4
					v26.4c0,2.6-2.9,5.1-4.9,6.1H169.5z"/>
				<path style="fill:#FFFFFF;stroke:#000000;stroke-width:0.96;" d="M151.3,680l10.3,0l0,36.5h-10.3L151.3,680z"/>
				
					<rect x="137.3" y="690.2" style="fill:#FFFFFF;stroke:#000000;stroke-width:0.96;stroke-linejoin:bevel;" width="4.1" height="19.8"/>
				
					<rect x="172.7" y="690.2" style="fill:#FFFFFF;stroke:#000000;stroke-width:0.96;stroke-linejoin:bevel;" width="4.1" height="19.8"/>
				<path style="fill:#FFFFFF;stroke:#000000;stroke-width:0.96;stroke-linejoin:bevel;" d="M133.7,656.8h5v20.3h-5V656.8z"/>
				<path style="fill:#FFFFFF;stroke:#000000;stroke-width:0.96;stroke-linejoin:bevel;" d="M133.7,653h4.9v3.8h-4.9V653z"/>
				<path style="fill:#FFFFFF;stroke:#000000;stroke-width:1.0337;stroke-linejoin:bevel;" d="M174.7,661.2h7.1v15.7h-7.1V661.2z"/>
				<path style="fill:#FFFFFF;stroke:#000000;stroke-width:0.96;" d="M138.6,676.9v-34.7c1.4,0,1.6,5.1,4.9,5.1
					c1.7,0,1.5-2.1,0.6-3.8c-0.8-1.5-1.9-3.6-0.5-7.5c1,3,3.6,3.9,3.1,2.1c-0.8-3.2-3.2-3.8-1.4-8.8c0.6,4.2,3.2,4,2.6,1.6
					c-0.7-2.7-2.2-3.9-0.4-7.7c1,4.4,2.4,4.1,2.4,1.4c0-4-0.1-8.3,4.8-10c0,0,0.3-3.7,2.1-3.7s2.1,3.7,2.1,3.7c5,1.6,4.8,5.9,4.8,10
					c0,2.7,1.4,3,2.4-1.4c1.8,3.9,0.3,5-0.4,7.7c-0.6,2.4,1.9,2.6,2.6-1.6c1.8,5-0.6,5.5-1.4,8.8c-0.5,1.9,2.1,0.9,3.1-2.1
					c1.4,3.9,0.4,6-0.5,7.5c-1,1.7-1.1,3.8,0.6,3.8c3.3,0,3.5-5.1,4.9-5.1v34.7H138.6z"/>
				<path style="fill:#FFFFFF;stroke:#000000;stroke-width:0.96;" d="M130.8,650.7l0,26.5h2.9l0-26.6
					C132.7,650.1,131.7,650,130.8,650.7L130.8,650.7z"/>
				<path style="fill:#FFFFFF;stroke:#000000;stroke-width:0.96;" d="M130.9,667.8c3.6,1.9,7.1,4.1,8,9.4h-8V667.8z"/>
				<path style="fill:#FFFFFF;stroke:#000000;stroke-width:0.96;" d="M180.7,659.9l0,17.3h2.3v-17.3
					C182.3,659.5,181.3,659.5,180.7,659.9L180.7,659.9z"/>
				<path style="fill:#FFFFFF;stroke:#000000;stroke-width:0.96;" d="M183,667.7c-3.6,1.9-7.1,4.1-8,9.4h8V667.7z"/>
			</g>
			<g>
				<path style="fill:#FFFFFF;stroke:#000000;stroke-width:0.96;" d="M159.3,627.3l2.1-1.8v-2.3c-0.8,0.1-1.2,0.4-1.7,1.1
					c-0.5-1.6-1.5-2.8-3-3.5c-1.4,0.8-2.5,1.9-3,3.5c-0.6-0.8-1-1-1.7-1.1v2.3l2.1,1.8H159.3z"/>
				<path style="fill:#FFFFFF;stroke:#000000;stroke-width:0.96;" d="M160.4,633.2l1-2.2v-3c-0.8,0.1-1.2,0.4-1.7,1.1
					c-0.5-1.6-1.5-2.8-3-3.6c-1.4,0.8-2.5,1.9-3,3.5c-0.6-0.8-1-1-1.7-1.1v3l1,2.2L160.4,633.2z"/>
				<path style="fill:#FFFFFF;stroke:#000000;stroke-width:0.96;" d="M160.6,641.2l3.1-3.9v-3.9c-1.1,0.1-1.8,0.6-2.6,1.9
					c-0.7-2.7-2.3-3.3-4.4-4.5c-2.1,1.3-3.7,1.8-4.4,4.4c-0.8-1.3-1.5-1.7-2.6-1.8v3.9l3.1,3.9H160.6z"/>
				<path style="fill:#FFFFFF;stroke:#000000;stroke-width:0.96;" d="M161.5,649c0,0,3.6-3.3,3.8-5.1v-4.2c-1.4,0.2-2.7,0.5-3.8,2.3
					c-0.9-3.4-2.3-4.4-4.9-6.1c-2.6,1.7-4,2.6-4.9,6.1c-1-1.7-2.4-2.1-3.8-2.3v4.2c0.5,1.8,3.8,5.1,3.8,5.1H161.5z"/>
				<path style="fill:#FFFFFF;stroke:#000000;stroke-width:0.96;" d="M163,663.4c0,0,5-5.7,5.1-7.9V649c-1.9,0.3-3.6,1.6-5,4.3
					c-1.2-5.4-3-9.1-6.4-11.7c-3.4,2.6-5.3,6.3-6.4,11.7c-1.4-2.7-3.1-4-5-4.3v6.5c0.4,2.2,5.1,7.9,5.1,7.9H163z"/>
				<path style="fill:#FFFFFF;stroke:#000000;stroke-width:0.96;" d="M163,671.9c0,0,4.2-4.5,5.1-6.4V659c-1.9,0.3-3.6,1.6-5,4.3
					c-1.2-5.4-3-8.4-6.4-11c-3.4,2.6-5.3,5.7-6.4,11c-1.4-2.7-3.1-4-5-4.3v6.5c1.1,1.9,5.1,6.4,5.1,6.4H163z"/>
				<path style="fill:#FFFFFF;stroke:#000000;stroke-width:0.96;" d="M164.7,676.9c-1.2-5.6-2.3-9.8-8.3-14c-6,4.2-7,8.4-8.3,14
					H164.7z"/>
				<path style="fill:#FFFFFF;stroke:#000000;stroke-width:0.96;" d="M167.8,680v-8.1c-2.7,1.1-5.1,2.7-6,4.6
					c-1-4.5-2.9-6.5-5.4-9.2c-2.4,2.7-4,4.7-5,9.2c-0.9-1.8-3.3-3.5-6-4.6l0,8.1L167.8,680z"/>
			</g>
		</g>
		<g transform="matrix(-1,0,0,1,390.73979,0)">
			<g id="tower_1_">
				<g>
					<path style="fill:#FFFFFF;stroke:#000000;stroke-width:0.96;" d="M354,710.1v-24.5c0.8-3.1,3.3-5.9,5.2-6.4v-21.6l-4.3,2.4
						l-4.9,22.6v27.6L354,710.1z"/>
					<path style="fill:#FFFFFF;stroke:#000000;stroke-width:0.96;" d="M354,710.2v-24.6c0.8-3.1,3.3-5.9,5.2-6.4V656
						c-2.9,0-4.3,3.9-4.3,3.9l-4.9,22.6V710L354,710.2z"/>
					<path style="fill:#FFFFFF;stroke:#000000;stroke-width:0.96;" d="M357,716.5c-2-0.9-4.9-3.5-4.9-6.1v-30.7l1.4-2.5h-50.1l2,2.5
						v30.7c0,2.6-2,5.1-4,6.1H357z"/>
					<path style="fill:#FFFFFF;stroke:#000000;stroke-width:0.96;" d="M311.5,716.5c2-0.9,4.9-3.5,4.9-6.1v-29.2l-4.2-4l34.1,0
						l-4.2,4v29.2c0,2.6,2.9,5.1,4.9,6.1L311.5,716.5z"/>
					<path style="fill:#FFFFFF;stroke:#000000;stroke-width:0.96;" d="M316.2,716.5c2-0.9,4.9-3.5,4.9-6.1V684l-2.7-4h21.7l-2.7,4
						v26.4c0,2.6,2.9,5.1,4.9,6.1H316.2z"/>
					<path style="fill:#FFFFFF;stroke:#000000;stroke-width:0.96;" d="M334.4,680l-10.3,0l0,36.5h10.3L334.4,680z"/>
					
						<rect x="344.3" y="690.2" style="fill:#FFFFFF;stroke:#000000;stroke-width:0.96;stroke-linejoin:bevel;" width="4.1" height="19.8"/>
					
						<rect x="308.9" y="690.2" style="fill:#FFFFFF;stroke:#000000;stroke-width:0.96;stroke-linejoin:bevel;" width="4.1" height="19.8"/>
					<path style="fill:#FFFFFF;stroke:#000000;stroke-width:0.96;stroke-linejoin:bevel;" d="M352,656.8h-5v20.3h5V656.8z"/>
					<path style="fill:#FFFFFF;stroke:#000000;stroke-width:0.96;stroke-linejoin:bevel;" d="M352,653h-4.9v3.8h4.9V653z"/>
					<path style="fill:#FFFFFF;stroke:#000000;stroke-width:1.0337;stroke-linejoin:bevel;" d="M311.1,661.2H304v15.7h7.1V661.2z"/>
					<path style="fill:#FFFFFF;stroke:#000000;stroke-width:0.96;" d="M347.1,676.9v-34.7c-1.4,0-1.6,5.1-4.9,5.1
						c-1.7,0-1.5-2.1-0.6-3.8c0.8-1.5,1.9-3.6,0.5-7.5c-1,3-3.6,3.9-3.1,2.1c0.8-3.2,3.2-3.8,1.4-8.8c-0.6,4.2-3.2,4-2.6,1.6
						c0.7-2.7,2.2-3.9,0.4-7.7c-1,4.4-2.4,4.1-2.4,1.4c0-4,0.1-8.3-4.8-10c0,0-0.3-3.7-2.1-3.7s-2.1,3.7-2.1,3.7
						c-5,1.6-4.8,5.9-4.8,10c0,2.7-1.4,3-2.4-1.4c-1.8,3.9-0.3,5,0.4,7.7c0.6,2.4-1.9,2.6-2.6-1.6c-1.8,5,0.6,5.5,1.4,8.8
						c0.5,1.9-2.1,0.9-3.1-2.1c-1.4,3.9-0.4,6,0.5,7.5c1,1.7,1.1,3.8-0.6,3.8c-3.3,0-3.5-5.1-4.9-5.1v34.7H347.1z"/>
					<path style="fill:#FFFFFF;stroke:#000000;stroke-width:0.96;" d="M354.9,650.7l0,26.5H352l0-26.6
						C353,650.1,354,650,354.9,650.7L354.9,650.7z"/>
					<path style="fill:#FFFFFF;stroke:#000000;stroke-width:0.96;" d="M354.8,667.8c-3.6,1.9-7.1,4.1-8,9.4h8V667.8z"/>
					<path style="fill:#FFFFFF;stroke:#000000;stroke-width:0.96;" d="M305.1,659.9l0,17.3h-2.3v-17.3
						C303.5,659.5,304.5,659.5,305.1,659.9L305.1,659.9z"/>
					<path style="fill:#FFFFFF;stroke:#000000;stroke-width:0.96;" d="M302.7,667.7c3.6,1.9,7.1,4.1,8,9.4h-8V667.7z"/>
				</g>
				<g>
					<path style="fill:#FFFFFF;stroke:#000000;stroke-width:0.96;" d="M326.4,627.3l-2.1-1.8v-2.3c0.8,0.1,1.2,0.4,1.7,1.1
						c0.5-1.6,1.5-2.8,3-3.5c1.4,0.8,2.5,1.9,3,3.5c0.6-0.8,1-1,1.7-1.1v2.3l-2.1,1.8H326.4z"/>
					<path style="fill:#FFFFFF;stroke:#000000;stroke-width:0.96;" d="M325.3,633.2l-1-2.2v-3c0.8,0.1,1.2,0.4,1.7,1.1
						c0.5-1.6,1.5-2.8,3-3.6c1.4,0.8,2.5,1.9,3,3.5c0.6-0.8,1-1,1.7-1.1v3l-1,2.2L325.3,633.2z"/>
					<path style="fill:#FFFFFF;stroke:#000000;stroke-width:0.96;" d="M325.2,641.2l-3.1-3.9v-3.9c1.1,0.1,1.8,0.6,2.6,1.9
						c0.7-2.7,2.3-3.3,4.4-4.5c2.1,1.3,3.7,1.8,4.4,4.4c0.8-1.3,1.5-1.7,2.6-1.8v3.9l-3.1,3.9H325.2z"/>
					<path style="fill:#FFFFFF;stroke:#000000;stroke-width:0.96;" d="M324.3,649c0,0-3.6-3.3-3.8-5.1v-4.2c1.4,0.2,2.7,0.5,3.8,2.3
						c0.9-3.4,2.3-4.4,4.9-6.1c2.6,1.7,4,2.6,4.9,6.1c1-1.7,2.4-2.1,3.8-2.3v4.2c-0.5,1.8-3.8,5.1-3.8,5.1H324.3z"/>
					<path style="fill:#FFFFFF;stroke:#000000;stroke-width:0.96;" d="M322.7,663.4c0,0-5-5.7-5.1-7.9V649c1.9,0.3,3.6,1.6,5,4.3
						c1.2-5.4,3-9.1,6.4-11.7c3.4,2.6,5.3,6.3,6.4,11.7c1.4-2.7,3.1-4,5-4.3v6.5c-0.4,2.2-5.1,7.9-5.1,7.9H322.7z"/>
					<path style="fill:#FFFFFF;stroke:#000000;stroke-width:0.96;" d="M322.7,671.9c0,0-4.2-4.5-5.1-6.4V659c1.9,0.3,3.6,1.6,5,4.3
						c1.2-5.4,3-8.4,6.4-11c3.4,2.6,5.3,5.7,6.4,11c1.4-2.7,3.1-4,5-4.3v6.5c-1.1,1.9-5.1,6.4-5.1,6.4H322.7z"/>
					<path style="fill:#FFFFFF;stroke:#000000;stroke-width:0.96;" d="M321,676.9c1.2-5.6,2.3-9.8,8.3-14c6,4.2,7,8.4,8.3,14H321z"
						/>
					<path style="fill:#FFFFFF;stroke:#000000;stroke-width:0.96;" d="M317.9,680v-8.1c2.7,1.1,5.1,2.7,6,4.6c1-4.5,2.9-6.5,5.4-9.2
						c2.4,2.7,4,4.7,5,9.2c0.9-1.8,3.3-3.5,6-4.6l0,8.1L317.9,680z"/>
				</g>
			</g>
		</g>
		<g>
			<path style="fill:#FFFFFF;stroke:#000000;stroke-width:0.96;" d="M101.5,746.1h282.6l0,15H101.5L101.5,746.1z"/>
			<path style="fill:#FFFFFF;stroke:#000000;stroke-width:0.96;" d="M94.1,761.1h297.5l0,15H94.1L94.1,761.1z"/>
			<path style="fill:#FFFFFF;stroke:#000000;stroke-width:0.96;" d="M116.4,723.6h252.9l0,9.7H116.4L116.4,723.6z"/>
			<path style="fill:#FFFFFF;stroke:#000000;stroke-width:0.96;" d="M109,733.3h267.7l0,12.7H109L109,733.3z"/>
			<path style="fill:#FFFFFF;stroke:#000000;stroke-width:0.96;" d="M120.8,716.1h244.1l0,7.4H120.8L120.8,716.1z"/>
			<path style="fill:#FFFFFF;stroke:#000000;stroke-width:1.0446;" d="M147.3,716.2h18.4v59.9h-18.4L147.3,716.2z"/>
			<path style="fill:#FFFFFF;stroke:#000000;stroke-width:1.0429;" d="M151.4,716.2h10.3v59.9h-10.3L151.4,716.2z"/>
			<path style="fill:#FFFFFF;stroke:#000000;stroke-width:1.0446;" d="M233.3,716.2h18.4v59.9h-18.4L233.3,716.2z"/>
			<path style="fill:#FFFFFF;stroke:#000000;stroke-width:1.0429;" d="M237.5,716.2h10.3v59.9h-10.3L237.5,716.2z"/>
			<path style="fill:#FFFFFF;stroke:#000000;stroke-width:1.0446;" d="M319.8,716.2h18.4v59.9h-18.4V716.2z"/>
			<path style="fill:#FFFFFF;stroke:#000000;stroke-width:1.0429;" d="M323.9,716.2h10.3v59.9h-10.3L323.9,716.2z"/>
		</g>
		<g>
			<path style="fill:none;stroke:#000000;stroke-width:0.96;" d="M131.8,710.1h222.4"/>
			<path style="fill:none;stroke:#000000;stroke-width:0.96;" d="M151.2,768.6h10.6 M151.2,761.1h10.6 M151.2,753.6h10.6
				 M151.2,746.1h10.6 M151.2,738.6h10.6 M151.2,731.1h10.6 M151.2,723.6h10.6"/>
			<path style="fill:none;stroke:#000000;stroke-width:0.96;" d="M237.6,768.6h9.9 M237.6,761.1h9.9 M237.6,753.6h9.9 M237.6,746.1
				h9.9 M237.6,738.6h9.9 M237.6,731.1h9.9 M237.6,723.6h9.9"/>
			<path style="fill:none;stroke:#000000;stroke-width:0.96;" d="M323.7,768.6h10.6 M323.7,761.1h10.6 M323.7,753.6h10.6
				 M323.7,746.1h10.6 M323.7,738.6h10.6 M323.7,731.1h10.6 M323.7,723.6h10.6"/>
		</g>
	</g>
</g>
</svg>
