<?xml version="1.0" encoding="utf-8"?>
<!-- Generator: Adobe Illustrator 25.2.1, SVG Export Plug-In . SVG Version: 6.00 Build 0)  -->
<svg version="1.1" id="Layer_1" xmlns="http://www.w3.org/2000/svg" xmlns:xlink="http://www.w3.org/1999/xlink" x="0px" y="0px"
	 viewBox="0 0 720 480" style="enable-background:new 0 0 720 480;" xml:space="preserve">
<g>
	<rect style="fill:#ED1C24;" width="720" height="480"/>
	<rect y="120" style="fill:#FFFFFF;" width="720" height="240"/>
	<path style="fill:#00A651;" d="M356.7,120c-5.2,10.8-14.9,18.4-24.1,25.6c-1.5,1.3-5.3,3.9-2.6,5.9c2.4-2.6,8.8,0.9,5.1,3.7
		c-3.4,3.2-8,4.3-11.7,6.9c-3.3,1.8-6.7,3.7-9.3,6.4c-0.2,4.3,5.3,1.9,7.6,3.7c2.9,3.1-1.2,8.4-5.1,7.2c-4.9,0.1-8.3,4.5-10.1,8.6
		c-3.8,5.9-11.1,7.7-16.9,11c-3.3,1.9-6.5,4.1-9.6,6.3c-4,2.7-0.5,8.1,3.7,6.8c4.6-0.5,8.7-4,13.4-3c4.3,1.5,5.5,7.1,4,11
		c-1.1,3.1-3.7,5.3-5.8,7.8c-3.4,3.4-7.9,5.7-12.5,6.8c-4.5,1.5-8.6,4.3-11.6,8.1c-3.5,3.5-6.9,7-10.9,9.9c-1.3,3.2,2.3,5.9,5.2,5.8
		c6.2-0.4,10.5-5.5,15.8-8.1c4.4-2,9.6,2.8,8.5,7.3c-0.3,4.5-4.5,6.7-8.2,8.1c-10.9,5.5-20.3,13.4-28.7,22.2c-1.7,3.5-6.5,2.5-9.1,5
		c-1.7,3.1,2.5,4.8,5,4.5c10.8-1.3,20.8-5.9,30.4-10.9c3.5-1.7,6.9-3.9,10.6-5.3c3.5-0.9,8.3,0.6,8.9,4.6c0,4.2-4.1,6.5-7.4,8.1
		c-10.1,5.3-21.1,8.2-31.8,11.7c-4-1.1-7.1,6-2.6,7.3c4.7,1.6,9.6,0.3,14.4,0.1c14.8-2.3,27.7-10.3,41.5-15.4
		c5.7-1.9,12.5,0.7,15.3,6.1c2.8,4.8,2.6,11.1-0.4,15.7c-4.7,10.1-12,19.5-21.6,25.3c-6.1,3-13.2,4.2-18.4,8.8
		c-4.8,1.6,2.4,8.1,3.5,2.9c2.9-3.9,8-5.1,12.6-5.3c7-0.8,14.3-2,19.8-6.9c4.8-3.8,9.6-9,16.2-9c3.6,0.4,7.2,3.4,10.9,1.6
		c3.2-1.5,8.3-0.6,9.1,3.4c1.5,4.6,6.3,6.8,10.1,9.3c1.4,1.9,5.9,6.9,7,2.5c-0.9-3.1,0.4-7.9,4.5-6.9c3.6,0.2,7,1.5,10.6,1.7
		c4.8,1,8.7,4.3,11.5,8.2c1.9,2.6,5.9,7,9,3.6c1.9-3.5-1.7-6.5-4.6-7.7c-4.3-2.6-7.9-6.2-11.6-9.5c-5.5-5.1-10.2-11.7-11.1-19.3
		c-1.2-7.6-0.6-15.4,0.4-23.1c1.3-4.9,7.5-7.6,11.9-5c6.2,2.8,12.3,6.8,19.4,6.4c10.2,0.2,20.7-1.7,30.7,1.2
		c9.7,3.1,16.7,11.3,26.2,14.8c2.1,1.3,4.8,0.1,5.6-2.2c0.9-2,0.3-4.6-1.7-5.8c-11-11.1-26-16.5-38.7-25.1c-4-1-4.7-7.5-1-9.3
		c4.9-3.5,11.7-1.9,16.1,1.8c3.6,2.1,7.7,3.7,12,3.7c4.4-1.4,2.3-7.7-1.7-8.2c-7.1-4-12.2-10.6-18.3-15.8c-3.5-3-7.4-6-12.2-6.6
		c-2.6-0.5-5.3-0.6-7.9-0.4c-2.5-2.7,0.8-6.8,4-6.5c3.3,0.2,6.5,0.5,9.8,0c3.7-0.3,7.3-0.6,11-0.7c3,2,8.9-1.5,6.2-5
		c-2.9-2.6-7.2-2.3-10.7-3.7c-6.1-2-12.4-3.6-18.7-4.9c-4.4-0.3-3.9-6.1,0-6.7c2.5-0.9,4.8,1,7.2,1.3c4.2,0.9,8.5,0.9,12.7,1.8
		c3.5-1.7,0.8-6.9-2.4-7.2c-7.6-2.7-14.1-7.6-20.5-12.3c-7-5.3-13.4-11.4-20.6-16.6c-2.6-1.6-6.8-2.1-7.5-5.6
		c-0.2-3.3,3.6-4.8,6.3-4c3.9,1.1,7.5,3.1,11.4,4.1c3.1,0.5,6.3,1.4,9.3,1.1c3.8-2.4-1.6-3.9-3.6-4.7c-5-2.7-9.5-6.3-14.1-9.8
		c-3.8-3.3,3.3-4.7,5.7-3.5c4.1,1.7,4.5-4.2,1.5-5.7c-3.6-1.5-6.7-4.1-9.9-6.3c-5.9-4.2-12.6-7.5-19.8-8.4
		c-8.1-0.8-15.7-5.5-20-12.4C360.6,128.7,358.6,124.4,356.7,120z M330.1,165.5c4.2,0.1,3.5,7.7-0.6,7.2
		C325.5,172.4,325.7,164.7,330.1,165.5z M369.5,169.6c4.1-0.7,4.9,6.7,0.9,7C366.2,177.4,364.6,169.1,369.5,169.6z M358,170.5
		c4.1,0.8,3.4,8-0.8,8.1c-3,0.7-6.3,2.8-9.4,1.2c-2.5-2.7,1.1-6.6,3.9-7.4C353.8,171.9,355.8,171,358,170.5z M384.6,170.6
		c4,1.5,2.6,8.5-1.6,8.4c-4,0.5-5.8-6.1-2.1-7.7C382,170.9,383.3,170.5,384.6,170.6z M339.7,178.5c2.9,2.8,1.2,8.2-2.4,9.4
		c-2.6,1.4-6.1,4.9-9,2.1c-1.5-3.4,2.3-6,4.6-7.9C334.9,180.5,337.2,179.1,339.7,178.5z M373.1,194.1c4.2,2,2.1,9.5-2.5,9.1
		c-3.8-1-3.3-7.4,0.5-7.9C371.8,194.9,372.5,194.5,373.1,194.1z M359.8,194.8c3.9,1.8,0.9,8.4-3,7.4c-4.1-0.5-4-7.7,0.5-7
		C358.1,195.2,359,195.1,359.8,194.8z M388.4,198.6c4.3-1.3,9.5,3.1,8.1,7.6c-1.9,3.5-6.6,3.9-10,2.6c-3.9-0.2-6.5-6-3-8.5
		C384.9,199.1,386.7,198.7,388.4,198.6z M325.1,199.7c3.5-1.9,7.3,3.9,4.3,6.4c-2,2.9-7.1,4.1-9.4,0.9
		C318.1,203.8,321.1,198.4,325.1,199.7z M308.7,202.4c4,0.6,6.6,4.2,8.1,7.7c0.4,4.2-5.9,6.6-8.6,3.5c-3.1-1.9-5.8-5.9-4.1-9.6
		C305.1,202.6,307,202,308.7,202.4z M406.6,217.8c4.4-1.2,7.5,5.8,3.8,8.4c-3.4,3.1-10.1-1-8.3-5.5C403,219,404.8,217.9,406.6,217.8
		z M351,225.7c3.7,0.5,2.5,6.8-0.9,6.6C346.5,231.6,347.3,225.4,351,225.7z M332.5,229.1c3-2.1,6.8,3,4.4,5.4
		C333.8,236.6,330,231.6,332.5,229.1z M362,229.7c3.5,2.1,5.5,6,5.9,10c-1.7,3.7-8.1,2.8-8.8-1.1C357.9,235.5,359.1,231.4,362,229.7
		z M372.3,235.8c4.5-1.1,2.9,8.2-0.9,5C370.2,239.3,370.9,236.9,372.3,235.8z M307.6,242.3c3-0.9,7.3,0,8.1,3.4
		c0.3,3.2-3.2,4.8-5.7,5.6c-4.1,1.3-8.1,3.4-12.6,3.1c-3.3-1.9-4.5-5.8-5.7-9.2c3.2-3,7.9-2.1,11.9-2.9
		C304.9,242.4,306.2,242.3,307.6,242.3z M408,256.9c3.8-1.8,7.8,4.1,4.7,6.9c-3.9,4.5-11.5,5.4-16.3,1.6c-0.6-4,3.4-6.9,7-7.5
		C404.9,257.5,406.4,256.9,408,256.9z M429.2,261.5c4.3-0.7,7.7,5.4,4.6,8.5c-2.9,4.4-9.8,5.5-13.7,1.9c-1.5-3.6,1.6-7.4,4.9-8.5
		C426.3,262.8,427.7,262.1,429.2,261.5z M322.7,268c4-0.4,7.6,3.5,7.1,7.5c2.9,2.8-2.2,8.1-5.1,5.2c-2.5-3.1-2.5-7.2-3.5-10.9
		C321.1,269,321.7,267.9,322.7,268z M353.1,270.3c4.1-1.8,9.4,3.1,7.2,7.3c-1.6,3.4-7.8,2.2-7.6-1.7
		C352.7,274,352.5,272.1,353.1,270.3z M338.3,273c4.1-0.9,7.9,4.4,5.6,7.9C339.8,281.3,337.7,276.4,338.3,273z"/>
</g>
</svg>
