<?xml version="1.0" encoding="utf-8"?>
<!-- Generator: Adobe Illustrator 25.2.1, SVG Export Plug-In . SVG Version: 6.00 Build 0)  -->
<svg version="1.1" id="Layer_1" xmlns="http://www.w3.org/2000/svg" xmlns:xlink="http://www.w3.org/1999/xlink" x="0px" y="0px"
	 viewBox="0 0 720 480" style="enable-background:new 0 0 720 480;" xml:space="preserve">
<g>
	<path style="fill:#D3AE3B;" d="M0,0h720v480H0V0z"/>
	<path style="fill:#C40308;" d="M18,24h684v432H18V24z"/>
	<path style="fill:#B96B29;" d="M438.3,236.1c2.1-0.8,9.4-3.6,14.6-9.2c5.2-5.6,6.2-10,6.6-12.5c0.4-2.4,0.6-4.3-0.7-2.9
		c-1.3,1.4-5.3,5.6-8.1,7.6c-2.1,1.5-4.4,2.7-6.7,3.5c-1.5,0.6-2.7,0.9-1.2,0.2c1.4-0.8,6.1-2.9,9.7-7.7c3.6-4.8,6.4-12,6.5-16.4
		c0.1-4.4-0.2-4.1-1.2-3c-1.1,1.1-4.8,7.3-7,9.7c-2.3,2.5-4.7,4.8-7.3,6.9c-1.7,1.3-4.1,2.8-0.8-0.2c3.4-3.1,9.8-10.3,12.4-19.7
		c2.6-9.4,2.1-14.9,2.1-15.8c-0.1-0.9-0.7-2.9-1.2-1.1c-0.6,1.7-4.9,13.1-8.3,18c-3.4,4.9-2.6,3.9-3.4,4.7c-0.8,0.8-2.1,2.2-0.4-0.6
		c1.7-2.7,5.1-9.1,6.9-15.4c1.8-6.3,2.2-12.6,2.3-16.2c0.1-3.6-1.1-8.7-1.7-10.2s-1.1-2.6-1.2-0.9c-0.2,1.7-2.9,12.9-4.4,18.4
		c-1.3,4.5-3,8.7-5,12.8c-0.6,1.2-2.1,3.6-0.5-0.5s4.8-16.2,5.3-27.6c0.4-11.4-0.8-17.7-2-20.9c-1.2-3.1-2.2-4.3-2.2-4.3
		s0.2,7.8-1.5,19c-1.7,11.2-4.3,17.1-4.3,17.1s-1.1,1.6-0.3-1.1c1.1-4,1.8-8.3,2-12.5c0.5-7.1,0.6-15.1-1-22
		c-1.7-7.5-4.6-11.3-4.6-11.3c-0.8,10.7-0.7,24.5-3.6,35.7c-0.6-0.7-1.3-1.9-1.6,0.6c-0.9,6.8-2.7,13.3-5.2,19.4
		c-3.6,8.8-5.1,10-5.1,10s-0.7-2.1-1.1-3.3c-0.5-1.2-0.7-1.8-1.3-0.2c-0.6,1.6-2.6,7.8-7.1,14.6c-4.4,6.8-6.9,10.1-6.8,15.2
		c0.1,5.1,2.1,7.7,4.8,10c2.7,2.3,3.1,3.6,2.7,6.4c-0.4,2.8-2.8,3.8-4.9,3.9c-2.1,0.1-4.7-0.2-5.6,0.5c-0.9,0.7-1,2.5-1.9,3.8
		c-0.9,1.3-1.4,2-2.2,2.2l-0.8,0.1c-0.2-13.5,3.7-19.5,3.7-19.5l-10.9-17.1l-1.7,1.1c-0.1-0.2-0.2-0.5-0.3-0.7
		c-1.4-2.2-2-4.9-1.9-7.8c0.5,0.1,1.6,0.6,2.6,0.3c1-0.3,0.2-1.6-0.1-2.8c-0.3-1.3-0.6-5.6-0.4-7.3l0.3-2.3c0,0,1.6,2.3,2.6,2.3
		s0.9-1.3,1-2.8c0.2-2.2,1-5,2.3-6.5c0,0,1.7,1.6,3.7,1.6c2.5,0.1,4.9-1.2,6.8-3.5c2.1-2.7,2.1-3.4,2.1-3.4s4,1.9,7,2.1
		c3,0.2,6.3-0.5,7.8-4.7c1.5-4.2-0.5-8.2-0.8-8.8c-0.4-0.7-1.4-1.2-1.4,0s0.1,4.4-1.8,6c-1.8,1.6-3.3,1.5-5,0.8
		c-3.2-1.5-6.6-1.7-9.8-0.3c0.1-0.2,2.4-3.3,4.6-4.2c2.3-0.9,3.6,0.3,4.4,1.5c0.7,1.2,1.4,3.1,2,0.3c0.6-2.7,0.3-5.6-0.7-8
		c-1.2-2.3-3.3-3.4-5.4-3.1c-2.2,0.3-3,0.8-3,0.8s-1.1-4.3-4-5.1c-3.5-1-7.4,0.8-10.4,3c0,0-2.4,0.8-4.8-0.2
		c-1.5-0.6-2.8-1.5-4.1-2.7l0.8-3.5l1.4-0.6c0.7-0.4,0.6-0.7,0.7-1.5c0.1-0.8-1.4-2.2-1.4-2.2s-0.2-2.4,2.2-4.1
		c2.4-1.7,2.1-1.4,2.1-1.4s1.4,0.4,2-0.2c0.6-0.6,0.6-0.9,0.6-0.9s1.1-0.5,1.5-1.3c0.4-0.9,0.4-2.1,0.2-3.1s-0.6-1.2-0.2-1.6
		c0.4-0.5,0.7-1.6,0.8-2.4l0-1c0,0,0.8-0.4,0.8-2c0-1.7-0.7-2.3-1.1-2.5c-0.4-0.1-0.6-0.1-0.6-0.1s-0.1-1-0.7-2.3
		c-0.6-1.3-1.1-1.9-1.1-1.9s0.4-0.5,0.2-1.6c-0.2-0.9-0.7-1.7-1.4-2c-0.6-0.2-1.2,0-1.2,0s-1.9-1.5-2.8-2.1l-1.1-0.8
		c0,0,0-1.1-0.3-1.6s-1.1-0.8-1.5-0.8s-0.8,0.3-0.8,0.3s-3.2-1.1-4.5-1.4c-1.3-0.3-1.4-0.4-1.4-0.4s-2.8-1.8-3.9-2.1
		c-1.1-0.3-1.4-0.4-1.4-0.4s1.1-1.8,1.2-4c0-2.1-0.8-4-2.1-5c-0.6-0.5-1-0.6-1.2-0.8l0-1.5l2.1,0.3l0.2-4.6l-2.1,0.3l0.3-2.7
		l-4.3-0.1l0.3,2.7l-2.1-0.2l0.2,4.5l2.2-0.4l-0.2,1.7c0,0-0.8,0.2-1.5,0.8c-1.1,0.9-2.1,2.7-2,4.8c0.1,2.1,1,4,1,4
		s-0.3,0.1-1.4,0.4c-1.1,0.3-3.9,2.1-3.9,2.1s-0.1,0.1-1.4,0.4c-1.3,0.3-4.5,1.4-4.5,1.4s-0.4-0.3-0.8-0.3c-0.4,0-1.1,0.2-1.4,0.8
		c-0.3,0.6-0.4,1.6-0.4,1.6l-1.1,0.8c-0.9,0.6-2.8,2.1-2.8,2.1s-0.6-0.2-1.2,0c-0.6,0.2-1.1,0.9-1.4,2s0.2,1.6,0.2,1.6
		s-0.4,0.6-1.1,1.9c-0.6,1.3-0.7,2.3-0.7,2.3s-0.2,0-0.6,0.2c-0.4,0.1-1.1,0.8-1.1,2.5c0,1.7,0.8,2,0.8,2l0,1c0,0.8,0.4,2,0.8,2.4
		c0.4,0.5,0,0.7-0.2,1.6c-0.3,1-0.2,2.2,0.2,3.1c0.4,0.8,1.5,1.3,1.5,1.3s0,0.3,0.6,0.9s2,0.2,2,0.2s-0.3-0.3,2.1,1.4
		c2.4,1.6,2.2,4.1,2.2,4.1s-1.5,1.4-1.4,2.2c0.1,0.8-0.1,1.1,0.7,1.5c0.7,0.4,1.4,0.6,1.4,0.6l0.8,3.5c-0.9,0.8-2.5,2.1-4.1,2.7
		c-2.4,0.9-4.8,0.2-4.8,0.2c-3-2.2-6.9-4-10.4-3c-2.9,0.8-4,5.1-4,5.1s-0.8-0.5-3-0.8c-2.1-0.4-4.1,0.8-5.4,3.1
		c-1.1,2.4-1.3,5.3-0.7,8c0.6,2.8,1.2,0.9,2-0.3c0.8-1.2,2.1-2.5,4.4-1.5c2.2,0.9,4.5,4,4.6,4.2c-3.2-1.3-6.7-1.2-9.8,0.3
		c-1.7,0.9-3.6,0.6-5-0.8c-1.8-1.6-1.8-4.8-1.8-6c0-1.2-1-0.7-1.3,0s-2.3,4.6-0.8,8.8c1.5,4.2,4.8,4.9,7.8,4.7c3-0.2,7-2.1,7-2.1
		s0,0.7,2.1,3.4c2.1,2.7,4.8,3.4,6.8,3.4s3.7-1.6,3.7-1.6c1.3,1.5,2.1,4.3,2.3,6.5c0.1,1.5,0,2.8,1,2.8c1,0,2.6-2.3,2.6-2.3
		s0.1,0.7,0.3,2.3c0.2,1.6-0.1,6-0.4,7.3c-0.3,1.3-1,2.6,0,2.8c1,0.3,2.1-0.3,2.6-0.3c0,3.2-0.5,5.3-1.9,7.8l-0.3,0.6
		c-0.5-0.3-1.1-0.6-1.6-1l-10.9,17.2c0,0,3.9,6,3.7,19.6v-0.1c-0.2,0-0.4-0.1-0.8-0.1c-0.9-0.2-1.3-0.9-2.2-2.1
		c-0.9-1.3-1-3-1.9-3.8c-0.9-0.7-3.6-0.4-5.6-0.5c-2.1-0.1-4.5-1.1-4.9-3.9c-0.4-2.8,0.1-4,2.7-6.4c2.7-2.3,4.7-4.9,4.8-10
		c0.1-5.1-2.4-8.4-6.8-15.2c-4.4-6.8-6.4-13-7-14.6s-0.9-1-1.4,0.2c-0.5,1.2-1.1,3.3-1.1,3.3s-1.5-1.2-5.1-9.9
		c-2.5-6-4.3-12.6-5.2-19.4c-0.3-2.5-1-1.3-1.6-0.6c-2.9-11.2-2.8-25-3.6-35.7c0,0-2.9,3.8-4.6,11.3c-1.6,6.9-1.5,14.9-1,22
		c0.5,6.8,1.5,10.7,2,12.5c0.7,2.7-0.3,1.1-0.3,1.1s-2.5-5.9-4.3-17.1c-1.8-11.2-1.6-19-1.6-19s-1,1.1-2.2,4.3
		c-1.2,3.1-2.4,9.5-1.9,20.9c0.4,11.4,3.6,23.5,5.3,27.6c1.7,4.1,0.1,1.6-0.5,0.5c-2-4-3.7-8.3-5-12.8c-1.5-5.4-4.2-16.6-4.4-18.4
		c-0.2-1.7-0.7-0.6-1.2,0.9s-1.7,6.5-1.7,10.2c0.1,5.5,0.9,11,2.3,16.2c1.8,6.3,5.2,12.7,6.9,15.4c1.7,2.7,0.3,1.3-0.4,0.5
		s0.1,0.2-3.4-4.7s-7.7-16.2-8.3-18c-0.6-1.7-1.2,0.1-1.2,1.1c-0.1,0.9-0.5,6.5,2.1,15.8c2.6,9.4,9,16.6,12.4,19.7s0.9,1.6-0.8,0.2
		c-1.7-1.3-5.1-4.5-7.3-6.9c-2.1-2.4-5.9-8.6-7-9.7c-1.1-1.1-1.3-1.4-1.2,3c0.1,4.4,2.9,11.6,6.5,16.4c3.6,4.8,8.2,7,9.7,7.7
		c1.4,0.8,0.2,0.4-1.2-0.2c-2.3-0.8-4.6-2-6.8-3.5c-2.7-2-6.7-6.2-8.1-7.6c-1.3-1.4-1.2,0.5-0.7,2.9c0.4,2.4,1.4,6.9,6.6,12.5
		c5.2,5.6,12.5,8.4,14.6,9.2c2.1,0.8,0.6,0.8,0.6,0.8s-0.8-0.2-5.1-1.4c-4.3-1.3-10.7-5.8-12.5-7.3c-1.8-1.5-2-2-1.8,1.1
		c0.2,3.1,2.7,9.7,6.6,12.8s11.1,4.7,12.9,4.8c1.8,0.1,1.4,0.5,0.5,0.6c-0.8,0.1-2.9,0.1-6.2-0.5c-2.7-0.4-6.8-2.2-8.2-2.8
		c-0.2-0.8-0.3-1.6-0.4-2c-0.2-1.2-0.6-1-0.9-0.8c-0.3,0.3-0.5,0.5-1.4,1.1c-1,0.7-1-0.1-1-0.5c0-0.4-0.2-2.1-0.3-3
		c0-0.9-0.4-0.9-0.8-0.7l-3.5,2c-0.8,0.5-0.1,1.3,0.4,2.4c0.4,1.1,1.1,2.6,1.1,2.6l-2.7,1c-0.7,0.2-0.4,0.8-0.3,1.4
		c0.2,0.6,1.2,3.7,1.4,4.5c0.3,0.9,0.8,0.4,0.8,0.4l2.1-1.6l0.7,3.7c0,0.1-1,0.3-2,1.3c-1,1-0.8,2.2,0.5,2.7
		c1.2,0.5,2.7,1.3,4.3,5.2c1.6,3.9,2,10.9,3,22c1,11,6.3,16.7,7,17.4c0.7,0.7,0.3,1.3,0.3,1.3s-0.7,1.4-0.4,3.5
		c0.3,1.7,1.2,3.1,2.4,3.8c0.7,0.4,0.5,1.3,0.5,1.3s-0.4,2.4,0,6.7c0.4,4.3,3,9.2,3.7,10c0.7,0.8,0.8,1.2,0.7,1.6
		c-0.1,0.3-0.6,0.1-1.5,1c-1,1-1.9,2.2-2.5,3.7c-0.6,1.5-0.4,2.4-0.2,4.5c0.2,2.1,2.5,4,2.5,4s-0.4,0.1-0.5,1.7
		c-0.1,1.5,0.7,3.3,1.8,4.4c1,1.1,3,1.6,3,1.6l0.3,2.2c0.1,0.9,1.4,1.8,2.2,2.4c0.8,0.6,2.4,0.3,3.1-0.1c0.7-0.4,1.1,0.1,1.6,1
		c0.4,0.9,0.3,4.4,0.3,5.8c0,1.4-0.6,2.8-0.3,3.5c0.4,0.7,1.4,0.2,2.3-0.6c1-0.8,1.2-0.2,2.1,0.6c0.8,0.7,1.7,1.2,2.6,1.4
		c0.4-0.1,0.2-1.3,0.2-2.4c0-1,0.1-3.4,0.5-3.8c0.2-0.1,1.7-0.3,2.9-1c0.6-0.3,1.2-0.6,1.3-1.3c0-0.7-0.7-0.7-2.5-1.9
		c-1.7-1.2-2-1.9-3.1-2.9c-1.1-1-0.6-1.3-0.6-1.7c0-0.4,0.5-0.9,0.7-1.5c0.2-0.6,0.1-1.8,0.1-1.8s0.9-1.2,1.3-1.8
		c0.4-0.6,0.9-1.6,1.5-2.2s1.5-3.6,2-4.6c0.6-1,1.9-2,2.7-3.3c0.8-1.3,2.9-3.5,4-4.5c1.2-1,4.4-3.1,4.4-3.1s-0.1,2.6,0.8,3.8
		c0.8,1.2,1.9-1,5.6-4.5s6.5-4.7,6.5-4.7s0.8,1.6,1.8,3.3c1,1.7,1.9-0.1,6.4-8.4c3-5.4,6.4-10.3,10.1-14.9l1,0.6
		c-0.1,0.3-0.2,0.7-0.3,1.1c-0.4,1.7-1.1,2.9-2,5.2c-0.9,2.4-2.2,3-3.8,6.2c-1.6,3.2-1.8,5.5-1.9,8.8c-0.2,3.3,1.2,4,1.2,4
		s-2.3,3-3,5.2c-0.7,2.2-1,6.7-1,6.7s-0.4,0.2-1.2,2.5c-0.8,2.3-2.3,2.6-4.5,5.5c-2.2,2.9-4.6,4.1-5.8,5c-1.1,0.9-0.8,1.8-0.5,3
		c0.3,1.2,1.9,2.3,3.7,3.2c1.8,0.9,2.4,0.6,3.7,0.5c1.2-0.1,0.3,1.2-0.3,2c-0.5,0.7-1.2,3.1-1.1,5.8c0.1,2.7,1.6,2.1,3.5,1.6
		c1.9-0.4,4-1.6,4-1.6l-0.2,0.8c-0.2,0.8-0.3,1.3-0.3,3.5c0,2.1,0.3,3.2,0.7,3.7c0.5,0.5,1.4-0.6,2.1-0.9c0.7-0.3,1.8-1.2,3.5-1.7
		c1.7-0.5,2.3-1.5,2.3-1.5s-0.4,0.7-0.5,2.2c-0.1,1.5-0.1,3.8,0.2,5.1c0.2,1.3,1,2.9,2.1,4.3c1.1,1.4,1.4,0.8,2.2-1
		c0.8-1.7,2.5-3.9,2.5-3.9s0.1,0.6,1.2,5.5c1.1,4.9,4.9,9,4.9,9s3.7-4.1,4.9-9c1.1-4.9,1.2-5.4,1.2-5.4s1.7,2.2,2.5,3.9
		c0.8,1.7,1.1,2.3,2.2,1c1-1.1,1.7-2.6,2.1-4.3c0.3-1.3,0.3-3.6,0.2-5.1s-0.5-2.2-0.5-2.2s0.6,1,2.3,1.4c1.7,0.5,2.8,1.4,3.5,1.7
		c0.7,0.3,1.6,1.5,2.1,0.9c0.5-0.5,0.7-1.6,0.7-3.7c0-2.1-0.1-2.7-0.3-3.4l-0.2-0.8c0,0,2.2,1.2,4.1,1.6s3.4,1,3.5-1.6
		c0.1-2.7-0.6-5.1-1.1-5.8c-0.5-0.7-1.5-2-0.3-1.9c1.2,0.1,1.9,0.4,3.7-0.5c1.8-0.9,3.4-2.1,3.7-3.2c0.3-1.2,0.6-2.1-0.5-3
		c-1.1-0.9-3.6-2.1-5.7-5c-2.2-2.9-3.7-3.2-4.5-5.5c-0.8-2.3-1.2-2.5-1.2-2.5s-0.4-4.5-1-6.7c-0.7-2.2-2.9-5.2-2.9-5.2
		s1.4-0.7,1.2-4c-0.2-3.3-0.4-5.5-1.9-8.8c-1.6-3.3-2.9-3.8-3.8-6.2c-0.9-2.4-1.6-3.5-2-5.2c-0.1-0.4-0.2-0.7-0.3-1l1.3-0.8
		c3.7,4.5,7.1,9.5,10.1,14.9c4.5,8.4,5.4,10.1,6.4,8.4c1-1.7,1.8-3.3,1.8-3.3s2.8,1.2,6.5,4.7c3.7,3.5,4.8,5.7,5.6,4.5
		c0.4-0.7,0.5-1.8,0.6-2.6c3,1.2,5.9,2.5,8.8,4.2c3.2,1.8,3.6,2.7,6.1,5.4c2.5,2.7,6.2,2.4,9.6,1c3.4-1.4,12.6-5.4,16.2-7.5
		c3.7-2.1,6.3-4,6.7-5c0.4-1,0.8-3.7,0.8-4.7c0-1-0.8-2.4-1.1-2.7c-0.3-0.3-0.1-1-0.1-1.6c0-1.2-0.2-2.3-0.7-3.3
		c-0.6-0.8-0.5-1.1-0.4-3.5c0.2-5-2.5-11.4-6.3-13.4c0,0-0.1-0.6-0.4-0.9c-0.3-0.3-0.8-0.6-0.8-0.6s0.1-2.9,0-3.5
		c0-0.6,0.2-0.6,0.5-0.4c0.2,0.2,0.7,0.9,1.3,1c0.6,0.2,1-0.4,1.1-1.3c0.1-0.9,0.6-2.8,0.9-3.7c0.2-0.9-0.1-1.1-0.3-1.2
		s-1.2-0.2-1.6-0.4c-0.4-0.1-0.4-0.2-0.3-0.5c0.1-0.3,0.3-0.8,0.8-2c0.6-1.2,0.1-1.2-0.5-1.4c-0.5-0.3-3-1.2-3.6-1.4
		c-0.7-0.1-0.8,0.6-0.8,1s0,2,0,2.7s-0.4,0.5-0.7,0.3c-0.5-0.3-0.9-0.7-1.3-1.1c-0.5-0.5-0.8,0-1,0.7c-0.2,0.7-0.7,3.5-0.9,4.3
		c-0.2,0.8-0.1,1.5,0.1,1.6c0.3,0.2,1.5,0,2.2,0c0.7,0,0.3,0.6,0.3,0.6s-0.8,1.7-1,2.3c-0.3,0.6-0.7,0.8-1.3,0.8h-1.6
		c0,0-4,0.2-6.9,3.1c-2.9,2.9-3.7,5.3-4.2,6.7c-0.5,1.4-1,1.1-1.4,1.6c-0.5,0.5-1.7,2.3-1.7,3.4s0.3,1.7-1,2.8
		c-1.3,1.1-2.3,5.8-0.6,8.4c1.7,2.5,2.4,5,2.9,6.1c0.5,1.2,0,1.7-0.4,1.7c-0.5,0-1.4-1-2.2-1.8c-0.8-0.8-4.7-4.9-6.4-6.6
		c-1.7-1.7-0.4-1.5-0.4-1.5s0.4,0.1,1.4-0.5c1-0.6,1.1-1.2,0.2-1.7c-1.2-0.6-2.4-1.5-3.4-2.6c-0.5-0.7-0.8-1.5,0.2-2.2
		c1-0.7,3.2-2.6,1.5-3.2c-1.7-0.6-3.7-1.1-5.4-1.7c-1.7-0.6-1.8-1.2-1.8-1.2l1.1-2.1c0,0,0.9-1.7-0.2-1.9c-1-0.2-3.5-0.6-5.8-2
		c-4.6-2.6-7.4-7.1-8.5-12.6l0.1-0.1c0.9,2.2,2.8,6.4,5.8,6.6c4.1,0.2,4.6-1.5,3.6-3.3c-0.9-1.8-2-3.4-2.3-3.9
		c-0.3-0.5-0.3-1.3,0.7,0.1c1.1,1.3,3.1,5.9,9.3,5.4c6.2-0.5,6.1-2.1,6.1-2.6c0-1.6-1.2-1.8-2-2.8c-0.4-0.5-0.6-1.3,0.6-0.6
		c1.2,0.6,4.3,1.4,8.5,0.2c1.6-0.5,6-3,6.4-5.9c0,0-2.8-0.2-4.7-1.3c-1.9-1.1-3.1-2-1-1.5c2,0.6,6,1.7,9.5,0.1
		c2-0.9,4.7-3.2,4.7-7.2c0,0-3.8-1.1-5.2-1.7s-1.8-1.2-1.8-1.2s5.4,2.3,10.4-1c4.9-3.3,5.1-7.9,5.1-9c0-1.1-0.1-1.4-0.1-1.4
		s-4.5,1.5-7.8,1.4c-3.4,0-4.4-0.4-4.4-0.4s9.4-0.3,14.1-4.2c4.7-3.8,5-11.4,5-11.4s-5.3,2.5-8.7,3c-3.4,0.5-5.4,0.5-6.2,0.4
		c-0.8-0.1-1.3-0.5,0.5-0.6c1.8-0.1,9-1.7,12.9-4.8c3.9-3.1,6.4-9.7,6.6-12.8c0.2-3.1,0-2.5-1.8-1.1c-1.8,1.5-8.2,6-12.5,7.3
		c-4.3,1.3-5.1,1.4-5.1,1.4s-1.6-0.1,0.5-0.9L438.3,236.1z M269.5,250.5l-1.9,1.4c0,0-0.8-2.1-1-2.7c-0.2-0.6-0.1-0.9,0.2-0.9
		c0.3,0,1-0.3,1.7-0.4c0.1,0,0.2,0,0.2,0C268.9,248.7,269.2,249.6,269.5,250.5L269.5,250.5L269.5,250.5z M327.1,295.4
		c-1.1,2.9-4.3,5.9-6.5,7.2c-2.3,1.3-4.8,1.7-5.8,1.9c-1,0.2-0.2,1.9-0.2,1.9l1.1,2.1c0,0-0.1,0.6-1.8,1.2s-3.7,1.1-5.4,1.7
		c-1.7,0.6,0.4,2.5,1.4,3.2c1,0.7,0.7,1.5,0.2,2.2c-0.5,0.7-2.4,2.1-3.4,2.6c-1,0.4-0.8,1.1,0.2,1.7c1,0.5,3.7,1.2,3.7,1.2
		s-0.1,0.2-1.7,1.8c-1.9,1.7-4.2,2.7-6.5,2.9c-1.9,0.2-5,0.3-8.8,0.1c-3.9-0.2-4.3-0.4-4.3-0.4s-0.1-1.7-0.4-4.3
		c-0.3-2.5-1.4-6.2-2.3-7.8c-0.9-1.7-2.7-5-2.7-5s0-0.7,0.2-1.5c0.1-0.8,0-1.7-0.4-3.3c-0.4-1.6-2.7-3.9-2.7-3.9s-0.1-1.7-0.1-3.2
		s-0.8-7.7-1.5-10.6c-0.7-2.9-4.2-10.5-5.8-14.1c-1.6-3.6-2.6-8.9-3.1-13.1c-0.5-4.1-0.3-5.5-0.1-6.6c0.1-0.5,0.2-0.9,0.4-1.3
		c0.7,1.2,1.6,2.3,2.6,3.1c4.7,3.8,14.1,4.2,14.1,4.2s-1,0.4-4.4,0.5c-3.4,0-7.8-1.4-7.8-1.4s-0.1,0.3-0.1,1.4c0,1.1,0.2,5.6,5.1,9
		c4.9,3.3,10.4,1,10.4,1s-0.4,0.5-1.8,1.2c-1.4,0.7-5.2,1.7-5.2,1.7c0,4.1,2.6,6.3,4.7,7.2c3.5,1.6,7.5,0.5,9.5-0.1
		c2-0.6,0.9,0.4-1,1.5c-1.9,1.1-4.7,1.3-4.7,1.3c0.4,2.9,4.8,5.5,6.4,5.9c4.2,1.2,7.2,0.5,8.5-0.2s1,0.1,0.6,0.6c-0.7,1-2,1.2-2,2.8
		c0,0.5,0,2.1,6.1,2.6s8.2-4,9.3-5.4c1.1-1.3,1-0.6,0.7-0.1c-0.3,0.5-1.3,2.2-2.3,3.9c-0.9,1.8-0.5,3.5,3.6,3.3c3-0.1,5-4.4,5.9-6.6
		l0.1,0.1l0.2,0.3C328.5,291.4,327.8,293.6,327.1,295.4L327.1,295.4z M376.9,117.3c-0.6-1.4-0.9-2.1-0.9-2.1s2.3,1.5,3.7,3.5
		c1.4,2.1,1.4,3.2,1.6,4.2c0.2,1,0,2.9-0.2,4.7c-0.2,1.8-0.2,2.8,0.1,3.5c0.3,0.6,0.5,1,0.5,1s-1,0.3-2,0.9c-1,0.5-2.2,1-2.9,0.2
		c-0.7-0.8-0.9-1.4-0.4-1.9c0.5-0.5,2.1-1.1,2.3-4.9C378.8,122.6,377.4,118.7,376.9,117.3z M364.2,127.6c0.5-1.8,0.8-3.5,0.3-7.2
		c-0.3-3.1-0.8-5.7-0.9-9.1c0,0,1.7,0.5,4.2,3.5c2.5,3,3,6.1,3,7.6s-0.6,3.3-0.7,4.8c-0.1,1.5,0.3,2.8,0.3,2.8s-0.9,0.5-1.7,1.2
		c-0.8,0.8-1.4,1.2-2.6,1.1c-1.2-0.1-2-0.8-2.7-1.3s-1.2-0.6-1.2-0.6S363.6,129.4,364.2,127.6L364.2,127.6z M352.1,114.8
		c2.5-3,4.2-3.5,4.2-3.5c-0.1,3.3-0.6,6-0.9,9.1c-0.4,3.7-0.2,5.4,0.3,7.2c0.5,1.8,2,2.9,2,2.9s-0.5,0.1-1.2,0.6
		c-0.7,0.5-1.5,1.3-2.7,1.4c-1.2,0.1-1.8-0.4-2.6-1.1c-0.8-0.8-1.7-1.2-1.7-1.2s0.4-1.3,0.3-2.8c-0.1-1.5-0.7-3.3-0.7-4.8
		C349.1,120.9,349.7,117.8,352.1,114.8L352.1,114.8z M343.2,133.1c-0.7,0.8-2,0.3-2.9-0.2c-1-0.5-2-0.9-2-0.9s0.2-0.3,0.5-0.9
		c0.3-0.6,0.3-1.7,0.1-3.5c-0.2-1.8-0.4-3.7-0.2-4.7c0.2-1,0.2-2.1,1.6-4.2c1.4-2.1,3.7-3.6,3.7-3.6s-0.3,0.7-0.9,2.1
		c-0.6,1.4-1.9,5.3-1.7,9.1c0.2,3.8,1.9,4.4,2.3,4.9C344.1,131.8,343.9,132.3,343.2,133.1L343.2,133.1z M376.1,164.7
		c-2.4,1.8-3.8,1.4-3.7,2.7c0.1,1.3,2.3,2.3,2.3,2.3s-2.2,3.2-4,4.6c-1.7,1.5-3.8,2.4-3.8,2.4s-0.7,0.1-0.3,1.6
		c0.4,1.5,1.1,2.4,1.6,2.9c0.5,0.4,0.8,0.5,0.8,0.5s-3,4.3-4.4,5.7c-1.4,1.4-2.1,1.9-3.2,2.5c-1.1,0.6-0.6,3-0.3,4.1
		c0.2,1.1,1.2,2.5,1.7,2.7c0.5,0.2,0.7,0.7,0,2.2c-0.5,1.1-2.2,4-3.1,5.6l0,0c-0.8-1.6-2.6-4.5-3.1-5.6c-0.7-1.5-0.5-2,0-2.2
		s1.5-1.7,1.7-2.7c0.2-1,0.8-3.4-0.3-4c-1.1-0.6-1.8-1-3.2-2.4c-1.4-1.4-4.4-5.7-4.4-5.7s0.3-0.1,0.8-0.5c0.8-0.7,1.3-1.7,1.6-2.9
		c0.4-1.5-0.3-1.6-0.3-1.6s-2-0.9-3.8-2.4c-1.7-1.5-4-4.6-4-4.6s2.2-1,2.3-2.3c0.1-1.3-1.3-0.9-3.7-2.7c-2.4-1.8-3.2-4-3.2-4
		s2.8-1.2,4.2-5c0.5-1.3,0.6-2.5,0.6-3.6l0.1,0.1c4.5,1.9,9.8,2.7,14.5,2.7c4.7,0,10-0.8,14.5-2.7l0.1-0.1c-0.1,1,0.1,2.2,0.6,3.6
		c1.4,3.8,4.2,5,4.2,5S378.6,162.9,376.1,164.7L376.1,164.7z"/>
	<path style="fill:#D4AF3A;" d="M390.9,237.8c0-10.2,3.5-16.6,3.5-16.6l-9.6-14.6c-9.1,4.7-17.4,5-24.9-0.1
		c-7.4,5-15.8,4.8-24.9,0.1l-9.6,14.6c0,0,3.5,6.4,3.5,16.6c0,10.2-1.5,17.7-2.3,22.7c-0.9,4.9-1.6,14.1,0.4,20.7
		c2,6.6,4.1,12.3,12.6,17.1c8.5,4.8,12.9,7.2,15.9,10.5c3,3.3,4.4,5.9,4.4,5.9s1.5-2.6,4.4-5.9c3-3.3,7.4-5.7,15.9-10.5
		c8.5-4.8,10.6-10.5,12.6-17.1c2-6.6,1.2-15.8,0.4-20.7C392.4,255.5,390.9,248,390.9,237.8L390.9,237.8z"/>
	<path style="fill:#B96B29;" d="M387.9,242c-1.2-9.7,3-18.3,3-18.3l-8.2-12.8c-6.3,4.7-15.1,4.1-22.7-0.6
		c-7.6,4.7-16.4,5.3-22.7,0.6l-8.2,12.8c0,0,4.2,8.5,3,18.3c-1.2,9.7-3.8,25.1-3.1,31.4c0.7,6.3,4,13.5,7.4,17.4
		c3.4,3.8,8.5,7,12.1,8.7c3.2,1.7,6.1,4,8.8,6.8c1.7,1.7,2.8,3.2,2.8,3.2s1.1-1.5,2.8-3.2c1.7-1.7,5.2-5,8.8-6.8
		c3.6-1.7,8.7-5,12.1-8.7c3.4-3.8,6.7-11.1,7.4-17.4C391.7,267,389.1,251.7,387.9,242L387.9,242z"/>
	<path style="fill:#1D5E91;" d="M387.1,243.1c-1.2-10.5,2.4-18.9,2.4-18.9l-7.4-11c-6.2,4.3-13.8,3.2-22.1-0.7
		c-8.3,3.8-15.9,4.9-22.1,0.7l-7.4,11c0,0,3.6,8.5,2.4,19c-1.2,10.5-3,22.4-2.6,29.4c0,0.5,0.1,1,0.1,1.5h6.7c0,0,0.4-0.6,1.1-1
		c0.8-0.4,1-0.7,1-0.7s0.1-1.8,1-2.2c0.8-0.4,1.2-0.4,1.5-0.4s0.6-0.1,1-0.6c0.4-0.5,1.5-1.8,1.9-3.6c0.5-1.8,0.8-2.5,0.8-3.7
		c0-1.2,0.3-3.1,0.3-3.1s-0.2-0.6-0.9-0.2c-0.7,0.3-0.8-0.6-0.9-1.5c-0.1-0.9,0-2.8,0.3-3.6s0.5-1.2,0.5-1.2l-0.3-1.4
		c0,0-4.3,1.1-5-3.3c-0.7-4.4-0.9-6.6-1-7.1c-0.1-0.5-0.2-0.7-0.8-0.7c-0.6,0-1.8-0.5-2.6-2.8c-0.9-2.3-0.9-3.2-0.7-4.1
		c0.2-0.9,0.7-0.6,0.9-0.3c0.1,0.3,1.3,2.5,1.7,1.9c0.5-0.6,0.2-0.6-0.4-2.3c-0.7-1.7-0.4-2.3-0.3-3.1c0.1-0.8-0.2-2-0.2-2.5
		c0-0.5,0.4-0.9,0.8-0.6c0.4,0.2,0.8,0.6,0.9,0.9c0.2,0.3,0.2,0.7,0.6,0.5s0.1-1.9,0.1-2.4c0-0.5,0.5-0.9,1-0.5
		c0.6,0.4,0.9,1.2,0.9,1.8c0,0.6,0,1.1,0.2,1.1s0.5-0.9,0.5-1.4c0-0.6,0.3-1.4,0.7-0.7c0.4,0.7,0.5,1.8,0.4,2.8
		c-0.1,1.1,0.1,0.5-0.1,2.4c-0.3,1.9-0.4,2.8-0.4,4.2c0,1.4,0.1,2.2,0.6,4c0.5,1.8,1,3.8,2,3.9l1.3,0.1c0,0,1.1-2.8,2-3.5
		c0.9-0.7,2.1-0.8,2.9-0.9c0.9-0.1,1.2-0.5,1.2-0.8s-0.3-0.4-1.3-0.6c-1-0.2-1.9-0.5-1.9-1.6c0-1,0.2-1.9-0.5-2
		c-0.7,0-2.4-0.8-3-2.2c-0.6-1.5-0.5-1.8-0.4-2.6c0.1-0.8,0.9-2.4,1.4-0.9c0.5,1.5,0.8,1.7,1.2,2c0.4,0.3,1,0.4,0.7-0.6
		c-0.3-1-0.5-1.7-0.4-2.5c0.1-0.8,0.5-1.1,0.9-1.2c0.4-0.1,1.8-0.7,2.6-0.9c0.7-0.2,0.7-0.3,0.7-0.3s0.1-0.7,1-1.1
		c0.7-0.3,1.5-0.4,2.2-0.4c0.7,0,1.2,0.2,2.1-0.4c0.9-0.6,1.6-0.7,2.2-0.6c0.6,0,1,0.3,1.4,0.7c0.4,0.4,0.3,0.9,0.3,1.4
		c0,0.5,0.1,0.8,0.7,0.8s1.1,0,1.7,0.3c0.6,0.3,1.4,0.7,0.9,1.5s-0.5,1.7-0.9,1.7c-0.3-0.1-0.3,0.4-0.4,0.7
		c-0.1,0.3-0.2,0.5,0.1,0.8c0.3,0.3,0.4,0.6,0.9,1.2c0.5,0.6,1.2,1.3,0.5,2.3c-0.7,1-2.1,1.8-2.1,1.8s-0.7,0.5,0.1,1.2
		c0.9,0.7,1.2,2.1,1.6,2.3c0.3,0.2,0.6,0.6,0.8,0.8c0.2,0.1,0.2,1.1,0.2,1.1s-0.5,0.4-1.1,0.8c-0.6,0.3-1.3,0.7-1.9,0.7
		c-0.6,0-0.9,0-0.7,0.8c0.2,0.8,0.7,1.6,0.8,2c0.1,0.4,0.2,1.2,0.2,1.2s1,0.3,1.9,0.3c0.9,0,1.3,0,3.2-0.2c2-0.3,2.5-0.4,4.4-0.1
		c1.9,0.3,2.2,0.2,2.7,0.4c0.5,0.2,1,0.6,1,0.6s2.7,0,4.1-0.5c1.5-0.4,1.8-1.7,1.6-2.3c-0.2-0.7-0.2-1.7-2.7-2.1
		c-2.6-0.5-3.6-0.3-5.6-0.8c-2-0.5-5.2-1.9-5.8-5.3c-0.6-3.4,1.5-4.8,2.5-5.5c1-0.7,3.3-1.7,4.3-2.3c1-0.6,2.9-1.2,4.9-0.8
		c2,0.4,3.1,1.1,3.9,0.5c0.8-0.6,1.4-0.1,1.3,0.8c-0.1,1-0.9,2.9-3.2,3.8c-2.2,0.9-4.9,1-6.4,0.5c-1.5-0.5-2.6-1.3-3.4-0.9
		c-0.9,0.4-1.9,1.9-0.9,3.7c1,1.8,5.9,2.3,7.2,2.5c1.3,0.2,6.2-0.3,7.6,2.9c1.4,3.3,0.3,6.9-1.4,7.7c-1.6,0.8-3,1.3-4.3,1.6
		l-1.2,0.2c0,0,0.6,1.7,0.6,2.4c0,0.7-0.1,2,0.5,2.5c0.6,0.5,1.5,0.9,2.5,0.8c1-0.1,2.3,0.8,2.4,2c0.1,1.2,0.4,3,0.5,5.4
		c0.1,2.5,0,4.5,0,4.5s-0.1,1-0.3,1.9c-0.3,0.9-1.5,4.4-1.5,4.4h7.2c0.1-0.5,0.1-1,0.1-1.5C390.1,265.4,388.2,253.5,387.1,243.1
		L387.1,243.1z"/>
	<path style="fill:#6D8C3E;" d="M331.2,278.6c1.6,6,4.7,11,8.7,14.3c6.1,4.9,8.8,4.3,14.6,9.3c5.8,5,5.4,5.8,5.5,5.8
		s-0.3-0.9,5.5-5.8c5.8-5,8.4-4.4,14.6-9.3c4.1-3.3,7.1-8.3,8.7-14.3H331.2L331.2,278.6z"/>
	<path style="fill:#D4AF3A;" d="M336.2,237.2c0.7,0.9,1.1,1.2,2.1,1.1c1-0.1,1.2,0.8,1.4,1.9c0.2,1.1,0.2,3.6,0.9,5.9
		c0.7,2.3,3.1,2.4,3.1,2.4c0.1-1.3,0.4-2.6,0.7-3.8c0.1-0.2,0.4-1.2-0.5-1.2c-0.9,0-0.8-0.5-1.4-1.6c-0.8-1.9-1.4-3.9-1.8-6
		c-0.2-1.9,0.2-4.7,0.4-5.7c0.2-1,0.3-1.7,0-1.9c-0.3-0.2-0.8,0-0.8,0s0.2,0.9,0,1c-0.2,0.2-0.4-0.4-0.6-1.1
		c-0.2-0.6-0.4-0.6-0.7-0.5c-0.3,0.1-0.3,0.5-0.1,0.9c0.2,0.5,0.1,1.3,0.1,1.3s-0.8-0.7-1.1-0.9c-0.3-0.2-1,0.2-1.1,0.7
		c-0.1,0.6,0.3,2,0.9,2.7c0.7,0.7,0.7,2.2,0.5,3c-0.2,0.7-1.2,0.6-1.4,0.3c-0.2-0.3-0.6-0.4-0.8-0.1c0,0,0,0.1-0.1,0.1
		C335.9,236,335.6,236.3,336.2,237.2L336.2,237.2z M335.9,234.8c0,0-0.4-0.4-0.5-0.6l-0.4-0.8c0,0-0.1,0.2-0.1,0.8s0.5,1.2,0.5,1.2
		L335.9,234.8L335.9,234.8z M337.3,228.3c0.3-0.2,0.6-0.3,0.3-0.8c-0.2-0.4-0.4-1-0.7-1.1s-0.4,0-0.4,0s0.3,0.8,0.3,1.3
		C336.9,228.3,337,228.5,337.3,228.3z M339.1,226.4c0,0.4,0,0.6,0.3,0.4c0.3-0.2,0.4-0.7,0.2-1.1c-0.1-0.4-0.4-0.6-0.4-0.6l-0.2-0.2
		C339,224.9,339.1,226,339.1,226.4L339.1,226.4z M341.7,226.9c0-0.5-0.1-1-0.1-1s0,0.6-0.2,0.9c-0.2,0.3-0.1,0.2,0,0.5
		S341.7,227.4,341.7,226.9L341.7,226.9z M345.8,250.4c0.5,1.6,1.8-0.9,3-2.9c1.2-2,1.1-0.4,1,1.2c-0.1,1.6,0.2,3.1,0.8,4.5
		c0.5,1.1,0.9,0.5,1.1-0.3s0.3-2.4,0.7-3.2c0.4-0.8,0.8-0.1,0.8,0.6s0.7,2.2,1.3,3.1c0.6,0.9,0.9-0.3,1.1-1.4
		c0.2-1.1,0.4-2.8,0.6-3.5c0.2-0.7,0.7-0.1,0.7-0.1l1.2,1.5c0.8,1,0.9-0.6,0.9-1.3c0.1-0.8-0.1-2.5,0.1-2.8c0.2-0.3,0.9,0.4,1.9,1
		c1,0.7,1-0.6,0.9-1.3c-0.1-0.8-0.7-2.4-1.5-3.4c-0.8-0.9-0.9-2.1-0.7-2.5c0.3-0.5,1.3-0.1,1.9-0.2c0.6-0.1,0.9-0.2,1.4-0.3
		s0.5-0.7,0.5-0.7s-0.4-0.8-1-1.6c-0.7-0.8-1.1-1.4-1.9-1.7c-0.8-0.3-2,0-2,0l-0.1-0.3c-0.1-0.3-0.4-0.3-0.5,0
		c-0.2,0.3-0.6,0.7-0.9,1.1c-0.3,0.4-0.5,0.6-0.7,0.4c-0.2-0.2,0.2-0.5,0.2-0.5s0.4-0.4,0.8-1.5c0.4-1,0.5-2.1,0.2-2.5
		c-0.3-0.5-1.2,0-1.6,0c-0.5,0-0.8,0.1-0.8-0.2c0-0.3,0.5-0.2,1.1-0.3c0.6-0.1,0.9-1,1.1-1.8c0.2-0.8,0.3-0.7,0.7-0.2
		c0.3,0.5,0.7,0.4,0.7,0c0.1-0.3,0.4-1.1,0.8-1.9c0.4-0.8,0.6-1.9,0.2-2.6c-0.4-0.8-1.5-0.6-1.9-0.2c-0.4,0.5-0.7,0.9-0.8,2.1
		c-0.1,1.1-0.3,0.5-0.3,0.1s-0.4-1-0.2-1.4c0.2-0.5,0-1,0-1s-0.1-1-0.9-1.2s-1.8,0-2.6,0.3s-0.7,1.2-0.7,1.2s-0.6,0.1-1.3,0.2
		c-0.7,0.1-1.5,0.5-2.1,0.7c-0.6,0.2-0.9,0.3-0.9,0.7c0,0.4,0.1,1.1,0.1,1.1s0.5,0,0.8,0.2c0.3,0.2,0.1,0.6-0.2,0.7
		c-0.3,0.2-0.4,0.2-0.4,0.7s0.2,0.6,0.5,0.6s1,0,1.8,0.5c0.8,0.5,1,1.4,0.9,1.9s-1.2,1.2-1.7,1.2s-0.7,0.2-0.7,0.6
		c0,0.5,0.7,0.4,0.7,0.4s0.7,0.1,2,0.3c1.3,0.2,1.5,0.6,2.1,1.3c0.6,0.7,0.2,0.8-0.1,1c-0.3,0.2-0.7,0.7-1.1,0.9
		c-0.4,0.2-0.7,0.6-1.1,0.7c-0.4,0.1-1.4,0-3.2,1c-1.8,0.9-2.4,4.1-2.4,4.1s0.2-0.1,1.1-0.7c0.8-0.6,1.8-1.2,2.8-2
		c0.9-0.8,0.9,0.4,0.5,1.5c-0.5,1.1,0.4,0.9,0.7,0.6c0.3-0.3,0.6-0.6,1.5-1.3c0.9-0.6,0.6,0.4,0.6,0.4s-0.3,0.7-0.3,2.5
		c-0.1,1.7,1.3,0.1,1.9-1c0.6-1.1,0.9,0,0.5,1.3c-0.5,1.3-1.4,2.2-1.9,2.2c-0.5,0-0.9-0.7-0.9-1.2c0-0.4,0.2-1.7-0.2-2
		c-0.3-0.3-1.2,0.1-1.9,0.6c-0.7,0.5-0.8,0.1-1-0.4c-0.2-0.5,0.2-0.6,0.1-0.9c-0.2-0.3-0.5,0-0.8,0.2c-0.3,0.2-0.9,0.6-2.1,1.5
		c-1.2,0.8-1.1,1.3-1.1,2.5C345,248.6,345.3,248.9,345.8,250.4L345.8,250.4z"/>
	<path style="fill:#D4AF3A;" d="M357.5,224.2c0.3-0.2,0.7-0.5,0.7-0.5s0.6-0.2,1.1-0.3c0.5-0.1,0.4-0.5,0.3-0.8
		c-0.1-0.3-0.3-0.5-1-0.5c-0.7,0-1.1,0.5-1.5,0.7c-0.4,0.2-0.9,0.4-0.9,0.4l0.3,0.6C356.9,224.3,357.3,224.4,357.5,224.2
		L357.5,224.2z M360.4,227.9c0.3,0,0.6-0.2,0.6-0.2s0.5-0.3,1-0.6c0.5-0.2,0.7-0.3,0.9-1.1c0.3-0.7-0.3-0.7-1.1-1
		c-0.8-0.3-1.2,0.1-1.3,0.5c-0.1,0.4-0.1,0.9-0.4,1.6C359.7,228,360.1,227.9,360.4,227.9L360.4,227.9z M360.1,228.9
		c-0.8,0-1.7,1.6-2,1.9c-0.3,0.3-0.1,0.6-0.1,0.6s0.2,0.6,0.3,1.3c0.1,0.6,0.1,1.7,0.1,1.7s0.1,0.1,0.6,0.1c0.5,0,0.7-0.3,1.2-0.8
		c0.4-0.5,0.8-0.6,1.4-0.7c0.6-0.2,0.9-0.3,1.6-0.8c0.7-0.5-0.4-1.3-1.1-2.2C361.6,229.2,360.9,228.8,360.1,228.9L360.1,228.9z
		 M349.6,232.5c0.6-0.1,0.9-0.5,0.9-1s-0.3-1-1.1-0.9c-1.9,0.2-3.8-0.7-4.2-3.3c0,0-0.7,1.6,0.6,3.4
		C347,232.6,349,232.6,349.6,232.5L349.6,232.5z M343,273.5c0.1,0.2,0.2,0.4,0.3,0.5h3c0.5-0.2,0.5-0.8,0.5-1.2c0-0.5,0.3-2,0.7-4.6
		c0.4-2.7,1.1-4.5,1.4-5.6c0.3-1.1-0.3-1.4-0.5-2.1c-0.2-0.7-0.5-1.8-0.6-2.4s-0.8-0.5-1.2-0.5c-0.4,0-0.4,0.9-0.5,1.7
		c-0.1,0.8-0.3,3.1-0.6,5.1c-0.3,2-2,4.7-2.5,5.3c-0.5,0.6-0.9,0.8-1.2,0.8s-1,0-1.4,0.3c-0.3,0.3-0.7,1-0.7,1.6
		c0,0.6,0.7,0.9,0.7,0.9s0.6-0.4,0.8-0.8c0.2-0.3,0.7-0.4,1.1-0.5c0.5-0.1,0.5,0.1,0.4,0.4C342.6,272.5,342.6,272.6,343,273.5
		L343,273.5z M338.4,273.3c-0.2,0.1-0.4,0.4-0.5,0.7h2c0-0.2-0.1-0.5-0.2-0.7C339.5,272.9,338.8,273.1,338.4,273.3L338.4,273.3z"/>
	<path style="fill:#D4AF3A;" d="M341.1,273.2c-0.2,0.2-0.5,0.5-0.7,0.7h2.1c0.1-0.3,0.1-0.6-0.2-0.9
		C341.9,272.5,341.4,272.9,341.1,273.2L341.1,273.2z M359.3,272c-0.2,0-0.4,0.3-0.8,0.6c-0.3,0.3-0.4,0.8-0.5,1.2l0,0.2h0.9
		c0,0,0.1-0.1,0.1-0.2c0-0.3,0.1-0.7,0.5-1.1C359.9,272.2,359.6,272,359.3,272L359.3,272z M361.1,273.3c0-0.4-0.1-0.7-0.3-0.7
		s-0.5,0.5-0.8,0.8c-0.2,0.2-0.3,0.3-0.4,0.5h1.3C361,273.7,361.1,273.5,361.1,273.3L361.1,273.3z"/>
	<path style="fill:#D4AF3A;" d="M369.2,260.4c0.6-0.6,0.5-0.8,0.6-1.4c0-0.6,0-0.9-0.2-1.1c-0.3-0.2-1.2-0.8-2.1-0.8
		c-0.9,0-2.6,0.3-3.2,0.9c-0.6,0.6-0.9,2.7-0.9,3.7c0,1.1,0.1,1.3,0.4,1.3s0.6-0.8,0.6-0.8s0.8,1.5,1.4,2.5c0.5,1,0.3,1.4,0,2.2
		c-0.2,0.8-1.1,2.8-1.7,3.3c-0.7,0.5-1.2,0-2-0.1c-0.8-0.2-1.2,0.1-1.7,0.8c-0.5,0.6,0,1.1,0.3,1.1c0.3,0,0.7,0,1,0.5
		c0.2,0.3,0.1,1.2,0,1.6h3.9c0.7-0.4,1.1-1.6,1.3-2.3c0.2-0.8,1-1.7,1.5-2.2c0.4-0.5,0.5-0.8,0.5-2s-0.2-1.8-0.5-2.5
		c-0.3-0.8-0.5-1.7-0.4-2.6C367.7,261.6,368.5,260.9,369.2,260.4L369.2,260.4z"/>
	<path style="fill:#D4AF3A;" d="M362.8,247.4c0.4,0.8,0.2,1-0.4,1.2c-0.6,0.1-1.2,0.3-2,0.2c-0.9-0.1-0.9,0.1-0.9,0.6
		c0,1-0.2,1.9-0.6,2.7c-0.5,0.9-1.1,0.6-1.5,0.2c-0.4-0.4-0.6-0.3-0.8,0.4c-0.1,0.7-0.4,1.1-0.8,2.1c-0.4,1-0.7,1-1,0.9
		s-0.6-0.7-0.9-0.7s-0.8-0.8-1.2-1.8c-0.4-0.9-0.7,0.1-0.9,0.9c-0.3,0.8-0.6,1.4-1.1,1.3c-0.6-0.1-1.2-1.5-1.5-2.3
		c-0.3-0.8-0.5-1.7-1-1.6c-0.5,0-1.3,1.4-1.8,1.7c-0.5,0.4-0.7,0.2-0.9-0.2c-0.2-0.5-0.6,0.1-0.9,1.2c-0.3,1.1,0,2,0.4,2.2
		c0.5,0.3,1.3-0.5,1.9-1.1c0.6-0.5,0.8-0.4,1.5-0.4c0.6,0,0.6,1.3,0.8,3.3c0.3,1.9,1.1,2.2,1.1,2.2s0.3,0.3,0.9-1.2
		c0.7-1.5,0.7-3,1.4-3c0.6,0,0.7,0.2,1.3,1.4c0.6,1.2,1.2,2,1.5,1.2c0.4-0.9,0.7-2.2,1.1-2.6c0.4-0.5,0.8-0.6,0.4,0.3
		c-0.5,0.8-0.6,1.8,0.3,1.4c0.9-0.4,4.3-2.2,5.7-2.6c0,0,1.6-0.4,3.5-0.5c1.9-0.1,2.3-0.3,3.1-0.3c0.7,0,0.8-0.1,0.8-0.7
		c0.1-0.6-0.3-0.5-1.7-0.5c-1.4,0-2.3,0.2-3.3,0.4c-0.9,0.2-1.4,0.2-1.2-0.2c0.2-0.3,0.4-0.6,1.5-0.8c1.5-0.2,3-0.4,4.5-0.4
		c1.2,0,0.8,0.4,0.7,1.5c-0.1,1,0.1,2.6,0.2,3.5c0.1,1,0.1,1.3,0.7,2.6c0.6,1.4,2.8,2.2,3.4,2.7s0.5,0,0.5-0.8s0.5-0.8,1-0.4
		c0.6,0.4,1.5,0.8,2.1,1c0.7,0.2,0.7,0.4,0.7,0.8s0.1,1.5,0.1,2.4c0.1,0.9,0.1,1.2-0.2,1.8s-1.5,2.3-1.5,2.3s-0.6,0-1.7,0.4
		c-1.2,0.4-1.6,1.1-1.7,1.8c-0.1,0.6,0.2,0.8,0.3,1.1c0,0.2,0,0.5,0,0.8h0.3c0.1-0.2,0.2-0.5,0.4-0.8c0.4-0.7,1.5-0.9,2.1-0.4
		c0.5,0.3,0.5,0.9,0.4,1.3h2.7c0.5-1.3,1-2.6,1.5-3.9c0.3-0.9,0.5-1.4,0.5-2.6c0-1.2,0.1-5.8,0-6.1c-0.2-0.3,0-1,0-2.3
		c0-1.3,0-2.2-1.8-2.5c-1.8-0.2-2.4-1.2-3-2c-0.6-0.8-0.4-2.7-0.9-4.9c-0.5-2.2-1.7-2.6-3.8-3.2s-3.7-0.6-5.2-0.4
		c-1.6,0.2-3.5,0.5-4.6,0.4C362.3,246.1,362.4,246.5,362.8,247.4L362.8,247.4z"/>
	<path style="fill:#D4AF3A;" d="M373,273.4c-0.2,0.2-0.3,0.3-0.4,0.5h1.8c0-0.2,0-0.5-0.2-0.7C374,272.8,373.4,273,373,273.4z
		 M376.3,273.2c-0.3,0.2-0.5,0.5-0.6,0.7h1.9v-0.3C377.5,273.2,376.9,272.8,376.3,273.2L376.3,273.2z M330.5,274.8
		c0.1,0.8,0.2,1.5,0.4,2.3h58.3c0.2-0.8,0.3-1.6,0.4-2.3H330.5L330.5,274.8z M369.7,237.7c1.8,1.6,7.7,1.7,10.4,2.5
		c2.7,0.7,2.6,3.5,1.7,5c-0.8,1.5-4.7,1.7-5.4,1.8c0.4,0.3,0.9,1.4,0.9,1.4l1.6-0.2c1.2-0.1,3.2-0.5,4.6-2.1
		c1.4-1.5,1.3-4.1,0.1-5.7c-1.2-1.7-3.3-1.8-5.3-2.2c-2.1-0.3-3.7-0.5-6-1c-2.3-0.5-3.5-1.8-3.5-3.6c0-1.8,1.3-2.7,2.2-3.1
		c0.9-0.3,2.4-0.9,3.6-0.2c1.3,0.6,2.8,0.8,5.4,0.3c2.5-0.4,3.1-2.8,3.1-2.8s-0.3,0.2-1.6,0.3c-1.3,0-2.2-0.7-4.6-0.8
		c-2.4,0-3.2,1.1-4.3,1.6c-1.1,0.5-4,0.9-4.9,3.5C366.9,234.9,367.9,236.1,369.7,237.7L369.7,237.7z"/>
	<ellipse style="fill:#B96B29;" cx="354.4" cy="226" rx="1.1" ry="1.4"/>
	<path style="fill:#B96B29;" d="M378,228.4c-1.5-0.2-3.4,0.3-3.4,0.3s0.4,0.4,0.8,0.3s1.4-0.1,2.8,0.3c1.4,0.3,2.5-0.6,2.5-0.6
		S379.5,228.6,378,228.4z"/>
	<path style="fill:#1D5E91;" d="M364.2,264.6c-0.4-0.8-0.4-0.7-0.9-0.2c-0.4,0.5-0.8-1.2-0.9-2.2c0-1,0.3-4.1,0.3-4.1s-2,0.5-3,1
		c-1.1,0.5-2.1,0.6-3,0.9s-1.3,0.5-1.8,0.4c-0.5-0.1-1.4-0.2-2.2-0.2c-0.8,0-0.7,0.2-1.5,1.2c-0.8,1-1,1.6-1.6,3.5
		c-0.6,1.9-0.9,3.9-1,6c-0.1,1.5-0.4,2.5-0.5,3.1h9.1l0.4-1.2c0.2-0.7,0.7-1.1,1.1-1.3s0.7-0.2,0.8-0.8c0.2-0.5,0.6-1,1.1-1.3
		c0.5-0.3,1.3-0.1,2.1,0.2c0.8,0.3,1-0.4,1.2-0.8c0.2-0.4,0.3-0.9,0.7-1.6c0.4-0.7,0.1-1.3,0.1-1.3S364.5,265.3,364.2,264.6
		L364.2,264.6z M378.8,264.9c-0.1-0.7-0.1-0.8-0.4-0.9c-0.3-0.1-0.8-0.2-1.3-0.5c-0.4-0.3-0.4,1.4-0.4,1.4s-1.1,0.1-2.3,0
		c-1.2-0.2-2.6-1.6-3.1-2.1c-0.5-0.5-1-1.6-1-1.6s-0.4,0.5-0.8,0.8c-0.4,0.3-0.6,1.3-0.7,2.3s0.9,2.2,1,3.3c0.1,1-0.8,3.1-1.3,3.9
		c-0.3,0.6-0.7,1.8-0.9,2.5h4.4c0.1-0.4,0.3-0.7,0.5-1c0.4-0.6,1.2-0.7,1.2-0.7s0-0.3,0.2-0.8c0.2-0.6,0.6-1.2,1.7-1.8
		c1.1-0.6,2.4-0.7,2.4-0.7s0.5-0.6,0.9-1.4C379.2,266.8,379,265.6,378.8,264.9L378.8,264.9z"/>
	<g>
		<path style="fill:#D4AF3A;" d="M342.2,329.7c0.8,0.4,2.4-0.4,3.1-1.7c0.8-1.2,1-3.1,1.6-4.2l0.9-1.9c0,0-0.1,1.8-0.8,4.2
			c-0.6,2.2-0.8,4.5-0.6,6.8c0.3,2.7,1.6,3.1,2.4,2.8c0.6-0.3,1.5-1.5,2.3-3.3c0.3-0.6,0.4-1.3,0.7-2c0.5-1.3,1-3.5,1.2-3.4
			c0.5,0.1,0.2,1.7,0,2.7c-0.4,2-1.2,5-1.2,6.9c-0.1,1.8,0.1,5.1,1.5,5.2c1.4,0.1,2.1-1.5,2.8-5.2c0.8-3.7,0.9-4.9,1.3-4.9
			c0.3,0,0.3,2.5,0.3,3.6c0,0.4,0,1.4,0.1,2.5c0.2,2,0.7,4.4,1.1,4.9c0.7,0.8,1.2,0.6,1.2,0.6s0.5,0.1,1.2-0.6
			c0.7-0.8,1.2-6.3,1.2-7.4s0-3.6,0.3-3.6c0.3,0,0.5,1.2,1.2,4.9c0.8,3.7,1.5,5.3,2.8,5.2c1.4-0.2,1.5-3.4,1.5-5.2
			c-0.1-1.8-0.8-4.8-1.2-6.9c-0.4-2,0.2-1.9,1.2,0.7c0.3,0.8,0.7,1.8,1,2.5c0.7,1.5,1.4,2.5,2,2.7c0.8,0.4,2.1-0.1,2.4-2.8
			c0.3-2.7-1.2-10.4-1.2-10.4l0.7,1.3c0.5,1.1,0.8,3,1.6,4.2c0.8,1.2,2.3,2,3.1,1.7c0.8-0.4,0.9-2.4,0.3-6.1
			c-0.6-3.6-3.1-5.7-4.8-8.6c-1.6-2.7-2.8-7.4-3-8.1c-2.2,1.4-4.2,3.2-5.9,5.5c-3.6,5-4.4,6.3-4.4,6.3s-0.8-1.3-4.4-6.3
			c-1.7-2.3-3.7-4.2-5.9-5.6c-0.2,0.6-1.7,5.1-3.3,7.8c-0.8,1.3-1.9,2.4-2.7,3.7c-0.9,1.5-1.5,3.3-1.8,5.2
			C341.3,327.2,341.4,329.3,342.2,329.7L342.2,329.7z"/>
		<path style="fill:#D4AF3A;" d="M342.1,342c1.1-1.2,1.6-1.9,1.6-1.9s0.8-0.9,0.6,0.8c-0.2,1.6-0.6,5-0.3,6.4
			c0.3,1.5,0.4,2.7,1.7,1.6c1.4-1.1,1.7-1.7,2.3-2.6c0.6-0.9,1.3-1.3,1.2,0.1c-0.2,1.4-0.6,3.6-0.4,6.4c0.2,2.9,1.3,3.3,2.7,0.9
			c1-1.8,1.9-3.8,2.6-5.9c0.4-1.2,1.2-2.2,1.2,0c0,4.8,0.8,11.7,4.8,13.6c4-1.9,4.8-8.8,4.8-13.6c0-2.2,0.8-1.2,1.2,0
			c0.4,1.2,1.3,3.4,2.6,5.9c1.4,2.4,2.4,2,2.7-0.8s-0.3-5-0.4-6.4c-0.2-1.4,0.5-1,1.2-0.1s1,1.5,2.3,2.6c1.4,1.1,1.5-0.2,1.7-1.6
			c0.3-1.5-0.2-4.8-0.3-6.4c-0.2-1.6,0.6-0.8,0.6-0.8s0.6,0.7,1.6,1.9c0.7,0.8,1.6,1.2,2.5,1.3c0,0,0.7-5-0.9-8c-1.6-3-2.1-4-2.1-4
			s-0.9-0.1-1.6-0.4c-0.7-0.4-1.4-1-1.4-1v2.8c0,0,1.9,2.4,2.4,3.2c0.4,0.7,1.4,2,0,0.8c-1.3-1.2-2.4-2.4-2.4-2.4s-0.3,2.5-0.8,3.2
			c-0.5,0.6-1.3,0.7-1.6,0.6l-0.3-0.2l-0.1,1c0,0,1.2,3,1.4,4.2c0.2,1.2-0.1,1.1-0.6-0.5c-0.6-1.5-1.6-3.5-2.1-4.6
			c-0.5-1.1-1.2-1.8-1.1-0.4c0.1,1.3-0.3,3.8-0.7,4.7c-0.3,0.9-0.6,1.2-0.6,1.2s0.7,3.5,0.8,4.1c0.1,0.6,0,1.4-0.4,0.6
			c-0.4-0.8-1.6-4.2-1.6-4.2s-1.6-0.1-2-0.7c-0.4-0.6-1.1-2.9-1.1-2.9s-0.6,3-1.2,3.9c-0.5,0.9-1.8,1.9-1.8,1.9s-0.1,5.1-0.2,6
			c-0.1,0.9-0.1,1.3-0.4,1.3c-0.3,0-0.3-0.4-0.4-1.3c-0.1-0.9-0.2-6-0.2-6s-1.2-0.9-1.8-1.9c-0.5-0.9-1.2-3.9-1.2-3.9
			s-0.7,2.3-1.2,2.9c-0.5,0.6-2,0.7-2,0.7s-1.2,3.4-1.6,4.2c-0.4,0.8-0.5,0.1-0.4-0.6s0.8-4.1,0.8-4.1s-0.2-0.3-0.6-1.2
			c-0.5-1.5-0.7-3.1-0.7-4.7c0.1-1.4-0.6-0.6-1.1,0.4c-0.5,1.1-1.5,3-2.1,4.6c-0.6,1.5-0.8,1.7-0.6,0.5s1.4-4.2,1.4-4.2l-0.1-1
			l-0.3,0.2c-0.3,0.2-1.1,0.1-1.6-0.6c-0.6-0.6-0.8-3.2-0.8-3.2s-1.1,1.2-2.4,2.4s-0.4,0,0-0.8c0.4-0.7,2.4-3.2,2.4-3.2v-2.8
			c0,0-0.7,0.6-1.3,1c-0.7,0.3-1.6,0.4-1.6,0.4s-0.6,1-2.1,4c-1.6,3-0.9,8-0.9,8S341,343.3,342.1,342L342.1,342z M361.4,375.5
			c-1-1.6-1.4-2.4-1.4-2.4s-0.3,0.8-1.4,2.4c-1,1.6-3.4,4-3.4,4s0.2,4.2,1.4,6.5c1,1.9,1.9,3.6,3.4,4.9c1.4-1.3,2.5-3,3.4-4.9
			c1.1-2.2,1.4-6.5,1.4-6.5S362.4,377.1,361.4,375.5L361.4,375.5z"/>
		<path style="fill:#B96B29;" d="M359.5,380.6c0.1,1,0,3.4,0.5,3.4c0.4,0,0.4-2.4,0.5-3.4c0.1-1,0.1-3.3,0.1-3.3h-1.2
			C359.4,377.3,359.4,379.6,359.5,380.6L359.5,380.6z"/>
		<path style="fill:#D4AF3A;" d="M360,151.3c-4.2,0.1-9.2-0.7-11.9-2l-2.9,0.9c4.5,2.2,8.3,3.2,14.9,3.2c6.6-0.1,10.4-1,14.9-3.2
			l-2.9-0.9C369.2,150.6,364.2,151.4,360,151.3L360,151.3z M375.4,146.6c-0.3-0.4-2.3-2.2-2.8-2.5c-0.5-0.3-0.1-1.2,0-1.6
			c0.1-0.4,2.2-1.2,3.5-1.6c1.2-0.4,1-0.8,1-0.8s-0.7-1.1-5.1-1.7c-4.4-0.6-12-0.5-12-0.5s-7.6-0.1-12,0.5c-4.4,0.6-5.1,1.7-5.1,1.7
			s-0.2,0.3,1,0.8c1.2,0.4,3.4,1.2,3.5,1.6c0.1,0.4,0.5,1.3,0,1.6c-1,0.8-1.9,1.6-2.8,2.5c-0.3,0.4-0.4,1,0.2,1c0.5,0,0.5,0,2-0.4
			c4.5-1.2,8.7-1.5,13.2-1.6c4.5,0.1,8.7,0.4,13.2,1.6c1.5,0.4,1.5,0.4,2,0.4C375.7,147.6,375.7,147,375.4,146.6L375.4,146.6z"/>
		<path style="fill:#D4AF3A;" d="M370.4,149.1c-3-0.5-4.9-1-10.4-0.9c-5.5,0.1-7.4,0.5-10.4,0.9c1.9,1,4.9,1.5,10.4,1.5
			S368.6,150.1,370.4,149.1L370.4,149.1z M359.1,94.3l2.3-0.2l-0.2-2.7l2.5,0.4l0.1-2.6l-2.6,0.3l0.4-2.8l-2.8,0l0.5,2.9l-2.5-0.3
			v2.6l2.5-0.4L359.1,94.3z M364.1,98.6H361v-3.5c-0.6-0.1-1.1-0.2-1.7,0v3.5h-3.2c-0.2,0.6-0.2,1.3-0.1,2h8.2
			C364.3,100,364.2,99.3,364.1,98.6L364.1,98.6z"/>
		<path style="fill:#1D5E91;" d="M360.1,105c1.8,0,3.4-1.4,3.9-3.4h-7.8C356.8,103.8,358.4,105.1,360.1,105L360.1,105z M361.8,95.5
			v2.4h2C363.4,96.8,362.6,95.9,361.8,95.5z M358.4,95.5c-0.9,0.5-1.6,1.3-2,2.4h2V95.5z"/>
		<path style="fill:#B96B29;" d="M362.4,140c-0.8-0.5-2.5-1.4-2.5-1.4l-2.5,1.6c-0.9,0.6-0.8,0.4-1,1.3c-0.3,0.9,0,1.1,0.4,1.4
			c0.4,0.2,3.1,2.1,3.1,2.1l3.4-2.1c0.7-0.4,0.5-0.8,0.4-1.5C363.6,140.7,363.2,140.5,362.4,140L362.4,140z"/>
		<path style="fill:#D4AF3A;" d="M357.3,141l2.7,1.8l2.7-1.8l-2.7-1.7L357.3,141z M360,127c0,0-0.2,1.3-0.5,1.8
			c-0.3,0.5-0.5,1-0.4,1.7c0.1,0.7,0.7,1.1,1,1.1c0.3,0,0.9-0.4,1-1.1c0.1-0.6-0.1-1.1-0.5-1.7C360.2,128.2,360,127,360,127z"/>
		<ellipse style="fill:#D4AF3A;" cx="360" cy="132.8" rx="0.5" ry="0.7"/>
		<path style="fill:#D4AF3A;" d="M358.2,129.4c0,0,0.9-1.3,1.2-2.1c0.3-0.8,0.6-1.5,0.6-1.5s0.3,0.7,0.6,1.5
			c0.3,0.8,1.2,2.1,1.2,2.1s1.2-0.9,1.9-4c0.7-3.2-0.2-6.5-0.5-10.1c-0.3-3.6-0.6-9.8-0.6-9.8c-0.9,0.7-1.8,1-2.7,1
			c-0.9,0-1.9-0.4-2.7-1c0,0-0.3,6.2-0.6,9.8c-0.3,3.6-1.2,6.9-0.5,10.1C357,128.5,358.2,129.4,358.2,129.4L358.2,129.4z"/>
		<ellipse style="fill:#B96B29;" cx="360" cy="122.3" rx="2.1" ry="2.7"/>
		<ellipse style="fill:#B96B29;" cx="360" cy="115.8" rx="2" ry="2.6"/>
		<ellipse style="fill:#B96B29;" cx="360" cy="109.7" rx="2" ry="2.5"/>
		<ellipse style="fill:#D4AF3A;" cx="360" cy="121.8" rx="1.1" ry="1.5"/>
		<ellipse style="fill:#D4AF3A;" cx="360" cy="115.4" rx="1.1" ry="1.4"/>
		<ellipse style="fill:#D4AF3A;" cx="360" cy="109.2" rx="1" ry="1.2"/>
		<path style="fill:#B96B29;" d="M359.9,336.1c0.1,0,0.2-0.4,0.2-1.2c0-0.8,0.1-2.9,0.3-4.1c0.2-1.2-0.2-1.1-0.5-1
			c-0.2,0.1-0.4,1-0.4,1.5c0,0.5,0.1,3.5,0.1,4.1C359.6,336,359.8,336,359.9,336.1L359.9,336.1z"/>
	</g>
	<g id="a">
		<path style="fill:#D4AF3A;" d="M337.8,359.1c0.9-0.8,1.8-1.7,3.9-3.6c2.1-1.9,2.9-4,2.9-4h-0.8c-0.4,0-0.8-0.8-0.8-1.5
			c0-0.8,0-2.3,0.2-4.1c0.2-1.8-0.2-3.3-0.2-3.3s-0.9,1.1-2.3,2.1c-1.4,1-2,0.5-2,0.5l-0.3-1.8c0,0-0.6,1.7-1.5,3.7
			c-0.9,2-3.1,4.2-4.8,5.8c-1.6,1.6-3.4,3.4-4.8,4c-1.4,0.6-0.6,1.5-0.6,1.5s1.4,1.8,4.9,2.7C335.2,361.8,336.9,359.9,337.8,359.1z"
			/>
		<path style="fill:#D4AF3A;" d="M350.1,357.3c-1.2-0.2-2-0.8-2.2-2.6c-0.1-1.2,0.1-5.7,0.1-5.7s-0.4,0.5-0.9,1.2
			c-0.5,0.8-1.6,0.9-1.6,0.9s-0.2,0.6-0.6,1.6c-0.5,1-1.1,2.2-2.3,3.2c-1.2,1-2.6,2.2-3.5,3.2c-0.9,1-2,2.2-3.2,3.1
			c-1.4,1-2.4,2.7-2.7,4.7c-0.4,2.4-0.1,3.1,1.3,3c1.4-0.1,1.6,0,3.8-0.7c2.2-0.8,5.4-4.1,7.8-6.1
			C348.4,361.2,350.1,357.3,350.1,357.3z"/>
		<path style="fill:#D4AF3A;" d="M356.3,360c0,0-0.9-1.6-1.3-3.4l-1-5.4c0,0-0.3,1.1-1.1,3.3c-0.8,2.1-2,2.7-2,2.7s-0.1,0.9-1.1,2.7
			c-1.2,1.9-2.6,3.5-4.3,4.8c-1.6,1.3-3.7,3-4.8,5.1s-1.2,4.4-0.7,5.4c0.5,1,1.3-0.1,2.4-0.8s4.1-1.4,8.4-4.4
			C354.9,366.9,356.3,360,356.3,360z"/>
		<path style="fill:#D4AF3A;" d="M358.1,372.7c1.2-2.3,1.4-8,1.4-8s-0.4-0.4-1-1s-1.7-2.9-1.7-2.9s-0.7,1.9-1.5,3.8
			c-0.7,1.7-1.6,3.2-2.7,4.4c-1.6,1.9-3.7,3.9-4.6,5.9c-0.9,2.1-0.4,6.2,0.2,7.6c0.6,1.4,1.5,0.9,2.3-0.2c0.9-1.1,1.2-1.4,2.7-3.2
			C354.8,377.3,356.9,375,358.1,372.7L358.1,372.7z"/>
		<path style="fill:#B96B29;" d="M344.2,325.3c0.6-1.7,1.3-3.8,1.9-4.8c0.6-1,1-2.2,1-2.2s-1.5,1.8-2.1,3.1c-0.6,1.3-1,2.5-1.2,4
			C343.5,326.8,343.6,327,344.2,325.3L344.2,325.3z M350.2,326.8c0.2-1.1,0.4-1.9,0.4-1.9s0.2-1.1,0.1-1.2c-0.1-0.1-0.8,0.7-1.2,2.5
			c-0.4,1.8-1.1,4.5-0.9,4.6C348.7,331,350,327.9,350.2,326.8z M354.9,331.8l0.3-0.8c0,0,0.5-2.1,0.5-2.5c0-0.4-0.2-0.9-0.6,0.2
			c-0.4,1.1-0.4,2.1-0.5,2.6c-0.1,0.5-0.5,2.1-0.4,2.2C354.4,333.6,354.7,332.6,354.9,331.8L354.9,331.8z M340.3,351l-0.6-0.5
			c0,0-0.4,0.7-0.9,1.4c-0.5,0.8-1.1,1.1-1.5,1.8c-0.4,0.7-1,1.6-2,2.3c-1,0.7-1.4,0.9-1.2,1.1c0.2,0.2,0.9-0.3,0.9-0.3s0.3,0,1.5-1
			s1.5-1.4,2.2-2.3C339.3,352.7,340.3,351,340.3,351L340.3,351z M345.4,359.1c0.4-0.6,0.9-1,0.7-1.4c-0.3-0.3-0.6-0.3-1,0.2
			s-1.6,2-2.1,2.6c-0.5,0.6-1,1-1.5,1.6c-0.5,0.6-1.7,1.4-2.3,1.8c-0.6,0.5,0,0.5,0,0.5s0.4-0.3,0.9-0.5c0.5-0.2,1.8-1,1.8-1
			s0.5-0.3,1.3-1C343.9,361.1,345,359.7,345.4,359.1L345.4,359.1z M351.3,364.6c0.4-1,0-0.7-0.7-0.4c-0.6,0.3-2,2.4-2.9,3.1
			s-1.5,1.1-2.2,1.5c-0.7,0.5-0.7,0.7-0.7,0.9c0,0.2,0.3,0.2,0.6,0c0.3-0.2,1.3-0.9,1.3-0.9s0.4-0.2,0.8-0.2c0.4,0,0.9-0.6,1.8-1.6
			C350.2,366.2,350.9,365.6,351.3,364.6L351.3,364.6z M354,371.8c-1,0.8-2.8,2.7-3.3,4c-0.5,1.3-0.8,2.2-0.6,2.4
			c0.2,0.2,0.7-0.2,0.9-0.7c0.2-0.5,0.7-1.3,0.7-1.3s1.8-2.4,2.5-2.9c0.7-0.6,1.7-2.1,2-3c0.2-0.9,0.1-1.4,0.1-1.4
			S355.1,370.9,354,371.8L354,371.8z"/>
		<path style="fill:#C52126;" d="M326.2,169.9c-1-0.8-3.5-2.2-6.3-2.5c-2.7-0.3-4.8,0.2-7.1,1.1c-1.4,0.6-2.8,0.7-4.2,0.2
			c-2-0.9-3.6-3.1-4-5.9c0,0-1.8,3.1,0,6.4c0.8,1.5,1.9,2.5,3.2,2.9c3.8,1,7.6-2.1,10.8-2.4c3.1-0.3,5.5,2.3,5.5,2.3s0.7,0.8,1.7,0
			C326.9,171.3,327.2,170.7,326.2,169.9L326.2,169.9z"/>
		<path style="fill:#D4AF3A;" d="M315.2,317.5l-0.9-0.1c-0.5-0.1-1.7-0.6-2-0.8c-0.3-0.2-0.9-0.3-1.2,0.3c-0.3,0.5-3.1,2.7-3.1,2.7
			h4.6C314.2,319.5,315.2,317.5,315.2,317.5z"/>
		<path style="fill:#D4AF3A;" d="M328,316.5v-0.6l-0.6-1.7c0,0-0.7,0.6-1.4,1.5c-0.9,1.2-1.8,3-2.3,3.7c-0.8,1.3-1.8,2.5-0.9,0.5
			c0.9-2.1,1.2-3,1.9-4.4c0.7-1.4,1.3-2,1.2-2.1c-0.1-0.1-0.7-0.2-2.6-0.5c-1.9-0.3-3.1-1.3-4-2c-0.9-0.7-2.5-1.8-2.5-1.8
			s-3.2,1.8-4.5,2.2s-1.9,0.6-0.8,1.4c1.2,0.8,2.2,1,2.8,1.5c0.6,0.5,2.4,1.2,3.5,1.2s2.9,0,2.2,1.1c-0.7,1-1.5,3-2.3,5.9
			s-0.8,5.6-0.8,6.9c0,1.3,0.1,2.6,0.1,2.6s1.4-2,4.9-5c1.8-1.6,3.7-3.1,5.6-4.4c0.7-0.4,1-0.4,0.9-1.5
			C328.4,319.8,328,317,328,316.5L328,316.5z"/>
		<path style="fill:#D4AF3A;" d="M341.7,302l-0.7-0.4c-0.1,0-0.1,0-0.2,0.1c-0.4,0.3-2.6,2.2-3.5,4.1c-0.9,1.9-1.8,2.1-0.8,0
			c0.8-1.9,1.9-3.6,3.2-5c-1.9-1.2-3.8-2.6-5.5-4.2c-0.3,0.9-0.7,1.7-1.2,2.5c-0.8,1.1-2.4,2-2.4,2s1.4-1.8,1.8-3.2
			c0.3-0.9,0.5-1.8,0.6-2.4c-1.3-1.4-2.5-2.9-3.6-4.6c-0.2,1.2-0.9,4.2-3.1,7.3c-2.8,4.2-8.4,6.3-8.4,6.3s-2,0.3-0.4,0.8
			s2.7,1.5,5.8,0.8s3.3-0.9,3.7-1c0.4-0.2,1.6-0.1,0,0.7c-1.6,0.8-5.2,1.5-6.5,1.3c-1.4-0.2-3.3-0.6-1.3,0.8s2.8,2,4,2
			c1.2,0,1.7,0.5,2.9,0.5c1.2,0,1.5-0.3,2.3-0.5c0.8-0.2,1.4,0.2,1.4,0.6c0,0.5-1.1,1.7-1.1,4.8c0,3.1,0.2,5.1,0.4,6
			c0.2,0.9,0.7,2.3,1,3.2c0.3,0.8,0.5,1.7,0.8-0.1c0.3-1.8,1.1-4.4,1.4-6.1c0.3-1.7,0.4-1.8,0.6-2.7c0.1-0.9,0.8-1.6,0.5,0.1
			c-0.3,1.6-0.7,3.7-1,5.1s-0.8,4.1,0.2,2c1-2.1,4.8-7.8,5.4-8.8c0.6-1,1.1-2,1.6-2.8c0.4-0.8,1.8-2,2.4-3.2c0.6-1.1,2.2-3.3,3-4.1
			C344,303.3,342.9,302.7,341.7,302L341.7,302z M289.5,172.8c0.1,3.1,2.7,9,4.1,12.1c1.5,3.1,1.9,4.4,1.6,4.6
			c-0.3,0.2-0.9-1.4-1.7-2.8c-0.8-1.4-2.4-4.7-3.7-7.2s-3.2-8.4-3.5-8.9c-0.2-0.5-0.3-0.9-1-0.2c-0.6,0.7-1.9,7.2-0.4,11.6
			c1.5,4.4,3.8,7.6,4.7,9.2c0.9,1.5,2.2,3.9,2,4.2c-0.2,0.2-0.6-0.4-1.7-2c-1.1-1.6-3.1-4.4-4.3-6.4c-1.1-1.9-2-4-2.9-6.1
			c-0.2-0.4-0.4-0.3-0.6-0.1c-0.4,0.6-1.1,1.8-0.8,5.4c0.4,4.9,2.3,7.7,4,10.2c1.7,2.5,3.4,4.5,3.2,4.9c-0.2,0.3-2-1.7-3.2-3.3
			c-1.7-2.1-3.3-4.2-4.8-6.4c-0.7-1-1.6-0.5-1.6,3.7s3.6,8.5,5,10.9c1.5,2.3,3.3,3.8,3.1,4.2c-0.2,0.5-1.6-0.7-2.6-1.6
			c-0.9-0.9-4.5-4-5.2-4.6c-0.7-0.7-1,0.6-0.1,4.6c0.9,4,3.5,7.2,5.1,8.7c1.6,1.5,4.1,3.3,3.9,3.8c-0.1,0.5-1.2-0.1-2.7-1.1
			c-1.5-0.9-3.2-1.8-4.5-2.3c-1.3-0.5-1.2,0.7-1.2,0.7s-0.3,3.4,1.6,6.1c1.9,2.7,4,3.8,6,4.3c2,0.5,2.3,0.6,2.3,1
			c0,0.4-0.2,0.5-0.7,0.5c-0.4,0-2.3,0.3-4,0.3c-1.7,0-2.6,0.5-2.6,1.5s-0.1,2.4,2.5,4.6c2.6,2.3,5.4,2.6,6.6,2.9
			c1.2,0.3,1.3,0.5,1,0.9c-0.3,0.5-0.8,0.4-2.7,0.7c-1.9,0.3-3.1,1.3-3.3,1.9c-0.2,0.7,0.2,2.7,1.7,4.1c1.6,1.4,3.6,1.9,6.6,1.6
			c3-0.3,3.8-0.3,3.9,0.3s-0.9,0.9-2.4,1.2c-1.5,0.3-2.7,0.3-3.5,1.3c-0.8,0.9-0.2,2.9,1.3,4.3c1.5,1.4,5.1,1.4,6.6,1.3
			c1.5-0.1,3.8-0.9,4-0.3c0.1,0.5-1.1,1.3-2.7,2.1c-1.6,0.8-2,1.2-2.3,2.1c-0.3,0.9,0,1.7,1.8,2.6c1.9,0.9,4.6,0.9,6,0.1
			s2.1-1.2,2.4-0.9c0.2,0.3,0,0.7-0.3,1.1c-0.3,0.4-1.5,1.7-3.1,2.3c-1.6,0.5-1.7,0.5-2.2,2.2c-0.6,1.7,0.8,3,3.7,3.1
			c2.8,0.1,6.6-1.4,7.8-2.3c1.2-0.9,1.7-1.1,1.9-0.8c0.2,0.3,0.2,0.5-0.4,1.1c-0.6,0.6-2.5,2.4-3.5,2.8c-0.9,0.3-1,1.3-1,2.1
			c0,0.9-0.3,2.6,2.2,3.4c2.5,0.8,5.5,0.2,8.2-2.3c0.6-0.6,1.2-1.3,1.7-2.1c-0.2-3.4-0.1-5.8,0.2-8c-0.9-0.1-1.8-0.4-2.6-0.8
			c-1.5-0.8-2.1-2.7-2.5-3.7c-0.3-1-0.9-1-1.5-0.8c-0.6,0.3-1.2,0.6-2,0.5s-2.7-0.7-4-2.7c-1.3-2.1-1.1-4.1-1.1-5.1
			c0-1-1.2-0.3-1.9-0.3c-0.6,0-2.4-0.3-4-1.8c-1.6-1.5-1.6-3.5-1.8-4.3c-0.2-0.8-0.8-1.3-1.3-1.6c-0.5-0.3-1.3-0.5-2.4-1.7
			c-1.1-1.2-1.5-3.6-1.6-4.4c0-0.8-0.7-0.9-3-2.4s-2.1-4.8-2-6c0.1-1.3,1.2-2.4,1.2-2.8c0-0.5-0.8-0.6-1.5-1.2
			c-0.8-0.6-2.7-1.6-2.7-5.4c-0.1-3.8,1.8-4.2,1.8-4.2s-0.3-0.2-1.1-0.8c-0.8-0.6-2.8-2.5-2.8-4.7c0-2.2,0.8-3.2,1.3-3.8
			c0.6-0.5,2.1-1.1,2.1-1.1s-1-0.8-1.4-2.6c-0.4-1.7-0.6-3.9,0.4-5.4c1-1.5,2.6-1.5,3.4-1.5s1.6,0.6,1.9,0.3c0.3-0.3,0.3-0.6,0-1.5
			c-0.3-1.2-0.3-2.5-0.1-3.8c0.3-0.7,0.3-2.2,2.5-3.1c2.2-0.9,4.4,1,5.1,1.5c0.7,0.5,0.4-0.8,0.4-1.7s-1.5-3.3-3.1-6.6
			c-1.7-3.3-2.4-5.1-4.3-10.2c-1.9-5.1-3-11.6-3.3-13.3c-0.2-1.7-0.8-0.9-0.8-0.9s-0.5,0.3-1.7,4.2
			C289.8,165.7,289.4,169.3,289.5,172.8L289.5,172.8z"/>
		<path style="fill:#D4AF3A;" d="M327.4,241.4c-1.8-0.2-3.3-1.5-4.3-3.5c-1.3-2.5-3.2-3.1-6.6-3c-3.4,0.1-4.9-2.1-5.8-5.2
			c-0.8-3.1,0.1-6.6,3.6-8.9c3.4-2.2,5-4.8,5.1-8.6c0.1-3.9-3.4-8.7-7-14.1s-6.3-13.1-6.3-13.1s-1,1.8-1,3.6s0.5,3.7,0,4.2
			c-0.5,0.5-0.7-0.8-2.8-2c-2.1-1.2-3.8-1.4-5,0.6c-1.3,2,0,5.4,1.2,7.1c1.2,1.6,2.1,2.8,1.8,3.4c-0.3,0.6-2.1-0.9-2.6-1.5
			s-1.9-2.5-3.9-2.2s-2.7,1-2.9,3.3c-0.2,2.2,1.8,4.2,3.1,5.1c1.3,0.9,1.8,1.6,1.5,2c-0.3,0.4-0.6,0-1.2-0.3c-1.1-0.4-2.2-0.4-3.2,0
			c-1,0.5-2.7,2.4-1.2,4.8c1.6,2.3,4.8,3.2,5.4,3.4c0.6,0.2,1-0.1,1,0.6c0.1,0.7-1.4,0.7-3.1,0.8s-2.3,2.3-2,4
			c0.3,1.7,3.2,3.6,4.8,4c1.6,0.3,2.2,0,2.3,0.6c0.1,0.6-0.2,0.9-1.1,1.2c-0.9,0.3-2.6,0.6-3,2.5s-0.4,2.8,1,4.4
			c1.4,1.6,3.6,1.4,4.2,1.2c0.7-0.2,1.4-1.1,2.1-0.3c0.7,0.9-0.6,1.6-1.7,2.6c-1.1,1-1,3,0.9,4.4c1.9,1.4,3.7,0.9,4.5,0.5
			c0.8-0.3,1.8-2,2.3-1c0.5,1-1.6,1.4-2.5,2.8c-0.9,1.5-0.6,3.9,1.2,5.4c1.8,1.5,4.8,0.4,5.3-0.2c0.5-0.6,1.2-0.9,1.6-0.3
			c0.4,0.5-0.2,1.9-0.6,3.1c-0.4,1.2-1.1,4.7,1.6,6.1c2.7,1.4,5.2-1.7,5.6-2.3c0.4-0.6,0.9-0.7,1.3-0.4c0.4,0.3,0.2,0.8-0.1,1.4
			c-0.3,0.6-1,3.2,0.9,5c1.3,1.2,2.8,1.1,3.6,1c0.4-2,0.9-4.2,1.5-7.2h-0.4c-0.3,0-0.3,0.5-0.3,0.7c0,0.2,0.1,0.4-0.2,0.4
			c-0.2,0-0.3,0.2-0.6,0.5c-0.3,0.3-0.7,0.7-0.8,0.5c-0.2-0.2,0.7-0.8,0.9-1.2c0.2-0.4,0.7-1,0.7-1.4c0-0.4,0.2-0.7,0.6-1.2
			c0.1-0.2,0.3-0.4,0.3-0.5c0.3-2,0.6-4.4,0.9-7.2c0.2-1.9,0.3-3.8,0.3-5.5L327.4,241.4L327.4,241.4z M272.1,187.6
			c2.9,7.8,7,12.2,7,12.2s-0.5-2-0.8-3.3c-0.2-1.3,0-2.9,0-2.9s-1-1.7-2.9-5.6c-1.9-3.9-2.9-9.6-2.9-9.6s1.8,5.7,3.1,8.8
			c1.4,3,2.9,5.5,2.9,5.5s0.6-2.7,0.9-2.8c0.4-0.1,0.7,0.3,1,0.9c0.3,0.6,0.6,0.5,0.6,0.5s-0.5-1.3-1.2-2.8
			c-0.3-0.7-0.8-1.5-1.1-2.2c-1.1-2.2-3.4-6.6-4.6-10.9c-1.2-4.3-3.8-15.1-4.2-18.3c-0.5-3.2-0.9-1.4-1.4,0.9
			c-0.4,2.3-1.1,5.7-0.7,10.7C268.4,173.6,269.3,179.8,272.1,187.6L272.1,187.6z M275.9,208.6c1.1,1,2.7,2.5,2.7,2.5
			s-0.3-0.8-0.4-1.7s-0.2-2.9-0.2-2.9l-2.1-2.5c-1.5-1.8-2.9-3.8-4.2-6c-2.2-3.6-0.4-1.5,1.4,1.1c1.8,2.6,5.2,6.4,5.2,6.4l0-0.8
			c0-0.8,0.2-1.3,0.5-1.9c0.3-0.5,0.1-0.6-1.8-2.6c-1.9-2-6.9-9.4-9-13.9s-4.2-10.5-4.2-10.5s-1.1,8.9,3,18.7
			C270.8,204.4,274.8,207.5,275.9,208.6L275.9,208.6z M297.3,264.9c2.2-1.2,1.6-4.1,1.6-4.1c0,0-1.4,0.6-2.6,1.2
			c-1.3,0.6-4.4,1.8-5.6,1.9c-1.2,0-1.2-0.2-1.3-0.4c0-0.2,0.9,0,2.7-0.4c1.8-0.5,4.9-2.6,5.4-3.1c0.5-0.5,0.5-0.6-0.3-0.7
			c-0.6-0.1-1.3-0.4-1.8-0.9c-0.3-0.3-1.1,0.1-3.1,0.8c-2,0.6-6.2,1.6-9.4,1.6c-3.2,0-6.2-0.7-6.7-0.9c-0.5-0.2-1,0.2,0.5,3.7
			s7,5.3,10.8,5.3C291.3,268.7,295,266.1,297.3,264.9L297.3,264.9z M287.2,257.7c3.9,0,5.4-1.5,5.4-1.5s0-0.3-0.5-1.3
			c-0.5-1-0.4-2.8-0.4-2.8s-0.9,0.2-2.5,0.5c-1.6,0.3-3.5,0.6-5.6,0.1c-2.1-0.5-1.2-0.8,0.4-0.5c1.7,0.3,4.8-0.5,5.9-1
			c1-0.5,0.6-0.9-0.1-1.2c-0.7-0.3-2.6-1.9-2.6-1.9s-4.7,0.8-9.1,0.1c-4.4-0.7-7.2-2.2-8.1-2.3c-0.9-0.2-0.9,0.3-0.9,0.3
			s-0.2,0.5,1.3,3.7c1.5,3.2,4.5,5.2,7,6.2C279.9,257,283.3,257.7,287.2,257.7L287.2,257.7z M286.2,245.5c0,0-0.2-0.3-0.4-1.4
			c-0.2-1.1,0.4-1.9,0.4-1.9s-0.9-0.3-3.8-0.8c-2.9-0.5-3.1-0.8-4.9-1.3c-1.8-0.5-3-1.2-2.9-1.5s0.6,0.1,1.7,0.7
			c1.1,0.5,5.5,1.1,7.4,1.5c1.9,0.3,2.9,0.6,3.3,0.3c0.3-0.3,1.5-0.7,1.5-0.7s-0.8-0.3-1.8-0.5c-0.9-0.2-1.7-0.6-2.4-1.3
			c-0.5-0.5-0.7-0.6-3.1-1c-2.4-0.4-4.3-1.4-8.6-3.4c-4.3-2.1-7.5-4.5-8.3-5.5c-0.9-0.9-0.8-0.3-0.6,0.9c0.2,1.2,0.2,2.7,2.3,6
			c2.1,3.4,3.2,4.8,8.6,7.5C280.1,245.9,286.2,245.5,286.2,245.5L286.2,245.5z M270.2,227.9c4.8,4.5,10.4,6.2,11.6,6.4
			c0.3-0.4-0.3-1.9,0-2.8c0.3-1.1,0.8-1.1,2-1.2c1.1-0.1,0.4-0.4,0.1-0.4c-0.3,0-0.3,0-2.2-0.7c-1.9-0.7-3.9-1-6.5-2.4
			c-2.6-1.3-3.4-2.3-3.4-2.6c0.1-0.3,1.2,0.8,3.7,2.1c2.4,1.2,5.3,1.7,6.8,2.2c1.6,0.4,0.2-0.4-0.5-1c-0.7-0.6-1.8-2.7-1.8-2.7
			s-1.7-0.4-4.5-1.5c-2.6-1-5.1-2.4-7.5-4.2c-0.8-0.6-1.6-1.4-2.4-2.2c-1.6-1.5-3.2-3.1-3.9-3.7c-1-0.9-0.7-0.2-0.6,0.4
			c0.1,0.6,0.8,3.2,2.3,6.1C264.9,222.5,265.4,223.4,270.2,227.9L270.2,227.9z M269.4,215.2c4.7,5,8.8,6.5,9.5,6.9
			c0.7,0.4,0.6-0.1,0.5-0.7c-0.1-0.5-0.2-2.2-0.2-2.2l-3.6-2.7c-1.9-1.5-4-3.5-5.4-4.7c-1.4-1.3-0.6-1.2-0.1-0.7
			c0.4,0.5,2.3,2,4.3,3.6c1.9,1.6,4.8,3.9,4.8,3.9s0.1-0.8,0.5-1.4s1.4-0.4,1.4-0.4s-0.5-0.7-0.8-1.3c-0.3-0.6-1.9-1.3-3.6-2.4
			c-1.8-1.1-4.9-4.2-7.2-6.8c-2.5-3.1-4.9-6.3-7.1-9.7c-0.3-0.5-0.5-0.5-0.5,0.2c0,0.7-0.2,1.1,0.3,4.1
			C262.6,204,264.7,210.3,269.4,215.2L269.4,215.2z M286.1,168c0.5,1.5,1.1,2.6,1.6,3.6c0.6,1.5,1,2.4,1,2.4s0.1-0.5,0-1.4
			c-0.1-0.9-0.2-2.1,0-3.5c0.1-0.8,0.2-1.6,0.2-2.2c0-0.8-0.2-1.5-0.3-1.9c-0.1-0.8-0.8-4.5-1.2-7.1c-0.3-2.6-0.7-6.3-0.7-9.6
			c0-3.3,0.4-1.6,0.4,0c0,1.6,0.1,4,0.5,7.8c0.4,3.8,1.6,9.4,1.6,9.4s0.1-0.9,0.4-2.1c0.4-1.2,0.9-2.7,1.4-4.2
			c0.5-1.5,0.3-1.8,0.3-1.8s-1.7-10.6-2.1-15.6c-0.4-6.1-0.8-12.1-1.1-18.2c-2.4,3.3-4.2,11.8-4.6,19.9c-0.2,6.1,0.5,11.8,0.7,14.1
			C284.6,162,285.2,165.6,286.1,168L286.1,168z M280.7,184.8c0.1-2.4,0.5-4.2,1.7-4.8c0,0-1-2.4-1.9-5.8c-0.6-2.3-1.1-5.4-1.4-7.6
			c-0.6-5.7-1.1-11.6,0.1-2c1.3,9.6,2.8,13,2.8,13l1.8,4c-0.3-1.8-0.3-3-0.2-4.9c0.1-1.9,0.2-4.5,0.7-6.6c0,0-2.2-5.9-3.6-13.1
			c-1.4-7.1-2.2-13.6-2.2-17.5l-0.2-5.2c0,0-2.3,2.3-3,13.9c-0.8,11.6,1.5,22.7,2.7,27C279,179.5,280.7,184.8,280.7,184.8z
			 M305.7,273.4c0,0-0.4-0.3-1.4-1.2c-1.1-0.9-0.8-3.7-0.8-3.7s-0.3,0.3-1.1,1c-0.8,0.7-1.7,1.5-2.8,2.1s-1.6,1-2.3,1.3
			c-0.7,0.3-0.5-0.1,0.1-0.5c0.6-0.4,0.8-0.7,2.2-1.4c1.4-0.8,4.3-4.1,4.3-4.1s-0.7-0.1-1.9-0.1c-1.2-0.1-2.7-0.9-2.7-0.9
			s-1.2,1.4-6,4.2c-4.8,2.7-8.9,3.5-8.9,3.5s0.5,3.3,2.8,4.4c1.9,1.1,4.5,1.8,9.7,0.1C302.1,276.2,305.7,273.4,305.7,273.4
			L305.7,273.4z M312,279.9c0.4-2.7-0.8-4.6-0.8-4.6s-0.3,0.2-1,1c-0.7,0.9-1.8,2.5-3.8,3.9c-2,1.3-2.7,1.3-0.8-0.1s4.8-5.3,4.8-5.3
			l-0.8-0.4c-0.8-0.4-2,0.3-7.5,4.6c-5.4,4.3-8.6,4.5-8.6,4.5s2.4,3.9,9,3.6C309.2,286.8,311.6,282.6,312,279.9L312,279.9z
			 M324.4,276.8c0,0-0.7,1.4-1.7,2.2c-1,0.9-3.6,1.4-3.6,1.4s-0.1,0.4-0.6,1.2c-0.5,0.9-1.6,2.9-2.8,4.1c-1.1,1.1-2.9,1.8-3.1,1.5
			c-0.1-0.3,1-0.9,2.2-1.8c1.1-0.9,2.1-2.6,2.9-3.8c0.8-1.2-0.3-1-0.3-1s-1.4,0-2.6-0.1c-1.3-0.2-1,0-1.4,0.8
			c-0.4,0.8-0.9,1.5-1.8,3c-1.1,1.8-2.2,3.3-3.3,5.1c-0.7,1.2-0.2,1.5-0.2,1.5s0.3,0.7,3.2,1.2c1.8,0.3,3.8,0,5.8-1.6
			c1.3-1,2.6-2.6,3.9-4.5C324.6,281,324.4,276.8,324.4,276.8L324.4,276.8z M325.9,287.3c-0.7,1.2-1.1,1.8-1.1,1.8s0.5-2.1,0.9-3
			c0.2-0.5,0.5-1,0.7-1.4c-0.5-1.4-0.9-3-1.2-4.7c-0.3,1.4-1.3,5.5-2.6,8.1c-1.5,3.2-2.8,4.4-2,5.2c0.9,0.9,2.6,1,4.5-0.2
			c1.8-1.2,2.4-3.3,2.6-5c-0.3-0.7-0.6-1.4-0.9-2.1C326.7,286.3,326.3,286.6,325.9,287.3L325.9,287.3z"/>
		<ellipse style="fill:#D4AF3A;" cx="325.5" cy="158.6" rx="1.3" ry="1.6"/>
		<path style="fill:#D4AF3A;" d="M322.7,155.5c1.2,0,1.9-0.8,3.2-0.6c1.6,0.2,3.8,1.4,6.4,3.3c2.3,1.4,4.9,1.7,7.4,0.9
			c0.7-0.3,1.5-0.8,2.1-1.4c3.2-2.4,2.4-7.1,2.4-7.1c-2.3,2.3-5.1,3.4-8,3.2c0,0,0.2,0.2,0.7,0.8c0.5,0.6,1.3,1.4,1,1.7
			c-0.3,0.3-1.4-1.2-2.4-2.1c-1.5-1.5-3.1-2.6-4.9-3.2c-2.5-1-5.2-1.1-7.1,0.3c-1.9,1.4-2,3.1-1.8,3.8
			C321.9,155.4,322.3,155.5,322.7,155.5z M357.3,190.2c-0.6-0.2-1.5-0.4-2.8-2c-1.7-2.2-3.3-4.5-4.7-6.9c-0.4-0.8-0.2-1.6,0.7-2.1
			c0.9-0.5,1.5-2,1.5-2s-1.9-1-3.2-2.2c-1.3-1.2-4.3-4.8-4.7-5.7c-0.4-0.9-0.2-1.1,0.4-1.3c0.6-0.3,0.8-0.8,0.8-0.8
			s-1.4-1.2-2.7-2.6c-1.3-1.4-3-3.6-3-3.6c-1.9,1-5,0.6-6.6,0.2c-2.9-0.7-5-2.3-5-2.3s-0.1,0.6-0.5,1.8c-0.4,1.2-1.7,1.8-3,0.7
			c-1.4-1.2-1-3.7-1-3.7s-1.1-0.9-3.3-2c-2.2-1.1-4-1.2-5.8-0.1c-1.8,1.1-2.7,4.4-2.7,6.9c0,2.5,1,1.4,1.2,1.1
			c0.2-0.3,0.6-2.1,2.9-2.6s4.3,1,6.9,3.8c2.6,2.8,3.1,3,4.4,4.8c1.3,1.8,0.3,2.8-2,3.7s-5-1-5.1-0.9c-0.4,0.3,1,2.9,2.9,3.9
			c1.9,1,4.4,0.4,6.2-0.7c1.3-0.7,1.5,0,1.9,0.6c2.1,2.9,2.6,5.7,3,9c1-0.5,1.7-1.6,1.9-3c0.1-0.6,0.2-1.8,0.9-0.9
			c0.7,0.9,1.3,5.9,1.3,8.1c0,2.3-0.5,5.3-0.5,5.3l0.5-0.1c0.3-0.1,0.9-0.6,1.7-1.2c0.8-0.6,0.9,0.1,0.9,1.3c0,1.2,0.3,3.6,1.5,7.8
			c1.2,4.2,3,5.6,3,5.6s0.4-0.8,0.7-2.5c0.4-1.7,0.6-4.9,0.6-7.7s-0.6-8.9-0.6-8.9s2.6,4.2,5.2,5.2c2.7,1,5.4,0.4,6.5-1.3
			C358.9,191.2,357.9,190.4,357.3,190.2L357.3,190.2z"/>
		<path style="fill:#D4AF3A;" d="M339.8,201.1c0,0-0.8,2.4-1.3,3.3c-0.4,0.9-0.6,1-0.6,1s0.8,0.9,2,1.4c1.2,0.5,2.2,0.8,2.2,0.8
			s-1.3-2.4-1.8-4.1C339.8,201.6,339.7,201.1,339.8,201.1L339.8,201.1z M355.8,199.7c-0.4-1.3-0.6-2.1-0.6-2.1
			c-1.6,0.5-4.8-0.6-6.1-1.7c0,0,1.2,3.3,2.5,4.5c1.2,1.2,1.4,1.2,1.4,1.2s-1.2,0.3-2.9-1.9c-1.7-2.2-2.4-4.7-2.4-4.7
			s0.4,5.8-0.3,9.3c-0.7,3.5-0.8,4-0.8,4s3.5,0.8,7.4-0.6c3.9-1.4,4.2-1.9,4.2-1.9s0.5-0.2-0.1-1.2
			C357.1,203,356.4,201.4,355.8,199.7L355.8,199.7z"/>
		<path style="fill:#B96B29;" d="M348.8,187c-1.2-1.8-1.3-2.3-1.3-2.3s-0.4,0.6-0.1,1.3c0.9,1.5,2,2.7,3.2,3.7
			c0.7,0.5,1.5,0.9,2.3,1.2l-0.1-0.3C352.9,190.6,350,188.8,348.8,187z M344,199c0,0-0.3-7.3-0.3-8.3c0-1.1-0.5-0.8-0.5-0.8
			l-0.6,0.4l1.2,10.6c0.1,1.1,0.6,1.1,0.8,1C344.1,201.5,344,199.3,344,199z M336.7,167.6c-0.4-0.6-1.4-1-0.5,0.4
			c1,1.4,2.2,3.2,2.6,4.7c0.4,1.5,0.6,3.3,0,2.9c-0.6-0.4-1.1-0.4-1.7-1.1c-0.7-0.9-1.6-1.6-2.5-2.2c-0.5-0.2-1.4,0-0.7,1.1
			c0.7,1.1,1.6,2.1,3,3.5s2.2,2,3,2.7c0.7,0.7,1.5,1.3,1.5,1.3s-0.7-5.9-1.9-8.5C338.1,169.6,337.1,168.2,336.7,167.6L336.7,167.6z
			 M312.6,266.8c-0.9,0.9-2.1,1.3-2.1,1.3s-0.6,0-0.6,0.2s0.7,0,1.3-0.1c0.7-0.2,1.6-1.1,2-1.4c0.3-0.3,0.8-0.8,0.7-1.3
			C313.8,264.8,313.5,265.9,312.6,266.8z M320.4,272.3c-0.2,0.3-1.7,1.8-1.7,1.8s-0.5,0.4-1,0.7c-0.5,0.3-0.6,0.6-0.6,0.6
			s0.1,0.1,0.6,0c0.5-0.2,2.1-1.6,2.6-2.2c0.5-0.6,0.7-0.8,0.5-1C320.7,271.9,320.6,272.1,320.4,272.3L320.4,272.3z M289,197.9
			c0.3,0.5,0.6,1.1,0.8,0.9c0.2-0.2,0-0.4-0.4-1c-0.4-0.6-0.6-0.9-0.6-0.9s-0.5-1.1-0.8-1.5c-0.3-0.4-0.8-0.6-0.2,0.3
			C288.3,196.6,288.7,197.4,289,197.9L289,197.9z M286.6,204.9c0.3,0.4,0.7,0.8,1,1.3c0.4,0.5,0.7,1.1,0.9,0.8
			c0.2-0.3-0.6-0.9-0.9-1.5c-0.3-0.6-0.6-0.9-1.1-1.4s-1-0.8-1-0.8S286.2,204.5,286.6,204.9L286.6,204.9z M287.5,216.1
			c0.6,0.8,1.5,1.1,1.6,0.8c0.1-0.3-0.1-0.6-0.6-0.9c-0.5-0.3-1.3-1-1.7-1.4c-0.4-0.3-0.8-0.7-1.1-1.2c-0.3-0.4-0.6-0.7-0.7-0.6
			c-0.1,0.1,0.8,1.4,1.1,1.7C286.4,214.7,286.9,215.3,287.5,216.1L287.5,216.1z M289.2,225.2c0-0.3,0.1-0.5-0.4-0.5
			c-0.5,0-1.2-0.2-1.2-0.2s-1-0.5-1-0.3c-0.1,0.3,0.8,0.8,1.2,0.8c0.4,0.1,0.8,0.2,1.1,0.4C289,225.6,289.2,225.5,289.2,225.2
			L289.2,225.2z M289.9,234.9c-1.1,0-2-0.3-2-0.1c-0.1,0.2,0.5,0.5,1,0.8c0.5,0.3,1.5,0.3,2.2,0.4c0.7,0,0.8-0.2,0.8-0.6
			C291.9,234.9,291,234.9,289.9,234.9z M298.2,245.7c-0.2-0.2-0.5,0-1.1,0.1c-0.6,0.2-1.6,0.4-2.1,0.4c-0.6,0-1.8-0.1-1.8-0.1
			l-0.7,0.2c0,0.2,0.9,0.2,2.2,0.4c1.3,0.2,2.2-0.2,2.8-0.3C298.1,246.3,298.4,245.9,298.2,245.7z M301.6,253.3
			c-0.7,0.3-1.1,0.4-1.6,0.4c-0.5,0-1.7,0.3-1.7,0.3s-0.6,0.1-0.4,0.4c0.1,0.3,0.3,0,0.8-0.1c0.5-0.1,0.9,0,1.7,0
			c0.9,0,1.4-0.3,1.9-0.4c0.5-0.2,1.1-0.5,0.8-1C302.8,252.4,302.3,253,301.6,253.3z M308.3,259.1c-0.4,0.5-1.8,1.8-1.8,1.8
			s-0.3,0.3-0.8,0.6s-0.5,0.6-0.4,0.8c0.1,0.2,0.4-0.3,0.8-0.5s1.3-1.1,1.9-1.6c0.5-0.6,1.2-1.1,1.1-1.5
			C308.8,258.3,308.7,258.6,308.3,259.1L308.3,259.1z M297.2,184.3c0,0,0.1,0.4,1.3,2.3c1.1,1.9,0.5,0.1,0.2-0.4
			c-0.3-0.5-2-3.7-2.5-4.5c-0.6-0.9-0.7-0.5-0.4,0.1S297.2,184.3,297.2,184.3z M294.8,194.1c0.2-0.2-0.2-0.5-0.9-1.5l-2-3.3
			c0,0-0.4-1-0.5-0.9c-0.1,0.1,0.4,1.8,1,2.5c0.5,0.7,1.2,2.1,1.6,2.7C294.4,194.1,294.6,194.4,294.8,194.1L294.8,194.1z M298,212.6
			c0-0.5-1.3-0.5-1.9-0.6l-1.6-0.4c0,0-1.2-0.3-1.3-0.1c0,0.2,0.2,0.4,0.9,0.6c0.7,0.2,1.7,0.6,2.5,0.8
			C297.4,212.9,298,213.1,298,212.6L298,212.6z M294.8,202.6c0.9,0.9,1.4,1.4,1.9,1.7c0.5,0.3,0.8,0.8,1.1,0.4
			c0.2-0.4-0.2-0.7-0.9-1.1c-0.7-0.4-1.1-0.8-1.1-0.8l-0.8-0.6C294.5,202,293.9,201.7,294.8,202.6L294.8,202.6z M302.2,196.1
			c-0.5-0.6-1-0.9-1-0.9s-0.7-0.8-0.8-0.6c-0.1,0.3,0.7,1.1,1.1,1.6c0.4,0.5,1.1,1.9,1.5,1.7C303.5,197.5,302.7,196.7,302.2,196.1
			L302.2,196.1z M297.4,221.8l-1.2,0.4c-0.5,0.2-0.5,0.5,0.3,0.5s1.2-0.3,2-0.5c0.8-0.2,1.1-0.3,1-0.7c-0.1-0.4-0.6-0.3-0.9-0.1
			L297.4,221.8z M298.7,231.1c-0.1,0.2,0.6,0,1-0.2c0.4-0.2,1.4-0.8,1.9-1c0.5-0.2,0.5-0.3,0.5-0.8c0-0.4-0.6-0.1-1.2,0.2
			c-0.7,0.3-1.6,1.2-1.6,1.2S298.7,230.9,298.7,231.1z M307.7,236.7c0.6-0.5,0.8-0.9,0.5-1.1c-0.2-0.2-0.4-0.2-0.9,0.3
			c-0.5,0.5-1.5,1.5-1.5,1.5s-0.5,0.3-0.9,0.5s-0.8,0.7-0.7,0.9c0.1,0.3,0.9,0,1.3-0.5C306,237.9,307,237.2,307.7,236.7L307.7,236.7
			z M311.9,244.2c0.2-0.3,1-0.6,1.3-1c0.3-0.3,0.6-1.3,0.3-1.5c-0.3-0.1-0.4,0.4-1,1c-0.6,0.6-2.6,2.4-2.6,2.4l-0.5,0.3
			c-0.6,0.3-0.3,0.5,0.2,0.4c0.5-0.1,0.8-0.1,1.3-0.7C311.4,244.6,311.7,244.5,311.9,244.2L311.9,244.2z M318.2,251.3
			c0.5-0.3,1.3-1.2,1.7-1.7c0.4-0.5,0.8-1,0.6-1.3c-0.3-0.3-0.6,0.1-1,0.6c-0.4,0.5-1.6,2.2-1.6,2.2s-0.2,0-0.8,0.7
			c-0.6,0.7,0,0.5,0.3,0.3C317.5,251.8,317.7,251.6,318.2,251.3L318.2,251.3z"/>
		<path style="fill:#D4AF3A;" d="M343.8,144.9l2.5-2.4l-3-1l-1.9,2L343.8,144.9z"/>
		<ellipse style="fill:#B96B29;" cx="351.9" cy="142.1" rx="2.4" ry="3.1"/>
		<ellipse style="fill:#D4AF3A;" cx="351.9" cy="141.4" rx="1.5" ry="1.9"/>
		<path style="fill:#D4AF3A;" d="M346.8,131.4c0.6,0.3,1.4,0.2,1.4,0.2s0.2-1.4-0.3-2.1c-0.6-0.7-1.1-1.2-1.5-1.6l-0.4-0.6
			c0,0,0,1.2,0,2C345.9,130,346.2,131.1,346.8,131.4L346.8,131.4z"/>
		<ellipse style="fill:#D4AF3A;" cx="348.1" cy="133" rx="0.4" ry="0.6"/>
		<path style="fill:#D4AF3A;" d="M344.8,132.4c-0.2,0.3-0.6,0.9-0.6,0.9s0.5,0,0.9,0.4c0.4,0.4,0.9,0.7,1.4,0.6
			c0.5-0.1,0.7-0.7,0.6-1.1c-0.1-0.4-0.3-0.9-1.1-1.2C345.2,131.6,345,132,344.8,132.4L344.8,132.4z"/>
		<path style="fill:#D4AF3A;" d="M346.5,136.1c-1.5,0.2-3.5-2.1-3.5-2.1c-0.2,1.8-1,2.7-2.3,3.1l0.1,0.1c0,0,1.2,0.8,2.6,1.1
			c0.6,0.1,1.2,0,1.9-0.2c0.8-0.2,1.5-0.5,2.2-0.9c0.9-0.8,0.6-2.7,0.6-2.7S348,135.9,346.5,136.1L346.5,136.1z M340.6,134.1
			c-0.6-0.3-1.6-0.9-1.9-0.9c-0.4,0-1-0.1-0.9,0.8c0.1,1,0.8,1.4,1.6,1.5c0.7,0,1.1-0.3,1.5-0.6
			C341.3,134.5,341.2,134.4,340.6,134.1z M335.9,130.7c-0.7-0.6-1.3-0.8-1.3-0.8s-0.4,1.6-0.2,2.5c0.2,1,0.8,1.2,1.4,1.2
			s1.6-0.5,1.3-1.1C336.8,131.7,336.4,131.1,335.9,130.7z"/>
		<ellipse style="fill:#D4AF3A;" cx="336.5" cy="135.1" rx="0.5" ry="0.5"/>
		<path style="fill:#D4AF3A;" d="M337.9,127.3c-0.4-2.7-0.3-5.5,1.5-9.2c1.9-3.7,5.2-5.2,5.2-5.2s0.1-0.3,1.2-1.8
			c1.1-1.5,3.2-3.4,3.2-3.4s-2.5,0.8-3.9,1.4v0.1c0,1.3-0.8,2.3-1.7,2.3c-0.4,0-0.7-0.1-1-0.4c-0.8,0.2-3.3,2.2-4,3
			c0.2,0.3,0.3,0.8,0.3,1.2c0,1.3-0.8,2.3-1.7,2.3c-0.3,0-0.6-0.1-0.8-0.3l-0.2,0.5c-0.5,1.3-0.9,2.5-1.2,3.7c0.4,0.4,0.7,1.1,0.7,2
			c0,1.3-0.6,2.3-1.4,2.3c-0.1,0.8,0,1.3,0,1.5c0.1,0.8,0.3,1.2,1.3,1.6c1,0.4,2.3,2.7,2.3,2.7C337.7,131.6,338.4,130,337.9,127.3
			L337.9,127.3z"/>
		<path style="fill:#D4AF3A;" d="M344,110.2c0.4-0.4,0.4-1,0.1-1.3c-0.3-0.3-0.8-0.3-1.2,0.1c-0.3,0.4-0.4,1-0.1,1.3
			C343.1,110.7,343.6,110.7,344,110.2L344,110.2z M337.6,116c0.4-0.5,0.5-1.2,0.2-1.6c-0.3-0.5-0.9-0.4-1.3,0.1
			c-0.4,0.5-0.5,1.2-0.1,1.7C336.6,116.5,337.2,116.5,337.6,116z"/>
		<ellipse style="fill:#D4AF3A;" cx="333.8" cy="123.2" rx="1" ry="1.3"/>
		<path style="fill:#D4AF3A;" d="M355,105c-0.5,0.1-1.5,0.6-2.9,1.5h0c1,0,1.7,0.8,1.7,1.9s-0.9,2.2-1.9,2.2c-1,0-1.6-1.1-1.6-2.2
			c0-0.3,0-0.5,0.1-0.7l-1.3,1.2c-3.1,2.8-3.8,4.2-5.4,8c-1.5,3.8-2.1,8-1.4,10.5c0.7,2.5,3.1,3,3.1,3c0,0-0.3-0.4-0.3-0.9
			s0.1-0.7,0.2-1.6c0.1-0.9,0-2.1,0-2.1s0.6-0.1,0.9,0.4c0.3,0.5,0.8,1.1,1.1,1.6c0.3,0.5,1.2,1.5,1.2,1.5s0.5-0.9,0.5-2.1
			c0-1.1-0.6-2.3-0.7-4.3c-0.1-2,0.7-5.5,2.1-8c1.4-2.2,3-4,4.9-5.4c0.8-0.5,0.9-1.3,1-1.8c0-0.5,0.1-0.8,0.2-2
			C356.6,104.7,355.8,104.8,355,105L355,105z"/>
		<path style="fill:#D4AF3A;" d="M351.9,109.5c0.6,0,1.1-0.7,1.1-1.3c0-0.6-0.4-1.1-1-1.1s-1,0.5-1,1.1
			C351,108.8,351.3,109.5,351.9,109.5z M356.5,133.9c0.8,0.4,1.6,0.2,2-0.2c0.4-0.4,0.5-1.3,0.1-1.8c-0.5-0.5-1.1-0.5-1.6-0.2
			c-0.4,0.3-1.4,1.3-1.4,1.3S355.8,133.5,356.5,133.9L356.5,133.9z"/>
		<path style="fill:#D4AF3A;" d="M358.9,135c-0.3,0.6-0.5,0.9-1.3,0.9s-1.7,0-2.3-0.8c-0.6-0.7-0.9-1.8-0.9-1.8l-0.9,0
			c0,0-0.3,1.7-0.7,2.2c-0.4,0.5-1.9,0.6-2.5-0.1c-0.6-0.6-1.2-1.4-1.3-1.3c-0.1,0.1,0,0.7,0.7,1.5s1.1,1.2,2.2,1.2h6
			c0,0,1.2,0.1,1.6-0.9c0.3-1,0.4-1.6,0.2-1.8C359.3,134,359.2,134.4,358.9,135L358.9,135z"/>
		<path style="fill:#D4AF3A;" d="M349.8,133.6c0.9,0.7,1.4,0.3,1.7-0.3c0.3-0.5,0.4-0.8,0.4-0.8s-0.8-0.4-1.3-0.8
			c-0.4-0.3-0.7-0.6-1.1-0.6c-0.4,0.1-0.5,0.1-0.5,0.1S348.9,133,349.8,133.6L349.8,133.6z"/>
		<ellipse style="fill:#B96B29;" cx="345.5" cy="121.9" rx="2" ry="2.6"/>
		<path style="fill:#B96B29;" d="M349,112.7c-0.8-0.7-2-0.4-2.6,0.6c-0.7,1.1-0.5,2.5,0.3,3.2c0.8,0.7,2,0.4,2.6-0.6
			C349.9,114.9,349.8,113.4,349,112.7z"/>
		<ellipse style="fill:#D4AF3A;" cx="345.4" cy="121.5" rx="1.2" ry="1.5"/>
		<path style="fill:#D4AF3A;" d="M348.1,113c-0.5-0.2-1.1,0.1-1.4,0.8s0,1.2,0.7,1.4C348.7,115.5,349.3,113.4,348.1,113z"/>
	</g>
	<g>
		<path style="fill:#D4AF3A;" d="M317.6,319c0,0-3.1,2-4.1,2.3c-1,0.4-1.2,0.4-1.2,0.4s-2.1,2.5-3.7,3.8c-1.6,1.3-3.5,2.2-5.3,2.5
			c-2.4,0.3-9,0.2-12,0.1s-4.8,0.8-6.1,2.7c-1.3,1.9-1.6,4.7,0,6.8c1.6,2.1,3.4,1.1,4-0.2c0.6-1.3,0.3-3,0-3.7c-0.3-0.8,0.5-1,1.4-1
			c0.8,0,2.2,0.1,3.5,0.3c1.3,0.3,3.5,1.3,4.5,2c1,0.7,0.4,0.8-0.3,0.7c-0.7-0.1-1.4-0.5-2.6-1.1c-0.9-0.5-2-0.8-3-1
			c-0.8,0-0.5,0.5-0.3,0.9c0.1,0.4,0.6,1.2,0.7,1.6c0.1,0.4-0.2,1.9-0.2,1.9l0.4,1c0,0,0.4-1,0.6-1.5c0.1-0.5,0-1.5,0.1-1.9
			c0.2-0.5,0.8-0.5,1.3,0.3c0.5,0.8,1,1.7,1.3,3.6c0.3,1.9-0.2,3.3-0.2,3.3s0.6,0.7,0.7,1.1c0.1,0.5-0.1,2.3-0.1,2.3
			s0.4,0.4,0.8-0.7c0.4-1,0.8-2.9,0.9-3.6s0.4-1.9,1.1-1c0.6,0.9,1,2,1.1,2.6c0.1,0.6,0.1,1,0.1,1s1.4-1.8,1.8-2.8
			c0.5-1,1.4-2.5,2.7-3.9c1.3-1.4,3.5-4.2,4.6-5.2c1.1-1,3.9-3,4.7-3.7c0.9-0.7,1-0.8,1.2-2.7c0.2-2,0.9-3.7,1.2-5.1
			C317.6,319.5,317.6,319,317.6,319L317.6,319z M268.3,245.3c0-0.3-0.5-1.5-0.7-2.1c-0.1-0.6-0.6-0.2-0.6-0.2s-1,0.7-1.7,1
			c-0.7,0.3-0.8-0.1-0.9-0.6c-0.1-0.5-0.2-2.1-0.4-3.2c-0.1-1.1-0.3-1.1-0.6-0.9c-0.3,0.2-1.2,0.6-1.8,1c-0.6,0.4-0.4,0.8-0.2,1.2
			c0.2,0.5,0.9,2.5,1.3,3.1c0.3,0.7,0,1-0.4,1.2c-0.4,0.2-0.9,0.3-1.7,0.7c-0.8,0.3-0.7,0.6-0.6,0.9c0.1,0.3,0.6,1.7,0.9,2.4
			c0.3,0.6,0.5,0.2,0.5,0.2s0.8-1,1.5-1.4c0.7-0.4,0.7-0.3,0.9,0.4c0.2,0.7,1,4.2,1.1,4.9c0.1,0.7,0.4,0.6,0.8,0.4
			c0.3-0.2,0.8-0.3,1.2-0.5c0.4-0.2,0.6-1.2,0.6-1.2s-1.5-3.6-1.9-4.5c-0.4-0.9,0-1.1,0.3-1.2c0.3-0.1,1.2-0.2,1.9-0.5
			C268.5,246.2,268.3,245.6,268.3,245.3L268.3,245.3z M285,341.8c-0.1-0.9,0-1.7-0.5-2.4c-0.6-0.9-1-1.9-1.3-3
			c-0.2-1.1,0.2-1.6,0.1-2.2c-0.1-0.6-0.7-0.6-1.3,0c-0.6,0.7-1.4,1.3-1.4,3.2c0,1.9,0.5,4.2,2.5,5
			C285.2,343.3,285.1,342.7,285,341.8L285,341.8z M287,340.9c0,0-0.4-0.3-0.6,0.1c-0.2,0.5-0.1,0.8,0.4,1.9s0.9,1.3,1.5,1.9
			c0.6,0.5,0.2-0.5,0.1-0.8c-0.1-0.3,0-0.7-0.1-1c-0.1-0.3-0.2-0.6-0.2-1.4C288,340.9,287,341,287,340.9L287,340.9z"/>
		<path style="fill:#D4AF3A;" d="M289.5,350c0.4-0.8,0.7-1,1.6-1.5c0.9-0.5,2.6-0.9,3.1-0.9c0.6,0,1.8-1.5,1.7-3
			c-0.2-1.5-1-2.1-1.7-2.3c-0.7-0.2-1.4-0.2-1.6,0.3c-0.2,0.5-0.6,1-1.4,1.4s-0.9,0.7-1.4,0.9c-0.5,0.2-0.1,0.6-0.5,1
			c-0.4,0.5-1,0-1.6-0.2c-0.6-0.3-0.7-0.4-1.4-0.4l-2.6-0.2c0,0-0.1,0-0.5,0c-0.4,0-0.4,0.1-0.6,0.7c-0.2,0.6,0,2.1,0.5,2.9
			c0.4,0.8,1.9,1.1,2.9,1.5c1,0.4,1.5,0.6,2.3,0.8C289,350.9,289.1,350.7,289.5,350L289.5,350z M298.6,351.2
			c0.8-0.7,0.3-1.9,0.1-2.7c-0.2-0.8-1.3-0.9-1.8-0.9s-0.9,0-1.2,0.3c-0.3,0.4-0.7,0.9-1.5,1.2c-0.8,0.4-1.5,0.8-2.6,1.4
			c-1.1,0.6-1.5,1.6-2,2c-0.5,0.4-1.4,0-1.4,0s-0.7-0.3-0.9,0c-0.2,0.2,0,0.8,0.4,1.4c0.5,0.7,1.3,0.6,2.3,1c1,0.4,1.2,0.1,1.5-0.3
			c0.4-0.4,0.7-1.1,1.4-1.7c0.7-0.6,2.1-0.7,2.9-0.8C296.8,352.2,297.8,351.8,298.6,351.2L298.6,351.2z M298.6,346.6
			c0.3,0.4,0.7,1,1,0.3c0.3-0.6,0.8-2,0.4-2.8c-0.3-0.8-0.7-1.5-0.7-1.5s-0.6,2.3-0.8,2.9C298.3,346.1,298.3,346.2,298.6,346.6
			L298.6,346.6z M295.6,339.7c0-1.3-0.7-2.9-0.7-2.9s-0.2,1.2-0.6,2.3c-0.4,1.1-0.8,1.6-0.8,1.6s1,0.3,1.4,0.3
			S295.6,341,295.6,339.7L295.6,339.7z M289.9,342.5c1.1-0.3,1.6-0.9,2.1-1.4c0.4-0.5,0.7-1.9,0.4-2.6c-0.3-0.7-1.1-1.5-1.4-1.5
			h-0.6c0,0-0.3,1.3-0.7,2c-0.4,0.7-0.9,1.1-0.9,2C289,341.8,288.9,342.7,289.9,342.5L289.9,342.5z M292.1,336.1
			c0-0.7-0.1-1.3-0.5-1.8l-0.6-0.8c0,0-0.1,1-0.2,1.5c-0.1,0.6-0.1,0.7-0.1,0.7s0.3,0.4,0.6,0.6C291.6,336.4,292,336.7,292.1,336.1
			L292.1,336.1z M279.1,300.4l0.7-5.9c-0.5-5.9-2.8-11.5-4.7-15.4c-1.8-4.2-3.4-8.6-4.6-13.2c-0.8-3.2-1.3-6.6-1.4-10
			c0-2.3,0.7-3.5,0.7-3.5s0.3-0.6,0-1c-0.3-0.4-0.8,0-1.2,0.6c-0.5,0.6-1,1.8-1.2,2.6c-0.2,0.8-0.2,1.1-0.2,1.1s-0.9-0.3-2.5-0.1
			c-1.5,0.1-2.2,0.3-2.3,0.8c0,0.4,0.2,0.8,1.3,1.4s1.8,0.9,2.3,1.8c0.6,0.9,1.9,5.2,2.4,7.3c0.4,2.1,1.4,7.8,1.7,12.2
			s1.5,9.9,3.1,14.4C273.9,294.8,276.7,301.8,279.1,300.4L279.1,300.4z M281.8,310.8c-1,0.8-1,6.4-0.5,9.3c0.5,2.9,2.6,6.5,3.2,7.5
			c0.6,1,0.8,1,1.1,0.7c0.3-0.3,0.5-0.3,0.5-0.3s0.9-0.4,1.6-1.1c0.7-0.7,0.4-2.5,0.3-4.1c-0.1-1.6-1-4.7-2.7-8.4
			C283.7,310.8,282.9,310,281.8,310.8L281.8,310.8z M283,306.3c0-1.8-1.2-3.2-2.6-3.2c-0.6,0-1.1,0.2-1.6,0.6
			c-1.4,1.6-0.6,5.8,1.5,5.8c0.7,0,1.6-0.2,2.1-0.8C282.9,308.1,283,307.1,283,306.3z M302.9,359c-0.6-0.1-0.9-0.4-1.7-1.2
			c-0.8-0.7-2.1-2.2-2.3-3c-0.2-0.8-0.2-0.8-1-0.4s-1.9,0.3-2.7,0.3c-0.8,0,0.1,1.3,0.7,2.5c0.6,1.2,0.4,5.1,0.4,5.1s0,0.3-0.1,0.9
			c-0.1,0.6,0,1,0.2,1.1c0.2,0.1,0.4-0.1,0.9-1c0.6-0.9,1.6-3.3,1.6-3.3l1.1,0.3c0.9,0.3,2.4,0.1,3.1-0.2
			C303.8,359.9,303.4,359.1,302.9,359L302.9,359z"/>
		<path style="fill:#D4AF3A;" d="M299.4,362c-0.4-0.1-0.6-0.1-0.7,0.2s-0.4,1-0.4,1.3c-0.1,0.3-0.1,0.6,0.2,0.9
			c0.2,0.3,0.6,0.6,0.6,0.6s0.3,0.5,0.6,0.7c0.3,0.2,0.4-0.4,0.4-0.9c0-0.5,0.2-1.4,0.2-1.9C300.2,362.4,299.8,362.1,299.4,362
			L299.4,362z"/>
		<path style="fill:#1D5E91;" d="M446.2,324.2c-0.9-0.3-1.4-0.8-1.4-0.8s-0.4-0.1-0.7,0.7c-0.3,0.8-1.5,1.8-1.5,1.8
			s-1.7,0.6-1.9,2.1c-0.2,1.6,0.6,2.1,1.4,1.9s2.8-0.7,3.6-2.1c0.9-1.4,1-2.1,1.2-2.7C447,324.7,447.1,324.5,446.2,324.2
			L446.2,324.2z M448.8,311.8c-0.6-3.5-2.3-7.7-5.5-9.9c0,0-1.2,5.7-1.6,7.5c-0.4,1.8-0.4,1.7,0.7,2.1c1,0.4,4.3,1.3,5,1.6
			S449.2,314,448.8,311.8L448.8,311.8z M433.5,308.5c0.8,0.2,0.7-0.2,0.9-1.6l1.6-8.2c0,0-3.4-0.2-6.4,1.7c-3,1.9-4.3,5.4-4.3,5.4
			s0.8,0.4,2.8,1C430.2,307.5,432.7,308.4,433.5,308.5L433.5,308.5z M425.6,317.9c-1.2-0.3-1.7-0.5-1.7-0.5s0.8,3.9,2,6
			c1.3,2.2,2.6,3.2,5.3,3.3c2.6,0,4.6-1.9,4.9-3.4c0.3-1.5,0.9-2.6,0.9-2.6s-4.7-0.8-6.6-1.4C428.3,318.8,426.7,318.2,425.6,317.9
			L425.6,317.9z"/>
		<path style="fill:#D4AF3A;" d="M424.7,315.5c1.2,0.4,10.8,2.8,11.6,3c0.8,0.2,1.5,0.5,1.7,0.2c0.2-0.3,0.4-0.5,1.2-0.9
			c0.9-0.4,0.8-1.5,0.8-1.5s0.2-1.1,0.3-2.2c0.1-1.1,0.5-1.4,1.5-0.1c0.9,1.3,1.1,3.2,1.3,5.1c0.2,1.8,2.4,2.3,3.2,2.5
			c0.9,0.2,1.3-0.2,1.8-1.3c0.5-1.1,0.8-3.2,0.9-4.6c0.1-1.4,0-1.3-1-1.6c-1.1-0.4-6.1-1.8-7-2.2c-0.9-0.3-0.7-1.1-0.6-1.9
			c0.1-0.8,2.1-9.3,2.1-9.3c-1.4-1.2-3.4-1.9-5.7-2.2c0,0-1.4,8.6-1.7,9.9s-0.9,1.3-1.9,1.1c-1-0.2-8.5-2.6-8.5-2.6l-0.6,1.8
			c-0.6,1.9-0.9,4.1-0.9,5.2S423.6,315.1,424.7,315.5L424.7,315.5z"/>
		<path style="fill:#D4AF3A;" d="M450.2,323.3c-1-0.9-1.7-1.1-2.2,0.5c-0.5,1.6-0.6,4-1.8,5.6c-1.3,1.7-3.1,3.4-4.9,3.2
			c-1.8-0.2-2.8-0.8-2.4-3.5s3.2-3.6,3.8-5s0.5-3.1-0.5-4.2c-0.9-1.1-2.3-1.3-2.7-1c-0.9,0.9-1.7,2.2-2.1,3.7
			c-0.6,2.1-0.9,3.7-2.1,5.1c-2,1.8-4.4,2.4-6.7,1.9c-2.4-0.8-3.3-1.7-4.2-4.9c-0.9-3.1-2-8.4-2.5-9c-0.5-0.6-1.1-1-2.1-0.1
			c-1,1-1.1,2.4-1.2,3.6c-0.1,1.1,0,2.5,1,4.1c1,1.6,2.1,3.3,2.5,5c0.4,1.7,1.5,4.4-0.1,4.5c-1.6,0.1-2.4,0.2-3.6-1.4
			c-1.2-1.6-6.1-6-7.4-7.5c-1.3-1.4-1.9-1.9-1.9-1.9c-2.2-0.1-4.5-1.3-6.8-3.3c0,0,1.3,4.4,1.6,6.1c0.3,1.7,0.2,2.6,0.2,2.6
			s4.9,3.3,6.8,4.6c1.9,1.3,5.9,4.2,7.7,5.8c1.9,1.6,3.5,4,6.8,3c3.4-0.9,10.1-3.7,12.3-4.5c2.2-0.9,8.2-2.9,10.5-4.9
			c2.2-2.1,2.4-1.9,2.8-4C451.6,325.3,451.2,324.2,450.2,323.3L450.2,323.3z M437.3,292.4c0.4-0.1,0.5-0.1,1.7-0.3
			c1.1-0.2,0.7,1.3,0.5,1.8c-0.2,0.6-0.5,1.7-1,2.8c-0.5,1,0.1,1.2,0.5,1.4c0.3,0.2,0.8,0.2,1.7,0.6c0.9,0.3,0.7-0.6,0.8-1
			c0-0.5,0.1-2.9,0.2-3.8s0.7-0.6,0.9-0.5l1.3,0.9c0.5,0.3,0.7,0,0.8-0.4c0.1-0.4,0.3-1,0.5-2c0.2-1-0.2-0.8-0.7-0.8s-1.1,0-1.8,0
			c-0.7,0-0.3-1-0.3-1l1-2.1c0.4-0.9,0.3-1-0.2-1.2l-2.1-0.7c-0.4-0.1-0.6-0.1-0.6,0.3s0,2.1,0,2.7s0,1-0.7,1.1
			c-0.6,0-1-0.5-1.6-1.2c-0.5-0.8-0.7-0.5-0.8-0.2c-0.1,0.3-0.5,2.5-0.6,3.1C436.6,292.5,436.9,292.4,437.3,292.4L437.3,292.4z
			 M440.9,314.1c0,0,0,1.7-0.2,2.3c-0.1,0.6-0.4,1.5,0.1,1.7c0.5,0.2,1,0.5,1.4,0.4c0.3-0.1,0.2-1,0-1.7c-0.2-0.8-0.5-1.6-0.9-2.2
			L440.9,314.1L440.9,314.1z M448.8,321c0.2,0.5,0.5,0.7,0.8,0.8s0.6,0.1,0.6-0.5s0.1-1.5-0.3-2.2c-0.4-0.7-0.6-1.2-0.9-0.2
			C448.8,320,448.6,320.5,448.8,321L448.8,321z M421.3,314.1c0.2,0.1,1.1,0.4,1.1,0.4s0-1.7,0.2-2.8c0.2-1.1,0.5-1.9,0.2-1.9
			s-0.5,0.4-0.7,0.8c-0.2,0.5-0.9,0.6-1.1,2C420.8,313.9,421.1,314,421.3,314.1L421.3,314.1z"/>
		<ellipse style="fill:#B96B29;" cx="426.7" cy="311.2" rx="1.8" ry="2.3"/>
		<ellipse style="fill:#B96B29;" cx="431.6" cy="312.8" rx="1.8" ry="2.4"/>
		<ellipse style="fill:#B96B29;" cx="446" cy="316.9" rx="1.8" ry="2.4"/>
		<ellipse style="fill:#B96B29;" cx="436.5" cy="314.4" rx="1.8" ry="2.4"/>
		<ellipse style="fill:#B96B29;" cx="437.9" cy="308.6" rx="1.8" ry="2.4"/>
		<ellipse style="fill:#B96B29;" cx="439.1" cy="302.9" rx="1.8" ry="2.4"/>
		<ellipse style="fill:#D4AF3A;" cx="426.8" cy="311" rx="0.9" ry="1.2"/>
		<ellipse style="fill:#D4AF3A;" cx="431.7" cy="312.6" rx="0.9" ry="1.2"/>
		<ellipse style="fill:#D4AF3A;" cx="446.1" cy="316.6" rx="0.9" ry="1.2"/>
		<ellipse style="fill:#D4AF3A;" cx="436.7" cy="314.1" rx="0.9" ry="1.2"/>
		<ellipse style="fill:#D4AF3A;" cx="438" cy="308.4" rx="0.9" ry="1.2"/>
		<ellipse style="fill:#D4AF3A;" cx="439.2" cy="302.6" rx="0.9" ry="1.2"/>
	</g>
	<g transform="matrix(-1 0 0 1 639.97 0)">
		<g id="a_1_">
			<path style="fill:#D4AF3A;" d="M382.2,359.1c-0.9-0.8-1.8-1.7-3.9-3.6c-2.1-1.9-2.9-4-2.9-4h0.8c0.4,0,0.8-0.8,0.8-1.5
				c0-0.8,0-2.3-0.2-4.1c-0.2-1.8,0.2-3.3,0.2-3.3s0.9,1.1,2.3,2.1c1.4,1,2,0.5,2,0.5l0.3-1.8c0,0,0.6,1.7,1.5,3.7
				c0.9,2,3.1,4.2,4.8,5.8c1.6,1.6,3.4,3.4,4.8,4c1.4,0.6,0.6,1.5,0.6,1.5s-1.4,1.8-4.9,2.7C384.8,361.8,383.1,359.9,382.2,359.1z"
				/>
			<path style="fill:#D4AF3A;" d="M369.9,357.3c1.2-0.2,2-0.8,2.2-2.6c0.1-1.2-0.1-5.7-0.1-5.7s0.4,0.5,0.9,1.2
				c0.5,0.8,1.6,0.9,1.6,0.9s0.2,0.6,0.6,1.6c0.5,1,1.1,2.2,2.3,3.2c1.2,1,2.6,2.2,3.5,3.2c0.9,1,2,2.2,3.2,3.1
				c1.4,1,2.4,2.7,2.7,4.7c0.4,2.4,0.1,3.1-1.3,3c-1.4-0.1-1.6,0-3.8-0.7c-2.2-0.8-5.4-4.1-7.8-6.1
				C371.6,361.2,369.9,357.3,369.9,357.3z"/>
			<path style="fill:#D4AF3A;" d="M363.7,360c0,0,0.9-1.6,1.3-3.4l1-5.4c0,0,0.3,1.1,1.1,3.3c0.8,2.1,2,2.7,2,2.7s0.1,0.9,1.1,2.7
				c1.2,1.9,2.6,3.5,4.3,4.8c1.6,1.3,3.7,3,4.8,5.1s1.2,4.4,0.7,5.4c-0.5,1-1.3-0.1-2.4-0.8s-4.1-1.4-8.4-4.4
				C365.1,366.9,363.7,360,363.7,360z"/>
			<path style="fill:#D4AF3A;" d="M361.9,372.7c-1.2-2.3-1.4-8-1.4-8s0.4-0.4,1-1s1.7-2.9,1.7-2.9s0.7,1.9,1.5,3.8
				c0.7,1.7,1.6,3.2,2.7,4.4c1.6,1.9,3.7,3.9,4.6,5.9c0.9,2.1,0.4,6.2-0.2,7.6c-0.6,1.4-1.5,0.9-2.3-0.2c-0.9-1.1-1.2-1.4-2.7-3.2
				C365.2,377.3,363,375,361.9,372.7L361.9,372.7z"/>
			<path style="fill:#B96B29;" d="M375.7,325.3c-0.6-1.7-1.3-3.8-1.9-4.8c-0.6-1-1-2.2-1-2.2s1.5,1.8,2.1,3.1c0.6,1.3,1,2.5,1.2,4
				C376.5,326.8,376.4,327,375.7,325.3L375.7,325.3z M369.7,326.8c-0.2-1.1-0.4-1.9-0.4-1.9s-0.2-1.1-0.1-1.2
				c0.1-0.1,0.8,0.7,1.2,2.5c0.4,1.8,1.1,4.5,0.9,4.6C371.2,331,370,327.9,369.7,326.8z M365,331.8l-0.3-0.8c0,0-0.5-2.1-0.5-2.5
				c0-0.4,0.2-0.9,0.6,0.2c0.4,1.1,0.4,2.1,0.5,2.6c0.1,0.5,0.5,2.1,0.4,2.2C365.6,333.6,365.3,332.6,365,331.8L365,331.8z
				 M379.7,351l0.6-0.5c0,0,0.4,0.7,0.9,1.4c0.5,0.8,1.1,1.1,1.5,1.8c0.4,0.7,1,1.6,2,2.3c1,0.7,1.4,0.9,1.2,1.1
				c-0.2,0.2-0.9-0.3-0.9-0.3s-0.3,0-1.5-1c-1.2-0.9-1.5-1.4-2.2-2.3C380.7,352.7,379.7,351,379.7,351L379.7,351z M374.6,359.1
				c-0.4-0.6-0.9-1-0.7-1.4c0.3-0.3,0.6-0.3,1,0.2s1.6,2,2.1,2.6c0.5,0.6,1,1,1.5,1.6c0.5,0.6,1.7,1.4,2.3,1.8c0.6,0.5,0,0.5,0,0.5
				s-0.4-0.3-0.9-0.5c-0.5-0.2-1.8-1-1.8-1s-0.5-0.3-1.3-1C376.1,361.1,375,359.7,374.6,359.1L374.6,359.1z M368.7,364.6
				c-0.4-1,0-0.7,0.7-0.4c0.6,0.3,2,2.4,2.9,3.1s1.5,1.1,2.2,1.5c0.7,0.5,0.7,0.7,0.7,0.9c0,0.2-0.3,0.2-0.6,0
				c-0.3-0.2-1.3-0.9-1.3-0.9s-0.4-0.2-0.8-0.2c-0.4,0-0.9-0.6-1.8-1.6C369.8,366.2,369.1,365.6,368.7,364.6L368.7,364.6z
				 M365.9,371.8c1,0.8,2.8,2.7,3.3,4c0.5,1.3,0.8,2.2,0.6,2.4c-0.2,0.2-0.7-0.2-0.9-0.7c-0.2-0.5-0.7-1.3-0.7-1.3s-1.8-2.4-2.5-2.9
				s-1.7-2.1-2-3c-0.2-0.9-0.1-1.4-0.1-1.4S364.9,370.9,365.9,371.8L365.9,371.8z"/>
			<path style="fill:#C52126;" d="M393.7,169.9c1-0.8,3.5-2.2,6.3-2.5c2.7-0.3,4.8,0.2,7.1,1.1c1.4,0.6,2.8,0.7,4.2,0.2
				c2-0.9,3.6-3.1,4-5.9c0,0,1.8,3.1,0,6.4c-0.8,1.5-1.9,2.5-3.2,2.9c-3.8,1-7.6-2.1-10.8-2.4c-3.1-0.3-5.5,2.3-5.5,2.3
				s-0.7,0.8-1.7,0C393.1,171.3,392.8,170.7,393.7,169.9L393.7,169.9z"/>
			<path style="fill:#D4AF3A;" d="M404.7,317.5l0.9-0.1c0.5-0.1,1.7-0.6,2-0.8c0.3-0.2,0.9-0.3,1.2,0.3c0.3,0.5,3.1,2.7,3.1,2.7
				h-4.6C405.8,319.5,404.7,317.5,404.7,317.5z"/>
			<path style="fill:#D4AF3A;" d="M391.9,316.5v-0.6l0.6-1.7c0,0,0.7,0.6,1.4,1.5c0.9,1.2,1.8,3,2.3,3.7c0.8,1.3,1.8,2.5,0.9,0.5
				c-0.9-2.1-1.2-3-1.9-4.4c-0.7-1.4-1.3-2-1.2-2.1c0.1-0.1,0.7-0.2,2.6-0.5c1.9-0.3,3.1-1.3,4-2c0.9-0.7,2.5-1.8,2.5-1.8
				s3.2,1.8,4.5,2.2s1.9,0.6,0.8,1.4c-1.2,0.8-2.2,1-2.8,1.5c-0.6,0.5-2.4,1.2-3.5,1.2c-1.1,0-2.9,0-2.2,1.1c0.7,1,1.5,3,2.3,5.9
				s0.8,5.6,0.8,6.9c0,1.3-0.1,2.6-0.1,2.6s-1.4-2-4.9-5c-1.8-1.6-3.7-3.1-5.6-4.4c-0.7-0.4-1-0.4-0.9-1.5
				C391.6,319.8,391.9,317,391.9,316.5L391.9,316.5z"/>
			<path style="fill:#D4AF3A;" d="M378.3,302l0.7-0.4c0.1,0,0.1,0,0.2,0.1c0.4,0.3,2.6,2.2,3.5,4.1c0.9,1.9,1.8,2.1,0.8,0
				c-0.8-1.9-1.9-3.6-3.2-5c1.9-1.2,3.8-2.6,5.5-4.2c0.3,0.9,0.7,1.7,1.2,2.5c0.8,1.1,2.4,2,2.4,2s-1.4-1.8-1.8-3.2
				c-0.3-0.9-0.5-1.8-0.6-2.4c1.3-1.4,2.5-2.9,3.6-4.6c0.2,1.2,0.9,4.2,3.1,7.3c2.8,4.2,8.4,6.3,8.4,6.3s2,0.3,0.4,0.8
				c-1.6,0.6-2.7,1.5-5.8,0.8s-3.3-0.9-3.7-1c-0.4-0.2-1.6-0.1,0,0.7c1.6,0.8,5.2,1.5,6.5,1.3c1.4-0.2,3.3-0.6,1.3,0.8s-2.8,2-4,2
				c-1.2,0-1.7,0.5-2.9,0.5c-1.2,0-1.5-0.3-2.3-0.5c-0.8-0.2-1.4,0.2-1.4,0.6c0,0.5,1.1,1.7,1.1,4.8c0,3.1-0.2,5.1-0.4,6
				c-0.2,0.9-0.7,2.3-1,3.2c-0.3,0.8-0.5,1.7-0.8-0.1c-0.3-1.8-1.1-4.4-1.4-6.1c-0.3-1.7-0.4-1.8-0.6-2.7c-0.1-0.9-0.8-1.6-0.5,0.1
				c0.3,1.6,0.7,3.7,1,5.1c0.2,1.5,0.8,4.1-0.2,2c-1-2.1-4.8-7.8-5.4-8.8c-0.6-1-1.1-2-1.6-2.8c-0.4-0.8-1.8-2-2.4-3.2
				c-0.6-1.1-2.2-3.3-3-4.1C376,303.3,377.1,302.7,378.3,302L378.3,302z M430.4,172.8c-0.1,3.1-2.7,9-4.1,12.1
				c-1.5,3.1-1.9,4.4-1.6,4.6c0.3,0.2,0.9-1.4,1.7-2.8c0.8-1.4,2.4-4.7,3.7-7.2s3.2-8.4,3.5-8.9c0.2-0.5,0.3-0.9,1-0.2
				c0.6,0.7,1.9,7.2,0.4,11.6c-1.5,4.4-3.8,7.6-4.7,9.2c-0.9,1.5-2.2,3.9-2,4.2c0.2,0.2,0.6-0.4,1.7-2c1.1-1.6,3.1-4.4,4.3-6.4
				c1.1-1.9,2-4,2.9-6.1c0.2-0.4,0.4-0.3,0.6-0.1c0.4,0.6,1.1,1.8,0.8,5.4c-0.4,4.9-2.3,7.7-4,10.2c-1.7,2.5-3.4,4.5-3.2,4.9
				c0.2,0.3,2-1.7,3.2-3.3c1.7-2.1,3.3-4.2,4.8-6.4c0.7-1,1.6-0.5,1.6,3.7c0,4.2-3.6,8.5-5,10.9c-1.5,2.3-3.3,3.8-3.1,4.2
				c0.2,0.5,1.6-0.7,2.6-1.6c0.9-0.9,4.5-4,5.2-4.6c0.7-0.7,1,0.6,0.1,4.6c-0.9,4-3.5,7.2-5.1,8.7c-1.6,1.5-4.1,3.3-3.9,3.8
				c0.1,0.5,1.2-0.1,2.7-1.1c1.5-0.9,3.2-1.8,4.5-2.3c1.3-0.5,1.2,0.7,1.2,0.7s0.3,3.4-1.6,6.1c-1.9,2.7-4,3.8-6,4.3
				c-2,0.5-2.3,0.6-2.3,1c0,0.4,0.2,0.5,0.7,0.5c0.5,0,2.3,0.3,4,0.3c1.7,0,2.6,0.5,2.6,1.5s0.1,2.4-2.5,4.6
				c-2.6,2.3-5.4,2.6-6.6,2.9c-1.2,0.3-1.3,0.5-1,0.9c0.3,0.5,0.8,0.4,2.7,0.7c1.9,0.3,3.1,1.3,3.3,1.9c0.2,0.7-0.2,2.7-1.7,4.1
				c-1.6,1.4-3.6,1.9-6.6,1.6c-3-0.3-3.8-0.3-3.9,0.3c-0.1,0.7,0.9,0.9,2.4,1.2c1.5,0.3,2.7,0.3,3.5,1.3c0.8,0.9,0.2,2.9-1.3,4.3
				s-5.1,1.4-6.6,1.3c-1.5-0.1-3.8-0.9-4-0.3c-0.1,0.5,1.1,1.3,2.7,2.1c1.6,0.8,2,1.2,2.3,2.1c0.3,0.9,0,1.7-1.8,2.6
				c-1.9,0.9-4.6,0.9-6,0.1s-2.1-1.2-2.4-0.9c-0.2,0.3,0,0.7,0.3,1.1c0.3,0.4,1.5,1.7,3.1,2.3c1.6,0.5,1.7,0.5,2.2,2.2
				c0.6,1.7-0.8,3-3.7,3.1c-2.8,0.1-6.6-1.4-7.8-2.3c-1.2-0.9-1.7-1.1-1.9-0.8c-0.2,0.3-0.2,0.5,0.5,1.1c0.6,0.6,2.5,2.4,3.5,2.8
				c0.9,0.3,1,1.3,1,2.1c0,0.9,0.3,2.6-2.2,3.4c-2.5,0.8-5.5,0.2-8.2-2.3c-0.6-0.6-1.2-1.3-1.7-2.1c0.2-3.4,0.1-5.8-0.2-8
				c0.9-0.1,1.8-0.4,2.6-0.8c1.5-0.8,2.1-2.7,2.5-3.7c0.3-1,0.9-1,1.5-0.8c0.6,0.3,1.2,0.6,2,0.5s2.7-0.7,4-2.7
				c1.3-2.1,1.1-4.1,1.1-5.1c0-1,1.2-0.3,1.9-0.3c0.6,0,2.4-0.3,4-1.8c1.6-1.5,1.6-3.5,1.8-4.3c0.2-0.8,0.8-1.3,1.3-1.6
				c0.5-0.3,1.3-0.5,2.4-1.7c1.1-1.2,1.5-3.6,1.6-4.4c0-0.8,0.7-0.9,3-2.4s2.1-4.8,2-6c-0.1-1.3-1.2-2.4-1.2-2.8
				c0-0.5,0.8-0.6,1.5-1.2c0.8-0.6,2.7-1.6,2.7-5.4c0.1-3.8-1.8-4.2-1.8-4.2s0.3-0.2,1.1-0.8c0.8-0.6,2.8-2.5,2.8-4.7
				c0-2.2-0.8-3.2-1.3-3.8c-0.6-0.5-2.1-1.1-2.1-1.1s1-0.8,1.4-2.6c0.4-1.7,0.6-3.9-0.4-5.4c-1-1.5-2.6-1.5-3.4-1.5
				s-1.6,0.6-1.9,0.3c-0.3-0.3-0.3-0.6,0-1.5c0.3-1.2,0.3-2.5,0.1-3.8c-0.3-0.7-0.3-2.2-2.5-3.1c-2.2-0.9-4.4,1-5.1,1.5
				c-0.7,0.5-0.4-0.8-0.4-1.7s1.5-3.3,3.1-6.6c1.7-3.3,2.4-5.1,4.3-10.2s3-11.6,3.3-13.3c0.2-1.7,0.8-0.9,0.8-0.9s0.5,0.3,1.7,4.2
				C430.2,165.7,430.6,169.3,430.4,172.8L430.4,172.8z"/>
			<path style="fill:#D4AF3A;" d="M392.6,241.4c1.8-0.2,3.3-1.5,4.3-3.5c1.3-2.5,3.2-3.1,6.6-3c3.4,0.1,4.9-2.1,5.8-5.2
				c0.8-3.1-0.1-6.6-3.6-8.9c-3.4-2.2-5-4.8-5.1-8.6c-0.1-3.9,3.4-8.7,7-14.1s6.3-13.1,6.3-13.1s1,1.8,1,3.6s-0.5,3.7,0,4.2
				c0.5,0.5,0.7-0.8,2.8-2c2.1-1.2,3.8-1.4,5,0.6c1.3,2,0,5.4-1.2,7.1c-1.2,1.6-2.1,2.8-1.8,3.4c0.3,0.6,2.1-0.9,2.6-1.5
				s1.9-2.5,3.9-2.2s2.7,1,2.9,3.3c0.2,2.2-1.8,4.2-3.1,5.1c-1.3,0.9-1.8,1.6-1.5,2c0.3,0.4,0.6,0,1.2-0.3c1.1-0.4,2.2-0.4,3.2,0
				c1,0.5,2.7,2.4,1.2,4.8c-1.6,2.3-4.8,3.2-5.4,3.4c-0.6,0.2-1-0.1-1,0.6c-0.1,0.7,1.4,0.7,3.1,0.8s2.3,2.3,2,4
				c-0.3,1.7-3.2,3.6-4.8,4c-1.6,0.3-2.2,0-2.3,0.6c-0.1,0.6,0.2,0.9,1.1,1.2c0.9,0.3,2.6,0.6,3,2.5s0.4,2.8-1,4.4
				c-1.4,1.6-3.6,1.4-4.2,1.2c-0.7-0.2-1.4-1.1-2.1-0.3c-0.7,0.9,0.6,1.6,1.7,2.6c1.1,1,1,3-0.9,4.4c-1.9,1.4-3.7,0.9-4.5,0.5
				c-0.8-0.3-1.8-2-2.3-1c-0.5,1,1.6,1.4,2.5,2.8c0.9,1.5,0.6,3.9-1.2,5.4c-1.8,1.5-4.8,0.4-5.3-0.2c-0.5-0.6-1.2-0.9-1.6-0.3
				c-0.4,0.5,0.2,1.9,0.6,3.1c0.4,1.2,1.1,4.7-1.6,6.1c-2.7,1.4-5.2-1.7-5.6-2.3c-0.4-0.6-0.9-0.7-1.3-0.4c-0.4,0.3-0.2,0.8,0.1,1.4
				c0.3,0.6,1,3.2-0.9,5c-1.3,1.2-2.8,1.1-3.6,1c-0.4-2-0.9-4.2-1.5-7.2h0.4c0.3,0,0.3,0.5,0.3,0.7c0,0.2-0.1,0.4,0.2,0.4
				c0.2,0,0.3,0.2,0.6,0.5c0.3,0.3,0.7,0.7,0.8,0.5c0.2-0.2-0.7-0.8-0.9-1.2c-0.2-0.4-0.7-1-0.7-1.4c0-0.4-0.2-0.7-0.6-1.2
				c-0.1-0.2-0.3-0.4-0.3-0.5c-0.3-2-0.6-4.4-0.9-7.2c-0.2-1.9-0.3-3.8-0.3-5.5L392.6,241.4L392.6,241.4z M447.8,187.6
				c-2.9,7.8-7,12.2-7,12.2s0.5-2,0.8-3.3c0.2-1.3,0-2.9,0-2.9s1-1.7,2.9-5.6c1.9-3.9,2.9-9.6,2.9-9.6s-1.8,5.7-3.1,8.8
				c-1.4,3-2.9,5.5-2.9,5.5s-0.6-2.7-0.9-2.8c-0.4-0.1-0.7,0.3-1,0.9c-0.3,0.6-0.6,0.5-0.6,0.5s0.5-1.3,1.2-2.8
				c0.3-0.7,0.8-1.5,1.1-2.2c1.1-2.2,3.4-6.6,4.6-10.9c1.2-4.3,3.8-15.1,4.2-18.3c0.5-3.2,0.9-1.4,1.4,0.9c0.5,2.3,1.1,5.7,0.7,10.7
				C451.6,173.6,450.7,179.8,447.8,187.6L447.8,187.6z M444.1,208.6c-1.1,1-2.7,2.5-2.7,2.5s0.3-0.8,0.4-1.7
				c0.2-0.9,0.2-2.9,0.2-2.9l2.1-2.5c1.5-1.8,2.9-3.8,4.2-6c2.2-3.6,0.4-1.5-1.4,1.1c-1.8,2.6-5.2,6.4-5.2,6.4l0-0.8
				c0-0.8-0.2-1.3-0.5-1.9c-0.3-0.5-0.1-0.6,1.8-2.6c1.9-2,6.9-9.4,9-13.9s4.2-10.5,4.2-10.5s1.1,8.9-3,18.7
				C449.2,204.4,445.2,207.5,444.1,208.6L444.1,208.6z M422.7,264.9c-2.2-1.2-1.6-4.1-1.6-4.1c0,0,1.4,0.6,2.6,1.2
				c1.3,0.6,4.4,1.8,5.6,1.9c1.2,0,1.2-0.2,1.3-0.4c0-0.2-0.9,0-2.7-0.4c-1.8-0.5-4.9-2.6-5.4-3.1c-0.5-0.5-0.5-0.6,0.3-0.7
				c0.6-0.1,1.3-0.4,1.8-0.9c0.3-0.3,1.1,0.1,3.1,0.8c2,0.6,6.2,1.6,9.4,1.6c3.2,0,6.2-0.7,6.7-0.9c0.5-0.2,1,0.2-0.5,3.7
				s-7,5.3-10.8,5.3C428.7,268.7,424.9,266.1,422.7,264.9L422.7,264.9z M432.7,257.7c-3.9,0-5.4-1.5-5.4-1.5s0-0.3,0.5-1.3
				c0.5-1,0.4-2.8,0.4-2.8s0.9,0.2,2.5,0.5c1.6,0.3,3.5,0.6,5.6,0.1c2.1-0.5,1.2-0.8-0.4-0.5c-1.7,0.3-4.8-0.5-5.9-1
				c-1-0.5-0.6-0.9,0.1-1.2c0.7-0.3,2.6-1.9,2.6-1.9s4.7,0.8,9.1,0.1c4.4-0.7,7.2-2.2,8.1-2.3c0.9-0.2,0.9,0.3,0.9,0.3
				s0.2,0.5-1.3,3.7c-1.5,3.2-4.5,5.2-7,6.2C440.1,257,436.6,257.7,432.7,257.7L432.7,257.7z M433.7,245.5c0,0,0.2-0.3,0.4-1.4
				c0.2-1.1-0.4-1.9-0.4-1.9s0.9-0.3,3.8-0.8c2.9-0.5,3.1-0.8,4.9-1.3c1.8-0.5,3-1.2,2.9-1.5s-0.6,0.1-1.7,0.7
				c-1.1,0.5-5.5,1.1-7.4,1.5c-1.9,0.3-2.9,0.6-3.3,0.3c-0.3-0.3-1.5-0.7-1.5-0.7s0.8-0.3,1.8-0.5c0.9-0.2,1.7-0.6,2.4-1.3
				c0.5-0.5,0.7-0.6,3.1-1c2.4-0.4,4.3-1.4,8.6-3.4c4.3-2.1,7.5-4.5,8.3-5.5c0.9-0.9,0.8-0.3,0.6,0.9c-0.2,1.2-0.2,2.7-2.3,6
				c-2.1,3.4-3.2,4.8-8.6,7.5C439.8,245.9,433.7,245.5,433.7,245.5L433.7,245.5z M449.8,227.9c-4.8,4.5-10.4,6.2-11.6,6.4
				c-0.3-0.4,0.3-1.9,0-2.8c-0.3-1.1-0.8-1.1-2-1.2c-1.1-0.1-0.4-0.4-0.1-0.4c0.3,0,0.3,0,2.2-0.7c1.9-0.7,3.9-1,6.5-2.4
				c2.6-1.3,3.4-2.3,3.4-2.6c-0.1-0.3-1.2,0.8-3.7,2.1c-2.4,1.2-5.3,1.7-6.8,2.2c-1.6,0.4-0.2-0.4,0.5-1c0.7-0.6,1.8-2.7,1.8-2.7
				s1.7-0.4,4.5-1.5c2.6-1,5.1-2.4,7.5-4.2c0.8-0.6,1.6-1.4,2.4-2.2c1.6-1.5,3.2-3.1,3.9-3.7c1-0.9,0.7-0.2,0.6,0.4
				c-0.1,0.6-0.8,3.2-2.3,6.1C455.1,222.5,454.6,223.4,449.8,227.9L449.8,227.9z M450.6,215.2c-4.7,5-8.8,6.5-9.5,6.9
				c-0.7,0.4-0.6-0.1-0.5-0.7c0.1-0.5,0.2-2.2,0.2-2.2l3.6-2.7c1.9-1.5,4-3.5,5.4-4.7c1.4-1.3,0.6-1.2,0.1-0.7
				c-0.4,0.5-2.3,2-4.3,3.6c-1.9,1.6-4.8,3.9-4.8,3.9s-0.1-0.8-0.5-1.4s-1.4-0.4-1.4-0.4s0.5-0.7,0.8-1.3c0.3-0.6,1.9-1.3,3.6-2.4
				c1.8-1.1,4.9-4.2,7.2-6.8c2.5-3.1,4.9-6.3,7.1-9.7c0.3-0.5,0.5-0.5,0.5,0.2c0,0.7,0.2,1.1-0.3,4.1
				C457.4,204,455.3,210.3,450.6,215.2L450.6,215.2z M433.8,168c-0.5,1.5-1.1,2.6-1.6,3.6c-0.6,1.5-1,2.4-1,2.4s-0.1-0.5,0-1.4
				c0.1-0.9,0.2-2.1,0-3.5c-0.1-0.8-0.2-1.6-0.2-2.2c0-0.8,0.2-1.5,0.3-1.9c0.1-0.8,0.8-4.5,1.2-7.1c0.3-2.6,0.7-6.3,0.7-9.6
				c0-3.3-0.4-1.6-0.4,0c0,1.6-0.1,4-0.5,7.8c-0.4,3.8-1.6,9.4-1.6,9.4s-0.1-0.9-0.4-2.1c-0.4-1.2-0.9-2.7-1.4-4.2
				c-0.4-1.5-0.3-1.8-0.3-1.8s1.7-10.6,2.1-15.6c0.4-6.1,0.8-12.1,1.1-18.2c2.4,3.3,4.2,11.8,4.6,19.9c0.2,6.1-0.5,11.8-0.7,14.1
				C435.3,162,434.7,165.6,433.8,168L433.8,168z M439.2,184.8c-0.1-2.4-0.5-4.2-1.7-4.8c0,0,1-2.4,1.9-5.8c0.6-2.3,1.1-5.4,1.4-7.6
				c0.6-5.7,1.1-11.6-0.1-2c-1.3,9.6-2.8,13-2.8,13l-1.8,4c0.3-1.8,0.3-3,0.2-4.9c-0.1-1.9-0.2-4.5-0.7-6.6c0,0,2.2-5.9,3.6-13.1
				c1.4-7.1,2.2-13.6,2.2-17.5l0.2-5.2c0,0,2.3,2.3,3,13.9c0.8,11.6-1.5,22.7-2.7,27C440.9,179.5,439.2,184.8,439.2,184.8z
				 M414.3,273.4c0,0,0.4-0.3,1.4-1.2c1.1-0.9,0.8-3.7,0.8-3.7s0.3,0.3,1.1,1c0.8,0.7,1.7,1.5,2.8,2.1c1.1,0.6,1.6,1,2.3,1.3
				c0.7,0.3,0.5-0.1-0.1-0.5c-0.6-0.4-0.8-0.7-2.2-1.4c-1.4-0.8-4.3-4.1-4.3-4.1s0.7-0.1,1.9-0.1c1.2-0.1,2.7-0.9,2.7-0.9
				s1.2,1.4,6,4.2c4.8,2.7,8.9,3.5,8.9,3.5s-0.5,3.3-2.8,4.4c-1.9,1.1-4.5,1.8-9.7,0.1C417.8,276.2,414.3,273.4,414.3,273.4
				L414.3,273.4z M408,279.9c-0.4-2.7,0.8-4.6,0.8-4.6s0.3,0.2,1,1c0.7,0.9,1.8,2.5,3.8,3.9c2,1.3,2.7,1.3,0.8-0.1s-4.8-5.3-4.8-5.3
				l0.8-0.4c0.8-0.4,2,0.3,7.5,4.6c5.4,4.3,8.6,4.5,8.6,4.5s-2.4,3.9-9,3.6C410.8,286.8,408.4,282.6,408,279.9L408,279.9z
				 M395.6,276.8c0,0,0.7,1.4,1.7,2.2c1,0.9,3.6,1.4,3.6,1.4s0.1,0.4,0.6,1.2c0.5,0.9,1.6,2.9,2.8,4.1c1.1,1.1,2.9,1.8,3.1,1.5
				c0.1-0.3-1-0.9-2.2-1.8c-1.1-0.9-2.1-2.6-2.9-3.8c-0.8-1.2,0.3-1,0.3-1s1.4,0,2.6-0.1c1.3-0.2,1,0,1.4,0.8c0.4,0.8,0.9,1.5,1.8,3
				c1.1,1.8,2.2,3.3,3.3,5.1c0.7,1.2,0.2,1.5,0.2,1.5s-0.3,0.7-3.2,1.2c-1.8,0.3-3.8,0-5.8-1.6c-1.3-1-2.6-2.6-3.9-4.5
				C395.4,281,395.6,276.8,395.6,276.8L395.6,276.8z M394,287.3c0.7,1.2,1.1,1.8,1.1,1.8s-0.5-2.1-0.9-3c-0.2-0.5-0.5-1-0.7-1.4
				c0.5-1.4,0.9-3,1.2-4.7c0.3,1.4,1.3,5.5,2.6,8.1c1.5,3.2,2.8,4.4,2,5.2c-0.9,0.9-2.6,1-4.5-0.2c-1.8-1.2-2.4-3.3-2.6-5
				c0.3-0.7,0.6-1.4,0.9-2.1C393.3,286.3,393.6,286.6,394,287.3L394,287.3z"/>
			<ellipse style="fill:#D4AF3A;" cx="394.5" cy="158.6" rx="1.3" ry="1.6"/>
			<path style="fill:#D4AF3A;" d="M397.3,155.5c-1.2,0-1.9-0.8-3.2-0.6c-1.6,0.2-3.8,1.4-6.4,3.3c-2.3,1.4-4.9,1.7-7.4,0.9
				c-0.7-0.3-1.5-0.8-2.1-1.4c-3.2-2.4-2.4-7.1-2.4-7.1c2.3,2.3,5.1,3.4,8,3.2c0,0-0.2,0.2-0.7,0.8c-0.5,0.6-1.3,1.4-1,1.7
				c0.3,0.3,1.4-1.2,2.4-2.1c1.5-1.5,3.1-2.6,4.9-3.2c2.5-1,5.2-1.1,7.1,0.3c1.9,1.4,2,3.1,1.8,3.8
				C398,155.4,397.7,155.5,397.3,155.5z M362.6,190.2c0.6-0.2,1.5-0.4,2.8-2c1.7-2.2,3.3-4.5,4.7-6.9c0.4-0.8,0.2-1.6-0.7-2.1
				c-0.9-0.5-1.5-2-1.5-2s1.9-1,3.2-2.2c1.3-1.2,4.3-4.8,4.7-5.7c0.4-0.9,0.2-1.1-0.4-1.3c-0.6-0.3-0.8-0.8-0.8-0.8s1.4-1.2,2.7-2.6
				c1.3-1.4,3-3.6,3-3.6c1.9,1,5,0.6,6.6,0.2c2.9-0.7,5-2.3,5-2.3s0.1,0.6,0.4,1.8c0.4,1.2,1.7,1.8,3,0.7c1.4-1.2,1-3.7,1-3.7
				s1.1-0.9,3.3-2s4-1.2,5.8-0.1c1.8,1.1,2.7,4.4,2.7,6.9c0,2.5-1,1.4-1.2,1.1c-0.2-0.3-0.6-2.1-2.9-2.6s-4.3,1-6.9,3.8
				c-2.6,2.8-3.1,3-4.4,4.8c-1.3,1.8-0.3,2.8,2,3.7s5-1,5.1-0.9c0.4,0.3-1,2.9-2.9,3.9c-1.9,1-4.4,0.4-6.2-0.7
				c-1.3-0.7-1.5,0-1.9,0.6c-2.1,2.9-2.6,5.7-3,9c-1-0.5-1.7-1.6-1.9-3c-0.1-0.6-0.2-1.8-0.9-0.9c-0.7,0.9-1.3,5.9-1.3,8.1
				c0,2.3,0.5,5.3,0.5,5.3l-0.5-0.1c-0.3-0.1-0.9-0.6-1.7-1.2c-0.8-0.6-0.9,0.1-0.9,1.3c0,1.2-0.3,3.6-1.5,7.8c-1.2,4.2-3,5.6-3,5.6
				s-0.4-0.8-0.7-2.5c-0.4-1.7-0.6-4.9-0.6-7.7s0.6-8.9,0.6-8.9s-2.6,4.2-5.2,5.2c-2.7,1-5.4,0.4-6.5-1.3
				C361,191.2,362,190.4,362.6,190.2L362.6,190.2z"/>
			<path style="fill:#D4AF3A;" d="M380.2,201.1c0,0,0.8,2.4,1.3,3.3c0.5,0.9,0.6,1,0.6,1s-0.8,0.9-2,1.4c-1.2,0.5-2.2,0.8-2.2,0.8
				s1.3-2.4,1.8-4.1C380.1,201.6,380.2,201.1,380.2,201.1L380.2,201.1z M364.2,199.7c0.4-1.3,0.6-2.1,0.6-2.1
				c1.6,0.5,4.8-0.6,6.1-1.7c0,0-1.2,3.3-2.5,4.5c-1.2,1.2-1.4,1.2-1.4,1.2s1.2,0.3,2.9-1.9c1.7-2.2,2.4-4.7,2.4-4.7
				s-0.4,5.8,0.3,9.3s0.8,4,0.8,4s-3.5,0.8-7.4-0.6c-3.9-1.4-4.2-1.9-4.2-1.9s-0.5-0.2,0.1-1.2C362.8,203,363.6,201.4,364.2,199.7
				L364.2,199.7z"/>
			<path style="fill:#B96B29;" d="M371.2,187c1.2-1.8,1.3-2.3,1.3-2.3s0.4,0.6,0.1,1.3c-0.9,1.5-2,2.7-3.2,3.7
				c-0.7,0.5-1.5,0.9-2.3,1.2l0.1-0.3C367.1,190.6,370,188.8,371.2,187z M376,199c0,0,0.3-7.3,0.3-8.3c0-1.1,0.5-0.8,0.5-0.8
				l0.6,0.4l-1.2,10.6c-0.1,1.1-0.6,1.1-0.8,1C375.9,201.5,375.9,199.3,376,199z M383.3,167.6c0.4-0.6,1.4-1,0.5,0.4
				c-1,1.4-2.2,3.2-2.6,4.7c-0.4,1.5-0.6,3.3,0,2.9c0.6-0.4,1.1-0.4,1.7-1.1c0.7-0.9,1.6-1.6,2.5-2.2c0.5-0.2,1.4,0,0.7,1.1
				c-0.7,1.1-1.6,2.1-3,3.5s-2.2,2-3,2.7c-0.7,0.7-1.5,1.3-1.5,1.3s0.7-5.9,1.9-8.5C381.8,169.6,382.9,168.2,383.3,167.6
				L383.3,167.6z M407.3,266.8c0.9,0.9,2.1,1.3,2.1,1.3s0.6,0,0.6,0.2s-0.7,0-1.3-0.1c-0.7-0.2-1.6-1.1-2-1.4
				c-0.3-0.3-0.8-0.8-0.7-1.3C406.1,264.8,406.4,265.9,407.3,266.8z M399.6,272.3c0.2,0.3,1.7,1.8,1.7,1.8s0.5,0.4,1,0.7
				c0.5,0.3,0.6,0.6,0.6,0.6s-0.1,0.1-0.6,0c-0.5-0.2-2.1-1.6-2.6-2.2c-0.5-0.6-0.7-0.8-0.5-1C399.3,271.9,399.4,272.1,399.6,272.3
				L399.6,272.3z M431,197.9c-0.3,0.5-0.6,1.1-0.8,0.9c-0.2-0.2,0-0.4,0.4-1c0.4-0.6,0.6-0.9,0.6-0.9s0.5-1.1,0.8-1.5
				c0.3-0.4,0.8-0.6,0.2,0.3C431.6,196.6,431.3,197.4,431,197.9L431,197.9z M433.4,204.9c-0.3,0.4-0.7,0.8-1,1.3
				c-0.4,0.5-0.7,1.1-0.9,0.8c-0.2-0.3,0.6-0.9,0.9-1.5c0.3-0.6,0.6-0.9,1.1-1.4s1-0.8,1-0.8S433.7,204.5,433.4,204.9L433.4,204.9z
				 M432.5,216.1c-0.6,0.8-1.5,1.1-1.6,0.8c-0.1-0.3,0.1-0.6,0.6-0.9c0.5-0.3,1.3-1,1.7-1.4c0.4-0.3,0.8-0.7,1.1-1.2
				c0.3-0.4,0.6-0.7,0.7-0.6c0.1,0.1-0.8,1.4-1.1,1.7C433.6,214.7,433.1,215.3,432.5,216.1L432.5,216.1z M430.8,225.2
				c0-0.3-0.1-0.5,0.4-0.5c0.5,0,1.2-0.2,1.2-0.2s1-0.5,1-0.3c0.1,0.3-0.8,0.8-1.2,0.8c-0.4,0.1-0.8,0.2-1.1,0.4
				C431,225.6,430.8,225.5,430.8,225.2L430.8,225.2z M430,234.9c1.1,0,2-0.3,2-0.1c0.1,0.2-0.5,0.5-1,0.8c-0.5,0.3-1.5,0.3-2.2,0.4
				c-0.7,0-0.8-0.2-0.8-0.6C428.1,234.9,429,234.9,430,234.9z M421.8,245.7c0.2-0.2,0.5,0,1.1,0.1c0.6,0.2,1.6,0.4,2.1,0.4
				c0.6,0,1.8-0.1,1.8-0.1l0.7,0.2c0,0.2-0.9,0.2-2.2,0.4c-1.3,0.2-2.2-0.2-2.8-0.3C421.8,246.3,421.6,245.9,421.8,245.7z
				 M418.3,253.3c0.7,0.3,1.1,0.4,1.6,0.4s1.7,0.3,1.7,0.3s0.6,0.1,0.4,0.4c-0.1,0.3-0.3,0-0.8-0.1c-0.5-0.1-0.9,0-1.7,0
				c-0.9,0-1.4-0.3-1.9-0.4c-0.5-0.2-1.1-0.5-0.8-1C417.1,252.4,417.7,253,418.3,253.3z M411.7,259.1c0.4,0.5,1.8,1.8,1.8,1.8
				s0.3,0.3,0.8,0.6s0.5,0.6,0.4,0.8c-0.1,0.2-0.4-0.3-0.8-0.5s-1.3-1.1-1.9-1.6c-0.5-0.6-1.2-1.1-1.1-1.5
				C411.2,258.3,411.3,258.6,411.7,259.1L411.7,259.1z M422.8,184.3c0,0-0.1,0.4-1.3,2.3c-1.1,1.9-0.5,0.1-0.2-0.4
				c0.3-0.5,2-3.7,2.5-4.5c0.6-0.9,0.7-0.5,0.4,0.1S422.8,184.3,422.8,184.3z M425.2,194.1c-0.2-0.2,0.2-0.5,0.9-1.5l2-3.3
				c0,0,0.4-1,0.5-0.9c0.1,0.1-0.4,1.8-1,2.5c-0.5,0.7-1.2,2.1-1.6,2.7C425.6,194.1,425.3,194.4,425.2,194.1L425.2,194.1z
				 M422,212.6c0-0.5,1.3-0.5,1.9-0.6l1.6-0.4c0,0,1.2-0.3,1.3-0.1c0,0.2-0.2,0.4-0.9,0.6c-0.7,0.2-1.7,0.6-2.5,0.8
				C422.6,212.9,422,213.1,422,212.6L422,212.6z M425.2,202.6c-0.9,0.9-1.4,1.4-1.9,1.7s-0.8,0.8-1.1,0.4c-0.2-0.4,0.2-0.7,0.9-1.1
				c0.7-0.4,1.1-0.8,1.1-0.8l0.8-0.6C425.4,202,426,201.7,425.2,202.6L425.2,202.6z M417.7,196.1c0.5-0.6,1-0.9,1-0.9
				s0.7-0.8,0.8-0.6c0.1,0.3-0.7,1.1-1.1,1.6c-0.4,0.5-1.1,1.9-1.5,1.7C416.5,197.5,417.2,196.7,417.7,196.1L417.7,196.1z
				 M422.6,221.8l1.2,0.4c0.5,0.2,0.5,0.5-0.3,0.5s-1.2-0.3-2-0.5c-0.8-0.2-1.1-0.3-1-0.7c0.1-0.4,0.6-0.3,0.9-0.1L422.6,221.8z
				 M421.3,231.1c0.1,0.2-0.6,0-1-0.2c-0.4-0.2-1.4-0.8-1.9-1c-0.5-0.2-0.5-0.3-0.5-0.8c0-0.4,0.6-0.1,1.2,0.2
				c0.7,0.3,1.6,1.2,1.6,1.2S421.2,230.9,421.3,231.1z M412.3,236.7c-0.6-0.5-0.8-0.9-0.5-1.1c0.2-0.2,0.4-0.2,0.9,0.3
				c0.5,0.5,1.5,1.5,1.5,1.5s0.5,0.3,0.9,0.5c0.4,0.3,0.8,0.7,0.7,0.9c-0.1,0.3-0.9,0-1.3-0.5C414,237.9,412.9,237.2,412.3,236.7
				L412.3,236.7z M408.1,244.2c-0.2-0.3-1-0.6-1.3-1c-0.3-0.3-0.6-1.3-0.3-1.5c0.3-0.1,0.4,0.4,1,1c0.6,0.6,2.6,2.4,2.6,2.4l0.5,0.3
				c0.6,0.3,0.3,0.5-0.2,0.4c-0.5-0.1-0.8-0.1-1.3-0.7C408.6,244.6,408.3,244.5,408.1,244.2L408.1,244.2z M401.8,251.3
				c-0.5-0.3-1.3-1.2-1.7-1.7c-0.4-0.5-0.8-1-0.6-1.3c0.3-0.3,0.6,0.1,1,0.6c0.4,0.5,1.6,2.2,1.6,2.2s0.2,0,0.8,0.7
				c0.6,0.7,0,0.5-0.3,0.3C402.5,251.8,402.3,251.6,401.8,251.3L401.8,251.3z"/>
			<path style="fill:#D4AF3A;" d="M376.2,144.9l-2.5-2.4l3-1l1.9,2L376.2,144.9z"/>
			<ellipse style="fill:#B96B29;" cx="368.1" cy="142.1" rx="2.4" ry="3.1"/>
			<ellipse style="fill:#D4AF3A;" cx="368.1" cy="141.4" rx="1.5" ry="1.9"/>
			<path style="fill:#D4AF3A;" d="M373.1,131.4c-0.6,0.3-1.4,0.2-1.4,0.2s-0.2-1.4,0.3-2.1c0.6-0.7,1.1-1.2,1.5-1.6l0.4-0.6
				c0,0,0,1.2,0,2C374,130,373.7,131.1,373.1,131.4L373.1,131.4z"/>
			<ellipse style="fill:#D4AF3A;" cx="371.8" cy="133" rx="0.4" ry="0.6"/>
			<path style="fill:#D4AF3A;" d="M375.1,132.4c0.2,0.3,0.6,0.9,0.6,0.9s-0.5,0-0.9,0.4c-0.4,0.4-0.9,0.7-1.4,0.6
				c-0.5-0.1-0.7-0.7-0.6-1.1c0.1-0.4,0.3-0.9,1.1-1.2C374.8,131.6,375,132,375.1,132.4L375.1,132.4z"/>
			<path style="fill:#D4AF3A;" d="M373.5,136.1c1.5,0.2,3.5-2.1,3.5-2.1c0.2,1.8,1,2.7,2.3,3.1l-0.1,0.1c0,0-1.2,0.8-2.6,1.1
				c-0.6,0.1-1.2,0-1.9-0.2c-0.8-0.2-1.5-0.5-2.2-0.9c-0.9-0.8-0.6-2.7-0.6-2.7S371.9,135.9,373.5,136.1L373.5,136.1z M379.4,134.1
				c0.6-0.3,1.6-0.9,1.9-0.9c0.4,0,1-0.1,0.9,0.8c-0.1,1-0.8,1.4-1.6,1.5c-0.7,0-1.1-0.3-1.5-0.6
				C378.7,134.5,378.7,134.4,379.4,134.1z M384.1,130.7c0.7-0.6,1.3-0.8,1.3-0.8s0.4,1.6,0.2,2.5c-0.2,1-0.8,1.2-1.4,1.2
				s-1.6-0.5-1.3-1.1C383.2,131.7,383.6,131.1,384.1,130.7z"/>
			<ellipse style="fill:#D4AF3A;" cx="383.5" cy="135.1" rx="0.5" ry="0.5"/>
			<path style="fill:#D4AF3A;" d="M382,127.3c0.4-2.7,0.3-5.5-1.5-9.2c-1.9-3.7-5.2-5.2-5.2-5.2s-0.1-0.3-1.2-1.8
				c-1.1-1.5-3.2-3.4-3.2-3.4s2.5,0.8,3.9,1.4v0.1c0,1.3,0.8,2.3,1.7,2.3c0.4,0,0.7-0.1,1-0.4c0.8,0.2,3.3,2.2,4,3
				c-0.2,0.3-0.3,0.8-0.3,1.2c0,1.3,0.8,2.3,1.7,2.3c0.3,0,0.6-0.1,0.8-0.3l0.2,0.5c0.5,1.3,0.9,2.5,1.2,3.7c-0.4,0.4-0.7,1.1-0.7,2
				c0,1.3,0.6,2.3,1.4,2.3c0.1,0.8,0,1.3,0,1.5c-0.1,0.8-0.3,1.2-1.3,1.6c-1,0.4-2.3,2.7-2.3,2.7C382.2,131.6,381.5,130,382,127.3
				L382,127.3z"/>
			<path style="fill:#D4AF3A;" d="M376,110.2c-0.4-0.4-0.4-1-0.1-1.3c0.3-0.3,0.8-0.3,1.2,0.1c0.3,0.4,0.4,1,0.1,1.3
				C376.9,110.7,376.4,110.7,376,110.2L376,110.2z M382.4,116c-0.4-0.5-0.5-1.2-0.2-1.6c0.3-0.5,0.9-0.4,1.3,0.1
				c0.4,0.5,0.5,1.2,0.1,1.7C383.3,116.5,382.8,116.5,382.4,116z"/>
			<ellipse style="fill:#D4AF3A;" cx="386.1" cy="123.2" rx="1" ry="1.3"/>
			<path style="fill:#D4AF3A;" d="M365,105c0.5,0.1,1.5,0.6,2.9,1.5h0c-1,0-1.7,0.8-1.7,1.9s0.9,2.2,1.9,2.2c1,0,1.6-1.1,1.6-2.2
				c0-0.3,0-0.5-0.1-0.7l1.3,1.2c3.1,2.8,3.8,4.2,5.4,8c1.5,3.8,2.1,8,1.4,10.5c-0.7,2.5-3.1,3-3.1,3c0,0,0.3-0.4,0.3-0.9
				c0-0.5-0.1-0.7-0.2-1.6c-0.1-0.9,0-2.1,0-2.1s-0.6-0.1-0.9,0.4c-0.3,0.5-0.8,1.1-1.1,1.6c-0.3,0.5-1.2,1.5-1.2,1.5
				s-0.5-0.9-0.5-2.1c0-1.1,0.6-2.3,0.7-4.3c0.1-2-0.7-5.5-2.1-8c-1.4-2.2-3-4-4.9-5.4c-0.8-0.5-0.9-1.3-1-1.8c0-0.5-0.1-0.8-0.2-2
				S364.2,104.8,365,105L365,105z"/>
			<path style="fill:#D4AF3A;" d="M368.1,109.5c-0.6,0-1.1-0.7-1.1-1.3c0-0.6,0.4-1.1,1-1.1s1,0.5,1,1.1
				C369,108.8,368.6,109.5,368.1,109.5z M363.4,133.9c-0.8,0.4-1.6,0.2-2-0.2c-0.4-0.4-0.5-1.3-0.1-1.8c0.5-0.5,1.1-0.5,1.6-0.2
				c0.4,0.3,1.4,1.3,1.4,1.3S364.2,133.5,363.4,133.9L363.4,133.9z"/>
			<path style="fill:#D4AF3A;" d="M361,135c0.3,0.6,0.5,0.9,1.3,0.9s1.7,0,2.3-0.8c0.6-0.7,0.9-1.8,0.9-1.8l0.9,0
				c0,0,0.3,1.7,0.7,2.2c0.4,0.5,1.9,0.6,2.5-0.1c0.6-0.6,1.2-1.4,1.3-1.3c0.1,0.1,0,0.7-0.7,1.5s-1.1,1.2-2.2,1.2h-6
				c0,0-1.2,0.1-1.6-0.9c-0.3-1-0.4-1.6-0.2-1.8C360.7,134,360.8,134.4,361,135L361,135z"/>
			<path style="fill:#D4AF3A;" d="M370.1,133.6c-0.9,0.7-1.4,0.3-1.7-0.3c-0.3-0.5-0.4-0.8-0.4-0.8s0.8-0.4,1.3-0.8
				c0.4-0.3,0.7-0.6,1.1-0.6c0.4,0.1,0.5,0.1,0.5,0.1S371,133,370.1,133.6L370.1,133.6z"/>
			<ellipse style="fill:#B96B29;" cx="374.5" cy="121.9" rx="2" ry="2.6"/>
			<path style="fill:#B96B29;" d="M371,112.7c0.8-0.7,2-0.4,2.6,0.6c0.7,1.1,0.5,2.5-0.3,3.2c-0.8,0.7-2,0.4-2.6-0.6
				C370.1,114.9,370.2,113.4,371,112.7z"/>
			<ellipse style="fill:#D4AF3A;" cx="374.5" cy="121.5" rx="1.2" ry="1.5"/>
			<path style="fill:#D4AF3A;" d="M371.8,113c0.5-0.2,1.1,0.1,1.4,0.8s0,1.2-0.7,1.4C371.3,115.5,370.7,113.4,371.8,113z"/>
		</g>
	</g>
</g>
</svg>
