<?xml version="1.0" encoding="utf-8"?>
<!-- Generator: Adobe Illustrator 25.2.1, SVG Export Plug-In . SVG Version: 6.00 Build 0)  -->
<svg version="1.1" id="Layer_1" xmlns="http://www.w3.org/2000/svg" xmlns:xlink="http://www.w3.org/1999/xlink" x="0px" y="0px"
	 viewBox="0 0 720 480" style="enable-background:new 0 0 720 480;" xml:space="preserve">
<g>
	<path style="fill:#DA2032;" d="M0,0h720v480H0V0z"/>
	<path style="fill:#0066B3;" d="M240,0h240v480H240V0z"/>
	<g transform="translate(400) scale(.25)">
		<path style="fill:#FFD900;" d="M-1384,864h120v768h-120V864z M-976,864h120v768h-120V864z M-1240,1536l120,96l120-96H-1240z
			 M-1240,1440h240v64h-240V1440z M-1240,864l120,96l120-96H-1240z M-1240,992h240v64h-240V992z M-1063,1107.4
			c8.9,16.2,13.8,35.7,13.8,55.8c0,52.1-31.7,94.4-70.8,94.4c-31.1,0-56.4,33.7-56.4,75.2c0,41.5,25.3,75.2,56.4,75.2
			c66.3,0,120-71.6,120-160C-1000,1189.3-1024.2,1135.3-1063,1107.4L-1063,1107.4z M-1120,1300.8c13.3,0,24,14.3,24,32
			c0,17.7-10.7,32-24,32s-24-14.3-24-32C-1144,1315.1-1133.3,1300.8-1120,1300.8z"/>
		<path style="fill:#FFD900;" d="M-1177,1388.6c-8.9-16.2-13.8-35.7-13.8-55.8c0-52.1,31.7-94.4,70.8-94.4
			c31.1,0,56.4-33.7,56.4-75.2c0-41.5-25.3-75.2-56.4-75.2c-66.3,0-120,71.6-120,160C-1240,1306.7-1215.8,1360.7-1177,1388.6
			L-1177,1388.6z M-1120,1195.2c-13.3,0-24-14.3-24-32c0-17.7,10.7-32,24-32s24,14.3,24,32C-1096,1180.9-1106.7,1195.2-1120,1195.2z
			 M-1251.8,652.5c-0.1,1.2-0.2,2.3-0.2,3.5c0,97.2,59.1,176,132,176s132-78.8,132-176c0-1.1,0-2.1,0-3.2
			c-22.9,69.9-74.7,115.2-131.9,115.2C-1177.2,767.9-1228.9,722.5-1251.8,652.5L-1251.8,652.5z"/>
		<ellipse style="fill:#FFD900;" cx="-1119.9" cy="608" rx="24" ry="32"/>
		<path style="fill:#FFD900;" d="M-1109.9,192c-11.9,7.2-16.4,20.2-17.3,33.2c-0.6,10.9,3,23.2,3.4,33.9c0,18.4-14.3,24.4-14.3,50.6
			c0,9,6.2,18.9,6.2,42.3c-1.1,12.3-6.2,15-12,16c-6.6,0-12-7.2-12-16c0-4.1,1.2-8,3.3-11c0.4-0.6,0.8-1.1,1.2-1.6
			c2.7-3.7,6.5-5.1,6.5-14.8c0-5-2.4-9.5-4.7-18.4c-2.2-8.6-0.6-22.9,4.6-31.4c-8.4,4.3-13.6,15.1-16.2,24.7
			c-2.8,11.8-0.4,18.7-4.2,28.5c-2.3,6.4-5.1,9-7.7,14.3c-3.1,5.8-6.8,19.3-6.8,25.6c0,44.2,26.9,80,60,80c0,0,0,0,0,0
			c33.1,0,60-35.8,60-80l0,0c0-6.3-3.6-19.8-6.7-25.6c-2.6-5.3-5.4-8-7.8-14.3c-3.8-9.8-1.3-16.7-4.1-28.5
			c-2.6-9.6-7.8-20.4-16.2-24.7c5.2,8.5,6.8,22.8,4.6,31.4c-2.3,8.8-4.8,13.4-4.8,18.4c0,9.7,3.7,11.1,6.5,14.8
			c0.4,0.5,0.8,1,1.2,1.6c2.1,3,3.3,6.9,3.3,11c0,8.8-5.4,16-12,16c-6.6-1.1-11.4-5.2-12-16c0-30.8,9.9-32.8,9.9-55.6
			c0-32.5-21.9-48-21.9-71.8C-1119.9,216.7-1118.5,202.9-1109.9,192L-1109.9,192z"/>
	</g>
</g>
</svg>
