<?xml version="1.0" encoding="utf-8"?>
<!-- Generator: Adobe Illustrator 25.2.1, SVG Export Plug-In . SVG Version: 6.00 Build 0)  -->
<svg version="1.1" id="Layer_1" xmlns="http://www.w3.org/2000/svg" xmlns:xlink="http://www.w3.org/1999/xlink" x="0px" y="0px"
	 viewBox="0 0 720 480" style="enable-background:new 0 0 720 480;" xml:space="preserve">
<g>
	<rect width="720" height="480"/>
	<rect style="fill:#FFFFFF;" width="720" height="165"/>
	<rect style="fill:#007168;" width="720" height="150"/>
	<rect y="314.8" style="fill:#FFFFFF;" width="720" height="165.2"/>
	<rect y="330" style="fill:#FCE100;" width="720" height="150"/>
	<path style="fill:#D21034;" d="M0,0v480l315-240L0,0z"/>
	<path style="fill:#FCE100;" d="M163.5,330L105,287.1L46.5,330l22.7-68.9l-58.8-42.3l72.5,0.3l22.1-69l22.2,69.1l72.5-0.3
		l-58.8,42.4L163.5,330z"/>
	
		<path style="fill-rule:evenodd;clip-rule:evenodd;fill:#FFFFFF;stroke:#000000;stroke-width:1.5746;stroke-linecap:round;stroke-linejoin:round;stroke-miterlimit:5.0389;" d="
		M54.2,281.9h42.2c3.4,3.8,11,5.4,18.2,0c13.2-7.2,38.8,0,38.8,0l5-5.3L146,236.3l-4.4-4.7c0,0-9.4-5.7-27.4-3.8
		c-17.9,1.9-24.2-0.6-24.2-0.6s-15.7,1.9-20.1,4.1c-0.5,0.4-5,5-5,5L54.2,281.9z"/>
	
		<path style="fill:none;stroke:#000000;stroke-width:1.5746;stroke-linecap:round;stroke-linejoin:round;stroke-miterlimit:5.0389;" d="
		M62.7,271.6c0,0,40.3-5,51.9,10.4c-6.6,4.5-12.4,4.9-18.6,0.3c1-1.6,14.5-15.7,48.8-11"/>
	<path style="stroke:#000000;stroke-width:1.5746;stroke-linecap:round;stroke-linejoin:round;stroke-miterlimit:5.0389;" d="
		M105.8,231.3l-0.3,44.4 M141.6,231.9l7.6,35.2 M70.3,231.4l-4.2,18.2"/>
	
		<path style="fill-rule:evenodd;clip-rule:evenodd;stroke:#000000;stroke-width:1.5746;stroke-linecap:round;stroke-linejoin:round;stroke-miterlimit:5.0389;" d="
		M26.8,286.8l9.9,11.6c1.2,0.7,2.2,0.7,3.2,0l14.7-17.6l6.2-7.6c1-1.1,1.3-2.4,1.2-3.5l11.8-10.5c1,0.1,1.5,0.2,2.5,0.2
		c-1.1-0.3-2-0.9-1.1-2.1l2.6-2.1l2.1,2.6c0,0-2.9,3.8-3.2,3.8c-0.3,0-3.2,0-3.2,0l-6.2,5.6l2.7,2.4l4.1,11.1l5-3.5l-3.2-11.5
		l7.1-7.6l-2.6-4.1l1.8-2.4c0,0,24.4,15.4,33.8,11.3c0.3,0.1,0.6-11,0.6-11s-25.3-2.6-25.9-7.6c-0.6-5,5.6-5.6,5.6-5.6l-2.6-3.8
		l0.6-2.1l4.4,5.6l10-8.5l58.8,67c3.2-1.3,3.9-2.1,4.1-5.3c-0.1-0.1-57.6-66.1-57.6-66.1l4.4-4.7c0.9-1,1.2-1.4,1.2-2.9l6.8-5.9
		c2,0.7,3.3,1.9,4.4,3.5l18.6-15.7c0.5,0.5,2,1,3,0.4l30.7-29.5l-33.5,23.6l-1.2-0.9c0-1,1.2-1.2,0-2.9c-1.3-1.6-3.2,1.5-3.5,1.5
		c-0.3,0-4.8-1.6-5.8-3.6l-0.3,5.4l-8.5,7.9l-6.5-0.3l-9.4,9.1l-1.2,3.5l1.5,2.9c0,0-5,4.4-5,4.1c0-0.3-1-1.3-1.1-1.4l4.3-3.9
		l0.6-2.6l-1.4-2.2c-0.4,0.3-5.9,6.1-6.2,5.5c-0.5-0.5-15.9-17.9-15.9-17.9l0.9-3.2l-10-10.9c-3.6-1.3-9.4-1.5-10.6,6.5
		c-0.9,1.9-8.5,0.3-8.5,0.3l-4.1,0.9l-23.2,32.9L47,240.5L73.4,207l0.8-9.5l5.5,6.2c1.9,0.2,3.6,0.3,5.3-0.6l15.7,17.5l-2.6,2.5
		c0.9,1,1.5,1.6,2.4,2.6c0.9-0.6,1.7-1.3,2.6-1.9c0.3,0.4,0.8,1.1,1.1,1.5c-1.3,0.7-2.2,1.7-3.5,2.4c-2.1-1.4-4.1-3.1-4-5.8
		l-8.8,7.3l-0.3,1.5l-26.2,21.7l-2.4,0.3l-0.6,6.8l17-14.1v-2.1l1.8,1.5l13.2-10.6c0,0,0.9,1.2,0.6,1.2c-0.3,0-11.8,10.6-11.8,10.6
		l-0.3,1.2L77,249l-1.2-0.9l-15.9,14.1h-2.4l-8.8,8.8c-2.3,0.2-4.2,0.4-6.2,1.8L26.8,286.8z"/>
</g>
</svg>
