<?xml version="1.0" encoding="utf-8"?>
<!-- Generator: Adobe Illustrator 25.2.1, SVG Export Plug-In . SVG Version: 6.00 Build 0)  -->
<svg version="1.1" id="Layer_1" xmlns="http://www.w3.org/2000/svg" xmlns:xlink="http://www.w3.org/1999/xlink" x="0px" y="0px"
	 viewBox="0 0 720 480" style="enable-background:new 0 0 720 480;" xml:space="preserve">
<g>
	<rect style="fill:#0038A8;" width="720" height="480"/>
	<rect style="fill:#FFFFFF;" width="720" height="320"/>
	<rect style="fill:#D52B1E;" width="720" height="160"/>
	<g>
		<g>
			<ellipse style="fill:none;stroke:#000000;stroke-width:1.0759;" cx="360" cy="240" rx="50.6" ry="61.4"/>
			<ellipse style="fill:none;stroke:#000000;stroke-width:0.4782;" cx="360" cy="240" rx="41.6" ry="50.4"/>
			<ellipse style="fill:none;stroke:#000000;stroke-width:0.4382;" cx="360" cy="240" rx="31.9" ry="38.6"/>
		</g>
		<g>
			<path d="M333,263.7l-5.9,4.2l-1.8-3.7c-0.3-0.7-0.5-1.2-0.6-1.7c-0.1-0.4,0-0.8,0.1-1.3s0.4-0.7,0.8-1c0.3-0.2,0.6-0.4,1-0.4
				c0.3,0,0.6,0.1,0.9,0.3c0.2,0.1,0.4,0.3,0.6,0.6c-0.1-0.3-0.1-0.6-0.1-0.7c0-0.1,0.1-0.3,0.1-0.6c0.1-0.3,0.2-0.5,0.2-0.6
				l1.2-2.3l1.2,2.5l-1.2,2.5c-0.2,0.3-0.2,0.6-0.3,0.7c0,0.2,0,0.4,0.1,0.6l0.1,0.2l2.4-1.7L333,263.7z M328.5,264l-0.5-0.9
				c0-0.1-0.2-0.3-0.4-0.5c-0.1-0.1-0.2-0.2-0.4-0.2c-0.1,0-0.3,0-0.4,0.1c-0.2,0.1-0.3,0.3-0.3,0.5c0,0.2,0.1,0.5,0.2,0.9l0.5,1
				L328.5,264z"/>
			<path d="M322.9,258.5l-1.8-6.5l1.4-0.6l1.1,4.1l1-0.4l-1-3.8l1.3-0.5l1,3.8l1.3-0.5l-1.1-4.2l1.5-0.6l1.8,6.6L322.9,258.5z"/>
			<path d="M320.6,248.8l-0.4-4.2c-0.1-0.9,0-1.6,0.3-2.1c0.3-0.5,0.8-0.8,1.5-0.9c0.7-0.1,1.2,0.1,1.7,0.5c0.4,0.4,0.7,1.2,0.8,2.2
				l0.1,1.4l2.5-0.3l0.2,2.6L320.6,248.8z M323.2,245.9l-0.1-0.6c0-0.5-0.1-0.8-0.3-1c-0.2-0.2-0.3-0.3-0.6-0.2
				c-0.2,0-0.4,0.1-0.5,0.3c-0.1,0.2-0.2,0.5-0.1,1l0.1,0.7L323.2,245.9z"/>
			<path d="M320.4,233.3l0.2-2.5l4,0.5c0.4,0.1,0.8,0.2,1.1,0.4c0.3,0.2,0.6,0.5,0.9,0.8c0.2,0.4,0.4,0.7,0.5,1.1
				c0.1,0.5,0.1,1.1,0.1,1.8c0,0.4-0.1,0.8-0.2,1.3c-0.1,0.5-0.2,0.9-0.4,1.2c-0.2,0.3-0.4,0.6-0.7,0.8c-0.3,0.2-0.6,0.4-0.8,0.4
				c-0.4,0.1-0.8,0.1-1.2,0.1l-4-0.5l0.2-2.5l4.1,0.5c0.4,0,0.7,0,0.9-0.3c0.2-0.2,0.4-0.6,0.4-1c0-0.4,0-0.8-0.2-1.1
				c-0.2-0.3-0.5-0.4-0.8-0.5L320.4,233.3z"/>
			<path d="M321.3,227.2l1.3-4.5c0.2-0.8,0.5-1.3,1-1.5c0.4-0.3,0.9-0.3,1.3-0.1c0.4,0.2,0.7,0.4,0.9,0.8c0.1,0.3,0.2,0.6,0.2,1
				c0.3-0.5,0.6-0.8,0.9-1c0.3-0.1,0.7-0.1,1.1,0c0.3,0.1,0.6,0.4,0.8,0.7c0.2,0.3,0.3,0.6,0.4,1c0,0.2,0,0.6-0.1,1
				c-0.1,0.6-0.2,0.9-0.2,1.1l-1.2,4.2L321.3,227.2z M324.5,225.9l0.3-1c0.1-0.4,0.1-0.7,0.1-0.9c-0.1-0.2-0.2-0.3-0.4-0.4
				c-0.2-0.1-0.4-0.1-0.5,0c-0.1,0.1-0.3,0.3-0.4,0.7l-0.3,1.1L324.5,225.9z M327.1,226.9l0.4-1.2c0.1-0.4,0.1-0.7,0.1-1
				s-0.2-0.4-0.4-0.5c-0.2-0.1-0.4-0.1-0.5,0.1s-0.3,0.4-0.4,0.8l-0.4,1.2L327.1,226.9z"/>
			<path d="M324.5,217.3l1.1-2.2l4.4,3.2l1.7-3.4l1.4,1.1l-2.8,5.6L324.5,217.3z"/>
			<path d="M328.6,209.7l1.4-2l5.2,5.3l-1.4,2L328.6,209.7z"/>
			<path d="M337.8,205.4l1.8-0.9c0.2,0.6,0.4,1.1,0.4,1.7s-0.1,1-0.2,1.5c-0.2,0.5-0.5,1-1,1.4c-0.6,0.6-1.1,1-1.6,1.1
				s-1.1,0.1-1.7-0.1c-0.6-0.2-1.2-0.7-1.7-1.5c-0.7-1-1.1-2.1-1-3.1c0.1-1,0.5-2,1.3-2.9c0.7-0.7,1.3-1.1,1.9-1.1s1.2,0.1,1.9,0.6
				l-1.1,1.9c-0.2-0.1-0.3-0.2-0.5-0.3c-0.2-0.1-0.4-0.1-0.6,0c-0.2,0.1-0.4,0.2-0.5,0.3c-0.4,0.4-0.5,0.8-0.5,1.4
				c0,0.4,0.3,0.9,0.7,1.5c0.5,0.7,0.9,1.1,1.3,1.2c0.4,0.1,0.7,0,1-0.4c0.3-0.3,0.5-0.7,0.5-1C338.1,206.3,338,205.9,337.8,205.4
				L337.8,205.4z"/>
			<path d="M345.1,202.2l-2.1,1.4l0.2,1.4l-1.9,1.2l-0.9-8.8l2-1.3l5.5,5.8l-1.9,1.3L345.1,202.2z M344,200.9l-1.8-2.2l0.5,3.1
				L344,200.9z"/>
			<path d="M350.5,192.4l3.1-0.6c0.6-0.1,1.1-0.1,1.5,0c0.4,0.1,0.8,0.3,1.1,0.7c0.3,0.3,0.5,0.7,0.7,1.2c0.2,0.5,0.3,1,0.4,1.5
				c0.1,0.9,0.1,1.6,0,2.1c-0.1,0.5-0.3,1-0.5,1.3s-0.5,0.7-0.8,0.8c-0.4,0.2-0.8,0.4-1.2,0.5l-3.1,0.6L350.5,192.4z M352.8,193.8
				l0.6,4.5l0.5-0.1c0.4-0.1,0.7-0.2,0.9-0.4c0.2-0.2,0.3-0.4,0.3-0.7c0.1-0.3,0-0.8,0-1.4c-0.1-0.9-0.3-1.4-0.6-1.7
				c-0.3-0.3-0.7-0.3-1.2-0.2L352.8,193.8z"/>
			<path d="M359.2,191l5.6,0.3l-0.1,1.8l-3.5-0.2l0,1.3l3.3,0.2l-0.1,1.7l-3.3-0.2l-0.1,1.6l3.6,0.2l-0.1,1.9l-5.8-0.3L359.2,191z"
				/>
			<path d="M367.5,191.8l2,0.6l-1.2,6.1l3.2,0.9l-0.4,2l-5.2-1.6L367.5,191.8z"/>
			<path d="M378.4,196.2l3,2.2c0.7,0.5,1.1,1,1.2,1.6c0.1,0.6,0,1.3-0.3,2c-0.4,0.7-0.8,1.2-1.4,1.3c-0.6,0.1-1.2,0-1.9-0.6l-1-0.7
				l-1.3,2.6l-1.8-1.3L378.4,196.2z M378.8,200.5l0.4,0.3c0.4,0.3,0.6,0.4,0.8,0.3c0.2,0,0.4-0.2,0.5-0.4c0.1-0.2,0.1-0.5,0.1-0.7
				c0-0.2-0.2-0.5-0.6-0.7l-0.5-0.4L378.8,200.5z"/>
			<path d="M384.7,210.2l-1.8-2l-1,0.7l-1.6-1.8l6.5-3.9l1.7,1.9l-2.8,8.2l-1.6-1.8L384.7,210.2z M385.4,208.5l1.1-2.8l-2.2,1.6
				L385.4,208.5z"/>
			<path d="M386.2,214l5.6-4.7l2,3.5c0.4,0.7,0.6,1.2,0.7,1.6c0.1,0.4,0.1,0.8,0,1.3c-0.1,0.4-0.4,0.8-0.7,1.1
				c-0.3,0.3-0.6,0.4-0.9,0.4c-0.3,0-0.6,0-0.9-0.2c-0.2-0.1-0.4-0.3-0.6-0.6c0.1,0.3,0.1,0.5,0.1,0.7c0,0.1,0,0.3-0.1,0.6
				c-0.1,0.3-0.1,0.5-0.2,0.6l-1.1,2.4l-1.3-2.4l1.1-2.6c0.1-0.3,0.2-0.6,0.2-0.7c0-0.2-0.1-0.4-0.2-0.6l-0.1-0.2l-2.3,1.9
				L386.2,214z M390.7,213.4l0.5,0.9c0.1,0.1,0.2,0.3,0.4,0.5c0.1,0.1,0.2,0.2,0.4,0.2c0.1,0,0.3,0,0.4-0.1c0.2-0.2,0.3-0.3,0.3-0.6
				c0-0.2-0.1-0.5-0.3-0.9l-0.5-0.9L390.7,213.4z"/>
			<path d="M392.8,225.7l-0.9-2.7l-1.2,0.1l-0.8-2.4l7.3-0.2l0.9,2.6l-5.4,6l-0.8-2.5L392.8,225.7z M394,224.6l2-2l-2.6,0.3
				L394,224.6z"/>
			<path d="M395.8,233.6l1.4-0.3l0.5,3.9l-2.9,0.5c-0.5-0.7-0.9-1.3-1.1-1.8c-0.2-0.5-0.4-1.2-0.5-2c-0.1-1-0.1-1.8,0.1-2.5
				c0.2-0.7,0.5-1.2,1-1.6c0.5-0.4,1.1-0.7,1.8-0.8c0.7-0.1,1.4-0.1,2,0.2c0.6,0.3,1.1,0.7,1.4,1.4c0.3,0.5,0.5,1.2,0.6,2.2
				c0.1,0.9,0.1,1.6,0,2.1c-0.1,0.5-0.2,0.9-0.5,1.2c-0.2,0.3-0.6,0.6-1,0.9l-0.7-2.4c0.2-0.1,0.4-0.4,0.5-0.6
				c0.1-0.3,0.1-0.6,0.1-1c-0.1-0.6-0.3-1-0.6-1.2c-0.4-0.3-0.9-0.3-1.6-0.2c-0.7,0.1-1.2,0.4-1.5,0.8c-0.3,0.4-0.4,0.9-0.3,1.5
				c0,0.3,0.1,0.5,0.2,0.8c0.1,0.2,0.3,0.5,0.5,0.8l0.6-0.1L395.8,233.6z"/>
			<path d="M400.3,245.6l-0.2,2.5l-4.1-0.4c-0.4,0-0.8-0.2-1.1-0.4c-0.3-0.2-0.6-0.5-0.9-0.8c-0.2-0.4-0.4-0.7-0.5-1.1
				c-0.1-0.5-0.1-1.1-0.1-1.8c0-0.4,0.1-0.8,0.2-1.3c0.1-0.5,0.2-0.9,0.4-1.2c0.2-0.3,0.4-0.6,0.7-0.8c0.3-0.2,0.5-0.4,0.8-0.5
				c0.4-0.1,0.8-0.1,1.2-0.1l4.1,0.4l-0.2,2.5l-4.2-0.4c-0.4,0-0.7,0.1-0.9,0.3c-0.2,0.2-0.4,0.6-0.4,1c0,0.4,0,0.8,0.2,1.1
				c0.2,0.3,0.5,0.4,0.8,0.5L400.3,245.6z"/>
			<path d="M392.7,254.4l0.8-2.8l-1-0.8l0.7-2.5l5.7,5.5l-0.7,2.6l-7.3,0.4l0.7-2.5L392.7,254.4z M394.3,254.4l2.6,0.1l-2.1-1.8
				L394.3,254.4z"/>
			<path d="M396.7,261.2l-1.2,2.4l-2.7,0l1.3,2.9l-1.2,2.4l-2-5.2l-2.5-1.8l1.1-2.2l2.5,1.8L396.7,261.2z"/>
		</g>
		<g>
			<path style="fill:#009B3A;stroke:#000000;stroke-width:0.1;" d="M366.7,211.3c0,0,19.3,10.1,15.9,30.8
				c-3.4,20.8-14.1,20.6-18.3,22.9c-4.2,2.3-7.1,5.6-8.8,5.1c-1.7-0.5-3.9-2-3.9-2s-0.2,3.4,3.2,4c3.4,0.6,7.8-5.4,9.9-6.1
				c2.1-0.7,15.2-2.4,18.4-23.5C387,220.1,366.8,212,366.7,211.3L366.7,211.3z"/>
			<path style="fill:#009B3A;stroke:#000000;stroke-width:0.1;" d="M376.4,215.8c0.4,1.7,0.4,3.1,0,3.1c-0.3,0-0.9-1.3-1.3-3
				c-0.4-1.7-0.4-3.1,0-3.2C375.5,212.7,376,214,376.4,215.8C376.4,215.7,376.4,215.8,376.4,215.8z"/>
			<path style="fill:#009B3A;stroke:#000000;stroke-width:0.1;" d="M375.8,216c0.7,1.6,1,3.1,0.6,3.2c-0.3,0.1-1.1-1.1-1.8-2.7
				c0,0,0,0,0,0c-0.7-1.6-0.9-3.1-0.6-3.2C374.3,213.2,375.1,214.4,375.8,216z"/>
			<path style="fill:#009B3A;stroke:#000000;stroke-width:0.1;" d="M373.8,217.5c1.4,0.5,2.4,1.2,2.4,1.7c0,0.4-1.2,0.4-2.5-0.1
				c-1.4-0.5-2.4-1.2-2.4-1.7C371.4,217,372.5,217.1,373.8,217.5z"/>
			<path style="fill:#009B3A;stroke:#000000;stroke-width:0.1;" d="M374.1,216.7c1.2,1,2.1,2.1,2,2.5c-0.1,0.4-1.3-0.1-2.5-1.2
				c0,0,0,0,0,0c-1.2-1-2.1-2.1-2-2.5C371.7,215.1,372.9,215.6,374.1,216.7C374.1,216.7,374.1,216.7,374.1,216.7z"/>
			<path style="fill:#009B3A;stroke:#000000;stroke-width:0.1;" d="M374.9,216.3c1.1,1.3,1.7,2.6,1.5,2.9c-0.2,0.3-1.3-0.6-2.3-1.9
				c0,0,0,0,0,0c-1.1-1.3-1.7-2.6-1.5-2.9C372.8,214.1,373.9,214.9,374.9,216.3z"/>
			<path style="fill:#009B3A;stroke:#000000;stroke-width:0.1;" d="M376.3,219.2c0,0-0.7,0.5-0.9,0.6c-0.2,0.1-0.4-0.3-0.9,0
				c-0.5,0.3-0.8,0.9-0.9,1.2c-0.1,0.3,0.1,0.5,0.7,0.1c0.6-0.3,0.7-0.9,1-1.1c0.3-0.2,0.8-0.5,1-0.7c0.1-0.3,0.5-1,0.7-1.4
				c0.2-0.4,1-1,1.3-1.8c0.2-0.6,0.2-1.1-0.2-0.9c-0.3,0.2-0.8,0.8-1,1.3c-0.2,0.4,0,1-0.2,1.4C376.7,218.3,376.3,219.2,376.3,219.2
				L376.3,219.2z"/>
			<path style="fill:#009B3A;stroke:#000000;stroke-width:0.1;" d="M382.2,221.6c0,2.7-0.3,4.7-0.8,4.5c-0.5-0.1-0.9-2.4-1-5.1
				c0-2.7,0.3-4.7,0.8-4.5C381.8,216.7,382.2,218.9,382.2,221.6L382.2,221.6z"/>
			<path style="fill:#009B3A;stroke:#000000;stroke-width:0.1;" d="M381.2,221.5c0.5,2.7,0.5,4.9,0,5c-0.5,0-1.3-2.1-1.7-4.8
				c0,0,0,0,0,0c-0.5-2.7-0.5-4.9,0-5S380.8,218.8,381.2,221.5C381.2,221.5,381.2,221.5,381.2,221.5z"/>
			<path style="fill:#009B3A;stroke:#000000;stroke-width:0.1;" d="M378.2,222.7c1.8,1.4,3.1,3.1,2.9,3.7c-0.2,0.6-1.7,0-3.5-1.5
				c0,0,0,0,0,0c-1.8-1.4-3.1-3.1-2.9-3.7C374.8,220.6,376.3,221.2,378.2,222.7C378.1,222.7,378.1,222.7,378.2,222.7z"/>
			<path style="fill:#009B3A;stroke:#000000;stroke-width:0.1;" d="M378.8,221.6c1.4,2.1,2.4,4.2,2,4.6c-0.3,0.4-1.7-0.9-3.2-3
				c-1.4-2.1-2.4-4.2-2.1-4.7C375.9,218.1,377.3,219.5,378.8,221.6C378.8,221.6,378.8,221.6,378.8,221.6z"/>
			<path style="fill:#009B3A;stroke:#000000;stroke-width:0.1;" d="M380,221.5c1.1,2.5,1.7,4.7,1.3,5c-0.4,0.3-1.6-1.5-2.7-4
				c0,0,0,0,0,0c-1.1-2.5-1.7-4.7-1.3-5C377.7,217.2,378.9,219,380,221.5C380,221.5,380,221.5,380,221.5z"/>
			<path style="fill:#009B3A;stroke:#000000;stroke-width:0.1;" d="M381.1,226.4c0,0-1.2,0.3-1.4,0.3c-0.3,0-0.5-0.6-1.2-0.4
				c-0.8,0.2-1.4,0.8-1.6,1.2c-0.2,0.4,0.1,0.7,1,0.6c0.9-0.2,1.3-0.9,1.7-1s1.2-0.4,1.6-0.4c0.2-0.4,1-1.1,1.3-1.6
				c0.4-0.4,1.6-0.9,2.2-1.8c0.5-0.7,0.5-1.5,0-1.4c-0.5,0.1-1.3,0.8-1.7,1.3c-0.4,0.5-0.3,1.4-0.7,1.9
				C382,225.4,381.1,226.5,381.1,226.4L381.1,226.4z"/>
			<path style="fill:#009B3A;stroke:#000000;stroke-width:0.1;" d="M385.4,231.3c-0.4,2.6-1,4.5-1.5,4.3c-0.5-0.3-0.5-2.6-0.2-5.2
				l0,0c0.4-2.6,1-4.5,1.5-4.3C385.7,226.3,385.7,228.6,385.4,231.3z"/>
			<path style="fill:#009B3A;stroke:#000000;stroke-width:0.1;" d="M384.4,231c0.1,2.8-0.3,5-0.7,4.9c-0.5-0.1-0.9-2.4-1-5.2
				c0,0,0,0,0-0.1c-0.1-2.8,0.3-5,0.7-4.9S384.4,228.1,384.4,231C384.4,230.9,384.4,231,384.4,231z"/>
			<path style="fill:#009B3A;stroke:#000000;stroke-width:0.1;" d="M381.2,231.4c1.5,1.8,2.5,3.8,2.3,4.3c-0.3,0.6-1.7-0.5-3.2-2.3
				l0,0c-1.5-1.8-2.5-3.8-2.3-4.3C378.3,228.6,379.7,229.6,381.2,231.4z"/>
			<path style="fill:#009B3A;stroke:#000000;stroke-width:0.1;" d="M382,230.5c1.1,2.4,1.7,4.7,1.3,5.1c-0.4,0.4-1.6-1.3-2.7-3.7
				c-1.1-2.4-1.7-4.7-1.3-5.1C379.7,226.4,380.9,228.1,382,230.5C382,230.5,382,230.5,382,230.5z"/>
			<path style="fill:#009B3A;stroke:#000000;stroke-width:0.1;" d="M383.2,230.7c0.7,2.7,0.9,5.1,0.5,5.3c-0.4,0.2-1.3-1.8-2.1-4.5
				c0,0,0-0.1,0-0.1c-0.7-2.7-0.9-5.1-0.5-5.3C381.6,225.9,382.5,227.9,383.2,230.7C383.2,230.6,383.2,230.6,383.2,230.7z"/>
			<path style="fill:#009B3A;stroke:#000000;stroke-width:0.1;" d="M383.5,235.8c0,0-1.2,0-1.4,0c-0.3,0-0.4-0.7-1.2-0.7
				c-0.8,0-1.5,0.5-1.8,0.8c-0.3,0.3,0,0.7,0.9,0.8c0.9,0,1.4-0.6,1.9-0.6c0.5,0,1.2-0.1,1.6,0c0.3-0.3,1.1-0.9,1.5-1.2
				s1.7-0.5,2.5-1.3c0.6-0.6,0.7-1.4,0.2-1.4c-0.5,0-1.4,0.5-1.8,0.9s-0.5,1.3-1,1.7C384.6,234.9,383.6,235.8,383.5,235.8"/>
			<path style="fill:#009B3A;stroke:#000000;stroke-width:0.1;" d="M385.6,242.1c-1.2,2.3-2.4,3.7-2.7,3.2c-0.3-0.5,0.3-2.7,1.5-4.9
				l0,0c1.2-2.3,2.4-3.7,2.7-3.2C387.5,237.6,386.8,239.8,385.6,242.1"/>
			<path style="fill:#009B3A;stroke:#000000;stroke-width:0.1;" d="M384.8,241.3c-0.8,2.6-1.8,4.5-2.2,4.2c-0.4-0.3-0.1-2.7,0.8-5.3
				l0,0c0.8-2.6,1.8-4.5,2.2-4.2C386,236.3,385.7,238.7,384.8,241.3"/>
			<path style="fill:#009B3A;stroke:#000000;stroke-width:0.1;" d="M381.8,240.1c0.8,2.4,1.1,4.8,0.7,5.1c-0.4,0.4-1.4-1.3-2.1-3.7
				l0,0c-0.8-2.4-1.1-4.8-0.7-5.1C380.1,236,381,237.7,381.8,240.1"/>
			<path style="fill:#009B3A;stroke:#000000;stroke-width:0.1;" d="M382.8,239.7c0.2,2.8,0,5.2-0.4,5.3c-0.5,0.1-1-2-1.2-4.8
				c-0.2-2.8,0-5.2,0.4-5.4C382,234.7,382.6,236.8,382.8,239.7C382.8,239.6,382.8,239.7,382.8,239.7"/>
			<path style="fill:#009B3A;stroke:#000000;stroke-width:0.1;" d="M383.9,240.4c-0.2,2.9-0.8,5.1-1.2,5.1s-0.6-2.4-0.4-5.3l0,0
				c0.2-2.9,0.8-5.1,1.2-5.1C383.9,235.2,384.1,237.6,383.9,240.4L383.9,240.4"/>
			<path style="fill:#009B3A;stroke:#000000;stroke-width:0.1;" d="M382.5,245.3c0,0-1.1-0.6-1.3-0.7c-0.2-0.2-0.1-0.9-0.8-1.3
				c-0.7-0.4-1.5-0.3-1.9-0.1c-0.4,0.2-0.3,0.7,0.5,1.2c0.8,0.5,1.4,0.2,1.9,0.4c0.4,0.2,1.1,0.6,1.5,0.8c0.4-0.1,1.3-0.3,1.8-0.4
				c0.5-0.1,1.7,0.4,2.6,0c0.7-0.3,1.1-0.9,0.6-1.2c-0.5-0.3-1.4-0.2-1.9-0.1c-0.6,0.2-0.9,1-1.4,1.1
				C383.7,245.1,382.5,245.4,382.5,245.3"/>
			<path style="fill:#009B3A;stroke:#000000;stroke-width:0.1;" d="M383.2,253c-1.9,2-3.6,3-3.9,2.4c-0.2-0.7,1.1-2.8,3-4.8
				c1.9-2,3.6-3,3.9-2.4C386.4,248.9,385.1,251,383.2,253L383.2,253"/>
			<path style="fill:#009B3A;stroke:#000000;stroke-width:0.1;" d="M382.5,251.9c-1.6,2.5-3.2,4.1-3.6,3.6c-0.4-0.5,0.7-3,2.3-5.5
				c1.6-2.5,3.2-4.1,3.6-3.6C385.2,246.9,384.2,249.4,382.5,251.9L382.5,251.9"/>
			<path style="fill:#009B3A;stroke:#000000;stroke-width:0.1;" d="M379.5,249.2c0.2,3-0.1,5.7-0.7,6c-0.6,0.3-1.2-2-1.4-5
				c0,0,0,0,0,0c-0.2-3,0.1-5.7,0.7-6C378.7,243.9,379.4,246.1,379.5,249.2C379.5,249.2,379.5,249.2,379.5,249.2"/>
			<path style="fill:#009B3A;stroke:#000000;stroke-width:0.1;" d="M380.7,249.1c-0.5,3.2-1.4,5.7-1.9,5.7c-0.5,0-0.5-2.6,0-5.8
				c0.5-3.2,1.4-5.8,1.9-5.7C381.3,243.3,381.3,246,380.7,249.1"/>
			<path style="fill:#009B3A;stroke:#000000;stroke-width:0.1;" d="M381.7,250.4c-1,3.1-2.3,5.4-2.7,5.1c-0.5-0.2-0.1-2.9,1-6
				c0,0,0,0,0,0c1-3.1,2.3-5.4,2.7-5.1C383.2,244.7,382.8,247.3,381.7,250.4C381.7,250.4,381.7,250.4,381.7,250.4"/>
			<path style="fill:#009B3A;stroke:#000000;stroke-width:0.1;" d="M378.9,255.3c0,0-1.1-1.1-1.2-1.4s0.1-1-0.6-1.7
				c-0.7-0.7-1.5-1-2-1c-0.5,0-0.5,0.6,0.3,1.5c0.8,0.9,1.5,0.8,2,1.2c0.4,0.4,1.1,1.1,1.4,1.6c0.5,0,1.5,0.3,2.1,0.4
				c0.6,0.1,1.8,1.2,2.9,1.2c0.9,0,1.5-0.5,1-1c-0.5-0.5-1.5-0.9-2.1-0.9c-0.7-0.1-1.3,0.7-1.9,0.6
				C380.3,255.5,378.9,255.3,378.9,255.3"/>
			<path style="fill:#009B3A;stroke:#000000;stroke-width:0.1;" d="M377,262.6c-2.7,0.5-4.9,0.3-4.8-0.5c0-0.8,2.3-1.9,5-2.4
				c0,0,0,0,0.1,0c2.7-0.5,4.9-0.3,4.8,0.5C382,260.9,379.8,262,377,262.6C377,262.6,377,262.6,377,262.6"/>
			<path style="fill:#009B3A;stroke:#000000;stroke-width:0.1;" d="M376.9,261c-2.7,1.3-5,1.7-5.1,0.9c-0.1-0.7,2-2.4,4.7-3.6
				c2.7-1.3,5-1.7,5.1-0.9C381.7,258.2,379.6,259.8,376.9,261C376.9,261,376.9,261,376.9,261"/>
			<path style="fill:#009B3A;stroke:#000000;stroke-width:0.1;" d="M375.2,256.4c-1.2,3-2.7,5.4-3.3,5.2c-0.7-0.1-0.2-2.7,1-5.8l0,0
				c1.2-3,2.7-5.4,3.3-5.2C376.8,250.8,376.4,253.4,375.2,256.4"/>
			<path style="fill:#009B3A;stroke:#000000;stroke-width:0.1;" d="M376.4,257.2c-1.9,2.7-3.9,4.5-4.4,4.1c-0.5-0.4,0.7-2.9,2.6-5.6
				c1.9-2.7,3.9-4.5,4.4-4.1C379.5,252,378.3,254.5,376.4,257.2L376.4,257.2"/>
			<path style="fill:#009B3A;stroke:#000000;stroke-width:0.1;" d="M376.7,259.1c-2.4,2.2-4.6,3.5-4.9,2.9s1.3-2.8,3.6-5
				c0,0,0,0,0,0c2.4-2.2,4.6-3.5,4.9-2.9C380.7,254.7,379.1,256.9,376.7,259.1"/>
			<path style="fill:#009B3A;stroke:#000000;stroke-width:0.1;" d="M371.8,261.7c0,0-0.5-1.8-0.6-2.2s0.6-0.9,0.2-2
				c-0.3-1.2-1-2-1.5-2.3c-0.5-0.3-0.8,0.2-0.4,1.6c0.3,1.4,1.1,1.9,1.4,2.5c0.2,0.7,0.6,1.8,0.7,2.5c0.4,0.3,1.3,1.3,1.8,1.8
				c0.5,0.5,1.2,2.4,2.3,3.2c0.8,0.7,1.7,0.5,1.4-0.3c-0.2-0.8-1-1.9-1.6-2.4s-1.5-0.2-2.1-0.8C373.1,262.9,371.8,261.8,371.8,261.7
				"/>
			<path style="fill:#009B3A;stroke:#000000;stroke-width:0.1;" d="M368.9,268c-2.8,0-5-0.7-5-1.7c0-1,2.3-1.8,5-1.8
				c2.8,0,5,0.7,5,1.7C373.9,267.1,371.6,267.9,368.9,268"/>
			<path style="fill:#009B3A;stroke:#000000;stroke-width:0.1;" d="M368.2,262.5c-1.8,2.8-3.7,4.5-4.3,3.9c-0.6-0.6,0.4-3.3,2.1-6.1
				l0,0c1.8-2.8,3.7-4.5,4.3-3.9C370.9,257,370,259.7,368.2,262.5"/>
			<path style="fill:#009B3A;stroke:#000000;stroke-width:0.1;" d="M368.9,265.3c-2.6,1.4-4.9,1.7-5.2,0.8c-0.3-0.9,1.6-2.7,4.2-4.1
				s4.9-1.7,5.2-0.8C373.4,262.1,371.5,263.9,368.9,265.3L368.9,265.3"/>
			<path style="fill:#009B3A;stroke:#000000;stroke-width:0.1;" d="M370.3,211.9c1.3,1.4,2.1,2.7,1.7,2.9c-0.3,0.2-1.6-0.7-2.9-2.1
				c-1.3-1.4-2.1-2.7-1.7-2.9S369,210.5,370.3,211.9C370.3,211.9,370.3,211.9,370.3,211.9"/>
			<path style="fill:#009B3A;stroke:#000000;stroke-width:0.1;" d="M368.7,213.5c1.7,0.3,3.2,0.9,3.3,1.3c0.1,0.4-1.3,0.6-3,0.3
				c-1.7-0.3-3.2-0.9-3.3-1.3C365.7,213.3,367,213.2,368.7,213.5L368.7,213.5"/>
			<path style="fill:#009B3A;stroke:#000000;stroke-width:0.1;" d="M369.4,212.5c1.6,1,2.8,2.1,2.7,2.5c-0.2,0.3-1.6-0.2-3.3-1.2
				l0,0c-1.6-1-2.8-2.1-2.7-2.5C366.3,210.9,367.7,211.4,369.4,212.5"/>
			<path style="fill:#009B3A;stroke:#000000;stroke-width:0.1;" d="M346.5,262c0,0,4.2,1.1,7.9,2.7c3.7,1.6,9.3,7.2,10.8,7.5
				c1.7,0.1,4-0.6,4.9-3.6c-2.6,0.8-4.2,2.1-6.6,0.5c-0.9-0.4-3.8-3.6-6.9-5.3c-3.2-1.7-9.5-3.6-9.5-3.6L346.5,262"/>
			<path style="fill:#009B3A;stroke:#000000;stroke-width:0.1;" d="M351.1,215.5c0,0,4.9-3.1,4.9-3.1l-5.4,1.7l-0.6,1.1L351.1,215.5
				"/>
			<path style="fill:#009B3A;stroke:#000000;stroke-width:0.1;" d="M355.7,216.9c-1.9-0.4-4.8-1.2-6.7-1.4c1.3-1.7,3-4.6,4.1-6.4
				c-0.7,1.7-1.8,3.9-2.3,5.6C352.2,215.6,354.2,216.3,355.7,216.9"/>
			<path style="fill:#009B3A;stroke:#000000;stroke-width:0.1;" d="M350.2,215.9c0,0,4.3-4.1,4.3-4.1l-5,2.7l-0.4,1.3L350.2,215.9"
				/>
			<path style="fill:#009B3A;stroke:#000000;stroke-width:0.1;" d="M354.8,216.9c-1.9-0.4-4.8-1.2-6.7-1.4c1.3-1.8,3-4.8,4-6.6
				c-0.7,1.8-1.8,4.1-2.2,5.7C351.3,215.5,353.4,216.2,354.8,216.9"/>
			<path style="fill:#009B3A;stroke:#000000;stroke-width:0.1;" d="M349.5,216.2c0,0,5.1-2.6,5.1-2.6l-5.5,1.1l-0.7,1.1L349.5,216.2
				"/>
			<path style="fill:#009B3A;stroke:#000000;stroke-width:0.1;" d="M354.3,216.9c-1.9-0.2-4.9-0.6-6.8-0.6c1.1-2,2.5-5.2,3.4-7.2
				c-0.5,1.9-1.4,4.4-1.6,6.1C350.6,216,352.7,216.4,354.3,216.9"/>
			<path style="fill:#009B3A;stroke:#000000;stroke-width:0.1;" d="M348.9,216.2c0,0,3.5-5.1,3.5-5.1l-4.4,4l-0.2,1.4L348.9,216.2"
				/>
			<path style="fill:#009B3A;stroke:#000000;stroke-width:0.1;" d="M354.2,217.3c-2.1,0-5.3-0.3-7.2-0.1c1-2.2,2.2-5.9,3-8.2
				c-0.4,2.1-1.1,4.9-1.2,6.8C350.3,216.5,352.6,216.8,354.2,217.3"/>
			<path style="fill:#009B3A;stroke:#000000;stroke-width:0.1;" d="M348.3,217.4c0,0,4.2-4.9,4.2-4.9l-5.1,3.4l-0.3,1.5L348.3,217.4
				"/>
			<path style="fill:#009B3A;stroke:#000000;stroke-width:0.1;" d="M353.3,217.4c-2.2,0-5.6-0.1-7.8,0.2c1.4-2.5,3.4-6.6,4.6-9.1
				c-0.8,2.3-2,5.4-2.5,7.6C349.2,216.7,351.6,217,353.3,217.4"/>
			<path style="fill:#009B3A;stroke:#000000;stroke-width:0.1;" d="M346.8,217.8c0,0,5.4-5.5,5.4-5.5l-6.1,3.9l-0.6,1.6L346.8,217.8
				"/>
			<path style="fill:#009B3A;stroke:#000000;stroke-width:0.1;" d="M352.5,217.6c-2.2,0.4-5.6,0.8-7.7,1.5c1.1-2.7,2.6-7,3.5-9.7
				c-0.5,2.4-1.4,5.6-1.6,7.8C348.3,217.6,350.7,217.5,352.5,217.6"/>
			<path style="fill:#009B3A;stroke:#000000;stroke-width:0.1;" d="M346.1,218.9c0,0,4.1-6.9,4.1-6.9l-5.2,5.7l-0.3,1.7L346.1,218.9
				"/>
			<path style="fill:#009B3A;stroke:#000000;stroke-width:0.1;" d="M351.3,218.4c-2.2,0.2-5.6,0.5-7.8,1c1.3-2.6,2.9-6.8,3.9-9.4
				c-0.6,2.4-1.6,5.5-1.9,7.7C347.1,218.2,349.5,218.2,351.3,218.4"/>
			<path style="fill:#009B3A;stroke:#000000;stroke-width:0.1;" d="M345.4,219.6c0,0,5.3-5.5,5.3-5.5l-6,3.9l-0.6,1.6L345.4,219.6"
				/>
			<path style="fill:#009B3A;stroke:#000000;stroke-width:0.1;" d="M350.6,218.7c-2.2,0.6-5.6,1.3-7.7,2.1c1-2.7,2.3-7.1,3.1-9.8
				c-0.4,2.4-1.1,5.7-1.3,7.8C346.4,219.1,348.9,218.7,350.6,218.7"/>
			<path style="fill:#009B3A;stroke:#000000;stroke-width:0.1;" d="M344.5,219.9c0,0,3.4-7.6,3.4-7.6l-4.6,6.5l-0.1,1.7L344.5,219.9
				"/>
			<path style="fill:#009B3A;stroke:#000000;stroke-width:0.1;" d="M350.6,219.1c-2.4,0.7-6.1,1.7-8.3,2.8c0.9-3.1,1.8-8.1,2.4-11.1
				c-0.2,2.7-0.7,6.4-0.6,8.8C346,219.8,348.7,219.2,350.6,219.1"/>
			<path style="fill:#009B3A;stroke:#000000;stroke-width:0.1;" d="M343.8,221.7c0,0,4.2-7.6,4.2-7.6l-5.4,6.1l-0.2,1.9L343.8,221.7
				"/>
			<path style="fill:#009B3A;stroke:#000000;stroke-width:0.1;" d="M349.7,220c-2.3,0.9-6,2.1-8.1,3.3c0.7-3.1,1.5-8.1,2-11.2
				c-0.1,2.7-0.4,6.3-0.3,8.7C345.2,220.9,347.8,220.2,349.7,220"/>
			<path style="fill:#009B3A;stroke:#000000;stroke-width:0.1;" d="M343,222.8c0,0,3.2-8.4,3.2-8.4l-4.6,7.2l0,1.9L343,222.8"/>
			<path style="fill:#009B3A;stroke:#000000;stroke-width:0.1;" d="M348.8,221.1c-2.4,0.7-6.1,1.5-8.3,2.4c1-3,2.1-7.9,2.8-10.9
				c-0.3,2.7-0.9,6.3-0.9,8.7C344.2,221.6,346.9,221.2,348.8,221.1"/>
			<path style="fill:#009B3A;stroke:#000000;stroke-width:0.1;" d="M342.2,223.6c0-0.1,5.3-6.6,5.3-6.6l-6.2,4.9l-0.5,1.8
				L342.2,223.6"/>
			<path style="fill:#009B3A;stroke:#000000;stroke-width:0.1;" d="M347.8,222.3c-2.4,0.4-6,0.8-8.3,1.5c1.1-3,2.5-7.8,3.3-10.8
				c-0.4,2.7-1.2,6.3-1.3,8.7C343.2,222.2,345.9,222.1,347.8,222.3"/>
			<path style="fill:#009B3A;stroke:#000000;stroke-width:0.1;" d="M341.2,222.9c0,0,3.6-8.2,3.6-8.2l-4.9,6.9l-0.1,2L341.2,222.9"
				/>
			<path style="fill:#009B3A;stroke:#000000;stroke-width:0.1;" d="M348,221.3c-2.6,1.3-6.6,3-9,4.6c0.8-3.7,1.6-9.5,2.1-13.1
				c-0.1,3.1-0.4,7.4-0.2,10.1C343,222.9,345.9,221.8,348,221.3"/>
			<path style="fill:#009B3A;stroke:#000000;stroke-width:0.1;" d="M340.7,225.4c0,0,4.3-9.4,4.3-9.4l-5.7,8l-0.2,2.2L340.7,225.4"
				/>
			<path style="fill:#009B3A;stroke:#000000;stroke-width:0.1;" d="M347.1,222.5c-2.5,1.4-6.4,3.5-8.8,5.2c0.7-3.7,1.3-9.5,1.6-13.1
				c0,3.1-0.2,7.3,0.1,10C342.1,224.3,344.9,223.1,347.1,222.5"/>
			<path style="fill:#009B3A;stroke:#000000;stroke-width:0.1;" d="M339.8,226.8c0,0,3.1-10.1,3.1-10.1l-4.7,9.1l0.1,2.2
				L339.8,226.8"/>
			<path style="fill:#009B3A;stroke:#000000;stroke-width:0.1;" d="M346,223.3c-2.5,1.5-6.4,3.5-8.8,5.3c0.6-3.7,1.2-9.5,1.6-13.1
				c0,3.1-0.1,7.3,0.2,10C341,225.2,343.8,224,346,223.3"/>
			<path style="fill:#009B3A;stroke:#000000;stroke-width:0.1;" d="M339.1,228c0,0,4.8-8.9,4.8-8.9l-6.1,7.3l-0.3,2.2L339.1,228"/>
			<path style="fill:#009B3A;stroke:#000000;stroke-width:0.1;" d="M345.7,222.9c-2.2,2.2-5.8,5.3-7.8,7.7c0-3.7-0.4-9.5-0.7-13
				c0.6,2.9,1.1,7,1.9,9.5C341.1,226.2,343.7,224.1,345.7,222.9"/>
			<path style="fill:#009B3A;stroke:#000000;stroke-width:0.1;" d="M339.3,228.5c-0.1,0,0.6-10.7,0.6-10.7l-2.3,10.4l0.7,2
				L339.3,228.5"/>
			<path style="fill:#009B3A;stroke:#000000;stroke-width:0.1;" d="M345.1,223.8c-2.2,2.2-5.8,5.3-7.8,7.7c0-3.7-0.4-9.5-0.6-13
				c0.6,2.9,1.1,7,1.9,9.5C340.5,227.2,343.1,225.1,345.1,223.8"/>
			<path style="fill:#009B3A;stroke:#000000;stroke-width:0.1;" d="M338.8,230.3c0,0,2.3-10.5,2.3-10.5l-3.9,9.6l0.3,2.1
				L338.8,230.3"/>
			<path style="fill:#009B3A;stroke:#000000;stroke-width:0.1;" d="M344.8,224.1c-2.1,2.5-5.5,6.3-7.4,9c-0.3-3.8-1.3-9.7-1.8-13.3
				c0.8,2.9,1.8,7.1,2.8,9.5C340.4,228.2,342.9,225.7,344.8,224.1"/>
			<path style="fill:#009B3A;stroke:#000000;stroke-width:0.1;" d="M338.8,231.6c-0.1,0,0.4-11.1,0.4-11.1l-2.3,10.8l0.7,2
				L338.8,231.6"/>
			<path style="fill:#009B3A;stroke:#000000;stroke-width:0.1;" d="M344.2,225.9c-2.3,2.3-5.9,5.6-7.9,8.1
				c-0.1-3.9-0.6-9.8-0.9-13.5c0.6,3,1.3,7.3,2.1,9.9C339.5,229.5,342.1,227.3,344.2,225.9"/>
			<path style="fill:#009B3A;stroke:#000000;stroke-width:0.1;" d="M338.1,232.9c0,0,3.2-10.5,3.2-10.5l-4.8,9.3l0.1,2.3
				L338.1,232.9"/>
			<path style="fill:#009B3A;stroke:#000000;stroke-width:0.1;" d="M344.1,226c-2,2.6-5.2,6.4-7,9.2c-0.3-3.9-1.2-9.8-1.7-13.4
				c0.8,3,1.7,7.2,2.7,9.6C339.9,230.1,342.3,227.6,344.1,226"/>
			<path style="fill:#009B3A;stroke:#000000;stroke-width:0.1;" d="M338.2,233.4c-0.1,0-0.4-11.1-0.4-11.1l-1.5,11l0.8,1.9
				L338.2,233.4"/>
			<path style="fill:#009B3A;stroke:#000000;stroke-width:0.1;" d="M343.2,226.8c-1.9,2.6-5,6.5-6.7,9.2c-0.4-3.9-1.4-9.8-2.1-13.4
				c0.9,3,1.9,7.2,2.9,9.6C339.1,231,341.3,228.4,343.2,226.8"/>
			<path style="fill:#009B3A;stroke:#000000;stroke-width:0.1;" d="M337.7,234.5c-0.1,0,1-11.2,1-11.2l-2.7,10.6l0.5,2.2
				L337.7,234.5"/>
			<path style="fill:#009B3A;stroke:#000000;stroke-width:0.1;" d="M342.7,227.2c-1.8,2.8-4.6,7-6.2,10c-0.7-3.8-2.1-9.6-2.9-13.1
				c1.1,2.8,2.3,6.9,3.5,9.2C338.9,231.9,341,229.1,342.7,227.2"/>
			<path style="fill:#009B3A;stroke:#000000;stroke-width:0.1;" d="M337.7,235.6c-0.1,0-0.6-11.3-0.6-11.3l-1.2,11.2l0.8,2
				L337.7,235.6"/>
			<path style="fill:#009B3A;stroke:#000000;stroke-width:0.1;" d="M342.6,227.9c-1.7,2.9-4.4,7.4-5.8,10.4c-0.8-3.8-2.5-9.5-3.5-13
				c1.2,2.8,2.6,6.8,3.9,9C338.9,232.8,340.9,229.8,342.6,227.9"/>
			<path style="fill:#009B3A;stroke:#000000;stroke-width:0.1;" d="M338.3,236.6c-0.1,0,0.9-11.3,0.9-11.3l-2.7,10.6l0.6,2.2
				L338.3,236.6"/>
			<path style="fill:#009B3A;stroke:#000000;stroke-width:0.1;" d="M342.2,228.9c-1.4,3.2-3.8,8-5,11.4c-1.1-3.6-3.2-9-4.4-12.4
				c1.4,2.6,3.1,6.3,4.5,8.3C339,234.5,340.7,231.1,342.2,228.9"/>
			<path style="fill:#009B3A;stroke:#000000;stroke-width:0.1;" d="M337.9,237.6c-0.1,0-2.6-10.7-2.6-10.7l0.9,11.3l1.2,1.6
				L337.9,237.6"/>
			<path style="fill:#009B3A;stroke:#000000;stroke-width:0.1;" d="M342.2,230.2c-1.5,3.2-3.9,8-5.2,11.3c-1.1-3.6-3.2-9-4.5-12.3
				c1.4,2.6,3.1,6.3,4.6,8.3C338.8,235.7,340.6,232.4,342.2,230.2"/>
			<path style="fill:#009B3A;stroke:#000000;stroke-width:0.1;" d="M338.1,239.6c-0.1,0-1-11.3-1-11.3l-0.9,11.3l0.9,1.9
				L338.1,239.6"/>
			<path style="fill:#009B3A;stroke:#000000;stroke-width:0.1;" d="M342.3,231.2c-1.5,3.2-4,7.9-5.3,11.2c-1-3.7-3.1-9.1-4.3-12.5
				c1.4,2.6,3,6.4,4.5,8.4C338.9,236.6,340.7,233.3,342.3,231.2"/>
			<path style="fill:#009B3A;stroke:#000000;stroke-width:0.1;" d="M338,240.5c-0.1,0-1.7-11.1-1.7-11.1l-0.1,11.3l1.1,1.8
				L338,240.5"/>
			<path style="fill:#009B3A;stroke:#000000;stroke-width:0.1;" d="M341.7,232.8c-1.7,3-4.3,7.6-5.7,10.7c-0.9-3.7-2.7-9.4-3.8-12.8
				c1.3,2.7,2.8,6.6,4.2,8.8C338,237.9,340,234.8,341.7,232.8"/>
			<path style="fill:#009B3A;stroke:#000000;stroke-width:0.1;" d="M337.2,241.7c-0.1,0,0.8-11.3,0.8-11.3l-2.5,10.7l0.6,2.2
				L337.2,241.7"/>
			<path style="fill:#009B3A;stroke:#000000;stroke-width:0.1;" d="M341.7,233c-1.4,3.3-3.7,8.2-4.9,11.6c-1.2-3.6-3.4-8.8-4.7-12.1
				c1.5,2.5,3.3,6.1,4.8,8.1C338.5,238.7,340.3,235.3,341.7,233"/>
			<path style="fill:#009B3A;stroke:#000000;stroke-width:0.1;" d="M336.9,242.7c-0.1,0-2.9-10.5-2.9-10.5l1.1,11.2l1.2,1.5
				L336.9,242.7"/>
			<path style="fill:#009B3A;stroke:#000000;stroke-width:0.1;" d="M341.4,233.9c-1,3.6-2.7,9.1-3.4,12.7c-1.6-3.2-4.4-7.8-6.2-10.6
				c1.7,2.1,4,5.2,5.7,6.7C338.9,240.3,340.2,236.5,341.4,233.9"/>
			<path style="fill:#009B3A;stroke:#000000;stroke-width:0.1;" d="M339.4,243.5c-0.1,0-3.1-10.4-3.1-10.4l1.4,11.2l1.3,1.5
				L339.4,243.5"/>
			<path style="fill:#009B3A;stroke:#000000;stroke-width:0.1;" d="M341.3,235c-1,3.6-2.6,9.1-3.3,12.7c-1.6-3.2-4.5-7.7-6.2-10.5
				c1.8,2,4,5.1,5.8,6.6C338.9,241.5,340.2,237.6,341.3,235"/>
			<path style="fill:#009B3A;stroke:#000000;stroke-width:0.1;" d="M339.4,245.3c-0.1,0-4-9.7-4-9.7l2.3,10.8l1.4,1.2L339.4,245.3"
				/>
			<path style="fill:#009B3A;stroke:#000000;stroke-width:0.1;" d="M341,235.9c-0.6,3.7-1.7,9.5-2.1,13.2c-1.9-2.9-5.2-6.9-7.2-9.4
				c1.9,1.7,4.5,4.4,6.3,5.5C339.2,242.7,340.1,238.7,341,235.9"/>
			<path style="fill:#009B3A;stroke:#000000;stroke-width:0.1;" d="M339.7,246.8c-0.1,0-2.2-10.9-2.2-10.9l0.4,11.3l1.1,1.7
				L339.7,246.8"/>
			<path style="fill:#009B3A;stroke:#000000;stroke-width:0.1;" d="M341.1,237.1c-0.3,3.8-1,9.7-1,13.5c-2.1-2.5-5.7-6-7.9-8.2
				c2.1,1.4,4.8,3.6,6.7,4.5C339.8,244.2,340.4,240,341.1,237.1"/>
			<path style="fill:#009B3A;stroke:#000000;stroke-width:0.1;" d="M339.8,247.6c0,0.1-5.7-7.9-5.7-7.9l4.3,9.5l1.6,0.6L339.8,247.6
				"/>
			<path style="fill:#009B3A;stroke:#000000;stroke-width:0.1;" d="M341.2,238.4c-0.3,3.8-1,9.7-1.1,13.4c-2.1-2.5-5.7-6-7.8-8.2
				c2,1.4,4.8,3.6,6.7,4.5C339.9,245.5,340.5,241.4,341.2,238.4"/>
			<path style="fill:#009B3A;stroke:#000000;stroke-width:0.1;" d="M340.4,249.4c0,0-4.4-9.5-4.4-9.5l2.7,10.7l1.4,1.1L340.4,249.4"
				/>
			<path style="fill:#009B3A;stroke:#000000;stroke-width:0.1;" d="M341.4,240c-0.2,3.8-0.7,9.8-0.6,13.5c-2.2-2.4-5.9-5.6-8.1-7.6
				c2.1,1.3,4.9,3.3,6.8,4C340.4,247.2,340.8,243,341.4,240"/>
			<path style="fill:#009B3A;stroke:#000000;stroke-width:0.1;" d="M341,251.2c0,0-5.4-8.3-5.4-8.3l3.9,9.8l1.5,0.8L341,251.2"/>
			<path style="fill:#009B3A;stroke:#000000;stroke-width:0.1;" d="M341.5,241.7c-0.2,3.8-0.6,9.8-0.5,13.5
				c-2.2-2.4-5.9-5.6-8.1-7.5c2.1,1.2,4.9,3.2,6.9,3.9C340.5,248.9,340.9,244.8,341.5,241.7"/>
			<path style="fill:#009B3A;stroke:#000000;stroke-width:0.1;" d="M341.5,252.6c-0.1,0-3.8-10-3.8-10l2.1,11l1.4,1.3L341.5,252.6"
				/>
			<path style="fill:#009B3A;stroke:#000000;stroke-width:0.1;" d="M341.6,242.9c0.1,3.9,0.1,9.8,0.5,13.6c-2.4-2-6.3-4.6-8.6-6.2
				c2.2,0.9,5.1,2.4,7.1,2.8C341.2,250.2,341.3,246,341.6,242.9"/>
			<path style="fill:#009B3A;stroke:#000000;stroke-width:0.1;" d="M342.1,252.2c0,0.1-6.9-5.7-6.9-5.7l5.9,7.8l1.6,0.1L342.1,252.2
				"/>
			<path style="fill:#009B3A;stroke:#000000;stroke-width:0.1;" d="M341.8,243.3c0.3,3.8,0.6,9.8,1.1,13.5c-2.5-1.9-6.5-4.3-8.9-5.8
				c2.2,0.8,5.2,2.2,7.2,2.5C341.7,250.6,341.6,246.4,341.8,243.3"/>
			<path style="fill:#009B3A;stroke:#000000;stroke-width:0.1;" d="M342.9,254.3c0,0-5.8-8-5.8-8l4.4,9.6l1.6,0.7L342.9,254.3"/>
			<path style="fill:#009B3A;stroke:#000000;stroke-width:0.1;" d="M342.3,244.8c0.4,3.8,0.9,9.8,1.5,13.4c-2.5-1.7-6.6-3.8-9.1-5.1
				c2.2,0.6,5.3,1.8,7.3,1.9C342.5,252.1,342.3,247.9,342.3,244.8"/>
			<path style="fill:#009B3A;stroke:#000000;stroke-width:0.1;" d="M344,255.7c0,0.1-6.9-5.9-6.9-5.9l5.8,7.9l1.6,0.1L344,255.7"/>
			<path style="fill:#009B3A;stroke:#000000;stroke-width:0.1;" d="M342.6,246.4c0.6,3.8,1.4,9.7,2.3,13.2c-2.6-1.4-6.8-3.1-9.3-4.1
				c2.3,0.4,5.3,1.2,7.4,1.1C343.1,253.7,342.6,249.5,342.6,246.4"/>
			<path style="fill:#009B3A;stroke:#000000;stroke-width:0.1;" d="M344.8,256.9c0,0-5.7-8.2-5.7-8.2l4.3,9.7l1.6,0.7L344.8,256.9"
				/>
			<path style="fill:#009B3A;stroke:#000000;stroke-width:0.1;" d="M342.9,247.4c0.9,3.7,2.2,9.4,3.3,12.9c-2.7-1-6.9-2-9.5-2.6
				c2.3,0,5.4,0.3,7.4-0.1C344,254.7,343.3,250.6,342.9,247.4"/>
			<path style="fill:#009B3A;stroke:#000000;stroke-width:0.1;" d="M345.1,256.9c0,0.1-7.9-2.1-7.9-2.1l7.5,4.5l1.5-0.7L345.1,256.9
				"/>
			<path style="fill:#009B3A;stroke:#000000;stroke-width:0.1;" d="M343.5,248.6c0.9,3.7,2.1,9.4,3.2,12.9c-2.7-1-6.9-2-9.5-2.6
				c2.3,0,5.4,0.4,7.4,0C344.5,255.9,343.8,251.7,343.5,248.6"/>
			<path style="fill:#009B3A;stroke:#000000;stroke-width:0.1;" d="M346.4,257.9c0,0.1-7.6-4.4-7.6-4.4l6.8,6.7l1.6-0.2L346.4,257.9
				"/>
			<path style="fill:#009B3A;stroke:#000000;stroke-width:0.1;" d="M343.1,249.2c1.5,3.4,3.7,8.7,5.4,11.7c-2.8-0.3-7.1-0.1-9.7,0
				c2.2-0.6,5.3-1.1,7.2-2.1C345.3,256,343.9,252.2,343.1,249.2"/>
			<path style="fill:#009B3A;stroke:#000000;stroke-width:0.1;" d="M347.6,258.9c0,0.1-7.9-2.6-7.9-2.6l7.4,5.1l1.6-0.6L347.6,258.9
				"/>
			<path style="fill:#009B3A;stroke:#000000;stroke-width:0.1;" d="M343.9,250.7c1.5,3.3,3.8,8.6,5.4,11.7c-2.8-0.2-7.1,0-9.7,0.1
				c2.2-0.6,5.3-1.2,7.2-2.1C346.2,257.4,344.7,253.6,343.9,250.7"/>
			<path style="fill:#009B3A;stroke:#000000;stroke-width:0.1;" d="M348.6,259.7c0,0.1-7.3-5.3-7.3-5.3l6.4,7.4l1.7,0L348.6,259.7"
				/>
			<path style="fill:#009B3A;stroke:#000000;stroke-width:0.1;" d="M344.5,251.5c1.8,3.1,4.4,8.1,6.3,10.9c-2.7,0.2-6.9,1.1-9.5,1.7
				c2.1-1,5.1-2,6.9-3.3C347.3,258,345.6,254.3,344.5,251.5"/>
			<path style="fill:#009B3A;stroke:#000000;stroke-width:0.1;" d="M349.1,260.5c0,0.1-7.9-0.2-7.9-0.2l7.8,2.8l1.4-1.1L349.1,260.5
				"/>
			<path style="fill:#009B3A;stroke:#000000;stroke-width:0.1;" d="M353.7,213.9c0,0,5.7-1.2,5.7-1.2l-5.7,0.2l-1,0.6L353.7,213.9"
				/>
			<path style="fill:#009B3A;stroke:#000000;stroke-width:0.1;" d="M356.8,215.4c-1.7-0.6-4.2-1.6-5.9-2.1c1.8-0.9,4.5-2.4,6.1-3.4
				c-1.3,1-3.1,2.2-4.1,3.2C354,213.9,355.7,214.7,356.8,215.4"/>
			<path style="fill:#009B3A;stroke:#000000;stroke-width:0.1;" d="M353.5,214.1c0,0,5.5-1.8,5.5-1.8l-5.7,0.9l-0.9,0.7L353.5,214.1
				"/>
			<path style="fill:#009B3A;stroke:#000000;stroke-width:0.1;" d="M357.1,215.9c-1.9-0.2-4.9-0.7-6.8-0.7c1.4-1.5,3.5-4.1,4.7-5.7
				c-0.9,1.5-2.2,3.5-2.7,4.9C353.6,215,355.6,215.4,357.1,215.9"/>
			<path style="fill:#009B3A;stroke:#000000;stroke-width:0.1;" d="M351.4,214.6c0,0,5.7-0.8,5.7-0.8l-5.6-0.2l-1,0.6L351.4,214.6"
				/>
			<path style="fill:#009B3A;stroke:#000000;stroke-width:0.1;" d="M355.7,216.1c-1.8-0.4-4.4-1.1-6.2-1.4c1.7-1,4.2-2.7,5.7-3.8
				c-1.1,1-2.8,2.4-3.6,3.4C352.5,215,354.4,215.6,355.7,216.1"/>
			<path style="fill:#009B3A;stroke:#000000;stroke-width:0.1;" d="M350.9,214.5c0,0,5-2.6,5-2.6l-5.5,1.8l-0.7,0.8L350.9,214.5"/>
			<path style="fill:#009B3A;stroke:#000000;stroke-width:0.1;" d="M355.5,216.9c-1.5-0.7-3.7-2-5.2-2.5c1.1-1.3,2.7-3.5,3.7-4.8
				c-0.7,1.4-1.7,3.1-2.2,4.5C352.8,215,354.4,216,355.5,216.9"/>
			<path style="fill:#009B3A;stroke:#000000;stroke-width:0.1;" d="M351.2,215c0,0,3.9-2.1,3.9-2.1l-4.3,0.7l-0.5,0.9L351.2,215"/>
			<path style="fill:#009B3A;stroke:#000000;stroke-width:0.1;" d="M347.9,259.6c0,0.1-8.1,0.1-8.1,0.1l8.2,2.4l1.4-1.1L347.9,259.6
				"/>
			<path style="fill:#009B3A;stroke:#000000;stroke-width:0.1;" d="M349.4,260.2c0,0.1-8.3-2.3-8.3-2.3l7.9,4.7l1.6-0.6L349.4,260.2
				"/>
			<path style="fill:#009B3A;stroke:#000000;stroke-width:0.1;" d="M350.7,260.9c0,0.1-8.2-0.5-8.2-0.5l8.2,3l1.4-1L350.7,260.9"/>
			<path style="fill:#009B3A;stroke:#000000;stroke-width:0.1;" d="M345.5,253.9c2.1,2.9,5.3,7.4,7.6,9.9c-2.8,0.5-6.9,1.9-9.5,2.7
				c2-1.2,4.9-2.5,6.6-3.9C349.1,259.9,346.9,256.5,345.5,253.9"/>
			<path style="fill:#009B3A;stroke:#000000;stroke-width:0.1;" d="M351.9,261.4c0,0.1-8.2-3.3-8.2-3.3l7.7,5.6l1.6-0.4L351.9,261.4
				"/>
			<path style="fill:#009B3A;stroke:#000000;stroke-width:0.1;" d="M346.3,254.5c2.3,2.6,5.8,6.7,8.2,8.9c-2.6,0.9-6.6,2.9-9,4.1
				c1.9-1.5,4.6-3.3,6.1-5C350.3,260.1,347.9,257,346.3,254.5"/>
			<path style="fill:#009B3A;stroke:#000000;stroke-width:0.1;" d="M352.5,262c0,0.1-7.8,1.9-7.8,1.9l8.2,0.7l1.2-1.4L352.5,262"/>
			<path style="fill:#009B3A;stroke:#000000;stroke-width:0.1;" d="M350.9,261.4c0,0.1-8.1,0.8-8.1,0.8l8.4,1.7l1.3-1.2L350.9,261.4
				"/>
			<path style="fill:#009B3A;stroke:#000000;stroke-width:0.1;" d="M352.4,261.9c0,0.1-8.4-1.6-8.4-1.6l8.2,4l1.5-0.7L352.4,261.9
				L352.4,261.9z"/>
			<path style="fill:#009B3A;stroke:#000000;stroke-width:0.1;" d="M353.8,262.5c0,0.1-8.2,0.2-8.2,0.2l8.4,2.3l1.3-1.1L353.8,262.5
				z"/>
			<path style="fill:#009B3A;stroke:#000000;stroke-width:0.1;" d="M348.2,255.9c2.3,2.7,5.8,6.9,8.2,9.2c-2.7,0.7-6.8,2.4-9.3,3.5
				c2-1.3,4.8-2.9,6.3-4.5C352.1,261.6,349.7,258.4,348.2,255.9L348.2,255.9z"/>
			<path style="fill:#009B3A;stroke:#000000;stroke-width:0.1;" d="M355,262.9c0,0.1-8.4-2.6-8.4-2.6l8,4.9l1.6-0.5L355,262.9
				L355,262.9z"/>
			<path style="fill:#009B3A;stroke:#000000;stroke-width:0.1;" d="M349,256.5c2.5,2.4,6.2,6.2,8.8,8.2c-2.6,1.1-6.4,3.4-8.7,4.9
				c1.8-1.7,4.4-3.7,5.7-5.5C353.3,261.7,350.7,258.8,349,256.5L349,256.5z"/>
			<path style="fill:#009B3A;stroke:#000000;stroke-width:0.1;" d="M355.7,263.4c0,0.1-7.7,2.5-7.7,2.5l8.2,0l1.1-1.5L355.7,263.4
				L355.7,263.4z"/>
		</g>
		<path style="fill:#FEDF00;stroke:#000000;stroke-width:0.2988;" d="M366.3,249.5l-6.3-5.2l-6.3,5.2l2.3-8.4l-5.5-5.2h7l2.3-8.4
			l2.3,8.4h7l-5.5,5.2L366.3,249.5L366.3,249.5z"/>
	</g>
</g>
</svg>
