<?xml version="1.0" encoding="utf-8"?>
<!-- Generator: Adobe Illustrator 26.4.1, SVG Export Plug-In . SVG Version: 6.00 Build 0)  -->
<svg version="1.1" id="Layer_1" xmlns="http://www.w3.org/2000/svg" xmlns:xlink="http://www.w3.org/1999/xlink" x="0px" y="0px"
	 viewBox="0 0 720 480" style="enable-background:new 0 0 720 480;" xml:space="preserve">
<style type="text/css">
	.st0{fill:#FF0000;}
	.st1{fill:#005CE5;}
	.st2{fill:#FFFFFF;}
	.st3{fill-rule:evenodd;clip-rule:evenodd;fill:#005CE5;}
	.st4{fill-rule:evenodd;clip-rule:evenodd;fill:#FFFFFF;}
	.st5{fill-rule:evenodd;clip-rule:evenodd;fill:#FFE500;}
	.st6{fill-rule:evenodd;clip-rule:evenodd;fill:#FF0000;}
</style>
<path class="st0" d="M0,0.5h720V481H0V0.5z"/>
<path class="st1" d="M0,0.5h720v320.3H0V0.5z"/>
<path class="st2" d="M0,0.5h720v160.2H0V0.5z"/>
<g>
	<g transform="matrix(.02100012 0 0 .02100012 -.106483 3.477988)">
		<path class="st3" d="M8494.3,3871.3c-51.2,0.1-102.3,1.1-153.2,2.6c-990.6,25.7-1920.6,281.5-2582.8,593.5l0.1,0.9
			c-72.4,30.3-143.3,60.6-210.8,90.9l227.6,3565.2c157.7,1863.1,1371.9,2947.9,2720.9,3373.8c1349-426,2563.1-1510.7,2720.8-3373.8
			l226.4-3553.9c-67.6-35-138.4-68.9-210.8-102.3l0.1-0.9c-696-327.9-1687.7-594.2-2734.8-596c-0.8,0-1.5-0.1-2.3-0.1
			C8495.1,3871.3,8494.7,3871.3,8494.3,3871.3z"/>
		<path class="st4" d="M8496,6338.4l-665.9,1300.3l-430.5-559.2L6274.9,8566.1c20.3,92.3,44.2,181.3,70.3,268.3
			c125.6,212,367,454.1,676.7,454.1c245.7,0,491.4-196.6,737.1-196.6c245.7,0,491.4,196.6,737.1,196.6
			c245.7,0,491.4-196.6,737.1-196.6c245.7,0,491.4,196.6,737.1,196.6c306.8,0,546.6-237.5,673.2-448.2
			c27-89.3,51.3-181.3,72.2-276.2L9592.5,7079.5L9162,7638.8L8496,6338.4z M7758.9,9288.4c-245.7,0-491.4,196.6-737.1,196.6
			c-194.5,0-361.5-68.9-490.9-166.6c45.7,97,94,191.3,146.9,280.6c101.4,63,216.6,105.7,344,105.7c245.7,0,491.4-196.6,737.1-196.6
			c245.7,0,491.4,196.6,737.1,196.6s491.4-196.6,737.1-196.6c245.7,0,491.4,196.6,737.1,196.6c125.6,0,239.2-41.7,339.6-103.2
			c52.9-89,101.2-183,146.9-279.6c-128.8,95.9-294.3,163.1-486.5,163.1c-245.7,0-491.4-196.6-737.1-196.6S8741.7,9485,8496,9485
			S8004.6,9288.4,7758.9,9288.4L7758.9,9288.4z M7758.9,9704.7c-245.7,0-491.4,196.6-737.1,196.6c-53.4,0-104.1-6.3-153.3-15.7
			c425.1,567.9,1005,948,1627,1166.6c620.7-218.2,1199.8-598.6,1624.6-1165.6c-48.1,9-97.8,14.7-149.9,14.7
			c-245.7,0-491.4-196.6-737.1-196.6s-491.4,196.6-737.1,196.6C8250.3,9901.2,8004.6,9704.7,7758.9,9704.7L7758.9,9704.7z"/>
		<g id="a" transform="translate(0 -.00067)">
			<path id="b" class="st5" d="M7387.6,4348.4H7945l-278.7,482.7"/>
		</g>
		<g>
			<g transform="translate(20.7203)">
				<g id="a_00000057858608077882411650000008632390282837733257_" transform="translate(0 -.00067)">
					<path id="b_00000019665214279191074650000007511298966611577217_" class="st5" d="M9047.1,4348.4h557.4l-278.7,482.7"/>
				</g>
			</g>
			<g transform="translate(10.3603 13.875)">
				<g id="a_00000029034418353385740870000008461285826077883526_" transform="translate(0 -.00067)">
					<path id="b_00000009579467913638887050000002163382822392593324_" class="st5" d="M8217.3,5459.5h557.4L8496,5942.2"/>
				</g>
			</g>
		</g>
	</g>
	<path class="st6" d="M178.3,84.8c-1.1,0-2.2,0-3.3,0.1C176.1,84.8,177.2,84.8,178.3,84.8z M120.8,97.3c-1.5,0.6-3,1.3-4.4,1.9
		l4.8,74.9c3.3,39.1,28.8,61.9,57.1,70.8c28.3-8.9,53.8-31.7,57.1-70.8l4.8-74.6c-1.4-0.7-2.9-1.4-4.4-2.1l-4.4,74.3
		c-3.1,38-26.7,60.2-53,68.9c-26.3-8.7-50-30.8-53-68.9L120.8,97.3z"/>
</g>
</svg>
