<?xml version="1.0" encoding="utf-8"?>
<!-- Generator: Adobe Illustrator 25.2.1, SVG Export Plug-In . SVG Version: 6.00 Build 0)  -->
<svg version="1.1" id="Layer_1" xmlns="http://www.w3.org/2000/svg" xmlns:xlink="http://www.w3.org/1999/xlink" x="0px" y="0px"
	 viewBox="0 0 720 480" style="enable-background:new 0 0 720 480;" xml:space="preserve">
<path style="fill:#8F6A2A;stroke:#000000;stroke-width:0.93;stroke-linecap:round;stroke-linejoin:round;" d="M-40-60"/>
<path style="fill:#8F6A2A;stroke:#000000;stroke-width:0.93;stroke-linecap:round;stroke-linejoin:round;" d="M-40-60"/>
<g>
	<path style="fill:#62B5E5;" d="M0,4.3h720V480H0V4.3z"/>
	<path style="fill:#FFFFFF;" d="M0,4.3h720v237.9H0V4.3z"/>
	<g>
		<g>
			<ellipse style="fill:#FFFFFF;stroke:#000000;stroke-width:0.93;" cx="413.5" cy="140.1" rx="3.6" ry="3.2"/>
			<ellipse style="fill:#FFFFFF;stroke:#000000;stroke-width:0.93;" cx="415.5" cy="128.8" rx="4.6" ry="4"/>
			<ellipse style="fill:#FFFFFF;stroke:#000000;stroke-width:0.93;" cx="338.8" cy="116.7" rx="3.5" ry="3.1"/>
			<ellipse style="fill:#FFFFFF;stroke:#000000;stroke-width:0.93;" cx="304.6" cy="128.8" rx="4.6" ry="4"/>
			<ellipse style="fill:#FFFFFF;stroke:#000000;stroke-width:0.93;" cx="325.5" cy="118" rx="3.8" ry="3.3"/>
			<ellipse style="fill:#FFFFFF;stroke:#000000;stroke-width:0.93;" cx="306.6" cy="140.1" rx="3.6" ry="3.2"/>
			<ellipse style="fill:#FFFFFF;stroke:#000000;stroke-width:0.93;" cx="312.2" cy="120.9" rx="4.4" ry="3.9"/>
			<ellipse style="fill:#FFFFFF;stroke:#000000;stroke-width:0.93;" cx="381.4" cy="116.7" rx="3.5" ry="3.1"/>
			<ellipse style="fill:#FFFFFF;stroke:#000000;stroke-width:0.93;" cx="394.6" cy="118" rx="3.8" ry="3.3"/>
			<ellipse style="fill:#FFFFFF;stroke:#000000;stroke-width:0.93;" cx="408" cy="120.9" rx="4.4" ry="3.9"/>
		</g>
		<g>
			<ellipse style="fill:none;stroke:#000000;stroke-width:1.09;" cx="413.5" cy="140.1" rx="4" ry="3.5"/>
			<ellipse style="fill:none;stroke:#000000;stroke-width:1.09;" cx="415.5" cy="128.8" rx="5" ry="4.4"/>
			<ellipse style="fill:none;stroke:#000000;stroke-width:1.09;" cx="338.8" cy="116.7" rx="3.9" ry="3.4"/>
			<ellipse style="fill:none;stroke:#000000;stroke-width:1.09;" cx="304.6" cy="128.8" rx="5" ry="4.4"/>
			<ellipse style="fill:none;stroke:#000000;stroke-width:1.09;" cx="325.5" cy="118" rx="4.2" ry="3.7"/>
			<ellipse style="fill:none;stroke:#000000;stroke-width:1.09;" cx="306.6" cy="140.1" rx="4" ry="3.5"/>
			<ellipse style="fill:none;stroke:#000000;stroke-width:1.09;" cx="312.2" cy="120.9" rx="4.9" ry="4.3"/>
			<ellipse style="fill:none;stroke:#000000;stroke-width:1.09;" cx="381.4" cy="116.7" rx="3.9" ry="3.4"/>
			<ellipse style="fill:none;stroke:#000000;stroke-width:1.09;" cx="394.6" cy="118" rx="4.2" ry="3.7"/>
			<ellipse style="fill:none;stroke:#000000;stroke-width:1.09;" cx="408" cy="120.9" rx="4.9" ry="4.3"/>
		</g>
		<g>
			<path style="stroke:#000000;stroke-width:0.93;stroke-linecap:round;stroke-linejoin:round;" d="M353.2,109
				c-12.1,12.3-33.4,6.3-43.2,11.1c-16.9,8.3,1.5,28.1,5,31.9l18.4-4.2c-6.8-4.8-20.3-12.9-16.2-19.4c4.2-6.7,26.4,0.1,36.2-14.3
				C355.4,111,353.8,108.3,353.2,109L353.2,109z"/>
			<path style="fill:#F1C400;stroke:#000000;stroke-width:0.93;stroke-linecap:round;stroke-linejoin:round;" d="M353.2,109.3
				c-12.1,12.3-32.8,6.4-42.5,11.2c-16.9,8.3,2.2,27.6,5.7,31.4l15.9-4.2c-6.8-4.8-19.6-13.1-15.5-19.7c4.2-6.7,26.8,0,36.6-14.4
				C355.4,110.6,353.8,108.7,353.2,109.3L353.2,109.3z"/>
			<path style="stroke:#000000;stroke-width:0.63;stroke-linecap:round;stroke-linejoin:round;" d="M354.3,110.3
				c-13.1,15.6-32.9,7.7-41.3,13.8c-9.6,6.9,4.4,20.5,11.1,25.8l1.1-0.3c-5.5-4.6-21.7-18.1-11.4-25.4c7.4-5.3,28.2,1.6,40.6-13.5
				L354.3,110.3z"/>
			<path style="stroke:#000000;stroke-width:0.63;stroke-linecap:round;stroke-linejoin:round;" d="M0,4.3"/>
			<path style="stroke:#000000;stroke-width:0.63;stroke-linecap:round;stroke-linejoin:round;" d="M0,4.3"/>
			<path style="fill:none;stroke:#000000;stroke-width:0.6;stroke-linecap:round;stroke-linejoin:round;" d="M354.4,110.9
				c0,0.8-0.2,1.4-1,2.6c-9.7,14.4-32.7,7.8-36.8,14.6c-4,6.5,8.7,14.7,15.5,19.5c-1.2,0.4-2.5,0.7-3.8,1l-1.2,0.6l-1.8,0.5
				c-5.5-4.6-21.6-18-11.3-25.3C321.3,119,342,126,354.4,110.9z"/>
			<path style="stroke:#000000;stroke-width:0.93;stroke-linecap:round;stroke-linejoin:round;" d="M366.8,109
				c12.1,12.3,33.4,6.3,43.2,11.1c16.9,8.3-1.5,28.1-4.9,31.9l-18.4-4.2c6.8-4.8,20.3-12.9,16.2-19.4c-4.2-6.7-26.4,0.1-36.2-14.3
				C364.6,111,366.2,108.3,366.8,109L366.8,109z"/>
			<path style="fill:#F1C400;stroke:#000000;stroke-width:0.93;stroke-linecap:round;stroke-linejoin:round;" d="M366.9,109.3
				c12.1,12.3,32.8,6.4,42.5,11.2c16.9,8.3-2.2,27.6-5.7,31.4l-15.9-4.2c6.8-4.8,19.6-13.1,15.5-19.7c-4.2-6.7-26.8,0-36.6-14.4
				C364.7,110.6,366.3,108.7,366.9,109.3L366.9,109.3z"/>
			<path style="stroke:#000000;stroke-width:0.63;stroke-linecap:round;stroke-linejoin:round;" d="M395,149.6
				c5.5-4.6,21.7-18.1,11.4-25.4c-7.4-5.3-28.2,1.6-40.6-13.5l0-0.4c13.1,15.6,32.9,7.7,41.3,13.8c9.6,6.9-4.5,20.4-11.2,25.8
				L395,149.6z"/>
			<path style="stroke:#000000;stroke-width:0.63;stroke-linecap:round;stroke-linejoin:round;" d="M0,4.3"/>
			<path style="stroke:#000000;stroke-width:0.63;stroke-linecap:round;stroke-linejoin:round;" d="M0,4.3"/>
			<path style="fill:none;stroke:#000000;stroke-width:0.6;stroke-linecap:round;stroke-linejoin:round;" d="M365.8,110.9
				c0,0.8,0.2,1.4,1,2.6c9.7,14.4,32.7,7.8,36.8,14.6c4,6.5-8.7,14.7-15.5,19.5c1.2,0.4,2.5,0.7,3.8,1l1.2,0.6l1.8,0.5
				c5.5-4.6,21.6-18,11.3-25.3C398.8,119,378.2,126,365.8,110.9z"/>
		</g>
		<path style="stroke:#000000;stroke-width:0.93;" d="M360.1,136.5h-6.2c0,0,0.7-5.2-0.1-8.7c-0.7-2.8-3.2-6.1-3.2-8.5
			s2.9-9.1,2.9-9.1h13.1c0,0,2.8,6.7,2.8,9.1c0,2.4-2.4,5.6-3.1,8.5c-0.8,3.5-0.1,8.7-0.1,8.7H360.1L360.1,136.5z"/>
		<path style="fill:#F1C400;" d="M360.1,136.5h-6.2c0,0,0.9-5.2,0.2-8.7c-0.6-2.9-2.8-5.1-3.1-8c-0.4-4.1,3.6-9.6,3.6-9.6h10.9
			c0,0,3.9,5.5,3.5,9.6c-0.3,2.9-2.3,5.1-3,8c-0.8,3.5,0.2,8.7,0.2,8.7H360.1z"/>
		<path style="fill:#F1C400;" d="M0,4.3"/>
		<path style="fill:#F1C400;" d="M0,4.3"/>
		<path style="fill:none;stroke:#000000;stroke-width:0.93;" d="M360.1,136.5h-6.2c0,0,0.9-5.2,0.2-8.7c-0.6-2.9-2.8-5.1-3.1-8
			c-0.4-4.1,3.6-9.6,3.6-9.6h10.9c0,0,3.9,5.5,3.5,9.6c-0.3,2.9-2.3,5.1-3,8c-0.8,3.5,0.2,8.7,0.2,8.7H360.1z"/>
		<ellipse style="fill:#FFFFFF;stroke:#000000;stroke-width:0.92;" cx="360" cy="115.8" rx="3.1" ry="2"/>
		<ellipse style="fill:none;stroke:#000000;stroke-width:1.03;" cx="360" cy="115.7" rx="3.4" ry="2.2"/>
		<ellipse style="fill:#FFFFFF;stroke:#000000;stroke-width:0.92;" cx="360" cy="121.8" rx="3.3" ry="2.9"/>
		<ellipse style="fill:none;stroke:#000000;stroke-width:1.03;" cx="360" cy="121.8" rx="3.7" ry="3.3"/>
		<path style="fill:none;stroke:#000000;stroke-width:1.03;" d="M0,4.3"/>
		<path style="fill:#F1C400;stroke:#000000;stroke-width:0.93;" d="M324.8,165.7c0,0-0.7-0.8-0.9-1.3c-0.4-0.8-0.3-2.2-0.3-2.2
			l-4-3.7l7.6-6.4l14.6-3.7l18.4-1.1l18.4,1.1L393,152l7.6,6.4l-4,3.7c0,0,0,1.4-0.3,2.2c-0.3,0.6-0.9,1.3-0.9,1.3l-16.7-4.5
			l-18.6-0.7l-18.6,0.7L324.8,165.7L324.8,165.7z"/>
		<path style="fill:#F1C400;stroke:#000000;stroke-width:0.93;" d="M0,4.3"/>
		<path style="fill:#F1C400;stroke:#000000;stroke-width:0.93;" d="M0,4.3"/>
		<ellipse style="fill:#EAAA00;stroke:#000000;stroke-width:0.93;" cx="360" cy="169.5" rx="33.1" ry="7.4"/>
		<path style="fill:none;stroke:#000000;stroke-width:1.09;" d="M392.9,170.5c-6.2,2.3-18.4,3.6-32.8,3.6s-26.6-1.3-32.8-3.6"/>
		<path style="fill:none;stroke:#000000;stroke-width:1.01;" d="M392.3,167.8C386,170,374.1,171,360,171c-14,0-25.9-1.1-32.3-3.2"/>
		<path style="fill:none;stroke:#000000;stroke-width:0.93;" d="M389.2,165.9c-6.8,1.7-17.2,2.7-29.2,2.7c-12,0-22.4-1-29.2-2.7"/>
		<path style="fill:none;stroke:#000000;stroke-width:0.93;" d="M384.7,164.5c-6.5,1.1-15.1,1.8-24.7,1.8s-18.2-0.6-24.7-1.8
			 M377.2,163.1c-5.1,0.5-10.9,0.8-17.1,0.8s-12-0.3-17.1-0.8"/>
		<ellipse style="fill:none;stroke:#000000;stroke-width:0.93;" cx="360" cy="169.5" rx="32.8" ry="7.2"/>
		<path style="fill:none;stroke:#000000;stroke-width:0.93;" d="M0,4.3"/>
		<path style="fill:none;stroke:#000000;stroke-width:0.93;" d="M0,4.3"/>
		<path style="stroke:#000000;stroke-width:0.93;" d="M317.7,158.2c0-6.9,18.8-12.8,42.3-12.8c23.5,0,41.7,6.1,41.7,12.2
			c0,1.5-1.5,2.7-3.4,3.8c0.2-0.5,0.3-0.9,0.3-1.4c0-6.1-15-11-38.5-11c-23.5,0-38.5,4.9-38.5,11c0,0.5,0.1,0.9,0.3,1.4
			C319.9,160.3,317.7,159.7,317.7,158.2L317.7,158.2z"/>
		<path style="fill:#F1C400;stroke:#000000;stroke-width:0.9;" d="M318.8,157.6c0-5.3,17.7-11.8,41.2-11.8
			c23.5,0,41.2,6.6,41.2,11.8c0,1.5-1.8,1.6-2,1.2c-2-5.3-15.7-10-39.2-10c-23.5,0-37.3,4.7-39.2,10
			C320.6,159.2,318.8,159.1,318.8,157.6L318.8,157.6z"/>
		<path style="fill:#F1C400;stroke:#000000;stroke-width:0.9;" d="M0,4.3"/>
		<g>
			<path style="fill:#EAAA00;stroke:#000000;stroke-width:0.72;stroke-linecap:round;stroke-linejoin:round;" d="M325.4,160.8
				c-0.3-1.5-1.8-2.7-2.9-2.5c-1.1,0.2-2.8,1.7-2.5,3.2c0.3,1.5,2.4,2.6,3.6,2.4C324.8,163.7,325.7,162.3,325.4,160.8L325.4,160.8z"
				/>
			<path style="fill:#EAAA00;stroke:#000000;stroke-width:0.72;stroke-linecap:round;stroke-linejoin:round;" d="M0,4.3"/>
			<path style="fill:none;stroke:#000000;stroke-width:0.78;stroke-linecap:round;stroke-linejoin:round;" d="M324.8,160.9
				c-0.3-1.3-1.3-2.2-2.3-2.1c-1,0.2-2.1,1.3-1.9,2.6c0.3,1.3,1.9,2.3,2.8,2.1C324.5,163.4,325.1,162.2,324.8,160.9L324.8,160.9z"/>
			<path style="fill:#EAAA00;stroke:#000000;stroke-width:0.78;stroke-linecap:round;stroke-linejoin:round;" d="M337.9,157.2
				l-0.5-2.8l-2.2-1c0,0-2.3,0.6-3.8,1c-1.5,0.5-3.8,1.4-3.8,1.4l-0.5,0.8l0.7,3.2l1.2,1l8.1-2.1L337.9,157.2L337.9,157.2z"/>
			<path style="fill:#F1C400;" d="M328.9,159.2l6.5-1.8l0.4-0.6l-0.6-3l-0.2-0.2l-7.2,2.3l0.5,2.7L328.9,159.2z"/>
			<path style="fill:none;stroke:#000000;stroke-width:1.09;stroke-linecap:round;stroke-linejoin:round;" d="M328.9,159.2l6.5-1.8
				l0.4-0.6l-0.4-2.4 M337.7,157.2l-1.9-0.4 M0,4.3 M0,4.3 M0,4.3"/>
			<path style="fill:#EAAA00;" d="M353.6,155.3v-3.1l2-1.7h8.9l2,1.7v3.1l-2,1.6h-8.9L353.6,155.3z"/>
			<path style="fill:#F1C400;" d="M364.7,150.9l-0.7,0.6v2.9l-0.6,0.5l-6.8,0l-0.6-0.5v-2.8l-0.6-0.7L364.7,150.9z"/>
			<path style="fill:none;stroke:#000000;stroke-width:0.78;stroke-linecap:round;stroke-linejoin:round;" d="M353.6,155.3v-3.1
				l2-1.7h8.9l2,1.7v3.1l-2,1.6h-8.9L353.6,155.3z"/>
			<path style="fill:none;stroke:#000000;stroke-width:1.09;stroke-linecap:round;stroke-linejoin:round;" d="M354.1,155.1l2-0.7
				 M366,155.2l-2-0.7 M355.9,156.6l0.8-1.7 M364.2,156.6l-0.8-1.7 M364,151.5v2.9l-0.6,0.5l-6.8,0l-0.6-0.5v-2.9 M0,4.3 M0,4.3
				 M0,4.3"/>
			<path style="fill:#EAAA00;stroke:#000000;stroke-width:0.78;stroke-linecap:round;stroke-linejoin:round;" d="M382.2,157.2
				l0.5-2.8l2.2-1c0,0,2.3,0.6,3.8,1c1.5,0.5,3.8,1.4,3.8,1.4l0.5,0.8l-0.7,3.2l-1.2,1l-8.1-2.1L382.2,157.2L382.2,157.2z"/>
			<path style="fill:#F1C400;" d="M391.2,159.2l-6.5-1.8l-0.4-0.6l0.6-3l0.2-0.2l7.2,2.3l-0.5,2.7L391.2,159.2z"/>
			<path style="fill:none;stroke:#000000;stroke-width:1.09;stroke-linecap:round;stroke-linejoin:round;" d="M391.2,159.2l-6.5-1.8
				l-0.4-0.6l0.4-2.4 M383,158.4l1.7-1"/>
			<path style="fill:#EAAA00;stroke:#000000;stroke-width:0.72;stroke-linecap:round;stroke-linejoin:round;" d="M394.6,160.8
				c0.3-1.5,1.8-2.7,2.9-2.5c1.1,0.2,2.8,1.7,2.5,3.2c-0.3,1.5-2.4,2.6-3.6,2.4C395.2,163.7,394.3,162.3,394.6,160.8z"/>
			<path style="fill:#EAAA00;stroke:#000000;stroke-width:0.72;stroke-linecap:round;stroke-linejoin:round;" d="M0,4.3"/>
			<path style="fill:none;stroke:#000000;stroke-width:0.78;stroke-linecap:round;stroke-linejoin:round;" d="M395.2,160.9
				c0.3-1.3,1.3-2.2,2.3-2.1c1,0.2,2.1,1.3,1.9,2.6c-0.3,1.3-1.9,2.3-2.8,2.1C395.5,163.4,394.9,162.2,395.2,160.9L395.2,160.9z"/>
			<path style="fill:none;stroke:#000000;stroke-width:0.83;stroke-linecap:round;stroke-linejoin:round;" d="M381.9,157.2l0.6-3.1
				l2.3-1c0,0,2.5,0.6,4.1,1.1c1.6,0.5,4.1,1.5,4.1,1.5l0.6,0.9l-0.7,3.4l-1.3,1l-8.7-2.3L381.9,157.2L381.9,157.2z M353.1,152
				l2.2-1.8h9.6l2.2,1.8v3.3l-2.2,1.7h-9.6l-2.2-1.6L353.1,152L353.1,152z M338.2,157.2l-0.6-3.1l-2.3-1c0,0-2.5,0.6-4.1,1.1
				c-1.6,0.5-4.1,1.5-4.1,1.5l-0.6,0.9l0.7,3.4l1.3,1l8.7-2.3L338.2,157.2L338.2,157.2z"/>
		</g>
		<g>
			<path style="fill:#EAAA00;stroke:#000000;stroke-width:0.95;stroke-linecap:round;stroke-linejoin:round;" d="M367.3,80.3
				c1.6,0,2.8,1.3,2.8,2.7c0,1.4-1.2,2.8-2.8,2.8c-2.1,0-5.1-2.2-5-0.4l0,0.9l1.1,8c2.7,0.5-9.5,0.5-6.8,0l1.1-8.1l0-0.8
				c0.1-1.7-3,0.4-5,0.4c-1.6,0-2.8-1.4-2.8-2.8c0-1.4,1.2-2.7,2.8-2.7c1.6,0,3.3,1.3,4.4,0.7c1.8-1-0.4-3.1-0.4-4.5
				c0-1.4,1.6-2.6,3.2-2.6s3.2,1.1,3.2,2.6c0,1.5-2.1,3.5-0.4,4.5C363.9,81.6,365.7,80.3,367.3,80.3L367.3,80.3z"/>
			<path style="fill:#EAAA00;stroke:#000000;stroke-width:0.95;stroke-linecap:round;stroke-linejoin:round;" d="M0,4.3"/>
			<path style="fill:none;stroke:#000000;stroke-width:0.93;stroke-linecap:round;stroke-linejoin:round;" d="M366.8,80.6
				c1.5,0,2.8,1.1,2.8,2.4c0,1.3-1.3,2.4-2.8,2.4c-1.5,0-5.2-2.3-5.1-0.6l0,0.9l0.6,7.8c2.5,0.5-7.3,0.5-4.7,0l0.6-7.8l0-0.9
				c0.1-1.8-3.7,0.5-5.1,0.5c-1.5,0-2.8-1.1-2.8-2.4s1.4-2.4,2.8-2.4c1.5,0,3.5,1.1,4.5,0.5c1.6-0.9-0.6-3-0.6-4.3
				c0-1.3,1.4-2.5,2.9-2.5c1.5,0,2.9,1.2,2.9,2.5c0,1.3-2.3,3.4-0.6,4.3C363.3,81.7,365.3,80.6,366.8,80.6z"/>
			
				<ellipse style="fill:#F1F1F2;stroke:#000000;stroke-width:1.7;stroke-linecap:round;stroke-linejoin:round;" cx="360" cy="96.5" rx="7.1" ry="6.3"/>
			<path style="fill:#F1F1F2;stroke:#000000;stroke-width:1.7;stroke-linecap:round;stroke-linejoin:round;" d="M0,4.3"/>
			<path style="fill:#F1F1F2;stroke:#000000;stroke-width:1.7;stroke-linecap:round;stroke-linejoin:round;" d="M0,4.3"/>
			<path style="fill:#F1F1F2;stroke:#000000;stroke-width:1.7;stroke-linecap:round;stroke-linejoin:round;" d="M0,4.3"/>
			<path style="fill:none;stroke:#F1C400;stroke-width:0.9;stroke-linecap:round;stroke-linejoin:round;" d="M352,103.4
				c-0.2,0.5,0.1,2.3,0.1,2.3s0.1,1.6-1.3,2.8c-1,0.9-3.3,1.2-3.3,1.2 M368.1,103.4c0.2,0.5-0.1,2.3-0.1,2.3s-0.1,1.6,1.3,2.8
				c1,0.9,3.3,1.2,3.3,1.2"/>
			<path style="fill:#F1C400;" d="M360,112c-5.7-1.1-6.4-4.2-6.2-4.2c0.4,0.1,1.7,2.3,6.3,3.5c4.7-1.1,6-3.4,6.3-3.5
				c0.2,0-0.6,3.1-6.2,4.2H360z M353,103.2c0-1.2,2.3-2.2,5.3-2.5c0.6,0.2,1.2,0.6,1.7,1c0.5-0.4,1.1-0.7,1.7-1
				c3.1,0.3,5.3,1.3,5.3,2.5c0,2.9-3.7,4.2-7,4.2S353,106.1,353,103.2L353,103.2z M0,4.3"/>
			<path style="stroke:#000000;stroke-width:0.93;stroke-linecap:round;stroke-linejoin:round;" d="M366.9,107.9c0,0-0.7,4-6.8,5.2
				c-6.1-1.2-6.8-5.2-6.8-5.2s0.7,3.3,6.8,4.5C366.2,111.2,366.9,107.9,366.9,107.9z"/>
		</g>
	</g>
	<g>
		<path style="fill:#9BCBEB;" d="M358.9,184.7c12.2-0.2,64.6-7.9,64.6,56.2c0,61.3-63.5,85.7-63.5,85.7s-63.5-23.6-63.5-90.3
			C296.5,176.7,358.9,184.7,358.9,184.7L358.9,184.7z"/>
		<path style="fill:#9BCBEB;" d="M0,4.3"/>
		<path style="fill:#9BCBEB;" d="M0,4.3"/>
		<path style="fill:#9BCBEB;" d="M0,4.3"/>
		<path style="fill:#9BCBEB;" d="M0,4.3"/>
		<path style="fill:none;stroke:#41748D;stroke-width:0.78;stroke-linecap:round;stroke-linejoin:round;" d="M331.1,187.1h60.3
			 M323.1,190h75.7 M317.5,193h86.2 M313.4,195.9h94.2 M310,198.8h100.5 M307.3,201.8H413 M305.1,204.7H415 M303.2,207.7h113.4
			 M301.7,210.6h116.4 M300.4,213.6h118.9 M299.4,216.5h120.9 M298.5,219.4h122.6 M375.9,222.4h45.9 M297.8,222.4h46.2 M390.9,225.3
			h31.5 M297.3,225.3h31.9 M396.7,228.3h26.1 M296.9,228.3h26.3 M402.3,231.2h20.8 M296.7,231.2h20.7 M407.9,234.2h15.4
			 M296.6,234.2H312 M412,237.1h11.5 M296.5,237.1h11.7 M415.6,240h7.9 M296.6,240h7.6"/>
		<g>
			<path d="M321,242.5l0-5.7l7-2.4l7,1.7l0,6.5H321z"/>
			<path d="M0,4.3"/>
			<path d="M0,4.3"/>
			<path style="fill:none;stroke:#000000;stroke-width:1.09;stroke-linecap:round;stroke-linejoin:round;" d="M327.8,267.6l-7.4,1.4
				 M318.9,275.8l9-1.7l9.8,0.9 M327.6,270.9l-8,1.4 M335.5,252.8l-7.5-1.4l-7.6,2.1 M335.5,255.9l-7.5-1.3l-7.6,1.9 M320.3,250.3
				l7.6-2.2l7.5,1.4 M320.3,259.7l7.6-1.8l7.5,1.2 M320.4,262.7l7.6-1.6l7.6,1.1 M320.4,265.8l7.6-1.5l7.7,1 M332.8,246v3
				 M330,248.6v3.1 M332.8,252.3v3.1 M325.7,252.1v3.1 M325.7,258.4v3.1 M322.4,262.6v2.9 M322.4,250.1v2.9 M325.7,245.7v3.1
				 M328,240.1l11,2.4 M328,240.1l-11,3.5"/>
			<path style="fill:none;stroke:#000000;stroke-width:1.24;stroke-linecap:round;stroke-linejoin:round;" d="M328,277.7V232"/>
			<path d="M333.5,269.6l-3.4-0.4v-9.3c0-1.1,0.8-1.8,1.5-1.8c1.3,0,1.8,1.3,1.8,2.3L333.5,269.6z"/>
			<path d="M0,4.3"/>
		</g>
		<g>
			<path d="M352.4,238.2l0-5.9l7-2.2l7,1.9l0,6.2L352.4,238.2z"/>
			<path d="M0,4.3"/>
			<path style="fill:#BBBCBC;" d="M359.3,274v-46.3l-2.8,1v4.8l-3.5,1.1v-4.7l-4.7,1.6v7.6l3.4,3.7l0.1,21.9l-3.5,12.4
				C351.6,275.4,355.3,274.3,359.3,274L359.3,274L359.3,274z"/>
			<path style="fill:none;stroke:#000000;stroke-width:1.09;stroke-linecap:round;stroke-linejoin:round;" d="M358.9,266.6l-7.7,1.3
				 M368.7,271l-9.4-1l-9.3,1.6 M353.8,254.8v3 M357.1,260.5v3.1 M357.1,241.3v3.1 M353.8,245.5v3 M357.1,247.7v3.1 M364.2,248.2
				v3.1 M361.4,244.4v3.1 M364.2,241.9v3 M351.8,261.5l7.6-1.4l7.7,1.2 M351.7,255.2l7.6-1.7l7.5,1.4 M351.7,252.2l7.6-1.8l7.5,1.5
				 M351.7,249l7.6-1.9l7.5,1.6 M351.7,245.9l7.6-2l7.5,1.7 M366.9,258.1l-7.6-1.3l-7.6,1.6 M359.3,263.3l-7.5,1.4 M370.3,238.6
				l-11-2.8l-11,3.3 M366.9,242.4l-7.5-1.8l-7.6,2.1"/>
			<path style="fill:none;stroke:#000000;stroke-width:1.24;stroke-linecap:round;stroke-linejoin:round;" d="M359.3,274v-46.3"/>
			<path d="M364.9,265.5l-3.4-0.5v-9.3c0-1.1,0.8-1.8,1.5-1.8c1.3,0,1.8,1.3,1.8,1.8L364.9,265.5z"/>
			<path d="M0,4.3"/>
		</g>
		<g>
			<path d="M383.8,242.6l0-6.5l7-1.7l7,2l0,6.2L383.8,242.6z"/>
			<path d="M0,4.3"/>
			<path d="M0,4.3"/>
			<path style="fill:none;stroke:#000000;stroke-width:1.09;stroke-linecap:round;stroke-linejoin:round;" d="M381.2,275.4l9.4-1.3
				l9.6,1.1 M390.3,270.9l-8,1.1 M388.5,245.4v3.1 M385.1,249.6v3 M385.1,262.2v3 M388.5,258.3v3.1 M388.5,251.9v3.1 M395.6,252.5
				v3.1 M392.8,248.7v3.1 M395.6,246.2v3 M383.2,265.5l7.6-1.1l7.7,1.3 M383.1,256.1l7.6-1.5l7.5,1.6 M398.2,259.4l-7.5-1.5
				l-7.6,1.4 M398.2,253.1l-7.5-1.7l-7.6,1.6 M398.2,249.9l-7.5-1.8l-7.6,1.6 M398.3,246.9l-7.5-1.9l-7.6,1.7 M379.7,242.8l11-2.7
				l11,3 M390.7,267.6l-7.6,1.1 M383.2,262.4l7.6-1.3l7.6,1.4"/>
			<path style="fill:none;stroke:#000000;stroke-width:1.24;stroke-linecap:round;stroke-linejoin:round;" d="M390.7,277.7V232"/>
			<path d="M396.3,269.8l-3.3-0.5V260c0-1.1,0.8-1.8,1.5-1.8c1.3,0,1.8,1.3,1.8,1.8V269.8z"/>
			<path d="M0,4.3"/>
		</g>
		<g id="a">
			<path style="stroke:#000000;stroke-width:0.93;stroke-linecap:round;stroke-linejoin:round;" d="M332.5,217.3
				c-0.3-2-1.2-5.3-4.2-4.9c0.2,3.5,5.3,16.9-0.6,17.8l-0.2-0.2c0.1-6.1-6.8-12.7-5.5-17.9c0.9-3.5,3.9-5.4,7.8-5.4
				c7.2,0,8.3,7.9,3,10.7L332.5,217.3z"/>
			<path style="stroke:#000000;stroke-width:0.93;stroke-linecap:round;stroke-linejoin:round;" d="M0,4.3"/>
			<path d="M323.6,214.2c0.6-1.3,2.4-2.7,4-2.9c0.3,0,0.6,0.2,0.7,0.6h-0.2c-0.2,0-0.4,0-0.6,0.1c0,0.2,0,0.5,0.1,0.8
				c-0.8,0-2.1,0.3-3.4,1.8C323.7,215.1,323.3,214.8,323.6,214.2L323.6,214.2z"/>
			<path style="stroke:#000000;stroke-width:1.09;stroke-linecap:round;stroke-linejoin:round;" d="M324,214.6l3.8-1.4 M324.3,215.8
				l3.8-1.4 M324.6,217.1l3.8-1.6 M325.3,218.3l3.4-1.6 M326.5,219.4l2.7-1.3 M328.4,220.3l1.2-0.6 M0,4.3"/>
		</g>
		<g>
			<g id="a_1_">
				<path style="stroke:#000000;stroke-width:0.93;stroke-linecap:round;stroke-linejoin:round;" d="M364.3,213
					c-0.3-2-1.2-5.3-4.2-4.9c0.2,3.5,5.3,16.9-0.6,17.8l-0.2-0.2c0.1-6.1-6.8-12.7-5.5-17.9c0.9-3.5,3.9-5.4,7.8-5.4
					c7.2,0,8.3,7.9,3,10.7L364.3,213z"/>
				<path style="stroke:#000000;stroke-width:0.93;stroke-linecap:round;stroke-linejoin:round;" d="M31.8,0"/>
				<path d="M355.4,209.9c0.6-1.3,2.4-2.7,4-2.9c0.3,0,0.6,0.2,0.7,0.6H360c-0.2,0-0.4,0-0.6,0.1c0,0.2,0,0.5,0.1,0.8
					c-0.8,0-2.1,0.3-3.4,1.8C355.5,210.8,355.1,210.5,355.4,209.9L355.4,209.9z"/>
				<path style="stroke:#000000;stroke-width:1.09;stroke-linecap:round;stroke-linejoin:round;" d="M355.8,210.3l3.8-1.4
					 M356.1,211.5l3.8-1.4 M356.4,212.8l3.8-1.6 M357.1,214l3.4-1.6 M358.3,215.1l2.7-1.3 M360.2,216l1.2-0.6 M31.8,0"/>
			</g>
		</g>
		<g>
			<g id="a_2_">
				<path style="stroke:#000000;stroke-width:0.93;stroke-linecap:round;stroke-linejoin:round;" d="M396.1,217.3
					c-0.3-2-1.2-5.3-4.2-4.9c0.2,3.5,5.3,16.9-0.6,17.8l-0.2-0.2c0.1-6.1-6.8-12.7-5.5-17.9c0.9-3.5,3.9-5.4,7.8-5.4
					c7.2,0,8.3,7.9,3,10.7L396.1,217.3z"/>
				<path style="stroke:#000000;stroke-width:0.93;stroke-linecap:round;stroke-linejoin:round;" d="M63.6,4.3"/>
				<path d="M387.2,214.2c0.6-1.3,2.4-2.7,4-2.9c0.3,0,0.6,0.2,0.7,0.6h-0.2c-0.2,0-0.4,0-0.6,0.1c0,0.2,0,0.5,0.1,0.8
					c-0.8,0-2.1,0.3-3.4,1.8C387.3,215.1,386.9,214.8,387.2,214.2L387.2,214.2z"/>
				<path style="stroke:#000000;stroke-width:1.09;stroke-linecap:round;stroke-linejoin:round;" d="M387.6,214.6l3.8-1.4
					 M387.9,215.8l3.8-1.4 M388.2,217.1l3.8-1.6 M388.9,218.3l3.4-1.6 M390.1,219.4l2.7-1.3 M392,220.3l1.2-0.6 M63.6,4.3"/>
			</g>
		</g>
		<g>
			<path style="stroke:#000000;stroke-width:1.09;stroke-linecap:round;stroke-linejoin:round;" d="M0,4.3"/>
			<path style="fill:#EAAA00;stroke:#000000;stroke-width:0.93;stroke-linecap:round;stroke-linejoin:round;" d="M388.3,174.1
				l-28.1,10.7l-28.1-10.7l-9.8,0.6c-24.2,0-36.4,29.4-36.4,56.5c0,64.4,69.9,90.6,69.9,90.6s-55.9-33.4-52.9-90.5
				c1.5-29.3,12.2-35.2,15.1-36.9l18,4.4l24.2-12.6l24.2,12.6l17.6-4.4c2.9,1.7,13.6,7.6,15.1,36.9c3,57.2-52.9,90.5-52.9,90.5
				s69.9-26.2,69.9-90.6c0-27.1-12.2-56.4-36.4-56.4L388.3,174.1z"/>
			<path style="fill:#EAAA00;stroke:#000000;stroke-width:0.93;stroke-linecap:round;stroke-linejoin:round;" d="M0,4.3"/>
			<path style="fill:#EAAA00;stroke:#000000;stroke-width:0.93;stroke-linecap:round;stroke-linejoin:round;" d="M0,4.3"/>
			<ellipse style="fill:#EAAA00;" cx="360.3" cy="186" rx="5.6" ry="4.9"/>
			<path style="fill:#EAAA00;" d="M0,4.3"/>
			<path style="fill:none;stroke:#000000;stroke-width:0.93;stroke-linecap:round;stroke-linejoin:round;" d="M354.7,184.9
				c0-2.3,2.3-4.2,5.5-4.2c2.5,0,5.3,1.5,5.3,3.4 M365.8,187.3c0,2.1-2.9,4-5.6,4c-2.4,0-5.3-1.6-5.3-3.5 M0,4.3 M0,4.3"/>
		</g>
	</g>
	<g>
		<path style="fill:none;stroke:#000000;stroke-width:0.93;stroke-linecap:round;stroke-linejoin:round;" d="M0,4.3"/>
		<path style="fill:#4A783C;stroke:#000000;stroke-width:0.93;stroke-linecap:round;stroke-linejoin:round;" d="M284.7,301.1
			c-1.6,0-3.2,0-4.8,0.3c-4.6,0.7-9.2,5.1-16.2,5.3c-9.4,0.2-15.3-3.6-21.6-9.2c9.3-1.2,16.5-6,26.1-3.3c4.9,1.4,10.7,6.8,15.3,6
			L284.7,301.1L284.7,301.1z"/>
		<path style="stroke:#000000;stroke-width:0.45;stroke-linecap:round;stroke-linejoin:round;" d="M278.9,300c0,0-8.2,1.2-13.3,1.2
			c-8.2,0-20.9-3-20.9-3s12.6,3.4,20.9,3.5c5.1,0.1,13.3-1,13.3-1V300z"/>
		<path style="stroke:#000000;stroke-width:0.45;stroke-linecap:round;stroke-linejoin:round;" d="M0,4.3"/>
		<path style="stroke:#000000;stroke-width:0.78;stroke-linecap:round;stroke-linejoin:round;" d="M304.3,312.7c0-1.5,0.3-1,2.1-0.3
			c0.4,0.1,0.1,0.5-0.2,0.7c-1.1,0.6-2.1,1.9-2.5,1.6C302.4,313.9,303.2,313.8,304.3,312.7z"/>
		<path style="stroke:#000000;stroke-width:0.93;stroke-linecap:round;stroke-linejoin:round;" d="M260.2,206.4
			c-5.4,12.1-7.3,33.6-5.4,43.4c5.8,30,33.8,58.2,59.5,62.7c22.3,4,36,12.8,44.9,22.2c5.8,6.2,8.9,8.9,17.3,21.2
			c3.1,4.5-2.2,5.4-4.3,1.7c-5.9-10.1-9-14.6-17.1-22.6c-8.7-8.5-21.5-16.2-42.4-19.9c-24.9-4.4-54-32.6-59.8-62.6
			c-1.9-9.8-0.2-33.1,5.5-45.4L260.2,206.4"/>
		<path style="stroke:#000000;stroke-width:0.93;stroke-linecap:round;stroke-linejoin:round;" d="M297.3,311.4
			c-3.9,0.4-6.5,5.3-10.4,8.4c-7.2,5.7-18.6,6.3-25.9,2.5c-0.3-0.2-0.5-0.5-0.1-0.6c9.1-1.8,10.3-12.7,29.2-11.7
			c2.2,0.1,3.1,0.5,5.4,0.5L297.3,311.4z M282.9,260.6l0.1,0.1c0.1,4.9,4.3,11.5,5.3,16.9c0.9,4.6-0.4,8.5-2.4,12.8
			c-0.5,1.1-1.7,3.2-1.7,4.3c0,1,0.7,1.9,1.3,2.7c0.2,0.3,1.5,1.7,1.3,2c-5-3.8-2.1-1.3-4.1-4.9c-1.1-1.8-2.4-3.5-3.4-5.3
			C273.6,279.5,273.5,268.5,282.9,260.6L282.9,260.6z M319.1,313.5c-2.5-0.7-5-1.6-6.3-3.8c-2.3-3.7-1.8-6.7-4.1-10.6
			c-4.4-7.3-12.9-8.1-17.2-14.9c-0.9,6.3-1.8,15.6,9.2,22.3c3.9,2.3,9.8,2.9,11.2,3.8c1.4,1,2.3,2.3,2.3,2.3L319.1,313.5
			L319.1,313.5z"/>
		<path style="fill:#4A783C;stroke:#000000;stroke-width:0.93;stroke-linecap:round;stroke-linejoin:round;" d="M314.3,312.3
			c-0.8-0.8-1.7-1.5-2.7-2.1c-2.2-1.4-7.1-1.6-10.8-3.9c-5.1-3.3-7.8-6.4-9.2-11.9c-0.9-3.3-0.2-6,0-8.7c4.6,5.9,12.7,6.5,17,13.6
			c2.6,4.3,2.3,10.9,7.6,13.5L314.3,312.3z"/>
		<path style="stroke:#000000;stroke-width:0.78;stroke-linecap:round;stroke-linejoin:round;" d="M270.3,279.7c0,0-0.3,0.3-0.7,1.4
			c-0.2,0.5,1,2,0.9,1.5c-0.3-1.2,0.5-2.1,0.5-2.1L270.3,279.7L270.3,279.7z"/>
		<path style="fill:#4A783C;stroke:#000000;stroke-width:0.93;stroke-linecap:round;stroke-linejoin:round;" d="M272.2,288
			c0,0-3-0.6-4.3-1.1c-2.3-1-7.3-6.8-13.1-9.7c-8.3-4.2-15.6-3.3-23.8-5.4c2.3,7.7,6.8,12.3,15,15.6c7.4,2.9,19.5,0.4,20.8,0.5
			c1.3,0.1,5.5,1.6,5.5,1.6L272.2,288L272.2,288z"/>
		<path style="fill:#4A783C;stroke:#000000;stroke-width:0.93;stroke-linecap:round;stroke-linejoin:round;" d="M0,4.3"/>
		<path style="stroke:#000000;stroke-width:0.93;stroke-linecap:round;stroke-linejoin:round;" d="M262.7,276.3
			c-6.1-8.9-20.3-4.9-29.6-12.4c-4.5-3.6-6.5-9.1-7.4-14.2c-0.3-1.5-1-7.7-0.6-8.8c0.1-0.2,0.3-0.3,0.5-0.1c3.1,2.7,6.2,4.4,9.8,6.5
			c8.5,5.1,12,9.8,16.4,17.7C257.5,275.4,262.6,269.5,262.7,276.3L262.7,276.3z"/>
		<path style="stroke:#000000;stroke-width:0.45;stroke-linecap:round;stroke-linejoin:round;" d="M281.6,264.4
			c0,0-1.9,8.9-1.6,14.6c0.3,5.8,3.2,14.7,3.2,14.7h-0.6c0,0-3-8.9-3.2-14.7C279.3,273.3,281.6,264.4,281.6,264.4L281.6,264.4z"/>
		<path style="stroke:#000000;stroke-width:0.45;stroke-linecap:round;stroke-linejoin:round;" d="M0,4.3"/>
		<path style="fill:#8F6A2A;stroke:#000000;stroke-width:0.93;stroke-linecap:round;stroke-linejoin:round;" d="M253.9,269
			c1,1.1,4.9,2.6,6.3,2.8l1.4,3.1c-2-2.1-4.7-3.3-7.9-4.2L253.9,269z"/>
		
			<ellipse style="fill:#EAAA00;stroke:#000000;stroke-width:0.93;stroke-linecap:round;stroke-linejoin:round;" cx="244.8" cy="245.9" rx="4" ry="3.5"/>
		<path style="fill:#EAAA00;stroke:#000000;stroke-width:0.93;stroke-linecap:round;stroke-linejoin:round;" d="M0,4.3"/>
		
			<ellipse style="fill:none;stroke:#000000;stroke-width:1.24;stroke-linecap:round;stroke-linejoin:round;" cx="244.8" cy="245.9" rx="4.2" ry="3.7"/>
		<path style="stroke:#000000;stroke-width:0.93;stroke-linecap:round;stroke-linejoin:round;" d="M256.5,244.4c0,0,1.9-6.1,3.6-9.9
			c4.1-8.9,11.3-9.3,14.9-16.3c2.1,4.8,3.8,10.9,0.1,17.8c-4.2,7.9-15,12.6-15,12.6L256.5,244.4L256.5,244.4z"/>
		<path style="fill:#2C5234;stroke:#000000;stroke-width:0.93;stroke-linecap:round;stroke-linejoin:round;" d="M275,219.8
			c5.4,12.9-1.7,22.3-14.8,28.7l-3.4-4.2c2.2-8.3,3.9-12.4,11.1-18.3C270.7,223.7,273.2,222.9,275,219.8L275,219.8z"/>
		<path style="fill:#8F6A2A;stroke:#000000;stroke-width:0.93;stroke-linecap:round;stroke-linejoin:round;" d="M259.8,207
			c-5.4,12.4-7,33.3-5.1,42.9c5.8,30.1,33.8,58.3,59.6,62.9c22.3,3.9,35.6,12.8,44.8,21.9c4.3,4.3,7.7,8.4,10.6,12.4
			c2.4,3.4,4.5,7.1,6.6,10c0.3,0.5-2.4,1.5-2.7,1.1c-2.2-3.1-4.2-7-6.7-10.6c-2.9-4.1-7.7-8.2-12-12.7c-9.1-9.4-21.2-16.5-42.1-20.2
			c-24.8-4.4-53.6-32.2-59.3-62.2c-1.9-9.7-0.5-32.3,4.4-44.2L259.8,207L259.8,207z"/>
		<path style="fill:#8F6A2A;stroke:#000000;stroke-width:0.93;stroke-linecap:round;stroke-linejoin:round;" d="M0,4.3"/>
		<path style="stroke:#000000;stroke-width:0.62;stroke-linecap:round;stroke-linejoin:round;" d="M292.1,304.9
			c-6.3-1.9-12.9-1.4-18.2-6.2c-6.1-5.6-7.4-14.2-5.8-19.2c0.1-0.2,0.3-0.4,0.5-0.3c1.4,1.5,2.1,2.5,3.9,3.7
			c6.4,4.1,14.2,6.2,16.9,12.5c0.5,1.3,0.7,2.6,1.2,3.8c1.7,4.3,4.5,5.6,8.6,8L292.1,304.9L292.1,304.9z"/>
		<path style="fill:#4A783C;stroke:#000000;stroke-width:0.93;stroke-linecap:round;stroke-linejoin:round;" d="M297.1,307.3
			c-5.9-4.4-16.6-2.9-23-8.9c-4.7-4.4-6.7-11.4-5.5-17.4c5.7,4.4,12.2,5.7,17.4,10.6c6.1,5.9,0.9,9.8,12.3,15.5L297.1,307.3z"/>
		<path style="fill:#4A783C;stroke:#000000;stroke-width:0.93;stroke-linecap:round;stroke-linejoin:round;" d="M0,4.3"/>
		<path style="fill:#4A783C;stroke:#000000;stroke-width:0.93;stroke-linecap:round;stroke-linejoin:round;" d="M0,4.3"/>
		<path style="fill:#4A783C;stroke:#000000;stroke-width:0.93;stroke-linecap:round;stroke-linejoin:round;" d="M0,4.3"/>
		<path style="fill:#4A783C;stroke:#000000;stroke-width:0.93;stroke-linecap:round;stroke-linejoin:round;" d="M0,4.3"/>
		<path style="stroke:#000000;stroke-width:0.93;stroke-linecap:round;stroke-linejoin:round;" d="M235,215.6
			c7.6,5.6,9.8,8.2,12.1,16.9c0.3,1,1.7,5.4,2,6c0.7,1.3,2.3,1.9,3.2,3c0.1,0.1,0.4,2.4,0.4,2.7c0,0.2-0.1,0.2-0.3,0.1
			c-1.2-1-1.8-2.5-3.2-3.4c-1.2-0.8-5.2-1.5-7-2.2c-4.5-1.6-8.1-4.6-10.7-8.2c-3.4-4.7-3.8-11.1-3-16.4c0.2-1.2,0.4-2.7,0.9-3.9
			c0.1-0.2,0.2-0.1,0.3,0C231.6,212.7,232.8,213.9,235,215.6z"/>
		<path style="stroke:#000000;stroke-width:0.93;stroke-linecap:round;stroke-linejoin:round;" d="M0,4.3"/>
		<path style="fill:#8F6A2A;stroke:#000000;stroke-width:0.93;stroke-linecap:round;stroke-linejoin:round;" d="M298.2,309.9
			c0,0-0.5,0.7-2.7,0.7l1.1,1l0.7-0.2c2.2-0.4,2.8-0.3,4.2,0.2"/>
		<path style="fill:#2C5234;stroke:#000000;stroke-width:0.93;stroke-linecap:round;stroke-linejoin:round;" d="M295.4,310.6
			c-2.2,0-9.3-1-14.9,0.3c-8.5,2-12,9-18.4,11.5c9.7,3.7,16.8,2.8,24.9-2.9c3.3-2.3,5.3-6.7,9.6-7.8L295.4,310.6z"/>
		<path style="fill:none;stroke:#000000;stroke-width:0.93;stroke-linecap:round;stroke-linejoin:round;" d="M364.9,346
			c0,0,0.1-1.1,1.5-1.5c1.2-0.4,1.9,0.5,1.9,0.5"/>
		<path style="fill:#8F6A2A;stroke:#000000;stroke-width:0.78;stroke-linecap:round;stroke-linejoin:round;" d="M306.4,312.6
			c0,0-0.8,0.4-1,0.6c-0.5,0.4-1.2,0.7-1.4,1l-0.8-0.1c0.5-0.4,1.1-1,1.4-1.3c0.2-0.2,0-0.9,0-0.9L306.4,312.6L306.4,312.6z"/>
		<path style="fill:#4A783C;" d="M258.8,206.9c1.5-3.8,1.5-8,2.3-12c1.8-8.3,4.5-11.1,11.3-16.6c2.2-1.8,4.4-3.1,6.8-4.6
			c0.4,2.4,0.6,4.4,0.3,6.8c-1.4,11.8-7,14.6-16.6,21.8C261.1,203.6,260.6,205.6,258.8,206.9L258.8,206.9z"/>
		<path style="fill:#8F6A2A;" d="M259.2,205.9c0.3-0.3,0.5-0.5,0.6-0.5c0.1,0,0.1,0.2,0.1,0.5c-0.3,0.3-0.6,0.7-1,1
			C258.9,206.6,259.1,206.3,259.2,205.9L259.2,205.9z"/>
		<path style="fill:none;stroke:#000000;stroke-width:0.93;stroke-linecap:round;stroke-linejoin:round;" d="M258.8,206.9
			c1.5-3.8,1.5-8,2.3-12c1.8-8.3,4.5-11.1,11.3-16.6c2.2-1.8,4.4-3.1,6.8-4.6c0.4,2.4,0.6,4.4,0.3,6.8c-1.4,11.8-7,14.6-16.6,21.8
			C261.1,203.6,260.6,205.6,258.8,206.9L258.8,206.9z"/>
		<path d="M259.4,207.4c0,0,0.4-0.9,0.9-2.1c0.5-1.2,0.4,0.3,0.4,0.3l-0.3,1.3L259.4,207.4z"/>
		<path d="M0,4.3"/>
		<path d="M0,4.3"/>
		<path style="fill:#8F6A2A;" d="M253.6,229.8c0,0,0.2-2-0.1-3.1c-0.2-0.6-0.6-1.5-0.6-1.5s1.1,0.5,1.4,0.5
			C254.5,225.6,253.6,229.8,253.6,229.8L253.6,229.8z M257.3,210.7c-0.5,0.2-2.2-1.8-2.3-3.2c-0.2-1.3-0.8-0.8-0.7,0.3
			c0.1,1.9,2.7,4,2.4,5.2C257.1,211.9,257.4,211.2,257.3,210.7L257.3,210.7z"/>
		<path style="fill:none;stroke:#000000;stroke-width:0.78;stroke-linecap:round;stroke-linejoin:round;" d="M257.3,210.7
			c-0.5,0.2-2.2-1.8-2.3-3.2c-0.2-1.3-0.8-0.8-0.7,0.3c0.1,1.9,2.4,3.6,2.1,4.8"/>
		<ellipse style="fill:#EAAA00;" cx="253.3" cy="205.3" rx="4" ry="3.5"/>
		<path style="fill:#F1C400;" d="M253.5,205c-1.1-0.7-1.5-1.7-1.1-2.3c0.5-0.6,1.8-0.6,2.9,0.1c1.1,0.7,1.5,1.7,1.1,2.3
			C255.9,205.7,254.6,205.6,253.5,205L253.5,205z"/>
		
			<ellipse style="fill:none;stroke:#000000;stroke-width:1.31;stroke-linecap:round;stroke-linejoin:round;" cx="253.3" cy="205.4" rx="4.1" ry="3.7"/>
		<ellipse style="fill:#EAAA00;" cx="273.6" cy="277.4" rx="4.1" ry="3.6"/>
		<path style="fill:#F1C400;" d="M273.1,277c-0.9-1.1-0.9-2.4-0.1-2.9s2.2-0.1,3.1,1c0.9,1.1,0.9,2.4,0.1,2.9
			C275.4,278.5,274,278.1,273.1,277z"/>
		
			<ellipse style="fill:none;stroke:#000000;stroke-width:1.4;stroke-linecap:round;stroke-linejoin:round;" cx="273.6" cy="277.4" rx="4.3" ry="3.8"/>
		<path style="fill:none;stroke:#000000;stroke-width:1.4;stroke-linecap:round;stroke-linejoin:round;" d="M0,4.3"/>
		<path style="fill:#8F6A2A;" d="M376,358.9c-2.2,0.5-4-2.1-3.4-2.7c0.5-0.5,1.7-0.6,2.8-0.1C377.3,357,377.2,358.7,376,358.9z"/>
		<path style="fill:none;stroke:#000000;stroke-width:0.93;stroke-linecap:round;stroke-linejoin:round;" d="M376,358.9
			c-2.2,0.5-4-2.1-3.4-2.7c0.5-0.5,1.7-0.6,2.8-0.1C377.3,357,377.2,358.7,376,358.9z"/>
		<path style="fill:none;stroke:#000000;stroke-width:0.93;stroke-linecap:round;stroke-linejoin:round;" d="M0,4.3"/>
		<path style="fill:none;stroke:#000000;stroke-width:0.93;stroke-linecap:round;stroke-linejoin:round;" d="M254.9,271
			c0,0-1-0.4-0.5-1.2"/>
		<path style="fill:none;stroke:#000000;stroke-width:0.93;stroke-linecap:round;stroke-linejoin:round;" d="M0,4.3"/>
		<ellipse style="fill:#EAAA00;" cx="283.3" cy="307.3" rx="4.1" ry="3.6"/>
		<path style="fill:#EAAA00;" d="M0,4.3"/>
		
			<ellipse style="fill:none;stroke:#000000;stroke-width:1.4;stroke-linecap:round;stroke-linejoin:round;" cx="283.3" cy="307.3" rx="4.3" ry="3.8"/>
		<path style="fill:#8F6A2A;" d="M297.7,309c0,0,0.4,0.2,0.6,0.4c0.2,0.2,0.3,0.5,0.2,0.7c0,0,0.1,0.2,0.4,0.4
			c0.4,0.3,1,0.3,1.6,0.3c0.8,0.1,1.3,0.2,1.8,0.3c0.5,0.1,1.2,0.4,1.2,0.4l-3.1-1.3L297.7,309L297.7,309z"/>
		<path style="stroke:#000000;stroke-width:0.45;stroke-linecap:round;stroke-linejoin:round;" d="M268,287.8c0,0-7.7-1.8-17.5-5
			c-9.8-3.2-16.4-8.6-16.4-8.6s6.6,4.9,16.4,8.1c9.8,3.2,17.5,4.7,17.5,4.7V287.8z"/>
		
			<ellipse style="fill:#EAAA00;stroke:#000000;stroke-width:1.24;stroke-linecap:round;stroke-linejoin:round;" cx="301.2" cy="317.4" rx="4.4" ry="3.9"/>
		<path style="fill:#EAAA00;stroke:#000000;stroke-width:1.24;stroke-linecap:round;stroke-linejoin:round;" d="M0,4.3"/>
		
			<ellipse style="fill:none;stroke:#000000;stroke-width:0.93;stroke-linecap:round;stroke-linejoin:round;" cx="301.2" cy="317.4" rx="4.1" ry="3.6"/>
		<path style="fill:#8F6A2A;" d="M260.6,268c0,0,0.5,1.3,0.8,2c0.3,0.6,0.8,1.5,0.8,1.5s-1,0.2-1,0.1c0-0.1-0.8-3.6-0.8-3.6
			L260.6,268z"/>
		<path style="fill:#8F6A2A;" d="M0,4.3"/>
		<path style="fill:#8F6A2A;" d="M259.1,266.9l0.2,0.9c0.3,0.3,0.6,0.6,0.8,0.9l1.3,0.7l-0.7-2.1L259.1,266.9L259.1,266.9z"/>
		<path style="fill:#8F6A2A;" d="M0,4.3"/>
		<path style="stroke:#000000;stroke-width:0.45;stroke-linecap:round;stroke-linejoin:round;" d="M260.1,266.8c-3-4-3.6-6-4.9-10.1
			c-2.4-7.7-2.4-17.1-0.2-20.6c-2.2,3.4-2.7,12.8-0.5,20.6c1.2,4.4,2.2,6.7,5,10.7L260.1,266.8L260.1,266.8z"/>
		<path style="fill:none;stroke:#000000;stroke-width:0.93;stroke-linecap:round;stroke-linejoin:round;" d="M259.7,268.2
			c-0.7-0.8,0.2-2,1.1-0.9"/>
	</g>
	<g>
		<path style="fill:none;stroke:#000000;stroke-width:0.93;stroke-linecap:round;stroke-linejoin:round;" d="M0,4.3"/>
		<path style="stroke:#000000;stroke-width:0.93;stroke-linecap:round;stroke-linejoin:round;" d="M467.2,222.6
			c1.2-0.7,1.6-2.5,1.7-3.6c0.1-2.1-1.8-3.9-1.9-5.8c-0.1-1.2,1.1-1.3,1.4-2.3c0.2-0.9-3.6-3.9-2.5-6.2c0.7-1.7,2.2-0.9,2.8-2.6
			c0.6-1.9-1.3-4.5,1.2-5.8c1.2-0.6,2.9,0.3,3.5-1.4c0.5-1.7,0.1-5,2.8-5.2c3.6-0.3,4.2,6.2,4.8,6.7c0.7,0.5,1.6-0.4,2.6-0.1
			c2.7,0.9-0.2,5.2-1.1,6.7c6.7,0.2,0.6,3.9-0.5,5.6c0.3,0.6,2,0.8,2.3,1.7c0.2,0.6-0.3,1.1-0.8,1.5c-1.5,1.2-3.8,1.6-5.4,2.6
			l-0.2,0.1c-0.1,0.5,1.7,2.1-0.6,2.8c-4.3,1.3-7,2.1-8.7,5.9c-0.4,1-0.6,4.2-0.7,3.8L467.2,222.6L467.2,222.6z"/>
		<path style="fill:#4A783C;stroke:#000000;stroke-width:0.93;stroke-linecap:round;stroke-linejoin:round;" d="M467.9,225.6
			l-0.7-2.9c0.2-0.1,0.4-0.2,0.5-0.4c0.9-0.7,1.3-2.8,1.4-3.8c0.2-2.2-1.7-3.5-1.8-5.4c-0.1-1,1.2-1.3,1.4-2.2
			c0.3-1.1-3.4-4-2.4-6.1c0.7-1.5,2.2-0.7,2.9-2.7c0.6-1.7-1.1-4.7,1-5.7c1.2-0.6,3,0.4,3.6-1.6c0.5-1.5,0.1-4,2.5-4.2
			c3.2-0.3,3.7,5.4,4.5,6c0.9,0.6,1.7-0.2,2.6,0.1c1.3,0.5,1,2.1,0.7,3c-0.4,1.1-1,2-1.5,3c-0.1,0.2-0.1,0.4,0.2,0.5
			c0.8,0.3,1.6,0.2,1.9,1.1c0.4,1.3-1.9,2.8-2.4,3.8c-0.4,0.8,1.2,1,1.4,2.1c0.3,1.5-5.5,3.2-6,4c-0.1,1,1.5,2-0.4,2.6
			C472.4,218.2,467.8,220.8,467.9,225.6L467.9,225.6z"/>
		<path style="stroke:#000000;stroke-width:0.45;stroke-linecap:round;stroke-linejoin:round;" d="M467.5,223c0,0,5.9-9.2,7.6-15.8
			c1.2-4.5,1.7-11.9,1.7-11.9s-0.3,7.3-1.3,11.8c-1.5,6.9-7.6,16.6-7.6,16.6L467.5,223L467.5,223z"/>
		<path style="stroke:#000000;stroke-width:0.45;stroke-linecap:round;stroke-linejoin:round;" d="M0,4.3"/>
		<path style="fill:#8F6A2A;stroke:#000000;stroke-width:0.78;stroke-linecap:round;stroke-linejoin:round;" d="M468.3,233.8
			c0.5-1.3,0.8-1.8,2-3.1c0.6-0.6,2.1-1.5,2.1-1.5l-2-0.6c0,0-0.1,0.8-0.7,1.4c-0.7,0.7-1.8,1.7-1.8,1.7L468.3,233.8L468.3,233.8z"
			/>
		<path style="stroke:#000000;stroke-width:0.93;stroke-linecap:round;stroke-linejoin:round;" d="M460.5,200.4
			c0,0,2.4,4.3,4.6,10.9c4.3,13.7,4.9,31.4,3,41.2c-5.8,30-36.6,58.1-61.5,62.5c-20.9,3.7-33.2,11.5-41.9,20
			c-6.8,6.9-9.4,11.1-15.6,22.1c-1.9,3.4-8.1,4.1-5.4-0.7c4.8-7.5,9.4-14.5,16.5-21.9c9.2-9.2,22.4-18.2,44.8-22.1
			c25.7-4.5,55.3-32.6,61.1-62.6c1.9-9.8,1.3-31.1-5-44.7L460.5,200.4"/>
		<path style="stroke:#000000;stroke-width:0.85;stroke-linecap:round;stroke-linejoin:round;" d="M447.5,194.8c0,0-7.2-0.2-3.8-5.1
			c-3.3-1.4-7.3-4-3-6.2c-0.2-0.7-2.7-1.4-2.5-3.2c0.1-1,1.5-1.4,1.7-1.9c-0.5-0.8-3.8-4.5-2.6-5.6c1.8-1.7,5.6,0.3,7.3,1.3
			c0.4-0.2,1.1-0.7,1.5-1c2.5-1.5,2.7,2.1,3.4,3.2c0.3,0.5,2.3-0.9,3.7-0.3c2.3,1.1,1.3,3.7,1.9,5.5c0.6-0.1,1.4-0.5,2-0.5
			c3.8-0.2,1.7,5.6,1.6,7.5c6-0.8,1.4,4.7,1.7,9.3c0.1,1.3-0.4,4.1-1.5,3C455.2,197.6,445.3,198.5,447.5,194.8L447.5,194.8z"/>
		<path style="stroke:#000000;stroke-width:0.98;stroke-linecap:round;stroke-linejoin:round;" d="M446.7,214
			c-1.3-0.1-4.1-0.4-4.7-1.5c-0.9-1.7,1.4-2.3,1.3-2.4c-0.8-0.9-4.5-1.5-4.5-2.9c0-0.9,1.7-1.6,1.4-2.4c-0.4-1.1-2.9-2.9-2-4.2
			c1.2-1.5,3.6,0.5,4.8,0.5c0.6,0,1.4-1.1,2.4-1.1c1.6,0,2.6,2.7,3.2,2.6c0.7-0.1,1.1-0.9,1.7-1.1c2-0.5,2.6,1.4,3,2.6
			c0.9,2.4,1.9-0.5,3.4,0.1c3.8,1.5,2.2,8,3.3,8.8c0.7,0.5,1.9,0.4,2.4,1.1c1,1.4-0.4,4.3,0.4,6.9c0.3,1,4,4.1,4,4.1s0.6,3,0.5,2.9
			c-1.7-2.8-2-3.5-5-5.5c-2.9-1.9-7.2-0.4-8.2-1.4c-1.1-1.1,0.2-2.1-0.4-2.6c-0.2-0.2-3.6,0.1-4.1,0.1
			C447.5,218.3,445.3,216.4,446.7,214L446.7,214z"/>
		<path style="fill:#4A783C;stroke:#000000;stroke-width:0.98;stroke-linecap:round;stroke-linejoin:round;" d="M466.7,224.9
			l0.4,1.9c-6.1-7.7-11.1-4.6-12.4-5.9c-1-1,0.3-1.6-0.5-2.4c-0.9-0.8-6,0.9-7.5-2.6c-0.3-0.7,0.8-1.9,0.2-2c-1.3-0.2-3.1-0.2-4-1.2
			c-0.4-0.4-0.7-1-0.2-1.5c0.3-0.2,0.5-0.4,0.8-0.7c0.8-1-4-1.8-4-3.4c0-0.9,1.3-1.2,0.8-2.3c-0.4-1-1.9-2.5-1.1-3.6
			c0.9-1.3,2.9,0.3,4.1,0.4c0.6,0.1,1.5-1.1,2.4-1.1c1.5,0,2.1,2.4,3.2,2.3c1.1-0.1,2.3-1.6,3.5-0.3c0.8,0.9,0.8,3.6,2.8,2.8
			c0.5-0.2,1.2-0.7,1.7-0.5c3.1,1.2,2.3,5.6,3.1,8c0.4,1.3,1.9,1,2.4,1.8c0.3,0.4,0.5,0.8,0.5,1.3c0,0.4,0,0.8-0.1,1.1
			c-0.2,1.5-0.1,2.9,0.4,4.4C463.4,222.3,465.3,224.5,466.7,224.9L466.7,224.9z"/>
		<path style="stroke:#000000;stroke-width:0.93;stroke-linecap:round;stroke-linejoin:round;" d="M468.1,248.4l0.3-0.2
			c1.1,0,1.8-2,2.2-2.7c1.4-3.1-1.1-8.3,3-8.3c0.2-1.3,0.5-4.5,1.8-5.3c1-0.6,1.9,0.2,2.8-0.1c0.7-1.2,1-3.5,3-3.8
			c0.6-0.1,1.9,0.8,2.2,0.7c0.5-0.2,1.2-2.7,2.7-3.1c1-0.2,1.9,0.7,2.2,0.5c0.6-0.3,1.1-0.8,1.6-1.3c2.1-1.9,4.6-2,4.5,0.6
			c0,0.9-0.7,2.2-1.1,3c-0.1,0.3,1.3,0.9,1.5,1.2c0.7,1.2-1.8,2.7-2.4,3.6c0,0.2,1.4,0.4,1.5,0.6c1.7,2.1-3.2,4.4-4.5,5.7
			c-0.5,0.5,1.2,1.6,1,2.5c-0.9,3.5-7.1,2.2-8.4,2.8c-0.5,0.2-0.6,2.1-1,2.5c-1.7,2.1-8.6-0.5-10.1,0.8c-1.4,1.2-1.9,3.2-2.8,4.6
			c-0.2,0.3-0.6,0.2-0.5-0.1L468.1,248.4L468.1,248.4z"/>
		<path style="fill:#4A783C;stroke:#000000;stroke-width:0.93;stroke-linecap:round;stroke-linejoin:round;" d="M468.5,248.5
			c1.3-0.1,2.1-2.1,2.4-3c0.5-1.1,0.7-2.3,0.8-3.5c0.1-1.8-1.4-4.9,1.8-4.5c0,0,0.7-4.2,2-5.1c0.9-0.6,2.5-0.3,2.8-0.5
			c0.9-0.6,0.6-3.1,2.5-3.5c0.8-0.1,2.1,0.5,2.7,0.3c0.7-0.3,1-2.2,2.4-2.6c0.9-0.2,2,0.6,2.6,0.3c1.2-0.7,2.1-2.7,3.8-2.3
			c1.9,0.5,1.2,3,0.8,4.1c-0.4,0.7,0.6,1,1,1.6c0.6,1-1.5,2.7-1.7,3.6c-0.1,0.3,0.8,0.8,1.1,1c1.4,1.3-2.2,3.7-3.2,4.4
			c-0.3,0.2-0.9,0.7-1,1c-0.1,0.7,0.8,1.3,0.6,2.2c-0.8,3.1-5.7,2.2-7.6,2.7c-0.8,0.2-0.9,1.6-1.4,2.2c-1.5,1.9-8.3,0.1-10.1,1.5
			c-1.1,0.9-1.9,2.4-2.5,3.5L468.5,248.5L468.5,248.5z"/>
		<path style="fill:#4A783C;stroke:#000000;stroke-width:0.93;stroke-linecap:round;stroke-linejoin:round;" d="M0,4.3"/>
		<path style="stroke:#000000;stroke-width:0.93;stroke-linecap:round;stroke-linejoin:round;" d="M471.3,229.8
			c-1.9-1-1.6-6.1,1.1-8.4c2.3-2,8.7,3.8,6.8,6.2C478.1,228.9,473.3,230.8,471.3,229.8L471.3,229.8z"/>
		<path style="stroke:#000000;stroke-width:0.93;stroke-linecap:round;stroke-linejoin:round;" d="M479.2,226.7
			c-1.2,0.8-3.8-0.3-5.2-1.5c-1.3-1.1-2-2.8-1.3-3.6c1.5-1.5,5.6-3.8,7.6-2.3C482.3,220.8,480.3,226,479.2,226.7z"/>
		<path style="fill:#8F6A2A;stroke:#000000;stroke-width:0.93;stroke-linecap:round;stroke-linejoin:round;" d="M478.9,227.4
			c-1.1,1.3-5.6,2.9-7.3,2c-1.5-0.8-1.5-5.4,1.2-7.7C474.5,220.2,480.8,225.1,478.9,227.4L478.9,227.4z"/>
		<path style="fill:#EAAA00;stroke:#000000;stroke-width:1.09;stroke-linecap:round;stroke-linejoin:round;" d="M479.9,219.8
			c1.6,1.2,0.1,5.9-0.9,6.6c-0.8,0.6-3.2-0.2-4.6-1.4c-1.3-1.1-1.9-2.7-1.4-3.2C474.5,220.2,478.3,218.6,479.9,219.8L479.9,219.8z"
			/>
		<path style="fill:#EAAA00;stroke:#000000;stroke-width:1.09;stroke-linecap:round;stroke-linejoin:round;" d="M0,4.3"/>
		<path style="stroke:#000000;stroke-width:0.86;stroke-linecap:round;stroke-linejoin:round;" d="M444.4,231.7
			c-0.5-1.4-3-2.4-3.3-4.1c-0.1-0.8,0.8-2.1,0.8-2.3c-0.4-1.2-2.8-2.8-1.6-4.4c1.5-2,3.7,0.1,5.6,0.5c0.3-0.1,0.4-1,1.1-1.1
			c2.8-0.7,5.2,3.4,6,3.6c2.2,0.7,3.9-2.7,5.1,4.7c0.9-0.2,2.2-0.4,2.8,0.4c2.3,3.5,1,11,5.6,13l0.2,0.3c-0.1,0.3-0.2,2.5-0.9,1.8
			c-1.2-1.2-2.1-3-4.1-3.3c-2.2-0.3-11.5,2.7-11.8-1.1c0-0.4,0.7-1,0.4-1.5c-0.5-1-6.2-0.7-6.8-3.4
			C443.2,233.7,444.1,232.7,444.4,231.7z"/>
		<path style="fill:#4A783C;stroke:#000000;stroke-width:0.86;stroke-linecap:round;stroke-linejoin:round;" d="M465.8,243.7
			c-3.4-4.7-5-2.9-10.2-2.6c-1.2,0.1-5.2,0.2-5.2-1.5c0-0.5,0.5-0.6,0.1-1.3c-0.8-1.3-5.5-1.1-6.2-3.5c-0.4-1.3,0.4-2.9,0.2-3.4
			c-0.7-1.6-3.6-3-2.7-5.1c0.1-0.3,0.3-0.5,0.4-0.8c0.2-0.9-1.9-3-1-4.3c1.1-1.6,3-0.3,4.4,0.2c1,0.4,0.8-0.4,1.5-0.6
			c1.2-0.3,2.7,0.7,3.5,1.3c0.4,0.4,1.9,1.9,2.2,2c0.8,0.3,2.3,0,3.3,0.3c0.9,0.3,1.5,3.5,1.6,4.4l0.2,0.1c0.8-0.2,2-0.2,2.5,0.5
			c2.2,3.1,1.1,10.6,5.8,12.9L465.8,243.7L465.8,243.7z"/>
		<path style="stroke:#000000;stroke-width:0.45;stroke-linecap:round;stroke-linejoin:round;" d="M465.6,243.5
			c0,0-6.2-9.1-11.6-13.8c-3.4-3-9.6-7-9.6-7s6.2,4.1,9.6,7.3c4.9,4.6,10.3,13.5,10.3,13.5L465.6,243.5L465.6,243.5z"/>
		<path style="stroke:#000000;stroke-width:0.93;stroke-linecap:round;stroke-linejoin:round;" d="M458.9,257.4
			c0.3,0.1,0.9,0,1.2,0.1c2.7,0.7-1.2,7.7-1.4,9.2c-0.1,0.4,0.2,1.7,0.2,1.8l-0.6,3c-0.1,0.3,0.1-3-0.5-3.8c-1-1.5-4-0.7-5.5-0.9
			c-2.6-0.4-0.6-2.3-1.7-2.7c-1.8-0.7-5.7,0.3-6.1-2.1c-0.2-0.9,0.5-1.9,0.4-2.6c-1.3-1.3-4.7-1.6-4.3-4c0.1-0.8,1.5-1.7,1.4-2.2
			c0-0.6-2.8-2.4-2.2-3.8c0.4-0.8,1.2-0.8,1.3-1.3c0.1-0.5-2.2-3.6-0.3-4.4c2.4-1,4.3,1.3,6,1.5c0.9,0.1,1.6-1.2,2.9-0.9
			c1.4,0.3,1.5,1.9,2.2,2.8c0.6,0,1.2-0.6,1.9-0.6c2.9-0.3,2.4,3.8,3.2,5.2c0.1,0.2,1-0.3,1.3-0.2c0.6,0.2,0.8,0.8,0.9,1.3
			C459.5,254.4,458.6,256,458.9,257.4L458.9,257.4z M477.1,263.5c0.5,4.8-6.8,0.1-10.9,2c-1.2,0.6-4,2.5-3.8,2l1-2.3
			c0.3-0.2,1.4-0.3,1.8-0.4c0.9-0.4,2.1-1.6,2.9-2.9c1.1-1.8,0.4-3.9,1-5.3c1-2.1,2.7-0.2,3.4-0.6c1.3-0.8,1.5-5,4.7-5.1
			c0.8,0,0.8,0.1,1.4,0.4c0.7-0.8,0.9-1.9,2.2-2.2c0.9-0.3,1.6,0.5,2.4,0.5c0.6-0.4,3-3.9,4.9-3.5c2.2,0.5,0.9,3.9,0.7,5.1
			c0.2,0.2,0.5,0.2,0.9,0.7c1.5,1.8-0.9,3.7-1.7,5.1c0.2,0.4,0.8,0.4,1,0.9c0.5,2.2-4.1,2.4-4.6,3c0,0.2,0.4,0.4,0.3,0.9
			C484.5,264.5,477.5,263.7,477.1,263.5L477.1,263.5z M429.8,279.3c0.1-0.9-2-2.3-1.1-3.5c0.7-1,2.4-0.5,3.1-1
			c0.6-1.6-0.4-3.8,2.2-4.3c1.3-0.2,2,0.9,2.4,1.8c0.2,0.3,0.7,2.3,0.9,2.4c0.5,0.2,1.7-0.6,2.4-0.6c1.7,0.2,0.4,3,0.9,3.8
			c0.4,0.6,1.3,0.1,1.9,0.3c1.7,0.5,0.4,3.1,0.4,4.1c0,0.7,1.3,0.9,1.4,2c0.2,2-1.8,2.2-2.9,3.5c-0.2,0.2-0.2,0.3,0,0.5
			c1.9,2,0.8,3-1.3,4.4c-2.5,1.6-6.3,2.6-4.9,6c0,0-1.3,2.3-1.4,1.5c-0.2-1.1,0.4-2.2,0.1-3.4c-0.4-1.3-4.8-3-5-4.4
			c-0.1-1,1.2-1.1,1.3-2c0.1-1-3.9-1.9-3.4-3.9c0.3-1.1,1.5-1.4,2.1-2.2c-0.1-0.8-4.5-3.8-0.6-4.6
			C428.6,279.6,429.4,279.6,429.8,279.3L429.8,279.3z"/>
		<path style="fill:#4A783C;stroke:#000000;stroke-width:0.93;stroke-linecap:round;stroke-linejoin:round;" d="M433.6,300
			c0.2-1,0.3-2.3,0-3.3c-0.4-1.4-3.9-3.1-4-4.3c-0.1-0.8,0.6-1,0.7-1.9c0.2-1.3-3.4-2.1-3-3.9c0.3-1.1,1.8-1.6,1.7-2.6
			c-0.1-0.5-1.9-1.9-1.5-3.2c0.3-1.1,1.7-0.7,2.5-1.2c0.9-0.6-1.7-2.5-0.9-3.6c0.6-0.9,2.4-0.5,2.9-1.1c0.5-0.7-0.4-3.4,2.1-3.9
			c2-0.4,2.4,3.3,3.2,3.9c0.8,0.5,1.1-0.4,2.4-0.3c1.2,0.1,0.3,2.8,0.8,3.6c0.5,0.9,1.4,0.2,2.2,0.4c1.4,0.4,0,3,0,3.9
			c0,0.9,1.1,0.9,1.2,2c0.2,1.8-1.8,2.2-2.8,3.3c-0.3,0.3-0.3,0.6,0,0.9c1.8,1.7,0.5,2.8-1.2,3.9c-2.8,1.8-6,2.7-4.6,6.3L433.6,300
			L433.6,300z"/>
		<path style="stroke:#000000;stroke-width:0.93;stroke-linecap:round;stroke-linejoin:round;" d="M478,271.5
			c1.4-0.3,3.3-1.5,4.6-0.6c2.5,1.8-1.9,4.9-2.7,6.5c0,0.6,1.4,0.8,1.3,2c-0.2,2.1-3.4,1.7-4.9,2.4c-0.1,0.4,0.6,0.7,0.6,1.1
			c0,3-5.2,1.9-7.2,2.4c-0.6,0.2,0.4,1.8-1.8,2.5c-1,0.3-2.4,0-3.3-0.2c-1.2-0.2-2.4-0.4-3.6-0.3c-0.5,0-1,0.1-1.5,0.1
			c-0.2,0-0.4-0.1-0.3-0.3l5.7-14.7c0.1-0.3,2.6,0.5,3.1,0.5c0.6,0,1.2-1.1,1.6-1.5c1.5-1.2,2.2,0.5,3.4,0.5
			C473.8,272.1,476.3,267.7,478,271.5L478,271.5z"/>
		<path style="stroke:#000000;stroke-width:0.78;stroke-linecap:round;stroke-linejoin:round;" d="M449.8,273.9
			c0-0.6-1.5,1.3-1.5,1.3s1,0.9,1.7,1.4c0.8,0.6,2.3,1.5,2.3,1.5l0.1-0.9C452.5,277.2,450,275.7,449.8,273.9L449.8,273.9z"/>
		<path style="stroke:#000000;stroke-width:0.93;stroke-linecap:round;stroke-linejoin:round;" d="M448.3,267.9
			c0.4,0.5,0.1,1.1-0.1,1.6c-0.3,0.5-0.5,0.8-0.9,1.3c-1.3,1.5-4.2,2.9-5.5,2.1c-1.2-0.7-3.6-7-1.7-8
			C442,263.9,446.7,265.8,448.3,267.9L448.3,267.9z"/>
		<path style="stroke:#000000;stroke-width:0.93;stroke-linecap:round;stroke-linejoin:round;" d="M0,4.3"/>
		<path style="fill:#8F6A2A;stroke:#000000;stroke-width:0.93;stroke-linecap:round;stroke-linejoin:round;" d="M444,269.2
			c1.7-1.1,3.7-1.8,4.5-1.1c2,1.9,2.1,5.5,0.7,6.5c-1.4,1.1-4.7,1-7.5-2.2C441,271.8,442.2,270.4,444,269.2L444,269.2z"/>
		<path style="fill:#EAAA00;stroke:#000000;stroke-width:1.09;stroke-linecap:round;stroke-linejoin:round;" d="M447.9,267.7
			c0.9,1.5-4.2,5.8-5.9,4.8c-1.2-0.7-2.8-6.1-1.7-7C441.9,264.2,447.1,266.4,447.9,267.7L447.9,267.7z"/>
		<path style="fill:#EAAA00;stroke:#000000;stroke-width:1.09;stroke-linecap:round;stroke-linejoin:round;" d="M0,4.3"/>
		<path style="fill:#2C5234;stroke:#000000;stroke-width:0.93;stroke-linecap:round;stroke-linejoin:round;" d="M460.8,287.3
			c2.6-0.1,5,0.9,6.6,0.4c2.3-0.7,0.9-2.3,2-2.4c1.1-0.1,6.8,0.3,6.8-2.2c0-0.5-0.5-0.7-0.3-1.2c0.2-0.5,4.5-0.4,4.6-2.4
			c0.1-1.3-1.2-1.3-1-2.1c0.2-0.8,4.8-4.6,2.5-6.2c-1.6-1.1-4.1,0.8-4.4,0.3c-0.3-0.7-0.4-1.3-1.4-1.4c-1.5-0.1-2.4,2-3.4,2
			c-1,0-1.4-0.9-2.4-0.8c-1.3,0.1-1.5,1.9-2.6,1.9s-2.9-0.6-2.9-0.6l-5.7,14.7C459.3,287.4,460.2,287.3,460.8,287.3L460.8,287.3z"/>
		<path style="fill:none;stroke:#000000;stroke-width:0.62;stroke-linecap:round;stroke-linejoin:round;" d="M463.6,281.5
			c0,0,5.3-1.8,8.5-3.4c3-1.5,7.2-4.5,7.2-4.5 M463.6,281.5c0,0,5.3-1.5,8.5-3.1c3-1.5,7.2-4.8,7.2-4.8"/>
		<path style="stroke:#000000;stroke-width:0.78;stroke-linecap:round;stroke-linejoin:round;" d="M429.6,304.8c0,0,2.1-0.5,3-0.5
			c0.8,0,1.3,0.4,1.3,0.4l1-1.6c0,0-2.9,0.3-3.7,0.2L429.6,304.8z"/>
		<path style="fill:none;stroke:#000000;stroke-width:0.93;stroke-linecap:round;stroke-linejoin:round;" d="M416.9,321.5
			c-1.7-1.8,3.9-6.5,5.9-5.2c1.5,1,3.3,5,1.9,6.2C423,323.9,418.2,322.9,416.9,321.5z"/>
		<path style="stroke:#000000;stroke-width:0.78;stroke-linecap:round;stroke-linejoin:round;" d="M414.3,315.5l-0.6,0
			c-1.1-1.2-1.5-1.2-3.1-1.6c-0.5-0.1-0.6-0.6,0-0.7l1.9-0.4c0.3-0.1,1.1,0.6,1.4,0.7c0.4,0.2,2.2,0.6,1.5,1.2L414.3,315.5
			L414.3,315.5z"/>
		<path style="fill:none;stroke:#000000;stroke-width:0.93;stroke-linecap:round;stroke-linejoin:round;" d="M413.9,314.5
			c0.8-1,5.7-1.3,8.5,0.9c1.7,1.4,0.3,3.3-1.3,4.5c-1.6,1.2-4.1,2.2-5.1,1.4C413,319.1,412.9,315.7,413.9,314.5L413.9,314.5z"/>
		<path style="fill:none;stroke:#000000;stroke-width:0.93;stroke-linecap:round;stroke-linejoin:round;" d="M0,4.3"/>
		<path style="fill:#8F6A2A;stroke:#000000;stroke-width:0.78;stroke-linecap:round;stroke-linejoin:round;" d="M409.6,313.5
			c0,0,1.8,0.5,3,0.6c0.8,0,2-0.1,2-0.1s-0.5,0.1-1-0.2c-0.2-0.1-1.4-1.1-1.4-1.1L409.6,313.5L409.6,313.5z"/>
		<path style="fill:#8F6A2A;stroke:#000000;stroke-width:0.93;stroke-linecap:round;stroke-linejoin:round;" d="M414.4,314.8
			c1.3-1.3,5.1-1.2,7.9,1c1.4,1.1,0.5,2.7-1.2,4c-1.6,1.3-3.7,2-4.5,1.5C413.8,319.1,413.4,315.8,414.4,314.8L414.4,314.8z"/>
		<path style="fill:#EAAA00;stroke:#000000;stroke-width:1.09;stroke-linecap:round;stroke-linejoin:round;" d="M417.2,321.4
			c-0.6-0.6,0.4-2.5,1.7-3.6c1.2-0.9,3.1-1.6,3.5-1.2c1.6,1.5,3.3,4.2,2,5.6C423.1,323.5,418.6,322.8,417.2,321.4z"/>
		<path style="fill:#EAAA00;stroke:#000000;stroke-width:1.09;stroke-linecap:round;stroke-linejoin:round;" d="M0,4.3"/>
		<path style="fill:#EAAA00;stroke:#000000;stroke-width:1.09;stroke-linecap:round;stroke-linejoin:round;" d="M0,4.3"/>
		<path style="fill:#4A783C;stroke:#000000;stroke-width:0.85;stroke-linecap:round;stroke-linejoin:round;" d="M461.7,206.6
			c0,0-1.5-3.9-2.8-5.4c-1.4-1.5-2.4-1.8-4.9-2.5c-2.2-0.6-5.7-1.1-5.8-2.7c-0.2-1.5,0.1-1.2-0.6-1.4c-2-0.5-4.6-1.1-4.1-2.8
			c0.5-1.8,1.2-2,0.4-2.4c-1.3-0.6-4.7-2.3-4.3-3.8c0.4-1.5,1.9-1.5,1.3-2.5c-0.5-0.7-2.1-1.4-2-2.6c0.1-0.8,1.3-1.1,1.3-1.8
			c0-0.7-3.2-4-1.4-5.4c1.7-1.2,4.7,1,5.5,1.3c0.8,0.3,1.7-1.2,2.8-0.9c1.5,0.3,1.5,2.2,2,2.9c0.8,1.2,2.4-0.4,3.7,0.2
			c2.1,1,1.4,4.4,1.9,5.1c0.6,0.7,2.1-0.4,3.2,0.1c1.7,0.8,0.2,5.8,0.4,6.6c0.1,0.8,1.4,0.1,2.1,0.6c1.9,1.3-0.4,5.2-0.1,8.6
			c0.1,1.1,0.4,2.9,0.4,2.9L461.7,206.6L461.7,206.6z"/>
		<path style="stroke:#000000;stroke-width:0.93;stroke-linecap:round;stroke-linejoin:round;" d="M447.2,320.7
			c0.6,0.9,1.7,1.5,2.2,2.4c0.7,1.3,0,2.6-1.7,2.5c-0.8,0-1.5-0.6-2.2-0.6c-0.6,0-2.3,2-4,1.9c-2.3-0.1-3.3-2.5-4.7-3.8
			c-1.1-0.2-1.9,1.2-3.1,1c-2.5-0.4-2.4-3.9-3.2-5.5c-0.7-0.5-1.7,0.5-3.1-0.4c-2.2-1.3-1-5.5-3.3-6.7c-2-1-6.3-0.3-5.9-0.5l2.4-1.1
			c0.2-0.1,0.6,0.1,0.8,0.2c3.9,0.7,9.2,0.1,13.2,0.1c1.9,0,1.6,1.4,1.9,1.7l0.2,0c2,0.1,4.4,0,6.1,1.1c2.1,1.3,0.1,2.6,0.1,2.9
			l0.1,0l0.5,0.1l1.3,0.3c1,0.3,2.2,0.7,2.9,1.5C448.4,319.2,447.2,319.7,447.2,320.7L447.2,320.7z"/>
		<path style="fill:#2C5234;stroke:#000000;stroke-width:0.93;stroke-linecap:round;stroke-linejoin:round;" d="M420.5,310.5
			c0.9,0.5,12.4,0.2,14,0.2c1.7,0,1.1,1.2,1.7,1.6c0.7,0.3,8.6,0,6.8,2.7c-0.2,0.3-0.5,0.6-0.6,0.9l0,0.3c0.8,0.6,3.6,0.6,4.8,2
			c0.7,0.8-1.2,2.2-0.4,2.7c1.6,1,5.1,5.5-1.3,4.1c-1.5-0.3-3.4,3.5-6.8,0.1c-0.4-0.4-1.4-1.6-1.8-1.9c-0.9-0.6-2.1,0.8-3.3,0.6
			c-2.1-0.3-2.2-3.6-3-5c-1.1-0.7-1.9,0.1-3.2-0.7c-2.9-1.8,0.6-7.8-8.6-6.9L420.5,310.5L420.5,310.5z"/>
		<path style="stroke:#000000;stroke-width:0.45;stroke-linecap:round;stroke-linejoin:round;" d="M419.6,310.6
			c0,0,8.7,1.6,13.7,3.8c4.6,2,10.7,6.7,10.7,6.7s-6-5-10.6-7.1c-4.8-2.2-13.1-3.6-13.1-3.6L419.6,310.6L419.6,310.6z"/>
		<path style="stroke:#000000;stroke-width:0.93;stroke-linecap:round;stroke-linejoin:round;" d="M442,302.6c2.2,1.8-1.2,8-3.7,7.6
			c-4.1-0.6-6.3-4.7-5.6-6.4C433.6,301.9,439.6,300.6,442,302.6L442,302.6z"/>
		<path style="fill:none;stroke:#000000;stroke-width:0.93;stroke-linecap:round;stroke-linejoin:round;" d="M437.9,309.5
			c-1.2-0.7-0.7-3.3,0.3-4.9c0.9-1.4,2.3-2.3,3.3-2c2.9,0.8,5.7,4.1,4.6,6.2C445.1,310.8,439.1,310.3,437.9,309.5L437.9,309.5z"/>
		<path style="fill:#8F6A2A;stroke:#000000;stroke-width:0.93;stroke-linecap:round;stroke-linejoin:round;" d="M441.8,302.8
			c2.1,1.7-1.2,7.3-3.5,6.9c-3.9-0.6-5.3-4.1-4.8-5.6C434,302.6,439.5,300.9,441.8,302.8z"/>
		<path style="stroke:#000000;stroke-width:0.93;stroke-linecap:round;stroke-linejoin:round;" d="M455.3,307
			c-0.4,0.4-1.1,1.2-2,1.2c-3.5,0-3.2-2.6-5-4.4c-0.6-0.1-1.1,0.5-2.2,0.3c-1.6-0.3-1.7-3.8-4-4.5c-1.2-0.4-4.5-0.4-6.3,1.1l3.3-2.2
			c3.2,1.1,6-4.8,9.6-4c1,0.2,1.1,0.8,2.2,0.7c2.6-0.2,5.3-1.7,8.5-0.8c1.9,0.6-0.6,2.8,1.8,2.5c1.5-0.2,3.9-0.2,4.3,1.5
			c0.3,0.9-0.3,1.3-0.2,2c0.3,0.2,6.1,2,3,3.4c0.5,1.2,2.8,2,1.6,3.5c-1.2,1.4-3.6-0.2-4.3,0.4c-0.3,0.2-0.3,0.9-0.5,1.2
			c-1,1.1-3.7-1.1-4.9-1.4C459.2,310.9,457.1,309.3,455.3,307L455.3,307z"/>
		<path style="stroke:#000000;stroke-width:0.93;stroke-linecap:round;stroke-linejoin:round;" d="M0,4.3"/>
		<path style="stroke:#000000;stroke-width:0.45;stroke-linecap:round;stroke-linejoin:round;" d="M441.4,298.4
			c0,0,8.7-0.5,13.8,1.1c4.4,1.3,10.2,5.5,10.2,5.5s-6.3-4.1-10.9-5.3c-5-1.3-13.4-0.6-13.4-0.6L441.4,298.4L441.4,298.4z
			 M433.7,299c0,0,1.7-9.7,1.5-16c-0.1-3.8-0.9-9.6-0.9-9.6s1.1,6.1,1.3,10c0.3,5.8-1.2,14.9-1.2,14.9L433.7,299L433.7,299z"/>
		<path style="stroke:#000000;stroke-width:0.93;stroke-linecap:round;stroke-linejoin:round;" d="M425.4,298.6
			c0.2,0.4,1.8,0.8,1.6,2.4c-0.2,1.9-3.5,1.3-5,2.3c-0.6,0.3,0.7,2,0,2.8c-1.2,1.4-5.3,0.6-5.5,0.9c-0.5,0.6,1.3,2.4-0.6,3.4
			c-2.7,1.3-8.5-0.8-11.6,1.6c-0.2,0.2-1.4,1.3-1.4,1.4c-1.8,0.4-6.5,1.3-5.9,1.1c2.8-1,7.2-2,8.1-3.7c0.7-1.4,0.2-4.1,0.5-5.7
			c0.5-2.3,2.4-1.4,3-2.1c0.5-0.6-0.5-3.8,1.6-5.3c1.5-1.1,3-0.3,4.3-1.2c1.4-0.9-0.7-3.8,2-4.7c1.6-0.5,3.4,1.1,3.7,1
			c1-0.2,2.2-2.9,4.3-2.5c2.1,0.4,1.1,2.8,1.1,3.9C428.9,294.5,427.1,296.8,425.4,298.6L425.4,298.6z"/>
		<path style="stroke:#000000;stroke-width:0.93;stroke-linecap:round;stroke-linejoin:round;" d="M0,4.3"/>
		<path style="stroke:#000000;stroke-width:0.45;stroke-linecap:round;stroke-linejoin:round;" d="M405.2,310.4
			c0,0,8.1-5.1,12.2-9.7c2.3-2.5,5.3-6.4,5.3-6.4s-2.9,4-5.1,6.6c-4.1,4.8-12.2,10.3-12.2,10.3L405.2,310.4L405.2,310.4z
			 M465.5,264.8c3.1-1.5,8.7-4,13.3-7.7c3.1-2.5,7.1-7.1,7.1-7.1s-4,4.8-7.1,7.5c-4.7,3.9-10.7,6.7-13.8,8.2L465.5,264.8z"/>
		<path style="fill:#2C5234;stroke:#000000;stroke-width:0.93;stroke-linecap:round;stroke-linejoin:round;" d="M458.9,268.5
			l-0.7,2.1c0-2.9-0.1-4.3-4-4.1c-0.6,0-1.2,0.1-1.8,0c-2-0.3-0.4-1.3-1.1-2.1c-0.8-1-5.9-0.1-6.4-2.4c-0.2-0.9,1-1.9,0.1-2.6
			c-1.2-1-4.3-2-4-3.9c0.1-0.8,1.4-1.4,1.2-2.1c-0.2-1-2.5-2.7-1.9-3.8c0.4-0.9,1.2-0.6,1.3-1.4c0.1-0.9-1.7-3.2-0.1-3.9
			c2.1-0.9,3.6,0.9,5.4,1c1.1,0.1,1.8-1,2.9-0.8c1.4,0.3,1.4,2.3,2.3,2.7c0.3,0.2,1.4-0.6,1.8-0.7c2.5-0.3,2,4.1,2.8,5.1
			c0.3,0.4,1,0,1.4,0.1c1.6,0.4-0.1,5.2,0.5,5.8c0.2,0.2,1,0.1,1.4,0.2c1.3,0.3,0.4,3.4,0.2,4.1C459.8,263.7,458.1,267,458.9,268.5
			L458.9,268.5z"/>
		<path style="stroke:#000000;stroke-width:0.45;stroke-linecap:round;stroke-linejoin:round;" d="M458.8,268.2c0,0-2.5-8.7-6-13.3
			c-2.9-3.9-9.3-8.6-9.3-8.6s6.1,4.8,8.9,8.6c3.4,4.7,5.7,13.3,5.7,13.3H458.8z M464.2,222.9c0,0-5.9-8.4-10.9-12.7
			c-4.1-3.6-11.7-7.9-11.7-7.9s7.2,4.5,11.1,8.1c4.8,4.4,10.3,12.6,10.3,12.6L464.2,222.9L464.2,222.9z M0,4.3 M0,4.3 M0,4.3"/>
		<path style="stroke:#000000;stroke-width:0.93;stroke-linecap:round;stroke-linejoin:round;" d="M462.9,255.6
			c-1.6-1.2-6-4.7-6-6.5c0-2.2,2.3-1.8,2.9-2.1c-0.1-0.9-3.5-3.1-2.1-5c0.9-1.3,2.9-0.9,3.7-1.5c0.6-1.4-1.7-5,0.1-6.9
			c1.1-1.2,1.9-0.3,2.4-0.4c0.1-0.6,0.1-1.2,0.2-1.8c0.1-1.1,0.6-2.1,2-2.2c2-0.1,3.3,2.1,4.3,3.4c0.2-0.1,1.2-0.2,1.5-0.3
			c2.4-1,1.5,5.6,1.6,6.6c0.6,0,1.7-0.3,2.2,0c2.6,1.4-2.6,8.5-3.1,10.2c-0.2,0.7,2.7,0.1,0.5,2.7c-1.3,1.5-3,2.8-4.5,4.2
			L462.9,255.6L462.9,255.6z"/>
		<path style="fill:#4A783C;stroke:#000000;stroke-width:0.93;stroke-linecap:round;stroke-linejoin:round;" d="M463.8,261.2
			c1-2.3,0.6-4.5-1.3-5.8c-2.1-1.3-4.9-4.5-4.9-6.4c0-2.2,2.5-0.9,2.6-1.9c0.1-0.8-3.2-3.1-2.1-4.8c0.8-1.1,2.8-1,3.4-1.5
			c0.9-0.9-1.3-5,0.4-6.9c0.9-1,1.7,0.1,2.3-0.3c0.6-0.4-0.4-3.5,1.9-3.6c2.2-0.1,3.8,3.2,4.2,3.1c0.7-0.2,1.6-0.9,2.4-0.2
			c0.8,0.7,0.5,6.2,0.5,6.2s1.5-0.1,2,0.1c2,1.1-1.6,7.4-2.6,9.1c-0.9,1.5,1.7,1.7,0.4,3.2c-2.1,2.5-6.4,5.5-7.1,9.2"/>
		<path style="stroke:#000000;stroke-width:0.45;stroke-linecap:round;stroke-linejoin:round;" d="M466.2,259.5c0,0,1.6-9.1,2-13.8
			c0.4-3.9-0.6-10.4-0.6-10.4s0.6,6.2,0.2,10.1c-0.5,4.8-2.8,16.1-2.8,16.1L466.2,259.5L466.2,259.5z"/>
		<path style="stroke:#000000;stroke-width:0.93;stroke-linecap:round;stroke-linejoin:round;" d="M442.9,293.2c0.9-2-1.7-8,0.3-9
			c1.1-0.6,1.9,0.5,3-0.4c1.4-1.2-0.8-5.9,1.8-7.3c1.5-0.9,2.7,0.4,4.1-0.8c1-0.8,1-3.9,3.4-4.4c1.6-0.4,2.4,0.6,3.8,0.8
			c1.2,0.1,5.4-4.9,7.9-3.7c2.7,1.3,0.3,4-0.2,5.8c-0.3,1,2,0.8,1.8,2.4c-0.2,1.4-2.1,2.9-2.1,3.5c0,0.7,1.9,1.1,2,2.3
			c0.2,2.3-4.1,2.7-5.6,3.7c-0.8,0.5,1,2.2-0.1,3.8c-1.1,1.7-6,0.5-6.8,0.8c-0.7,0.3,0,3.1-0.8,4.1c-1.3,1.6-7.6,0.1-10,0.4
			c-3.1,0.4-4.5,1-6.5,3.1L442.9,293.2L442.9,293.2z"/>
		<path style="fill:#4A783C;stroke:#000000;stroke-width:0.93;stroke-linecap:round;stroke-linejoin:round;" d="M438.9,296.4
			c0,0,2.5-1.1,3.3-2.4c0.9-1.2,1-1.7,0.9-3.6c0-1.2-1.2-5.3,0.1-5.9c1.1-0.5,1.7,0.5,3-0.6c1.7-1.4-0.8-6.1,1.6-7.4
			c1.4-0.8,2.7,0.6,4.3-0.7c1.1-0.9,0.9-3.8,3.1-4.3c1.4-0.3,2.5,0.6,3.8,0.8c1.6,0.2,5.2-4.5,7.5-3.4c1,0.5,1.3,1.1,1.1,2.1
			c-0.2,1-0.9,2-1.1,3c-0.3,1.3,1.7,1.2,1.5,2.6c-0.2,1.3-1.9,2.6-1.9,3.4c0,0.9,1.6,1.5,1.7,2.7c0.2,2.2-5,2.2-5.4,3.4
			c-0.4,1.2,0.6,2.1-0.4,3.5c-1.1,1.5-4.7,0.2-6.1,0.7c-1.2,0.4-0.5,2.8-1.2,3.7c-2,2.6-11.6-1.1-15.5,3.7L438.9,296.4z"/>
		<path style="stroke:#000000;stroke-width:0.45;stroke-linecap:round;stroke-linejoin:round;" d="M439.2,296.7
			c0,0,10.2-7.6,15.8-13.3c4.3-4.4,10.1-11.8,10.1-11.8s-5.4,7.6-9.6,11.9c-5,5.4-14.4,12.6-14.4,12.6L439.2,296.7z"/>
		<path style="fill:#8F6A2A;" d="M438.3,296.9l1.7-0.4c0,0-0.6,0.6-0.9,0.8l-0.8,0.6L438.3,296.9L438.3,296.9z"/>
		<path style="fill:#EAAA00;stroke:#000000;stroke-width:1.09;stroke-linecap:round;stroke-linejoin:round;" d="M438.2,309.3
			c-0.8-0.5-0.6-2.9,0.4-4.5c0.9-1.4,2.4-2.1,3-1.9c2.2,0.9,5,4,4.1,5.7C444.9,310.3,439.3,310,438.2,309.3L438.2,309.3z"/>
		<path style="fill:#EAAA00;stroke:#000000;stroke-width:1.09;stroke-linecap:round;stroke-linejoin:round;" d="M0,4.3"/>
		<path style="stroke:#000000;stroke-width:0.93;stroke-linecap:round;stroke-linejoin:round;" d="M465,206.1
			c-2.1-0.7-3.6-4.1-2.7-7.2c0.9-3,9.7-1.8,8.7,1.8C470.3,203.6,466.8,206.7,465,206.1z"/>
		<path style="stroke:#000000;stroke-width:0.93;stroke-linecap:round;stroke-linejoin:round;" d="M470.8,199.7
			c-0.3,1.8-3,2-4.3,1.8c-1.3-0.2-3.9-1.5-3.6-3c0.6-3.2,3.5-5.7,5.3-5.4C470.1,193.3,471.3,196.8,470.8,199.7L470.8,199.7z"/>
		<path style="fill:#8F6A2A;stroke:#000000;stroke-width:0.93;stroke-linecap:round;stroke-linejoin:round;" d="M465.2,205.6
			c-1.8-0.2-3.2-3.5-2.3-6.4c0.8-2.8,8.3-1,7.6,1.6C469.7,203.5,466.9,205.8,465.2,205.6L465.2,205.6z"/>
		<path style="fill:#EAAA00;stroke:#000000;stroke-width:1.09;stroke-linecap:round;stroke-linejoin:round;" d="M468.1,193.6
			c1.5,0.2,3,3.1,2.5,6.1c-0.3,1.4-2.8,1.3-4.1,1.1c-1.4-0.3-3.7-1.1-3.5-2.2C463.7,195.4,466.8,193.4,468.1,193.6L468.1,193.6z"/>
		<path style="fill:#EAAA00;stroke:#000000;stroke-width:1.09;stroke-linecap:round;stroke-linejoin:round;" d="M0,4.3"/>
		<path style="fill:none;stroke:#000000;stroke-width:0.93;stroke-linecap:round;stroke-linejoin:round;" d="M344,358.5
			c-0.7-0.9,0.9-3.7,4.2-3.3c1.5,0.2,0.7,2-1.1,3.1C345.9,359,344.7,359.4,344,358.5L344,358.5z"/>
		<path style="fill:#8F6A2A;stroke:#000000;stroke-width:0.93;stroke-linecap:round;stroke-linejoin:round;" d="M344,358.5
			c-0.7-0.9,0.3-2.8,3.7-3c1.2,0,1.3,1.6-0.5,2.8C345.9,359,344.7,359.4,344,358.5z"/>
		<path style="fill:#8F6A2A;stroke:#000000;stroke-width:0.93;stroke-linecap:round;stroke-linejoin:round;" d="M0,4.3"/>
	</g>
	<g>
		<path style="stroke:#000000;stroke-width:0.93;stroke-linecap:round;stroke-linejoin:round;" d="M360,343.1
			c-9.3,0-15.4-1.3-23.7-2.6c-19.4-3.1-23.6-0.7-23.6,2.2c0,1,1,1.2,1.7,1c0.4-0.2,0.7-0.7,0.7-0.7c-0.7,0-1.1-0.2-1-1
			c0.4-2.1,5.4-3.1,22.2-0.7c8.3,1.2,14.4,2.2,23.7,2.2L360,343.1L360,343.1z M360.1,343.1c9.3,0,15.4-1.3,23.7-2.6
			c19.4-3.1,23.6-0.7,23.6,2.2c0,1-1,1.2-1.7,1c-0.4-0.2-0.7-0.7-0.7-0.7c0.7,0,1.1-0.2,1-1c-0.4-2.1-5.4-3.1-22.2-0.7
			c-8.3,1.2-14.4,2.2-23.7,2.2L360.1,343.1L360.1,343.1z M0,4.3 M0,4.3"/>
		<path style="stroke:#000000;stroke-linecap:round;stroke-linejoin:round;" d="M359.5,325.5c-10.6,0.1-19.6-1.6-27.1-3.1
			c-6.2-1.2-13.4-2.6-19.8-1.9c-4.6,0.5-6.5,2.3-5.7,6.5c1,5.1,1.9,10.3,2.9,15.4c0.6,2.9,2.4,3.3,5.5,2.9c4.5-0.7,19-3.6,22.3,0.1
			c3.1,3.5,0.1,6-4.3,6c-0.6,0-0.4-0.4-0.2-0.4c4.2,0,7.1-2.1,4.4-5.4c-2.8-3.4-16.4-0.9-21.9,0.2c-3.5,0.7-5.9,0.3-6.5-3.5
			c-0.9-5.2-1.4-8.8-3.3-15.6c-3.2-11.4,20-6.1,26.7-4.8c9.1,1.9,16.7,3.1,27.5,3.3c10.8-0.3,18.4-1.5,27.5-3.3
			c6.7-1.4,29.9-6.7,26.7,4.8c-1.9,6.8-2.4,10.4-3.3,15.6c-0.6,3.8-3,4.2-6.5,3.5c-5.5-1.1-19.1-3.6-21.9-0.2
			c-2.7,3.3,0.2,5.4,4.4,5.4c0.2,0,0.4,0.4-0.2,0.4c-4.3-0.1-7.4-2.6-4.3-6c3.3-3.6,17.8-0.8,22.3-0.1c3.1,0.5,4.9,0.1,5.5-2.9
			c1.1-5.1,1.9-10.3,2.9-15.4c0.8-4.1-1.1-5.9-5.7-6.5c-6.4-0.7-13.6,0.7-19.8,1.9c-7.5,1.5-16.5,3.2-27.1,3.1H359.5z"/>
	</g>
</g>
<path style="stroke:#000000;stroke-linecap:round;stroke-linejoin:round;" d="M-40-60"/>
</svg>
