<?xml version="1.0" encoding="utf-8"?>
<!-- Generator: Adobe Illustrator 25.2.1, SVG Export Plug-In . SVG Version: 6.00 Build 0)  -->
<svg version="1.1" id="Layer_1" xmlns="http://www.w3.org/2000/svg" xmlns:xlink="http://www.w3.org/1999/xlink" x="0px" y="0px"
	 viewBox="0 0 720 480" style="enable-background:new 0 0 720 480;" xml:space="preserve">
<g>
	<path style="fill:#4189DD;" d="M0,0h720v480H0V0z"/>
	<polygon style="fill:#FFFFFF;" points="427.9,333.5 402,253.6 469.9,204.3 469.9,204.3 469.9,204.3 469.9,204.3 469.9,204.3 
		385.9,204.3 360,124.4 360,124.4 360,124.4 360,124.4 360,124.4 334.1,204.3 250.1,204.3 250.1,204.3 250.1,204.3 250.1,204.3 
		250.1,204.3 318,253.6 292.1,333.5 292.1,333.5 292.1,333.5 292.1,333.5 292.1,333.5 360,284.1 427.9,333.5 427.9,333.5 
		427.9,333.5 427.9,333.5 	"/>
</g>
</svg>
