<?xml version="1.0" encoding="utf-8"?>
<!-- Generator: Adobe Illustrator 25.2.1, SVG Export Plug-In . SVG Version: 6.00 Build 0)  -->
<svg version="1.1" id="Layer_1" xmlns="http://www.w3.org/2000/svg" xmlns:xlink="http://www.w3.org/1999/xlink" x="0px" y="0px"
	 viewBox="0 0 720 480" style="enable-background:new 0 0 720 480;" xml:space="preserve">
<g>
	<path style="fill-rule:evenodd;clip-rule:evenodd;fill:#E40046;" d="M0,0h720v479.9H0V0z"/>
	<g>
		<defs>
			<rect id="SVGID_1_" y="159.8" width="720" height="320.2"/>
		</defs>
		<clipPath id="SVGID_2_">
			<use xlink:href="#SVGID_1_"  style="overflow:visible;"/>
		</clipPath>
		<g style="clip-path:url(#SVGID_2_);">
			<path style="fill-rule:evenodd;clip-rule:evenodd;fill:#012169;" d="M0,159.6h720v320.3H0V159.6z"/>
		</g>
	</g>
	<g>
		<defs>
			<rect id="SVGID_3_" y="319.4" width="720" height="160.5"/>
		</defs>
		<clipPath id="SVGID_4_">
			<use xlink:href="#SVGID_3_"  style="overflow:visible;"/>
		</clipPath>
		<g style="clip-path:url(#SVGID_4_);">
			<path style="fill-rule:evenodd;clip-rule:evenodd;fill:#FFFFFF;" d="M0,318.8h720v161.2H0V318.8z"/>
		</g>
	</g>
	<g>
		<g>
			
				<path style="fill-rule:evenodd;clip-rule:evenodd;fill:#FFC72C;stroke:#21231E;stroke-width:0.667;stroke-miterlimit:23.107;" d="
				M320,114.2c1-2.2,0.2-5.2-0.1-5.9c-0.2-0.3,0.3-1.1,0.5-1.4c6.8-9.6,6.9-10.4,2.2-14c-4.2-3.2-13.8-6.4-20.7-8.5
				c-1.4-1.1-2.3-2.5-3.6-3.8c13.2,0.9,27.4,6.2,34.6,12.4c3.8,3.3-0.8,9.9-6.5,20C323,115.5,321.3,116.7,320,114.2L320,114.2z"/>
			
				<path style="fill-rule:evenodd;clip-rule:evenodd;fill:#FFC72C;stroke:#21231E;stroke-width:0.667;stroke-miterlimit:22.925;" d="
				M322.1,115c0.3-0.8,0.5-1.6,0.7-2.5c0.3-1.4,0.2-2.9-0.3-4.3c1.7-2.2,3.2-4.6,4.6-7c0.9-1.7,1.6-3.6,1.1-5.5
				c-0.6-2.1-2.4-3.5-4-4.7c-2.2-1.6-4.6-2.9-7.2-3.9c-5.9-2.4-10.6-3.6-14-3.7l2.2,2c6.4,2.1,13.9,4.8,17.6,7.5
				c4.7,3.6,4.6,4.4-2.2,14c-0.2,0.3-0.7,1.1-0.5,1.4c0.7,2,0.6,4.1-0.1,6C320.4,115.4,321.2,114.9,322.1,115L322.1,115z"/>
			
				<path style="fill-rule:evenodd;clip-rule:evenodd;fill:#FFC72C;stroke:#21231E;stroke-width:0.667;stroke-miterlimit:22.925;" d="
				M264.5,72.3c-0.1-1.2,0-1,0.2,0.9c0.1-0.3,0.4-0.5,0.8-0.5c0.6,0,0.9,0.8,0.9,2.7c0,0.5-0.1,1-0.1,1.4
				c17.4-0.4,27.8,2.2,30.5,7.3c2.2,4.2-1.5,11-7.2,18.9c-0.7,1-0.7,0.9,0,1.7c1,1.1,2,3,1.2,4.7c3.4,1.9,7.4,2.2,11,0.8
				c0.6-1.3,1.6-2.3,2.9-3c0.2-0.1,1-0.5,1-0.8c1.9-5.9,3.7-11.4,5.3-16.6C316.2,73.8,271.4,72.3,264.5,72.3L264.5,72.3z"/>
			<g>
				<path style="fill-rule:evenodd;clip-rule:evenodd;fill:#FFC72C;stroke:#21231E;stroke-width:0.667;stroke-linejoin:round;" d="
					M310.6,141.5c1.6-3.5,3.6-6.8,6-9.8c-6.2,4.6-9.5,3.9-9.9-2.1c-0.4-0.1-0.9-0.2-1.4-0.1c-4.7,7.3-9.3,6.3-13.8-3
					c-6.1,9.6-11.3,9.4-15.4-0.6c-7,8.8-12.9,8.8-17.8,0.2V125c0.3,0.1,0.1,0.2-0.5,0.1l-0.1-0.2c-0.2,0-0.4,0.1-0.5,0.1
					c-0.2,0-0.3-0.1-0.5-0.1l-0.1,0.2c-0.6,0.1-0.8,0.1-0.5-0.1v1.1c-4.8,8.6-10.7,8.6-17.8-0.2c-4.1,10-9.3,10.2-15.4,0.6
					c-4.5,9.3-9.1,10.4-13.8,3c-0.5,0-0.9,0-1.4,0.1c-0.5,6-3.7,6.6-9.9,2.1c2.3,3,4.3,6.3,6,9.8c17.9-0.7,35.7-1.7,53.5-2.6
					C274.9,139.8,292.7,140.7,310.6,141.5L310.6,141.5z"/>
				<path style="fill-rule:evenodd;clip-rule:evenodd;fill:#FFC72C;stroke:#21231E;stroke-width:0.667;stroke-linejoin:round;" d="
					M317.9,127.1l-1.9-0.3c-3.7,9.1-7.1,9.3-7.7,0.7c0.8-0.3,0.5-1.7,1.5-1.2c0.5,0.3,1.1-0.6,0.7-1c-0.8-0.8-2.1-0.7-2.9,0.2
					c0,0,0,0,0,0c-0.4-1.4-1.5-2-2.8-1.4c-0.6,0.3-0.4,1.3,0.2,1.2c0.9-0.1,0.6,0.9,0.9,1.5c-6.6,8.6-10,7.6-9.2-3.7
					c-1.7-0.3-3.4-0.7-5.1-1.2c-6.1,12.2-10.4,12.8-13.9,1.8c0.8-0.6,0.5-2,1.6-1.5c0.6,0.3,1.1-0.8,0.6-1.3
					c-1.3-1.1-2.7-0.7-3.6,0.7c-0.7-1.5-2.1-2-3.5-1.1c-0.6,0.4-0.2,1.5,0.4,1.4c1.2-0.3,0.7,1.3,1.6,1.9
					c-2.7,10.3-16.3,11-14.1-4.3l-3.5,0.1l-3.5-0.1c2.2,15.3-11.4,14.6-14.1,4.3c0.9-0.6,0.4-2.2,1.6-1.9c0.6,0.2,1-1,0.4-1.4
					c-1.4-0.9-2.7-0.4-3.5,1.1c-0.9-1.4-2.3-1.8-3.6-0.7c-0.6,0.5,0,1.6,0.6,1.3c1.1-0.5,0.9,1,1.6,1.5c-3.5,11-7.8,10.4-13.9-1.8
					c-1.7,0.5-3.3,0.9-5.1,1.2c0.8,11.3-2.6,12.4-9.2,3.7c0.3-0.7-0.1-1.6,0.8-1.5c0.6,0.1,0.8-1,0.2-1.2c-1-0.5-2.2-0.1-2.6,0.9
					c-0.1,0.2-0.2,0.4-0.2,0.6c-0.7-0.9-2-1-2.9-0.2c0,0,0,0,0,0c-0.4,0.5,0.2,1.3,0.7,1c0.9-0.6,0.6,0.9,1.5,1.2
					c-0.6,8.7-4,8.4-7.7-0.7l-1.9,0.3c0,2.2,0.7,4.3,2,6.1c5.6,7.1,9.8,5.5,9.9-2.5c7.3,8.6,12.9,7.5,13.9-1.6
					c6.2,11.4,16.1,6,16.3-1c2.7,10.1,17.8,10,18.7-1.6c1,11.6,16,11.6,18.7,1.6c0.2,6.9,10.1,12.4,16.3,1c1,9.1,6.5,10.1,13.9,1.6
					c0.2,8,4.3,9.6,9.9,2.5C317.2,131.4,318,129.3,317.9,127.1L317.9,127.1z"/>
			</g>
			
				<path style="fill-rule:evenodd;clip-rule:evenodd;fill:#FFC72C;stroke:#21231E;stroke-width:0.667;stroke-miterlimit:22.926;" d="
				M269.7,115.5c-0.8-0.5-1-0.4-1.3-0.7c-0.3-0.6-0.4-1.2-0.2-1.8c0.4-2.8-1.2-2.4-3.1-1.2c-1,0.9-1.9,1.8-2.7,2.8
				c-0.8,0.7-1.5,0.8-1.7,1.1c0,1.1,0,2,0,2.4l0,0c0,0.4,0,1.3,0,2.4c0.2,0.3,0.9,0.4,1.7,1.1c0.8,1,1.7,1.9,2.7,2.8
				c1.9,1.2,3.5,1.6,3.1-1.2c-0.2-0.6-0.1-1.3,0.2-1.8c0.3-0.3,0.4-0.2,1.3-0.7c0.5-0.3,0.9-0.7,1.2-1.2c0.2-0.9,0.2-1.8,0-2.8
				C270.6,116.2,270.2,115.8,269.7,115.5z"/>
		</g>
		<path style="fill-rule:evenodd;clip-rule:evenodd;fill:#21231E;" d="M260.6,118.5l0.1,0.5c1.9,0.2,3.6,1,5,2.3
			C264.5,119.7,262.6,118.7,260.6,118.5 M260.6,117.6l0.1-0.5c1.9-0.2,3.6-1,5-2.3C264.5,116.4,262.6,117.4,260.6,117.6"/>
		<g>
			<g>
				
					<path style="fill-rule:evenodd;clip-rule:evenodd;fill:#FFC72C;stroke:#21231E;stroke-width:0.667;stroke-miterlimit:22.926;" d="
					M268.2,111.7c-0.7,0.2-1.3,0.6-1.8,1c-0.8,0.8-0.3,2.2,0.8,3.5c0.7,1.1,0.7,2.6,0,3.7c-1.1,1.3-1.6,2.7-0.8,3.5
					c0.5,0.5,1.1,0.8,1.8,1c0.1-0.4,0-0.8,0-1.3c-0.2-0.6-0.1-1.3,0.2-1.8c0.3-0.3,0.4-0.2,1.3-0.7c0.5-0.3,0.9-0.7,1.2-1.2
					c0.3-0.4,0.1-0.9,0.1-1.4c0.1-0.5,0.1-0.9-0.1-1.4c-0.3-0.5-0.7-0.9-1.2-1.2c-0.8-0.5-1-0.4-1.3-0.7c-0.3-0.6-0.4-1.2-0.2-1.8
					C268.3,112.5,268.3,112.1,268.2,111.7L268.2,111.7z"/>
				
					<path style="fill-rule:evenodd;clip-rule:evenodd;fill:#FFC72C;stroke:#21231E;stroke-width:0.667;stroke-miterlimit:23.107;" d="
					M194.3,114.2c-1-2.2-0.2-5.2,0.1-5.9c0.2-0.3-0.3-1.1-0.5-1.4c-6.8-9.6-6.9-10.4-2.2-14c4.2-3.2,13.8-6.4,20.7-8.5
					c1.4-1.1,2.3-2.5,3.6-3.8c-13.2,0.9-27.4,6.2-34.6,12.4c-3.8,3.3,0.8,9.9,6.5,20C191.3,115.6,192.9,116.7,194.3,114.2
					L194.3,114.2z"/>
				
					<path style="fill-rule:evenodd;clip-rule:evenodd;fill:#FFC72C;stroke:#21231E;stroke-width:0.667;stroke-miterlimit:22.925;" d="
					M192.2,115c-0.3-0.8-0.5-1.6-0.7-2.5c-0.3-1.4-0.2-2.9,0.3-4.3c-1.7-2.2-3.2-4.6-4.6-7c-0.9-1.7-1.6-3.6-1.1-5.5
					c0.6-2.1,2.4-3.5,4-4.7c2.2-1.6,4.6-2.9,7.2-3.9c5.9-2.4,10.6-3.6,14-3.7l-2.2,2c-6.4,2.1-13.9,4.8-17.6,7.5
					c-4.7,3.6-4.6,4.4,2.2,14c0.2,0.3,0.7,1.1,0.5,1.4c-0.7,2-0.6,4.1,0.1,6C193.9,115.4,193,114.9,192.2,115L192.2,115z"/>
				
					<path style="fill-rule:evenodd;clip-rule:evenodd;fill:#FFC72C;stroke:#21231E;stroke-width:0.667;stroke-miterlimit:22.925;" d="
					M249.7,72.3c0.1-1.2,0-1-0.2,0.9c-0.1-0.3-0.4-0.5-0.8-0.5c-0.6,0-0.9,0.8-0.9,2.7c0,0.5,0.1,1,0.1,1.4
					c-17.4-0.4-27.8,2.2-30.5,7.3c-2.2,4.2,1.5,11,7.2,18.9c0.7,1,0.7,0.9,0,1.7c-1,1.1-2,3-1.2,4.7c-3.4,1.9-7.4,2.2-11,0.8
					c-0.6-1.3-1.6-2.3-2.9-3c-0.2-0.1-1-0.5-1-0.8c-1.9-5.9-3.7-11.4-5.3-16.6C198.1,73.8,242.9,72.3,249.7,72.3L249.7,72.3z"/>
				
					<path style="fill-rule:evenodd;clip-rule:evenodd;fill:#FFC72C;stroke:#21231E;stroke-width:0.667;stroke-miterlimit:24.827;" d="
					M252.8,138.9l-0.6,17.4c17.3,0.5,37.7,1.3,55,1.7l3.4-16.3C269.1,139.1,249.9,138.3,252.8,138.9L252.8,138.9z"/>
				<g>
					
						<path style="fill-rule:evenodd;clip-rule:evenodd;fill:#FFC72C;stroke:#21231E;stroke-width:0.667;stroke-miterlimit:22.925;" d="
						M252.8,138.9L252.8,138.9c-9.2,0.5-25.6,1.4-49.1,2.9l3.4,16.3c15.6-0.4,33.9-1.1,50.1-1.6c16.1,0.5,34.4,1.2,50.1,1.6
						l3.4-16.3c-23.6-1.5-39.9-2.4-49.1-2.8v-0.1c0.9-0.2-0.5-0.2-4.4-0.1C253.3,138.6,251.9,138.7,252.8,138.9L252.8,138.9z"/>
					
						<path style="fill-rule:evenodd;clip-rule:evenodd;fill:#FFC72C;stroke:#21231E;stroke-width:0.667;stroke-miterlimit:22.925;" d="
						M257.1,140.8h-4.4l-0.6,0h-1.1c-0.5,0-0.9,0-1.4,0h-0.2l-0.6,0h-0.4l-0.6,0h0l-0.6,0h-0.2l-0.4,0h-0.1l-0.5,0l-0.6,0h0l-0.6,0
						h-0.3c-0.7,0-1.5,0-2.2,0.1l-0.3,0l-0.9,0h-0.1l-0.8,0l-0.5,0l-0.4,0h-0.1l-0.8,0h0l-0.6,0h0l-0.6,0l-0.4,0l-0.8,0l0,0
						c-1.1,0-2.2,0.1-3.3,0.1l-0.2,0c-1.6,0.1-3.2,0.2-4.8,0.2l-0.1,0l-0.2,0c-3.2,0.2-6.4,0.4-9.6,0.6l-0.1,0l0,0
						c-4.7,0.3-9.3,0.8-13.9,1.2c-2.6,0.2-3.1-2.8,0-3.1c4.6-0.5,9.2-0.9,13.9-1.2h0c6.4-0.5,12.9-0.9,19.5-1.1l0.5,0h0.1l0.2,0
						l0.6,0h0c2.7-0.1,5.4-0.2,8.1-0.2l0.4,0h0l0.7,0h0.1l0.6,0l0.2,0h0.4l0.5,0h0.4l1.7,0h1.3c0.6,0,1.2,0,1.8,0h5.2
						c0.6,0,1.2,0,1.8,0h1.3l1.7,0h0.4l0.5,0h0.4l0.2,0l0.6,0h0.1l0.7,0h0l0.4,0c2.7,0.1,5.4,0.1,8.1,0.2h0l0.6,0l0.2,0h0.1l0.5,0
						c6.6,0.2,13.1,0.6,19.5,1.1h0c4.7,0.4,9.3,0.8,13.9,1.2c3.1,0.3,2.6,3.4,0,3.1c-4.6-0.5-9.2-0.9-13.9-1.2l0,0l-0.1,0
						c-3.2-0.2-6.4-0.5-9.6-0.6l-0.2,0l-0.1,0c-1.6-0.1-3.2-0.2-4.9-0.2l-0.2,0c-1.1,0-2.2-0.1-3.3-0.1l0,0l-0.8,0l-0.4,0l-0.6,0h0
						l-0.6,0h0l-0.8,0h-0.1l-0.4,0l-0.5,0l-0.8,0h-0.1l-0.9,0l-0.3,0c-0.7,0-1.5,0-2.2-0.1h-0.3l-0.6,0h0l-0.6,0l-0.5,0h-0.1l-0.4,0
						h-0.2l-0.6,0h0l-0.6,0h-0.4l-0.6,0h-0.2c-0.5,0-0.9,0-1.4,0h-1.1l-0.6,0H257.1L257.1,140.8z"/>
				</g>
			</g>
			<g>
				
					<path style="fill-rule:evenodd;clip-rule:evenodd;fill:#FFFFFF;stroke:#21231E;stroke-width:0.667;stroke-miterlimit:22.926;" d="
					M216.4,102.7c1.9,0,3.4,1.5,3.4,3.4s-1.5,3.4-3.4,3.4s-3.4-1.5-3.4-3.4l0,0C213.1,104.2,214.6,102.7,216.4,102.7z"/>
				<g>
					
						<path style="fill-rule:evenodd;clip-rule:evenodd;fill:#FFFFFF;stroke:#21231E;stroke-width:0.667;stroke-miterlimit:22.925;" d="
						M187.8,109.7c1.7,0,3.1,1.4,3.1,3.1c0,1.7-1.4,3.1-3.1,3.1c-1.7,0-3.1-1.4-3.1-3.1c0,0,0,0,0,0
						C184.7,111.1,186.1,109.7,187.8,109.7z"/>
					
						<path style="fill-rule:evenodd;clip-rule:evenodd;fill:#FFFFFF;stroke:#21231E;stroke-width:0.667;stroke-miterlimit:22.925;" d="
						M184.8,104c1.7,0,3.1,1.4,3.1,3.1c0,1.7-1.4,3.1-3.1,3.1c-1.7,0-3.1-1.4-3.1-3.1c0,0,0,0,0,0C181.7,105.4,183.1,104,184.8,104
						C184.8,104,184.8,104,184.8,104z"/>
					
						<path style="fill-rule:evenodd;clip-rule:evenodd;fill:#FFFFFF;stroke:#21231E;stroke-width:0.667;stroke-miterlimit:22.925;" d="
						M182,98.3c1.7,0,3.1,1.4,3.1,3.1c0,1.7-1.4,3.1-3.1,3.1c-1.7,0-3.1-1.4-3.1-3.1c0,0,0,0,0,0C178.9,99.7,180.3,98.3,182,98.3z"
						/>
				</g>
			</g>
			
				<path style="fill-rule:evenodd;clip-rule:evenodd;fill:#FFC72C;stroke:#21231E;stroke-width:0.667;stroke-miterlimit:22.926;" d="
				M257.1,114c2.3,0,4.1,1.8,4.1,4.1c0,2.3-1.8,4.1-4.1,4.1c-2.3,0-4.1-1.8-4.1-4.1c0,0,0,0,0,0C253.1,115.8,254.9,114,257.1,114z"
				/>
			
				<path style="fill-rule:evenodd;clip-rule:evenodd;fill:#FFC72C;stroke:#21231E;stroke-width:0.668;stroke-miterlimit:22.961;" d="
				M237.2,109c1.8-0.1,1.4,3.1,1,3.8c-0.5,0.9-0.9,1-1.5,0.1C236.2,112.2,235.4,109.1,237.2,109L237.2,109z"/>
			
				<path style="fill-rule:evenodd;clip-rule:evenodd;fill:#FFFFFF;stroke:#21231E;stroke-width:0.667;stroke-miterlimit:22.978;" d="
				M237.3,110.7c4.2-0.3,3.2,7.3,2.4,8.9c-1.1,2.2-2.1,2.3-3.5,0.2C235.1,118.3,233,111,237.3,110.7L237.3,110.7z"/>
			
				<path style="fill-rule:evenodd;clip-rule:evenodd;fill:#FFC72C;stroke:#21231E;stroke-width:0.668;stroke-miterlimit:24.041;" d="
				M203.1,113.5c1.7-0.5,2.1,2.7,1.9,3.5c-0.2,1-0.6,1.1-1.4,0.5C203,116.9,201.4,114.1,203.1,113.5L203.1,113.5z"/>
			
				<path style="fill-rule:evenodd;clip-rule:evenodd;fill:#FFFFFF;stroke:#21231E;stroke-width:0.667;stroke-miterlimit:24.058;" d="
				M203.6,115.2c4-1.3,4.8,6.3,4.4,8.1c-0.5,2.4-1.5,2.7-3.3,1.1C203.3,123.1,199.6,116.5,203.6,115.2L203.6,115.2z"/>
			<g>
				<path style="fill-rule:evenodd;clip-rule:evenodd;fill:#FFC72C;stroke:#21231E;stroke-width:0.667;stroke-linejoin:round;" d="
					M247.7,75.3c-9.4-1-18.8,0.3-27.6,3.8c-7.8,3.1-7,12.1,2.5,24.6c-0.9,1.8-1.4,3.8-1.4,5.8c1-0.1,1.7,0,2.6-0.1
					c-0.7-1.5,0.1-3.4,1-4.7c0.6-0.9,0.7-0.7,0-1.7c-5.6-7.9-9.4-14.7-7.2-18.9c2.7-5,13-7.7,30.5-7.3c0-0.5-0.1-0.9-0.1-1.4
					C247.8,75.4,247.7,75.3,247.7,75.3L247.7,75.3z"/>
				<g>
					
						<path style="fill-rule:evenodd;clip-rule:evenodd;fill:#FFFFFF;stroke:#21231E;stroke-width:0.667;stroke-miterlimit:22.925;" d="
						M203.5,77.8c1.8,0,3.2,1.4,3.2,3.2s-1.4,3.2-3.2,3.2c-1.8,0-3.2-1.4-3.2-3.2c0,0,0,0,0,0C200.3,79.3,201.8,77.8,203.5,77.8z"/>
					
						<path style="fill-rule:evenodd;clip-rule:evenodd;fill:#FFFFFF;stroke:#21231E;stroke-width:0.667;stroke-miterlimit:22.925;" d="
						M209.9,75.8c1.8,0,3.2,1.4,3.2,3.2s-1.4,3.2-3.2,3.2c-1.8,0-3.2-1.4-3.2-3.2c0,0,0,0,0,0C206.7,77.2,208.1,75.8,209.9,75.8z"/>
				</g>
			</g>
			<g>
				
					<path style="fill-rule:evenodd;clip-rule:evenodd;fill:#FFC72C;stroke:#21231E;stroke-width:0.667;stroke-miterlimit:22.925;" d="
					M210.7,78.5c0.3,0.4,0.6,0.9,1,1.3c-5.1,2.8-7.2,5.8-6.7,8.7c0.1,0.5,1.6,6,5.1,16.5c1.9,1.3,3.7,2.7,5.3,4.4
					c-0.1,0.1,0.4,0.6,0.2,0.7c0.4,1.6-1.5,1.3-2.7,0.9c-0.8-1.6-2-2.9-3.4-3.9c-0.2-0.1-1-0.5-1-0.8c-1.9-5.9-3.7-11.4-5.3-16.6
					C201.5,84.7,205,81.1,210.7,78.5L210.7,78.5z"/>
				<path style="fill-rule:evenodd;clip-rule:evenodd;fill:#FFC72C;stroke:#21231E;stroke-width:0.667;stroke-linejoin:round;" d="
					M190.5,116.7l-0.2,1c-1.2,0.3-2.5,0.4-3.8,0.3C188.3,116.3,189.6,115.9,190.5,116.7L190.5,116.7z"/>
				
					<path style="fill-rule:evenodd;clip-rule:evenodd;fill:#FFC72C;stroke:#21231E;stroke-width:0.668;stroke-miterlimit:22.926;" d="
					M190.4,114.3c0.9,0.2,1,0.4,1.4,0.4c0.6,0.1,1.2,0,1.7-0.4c2-1.2,2.1,1,1.3,2.6c-0.5,1.2-0.4,2.5,0.3,3.5
					c0.6,1.2,0.5,1.7,0.1,2.1c-0.3,0.2-0.6,0.4-0.9,0.6c-0.5,0.6-1,0.5-1-0.3c-2-0.8-2.7-2.8-3.3-4.5
					C189,115.9,185.8,115.3,190.4,114.3L190.4,114.3z"/>
				
					<path style="fill-rule:evenodd;clip-rule:evenodd;fill:#FFC72C;stroke:#21231E;stroke-width:0.667;stroke-miterlimit:22.926;" d="
					M191.2,114.4c1.8,0.6,2-0.3,3.1-0.3c-0.5,2.7-0.9,4.1-3.8,2.6c-1.4-0.6-3.1-0.1-3.9,1.2c-0.1,0.3-1-0.3-1.4-1.1
					C183.9,113.9,188.8,113.6,191.2,114.4L191.2,114.4z"/>
			</g>
			<g>
				<g>
					
						<path style="fill-rule:evenodd;clip-rule:evenodd;fill:#FFFFFF;stroke:#21231E;stroke-width:0.667;stroke-miterlimit:22.926;" d="
						M244.8,68.3c1.8,0,3.2,1.4,3.2,3.2c0,1.8-1.4,3.2-3.2,3.2c-1.8,0-3.2-1.4-3.2-3.2C241.6,69.8,243.1,68.3,244.8,68.3
						C244.8,68.3,244.8,68.3,244.8,68.3z"/>
					
						<path style="fill-rule:evenodd;clip-rule:evenodd;fill:#FFFFFF;stroke:#21231E;stroke-width:0.667;stroke-miterlimit:22.926;" d="
						M238.2,68.3c1.8,0,3.2,1.4,3.2,3.2c0,1.8-1.4,3.2-3.2,3.2c-1.8,0-3.2-1.4-3.2-3.2C235,69.8,236.4,68.3,238.2,68.3
						C238.2,68.3,238.2,68.3,238.2,68.3z M231.6,68.8c1.8,0,3.2,1.4,3.2,3.2s-1.4,3.2-3.2,3.2c-1.8,0-3.2-1.4-3.2-3.2c0,0,0,0,0,0
						C228.4,70.3,229.8,68.8,231.6,68.8C231.6,68.8,231.6,68.8,231.6,68.8z"/>
					
						<path style="fill-rule:evenodd;clip-rule:evenodd;fill:#FFFFFF;stroke:#21231E;stroke-width:0.667;stroke-miterlimit:22.926;" d="
						M225.5,70c1.8,0,3.2,1.4,3.2,3.2c0,1.8-1.4,3.2-3.2,3.2s-3.2-1.4-3.2-3.2c0,0,0,0,0,0C222.3,71.4,223.7,70,225.5,70z"/>
				</g>
				<g>
					
						<path style="fill-rule:evenodd;clip-rule:evenodd;fill:#FFFFFF;stroke:#21231E;stroke-width:0.667;stroke-miterlimit:22.925;" d="
						M185.4,86.6c1.8,0,3.2,1.4,3.2,3.2c0,1.8-1.4,3.2-3.2,3.2c-1.8,0-3.2-1.4-3.2-3.2c0,0,0,0,0,0
						C182.2,88.1,183.7,86.6,185.4,86.6z"/>
					
						<path style="fill-rule:evenodd;clip-rule:evenodd;fill:#FFFFFF;stroke:#21231E;stroke-width:0.667;stroke-miterlimit:22.925;" d="
						M191,83.1c1.8,0,3.2,1.4,3.2,3.2s-1.4,3.2-3.2,3.2c-1.8,0-3.2-1.4-3.2-3.2c0,0,0,0,0,0C187.8,84.6,189.2,83.1,191,83.1z"/>
					
						<path style="fill-rule:evenodd;clip-rule:evenodd;fill:#FFFFFF;stroke:#21231E;stroke-width:0.667;stroke-miterlimit:22.925;" d="
						M197.3,80.2c1.8,0,3.2,1.4,3.2,3.2c0,1.8-1.4,3.2-3.2,3.2c-1.8,0-3.2-1.4-3.2-3.2c0,0,0,0,0,0
						C194.1,81.6,195.5,80.2,197.3,80.2z M181.2,91.9c1.8,0,3.2,1.4,3.2,3.2c0,1.8-1.4,3.2-3.2,3.2c-1.8,0-3.2-1.4-3.2-3.2
						c0,0,0,0,0,0C177.9,93.3,179.4,91.9,181.2,91.9z"/>
				</g>
			</g>
			
				<path style="fill-rule:evenodd;clip-rule:evenodd;fill:#FFC72C;stroke:#21231E;stroke-width:0.667;stroke-miterlimit:22.925;" d="
				M245.1,147.8l12-6l12,6l-12,6L245.1,147.8z"/>
			
				<path style="fill-rule:evenodd;clip-rule:evenodd;fill:#012169;stroke:#21231E;stroke-width:0.667;stroke-miterlimit:22.926;" d="
				M257.1,144.1c3,0,5.4,1.6,5.4,3.6s-2.4,3.6-5.4,3.6c-3,0-5.4-1.6-5.4-3.6S254.2,144.1,257.1,144.1z"/>
			
				<path style="fill-rule:evenodd;clip-rule:evenodd;fill:#FFC72C;stroke:#21231E;stroke-width:0.667;stroke-miterlimit:22.968;" d="
				M218.5,149.3l11.6-6.7l12.3,5.3l-11.6,6.7L218.5,149.3z"/>
			
				<path style="fill-rule:evenodd;clip-rule:evenodd;fill:#E40046;stroke:#21231E;stroke-width:0.666;stroke-miterlimit:22.926;" d="
				M230.2,144.9c3-0.2,5.5,1.3,5.6,3.3c0.1,2-2.2,3.7-5.2,3.9c-3,0.2-5.5-1.3-5.6-3.3S227.2,145,230.2,144.9L230.2,144.9z"/>
			<g>
				
					<path style="fill-rule:evenodd;clip-rule:evenodd;fill:#FFC72C;stroke:#21231E;stroke-width:0.667;stroke-miterlimit:22.925;" d="
					M204.5,144.4l12.5,4.8l-10.4,6.9C204,155.2,201.9,146.1,204.5,144.4L204.5,144.4z"/>
				
					<path style="fill-rule:evenodd;clip-rule:evenodd;fill:#012169;stroke:#21231E;stroke-width:0.667;stroke-miterlimit:22.925;" d="
					M204.7,146.8c3-0.3,5.5,1.1,5.7,3s-2,3.8-5,4.1c-1.9,0.2-3.1-1.5-3.3-3.3S202.7,147,204.7,146.8z"/>
				
					<path style="fill-rule:evenodd;clip-rule:evenodd;fill:#FFFFFF;stroke:#21231E;stroke-width:0.667;stroke-miterlimit:22.925;" d="
					M244.1,150c0.9,0,1.7,0.8,1.7,1.7c0,0.9-0.8,1.7-1.7,1.7c-0.9,0-1.7-0.8-1.7-1.7C242.4,150.7,243.2,150,244.1,150z M218.4,151.4
					c0.9,0,1.7,0.8,1.7,1.7s-0.8,1.7-1.7,1.7c-0.9,0-1.7-0.8-1.7-1.7C216.7,152.2,217.5,151.4,218.4,151.4
					C218.4,151.4,218.4,151.4,218.4,151.4z M217.5,143.6c0.9,0,1.7,0.8,1.7,1.7s-0.8,1.7-1.7,1.7c-0.9,0-1.7-0.8-1.7-1.7
					c0,0,0,0,0,0C215.8,144.4,216.5,143.6,217.5,143.6z M244,142.5c0.9,0,1.7,0.8,1.7,1.7c0,0.9-0.8,1.7-1.7,1.7
					c-0.9,0-1.7-0.8-1.7-1.7c0,0,0,0,0,0C242.4,143.3,243.1,142.5,244,142.5z"/>
			</g>
			<g>
				
					<path style="fill-rule:evenodd;clip-rule:evenodd;fill:#FFC72C;stroke:#21231E;stroke-width:0.668;stroke-miterlimit:22.926;" d="
					M198.5,127.4c1.3-0.4,3.3,2.4,3.7,2.4c0.6-1.6-0.7-5.5-2.9-8.5c-1.5-0.5-1.7-1.5-2-3.8c-0.1-0.7-1.4-0.2-1.4,1
					c-0.1,1-0.1,2,0.2,3c0.1,0.5,0,0.9-0.4,1.2C198,123.6,198.6,124.8,198.5,127.4L198.5,127.4z"/>
				<path style="fill-rule:evenodd;clip-rule:evenodd;fill:#FFC72C;stroke:#21231E;stroke-width:0.668;stroke-linejoin:round;" d="
					M197.3,117.5c-0.2,0.6-0.3,1.2-0.3,1.8c0,0.6,0.2,1.2,0.6,1.7c0.4,0.5,1,1,1.6,1.3c0.5,0.4,0.9,0.9,1.2,1.6
					c0.3,0.6,0.6,1.3,0.6,2.1c0,1.9,0.4,3.5,1.3,3.8c0.4,0.2,0.8,0.2,1.2,0.1c-0.1-0.4-0.2-0.9-0.4-1.3c-0.7-1.1-1-2.4-0.8-3.6
					c0.1-0.6,0.5-0.8,0.4-1.4c-0.1-1.1-1-3.2-2.2-3.2c-1.2,0-1.8-0.1-2.5-1.8C197.8,118.3,197.6,117.9,197.3,117.5L197.3,117.5z"/>
				
					<path style="fill-rule:evenodd;clip-rule:evenodd;fill:#FFC72C;stroke:#21231E;stroke-width:0.663;stroke-miterlimit:22.926;" d="
					M192.7,122c0.3-0.3,0.7-0.5,1.1-0.6c0.6-0.3,1.3-0.3,2-0.1c3,0.9,4.3,6.1,1,7.4c-0.6,0.1-1.2-0.5-1.8-1.8
					c-0.5-1.3-1.2-2.5-2.2-3.5C192.4,122.8,192.3,122.3,192.7,122L192.7,122z"/>
				
					<path style="fill-rule:evenodd;clip-rule:evenodd;fill:#FFC72C;stroke:#21231E;stroke-width:0.662;stroke-miterlimit:22.926;" d="
					M194.1,122.4c2.8-1.1,4.9,4.3,2.3,5.3c-1.4,0.6-1.6-1.2-1.8-2.2C194.2,124.2,191.4,123.4,194.1,122.4L194.1,122.4z"/>
			</g>
			
				<path style="fill-rule:evenodd;clip-rule:evenodd;fill:#012169;stroke:#21231E;stroke-width:0.667;stroke-miterlimit:23.191;" d="
				M194.4,123.2c1.4-0.5,3.3,2.7,1.6,3.4c-0.9,0.4-2,0-2.4-0.9c0-0.1-0.1-0.2-0.1-0.3c-0.4-0.8-0.1-1.8,0.7-2.2
				C194.3,123.2,194.4,123.2,194.4,123.2L194.4,123.2z"/>
			
				<path style="fill-rule:evenodd;clip-rule:evenodd;fill:#FFC72C;stroke:#21231E;stroke-width:0.667;stroke-miterlimit:22.968;" d="
				M295.8,149.3l-11.6-6.7l-12.3,5.3l11.6,6.7L295.8,149.3z"/>
			
				<path style="fill-rule:evenodd;clip-rule:evenodd;fill:#E40046;stroke:#21231E;stroke-width:0.666;stroke-miterlimit:22.926;" d="
				M284.1,144.9c-3-0.2-5.5,1.3-5.6,3.3c-0.1,2,2.2,3.7,5.2,3.9c3,0.2,5.5-1.3,5.6-3.3C289.4,146.8,287,145,284.1,144.9L284.1,144.9
				z"/>
			
				<path style="fill-rule:evenodd;clip-rule:evenodd;fill:#FFC72C;stroke:#21231E;stroke-width:0.667;stroke-miterlimit:22.925;" d="
				M309.8,144.4l-12.5,4.8l10.4,6.9C310.3,155.2,312.4,146.1,309.8,144.4L309.8,144.4z"/>
			
				<path style="fill-rule:evenodd;clip-rule:evenodd;fill:#012169;stroke:#21231E;stroke-width:0.667;stroke-miterlimit:22.925;" d="
				M309.5,146.8c-3-0.3-5.5,1.1-5.7,3s2,3.8,5,4.1c1.9,0.2,3.1-1.5,3.3-3.3C312.3,148.8,311.6,147,309.5,146.8z"/>
			<g>
				
					<path style="fill-rule:evenodd;clip-rule:evenodd;fill:#FFFFFF;stroke:#21231E;stroke-width:0.667;stroke-miterlimit:22.925;" d="
					M270.2,150c-0.9,0-1.7,0.8-1.7,1.7c0,0.9,0.8,1.7,1.7,1.7c0.9,0,1.7-0.8,1.7-1.7C271.8,150.7,271.1,150,270.2,150z M295.9,151.4
					c-0.9,0-1.7,0.8-1.7,1.7c0,0.9,0.8,1.7,1.7,1.7c0.9,0,1.7-0.8,1.7-1.7c0,0,0,0,0,0C297.6,152.2,296.8,151.4,295.9,151.4
					C295.9,151.4,295.9,151.4,295.9,151.4z M296.8,143.6c-0.9,0-1.7,0.8-1.7,1.7c0,0.9,0.8,1.7,1.7,1.7c0.9,0,1.7-0.8,1.7-1.7
					c0,0,0,0,0,0C298.5,144.4,297.7,143.6,296.8,143.6z M270.2,142.5c-0.9,0-1.7,0.8-1.7,1.7c0,0.9,0.8,1.7,1.7,1.7
					c0.9,0,1.7-0.8,1.7-1.7c0,0,0,0,0,0C271.9,143.3,271.2,142.5,270.2,142.5z"/>
				
					<path style="fill-rule:evenodd;clip-rule:evenodd;fill:#FFFFFF;stroke:#21231E;stroke-width:0.667;stroke-miterlimit:22.926;" d="
					M213.8,97.2c1.9,0,3.4,1.5,3.4,3.4c0,1.9-1.5,3.4-3.4,3.4c-1.9,0-3.4-1.5-3.4-3.4C210.5,98.7,212,97.2,213.8,97.2z"/>
				
					<path style="fill-rule:evenodd;clip-rule:evenodd;fill:#FFFFFF;stroke:#21231E;stroke-width:0.667;stroke-miterlimit:22.926;" d="
					M211.4,91.6c1.9,0,3.4,1.5,3.4,3.4c0,1.9-1.5,3.4-3.4,3.4c-1.9,0-3.4-1.5-3.4-3.4l0,0C208,93.1,209.5,91.6,211.4,91.6
					C211.4,91.6,211.4,91.6,211.4,91.6z"/>
				
					<path style="fill-rule:evenodd;clip-rule:evenodd;fill:#FFFFFF;stroke:#21231E;stroke-width:0.667;stroke-miterlimit:22.925;" d="
					M219.4,72c1.8,0,3.2,1.4,3.2,3.2c0,1.8-1.4,3.2-3.2,3.2c-1.8,0-3.2-1.4-3.2-3.2c0,0,0,0,0,0C216.2,73.4,217.6,72,219.4,72z"/>
				<g>
					
						<path style="fill-rule:evenodd;clip-rule:evenodd;fill:#FFFFFF;stroke:#21231E;stroke-width:0.667;stroke-miterlimit:22.926;" d="
						M214,74.4c1.9,0,3.4,1.5,3.4,3.4s-1.5,3.4-3.4,3.4s-3.4-1.5-3.4-3.4l0,0C210.6,75.9,212.1,74.4,214,74.4z"/>
					
						<path style="fill-rule:evenodd;clip-rule:evenodd;fill:#FFFFFF;stroke:#21231E;stroke-width:0.667;stroke-miterlimit:22.926;" d="
						M210,79.2c1.9,0,3.4,1.5,3.4,3.4c0,1.9-1.5,3.4-3.4,3.4c-1.9,0-3.4-1.5-3.4-3.4C206.6,80.7,208.1,79.2,210,79.2z"/>
					
						<path style="fill-rule:evenodd;clip-rule:evenodd;fill:#FFFFFF;stroke:#21231E;stroke-width:0.667;stroke-miterlimit:22.926;" d="
						M209.3,85.2c1.9,0,3.4,1.5,3.4,3.4s-1.5,3.4-3.4,3.4c-1.9,0-3.4-1.5-3.4-3.4l0,0C206,86.7,207.5,85.2,209.3,85.2
						C209.3,85.2,209.3,85.2,209.3,85.2z"/>
				</g>
			</g>
			
				<path style="fill-rule:evenodd;clip-rule:evenodd;fill:#FFC72C;stroke:#21231E;stroke-width:0.667;stroke-miterlimit:22.925;" d="
				M258.8,47.6c0.9,0,1.6-0.8,1.6-1.7c0-0.9-0.7-1.6-1.6-1.6c0-0.9-0.8-1.6-1.7-1.6c-0.9,0-1.6,0.7-1.6,1.6c-0.9,0-1.6,0.8-1.6,1.7
				c0,0.9,0.7,1.6,1.6,1.6v3.4h-2.9c0-0.9-0.8-1.6-1.7-1.6c-0.9,0-1.6,0.7-1.6,1.6c-0.9,0-1.6,0.7-1.6,1.6c0,0.9,0.7,1.6,1.6,1.6
				c0,0.9,0.8,1.6,1.7,1.6c0.9,0,1.5-0.7,1.6-1.6h2.9v11.2h3.3V54.2h2.9c0,0.9,0.8,1.6,1.7,1.6c0.9,0,1.5-0.7,1.6-1.6
				c0.9,0,1.6-0.7,1.6-1.6c0-0.9-0.7-1.6-1.6-1.6c0-0.9-0.8-1.6-1.7-1.6c-0.9,0-1.6,0.7-1.6,1.6h-2.9L258.8,47.6z"/>
			
				<path style="fill-rule:evenodd;clip-rule:evenodd;fill:#012169;stroke:#21231E;stroke-width:0.667;stroke-miterlimit:22.926;" d="
				M257.1,58.1c5,0,9.1,4.1,9.1,9.1c0,5-4.1,9.1-9.1,9.1c-5,0-9.1-4.1-9.1-9.1C248.1,62.2,252.1,58.1,257.1,58.1
				C257.1,58.1,257.1,58.1,257.1,58.1z"/>
			
				<path style="fill-rule:evenodd;clip-rule:evenodd;fill:#FFC72C;stroke:#21231E;stroke-width:0.667;stroke-miterlimit:22.925;" d="
				M257.1,58.1c0.6,0,1.1,0.1,1.6,0.1v7.1h-3.3v-7.1C256,58.2,256.6,58.1,257.1,58.1L257.1,58.1z"/>
			<g>
				
					<path style="fill-rule:evenodd;clip-rule:evenodd;fill:#FFC72C;stroke:#21231E;stroke-width:0.667;stroke-miterlimit:22.925;" d="
					M266,65.4c0.2,1,0.2,2.1,0.1,3.1c-3-0.1-6-0.2-9-0.2s-6,0.1-9,0.2c-0.1-0.4-0.1-0.9-0.1-1.3c0-0.6,0.1-1.2,0.2-1.8
					c3-0.1,5.9-0.2,8.9-0.2S263.1,65.3,266,65.4L266,65.4z"/>
				<path style="fill-rule:evenodd;clip-rule:evenodd;fill:#FFC72C;stroke:#21231E;stroke-width:0.667;stroke-linejoin:round;" d="
					M250.1,72.9c-1.9-1.2-2.3,0.7-2.2,2.5c0.2,6.9,1.5,13.5-0.4,22c-0.7,3.4-2,5.3-0.8,6c3,1.7,4.4,3.2,3.9,4
					c0.9,1.7,3.1,1.4,6.5,0.8c3.4,0.5,5.6,0.9,6.5-0.8c-0.5-0.8,0.9-2.4,3.9-4c1.2-0.7,0-2.6-0.8-6c-1.9-8.5-0.5-15.1-0.4-22
					c0-1.8-0.3-3.7-2.2-2.5C260.4,75.2,253.9,75.2,250.1,72.9L250.1,72.9z"/>
				<g>
					
						<path style="fill-rule:evenodd;clip-rule:evenodd;fill:#FFFFFF;stroke:#21231E;stroke-width:0.667;stroke-miterlimit:22.926;" d="
						M257.1,98.9c2,0,3.6,1.6,3.6,3.6s-1.6,3.6-3.6,3.6c-2,0-3.6-1.6-3.6-3.6C253.5,100.6,255.2,98.9,257.1,98.9L257.1,98.9z"/>
					
						<path style="fill-rule:evenodd;clip-rule:evenodd;fill:#FFFFFF;stroke:#21231E;stroke-width:0.667;stroke-miterlimit:22.926;" d="
						M257.1,92.7c2,0,3.6,1.6,3.6,3.6s-1.6,3.6-3.6,3.6c-2,0-3.6-1.6-3.6-3.6C253.5,94.3,255.2,92.7,257.1,92.7z"/>
					
						<path style="fill-rule:evenodd;clip-rule:evenodd;fill:#FFFFFF;stroke:#21231E;stroke-width:0.667;stroke-miterlimit:22.926;" d="
						M257.1,86.7c2,0,3.6,1.6,3.6,3.6c0,2-1.6,3.6-3.6,3.6c-2,0-3.6-1.6-3.6-3.6C253.5,88.3,255.2,86.7,257.1,86.7L257.1,86.7z
						 M257.1,69.7c2,0,3.6,1.6,3.6,3.6c0,2-1.6,3.6-3.6,3.6c-2,0-3.6-1.6-3.6-3.6C253.5,71.3,255.2,69.7,257.1,69.7z"/>
					
						<path style="fill-rule:evenodd;clip-rule:evenodd;fill:#FFFFFF;stroke:#21231E;stroke-width:0.667;stroke-miterlimit:22.926;" d="
						M257.1,74.9c2,0,3.6,1.6,3.6,3.6c0,2-1.6,3.6-3.6,3.6c-2,0-3.6-1.6-3.6-3.6C253.5,76.6,255.2,74.9,257.1,74.9L257.1,74.9z"/>
					
						<path style="fill-rule:evenodd;clip-rule:evenodd;fill:#FFFFFF;stroke:#21231E;stroke-width:0.667;stroke-miterlimit:22.926;" d="
						M257.1,80.7c2,0,3.6,1.6,3.6,3.6c0,2-1.6,3.6-3.6,3.6c-2,0-3.6-1.6-3.6-3.6C253.5,82.3,255.2,80.7,257.1,80.7L257.1,80.7z"/>
				</g>
			</g>
			<g>
				<path style="fill-rule:evenodd;clip-rule:evenodd;fill:#FFC72C;stroke:#21231E;stroke-width:0.667;stroke-linejoin:round;" d="
					M253.1,106.8c-1.4-2.6-2.9-4.3-4.5-5.1c2.2-6.9,2.7-15.8,1.4-26.8c-0.1-1.6-0.5-2.3-1.2-2.3c-0.6,0-0.9,0.8-0.9,2.7
					c0.4,6,0.9,11.3,0.6,15.8c-0.3,3.8-1.1,7.5-2.2,11.1c-0.1,0.5,0.2,0.9,2,1.9c1.1,0.5,2,1.5,2.5,2.7c0.2-0.1,0.5-0.1,0.8-0.1
					C252.8,107.2,253.4,107.1,253.1,106.8L253.1,106.8z M261.2,106.8c1.4-2.6,2.9-4.3,4.5-5.1c-2.2-6.9-2.7-15.8-1.4-26.8
					c0.1-1.6,0.5-2.3,1.2-2.3c0.6,0,0.9,0.8,0.9,2.7c-0.4,6-0.9,11.3-0.6,15.8c0.3,3.8,1.1,7.5,2.2,11.1c0.1,0.5-0.2,0.9-2,1.9
					c-1.1,0.5-2,1.5-2.5,2.7c-0.2-0.1-0.5-0.1-0.8-0.1C261.4,107.2,260.9,107.1,261.2,106.8L261.2,106.8z"/>
				
					<path style="fill-rule:evenodd;clip-rule:evenodd;fill:#FFC72C;stroke:#21231E;stroke-width:0.667;stroke-miterlimit:22.926;" d="
					M259.7,105.5c0.5,0.8,0.4,1,0.7,1.3c0.6,0.3,1.2,0.4,1.8,0.2c2.8-0.4,2.4,1.2,1.2,3.1c-0.9,1-1.8,1.9-2.8,2.7
					c-0.7,0.8-0.8,1.5-1.1,1.7c-0.8,0-1.6,0-2.4,0c-0.4,0-1.3,0-2.4,0c-0.3-0.2-0.4-0.9-1.1-1.7c-1-0.8-1.9-1.7-2.8-2.7
					c-1.2-1.9-1.6-3.5,1.2-3.1c0.6,0.2,1.3,0.1,1.8-0.2c0.3-0.3,0.2-0.4,0.7-1.3c0.3-0.5,0.7-0.9,1.2-1.2c0.9-0.2,1.8-0.2,2.8,0
					C259,104.6,259.4,105,259.7,105.5L259.7,105.5z"/>
			</g>
		</g>
		<path style="fill-rule:evenodd;clip-rule:evenodd;fill:#21231E;" d="M256.7,114.5l-0.5-0.1c-0.2-1.9-1-3.6-2.3-5
			C255.5,110.7,256.5,112.5,256.7,114.5 M257.6,114.5l0.5-0.1c0.2-1.9,1-3.6,2.3-5C258.8,110.7,257.8,112.5,257.6,114.5"/>
		<path style="fill-rule:evenodd;clip-rule:evenodd;fill:#FFC72C;stroke:#21231E;stroke-width:0.667;stroke-miterlimit:22.925;" d="
			M263.5,107c-0.2,0.7-0.6,1.3-1,1.8c-0.8,0.8-2.2,0.3-3.5-0.8c-1.1-0.7-2.6-0.7-3.7,0c-1.3,1.1-2.7,1.6-3.5,0.8
			c-0.5-0.5-0.8-1.1-1-1.8c0.4-0.1,0.8,0,1.3,0c0.6,0.2,1.3,0.1,1.8-0.2c0.3-0.3,0.2-0.4,0.7-1.3c0.3-0.5,0.7-0.9,1.2-1.2
			c0.9-0.2,1.8-0.2,2.8,0c0.5,0.3,0.9,0.7,1.2,1.2c0.5,0.8,0.4,1,0.7,1.3c0.6,0.3,1.2,0.4,1.8,0.2
			C262.7,106.9,263.1,106.9,263.5,107L263.5,107z"/>
		<path style="fill-rule:evenodd;clip-rule:evenodd;fill:#FFC72C;stroke:#21231E;stroke-width:0.667;stroke-miterlimit:22.926;" d="
			M244.6,115.5c0.8-0.5,1-0.4,1.3-0.7c0.3-0.6,0.4-1.2,0.2-1.8c-0.4-2.8,1.2-2.4,3.1-1.2c1,0.9,1.9,1.8,2.7,2.8
			c0.8,0.7,1.5,0.8,1.7,1.1c0,1.1,0,2,0,2.4l0,0c0,0.4,0,1.3,0,2.4c-0.2,0.3-0.9,0.4-1.7,1.1s-1.7,2.2-2.7,2.8
			c-1.9,1.2-3.5,1.6-3.1-1.2c0.2-0.6,0.1-1.3-0.2-1.8c-0.3-0.3-0.4-0.2-1.3-0.7c-0.5-0.3-0.9-0.7-1.2-1.2c-0.3-0.4-0.1-0.9-0.1-1.4
			s-0.1-0.9,0.1-1.4C243.7,116.2,244.1,115.8,244.6,115.5z"/>
		<path style="fill-rule:evenodd;clip-rule:evenodd;fill:#21231E;" d="M253.6,118.5l-0.1,0.5c-1.9,0.2-3.6,1-5,2.3
			C249.8,119.6,251.6,118.7,253.6,118.5 M253.6,117.6l-0.1-0.5c-1.9-0.2-3.6-1-5-2.3C249.8,116.4,251.6,117.4,253.6,117.6"/>
		<path style="fill-rule:evenodd;clip-rule:evenodd;fill:#FFC72C;stroke:#21231E;stroke-width:0.667;stroke-miterlimit:22.926;" d="
			M246.1,111.7c0.7,0.2,1.3,0.6,1.8,1c0.8,0.8,0.3,2.2-0.8,3.5c-0.4,0.5-0.5,1.2-0.5,1.9c0,0.7,0.1,1.3,0.5,1.8
			c1.1,1.3,1.6,2.7,0.8,3.5c-0.5,0.5-1.1,0.8-1.8,1c-0.1-0.4,0-0.8,0-1.3c0.2-0.6,0.1-1.3-0.2-1.8c-0.3-0.3-0.4-0.2-1.3-0.7
			c-0.5-0.3-0.9-0.7-1.2-1.2c-0.3-0.4-0.1-0.9-0.1-1.4s-0.1-0.9,0.1-1.4c0.3-0.5,0.7-0.9,1.2-1.2c0.8-0.5,1-0.4,1.3-0.7
			c0.3-0.6,0.4-1.2,0.2-1.8C246,112.5,246,112.1,246.1,111.7L246.1,111.7z M269.7,120.6c-0.8,0.5-1,0.4-1.3,0.7
			c-0.3,0.6-0.4,1.2-0.2,1.8c0.4,2.8-1.2,2.4-3.1,1.2c-1-0.9-1.9-1.8-2.7-2.8c-0.8-0.7-1.5-0.8-1.7-1.1c0-1.1,0-2,0-2.4l0,0
			c0-0.4,0-1.3,0-2.4c0.2-0.3,0.9-0.4,1.7-1.1c0.8-1,1.7-1.9,2.7-2.8c1.9-1.2,3.5-1.6,3.1,1.2c-0.2,0.6-0.1,1.3,0.2,1.8
			c0.3,0.3,0.4,0.2,1.3,0.7c0.5,0.3,0.9,0.7,1.2,1.2c0.2,0.9,0.2,1.8,0,2.8C270.6,119.9,270.2,120.3,269.7,120.6L269.7,120.6z"/>
		<path style="fill-rule:evenodd;clip-rule:evenodd;fill:#21231E;" d="M260.6,117.6l0.1-0.5c1.9-0.2,3.6-1,5-2.3
			C264.5,116.4,262.6,117.4,260.6,117.6 M260.6,118.5l0.1,0.5c1.9,0.2,3.6,1,5,2.3C264.5,119.7,262.6,118.7,260.6,118.5"/>
		<g>
			<g>
				
					<path style="fill-rule:evenodd;clip-rule:evenodd;fill:#FFC72C;stroke:#21231E;stroke-width:0.667;stroke-miterlimit:22.926;" d="
					M268.2,124.4c-0.7-0.2-1.3-0.6-1.8-1c-0.8-0.8-0.3-2.2,0.8-3.5c0.7-1.1,0.7-2.6,0-3.7c-1.1-1.3-1.6-2.7-0.8-3.5
					c0.5-0.5,1.1-0.8,1.8-1c0.1,0.4,0,0.8,0,1.3c-0.2,0.6-0.1,1.3,0.2,1.8c0.3,0.3,0.4,0.2,1.3,0.7c0.5,0.3,0.9,0.7,1.2,1.2
					c0.2,0.4,0.2,0.9,0.1,1.4c0,0.5,0.1,0.9-0.1,1.4c-0.3,0.5-0.7,0.9-1.2,1.2c-0.8,0.5-1,0.4-1.3,0.7c-0.3,0.6-0.4,1.2-0.2,1.8
					C268.3,123.6,268.3,124,268.2,124.4L268.2,124.4z M257.1,114c2.3,0,4.1,1.8,4.1,4.1c0,2.3-1.8,4.1-4.1,4.1
					c-2.3,0-4.1-1.8-4.1-4.1c0,0,0,0,0,0C253.1,115.8,254.9,114,257.1,114z"/>
				
					<path style="fill-rule:evenodd;clip-rule:evenodd;fill:#FFC72C;stroke:#21231E;stroke-width:0.667;stroke-miterlimit:22.926;" d="
					M257.1,115c1.7,0,3,1.3,3,3c0,1.7-1.3,3-3,3c-1.7,0-3-1.3-3-3c0,0,0,0,0,0C254.1,116.4,255.5,115,257.1,115
					C257.1,115,257.1,115,257.1,115z"/>
			</g>
			
				<path style="fill-rule:evenodd;clip-rule:evenodd;fill:#012169;stroke:#21231E;stroke-width:0.667;stroke-miterlimit:22.926;" d="
				M257.1,116.1c1,0,1.9,0.8,1.9,1.9c0,1-0.8,1.9-1.9,1.9s-1.9-0.8-1.9-1.9v0C255.3,117,256.1,116.1,257.1,116.1z"/>
		</g>
		<path style="fill-rule:evenodd;clip-rule:evenodd;fill:#21231E;" d="M193.2,121.6l0.4-0.2c-0.7-0.9-1-2.1-0.7-3.3
			C192.2,119,192.4,120.4,193.2,121.6"/>
		<path style="fill-rule:evenodd;clip-rule:evenodd;fill:#FFC72C;stroke:#21231E;stroke-width:0.667;stroke-miterlimit:22.925;" d="
			M219.5,107.8c0.7,0.9,0.6,1.1,1,1.3c0.6,0.3,1.2,0.3,1.8,0c2.6-1,2.6,1,1.8,3.4c-0.4,1.1-1.5,2.3-1.9,3.3
			c-0.5,0.9-0.4,1.6-0.6,1.9c-0.9,0.2-1.7,0.3-2.1,0.3l0,0c-0.4,0.1-1.1,0.2-2.1,0.3c-0.3-0.2-0.5-0.8-1.4-1.6
			c-1.1-0.7-2.1-1.5-3.1-2.4c-1.6-1.8-2.5-3.6,0.1-3.5c0.6,0.1,1.2-0.1,1.5-0.5c0.2-0.3,0.1-0.5,0.3-1.5c0.1-0.6,0.3-1.1,0.7-1.6
			c0.3-0.4,0.8-0.3,1.2-0.4c0.4-0.1,0.8-0.3,1.3-0.1C218.6,106.9,219.1,107.3,219.5,107.8L219.5,107.8z"/>
		<path style="fill-rule:evenodd;clip-rule:evenodd;fill:#21231E;" d="M219.1,118c-0.1,0-0.3,0-0.4,0c-0.7-1.9-1.8-3.6-3.3-5
			C217.1,114.2,218.4,116,219.1,118 M219.8,117.9l0.4-0.1c-0.3-1.9,0-3.9,0.8-5.7C220,113.4,219.6,115.7,219.8,117.9"/>
		<path style="fill-rule:evenodd;clip-rule:evenodd;fill:#FFC72C;stroke:#21231E;stroke-width:0.667;stroke-miterlimit:22.925;" d="
			M223.4,108.9c-0.1,0.8-0.2,1.5-0.6,2.3c-0.6,1.1-1.9,0.7-3.4-0.4c-0.6-0.3-1.2-0.4-1.8-0.3c-0.6,0.1-1.2,0.4-1.5,0.8
			c-0.8,1.4-1.9,2.2-2.8,1.4c-0.6-0.5-1.1-1.1-1.5-1.8c0.4-0.1,0.7-0.2,1.1-0.2c0.6,0.1,1.2-0.1,1.5-0.5c0.2-0.3,0.1-0.5,0.3-1.5
			c0.1-0.6,0.4-1.1,0.7-1.6c0.3-0.4,0.8-0.3,1.2-0.4s0.8-0.3,1.3-0.1c0.6,0.3,1,0.7,1.4,1.2c0.7,0.9,0.6,1.1,1,1.4
			c0.6,0.3,1.2,0.3,1.8,0C222.6,109,223,108.9,223.4,108.9L223.4,108.9z"/>
		<path style="fill-rule:evenodd;clip-rule:evenodd;fill:#FFC72C;stroke:#21231E;stroke-width:0.675;stroke-miterlimit:22.926;" d="
			M209.4,118.9c0.4-0.5,0.6-0.4,0.6-0.7c0-0.6-0.1-1.1-0.5-1.6c-1.2-2.4,0.1-2.2,1.9-1.2c0.5,0.3,1,0.7,1.5,1.1
			c0.5,0.4,1,0.9,1.5,1.2c0.9,0.6,1.4,0.6,1.7,0.9c0.3,0.7,0.6,1.5,0.8,2.2l0,0c0.2,0.4,0.5,1.2,0.8,2.2c-0.1,0.3-0.6,0.3-0.9,1
			c-0.3,0.9-0.7,1.7-1.1,2.5c-0.7,0.9-1.3,1.4-1.8,1.3c-0.5-0.1-0.8-0.8-0.9-2.3c-0.1-0.6-0.3-1.2-0.8-1.6c-0.3-0.3-0.4-0.2-1.1-0.6
			c-0.5-0.3-0.9-0.6-1.2-1c-0.3-0.4-0.4-0.8-0.5-1.2c-0.2-0.4-0.3-0.8-0.4-1.2C209,119.6,209.2,119.3,209.4,118.9L209.4,118.9z"/>
		<path style="fill-rule:evenodd;clip-rule:evenodd;fill:#21231E;" d="M217.2,121.5c0,0.2,0.1,0.3,0.1,0.5c-0.7,0.2-1.4,0.5-1.9,0.9
			c-0.5,0.4-1,1-1.3,1.6c0.1-0.7,0.5-1.4,1-1.9C215.7,122.1,216.4,121.7,217.2,121.5 M216.9,120.7c-0.1-0.2-0.2-0.3-0.2-0.5
			c-0.9-0.1-1.7-0.3-2.5-0.6c-0.8-0.4-1.6-0.8-2.3-1.4c0.6,0.7,1.4,1.3,2.3,1.7C215,120.3,216,120.6,216.9,120.7"/>
		<path style="fill-rule:evenodd;clip-rule:evenodd;fill:#FFC72C;stroke:#21231E;stroke-width:0.667;stroke-linejoin:round;" d="
			M209.2,115.1c0.5,0.2,1,0.5,1.5,0.9c0.5,0.4,0.7,0.9,0.8,1.5c0.1,0.7,0,1.4-0.2,2c-0.1,0.6,0,1.3,0.3,1.9c0.2,0.7,0.6,1.3,1,1.8
			c1.3,1.3,2.2,2.6,1.8,3.5c-0.1,0.4-0.4,0.7-0.8,0.9c-0.3-0.3-0.5-0.7-0.6-1.1c-0.1-0.7-0.4-1.3-0.8-1.8c-0.3-0.5-0.7-0.9-1.2-1.2
			c-0.5-0.3-0.9-0.2-1.3-0.6c-0.7-0.8-1.5-2.8-0.7-3.7c0.8-0.9,1.1-1.4,0.4-3C209.4,115.9,209.3,115.5,209.2,115.1L209.2,115.1z"/>
		<path style="fill-rule:evenodd;clip-rule:evenodd;fill:#FFC72C;stroke:#21231E;stroke-width:0.634;stroke-miterlimit:22.926;" d="
			M231.8,121.6c-0.7,0.6-0.8,0.5-1,0.8c-0.2,0.6-0.2,1.2,0.1,1.7c0.8,2.5-0.7,2.3-2.6,1.3c-1-0.7-1.9-1.5-2.8-2.3
			c-0.8-0.6-1.4-0.6-1.6-0.9c-0.2-0.7-0.3-1.5-0.5-2.2l0,0c-0.2-0.8-0.3-1.5-0.5-2.3c0.1-0.3,0.7-0.5,1.3-1.3
			c0.5-1.1,1.2-2.2,1.9-3.2c1.5-1.6,3-2.3,3.1,0.8c0,0.7,0.2,1.3,0.5,1.9c0.3,0.3,0.4,0.2,1.3,0.6c0.5,0.2,1,0.6,1.3,1
			c0.2,0.4,0.3,0.9,0.3,1.4c0.2,0.4,0.2,0.9,0.1,1.4C232.5,120.8,232.2,121.2,231.8,121.6L231.8,121.6z"/>
		<path style="fill-rule:evenodd;clip-rule:evenodd;fill:#21231E;" d="M223.2,119.7c0-0.1,0-0.3,0-0.5c1.6-0.5,3.1-1.5,4.1-2.8
			C226.5,118,225,119.2,223.2,119.7 M223.4,120.5c0.1,0.1,0.1,0.3,0.2,0.4c1.7,0,3.4,0.6,4.9,1.6
			C227.1,121.3,225.3,120.5,223.4,120.5"/>
		<g>
			<g>
				
					<path style="fill-rule:evenodd;clip-rule:evenodd;fill:#FFC72C;stroke:#21231E;stroke-width:0.677;stroke-miterlimit:22.926;" d="
					M231,125.3c-0.6-0.2-1.2-0.4-1.8-0.8c-0.9-0.7-0.6-2,0.1-3.3c0.2-0.6,0.3-1.2,0.1-1.9c-0.1-0.7-0.4-1.3-0.8-1.8
					c-1.2-1.2-2-2.5-1.4-3.4c0.4-0.6,0.9-1,1.5-1.4c0.1,0.4,0.2,0.9,0.2,1.3c0,0.7,0.2,1.3,0.5,1.9c0.3,0.3,0.4,0.2,1.3,0.6
					c0.5,0.2,1,0.6,1.3,1c0.2,0.4,0.3,0.9,0.3,1.4c0.2,0.4,0.2,0.9,0.1,1.4c-0.2,0.5-0.5,0.9-0.9,1.3c-0.7,0.6-0.8,0.5-1,0.8
					c-0.2,0.6-0.2,1.2,0.1,1.7C230.9,124.5,231,124.9,231,125.3L231,125.3z"/>
				<g>
					
						<path style="fill-rule:evenodd;clip-rule:evenodd;fill:#FFC72C;stroke:#21231E;stroke-width:0.667;stroke-miterlimit:22.925;" d="
						M219.4,116.5c2.3,0,4.2,1.7,4.5,4c0.4,1.8-0.8,3.6-2.6,4c-0.2,0-0.4,0.1-0.6,0.1c-2.2-0.1-4-1.7-4.3-3.8
						c-0.5-1.8,0.6-3.7,2.5-4.1C219,116.5,219.2,116.5,219.4,116.5z"/>
					
						<path style="fill-rule:evenodd;clip-rule:evenodd;fill:#FFC72C;stroke:#21231E;stroke-width:0.667;stroke-miterlimit:22.925;" d="
						M219.5,117.6c1.7,0,3.1,1.3,3.3,2.9c0.3,1.3-0.6,2.6-1.9,2.9c-0.2,0-0.3,0.1-0.5,0.1c-1.6-0.1-2.9-1.2-3.2-2.8
						c-0.3-1.3,0.5-2.7,1.8-3C219.2,117.6,219.4,117.6,219.5,117.6z"/>
				</g>
			</g>
			
				<path style="fill-rule:evenodd;clip-rule:evenodd;fill:#012169;stroke:#21231E;stroke-width:0.667;stroke-miterlimit:22.925;" d="
				M219.7,118.7c1,0,1.9,0.8,2.1,1.8c0.2,0.8-0.4,1.7-1.2,1.9c-0.1,0-0.2,0-0.3,0c-1,0-1.9-0.8-2-1.8c-0.2-0.8,0.3-1.7,1.2-1.9
				C219.5,118.7,219.6,118.7,219.7,118.7L219.7,118.7z"/>
			<g>
				
					<path style="fill-rule:evenodd;clip-rule:evenodd;fill:#FFFFFF;stroke:#21231E;stroke-width:0.667;stroke-miterlimit:22.926;" d="
					M297.8,102.7c-1.9,0-3.4,1.5-3.4,3.4c0,1.9,1.5,3.4,3.4,3.4c1.9,0,3.4-1.5,3.4-3.4C301.2,104.2,299.7,102.7,297.8,102.7
					C297.9,102.7,297.8,102.7,297.8,102.7z"/>
				<g>
					
						<path style="fill-rule:evenodd;clip-rule:evenodd;fill:#FFFFFF;stroke:#21231E;stroke-width:0.667;stroke-miterlimit:22.925;" d="
						M326.5,109.7c-1.7,0-3.1,1.4-3.1,3.1c0,1.7,1.4,3.1,3.1,3.1c1.7,0,3.1-1.4,3.1-3.1c0,0,0,0,0,0
						C329.6,111.1,328.2,109.7,326.5,109.7C326.5,109.7,326.5,109.7,326.5,109.7z"/>
					
						<path style="fill-rule:evenodd;clip-rule:evenodd;fill:#FFFFFF;stroke:#21231E;stroke-width:0.667;stroke-miterlimit:22.925;" d="
						M329.4,104c-1.7,0-3.1,1.4-3.1,3.1s1.4,3.1,3.1,3.1c1.7,0,3.1-1.4,3.1-3.1c0,0,0,0,0,0C332.6,105.4,331.2,104,329.4,104
						C329.4,104,329.4,104,329.4,104z"/>
					
						<path style="fill-rule:evenodd;clip-rule:evenodd;fill:#FFFFFF;stroke:#21231E;stroke-width:0.667;stroke-miterlimit:22.925;" d="
						M332.3,98.3c-1.7,0-3.1,1.4-3.1,3.1s1.4,3.1,3.1,3.1c1.7,0,3.1-1.4,3.1-3.1c0,0,0,0,0,0C335.4,99.7,334,98.3,332.3,98.3z"/>
				</g>
			</g>
			
				<path style="fill-rule:evenodd;clip-rule:evenodd;fill:#FFC72C;stroke:#21231E;stroke-width:0.668;stroke-miterlimit:22.961;" d="
				M277.1,109c-1.8-0.1-1.4,3.1-1,3.8c0.5,0.9,0.9,1,1.5,0.1C278.1,112.2,278.9,109.1,277.1,109L277.1,109z"/>
			
				<path style="fill-rule:evenodd;clip-rule:evenodd;fill:#FFFFFF;stroke:#21231E;stroke-width:0.667;stroke-miterlimit:22.978;" d="
				M277,110.7c-4.2-0.3-3.2,7.3-2.4,8.9c1.1,2.2,2.1,2.3,3.5,0.2C279.2,118.3,281.2,111,277,110.7L277,110.7z"/>
			
				<path style="fill-rule:evenodd;clip-rule:evenodd;fill:#FFC72C;stroke:#21231E;stroke-width:0.668;stroke-miterlimit:24.041;" d="
				M311.2,113.5c-1.7-0.6-2.1,2.7-1.9,3.5c0.2,1,0.6,1.1,1.4,0.5C311.3,116.9,312.9,114.1,311.2,113.5L311.2,113.5z"/>
			
				<path style="fill-rule:evenodd;clip-rule:evenodd;fill:#FFFFFF;stroke:#21231E;stroke-width:0.667;stroke-miterlimit:24.058;" d="
				M310.6,115.2c-4-1.3-4.8,6.3-4.4,8.1c0.5,2.4,1.5,2.7,3.3,1.1C311,123.1,314.7,116.5,310.6,115.2L310.6,115.2z"/>
			<g>
				<path style="fill-rule:evenodd;clip-rule:evenodd;fill:#FFC72C;stroke:#21231E;stroke-width:0.667;stroke-linejoin:round;" d="
					M266.6,75.3c9.4-1,18.8,0.3,27.6,3.8c7.8,3.1,7,12.1-2.5,24.6c0.9,1.8,1.4,3.8,1.4,5.8c-1-0.1-1.7,0-2.6-0.1
					c0.7-1.5-0.1-3.4-1-4.7c-0.6-0.9-0.7-0.7,0-1.7c5.6-7.9,9.4-14.7,7.2-18.9c-2.7-5-13-7.7-30.5-7.3c0-0.5,0.1-0.9,0.1-1.4
					C266.5,75.4,266.5,75.3,266.6,75.3L266.6,75.3z"/>
				<g>
					
						<path style="fill-rule:evenodd;clip-rule:evenodd;fill:#FFFFFF;stroke:#21231E;stroke-width:0.667;stroke-miterlimit:22.925;" d="
						M310.7,77.8c-1.8,0-3.2,1.4-3.2,3.2s1.4,3.2,3.2,3.2c1.8,0,3.2-1.4,3.2-3.2c0,0,0,0,0,0C314,79.3,312.5,77.8,310.7,77.8z"/>
					
						<path style="fill-rule:evenodd;clip-rule:evenodd;fill:#FFFFFF;stroke:#21231E;stroke-width:0.667;stroke-miterlimit:22.925;" d="
						M304.4,75.8c-1.8,0-3.2,1.4-3.2,3.2c0,1.8,1.4,3.2,3.2,3.2c1.8,0,3.2-1.4,3.2-3.2c0,0,0,0,0,0
						C307.6,77.2,306.2,75.8,304.4,75.8z"/>
				</g>
			</g>
			<g>
				
					<path style="fill-rule:evenodd;clip-rule:evenodd;fill:#FFC72C;stroke:#21231E;stroke-width:0.667;stroke-miterlimit:22.925;" d="
					M303.5,78.5c-0.3,0.4-0.6,0.9-1,1.3c5.1,2.8,7.2,5.8,6.7,8.7c-0.1,0.5-1.6,6-5.1,16.5c-1.9,1.3-3.7,2.7-5.3,4.4
					c0.1,0.1-0.4,0.6-0.2,0.7c-0.4,1.6,1.5,1.3,2.7,0.9c0.8-1.6,2-2.9,3.4-3.9c0.2-0.1,1-0.5,1-0.8c1.9-5.9,3.7-11.4,5.3-16.6
					C312.7,84.7,309.2,81.1,303.5,78.5L303.5,78.5z"/>
				<path style="fill-rule:evenodd;clip-rule:evenodd;fill:#FFC72C;stroke:#21231E;stroke-width:0.667;stroke-linejoin:round;" d="
					M323.7,116.7l0.2,1c1.2,0.3,2.5,0.4,3.8,0.3C326,116.3,324.7,115.9,323.7,116.7z"/>
				
					<path style="fill-rule:evenodd;clip-rule:evenodd;fill:#FFC72C;stroke:#21231E;stroke-width:0.668;stroke-miterlimit:22.926;" d="
					M323.9,114.3c-0.9,0.2-1,0.4-1.4,0.4c-0.6,0.1-1.2,0-1.7-0.4c-2-1.2-2.1,1-1.3,2.6c0.5,1.2,0.4,2.5-0.3,3.5
					c-0.6,1.2-0.5,1.7,0,2.1c0.3,0.2,0.6,0.4,0.9,0.6c0.5,0.6,1,0.5,1-0.3c2-0.8,2.7-2.8,3.3-4.5
					C325.2,115.9,328.4,115.3,323.9,114.3L323.9,114.3z"/>
				
					<path style="fill-rule:evenodd;clip-rule:evenodd;fill:#FFC72C;stroke:#21231E;stroke-width:0.667;stroke-miterlimit:22.926;" d="
					M323.1,114.4c-1.8,0.6-2-0.3-3.1-0.3c0.5,2.7,0.9,4.1,3.8,2.6c1.4-0.6,3.1-0.1,3.9,1.2c0.1,0.3,1-0.3,1.4-1.1
					C330.4,113.9,325.5,113.6,323.1,114.4L323.1,114.4z"/>
			</g>
			<g>
				<g>
					
						<path style="fill-rule:evenodd;clip-rule:evenodd;fill:#FFFFFF;stroke:#21231E;stroke-width:0.667;stroke-miterlimit:22.926;" d="
						M269.4,68.3c-1.8,0-3.2,1.4-3.2,3.2c0,1.8,1.4,3.2,3.2,3.2c1.8,0,3.2-1.4,3.2-3.2C272.7,69.8,271.2,68.3,269.4,68.3
						C269.4,68.3,269.4,68.3,269.4,68.3z"/>
					
						<path style="fill-rule:evenodd;clip-rule:evenodd;fill:#FFFFFF;stroke:#21231E;stroke-width:0.667;stroke-miterlimit:22.926;" d="
						M276,68.3c-1.8,0-3.2,1.4-3.2,3.2c0,1.8,1.4,3.2,3.2,3.2c1.8,0,3.2-1.4,3.2-3.2C279.3,69.8,277.8,68.3,276,68.3
						C276,68.3,276,68.3,276,68.3z M282.7,68.8c-1.8,0-3.2,1.4-3.2,3.2c0,1.8,1.4,3.2,3.2,3.2c1.8,0,3.2-1.4,3.2-3.2
						C285.9,70.3,284.4,68.8,282.7,68.8C282.7,68.8,282.7,68.8,282.7,68.8z"/>
					
						<path style="fill-rule:evenodd;clip-rule:evenodd;fill:#FFFFFF;stroke:#21231E;stroke-width:0.667;stroke-miterlimit:22.926;" d="
						M288.7,70c-1.8,0-3.2,1.4-3.2,3.2c0,1.8,1.4,3.2,3.2,3.2s3.2-1.4,3.2-3.2v0C292,71.4,290.5,70,288.7,70z"/>
				</g>
				<g>
					
						<path style="fill-rule:evenodd;clip-rule:evenodd;fill:#FFFFFF;stroke:#21231E;stroke-width:0.667;stroke-miterlimit:22.925;" d="
						M328.8,86.6c-1.8,0-3.2,1.4-3.2,3.2c0,1.8,1.4,3.2,3.2,3.2c1.8,0,3.2-1.4,3.2-3.2c0,0,0,0,0,0
						C332.1,88.1,330.6,86.6,328.8,86.6z"/>
					
						<path style="fill-rule:evenodd;clip-rule:evenodd;fill:#FFFFFF;stroke:#21231E;stroke-width:0.667;stroke-miterlimit:22.925;" d="
						M323.3,83.1c-1.8,0-3.2,1.4-3.2,3.2c0,1.8,1.4,3.2,3.2,3.2c1.8,0,3.2-1.4,3.2-3.2c0,0,0,0,0,0
						C326.5,84.6,325.1,83.1,323.3,83.1z"/>
					
						<path style="fill-rule:evenodd;clip-rule:evenodd;fill:#FFFFFF;stroke:#21231E;stroke-width:0.667;stroke-miterlimit:22.925;" d="
						M317,80.2c-1.8,0-3.2,1.4-3.2,3.2c0,1.8,1.4,3.2,3.2,3.2c1.8,0,3.2-1.4,3.2-3.2c0,0,0,0,0,0C320.2,81.6,318.7,80.2,317,80.2z
						 M333.1,91.9c-1.8,0-3.2,1.4-3.2,3.2c0,1.8,1.4,3.2,3.2,3.2c1.8,0,3.2-1.4,3.2-3.2c0,0,0,0,0,0
						C336.4,93.3,334.9,91.9,333.1,91.9z"/>
				</g>
			</g>
			<g>
				
					<path style="fill-rule:evenodd;clip-rule:evenodd;fill:#FFC72C;stroke:#21231E;stroke-width:0.668;stroke-miterlimit:22.926;" d="
					M315.8,127.4c-1.3-0.4-3.3,2.4-3.7,2.4c-0.6-1.6,0.7-5.5,2.9-8.5c1.5-0.5,1.7-1.5,2-3.8c0.1-0.7,1.4-0.2,1.4,1
					c0.1,1,0.1,2-0.2,3c-0.1,0.5,0,0.9,0.4,1.2C316.3,123.6,315.7,124.8,315.8,127.4L315.8,127.4z"/>
				<path style="fill-rule:evenodd;clip-rule:evenodd;fill:#FFC72C;stroke:#21231E;stroke-width:0.668;stroke-linejoin:round;" d="
					M317,117.5c0.2,0.6,0.3,1.2,0.3,1.8c0,0.6-0.2,1.2-0.6,1.7c-0.4,0.5-1,1-1.6,1.3c-0.5,0.4-0.9,0.9-1.2,1.6
					c-0.3,0.6-0.6,1.3-0.6,2.1c0,1.9-0.4,3.5-1.3,3.8c-0.4,0.2-0.8,0.2-1.2,0.1c0.1-0.4,0.2-0.9,0.4-1.3c0.7-1.1,1-2.4,0.8-3.6
					c-0.1-0.6-0.5-0.8-0.4-1.4c0.1-1.1,1-3.2,2.2-3.2c1.2,0,1.8-0.1,2.5-1.8C316.5,118.3,316.7,117.9,317,117.5L317,117.5z"/>
				
					<path style="fill-rule:evenodd;clip-rule:evenodd;fill:#FFC72C;stroke:#21231E;stroke-width:0.663;stroke-miterlimit:22.926;" d="
					M321.6,122c-0.3-0.3-0.7-0.5-1.1-0.6c-0.6-0.3-1.3-0.3-2-0.1c-3,0.9-4.3,6.1-1,7.4c0.6,0.1,1.2-0.5,1.8-1.8
					c0.5-1.3,1.2-2.5,2.2-3.5C321.9,122.8,321.9,122.3,321.6,122L321.6,122z"/>
				
					<path style="fill-rule:evenodd;clip-rule:evenodd;fill:#FFC72C;stroke:#21231E;stroke-width:0.662;stroke-miterlimit:22.926;" d="
					M320.1,122.4c-2.8-1.1-4.9,4.3-2.3,5.3c1.4,0.6,1.6-1.2,1.8-2.2C320.1,124.2,322.9,123.4,320.1,122.4L320.1,122.4z"/>
			</g>
			
				<path style="fill-rule:evenodd;clip-rule:evenodd;fill:#012169;stroke:#21231E;stroke-width:0.667;stroke-miterlimit:23.191;" d="
				M319.8,123.2c-1.4-0.5-3.3,2.7-1.6,3.4c0.9,0.4,2,0,2.4-0.9c0-0.1,0.1-0.2,0.1-0.3c0.4-0.8,0.1-1.8-0.7-2.2
				C319.9,123.2,319.9,123.2,319.8,123.2z"/>
			<g>
				
					<path style="fill-rule:evenodd;clip-rule:evenodd;fill:#FFFFFF;stroke:#21231E;stroke-width:0.667;stroke-miterlimit:22.926;" d="
					M300.4,97.2c-1.9,0-3.4,1.5-3.4,3.4s1.5,3.4,3.4,3.4c1.9,0,3.4-1.5,3.4-3.4C303.8,98.7,302.3,97.2,300.4,97.2
					C300.4,97.2,300.4,97.2,300.4,97.2z"/>
				
					<path style="fill-rule:evenodd;clip-rule:evenodd;fill:#FFFFFF;stroke:#21231E;stroke-width:0.667;stroke-miterlimit:22.926;" d="
					M302.9,91.6c-1.9,0-3.4,1.5-3.4,3.4c0,1.9,1.5,3.4,3.4,3.4c1.9,0,3.4-1.5,3.4-3.4C306.3,93.1,304.8,91.6,302.9,91.6
					C302.9,91.6,302.9,91.6,302.9,91.6z"/>
				
					<path style="fill-rule:evenodd;clip-rule:evenodd;fill:#FFFFFF;stroke:#21231E;stroke-width:0.667;stroke-miterlimit:22.925;" d="
					M294.8,72c-1.8,0-3.2,1.4-3.2,3.2c0,1.8,1.4,3.2,3.2,3.2c1.8,0,3.2-1.4,3.2-3.2c0,0,0,0,0,0C298.1,73.4,296.6,72,294.8,72z"/>
				<g>
					
						<path style="fill-rule:evenodd;clip-rule:evenodd;fill:#FFFFFF;stroke:#21231E;stroke-width:0.667;stroke-miterlimit:22.926;" d="
						M300.3,74.4c-1.9,0-3.4,1.5-3.4,3.4s1.5,3.4,3.4,3.4c1.9,0,3.4-1.5,3.4-3.4c0,0,0,0,0,0C303.7,75.9,302.2,74.4,300.3,74.4
						C300.3,74.4,300.3,74.4,300.3,74.4z"/>
					
						<path style="fill-rule:evenodd;clip-rule:evenodd;fill:#FFFFFF;stroke:#21231E;stroke-width:0.667;stroke-miterlimit:22.926;" d="
						M304.3,79.2c-1.9,0-3.4,1.5-3.4,3.4s1.5,3.4,3.4,3.4c1.9,0,3.4-1.5,3.4-3.4C307.7,80.7,306.2,79.2,304.3,79.2
						C304.3,79.2,304.3,79.2,304.3,79.2z"/>
					
						<path style="fill-rule:evenodd;clip-rule:evenodd;fill:#FFFFFF;stroke:#21231E;stroke-width:0.667;stroke-miterlimit:22.926;" d="
						M305,85.2c-1.9,0-3.4,1.5-3.4,3.4c0,1.9,1.5,3.4,3.4,3.4c1.9,0,3.4-1.5,3.4-3.4c0,0,0,0,0,0C308.3,86.7,306.8,85.2,305,85.2
						C305,85.2,305,85.2,305,85.2z"/>
				</g>
			</g>
		</g>
		<path style="fill-rule:evenodd;clip-rule:evenodd;fill:#21231E;" d="M321.1,121.6l-0.4-0.2c0.7-0.9,1-2.1,0.7-3.3
			C322.1,119,321.9,120.4,321.1,121.6"/>
		<path style="fill-rule:evenodd;clip-rule:evenodd;fill:#FFC72C;stroke:#21231E;stroke-width:0.667;stroke-miterlimit:22.925;" d="
			M294.8,107.8c-0.7,0.9-0.6,1.1-1,1.3c-0.6,0.3-1.2,0.3-1.8,0c-2.6-1-2.6,1-1.8,3.4c0.6,1.1,1.2,2.2,1.9,3.3
			c0.5,0.9,0.4,1.6,0.6,1.9c0.9,0.2,1.7,0.3,2.1,0.3l0,0c0.4,0.1,1.1,0.2,2.1,0.3c0.3-0.2,0.5-0.8,1.4-1.6c1.1-0.7,2.1-1.5,3.1-2.4
			c1.6-1.8,2.5-3.6-0.1-3.5c-0.6,0.1-1.2-0.1-1.5-0.5c-0.2-0.3-0.1-0.5-0.3-1.5c-0.1-0.6-0.3-1.1-0.7-1.6c-0.3-0.4-0.8-0.3-1.2-0.4
			s-0.8-0.3-1.3-0.1C295.7,106.9,295.2,107.3,294.8,107.8L294.8,107.8z"/>
		<path style="fill-rule:evenodd;clip-rule:evenodd;fill:#21231E;" d="M295.2,118c0.1,0,0.3,0,0.4,0c0.7-1.9,1.8-3.6,3.3-5
			C297.2,114.2,295.9,116,295.2,118 M294.5,117.9l-0.4-0.1c0.3-1.9,0-3.9-0.8-5.7C294.3,113.4,294.7,115.7,294.5,117.9"/>
		<path style="fill-rule:evenodd;clip-rule:evenodd;fill:#FFC72C;stroke:#21231E;stroke-width:0.667;stroke-miterlimit:22.925;" d="
			M290.8,108.9c0.1,0.8,0.2,1.5,0.6,2.3c0.6,1.1,1.9,0.7,3.4-0.4c0.6-0.3,1.2-0.4,1.8-0.3c0.6,0.1,1.1,0.4,1.5,0.8
			c0.8,1.4,1.9,2.2,2.8,1.4c0.6-0.5,1.1-1.1,1.5-1.8c-0.4-0.1-0.7-0.2-1.1-0.2c-0.6,0.1-1.2-0.1-1.5-0.5c-0.2-0.3-0.1-0.5-0.3-1.5
			c-0.1-0.6-0.3-1.1-0.7-1.6c-0.3-0.4-0.8-0.3-1.2-0.4c-0.4-0.1-0.8-0.3-1.3-0.1c-0.6,0.3-1,0.7-1.4,1.2c-0.7,0.9-0.6,1.1-1,1.4
			c-0.6,0.3-1.2,0.3-1.8,0C291.6,109,291.2,108.9,290.8,108.9L290.8,108.9z"/>
		<path style="fill-rule:evenodd;clip-rule:evenodd;fill:#FFC72C;stroke:#21231E;stroke-width:0.675;stroke-miterlimit:22.926;" d="
			M304.8,118.9c-0.4-0.5-0.6-0.4-0.6-0.7c0-0.6,0.1-1.1,0.5-1.6c1.2-2.4-0.1-2.2-1.9-1.2c-0.5,0.3-1,0.7-1.5,1.1
			c-0.5,0.4-1,0.9-1.5,1.2c-0.9,0.6-1.4,0.6-1.7,0.9c-0.3,0.7-0.6,1.5-0.8,2.2l0,0c-0.1,0.4-0.5,1.2-0.8,2.2c0.1,0.3,0.6,0.3,0.9,1
			c0.3,0.9,0.7,1.7,1.1,2.5c0.7,0.9,1.3,1.4,1.8,1.3s0.8-0.8,0.9-2.3c0.1-0.6,0.3-1.2,0.8-1.6c0.3-0.3,0.4-0.2,1.1-0.6
			c0.5-0.3,0.9-0.6,1.2-1c0.3-0.4,0.4-0.8,0.5-1.2c0.2-0.4,0.3-0.8,0.4-1.2C305.2,119.6,305.1,119.3,304.8,118.9L304.8,118.9z"/>
		<path style="fill-rule:evenodd;clip-rule:evenodd;fill:#21231E;" d="M297,121.5c0,0.2-0.1,0.3-0.1,0.5c0.7,0.2,1.4,0.5,1.9,0.9
			c0.5,0.4,1,1,1.3,1.6c-0.1-0.7-0.5-1.4-1-1.9C298.5,122.1,297.8,121.7,297,121.5 M297.4,120.7c0.1-0.2,0.1-0.3,0.2-0.5
			c0.9-0.1,1.7-0.3,2.5-0.6c0.8-0.4,1.6-0.8,2.3-1.4c-0.6,0.7-1.4,1.3-2.3,1.7C299.3,120.3,298.3,120.6,297.4,120.7"/>
		<path style="fill-rule:evenodd;clip-rule:evenodd;fill:#FFC72C;stroke:#21231E;stroke-width:0.667;stroke-linejoin:round;" d="
			M305,115.1c-0.5,0.2-1,0.5-1.5,0.9c-0.5,0.4-0.7,0.9-0.8,1.5c-0.1,0.7,0,1.4,0.2,2c0.1,0.6,0,1.3-0.3,1.9c-0.2,0.7-0.6,1.3-1,1.8
			c-1.3,1.3-2.2,2.6-1.8,3.5c0.1,0.4,0.4,0.7,0.8,0.9c0.3-0.3,0.5-0.7,0.6-1.1c0.3-1.2,1-2.3,2-3c0.5-0.3,0.9-0.2,1.3-0.6
			c0.7-0.8,1.5-2.8,0.7-3.7c-0.8-0.9-1.2-1.4-0.4-3C304.9,115.9,305,115.5,305,115.1L305,115.1z"/>
		<path style="fill-rule:evenodd;clip-rule:evenodd;fill:#FFC72C;stroke:#21231E;stroke-width:0.634;stroke-miterlimit:22.926;" d="
			M282.5,121.6c0.7,0.6,0.8,0.5,1,0.8c0.2,0.6,0.2,1.2-0.1,1.7c-0.8,2.5,0.7,2.3,2.6,1.3c1-0.7,1.9-1.5,2.8-2.3
			c0.8-0.6,1.4-0.6,1.6-0.9c0.2-1,0.4-1.8,0.5-2.2c0.1-0.4,0.3-1.3,0.5-2.3c-0.1-0.3-0.7-0.5-1.3-1.3c-0.5-1.1-1.2-2.2-1.9-3.2
			c-1.5-1.6-3-2.3-3.1,0.8c0,0.7-0.2,1.3-0.5,1.9c-0.3,0.3-0.4,0.2-1.3,0.6c-0.5,0.2-1,0.6-1.3,1c-0.2,0.4-0.3,0.9-0.3,1.4
			c-0.2,0.4-0.2,0.9-0.1,1.4C281.8,120.8,282.1,121.2,282.5,121.6L282.5,121.6z"/>
		<path style="fill-rule:evenodd;clip-rule:evenodd;fill:#21231E;" d="M291,119.7c0-0.1,0-0.3,0-0.5c-1.6-0.5-3.1-1.5-4.1-2.8
			C287.8,118,289.3,119.2,291,119.7 M290.9,120.5c-0.1,0.1-0.1,0.3-0.2,0.4c-1.7,0-3.4,0.6-4.9,1.6
			C287.2,121.3,289,120.5,290.9,120.5"/>
		<g>
			
				<path style="fill-rule:evenodd;clip-rule:evenodd;fill:#FFC72C;stroke:#21231E;stroke-width:0.677;stroke-miterlimit:22.926;" d="
				M283.2,125.3c0.6-0.2,1.2-0.4,1.8-0.8c0.9-0.7,0.6-2-0.1-3.3c-0.2-0.6-0.3-1.2-0.1-1.9c0.1-0.7,0.4-1.3,0.8-1.8
				c1.2-1.2,2-2.5,1.4-3.5c-0.4-0.6-0.9-1-1.5-1.4c-0.1,0.4-0.2,0.9-0.2,1.3c0,0.7-0.2,1.3-0.5,1.9c-0.3,0.3-0.4,0.2-1.3,0.6
				c-0.5,0.2-1,0.6-1.3,1c-0.2,0.4-0.3,0.9-0.3,1.4c-0.2,0.4-0.2,0.9-0.1,1.4c0.2,0.5,0.5,0.9,0.9,1.3c0.7,0.6,0.8,0.5,1,0.8
				c0.2,0.6,0.2,1.2-0.1,1.7C283.3,124.5,283.2,124.9,283.2,125.3L283.2,125.3z"/>
			<g>
				
					<path style="fill-rule:evenodd;clip-rule:evenodd;fill:#FFC72C;stroke:#21231E;stroke-width:0.667;stroke-miterlimit:22.925;" d="
					M294.9,116.5c-2.3,0-4.2,1.7-4.5,4c-0.4,1.8,0.8,3.6,2.6,4c0.2,0,0.4,0.1,0.6,0.1c2.2-0.1,4-1.7,4.3-3.8
					c0.5-1.8-0.6-3.7-2.5-4.1C295.3,116.5,295.1,116.5,294.9,116.5L294.9,116.5z"/>
				
					<path style="fill-rule:evenodd;clip-rule:evenodd;fill:#FFC72C;stroke:#21231E;stroke-width:0.667;stroke-miterlimit:22.925;" d="
					M294.7,117.6c-1.7,0-3.1,1.3-3.3,2.9c-0.3,1.3,0.6,2.6,1.9,2.9c0.1,0,0.3,0,0.5,0.1c1.6-0.1,2.9-1.2,3.2-2.8
					c0.3-1.3-0.5-2.7-1.8-3C295.1,117.6,294.9,117.6,294.7,117.6z"/>
				
					<path style="fill-rule:evenodd;clip-rule:evenodd;fill:#012169;stroke:#21231E;stroke-width:0.667;stroke-miterlimit:22.925;" d="
					M294.6,118.7c-1,0-1.9,0.8-2.1,1.8c-0.2,0.8,0.3,1.7,1.2,1.9c0.1,0,0.2,0,0.3,0c1,0,1.9-0.8,2-1.8c0.2-0.8-0.3-1.7-1.2-1.9
					C294.8,118.7,294.7,118.7,294.6,118.7L294.6,118.7z"/>
				
					<path style="fill-rule:evenodd;clip-rule:evenodd;fill:#FFC72C;stroke:#21231E;stroke-width:0.667;stroke-miterlimit:22.925;" d="
					M307.2,156.9c1.1,0.2,1.6,0.8,1.6,1.5c0,0.7-0.5,1.3-1.6,1.5c-0.3,0.1-0.5,0.1-0.8,0.1c-32.8,2.7-65.7,2.7-98.4,0
					c-0.3,0-0.5-0.1-0.8-0.1c-1.1-0.2-1.6-0.8-1.6-1.5c0-0.7,0.5-1.3,1.6-1.5c0.3-0.1,0.5-0.1,0.8-0.1c32.8-2.7,65.7-2.7,98.4,0
					C306.6,156.7,306.9,156.8,307.2,156.9L307.2,156.9z"/>
			</g>
		</g>
	</g>
	<path style="fill:none;stroke:#21231E;stroke-width:0.67;stroke-linecap:round;stroke-miterlimit:22.926;" d="M220.2,159
		c4.1-0.3,8.2-0.5,12.3-0.6c4.1-0.2,8.2-0.3,12.3-0.4c4.1-0.1,8.2-0.1,12.3-0.1c4.1,0,8.2,0,12.3,0.1c4.1,0.1,8.2,0.2,12.3,0.4
		c4.1,0.2,8.2,0.4,12.3,0.6 M220.2,159.1c4.1,0.3,8.2,0.5,12.3,0.6 M281.8,159.7c4.1-0.2,8.2-0.4,12.3-0.6"/>
	<path style="fill:#E40046;stroke:#FFFFFF;stroke-width:1.334;stroke-miterlimit:22.926;" d="M167.1,160.5v145.4
		c-0.1,24.8,9.4,48.7,26.4,66.8c16.3,17.1,38.8,27.7,63.6,27.7l0,0c24.8,0,47.3-10.6,63.6-27.7c17.1-18,26.5-42,26.4-66.8V160.5
		L167.1,160.5z"/>
	<g>
		<g>
			<g>
				
					<path style="fill-rule:evenodd;clip-rule:evenodd;fill:#FFFFFF;stroke:#21231E;stroke-width:0.667;stroke-miterlimit:22.926;" d="
					M258,392.9c0.8-0.1,2.1,0,3.1-0.7c1.3-1,0.8-5.2,0.7-7.9c-0.6-13.6-1.2-36.5-1.9-68.6c-0.9-0.1-1.8-0.1-2.7,0
					c-0.9-0.2-1.8-0.2-2.7,0c-0.7,32.1-1.3,55-1.9,68.6c-0.1,2.7-0.6,6.9,0.7,7.9c1,0.8,2.3,0.6,3.1,0.7H258z"/>
				
					<path style="fill-rule:evenodd;clip-rule:evenodd;fill:#FFFFFF;stroke:#21231E;stroke-width:0.667;stroke-miterlimit:22.925;" d="
					M266.5,392.5c-0.8-0.1-2.1,0.2-3.2-0.5c-1.4-0.9-1.5-5.2-1.7-7.9c-0.6-13.6-1.9-36.4-4.1-68.4c0.9-0.2,1.8-0.3,2.7-0.2
					c0.1,0,0.2-0.1,0.4-0.1c5.1,31.7,7,54.2,10.6,67.8c0.5,1.9,1.5,6.6-0.1,8.1c-0.9,0.9-2.3,0.8-3,1L266.5,392.5z"/>
				
					<path style="fill-rule:evenodd;clip-rule:evenodd;fill:#FFFFFF;stroke:#21231E;stroke-width:0.667;stroke-miterlimit:22.925;" d="
					M276.5,391.1c-0.8,0-2.1,0.4-3.2-0.2c-1.5-0.8-1.4-5.1-2.1-7.7c-3.5-13.6-5.4-36.1-10.6-67.8c0.9-0.3,1.8-0.4,2.7-0.5l0.1,0
					c8.1,30.8,10.6,52.6,16.9,66c0.6,1.9,2.2,6.8,0.7,8.5c-0.8,1-2.2,1-2.9,1.3L276.5,391.1z"/>
				
					<path style="fill-rule:evenodd;clip-rule:evenodd;fill:#FFFFFF;stroke:#21231E;stroke-width:0.641;stroke-miterlimit:22.926;" d="
					M286.6,388.3c-0.8,0.1-2.1,0.8-3.3,0.4c-1.6-0.6-1.8-5.2-2.9-7.6c-6.3-13.5-8.8-35.4-17-66.4c0.8-0.4,1.7-0.6,2.6-0.7
					c0.5-0.4,1.1-0.6,1.7-0.7c9.6,30.7,12.7,52,21.7,65.3c1.5,2.1,2.5,6.4,1.5,7.8c-0.7,1-2.1,1.2-2.8,1.6L286.6,388.3z"/>
				
					<path style="fill-rule:evenodd;clip-rule:evenodd;fill:#FFFFFF;stroke:#21231E;stroke-width:0.667;stroke-miterlimit:22.925;" d="
					M247.8,392.5c0.8-0.1,2.1,0.2,3.2-0.5c1.4-0.9,1.5-5.2,1.7-7.9c0.6-13.6,1.9-36.4,4.1-68.4c-0.9-0.2-1.8-0.3-2.7-0.2
					c-0.1,0-0.2-0.1-0.4-0.1c-5.1,31.7-7,54.2-10.6,67.8c-0.5,1.9-1.5,6.6,0.1,8.1c0.9,0.9,2.3,0.8,3,1L247.8,392.5z"/>
				
					<path style="fill-rule:evenodd;clip-rule:evenodd;fill:#FFFFFF;stroke:#21231E;stroke-width:0.667;stroke-miterlimit:22.925;" d="
					M237.8,391.1c0.8,0,2.1,0.4,3.2-0.2c1.5-0.8,1.4-5.1,2.1-7.7c3.5-13.6,5.4-36.1,10.6-67.8c-0.9-0.3-1.8-0.4-2.7-0.5l-0.1,0
					c-8.1,30.8-10.6,52.6-16.9,66c-0.6,1.9-2.2,6.8-0.7,8.5c0.8,1,2.2,1,2.9,1.3L237.8,391.1z"/>
				
					<path style="fill-rule:evenodd;clip-rule:evenodd;fill:#FFFFFF;stroke:#21231E;stroke-width:0.641;stroke-miterlimit:22.926;" d="
					M227.7,388.3c0.8,0.1,2.1,0.8,3.3,0.3c1.6-0.6,1.8-5.2,2.9-7.6c6.3-13.5,8.8-35.4,17-66.4c-0.8-0.4-1.7-0.6-2.6-0.7
					c-0.5-0.4-1.1-0.6-1.7-0.7c-9.6,30.7-12.7,52-21.7,65.3c-1.5,2.1-2.5,6.4-1.5,7.8c0.7,1,2.1,1.2,2.8,1.6L227.7,388.3z"/>
				
					<path style="fill-rule:evenodd;clip-rule:evenodd;fill:#FFFFFF;stroke:#21231E;stroke-width:0.607;stroke-miterlimit:22.926;" d="
					M281.3,365.1c-0.7,0-1.8,0.5-2.9-0.1c-1.5-0.7-2.5-4.9-3.3-7.4c-6.4-12.6-12.2-35-21.8-66.2c0.8-0.3,1.6-0.5,2.4-0.5
					c0.7-0.3,1.5-0.6,2.4-0.6c10.3,30.8,14.9,53.1,25,65.4c1.7,2,2.9,6.4,2.1,7.7c-0.6,1-1.8,1.1-2.4,1.4L281.3,365.1z"/>
				
					<path style="fill-rule:evenodd;clip-rule:evenodd;fill:#FFFFFF;stroke:#21231E;stroke-width:0.666;stroke-miterlimit:23.929;" d="
					M273.1,366.7c-0.7,0-1.9,0.3-2.9-0.3c-1.4-0.8-1.9-5-2.4-7.7c-2.6-13.4-7.3-36-14.1-67.6c0.8-0.3,1.6-0.4,2.4-0.3
					c0.8-0.3,1.6-0.4,2.4-0.4c8,31.4,9.8,55,17.4,67.1c1.4,2.2,2.1,6.7,1.2,7.9c-0.7,0.9-1.9,0.9-2.6,1.2L273.1,366.7z"/>
				
					<path style="fill-rule:evenodd;clip-rule:evenodd;fill:#FFFFFF;stroke:#21231E;stroke-width:0.66;stroke-miterlimit:22.926;" d="
					M264.8,367.6c-0.7-0.1-1.9,0.2-2.9-0.5c-1.3-0.9-1.3-5.2-1.5-7.8c-1-13.6-3.2-36.4-6.2-68.4c0.8-0.2,1.6-0.2,2.5-0.2
					c0.8-0.2,1.6-0.3,2.5-0.2c4.3,31.9,6.8,55.1,9.6,68.2c0.5,2.6,1.4,6.8,0.3,7.9c-0.8,0.9-2,0.8-2.7,1L264.8,367.6z"/>
				
					<path style="fill-rule:evenodd;clip-rule:evenodd;fill:#FFFFFF;stroke:#21231E;stroke-width:0.607;stroke-miterlimit:22.926;" d="
					M233,365.1c0.7,0,1.8,0.5,2.9-0.1c1.5-0.7,2.5-4.9,3.3-7.4c6.4-12.6,12.2-35,21.8-66.2c-0.8-0.3-1.6-0.5-2.4-0.5
					c-0.7-0.3-1.5-0.6-2.3-0.6c-10.3,30.8-15,53.1-25,65.4c-1.7,2-2.9,6.4-2.1,7.7c0.6,1,1.8,1.1,2.4,1.4L233,365.1z"/>
				
					<path style="fill-rule:evenodd;clip-rule:evenodd;fill:#FFFFFF;stroke:#21231E;stroke-width:0.666;stroke-miterlimit:23.929;" d="
					M241.2,366.7c0.7,0,1.9,0.3,2.9-0.3c1.4-0.8,1.9-5,2.4-7.7c2.6-13.4,7.3-36,14.1-67.6c-0.8-0.3-1.6-0.4-2.4-0.3
					c-0.8-0.3-1.6-0.4-2.4-0.4c-8,31.4-9.8,55-17.4,67.1c-1.4,2.2-2.2,6.7-1.2,7.9c0.7,0.9,1.9,0.9,2.6,1.2L241.2,366.7z"/>
				
					<path style="fill-rule:evenodd;clip-rule:evenodd;fill:#FFFFFF;stroke:#21231E;stroke-width:0.66;stroke-miterlimit:22.926;" d="
					M249.5,367.6c0.7-0.1,1.9,0.2,2.9-0.5c1.3-0.9,1.3-5.2,1.5-7.8c1-13.6,3.2-36.4,6.2-68.4c-0.8-0.2-1.6-0.2-2.5-0.2
					c-0.8-0.2-1.6-0.3-2.5-0.2c-4.3,31.9-6.8,55.1-9.6,68.2c-0.5,2.6-1.4,6.8-0.3,7.9c0.8,0.9,2,0.8,2.7,1L249.5,367.6z"/>
				
					<path style="fill-rule:evenodd;clip-rule:evenodd;fill:#FFFFFF;stroke:#21231E;stroke-width:0.667;stroke-miterlimit:22.926;" d="
					M257.9,367.9c0.7-0.1,1.9,0,2.8-0.7c1.2-1,0.7-5.2,0.6-7.9c-0.6-13.6-1.1-36.5-1.7-68.6c-0.8-0.1-1.7-0.1-2.5,0
					c-0.8-0.2-1.7-0.2-2.5,0c-0.6,32.1-1.1,55-1.7,68.6c-0.1,2.7-0.6,6.9,0.6,7.9c0.9,0.8,2.1,0.6,2.8,0.7H257.9z"/>
				
					<path style="fill-rule:evenodd;clip-rule:evenodd;fill:#FFFFFF;stroke:#21231E;stroke-width:0.647;stroke-miterlimit:22.926;" d="
					M275.6,346.4c-0.6,0-1.4,0.5-2.2-0.1c-1.2-0.7-1.9-4.9-2.5-7.4c-4.9-12.6-9.4-35-16.7-66.2c0.6-0.3,1.2-0.5,1.8-0.5
					c0.5-0.3,1.2-0.5,1.8-0.6c7.9,30.8,11.5,53.1,19.2,65.4c1.3,2,2.2,6.4,1.6,7.7c-0.5,1-1.4,1.1-1.9,1.4L275.6,346.4z"/>
				
					<path style="fill-rule:evenodd;clip-rule:evenodd;fill:#FFFFFF;stroke:#21231E;stroke-width:0.658;stroke-miterlimit:22.926;" d="
					M269.4,348c-0.6,0-1.4,0.3-2.2-0.3c-1.1-0.8-1.5-5-1.9-7.7c-2-13.4-5.6-36-10.8-67.6c0.6-0.3,1.2-0.4,1.9-0.4
					c0.6-0.3,1.2-0.4,1.8-0.4c6.1,31.4,7.5,55,13.3,67.1c1.1,2.2,1.6,6.6,0.9,7.9c-0.5,0.9-1.5,0.9-2,1.2L269.4,348z"/>
				
					<path style="fill-rule:evenodd;clip-rule:evenodd;fill:#FFFFFF;stroke:#21231E;stroke-width:0.665;stroke-miterlimit:22.926;" d="
					M263,348.9c-0.6-0.1-1.4,0.2-2.2-0.5c-1-0.9-1-5.2-1.2-7.8c-0.8-13.6-2.4-36.4-4.8-68.4c0.6-0.2,1.3-0.2,1.9-0.2
					c0.6-0.2,1.2-0.3,1.9-0.2c3.3,31.9,5.2,55.1,7.3,68.2c0.4,2.6,1,6.8,0.2,7.9c-0.6,0.9-1.5,0.8-2.1,1L263,348.9z"/>
				
					<path style="fill-rule:evenodd;clip-rule:evenodd;fill:#FFFFFF;stroke:#21231E;stroke-width:0.647;stroke-miterlimit:22.926;" d="
					M238.7,346.4c0.6,0,1.4,0.5,2.3-0.1c1.1-0.7,1.9-4.9,2.5-7.4c4.9-12.6,9.4-35,16.7-66.2c-0.6-0.3-1.2-0.5-1.8-0.5
					c-0.5-0.3-1.2-0.6-1.8-0.6c-7.9,30.8-11.5,53.1-19.2,65.4c-1.3,2-2.2,6.4-1.6,7.7c0.5,1,1.4,1.1,1.9,1.4L238.7,346.4z"/>
				
					<path style="fill-rule:evenodd;clip-rule:evenodd;fill:#FFFFFF;stroke:#21231E;stroke-width:0.658;stroke-miterlimit:22.926;" d="
					M244.9,348c0.6,0,1.4,0.3,2.2-0.3c1.1-0.8,1.5-5,1.9-7.7c2-13.4,5.6-36,10.8-67.6c-1.2-0.2-2.5-0.5-3.7-0.8
					c-6.1,31.4-7.5,55-13.3,67.1c-1.1,2.2-1.6,6.6-0.9,7.9c0.5,0.9,1.5,0.9,2,1.2L244.9,348z"/>
				
					<path style="fill-rule:evenodd;clip-rule:evenodd;fill:#FFFFFF;stroke:#21231E;stroke-width:0.665;stroke-miterlimit:22.926;" d="
					M251.3,349c0.5-0.1,1.4,0.2,2.2-0.5c1-0.9,1-5.2,1.2-7.8c0.8-13.6,2.4-36.4,4.8-68.4c-1.3-0.1-2.5-0.2-3.8-0.4
					c-3.3,31.9-5.2,55.1-7.3,68.2c-0.4,2.6-1,6.8-0.2,7.9c0.6,0.9,1.5,0.8,2.1,1L251.3,349z"/>
				
					<path style="fill-rule:evenodd;clip-rule:evenodd;fill:#FFFFFF;stroke:#21231E;stroke-width:0.667;stroke-miterlimit:22.926;" d="
					M257.7,349.2c0.5-0.1,1.5,0,2.1-0.7c0.9-1,0.6-5.2,0.5-7.9c-0.4-13.6-0.8-36.5-1.3-68.6c-1.3,0.1-2.5,0.1-3.8,0
					c-0.5,32.1-0.9,55-1.3,68.6c-0.1,2.7-0.5,6.9,0.5,7.9c0.7,0.8,1.6,0.6,2.1,0.7H257.7z"/>
			</g>
			<g>
				<path style="fill-rule:evenodd;clip-rule:evenodd;fill:#FFC72C;stroke:#21231E;stroke-width:0.662;stroke-linejoin:round;" d="
					M219.5,312.4c-1.7,0.1-3.8,1.1-10,6.4c-2.7,5.5-5.4,11-9.1,15.8c-1,0.7-2.1,1.3-3.3,1.8c-1.1,0.3-8.8,0.1-9-0.2
					c-2.4-2.2-6.1-0.6-4.9,1.7c-1,0.9,1.2,4.2,2.8,2.9c1.6-1.3,7-0.1,8.8-0.7c-0.7,1.6-5.6,2.7-9,2.9c-3.1,0.1-2.9,3.3-1.6,5.6
					c1.5,0.9,0.3-0.2,0.8,0.4c1.4,2.1,4.4,1.8,4.5-0.2c0.1-2.1,7.4-4.8,8.5-6.4c-1.3,3.2-4.4,6.2-6,9.3c-1.6,1.7-2.6,2-0.5,5.3
					c2.4-0.3,2.5-0.9,4,0.5c3.2-0.4,3.8-1.3,3.2-3.9c-0.6-2.7,1.7-7.6,2.5-9c0.7-1.3,0.9-2.6,1.5-3.4c1.2-1.4,6.8-4.2,8.2-3.4
					c2.6,1.4,4.6,0.6,5-2c-0.8-0.7-0.2-4.3-2-4.4c-1.5-0.1-2.4,0.3-3.7,1.5c-2.2,1.8-3.3,2.7-4,2.5c-1.7-0.5,3-2.8,7.3-8.4
					C219.4,319,219.8,315.1,219.5,312.4L219.5,312.4z"/>
				
					<path style="fill-rule:evenodd;clip-rule:evenodd;fill:#FFC72C;stroke:#21231E;stroke-width:0.667;stroke-miterlimit:23.175;" d="
					M183.6,339.2c-2.2-1.3-3.4-1.2-4.2-0.3c-0.5,0.5-1,0.2-0.7-0.6c1.4-3.4,3.7-3.8,5.8-2.2c0.6,0.5,1,1,1.5,1.4
					C185.6,338.1,183.9,338.8,183.6,339.2L183.6,339.2z"/>
				
					<path style="fill-rule:evenodd;clip-rule:evenodd;fill:#FFC72C;stroke:#21231E;stroke-width:0.65;stroke-miterlimit:22.926;" d="
					M214.4,336.2c2.3-1.6,4.4-1.9,5.6-1c0.6,0.5,1.3,0.1,0.7-0.7c-2.4-3.3-5.2-3.5-7.2-1.6c-0.6,0.6-1,1.1-1.5,1.7
					C212.7,335.3,213.5,335.8,214.4,336.2L214.4,336.2z"/>
				
					<path style="fill-rule:evenodd;clip-rule:evenodd;fill:#FFC72C;stroke:#21231E;stroke-width:0.659;stroke-miterlimit:22.926;" d="
					M196.4,355.3c-1.4,2.8-2.1,4.7-1.5,6.2c0.4,0.9,0,1.7-0.9,0.9c-3.6-3.1-3.6-6.6-1.3-9c0.7-0.7,1.5-1.3,2.3-1.9
					C195.9,352.4,196.5,355.1,196.4,355.3L196.4,355.3z"/>
				
					<path style="fill-rule:evenodd;clip-rule:evenodd;fill:#FFC72C;stroke:#21231E;stroke-width:0.614;stroke-miterlimit:22.926;" d="
					M187.5,348c-2.1,0.9-2.9,2-2.8,3.5c0,0.8-0.5,1.1-0.8,0.2c-2.6-6,0.1-7.2,4-6.9C188,345.8,187.9,346.9,187.5,348L187.5,348z"/>
			</g>
		</g>
		<g>
			<path style="fill:none;stroke:#21231E;stroke-width:0.667;stroke-miterlimit:31.033;" d="M205.8,334.6c-1.4-0.8-1.5-1.7-1.1-2.3
				c0.8-1.3,1.6-0.7,3,0.5"/>
			<path style="fill:none;stroke:#21231E;stroke-width:0.667;stroke-miterlimit:31.033;" d="M207.6,332.6c-1.4-0.8-1.5-1.7-1.1-2.3
				c0.8-1.3,1.6-0.7,3,0.5"/>
			<path style="fill:none;stroke:#21231E;stroke-width:0.674;stroke-miterlimit:22.926;" d="M209.6,330.7c-1.5-1.1-1.6-2.2-1.2-3
				c0.9-1.7,1.7-0.9,3.3,0.7"/>
			<path style="fill:none;stroke:#21231E;stroke-width:0.677;stroke-miterlimit:22.926;" d="M211.8,328.4c-1.6-1.2-1.7-2.5-1.3-3.4
				c0.9-1.9,1.8-1,3.5,0.8"/>
			<path style="fill:none;stroke:#21231E;stroke-width:0.669;stroke-miterlimit:22.926;" d="M214.1,325.9c-1.5-1.3-2-2.5-1.3-3.6
				c1.1-1.7,1.8-1,3.5,0.8"/>
		</g>
		<g>
			<path style="fill-rule:evenodd;clip-rule:evenodd;fill:#FFC72C;stroke:#21231E;stroke-width:0.667;stroke-linejoin:round;" d="
				M234.8,190.3c-1.1,1-4.7,1-9.6,1.3c-8,0.3-12.6-2.1-13.6-7.2c3,3.6,6.6,5.3,10.6,4.3c5.5-1.4,8.6-2.3,9.8-2.1
				C232.8,186.9,234.1,188.4,234.8,190.3L234.8,190.3z"/>
			<g>
				
					<path style="fill-rule:evenodd;clip-rule:evenodd;fill:#FFFFFF;stroke:#21231E;stroke-width:0.667;stroke-miterlimit:22.925;" d="
					M253.2,298.8c0,2.5-0.1,5-0.1,7.5l0,0l-5.7,1.2c0,2.6,6.4,29.7,9.7,29.7c3.3,0,9.7-27.1,9.7-29.7l-5.7-1.2l0,0
					c0-2.6,0-5.2-0.1-7.5c-1.4,1.3-2.7,2.8-3.9,4.3C255.9,301.5,254.6,300.1,253.2,298.8L253.2,298.8z"/>
				<g>
					<path style="fill-rule:evenodd;clip-rule:evenodd;fill:#FFFFFF;stroke:#21231E;stroke-width:0.667;stroke-linejoin:round;" d="
						M246.6,310.3l-5.1-2.9c-2.1,1.5-3.7,7.2-0.1,11.9c4.6,5.8,6.4,10,7.5,14.7c3.3-4.3,4.5-8.7,2.4-13.1
						C248.5,315.1,246.7,311.8,246.6,310.3L246.6,310.3z"/>
					<path style="fill-rule:evenodd;clip-rule:evenodd;fill:#FFFFFF;stroke:#21231E;stroke-width:0.667;stroke-linejoin:round;" d="
						M250.8,306.2l-5.1-2.9c-2.1,1.5-6.6,7.1-3,11.7c4.6,5.8,9.3,10.2,10.4,14.9c3.3-4.3,4.7-8.7,2.6-13.1
						C253,311,250.8,307.7,250.8,306.2L250.8,306.2z M267.6,310.3l5.1-2.9c2.1,1.5,3.7,7.2,0.1,11.9c-4.6,5.8-6.4,10-7.5,14.7
						c-3.3-4.3-4.5-8.7-2.4-13.1C265.7,315.1,267.6,311.8,267.6,310.3L267.6,310.3z"/>
					<path style="fill-rule:evenodd;clip-rule:evenodd;fill:#FFFFFF;stroke:#21231E;stroke-width:0.667;stroke-linejoin:round;" d="
						M263.5,306.2l5.1-2.9c2.1,1.5,6.6,7.1,3,11.7c-4.6,5.8-9.3,10.2-10.4,14.9c-3.3-4.3-4.7-8.7-2.6-13.1
						C261.3,311,263.4,307.7,263.5,306.2L263.5,306.2z M239.6,304.2l-5.1-2.9c-2.1,1.5-3.7,7.2-0.1,11.9c4.6,5.8,6.4,10,7.5,14.7
						c3.3-4.3,4.5-8.7,2.4-13.1C241.4,308.9,239.6,305.6,239.6,304.2z"/>
					<path style="fill-rule:evenodd;clip-rule:evenodd;fill:#FFFFFF;stroke:#21231E;stroke-width:0.667;stroke-linejoin:round;" d="
						M274.7,304.1l5.1-2.9c2.1,1.5,3.7,7.2,0.1,11.9c-4.6,5.8-6.4,10-7.5,14.7c-3.3-4.2-4.5-8.7-2.4-13.1
						C272.8,308.9,274.7,305.6,274.7,304.1L274.7,304.1z"/>
				</g>
				
					<path style="fill-rule:evenodd;clip-rule:evenodd;fill:#FFFFFF;stroke:#21231E;stroke-width:0.667;stroke-miterlimit:22.926;" d="
					M216,250.4c0.1,4.7-0.7,35.7-1,40.1c-0.1,3.5-1.6,6.8-4.3,9c-2-3-3.2-6.6-3.3-10.3c-0.1-2.1,0.3-31.5,0.4-37.5
					C211.3,242.6,213.9,242.2,216,250.4L216,250.4z"/>
				
					<path style="fill-rule:evenodd;clip-rule:evenodd;fill:#FFFFFF;stroke:#21231E;stroke-width:0.667;stroke-miterlimit:22.926;" d="
					M195.8,242.9l-1.3,42.7c-0.4,3.8,4.5,26.3,7.2,30.8c6.7-2.9,8.1-18.1,6.8-33s0.2-27.7,1.2-30.4c0.1-3.4-0.5-6.9-0.5-10.4
					C205,242.7,200,242.6,195.8,242.9L195.8,242.9z"/>
				
					<path style="fill-rule:evenodd;clip-rule:evenodd;fill:#FFFFFF;stroke:#21231E;stroke-width:0.667;stroke-miterlimit:22.926;" d="
					M187.8,249.8l0.9,42.7c-0.2,3.8,5.9,26,8.8,30.3c6.8-5.2,5.4-26.7,4.4-33.2c-2.1-12.9-1.7-27.9-1-30.4
					c-0.1-3.4-0.2-7.4-0.4-10.9L187.8,249.8z"/>
				
					<path style="fill-rule:evenodd;clip-rule:evenodd;fill:#FFFFFF;stroke:#21231E;stroke-width:0.667;stroke-miterlimit:22.926;" d="
					M182,259.9l11.2-0.3c-1,4.7-0.2,19.1,1.7,30.1c1.8,10.3,4.4,37.1-6.4,43.6c-6.7-14.1-1.6-27.9-5-40.2
					C180.9,280.2,180.4,269.3,182,259.9L182,259.9z M224.9,242.6c0,4.7-1.8,35.6-2.2,40c-0.2,3.5-1.8,6.7-4.5,8.9
					c-2-3.1-3-6.7-3-10.4c-0.1-2.1,1.2-31.5,1.6-37.5C220.5,234.6,223.1,234.3,224.9,242.6L224.9,242.6z M205,217.3
					c-0.3,10-0.5,31.7-0.4,33.5c0.1,4.2,1.8,9.5,3.6,12.1c2.7-2.2,4.3-5.4,4.5-8.9c0.3-3.6,0.4-21.2,0.5-30
					c-2.3-1.5-4.5-3.2-6.5-5.2C206.7,218.9,205,217.4,205,217.3L205,217.3z"/>
				
					<path style="fill-rule:evenodd;clip-rule:evenodd;fill:#FFFFFF;stroke:#21231E;stroke-width:0.667;stroke-miterlimit:22.926;" d="
					M213,223.8c-0.2,10.8-0.1,27.7,0,29.1c0,3.7,1,7.3,3,10.4c2.8-2.2,4.5-5.5,4.7-9c0.2-2.7,1-14.2,1.1-23
					C218.9,230.4,215.3,225.7,213,223.8L213,223.8z M206.1,216.4l-7.6-11c-1.5,5.4-3.4,44.4-1.2,47.6c0.1,3.7,1.3,7.3,3.5,10.4
					c2.1-1.6,5.3-4.6,4.4-9C204.1,249.9,205.1,221,206.1,216.4L206.1,216.4z"/>
				
					<path style="fill-rule:evenodd;clip-rule:evenodd;fill:#FFFFFF;stroke:#21231E;stroke-width:0.667;stroke-miterlimit:22.926;" d="
					M190.4,240.9c-0.3,6-0.6,10.1-0.5,12.2c0,3.7,1,7.3,3,10.4c2.1-1.6,4.8-4.5,4.5-8.9c-1.1-16.9,0.8-32.7,2.9-48
					c-1.8-1.3-4.9-2.8-6.7-4.1C190,223.1,188.8,235.8,190.4,240.9L190.4,240.9z"/>
				<path style="fill-rule:evenodd;clip-rule:evenodd;fill:#FFFFFF;stroke:#21231E;stroke-width:0.667;stroke-linejoin:round;" d="
					M182.7,252l2.1,7.8c0.1,4.2,2.7,7.6,4.5,10.3c2.7-2,4.1-5.4,3.5-8.7c-3.1-24.9-2-41.4,3.2-61.7
					C184.3,207.8,178.8,224.8,182.7,252L182.7,252z"/>
				
					<path style="fill-rule:evenodd;clip-rule:evenodd;fill:#FFFFFF;stroke:#21231E;stroke-width:0.667;stroke-miterlimit:22.926;" d="
					M183.3,259.7l-10.9-3.6c-1.4,10.8,0.7,24.5,3.7,42.4c2.5,15.4,1.2,27.6-0.7,35.4c11.6-1.6,16.5-16.5,10.7-44.5
					C184,279.6,183.1,269.7,183.3,259.7L183.3,259.7z"/>
			</g>
		</g>
		<path style="fill:none;stroke:#21231E;stroke-width:0.667;stroke-linecap:round;stroke-miterlimit:22.925;" d="M183,312.1
			c0.3-7.2-1-15-2.3-21.6c-1.9-8.8-2.8-17.8-2.9-26.9"/>
		<g>
			<g>
				<path style="fill-rule:evenodd;clip-rule:evenodd;fill:#FFFFFF;stroke:#21231E;stroke-width:0.667;stroke-linejoin:round;" d="
					M182.9,195.9l7.1,1.2c-0.3,1.5-2.2,10.9-2.5,12.5c-2.7,13-4.4,28.3-2.4,45.2c0.7,6.2,2.1,11.3,4,15.3
					c-7.8-0.9-12.8-8.5-12.2-21.8c-1.4-15.5-0.8-27.9,1.8-37.2C179.5,208.4,181.9,198.1,182.9,195.9L182.9,195.9z"/>
				
					<path style="fill-rule:evenodd;clip-rule:evenodd;fill:#FFFFFF;stroke:#21231E;stroke-width:0.667;stroke-miterlimit:22.926;" d="
					M178.6,197.6l3.5,4c-1,0.7,0.7,3.8-0.2,9.7c-0.6,3.4-2.6,7.3-3,11.6c-1.4,14.3-1.4,32.1,2.9,43.5c-7.8-0.9-10.5-8-10.8-21.3
					c-0.2-11-0.2-24,2.5-39C174.1,202.8,175.9,199.7,178.6,197.6L178.6,197.6z"/>
				
					<path style="fill-rule:evenodd;clip-rule:evenodd;fill:#FFFFFF;stroke:#21231E;stroke-width:0.588;stroke-miterlimit:22.926;" d="
					M198.1,208.1l-7.2-0.8c-1.3,6.8-2.3,11.6-2.6,14.1c-0.3,4.3,0.6,8.6,2.6,12.4c2.7-1.6,3.9-5.1,5-10
					C197.1,218.7,197.4,213.4,198.1,208.1L198.1,208.1z"/>
				
					<path style="fill-rule:evenodd;clip-rule:evenodd;fill:#FFFFFF;stroke:#21231E;stroke-width:0.665;stroke-miterlimit:22.926;" d="
					M216.9,223.4l-6.4,0.1c-0.2,5.9-0.4,9.9-0.3,11.9c0.1,3.6,1.1,7,3,10.1c2.5-2.2,4-5.4,4.1-8.7
					C217.5,232.5,216.9,228,216.9,223.4L216.9,223.4z"/>
				
					<path style="fill-rule:evenodd;clip-rule:evenodd;fill:#FFFFFF;stroke:#21231E;stroke-width:0.664;stroke-miterlimit:22.926;" d="
					M223.8,226.5l-6.4,0.3c0,5.9,0,9.9,0.1,11.9c0.2,3.6,1.3,7,3.3,10c2.4-2.3,3.8-5.5,3.8-8.9C224.7,235.5,223.9,231,223.8,226.5
					L223.8,226.5z"/>
				
					<path style="fill-rule:evenodd;clip-rule:evenodd;fill:#FFFFFF;stroke:#21231E;stroke-width:0.667;stroke-miterlimit:22.926;" d="
					M210.3,220.1l-6.4-0.5c-0.7,5.8-1.2,9.8-1.2,11.9c-0.2,3.6,0.5,7.1,2.1,10.3c2.7-2,4.4-5,4.8-8.4
					C210.2,229.2,210,224.7,210.3,220.1L210.3,220.1z"/>
				
					<path style="fill-rule:evenodd;clip-rule:evenodd;fill:#FFFFFF;stroke:#21231E;stroke-width:0.667;stroke-miterlimit:22.926;" d="
					M204.3,213.2l-7-2.9c-1.2,4.7-2.8,20.3,0.1,26.9c3-2.2,5-5.5,5.5-9.2C203.7,223.3,203.9,218.3,204.3,213.2L204.3,213.2z"/>
				
					<path style="fill-rule:evenodd;clip-rule:evenodd;fill:#FFFFFF;stroke:#21231E;stroke-width:0.674;stroke-linecap:round;stroke-linejoin:round;" d="
					M195.1,205.5l-11.2,1c-2.3,5.5-4,11.3-5.1,17.3c5.2-0.9,9-3.5,10.3-8.1C190.2,211.8,192.2,208.3,195.1,205.5L195.1,205.5z"/>
			</g>
			<g>
				<g>
					
						<path style="fill-rule:evenodd;clip-rule:evenodd;fill:#FFC72C;stroke:#21231E;stroke-width:0.663;stroke-miterlimit:22.926;" d="
						M206.4,374.9c4.3,3.4,8.2-4.4,4.4-14.8c-2.8-7.7-16.5-4.7-8.9,5.6c0.4,0.5,0.9,0.3,0.8-0.3c-0.4-2.1,0.9-3.3,3-3
						c5.7,1.1,5.9,11.8-0.3,9.4C204.3,371.8,205.3,374,206.4,374.9L206.4,374.9z M220.5,374.9c-4.3,3.4-8.2-4.4-4.4-14.8
						c2.8-7.7,16.5-4.7,8.9,5.6c-0.4,0.5-0.9,0.3-0.8-0.3c0.4-2.1-0.9-3.3-3-3c-5.7,1.1-5.9,11.8,0.3,9.4
						C222.6,371.8,221.6,374,220.5,374.9L220.5,374.9z"/>
					
						<path style="fill-rule:evenodd;clip-rule:evenodd;fill:#FFC72C;stroke:#21231E;stroke-width:0.663;stroke-miterlimit:22.926;" d="
						M213,341.7L213,341.7c-0.6,1.9-2.6,4.1-4.3,5.8c-2.2,2.5-2.2,6.1-0.2,8.7c1.6,2,2.7,4.4,3.1,6.9c0.6,2.7,0.7,5.5,0.4,8.3
						c-0.2,2.1-1.5,3.2-2.7,4.2c-0.6,0.5,0.3,1.6,2.3,3.2c0.6,0.4,1,1,1.1,1.6c0.1,0.3,1,0.3,1.2,0c0.2-0.7,0.6-1.2,1.1-1.6
						c2-1.5,2.9-2.7,2.3-3.2c-1.2-1-2.5-2-2.7-4.2c-0.3-2.8-0.2-5.6,0.4-8.3c0.4-2.5,1.5-4.9,3.1-6.9c2.1-2.5,2-6.2-0.2-8.7
						c-1.6-1.7-3.7-3.9-4.3-5.7v-0.1c0-0.3-0.2-0.5-0.4-0.5S213.1,341.3,213,341.7L213,341.7z"/>
				</g>
				
					<path style="fill-rule:evenodd;clip-rule:evenodd;fill:#FFC72C;stroke:#21231E;stroke-width:0.667;stroke-miterlimit:22.926;" d="
					M210.4,366.5h6.2c1,0,1.9,0.8,1.9,1.9s-0.8,1.9-1.9,1.9c0,0-0.1,0-0.1,0h-6.2c-1,0-1.9-0.8-1.9-1.9
					C208.4,367.4,209.2,366.5,210.4,366.5C210.3,366.5,210.3,366.5,210.4,366.5z"/>
				<g>
					
						<path style="fill-rule:evenodd;clip-rule:evenodd;fill:#FFC72C;stroke:#21231E;stroke-width:0.663;stroke-miterlimit:22.926;" d="
						M293.8,374.9c4.3,3.4,8.2-4.4,4.4-14.8c-2.8-7.7-16.5-4.7-8.9,5.6c0.4,0.5,0.9,0.3,0.8-0.3c-0.4-2.1,0.9-3.3,3-3
						c5.7,1.1,5.9,11.8-0.3,9.4C291.7,371.8,292.7,374,293.8,374.9L293.8,374.9z M307.8,374.9c-4.3,3.4-8.2-4.4-4.4-14.8
						c2.8-7.7,16.5-4.7,8.9,5.6c-0.4,0.5-0.9,0.3-0.8-0.3c0.4-2.1-0.9-3.3-3-3c-5.7,1.1-5.9,11.8,0.3,9.4
						C310,371.8,309,374,307.8,374.9L307.8,374.9z"/>
					
						<path style="fill-rule:evenodd;clip-rule:evenodd;fill:#FFC72C;stroke:#21231E;stroke-width:0.663;stroke-miterlimit:22.926;" d="
						M300.4,341.7L300.4,341.7c-0.6,1.9-2.6,4.1-4.3,5.8c-2.2,2.5-2.2,6.1-0.2,8.7c1.6,2,2.7,4.4,3.1,6.9c0.6,2.7,0.7,5.5,0.4,8.3
						c-0.2,2.1-1.5,3.2-2.7,4.2c-0.6,0.5,0.3,1.6,2.3,3.2c0.6,0.4,1,1,1.1,1.6c0.1,0.3,1,0.3,1.2,0c0.2-0.7,0.6-1.2,1.1-1.6
						c2-1.5,2.9-2.7,2.3-3.2c-1.2-1-2.5-2-2.7-4.2c-0.3-2.8-0.2-5.6,0.4-8.3c0.4-2.5,1.5-4.9,3.1-6.9c2.1-2.5,2-6.2-0.2-8.7
						c-1.6-1.7-3.7-3.9-4.3-5.7v-0.1c0-0.3-0.2-0.5-0.4-0.5S300.4,341.3,300.4,341.7L300.4,341.7z"/>
				</g>
				
					<path style="fill-rule:evenodd;clip-rule:evenodd;fill:#FFC72C;stroke:#21231E;stroke-width:0.667;stroke-miterlimit:22.926;" d="
					M297.7,366.5h6.2c1,0,1.9,0.8,1.9,1.9c0,1-0.8,1.9-1.9,1.9c0,0-0.1,0-0.1,0h-6.2c-1,0-1.9-0.8-1.9-1.9
					C295.8,367.4,296.6,366.5,297.7,366.5C297.7,366.5,297.7,366.5,297.7,366.5z"/>
			</g>
			<g>
				
					<path style="fill-rule:evenodd;clip-rule:evenodd;fill:#FFFFFF;stroke:#21231E;stroke-width:0.667;stroke-miterlimit:22.926;" d="
					M298.3,250.4c-0.1,4.7,0.7,35.7,1,40.1c0.1,3.5,1.6,6.8,4.3,9c2-3,3.2-6.6,3.3-10.3c0.1-2.1-0.3-31.5-0.4-37.5
					C303,242.6,300.4,242.2,298.3,250.4L298.3,250.4z"/>
				
					<path style="fill-rule:evenodd;clip-rule:evenodd;fill:#FFFFFF;stroke:#21231E;stroke-width:0.667;stroke-miterlimit:22.926;" d="
					M318.5,242.9l1.3,42.7c0.4,3.8-4.5,26.3-7.2,30.8c-6.7-2.9-8.1-18.1-6.8-33s-0.2-27.7-1.2-30.4c-0.1-3.4,0.5-6.9,0.5-10.4
					C309.3,242.7,314.3,242.6,318.5,242.9L318.5,242.9z"/>
				
					<path style="fill-rule:evenodd;clip-rule:evenodd;fill:#FFFFFF;stroke:#21231E;stroke-width:0.667;stroke-miterlimit:22.926;" d="
					M326.4,249.8l-0.9,42.7c0.2,3.8-5.9,26-8.8,30.3c-6.8-5.2-5.4-26.7-4.4-33.2c2.1-12.9,1.7-27.9,1-30.4c0.1-3.4,0.2-7.4,0.4-10.9
					L326.4,249.8z"/>
				
					<path style="fill-rule:evenodd;clip-rule:evenodd;fill:#FFFFFF;stroke:#21231E;stroke-width:0.667;stroke-miterlimit:22.926;" d="
					M332.3,259.9l-11.2-0.3c1,4.7,0.2,19.1-1.7,30.1c-1.8,10.3-4.4,37.1,6.4,43.6c6.7-14.1,1.6-27.9,5-40.2
					C333.3,280.2,333.9,269.2,332.3,259.9L332.3,259.9z M289.4,242.6c0,4.7,1.8,35.6,2.2,40c0.2,3.5,1.8,6.7,4.5,8.9
					c2-3.1,3-6.7,3-10.4c0.1-2.1-1.2-31.5-1.6-37.5C293.8,234.6,291.2,234.3,289.4,242.6L289.4,242.6z M309.3,217.3
					c0.3,10,0.5,31.7,0.4,33.5c-0.1,4.2-1.8,9.5-3.6,12.1c-2.7-2.2-4.3-5.4-4.5-8.9c-0.3-3.6-0.4-21.2-0.5-30
					c2.3-1.5,4.5-3.2,6.5-5.2C307.6,218.9,309.3,217.4,309.3,217.3L309.3,217.3z"/>
				
					<path style="fill-rule:evenodd;clip-rule:evenodd;fill:#FFFFFF;stroke:#21231E;stroke-width:0.667;stroke-miterlimit:22.926;" d="
					M301.3,223.8c0.2,10.8,0.1,27.7,0,29.1c0,3.7-1,7.3-3,10.4c-2.8-2.2-4.5-5.5-4.7-9c-0.2-2.7-1-14.2-1.1-23
					C295.4,230.4,299,225.7,301.3,223.8L301.3,223.8z M308.2,216.4l7.6-11c1.5,5.4,3.4,44.4,1.2,47.6c-0.1,3.7-1.4,7.3-3.5,10.4
					c-2.1-1.6-5.3-4.6-4.4-9C310.1,249.9,309.1,221,308.2,216.4L308.2,216.4z"/>
				
					<path style="fill-rule:evenodd;clip-rule:evenodd;fill:#FFFFFF;stroke:#21231E;stroke-width:0.667;stroke-miterlimit:22.926;" d="
					M323.9,240.9c0.3,6,0.6,10.1,0.5,12.2c0,3.7-1,7.3-3,10.4c-2.1-1.6-4.8-4.5-4.5-8.9c1.1-16.9-0.8-32.7-2.9-48
					c1.8-1.3,4.9-2.8,6.7-4.1C324.3,223.1,325.5,235.8,323.9,240.9L323.9,240.9z"/>
				<path style="fill-rule:evenodd;clip-rule:evenodd;fill:#FFFFFF;stroke:#21231E;stroke-width:0.667;stroke-linejoin:round;" d="
					M331.5,252l-2.1,7.8c-0.1,4.2-2.7,7.6-4.5,10.3c-2.7-2-4.1-5.4-3.5-8.7c3.1-24.9,2-41.4-3.2-61.7
					C330,207.8,335.5,224.8,331.5,252L331.5,252z"/>
				
					<path style="fill-rule:evenodd;clip-rule:evenodd;fill:#FFFFFF;stroke:#21231E;stroke-width:0.667;stroke-miterlimit:22.926;" d="
					M330.9,259.7l10.9-3.6c1.4,10.8-0.7,24.5-3.7,42.4c-2.5,15.4-1.2,27.6,0.7,35.4c-11.6-1.6-16.5-16.5-10.7-44.5
					C330.3,279.6,331.2,269.7,330.9,259.7L330.9,259.7z"/>
			</g>
		</g>
		<path style="fill:none;stroke:#21231E;stroke-width:0.667;stroke-linecap:round;stroke-miterlimit:22.925;" d="M331.2,312.1
			c-0.3-7.2,1-15,2.3-21.6c1.9-8.8,2.8-17.8,2.9-26.9"/>
		<g>
			<g>
				<path style="fill-rule:evenodd;clip-rule:evenodd;fill:#FFFFFF;stroke:#21231E;stroke-width:0.667;stroke-linejoin:round;" d="
					M331.4,195.9l-7.1,1.2c0.4,1.5,2.2,10.9,2.5,12.5c2.7,13,4.4,28.3,2.4,45.2c-0.7,6.2-2.1,11.3-4,15.3
					c7.8-0.9,12.8-8.5,12.2-21.8c1.4-15.5,0.8-27.9-1.8-37.2C334.8,208.4,332.4,198.1,331.4,195.9L331.4,195.9z"/>
				
					<path style="fill-rule:evenodd;clip-rule:evenodd;fill:#FFFFFF;stroke:#21231E;stroke-width:0.667;stroke-miterlimit:22.926;" d="
					M335.7,197.6l-3.5,4c1,0.7-0.7,3.8,0.2,9.7c0.6,3.4,2.6,7.3,3,11.6c1.4,14.3,1.4,32.1-2.9,43.5c7.8-0.9,10.5-8,10.8-21.3
					c0.2-11,0.2-24-2.5-39C340.2,202.8,338.4,199.7,335.7,197.6L335.7,197.6z"/>
				
					<path style="fill-rule:evenodd;clip-rule:evenodd;fill:#FFFFFF;stroke:#21231E;stroke-width:0.588;stroke-miterlimit:22.926;" d="
					M316.1,208.1l7.2-0.8c1.3,6.8,2.3,11.6,2.6,14.1c0.3,4.3-0.6,8.6-2.6,12.4c-2.7-1.6-3.9-5.1-5-10
					C317.2,218.7,316.9,213.4,316.1,208.1z"/>
				
					<path style="fill-rule:evenodd;clip-rule:evenodd;fill:#FFFFFF;stroke:#21231E;stroke-width:0.665;stroke-miterlimit:22.926;" d="
					M297.4,223.4l6.4,0.1c0.2,5.9,0.4,9.9,0.3,11.9c-0.1,3.6-1.1,7-3,10.1c-2.5-2.2-4-5.4-4.1-8.7
					C296.8,232.5,297.4,228,297.4,223.4z"/>
				
					<path style="fill-rule:evenodd;clip-rule:evenodd;fill:#FFFFFF;stroke:#21231E;stroke-width:0.664;stroke-miterlimit:22.926;" d="
					M290.5,226.5l6.4,0.3c0,5.9,0,9.9-0.1,11.9c-0.2,3.6-1.3,7-3.3,10c-2.4-2.3-3.8-5.5-3.8-8.9C289.6,235.5,290.3,231,290.5,226.5
					L290.5,226.5z"/>
				
					<path style="fill-rule:evenodd;clip-rule:evenodd;fill:#FFFFFF;stroke:#21231E;stroke-width:0.667;stroke-miterlimit:22.926;" d="
					M303.9,220.1l6.4-0.5c0.7,5.8,1.2,9.8,1.2,11.9c0.2,3.6-0.5,7.1-2.1,10.3c-2.7-2-4.4-5-4.8-8.4
					C304,229.2,304.3,224.6,303.9,220.1L303.9,220.1z"/>
				
					<path style="fill-rule:evenodd;clip-rule:evenodd;fill:#FFFFFF;stroke:#21231E;stroke-width:0.667;stroke-miterlimit:22.926;" d="
					M309.9,213.2l7-2.9c1.2,4.7,2.8,20.3-0.1,26.9c-3-2.2-5-5.5-5.5-9.2C310.6,223.3,310.4,218.3,309.9,213.2L309.9,213.2z"/>
				<g>
					
						<path style="fill-rule:evenodd;clip-rule:evenodd;fill:#FFFFFF;stroke:#21231E;stroke-width:0.674;stroke-linecap:round;stroke-linejoin:round;" d="
						M319.2,205.5l11.2,1c2.3,5.5,4,11.3,5.1,17.3c-5.2-0.9-9-3.5-10.3-8.1C324.1,211.8,322,208.3,319.2,205.5L319.2,205.5z"/>
					<path style="fill-rule:evenodd;clip-rule:evenodd;fill:#FFFFFF;stroke:#21231E;stroke-width:0.667;stroke-linejoin:round;" d="
						M286.3,221.4c0.9-0.2,1.8-0.4,2.6-0.7c-4.1-2.6-7.5-5.7-11.5-11.9c-4.1-6.3,1.8-17.7,4.3-23.7c5.1-3.8,9.9-9.3,11.4-16.6
						c0.6-3.9-10.3-2.5-17.7,1c-9.1,4.3-10.4,3.1-13.6,3.8c-1.2,5.6,1.3,6.1,3.6,5.8c-5,8.1-7.1,16.1-8.1,27.6
						c-1-11.5-3.1-19.6-8.1-27.6c2.3,0.3,4.8-0.2,3.6-5.8c-3.3-0.7-4.5,0.5-13.6-3.8c-7.5-3.5-18.3-4.9-17.7-1
						c1.5,7.3,6.3,12.9,11.4,16.6c2.4,6,8.4,17.3,4.3,23.7c-4,6.2-7.4,9.3-11.5,11.9c0.9,0.3,1.7,0.5,2.6,0.7
						c-0.6,0.8-5.9,2.5-6.6,2.1c-4.1-2.9-8-9.6-11.5-13.5c-9.8-11.1-14.7-19.7-13-26.6c2.5-7.4,11.2-15.8-0.4-14.4
						s-21.3,17.4-24.4,36.6c-1.1,7.1-1.8,13.1-2.6,17.9c6.3-2.3,9.2-4.5,10.8-7.3c-0.7,2.5-1.3,5-1.7,7.6c5.2-0.9,9-3.5,10.3-8.1
						c0.5-1.6,1.1-3.2,1.9-4.7c2,0.6,4.2,0.5,6.2-0.1c1,2.3,8.1,10.2,12,16.1c4.3,6.6,10.9,11.7,13,11.9c1.1,0.1,1.4-2.2,1.2-5.5
						c11.3,0.1,22.7,0.1,33.8-0.2c11.1,0.4,22.5,0.3,33.8,0.2c-0.2,3.3,0.1,5.7,1.2,5.5c2.2-0.3,8.7-5.3,13-11.9
						c3.8-5.8,11-13.8,12-16.1c2,0.6,4.2,0.6,6.2,0.1c0.8,1.5,1.4,3.1,1.9,4.7c1.4,4.6,5.1,7.2,10.3,8.1c-0.4-2.5-1-5.1-1.7-7.6
						c1.7,2.8,4.5,5,10.8,7.3c-0.8-4.9-1.4-10.8-2.6-17.9c-3.1-19.2-12.7-35.1-24.4-36.6c-11.6-1.4-2.8,6.9-0.4,14.4
						c1.7,6.9-3.2,15.5-13,26.6c-3.5,3.9-7.4,10.7-11.5,13.5C292.2,223.9,286.9,222.3,286.3,221.4L286.3,221.4z"/>
				</g>
			</g>
			<g>
				<path style="fill-rule:evenodd;clip-rule:evenodd;fill:#FFC72C;stroke:#21231E;stroke-width:0.667;stroke-linejoin:round;" d="
					M279.5,190.3c1.1,1,4.7,1,9.6,1.3c8,0.3,12.6-2.1,13.6-7.2c-3,3.6-6.5,5.3-10.6,4.3c-5.5-1.4-8.6-2.3-9.8-2.1
					C281.4,186.9,280.2,188.4,279.5,190.3L279.5,190.3z"/>
				
					<path style="fill-rule:evenodd;clip-rule:evenodd;fill:#FFC72C;stroke:#21231E;stroke-width:0.673;stroke-miterlimit:22.926;" d="
					M298.1,169.4c8.9,1,8.5,6.8,0.2,15c-1.6,1.6-2.1,1.5-2.5-0.1c-0.6-2.9-3.8-4.6-5.4-2.4c-1.1,1.5-0.9,2.3-4.7,1.8
					c-4.8,4-8.7,6.8-2.4,6.6c2.7-0.1,4.9,1.5,8.4,1.4c-1.1,2.1-1.2,2.3-1.8,2.5c-3.5,0.7-7.1-1.5-10.6-0.8
					c-7.7,1.4,12.3-20.7,12-21.6C290.6,169.5,296.1,165.5,298.1,169.4L298.1,169.4z"/>
			</g>
		</g>
		<path style="fill:none;stroke:#21231E;stroke-width:0.673;stroke-linecap:round;stroke-miterlimit:22.926;" d="M297.9,169.2
			c-0.9,2.3-2.3,4.3-4.2,5.8"/>
	</g>
	<path style="fill-rule:evenodd;clip-rule:evenodd;fill:#21231E;" d="M299.8,173.5c-0.1-0.4-0.4-0.7-0.8-0.6c-0.4,0-0.7,0.4-0.6,0.8
		c0,0,0,0,0,0c0.1,0.4,0.4,0.7,0.8,0.6C299.5,174.2,299.8,173.9,299.8,173.5C299.8,173.5,299.8,173.5,299.8,173.5"/>
	<g>
		<path style="fill:none;stroke:#21231E;stroke-width:0.889;stroke-linecap:round;stroke-miterlimit:23.677;" d="M223.5,171.6
			c2.4-0.1,4.9,0.9,8,2.1c0.9,0.3,4,1.6,5,1.4"/>
		<path style="fill:none;stroke:#21231E;stroke-width:0.667;stroke-linecap:round;stroke-miterlimit:24.134;" d="M249.1,179.2
			c-1.8-0.3-3.5-0.6-5.3-1.1"/>
		<path style="fill:none;stroke:#21231E;stroke-width:0.889;stroke-miterlimit:29.599;" d="M225.4,171.8c1,1.8,2.2,4.3,4.3,5.5
			c1.6,0.9,3.4-0.5,4.7-2.9"/>
	</g>
	<path style="fill-rule:evenodd;clip-rule:evenodd;fill:#21231E;" d="M228.9,176.4l-1.2-1.2c-0.6-0.7-0.2-1.7,1-2.9
		c0.9,0.4,1.6,0.7,2.4,1C230.6,175,229.9,176,228.9,176.4"/>
	<path style="fill:none;stroke:#21231E;stroke-width:0.889;stroke-miterlimit:29.599;" d="M288.8,171.8c-1,1.8-2.2,4.3-4.3,5.5
		c-1.6,0.9-3.4-0.5-4.7-2.9"/>
	<path style="fill-rule:evenodd;clip-rule:evenodd;fill:#21231E;" d="M285.4,176.4l1.2-1.2c0.6-0.7,0.2-1.7-1-2.9
		c-0.9,0.4-1.6,0.7-2.4,1C283.7,175,284.4,176,285.4,176.4"/>
	<g>
		<g>
			<path style="fill:none;stroke:#21231E;stroke-width:0.889;stroke-linecap:round;stroke-miterlimit:23.677;" d="M290.7,171.6
				c-2.4-0.1-4.8,0.9-8,2.1c-0.9,0.3-4,1.6-5,1.4"/>
			<path style="fill:none;stroke:#21231E;stroke-width:0.667;stroke-linecap:round;stroke-miterlimit:24.134;" d="M265.1,179.2
				c1.8-0.3,3.5-0.6,5.3-1.1"/>
			<g>
				<path style="fill:none;stroke:#21231E;stroke-width:0.667;stroke-linecap:round;stroke-linejoin:round;" d="M225.4,220.7
					c5.1,1.8,9.7,1.4,13.1-2c0.5-0.5,1.1-1,1.6-1.5"/>
				<path style="fill:none;stroke:#21231E;stroke-width:0.667;stroke-linecap:round;stroke-linejoin:round;" d="M240.7,214.1
					c-0.4,3.1-1.3,6.1-2.6,8.9c3.6-0.9,6.4-2.6,8.2-5.1 M257.1,224.6c-2.8-3.3-4.5-7.4-4.7-11.7"/>
				<path style="fill:none;stroke:#21231E;stroke-width:0.667;stroke-linecap:round;stroke-linejoin:round;" d="M245.6,213.6
					c0.2,3.1,1.2,6.1,2.9,8.7c2.1-1.6,3.6-3.9,4.2-6.5 M288.9,220.7c-5.1,1.8-9.7,1.4-13.1-2c-0.5-0.5-1.1-1-1.6-1.5"/>
				<path style="fill:none;stroke:#21231E;stroke-width:0.667;stroke-linecap:round;stroke-linejoin:round;" d="M273.5,214.1
					c0.4,3.1,1.3,6.1,2.6,8.9c-3.6-0.9-6.4-2.6-8.2-5.1"/>
				<path style="fill:none;stroke:#21231E;stroke-width:0.667;stroke-linecap:round;stroke-linejoin:round;" d="M268.7,213.6
					c-0.2,3.1-1.2,6.1-2.9,8.7c-2.1-1.6-3.6-3.9-4.2-6.5"/>
				<path style="fill:none;stroke:#21231E;stroke-width:0.667;stroke-linecap:round;stroke-linejoin:round;" d="M257.2,224.6
					c2.8-3.3,4.5-7.4,4.7-11.7"/>
			</g>
			<path style="fill:none;stroke:#21231E;stroke-width:0.667;stroke-linecap:round;stroke-miterlimit:22.926;" d="M190.9,193.6
				c-4,2.9-11.5,23.7-12,29.9c-1.3,14.2-1.3,31.7,3,42.9 M323.4,193.6c4,2.9,11.5,23.7,12.1,29.9c1.3,14.2,1.3,31.7-3,42.9"/>
		</g>
		<path style="fill-rule:evenodd;clip-rule:evenodd;fill:#FFC72C;stroke:#21231E;stroke-width:0.673;stroke-linejoin:round;" d="
			M216.2,169.4c-8.9,1-8.5,6.8-0.2,15c1.6,1.6,2.1,1.5,2.5-0.1c0.6-2.9,3.8-4.6,5.4-2.4c1.1,1.5,0.9,2.3,4.7,1.8
			c4.8,4,8.7,6.8,2.4,6.6c-2.7-0.1-4.9,1.5-8.4,1.4c1.1,2.1,1.2,2.3,1.8,2.5c3.5,0.7,7.1-1.5,10.6-0.8c7.7,1.4-12.3-20.7-12-21.6
			C223.6,169.5,218.2,165.5,216.2,169.4L216.2,169.4z"/>
		<path style="fill:none;stroke:#21231E;stroke-width:0.673;stroke-linecap:round;stroke-miterlimit:22.926;" d="M216.4,169.2
			c0.9,2.3,2.3,4.3,4.2,5.8"/>
	</g>
	<path style="fill-rule:evenodd;clip-rule:evenodd;fill:#21231E;" d="M214.5,173.5c0.1-0.4,0.4-0.7,0.8-0.6c0.4,0,0.7,0.4,0.6,0.8
		c0,0,0,0,0,0c-0.1,0.4-0.4,0.7-0.8,0.6C214.7,174.2,214.5,173.9,214.5,173.5C214.5,173.5,214.5,173.5,214.5,173.5"/>
	<g>
		<g>
			<g>
				<path style="fill-rule:evenodd;clip-rule:evenodd;fill:#FFFFFF;stroke:#21231E;stroke-width:0.667;stroke-linejoin:round;" d="
					M222.2,309.5l0.2-5.9c-2.4-1.2-8.2,0-10.6,5.4c-3.1,6.7-5.9,10.3-9.6,13.5c5.3,1,9.8-0.1,12.7-3.9
					C218.8,313.4,220.9,310.2,222.2,309.5L222.2,309.5z"/>
				
					<path style="fill-rule:evenodd;clip-rule:evenodd;fill:#FFFFFF;stroke:#21231E;stroke-width:0.667;stroke-miterlimit:25.356;" d="
					M226.5,310.3l-6.3-2.7c-2.6,5.3-4.4,8.9-5.1,10.8c-1.4,3.3-1.8,6.9-1.2,10.5c3.3-0.9,6-3.2,7.5-6.2
					C223.5,318.9,224.7,314.5,226.5,310.3L226.5,310.3z"/>
				
					<path style="fill-rule:evenodd;clip-rule:evenodd;fill:#FFFFFF;stroke:#21231E;stroke-width:0.667;stroke-miterlimit:23.368;" d="
					M228.4,310.3l-6.8-1c-1.2,5.8-2.1,9.7-2.3,11.7c-0.5,3.5,0,7.2,1.4,10.4c3-1.7,5.1-4.6,5.8-7.9
					C227.5,319.4,227.6,314.8,228.4,310.3L228.4,310.3z"/>
				<path style="fill-rule:evenodd;clip-rule:evenodd;fill:#FFFFFF;stroke:#21231E;stroke-width:0.667;stroke-linejoin:round;" d="
					M229.4,301.1l4,0c2.4,1.2,4.8,6.5,2,11.7c-3.6,6.5-4.7,10.9-5.1,15.7c-4-3.7-5.8-7.9-4.4-12.5
					C227.7,309.7,229.6,302.5,229.4,301.1L229.4,301.1z"/>
				
					<path style="fill-rule:evenodd;clip-rule:evenodd;fill:#FFFFFF;stroke:#21231E;stroke-width:0.667;stroke-miterlimit:24.727;" d="
					M231.2,298.2l-6.5-2.3c-2.3,5.4-3.8,9.1-4.5,11.1c-1.2,3.4-1.4,7-0.6,10.5c3.3-0.9,6.1-3.2,7.5-6.3
					C229,307.3,229.6,302.5,231.2,298.2L231.2,298.2z"/>
				<path style="fill-rule:evenodd;clip-rule:evenodd;fill:#FFFFFF;stroke:#21231E;stroke-width:0.667;stroke-linejoin:round;" d="
					M226.8,293.7l-1.4-8.8c-1.5-0.4-3.5,3.1-5.4,5.1c-0.5,0.5-0.9,1-1.3,1.5c-0.9,1.3-1.5,2.7-1.8,4.3c-1.1,5.4-3.4,10.5-6.9,14.8
					c5.4-0.1,9.6-2.1,11.6-6.4C224.2,298.2,225.6,294.7,226.8,293.7L226.8,293.7z"/>
			</g>
			<g>
				<path style="fill-rule:evenodd;clip-rule:evenodd;fill:#FFC72C;stroke:#21231E;stroke-width:0.662;stroke-linejoin:round;" d="
					M294.7,312.4c1.7,0.1,3.8,1.1,10,6.4c2.7,5.5,5.4,11,9.1,15.8c1,0.7,2.1,1.3,3.3,1.8c1.1,0.3,8.8,0.1,9-0.2
					c2.4-2.2,6.1-0.6,4.9,1.7c1,0.9-1.2,4.2-2.8,2.8c-1.6-1.3-7-0.1-8.8-0.7c0.7,1.6,5.6,2.7,9,2.9c3.1,0.1,2.9,3.3,1.6,5.6
					c-1.5,0.9-0.3-0.2-0.8,0.4c-1.4,2.1-4.4,1.8-4.5-0.2c-0.1-2.1-7.4-4.8-8.5-6.4c1.3,3.2,4.4,6.2,6,9.3c1.6,1.7,2.6,2,0.5,5.3
					c-2.4-0.3-2.5-0.9-3.9,0.5c-3.2-0.4-3.8-1.3-3.2-3.9c0.6-2.7-1.7-7.6-2.5-9c-0.7-1.3-0.9-2.6-1.5-3.4c-1.2-1.4-6.8-4.2-8.2-3.4
					c-2.6,1.4-4.6,0.6-5-2c0.8-0.7,0.2-4.3,2-4.4c1.5-0.1,2.4,0.3,3.7,1.5c2.2,1.8,3.3,2.7,4,2.5c1.7-0.5-3-2.8-7.3-8.4
					C294.9,319,294.5,315.1,294.7,312.4L294.7,312.4z"/>
				
					<path style="fill-rule:evenodd;clip-rule:evenodd;fill:#FFC72C;stroke:#21231E;stroke-width:0.667;stroke-miterlimit:23.175;" d="
					M330.7,339.2c2.2-1.3,3.4-1.2,4.2-0.3c0.5,0.5,1,0.2,0.7-0.6c-1.4-3.4-3.7-3.8-5.8-2.2c-0.6,0.5-1,1-1.5,1.4
					C328.7,338.1,330.4,338.8,330.7,339.2L330.7,339.2z"/>
				
					<path style="fill-rule:evenodd;clip-rule:evenodd;fill:#FFC72C;stroke:#21231E;stroke-width:0.65;stroke-miterlimit:22.926;" d="
					M299.8,336.2c-2.3-1.6-4.4-1.9-5.6-1c-0.6,0.5-1.3,0.1-0.7-0.7c2.4-3.3,5.2-3.5,7.2-1.6c0.6,0.6,1,1.1,1.5,1.7
					C301.6,335.3,300.7,335.8,299.8,336.2L299.8,336.2z"/>
				
					<path style="fill-rule:evenodd;clip-rule:evenodd;fill:#FFC72C;stroke:#21231E;stroke-width:0.659;stroke-miterlimit:22.926;" d="
					M317.9,355.3c1.4,2.8,2.1,4.7,1.5,6.2c-0.4,0.9,0,1.7,0.9,0.9c3.6-3.1,3.6-6.6,1.3-9c-0.7-0.7-1.5-1.3-2.3-1.9
					C318.4,352.4,317.8,355.1,317.9,355.3z"/>
				
					<path style="fill-rule:evenodd;clip-rule:evenodd;fill:#FFC72C;stroke:#21231E;stroke-width:0.614;stroke-miterlimit:22.926;" d="
					M326.8,348c2.1,0.9,2.9,2,2.8,3.5c0,0.8,0.5,1.1,0.8,0.2c2.6-6-0.1-7.2-4-6.9C326.3,345.8,326.4,346.9,326.8,348L326.8,348z"/>
			</g>
		</g>
		<g>
			<path style="fill:none;stroke:#21231E;stroke-width:0.667;stroke-miterlimit:31.033;" d="M308.5,334.6c1.4-0.8,1.5-1.7,1.1-2.3
				c-0.8-1.3-1.6-0.7-3,0.5"/>
			<path style="fill:none;stroke:#21231E;stroke-width:0.667;stroke-miterlimit:31.033;" d="M306.7,332.6c1.4-0.8,1.5-1.7,1.1-2.3
				c-0.8-1.3-1.6-0.7-3,0.5"/>
			<path style="fill:none;stroke:#21231E;stroke-width:0.674;stroke-miterlimit:22.926;" d="M304.6,330.7c1.5-1.1,1.6-2.2,1.2-3
				c-0.9-1.7-1.7-0.9-3.3,0.7"/>
			<path style="fill:none;stroke:#21231E;stroke-width:0.677;stroke-miterlimit:22.926;" d="M302.4,328.4c1.6-1.2,1.7-2.5,1.3-3.4
				c-0.9-1.9-1.8-1-3.5,0.8"/>
			<path style="fill:none;stroke:#21231E;stroke-width:0.669;stroke-miterlimit:22.926;" d="M300.1,325.9c1.5-1.3,2-2.5,1.3-3.6
				c-1.1-1.7-1.8-1-3.5,0.8"/>
		</g>
		<g>
			<path style="fill-rule:evenodd;clip-rule:evenodd;fill:#FFFFFF;stroke:#21231E;stroke-width:0.667;stroke-linejoin:round;" d="
				M292.1,309.5l-0.2-5.8c2.4-1.2,8.2,0,10.6,5.4c3,6.7,5.9,10.3,9.6,13.5c-5.3,1-9.8-0.1-12.7-3.9
				C295.4,313.4,293.4,310.2,292.1,309.5L292.1,309.5z"/>
			
				<path style="fill-rule:evenodd;clip-rule:evenodd;fill:#FFFFFF;stroke:#21231E;stroke-width:0.667;stroke-miterlimit:25.356;" d="
				M287.7,310.3l6.3-2.7c2.6,5.3,4.4,8.9,5.1,10.8c1.4,3.3,1.8,6.9,1.2,10.5c-3.3-0.9-6-3.2-7.5-6.2
				C290.8,318.9,289.5,314.5,287.7,310.3L287.7,310.3z"/>
			
				<path style="fill-rule:evenodd;clip-rule:evenodd;fill:#FFFFFF;stroke:#21231E;stroke-width:0.667;stroke-miterlimit:23.368;" d="
				M285.9,310.3l6.8-1c1.2,5.8,2.1,9.7,2.3,11.7c0.5,3.5,0,7.2-1.4,10.4c-3-1.7-5.1-4.6-5.8-7.9
				C286.8,319.4,286.6,314.8,285.9,310.3L285.9,310.3z"/>
			<path style="fill-rule:evenodd;clip-rule:evenodd;fill:#FFFFFF;stroke:#21231E;stroke-width:0.667;stroke-linejoin:round;" d="
				M284.9,301.1l-4,0c-2.4,1.2-4.8,6.5-2,11.7c3.6,6.5,4.7,10.9,5.1,15.8c4-3.7,5.8-7.9,4.4-12.5
				C286.5,309.7,284.7,302.5,284.9,301.1z"/>
			
				<path style="fill-rule:evenodd;clip-rule:evenodd;fill:#FFFFFF;stroke:#21231E;stroke-width:0.667;stroke-miterlimit:24.727;" d="
				M283.1,298.3l6.5-2.3c2.3,5.4,3.8,9.1,4.5,11.1c1.2,3.4,1.4,7,0.6,10.5c-3.3-0.9-6.1-3.2-7.5-6.3
				C285.3,307.3,284.7,302.5,283.1,298.3L283.1,298.3z"/>
			<path style="fill-rule:evenodd;clip-rule:evenodd;fill:#FFFFFF;stroke:#21231E;stroke-width:0.667;stroke-linejoin:round;" d="
				M287.5,293.7l1.4-8.8c1.5-0.4,3.5,3.1,5.4,5.1c0.5,0.5,0.9,1,1.4,1.5c0.9,1.3,1.5,2.7,1.8,4.3c1.1,5.4,3.4,10.5,6.9,14.8
				c-5.4-0.1-9.6-2.1-11.6-6.4C290,298.2,288.6,294.7,287.5,293.7L287.5,293.7z"/>
		</g>
		<path style="fill:#E40046;stroke:#21231E;stroke-width:1.334;stroke-miterlimit:22.926;" d="M293.1,225.3v58.2
			c0,9.9-3.7,19.5-10.6,26.7c-6.6,7-15.8,11-25.4,11.1l0,0c-9.6,0-18.8-4.1-25.4-11.1c-6.8-7.2-10.6-16.8-10.6-26.7v-58.2H293.1z"/>
		<g>
			<path style="fill:#FFFFFF;stroke:#21231E;stroke-width:0.667;stroke-miterlimit:22.926;" d="M293.1,261v15h-28.5v44.5
				c-2.5,0.6-5,0.8-7.5,0.8l0,0c-2.5,0-5-0.3-7.5-0.8V276h-28.5v-15h28.5v-35.7h15V261L293.1,261z"/>
			<g>
				<path style="fill-rule:evenodd;clip-rule:evenodd;fill:#FFFFFF;stroke:#21231E;stroke-width:0.676;stroke-linejoin:round;" d="
					M244.8,233.8v21.1c-4.6,1.2-15.8,5.7-16.4-4.1c-0.3-4.5,5.6-7.5,7.2-3.5c0.7,1.9-0.1,3.2-1.2,3.7c-0.8,0.3-1.7-0.1-2-0.9
					c-0.1-0.3-0.2-0.7,0-1.1c-4.8,2.5,4.3,7.8,8.3,0.9c1.2-2-2-4.1-2-5.6c0-1.5,3.1-3.7,2-5.6c-4.1-6.8-13.1-1.6-8.3,0.9
					c-0.3-0.8,0.2-1.7,1-2c0.4-0.1,0.7-0.1,1.1,0c1.1,0.4,1.9,1.8,1.2,3.7c-1.6,4-7.5,1-7.2-3.5C229,228.1,240.2,232.5,244.8,233.8
					L244.8,233.8z"/>
				<path style="fill-rule:evenodd;clip-rule:evenodd;fill:#FFFFFF;stroke:#21231E;stroke-width:0.671;stroke-linejoin:round;" d="
					M269.5,233.8v21.1c4.6,1.2,15.8,5.7,16.4-4.1c0.3-4.5-5.6-7.5-7.2-3.5c-0.8,1.9,0.1,3.2,1.2,3.7c0.8,0.3,1.7-0.1,2-0.8
					c0.1-0.3,0.2-0.7,0-1.1c4.8,2.5-4.3,7.8-8.3,0.9c-1.2-2,2-4.1,2-5.6c0-1.5-3.1-3.7-2-5.6c4.1-6.8,13.1-1.6,8.3,0.9
					c0.3-0.8-0.2-1.7-1-2c-0.4-0.1-0.7-0.1-1.1,0c-1.1,0.4-1.9,1.8-1.2,3.7c1.6,4,7.5,1,7.2-3.5
					C285.3,228.1,274.1,232.5,269.5,233.8L269.5,233.8z M244.8,303.2v-21.1c-4.6-1.2-15.8-5.7-16.4,4.1c-0.3,4.5,5.6,7.5,7.2,3.5
					c0.7-1.9-0.1-3.2-1.2-3.7c-0.8-0.3-1.7,0.1-2,0.9c-0.1,0.3-0.2,0.7,0,1.1c-4.8-2.5,4.3-7.8,8.3-0.9c1.2,2-2,4.1-2,5.6
					s3.1,3.7,2,5.6c-4.1,6.8-13.1,1.6-8.3-0.9c-0.3,0.8,0.2,1.7,1,2c0.4,0.1,0.7,0.1,1.1,0c1.1-0.4,1.9-1.8,1.2-3.7
					c-1.6-4-7.5-1-7.2,3.5C229,308.9,240.2,304.4,244.8,303.2L244.8,303.2z M269.5,303.2v-21.1c4.6-1.2,15.8-5.7,16.4,4.1
					c0.3,4.5-5.6,7.5-7.2,3.5c-0.8-1.9,0.1-3.2,1.2-3.7c0.8-0.3,1.7,0.1,2,0.8c0.1,0.3,0.2,0.7,0,1.1c4.8-2.5-4.3-7.8-8.3-0.9
					c-1.2,2,2,4.1,2,5.6c0,1.5-3.1,3.7-2,5.6c4.1,6.8,13.1,1.6,8.3-0.9c0.3,0.8-0.2,1.7-1,2c-0.4,0.1-0.7,0.1-1.1,0
					c-1.1-0.4-1.9-1.8-1.2-3.7c1.6-4,7.5-1,7.2,3.5C285.3,308.9,274.1,304.4,269.5,303.2L269.5,303.2z"/>
			</g>
		</g>
		<path style="fill:none;stroke:#21231E;stroke-width:1.334;stroke-miterlimit:22.926;" d="M293.1,225.3v58.2
			c0,9.9-3.7,19.5-10.6,26.7c-6.6,7-15.8,11-25.4,11.1l0,0c-9.6,0-18.8-4.1-25.4-11.1c-6.8-7.2-10.6-16.8-10.6-26.7v-58.2H293.1z"/>
	</g>
</g>
</svg>
