<?xml version="1.0" encoding="utf-8"?>
<!-- Generator: Adobe Illustrator 25.2.1, SVG Export Plug-In . SVG Version: 6.00 Build 0)  -->
<svg version="1.1" id="Layer_1" xmlns="http://www.w3.org/2000/svg" xmlns:xlink="http://www.w3.org/1999/xlink" x="0px" y="0px"
	 viewBox="0 0 720 480" style="enable-background:new 0 0 720 480;" xml:space="preserve">
<g>
	<g>
		<g>
			<path d="M-93.7,1.1"/>
			<path style="fill:#012169;" d="M-0.2,240.6h313.4V1.1H720V480H-0.2"/>
		</g>
		<g transform="translate(7200 2400)">
			<g>
				<path id="b" style="fill:#FCD116;stroke:#000000;stroke-width:54.6133;stroke-miterlimit:3.4133;" d="M-6612.2-2259.2v71.8
					c0,47.9-20.3,99.5-71.2,127.4c-50.9-27.9-71.2-79.5-71.2-127.4v-71.8H-6612.2z"/>
			</g>
			<g>
				<path id="b_1_" style="fill:none;stroke:#FFFFFF;stroke-width:47.7867;stroke-miterlimit:3.4133;" d="M-6612.2-2259.2v71.8
					c0,47.9-20.3,99.5-71.2,127.4c-50.9-27.9-71.2-79.5-71.2-127.4v-71.8H-6612.2z"/>
			</g>
			<g>
				
					<path style="fill:#FCAD56;stroke:#000000;stroke-width:1.8773;stroke-linecap:round;stroke-linejoin:round;stroke-miterlimit:3.4133;" d="
					M-6709.1-2180.1c-1.9,3.7-5,4.5-7.5,3.3c-2.5-1.2-4.8-8.2-7.4-12c-2.5-3.7-3.1-2.1-4.8-4.3c-1.6-2.1-4.2-3.7-8.1-5.9
					c-2.2-1.2-4.5-2.3-6-6.9c0.6-1.9,2.2-3.5,3.5-4.1c1.3-0.5,2.3-2.7,2.5-4.6c0.2-1.8,1.5-3.8,3.4-5.3c-0.8,0.2-2.6-0.2-3.5-0.9
					c-0.8-0.8-2-0.6-2.8,0.1c-0.8,0.6-1.7,0.8-3.1,0.6c0.5-0.5,1.4-1.6,1.5-2.6c0.1-1,1.1-1.5,3.1-1.5c1.9,0,3.1-2.6,4.7-2.6
					c-1.1,0-0.8-2.2-0.3-2.3c-2.7-0.6-2.4-3.2-1.3-3.2c-0.1-0.4-0.4-0.8-1.7-1.3c-1.2-0.5-0.6-1.8,0.3-2.6c-0.8-2-0.1-3.5,1.3-4.8
					c-1.9-0.1,0.2-3.2,0.7-4.9c0.5-1.6,0.8-1.8,1.4-0.8c0.7,0.9,2.2,3,4,3.6c1.7,0.6,2.7,1.7,3.1,3.4c0.3,1.8,1,2.7,2.9,3.5
					c1.9,0.7,4.6,2.6,4.2,6.9c1.5,0.1,2.6,0.6,3.6,1.5"/>
				
					<path style="fill:#FFA1A1;stroke:#000000;stroke-width:1.8773;stroke-linecap:round;stroke-linejoin:round;stroke-miterlimit:3.4133;" d="
					M-6704.5-2234.2c0,2.4,0.9,3.9,2.1,5.1c1.3,1.2,2.4,2.2,2.1,3.7c-0.3,1.6,0.3,2.6,1.4,3.6c1.2,1,2,2.2,1.7,4.2s-0.1,3.2,0.6,4.7
					c0.7,1.5,1.9,2.7,1.4,5.1c-0.5,2.4-0.3,5.6,0.4,7.2c0.6,1.5,0,2.7-1.2,5.4c-1.2,2.6-1.9,3.6-4.3,4.6c-2.5,0.9-2.7,2.7-2.7,5.8
					c0,3.2-1.8,4.8-5.1,4.2c-3.4,3.3-5.5-0.6-6.4-5.5c-0.8-4.9-1-10.2-6-14.5c-4.9-4.4-3-11.8,1.2-14.8c4.2-2.9,3.6-11.5,3.1-16.8
					c-0.4-5.3,2.5-8.3,4.8-11.2C-6708.3-2241.9-6704.5-2236.5-6704.5-2234.2z"/>
				
					<path style="fill:#F1B2DC;stroke:#000000;stroke-width:1.8773;stroke-linecap:round;stroke-linejoin:round;stroke-miterlimit:3.4133;" d="
					M-6711.7-2200.1c-0.9-2.6-1.9-5.2,0.5-10.8c2.5-5.7,0.9-10,0.2-12.9c-0.8-2.8-0.9-5.4,0-6.6c1-1.1,1.4-1.8,1.5-3.7
					c0.1-1.8,1.4-1.2,1.5-0.3c0.2,0.9,0.3,2.4-1,5.1c-1.4,2.8,3.8,9.6,1.4,16.9c-1.6,5.1,0.5,11.6,1.4,16.1s1.4,15.3-4.2,16.9
					C-6706.6-2181.7-6710.1-2196-6711.7-2200.1z"/>
				
					<path style="fill:none;stroke:#000000;stroke-width:1.8773;stroke-linecap:round;stroke-linejoin:round;stroke-miterlimit:3.4133;" d="
					M-6736.8-2200.9c0.9,0.2,1.4-0.4,1.7-1.1c0.3-0.7,0.4-1.1,1.3-1.2c0.8,0,2.2-0.3,2.5-1.1c0.3-0.8,1.3-0.1,2.2-2.1
					c0.8-2.1,1.4-4.5,3.7-5.4 M-6719.1-2229.2c-0.8,0-3.3,0.1-4.3,2.7 M-6730.5-2241.5c2,0.7,1.2,2.3,2.2,3.2c1.9,1.7,0.2,3.5,1.7,4
					c1.5,0.5,1.4,0.8,1.1,2.8c-0.5,2.3,1.4,2.4,0.7,3.9 M-6733.6-2219.8c1.2-1.3,4.2-2.3,4.8-3.7 M-6733.7-2226.7
					c1.8-0.1,4.2,0.7,4.5-0.1 M-6734-2229c0.8,0,2.6-0.7,3-2.1 M-6735.2-2232.2c1,0,2.3-0.1,3.6-1.2 M-6736.6-2236.1
					c0.8-0.7,2.1,0.1,3.4-0.9 M-6735.3-2240.9c0.6,0,1.9-0.2,1.9,0.7"/>
				<g transform="translate(400 -400)">
					<g id="d">
						
							<path style="fill:#9E540A;stroke:#000000;stroke-width:1.8773;stroke-linecap:round;stroke-linejoin:round;stroke-miterlimit:3.4133;" d="
							M-7054.2-1822.6c0,0-5.9-5.9-10.9-9.9c-4.9-4-10.8-8.9-10.8-9.9c0.9-0.8,5.9,3,12.8,7.9c7,5,10.8,9.9,10.8,9.9L-7054.2-1822.6
							z M-7054.6-1818.6c0,0-5.8-4.1-11.4-7c-5.9-2.9-14.8-2.9-15.8-3.9c0-1,10.3-1.6,17.7,1.9c7.5,4.1,11.4,7,11.4,7
							L-7054.6-1818.6z M-7054.7-1811.8c0,0-6.3-3.4-12.4-5c-5.9-1.6-14.4-1-15.4-1.9c0-1,10.5-3,18.4,0c8,2.9,11.4,4.9,11.4,4.9
							L-7054.7-1811.8z M-7055-1804.9c0,0-4.7-3.8-11-4.6c-5.9-0.7-13.8,4.6-14.8,3.6c0-1,6.9-6.9,15.4-5.9c8.4,1,12.4,4.9,12.4,4.9
							L-7055-1804.9z M-7053.1-1826.7c0,0-6-6.5-6-10.9c0-3.9,3.6-9.9,5.3-9.9c-0.8,2-3.6,6-3.6,9.9c0,4,6.4,8.9,6.4,8.9
							L-7053.1-1826.7z"/>
						
							<path style="fill:#9E540A;stroke:#000000;stroke-width:1.8773;stroke-linecap:round;stroke-linejoin:round;stroke-miterlimit:3.4133;" d="
							M-7053.1-1826.7c0,0,1.2-6.5,1.2-10.9c0-5.9-3.6-11.3-3.2-12.8c1.3,1.5,4.8,5.9,4.8,12.8c0,6-0.8,8.9-0.8,8.9L-7053.1-1826.7z
							"/>
						<g>
							<g>
								
									<path id="c" style="fill:#9E540A;stroke:#FCD116;stroke-width:10.24;stroke-linecap:round;stroke-linejoin:round;stroke-miterlimit:3.4133;" d="
									M-7051.6-1828.8c0-1.9-0.6-3.6-1.6-4.9c-1.4-1.9-3.4-2.5-5.5-2.1c-2.5,0.5-4.6,2.3-5.8,5.1c-1.7,3.7-1.9,7.7-1.9,11.6
									c0,13.5,0.4,19,0.8,32.2c0.1,3.9,0.7,11.9-0.8,18.2c-0.6,2.7-1.3,5.2-2.3,7.8c0.7-3.3,1-5,1.4-7.5
									c0.9-6.5,0.7-12.6,0.5-18.6c-0.3-12.3-0.9-18.6-1.3-33.4c-0.1-4.5,0.3-7.9,2-11.5c1.9-3.7,5.1-6.4,8.7-6.4
									c1.5,0,2.8,0.3,4.1,1.2c2.5,1.6,3.7,4.9,3.7,8.2L-7051.6-1828.8z"/>
							</g>
							<path id="c_1_" style="fill:#9E540A;" d="M-7051.6-1828.8c0-1.9-0.6-3.6-1.6-4.9c-1.4-1.9-3.4-2.5-5.5-2.1
								c-2.5,0.5-4.6,2.3-5.8,5.1c-1.7,3.7-1.9,7.7-1.9,11.6c0,13.5,0.4,19,0.8,32.2c0.1,3.9,0.7,11.9-0.8,18.2
								c-0.6,2.7-1.3,5.2-2.3,7.8c0.7-3.3,1-5,1.4-7.5c0.9-6.5,0.7-12.6,0.5-18.6c-0.3-12.3-0.9-18.6-1.3-33.4
								c-0.1-4.5,0.3-7.9,2-11.5c1.9-3.7,5.1-6.4,8.7-6.4c1.5,0,2.8,0.3,4.1,1.2c2.5,1.6,3.7,4.9,3.7,8.2L-7051.6-1828.8z"/>
						</g>
						
							<path style="fill:#9E540A;stroke:#000000;stroke-width:1.8773;stroke-linecap:round;stroke-linejoin:round;stroke-miterlimit:3.4133;" d="
							M-7051.1-1780.7c0,0-2.4,5-4.2,8.6c-1.8,3.6-3.2,4.4-4.6,3.3c-1.3-1.1-0.2-4,0.8-5.4s6.7-7.9,6.7-7.9L-7051.1-1780.7z"/>
						
							<path style="fill:#9E540A;stroke:#000000;stroke-width:1.8773;stroke-linecap:round;stroke-linejoin:round;stroke-miterlimit:3.4133;" d="
							M-7050.5-1780.3c0,0-0.9,5.7-1.7,9.8c-0.7,4.1-1.9,5.5-3.3,5c-1.5-0.4-1.3-3.7-0.7-5.4c0.6-1.7,4.2-10.3,4.2-10.3
							L-7050.5-1780.3z"/>
						
							<path style="fill:#9E540A;stroke:#000000;stroke-width:1.8773;stroke-linecap:round;stroke-linejoin:round;stroke-miterlimit:3.4133;" d="
							M-7049.5-1780.1v10c0,4.2-0.8,5.9-2.5,5.8c-1.5-0.1-1.9-3.3-1.5-5.2c0.3-1.8,2.4-11.1,2.4-11.1L-7049.5-1780.1z"/>
					</g>
					<g transform="scale(-1 1)">
						<g id="d_1_">
							
								<path style="fill:#9E540A;stroke:#000000;stroke-width:1.8773;stroke-linecap:round;stroke-linejoin:round;stroke-miterlimit:3.4133;" d="
								M-7044.9-1822.6c0,0,5.9-5.9,10.8-9.9c4.9-4,10.8-8.9,10.8-9.9c-0.9-0.8-5.9,3-12.8,7.9c-7,5-10.9,9.9-10.9,9.9
								L-7044.9-1822.6z M-7044.4-1818.6c0,0,5.8-4.1,11.4-7c5.9-2.9,14.8-2.9,15.8-3.9c0-1-10.3-1.6-17.7,1.9
								c-7.5,4.1-11.4,7-11.4,7L-7044.4-1818.6z M-7044.4-1811.8c0,0,6.3-3.4,12.4-5c5.9-1.6,14.4-1,15.4-1.9c0-1-10.5-3-18.4,0
								c-8,2.9-11.4,4.9-11.4,4.9L-7044.4-1811.8z M-7044-1804.9c0,0,4.7-3.8,11-4.6c5.9-0.7,13.8,4.6,14.8,3.6
								c0-1-6.9-6.9-15.4-5.9c-8.4,1-12.4,4.9-12.4,4.9L-7044-1804.9z M-7046-1826.7c0,0,6-6.5,6-10.9c0-3.9-3.6-9.9-5.3-9.9
								c0.8,2,3.6,6,3.6,9.9c0,4-6.4,8.9-6.4,8.9L-7046-1826.7z"/>
							
								<path style="fill:#9E540A;stroke:#000000;stroke-width:1.8773;stroke-linecap:round;stroke-linejoin:round;stroke-miterlimit:3.4133;" d="
								M-7046-1826.7c0,0-1.2-6.5-1.2-10.9c0-5.9,3.6-11.3,3.2-12.8c-1.3,1.5-4.8,5.9-4.8,12.8c0,6,0.8,8.9,0.8,8.9L-7046-1826.7z"
								/>
							<g>
								<g>
									
										<path id="c_2_" style="fill:#9E540A;stroke:#FCD116;stroke-width:10.24;stroke-linecap:round;stroke-linejoin:round;stroke-miterlimit:3.4133;" d="
										M-7047.4-1828.8c0-1.9,0.6-3.6,1.6-4.9c1.4-1.9,3.4-2.5,5.5-2.1c2.5,0.5,4.6,2.3,5.8,5.1c1.7,3.7,1.9,7.7,1.9,11.6
										c0,13.5-0.4,19-0.8,32.2c-0.1,3.9-0.7,11.9,0.8,18.2c0.6,2.7,1.3,5.2,2.3,7.8c-0.7-3.3-1-5-1.4-7.5
										c-0.9-6.5-0.7-12.6-0.5-18.6c0.3-12.3,0.9-18.6,1.3-33.4c0.1-4.5-0.3-7.9-2-11.5c-1.9-3.7-5.1-6.4-8.7-6.4
										c-1.5,0-2.8,0.3-4.1,1.2c-2.5,1.6-3.7,4.9-3.7,8.2L-7047.4-1828.8z"/>
								</g>
								<path id="c_3_" style="fill:#9E540A;" d="M-7047.4-1828.8c0-1.9,0.6-3.6,1.6-4.9c1.4-1.9,3.4-2.5,5.5-2.1
									c2.5,0.5,4.6,2.3,5.8,5.1c1.7,3.7,1.9,7.7,1.9,11.6c0,13.5-0.4,19-0.8,32.2c-0.1,3.9-0.7,11.9,0.8,18.2
									c0.6,2.7,1.3,5.2,2.3,7.8c-0.7-3.3-1-5-1.4-7.5c-0.9-6.5-0.7-12.6-0.5-18.6c0.3-12.3,0.9-18.6,1.3-33.4
									c0.1-4.5-0.3-7.9-2-11.5c-1.9-3.7-5.1-6.4-8.7-6.4c-1.5,0-2.8,0.3-4.1,1.2c-2.5,1.6-3.7,4.9-3.7,8.2L-7047.4-1828.8z"/>
							</g>
							
								<path style="fill:#9E540A;stroke:#000000;stroke-width:1.8773;stroke-linecap:round;stroke-linejoin:round;stroke-miterlimit:3.4133;" d="
								M-7047.9-1780.7c0,0,2.4,5,4.2,8.6c1.8,3.6,3.2,4.4,4.6,3.3c1.3-1.1,0.2-4-0.8-5.4s-6.7-7.9-6.7-7.9L-7047.9-1780.7z"/>
							
								<path style="fill:#9E540A;stroke:#000000;stroke-width:1.8773;stroke-linecap:round;stroke-linejoin:round;stroke-miterlimit:3.4133;" d="
								M-7048.5-1780.3c0,0,0.9,5.7,1.7,9.8c0.7,4.1,1.9,5.5,3.3,5c1.5-0.4,1.3-3.7,0.7-5.4s-4.2-10.3-4.2-10.3L-7048.5-1780.3z"/>
							
								<path style="fill:#9E540A;stroke:#000000;stroke-width:1.8773;stroke-linecap:round;stroke-linejoin:round;stroke-miterlimit:3.4133;" d="
								M-7049.5-1780.1v10c0,4.2,0.8,5.9,2.5,5.8c1.5-0.1,1.9-3.3,1.5-5.2c-0.3-1.8-2.4-11.1-2.4-11.1L-7049.5-1780.1z"/>
						</g>
					</g>
					<g id="e">
						
							<path style="fill:#9E540A;stroke:#000000;stroke-width:1.8773;stroke-linecap:round;stroke-linejoin:round;stroke-miterlimit:3.4133;" d="
							M-7049.5-1780.2c-4.5-0.1-4.9-2-4.9-2s-0.6-2.4-0.7-3.9c-0.1-0.2-1.3-3.2-0.9-4.5c-0.4-1.2-1.4-4.1-0.5-4.6
							c-0.4-1.4-1.1-3-1.2-4.5c-0.3-1.1-1.2-3.5-0.5-4.3c0,0-1.6-4-0.8-5c0,0-0.8-3.9,0-4.9c0,0,0-4,0.8-5c0,0,0-3.9,0.8-4.9
							c0,0.2,2.4-5.5,8-5.5l-0.1,8.5h0.1V-1780.2z"/>
						
							<path style="fill:none;stroke:#000000;stroke-width:1.8773;stroke-linecap:round;stroke-linejoin:round;stroke-miterlimit:3.4133;" d="
							M-7049.5-1801.9c-7.2-0.1-8.7-2-8.7-2 M-7049.5-1806.9c-7.2,0-9.6-2-9.6-2 M-7049.5-1811.8c-7.2-0.1-9.6-2-9.6-2
							 M-7049.5-1816.8c-7.2-0.1-8.7-2-8.7-2 M-7049.6-1820.7c0.1,0-5.4,0-6.3-1l-1.6-1.9 M-7049.5-1784.2c-2.1,0-4.5-0.4-5.6-1.9
							 M-7049.5-1788.2c-4,0-6.4-1.9-6.4-1.9s-0.1-0.2-0.2-0.5 M-7049.5-1793.1c-5.3-0.1-6.7-1.4-7-2.1 M-7049.5-1797.1
							c-7.2,0-8-2-8-2l-0.3-0.6"/>
					</g>
					<g transform="scale(-1 1)">
						<g id="e_1_">
							
								<path style="fill:#9E540A;stroke:#000000;stroke-width:1.8773;stroke-linecap:round;stroke-linejoin:round;stroke-miterlimit:3.4133;" d="
								M-7049.5-1780.2c4.5-0.1,4.9-2,4.9-2s0.6-2.4,0.7-3.9c0.1-0.2,1.3-3.2,0.9-4.5c0.4-1.2,1.4-4.1,0.5-4.6
								c0.4-1.4,1.1-3,1.2-4.5c0.3-1.1,1.2-3.5,0.5-4.3c0,0,1.6-4,0.8-5c0,0,0.8-3.9,0-4.9c0,0,0-4-0.8-5c0,0,0-3.9-0.8-4.9
								c0,0.2-2.4-5.5-8-5.5l0.1,8.5h-0.1V-1780.2z"/>
							
								<path style="fill:none;stroke:#000000;stroke-width:1.8773;stroke-linecap:round;stroke-linejoin:round;stroke-miterlimit:3.4133;" d="
								M-7049.5-1801.9c7.2-0.1,8.7-2,8.7-2 M-7049.5-1806.9c7.2,0,9.6-2,9.6-2 M-7049.5-1811.8c7.2-0.1,9.6-2,9.6-2
								 M-7049.5-1816.8c7.2-0.1,8.7-2,8.7-2 M-7049.4-1820.7c-0.1,0,5.4,0,6.3-1l1.6-1.9 M-7049.5-1784.2c2.1,0,4.5-0.4,5.6-1.9
								 M-7049.5-1788.2c4,0,6.4-1.9,6.4-1.9s0.1-0.2,0.2-0.5 M-7049.5-1793.1c5.3-0.1,6.7-1.4,7-2.1 M-7049.5-1797.1c7.2,0,8-2,8-2
								l0.3-0.6"/>
						</g>
					</g>
				</g>
				<g id="f">
					
						<path style="fill:#009E49;stroke:#000000;stroke-width:1.8773;stroke-linecap:round;stroke-linejoin:round;stroke-miterlimit:3.4133;" d="
						M-6683.4-2088.4c-3.6,4-10.7,1.4-12.9-0.4c-2.3,0.9-8.4-1.9-10-5c-4.4,0.7-5.9-6.7-5.2-8.6c1.2-2.8-0.9-4.6,0.6-6.5
						c2.1-2.4-1.2-4.7,0.8-6.3c2-1.7-0.5-4.5,1.5-6.3c2.1-1.9-1.1-4.5,1.1-5.8c2.2-1.3-0.3-4.7,1.6-6c1.9-1.3-1.1-4.6,1.4-6.1
						c2.5-1.5,0.3-4.1,2.2-5.2c2.1-1.3,0.2-4,2.1-4.9c2.2-1.1,0.6-4,2.5-4.8c1.6-0.7,0.6-2.5,1.6-4.1h12.5"/>
					
						<path style="fill:none;stroke:#000000;stroke-width:1.8773;stroke-linecap:round;stroke-linejoin:round;stroke-miterlimit:3.4133;" d="
						M-6691.8-2157.6c-1.7,2,0.3,3.5-1.4,5.9c-1.8,2.5-0.2,3.8-1.6,6c-1.4,2.2,0.7,3.3-0.9,5.8c-1.6,2.4,0.3,3.9-1.4,5.9
						c-1.7,2.1,0.3,3.9-1.4,6.1c-1.7,2.3,0.3,3.8-1.4,5.8c-1.8,2.1,0.3,4.3-1.4,6.3c-1.7,2.1,0.3,4.7-1.6,7.1
						c-1.9,2.4,0.3,4.3-1.2,6.1c-1.6,1.9-0.2,3.8-1.3,5.1c-1.1,1.3-1.3,3.1-0.8,3.9 M-6688.5-2156.9c-1.5,2.5,0.8,3.6-0.6,5.6
						c-1.4,2.1,0.6,2.8-0.5,5.2c-1.1,2.4,0.8,3-0.6,5.4c-1.4,2.4,0.8,4.3-0.8,6.7c-1.6,2.4,0.8,3.7-0.7,6.1
						c-1.4,2.5,0.7,3.8-0.6,5.6c-1.3,1.9,0.9,3.7-0.7,6c-1.5,2.2,0.7,3.9-0.6,5.9c-1.3,2.1,0.5,4.3-0.6,6c-1.1,1.6,0.8,4.1-0.8,6.3
						c-1.5,2.2,0.3,3.7-0.6,5.2c-0.9,1.5-1.7,3.7-0.8,4.3"/>
				</g>
				<g transform="scale(-1 1)">
					<g id="f_1_">
						
							<path style="fill:#009E49;stroke:#000000;stroke-width:1.8773;stroke-linecap:round;stroke-linejoin:round;stroke-miterlimit:3.4133;" d="
							M-6683.4-2088.4c3.6,4,10.7,1.4,12.9-0.4c2.3,0.9,8.4-1.9,10-5c4.4,0.7,5.9-6.7,5.2-8.6c-1.2-2.8,0.9-4.6-0.6-6.5
							c-2.1-2.4,1.2-4.7-0.8-6.3c-2-1.7,0.5-4.5-1.5-6.3c-2.1-1.9,1.1-4.5-1.1-5.8c-2.2-1.3,0.3-4.7-1.6-6c-1.9-1.3,1.1-4.6-1.4-6.1
							c-2.5-1.5-0.3-4.1-2.2-5.2c-2.1-1.3-0.2-4-2.1-4.9c-2.2-1.1-0.6-4-2.5-4.8c-1.6-0.7-0.6-2.5-1.6-4.1h-12.5"/>
						
							<path style="fill:none;stroke:#000000;stroke-width:1.8773;stroke-linecap:round;stroke-linejoin:round;stroke-miterlimit:3.4133;" d="
							M-6675-2157.6c1.7,2-0.3,3.5,1.4,5.9c1.8,2.5,0.2,3.8,1.6,6c1.4,2.2-0.7,3.3,0.9,5.8c1.6,2.4-0.3,3.9,1.4,5.9
							c1.7,2.1-0.3,3.9,1.4,6.1c1.7,2.3-0.3,3.8,1.4,5.8c1.8,2.1-0.3,4.3,1.4,6.3c1.7,2.1-0.3,4.7,1.6,7.1c1.9,2.4-0.3,4.3,1.2,6.1
							c1.6,1.9,0.2,3.8,1.3,5.1c1.1,1.3,1.3,3.1,0.8,3.9 M-6678.3-2156.9c1.5,2.5-0.8,3.6,0.6,5.6c1.4,2.1-0.6,2.8,0.5,5.2
							c1.1,2.4-0.8,3,0.6,5.4c1.4,2.4-0.8,4.3,0.8,6.7c1.6,2.4-0.8,3.7,0.7,6.1c1.4,2.5-0.7,3.8,0.6,5.6c1.3,1.9-0.9,3.7,0.7,6
							c1.5,2.2-0.7,3.9,0.6,5.9c1.3,2.1-0.5,4.3,0.6,6c1.1,1.6-0.8,4.1,0.8,6.3c1.5,2.2-0.3,3.7,0.6,5.2c0.9,1.5,1.7,3.7,0.8,4.3"/>
					</g>
				</g>
				
					<path style="fill:none;stroke:#009E49;stroke-width:1.8773;stroke-linecap:round;stroke-linejoin:round;stroke-miterlimit:3.4133;" d="
					M-6683.4-2088.4v-69.8"/>
				
					<path style="fill:none;stroke:#000000;stroke-width:1.8773;stroke-linecap:round;stroke-linejoin:round;stroke-miterlimit:3.4133;" d="
					M-6683.4-2154.7c-0.8,3.9,1.1,7.3,0,10.6c-1.1,3.2,0.8,4.5,0.2,7.1c-0.7,2.6,0.8,4.5-0.2,7.3c-0.9,2.8,1.3,5,0,8.7
					c-1.3,3.6,0.8,4.5,0,8.2c-0.9,4.2,1.6,6.4,0,9.4c-1.6,3,1.4,3.7,0.2,7.1c-1.3,3.3,0.8,4.6-0.2,8"/>
				
					<path style="fill:#FCD116;stroke:#000000;stroke-width:1.8773;stroke-linecap:round;stroke-linejoin:round;stroke-miterlimit:3.4133;" d="
					M-6682.2-2142.1c-0.4,1.1,1.3,3.7,0.3,5.7c-1,1.9,0.5,4.9-0.5,7.3c-1,2.4,1.6,5.4,0.6,8.2c-1.1,2.8,0.5,6.3,0,8.9
					c-0.4,2.6,1.1,7.6,0,9.4c-1.1,1.9,1.1,2.4-0.2,7c-1.3,4.6-2.1,0.7-1.4-0.7c1.6-3.1-1.8-4.1-0.2-7.1c1.6-3-0.9-5.2,0-9.4
					c0.8-3.7-1.3-4.6,0-8.2c1.3-3.7-0.9-5.9,0-8.7c0.9-2.8-0.5-4.7,0.2-7.3c0.6-2.6-1.3-3.9-0.2-7.1
					C-6682.6-2147.3-6681.7-2143.2-6682.2-2142.1z M-6689.3-2138.9c-0.6,1.2,1,3.5-0.4,5.8c-1,1.6,0.7,3.5-0.8,5.8
					c-0.9,1.6,0.9,3.6-0.3,5.9c-0.8,1.3,0.6,3.8-0.4,5.7c-1,2,0.5,3.6-1.3,6.2c-1,1.4,0.8,4.9-0.3,6c-1.1,1.1-0.1,5.4-0.8,6
					c-0.7,0.7,0,3.8-1.9,4.5c0.9-1.5-0.9-3,0.6-5.2c1.6-2.2-0.3-4.7,0.8-6.3c1.1-1.7-0.7-3.9,0.6-6c1.3-2-0.9-3.7,0.6-5.9
					c1.6-2.3-0.6-4.1,0.7-6c1.3-1.8-0.8-3.1,0.6-5.6c1.4-2.4-0.9-3.7,0.7-6.1c1.5-2.4-0.7-4.3,0.8-6.7c1.4-2.4-0.5-3,0.6-5.4
					C-6687.6-2145.3-6688.6-2140.1-6689.3-2138.9z M-6693.5-2145.4c-0.8,1.6,0.3,3.5-0.9,5.5c-1.3,2.1,0,4.7-1.3,6.4
					c-1.3,1.6,0.3,4.8-1.3,6.1c-1.6,1.3-0.6,5.2-1.9,6.5c-1.3,1.3,0,5-1.4,6.9s-0.8,5.8-1.6,6.7c-0.8,0.9,1.1,2.8-0.3,4.1
					c-1.4,1.3-1.4,3.9-3.3,5.6c1.1-1.3-0.3-3.2,1.3-5.1c1.5-1.8-0.7-3.7,1.2-6.1c1.9-2.4-0.1-5,1.6-7.1c1.7-2-0.3-4.2,1.4-6.3
					c1.7-2-0.3-3.5,1.4-5.8c1.8-2.2-0.3-4,1.4-6.1c1.8-2-0.2-3.5,1.4-5.9c1.6-2.5-0.5-3.6,0.9-5.8c0.7-1,0.7-1.9,0.7-2.7
					C-6693.1-2151.6-6693.1-2146.2-6693.5-2145.4z"/>
				
					<path style="fill:#CE1126;stroke:#000000;stroke-width:1.8773;stroke-linecap:round;stroke-linejoin:round;stroke-miterlimit:3.4133;" d="
					M-6695.2-2155.9c0-21,2.5-28.2,11.8-28.2c9.3,0,11.8,7.3,11.8,28.2H-6695.2z"/>
				<path style="stroke:#000000;stroke-width:1.8773;stroke-linecap:round;stroke-linejoin:round;stroke-miterlimit:3.4133;" d="
					M-6695.2-2155.9c0-21,2.5-28.2,11.8-28.2c-4.2,0-6.9,3.9-7.5,6.5c-0.8,2.6-0.3,2.4,0.6,1.4c0.9-1,0.5,1.2-0.3,2.4
					c-0.8,1.2-1.5,4.7-0.4,3.6c1.1-1.2,1.9,0.1,0.8,2.1c-1.2,1.9-2.2,6.5-1,4.9c1.2-1.6,1.4,1,0.7,2.3c-0.7,1.3-0.6,2.5,0,1.9
					c0.7-0.6,0.6,2.1,0,3.2H-6695.2z M-6679-2156.3c0-3.1,0.1-10.4-1.4-12.8c-1-1.9-1-3.9,0.2-1.7s1.8,1.1,0.9-1.1
					c-1-2.8-2.4-5.9-2-6.5c0.4-0.7,0.7-0.4,1.5,1.1c0.8,1.5,1-0.7,0.1-2.2c-0.9-1.4-0.8-1.7,1.1-0.7c3.5,1.7,5.2,6.6,5.2,23
					L-6679-2156.3z"/>
				
					<path style="fill:#CE1126;stroke:#000000;stroke-width:1.8773;stroke-linecap:round;stroke-linejoin:round;stroke-miterlimit:3.4133;" d="
					M-6683.4-2153c-3.7,0-7.8-0.7-10.5-2c-3.2-1.5-3.4-2.8-2.3-4.4c0.8-1.2,2.5-0.5,4.2,0.4c1.6,0.8,6.2,1.4,8.6,1.4
					c2.4,0,7-0.6,8.6-1.5c1.7-0.8,3.4-1.5,4.2-0.3c1.1,1.6,0.9,2.9-2.3,4.4C-6675.6-2153.7-6679.7-2153-6683.4-2153z"/>
			</g>
		</g>
	</g>
	<g>
		<g>
			<g>
				<g>
					<defs>
						<rect id="SVGID_1_" x="-0.2" y="0.8" width="313.4" height="239.6"/>
					</defs>
					<clipPath id="SVGID_2_">
						<use xlink:href="#SVGID_1_"  style="overflow:visible;"/>
					</clipPath>
					<g style="clip-path:url(#SVGID_2_);">
						<path style="fill:#012169;" d="M-0.2,0.8v239.6h313.4V0.8H-0.2z"/>
						<g>
							<path d="M-0.2,0.8l313.4,239.6 M313.1,0.8L-0.2,240.4"/>
							<polygon style="fill:#FFFFFF;" points="306.1,261.8 156.5,147.4 6.8,261.8 -7.3,219 121.4,120.6 -7.3,22.2 6.8,-20.6 
								156.5,93.8 306.1,-20.6 320.2,22.2 191.5,120.6 320.2,219 							"/>
						</g>
						<g>
							<g>
								<g>
									<defs>
										<polygon id="SVGID_3_" points="156.5,120.6 313.1,120.6 313.1,240.4 156.5,240.4 -0.2,240.4 -0.2,120.6 -0.2,0.8 
											156.5,0.8 313.1,0.8 										"/>
									</defs>
									<clipPath id="SVGID_4_">
										<use xlink:href="#SVGID_3_"  style="overflow:visible;"/>
									</clipPath>
									<g style="clip-path:url(#SVGID_4_);">
										<path d="M-0.2,0.8l313.4,239.6 M313.1,0.8L-0.2,240.4"/>
										<polygon style="fill:#C8102E;" points="308.5,254.7 156.5,138.5 4.4,254.7 -4.9,226.2 133.1,120.6 -4.9,15 4.4,-13.5 
											156.5,102.7 308.5,-13.5 317.8,15 179.8,120.6 317.8,226.2 										"/>
									</g>
								</g>
							</g>
						</g>
						<g>
							<path d="M156.5,0.8v239.6 M-0.2,120.6h313.4"/>
							<polygon style="fill:#FFFFFF;" points="182.6,240.4 130.3,240.4 130.3,160.5 -0.2,160.5 -0.2,80.7 130.3,80.7 130.3,0.8 
								182.6,0.8 182.6,80.7 313.1,80.7 313.1,160.5 182.6,160.5 							"/>
						</g>
						<g>
							<path d="M156.5,0.8v239.6 M-0.2,120.6h313.4"/>
							<polygon style="fill:#C8102E;" points="172.1,240.4 140.8,240.4 140.8,144.5 -0.2,144.5 -0.2,96.7 140.8,96.7 140.8,0.8 
								172.1,0.8 172.1,96.7 313.1,96.7 313.1,144.5 172.1,144.5 							"/>
						</g>
					</g>
				</g>
			</g>
		</g>
	</g>
</g>
</svg>
