<?xml version="1.0" encoding="utf-8"?>
<!-- Generator: Adobe Illustrator 25.2.1, SVG Export Plug-In . SVG Version: 6.00 Build 0)  -->
<svg version="1.1" id="Layer_1" xmlns="http://www.w3.org/2000/svg" xmlns:xlink="http://www.w3.org/1999/xlink" x="0px" y="0px"
	 viewBox="0 0 720 480" style="enable-background:new 0 0 720 480;" xml:space="preserve">
<g>
	<path style="fill:#006600;" d="M0,0h720v480H0V0z"/>
	<path style="fill:#FFFFFF;" d="M0,0h720v342.9H0V0z"/>
	<path style="fill:#CC0000;" d="M0,0h720v137.1H0V0z"/>
	<g>
		<path style="fill:#CC0000;" d="M0,0"/>
		<path style="fill:#CC0000;" d="M0,0"/>
		<path id="a" style="fill:#CC0000;" d="M0,0"/>
		<g transform="matrix(-1 0 0 1 1400 0)">
			<path id="a_1_" style="fill:#CC0000;" d="M720,0"/>
		</g>
		<path id="b" style="fill:#F8C300;" d="M338.8,302.6c-3.9,11.3-11.7,13.2-18.6,4.1c0,0,2.8-2.6,5.7-3.3c-0.6-3.1,0.6-7.5,2.2-9.8
			c1.7,1.5,4,4.6,4.6,8.1C336.9,301,338.8,302.6,338.8,302.6L338.8,302.6z"/>
		<g transform="rotate(9.37 700 804)">
			<path id="b_1_" style="fill:#F8C300;" d="M369.5,301.3c-5.2,10.3-13.2,10.5-18.9,0c0,0,3-2,6-2c-0.2-3.2,1.5-7.2,3.3-9.2
				c1.5,1.9,3.4,5.4,3.6,9C367.7,299.3,369.5,301.3,369.5,301.3L369.5,301.3z"/>
		</g>
		<g transform="rotate(18.74 700 804)">
			<path id="b_2_" style="fill:#F8C300;" d="M399.9,306.7c-6.4,9-14.3,7.5-18.6-4.1c0,0,3.2-1.3,6.2-0.7c0.2-3.2,2.4-6.8,4.4-8.4
				c1.2,2.2,2.7,6.1,2.4,9.7C398.4,304.4,399.9,306.7,399.9,306.7L399.9,306.7z"/>
		</g>
		<path style="fill:#F8C300;" d="M0,0"/>
		<g>
			<polygon style="fill:#F8C300;" points="363,159.1 360,147 357,159.1 347.4,159.1 355.2,166.7 352.2,178.8 360,171.3 367.8,178.8 
				364.8,166.7 372.6,159.1 			"/>
			<polygon style="fill:#F8C300;" points="327,172 324,159.8 321,172 311.4,172 319.2,179.5 316.2,191.7 324,184.2 331.8,191.7 
				328.8,179.5 336.6,172 			"/>
			<polygon style="fill:#F8C300;" points="300.6,207.1 297.6,195 294.7,207.1 285.1,207.1 292.8,214.7 289.9,226.8 297.6,219.3 
				305.4,226.8 302.4,214.7 310.2,207.1 			"/>
			<polygon style="fill:#F8C300;" points="291,255.1 288,243 285,255.1 275.4,255.1 283.2,262.7 280.2,274.8 288,267.3 295.8,274.8 
				292.8,262.7 300.6,255.1 			"/>
			<polygon style="fill:#F8C300;" points="399,172 396,159.8 393,172 383.4,172 391.2,179.5 388.2,191.7 396,184.2 403.8,191.7 
				400.8,179.5 408.6,172 			"/>
			<polygon style="fill:#F8C300;" points="422.4,219.3 430.1,226.8 427.2,214.7 434.9,207.1 425.3,207.1 422.4,195 419.4,207.1 
				409.8,207.1 417.6,214.7 414.6,226.8 			"/>
			<polygon style="fill:#F8C300;" points="436.8,262.7 444.6,255.1 435,255.1 432,243 429,255.1 419.4,255.1 427.2,262.7 
				424.2,274.8 432,267.3 439.8,274.8 			"/>
		</g>
	</g>
</g>
</svg>
