<?xml version="1.0" encoding="utf-8"?>
<!-- Generator: Adobe Illustrator 25.2.1, SVG Export Plug-In . SVG Version: 6.00 Build 0)  -->
<svg version="1.1" id="Layer_1" xmlns="http://www.w3.org/2000/svg" xmlns:xlink="http://www.w3.org/1999/xlink" x="0px" y="0px"
	 viewBox="0 0 720 480" style="enable-background:new 0 0 720 480;" xml:space="preserve">
<g>
	<path style="fill:#00843D;" d="M0,1.6h720V480H0V1.6z"/>
	<g>
		<path style="fill:#00843D;" d="M0,1.6"/>
		<g>
			<polygon style="fill:#FFFFFF;" points="307.3,77.7 300.5,82.6 293.7,77.7 296.3,85.6 289.5,90.5 297.9,90.5 300.5,98.4 
				303.1,90.5 311.4,90.5 304.7,85.6 			"/>
			<polygon style="fill:#FFFFFF;" points="307.3,47 300.5,51.9 293.7,47 296.3,55 289.5,59.9 297.9,59.9 300.5,67.8 303.1,59.9 
				311.4,59.9 304.7,55 			"/>
			<polygon style="fill:#FFFFFF;" points="333.4,75.6 341.8,75.6 335,70.7 337.6,62.7 330.8,67.6 324.1,62.7 326.7,70.7 319.9,75.6 
				328.3,75.6 330.8,83.5 			"/>
			<polygon style="fill:#FFFFFF;" points="274.3,100.5 276.9,92.6 270.1,97.5 263.4,92.6 266,100.5 259.2,105.4 267.6,105.4 
				270.1,113.3 272.7,105.4 281.1,105.4 			"/>
			<polygon style="fill:#FFFFFF;" points="304.7,116.2 307.3,108.3 300.5,113.2 293.7,108.3 296.3,116.2 289.5,121.1 297.9,121.1 
				300.5,129 303.1,121.1 311.4,121.1 			"/>
		</g>
	</g>
	<path style="fill:#D22730;" d="M86.4,1.6H216V480H86.4L86.4,1.6z"/>
	<g>
		<defs>
			<rect id="SVGID_1_" y="1.6" width="720" height="478.4"/>
		</defs>
		<clipPath id="SVGID_2_">
			<use xlink:href="#SVGID_1_"  style="overflow:visible;"/>
		</clipPath>
		<g style="clip-path:url(#SVGID_2_);">
			<g id="c">
				<path style="fill:#383739;" d="M86.4-30v4.7l7.3,6.8l-2.5,2.3l5.2,4.8l-2.3,2.1v-3h-4.4v3.6l10,9.4h5.1l0.6-3.3h-2.9l3.2-3
					l8,7.2l-8,7.3l-3.2-3h2.9l-0.6-3.3h-5.1l-10,9.4v3.6h4.4v-3l2.3,2.1l-5.2,4.8l2.5,2.3l-7.3,6.8v4.7l12.3-11.4l-2.5-2.3l5.2-4.8
					L97,10.5l3-2.7l5.7,5.2l12.5-11.4L105.6-9.8L100-4.5l-3-2.7l4.4-4.1l-5.2-4.8l2.5-2.3L86.4-30z M86.4-7.2v17.7l2.9-2.9V4.1h3.1
					l2.5-2.5l-2.5-2.4h-3.1v-3.5L86.4-7.2z M107.4-1L107,1.4l0.4,2.4l2.6-2.4L107.4-1z"/>
				<path style="fill:#FFC72C;" d="M86.4-29.5v3.7l7.8,7.3l-2.5,2.3l5.2,4.8l-3.1,2.9V-12H90v3.1l9.9,9.2h4.6l0.5-2.6h-3.4l4.1-3.8
					l8.5,7.7l-8.5,7.7l-4.1-3.8h3.4l-0.5-2.7h-4.6L90,12.1v3.1h3.8v-3.5l3.1,2.9l-5.2,4.8l2.5,2.3L86.4,29v3.7l11.8-10.9l-2.5-2.3
					l5.2-4.8l-4.4-4.1l3.5-3.2l5.7,5.3l11.9-10.9L105.6-9.3L100-4.1l-3.5-3.2l4.4-4.1l-5.2-4.8l2.5-2.3L86.4-29.5L86.4-29.5z
					 M86.4-6.7V9.9l2.5-2.5V3.7h3.3l2.1-2.1l-2.1-2.1h-3.3v-3.7L86.4-6.7L86.4-6.7z M107.7-0.3l-0.3,1.7l0.3,1.7l1.9-1.7L107.7-0.3z
					"/>
			</g>
		</g>
	</g>
	<g>
		<g id="c_1_">
			<path style="fill:#383739;" d="M86.4,57.1v4.7l7.3,6.8l-2.5,2.3l5.2,4.8l-2.3,2.1v-3h-4.4v3.6l10,9.4h5.1l0.6-3.3h-2.9l3.2-3
				l8,7.2l-8,7.3l-3.2-3h2.9l-0.6-3.3h-5.1l-10,9.4v3.6h4.4v-3l2.3,2.1l-5.2,4.8l2.5,2.3l-7.3,6.8v4.7l12.3-11.4l-2.5-2.3l5.2-4.8
				L97,97.5l3-2.7l5.7,5.2l12.5-11.4l-12.5-11.4l-5.7,5.3l-3-2.7l4.4-4.1l-5.2-4.8l2.5-2.3L86.4,57.1z M86.4,79.9v17.7l2.9-2.9v-3.4
				h3.1l2.5-2.5l-2.5-2.4h-3.1v-3.5L86.4,79.9z M107.4,86.1l-0.4,2.4l0.4,2.4l2.6-2.4L107.4,86.1z"/>
			<path style="fill:#FFC72C;" d="M86.4,57.6v3.7l7.8,7.3l-2.5,2.3l5.2,4.8l-3.1,2.9v-3.5H90v3.1l9.9,9.2h4.6l0.5-2.6h-3.4l4.1-3.8
				l8.5,7.7l-8.5,7.7l-4.1-3.8h3.4l-0.5-2.7h-4.6L90,99.2v3.1h3.8v-3.5l3.1,2.9l-5.2,4.8l2.5,2.3l-7.8,7.2v3.7l11.8-10.9l-2.5-2.3
				l5.2-4.8l-4.4-4.1l3.5-3.2l5.7,5.3l11.9-10.9l-11.9-10.9L100,83l-3.5-3.2l4.4-4.1l-5.2-4.8l2.5-2.3L86.4,57.6L86.4,57.6z
				 M86.4,80.4V97l2.5-2.5v-3.7h3.3l2.1-2.1l-2.1-2.1h-3.3v-3.7L86.4,80.4L86.4,80.4z M107.7,86.8l-0.3,1.7l0.3,1.7l1.9-1.7
				L107.7,86.8z"/>
		</g>
	</g>
	<g>
		<g id="c_2_">
			<path style="fill:#383739;" d="M86.4,147v4.7l7.3,6.8l-2.5,2.3l5.2,4.8l-2.3,2.1v-3h-4.4v3.6l10,9.4h5.1l0.6-3.3h-2.9l3.2-3
				l8,7.2l-8,7.3l-3.2-3h2.9l-0.6-3.3h-5.1l-10,9.4v3.6h4.4v-3l2.3,2.1l-5.2,4.8l2.5,2.3l-7.3,6.8v4.7l12.3-11.4l-2.5-2.3l5.2-4.8
				l-4.4-4.1l3-2.7l5.7,5.2l12.5-11.4l-12.5-11.4l-5.7,5.3l-3-2.7l4.4-4.1l-5.2-4.8l2.5-2.3L86.4,147z M86.4,169.8v17.7l2.9-2.9
				v-3.4h3.1l2.5-2.5l-2.5-2.4h-3.1v-3.5L86.4,169.8z M107.4,176l-0.4,2.4l0.4,2.4l2.6-2.4L107.4,176z"/>
			<path style="fill:#FFC72C;" d="M86.4,147.5v3.7l7.8,7.3l-2.5,2.3l5.2,4.8l-3.1,2.9V165H90v3.1l9.9,9.2h4.6l0.5-2.6h-3.4l4.1-3.8
				l8.5,7.7l-8.5,7.7l-4.1-3.8h3.4l-0.5-2.7h-4.6l-9.9,9.2v3.1h3.8v-3.5l3.1,2.9l-5.2,4.8l2.5,2.3l-7.8,7.2v3.7l11.8-10.9l-2.5-2.3
				l5.2-4.8l-4.4-4.1l3.5-3.2l5.7,5.3l11.9-10.9l-11.9-10.9L100,173l-3.5-3.2l4.4-4.1l-5.2-4.8l2.5-2.3L86.4,147.5L86.4,147.5z
				 M86.4,170.3v16.6l2.5-2.5v-3.7h3.3l2.1-2.1l-2.1-2.1h-3.3v-3.7L86.4,170.3L86.4,170.3z M107.7,176.7l-0.3,1.7l0.3,1.7l1.9-1.7
				L107.7,176.7z"/>
		</g>
	</g>
	<g>
		<g id="c_3_">
			<path style="fill:#383739;" d="M86.4,237v4.7l7.3,6.8l-2.5,2.3l5.2,4.8l-2.3,2.1v-3h-4.4v3.6l10,9.4h5.1l0.6-3.3h-2.9l3.2-3
				l8,7.2l-8,7.3l-3.2-3h2.9l-0.6-3.3h-5.1l-10,9.4v3.6h4.4v-3l2.3,2.1l-5.2,4.8l2.5,2.3l-7.3,6.8v4.7l12.3-11.4l-2.5-2.3l5.2-4.8
				l-4.4-4.1l3-2.7l5.7,5.2l12.5-11.4l-12.5-11.4l-5.7,5.3l-3-2.7l4.4-4.1l-5.2-4.8l2.5-2.3L86.4,237z M86.4,259.7v17.7l2.9-2.9V271
				h3.1l2.5-2.5l-2.5-2.4h-3.1v-3.5L86.4,259.7z M107.4,266l-0.4,2.4l0.4,2.4l2.6-2.4L107.4,266z"/>
			<path style="fill:#FFC72C;" d="M86.4,237.5v3.7l7.8,7.3l-2.5,2.3l5.2,4.8l-3.1,2.9V255H90v3.1l9.9,9.2h4.6l0.5-2.6h-3.4l4.1-3.8
				l8.5,7.7l-8.5,7.7l-4.1-3.8h3.4l-0.5-2.7h-4.6L90,279v3.1h3.8v-3.5l3.1,2.9l-5.2,4.8l2.5,2.3l-7.8,7.2v3.7l11.8-10.9l-2.5-2.3
				l5.2-4.8l-4.4-4.1l3.5-3.2l5.7,5.3l11.9-10.9l-11.9-10.9l-5.7,5.3l-3.5-3.2l4.4-4.1l-5.2-4.8l2.5-2.3L86.4,237.5L86.4,237.5z
				 M86.4,260.2v16.6l2.5-2.5v-3.7h3.3l2.1-2.1l-2.1-2.1h-3.3v-3.7L86.4,260.2L86.4,260.2z M107.7,266.7l-0.3,1.7l0.3,1.7l1.9-1.7
				L107.7,266.7z"/>
		</g>
	</g>
	<g>
		<g id="c_4_">
			<path style="fill:#383739;" d="M86.4,326.9v4.7l7.3,6.8l-2.5,2.3l5.2,4.8l-2.3,2.1v-3h-4.4v3.6l10,9.4h5.1l0.6-3.3h-2.9l3.2-3
				l8,7.2l-8,7.3l-3.2-3h2.9l-0.6-3.3h-5.1l-10,9.4v3.6h4.4v-3l2.3,2.1l-5.2,4.8l2.5,2.3l-7.3,6.8v4.7l12.3-11.4l-2.5-2.3l5.2-4.8
				l-4.4-4.1l3-2.7l5.7,5.2l12.5-11.4l-12.5-11.4l-5.7,5.3l-3-2.7l4.4-4.1l-5.2-4.8l2.5-2.3L86.4,326.9z M86.4,349.7v17.7l2.9-2.9
				V361h3.1l2.5-2.5l-2.5-2.4h-3.1v-3.5L86.4,349.7z M107.4,355.9l-0.4,2.4l0.4,2.4l2.6-2.4L107.4,355.9z"/>
			<path style="fill:#FFC72C;" d="M86.4,327.4v3.7l7.8,7.3l-2.5,2.3l5.2,4.8l-3.1,2.9v-3.5H90v3.1l9.9,9.2h4.6l0.5-2.6h-3.4l4.1-3.8
				l8.5,7.7l-8.5,7.7l-4.1-3.8h3.4l-0.5-2.7h-4.6L90,369v3.1h3.8v-3.5l3.1,2.9l-5.2,4.8l2.5,2.3l-7.8,7.2v3.7l11.8-10.9l-2.5-2.3
				l5.2-4.8l-4.4-4.1l3.5-3.2l5.7,5.3l11.9-10.9l-11.9-10.9l-5.7,5.3l-3.5-3.2l4.4-4.1l-5.2-4.8l2.5-2.3L86.4,327.4L86.4,327.4z
				 M86.4,350.2v16.6l2.5-2.5v-3.7h3.3l2.1-2.1l-2.1-2.1h-3.3v-3.7L86.4,350.2L86.4,350.2z M107.7,356.6l-0.3,1.7l0.3,1.7l1.9-1.7
				L107.7,356.6z"/>
		</g>
	</g>
	<g transform="matrix(-1 0 0 1 377.996 0)">
		<g>
			<g id="c_5_">
				<path style="fill:#383739;" d="M162,57.1v4.7l7.3,6.8l-2.5,2.3l5.2,4.8l-2.3,2.1v-3h-4.4v3.6l10,9.4h5.1l0.6-3.3h-2.9l3.2-3
					l8,7.2l-8,7.3l-3.2-3h2.9l-0.6-3.3h-5.1l-10,9.4v3.6h4.4v-3l2.3,2.1l-5.2,4.8l2.5,2.3l-7.3,6.8v4.7l12.3-11.4l-2.5-2.3l5.2-4.8
					l-4.4-4.1l3-2.7l5.7,5.2l12.5-11.4l-12.5-11.4l-5.7,5.3l-3-2.7l4.4-4.1l-5.2-4.8l2.5-2.3L162,57.1z M162,79.9v17.7l2.9-2.9v-3.4
					h3.1l2.5-2.5l-2.5-2.4h-3.1v-3.5L162,79.9z M183,86.1l-0.4,2.4L183,91l2.6-2.4L183,86.1z"/>
				<path style="fill:#FFC72C;" d="M162,57.6v3.7l7.8,7.3l-2.5,2.3l5.2,4.8l-3.1,2.9v-3.5h-3.8v3.1l9.9,9.2h4.6l0.5-2.6h-3.4
					l4.1-3.8l8.5,7.7l-8.5,7.7l-4.1-3.8h3.4l-0.5-2.7h-4.6l-9.9,9.2v3.1h3.8v-3.5l3.1,2.9l-5.2,4.8l2.5,2.3L162,116v3.7l11.8-10.9
					l-2.5-2.3l5.2-4.8l-4.4-4.1l3.5-3.2l5.7,5.3l11.9-10.9l-11.9-10.9l-5.7,5.3l-3.5-3.2l4.4-4.1l-5.2-4.8l2.5-2.3L162,57.6
					L162,57.6z M162,80.4V97l2.5-2.5v-3.7h3.3l2.1-2.1l-2.1-2.1h-3.3v-3.7L162,80.4L162,80.4z M183.3,86.8l-0.3,1.7l0.3,1.7l1.9-1.7
					L183.3,86.8z"/>
			</g>
		</g>
		<g>
			<g id="c_6_">
				<path style="fill:#383739;" d="M162,147v4.7l7.3,6.8l-2.5,2.3l5.2,4.8l-2.3,2.1v-3h-4.4v3.6l10,9.4h5.1l0.6-3.3h-2.9l3.2-3
					l8,7.2l-8,7.3l-3.2-3h2.9l-0.6-3.3h-5.1l-10,9.4v3.6h4.4v-3l2.3,2.1l-5.2,4.8l2.5,2.3l-7.3,6.8v4.7l12.3-11.4l-2.5-2.3l5.2-4.8
					l-4.4-4.1l3-2.7l5.7,5.2l12.5-11.4l-12.5-11.4l-5.7,5.3l-3-2.7l4.4-4.1l-5.2-4.8l2.5-2.3L162,147z M162,169.8v17.7l2.9-2.9v-3.4
					h3.1l2.5-2.5l-2.5-2.4h-3.1v-3.5L162,169.8z M183,176l-0.4,2.4l0.4,2.4l2.6-2.4L183,176z"/>
				<path style="fill:#FFC72C;" d="M162,147.5v3.7l7.8,7.3l-2.5,2.3l5.2,4.8l-3.1,2.9V165h-3.8v3.1l9.9,9.2h4.6l0.5-2.6h-3.4
					l4.1-3.8l8.5,7.7l-8.5,7.7l-4.1-3.8h3.4l-0.5-2.7h-4.6l-9.9,9.2v3.1h3.8v-3.5l3.1,2.9l-5.2,4.8l2.5,2.3L162,206v3.7l11.8-10.9
					l-2.5-2.3l5.2-4.8l-4.4-4.1l3.5-3.2l5.7,5.3l11.9-10.9l-11.9-10.9l-5.7,5.3l-3.5-3.2l4.4-4.1l-5.2-4.8l2.5-2.3L162,147.5
					L162,147.5z M162,170.3v16.6l2.5-2.5v-3.7h3.3l2.1-2.1l-2.1-2.1h-3.3v-3.7L162,170.3L162,170.3z M183.3,176.7l-0.3,1.7l0.3,1.7
					l1.9-1.7L183.3,176.7z"/>
			</g>
		</g>
		<g>
			<g id="c_7_">
				<path style="fill:#383739;" d="M162,237v4.7l7.3,6.8l-2.5,2.3l5.2,4.8l-2.3,2.1v-3h-4.4v3.6l10,9.4h5.1l0.6-3.3h-2.9l3.2-3
					l8,7.2l-8,7.3l-3.2-3h2.9l-0.6-3.3h-5.1l-10,9.4v3.6h4.4v-3l2.3,2.1l-5.2,4.8l2.5,2.3l-7.3,6.8v4.7l12.3-11.4l-2.5-2.3l5.2-4.8
					l-4.4-4.1l3-2.7l5.7,5.2l12.5-11.4l-12.5-11.4l-5.7,5.3l-3-2.7l4.4-4.1l-5.2-4.8l2.5-2.3L162,237z M162,259.7v17.7l2.9-2.9V271
					h3.1l2.5-2.5l-2.5-2.4h-3.1v-3.5L162,259.7z M183,266l-0.4,2.4l0.4,2.4l2.6-2.4L183,266z"/>
				<path style="fill:#FFC72C;" d="M162,237.5v3.7l7.8,7.3l-2.5,2.3l5.2,4.8l-3.1,2.9V255h-3.8v3.1l9.9,9.2h4.6l0.5-2.6h-3.4
					l4.1-3.8l8.5,7.7l-8.5,7.7l-4.1-3.8h3.4l-0.5-2.7h-4.6l-9.9,9.2v3.1h3.8v-3.5l3.1,2.9l-5.2,4.8l2.5,2.3l-7.8,7.2v3.7l11.8-10.9
					l-2.5-2.3l5.2-4.8l-4.4-4.1l3.5-3.2l5.7,5.3l11.9-10.9l-11.9-10.9l-5.7,5.3l-3.5-3.2l4.4-4.1l-5.2-4.8l2.5-2.3L162,237.5
					L162,237.5z M162,260.2v16.6l2.5-2.5v-3.7h3.3l2.1-2.1l-2.1-2.1h-3.3v-3.7L162,260.2L162,260.2z M183.3,266.7l-0.3,1.7l0.3,1.7
					l1.9-1.7L183.3,266.7z"/>
			</g>
		</g>
		<g>
			<g id="c_8_">
				<path style="fill:#383739;" d="M162,326.9v4.7l7.3,6.8l-2.5,2.3l5.2,4.8l-2.3,2.1v-3h-4.4v3.6l10,9.4h5.1l0.6-3.3h-2.9l3.2-3
					l8,7.2l-8,7.3l-3.2-3h2.9l-0.6-3.3h-5.1l-10,9.4v3.6h4.4v-3l2.3,2.1l-5.2,4.8l2.5,2.3l-7.3,6.8v4.7l12.3-11.4l-2.5-2.3l5.2-4.8
					l-4.4-4.1l3-2.7l5.7,5.2l12.5-11.4l-12.5-11.4l-5.7,5.3l-3-2.7l4.4-4.1l-5.2-4.8l2.5-2.3L162,326.9z M162,349.7v17.7l2.9-2.9
					V361h3.1l2.5-2.5l-2.5-2.4h-3.1v-3.5L162,349.7z M183,355.9l-0.4,2.4l0.4,2.4l2.6-2.4L183,355.9z"/>
				<path style="fill:#FFC72C;" d="M162,327.4v3.7l7.8,7.3l-2.5,2.3l5.2,4.8l-3.1,2.9v-3.5h-3.8v3.1l9.9,9.2h4.6l0.5-2.6h-3.4
					l4.1-3.8l8.5,7.7l-8.5,7.7l-4.1-3.8h3.4l-0.5-2.7h-4.6l-9.9,9.2v3.1h3.8v-3.5l3.1,2.9l-5.2,4.8l2.5,2.3l-7.8,7.2v3.7l11.8-10.9
					l-2.5-2.3l5.2-4.8l-4.4-4.1l3.5-3.2l5.7,5.3l11.9-10.9l-11.9-10.9l-5.7,5.3l-3.5-3.2l4.4-4.1l-5.2-4.8l2.5-2.3L162,327.4
					L162,327.4z M162,350.2v16.6l2.5-2.5v-3.7h3.3l2.1-2.1l-2.1-2.1h-3.3v-3.7L162,350.2L162,350.2z M183.3,356.6l-0.3,1.7l0.3,1.7
					l1.9-1.7L183.3,356.6z"/>
			</g>
		</g>
		<g>
			<polygon style="fill:#FFC72C;stroke:#000000;stroke-width:0.25;stroke-miterlimit:10;" points="183.2,1.6 184.8,1.6 183.4,2.9 
							"/>
			<polygon style="fill:#FFC72C;stroke:#000000;stroke-width:0.25;stroke-miterlimit:10;" points="175.7,7 172.3,10.2 176.7,14.3 
				171.5,19.1 174,21.4 162.2,32.4 162.2,28.7 170,21.4 167.5,19.1 172.7,14.3 169.6,11.4 169.6,14.9 165.8,14.9 165.8,11.8 
				175.7,2.6 180.3,2.6 180.7,5.3 177.3,5.3 181.4,9 189.5,1.6 193,1.6 181.4,12.2 			"/>
			<polygon style="fill:#FFC72C;stroke:#000000;stroke-width:0.25;stroke-miterlimit:10;" points="168,3.4 164.7,3.4 164.7,7.1 
				162.2,9.6 162.2,1.6 169.8,1.6 			"/>
		</g>
	</g>
	<path style="fill:#FFC72C;" d="M0,1.6"/>
	<path style="fill:#383739;" d="M102.6,57.7l-10.4-6.3V36.1l10.4-6.3v-8.1l9.8-5.9h7.8l14.9-8.4h32l14.9,8.4h7.8l9.8,5.9v8.1
		l10.4,6.3v15.3l-10.4,6.3v8.1l-9.8,5.9h-7.8L167.2,80h-32l-14.9-8.4h-7.8l-9.8-5.9V57.7z"/>
	<path style="fill:#00843D;" d="M135.3,7.8l-14.9,8.4h-7.8l-9.6,5.7v8.1l-10.4,6.3v14.9l10.4,6.3v8.1l9.5,5.7h7.8l14.9,8.4h31.9
		l14.9-8.4h7.8l9.6-5.7v-8.1l10.4-6.3V36.3l-10.4-6.3v-8.1l-9.6-5.7H182l-14.9-8.4H135.3z M136.1,10.9h30.1l14.9,8.4h7.8l7.2,4.3
		v8.1l10.4,6.3v11.5l-10.4,6.3v8.1l-7.2,4.3h-7.8l-14.9,8.4h-30.1l-14.9-8.4h-7.8l-7.3-4.3v-8.1l-10.4-6.3V38l10.4-6.3v-8.1l7.3-4.3
		h7.8L136.1,10.9z"/>
	<path style="fill:#FFC72C;" d="M151,43.9V11.2h-14.8l-14.9,8.4h-7.8l-7,4.2v8.1l-10.4,6.3v5.4h55.3v32.7h14.8l14.9-8.4h7.8l7-4.2
		v-8.1l10.4-6.3v-5.4L151,43.9z"/>
	<path style="fill:#FFFFFF;" d="M96.1,43.9v5.4l10.4,6.3v8.1l7,4.2h7.8l14.9,8.4H151V43.5h55.3v-5.4l-10.4-6.3v-8.1l-7-4.2h-7.8
		l-14.9-8.4h-14.8v32.7L96.1,43.9z"/>
	<g id="e">
		<g id="d">
			<path style="fill:#383739;" d="M118.8,22.6l-2.6-2.4l-2.5,1.6l2.6,2.4l-3.3,2h7.2l6.2,5.8l2-2.1l-6-5.7v-3.8L118.8,22.6z"/>
			<path style="fill:#383739;" d="M130.9,21.5l-2.6-2.4l-2.5,1.6l2.6,2.4l-3.3,2h7.2l6.2,5.8l2-2.1l-6-5.7v-3.8L130.9,21.5z
				 M117.9,29.4l-2.6-2.4l-2.5,1.6l2.6,2.4l-3.3,2h7.2l6.2,5.8l2-2.1l-6-5.7v-3.8L117.9,29.4z"/>
			<path style="fill:#383739;" d="M151.2,10.8h-6.5l-3.4,3.3h-6.6l-4.9,2.5l1.1,2.8l4.4-2.3h1.9l6.7,7.7l7.3-4.4L151.2,10.8z"/>
			<path style="fill:#D22730;" d="M116.2,20.6l2.3,2.1l-1.9,1.2l-2.3-2.1L116.2,20.6z M121.9,21v3.4l5.9,5.5l-1.5,1.6l-6-5.7h-6.1
				L121.9,21L121.9,21z M128.3,19.6l2.3,2.1l-1.9,1.2l-2.3-2.1L128.3,19.6z M134,20v3.4l5.9,5.5l-1.5,1.6l-6-5.7h-6.1L134,20L134,20
				z"/>
			<path style="fill:#D22730;" d="M115.3,27.4l2.3,2.1l-1.9,1.2l-2.3-2.1L115.3,27.4z M121,27.8v3.4l5.9,5.5l-1.5,1.6l-6-5.7h-6.1
				C113.3,32.6,121,27.8,121,27.8z M151,11.2h-6.2l-3.4,3.3h-6.7l-4.5,2.3l0.9,2.1l4.1-2.1h2.1l6.6,7.6l7-4.3V11.2z"/>
		</g>
		<g transform="matrix(1 0 0 -1 0 105.623)">
			<g id="d_1_">
				<path style="fill:#383739;" d="M118.8,64.9l-2.6,2.4l-2.5-1.6l2.6-2.4l-3.3-2h7.2l6.2-5.8l2,2.1l-6,5.7V67L118.8,64.9z"/>
				<path style="fill:#383739;" d="M130.9,65.9l-2.6,2.4l-2.5-1.6l2.6-2.4l-3.3-2h7.2l6.2-5.8l2,2.1l-6,5.7v3.8L130.9,65.9z
					 M117.9,58l-2.6,2.4l-2.5-1.6l2.6-2.4l-3.3-2h7.2l6.2-5.8l2,2.1l-6,5.7v3.8L117.9,58z"/>
				<path style="fill:#383739;" d="M151.2,76.6h-6.5l-3.4-3.3h-6.6l-4.9-2.5L131,68l4.4,2.3h1.9l6.7-7.7l7.3,4.4L151.2,76.6z"/>
				<path style="fill:#D22730;" d="M116.2,66.8l2.3-2.1l-1.9-1.2l-2.3,2.1L116.2,66.8z M121.9,66.4v-3.4l5.9-5.5l-1.5-1.6l-6,5.7
					h-6.1L121.9,66.4L121.9,66.4z M128.3,67.9l2.3-2.1l-1.9-1.2l-2.3,2.1L128.3,67.9z M134,67.5v-3.4l5.9-5.5l-1.5-1.6l-6,5.7h-6.1
					L134,67.5L134,67.5z"/>
				<path style="fill:#D22730;" d="M115.3,60l2.3-2.1l-1.9-1.2l-2.3,2.1L115.3,60z M121,59.6v-3.4l5.9-5.5l-1.5-1.6l-6,5.7h-6.1
					C113.3,54.8,121,59.6,121,59.6z M151,76.2h-6.2l-3.4-3.3h-6.7l-4.5-2.3l0.9-2.1l4.1,2.1h2.1l6.6-7.6l7,4.3V76.2z"/>
			</g>
		</g>
		<path style="fill:#383739;" d="M114.4,33.3l-3.1-1.1l-0.1,0.1l-4,2.8v0.7l-6.4,8l6.4,8v0.7l4.1,2.8l3.1-1.1l-1.9-1.2v-2.4l0.7-0.9
			h3.3V37.8h-3.3l-0.7-0.9v-2.4L114.4,33.3z"/>
		<path style="fill:#D22730;" d="M107.6,35.1l3.8-2.6l2.3,0.9l-1.5,1V37l0.9,1.1h3.2v11.2h-3.2l-0.9,1.1v2.7l1.5,1l-2.3,0.9
			l-3.8-2.6v-0.7l-6.3-7.9l6.3-7.9L107.6,35.1z"/>
	</g>
	<g transform="matrix(-1 0 0 1 377.994 0)">
		<g id="e_1_">
			<g id="d_2_">
				<path style="fill:#383739;" d="M183.6,22.6l2.6-2.4l2.5,1.6l-2.6,2.4l3.3,2h-7.2l-6.2,5.8l-2-2.1l6-5.7v-3.8L183.6,22.6z"/>
				<path style="fill:#383739;" d="M171.5,21.5l2.6-2.4l2.5,1.6l-2.6,2.4l3.3,2h-7.2l-6.2,5.8l-2-2.1l6-5.7v-3.8L171.5,21.5z
					 M184.5,29.4l2.6-2.4l2.5,1.6l-2.6,2.4l3.3,2h-7.2l-6.2,5.8l-2-2.1l6-5.7v-3.8L184.5,29.4z"/>
				<path style="fill:#383739;" d="M151.2,10.8h6.5l3.4,3.3h6.6l4.9,2.5l-1.1,2.8l-4.4-2.3h-1.9l-6.7,7.7l-7.3-4.4V10.8z"/>
				<path style="fill:#D22730;" d="M186.2,20.6l-2.3,2.1l1.9,1.2l2.3-2.1L186.2,20.6z M180.5,21v3.4l-5.9,5.5l1.5,1.6l6-5.7h6.1
					L180.5,21L180.5,21z M174.1,19.6l-2.3,2.1l1.9,1.2l2.3-2.1L174.1,19.6z M168.4,20v3.4l-5.9,5.5l1.5,1.6l6-5.7h6.1L168.4,20
					L168.4,20z"/>
				<path style="fill:#D22730;" d="M187.1,27.4l-2.3,2.1l1.9,1.2l2.3-2.1L187.1,27.4z M181.4,27.8v3.4l-5.9,5.5l1.5,1.6l6-5.7h6.1
					C189.1,32.6,181.4,27.8,181.4,27.8z M151.4,11.2h6.2l3.4,3.3h6.7l4.5,2.3l-0.9,2.1l-4.1-2.1H165l-6.6,7.6l-7-4.3V11.2z"/>
			</g>
			<g transform="matrix(1 0 0 -1 0 105.623)">
				<g id="d_3_">
					<path style="fill:#383739;" d="M183.6,64.9l2.6,2.4l2.5-1.6l-2.6-2.4l3.3-2h-7.2l-6.2-5.8l-2,2.1l6,5.7V67L183.6,64.9z"/>
					<path style="fill:#383739;" d="M171.5,65.9l2.6,2.4l2.5-1.6l-2.6-2.4l3.3-2h-7.2l-6.2-5.8l-2,2.1l6,5.7v3.8L171.5,65.9z
						 M184.5,58l2.6,2.4l2.5-1.6l-2.6-2.4l3.3-2h-7.2l-6.2-5.8l-2,2.1l6,5.7v3.8L184.5,58z"/>
					<path style="fill:#383739;" d="M151.2,76.6h6.5l3.4-3.3h6.6l4.9-2.5l-1.1-2.8l-4.4,2.3h-1.9l-6.7-7.7l-7.3,4.4V76.6z"/>
					<path style="fill:#D22730;" d="M186.2,66.8l-2.3-2.1l1.9-1.2l2.3,2.1L186.2,66.8z M180.5,66.4v-3.4l-5.9-5.5l1.5-1.6l6,5.7h6.1
						L180.5,66.4L180.5,66.4z M174.1,67.9l-2.3-2.1l1.9-1.2l2.3,2.1L174.1,67.9z M168.4,67.5v-3.4l-5.9-5.5L164,57l6,5.7h6.1
						L168.4,67.5L168.4,67.5z"/>
					<path style="fill:#D22730;" d="M187.1,60l-2.3-2.1l1.9-1.2l2.3,2.1L187.1,60z M181.4,59.6v-3.4l-5.9-5.5l1.5-1.6l6,5.7h6.1
						C189.1,54.8,181.4,59.6,181.4,59.6z M151.4,76.2h6.2l3.4-3.3h6.7l4.5-2.3l-0.9-2.1l-4.1,2.1H165l-6.6-7.6l-7,4.3V76.2z"/>
				</g>
			</g>
			<path style="fill:#383739;" d="M188,33.3l3.1-1.1l0.1,0.1l4,2.8v0.7l6.4,8l-6.4,8v0.7l-4.1,2.8l-3.1-1.1l1.9-1.2v-2.4l-0.7-0.9
				h-3.3V37.8h3.3l0.7-0.9v-2.4L188,33.3z"/>
			<path style="fill:#D22730;" d="M194.8,35.1l-3.8-2.6l-2.3,0.9l1.5,1V37l-0.9,1.1h-3.2v11.2h3.2l0.9,1.1v2.7l-1.5,1l2.3,0.9
				l3.8-2.6v-0.7l6.3-7.9l-6.3-7.9L194.8,35.1z"/>
		</g>
	</g>
	<path style="fill:#383739;" d="M109,50.5l-1.7-1.5v-0.7l-3.7-4.5l3.7-4.5v-0.7L109,37l3.1,2.5l-1.8,0l2.7,2.7h6.1l4.8-3.7v-9.8h12
		l13.9-8.5v-2.2l-2.1-1.4h-0.7l-2.3,1.5l-0.4,1.2l-1.8-2.5l3.5-2.9h0.6l4-2.9h1.5l4,2.9h0.6l3.5,2.9l-1.8,2.5l-0.4-1.2l-2.3-1.5
		h-0.7l-2.1,1.4v2.2l13.9,8.5h12v9.8l4.8,3.7h6.1l2.7-2.7l-1.8,0l3.1-2.5l1.7,1.5v0.7l3.7,4.5l-3.7,4.5V49l-1.7,1.5l-3.1-2.5l1.8,0
		l-2.7-2.7h-6.1l-4.8,3.7v9.8h-12l-13.9,8.5v2.2l2.1,1.4h0.7l2.3-1.5l0.4-1.2l1.8,2.5l-3.5,2.9h-0.6l-4,2.9h-1.5l-4-2.9h-0.6
		l-3.5-2.9l1.8-2.5l0.4,1.2l2.3,1.5h0.7l2.1-1.4v-2.2l-13.9-8.5h-12V49l-4.8-3.7h-6.1l-2.7,2.7l1.8,0L109,50.5z"/>
	<path style="fill:#FFC72C;" d="M151.4,71.2l1.5,1.2l-1.5,1.2V71.2L151.4,71.2z M146.5,73.3L146.5,73.3l4,2.9h0.5V74l-2.1-1.6
		l2.1-1.6v-4.3l-14.9-9.1h-11v-9.1l-5.7-4.4h-8.6l-2.2,2.4l-2.2-2.4h-2.5l3.5,4.2v0.7l1.4,1.2l2.2-1.7l-1.3,0v-0.4l2.9-3h6.4l5,3.9
		v9.7h11.7l14.1,8.7v2.6l-2.4,1.6h-0.9l-2.5-1.7l-0.2-0.6l-1.2,1.7l3.2,2.7L146.5,73.3L146.5,73.3z M108.8,41.6l1.7,1.9h-3.4
		L108.8,41.6z M151,13.9l-1.5,1.2l1.5,1.2V13.9z M191.9,43.9l1.7,1.9l1.7-1.9L191.9,43.9z M155.8,14.1l-4-2.9h-0.5v2.3l2.1,1.6
		l-2.1,1.6v4.3l14.9,9.1h11v9.1l5.7,4.4h8.6l2.2-2.4l2.2,2.4h2.5l-3.5-4.2v-0.7l-1.4-1.2l-2.2,1.7l1.3,0v0.4l-2.9,3h-6.4l-5-3.9
		v-9.7h-11.7l-14.1-8.7v-2.6l2.4-1.6h0.9l2.5,1.7l0.2,0.6l1.2-1.7l-3.2-2.7L155.8,14.1L155.8,14.1z"/>
	<path style="fill:#FFFFFF;" d="M151,73.5l-1.5-1.2l1.5-1.2V73.5z M110.5,43.9l-1.7,1.9l-1.7-1.9H110.5z M155.9,73.3L155.9,73.3
		l-4,2.9h-0.5V74l2.1-1.6l-2.1-1.6v-4.3l14.9-9.1h11v-9.1l5.7-4.4h8.6l2.2,2.4l2.2-2.4h2.5l-3.5,4.2v0.7l-1.4,1.2l-2.2-1.7l1.3,0
		v-0.4l-2.9-3h-6.4l-5,3.9v9.7h-11.7l-14.1,8.6v2.6l2.4,1.6h0.9l2.5-1.7l0.2-0.6l1.2,1.7l-3.2,2.7L155.9,73.3L155.9,73.3z
		 M193.6,41.6l-1.7,1.9h3.4L193.6,41.6z M146.6,14.1l4-2.9h0.5v2.3l-2.1,1.6l2.1,1.6v4.3L136.2,30h-11v9.1l-5.7,4.4h-8.6l-2.2-2.4
		l-2.2,2.4h-2.5l3.5-4.2v-0.7l1.4-1.2l2.2,1.7l-1.3,0v0.4l2.9,2.9h6.4l5-3.9v-9.7h11.7l14.1-8.7v-2.6l-2.4-1.6h-0.9l-2.5,1.7
		l-0.2,0.6l-1.2-1.7l3.2-2.7L146.6,14.1L146.6,14.1z M151.4,16.2l1.5-1.2l-1.5-1.2V16.2z"/>
	<path style="fill:#00843D;" d="M151,43.9V21.3l-14.8,9h-10.7v9l-5.5,4.3h31.3v22.6l14.8-9h10.7v-9l5.5-4.3L151,43.9z"/>
	<path style="fill:#D22730;" d="M120,43.9l5.5,4.3v9h10.7l14.8,9V43.5l31.3,0l-5.5-4.3v-9h-10.7l-14.8-9v22.6H120z"/>
	<path style="fill:#383739;" d="M135.3,32.8l-2.6-2.4l-2.5,1.6l2.6,2.4l-3.3,2h7.2l6.2,5.8l2-2.1l-6-5.7v-3.8L135.3,32.8z
		 M167.1,54.7l2.6,2.4l2.5-1.6l-2.6-2.4l3.3-2h-7.2l-6.2-5.8l-2,2.1l6,5.7v3.8L167.1,54.7z M135.3,54.7l-2.6,2.4l-2.5-1.6l2.6-2.4
		l-3.3-2h7.2l6.2-5.8l2,2.1l-6,5.7v3.8L135.3,54.7z M167.1,32.8l2.6-2.4l2.5,1.6l-2.6,2.4l3.3,2h-7.2l-6.2,5.8l-2-2.1l6-5.7v-3.8
		L167.1,32.8z"/>
	<path style="fill:#D22730;" d="M169.7,56.6l-2.3-2.1l1.9-1.2l2.3,2.1L169.7,56.6z M163.9,56.2v-3.4l-5.9-5.5l1.5-1.6l6,5.7h6.1
		L163.9,56.2z M132.7,30.8l2.3,2.1l-1.9,1.2l-2.3-2.1L132.7,30.8z M138.5,31.2v3.4l5.9,5.5l-1.5,1.6l-6-5.7h-6.1L138.5,31.2z"/>
	<path style="fill:#00843D;" d="M169.7,30.8l-2.3,2.1l1.9,1.2l2.3-2.1L169.7,30.8z M163.9,31.2v3.4l-5.9,5.5l1.5,1.6l6-5.7h6.1
		L163.9,31.2z M132.7,56.6l2.3-2.1l-1.9-1.2l-2.3,2.1L132.7,56.6z M138.5,56.2v-3.4l5.9-5.5l-1.5-1.6l-6,5.7h-6.1L138.5,56.2
		L138.5,56.2z"/>
	<path style="fill:#383739;" d="M167.1,43.7l-15.9,10.6l-15.9-10.6l15.9-10.6L167.1,43.7z"/>
	<path style="fill:#FFFFFF;" d="M151,33.7l-14.8,9.9h30l-14.8-9.9v20.1l14.8-9.9h-30l14.8,9.9V33.7z"/>
	<path style="fill:#383739;" d="M155.4,47.3v2.9H147v-2.9h-5.5v-7.3h5.5v-2.9h8.5v2.9h5.5v7.3H155.4z"/>
	<path style="fill:#D22730;" d="M147.3,37.5v2.9h-5.5v3.1h9.2v-6H147.3z M151.4,43.5h9.2v-3.1h-5.5v-2.9h-3.7V43.5z M141.8,43.9V47
		h5.5v2.9h3.7v-6H141.8z M151.4,49.9h3.7V47h5.5v-3.1h-9.2L151.4,49.9L151.4,49.9z"/>
	<path style="fill:#383739;" d="M178.3,163.9v-4.6h12.8v-4.6h12.8v-42h-12.8V108h-12.8v-4.6h-12.8v-4.6h-28.6v4.6h-12.8v4.6h-12.8
		v4.6H98.5v42h12.8v4.6h12.8v4.6h12.8v4.6h28.6v-4.6L178.3,163.9z"/>
	<path style="fill:#FFC72C;" d="M137.2,99v4.6h-12.8v4.6h-12.8v4.6H98.9v41.3h12.8v4.6h12.8v4.6h12.8v4.6h27.9v-4.6H178V159h12.8
		v-4.6h12.8V113h-12.8v-4.6H178v-4.6h-12.8V99L137.2,99z M140.6,102.4h21.1v4.6h12.8v4.6h12.8v4.6h12.8v34.6h-12.8v4.6h-12.8v4.6
		h-12.8v4.6h-21.1v-4.6h-12.8v-4.6H115v-4.6h-12.8v-34.6H115v-4.6h12.8v-4.6h12.8L140.6,102.4z"/>
	<path style="fill:#D22730;" d="M128.2,159.9v-4.6h-12.8v-4.6h-12.8v-33.9h12.8v-4.6h12.8v-4.6H141v-4.6h20.5v4.6h12.8v4.6H187v4.6
		h12.8v33.9H187v4.6h-12.8v4.6h-12.8v4.6H141v-4.6H128.2z"/>
	<path style="fill:#383739;" d="M131.1,110.9l-3.3-2.5v4.8l-3.2,2l0-3l-3,2.7l-3-2.7l0,3l-3.5-2.2v4.4l-2.8,2l0-2.7l-3.4,2.4
		l-3.4-2.4l0,2.7l-3.2-2.3v13.5h-3.7v6.1h3.7v13.5l3.2-2.3l0,2.7l3.4-2.4l3.4,2.4l0-2.7l2.8,2v4.4l3.5-2.2l0,3l3-2.7l3,2.7l0-3
		l3.2,2v4.8l3.3-2.5l0,3.3l3.2-2.9l3.2,2.9l0-3.3l3,2.2v5.1l4.4-4v4.7l6.1-3.9l6.1,3.9v-4.7l4.4,4v-5.1l3-2.2l0,3.3l3.2-2.9l3.2,2.9
		l0-3.3l3.3,2.5v-4.8l3.2-2l0,3l3-2.7l3,2.7l0-3l3.5,2.2v-4.4l2.8-2l0,2.7l3.4-2.4l3.4,2.4l0-2.7l3.2,2.3v-13.5h3.7v-6.1h-3.7v-13.5
		l-3.2,2.3l0-2.7l-3.4,2.4l-3.4-2.4l0,2.7l-2.8-2v-4.4l-3.5,2.2l0-3l-3,2.7l-3-2.7l0,3l-3.2-2v-4.8l-3.3,2.5l0-3.3l-3.2,2.9
		l-3.2-2.9l0,3.3l-3-2.2v-5.1l-4.4,4v-4.7l-6.1,3.9l-6.1-3.9v4.7l-4.4-4v5.1l-3,2.2l0-3.3l-3.2,2.9l-3.2-2.9L131.1,110.9z"/>
	<path style="fill:#00843D;" d="M105.8,120.1l0-2.7l3,2.2l0.1-0.1l2.9-2.1l0,2.7l3.2-2.3v31.7l-3.2-2.3l0,2.7l-3-2.2l-3,2.2l0-2.7
		l-3.2,2.3v-13.1h-3.7v-5.4h3.7v-13.1L105.8,120.1z M131.5,108.3l2.9,2.6l2.9-2.6l0,3.3l3.3-2.5v49.2l-3.3-2.5l0,3.3l-2.9-2.6
		l-2.9,2.6l0-3.3l-3.3,2.5V109l3.3,2.5L131.5,108.3z M170.9,108.3l-2.9,2.6l-2.9-2.6l0,3.3l-3.3-2.5v49.2l3.3-2.5l0,3.3l2.9-2.6
		l2.9,2.6l0-3.3l3.3,2.5V109l-3.3,2.5L170.9,108.3z M196.6,120.1l0-2.7l-3,2.2l-0.1-0.1l-2.9-2.1l0,2.7l-3.2-2.3v31.7l3.2-2.3l0,2.7
		l3-2.2l3,2.2l0-2.7l3.2,2.3v-13.1h3.7v-5.4h-3.7v-13.1L196.6,120.1z"/>
	<path style="fill:#FFC72C;" d="M118.9,112.9l2.7,2.4l2.7-2.4l0,2.9l3.5-2.2v40.2l-3.5-2.2l0,2.9l-2.7-2.4l-2.7,2.4l0-2.9l-3.5,2.2
		v-40.2l3.5,2.2L118.9,112.9z M145.4,108.3l-4.4-4V163l4.4-4v4.9l5.8-3.7l5.8,3.7V159l4.4,4v-58.7l-4.4,4v-4.9l-5.8,3.7l-5.8-3.7
		V108.3z M183.5,112.9l-2.7,2.4l-2.7-2.4l0,2.9l-3.5-2.2v40.2l3.5-2.2l0,2.9l2.7-2.4l2.7,2.4l0-2.9l3.5,2.2v-40.2l-3.5,2.2
		L183.5,112.9z"/>
	<g id="g">
		<g id="f">
			<path style="fill:#383739;" d="M107.4,127.9c0.4,0.4,0.9,0.6,1.4,0.6c0.5,0,1-0.2,1.4-0.6c1.2-1.2,1.3-3.4,1.2-5l-1.7,1.7l-1-1.7
				c0,0-0.8,1.4-1,1.7l-1.7-1.7C106.2,124.4,106.2,126.7,107.4,127.9L107.4,127.9z M120.8,124.5l-1-1v-2l-2.3,2.2l4.2,4.2l4.2-4.2
				l-2.4-2.2v2l-1,1v-3.6l1.8-1.6l-2.6-2.3l-2.6,2.3l1.8,1.6V124.5z M133.6,120.4l-1-1v-2l-2.3,2.2l4.2,4.2l4.2-4.2l-2.3-2.2v2l-1,1
				v-3.6l1.8-1.6l-2.6-2.3l-2.6,2.3l1.8,1.6L133.6,120.4z"/>
			<path style="fill:#FFFFFF;" d="M108.8,123.6l0.9,1.5l1.4-1.4c0,1.8-0.4,3.2-1.1,3.9c-0.3,0.3-0.7,0.5-1.1,0.5
				c-0.4,0-0.8-0.2-1.1-0.5c-0.7-0.7-1.1-2.1-1.1-3.9l1.4,1.4L108.8,123.6L108.8,123.6z M134.9,116.7v4.6l1.7-1.7v-1.4l1.5,1.4
				l-3.7,3.7l-3.7-3.7l1.5-1.4v1.4l1.7,1.7v-4.6l-1.6-1.4l2.1-1.8l2.1,1.8L134.9,116.7z"/>
			<path style="fill:#D22730;" d="M122.1,120.7v4.6l1.7-1.7v-1.4l1.5,1.4l-3.7,3.7l-3.7-3.7l1.5-1.4v1.4l1.7,1.7v-4.6l-1.6-1.4
				l2.1-1.8l2.1,1.8L122.1,120.7z"/>
		</g>
		<g transform="matrix(-1 0 0 1 377.996 0)">
			<g id="f_1_">
				<path style="fill:#383739;" d="M195,127.9c-0.4,0.4-0.9,0.6-1.4,0.6c-0.5,0-1-0.2-1.4-0.6c-1.2-1.2-1.3-3.4-1.2-5l1.7,1.7l1-1.7
					c0,0,0.8,1.4,1,1.7l1.7-1.7C196.2,124.4,196.2,126.7,195,127.9L195,127.9z M181.6,124.5l1-1v-2l2.3,2.2l-4.2,4.2l-4.2-4.2
					l2.4-2.2v2l1,1v-3.6l-1.8-1.6l2.6-2.3l2.6,2.3l-1.8,1.6V124.5z M168.8,120.4l1-1v-2l2.3,2.2l-4.2,4.2l-4.2-4.2l2.3-2.2v2l1,1
					v-3.6l-1.8-1.6l2.6-2.3l2.6,2.3l-1.8,1.6L168.8,120.4z"/>
				<path style="fill:#FFFFFF;" d="M193.6,123.6l-0.9,1.5l-1.4-1.4c0,1.8,0.4,3.2,1.1,3.9c0.3,0.3,0.7,0.5,1.1,0.5
					c0.4,0,0.8-0.2,1.1-0.5c0.7-0.7,1.1-2.1,1.1-3.9l-1.4,1.4L193.6,123.6L193.6,123.6z M167.5,116.7v4.6l-1.7-1.7v-1.4l-1.5,1.4
					l3.7,3.7l3.7-3.7l-1.5-1.4v1.4l-1.7,1.7v-4.6l1.6-1.4l-2.1-1.8l-2.1,1.8L167.5,116.7z"/>
				<path style="fill:#D22730;" d="M180.3,120.7v4.6l-1.7-1.7v-1.4l-1.5,1.4l3.7,3.7l3.7-3.7l-1.5-1.4v1.4l-1.7,1.7v-4.6l1.6-1.4
					l-2.1-1.8l-2.1,1.8L180.3,120.7z"/>
			</g>
		</g>
		<path style="fill:#383739;" d="M156.2,122l-1.4-1.9l3.5-3.2l-3.3-2.7v1.9l-1.4,1.2v-3.5l3.1-2.3l-5.6-4.1l-5.6,4.1l3.1,2.3v3.5
			l-1.4-1.2v-1.9l-3.3,2.7l3.5,3.2l-1.4,1.9H156.2z"/>
		<path style="fill:#D22730;" d="M146.8,121.6l1.2-1.6l-3.5-3.2l2.4-2v1.3l2.1,1.8v-4.4l-2.9-2.1l5-3.7l5,3.7l-2.9,2.1v4.4l2.1-1.8
			v-1.3l2.4,2l-3.5,3.2l1.2,1.6H146.8z"/>
		<path style="fill:#383739;" d="M148.6,111.5l2.6,1.9l2.6-1.9l-2.6-1.9l-0.1,0.1L148.6,111.5z"/>
		<path style="fill:#00843D;" d="M151.2,110l2,1.5l-2,1.5l-2-1.5L151.2,110z"/>
	</g>
	<g transform="matrix(1 0 0 -1 0 331.216)">
		<g id="g_1_">
			<g id="f_2_">
				<path style="fill:#383739;" d="M107.4,139.4c0.4-0.4,0.9-0.6,1.4-0.6c0.5,0,1,0.2,1.4,0.6c1.2,1.2,1.3,3.4,1.2,5l-1.7-1.7
					l-1,1.7c0,0-0.8-1.4-1-1.7l-1.7,1.7C106.2,142.9,106.2,140.6,107.4,139.4L107.4,139.4z M120.8,142.8l-1,1v2l-2.3-2.2l4.2-4.2
					l4.2,4.2l-2.4,2.2v-2l-1-1v3.6l1.8,1.6l-2.6,2.3L119,148l1.8-1.6V142.8z M133.6,146.9l-1,1v2l-2.3-2.2l4.2-4.2l4.2,4.2l-2.3,2.2
					v-2l-1-1v3.6l1.8,1.6l-2.6,2.3l-2.6-2.3l1.8-1.6L133.6,146.9z"/>
				<path style="fill:#FFFFFF;" d="M108.8,143.7l0.9-1.5l1.4,1.4c0-1.8-0.4-3.2-1.1-3.9c-0.3-0.3-0.7-0.5-1.1-0.5
					c-0.4,0-0.8,0.2-1.1,0.5c-0.7,0.7-1.1,2.1-1.1,3.9l1.4-1.4L108.8,143.7L108.8,143.7z M134.9,150.6v-4.6l1.7,1.7v1.4l1.5-1.4
					l-3.7-3.7l-3.7,3.7l1.5,1.4v-1.4l1.7-1.7v4.6l-1.6,1.4l2.1,1.8l2.1-1.8L134.9,150.6z"/>
				<path style="fill:#D22730;" d="M122.1,146.6V142l1.7,1.7v1.4l1.5-1.4l-3.7-3.7l-3.7,3.7l1.5,1.4v-1.4l1.7-1.7v4.6l-1.6,1.4
					l2.1,1.8l2.1-1.8L122.1,146.6z"/>
			</g>
			<g transform="matrix(-1 0 0 1 377.996 0)">
				<g id="f_3_">
					<path style="fill:#383739;" d="M195,139.4c-0.4-0.4-0.9-0.6-1.4-0.6c-0.5,0-1,0.2-1.4,0.6c-1.2,1.2-1.3,3.4-1.2,5l1.7-1.7
						l1,1.7c0,0,0.8-1.4,1-1.7l1.7,1.7C196.2,142.9,196.2,140.6,195,139.4L195,139.4z M181.6,142.8l1,1v2l2.3-2.2l-4.2-4.2l-4.2,4.2
						l2.4,2.2v-2l1-1v3.6l-1.8,1.6l2.6,2.3l2.6-2.3l-1.8-1.6V142.8z M168.8,146.9l1,1v2l2.3-2.2l-4.2-4.2l-4.2,4.2l2.3,2.2v-2l1-1
						v3.6l-1.8,1.6l2.6,2.3l2.6-2.3l-1.8-1.6L168.8,146.9z"/>
					<path style="fill:#FFFFFF;" d="M193.6,143.7l-0.9-1.5l-1.4,1.4c0-1.8,0.4-3.2,1.1-3.9c0.3-0.3,0.7-0.5,1.1-0.5
						c0.4,0,0.8,0.2,1.1,0.5c0.7,0.7,1.1,2.1,1.1,3.9l-1.4-1.4L193.6,143.7L193.6,143.7z M167.5,150.6v-4.6l-1.7,1.7v1.4l-1.5-1.4
						l3.7-3.7l3.7,3.7l-1.5,1.4v-1.4l-1.7-1.7v4.6l1.6,1.4l-2.1,1.8l-2.1-1.8L167.5,150.6z"/>
					<path style="fill:#D22730;" d="M180.3,146.6V142l-1.7,1.7v1.4l-1.5-1.4l3.7-3.7l3.7,3.7l-1.5,1.4v-1.4l-1.7-1.7v4.6l1.6,1.4
						l-2.1,1.8l-2.1-1.8L180.3,146.6z"/>
				</g>
			</g>
			<path style="fill:#383739;" d="M156.2,145.3l-1.4,1.9l3.5,3.2l-3.3,2.7v-1.9l-1.4-1.2v3.5l3.1,2.3l-5.6,4.1l-5.6-4.1l3.1-2.3
				v-3.5l-1.4,1.2v1.9l-3.3-2.7l3.5-3.2l-1.4-1.9H156.2z"/>
			<path style="fill:#D22730;" d="M146.8,145.7l1.2,1.6l-3.5,3.2l2.4,2v-1.3l2.1-1.8v4.4l-2.9,2.1l5,3.7l5-3.7l-2.9-2.1v-4.4
				l2.1,1.8v1.3l2.4-2l-3.5-3.2l1.2-1.6H146.8z"/>
			<path style="fill:#383739;" d="M148.6,155.8l2.6-1.9l2.6,1.9l-2.6,1.9l-0.1-0.1L148.6,155.8z"/>
			<path style="fill:#00843D;" d="M151.2,157.3l2-1.5l-2-1.5l-2,1.5L151.2,157.3z"/>
		</g>
	</g>
	<path style="fill:#383739;" d="M196.7,131.7h-5.6v-2.2h-17.2l-12-7.8h-21.4l-12,7.8h-17.2v2.2h-5.6v3.9h5.6v2.2h17.2l12,7.8h21.4
		l12-7.8h17.2v-2.2h5.6V131.7z"/>
	<path style="fill:#D22730;" d="M140.6,122l-12,7.8h-16.9v2.2H106v3.3h5.6v2.2h16.9l12,7.9h21.2l11.9-7.9h17v-2.2h5.6V132h-5.6v-2.2
		h-17l-11.9-7.8H140.6z M140.8,123.1h20.7l11,7.2v1.1h12.2v4.6h-12.2v1.1l-11,7.1h-20.7l-10.9-7.1v-1.1h-12.3v-4.6h12.3v-1.1
		L140.8,123.1z"/>
	<path style="fill:#D22730;" d="M161.4,123.5l10.7,7v1.2h12.3v3.9h-12.3v1.2l-10.7,7H141l-10.7-7v-1.2H118v-3.9h12.3v-1.2l10.7-7
		H161.4z"/>
	<g>
		<path style="fill:#383739;" d="M135.6,137.6l4.6,3.5l3-2.3l-1.8-1.3l-1.3,1l-1.1-0.8l17.5-13.1h-3.5L135.6,137.6z M145.8,142.7
			h3.5l17.5-13.1l-4.6-3.5l-3,2.3l1.8,1.3l1.3-1l1.1,0.8L145.8,142.7z M153.1,142.7h3.5l-17.5-13.1l1.1-0.8l1.3,1l1.8-1.3l-3-2.3
			l-4.6,3.5L153.1,142.7z M163.2,137.6l-1.1,0.8l-1.3-1l-1.8,1.3l3,2.3l4.6-3.5l-17.5-13.1h-3.5L163.2,137.6z M132.1,133.7l3.1,2.1
			l3.1-2.1l-3.1-2.1L132.1,133.7z"/>
		<path style="fill:#383739;" d="M148.1,133.7l3.1,2.1l3.1-2.1l-3.1-2.1L148.1,133.7z M170.3,133.7l-3.1,2.1l-3.1-2.1l3.1-2.1
			L170.3,133.7z"/>
		<path style="fill:#FFC72C;" d="M166.2,137.6l-4.1,3l-2.5-1.9l1.2-0.9l1.3,1l1.7-1.2l-17-12.7h2.4L166.2,137.6z M155.6,142.4h-2.4
			l-17-12.7l4.1-3l2.5,1.9l-1.2,0.9l-1.3-1l-1.7,1.2L155.6,142.4z M149.2,142.4h-2.4l17-12.7l-1.7-1.2l-1.3,1l-1.2-0.9l2.5-1.9
			l4.1,3L149.2,142.4z M153.2,124.9h2.4l-17,12.7l1.7,1.2l1.3-1l1.2,0.9l-2.5,1.9l-4.1-3L153.2,124.9z"/>
		<path style="fill:#00843D;" d="M135.2,132l2.5,1.7l-2.5,1.7l-2.5-1.7L135.2,132z M151.2,132l2.5,1.7l-2.5,1.7l-2.5-1.7L151.2,132z
			 M167.2,132l-2.5,1.7l2.5,1.7l2.5-1.7L167.2,132z"/>
	</g>
	<g>
		<path style="fill:#383739;" d="M96.4,220.2l-1.2,1.7l2.2,1.7l-2.2,1.7l1.2,1.7l2.5,0.3l2.5-1.9l6.1,3.9V226l-3.9-2.4l3.9-2.4v-3.2
			l-6.1,3.9l-2.5-1.9L96.4,220.2z"/>
		<path style="fill:#383739;" d="M96.4,209l-1.2,1.7l2.2,1.7l-2.2,1.7l1.2,1.7L99,216l2.5-1.9l6.1,3.9v-3.2l-3.9-2.4l3.9-2.4v-3.2
			l-6.1,3.9l-2.5-1.9L96.4,209z M96.4,238.2l-1.2-1.7l2.2-1.7l-2.2-1.7l1.2-1.7l2.5-0.3l2.5,1.9l6.1-3.9v3.2l-3.9,2.4l3.9,2.4v3.2
			l-6.1-3.9l-2.5,1.9L96.4,238.2z M206,220.2l1.2,1.7l-2.2,1.7l2.2,1.7L206,227l-2.5,0.3l-2.5-1.9l-6.1,3.9V226l3.9-2.4l-3.9-2.4
			v-3.2l6.1,3.9l2.5-1.9L206,220.2z"/>
		<path style="fill:#383739;" d="M206,209l1.2,1.7l-2.2,1.7l2.2,1.7l-1.2,1.7l-2.5,0.3l-2.5-1.9l-6.1,3.9v-3.2l3.9-2.4l-3.9-2.4
			v-3.2l6.1,3.9l2.5-1.9L206,209z M206,238.2l1.2-1.7l-2.2-1.7l2.2-1.7l-1.2-1.7l-2.5-0.3L201,233l-6.1-3.9v3.2l3.9,2.4l-3.9,2.4
			v3.2l6.1-3.9l2.5,1.9L206,238.2z M181.4,189.6v4.7h3.4v2.1h3.3v-3.8h-3v-3H181.4z M191.4,196.9v4.7h3.4v2.1h3.4v-3.8h-3v-3H191.4z
			 M121,189.6v4.7h-3.4v2.1h-3.3v-3.8h3v-3H121z M181.4,257.6v-4.7h3.4v-2.1h3.3v3.8h-3v3H181.4z M121,257.6v-4.7h-3.4v-2.1h-3.3
			v3.8h3v3H121z M191.4,250.3v-4.7h3.4v-2.1h3.4v3.8h-3v3H191.4z M111,196.9v4.7h-3.4v2.1h-3.4v-3.8h3v-3H111z M111,250.3v-4.7h-3.4
			v-2.1h-3.4v3.8h3v3H111z M163.8,189.5l-2.6-2.5l-2.6,2.4l2.2,2.2l-2.9,2.8h4.3l1.5-1.5l1.5,1.5h4.3l-2.9-2.8l2.2-2.2l-2.6-2.4
			C165.5,187.8,164.7,188.6,163.8,189.5L163.8,189.5z M151.2,189.5l-2.6-2.5l-2.6,2.4l2.2,2.2l-2.9,2.8h4.3l1.5-1.5l1.5,1.5h4.3
			l-2.9-2.8l2.2-2.2l-2.6-2.4C152.9,187.8,152.1,188.6,151.2,189.5L151.2,189.5z M138.6,189.5l2.6-2.5l2.6,2.4l-2.2,2.2l2.9,2.8
			h-4.3l-1.5-1.5l-1.5,1.5h-4.3l2.9-2.8l-2.2-2.2l2.6-2.4C136.9,187.8,137.7,188.6,138.6,189.5L138.6,189.5z M163.8,257.7l-2.6,2.5
			l-2.6-2.4l2.2-2.2l-2.9-2.8h4.3l1.5,1.5l1.5-1.5h4.3l-2.9,2.8l2.2,2.2l-2.6,2.4C165.5,259.4,164.7,258.6,163.8,257.7L163.8,257.7z
			 M151.2,257.7l-2.6,2.5l-2.6-2.4l2.2-2.2l-2.9-2.8h4.3l1.5,1.5l1.5-1.5h4.3l-2.9,2.8l2.2,2.2l-2.6,2.4
			C152.9,259.4,152.1,258.6,151.2,257.7L151.2,257.7z M138.6,257.7l2.6,2.5l2.6-2.4l-2.2-2.2l2.9-2.8h-4.3l-1.5,1.5l-1.5-1.5h-4.3
			l2.9,2.8l-2.2,2.2l2.6,2.4C136.9,259.4,137.7,258.6,138.6,257.7L138.6,257.7z"/>
	</g>
	<path style="fill:#00843D;" d="M107.2,226.2v2.4l-5.8-3.7l-2.5,2l-2.3-0.3l-0.9-1.3l2.3-1.7l-2.3-1.7l0.9-1.3l2.3-0.3l2.5,2
		l5.8-3.7v2.4l-4.2,2.6L107.2,226.2z M107.2,215v2.4l-5.8-3.7l-2.5,2l-2.3-0.3l-0.9-1.3l2.3-1.7l-2.3-1.7l0.9-1.3l2.3-0.3l2.5,2
		l5.8-3.7v2.4l-4.2,2.6L107.2,215z M107.2,232.2v-2.4l-5.8,3.7l-2.5-2l-2.3,0.3l-0.9,1.3l2.3,1.7l-2.3,1.7l0.9,1.3l2.3,0.3l2.5-2
		l5.8,3.7v-2.4l-4.2-2.6L107.2,232.2z M195.2,226.2v2.4l5.8-3.7l2.5,2l2.3-0.3l0.9-1.3l-2.3-1.7l2.3-1.7l-0.9-1.3l-2.3-0.3l-2.5,2
		l-5.8-3.7v2.4l4.2,2.6L195.2,226.2z M195.2,215v2.4l5.8-3.7l2.5,2l2.3-0.3l0.9-1.3l-2.3-1.7l2.3-1.7l-0.9-1.3l-2.3-0.3l-2.5,2
		l-5.8-3.7v2.4l4.2,2.6L195.2,215z M195.2,232.2v-2.4l5.8,3.7l2.5-2l2.3,0.3l0.9,1.3l-2.3,1.7l2.3,1.7l-0.9,1.3l-2.3,0.3l-2.5-2
		l-5.8,3.7v-2.4l4.2-2.6L195.2,232.2z M184.8,189.9v3h3v3.1h-2.7v-2.1h-3.4v-4H184.8z M194.9,197.3v3h3v3.1h-2.7v-2.1h-3.4v-4
		L194.9,197.3z M117.6,189.9v3h-3v3.1h2.7v-2.1h3.4v-4H117.6z M184.8,257.3v-3h3v-3.1h-2.7v2.1h-3.4v4H184.8z M117.6,257.3v-3h-3
		v-3.1h2.7v2.1h3.4v4H117.6z M194.9,249.9v-3h3v-3.1h-2.7v2.1h-3.4v4H194.9z M107.5,197.3v3h-3v3.1h2.7v-2.1h3.4v-4L107.5,197.3z
		 M107.5,249.9v-3h-3v-3.1h2.7v2.1h3.4v4H107.5z M161.2,187.4l2.6,2.5l2.6-2.5l2.1,1.9l-2.2,2.1l2.5,2.4h-3.3l-1.7-1.6l-1.7,1.6
		h-3.3l2.5-2.4l-2.2-2.1L161.2,187.4z M148.6,187.4l2.6,2.5l2.6-2.5l2.1,1.9l-2.2,2.1l2.5,2.4h-3.3l-1.7-1.6l-1.7,1.6h-3.3l2.5-2.4
		l-2.2-2.1L148.6,187.4L148.6,187.4z M141.2,187.4l-2.6,2.5l-2.6-2.5l-2.1,1.9l2.2,2.1l-2.5,2.4h3.3l1.7-1.6l1.7,1.6h3.3l-2.5-2.4
		l2.2-2.1L141.2,187.4z M161.2,259.8l2.6-2.5l2.6,2.5l2.1-1.9l-2.2-2.1l2.5-2.4h-3.3l-1.7,1.6l-1.7-1.6h-3.3l2.5,2.4l-2.2,2.1
		L161.2,259.8z M148.6,259.8l2.6-2.5l2.6,2.5l2.1-1.9l-2.2-2.1l2.5-2.4h-3.3l-1.7,1.6l-1.7-1.6h-3.3l2.5,2.4l-2.2,2.1L148.6,259.8
		L148.6,259.8z M141.2,259.8l-2.6-2.5l-2.6,2.5l-2.1-1.9l2.2-2.1l-2.5-2.4h3.3l1.7,1.6l1.7-1.6h3.3l-2.5,2.4l2.2,2.1L141.2,259.8z"
		/>
	<path style="fill:#383739;" d="M117.3,245.9v7.4h67.9v-7.4h10v-44.7h-10v-7.4h-67.9v7.4h-10v44.7H117.3z"/>
	<path style="fill:#FFC72C;" d="M117.6,194.2v7.3h-10v44h10v7.3h67.2v-7.3h10v-44h-10v-7.3L117.6,194.2L117.6,194.2z M121.9,197.1
		h58.5v7.1l2.4,1.8h9.1v35.3h-9.2l-2.4,1.7v7.1h-58.5V243l-2.4-1.8h-9.2v-35.3h9.1l2.5-1.8L121.9,197.1L121.9,197.1z"/>
	<path style="fill:#D22730;" d="M122.3,197.4v6.5l8.8-6.5H122.3z M171.3,197.4l8.8,6.5v-6.5H171.3z M110.8,206.3v6.1l8.3-6.1H110.8
		L110.8,206.3z M183.3,206.3l8.3,6.1v-6.1H183.3z M191.7,234.8l-8.3,6.2h8.3V234.8z M110.8,234.8v6.1h8.3L110.8,234.8z M122.3,243.3
		v6.5h8.8L122.3,243.3z M180.1,243.3l-8.8,6.5h8.8V243.3z"/>
	<path style="fill:#00843D;" d="M170.7,197.4l21,15.4v21.5l-21,15.4h-39l-20.9-15.4v-21.5l20.9-15.4L170.7,197.4z"/>
	<path style="fill:#383739;" d="M115.7,236.8l-2.4-2.8l2.3-2.6l-2.3-2.6l2.3-2.6l-2.3-2.6l2.3-2.6l-2.3-2.6l2.3-2.6l-2.3-2.6
		l2.4-2.8h70.9l2.4,2.8l-2.3,2.6l2.3,2.6l-2.3,2.6l2.3,2.6l-2.3,2.6l2.3,2.6l-2.3,2.6l2.3,2.6l-2.4,2.8H115.7z M164.5,200.8
		l-2.8-2.4l-2.6,2.3l-2.6-2.3l-2.6,2.3l-2.6-2.3l-2.6,2.3l-2.6-2.3l-2.6,2.3l-2.6-2.3l-2.8,2.4v45.6l2.8,2.4l2.6-2.3l2.6,2.3
		l2.6-2.3l2.6,2.3l2.6-2.3l2.6,2.3l2.6-2.3l2.6,2.3l2.8-2.4V200.8z"/>
	<g>
		<path style="fill:#FFC72C;" d="M158.9,200.9l-2.5-2.1l-2.5,2.1v45.3l2.5,2.1l2.5-2.1V200.9z M148.4,200.9l-2.5-2.1l-2.5,2.1v45.3
			l2.5,2.1l2.5-2.1V200.9z"/>
		<path style="fill:#FFC72C;" d="M115.9,236.5l-2.1-2.4l2.1-2.4h70.6l2.1,2.4l-2.1,2.4H115.9z M186.5,221.1l2.1,2.4l-2.1,2.4h-70.6
			l-2.1-2.4l2.1-2.4H186.5z M186.5,215.6l2.1-2.4l-2.1-2.4h-70.6l-2.1,2.4l2.1,2.4H186.5z"/>
	</g>
	<g>
		<path style="fill:#D22730;" d="M164.1,200.9l-2.5-2.1l-2.5,2.1v45.3l2.5,2.1l2.5-2.1L164.1,200.9z M143.2,200.9l-2.5-2.1l-2.5,2.1
			v45.3l2.5,2.1l2.5-2.1V200.9z"/>
		<path style="fill:#D22730;" d="M115.9,231.3l-2.1-2.4l2.1-2.4h70.6l2.1,2.4l-2.1,2.4H115.9z M115.9,220.8l-2.1-2.4l2.1-2.4h70.6
			l2.1,2.4l-2.1,2.4H115.9z"/>
		<path style="fill:#D22730;" d="M153.7,246.3l-2.5,2.1l-2.5-2.1v-45.3l2.5-2.1l2.5,2.1V246.3z"/>
	</g>
	<path style="fill:#383739;" d="M174.9,201.8h-47.6v3.8h-6.1v36h6.1v3.8h47.8v-3.8h6.1v-36h-6.1v-3.8H174.9z"/>
	<path style="fill:#D22730;" d="M127.7,202.2v3.8h-6.1v35.3h6.1v3.8h5l-10-8.3v-26.2l10-8.3L127.7,202.2L127.7,202.2z M169.7,202.2
		l9.9,8.3v26.2l-9.9,8.3h5v-3.8h6.1v-35.3h-6.1v-3.8H169.7L169.7,202.2z"/>
	<g>
		<path style="fill:#00843D;" d="M133.2,202.2l-10.2,8.5v25.9c0.1,0.1,10.1,8.4,10.2,8.5h36l10.1-8.5v-25.9l-10.1-8.5H133.2z
			 M133.7,203.6h34.9l9.2,7.7v24.5l-9.2,7.7h-34.9l-9.2-7.7v-24.5L133.7,203.6z"/>
		<path style="fill:#00843D;" d="M143,236.3l1.6,0.7l0.3,1.8l-2,1.7l2.9,2.8H143l-2-1.9l-2,1.9h-2.8l2.9-2.8l-2-1.7l0.3-1.8l1.6-0.7
			l2,1.6l0.1-0.1L143,236.3z M153.2,236.3l1.6,0.7l0.3,1.8l-2,1.7l2.9,2.8h-2.7l-2-1.9l-2,1.9h-2.8l2.9-2.8l-2-1.7l0.3-1.8l1.6-0.7
			l2,1.6l0.1-0.1L153.2,236.3z M159.4,236.3l-1.6,0.7l-0.3,1.8l2,1.7l-2.9,2.8h2.7l2-1.9l2,1.9h2.8l-2.9-2.8l2-1.7l-0.3-1.8
			l-1.6-0.7l-2,1.6l-0.1-0.1L159.4,236.3z M143,210.9l1.6-0.7l0.3-1.8l-2-1.7l2.9-2.8H143l-2,1.9l-2-1.9h-2.8l2.9,2.8l-2,1.7
			l0.3,1.8l1.6,0.7l2-1.6l0.1,0.1L143,210.9z M153.2,210.9l1.6-0.7l0.3-1.8l-2-1.7l2.9-2.8h-2.7l-2,1.9l-2-1.9h-2.8l2.9,2.8l-2,1.7
			l0.3,1.8l1.6,0.7l2-1.6l0.1,0.1L153.2,210.9z M159.4,210.9l-1.6-0.7l-0.3-1.8l2-1.7l-2.9-2.8h2.7l2,1.9l2-1.9h2.8l-2.9,2.8l2,1.7
			l-0.3,1.8l-1.6,0.7l-2-1.6l-0.1,0.1L159.4,210.9z M177.5,213.8l-1.6,1.3l1.6,1.3v2.1l-2.4-2l-1.7,1.6l-1.8-0.2l-0.7-1.2l1.6-1.6
			l-1.6-1.6l0.7-1.2c0.2,0,1.7-0.2,1.8-0.2l1.7,1.6l2.4-2V213.8z M177.5,222.3l-1.6,1.3l1.6,1.3v2.1l-2.4-2l-1.7,1.6
			c-0.1,0-1.7-0.2-1.8-0.2l-0.7-1.2l1.6-1.6l-1.6-1.6l0.7-1.2c0.2,0,1.7-0.2,1.8-0.2l1.7,1.6l2.4-2V222.3z M177.5,233.3l-1.6-1.3
			l1.6-1.3v-2.1l-2.4,2l-1.7-1.6l-1.8,0.2l-0.7,1.2l1.6,1.6l-1.6,1.6l0.7,1.2c0.2,0,1.7,0.2,1.8,0.2l1.7-1.6l2.4,2V233.3z
			 M124.9,213.8l1.6,1.3l-1.6,1.3v2.1l2.4-2l1.7,1.6l1.8-0.2l0.7-1.2l-1.6-1.6l1.6-1.6l-0.7-1.2c-0.2,0-1.7-0.2-1.8-0.2l-1.7,1.6
			l-2.4-2V213.8z M124.9,222.3l1.6,1.3l-1.6,1.3v2.1l2.4-2l1.7,1.6c0.1,0,1.7-0.2,1.8-0.2l0.7-1.2l-1.6-1.6l1.6-1.6l-0.7-1.2
			c-0.2,0-1.7-0.2-1.8-0.2l-1.7,1.6l-2.4-2V222.3z M124.9,233.3l1.6-1.3l-1.6-1.3v-2.1l2.4,2l1.7-1.6l1.8,0.2l0.7,1.2l-1.6,1.6
			l1.6,1.6l-0.7,1.2c-0.2,0-1.7,0.2-1.8,0.2l-1.7-1.6l-2.4,2V233.3z"/>
	</g>
	<path style="fill:#D22730;" d="M133.9,203.9c-0.1,0.1-8.5,7.1-8.9,7.4c0.8,0.6,1.5,1.3,2.2,1.9c0.2-0.2,1.7-1.5,1.7-1.5l2.2,0.3
		l0.8,1.6l-1.5,1.5c0.2,0.2,1.5,1.5,1.5,1.5l-0.8,1.6l-2.2,0.3c0,0-1.5-1.3-1.7-1.4l-2.4,2v0.7c0.8,0.7,1.6,1.3,2.4,2
		c0.2-0.2,1.7-1.4,1.7-1.4l2.2,0.3l0.8,1.6l-1.5,1.5c0.2,0.2,1.5,1.5,1.5,1.5l-0.8,1.6l-2.2,0.3c0,0-1.5-1.3-1.7-1.5l-2.4,2v0.7
		l2.4,2c0.2-0.2,1.7-1.5,1.7-1.5l2.2,0.3l0.8,1.6l-1.5,1.5l1.5,1.5l-0.8,1.6l-2.2,0.3c0,0-1.5-1.3-1.7-1.5c-0.8,0.6-1.5,1.2-2.2,1.9
		l8.9,7.4h1.9l2.8-2.7l-1.8-1.6l0.3-2.2l1.9-0.8l1.9,1.5l1.9-1.5l1.9,0.8l0.4,2.2l-1.9,1.6l2.8,2.6l2.8-2.6l-1.9-1.6l0.3-2.2
		l1.9-0.8l1.9,1.5l1.9-1.5l1.9,0.8l0.3,2.2l-1.8,1.6l2.7,2.7l2.8-2.7l-1.8-1.6l0.3-2.2l1.9-0.8l1.9,1.5l1.9-1.5l1.9,0.8l0.3,2.2
		l-1.8,1.6l2.8,2.7h1.9l8.9-7.4c-0.8-0.6-1.5-1.2-2.2-1.9c-0.2,0.2-1.6,1.5-1.6,1.5l-2.2-0.3l-0.9-1.6l1.5-1.5l-1.5-1.5l0.9-1.6
		l2.2-0.3c0,0,1.4,1.3,1.6,1.5l2.4-2v-0.7l-2.4-2c-0.2,0.2-1.6,1.5-1.6,1.5l-2.2-0.3l-0.9-1.6l1.5-1.5l-1.5-1.5l0.9-1.6l2.2-0.3
		c0,0,1.4,1.3,1.6,1.4c0.8-0.7,1.6-1.3,2.4-1.9V219l-2.4-1.9c-0.2,0.2-1.6,1.4-1.6,1.4l-2.2-0.3l-0.9-1.6l1.5-1.5l-1.5-1.5l0.9-1.6
		l2.2-0.3c0,0,1.4,1.3,1.6,1.5c0.8-0.6,1.5-1.2,2.3-1.9l-8.9-7.4h-1.9l-2.8,2.7l1.8,1.6l-0.3,2.2l-1.9,0.8l-1.9-1.5l-1.9,1.5
		l-1.9-0.8l-0.3-2.2l1.8-1.6l-2.7-2.6l-2.8,2.6l1.8,1.6l-0.3,2.2l-1.9,0.8l-1.9-1.5l-1.9,1.5l-1.9-0.8l-0.3-2.2l1.9-1.6l-2.8-2.6
		l-2.8,2.6l1.9,1.6l-0.4,2.2l-1.9,0.8l-1.9-1.5l-1.9,1.5l-1.9-0.8l-0.3-2.2l1.8-1.6l-2.9-2.7L133.9,203.9z M124.9,222.7v1.7l1-0.9
		L124.9,222.7z"/>
	<path style="fill:#FFFFFF;" d="M141,241.8l-1.5,1.4h2.9L141,241.8z M151.2,241.8l-1.4,1.4h2.9L151.2,241.8z M161.4,241.8l-1.5,1.4
		h3L161.4,241.8z M139.5,203.9l1.5,1.4l1.5-1.4H139.5z M149.7,203.9l1.5,1.4l1.5-1.4H149.7z M159.9,203.9l1.5,1.4l1.5-1.4H159.9z
		 M177.5,214.3l-1,0.8l1,0.8V214.3z M177.5,222.7l-1,0.8l1,0.8V222.7z M177.5,231.2l-1,0.8l1,0.8V231.2z M124.9,214.2v1.7l1-0.8
		L124.9,214.2z M124.9,222.7v1.7l1-0.9L124.9,222.7z M124.9,231.2v1.7l1-0.8L124.9,231.2z"/>
	<g>
		<path style="fill:#383739;" d="M159.9,220.8v-3h-3.1v-3.3h-11.3v3.3h-3.1v3h-4.2v5.7h4.2v3h3.1v3.3h11.3v-3.3h3.1v-3h4.2v-5.7
			H159.9z"/>
		<path style="fill:#FFC72C;" d="M151,214.8v3.4l-4.9,2.8v2.5h-7.6v-2.3h4.2v-3h3.1v-3.3H151z M151.4,232.4V229l4.9-2.8v-2.5h7.6
			v2.3h-4.2v3h-3.1v3.3H151.4z"/>
		<path style="fill:#FFFFFF;" d="M156.2,223.4v-2.5l-4.9-2.8v-3.4h5.1v3.3h3.1v3h4.2v2.3L156.2,223.4z M138.6,223.8h7.6v2.5l4.9,2.8
			v3.4h-5.1v-3.3h-3.1v-3h-4.2V223.8z"/>
		<path style="fill:#D22730;" d="M146.5,223.8v2.3l4.5,2.6v-4.9H146.5z"/>
		<path style="fill:#00843D;" d="M151,218.6l-4.5,2.6v2.3h4.5V218.6z"/>
		<path style="fill:#D22730;" d="M155.9,223.4v-2.3l-4.5-2.6v4.9H155.9z"/>
		<path style="fill:#00843D;" d="M151.4,228.6l4.5-2.6v-2.3h-4.5V228.6z"/>
	</g>
	<path style="fill:#D22730;" d="M110.1,283.6v9.3h-8.9v8.5h-9.1v24.1h9.1v8.5h8.9v9.3h32.5l5.7,3.4l-2.7,1.6H134l-1-1.1h10.5l-3-3
		h-15l6.8,7.1h14.1l4.8-2.9l4.8,2.9h14.1l6.8-7.1h-15l-3,3h10.5l-1,1.1h-11.6l-2.7-1.6l5.7-3.4h32.5v-9.3h8.9v-8.5h9.1v-24.1h-9.1
		V293h-8.9v-9.3h-32.5l-5.7-3.4l2.7-1.6h11.6l1,1.1h-10.5l3,3h15l-6.8-7.1H156l-4.8,2.9l-4.8-2.9h-14.1l-6.8,7.1h15l3-3H133l1-1.1
		h11.6l2.7,1.6l-5.7,3.4H110.1z"/>
	<path style="fill:#FFC72C;" d="M159.7,343h32.2v-9.3h8.9v-8.5h9.1v-23.4h-9.1v-8.4h-8.9V284h-32.2l-13.4-8.1h-13.9l-6.1,6.4h14.1
		l2.3-2.3h-10.5l1.6-1.8h11.9l15.2,9.1h27.7v9.3h8.9v8.5h9.1v16.7h-9.1v8.5h-8.9v9.3h-27.7l-15.2,9.1h-11.9l-1.6-1.8h10.5l-2.3-2.3
		h-14.1l6.1,6.4h13.9L159.7,343z M141.5,339.7h-27.7v-9.3h-8.9v-8.5h-9.1v-16.7h9.1v-8.5h8.9v-9.3h27.7l15.2-9.1h11.8l1.6,1.8h-10.4
		l2.3,2.3h14.1l-6.1-6.4h-13.9l-13.4,8.1h-32.2v9.3h-8.9v8.4h-9.1v23.4h9.1v8.5h8.9v9.3h32.2l13.4,8.1H170l6.1-6.4H162l-2.3,2.3
		h10.4l-1.6,1.8h-11.8L141.5,339.7z"/>
	<path style="fill:none;" d="M151.2,281.9l-9.6,5.7h-27.5v9.3h-8.9v8.5h-9.1v16h9.1v8.5h8.9v9.3h27.5l9.6,5.7l9.6-5.7h27.5V330h8.9
		v-8.5h9.1v-16h-9.1V297h-8.9v-9.3h-27.5L151.2,281.9z M151.2,284.3l9,5.4h26v9.3h8.9v8.4h9v12h-9v8.5h-8.9v9.3h-26l-9,5.4l-9-5.4
		h-26V328h-8.9v-8.5h-9.1v-12h9.1V299h8.9v-9.3h26L151.2,284.3z"/>
	<path style="fill:#00843D;" d="M185.9,327.7v9.3h-25.8l-8.9,5.3l-8.9-5.3h-25.8v-9.3h-8.9v-8.5h-9.1v-11.4h9.1v-8.5h8.9V290h25.8
		l8.9-5.3l8.9,5.3h25.8v9.3h8.9v8.5h9.1v11.4h-9.1v8.5L185.9,327.7z"/>
	<g>
		<path style="fill:#383739;" d="M119.9,324.4v9h14.2l-14.2-9.4V324.4z M119.9,302.6v-9h14.2l-14.2,9.4V302.6z M182.5,324.4v9h-14.2
			l14.2-9.4V324.4z M182.5,302.6v-9h-14.2l14.2,9.4V302.6z"/>
		<path style="fill:#D22730;" d="M120.2,324.7l12.7,8.4h-12.7V324.7z M120.2,302.3c0.5-0.3,11.8-7.8,12.7-8.4h-12.7V302.3z
			 M182.2,324.7l-12.7,8.4h12.7V324.7z M182.2,302.3l-12.7-8.4h12.7V302.3z"/>
	</g>
	<g id="h">
		<path style="fill:#383739;" d="M138,311v-4.6h-1.6l-7.6-4.7l-0.1,0.1l-7.5,4.7h-1.6v4.6h-3.6v5h3.6v4.6h1.6l7.6,4.7l7.6-4.7h1.6
			V316h5.4v-5L138,311z"/>
		<path style="fill:#D22730;" d="M128.8,302.1l6.9,4.3h-13.9L128.8,302.1z M135.7,320.6l-6.9,4.3l-6.9-4.3H135.7z M134,311.4v4.3
			h-8.6v-4.3H134z"/>
		<path style="fill:#FFC72C;" d="M137.6,316v4.3H129V316H137.6z M128.6,316v4.3H120V316H128.6z M143,311.4v4.3h-8.6v-4.3H143z
			 M125.1,311.4v4.3h-8.6v-4.3H125.1z M137.6,306.8v4.3H129v-4.3H137.6z M128.6,306.8v4.3H120v-4.3H128.6z"/>
		<path style="fill:#383739;" d="M122.7,312.3v2.4h-3.9v-2.4H122.7z M126.2,307.7v2.4h-3.9v-2.4H126.2z M135.2,307.7v2.4h-3.9v-2.4
			H135.2z M131.7,312.3v2.4h-3.9v-2.4H131.7z M140.7,312.3v2.4h-3.9v-2.4H140.7z M135.2,317v2.4h-3.9V317H135.2z M126.2,317v2.4
			h-3.9V317H126.2z"/>
		<path style="fill:#FFFFFF;" d="M122.3,312.7h-3.2v1.6h3.2V312.7z M125.9,308.1h-3.2v1.6h3.2V308.1z M134.9,308.1h-3.2v1.6h3.2
			V308.1z M131.3,312.7h-3.2v1.6h3.2V312.7z M140.3,312.7h-3.2v1.6h3.2V312.7z M134.9,317.3h-3.2v1.6h3.2V317.3z M125.9,317.3h-3.2
			v1.6h3.2V317.3z"/>
	</g>
	<g transform="matrix(-1 0 0 1 377.995 0)">
		<g id="h_1_">
			<path style="fill:#383739;" d="M164.4,311v-4.6h1.6l7.6-4.7l0.1,0.1l7.5,4.7h1.6v4.6h3.6v5h-3.6v4.6h-1.6l-7.6,4.7l-7.6-4.7h-1.6
				V316H159v-5L164.4,311z"/>
			<path style="fill:#D22730;" d="M173.6,302.1l-6.9,4.3h13.9L173.6,302.1z M166.7,320.6l6.9,4.3l6.9-4.3H166.7z M168.3,311.4v4.3
				h8.6v-4.3H168.3z"/>
			<path style="fill:#FFC72C;" d="M164.8,316v4.3h8.6V316H164.8z M173.8,316v4.3h8.6V316H173.8z M159.4,311.4v4.3h8.6v-4.3H159.4z
				 M177.3,311.4v4.3h8.6v-4.3H177.3z M164.8,306.8v4.3h8.6v-4.3H164.8z M173.8,306.8v4.3h8.6v-4.3H173.8z"/>
			<path style="fill:#383739;" d="M179.7,312.3v2.4h3.9v-2.4H179.7z M176.2,307.7v2.4h3.9v-2.4H176.2z M167.2,307.7v2.4h3.9v-2.4
				H167.2z M170.7,312.3v2.4h3.9v-2.4H170.7z M161.7,312.3v2.4h3.9v-2.4H161.7z M167.2,317v2.4h3.9V317H167.2z M176.2,317v2.4h3.9
				V317H176.2z"/>
			<path style="fill:#FFFFFF;" d="M180.1,312.7h3.2v1.6h-3.2V312.7z M176.5,308.1h3.2v1.6h-3.2V308.1z M167.5,308.1h3.2v1.6h-3.2
				V308.1z M171.1,312.7h3.2v1.6h-3.2V312.7z M162.1,312.7h3.2v1.6h-3.2V312.7z M167.5,317.3h3.2v1.6h-3.2V317.3z M176.5,317.3h3.2
				v1.6h-3.2V317.3z"/>
		</g>
	</g>
	<g id="i">
		<path style="fill:#383739;" d="M160.4,303.3v4.6h-1.6l-7.6,4.7l-0.1-0.1l-7.5-4.7H142v-4.6h-4.5v-5h4.5v-4.6h1.6l7.6-4.7l7.6,4.7
			h1.6v4.6h4.5v5H160.4z"/>
		<path style="fill:#FFC72C;" d="M151.2,312.3l6.9-4.3h-13.9L151.2,312.3z M158.1,293.8l-6.9-4.3l-6.9,4.3H158.1z"/>
		<path style="fill:#D22730;" d="M160,298.4v-4.3h-8.6v4.3H160z M151,298.4v-4.3h-8.6v4.3H151z M164.5,303v-4.3h-8.6v4.3H164.5z
			 M155.5,303v-4.3h-8.6v4.3H155.5z M146.5,303v-4.3h-8.6v4.3H146.5z M160,307.6v-4.3h-8.6v4.3H160z M151,307.6v-4.3h-8.6v4.3H151z"
			/>
		<path style="fill:#383739;" d="M148.6,295v2.4h-3.9V295H148.6z M157.6,295v2.4h-3.9V295H157.6z M144.2,299.7v2.4h-3.9v-2.4H144.2z
			 M153.1,299.7v2.4h-3.9v-2.4H153.1z M162.1,299.7v2.4h-3.9v-2.4H162.1z M148.6,304.3v2.4h-3.9v-2.4H148.6z M157.6,304.3v2.4h-3.9
			v-2.4H157.6z"/>
		<path style="fill:#FFFFFF;" d="M148.3,295.4h-3.2v1.6h3.2V295.4z M157.3,295.4h-3.2v1.6h3.2V295.4z M143.8,300h-3.2v1.6h3.2V300z
			 M152.8,300h-3.2v1.6h3.2V300z M161.8,300h-3.2v1.6h3.2V300z M148.3,304.6h-3.2v1.6h3.2V304.6z M157.3,304.6h-3.2v1.6h3.2V304.6z"
			/>
	</g>
	<g>
		<g id="i_1_">
			<path style="fill:#383739;" d="M160.4,328.7v4.6h-1.6l-7.6,4.7l-0.1-0.1l-7.5-4.7H142v-4.6h-4.5v-5h4.5v-4.6h1.6l7.6-4.7l7.6,4.7
				h1.6v4.6h4.5v5H160.4z"/>
			<path style="fill:#FFC72C;" d="M151.2,337.6l6.9-4.3h-13.9L151.2,337.6z M158.1,319.1l-6.9-4.3l-6.9,4.3H158.1z"/>
			<path style="fill:#D22730;" d="M160,323.7v-4.3h-8.6v4.3H160z M151,323.7v-4.3h-8.6v4.3H151z M164.5,328.3v-4.3h-8.6v4.3H164.5z
				 M155.5,328.3v-4.3h-8.6v4.3H155.5z M146.5,328.3v-4.3h-8.6v4.3H146.5z M160,333v-4.3h-8.6v4.3H160z M151,333v-4.3h-8.6v4.3H151z
				"/>
			<path style="fill:#383739;" d="M148.6,320.4v2.4h-3.9v-2.4H148.6z M157.6,320.4v2.4h-3.9v-2.4H157.6z M144.2,325v2.4h-3.9V325
				H144.2z M153.1,325v2.4h-3.9V325H153.1z M162.1,325v2.4h-3.9V325H162.1z M148.6,329.6v2.4h-3.9v-2.4H148.6z M157.6,329.6v2.4
				h-3.9v-2.4H157.6z"/>
			<path style="fill:#FFFFFF;" d="M148.3,320.8h-3.2v1.6h3.2V320.8z M157.3,320.8h-3.2v1.6h3.2V320.8z M143.8,325.4h-3.2v1.6h3.2
				V325.4z M152.8,325.4h-3.2v1.6h3.2V325.4z M161.8,325.4h-3.2v1.6h3.2V325.4z M148.3,330h-3.2v1.6h3.2V330z M157.3,330h-3.2v1.6
				h3.2V330z"/>
		</g>
	</g>
	<path style="fill:#383739;" d="M102.1,383.8l33.6-18h30.8l33.6,18v29.7l-33.6,18h-30.8l-33.6-18L102.1,383.8z"/>
	<path style="fill:#00843D;" d="M135.9,366.1L102.5,384v29.3l33.4,17.9h30.6l33.4-17.9V384l-33.4-17.9L135.9,366.1z M136.5,368.5
		h29.4l31.6,16.9v26.5l-31.6,16.9h-29.5l-31.6-16.9v-26.5L136.5,368.5z"/>
	<path style="fill:#FFC72C;" d="M151.4,398.5v30h14.5l31.3-16.8v-12.9H151v-30h-14.5l-31.3,16.8v12.9L151.4,398.5z"/>
	<path style="fill:#FFFFFF;" d="M151,398.5v30h-14.5l-31.3-16.8v-12.9h46.2v-30h14.5l31.3,16.8v12.9L151,398.5z"/>
	<path style="fill:#383739;" d="M154,426.8v-8.7l-2.8,1.8l-2.8-1.8v8.7h-8.8l5.9-4.3v-6.2l-9-5.7h-6.3v-24h6.3l9-5.7v-6.2l-5.9-4.3
		h8.8v8.7l2.8-1.8l2.8,1.8v-8.7h8.8l-5.9,4.3v6.2l9,5.7h6.3v24h-6.3l-9,5.7v6.2l5.9,4.3H154z"/>
	<path style="fill:#FFC72C;" d="M154.4,370.9v9l-3-1.9v2.5l13.8,8.7h4.5v9.3h2.2V387h-6.1l-9.2-5.8v-6.5l5.2-3.8L154.4,370.9
		L154.4,370.9z M130.6,398.8v11.5h6l9.3,5.9v6.5l-5.2,3.8h7.4v-9l3,1.9v-2.6l-13.8-8.7h-4.5v-9.3L130.6,398.8L130.6,398.8z"/>
	<path style="fill:#FFFFFF;" d="M140.7,370.9l5.2,3.8v6.5l-9.3,5.8h-6v11.5h2.2v-9.3h4.5l13.8-8.7v-2.6l-3,1.9v-9L140.7,370.9
		L140.7,370.9z M169.7,398.8v9.3h-4.5l-13.8,8.7v2.6l3-1.9v9h7.4l-5.2-3.8v-6.5l9.2-5.9h6.1v-11.5L169.7,398.8L169.7,398.8z"/>
	<path style="fill:#D22730;" d="M133.1,407.8h4.3l13.8,8.8l13.8-8.8h4.3v-18.3H165l-13.8-8.8l-13.8,8.8h-4.3V407.8z"/>
	<path style="fill:#383739;" d="M160.8,403h3v-1.4h-2.2v-2.5h4.8v6.5h-4.6v4.4h-9.4v-6.3h4.1v2.5h-1.6v1.3h4.3V405l-17.6-10.7h-3
		v1.4h2.2v2.5h-4.8v-6.5h4.6v-4.4h9.4v6.3h-4.1v-2.5h1.6v-1.3h-4.3v2.4L160.8,403z M159.2,392.3v-2.4h-4.3v1.3h1.6v2.5h-4.1v-6.3
		h9.4v4.4h4.6v6.5h-4.8v-2.5h2.2v-1.4h-3L143.2,405v2.4h4.3v-1.3h-1.6v-2.5h4.1v6.3h-9.4v-4.4h-4.6v-6.5h4.8v2.5h-2.2v1.4h3
		L159.2,392.3z"/>
	<path style="fill:#FFFFFF;" d="M159.5,404.8v3h-5v-2h1.6V404h-3.4v5.7h8.7v-4.4h4.6v-5.8h-4.1v1.8h2.2v2.1h-3.4l-17.8-10.8v-3h5v2
		h-1.6v1.9h3.4v-5.7H141v4.4h-4.6v5.8h4.1v-1.9h-2.2V394h3.4L159.5,404.8z M160.7,394h3.4v2.1h-2.2v1.9h4.1v-5.8h-4.6v-4.4h-8.7v5.7
		h3.4v-1.9h-1.6v-2h5v3l-17.8,10.8h-3.4v-2.1h2.2v-1.9h-4.1v5.8h4.6v4.4h8.7V404h-3.4v1.9h1.6v1.9h-5v-3L160.7,394z"/>
	<path style="fill:#383739;" d="M190.4,400.2v9.4h-4v-3.3h-4v3.3h-4v-9.4h4v3.3h4v-3.3H190.4z M176.1,412.6v9.4h-4v-3.3h-4v3.3h-4
		v-9.4h4v3.3h4v-3.3L176.1,412.6z M190.4,397.2v-9.4h-4v3.3h-4v-3.3h-4v9.4h4v-3.3h4v3.3H190.4z M112,400.2v9.4h4v-3.3h4v3.3h4v-9.4
		h-4v3.3h-4v-3.3H112z M112,397.2v-9.4h4v3.3h4v-3.3h4v9.4h-4v-3.3h-4v3.3H112z M176.1,384.7v-9.4h-4v3.3h-4v-3.3h-4v9.4h4v-3.3h4
		v3.3L176.1,384.7z M126.3,412.6v9.4h4v-3.3h4v3.3h4v-9.4h-4v3.3h-4v-3.3L126.3,412.6z M126.3,384.7v-9.4h4v3.3h4v-3.3h4v9.4h-4
		v-3.3h-4v3.3L126.3,384.7z M178.5,378.1v7.1h13.3L178.5,378.1z M123.9,419.2v-7.1h-13.3L123.9,419.2z M123.9,378.1v7.1h-13.3
		L123.9,378.1z M178.5,419.2v-7.1h13.3L178.5,419.2z"/>
	<path style="fill:#D22730;" d="M186.8,405.9v3.3h3.3v-8.7h-3.3v3.3H182v-3.3h-3.3v8.7h3.3v-3.3H186.8z M172.4,418.3v3.3h3.3V413
		h-3.3v3.3h-4.7V413h-3.3v8.7h3.3v-3.3H172.4z M186.8,391.4v-3.3h3.3v8.7h-3.3v-3.3H182v3.3h-3.3v-8.7h3.3v3.3H186.8z M115.6,405.9
		v3.3h-3.3v-8.7h3.3v3.3h4.7v-3.3h3.3v8.7h-3.3v-3.3H115.6z M115.6,391.4v-3.3h-3.3v8.7h3.3v-3.3h4.7v3.3h3.3v-8.7h-3.3v3.3H115.6z
		 M172.4,379v-3.3h3.3v8.7h-3.3v-3.3h-4.7v3.3h-3.3v-8.7h3.3v3.3H172.4z M130,418.3v3.3h-3.3V413h3.3v3.3h4.7V413h3.3v8.7h-3.3v-3.3
		H130z M130,379v-3.3h-3.3v8.7h3.3v-3.3h4.7v3.3h3.3v-8.7h-3.3v3.3H130z"/>
	<path style="fill:#FFC72C;" d="M178.9,378.7v6.2h11.6L178.9,378.7z M112,412.4l11.6,6.2v-6.2H112z"/>
	<path style="fill:#FFFFFF;" d="M123.6,378.7l-11.6,6.2h11.6V378.7z M178.9,412.4v6.2l11.6-6.2H178.9z M0,1.6"/>
</g>
</svg>
