<?xml version="1.0" encoding="utf-8"?>
<!-- Generator: Adobe Illustrator 25.2.1, SVG Export Plug-In . SVG Version: 6.00 Build 0)  -->
<svg version="1.1" id="Layer_1" xmlns="http://www.w3.org/2000/svg" xmlns:xlink="http://www.w3.org/1999/xlink" x="0px" y="0px"
	 viewBox="0 0 720 480" style="enable-background:new 0 0 720 480;" xml:space="preserve">
<g>
	<path d="M0,0h720v480H0V0z"/>
	<path style="fill:#FCDC04;" d="M0,80h720v80H0V80z"/>
	<path style="fill:#D90000;" d="M0,160h720v80H0V160z"/>
	<path style="fill:#FCDC04;" d="M0,320h720v80H0V320z"/>
	<path style="fill:#D90000;" d="M0,400h720v80H0V400z"/>
	<circle style="fill:#FFFFFF;" cx="360" cy="240" r="74.8"/>
	<g>
		<path style="fill:#D90000;stroke:#000000;" d="M346.8,182.7l-4.9-8.9c1.9-1.9,5-3.3,10-3.3c0,0.3-0.5,9.8-0.5,9.8L346.8,182.7z"/>
		<path style="fill:#FCDC04;stroke:#000000;" d="M351.5,180.3l0.7-9.9c0,0,10-0.6,15.5,6c0.1-0.1-5.4,7.7-5.4,7.7L351.5,180.3z"/>
		<path style="fill:#D90000;stroke:#000000;" d="M362.5,184l4.9-7.7c3.3,3.5,4.7,6,5.2,9.7c0.1,0.1-7.8,2-7.8,1.9
			C364.8,187.8,362.6,184.1,362.5,184z"/>
		<path style="stroke:#000000;" d="M349.3,310.5c0,0,9.3-10.6,27.3-8.3c-2.7-4.4-11.5-3.9-11.5-3.9s-2.7-20.7-0.6-21.7
			c2.1-1,11.1,0.1,11.1,0.1c1.2,0,3.2-3.2,1.6-5.3c-1.6-2-6.4-9.9-4.4-11.4c2-1.5,12.6,0.9,12.6,0.9l-30-38.5c0,0-3.1-14.5,3.1-21.4
			c7.4-6.1,6.6-12.8,6.4-12.7c-1-6.7-11.2-11.6-18.1-5.4c-4.1,4.9-1.4,8.7-1.4,8.7s-10.7,2.9-11.1,4.8c-0.4,1.9,12.1-0.3,12.1-0.3
			l-1.2,8.6c0,0-24.3,22.1-5.7,41.3c0.2-0.1,0.6-0.9,0.6-0.9s6.6,8.1,13.4,9.9c6.5,6.6,5.9,5.6,5.9,5.6s1.3,10.5,0.1,12.5
			c-1.6-0.5-18.1-1.1-20.6-0.2c-2.2,0.7-10.7,0.3-8.6,14.1c1.6-3.7,3.1-7.1,3.1-7.1s-0.3,5,1.8,6.8c-0.3-5.3,2-8.9,2-8.9
			s0.4,5.8,1.7,6.6c1.3,0.9,1.3-9.4,8.3-8.5c7.1,0.9,12.2,0.6,12.2,0.6s2.4,20,1.6,21.9c-5.1-1.2-17.3,0.5-18,3.6
			c7.1-0.4,10.5,0.4,10.5,0.4S347.5,307.5,349.3,310.5L349.3,310.5z"/>
		<path style="fill:#9CA69C;stroke:#9CA69C;" d="M352.2,201.3c0,0-17.7,19.5-10.1,34.5c0.4-2.1,0.2-3.4,0.5-3.3
			c-0.4-0.3,2.2,1.8,2,1.4c0.1-1.1-0.8-3.4-0.8-3.4l2.4,0.6l-1.4-2.6l3.4,0.4c0,0-1.2-3.2-0.8-3.2c0.4,0,2.8,0.2,2.8,0.2
			C345.1,216.9,349.9,209.3,352.2,201.3L352.2,201.3z M358.3,184.6c0,0,0.9,6.7-2.7,8.7c-0.6,0.4-2.9,1.2-2.6,2.6
			c0.4,1.9,1.4,1.5,2.9,1.2C359.8,196.3,364.2,188.2,358.3,184.6L358.3,184.6z"/>
		<circle style="fill:#FFFFFF;" cx="350.4" cy="190.4" r="1.4"/>
		<path style="fill:#D90000;stroke:#000000;" d="M346.1,196c-0.9,0.8-5.9,5.9-1,7.7c5-1.4,3.7-2.3,4.8-3.4
			C349.8,198,347.3,197.4,346.1,196z"/>
		<path style="fill:#9CA69C;stroke:#9CA69C;" d="M356.8,244.2c-0.3,1.1-1.4,5.2,0.2,8.3c4.3-1.8,6.2-1.3,7.7-0.3
			C361.1,249.4,359.8,248.2,356.8,244.2L356.8,244.2z"/>
		<path style="fill:#FFFFFF;stroke:#FFFFFF;" d="M364.1,263.6l0.3,9.5c0,0,3.3,0.6,4.9,0C370.7,272.5,369.1,266.5,364.1,263.6z"/>
		<path style="fill:#9CA69C;stroke:#000000;" d="M388.2,264.8c0,0-6.1-14.8-21.8-18.6c-15.7-3.7-13.6-20.4-12.3-21.4
			c0.7-1.4,1.2-3.7,5.7-1.5c4.5,2.1,25.3,12.6,28.3,13.1C391,236.8,388.4,265.1,388.2,264.8z"/>
		<path style="fill:#D90000;stroke:#000000;" d="M373.3,246.1c-0.3,0.2,20.9,12.5,14.6,23.1c6-4,4.1-11,4.1-11s4.9,12.9-7.1,19.1
			c1.3,1.1,2.1,0.9,2.1,0.9l-2,2c0,0-0.9,1.5,7.1-2.4c-2.2,1.8-2.4,3.1-2.4,3.1s0.6,1.7,5.9-2.9c-4.3,4.6-5.2,7-5.2,6.9
			c11.5-1,36.5-38.4-7.9-49.4c2.4,2.5,2,2.1,2,2.1L373.3,246.1z"/>
		<path style="fill:#FFFFFF;stroke:#000000;" d="M374.2,242.5c2.9,2,3.9,2.7,4.3,3.7c-2.6-0.6-5-0.4-5-0.4s-5.7-5.4-6.7-5.9
			c-0.8,0-5.2-2.8-5.2-2.8c-2.2-1.1-4.3-8.8,3.9-6.6c8.4,4,9.6,4.3,9.6,4.3c3.3,1,6.7,2.1,10,3.1l5.8,6.5c0,0-10.3-5.1-11.6-5.2
			c2.8,2.3,4.4,5.4,4.4,5.4C380.5,243.8,377.7,243,374.2,242.5L374.2,242.5z"/>
		<path style="stroke:#FFFFFF;" d="M334.1,196.8c0,0,9.9-2.4,11.1-2"/>
	</g>
</g>
</svg>
