<?xml version="1.0" encoding="utf-8"?>
<!-- Generator: Adobe Illustrator 25.2.1, SVG Export Plug-In . SVG Version: 6.00 Build 0)  -->
<svg version="1.1" id="Layer_1" xmlns="http://www.w3.org/2000/svg" xmlns:xlink="http://www.w3.org/1999/xlink" x="0px" y="0px"
	 viewBox="0 0 720 480" style="enable-background:new 0 0 720 480;" xml:space="preserve">
<g>
	<path style="fill:#CE1126;" d="M0,0h720v480H0V0z"/>
	<path style="fill:#002B7F;" d="M0,0h360v240H0V0z"/>
	<g>
		<polygon style="fill:#FFFFFF;" points="172.4,41.3 167.6,60.7 180,48.7 192.4,60.7 187.6,41.3 200,29.4 184.7,29.4 180,10 
			175.3,29.4 160,29.4 		"/>
		<polygon style="fill:#FFFFFF;" points="129.7,89.4 125,70 120.3,89.4 105,89.4 117.4,101.3 112.6,120.7 125,108.7 137.4,120.7 
			132.6,101.3 145,89.4 		"/>
		<polygon style="fill:#FFFFFF;" points="243.4,89.4 255,78.1 240.7,78.1 236.2,60 231.8,78.1 217.5,78.1 229.1,89.4 224.7,107.5 
			236.2,96.3 247.8,107.5 		"/>
		<polygon style="fill:#FFFFFF;" points="210.4,133.7 207.5,121.6 204.6,133.7 195,133.7 202.7,141.2 199.8,153.3 207.5,145.8 
			215.2,153.3 212.3,141.2 220,133.7 		"/>
		<polygon style="fill:#FFFFFF;" points="185.9,190.8 180,166.6 174.1,190.8 155,190.8 170.5,205.8 164.6,230 180,215 195.4,230 
			189.5,205.8 205,190.8 		"/>
	</g>
</g>
</svg>
