<?xml version="1.0" encoding="utf-8"?>
<!-- Generator: Adobe Illustrator 25.2.1, SVG Export Plug-In . SVG Version: 6.00 Build 0)  -->
<svg version="1.1" id="Layer_1" xmlns="http://www.w3.org/2000/svg" xmlns:xlink="http://www.w3.org/1999/xlink" x="0px" y="0px"
	 viewBox="0 0 720 480" style="enable-background:new 0 0 720 480;" xml:space="preserve">
<g>
	<g>
		<g>
			<defs>
				<path id="SVGID_1_" d="M0,0v120h420v120h-60L0,0z M360,0H180v280H0v-40L360,0z"/>
			</defs>
			<clipPath id="SVGID_2_">
				<use xlink:href="#SVGID_1_"  style="overflow:visible;"/>
			</clipPath>
			<path style="clip-path:url(#SVGID_2_);stroke:#C8102E;stroke-width:40;" d="M0,0l360,240 M360,0L0,240"/>
		</g>
	</g>
	<g>
		<polygon style="fill:#012169;" points="40.2,0 180,93.2 319.8,0 		"/>
		<polygon style="fill:#012169;" points="139.8,120 0,26.8 0,213.2 		"/>
		<polygon style="fill:#012169;" points="360,0 368,21.5 220.2,120 368,218.5 352,261.5 180,146.8 8,261.5 0,240 0,480 720,480 
			720,0 		"/>
	</g>
	<path style="stroke:#FFFFFF;stroke-width:100;" d="M180,0v280 M0,120h420"/>
	<path style="stroke:#C8102E;stroke-width:60;" d="M180,0v280 M0,120h420"/>
	<ellipse style="fill:#FFFFFF;" cx="564.2" cy="196.3" rx="1.7" ry="2.2"/>
	<ellipse style="fill:#FFFFFF;" cx="514" cy="196.9" rx="1.7" ry="2.2"/>
	<ellipse style="fill:#FFFFFF;" cx="540.4" cy="250.2" rx="1.7" ry="2.2"/>
	<path style="fill:#012169;" d="M0,240h360V0h120v320H0V240z"/>
	<g>
		<path style="fill:#CCCC33;" d="M468.3,123.2c0,119.1,7.1,161.3,31.6,194c24.4,32.6,33.7,37.8,40.5,42.8
			c7.9-5.8,16.9-12.1,39.1-41.6C601.4,289.1,612,247,612,121.2c-15.9,9.1-23.9,12.1-37.8,12c-10.3,1.3-26.2-7.5-35.8-13.2
			c-6.2,5.3-15.2,11.6-31.5,12.3C488.2,133.3,482.3,129.3,468.3,123.2L468.3,123.2z"/>
		<path style="fill:#FFFFFF;" d="M472.7,130.8c0,36.8-1.6,87,4.2,116.1c5.9,29.2,7.2,33.4,11.6,43.6l102.7-1
			c6.3-14.7,6.7-23.7,11.4-47.1c4.7-23.3,5.9-75.3,6-114.1c-10.3,7-23.9,11.9-37,9.8c-10.5-1-20.3-4.1-31.6-12.2
			c-9.8,7.5-13.2,10.9-29.5,11.8C497.9,138.3,487.7,139.6,472.7,130.8L472.7,130.8z"/>
		<path style="fill:#99CCFF;" d="M488.7,289.6c7.3,19.6,41.8,57,51.9,64.8c11.5-8.9,41.9-45.9,50.4-64.8L488.7,289.6L488.7,289.6z"
			/>
		<path style="fill:#FF9900;" d="M542.5,185.3c3.2,9.7,13.7,20.4,16.5,25.7c-3.6,5.3-4.4,4.7-3.9,14.4c6.3-8.4,6.5-9.3,10.5-8
			c8.9,11.3,1.6,35.6-5.8,40.9c-7.4,5.6-6-0.2-17.1,6.9c5.1,5.5,10.9-0.8,15.7,0.9c2.6,3.9-1.2,11.1,0.8,17.9
			c4.2-0.5,3.7-11.4,4.7-15.4c3.1-14.5,21.7-24.5,22.7-37.8c3.9-2.3,7.9-0.7,12.6,2.7c-2.4-12.4-10.2-12.3-12.4-16.2
			c-5-9.8-9.5-20.9-20.2-23.8c-8.1-2.2-7.5,0.7-12.7-3.9C550.8,186.4,541,180.4,542.5,185.3L542.5,185.3z"/>
		<path style="fill:#FF9900;" d="M516.5,226.5c5.2-8.2,7.8-24.9,10.2-30.6c5.4,1.6,5.3,2.7,11.9-2.4c-8.8-3.2-9.5-2.9-10.5-8.1
			c3.7-15.3,24-18.4,31.2-12.6c7.4,5.7,2.7,6.9,12.8,16c1.5-8.3-5.7-11.9-6.7-18.1c1.5-4.8,8.3-3.8,12.1-9.2
			c-2.3-4.5-9.7,1.1-12.9,1.9c-11.5,3.3-27.2-13-36.9-7.8c-3.5-3.3-4.2-8.5-4-15.4c-7.5,8.5-3.8,17.3-5.5,21.4
			c-4.4,10.2-10.1,20.4-7.1,33.8c2.3,10.2,4,8.2,3.3,16.1C513.4,216.6,513.8,230.6,516.5,226.5L516.5,226.5z"/>
		<path style="fill:#FF9900;" d="M559.1,232.2c-8.2-1.5-20.8,4.4-25.8,4.8c-1.7-6.7-0.9-7.2-7.7-11.7c2.4,11.2,3,11.8,0,15.6
			c-12.2,3.9-24.9-16.6-24.6-27.4c0-10.9,3.2-6.5,4.2-22.2c-6.3,2.7-5.1,12.3-8.7,16.7c-4,0.8-6.8-7.1-12.4-8.3
			c-1.8,4.9,5.8,9.9,7.9,13c8.2,10.8,5.4,36.3,13.8,44.2c-0.4,5.5-3.6,8.9-8.3,12.4c9.6,3.8,13.6-4.8,17.3-5.1
			c9.2-0.4,19,0.4,26.4-9.8c5.7-7.7,3.4-8.5,9.2-11.9C554,240.7,563.2,233.1,559.1,232.2L559.1,232.2z"/>
	</g>
</g>
</svg>
