<?xml version="1.0" encoding="utf-8"?>
<!-- Generator: Adobe Illustrator 25.2.1, SVG Export Plug-In . SVG Version: 6.00 Build 0)  -->
<svg version="1.1" id="Layer_1" xmlns="http://www.w3.org/2000/svg" xmlns:xlink="http://www.w3.org/1999/xlink" x="0px" y="0px"
	 viewBox="0 0 720 480" style="enable-background:new 0 0 720 480;" xml:space="preserve">
<g>
	<g>
		<defs>
			<rect id="SVGID_1_" width="720" height="480"/>
		</defs>
		<clipPath id="SVGID_2_">
			<use xlink:href="#SVGID_1_"  style="overflow:visible;"/>
		</clipPath>
		<g transform="matrix(2.25 0 0 2.25 83.125 -.75)" style="clip-path:url(#SVGID_2_);">
			<path style="fill:#072B5F;" d="M-36.9,0.6h320v213.1h-320V0.6z"/>
			<g>
				<ellipse style="fill:none;stroke:#FFFFFF;stroke-width:4.5;stroke-miterlimit:9;" cx="123.1" cy="107" rx="89.1" ry="89"/>
				
					<ellipse style="fill:none;stroke:#FFFFFF;stroke-width:4.4775;stroke-miterlimit:9;" cx="123.1" cy="107.1" rx="165.7" ry="165.5"/>
				
					<ellipse style="fill:none;stroke:#FFFFFF;stroke-width:4.4707;stroke-miterlimit:9;" cx="123.1" cy="107.1" rx="237.8" ry="237.5"/>
				<path style="fill:none;stroke:#FFFFFF;stroke-width:4.5;stroke-miterlimit:9;" d="M-63.7,107h373.6 M123.1-79.6v373.1"/>
				<g transform="rotate(30 133.5 133.5)">
					<path id="b" style="fill:none;stroke:#FFFFFF;stroke-width:4.5;stroke-miterlimit:9;" d="M-38.7,13.7l323.5,186.6 M216.5-54.6
						L29.7,268.6"/>
				</g>
				<g transform="rotate(60 133.5 133.5)">
					<path id="b_1_" style="fill:none;stroke:#FFFFFF;stroke-width:4.5;stroke-miterlimit:9;" d="M29.7-54.6l186.8,323.1
						 M284.8,13.7L-38.7,200.3"/>
				</g>
			</g>
			<g transform="matrix(1 0 0 .99875 0 .333)">
				<path id="a" style="fill:#FFFFFF;" d="M133.4,35.2l-0.5-0.2L133.4,35.2z M147.6,176l-1.9-1.1l-5.7,1.4l-5-3.1v1.2l-1.2-1.6
					l1.4-1.4l-0.2-4.3h1.6l1-2.8l1.1-0.5l-0.9-1.4l1.4-0.5l-0.2-2.1l-1.4-0.7l1.9-0.2l-1.1-5.2l-2.9-2.8l-1.7,0.7l0.7,2.3h-5.9
					l-5-2.1l-1.9-0.9l-9.5-2.1l-0.7,1.1l-3.4,0.3h-0.9l-1.4,2.3l-4.1-2.8l-2.1,0.7l0.3,1.9l-5.3-2.8l-0.2,1.8l-5.2-2.3l-0.3,0.2
					l-2.6,1l-0.5-1.9l-6.2-3.1l-6.6-2.1l-1.2-5.5v-1.2l-2.6-4.7l1.1-5.7l-2.1-0.7l-0.7-2.4l3.6-0.4h-1.6l0.2-3.6l-5.2,1.6l-0.2-1.4
					l-0.7,2.6l-2.9,1.1l-1.9-1.8l-0.7-1.9l-0.7-3.8l1.6-1.2l0.7,0.9l0.5-1.1l-1.2-8.5l1.9,0.4l0.9-9l0.3-0.3l1.9-1.1l-2.4,0.2
					l-0.9-2.1l4.3-4.8L61,87.9l-2.9,2.8L57,87.4l-1.7,2.3l-0.4-1.6l-2.1,0.7l-1.4,0.7l1.1-4.3l-0.9-0.5l0.5-1.2l-1.2,0.3l-0.2-2.4
					h4.5l-0.2-1.1h-1.4l-2.6-4.6l-1.4,0.5l-0.9-1.6L48,76.1l-1.4-1l1.4-0.9l-2.1-0.7l0.5-1.2l-1.7-0.9l-0.4-3.8L42.5,67l1-0.7
					l-1.9-5l0.2-1.6l0.7-5h1.4l-0.4,3.1l3.6,5l2.6,3.3l5.3,1.4v0.2l0.7-1.2l2.9,3.3l1.4,1.6l0.7,0.7l8.1,3.8l1.4,0.7l0.5,0.4
					l3.8,4.6l2.1-1l15.7-3.6l0.5-2.8l1.1,0.5l-0.2-0.9l0.7-0.5l3.4-1.2V69l1.1-1.2l1.4-5.5l-0.7-2.1l3.4-8v-5h1.6l1.9-2.8l2.4-0.7
					l0.3-2.6l3.3-4l1.4,0.7l6.7-2.4l0.7-0.7l1.4-1.4l-0.5-2.3h1.4l0.7,3.8l7.3,1.7l1.2-1.2l0.5,0.2l6.4,1.4l0.2-0.2l3.4-1.9l0.2,2.1
					l2.9,0.3l2.4,1.8l0.5,0.5l3.6,3.1l4.3,0.3l2.6,0.4l3.3-1.1l0.3,2.1l1.4,0.9l1.1-2.1h1.4l1,5.5l1.1,0.2l-0.2,1.9l-0.2,0.2h0.4
					l2.9-1.4l2.6-0.9l7.3,2.6l1.4-0.4l0.5,2.6l1.9,0.3l-0.5-1.2h1.6l0.5,2.6l1.9-2.1l4.5,2.8l1.2,5.2l-1.9,0.5l0.5,4l0.7,1.2l5,12.6
					l-2.6,2.3l-0.2,2.8l-2.1,2.6l2.4,1.6l-0.9,0.7l2.1,2.1l3.3,0.5l1,1.4l0.9,1.8l2.4,1l2.9-1.9l1.9,0.2l-2.4,3.3l2.4,6.2l-2.9,2.3
					l1.2,3.8l-0.7,3.3l1.4,1.9l3.8,0.7l-3.8,5.2l0.7,0.9l0.9,1l-1.6,2.6l1.6,1l-8.3,6.8l1.9,4.8l-0.5,2.8l-2.9,0.9l-0.7,2.4
					l-3.3,1.4l-1,3.1l-0.7,1.6l3.4,1.7l-5,0.4l1.2,2.6l-2.4,2.3l-3.8,0.7l-1.2,2.1l2.9,1.4l-5.4,5l1.6,2.6l-4.3-0.9l-4.8,2.8
					l-6.4,3.1l-1.4,2.1l-0.9-0.7l0.9-2.1l-4.3,1.6l-0.9-1.6l-6.4,3.8l-2.9-0.9l-5.2,0.9l-1.4-0.7 M149.3,39.3l-0.5-0.5h-0.2v0.3h0.5
					C149.1,39.1,149.3,39.3,149.3,39.3z M147.6,176l1.4,0.7L147.6,176z M147.6,176l1.4,0.7 M47.5,78.2l0.3-1.7l-2.6-1.6L47.5,78.2z
					 M41.8,65.1h-1.4l0.7,2.1l0.7-1.8V65.1L41.8,65.1z M41.1,63l-0.7,0.7l1.4,1L41.1,63z M47.5,78.2l0.3-1.7l-2.6-1.6L47.5,78.2z
					 M41.8,65.1h-1.4l0.7,2.1l0.7-1.8V65.1L41.8,65.1z M41.1,63l-0.7,0.7l1.4,1L41.1,63z M47.5,78.2l0.3-1.7l-2.6-1.6L47.5,78.2z
					 M41.8,65.1h-1.4l0.7,2.1l0.7-1.8V65.1L41.8,65.1z M41.1,63l-0.7,0.7l1.4,1L41.1,63z M45.4,58v-1.8l-1.6,0.4l0.2,1.2L45.4,58z
					 M43.5,52.8l0.4,0.9l1-2.1l-1.4,1V52.8z M45.4,58v-1.8l-1.6,0.4l0.2,1.2L45.4,58z M43.5,52.8l0.4,0.9l1-2.1l-1.4,1V52.8z
					 M45.4,58v-1.8l-1.6,0.4l0.2,1.2L45.4,58z M43.5,52.8l0.4,0.9l1-2.1l-1.4,1V52.8z M68.9,125.3l-1.6,0.2l-1.4,1.9l2.4-0.5
					L68.9,125.3L68.9,125.3z M68.9,125.3l-1.6,0.2l-1.4,1.9l2.4-0.5L68.9,125.3L68.9,125.3z M68.9,125.3l-1.6,0.2l-1.4,1.9l2.4-0.5
					L68.9,125.3L68.9,125.3z M70.6,77.2l-0.5-0.4l-1.4-0.7l1.4,0.7L70.6,77.2z"/>
			</g>
			<g>
				<defs>
					<path id="SVGID_3_" d="M133.3,35.4l-0.5-0.2L133.3,35.4z M147.5,175.9l-1.9-1.1l-5.7,1.4l-5-3.1v1.2l-1.2-1.6l1.4-1.4l-0.2-4.3
						h1.6l1-2.8l1.1-0.5l-0.9-1.4l1.4-0.5l-0.2-2.1l-1.4-0.7l1.9-0.2l-1.1-5.2l-2.8-2.8l-1.7,0.7l0.7,2.3h-5.9l-5-2.1l-1.9-0.9
						l-9.5-2.1l-0.7,1.1l-3.3,0.3h-0.9l-1.4,2.3l-4.1-2.8l-2.1,0.7l0.3,1.9l-5.3-2.8l-0.2,1.8l-5.2-2.3l-0.3,0.2l-2.6,1l-0.5-1.9
						l-6.2-3.1l-6.6-2.1l-1.2-5.5v-1.2l-2.6-4.7l1.1-5.7l-2.1-0.7l-0.7-2.4l3.6-0.4h-1.6l0.2-3.5l-5.2,1.6l-0.2-1.4l-0.7,2.6
						l-2.8,1.1l-1.9-1.8L58,119l-0.7-3.8L59,114l0.7,0.9l0.5-1.1l-1.2-8.5l1.9,0.4l0.9-8.9l0.3-0.3l1.9-1.1l-2.3,0.2l-0.9-2.1
						l4.3-4.8l-3.8-0.7l-2.8,2.8l-1.1-3.3l-1.7,2.3L55,88.2l-2.1,0.7l-1.4,0.7l1.1-4.3l-0.9-0.5l0.5-1.2L50.9,84l-0.2-2.4h4.5
						L55,80.4h-1.4l-2.6-4.5l-1.4,0.5l-0.9-1.6l-0.5,1.4l-1.4-1l1.4-0.9l-2.1-0.7l0.5-1.2l-1.7-0.9l-0.4-3.8l-1.7-0.5l1-0.7l-1.9-5
						l0.2-1.6l0.7-5H44l-0.4,3.1l3.6,5l2.6,3.3l5.3,1.4v0.2l0.7-1.2l2.8,3.3l1.4,1.6l0.7,0.7l8,3.8l1.4,0.7l0.5,0.4l3.8,4.5l2.1-1
						l15.7-3.5l0.5-2.8l1.1,0.5L93.6,74l0.7-0.5l3.3-1.2v-3.3l1.1-1.2l1.4-5.5l-0.7-2.1l3.3-8v-5h1.6l1.9-2.8l2.3-0.7l0.3-2.6l3.3-4
						l1.4,0.7l6.7-2.4l0.7-0.7l1.4-1.4l-0.5-2.3h1.4l0.7,3.8l7.3,1.7l1.2-1.2l0.5,0.2l6.4,1.4l0.2-0.2l3.3-1.9l0.2,2.1l2.8,0.3
						l2.3,1.8l0.5,0.5l3.6,3.1l4.3,0.3l2.6,0.4l3.3-1.1l0.3,2.1l1.4,0.9l1.1-2.1h1.4l1,5.5l1.1,0.2l-0.2,1.9l-0.2,0.2h0.4l2.8-1.4
						l2.6-0.9l7.3,2.6l1.4-0.4l0.5,2.6l1.9,0.3l-0.5-1.2h1.6l0.5,2.6l1.9-2.1l4.5,2.8l1.2,5.2l-1.9,0.5l0.5,4l0.7,1.2l5,12.6
						l-2.6,2.3l-0.2,2.8l-2.1,2.6l2.3,1.6l-0.9,0.7l2.1,2.1l3.3,0.5l1,1.4l0.9,1.8l2.3,1l2.8-1.9l1.9,0.2l-2.3,3.3l2.3,6.2l-2.8,2.3
						l1.2,3.8l-0.7,3.3l1.4,1.9l3.8,0.7l-3.8,5.2l0.7,0.9l0.9,1l-1.6,2.6l1.6,1l-8.3,6.8l1.9,4.8l-0.5,2.8l-2.8,0.9l-0.7,2.4
						l-3.3,1.4l-1,3.1l-0.7,1.6l3.3,1.7l-5,0.4l1.2,2.6l-2.4,2.3l-3.8,0.7l-1.2,2.1l2.8,1.4l-5.4,5l1.6,2.6l-4.3-0.9l-4.8,2.8
						l-6.4,3.1l-1.4,2.1l-0.9-0.7l0.9-2.1l-4.3,1.6l-0.9-1.6l-6.4,3.8l-2.8-0.9l-5.2,0.9l-1.4-0.7 M149.2,39.5l-0.5-0.5h-0.2v0.3
						h0.5C148.9,39.3,149.2,39.5,149.2,39.5z M147.5,175.9l1.4,0.7L147.5,175.9z M147.5,175.9l1.4,0.7 M47.6,78.3l0.3-1.7L45.2,75
						L47.6,78.3z M41.9,65.2h-1.4l0.7,2.1l0.7-1.8V65.2L41.9,65.2z M41.2,63.1l-0.7,0.7l1.4,1L41.2,63.1z M47.6,78.3l0.3-1.7
						L45.2,75L47.6,78.3z M41.9,65.2h-1.4l0.7,2.1l0.7-1.8V65.2L41.9,65.2z M41.2,63.1l-0.7,0.7l1.4,1L41.2,63.1z M47.6,78.3
						l0.3-1.7L45.2,75L47.6,78.3z M41.9,65.2h-1.4l0.7,2.1l0.7-1.8V65.2L41.9,65.2z M41.2,63.1l-0.7,0.7l1.4,1L41.2,63.1z
						 M45.4,58.1v-1.8l-1.6,0.4l0.2,1.2L45.4,58.1z M43.6,53l0.4,0.9l1-2.1l-1.4,1V53z M45.4,58.1v-1.8l-1.6,0.4l0.2,1.2L45.4,58.1z
						 M43.6,53l0.4,0.9l1-2.1l-1.4,1V53z M45.4,58.1v-1.8l-1.6,0.4l0.2,1.2L45.4,58.1z M43.6,53l0.4,0.9l1-2.1l-1.4,1V53z
						 M68.9,125.3l-1.6,0.2l-1.4,1.9l2.3-0.5L68.9,125.3L68.9,125.3z M68.9,125.3l-1.6,0.2l-1.4,1.9l2.3-0.5L68.9,125.3L68.9,125.3z
						 M68.9,125.3l-1.6,0.2l-1.4,1.9l2.3-0.5L68.9,125.3L68.9,125.3z M70.6,77.3l-0.5-0.4l-1.4-0.7l1.4,0.7L70.6,77.3z"/>
				</defs>
				<clipPath id="SVGID_4_">
					<use xlink:href="#SVGID_3_"  style="overflow:visible;"/>
				</clipPath>
				<g transform="matrix(.99795 0 0 .9967 .195 .655)" style="clip-path:url(#SVGID_4_);">
					<g id="e">
						<ellipse style="fill:none;stroke:#072B5F;stroke-width:2;" cx="123" cy="107.2" rx="88.9" ry="88.7"/>
						<ellipse style="fill:none;stroke:#072B5F;stroke-width:2;" cx="123" cy="107.2" rx="166.2" ry="165.7"/>
						<ellipse style="fill:none;stroke:#072B5F;stroke-width:2;" cx="123" cy="107.2" rx="238.9" ry="238.3"/>
						<path id="b_2_" style="fill:none;stroke:#072B5F;stroke-width:2;" d="M-63.4,107.2h372.8 M123-78.8v371.9"/>
						<g transform="rotate(30 133.5 133.5)">
							<path id="b_3_" style="fill:none;stroke:#072B5F;stroke-width:2;" d="M-38.4,14.2l322.9,186 M216.2-53.9L29.8,268.2"/>
						</g>
						<g transform="rotate(60 133.5 133.5)">
							<path id="b_4_" style="fill:none;stroke:#072B5F;stroke-width:2;" d="M29.8-53.9l186.4,322.1 M284.4,14.2l-322.9,186"/>
						</g>
					</g>
				</g>
			</g>
		</g>
	</g>
</g>
</svg>
