<?xml version="1.0" encoding="utf-8"?>
<!-- Generator: Adobe Illustrator 25.2.1, SVG Export Plug-In . SVG Version: 6.00 Build 0)  -->
<svg version="1.1" id="Layer_1" xmlns="http://www.w3.org/2000/svg" xmlns:xlink="http://www.w3.org/1999/xlink" x="0px" y="0px"
	 viewBox="0 0 720 480" style="enable-background:new 0 0 720 480;" xml:space="preserve">
<g>
	<path style="fill:#3F9C35;" d="M0,0h720v480H0V0z"/>
	<path style="fill:#ED2939;" d="M0,0h720v320H0V0z"/>
	<path style="fill:#00B9E4;" d="M0,0h720v160H0V0z"/>
	<ellipse style="fill:#FFFFFF;" cx="348" cy="240" rx="54" ry="72"/>
	<ellipse style="fill:#ED2939;" cx="360" cy="240" rx="45" ry="60"/>
	<path style="fill:#FFFFFF;" d="M408,200l5.7,21.5l15.5-9.8l-7.4,20.6L438,240l-16.1,7.7l7.4,20.6l-15.5-9.8L408,280l-5.7-21.5
		l-15.5,9.8l7.4-20.6L378,240l16.1-7.7l-7.4-20.6l15.5,9.8L408,200z"/>
</g>
</svg>
