<?xml version="1.0" encoding="utf-8"?>
<!-- Generator: Adobe Illustrator 25.2.1, SVG Export Plug-In . SVG Version: 6.00 Build 0)  -->
<svg version="1.1" id="Layer_1" xmlns="http://www.w3.org/2000/svg" xmlns:xlink="http://www.w3.org/1999/xlink" x="0px" y="0px"
	 viewBox="0 0 720 480" style="enable-background:new 0 0 720 480;" xml:space="preserve">
<g>
	<rect style="fill:#00267F;" width="720" height="480"/>
	<rect x="240" style="fill:#FFC726;" width="240" height="480"/>
	<path id="h" d="M360,123.7c-7.8,21.3-15.8,43.4-32.8,60.4c5.3-1.7,14.5-3.3,20.5-3.2v89.5l-25.3,3.8c-0.9-0.1-1.2-1.5-1.2-3.4
		c-2.4-27.8-9-51.1-16.6-75.3c-0.5-3.3-10.1-15.9-2.7-13.7c0.9,0.1,10.8,4.1,9.2,2.2c-13.4-13.9-33.1-23.9-52.2-26.9
		c-1.7-0.4-2.7,0.4-1.2,2.4c25.3,39,46.5,85,46.3,139.5c9.8,0,33.7-5.8,43.6-5.8v63.1h12.5L363,180L360,123.7z"/>
	<g transform="translate(24000,0) scale(-1,1)">
		<path id="h_1_" d="M360,123.7c7.8,21.3,15.8,43.4,32.8,60.4c-5.3-1.7-14.5-3.3-20.5-3.2v89.5l25.3,3.8c0.9-0.1,1.2-1.5,1.2-3.4
			c2.4-27.8,9-51.1,16.6-75.3c0.5-3.3,10.1-15.9,2.7-13.7c-0.9,0.1-10.8,4.1-9.2,2.2c13.4-13.9,33.1-23.9,52.2-26.9
			c1.7-0.4,2.7,0.4,1.2,2.4c-25.3,39-46.5,85-46.3,139.5c-9.8,0-33.7-5.8-43.6-5.8v63.1h-12.4L357,180L360,123.7z"/>
	</g>
</g>
</svg>
