<?xml version="1.0" encoding="utf-8"?>
<!-- Generator: Adobe Illustrator 25.2.1, SVG Export Plug-In . SVG Version: 6.00 Build 0)  -->
<svg version="1.1" id="Layer_1" xmlns="http://www.w3.org/2000/svg" xmlns:xlink="http://www.w3.org/1999/xlink" x="0px" y="0px"
	 viewBox="0 0 720 480" style="enable-background:new 0 0 720 480;" xml:space="preserve">
<g>
	<rect style="fill:#008000;" width="720" height="480"/>
	<ellipse style="fill:#FFE000;" cx="360" cy="240" rx="75" ry="100"/>
	<ellipse style="fill:#008000;" cx="383.4" cy="240" rx="61.7" ry="82.3"/>
	<ellipse style="fill:#FFE000;" cx="123.6" cy="140" rx="78.6" ry="104.8"/>
	<path style="fill:#802000;stroke:#7B3100;stroke-width:18.9627;stroke-miterlimit:3.2508;" d="M118.2,219h19.6c0,0,0.9-2.4-0.2-3.6
		c-1.1-1.2-5.3-1.5-4.2-5.7c2.3-8.7,2.7-6,4.1-26.7c1.5-20.7,2.2-53.2,2.2-53.2h-2.8c0,0,0.5,10.1-1.1,23.3s-2.1,14.3-3.9,24.4
		c-1.8,10.1-2.1,11-3.7,16.9c-1.6,5.9-1.8,6.2-4.4,11.6c-2.6,5.4-1.6,3.4-3.1,6.7c-0.7,1.6-1.6,1.2-2.1,2.4
		C118.2,216.2,118.2,219,118.2,219L118.2,219z"/>
	<path style="fill:#008000;" d="M133.1,63.7c0.2,4.1-0.1,9.4-1.4,13.8c-1.3,4.9-2.7,9.7-2.6,14.8c-2,0.9-4.1-5.9-6.1-1.9
		c1.5,5.5,4.9,9.9,7.2,14.9c0.4,1.5,3.7,5.6,1.8,6.5c-4.9-2.2-6.1-10.5-9.1-15.5c-3.5-8.5-10.1-14.4-17.4-14.8
		c-2.8,0.1-11.7-0.9-9.4,5.4c3.4,3.1,7.7,5.1,11,8.6c2.5,0.3,7.1,5.9,6.8,8c-4.4-2.4-6.5-5.3-11.3-7.8c-6.5-3.3-15.4-1.3-19,7.2
		c-0.7,2.2-1.7,8.7,0.4,9.4c2.5-5.1,6-10.8,11.2-9.3c4.1,0.4-4.6,10.2-1.3,8.2c1-0.6,3.5-2.7,5.2-3c1.7-0.2,2.6,1.5,3.9,1.7
		c2.5,0.5,3.3,1.9,3,2.7c-0.3,1-1.1,0.1-3.7,1.2c-1.3,0.5-2,2.1-3.5,2.8c-1.5,0.7-4.7,0.7-5.8,0.1c-4.1-2.4-10.8-2-12.1,4.9
		c0,3-2-0.3-2.9,1c-0.7,3.3-0.9,6.7-4.5,6.4c-2.2,3.1-4.5,6.3-7.3,8.6c1.7,5.1,8.2-5.1,7.9-0.8c-2.9,5.2,1.5,6.3,3.4,2.3
		c3.2-4.5,7.2-10.1,12-5.5c2.3,2.9,3.6-1.5,5.3-1.3c1,3.6,2.4,0.2,3.5-0.8c1.9-0.3,1.4,3.2,3.7,1c4.6-4.1,10.2-0.6,14.7-4.6
		c4.8-2.9,0.7,2.3-0.6,4.4c-2.1,5.4-0.3,12.5-4.8,15.9c-1.8,6.5,2.2,15-1.9,19.8c-0.6,3,5.2,2.7,6.9,3.9c2.9,0.2-0.1-8.7,2.7-9.9
		c3.8,3.1,3.6-5.6,2.8-8.3c0.4-6.1,0.6-12.9,2.9-18.4c2.4-6.8,4.7,2.8,2,5.5c-1.5,6.3-3.8,14.1-0.3,20c1,0.3,1.8,3.6,3.2,4.6
		c1.3,1,3.1-0.3,3.4-3.2c1.7-9,0.8-18.7,3.2-27.4c1.7-2.7,4-0.4,5.1,2.1c3.4,5.2,5.7,11.8,9.8,16.1c3.7,2.3,7,5.8,8.7,10.9
		c0,3.9,8.4,4.5,5.9,0.2c-2.4-4.3-0.8-8.5,1.6-11.4c1.3,0.4,0.9-2.7-0.1-1.5c-1.6-0.5-1.7-4.5,0.5-2.6c3.8,1.7-0.3-3.7-1.7-3.9
		c-3.3-2.7-7-5.8-8.6-10.4c4.2,0.1,8.6,3.1,13,1.2c3.5-2.4,7,0.2,8.2,4.3c2.7-0.6,1.5-4.2,0-5.3c2-1.1,3.3-3.3,0.9-5.3
		c-1.3-2.2,1.7-5.9-1.9-5.8c0.1-3.7-1-7-4-8.3c-3-3.4-11.9,5-11.6-2.7c-0.9-4.2,3.6-0.6,4.8-2.6c1.3-4.4-6.2-4-3.7-7.4
		c1.6-1.4,9.2-3.4,3.2-4.8c-3,1.1-5.5,0.3-7.8-1.7c-2.1,4.7-8.2-2.6-7.1,5.8c-0.8,3.2-6.2,11.4-7.7,5.1c1.2-4.9,7.7-6.6,5.7-13.2
		c-0.3-4.2-2.9,0.7-4.1,0.4c-0.6-2.6,1.9-5.6,3.6-6.2c3.4,3.5,3.5-4.4,6.8-3.8c2.4-0.7-0.8-2.1-1.4-2.7c0.7-2.3,4.3-3.5,0.7-5.5
		c-3.2-3.1-5.5,3.1-8.1,3.4c-2.5-3.8,2.3-5.6,3.6-7.6c0.1-1.5-2.8-0.4-1.9-1.7c0.7-1.8,5.8-1.9,3.4-4.6c-3.6-1.6-8.2-1.2-11.6,0.9
		c-2.2,0.9-2.8,7.4-4.7,7.2C135,70.2,136.1,64.5,133.1,63.7L133.1,63.7z M150,127.2c2.7-0.6,0.1,5.5-1.2,5.4c0.1-2.2-3.9-2-1.4-3.9
		C148.1,128,149,127.5,150,127.2z"/>
	<g>
		<g>
			<path id="Star7" style="fill:#FFE000;" d="M540,365.7l5,20.6l15.1-7.6l-9,18l13.9,11l-16.1,1.9l2.2,21.4L540,415.2l-11.2,15.7
				l2.2-21.4l-16.1-1.9l13.9-11l-9-18l15.1,7.6L540,365.7z"/>
		</g>
		<g>
			<path id="Star7_1_" style="fill:#FFE000;" d="M450,175.7l5,20.6l15.1-7.6l-9,18l13.9,11l-16.1,1.9l2.2,21.4L450,225.2l-11.2,15.7
				l2.2-21.4l-16.1-1.9l13.9-11l-9-18l15.1,7.6L450,175.7z"/>
		</g>
		<g>
			<path id="Star7_2_" style="fill:#FFE000;" d="M540,45.7l5,20.6l15.1-7.6l-9,18l13.9,11l-16.1,1.9l2.2,21.4L540,95.2l-11.2,15.7
				l2.2-21.4l-16.1-1.9l13.9-11l-9-18l15.1,7.6L540,45.7z"/>
		</g>
		<g>
			<path id="Star7_3_" style="fill:#FFE000;" d="M620,143.7l5,20.6l15.1-7.6l-9,18l13.9,11l-16.1,1.9l2.2,21.4L620,193.2l-11.2,15.7
				l2.2-21.4l-16.1-1.9l13.9-11l-9-18l15.1,7.6L620,143.7z"/>
		</g>
		<g>
			<path id="Star5" style="fill:#FFE000;" d="M576,240l3.9,12.8l10.3,1l-7.9,8.9l2.5,13.4l-8.8-7.3l-8.8,7.3l2.5-13.4l-7.9-8.9
				l10.3-1L576,240z"/>
		</g>
	</g>
</g>
</svg>
