<?xml version="1.0" encoding="utf-8"?>
<!-- Generator: Adobe Illustrator 25.2.1, SVG Export Plug-In . SVG Version: 6.00 Build 0)  -->
<svg version="1.1" id="Layer_1" xmlns="http://www.w3.org/2000/svg" xmlns:xlink="http://www.w3.org/1999/xlink" x="0px" y="0px"
	 viewBox="0 0 720 480" style="enable-background:new 0 0 720 480;" xml:space="preserve">
<g>
	<path style="fill:#012169;" d="M0,2.3h720V480H0V2.3z"/>
	<g>
		<defs>
			<rect id="SVGID_1_" x="0" y="2.3" width="390" height="278.7"/>
		</defs>
		<clipPath id="SVGID_2_">
			<use xlink:href="#SVGID_1_"  style="overflow:visible;"/>
		</clipPath>
		<path style="clip-path:url(#SVGID_2_);stroke:#FFFFFF;stroke-width:60;" d="M0,2.3l360,238.9 M0,241.1L360,2.3"/>
	</g>
	<g>
		<defs>
			<path id="SVGID_3_" d="M0,2.3v119.4h420v119.4h-60L0,2.3z M0,241.1v79.6h180V2.3h180L0,241.1z"/>
		</defs>
		<clipPath id="SVGID_4_">
			<use xlink:href="#SVGID_3_"  style="overflow:visible;"/>
		</clipPath>
		<path style="clip-path:url(#SVGID_4_);stroke:#C8102E;stroke-width:40;" d="M0,2.3l360,238.9 M0,241.1L360,2.3"/>
	</g>
	<path style="stroke:#FFFFFF;stroke-width:100;" d="M180,2.3v318.5 M0,121.7h420"/>
	<path style="stroke:#C8102E;stroke-width:60;" d="M180,2.3v318.5 M0,121.7h420"/>
	<path style="fill:#69B3E7;" d="M0,241.1h360V2.3h360V480H0V241.1z"/>
	<g>
		<path style="fill:#FFFFFF;" d="M467.3,116.9v163.3c0,53.4,72.7,85.1,72.7,85.1s72.7-31.7,72.7-85.1V116.9H467.3z"/>
		<path style="fill:#C8102E;" d="M529.9,174.2v73.5h-62.6v26.8h62.6v85.7l10.1,5.1l10.1-5.1v-85.7h62.6v-26.8h-62.6v-73.5H529.9z"/>
		<path style="fill:#C8102E;" d="M467.3,116.9h145.4v63.1H467.3V116.9z"/>
		<g>
			<g>
				
					<ellipse style="fill:#FFFFFF;stroke:#000000;stroke-width:0.803;stroke-miterlimit:3;" cx="478.9" cy="155.3" rx="8.2" ry="8.7"/>
				
					<ellipse style="fill:#FFFFFF;stroke:#000000;stroke-width:0.805;stroke-miterlimit:3;" cx="478.9" cy="150.8" rx="7.3" ry="4.9"/>
				
					<ellipse style="fill:#FFFFFF;stroke:#000000;stroke-width:0.805;stroke-miterlimit:3;" cx="478.9" cy="160.5" rx="7.3" ry="4.9"/>
				
					<ellipse style="fill:#FFFFFF;stroke:#000000;stroke-width:0.805;stroke-miterlimit:3;" cx="478.9" cy="155.3" rx="7.3" ry="4.9"/>
			</g>
			<path style="fill:#FFFFFF;stroke:#000000;stroke-width:0.805;stroke-miterlimit:3;" d="M0,2.3"/>
			<path style="fill:#FFFFFF;stroke:#000000;stroke-width:0.805;stroke-miterlimit:3;" d="M0,2.3"/>
			<path style="fill:#FFFFFF;stroke:#000000;stroke-width:0.805;stroke-miterlimit:3;" d="M0,2.3"/>
			<path d="M478.3,142.4c-0.1,0.8,0,1.6,0.3,2.3c0.3,0.7,0.6,1.1,1,1.1c0.4,0.1,0.7-0.3,1-0.7c0.2-0.3,0.4-0.5,0.6-0.5l0.3,0.2
				l0.2-0.2l-0.4-0.4c-0.3,0-0.5,0.3-0.8,0.6c-0.3,0.3-0.5,0.6-0.8,0.6c-0.2,0-0.5-0.4-0.8-1c-0.3-0.6-0.4-1.3-0.3-2
				c0.3-1.7,1.9-3,1.9-3l-0.1-0.3C480.3,139.2,478.7,140.5,478.3,142.4L478.3,142.4z M474.3,167.1c0.1-0.7,0.5-1.2,1.2-1.7
				c-0.1,0,0.6,0.8,1.2,0.7l0.4-0.3c0.2,0.2,1.3,1.5,1.3,3.2c0,0.4,0,0.7-0.2,1.1l0.3,0.1c0.8-2.5-1.2-4.7-1.2-4.8l-0.1-0.1
				l-0.1,0.1l-0.4,0.3c-0.5,0.1-1.2-0.7-1.2-0.7c-0.8,0.5-1.3,1.1-1.4,1.9L474.3,167.1z M483.6,160.7c-0.6,0.1-2.3,0.5-2.8,1.6
				c-0.2,0.4-0.2,0.9-0.1,1.4l0.2,0.8c0.5,1.9,1.1,3.8,1.7,4.2l0.1-0.3c-0.5-0.4-1-2.3-1.5-4l-0.2-0.8c-0.1-0.4-0.1-0.7,0.1-1.1
				c0.4-0.9,2-1.4,2.6-1.5c0.4,0,0.5,1.8,0.6,3l0.3,0C484.4,162.3,484.3,160.6,483.6,160.7L483.6,160.7z"/>
			<path d="M479,162.5c-0.4,0.4-0.3,1-0.3,1.1c0,0.2,0.2,4.8,1.8,5.8l0.1-0.3c-1.5-0.9-1.7-5.5-1.7-5.5c0,0,0-0.5,0.2-0.8
				c0.3-0.3,0.8-0.3,1.5-0.1l0.1-0.4C479.9,162.1,479.4,162.1,479,162.5L479,162.5z"/>
			<path d="M0,2.3"/>
			<path d="M0,2.3"/>
			<path d="M0,2.3"/>
			<path d="M505,133.5c-0.7,1.2-1.3,3-1.3,3.8c0,0.2,0,0.3,0.1,0.4c0,0,0,0,0,0c-0.8,1-1.3,2.5-1.3,4.3c0,1,0.1,2,0.4,3l0.2,0.6
				c0.8,2.7,1.4,5.1,4.7,3.7c3.1-1.3,3.3-1.6,4.1-3.3l0.2-0.4c0.4-0.9,0.9-1.1,1.4-1.3c0.6-0.2,1.2-0.5,1.8-1.9l0.5-1.1
				c0.6-1,1.3-2.3,1.4-4l-0.3,0c-0.1,1.6-0.8,2.8-1.3,3.8l-0.6,1.1c-0.5,1.3-1,1.5-1.6,1.7c-0.5,0.2-1.1,0.4-1.6,1.5l-0.2,0.5
				c-0.8,1.7-0.9,1.9-3.9,3.2c-3,1.3-3.6-0.7-4.3-3.5l-0.2-0.6c-0.9-3-0.2-6.1,0.9-7.2l0.4-0.4l-0.5,0.1c0,0,0-0.1,0-0.1
				c0-0.5,0.4-2.1,1.2-3.6c0.7-1.3,2.3-2.5,2.4-2.5l-0.1-0.3C507.3,130.9,505.7,132.2,505,133.5L505,133.5z"/>
			<path d="M503.5,144.5c0.5,0.5,1.3,0.5,2.2,0c0,0.4,0.1,1.4,0.6,2c0.7,0.8,1.8,0.9,3.3,0.5l-0.1-0.4c-1.4,0.5-2.5,0.3-3.1-0.4
				c-0.6-0.8-0.6-2-0.6-2l0-0.3l-0.2,0.1c-0.9,0.5-1.6,0.6-2.1,0.1c-0.9-0.8-0.8-3-0.8-3l-0.3,0
				C502.5,141.3,502.5,143.6,503.5,144.5L503.5,144.5z"/>
			<path d="M505.2,141.6c-0.4,0.1-0.5,0.6-0.5,0.9c0,0.1,0,0.2,0,0.2c0.1,0.9,0.8,1.6,1.5,1.8c0.7,0.3,1.5,0.3,1.8-0.3
				c0.1-0.2,0.2-0.6-0.1-1.3C507,140.6,505.3,141.5,505.2,141.6L505.2,141.6z M506.4,144.2c-0.6-0.2-1.3-0.8-1.3-1.5
				c0-0.1-0.1-0.6,0.3-0.7l0,0c0.1,0,1.6-0.9,2.5,1.2c0.2,0.4,0.2,0.7,0.1,0.9C507.7,144.4,507.1,144.5,506.4,144.2L506.4,144.2z
				 M505.2,141.6C505.2,141.6,505.2,141.6,505.2,141.6L505.2,141.6z M506.2,146.4c-0.2,2-0.1,2,0,2.1l0.1,0l0.1-0.2l0.9-1.5
				l-1.1-0.7L506.2,146.4L506.2,146.4z M506.4,146.7l0.4,0.3c-0.1,0.2-0.3,0.6-0.5,0.9C506.4,147.5,506.4,147.1,506.4,146.7
				L506.4,146.7z M503.9,144.7l-0.1,1.9l1.2-1.9l-1.1-0.2L503.9,144.7L503.9,144.7z M504.2,145l0.3,0c-0.1,0.2-0.2,0.3-0.4,0.6
				C504.2,145.3,504.2,145.1,504.2,145L504.2,145z M0,2.3"/>
			<ellipse cx="508.8" cy="143.8" rx="0.2" ry="0.2"/>
			<path d="M0,2.3"/>
			<ellipse cx="505" cy="140.2" rx="0.2" ry="0.2"/>
			<ellipse cx="504.1" cy="139.7" rx="0.2" ry="0.2"/>
			<path d="M0,2.3"/>
			<path d="M515.3,138.3c-0.3,0.3-0.8,0.5-1.3-0.1c-0.5-0.6-1-1.4-1.7-0.9c-0.7,0.5-2,1.8-2,1.8s2.1-1.9,2.5-1.5
				c0.4,0.4,1.3,1.4,1.9,1.1C515.3,138.4,515.3,138.3,515.3,138.3z"/>
			<path d="M513.7,139.5c-0.7-0.7-1.3,0.8-1.9,0.6c-0.6-0.2-1-1.4-1-1.4s0.5,1.3,1.3,1c0.7-0.3,1.2-0.9,1.7-0.4
				C514.2,139.7,513.7,139.5,513.7,139.5L513.7,139.5z"/>
			<path d="M512.6,139.7c-1.3,0.2-1.4-1.4-1.4-1.5c0,0,0.4,1.4,1.6,1.2L512.6,139.7L512.6,139.7z"/>
			<path d="M512.6,138.6c0.1,0.4,0.1,0.6-0.3,0.6c-0.4,0-0.6-0.2-0.6-0.6C511.7,138.1,512.5,138.3,512.6,138.6L512.6,138.6z
				 M507.9,136.1c0,0.3-0.2,0.5-0.4,0.5s-0.3-0.2-0.3-0.5s0-0.6,0.3-0.6S507.9,135.8,507.9,136.1z"/>
			<path d="M506.4,134.2c0,0,2.2,0,1.1,3.8c0,0,0.9-1.9,0.3-3.2c-0.5-1.3-1.4-1-1.4-1S506.3,134,506.4,134.2z"/>
			<path d="M506.4,135.7c0,0.7,0.4,1.5,1.1,2.3l0.2-0.3c-0.7-0.7-1-1.4-1-2c0-0.6,0.4-1,0.4-1l-0.2-0.3
				C506.8,134.4,506.4,134.9,506.4,135.7L506.4,135.7z"/>
			<path d="M506.9,136.3c0.1,0.4,0.3,0.8,0.7,1l0.1-0.3c-0.3-0.2-0.5-0.4-0.6-0.7c-0.1-0.6,0.2-1.4,0.2-1.4l-0.2-0.2
				C507.1,134.7,506.7,135.5,506.9,136.3L506.9,136.3z M509.9,138.4c0,0,0.4,1.2-0.2,2.5c-0.6,1.3-0.6,1.2-0.6,1.2s0.7-1.8,0.5-2.5
				C509.3,138.8,509.9,138.4,509.9,138.4L509.9,138.4z M518.7,151c2.3,0.6,7.5,6,7.6,6l0.3-0.5c-0.2-0.2-5.3-5.6-7.8-6.2L518.7,151
				L518.7,151z M520.7,158.6c0.2,2.7,2.4,4.4,2.5,4.5l0.2-0.6c0,0-2.1-1.6-2.2-4L520.7,158.6L520.7,158.6z M515.2,159.2
				c0,3,2.2,6.7,2.2,6.9l0.4-0.4c0,0-2.1-3.7-2.1-6.5L515.2,159.2L515.2,159.2z M507.9,159.5c0.4,1,0.3,1.5,0.2,1.8
				c-0.1,0.3-0.3,0.3-0.4,0.3l0.1,0.6c0.2,0,0.5-0.2,0.7-0.6c0.2-0.6,0.2-1.4-0.2-2.4L507.9,159.5L507.9,159.5z"/>
			<g>
				<path style="fill:#FFFFFF;stroke:#000000;stroke-width:0.36;stroke-miterlimit:3;" d="M475.1,144.5c0,0,0.1,2,1.3,3.2
					c0,0-0.1-2.2,0.2-3.2C476.7,144.6,476,143.7,475.1,144.5L475.1,144.5z M477.5,145.8c0,0,0.3,1.9,1.1,2.7l0.5-0.2
					c0,0,0.2-2.3,0.5-2.6C479.9,145.4,478.4,146.5,477.5,145.8L477.5,145.8z"/>
				<path style="fill:#FFFFFF;stroke:#000000;stroke-width:0.36;stroke-miterlimit:3;" d="M479.6,145.7l0.9,1.9l1-0.7l-0.2-2.2
					C481.3,144.6,480.7,144.4,479.6,145.7L479.6,145.7z"/>
				<path style="fill:#FFFFFF;stroke:#000000;stroke-width:0.36;stroke-miterlimit:3;" d="M483.8,146.1l-1.2,1.3
					c0,0-0.6-0.6-1.1-0.6l0.2-2C481.8,144.8,482.6,143.9,483.8,146.1z M475.4,165.3c0,0-0.2-2.9,0.1-3.1c0,0,0.8,0.4,1.2-0.1
					c0,0,0.5,2.3,0.3,3.2C476.9,166.3,476,165.9,475.4,165.3L475.4,165.3z M480.8,162.3c0,0-0.1-2.4,0.3-2.7c0,0,1.7,0.3,2.2-0.9
					l0.6,2.3C483.8,161,481.9,160.7,480.8,162.3z"/>
				<path style="fill:#FFFFFF;stroke:#000000;stroke-width:0.35;stroke-miterlimit:3;" d="M478.9,162.7c0,0,0.3-2.5,0.7-2.6
					c0,0,0.9,0.4,1.2-0.1l-0.1,3.1C480.7,163.1,480.8,161.8,478.9,162.7L478.9,162.7z M476.9,163.1c0,0,0.4-2.2,0.7-2.2
					c0.3,0,1,0.6,1.3,0.2v1.7c0,0-1.5-0.5-1.7,2.3L476.9,163.1z"/>
			</g>
		</g>
		<g>
			<path style="fill:#00AD50;stroke:#000000;stroke-width:0.78;stroke-miterlimit:4.8;" d="M504.1,209.3c0,0,4.7,5.9,3.5,11
				c0,0,3.1-8.7-0.2-11.3C504.1,206.4,504,208.4,504.1,209.3L504.1,209.3z"/>
			<path style="fill:#862633;stroke:#000000;stroke-width:0.78;stroke-miterlimit:4.8;" d="M498.1,215c0,0-1.2,2.3,0.1,3.9
				c0,0-1.5,2.8-0.3,5.3c0,0-0.9,2.6-0.7,5.3c0,0-0.8,4.2,0.9,6.2c0,0,1.8,1.2,2.6,0.1c0,0,1.6-3.2,0.6-6.5c0,0,1.1-2.7-0.1-6.2
				c0,0,0.3-2-0.7-4.2c0,0,0.7-1.5,0.1-2.7C500.6,216.2,498.3,213,498.1,215z"/>
			<path style="fill:#00AD50;stroke:#000000;stroke-width:0.78;stroke-miterlimit:4.8;" d="M499.5,207.6c0,0-5.7-14.4-9.6-15
				c-4-0.6-4.2-5.7-4.2-5.7s0.5,2.4,3.6,2.4c3.2,0,9.3,5.9,10,10.4c0.7,4.5,1.4,3.9,1.4,3.9L499.5,207.6z"/>
			<path style="fill:#00AD50;stroke:#000000;stroke-width:0.78;stroke-miterlimit:4.8;" d="M499.5,206.6c0,0,2-18.2,11-18.5
				c8.9-0.3,6,0.9,8.1-1.1c0,0-6,4.2-9.7,4.8c-3.7,0.6-6.8,10.2-6.7,12c0.1,1.8-2,5.3-3.1,4.1C498.1,206.7,499.5,206.6,499.5,206.6
				L499.5,206.6z"/>
			<path style="fill:#00AD50;stroke:#000000;stroke-width:0.78;stroke-miterlimit:4.8;" d="M501.5,213.3c0,0,2-7.2,5.5-4.8
				c0,0-2.7-6.9-7.6-0.9C499.5,207.6,501.6,211.5,501.5,213.3L501.5,213.3z M494.7,206.1c0,0,2.9,16.1-1.6,21c0,0,0.1-8.2-2.6-13.2
				C487.8,209,493.2,203.6,494.7,206.1z"/>
			<path style="fill:#00AD50;stroke:#000000;stroke-width:0.78;stroke-miterlimit:4.8;" d="M495,209c0,0,5.3,6.8,5.7,9
				c0.3,2.3,1.6-6.8-0.9-9.3c-2.5-2.6-5.2-3-5.2-3L495,209z"/>
			<path style="fill:#862633;stroke:#000000;stroke-width:0.78;stroke-miterlimit:4.8;" d="M485.2,226.7c0,0,0.5,2.8,1.8,3.4
				c0,0,0.1,2.1,1.2,2.7c0,0-0.6,1.7,0.4,2.8c0,0-0.2,3.5,0.8,4.2c0,0,2.3-0.2,3.2-1.1c0,0,0.5-2.3-0.8-4.6c0,0,0.2-2.2-1.1-3.4
				c0,0,0.4-2.9-1.2-4c0,0-0.3-2.4-1.3-3.6C488.1,223.2,486.1,226.9,485.2,226.7L485.2,226.7z"/>
			<path style="fill:#00AD50;stroke:#000000;stroke-width:0.78;stroke-miterlimit:4.8;" d="M487.9,223.2c0,0-7-3.4-10.8,1.5
				c0,0,5.9,1.1,6.7,2.7C484.5,228.9,488.1,224.8,487.9,223.2z"/>
			<path style="fill:#00AD50;stroke:#000000;stroke-width:0.78;stroke-miterlimit:4.8;" d="M485.7,229c0,0-0.6-0.6-1.2-1.3
				c-0.7-0.6-6.5-2.7-7.4,4.8c0,0-2.1-7.4,1-8.4C481.2,223,483.7,225.4,485.7,229 M481.1,213.6c0,0,2.1,6.2,2.9,6.5
				c0.8,0.3,1.4-0.8,1.4-0.8S482.6,213.8,481.1,213.6L481.1,213.6z M479.6,204.2c0,0-1.8-8-4-5.9c-2.1,2.1-1.6,7.8-1.6,7.8
				s-4.3-5.8-1.8-10.5C474.7,191,479.6,196.1,479.6,204.2L479.6,204.2z"/>
			<path style="fill:#862633;stroke:#000000;stroke-width:0.78;stroke-miterlimit:4.8;" d="M484.4,220.5c0,0,0,1.5,0.8,1.9
				c0.8,0.5,2.3,1.2,2.3,0.3c0-0.9-1.1-4.4-1.6-3.9C485.4,219.3,484.6,219.3,484.4,220.5z"/>
			<path style="fill:#00AD50;stroke:#000000;stroke-width:0.78;stroke-miterlimit:4.8;" d="M483.1,211.2c0,0-0.2-6.9,3.2-9.5
				c0,0,0.7,0.2,1-1.2c0,0-2.7,8.7-1.9,13.1l-0.1,0.6"/>
			<path style="fill:#00AD50;stroke:#000000;stroke-width:0.78;stroke-miterlimit:4.8;" d="M483.7,202.8c0,0,6.1-16.8,13.6-11
				c0,0-7.8,2.1-10.6,9.5l-2.8,5.5L483.7,202.8L483.7,202.8z"/>
			<path style="fill:#00AD50;stroke:#000000;stroke-width:0.78;stroke-miterlimit:4.8;" d="M480.5,209c0,0-1.8-11.3-2.9-12.8
				c-1.1-1.5-3.1-3.2-5.3-0.6c0,0,4-4.7,8.1-0.8c4.2,3.9,3.3,10.1,3.3,10.1l-0.5,7.8l-2.8-3.5"/>
			<path style="fill:#00AD50;stroke:#000000;stroke-width:0.78;stroke-miterlimit:4.8;" d="M487,222.3c0,0-7.5-18.8-12.3-5.4
				c0,0-0.9,3.4,0.1,4.8c0,0-2.7-2.7-1.5-9.3c1.2-6.6,9.5-3.6,11.9,1.8c2.4,5.4,3.1,8.1,2.7,8.4C487.6,222.9,487,222.3,487,222.3
				L487,222.3z M508.1,227.7c0,0,5.4-14.9,8.6-8.1c0,0,0.9,3.3-0.5,4.7c0,0-2.1-3.5-4.1,0.8c-1.9,4.2-1.1,3.9-1.1,3.9
				S509,229.7,508.1,227.7L508.1,227.7z"/>
			<path style="fill:#00AD50;stroke:#000000;stroke-width:0.78;stroke-miterlimit:4.8;" d="M516.2,224.3c0,0,2.9,2.1,1.9,6.3
				c0,0,4-10.1-1.5-11C516.6,219.6,517.7,222.8,516.2,224.3L516.2,224.3z M516.5,214.1c0,0,7.1,2.7,7.4,6.8c0,0,1.2-7.8-2.8-10.2
				C521.1,210.6,516.2,211.7,516.5,214.1z"/>
			<path style="fill:#00AD50;stroke:#000000;stroke-width:0.78;stroke-miterlimit:4.8;" d="M519.7,201.6c3.1-8,6.9,2.6,6.9,2.6
				s1.4-8.3-2.5-9.8c-3.8-1.5-6.3,17.6-6.3,17.6l-4.5,1.4c0,0,1.2-16.7,8-18.2l0.8,0.2"/>
			<path style="fill:#00AD50;stroke:#000000;stroke-width:0.78;stroke-miterlimit:4.8;" d="M514.3,206.4c0,0-4.3-11.7-7.2-12.9
				c-2.9-1.2,1.6-3,3.4-0.8c1.8,2.2,5.2,5.1,4.9,11.1L514.3,206.4z M509.9,222.5c0,0,1.2-8,4.6-10.4c3.4-2.4,6.6-1.5,6.6-1.5
				s-4.1,1.2-4.7,3.9c-0.7,2.7-1.8,2.8-1.8,2.8L509.9,222.5z"/>
			<path style="fill:#862633;stroke:#000000;stroke-width:0.78;stroke-miterlimit:4.8;" d="M508.1,227.7c0,0-1.9,4.8-1.5,5.6
				c0,0-2,3.9-1.2,5.9c0,0,2,2.1,2.9,1.2c0,0,2.4-4.3,1.7-6.8c0,0,1.6-2.8,1-4.6C511,228.9,508.6,229.1,508.1,227.7L508.1,227.7z"/>
			<path d="M498.1,219.2c0.1,0.1,1.3,0.8,2,0.5l0.5-0.6l-0.4-0.3c-0.3,0.7-1.5,0.1-1.9-0.1L498.1,219.2L498.1,219.2z M497.9,223.8
				l-0.1,0.6c0.1,0,2.4,0.6,3.5-0.7l-0.3-0.5C500.1,224.4,497.9,223.8,497.9,223.8z M497.3,229.1l-0.3,0.5c0,0,2.7,2.5,4.4-0.2
				l-0.4-0.4C499.7,231.3,497.4,229.2,497.3,229.1z M487,229.9l0.1,0.3c0.1-0.1,2.4-1.3,2.5-3.4l-0.3,0
				C489.2,228.7,487,229.9,487,229.9z M488.3,232.6l0,0.4c0.1,0,2.2-0.2,2.5-2.1l-0.3-0.1C490.2,232.4,488.3,232.6,488.3,232.6
				L488.3,232.6z M488.7,235.5l0,0.4c0.1,0,2.4,0.2,3.2-1.6l-0.2-0.2C491,235.6,488.7,235.5,488.7,235.5z M506.4,233.5
				c0,0.1,1,1.4,2.2,1.3c0.6,0,1.1-0.4,1.5-1l-0.4-0.4c-0.3,0.5-0.7,0.8-1.2,0.8c-1,0-1.9-1.1-1.9-1.1L506.4,233.5L506.4,233.5z"/>
		</g>
		<g>
			<path d="M0,2.3"/>
			<path d="M0,2.3"/>
		</g>
		<g>
			<path style="stroke:#000000;stroke-width:0.78;stroke-miterlimit:4.8;" d="M584.5,218.3c0,1.1-0.6,1.9-1.2,1.9
				c-0.7,0-1.2-0.9-1.2-1.9c0-1.1,0.6-2,1.2-2C584,216.3,584.5,217.2,584.5,218.3z M580.5,215.9c0,1.1-0.6,1.9-1.2,1.9
				c-0.7,0-1.2-0.9-1.2-1.9c0-1.1,0.6-2,1.2-2C579.9,213.9,580.5,214.8,580.5,215.9z"/>
			<path style="stroke:#000000;stroke-width:0.78;stroke-miterlimit:4.8;" d="M582.6,216.6c0,1.1-0.6,1.9-1.2,1.9
				c-0.7,0-1.2-0.9-1.2-1.9s0.6-2,1.2-2C582,214.7,582.6,215.5,582.6,216.6z"/>
			<path style="stroke:#000000;stroke-width:0.78;stroke-miterlimit:4.8;" d="M580.5,218.4c0,1.1-0.6,2-1.2,2s-1.2-0.9-1.2-2
				c0-1.1,0.6-1.9,1.2-1.9S580.5,217.3,580.5,218.4z"/>
			<path style="stroke:#000000;stroke-width:0.78;stroke-miterlimit:4.8;" d="M582.5,219.9c0,1.1-0.6,2-1.2,2c-0.7,0-1.2-0.9-1.2-2
				s0.6-1.9,1.2-1.9C581.9,217.9,582.5,218.8,582.5,219.9z"/>
		</g>
		<path style="fill:#00AD50;stroke:#000000;stroke-width:0.78;stroke-miterlimit:4.8;" d="M583.1,198.6c0,0,12.6-23.3,26,0.9
			c0,0,0.1,2.4-1.1,5l-0.3-1.9l-0.8,0.3l-0.2-1.2l-1.5-0.1l0.5-2.6l-1.6,1.7l0.2-1.8l-1.8,2.4l0.2-5.1l-1.9,4.4l0.2-3l-0.7,1.3
			l-0.4-1.7l-0.6,1.7l-0.9-0.9v1.2l-1.6-1.8l-0.6,2.4l-0.8-2.5l-0.2,1.8l-0.8-2.1l-0.1,2.3l-2.6-1.5l0.6,2.1l-1.2-1.2l0.2,1.2
			l-1.7-0.4l0.1,1.3l-1.8-0.5l0.3,1.2l-2.5-0.4l0.9,1.4l-0.3,0.5c0,0,13.6-6,14.5,16.6l-2.5,1.6l0.7-1.8l-0.7-0.6l-2-2.1l0.6-2.9
			l-0.7,0.3l-0.1-1.7l-0.3,0.3l-0.8-1.7l-0.2,0.6l-0.6-2l-0.6,1.4l-0.3-3.3l-0.9,2.1l-0.1-1.2l-0.3,0.8l-1.1-1.8l-0.3,1.2l-0.5-0.9
			l-0.3,1l-1.2-1.5v1.2l-0.8-0.9l-0.3,0.6l-1.9-1.4l-0.1,1.2l-1-1.2l-0.3,1.2c0,0,12.3,9.3,8.5,24.5l-0.7,1.9l-0.2-5.1l-1.1,2.7
			l0.8-5.9l-0.8,1l-0.1-2.2l-1,2.2l-0.3-2.5l-0.4,0.8l-0.7-3.9l-0.6,1.7l-0.9-4.4l-0.7,1.8l-0.5-3.7l-0.5,2.3l-1.4-3.3l-0.2,1.3
			l-0.8-2.7l-0.5,0.9c0,0-2.3-0.2-2.9-0.9c-0.7-0.7-2.6,4.5-2.6,4.5l0.2-3.2l-0.8,2.1v-2.1l-1.5,6.3l-0.3-4.5l-0.8,3.9l-0.3-1.2
			l-0.2,1.7l-0.5-0.6l-0.4,1.8l-0.7-0.7v2.4l-0.7-1.2l-0.6,3.6l-0.3-1.5v1.6l-0.6-0.9l-0.6,3.6l-0.8-1.5l-0.1,2.5l0.3,2l-0.9-0.6
			l0.3,3.1c0,0-3.5-8.7,0.7-17.1c4.2-8.4,9.8-10.7,9.8-10.7l-0.6-0.7l-0.1-0.8l-3.4,2.3l0.1-1.4l-0.9,1.1l-0.2-1.5l-0.6,1.4
			l-0.1-0.6l-0.8,1.7l-0.5-2.4l-0.6,2.9l-0.5-2l-1.2,4.2v-3.2l-0.9,3.3l-0.3-3.6l-0.7,4.2V209l-1,3.8l-0.7-3.6l-0.5,3.4l-0.7-2.7
			l-0.7,4.1l-1-3.6l-0.6,5.4l-0.7-2.1l-0.1,3.9l-0.8-2.4l0.8,5.1l-1-1.9l0.3,3.2l-1.5-3.5l0.1,4.1l-0.8-1.4l-0.3,1.5
			c0,0-0.3-15.6,7.7-18.6c8-3,13.2,0.9,13.2,0.9l-3.1-3.3l0.3-1.1h-1.1l0.5-1.2l-2.4,0.2l0.7-1.2l-1.8,0.3v-0.7l-1.1,1.2l0.5-1.3
			l-1.6,1.3l-0.1-2l-0.8,1.7l-0.4-1.8l-3.6,4.8l1-5l-0.7,1.1l-0.1-1.1l-1,2.1l-0.2-1.5l-0.5,1.8l-0.3-2.1l-0.8,2.1l-0.8-1.9
			l-0.3,2.6l-0.6-1.4l-0.7,2l-0.9-1.2l-0.1,1.2l-1.8-1.1l0.5,1.8l-1.4-1.5l-0.3,2.4l-0.8-1.2l-0.6,3l-0.6-2.9l-0.6,2.3
			c0,0,7.1-24.1,25-8.4c0,0,1.9,2.5,2.4,4.3c0.5,1.8,0.1,0.3,0.1,0.3l-0.3-16.7l0.7,7.2l0.5-2.6l-0.1,3.8l1.8-5.3
			c0,0-2.1,8.7-1.4,11.9c0,0,0.8-10.1,3.5-11.3l-2.5,7.2l0.8-0.2l-0.6,1.5h0.7l-0.8,2.4l-0.4,1.2l0.5,1.2L583.1,198.6L583.1,198.6z"
			/>
		<path style="fill:#00AD50;stroke:#000000;stroke-width:0.78;stroke-miterlimit:4.8;" d="M0,2.3"/>
		<path d="M578.3,200.4c0,0,0.3,0.9,0.6,1.6c-0.1-0.1-0.9-0.5-0.9-0.5l2.6,6.1c0,0,0.3-0.5,0.3-0.6c-0.3,0.9-0.5,1.8-0.5,1.8
			l0.5,0.2l1.1-3.8l-0.4-0.3l-0.9,1.5c-0.2-0.6-1.1-2.7-1.6-3.7c0.1,0,0.7,0.4,0.7,0.4s-0.5-1.4-0.7-2.1l1,0.8v-2.3h-0.5v1.1
			l-1.6-1.3L578.3,200.4L578.3,200.4z M576.6,208.1l0.2,0.6c0.7-0.4,1.3-0.5,1.7-0.2c0.5,0.3,0.7,1,0.7,1l0.5-0.2c0,0-0.2-1-0.9-1.5
			C578.2,207.5,577.5,207.6,576.6,208.1z M578.6,214.6l-0.4-3.4l0.5-0.1l0.4,3.4L578.6,214.6z M582.1,214l-0.6-2.6l0.5-0.2l0.6,2.6
			L582.1,214z M583.4,215.9l-0.5-2.6l0.5-0.2l0.5,2.6L583.4,215.9z"/>
		<path style="fill:#00AD50;stroke:#000000;stroke-width:0.78;stroke-miterlimit:4.8;" d="M486.8,292.9c0,0-2.1-1.3-3.1-0.3
			c-1,0.9-0.8,2.3-1.7,2.2c0,0,3.2,0.9,3.9-0.2c0.7-1.1,0.8-1.4,0.8-1.4 M487.2,294.1c0,0-1.4,2.5-0.9,3.9c0.5,1.5,1.5,1.6,1.3,2.6
			c0,0,1.4-4,0.7-5.1c-0.7-1.1-0.9-1.4-0.9-1.4 M484.9,287.2c0,0-2.2,0.9-2.5,2.5c-0.3,1.5,0.5,2.5-0.1,3.1c0,0,2.9-2.1,2.8-3.6
			c0-1.5-0.1-1.8-0.1-1.8 M486.2,288.3c0,0,1.1-2.8,0.4-4.1c-0.7-1.3-1.7-1.2-1.6-2.3c0,0-0.8,4.2,0,5.2c0.8,1,1.1,1.2,1.1,1.2
			 M484,287.3c0,0,0.1-3.1-1-3.9c-1-0.8-1.9-0.1-2.2-1.2c0,0,0.6,4.3,1.7,4.7c1,0.4,1.3,0.4,1.3,0.4 M487.8,292.4
			c0,0,2.4-1.1,2.6,2.4c0.2,3.5-0.1,2.3-0.1,2.3s-1.3-3.8-2.7-4.4L487.8,292.4L487.8,292.4z"/>
		<path d="M487.2,294.1c0,0.1,0.3,2.7,0.3,2.7l0.3-0.1l-0.3-2.6c0,0,0.8-5.8,0.8-5.8l-0.3-0.1L487.2,294.1L487.2,294.1z"/>
		<path d="M485,293.3l-0.1,0.4c1.2,0.5,2.8-1.2,2.9-1.2l-0.2-0.4C487.5,292.1,486,293.8,485,293.3z M488,289.9l-5.5-3.7l0.2-0.6
			l5.5,3.7L488,289.9z"/>
		<path d="M484.1,289.1l-0.3-0.5l1.1-1.4l0.3,0.5L484.1,289.1z M486,288.3l-1.2-3.3l0.4-0.3l1.2,3.3L486,288.3z M487.6,292.4l0,0.6
			c1.5-0.1,1.8,1.1,1.9,1.2l0.5-0.1C489.9,293.7,489.3,292.3,487.6,292.4L487.6,292.4z"/>
		<path style="fill:#FFFFFF;stroke:#000000;stroke-miterlimit:4.8;" d="M512.7,293.9c1.8-1.4,2.2-6.1,2.2-6.1
			c-0.4,1.7-3.8,3.5-3.8,3.5c2.5-2,5.5-11.2,5.5-11.2c-0.8,3.3-7.3,6-11.4,9.1c-4.2,3.1-2,12-2,12c-1.2-1.1-3.4-5.8-3.9-10
			c-0.4-4.2-1.7-5.8-4.5-6.3c-2.8-0.5-4.5,3.8-4.5,3.8l-4.2,2.9l4.3,0.2c0,0,3.1,1.4,3.1,4.5c0,3.2-2.7,16,1.7,23.1
			c3.1,5,14.5,7.8,14.5,7.8"/>
		<path style="fill:#FFFFFF;stroke:#000000;stroke-miterlimit:4.8;" d="M504.3,303.8c0,0,0.9-5.7,3.7-5.5c2.8,0.2,3.6-4.3,5.3-4.9
			c1.7-0.7,10.3-3.8,11.3-9.3c0,0-0.8,9.1-8.7,13.6c0,0,6.4-2.8,7.1-4.6c0,0-2.8,8.1-9.8,9.4c0,0,6.5-0.7,7.4-3c0,0-2.9,5.1-7.7,5.8
			c0,0,4.4,2.4,5.6,0.4c0,0-2.4,3.8-5.4,4.1l0.8,0.3c0,0-2.8,4.4-6,1.5c-3.1-3-3.2,0.8-3.2,0.8"/>
		<path style="fill:#FFFFFF;stroke:#000000;stroke-miterlimit:4.8;" d="M510.8,312.4c0,0,3.7,8.1,4,12.5c0,0,7,10.2,9.6,10.8
			c0,0-1.2,0.7-3.5-1.8c0,0,1.9,2.6,2.3,2.7c0.4,0.1-1.5-0.2-1.8-0.9c0,0,0.8,1.6,1.3,1.7c0.5,0.2-0.5-0.2-0.5-0.2s-0.9-0.2-1.4-0.7
			c-0.4-0.5-0.1,1.3-0.1,1.3s-1.1-0.4-1.5-0.9c-0.4-0.5,0.1,1.1,0.1,1.1l-0.9-0.3l-0.7,0.6c0,0-0.1,0.6-0.5,0.1
			c-0.4-0.5-1.2,0-1.2,0s-0.6,0.7-0.9,0.2c-0.3-0.5-1.4,1.9-1.4,1.9l-4.6-14.7"/>
		<path d="M515.1,339l-5.8-14.6l0.6-0.4l5.8,14.6L515.1,339z M520.2,338l-9.9-14.7l0.5-0.6l9.9,14.7L520.2,338z M522.4,336.7
			l-11.3-14l0.5-0.7l11.3,14L522.4,336.7z M494.1,289.6c0,0-0.7-1.8-1.4-1.1c-0.6,0.7-1,0.8-1.1,0.7c0,0,0.6,0,1-0.4
			C492.9,288.3,493.6,288.6,494.1,289.6L494.1,289.6z M490.1,288.8c0,0,0.4,1.1,0.4,1.1c0,0-0.5,1.8-0.5,1.8l0.3,0.1l0.5-2
			c0-0.2-0.4-1.3-0.4-1.3L490.1,288.8z"/>
		<path d="M493.9,289.3c0,0-0.6,0.9-1.3,0.6l-0.8-0.2c0,0,0.6,0,1.1,0.1C493.3,289.8,493.9,289.5,493.9,289.3L493.9,289.3z"/>
		<path d="M493.7,289.5c0,0-0.7-1-1.1-0.7c0,0,0.8-0.3,1.3,0.6L493.7,289.5z"/>
		<path d="M493.6,289.3c0,0-0.8,0.7-1.6-0.1l-0.1-0.1l0.1,0C492,289.1,493.1,289.7,493.6,289.3z"/>
		<ellipse cx="492.9" cy="289.1" rx="0.2" ry="0.3"/>
		<path d="M493.6,316.1c0,0-0.6,1.5-0.3,2.3c0.3,0.9,1.7,1.3,1.9,2.5c0.2,1.2,0.7,1.2,1.3,1c0.7-0.2,0.8-0.2,0.8-0.2s-2.8-2-3.5-5.1
			L493.6,316.1L493.6,316.1z"/>
		<g>
			<path style="fill:#862633;stroke:#000000;stroke-width:0.48;stroke-miterlimit:4.8;" d="M583.3,286.4c0,0,5.1-8.8,9.5-6.5
				c4.5,2.3,7.4,3.4,7.4,3.4s0.1,6-2.3,6c-2.4,0-4.7-5.9-6.8-4.2c-2.2,1.8-4,4.2-4.1,5C586.8,290.9,581.2,291.1,583.3,286.4
				L583.3,286.4z"/>
			<path style="fill:#862633;stroke:#000000;stroke-width:0.78;stroke-miterlimit:4.8;" d="M564.1,329c0,0-1.4,1.9-0.8,2.4
				c0.6,0.5,1.9-0.1,1.9-0.7C565.2,330,564.4,328.8,564.1,329z"/>
			<path style="fill:#862633;stroke:#000000;stroke-width:0.78;stroke-miterlimit:4.8;" d="M563,330.9c0,0-2.6-2-4.6,2.7
				c-2,4.6-3.7,12.2-4.9,13.2c-1.2,1,11.5-7.4,11.7-11c0,0,0.8-4.6-0.5-4.5C563.3,331.4,563.2,331.6,563,330.9L563,330.9z"/>
			<path style="fill:#862633;stroke:#000000;stroke-width:0.48;stroke-miterlimit:4.8;" d="M563.3,331.4c0,0-2.7,0.8-3.2,5.8
				c-0.6,5-4.3,7.6-4.5,7.8 M600.2,283.3c0,0-4,1.9-3.3,5.6"/>
		</g>
		<path style="fill:#FEDD00;stroke:#000000;stroke-width:0.48;stroke-miterlimit:4.8;" d="M569.1,294.2c0,0,0.1-12.7,8-12.2
			c1.5,0.2,0.8,2.5,0.8,2.5s1.7-1.6,2.5,0.9c0,0,2.5-1.5,2.8,1.8c0,0,2.7-0.5,2.3,2.4c0,0,1.8-0.6,1.8,1.5c0,0,2.1-1.1,1.9,1.8
			c0,0,2.3-2,2,1.7c0,0,2.4-2.2,3.2,1.5c0.8,3.7-2.4,11.6-5.6,13.6"/>
		<path d="M590.9,295c0,0.1,1.1,10-3.2,13.6l0.1,0.3c4.4-3.7,3.3-13.8,3.3-13.9L590.9,295z M585.8,305.7l0.2,0.3
			c2.7-3.4,3.2-12.7,3.3-13.1l-0.3,0C589,293,588.4,302.4,585.8,305.7z M583.3,303.5l0.3,0c0.3-5.7,3.7-12.3,3.8-12.3l-0.2-0.2
			C587.1,291.1,583.7,297.7,583.3,303.5z M581.4,301.9l0.3,0c0.5-6.9,3.9-12.1,4-12.1l-0.2-0.2C585.4,289.6,581.9,294.8,581.4,301.9
			L581.4,301.9z M578.6,299.6l0.3,0c0.3-8.2,4.3-12.2,4.3-12.2l-0.2-0.3C583.1,287.1,578.9,291.2,578.6,299.6L578.6,299.6z
			 M576.1,297.5l0.3,0c-0.2-7.4,4.1-11.9,4.1-11.9l-0.2-0.3C580.3,285.4,575.9,289.9,576.1,297.5L576.1,297.5z M571.6,294.8l0.3,0
			c0.7-8,6.1-10.1,6.2-10.2l-0.1-0.4C577.9,284.4,572.3,286.5,571.6,294.8z"/>
		<path style="fill:#00AD50;stroke:#000000;stroke-width:0.48;stroke-miterlimit:4.8;" d="M564.5,309.6c0,0-1.3-11.8,4-15.5
			c0,0,1-0.3,1.5,1.4c0,0,2.8-1.6,2.9,1.6c0,0,1.4-1.5,1.7,0.6c0,0,3-0.8,2.4,2.1c0,0,2.5-0.9,2.3,1.9c0,0,2.5-1.2,2.1,1.3
			c0,0,2.7-0.8,2,2c0,0,3.3-0.5,2.3,2.6c0,0,2.4-0.8,1.9,1.7c0,0,3.2,0.7,1.7,3.4c-1.5,2.7-5.2,6.8-8.8,8.5"/>
		<path style="fill:#00AD50;stroke:#000000;stroke-width:0.48;stroke-miterlimit:4.8;" d="M561.6,321.5c0,0-2.2-9.8,2-12.3
			c0,0,0.8-0.3,0.9,0.7c0,0,0.9-1.6,1.6-0.2c0,0,2.1-1.3,2.6,0.7c0,0,1.4-1.6,2.1,0.7c0,0,1.3-0.7,1.3,1.1c0,0,1.8-1,1.8,1.2
			c0,0,1.7-0.9,1.4,1.6c0,0,2.7,0.6,1.9,2.2c0,0,2.4,0.8,1.5,2.1c0,0,2.6-0.4,1.2,1.9c0,0,2-0.8,0.8,2c-1.1,2.9-4.6,6-7.1,6.4"/>
		<path style="fill:#00AD50;stroke:#000000;stroke-width:0.48;stroke-miterlimit:4.8;" d="M564.2,329.3c0,0-4.6-5.9-2.4-7.7
			c0,0,1,0.4,1.3,1.7c0,0,1.1-2.1,1.8,0.1c0,0,1.7-0.7,1.7,0.7l1.3,1.3c0,0,1.5-0.2,1.3,1.1c0,0,1.7-0.3,1.6,0.9
			c0,0,1.5,0.1,1.3,1.4c0,0,2.5,0.6,1.4,2.2c0,0-4.4,1.2-7.5-0.5C566,330.6,564.4,329.8,564.2,329.3L564.2,329.3z"/>
		<path d="M580.1,319.5l0.1,0.3c2.7-1.4,7.5-10,7.7-10.4l-0.2-0.2C587.6,309.3,582.7,318.1,580.1,319.5L580.1,319.5z M578.5,317.9
			l0.1,0.3c2.4-1.8,7.1-10.1,7.3-10.4l-0.2-0.2C585.7,307.6,580.8,316.2,578.5,317.9L578.5,317.9z M577.2,317.2l0.2,0.3
			c2.5-2.8,6.2-11.9,6.3-12.3l-0.2-0.2C583.4,305.1,579.6,314.4,577.2,317.2L577.2,317.2z M575.9,315l0.3,0.1
			c0.5-4.6,5.4-11.9,5.4-12l-0.2-0.2C581.2,303.2,576.4,310.3,575.9,315L575.9,315z M566.1,309.4l0.3,0c-0.4-6.5,3.7-13.7,3.8-13.8
			l-0.2-0.2C569.9,295.4,565.7,302.8,566.1,309.4L566.1,309.4z M568.7,310l0.3-0.1c-0.7-5.2,4-12.7,4-12.8l-0.2-0.2
			C572.6,297.3,568,304.6,568.7,310L568.7,310z M572.7,311.9l0.3,0c-0.1-6,4.2-12,4.2-12l-0.2-0.3
			C577,299.7,572.6,305.8,572.7,311.9z M563.2,322.8l0.3-0.1c-1.6-5.5,1.2-12.6,1.2-12.7l-0.2-0.2
			C564.4,309.9,561.6,317.1,563.2,322.8z M565,323.1l0.3-0.1c-1.4-5.6,1-13.2,1-13.2l-0.3-0.1C566,309.7,563.6,317.4,565,323.1
			L565,323.1z M572.5,328.7l0.1,0.3c4.5-2.1,7.4-7.5,7.4-7.6l-0.2-0.2C579.8,321.3,576.9,326.6,572.5,328.7L572.5,328.7z
			 M571.6,327.4l0.1,0.3c3.6-2.1,6.9-8.1,6.9-8.1l-0.2-0.2C578.4,319.5,575.1,325.4,571.6,327.4L571.6,327.4z M570.7,327l0.2,0.3
			c2.8-2.7,6.4-9.5,6.4-9.6l-0.2-0.2C577,317.6,573.5,324.4,570.7,327L570.7,327z M566.3,323.6l0.3-0.1c-0.6-5.9,2.3-12.9,2.3-13
			l-0.2-0.2C568.6,310.4,565.6,317.5,566.3,323.6L566.3,323.6z M568.2,325.2l0.2,0.3c2.9-3.4,3.9-12.7,3.9-13.1l-0.3-0.1
			C572,312.4,571,321.8,568.2,325.2z"/>
		<path d="M570.2,326.3l0.2,0.3c4.1-3.9,5.2-11.4,5.2-11.4l-0.3-0.1C575.2,315.1,574.1,322.4,570.2,326.3L570.2,326.3z M570.6,310.1
			c0,0.3,0,0.7,0,1c0,0-3.1,13.2-3.1,13.2l0.3,0.1l3.1-13.3c-0.5-6.4,3.8-13.4,3.8-13.5l-0.2-0.2C574.5,297.6,570.6,304,570.6,310.1
			z"/>
		<path d="M573.8,313.4c0,0.2-1,9.3-4.7,12.6l0.2,0.3c3.8-3.4,4.7-12.4,4.7-12.8c1.6-2.6,5.4-11.6,5.4-11.7l-0.2-0.2
			C579.2,301.7,575.5,310.7,573.8,313.4L573.8,313.4z M563,323.3c0,0.2,0.6,4.7,1.3,6.3l0.2-0.2c-0.7-1.5-1.3-6.1-1.3-6.2L563,323.3
			z M564.7,323.3c0,2.2,0,5.9-0.1,6.2l0.3,0.1c0.1-0.5,0.1-5.4,0.1-6.4L564.7,323.3L564.7,323.3z"/>
		<path d="M564.9,329.8l0.3,0.1c1.2-3.4,1.5-5.8,1.6-5.8l-0.3-0.1C566.4,324.1,566,326.4,564.9,329.8z"/>
		<path d="M565.1,329.9l0.1,0.3c2.2-1.7,2.7-4.6,2.7-4.8l-0.3-0.1C567.7,325.4,567.2,328.3,565.1,329.9L565.1,329.9z"/>
		<path d="M565.5,330.1l0,0.4c2.2-0.3,3.6-3.8,3.7-3.9l-0.2-0.2C569,326.4,567.5,329.9,565.5,330.1z"/>
		<path d="M565.8,330.3l0,0.4c3.5-0.3,5-3,5.1-3.1l-0.2-0.2C570.6,327.3,569.1,330,565.8,330.3L565.8,330.3z"/>
		<path d="M566,330.4l-0.1,0.4c0.2,0.1,4.6,1.3,6.1-1.7l-0.2-0.2C570.4,331.6,566,330.4,566,330.4z"/>
		<path style="fill:none;stroke:#000000;stroke-width:4.2;stroke-miterlimit:4.8;" d="M467.3,116.9v163.3
			c0,53.4,72.7,85.1,72.7,85.1s72.7-31.7,72.7-85.1V116.9H467.3z"/>
	</g>
</g>
</svg>
