<?xml version="1.0" encoding="utf-8"?>
<!-- Generator: Adobe Illustrator 25.2.1, SVG Export Plug-In . SVG Version: 6.00 Build 0)  -->
<svg version="1.1" id="Layer_1" xmlns="http://www.w3.org/2000/svg" xmlns:xlink="http://www.w3.org/1999/xlink" x="0px" y="0px"
	 viewBox="0 0 720 480" style="enable-background:new 0 0 720 480;" xml:space="preserve">
<g>
	<rect style="fill:#E32118;" width="720" height="480"/>
	<rect style="fill:#FFFFFF;" width="720" height="320"/>
	<rect style="fill:#3E9A00;" width="720" height="160"/>
	<path style="fill:#0073CE;" d="M0,0v480l180-240L0,0z"/>
	<g>
		<g id="shield">
			<path style="fill:#FFFFFF;stroke:#000000;stroke-width:4.8;" d="M321.6,191.8h76.6V272c0,27-35.2,6.2-38.2,20.6
				c-5.2-14.8-38.2,6.6-38.2-22.2C321.8,242.4,321.6,191.8,321.6,191.8z"/>
			<path style="fill:#73452B;stroke:#000000;" d="M365.4,279.8c0,0-1,1-2.8,0.2c-1.8-0.8-2-51.4-2-51.4c4-4.4,7.2-5.8,7.2-5.8l2.4,2
				c-9,4.6-8.2,11.2-7.4,22.6c0.2,4.2,0.2,9.6,1.2,14.8c1.4,6.6,4.2,12.2,4.4,16.4C368.6,281.2,365.4,279.8,365.4,279.8z"/>
			<path style="fill:#73452B;stroke:#000000;" d="M359.2,221.6h3.6c-3,29-0.4,46.2-0.4,54.6c0,2.8,1.6,3.8,1.4,3.8
				c-3.6,4-5.4-0.2-5.4-0.2L359.2,221.6z"/>
			<path style="fill:#A36629;stroke:#000000;" d="M353.6,279.8c-3.4,1.6-3.8-1.6-3.6-2c7.4-15,10.6-48,3.8-51.6l0.4-3.2
				c2.6,0.8,5,4.2,5,4.2c1,37,0,52.2-0.6,52.8c-3.6,3.8-5-0.6-5.2-1"/>
			<path style="fill:none;stroke:#000000;" d="M353.4,279.2c-0.6-3.2,5.2-11.4,4.8-20"/>
			<path style="fill:none;stroke:#000000;" d="M363.2,266.2c1.8,5,2.6,9.4,2.2,13.6"/>
			<path style="fill:#009A3B;stroke:#000000;" d="M371,208c1.2-1.4,1.2-1.4,3.4-1.4c0.4-3,5.4-3,5.8,0.8c4-0.8,4.8,1.6,3.2,4
				c3.8-1,7.2,0,6.2,4.4c6.8,1.8,4.2,6.6,1.2,7.6c-0.4,3-3.2,4-7,2.8c-4.8,3.4-7.6,2.2-9.8-1.2c-5.4,0.8-5.8-0.4-8.2-3.4
				c-4.2,1.8-5,1.8-8.6-0.4c-0.2,2.8-1.2,2-3,1.8c0.2,3.6-1.2,5.2-4.4,4c2.4,5-3.8,7.2-6.8,3c-2.8,0.2-3-0.6-4.4-1.6
				c-1.2,4-5.6,3.4-6.4,1.2c-5.6-0.8-5-3.8-0.4-4c0.4-3.2,3.2-2.6,5-2.2c0.2-2,1.4-1.6,2.4-1.2c-0.6-1.4-0.2-2.2,1.6-2.6
				c-2.6-3.4-1-4.6,1.6-5.8c-1.4-3.2,1-3,2.8-3.2c-0.2-3.4,0.8-4,4.4-4.4c-0.4-1.2,0.2-2.2,2.2-2.2c-1.2-3.4,0.4-4.2,4-3.6
				c0.6-4.9,11.2-2.6,10.4,4.2C369.2,205,370.2,205.6,371,208z"/>
			<g>
				<path style="fill:none;stroke:#000000;" d="M349.6,206.2c0.8,0.4,1.8,0,2,2.2c1.6-2.8,3.6-1.2,3.6,2"/>
				<path style="fill:none;stroke:#000000;" d="M366.2,204.6c-0.8,1.2-3.8,1.2-3.4,4.4c-1-1.4-3-1.8-3.8-0.4"/>
				<path style="fill:none;stroke:#000000;" d="M371,208c0,0.8-0.2,3.2-1,4.4"/>
				<path style="fill:none;stroke:#000000;" d="M383.4,211.4c0.2,0.2-2.8,0-4.2,1"/>
				<path style="fill:none;stroke:#000000;" d="M390.8,223.4c-0.8-0.4-2.4-1.4-3.6,0.2c0-0.8,0-3-2.2-3"/>
				<path style="fill:none;stroke:#000000;" d="M383.8,226.2c0-2-0.4-2.6-0.8-3.2"/>
				<path style="fill:none;stroke:#000000;" d="M377.2,223.4c-1.6-1.2-3.2,0.6-3.2,1.6"/>
				<path style="fill:none;stroke:#000000;" d="M365.6,221.6c0-0.8-0.6-2.4,0.8-3"/>
				<path style="fill:none;stroke:#000000;" d="M342.8,230c0.4-2,1.8-2,1.6-3c-0.2-1.6-2-3-4.2-0.8"/>
				<path style="fill:none;stroke:#000000;" d="M344.4,227c1.2-0.4,2.4-0.2,2.8,0.4"/>
				<path style="fill:none;stroke:#000000;" d="M341,219.6c0.8-0.8,2.8-0.6,4,0"/>
				<path style="fill:none;stroke:#000000;" d="M345,214.8c1,0,2.8-0.4,3.4,1.4c2.2-3.4,3.8-3,4.2-2.2"/>
				<path style="fill:none;stroke:#000000;" d="M356.6,213.6c1.6-0.6,4.4,1,6,3.8c0.8-2.2,2-1.8,3.2-2"/>
				<path style="fill:none;stroke:#000000;" d="M373.4,217.4c2.6-1.2,4.2,1.2,5,2.2c1.2-1.6,2.2-1.6,3.4-1.6"/>
				<path style="fill:none;stroke:#000000;" d="M349.2,222.2c0.6-1,2-1.2,3-0.6c-0.2-1.8,1-2.6,1.8-2.2"/>
			</g>
		</g>
		<g id="stars">
			<path style="fill:#FFD700;stroke:#000000;stroke-width:3.5;" d="M357.4,180.5l-4.4,0.2l-2.2,3.9l-2.4-3.8l-4.4,0.2l2-4l-2.4-3.8
				l4.6-0.2l2-3.9l2.4,3.8l4.4-0.2l-2,4L357.4,180.5z"/>
			<path style="fill:#FFD700;stroke:#000000;stroke-width:3.5;" d="M338.6,182l-4.4,1.1l-1.2,4.3l-3.2-3.2l-4.2,1l1.2-4.3l-3-3.2
				l4.2-1.1l1.2-4.3l3.2,3.2l4.4-1l-1.4,4.3L338.6,182z"/>
			<path style="fill:#FFD700;stroke:#000000;stroke-width:3.5;" d="M320.4,185.7l-4,2l-0.2,4.4l-3.8-2.4l-4,2l0.4-4.4l-3.8-2.5l4-2
				l0.4-4.4l3.6,2.4l4-2l-0.2,4.4L320.4,185.7z"/>
			<path style="fill:#FFD700;stroke:#000000;stroke-width:3.5;" d="M363.2,180.5l4.4,0.2l2,3.9l2.4-3.8l4.4,0.2l-2-4l2.4-3.8
				l-4.4-0.2l-2.2-3.9l-2.4,3.8l-4.4-0.2l2,4L363.2,180.5z"/>
			<path style="fill:#FFD700;stroke:#000000;stroke-width:3.5;" d="M382,182l4.2,1.1l1.2,4.3l3.2-3.2l4.2,1l-1.2-4.3l3.2-3.2
				l-4.4-1.1l-1.2-4.3l-3.2,3.2l-4.2-1l1.2,4.3L382,182z"/>
			<path style="fill:#FFD700;stroke:#000000;stroke-width:3.5;" d="M400,185.7l4,2l0.2,4.4l3.8-2.4l4,2l-0.2-4.4l3.6-2.5l-4-2
				l-0.2-4.4l-3.8,2.4l-4-2l0.4,4.4L400,185.7z"/>
		</g>
		<g id="motto">
			<g>
				<path style="fill:#FFFFFF;stroke:#000000;stroke-width:3.5;" d="M405.4,270.4l5,7.2l4.6-6.8l-3.2-5.8L405.4,270.4z"/>
				<path style="fill:#FFFFFF;stroke:#000000;stroke-width:3.5;" d="M373.6,291.4l0.4,7.2c0,0,2,0,3.8-0.6c1.6-0.6,3-1.8,3-1.8
					l-0.2-3.8L373.6,291.4z"/>
				<path style="fill:#FFFFFF;stroke:#000000;stroke-width:3.5;" d="M346.8,291.4l-0.4,7c0,0-1.8,0-3.6-0.4c-1.6-0.4-3-1.4-3-1.4
					l-2-4.8L346.8,291.4z"/>
				<path style="fill:#FFFFFF;stroke:#000000;stroke-width:3.5;" d="M314.6,270.4l-5.2,7.2l-5.6-9.2l4.2-4.4L314.6,270.4z"/>
				<path style="fill:#FFFFFF;stroke:#000000;stroke-width:3.5;" d="M339.6,305.8c0,6.8,41.2,6.8,41.2,0v-9.6c0,5-41.2,4-41.2,0
					V305.8z"/>
				<path style="fill:#FFFFFF;stroke:#000000;stroke-width:3.5;" d="M302.8,283.6c3.6,18.4,36.8,18.8,36.8,18.8v-6.2
					c-0.8-2.4,0.6-3.2,6-4c2.2-0.2,1.2-3.4,1.2-3.4s-14.4,2.6-24.6-1.4c-13.8-5.6-15.8-16.4-15.8-16.4S305.4,279.4,302.8,283.6z"/>
				<path style="fill:#FFFFFF;stroke:#000000;stroke-width:3.5;" d="M417.4,283.6c-3.4,18.4-36.6,18.8-36.6,18.8v-6.2
					c0.6-2.4-0.8-3.2-6.2-4c-2.2-0.2-1-3.4-1-3.4s14.4,2.6,24.6-1.4c13.6-5.6,15.2-16.4,15.2-16.4S414.8,279.4,417.4,283.6z"/>
				<path style="fill:#FFFFFF;stroke:#000000;stroke-width:3.5;" d="M305.4,276.6c-9.2-5-2-10.2-1.2-25c1.4,9,11.6,12.8,10.4,18.6
					c-4.2,0.2-6.2-6.2-8.2,0.8L305.4,276.6z"/>
				<path style="fill:#FFFFFF;stroke:#000000;stroke-width:3.5;" d="M414.8,276.6c9.2-5.2,1.6-10.2,0.8-25
					c-1.4,9-11.4,12.8-10.2,18.6c4,0.2,6-6.2,8,0.8l1.4,5.4V276.6z"/>
			</g>
			<g>
				<path d="M311,283.4l1,0.8l-2.2,2.4c-0.9,1-1.1,1.6-0.5,2.2c0.8,0.7,1.3,0.5,2.1-0.4l2.4-2.6l0.8,0.8l-2.4,2.8
					c-1.3,1.5-2.5,1.2-3.5,0.2c-0.9-0.8-1.4-2-0.1-3.5L311,283.4L311,283.4z"/>
				<path d="M315,286.8l1,0.6l-0.2,4.8l2.2-3.4l1,0.6l-3.2,5.2l-1.2-0.6l0.2-4.8l-2.2,3.4l-1-0.6L315,286.8z"/>
				<path d="M316.8,295.2l2.8-5.6l1,0.6l-2.6,5.4L316.8,295.2z"/>
				<path d="M321.2,290.4l-2.2,5.8l2.2,0.8c2.1,0.8,3-0.2,3.7-1.9c0.7-1.8,0.4-3.1-1.7-3.9L321.2,290.4z M322,291.8
					c2.1,0.7,2.2,1.5,1.6,2.9c-0.5,1.4-1.1,1.9-3,0.9L322,291.8z"/>
				<path d="M327.8,292.6l-3.6,5.4l1.4,0.4l0.8-1.4l2.4,0.6l0.2,1.4l1.4,0.2l-1.4-6.4L327.8,292.6z M328.2,294l0.4,2.4l-1.6-0.2
					L328.2,294z"/>
				<path d="M331.2,293.1l-0.2,6.2l2.4,0c2.2,0,2.8-1.1,2.9-3c0.1-1.9-0.6-3-2.9-3.1L331.2,293.1L331.2,293.1z M332.4,294.2
					c2.2,0,2.6,0.7,2.5,2.2c-0.1,1.5-0.4,2.1-2.6,1.8L332.4,294.2L332.4,294.2z"/>
				<path d="M352.2,301.8v6.4h1.4v-2.4c0,0,1.2,0.1,2.2-0.2c0.8-0.2,1.3-0.7,1.4-2c0-1.2-0.7-1.9-1.9-1.9H352.2L352.2,301.8z
					 M353.6,302.8l1.4,0c1.2,0,1,1.8,0,1.8h-1.4L353.6,302.8L353.6,302.8z"/>
				<path d="M359.4,301.8l-2.6,6.4h1.4l0.6-1.6h2.6l0.6,1.6h1.4l-2.6-6.4L359.4,301.8L359.4,301.8z M360,303.2l1,2.4h-1.8L360,303.2
					z"/>
				<path d="M363.4,307l3.4-4.2h-3v-1h4.8v1L365,307h3.6v1.2h-5.2V307z"/>
				<path d="M383.6,294.6l1.2-0.2l0.6,3.6c0.2,1.3-0.4,2.2-1.3,2.5c-1,0.4-2.4,0-2.5-1.7l1-0.2c0.2,1,0.6,1.1,1.1,1
					c0.4-0.1,0.6-0.7,0.5-1.4L383.6,294.6z"/>
				<path d="M385.6,294.2l1.2-0.2l0.5,3c0.2,1.3,0.6,1.8,1.5,1.7c1-0.2,1.1-0.8,0.9-1.9l-0.7-3.2l1.2-0.2l0.8,3.3
					c0.5,1.9-0.5,2.7-1.9,3c-1.2,0.2-2.5-0.1-2.9-2L385.6,294.2z"/>
				<path d="M391.8,297l1-0.4c0.5,0.9,1.3,0.8,1.9,0.6c0.8-0.4,0.9-1.1,0.5-1.3c-0.6-0.3-2,0.1-2.7-0.1c-0.9-0.3-1.3-0.8-1.2-1.6
					c0.1-0.9,0.9-1.4,1.8-1.7c1-0.3,2-0.2,2.6,1l-1.2,0.4c-0.4-0.7-0.9-0.6-1.3-0.4c-0.4,0.2-1,0.5-0.6,1c0.3,0.4,1.7,0.2,2.5,0.2
					c0.8,0,1.4,0.6,1.6,1.3c0.2,1.1-0.2,1.7-1.5,2.1C393.5,298.7,392.1,298,391.8,297L391.8,297z"/>
				<path d="M397.2,292l-1.6,0.8l-0.4-1l4.4-1.8l0.4,0.8l-1.6,0.8l1.8,4.4l-1,0.6L397.2,292z"/>
				<path d="M399.8,289.8l1-0.6l2.8,5.2l-1,0.6L399.8,289.8z"/>
				<path d="M406.6,290.2l1.2-0.4c0.6,1.2-0.3,3.3-2.4,3.3c-3-0.1-3.4-3.4-2.9-4.5c0.8-1.9,3-1.8,4-0.8l-1,0.8
					c-0.6-0.8-2-0.3-2.1,0.4c-0.2,1.2,0.4,2.4,1.5,2.9C405.9,292.4,407.3,291.3,406.6,290.2L406.6,290.2z"/>
				<path d="M406,286l1-0.8l3.6,4.8l-1,0.8L406,286z"/>
				<path d="M409.8,283l-1,0.8l2.2,6l1-1l-0.6-1.2l1.8-1.6l1.2,0.6l1-0.8L409.8,283z M410.2,284.4l2,1l-1.2,1.2L410.2,284.4z"/>
			</g>
		</g>
	</g>
</g>
</svg>
