<?xml version="1.0" encoding="utf-8"?>
<!-- Generator: Adobe Illustrator 25.2.1, SVG Export Plug-In . SVG Version: 6.00 Build 0)  -->
<svg version="1.1" id="Layer_1" xmlns="http://www.w3.org/2000/svg" xmlns:xlink="http://www.w3.org/1999/xlink" x="0px" y="0px"
	 viewBox="0 0 720 480" style="enable-background:new 0 0 720 480;" xml:space="preserve">
<g>
	<path style="fill:#012169;" d="M0,0h720v480H0V0z"/>
	<path style="fill:#FFFFFF;" d="M0,0v26.8L319.8,240H360v-26.8L40.2,0H0L0,0z M360,0v26.8L40.2,240H0v-26.8L319.8,0H360z"/>
	<path style="fill:#FFFFFF;" d="M150,0v240h60V0H150L150,0z M0,80v80h360V80H0z"/>
	<path style="fill:#C8102E;" d="M0,96v48h360V96H0z M162,0v240h36V0H162L162,0z M0,240l120-80h26.8l-120,80H0z M0,0l120,80H93.2
		L0,17.9V0z M213.2,80l120-80H360L240,80H213.2L213.2,80z M360,240l-120-80h26.8l93.2,62.1V240L360,240z"/>
	<path style="fill:#6A4C2D;stroke:#000000;stroke-width:0.828;" d="M530.6,339.9c0,0-2,7-3.1,7s-5.3-3-5.3-3s-3,6.5-4.6,6.8
		c-1.6,0.4-5.7-0.9-5.7-0.9s-4,0-4.1-0.8s0.1-2.3,0.1-2.3s-5.7,6.1-7,5.7s-5.6-7.6-5.6-7.6l-0.7,3.8l-8.1-0.4l-7.1-6.1
		c0,0-4,8.7-4.1,8.5s-7,2.1-7,2.1l-0.4-1.7l-4.6-3.6c0,0,3.6-6.6,3.6-6.8s-1.7-1-1.7-1l-2.6,2.9l-5.3,4.6l-5.3-3.2l2.3-5.7l0.3-4.2
		l4.1-8.4l50.6-65.5l24.9,61.4L530.6,339.9L530.6,339.9z"/>
	<path style="fill:#FFFFFF;stroke:#000000;stroke-width:0.828;" d="M566.5,343.9l13.2-0.6l-5.6-3.7l50.2-2.5l-7.1-3.6l-6.3-11.3
		l-26-2.6c0,0-2-2-5.1-1c-0.1-2.7-2.6-6.2-2.6-6.2l-16-1.6l-10,9.1l6.7,23L566.5,343.9L566.5,343.9z"/>
	
		<linearGradient id="SVGID_1_" gradientUnits="userSpaceOnUse" x1="48.6923" y1="1185.98" x2="50.7475" y2="1128.153" gradientTransform="matrix(0.9378 0 0 0.4048 494.2731 -339.8168)">
		<stop  offset="0" style="stop-color:#474747"/>
		<stop  offset="1" style="stop-color:#FF5500"/>
	</linearGradient>
	<path style="fill:url(#SVGID_1_);stroke:#000000;stroke-width:0.621;stroke-miterlimit:2.484;" d="M515.3,147.3l1.3-6
		c0,0,2.3-5.2,2.3-7.5s1.7-5,1.7-5s5.3-2,6.4,2.3c5.7-11.5,12.4-0.5,12.4-0.5l1.9-2.9l3.8-6.2c0,0,5.4,6.7,5.4,7.9
		c0.1,1.2,0.9,0.4,0.9,0.4l5.8-0.6c0,0,2.8,2.9,2.2,8.4c2.1,1.6,3.9,11.1,3.9,11.1L515.3,147.3z"/>
	<path style="fill:#656263;stroke:#000000;stroke-width:0.828;" d="M566.5,218.8c1-0.8,4.2-2.2,3.8-8.3c-0.4-6.2-4.4-6.9-6.6-6.7
		c-2.2,0.2-4.3,2.8-4.3,2.8l-7.4-6.3c0,0,3.7-31.2,7.7-33.2c3.7-3.6,4.4-5.2,4.4-6s-1.4-2.9-1.4-2.9l-24.2-3.8l-22.9,3.6
		c0,0-1.8,3.6-1.5,5.1c0.2,1.4,0.3,3,4.4,7.2c4.5,4.7,7.7,31.3,7.7,31.3s-6.4,4.2-6.8,3.7c-0.4-0.5-2.3-1-3.3-0.8s-4.3,2.5-4.3,8.3
		c0,5.9,3.3,9.3,3.3,9.3s21.9-3.4,25.1,4.6C543.2,217.1,564,220.5,566.5,218.8L566.5,218.8z"/>
	<path style="stroke:#000000;stroke-width:0.776;stroke-linejoin:round;stroke-opacity:0.979;" d="M590.1,186.4c0,0,0.2-3.4,2.1-5
		c1.8-1.6,13.9-2.4,16.8,0c2.9,2.4,4,14.4,4,14.4s1.8,4.2,1.9,7.3s0.4,5.2,0.4,5.2s9.7,16.8,9.8,32c1.1,10.3,0.8,37.9-2.2,48.4
		c-0.1,13.1-4.2,21.6-4.2,21.6s1,2.3,0.8,4.7c-0.1,2.4-1.1,4.7-1.1,4.7l14.2,9.4l-5.2-2.6c0,0,5.3,6,5.2,5.8s-5.9-3.7-5.9-3.7
		l3.5,4.7c-0.1-0.2-8.6-5.2-8.6-5.2s4,5,3.8,4.8s-6.4-4-6.4-4s3.9,5.5,3.8,5.2c-0.1-0.3-5.6-3.2-5.6-3.2l0.2,2.7
		c0,0-4.4-0.3-4.4-4.7c-2.2-1.6-3.6-3.9-3.6-3.9l-10.1-2.3l-11.4-45.4l2.7-76.7l0.7-3.9L590.1,186.4L590.1,186.4z"/>
	<path style="fill:#FFBB00;stroke:#000000;stroke-width:0.822;" d="M582.5,431.5c0,0-5.8-16.4-8.7-16.6c-2.6-6.7,9.1-61.2,31.8-64.3
		c12.5,1.4,1,19.2-7.2,13.7c1,4.8,5.1,11.7,5.1,11.7S587.3,385.3,582.5,431.5L582.5,431.5z"/>
	<path style="fill:#FFBB00;stroke:#000000;stroke-width:0.828;" d="M504.3,433.8c0,0,4.8-18.6,7.8-18.8c2.9-0.2-7.8-62-31-62.5
		c-12.6,1.4-1,19.3,7.2,13.8c-1,4.8-5.2,11.7-5.2,11.7S499.5,387.4,504.3,433.8z"/>
	<path style="fill:#00713D;stroke:#000000;stroke-width:0.828;" d="M525.6,317.6c-0.1-0.2-5.8,2.4-2.1,10.7c0.3-3.2,2.9-5.2,2.9-5.2
		s-3.9,6.2,0.2,11.4c0.5-4.9,2.9-6.5,2.9-6.5s-2.9,11.4,0.1,13.8c0.3-4.6,2.5-6.6,2.5-6.6s-2.6,10.2-0.3,12.6
		c0.3-3.9,2.2-5.6,2.2-5.6s-1.2,10.6,1.9,11.4c0.1-3.7,2.3-7.4,2.3-7.4s-1,8.7,3.8,9c0.1-3.3,1-7,1-7s2.2,9.2,5.4,7.7
		c-0.1-2.7,0.1-7.8,0-7.8s2,8.7,5.8,7.1c-0.6-2.5,0.2-5.4,0.2-5.4s2,5.5,5.7,3.7c0.6-1.6-0.2-4.9-0.2-4.9s5.3,7.3,7,2.9
		s-4.3-5.9-4.3-5.9h4c0,0-1.3-4.5-6.7-5.5c1.8-1.1,3.8-0.3,3.8-0.3s-1.1-5.6-6.6-6.2c2.1-1,4.5-0.3,4.5-0.3s-0.7-5.3-6.8-6.8
		c1-1.4,3.5-1,3.5-1s-2.4-5-5.2-4.7C550.4,321.2,525.6,317.5,525.6,317.6L525.6,317.6z"/>
	<path style="fill:none;stroke:#3EC26D;stroke-width:0.776;stroke-linecap:round;" d="M550.1,344.6c0,0,2.2,1.4,2.1,2.7
		 M551.4,342.2c0,0,2.8,2.6,2.7,4.6 M553.9,340.9c0,0,2.2,1.9,2.4,4.8 M557.6,342.1c0,0,1.1,3.2,0.7,3.8 M559.9,343.8
		c0.2,2.5-0.2,2.8-0.2,2.8 M532.2,327.7c0,0,2.6,2.2,2.4,5.4 M532.1,330.4c0,0,1.2,1.6,1,2.6 M535.3,327.8c0,0,1.7,3.2,1.2,5.5
		 M538.3,329.9c0,0,0.8,2,0.1,3.1 M539.7,330.9c0,0,1,2,0.1,2.7 M538.6,337.5c0,0,2.5,0.7,2.8,3.2 M540.1,335.3c0,0,2.6,0.2,2.9,3.9
		 M543.5,334c0.1,0,1.7,4,1.5,5.2 M546.8,334.4c0,0,0.7,3.8,0.2,5 M549,335.9c0,0.1,0.1,4.4,0.1,4.4 M545.7,329.9
		c0,0,1.6,0.8,1.5,2.9 M547.2,328c0,0,2.1,1.6,1.9,4.6 M549.6,326.7c0,0,1.8,2.8,1.1,6 M552.8,327.4c0,0-0.7,3.5-0.4,4.9
		 M554.7,329.8c0,0-1.2,1.2-0.6,2.7 M544.5,343.4c0,0,0.4,2.7,0,3.1 M541.9,341.9c0,0,1.3,3,0.8,4.5 M539.1,341.7c0,0,1.5,2.2,1.4,4
		 M536.9,342.2c0,0,1.3,1.7,1.2,2.7 M535.7,344.8c0,0,1.3,1.8,1.2,2.2"/>
	<path style="fill:#FFFFFF;stroke:#000000;stroke-width:0.828;" d="M507.8,222.1c6.2-0.2,12.4-0.3,18.5-0.4c0,0,12.2,0,13.6,5.3
		c2.3-7.1,12.9-6.6,12.9-6.6l19.2-0.9c0.1,20.6,0.2,41.2,0.3,61.8c-3.8,24-16.8,40.9-31.1,48.1c-17.1-7.4-27.9-26.6-31.5-48.6
		C509.2,261.2,508.5,241.6,507.8,222.1L507.8,222.1z"/>
	<path style="fill:#006B00;stroke:#000000;stroke-width:0.828;" d="M514.4,221.8l27,96l24.4-98.1c-7.6,0.7-23.8-1.6-25.8,7.6
		C536.9,219.1,519.8,222.4,514.4,221.8z"/>
	<path style="fill:#FFC900;stroke:#006B00;stroke-width:0.428;stroke-linecap:round;" d="M532.8,273.8c1,0.7,1-26,2.4-26.9
		c0.4-2.2,0.6-3.2,1.1-5.5c-1.2-2.8-6.4-2.6-8.4-0.3c0.9,3.7,1.3,5,1.3,5C531.8,251.8,531.3,274.4,532.8,273.8L532.8,273.8z"/>
	<path style="fill:#CDAD56;stroke:#000000;stroke-width:0.776;stroke-linejoin:round;" d="M525.6,66.9c0,0,1.9-2.9,2-3.6
		c0.1-0.7,8.7-1.2,13.8-13.9c2.9-6.7,0-2.8,0-2.8l-0.2-3.2c0,0,3.6-4.5,2.3-6.9s-0.9,3.1-3,3s-1-6-1-6s-0.2-0.7-0.8-1
		c-0.9,0.1-0.6,2.2-1.4,2.4c-0.8,0.2-1.5-4.9-1.5-4.9s-1.3-2.3-2.4,5c0.6,7.7,4.3,6.2,4.3,11.3s-3.3,9-4.2,9.1
		c-1,0.1-0.6-4.3-0.6-4.3S532.4,49,532,49s1.9-0.5,1.6-6.2c-0.8-6.9-1.4,1.6-2.8,1.3c-1.4-0.3-0.3-6.4,0.2-7.1
		c0.5-0.7-0.6-3.6-3.6,3.8c-0.3,3.6-0.6-0.9-1.2-0.7c-1,2.9-0.9,5,0.6,7.6c2.2,2.7,3.6,5.3,3.5,6.7s-1.2,4.5-2.8,4.5s0.1-3.8,0-5.1
		s-2.7-5.9-2.7-5.9s-1.8-3.9-1.7-4s-0.2-0.7-1,3.4c-0.9,4-1.9-2.7-1.9-2.7s-1.2,5,1.4,8c-2-0.3-2.2,0.7-2.2,0.7c0,1.4,2.7,2,3,4.4
		s-2.8,3.8-2.8,3.8s1.3,2.4,4.9-2.3c0.1,3-1.4,5.1-1.4,5.1C524.5,65.1,525.4,65,525.6,66.9L525.6,66.9z"/>
	<path style="fill:#CDAD56;stroke:#000000;stroke-width:0.682;stroke-linejoin:round;" d="M513.7,66.9c0,0-1.6-3.2-1.7-3.8
		c-0.1-0.6-8,0.8-11.7-12c-2.4-6.1,0-2.5,0-2.5l0.1-2.9c0,0-2.6-4.2-1.5-6.4s0.6,2.8,2.1,2.9c1.8-0.1,0.8-5.5,0.8-5.5
		s0.1-0.6,0.7-0.9c0.7,0.1,1,3.3,1.7,3.5s2-3.7,2.5-4.5c0.6-0.1,0.6-3.3,1.5,3.4c-0.5,7.1-4.9,5.7-4.9,10.3s2.8,8.2,3.6,8.3
		c0.8,0.1,0.5-3.9,0.5-3.9s0.4-1.9,0.7-1.9c0.3,0-2.6,0.7-2.3-4.5c0.7-4.9,2.1,0.3,3.3,0c1.2-0.3-0.1-5.2,0.2-6
		c0.1-0.7,1.8-4,2.5,3.1c0.2,3.3,1.6-2.8,2.1-2.6c0.9,2.6-0.4,6.1-1.6,8.6c-1.8,2.4-2.7,5.1-2.6,6.3c0.1,1.3,0.5,2.8,1.8,2.8
		c1.3,0,0.4-2.2,0.5-3.4s2.3-4.9,2.3-4.9c0.4-0.9,0.1-2.7,0.5-3.5c0.7,0,1-1.3,1.8,2.4c0.7,3.7,1.6-2.4,1.6-2.4s1,4.5-1.2,7.3
		c1.7-0.3,1.8,0.6,1.8,0.6c0,1.3-0.8,1.8-1.1,4s0.9,3.5,0.9,3.5s-1.1,2.2-4.2-2.1c-0.1,2.7,1.2,4.6,1.2,4.6
		C514.7,65.2,513.8,65.2,513.7,66.9L513.7,66.9z"/>
	<path style="fill:#CDAD56;stroke:#000000;stroke-width:0.682;stroke-linejoin:round;" d="M0,0"/>
	<path style="fill:#FFC900;stroke:#006B00;stroke-width:0.428;stroke-linecap:round;stroke-linejoin:round;" d="M559.9,242.3
		c-1.5,1.5-10.9,4.7-11,15.7c-0.1,10.9,1.7,13.4-0.1,13.7c-3.4,0-3.9-12.2-3.8-17.6c0.1-5.4,0.2-4.6,0.2-4.6s2.3,0.8,2.1,3.5
		c-0.2,2.6,2.3-6.5,1.5-9c1.6,2.1,3.6,1.2,3.6,1.1c0-0.1-1.2-1.8-1.7-3s1.8,0.7,1.8,0.7s0.1-2.1-1.9-1.9c-2.5,0,0.4-1.1,0.4-1.1
		s1.5,1.8,2.4-0.1c-1.1-1.5-2.6-2.4-2.6-2.4s-1.4-3.5-3.2-4.1c-2.1-0.7-1.9,1.2-4.3,1c-0.5,1.2-0.5,1.4,0.5,1.8
		c-1.7,1.5-0.8,4.6-0.8,4.6s2.6-1.5,2.5,1s-1.6,2.1-2.5,0.6c-0.9-0.7-1.2,0.7-1.2,0.7l1.4,1.9c0,0-2.6-0.1-3.3,2.2
		c1.5-0.1,2.2,0.4,2.2,0.4s-3,1.8-3.3,2.8s-0.4-1.1-0.5-1.1s-2.9-1.4-2.9-1.4l-1,6c0,0,2,2.6,3,1.8c1.1-0.8,3-3.3,4.2-2.6
		c-3.4,3.5-6.8,8.4-8.7,9.1c-0.5-0.6-2.1-2.8-2.8-1.7c-0.7,1.1-0.2,2.5,0.7,2.4s-2.8,1.1-2.1,3.2c0.8,2.1,0.7,1.9,1.4,1.4
		c0.7-0.6-0.6-0.7,1.9-1.7s2.4-1.9,2.4-1.9s-0.5,1.5-1.9,1.9s-2.4,0.4-2.1,1c0.3,0.5,0.9,1.5,0.7,2.1s2.8-2.9,3.6-0.1
		c2-0.1,3.4-3.5,2.4-5.4c0.1,2.1,1.1,2.8,0.5,3.7c-0.6,1,4.6-3.2,2.1-5.7c0.7,2.1,0.8,3.7,0.8,3.7s1.2-0.1,1.5-0.7
		c0.3-0.5-0.6,1.5-0.2,1.9c0.4,0.4,2.2,2.8,1.5,4.4c-0.5-1-0.6-2.5-1.2-2.4c-0.6,0.1-3,2.5-4.5,2.6s1.8,7.2,1.8,7.2
		s-2.2-0.4-2.5-0.1s-1.8-2.5-2-0.8c-0.5,2.1,0.5,1.2,0.5,1.2s-1.3-0.8-1.9,0.1c-0.7,1-1.4,1.9-0.9,2.4c0.5,0.4,2.6,0.4,2.9,0.3
		c0.3-0.1-2.4,0.3-2.6,0.7c-0.2,0.4-0.6,1.9,0,2.5s2-0.3,2.1-0.7c0.1-0.4,0.2,1.5,0.2,1.5s2.5,0.3,2.5-3.2s0.2,2.5,0.2,2.5
		s2.5,0.6,2.6-2.9s0.3,2.4,0.3,2.4s1.7-0.7,1.7-1.2c0-0.6-0.1,6.9-1.3,9c-1.9-1.7-3,1.1-3,1.1s0.1,4-0.1,5c-0.2,1,1.3-0.5,1.4-1
		c0.1-0.4,1.9-1.5,1.9-1.8c0.1-0.3,0.6-1.7,0.6-1.7s-0.4,1.9-1.1,2.2c-0.7,0.3-1.4,1.2-1.1,2.1c0.3,0.8,1.4,1.4,1.8,2.2
		c0.4,0.8,1.8-4.8,1.8-4.8l0.1,1.2c0,0,1.8-0.6,1.9-1.7c0.2-1.1-1.9-2.1-0.2-3.9s0,1.7,0,1.7s0.6,2.6,1,2.6s1.4-5,0.4-6.2
		s1.5,1.5,1.5,1.5s1.4-5.1-0.1-5.8c-1.5-0.7-2.1-1-2.1-1s0.8-1.4,0.4-1.5c-0.4-0.1,2.1,3,2.4,2.2c0.4-0.8,1-3.3-1.8-4.7
		c-2.8-1.4-0.1-5.3-0.1-5.3s1.8,2.8,3,1.2c1.3-1.5-0.1-1.5-0.1-1.5s3.6-3.1,3.7-4.6c-0.7-0.1-1.9,0.1-1.9,0.1s2-1.8,1.6-4.7
		c-0.8,1.5-1.9,1.5-1.9,1.5s1.8-2.4,1.5-4.6c-1.1,1.1-1,1.9-1.7,1.7c-0.7-0.3-1.8-9,0.9-9.6s1.3,4.3,1.4,4.3c0.1,0,4.1-2.2,0-5.8
		c1-0.4,3,2.1,3,2.1s-0.9-6.1-5.3-2.4c1.1-1.5,1.8-2.5,2.6-2.2c0.9,0.3,4-0.1,4-1.4c-0.8-0.8-2.4,0.4-3.3,0
		C553.4,247.7,560.5,247,559.9,242.3L559.9,242.3z"/>
	<path style="fill:none;stroke:#006B00;stroke-width:1.25;stroke-linecap:round;" d="M529,245.9c0,0,3.9-2.9,5.8,0.7 M536.4,252.2
		c-0.1,0-1.4,1.8-1.7,1.8 M539,258c0,0,3.6,0.4,5.9-4.7"/>
	<path style="fill:none;stroke:#006B00;stroke-width:1.25;stroke-linecap:round;" d="M542.9,256.5c0,0,0.3,2.8,0.9,2.8
		c0.6,0-1,0.7-1.6,0.1c0.7,1.2,1.1,3.5,0,4.3"/>
	<path style="fill:#E80000;stroke:#006B00;stroke-width:1.25;stroke-linecap:round;" d="M541.1,291.4c0,0-1.3,1.9-2.8,2.1"/>
	<path style="fill:none;stroke:#006B00;stroke-width:1.25;stroke-linecap:round;" d="M542.6,282.5c0,0-0.8-5.5-0.3-6.9
		c0.3-1.8,1.6-2.5,2.5-4.8 M542.2,278.5c0,0-1,3.3-5.3,2.2 M543.3,270.2c0,0,0.3,4.4-3.6,2.8 M538.6,250.2c0,0-1.6,1.9-1,4.6"/>
	<path style="fill:#006B00;" d="M544.4,245.4c0,0,2-1.1,2.4-1.7c0.4-0.6,1.1-1.7,1.3-2.5s-1.4-2.1-0.6-3.9c0.5-0.8,1.2-1,2.3,0
		c1.2,1-1.1-3-2.2-3.2c-1.2-0.1-2,1.1-2.2,0.8c-0.3-0.3,0.1,1.1-0.4,1.1s1,1.1,0.9,1.8s1.6,3,1.5,3.6
		C547.2,242.1,544.9,245.2,544.4,245.4L544.4,245.4z"/>
	<path style="fill:#FFC900;stroke:#FFC900;stroke-width:1.25;stroke-linecap:round;stroke-linejoin:round;" d="M545.9,236.2
		c0.9-0.3,1,0,0.9,1.1C546.3,237,546.2,236.8,545.9,236.2z"/>
	<path style="fill:#E80000;stroke:#006B00;stroke-width:1.25;stroke-linejoin:round;" d="M539.6,298c0,0-0.3,2.9,0.5,3.1
		c0-1.1,0.2-1.9,0.4-2.2C540.3,298.8,539.7,298,539.6,298L539.6,298z M537.8,294.4c-0.7-0.1-2,0.7-1.6,1.8c0.6-0.7,1.2,0.1,1.6-0.7
		C537.9,295.3,537.9,294.7,537.8,294.4L537.8,294.4z M537.8,292.3c0,0-1.2-0.3-1.3,0.9c0.8-0.1,1-0.3,1.3,0
		C537.9,292.9,537.8,292.4,537.8,292.3L537.8,292.3z"/>
	<path style="fill:#E80000;stroke:#006B00;stroke-linejoin:round;" d="M532.9,276c0,0,0.7,0.4,0.9,1.4
		C534.4,276.9,534.6,274.7,532.9,276z M531.2,278.4c0,0,1.5-1.3,1.6-0.1c-0.3,0.4-0.4,0.7-0.7,0.8
		C531.9,279.2,531.6,278.4,531.2,278.4z M531,282.4c0,0,0.9-1.1,1.3-0.4c0.3,0.8-0.3,0.7-0.3,0.7S531.7,282.6,531,282.4z
		 M529.8,260.1c0,0-1.1-0.6-1.6,0.5c0.8,0.1,1,0.5,1.4,0.9C529.4,261.1,529.3,260.4,529.8,260.1z M527.6,268.5c0,0,0.1-1.9,0.7-2.7
		c0.4,0.3,0.5,0.7,0.7,1.3C528.5,267.3,527.8,267.4,527.6,268.5L527.6,268.5z M530.6,267.2c0,0-1.2,0.8-0.8,1.7
		c0.4-0.6,0.9-0.4,0.9-0.4L530.6,267.2z"/>
	<path style="fill:#FFC900;stroke:#006B00;stroke-linejoin:round;" d="M528.8,249.1c-0.4,0.7,0.6,2.3,1.6,2
		C530.7,249.5,529.1,248.6,528.8,249.1z"/>
	<path style="fill:none;" d="M528.8,245.9c-0.2,0.8,0.7,1.9,1.2,1.6C530.1,246.7,529,245.2,528.8,245.9z"/>
	<path style="fill:#E80000;stroke:#006B00;stroke-linejoin:round;" d="M530,247.8c0,0,0.2,1.3,1.1,1c-0.1-1-0.8-1.8-0.8-1.8
		C530.2,247.3,530.4,247.8,530,247.8z M530.6,251.7c0,0,0.5,0.8,1.5-0.8c-0.4,0.2-1.2-0.4-1.2-0.4S530.8,251.6,530.6,251.7z"/>
	<path style="fill:#FFC900;stroke:#006B00;stroke-linejoin:round;" d="M528.7,246.1c-0.4,0.7,0.2,1.7,1.2,1.5
		C530.2,245.9,529,245.6,528.7,246.1z"/>
	
		<linearGradient id="SVGID_2_" gradientUnits="userSpaceOnUse" x1="26.3031" y1="1145.088" x2="26.4438" y2="1171.7572" gradientTransform="matrix(0.7648 0 0 0.4964 515.7257 -339.7973)">
		<stop  offset="0" style="stop-color:#B50000"/>
		<stop  offset="1" style="stop-color:#FFC500"/>
	</linearGradient>
	<path style="fill:url(#SVGID_2_);" d="M529.2,239.4c0,0,4.2-1.6,6.4,0.8c2.2,2.4,2.2,0.2,2.2,0.2s3.3,1.6,4.2,1.3s-0.7,0.1,0.6-0.9
		s-2.6,0.2-2.9-1.9c-0.6-1.4,0.1-3.1-1.3-2.5c-0.9-1.6,0.6-2.7,0.3-4.5c-0.9,0.9-1.5-0.3-2.2,1.9c-1.8-0.5-0.3-3.8-2.2-4.1
		c0,2.4-1.5,2.5-1.5,3.9C531.8,234.4,528.1,237.4,529.2,239.4z"/>
	<path style="fill:#C01500;stroke:#000000;stroke-width:0.828;" d="M480.9,421.4c2.7-0.9,17.5,4.3,23.2,12.5
		c-1.2-14.5-4.2-25.6-4.2-25.6s-8.8-3.3-10-1.7C488.1,409.1,482.7,416.5,480.9,421.4L480.9,421.4z M476.4,354.6
		c-1,0.2-2.1,1.2-3.1,3.4c-1.2,3.9-2.1,13.8-3.8,16.1s-3.3,2.5-3.3,4.6s0.2,6.9,4.8,8.7c4.7,0.2,12.1-9.9,12.1-9.9s3.8-5.5,5.3-11.5
		C479.5,370.2,473.1,359.2,476.4,354.6L476.4,354.6z"/>
	<path style="fill:#C01500;stroke:#000000;stroke-width:0.822;" d="M606,419.1c-2.7-0.9-17.6,4.3-23.3,12.4
		c1.2-14.4,4.2-25.4,4.2-25.4c1-0.4,8.6-3.3,9.8-1.7C598.5,406.8,604.1,414.3,606,419.1L606,419.1z M610.2,352.6
		c1,0.2,1.4,2,2.2,4.3c1.2,3.9,2.4,9.5,4.1,11.8c1.7,2.3,3.2,5.7,3.2,7.7c0,2.1-0.4,4.8-5,6.7c-4.6,0.2-11.3-7.7-11.3-7.7
		s-3.8-5.5-5.3-11.4C607.1,368.2,612.8,357.6,610.2,352.6L610.2,352.6z"/>
	<path style="fill:#FFBB00;stroke:#000000;stroke-width:0.828;" d="M471.2,408.8c0,0,9.3,8.5,9.5,12.4c25-49.4,88.8-64.8,125.1-3.4
		c4.8-8.5,9.8-11.3,9.8-11.3C577.4,339.9,501.2,348.1,471.2,408.8L471.2,408.8z"/>
	<g>
		<path style="fill:#1E5AA6;stroke:#000000;stroke-width:0.828;" d="M566,219.8l3.6-0.1l-6.5,11l7.8,12.1l-15.4,25.8l14.5,23.2
			c-1.6,5.2-3.4,9.9-5.9,14.2l-8.3-12.3l15.1-25.1l-12.4-18.7L566,219.8L566,219.8z M514,222l-3.9,0.1l7.3,10.5l-7.7,12.8l16,23.2
			l-13.3,23.7c1.6,5.2,3.9,11,6.3,15.3l7.9-13.3l-16.2-24.1l11.9-20.1L514,222L514,222z"/>
		<path style="fill:#1E5AA6;stroke:#000000;stroke-width:0.828;" d="M532,284.4l-5.7,10.2l20.5,31.6c3.6-2.4,6.5-5.2,9.5-8.6
			l-10.7-16.4l4.3-17l6.2,9.6L536.7,327c-3.3-1.9-6.9-4.7-10.1-8.3l10.3-17.5L532,284.4L532,284.4z M525.7,268.6l3.7,6.2l-2.4-8.4
			L525.7,268.6L525.7,268.6z"/>
		<path style="fill:#1E5AA6;stroke:#000000;stroke-width:0.802;" d="M552.4,274.1c0.1-0.1,3-5.3,3-5.3l-1.1-2.1L552.4,274.1
			L552.4,274.1z"/>
	</g>
	<g>
		<g style="enable-background:new    ;">
			<path d="M480.9,412.6l-4.5-5.1l0.8-1.2l3.7,4.3l1.9-3l0.8,0.9L480.9,412.6z"/>
		</g>
		<g style="enable-background:new    ;">
			<path d="M484.1,406.8l-4.3-5.6l3.1-4.2l0.7,0.9l-2.3,3.1l0.9,1.2l2.1-2.8l0.7,0.9l-2.1,2.8l1.2,1.5l2.3-3.2l0.7,0.9L484.1,406.8z
				"/>
		</g>
		<g style="enable-background:new    ;">
			<path d="M485.4,398.9c-0.3-0.6-0.6-1.2-0.7-1.7c-0.1-0.4-0.1-0.8,0-1.2c0-0.4,0.1-0.8,0.3-1.1c0.2-0.4,0.5-0.8,0.8-1.2
				c0.7-0.6,1.4-0.9,2.1-0.7c0.7,0.2,1.3,0.7,1.9,1.7c0.5,1,0.8,1.9,0.7,2.8s-0.5,1.7-1.1,2.3c-0.7,0.6-1.4,0.9-2.1,0.7
				S485.9,399.8,485.4,398.9z M486.3,397.9c0.4,0.7,0.8,1.1,1.2,1.2c0.4,0.1,0.8,0,1.2-0.3c0.4-0.3,0.6-0.8,0.6-1.4
				c0-0.6-0.1-1.2-0.5-1.9c-0.4-0.7-0.8-1.1-1.2-1.2c-0.4-0.1-0.8,0-1.2,0.4c-0.4,0.4-0.6,0.8-0.6,1.4S485.9,397.2,486.3,397.9z"/>
		</g>
		<g style="enable-background:new    ;">
			<path d="M495,393.1l-2.8-5.5l-1.5,1.3l-0.6-1.1l3.9-3.5l0.6,1.1l-1.5,1.3l2.8,5.5L495,393.1z"/>
		</g>
		<g style="enable-background:new    ;">
			<path d="M497.6,390.4l-2.6-7.2l4-2.5l0.4,1.2l-2.9,1.9l0.6,1.6l2.7-1.7l0.4,1.2l-2.7,1.7l0.7,2l3-1.9l0.4,1.2L497.6,390.4z"/>
		</g>
		<g style="enable-background:new    ;">
			<path d="M501.9,386.3l-2.4-7.3l2.3-1.4c0.6-0.3,1-0.5,1.3-0.6c0.3,0,0.6,0.1,0.9,0.3c0.3,0.2,0.5,0.6,0.6,1
				c0.2,0.5,0.2,1.1,0.1,1.6c-0.1,0.5-0.4,0.9-0.9,1.3c0.3,0,0.6,0.1,0.8,0.3c0.2,0.1,0.6,0.4,1,0.8l1.1,1l-1.3,0.8l-1.3-1.1
				c-0.5-0.4-0.8-0.6-0.9-0.7c-0.2-0.1-0.3-0.1-0.4-0.1c-0.1,0-0.3,0.1-0.6,0.2l-0.2,0.1l1,3L501.9,386.3z M501.6,381.5l0.8-0.5
				c0.5-0.3,0.8-0.5,1-0.7c0.1-0.1,0.2-0.3,0.2-0.5c0-0.2,0-0.4-0.1-0.6c-0.1-0.2-0.2-0.4-0.3-0.5c-0.1-0.1-0.3-0.1-0.5,0
				c-0.1,0-0.4,0.2-0.8,0.5l-0.9,0.5L501.6,381.5z"/>
		</g>
		<g style="enable-background:new    ;">
			<path d="M507,382.9l-2.2-7.4l2.4-1.3c0.6-0.3,1-0.5,1.4-0.5c0.3,0,0.6,0.1,0.9,0.4c0.3,0.3,0.5,0.6,0.6,1c0.2,0.6,0.2,1.1,0,1.6
				c-0.1,0.5-0.4,0.9-0.9,1.3c0.3,0.1,0.6,0.2,0.8,0.3c0.2,0.1,0.6,0.4,1,0.9l1.1,1.1l-1.3,0.7l-1.3-1.2c-0.5-0.4-0.8-0.7-0.9-0.8
				c-0.2-0.1-0.3-0.1-0.4-0.1s-0.3,0.1-0.6,0.2l-0.2,0.1l0.9,3.1L507,382.9z M506.9,378.1l0.8-0.4c0.5-0.3,0.9-0.5,1-0.6
				s0.2-0.3,0.2-0.5c0-0.2,0-0.4-0.1-0.6c-0.1-0.2-0.2-0.4-0.3-0.5c-0.1-0.1-0.3-0.1-0.5-0.1c-0.1,0-0.4,0.2-0.8,0.4l-0.9,0.5
				L506.9,378.1z"/>
		</g>
		<g style="enable-background:new    ;">
			<path d="M512.8,371.3l-0.5-7.9l2.5-0.3c0.6-0.1,1.1,0,1.4,0.1c0.3,0.1,0.5,0.3,0.7,0.7c0.2,0.3,0.3,0.8,0.3,1.2
				c0,0.6-0.1,1.1-0.3,1.5c-0.2,0.4-0.6,0.7-1.1,0.9c0.3,0.2,0.5,0.4,0.7,0.6c0.2,0.2,0.4,0.6,0.8,1.2l0.8,1.5l-1.4,0.2l-1-1.6
				c-0.3-0.6-0.6-1-0.7-1.1c-0.1-0.1-0.3-0.2-0.4-0.3s-0.3-0.1-0.6,0l-0.2,0l0.2,3.3L512.8,371.3z M513.7,366.6l0.9-0.1
				c0.6-0.1,0.9-0.1,1.1-0.2c0.1-0.1,0.2-0.2,0.3-0.4s0.1-0.4,0.1-0.6c0-0.3-0.1-0.5-0.2-0.6c-0.1-0.2-0.3-0.2-0.5-0.3
				c-0.1,0-0.4,0-0.9,0.1l-0.9,0.1L513.7,366.6z"/>
		</g>
		<g style="enable-background:new    ;">
			<path d="M550.8,369.4v-8h2.5c0.6,0,1.1,0.1,1.4,0.2c0.3,0.1,0.5,0.4,0.7,0.8s0.3,0.8,0.3,1.3c0,0.6-0.1,1.1-0.4,1.5
				c-0.3,0.4-0.7,0.6-1.2,0.7c0.3,0.2,0.5,0.4,0.6,0.7c0.2,0.2,0.4,0.7,0.7,1.3l0.7,1.6h-1.4l-0.9-1.7c-0.3-0.6-0.5-1-0.6-1.2
				c-0.1-0.2-0.2-0.3-0.4-0.3s-0.3-0.1-0.6-0.1H552v3.3H550.8z M552,364.8h0.9c0.6,0,0.9,0,1.1-0.1c0.1-0.1,0.3-0.2,0.3-0.3
				c0.1-0.2,0.1-0.4,0.1-0.6c0-0.3-0.1-0.5-0.2-0.6s-0.3-0.3-0.5-0.3c-0.1,0-0.4,0-0.9,0H552V364.8z"/>
		</g>
		<g style="enable-background:new    ;">
			<path d="M577.4,381.1l3-6.9l2.2,1.7c0.6,0.4,0.9,0.8,1.1,1.1c0.2,0.3,0.3,0.7,0.3,1.1c0,0.4-0.1,0.9-0.2,1.3
				c-0.2,0.5-0.5,0.9-0.9,1c-0.4,0.2-0.8,0.1-1.3-0.1c0.2,0.3,0.3,0.7,0.3,1c0.1,0.3,0.1,0.8,0.1,1.6l0.1,1.8l-1.3-1l-0.1-2.1
				c0-0.7-0.1-1.2-0.1-1.4c0-0.2-0.1-0.4-0.2-0.5c-0.1-0.1-0.3-0.3-0.5-0.5l-0.2-0.2l-1.2,2.9L577.4,381.1z M580.1,377.9l0.8,0.6
				c0.5,0.4,0.8,0.6,1,0.6c0.1,0,0.3,0,0.4-0.1s0.2-0.2,0.3-0.4c0.1-0.2,0.1-0.5,0.1-0.7c0-0.2-0.1-0.4-0.3-0.6
				c-0.1-0.1-0.3-0.3-0.8-0.6l-0.8-0.6L580.1,377.9z"/>
		</g>
		<g style="enable-background:new    ;">
			<path d="M591.3,392.1l3.8-6.1l3.4,3.8l-0.6,1l-2.5-2.8l-0.8,1.4l2.3,2.6l-0.6,1l-2.3-2.6l-1,1.7l2.6,2.8l-0.6,1L591.3,392.1z"/>
		</g>
		<g style="enable-background:new    ;">
			<path d="M583,381.6c0.1-0.8,0.3-1.4,0.5-1.9c0.2-0.4,0.4-0.7,0.7-0.9c0.3-0.2,0.5-0.4,0.8-0.5c0.4-0.1,0.8-0.1,1.3,0
				c0.8,0.2,1.5,0.7,1.9,1.5c0.4,0.8,0.6,1.8,0.4,3.1c-0.1,1.2-0.5,2.1-1.1,2.7c-0.6,0.6-1.3,0.7-2.2,0.5c-0.9-0.2-1.5-0.7-1.9-1.5
				C583,383.8,582.8,382.8,583,381.6z M584.2,381.9c-0.1,0.9,0,1.5,0.2,2.1c0.2,0.5,0.6,0.8,1.1,1c0.5,0.1,0.9,0,1.2-0.4
				s0.6-1,0.7-1.9c0.1-0.9,0-1.6-0.2-2.1c-0.2-0.5-0.6-0.8-1.1-0.9c-0.5-0.1-0.9,0-1.2,0.4C584.5,380.4,584.3,381,584.2,381.9z"/>
		</g>
		<g style="enable-background:new    ;">
			<path d="M536.7,368.5c-0.1-0.8-0.1-1.5,0-2c0.1-0.4,0.2-0.8,0.4-1.2c0.2-0.4,0.4-0.6,0.6-0.8c0.3-0.3,0.7-0.4,1.1-0.5
				c0.8-0.2,1.5,0.1,2,0.7c0.6,0.6,0.9,1.6,1,2.8c0.1,1.3,0,2.3-0.4,3.1c-0.4,0.8-1,1.3-1.8,1.4c-0.8,0.2-1.5-0.1-2-0.7
				C537.2,370.7,536.8,369.8,536.7,368.5z M537.8,368.3c0.1,0.9,0.3,1.5,0.6,1.9c0.3,0.4,0.7,0.6,1.1,0.5c0.4-0.1,0.8-0.4,1-0.9
				c0.2-0.5,0.3-1.2,0.2-2.1c-0.1-0.9-0.3-1.5-0.6-1.9c-0.3-0.4-0.7-0.5-1.1-0.4s-0.8,0.4-1,0.9
				C537.8,366.7,537.7,367.4,537.8,368.3z"/>
		</g>
		<g style="enable-background:new    ;">
			<path d="M517.1,376.9l-1.2,0.6l-1-1.5l-2.2,1.1l0,1.9l-1.2,0.6l0.1-8.5l1.2-0.6L517.1,376.9z M514.2,375l-1.5-2.4l0,3.1
				L514.2,375z"/>
		</g>
		<g style="enable-background:new    ;">
			<path d="M603.7,406.6l-0.9-1.2l0.6-1.8l-1.7-2.3l-1.3,0.8l-0.9-1.2l5.9-3.4l0.9,1.2L603.7,406.6z M603.8,402.3l1-2.9l-2.1,1.3
				L603.8,402.3z"/>
		</g>
		<g style="enable-background:new    ;">
			<path d="M561.8,374.1l-1.3-0.3l-0.2-1.9l-2.3-0.6l-0.8,1.6l-1.3-0.3l3.5-7.2l1.3,0.3L561.8,374.1z M560.1,370.5l-0.4-3.1
				l-1.2,2.7L560.1,370.5z"/>
		</g>
		<g style="enable-background:new    ;">
			<path d="M517.4,376.8l-1.1-7.8l1.8-0.4l1.8,5.1l0.3-5.6l1.8-0.4l1.1,7.8l-1.1,0.3l-0.9-6.2l-0.3,6.5l-1.1,0.3l-2-5.9l0.9,6.2
				L517.4,376.8z"/>
		</g>
		<g style="enable-background:new    ;">
			<path d="M527.1,374.1l-0.6-7.9l1.9-0.3c0.7-0.1,1.2-0.1,1.4-0.1c0.3,0.1,0.7,0.3,0.9,0.7c0.3,0.4,0.4,0.9,0.5,1.5
				c0,0.5,0,0.9-0.1,1.3c-0.1,0.4-0.3,0.6-0.4,0.9s-0.4,0.4-0.6,0.5c-0.3,0.1-0.7,0.2-1.2,0.3l-0.8,0.1l0.2,3L527.1,374.1z
				 M527.8,367.4l0.2,2.2l0.7-0.1c0.5-0.1,0.8-0.2,0.9-0.3c0.2-0.1,0.3-0.3,0.3-0.4c0.1-0.2,0.1-0.4,0.1-0.6c0-0.3-0.1-0.5-0.2-0.7
				s-0.3-0.3-0.5-0.3c-0.1,0-0.4,0-0.9,0.1L527.8,367.4z"/>
		</g>
		<g style="enable-background:new    ;">
			<path d="M535.9,374.8v-8h1.9c0.7,0,1.2,0,1.4,0.1c0.3,0.1,0.6,0.4,0.9,0.8c0.2,0.4,0.3,0.9,0.3,1.5c0,0.5-0.1,0.9-0.2,1.2
				c-0.1,0.3-0.3,0.6-0.5,0.8c-0.2,0.2-0.4,0.3-0.6,0.4c-0.3,0.1-0.7,0.1-1.2,0.1h-0.8v3H535.9z M537.1,368.2v2.3h0.7
				c0.5,0,0.8,0,1-0.1s0.3-0.2,0.4-0.4s0.1-0.4,0.1-0.6c0-0.3-0.1-0.5-0.2-0.7c-0.1-0.2-0.3-0.3-0.5-0.4c-0.1,0-0.4-0.1-0.9-0.1
				H537.1z"/>
		</g>
		<g style="enable-background:new    ;">
			<path d="M572.2,377.8l2.9-6.9l1.7,1.3c0.6,0.5,1,0.8,1.2,1c0.3,0.3,0.4,0.7,0.5,1.2c0.1,0.5,0,1-0.3,1.6
				c-0.2,0.4-0.4,0.7-0.6,0.9s-0.5,0.3-0.7,0.3c-0.2,0-0.5,0-0.7-0.1c-0.3-0.1-0.7-0.4-1.1-0.7l-0.7-0.5l-1.1,2.6L572.2,377.8z
				 M575.7,372.8l-0.8,2l0.6,0.4c0.4,0.3,0.7,0.5,0.9,0.5c0.2,0,0.3,0,0.5-0.1c0.1-0.1,0.3-0.2,0.3-0.4c0.1-0.3,0.1-0.5,0.1-0.7
				c0-0.2-0.1-0.5-0.3-0.6c-0.1-0.1-0.4-0.3-0.7-0.6L575.7,372.8z"/>
		</g>
		<g style="enable-background:new    ;">
			<path d="M553,372.3l0.7-7.9l1.2,0.2l-0.7,7.9L553,372.3z"/>
		</g>
		<g style="enable-background:new    ;">
			<path d="M604.4,407.8l3.6-4.5l-1.2-1.7l0.7-0.9l3.3,4.6l-0.7,0.9l-1.2-1.7l-3.6,4.5L604.4,407.8z"/>
		</g>
		<g style="enable-background:new    ;">
			<path d="M588,389.2l3-5.3l-1.4-1.4l0.6-1.1l3.8,3.8l-0.6,1.1l-1.4-1.4l-3,5.3L588,389.2z"/>
		</g>
		<g style="enable-background:new    ;">
			<path d="M562.2,374.1l1.7-7.6l1.7,0.7l-0.1,5.6l2.2-4.8l1.7,0.7l-1.7,7.6l-1.1-0.4l1.3-6l-2.5,5.6l-1.1-0.4l0.2-6.5l-1.3,6
				L562.2,374.1z"/>
		</g>
		<g style="enable-background:new    ;">
			<path d="M598.8,396.7l0.7-0.9l1.8,2.6l-1.8,2.1c-0.4,0-0.8-0.2-1.2-0.5s-0.9-0.7-1.2-1.2c-0.4-0.6-0.7-1.3-0.8-2s-0.1-1.4,0.1-2
				c0.2-0.7,0.5-1.3,0.9-1.8c0.5-0.6,1-0.9,1.5-1.1c0.5-0.2,1.1-0.1,1.6,0.1c0.4,0.2,0.8,0.6,1.2,1.1c0.5,0.7,0.8,1.4,0.8,2.1
				c0.1,0.7-0.1,1.3-0.4,2l-1-1c0.2-0.3,0.2-0.7,0.2-1.1c0-0.4-0.2-0.7-0.4-1.1c-0.4-0.5-0.8-0.8-1.2-0.8c-0.5,0-0.9,0.3-1.4,0.9
				c-0.5,0.6-0.8,1.3-0.9,1.9s0.1,1.2,0.4,1.7c0.2,0.2,0.4,0.5,0.6,0.6c0.2,0.2,0.5,0.3,0.7,0.3l0.6-0.7L598.8,396.7z"/>
		</g>
	</g>
	<path style="fill:none;stroke:#FFF700;stroke-width:0.828;stroke-linecap:round;" d="M595.5,187.2c0,0,3.6-4.1,6.2-4.2 M596,186.6
		c0.1-0.1,21.5-4.1,22.2-5 M596.1,186.9c0.1-0.1,24-2.7,24-2.7 M596,187c0,0,25.4-1.6,27,0.1 M596,186.9c0,0,24.9,0.2,25.3,1
		 M596,186.9l24,2.6 M595.8,187.1c0.1,0,24.4,2.9,26.8,7 M623.9,199.9c-0.1-0.1-8.3-13.1-28.2-12.9 M595.8,187.2
		c0,0,13.8,1.3,18.1,7.6 M596,187c0,0,8.9-2.3,18.2,12.7"/>
	
		<linearGradient id="SVGID_3_" gradientUnits="userSpaceOnUse" x1="102.7553" y1="548.2989" x2="149.2733" y2="546.353" gradientTransform="matrix(0.3472 0 0 1.0934 567.508 -339.4711)">
		<stop  offset="0" style="stop-color:#D5DFFF"/>
		<stop  offset="1" style="stop-color:#FFFFFF"/>
	</linearGradient>
	<path style="fill:url(#SVGID_3_);stroke:#000000;stroke-width:0.621;stroke-miterlimit:2.484;" d="M590.4,200.6
		c0,0,12.4,0.7,12.4,2.3s-9.2,4.7-9.3,11.5s7,7.3,7.5,15.8c0.5,8.6-5.6,9.8-6.8,12.1c-1.2,1.1-4.1,13.2-3.8,20.3
		c0.4,7.1,1.9,31.2,4.7,36c2.2,2.3,5.4,9.5,9,7.3c3.5-2.3,1.1-10.5,0.7-12.8c-0.4-2.3,1.5-6,1.5-9.4s-1.3-6.1-1.2-6.9
		s9.8,3.1,9.2,15.8c-0.6,12.8-4.5,8.9-4.5,8.9s1.2,15.7-1.8,17.8c-5.4,3.9-9.4-0.8-9.4-0.8l0.5,3.2l-4.1-2.9c0,0-5.3-10.2-6.5-14.7
		s-2.7-24.7-2.2-29.1s0.8-29.9,0.6-31.2s-1.2-22.6-0.6-25.8C586.8,214.8,590.6,200.6,590.4,200.6z"/>
	<path style="fill:#FF7000;stroke:#000000;stroke-width:0.828;" d="M577.1,196.4c0,0,8.6-11.1,13.6-9.8c2.5,0,0.1,2.4,0.1,2.4
		s4.4,0.5,5,3.1c0.1,1.1-2.1,1.5-2.1,1.5s1.8,0.5,1.9,2.6C595.8,198.2,577.2,196.5,577.1,196.4z"/>
	<path style="fill:none;stroke:#000000;stroke-width:0.828;" d="M577.6,195.9c0,0,9.2-1.6,13.1-6.8 M586.9,192.5c0,0,6.8-0.3,6.8,1"
		/>
	<path style="fill:#FFFFFF;stroke:#000000;stroke-width:0.776;stroke-linejoin:round;" d="M611,324.6c0,0,5.8-1.8,7.4-4.5
		C619.4,319.1,624.5,330.2,611,324.6z"/>
	<path style="fill:none;stroke:#FFFFFF;stroke-width:0.776;stroke-linecap:round;" d="M609.4,260.5c0,0,0.7,6-1.3,10
		c-1.1,1.6-4.4,4.4-4.4,6.3s1.2,4.5,1,6.8s-2.1,4.5-1.9,6.5c0,1.9,2.1,12.3,1.8,12.4 M598.8,241.1c0,0-4.6,2.1-5.6,8.2"/>
	<path style="fill:#C75B00;stroke:#000000;stroke-width:0.828;" d="M596.8,192.5c0,0,1.6,5.8,6.7,0.3
		C600.2,186.9,596.8,192.7,596.8,192.5z"/>
	<path d="M600.6,192.3c0,0.3-0.2,0.6-0.5,0.6s-0.5-0.3-0.5-0.6s0.2-0.6,0.5-0.6S600.6,192,600.6,192.3z"/>
	<path style="fill:#FFFFFF;stroke:#000000;stroke-width:0.828;" d="M555.3,179c0,0,9.6,13.9,15.9,13.8c1.1,4.1-2.8,7.9-4.4,9.7
		c-3.2-1.4-6.1,0.2-13.4-11.9C553.8,182.9,555.4,179.3,555.3,179z M568.3,146.6c1.2-5.1,3.7-9.2,5.9-9.7c-0.6-3.9,4.5-21.3,19.4-28
		c0.9,8.9-6.4,17.7-6.4,17.7s21.9-5,26.3-12.4c-0.5,3.3-4.9,24.1-28.3,23.9c8.9,11.2-2.8,20.1-7.8,17.4
		C586.7,146.2,574.9,140.6,568.3,146.6z"/>
	<path style="fill:#CCCCCD;stroke:#CCCCCC;stroke-width:0.828;" d="M575.8,139.4c4.4-3.8,6-3.8,9.6-3c-2.6,0.5-2.6,0.6-2.6,0.6
		s-0.2,0.5,1.4,2.4C582.4,138.8,580.8,137.4,575.8,139.4z"/>
	<path style="fill:none;stroke:#000000;stroke-width:0.828;" d="M574.1,137c0,0,8.7-6.2,13.6-10.4"/>
	<path style="fill:#0000FF;stroke:#000000;stroke-width:0.828;" d="M566.6,202.5c0,0,12,4.4,13.4-18.6c-2.6-10-6.2-31.5-0.7-37.7
		c-5.1-4.7-10.7,0.2-10.7,0.2c-0.3,1.1-4.9,9.7,1.2,24.8c-14.5-5.1-8.6,13.2-8.6,13.2c0.6-2.9,8.3-5.6,10.2,9.1
		C572.3,197,566.3,202.6,566.6,202.5z"/>
	<path style="fill:#0000FF;stroke:#000000;stroke-width:0.828;" d="M580.1,184c0,0,12.7-9.1,12.4-30.4
		c-10.8,0.3-14.6,18.9-14.6,18.9L580.1,184L580.1,184z"/>
	<path style="fill:#FFFFFF;stroke:#000000;stroke-width:0.828;" d="M523.2,183c0,0-9.4,10.9-14.7,7.4c-4,3.2-8.6-2.4-8.6-2.4
		s5.4,26.8,25,7.4C524.4,189.5,523.4,183.4,523.2,183L523.2,183z"/>
	<path style="fill:#0000FF;stroke:#000000;stroke-width:0.828;" d="M508.3,189.9c0.8-5.6,4.1-8.3,6.7-3c3.5,0.9,7-18.3-5.4-15.1
		c3.5-25.1-7-34.5-7-34.5s-3.7,27.8-2,33c1.7,5.1-2.5-9.5-16-13.6c-0.2,21,15.1,30.9,15.1,30.9S503.9,192.8,508.3,189.9L508.3,189.9
		z"/>
	<path style="fill:none;stroke:#000000;stroke-width:0.828;" d="M509.5,171.6c0,0-5.9,6.7-4.5,15.7 M500.6,170.7
		c0,0-1.4,6.5,1.6,15.7 M499.7,188.5c0,0,2.7-5.9,8.6,1.7"/>
	<path style="fill:#FFFFFF;stroke:#000000;stroke-width:0.828;" d="M500.8,147.7c0-0.2-9,0-3.6,12.1c-4,1.7-12.8-6-6.7-16.3
		c-20.1-0.6-28.3-13.5-28.3-25.3c5.9,8.2,20,4.8,25,9.8c-6.1-7.6-4.9-18-4.9-18s17.1,6.8,20.2,27.1C501.5,141,501,148,500.8,147.7z"
		/>
	<path style="fill:none;stroke:#000000;stroke-width:0.828;" d="M487,127.5c3.3,4.5,11.8,5.8,16.1,10.8"/>
	<path style="fill:#CCCCCD;stroke:#CCCCCC;stroke-width:0.589;" d="M490.9,140.7c0,0,7-1.2,9.1,2.1c-2.8,0-3.7-0.9-7.6,1.1
		c1.1-0.8,0.8-2.1,1.4-2.1S491.2,140.7,490.9,140.7z"/>
	<path style="fill:#923F00;stroke:#000000;stroke-width:0.828;" d="M526,67.4c0,0,3.9-4.5,8.1-0.5c-1.9,7.6-8.7,4.7-8.7,4.7
		s0.2,3.8-0.5,5.6c1.4,1.4,2.5,5.9,2.5,5.9s7-2.3,8.5,1.8c2.7-0.5,4.7,0,4.7,0s5.4-1.8,7.4-1.8c1.9,0,8.1,2.1,8.6,3.6
		c0.6,1.5,2.6,11.6,4,11.5c1.4-0.2-3.3,2.4-4.5-0.2s-0.9,3.3-0.9,3.3s3.9,5.4,4.3,6.7c0.5,1.2-2.4,11-0.2,17.9c-1.9,0.2-2,2.9-2,2.9
		c-0.1,3-3,3.8-3,3.8l-0.7-4.1l-1.9,1.5l0.8-3.2c0,0,2.6-8.5,2.8-11.2s-2.4-7.6-4.4-7.6s-3.5,8.6-3.5,8.6s-1,6.5-0.7,7.1
		s-1.4-2.1-1.4-2.1s-0.9,3.9-1.6,5.1s-2.2,1.7-2.2,1.7s-1-3.9-0.7-5.4s5.6-7.4,5.1-11.6s0-3.2-0.1-3.3c-0.1-0.2-2.7-3.2-2.8-4.8
		c-0.1-1.7-3.4,2.1-7.7,0.9c-1.3,3.1-1.5,10.7-1.5,10.7s-0.5,9.2,0.5,10.3c0.9,1.1-2.3,3.3-2.3,3.3l-2.3,4.1c0,0-0.8-2.6-0.8-2.4
		c0,0.2-1.6,1.5-1.6,1.5l0.9-3c-0.1-2.3,2.2-8.5,2.2-13.8s0.3-11,0.3-11s-4.2-0.3-4.1,5.4c0.1,5.8-1,6.1-0.8,7.7s1.4,6.4,1,7.7
		c-0.3,1.4-1.7,1.8-1.7,1.8l-0.3,0.8c0,0-4.2,2.6-4.1,3.6c0.1,1.1-0.1-3-0.1-3l-0.2-4.4c0,0,2.5-2.1,2.5-7.4s-0.6-6-0.5-7.3
		c0.1-1.2,0.7-5.6,0.6-6.1c-0.1-0.5-2.4,1.2-3.1,1.2c-0.7,0,1.3-3.2,1.5-5.4s-2.3,2.1-4.3-0.5c0.9-2.8,2.4-3.6,2.6-5.7
		s-1.6,1.8-3.2,0.3c0.1-2,1.7-3.8,1.7-3.8s-1.3-0.2-1.8,0c-1-0.5,1.1-2.6,1.3-5.6c0.1-3-1.3-4.2-1.3-4.4s-2.3-2.7-2.6-3.8
		c-0.3-1.1-0.3-2.3-0.3-2.3s-3.7,3.6-8.2-4.1c4.1-4.6,8.4-1.2,8.4-1.2s1.1-4.2,6.3-3.9C525.2,63.9,526.2,67.8,526,67.4L526,67.4z"/>
	<path style="fill:#0000FF;stroke:#000000;stroke-width:0.828;" d="M554.5,145.6c0.1,0,9.6,0.4,9.7,7.2c0.1,6.8-2.9,5-3,5
		s-7-1.1-7-1.1L554.5,145.6z"/>
	<path style="fill:#FFFEFF;stroke:#000000;stroke-width:0.828;" d="M545.3,143.7c0,0,11.9-0.1,11.2,6.8c-0.7,6.9-3.7,5.5-3.7,5.5
		l-5.8-0.6L545.3,143.7L545.3,143.7z"/>
	<path style="fill:#0000FF;stroke:#000000;stroke-width:0.828;" d="M538.6,143l6.9,0.8c0,0,4.2,0.8,4,6.1s-4.3,5.4-4.3,5.4l-6.7-0.5
		L538.6,143L538.6,143z"/>
	<path style="fill:#FFFFFF;stroke:#000000;stroke-width:0.828;" d="M522.4,145.6c-0.1,0-9.6,0.4-9.7,7.2c-0.1,6.8,2.9,5,3,5
		s7-1.1,7-1.1L522.4,145.6L522.4,145.6z"/>
	<path style="fill:#0000FF;stroke:#000000;stroke-width:0.828;" d="M531.7,143.7c0,0-11.9-0.1-11.2,6.8c0.7,6.9,3.7,5.5,3.7,5.5
		l5.8-0.6L531.7,143.7L531.7,143.7z"/>
	<path style="fill:#FFFFFF;stroke:#000000;stroke-width:0.828;" d="M538.4,143l-6.9,0.8c0,0-4.2,0.8-4,6.1s4.3,5.4,4.3,5.4l6.7-0.5
		L538.4,143L538.4,143z"/>
	<path style="fill:#5E0043;stroke:#000000;stroke-width:0.828;" d="M556.9,219.5c0,0,5-9.7,7.1-8.7c1.8,0.8,0.4,8.4-0.4,9.1
		L556.9,219.5z M522.9,221.2c-1.6-2.9-3.8-10.9-5.9-8.7c-1.8,0.8-0.4,8.4,0.4,9.1L522.9,221.2z"/>
	<path style="fill:none;stroke:#000000;stroke-width:0.828;" d="M526.1,201.9c0,0,9.7,7.9,12.8,8.1c3.2,0.2,13.2-10.3,13.2-10.3"/>
	<path style="fill:#5E0043;stroke:#000000;stroke-width:0.828;" d="M527.1,170.8l1.9-3.1l9.3,6.3l9.4-5.6l1.9,2.6l-10.5,9.9
		L527.1,170.8L527.1,170.8z"/>
	<path style="fill:#474747;stroke:#474747;stroke-width:0.776;stroke-linejoin:round;" d="M519.7,170.6c0.8,1.3,6.7,11,7.8,19
		s-0.6-11-0.6-11s7.4,4.8,7.7,7.9c0.2,3.1,3.5-0.2,3.7-0.7l-21.5-18.6L519.7,170.6L519.7,170.6z M556.4,170.1c0,0-7.8,13.7-6.9,28.7
		c-1.6-7.2-0.3-19-0.3-19l-1.7,1.4c0,0-1.8,10.1-4,11.6c-0.4-1.2-0.3-1.6-0.3-1.6s-2.4,4.1-2.9,4.5s0.2,13.9,0.2,13.9
		s0.8,9.8,1.7,9.7c-1.1,0.7-2.3,1.8-2.3,1.8l-1-26.1l2.2-2.9c0,0,2.9-4.7,3.2-9.4c-1.3,1.4-2.7,1.9-2.7,1.9s-0.4,6.6-1.5,7.5
		c-1.2,0.9-1.2,2.7-1.2,2.7l-0.3-8.6L556.4,170.1L556.4,170.1z"/>
	<path style="fill:none;stroke:#000000;stroke-width:0.776;stroke-linecap:round;" d="M538.5,186l1.5,41.2"/>
	<path style="fill:none;stroke:#000000;stroke-width:0.828;" d="M519.5,205.6c0,0,3.6,2.8,4.9,11.2c11.6-1.1,15.2,4.3,15.2,4.3
		s9.5-6.1,13.9-5c1.5-4.3,5.9-9.9,5.9-9.9"/>
	<path style="fill:#B4B6B9;stroke:#000000;stroke-width:0.828;" d="M514.6,165.2l23.9,20.8l21.5-19.3c0,0,4.5-3.3,4.1-5.7
		s-1.9-1.4-2.7-1s-22.5,20.9-22.5,20.9l-23.1-19.5c0,0-1.7-0.7-2,0.7C513.5,163.7,514.4,164.5,514.6,165.2L514.6,165.2z"/>
	<path style="fill:#474747;stroke:#474747;stroke-width:0.776;stroke-linejoin:round;" d="M557.3,159.8c0,0-6.1-3.5-6.1-0.5
		s0.2,3.3,1.2,5.2s-0.8,3.1-0.8,3.1s-0.2-0.8-0.6-2.2c-0.3-1.3-3.6-2.2-3.9-3.8c-0.3-1.5,0.7-4-1.3-4.3s-3.9,1.1-4.3,4.1
		c-0.4,3-2.9,10-2.9,10l0.3-15.9c4.3,0.4,12.3,1.7,18.4,2.6c-1.8-0.4,0.7,0.2,0.6,1C557.9,160,557.3,160.1,557.3,159.8z
		 M535.7,155.8c-1.1,0-6.6,0.8-8,1.9c-1.4,1.1,2.2,2.8,1.8,4.2c-0.5,1.5-0.5,4.4-2.2,3.8c-1.7-0.6-7.5-4.5-7.7-5.8s-1.4-1.4-1.4-1.4
		S534.9,155.6,535.7,155.8z"/>
	<path style="fill:none;stroke:#000000;stroke-width:0.828;" d="M538.4,154v19.5 M527.1,131c0,0-6.7,14.5-6.8,14.9"/>
	
		<linearGradient id="SVGID_4_" gradientUnits="userSpaceOnUse" x1="19.3824" y1="577.7819" x2="31.9967" y2="577.7819" gradientTransform="matrix(0.4601 0 0 0.8251 553.5074 -339.6279)">
		<stop  offset="0" style="stop-color:#474747"/>
		<stop  offset="1" style="stop-color:#FF5500"/>
	</linearGradient>
	<path style="fill:url(#SVGID_4_);stroke:#000000;stroke-width:0.621;stroke-miterlimit:2.484;" d="M539.4,130.6
		c0,0,2.9,5.3,2.6,6.8c1.2,1.2,2.5,6.2,2.5,6.2"/>
	<path style="fill:none;stroke:#000000;stroke-width:0.828;" d="M550.7,129.7c0,0-6.3,11.8-6.1,12.7"/>
	<path d="M518.4,73.4c-0.1,0.7-0.9,0.9-1.8,0.6c-0.8-0.3-1.4-1.2-1.3-1.8c0.1-0.7,0.9-0.9,1.8-0.6S518.6,72.8,518.4,73.4L518.4,73.4
		z M521,73.2c0.1,0.7,0.9,0.9,1.8,0.6s1.4-1.2,1.3-1.8c-0.1-0.7-0.9-0.9-1.8-0.6S520.8,72.5,521,73.2L521,73.2z"/>
	<path style="fill:#FF7000;stroke:#000000;stroke-width:0.828;stroke-linejoin:round;" d="M594.7,318.5c0,0-2.3,0.6-2.3,0.9
		c0.1,0.3-6.8,0.6-6.9,0.3c-0.1-0.3-1,1.6-1,1.6l1.1-0.9c0,0,1.7,2.3,2.2,2.1c0.5-0.2-0.2,0.9-0.1,1.1c0.1,0.2,0.7-0.4,0.7-0.4
		l11.3-0.3L594.7,318.5L594.7,318.5z"/>
	<path style="fill:#FF7000;stroke:#000000;stroke-width:0.776;stroke-linejoin:round;" d="M598.9,323.2l-9.3,0.4
		c0,0-2.3,2.8-2.5,3.5c-0.1,0.7,1.5,0.9,1.5,0.9l0.5,2.3l1.2-0.6c0,0,7.9,1.6,15.1-0.6c3.6-1.7,4.3-3.7,1.7-5
		C604.6,322.9,599,323.3,598.9,323.2L598.9,323.2z"/>
	
		<linearGradient id="SVGID_5_" gradientUnits="userSpaceOnUse" x1="135.6154" y1="2881.6843" x2="95.8363" y2="2844.6116" gradientTransform="matrix(1.5914 0 0 0.2385 413.2227 -339.8819)">
		<stop  offset="0" style="stop-color:#D5DFFF"/>
		<stop  offset="1" style="stop-color:#FFFFFF"/>
	</linearGradient>
	<path style="fill:url(#SVGID_5_);stroke:#000000;stroke-width:0.621;stroke-miterlimit:2.484;" d="M567.2,348.6l16.7-1l-3.1-3.5
		l45.1-2.4l-1.6-4.8l-50.5,2.7l6.1,3.8l-13.6,0.5l0.4,1.9l-3.6-0.2C563,345.6,567,347.7,567.2,348.6L567.2,348.6z"/>
	
		<linearGradient id="SVGID_6_" gradientUnits="userSpaceOnUse" x1="82.4585" y1="868.1883" x2="71.2919" y2="845.6016" gradientTransform="matrix(0.5504 0 0 0.6896 542.3079 -339.6559)">
		<stop  offset="0" style="stop-color:#D5DFFF"/>
		<stop  offset="1" style="stop-color:#FFFFFF"/>
	</linearGradient>
	<path style="fill:url(#SVGID_6_);stroke:#000000;stroke-width:0.621;stroke-miterlimit:2.484;" d="M585.9,225.8
		c-1.3-0.9-7.2-1.9-13.6,3.7l0.3,20c0,0,9.5-6.9,14.2-5.3C586.4,237.9,586.4,230,585.9,225.8z"/>
	<path style="fill:none;stroke:#000000;stroke-width:0.828;" d="M493.7,286.3l-39.3,52 M511.2,286.7l-31.9,56 M509.8,272.1
		l-42.6,68.8 M465.9,339.9l4.1-6.5 M517.9,306.7l-16.5,30.4 M500.6,341.1l0.4,11.6 M525.4,317.3l-17.5,29.3 M522.3,344.3l7.1-15.6
		 M525,325.7l-8.5,12.9 M522.4,313.5l-5.8,9.5 M514.9,299.6c0,0-17.8,34.8-17.5,37.6 M513,295.1c-0.4,0.4-15.4,26.8-15.4,26.8
		 M496.8,330.2l-2.7,4.4 M490.7,341.3l-4.1,7.2"/>
	<path style="fill:#8A9396;stroke:#2B2B2B;stroke-width:0.828;" d="M491.7,206.3c0,0-1.2,5.1,0,7.6s8.8,23,8.8,23s5.2-8.5,7.1-8.7
		s1,22.1,1,22.1s-3.1,3.9-5,3.7s4.7,8.7,4.5,16.3s-8.6,45.3-11.7,46s1.4-6.9,1.2-9c-0.2-2.1-1-0.7-1.7-3s1-5.7,0.7-8
		s-1.9-1.8-2.1-3.4s1-2.1,0.9-3.9c-0.2-1.8-2.1-1.4-1.9-3s0.3-0.9,0.2-3.9c-0.2-3-0.5,2.1-2.4,2.3c-1.9,0.2-3.4,6-3.4,6
		s-3.8,7.1-7.6,3.9c2.2,6.4,0.5,9.2-0.3,9.4c-0.9,0.2,0.7,5.1-1.4,5.3s1.6,10.8-0.9,11.7c2.6,1.6,0.5,3.7,0.5,3.7s-6,0.7-4.7,11
		c-17.6-8.3-26.2-22.5-26-37s3.6-27.6,12.1-32.4c2.4-12,6.5-24.8,6.5-24.8s-0.7-5.3-0.2-8.7s2.9-6.9,2.9-6.9s-0.3-8.3-0.2-12.4
		c0.2-4.1,1.4-6,1.6-8.3s-0.5-14,1.2-16.1s5-1.8,6.7-3.2s4-3.9,6.2-3.7s4.1,2.3,4.1,2.3s8.4,0,9,4.4c0.5,4.4-1.7,6-1.7,6
		S496.9,200.6,491.7,206.3L491.7,206.3z"/>
	<path style="fill:#CECFCF;stroke:#2B2B2B;stroke-width:0.828;" d="M484.2,190.4c0.3,0.7-0.3,1.8-1.4,2.6c-1,0.7-2.1,0.8-2.4,0.1
		s0.3-1.8,1.4-2.6S483.9,189.8,484.2,190.4L484.2,190.4z"/>
	<path d="M482.8,191.6c0,0.4-0.3,0.8-0.6,0.8c-0.4,0-0.6-0.3-0.6-0.8c0-0.4,0.3-0.8,0.6-0.8S482.8,191.2,482.8,191.6z"/>
	<path style="fill:none;stroke:#2B2B2B;stroke-width:0.388;" d="M495.4,199.2c0,0,2.1,12.5-0.4,21.1 M496,193.7
		c0,0,4.1,7.2,3.6,16.2 M496.4,192.2c0.1,0,3.4,3.9,3.3,6.5 M497.2,190.6c0,0,2.2,2.1,2.8,4.2"/>
	<path style="fill:none;stroke:#000000;stroke-width:0.828;" d="M496.2,189.3c0,0-8,17.4-7,28.3"/>
	<path style="fill:none;stroke:#2B2B2B;stroke-width:0.388;" d="M496.7,188.8c0,0-10.7,8.4-12.6,36"/>
	<path style="fill:none;stroke:#000000;stroke-width:0.828;" d="M495.5,193.9l-4.2,4.2"/>
	<path style="fill:none;stroke:#2B2B2B;stroke-width:0.388;" d="M480.1,226.4c0,0,5.9-32.8,16.5-37.6"/>
	<path style="fill:#2B2B2B;stroke:#2B2B2B;stroke-width:0.828;" d="M500.6,237.5c0,0,5.7-9.5,7-9.1s0.9,22,0.9,22s-4.2,4.2-5.1,4
		s4.7,10.2,4.6,14.1s-0.3,3.9-0.3,3.9s0-2.3-1.3-6s-0.5-7.9-9.1-17.2c-2.1-5.8,4.2,3.5,5.5,2.1C504.2,249.8,500.5,237.6,500.6,237.5
		L500.6,237.5z"/>
	<path style="fill:none;stroke:#2B2B2B;stroke-width:0.828;" d="M490.6,184.1c0,0-2.4,0.9-2.7,2.2c-0.3,1.3-1.7,2.6-2.5,2.2
		c-0.8-0.4-2.2-2-2.2-2"/>
	<path style="fill:#2B2B2B;stroke:#2B2B2B;stroke-width:0.776;stroke-linejoin:round;" d="M477,195.2c0,0-3.6,4.8-1.8,5.3
		c1.7,0.6,3.6-3.8,3.6-3.8s0,7.4,1.5,6.2s6-5.3,6-5.3s1.5-0.2,1.8,0c0.3,0.1,4.1,4.5,6.6,2.9c-1.4,4.9-3,5.5-3,5.5s-2.6,4.5-6,3.5
		s-4.2-2.9-4.2-2.9s-2.8,0.3-3.7-1.4c-0.9-1.7-1.2-2.7-1.2-2.7s-1.6,2.2-2.1,1.2C474.1,202.5,474.6,196.6,477,195.2L477,195.2z"/>
	<path style="fill:none;stroke:#2B2B2B;stroke-width:0.828;" d="M497.3,188.5c0,0-6.6-2.6-8.9,1.7s-1.7,6.8-0.5,7.2"/>
	<path d="M498.3,188.3c0,1-0.6,1.9-1.2,1.9s-1.2-0.8-1.2-1.9s0.6-1.9,1.2-1.9C497.7,186.4,498.3,187.2,498.3,188.3z"/>
	<path style="fill:#2B2B2B;stroke:#2B2B2B;stroke-width:0.828;" d="M479.1,210.7c0,0,2.7,5.5,5.9,7s-2.2,2.8-5.4-0.1
		c-2.3-4.2-1.7-7.2-1.7-7.2S478.5,209.6,479.1,210.7z M502.1,243.3c0,0-7.6-14-9.7-14.8c-2.2-0.8,1.7-1.4,4,1.6s-0.6-4.8-0.6-4.8
		L502.1,243.3z"/>
	<path style="fill:#2B2B2B;stroke:#2B2B2B;stroke-width:0.776;stroke-linejoin:round;" d="M478.4,324.3c2.9-1,15.5,9.7,18.4,12.4
		c2.8,2.7,8.8,1,8.8,1s-2.7,2.2-4.5,2.8c-1.7,0.6,5.1,0.6,5.1,0.6s-16.2,5.9-32.6-5.6C472.1,326.4,477.1,324.4,478.4,324.3
		L478.4,324.3z"/>
	<path style="fill:#2B2B2B;stroke:#2B2B2B;stroke-width:0.828;" d="M496.8,246.8c0,0-2.1-0.5-3.2-2.2s-2.6-5.7-4.2-7.5
		c-1.6-1.7-9.6-7.6-12.5-7.2c-2.9,0.4-3.8-0.4-4.1-0.9c-0.4-0.5-1.6,0.2-1.3,2.2c0.2,2-2.2,6.4-1.3,8.5c0.9,2.1,5,10.5,5.9,10.8
		s0.3,4.9,0.3,4.9s3.7,5,4.6,5.2c0.9,0.3,1.9,1.2,1.8,2.3c-0.1,1.2-4,7.6-4,7.6s-4.2,3-4.3,4.6c-0.1,1.7,1,5.1,4.4,6.2
		s12.4,0.2,12.9-0.8s1.2-7.2,0.9-7.9s-2.5-2.5-3.7-2.2c-1.1,0.3-2.2,1.5-2.1,1.8s-1.6,1.4-1.6,0.3s3.4-6.1,3.7-5.7
		c0.3,0.4,5.1,1,6,4.2s0.9,5.5,3.4,5.1c2.5-0.3,6-3.4,6.3-9.7c0.3-6.4-2.8-10.6-3.6-11.3c-0.8-0.6-3.4-2.7-3.6-3.7
		C496.9,250.7,496.4,247.6,496.8,246.8L496.8,246.8z"/>
	<path style="fill:#2B2B2B;stroke:#2B2B2B;stroke-width:0.828;" d="M452.1,274.8c0,0,8-2.8,10.1-2.7c2.1,0.1,9.9,4.9,12.2,7.9
		c2.3,3,6.9,10,10,9.4s3.9-1.4,3.9-1.4l-1.2,3c0,0-2.5,0.9-3.7,0.5s-3.7-1.5-6.1-4.6c-2.4-3.2-9.9-11.7-16.3-11.1s-10,9-10,9
		s0.1-4.1,0.3-5c0.3-0.9-1.3,1.9-1.3,1.9L452.1,274.8L452.1,274.8z"/>
	<path style="fill:#2B2B2B;stroke:#2B2B2B;stroke-width:0.828;" d="M481.6,283.1c0.1,0.1,2,0.8,5.3,0.8s5.1-1.9,5.1-1.9l-0.2-1.7
		l0.5-2.4c0,0,2.5,3.5,2.5,4.1s-1,1-1,1l-0.4-1.7l-0.9,1.5c0,0-4.8,5.1-7.5,4.3c-2.6-0.8-5.1-3-4.4-3.6
		C481.4,282.9,481.7,283.1,481.6,283.1L481.6,283.1z M469.9,292.2c0,0-2.9-0.1-4.2,0.8s-1.8,1.9-2.6,1.7c-0.9-0.1-1.6-1.7-1.3-2.3
		c0.4-1,2.1-2.2,5.3-1.9C470.4,290.8,469.9,292.2,469.9,292.2L469.9,292.2z M480.1,302.6c0-0.2-0.2-5.7-1.8-7.9
		c-1.6-2.2-3.6-2.2-4.5-1.9c-0.9,0.3,3.3,2.7,3.7,4.3c0.4,1.6,1.8,6,1.4,7.1s-1-3.1-3.6-4.3c-2.5-1.2-6.1-0.5-5.3,1
		c0.7,1.5,3.6,0.1,5,3.4c1.4,3.2,2.5,6.7,2.5,6.7l0.5-2.4l1.3-0.5l0.2-4.5L480.1,302.6L480.1,302.6z"/>
	<path style="fill:#2B2B2B;stroke:#2B2B2B;stroke-width:0.776;stroke-linejoin:round;" d="M478,320.3l-2.6-7c0,0-0.8-4.5-3.1-5.7
		c-2.2-1.2-5.2-1-5.2,0.5s4.8,3.4,5.1,4.3c0.3,0.8,0.2,2.2-0.3,2.3c-0.4,0.1-2.5-1-3.6-0.7s-1.7,2.2-3.3,1.7c-1.6-0.6-3-7.4-2.3-8.1
		c0.6-0.7-1.2,1.2-1.6-0.6c-0.4-1.8,0.5-7.4-0.1-8.1s-3.6-3.1-3.7-3.6s0.2-27.5,17.1-5.1c-7.2-11.5-10.1-10.2-11.4-10.3
		c-1,0-7.6,0.8-9.2,11.9c-1.7,11.2-3.6,4.2-3.6,4.2s-0.4,4.8,1.4,6.2c1.8,1.4-0.8,5.4-0.8,5.4s-3.2-10.3-2.7-14.8
		c-0.6,3.6-0.6,12.5,3.4,22.2c4.7,6.6,9.1,12.6,20.8,19.5C478.3,322,478,320.5,478,320.3L478,320.3z"/>
	<path style="fill:#8A9396;stroke:#2B2B2B;stroke-width:0.776;stroke-linejoin:round;" d="M466.9,320.4c0,0,3.4,0.5,4.3,2.9
		c0.9,2.3,1.3,5.9,1.3,5.9c0.6-1.5,0.8-2.8,2-3.9c1.1-1.1,2-1.2,1.9-2.1s-3.6-5.9-5.4-6.1c-1.8-0.3-5,2.6-5,2.6
		S465.5,320.8,466.9,320.4L466.9,320.4z"/>
	<g>
		<path style="fill:none;stroke:#8A9396;stroke-width:0.776;stroke-linecap:round;" d="M474.7,332.3c0,0,8.9,5.4,23.4,5.7"/>
		<path style="fill:none;stroke:#2B2B2B;stroke-width:0.776;stroke-linecap:round;" d="M504.3,277.4c0,0-0.8,9.9-6.5,29.5"/>
		<path style="fill:none;stroke:#2B2B2B;stroke-width:0.828;" d="M503.2,283.5c0,0-1.7,7.1-6.5,12.4"/>
	</g>
</g>
</svg>
