<?xml version="1.0" encoding="utf-8"?>
<!-- Generator: Adobe Illustrator 25.2.1, SVG Export Plug-In . SVG Version: 6.00 Build 0)  -->
<svg version="1.1" id="Layer_1" xmlns="http://www.w3.org/2000/svg" xmlns:xlink="http://www.w3.org/1999/xlink" x="0px" y="0px"
	 viewBox="0 0 720 480" style="enable-background:new 0 0 720 480;" xml:space="preserve">
<g>
	<path style="fill:#FFFFFF;" d="M0,0h720v480H0V0z"/>
	<path style="fill:#0038B8;" d="M0,45h720v75H0V45z M0,360h720v75H0V360z"/>
	<path style="fill:#0038B8;" d="M360,343.9l-32.7-52h-65.5l32.7-52l-32.7-52h65.5l32.7-52l32.7,52h65.5l-32.7,52l32.7,52h-65.5
		L360,343.9z M348.1,292l11.9,19l11.9-19H348.1z M403.1,275.5H427l-11.9-19L403.1,275.5z M337.7,275.5h44.7l22.3-35.5l-22.3-35.5
		h-44.7L315.3,240L337.7,275.5z M293,275.5h23.9l-11.9-19L293,275.5z M293,204.5l11.9,19l11.9-19H293z M403.1,204.5l11.9,19l11.9-19
		H403.1z M348.1,188h23.9l-11.9-19L348.1,188z"/>
</g>
</svg>
