<?xml version="1.0" encoding="utf-8"?>
<!-- Generator: Adobe Illustrator 25.2.1, SVG Export Plug-In . SVG Version: 6.00 Build 0)  -->
<svg version="1.1" id="Layer_1" xmlns:svg="http://www.w3.org/2000/svg"
	 xmlns="http://www.w3.org/2000/svg" xmlns:xlink="http://www.w3.org/1999/xlink" x="0px" y="0px" viewBox="0 0 720 480"
	 style="enable-background:new 0 0 720 480;" xml:space="preserve">
<g>
	<rect x="-1" y="1.1" style="fill:#FFFFFF;" width="720" height="477.9"/>
	<path id="wave" style="fill:#002B7F;" d="M719,416.7c-8.1,6.4-15,21.5-36.4,21.5c-42.9,0-53.6-31.7-85.7-31.7
		c-21.4,0-32.1,31.7-53.6,31.7c-42.9,0-53.6-31.7-85.7-31.7c-21.4,0-32.1,31.7-53.6,31.7c-42.9,0-53.6-31.7-85.7-31.7
		c-21.4,0-32.1,31.7-53.6,31.7c-42.9,0-53.6-31.7-85.7-31.7c-21.4,0-32.1,31.7-53.6,31.7c-42.9,0-53.6-31.7-85.7-31.7
		c-21.4,0-27.9,22.6-40.7,22.6v40.8c12.9,0,19.3-22.6,40.7-22.6c32.1,0,42.9,31.7,85.7,31.7c21.4,0,32.1-31.7,53.6-31.7
		c32.1,0,42.9,31.7,85.7,31.7c21.4,0,32.1-31.7,53.6-31.7c32.1,0,42.9,31.7,85.7,31.7c21.4,0,32.1-31.7,53.6-31.7
		c32.1,0,42.9,31.7,85.7,31.7c21.4,0,32.1-31.7,53.6-31.7c32.1,0,42.9,31.7,85.7,31.7c21.4,0,28.4-9,36.4-15.4V416.7z"/>
	<g transform="translate(0,-49.75348)">
		<path id="wave_1_" style="fill:#002B7F;" d="M719,337.4c-8.1,6.4-15,21.5-36.4,21.5c-42.9,0-53.6-31.7-85.7-31.7
			c-21.4,0-32.1,31.7-53.6,31.7c-42.9,0-53.6-31.7-85.7-31.7c-21.4,0-32.1,31.7-53.6,31.7c-42.9,0-53.6-31.7-85.7-31.7
			c-21.4,0-32.1,31.7-53.6,31.7c-42.9,0-53.6-31.7-85.7-31.7c-21.4,0-32.1,31.7-53.6,31.7c-42.9,0-53.6-31.7-85.7-31.7
			c-21.4,0-27.9,22.6-40.7,22.6v40.8c12.9,0,19.3-22.6,40.7-22.6c32.1,0,42.9,31.7,85.7,31.7c21.4,0,32.1-31.7,53.6-31.7
			c32.1,0,42.9,31.7,85.7,31.7c21.4,0,32.1-31.7,53.6-31.7c32.1,0,42.9,31.7,85.7,31.7c21.4,0,32.1-31.7,53.6-31.7
			c32.1,0,42.9,31.7,85.7,31.7c21.4,0,32.1-31.7,53.6-31.7c32.1,0,42.9,31.7,85.7,31.7c21.4,0,28.4-9,36.4-15.4V337.4z"/>
	</g>
	<g transform="translate(0,-99.50701)">
		<path id="wave_2_" style="fill:#002B7F;" d="M719,258.1c-8.1,6.4-15,21.5-36.4,21.5c-42.9,0-53.6-31.7-85.7-31.7
			c-21.4,0-32.1,31.7-53.6,31.7c-42.9,0-53.6-31.7-85.7-31.7c-21.4,0-32.1,31.7-53.6,31.7c-42.9,0-53.6-31.7-85.7-31.7
			c-21.4,0-32.1,31.7-53.6,31.7c-42.9,0-53.6-31.7-85.7-31.7c-21.4,0-32.1,31.7-53.6,31.7c-42.9,0-53.6-31.7-85.7-31.7
			c-21.4,0-27.9,22.6-40.7,22.6v40.8c12.9,0,19.3-22.6,40.7-22.6c32.1,0,42.9,31.7,85.7,31.7c21.4,0,32.1-31.7,53.6-31.7
			c32.1,0,42.9,31.7,85.7,31.7c21.4,0,32.1-31.7,53.6-31.7c32.1,0,42.9,31.7,85.7,31.7c21.4,0,32.1-31.7,53.6-31.7
			c32.1,0,42.9,31.7,85.7,31.7c21.4,0,32.1-31.7,53.6-31.7c32.1,0,42.9,31.7,85.7,31.7c21.4,0,28.4-9,36.4-15.4V258.1z"/>
	</g>
	<g transform="translate(0,-149.26056)">
		<path id="wave_3_" style="fill:#002B7F;" d="M719,178.9c-8.1,6.4-15,21.5-36.4,21.5c-42.9,0-53.6-31.7-85.7-31.7
			c-21.4,0-32.1,31.7-53.6,31.7c-42.9,0-53.6-31.7-85.7-31.7c-21.4,0-32.1,31.7-53.6,31.7c-42.9,0-53.6-31.7-85.7-31.7
			c-21.4,0-32.1,31.7-53.6,31.7c-42.9,0-53.6-31.7-85.7-31.7c-21.4,0-32.1,31.7-53.6,31.7c-42.9,0-53.6-31.7-85.7-31.7
			c-21.4,0-27.9,22.6-40.7,22.6v40.8c12.9,0,19.3-22.6,40.7-22.6c32.1,0,42.9,31.7,85.7,31.7c21.4,0,32.1-31.7,53.6-31.7
			c32.1,0,42.9,31.7,85.7,31.7c21.4,0,32.1-31.7,53.6-31.7c32.1,0,42.9,31.7,85.7,31.7c21.4,0,32.1-31.7,53.6-31.7
			c32.1,0,42.9,31.7,85.7,31.7c21.4,0,32.1-31.7,53.6-31.7c32.1,0,42.9,31.7,85.7,31.7c21.4,0,28.4-9,36.4-15.4V178.9z"/>
	</g>
	<g transform="translate(0,-199.01404)">
		<path id="wave_4_" style="fill:#002B7F;" d="M719,99.6c-8.1,6.4-15,21.5-36.4,21.5c-42.9,0-53.6-31.7-85.7-31.7
			c-21.4,0-32.1,31.7-53.6,31.7c-42.9,0-53.6-31.7-85.7-31.7c-21.4,0-32.1,31.7-53.6,31.7c-42.9,0-53.6-31.7-85.7-31.7
			c-21.4,0-32.1,31.7-53.6,31.7c-42.9,0-53.6-31.7-85.7-31.7c-21.4,0-32.1,31.7-53.6,31.7c-42.9,0-53.6-31.7-85.7-31.7
			C18.3,89.4,11.9,112-1,112v40.8c12.9,0,19.3-22.6,40.7-22.6c32.1,0,42.9,31.7,85.7,31.7c21.4,0,32.1-31.7,53.6-31.7
			c32.1,0,42.9,31.7,85.7,31.7c21.4,0,32.1-31.7,53.6-31.7c32.1,0,42.9,31.7,85.7,31.7c21.4,0,32.1-31.7,53.6-31.7
			c32.1,0,42.9,31.7,85.7,31.7c21.4,0,32.1-31.7,53.6-31.7c32.1,0,42.9,31.7,85.7,31.7c21.4,0,28.4-9,36.4-15.4V99.6z"/>
	</g>
	<g transform="translate(0,-248.76752)">
		<path id="wave_5_" style="fill:#002B7F;" d="M719,20.4c-8.1,6.4-15,21.5-36.4,21.5c-42.9,0-53.6-31.7-85.7-31.7
			c-21.4,0-32.1,31.7-53.6,31.7c-42.9,0-53.6-31.7-85.7-31.7c-21.4,0-32.1,31.7-53.6,31.7c-42.9,0-53.6-31.7-85.7-31.7
			c-21.4,0-32.1,31.7-53.6,31.7c-42.9,0-53.6-31.7-85.7-31.7c-21.4,0-32.1,31.7-53.6,31.7c-42.9,0-53.6-31.7-85.7-31.7
			C18.3,10.2,11.9,32.7-1,32.7v40.8C11.9,73.6,18.3,51,39.7,51c32.1,0,42.9,31.7,85.7,31.7c21.4,0,32.1-31.7,53.6-31.7
			c32.1,0,42.9,31.7,85.7,31.7c21.4,0,32.1-31.7,53.6-31.7c32.1,0,42.9,31.7,85.7,31.7c21.4,0,32.1-31.7,53.6-31.7
			c32.1,0,42.9,31.7,85.7,31.7c21.4,0,32.1-31.7,53.6-31.7c32.1,0,42.9,31.7,85.7,31.7c21.4,0,28.4-9,36.4-15.4V20.4z"/>
	</g>
	<rect x="-1" y="1.1" style="fill:#FFFFFF;" width="360" height="242.2"/>
	<g>
		<defs>
			<rect id="SVGID_1_" x="-1" y="1.1" width="360" height="239"/>
		</defs>
		<clipPath id="SVGID_2_">
			<use xlink:href="#SVGID_1_"  style="overflow:visible;"/>
		</clipPath>
		<g style="clip-path:url(#SVGID_2_);">
			<rect x="-1" y="1.1" style="fill:#00247D;" width="360" height="239"/>
			<path style="stroke:#FFFFFF;stroke-width:30;" d="M-1,1.1l360,239 M359,1.1L-1,240"/>
			<g>
				<defs>
					<path id="SVGID_3_" d="M-1,1.1v119.5h420V240h-60L-1,1.1z M359,1.1H179v318.6H-1V240L359,1.1z"/>
				</defs>
				<clipPath id="SVGID_4_">
					<use xlink:href="#SVGID_3_"  style="overflow:visible;"/>
				</clipPath>
				<path style="clip-path:url(#SVGID_4_);stroke:#CF142B;stroke-width:20;" d="M-1,1.1l360,239 M359,1.1L-1,240"/>
			</g>
			<path style="stroke:#FFFFFF;stroke-width:50;" d="M179,1.1v318.6 M-1,120.5h420"/>
			<path style="stroke:#CF142B;stroke-width:30;" d="M179,1.1v318.6 M-1,120.5h420"/>
		</g>
	</g>
	<g>
		<g transform="matrix(0.604762,0,0,0.604762,0,-1.160721e-4)">
			<path style="fill:#A24300;stroke:#FFFFFF;stroke-width:6.935;" d="M884.1,211.3l-4.3,536.3c0,28.2,19.2,28.2,21.3,0l-4.3-536.3
				H884.1z"/>
			<g transform="matrix(0.725195,0,0,0.6231,202.0636,41.43416)">
				<g transform="matrix(-0.314512,0.10485,-0.138292,-0.303235,1046.472,373.319)">
					<g id="t3">
						<path style="fill:#006D00;stroke:#FFFFFF;stroke-width:8.25;" d="M400.8-583.8l11.5,107.1l52.3-86.1l-35.5,138.6l49.7-58.8
							l-57.7,140.7l49.7-58.8l-57.7,140.7l49.7-58.8l-60.3,168l49.7-58.8l-60.3,168l49.7-58.8l-60.3,168l-30.2,84l-24.8,29.4
							l-19.5-25.2l-14.2-79.8L264.2-83.9l39,50.4l-28.4-159.7l39,50.4l-28.4-159.7l39,50.4l-31.1-132.3l39,50.4l-31.1-132.3l39,50.4
							l-8.9-134.4l36.4,77.7L400.8-583.8z"/>
						<path style="fill:none;stroke:#000000;" d="M400.8-583.8l-74.4,764.6"/>
						<path style="fill:none;stroke:#000000;" d="M264.2-83.9L337,71.5l104.7-172.2"/>
						<path style="fill:none;stroke:#000000;" d="M274.8-193.2l72.8,155.5l104.7-172.2"/>
						<path style="fill:none;stroke:#000000;" d="M285.5-302.4l72.8,155.5l104.7-172.2"/>
						<path style="fill:none;stroke:#000000;" d="M293.4-384.3l75.4,128.2l102-144.9"/>
						<path style="fill:none;stroke:#000000;" d="M301.4-466.2l75.4,128.2l102-144.9"/>
						<path style="fill:none;stroke:#000000;" d="M331.6-550.2l50.6,157.6l82.5-170.1"/>
					</g>
				</g>
				<g transform="matrix(0.236516,-0.281856,0.294964,0.227618,354.5673,204.654)">
					<g id="t3_1_">
						<path style="fill:#006D00;stroke:#FFFFFF;stroke-width:8.25;" d="M785.1,183.9l30.1,17.7l-8.8-35.2l26.3,40.1l-2.5-28.8
							l21.3,48l-2.5-28.8l21.3,48l-2.5-28.8l27.6,54.5L893,242l27.6,54.5l-2.5-28.8l27.6,54.5l13.8,27.2l1.2,14.4l-11.3,1.5
							L925.5,354l-47.7-22.6l22.6-3.1l-47.7-22.6l22.6-3.1L827.7,280l22.6-3.1l-41.4-16.2l22.6-3.1l-41.4-16.2l22.6-3.1l-36.4-24.2
							l28.9,3.4L785.1,183.9z"/>
						<path style="fill:none;stroke:#000000;" d="M785.1,183.9l175.6,179.9"/>
						<path style="fill:none;stroke:#000000;" d="M877.9,331.4l57.7,6.7l-17.5-70.4"/>
						<path style="fill:none;stroke:#000000;" d="M852.8,305.7l57.7,6.7L893,242"/>
						<path style="fill:none;stroke:#000000;" d="M827.7,280l57.7,6.7l-17.5-70.4"/>
						<path style="fill:none;stroke:#000000;" d="M808.9,260.7l51.5,0.3L849.1,197"/>
						<path style="fill:none;stroke:#000000;" d="M790.1,241.4l51.5,0.3l-11.2-63.9"/>
						<path style="fill:none;stroke:#000000;" d="M776.3,214.2l52.7,14.7l-22.5-62.4"/>
					</g>
				</g>
				<g transform="matrix(0.15164,0.335243,-0.332899,0.167308,907.5388,-153.4696)">
					<g id="t3_2_">
						<path style="fill:#006D00;stroke:#FFFFFF;stroke-width:8.25;" d="M1135.1,244l-25.1,28.4l27.7,4.8l-38.6,14.1l20.6,9.5
							l-41.8,4.7l20.6,9.5l-41.8,4.7l20.6,9.5l-48.9,9.4l20.6,9.5l-48.9,9.4l20.6,9.5l-48.9,9.4l-24.5,4.7l-10.3-4.7l3.9-14.2
							l18-23.6l36-47.3l-7.7,28.4l36-47.3l-7.7,28.4l36-47.3l-7.7,28.4l28.9-42.5l-7.7,28.4l28.9-42.5l-7.7,28.4l32.2-33.1
							l-14.8,33.1L1135.1,244z"/>
						<path style="fill:none;stroke:#000000;" d="M1135.1,244L936.9,376.2"/>
						<path style="fill:none;stroke:#000000;" d="M994.8,291.1l-29.6,66.2l55.4,9.5"/>
						<path style="fill:none;stroke:#000000;" d="M1023.1,272.2l-29.6,66.2l55.4,9.5"/>
						<path style="fill:none;stroke:#000000;" d="M1051.4,253.4l-29.6,66.2l55.4,9.5"/>
						<path style="fill:none;stroke:#000000;" d="M1072.7,239.2l-22.5,61.5l48.3,14.2"/>
						<path style="fill:none;stroke:#000000;" d="M1093.9,225l-22.5,61.5l48.3,14.2"/>
						<path style="fill:none;stroke:#000000;" d="M1118.4,220.3l-32.8,56.7l52.1,0.1"/>
					</g>
				</g>
				<g transform="matrix(-0.209517,0.302465,-0.314697,-0.199448,1141.363,167.5798)">
					<g id="t3_3_">
						<path style="fill:#006D00;stroke:#FFFFFF;stroke-width:8.25;" d="M1131,530.3l-31.2-14l11.2,34l-29-36.7l4.5,28.3l-24.5-45.2
							l4.5,28.3l-24.5-45.2l4.5,28.3l-31.2-50.9l4.5,28.3l-31.2-50.9l4.5,28.3l-31.2-50.9l-15.6-25.4l-2.2-14.2l11.1-2.9l24.5,8.4
							l49.1,16.7l-22.3,5.8l49.1,16.7l-22.3,5.8l49.1,16.7l-22.3,5.8l42.4,11.1l-22.3,5.8l42.4,11.1l-22.3,5.8l37.9,19.6l-29,0.2
							L1131,530.3z"/>
						<path style="fill:none;stroke:#000000;" d="M1131,530.3L943.7,372.7"/>
						<path style="fill:none;stroke:#000000;" d="M1028.4,394.8l-58,0.4l22.3,67.9"/>
						<path style="fill:none;stroke:#000000;" d="M1055.2,417.4l-58,0.4l22.3,67.9"/>
						<path style="fill:none;stroke:#000000;" d="M1081.9,439.9l-58,0.4l22.3,67.9"/>
						<path style="fill:none;stroke:#000000;" d="M1102,456.8l-51.3,6l15.6,62.3"/>
						<path style="fill:none;stroke:#000000;" d="M1122.1,473.6l-51.3,6l15.6,62.3"/>
						<path style="fill:none;stroke:#000000;" d="M1137.7,499.1l-53.5-8.2l26.8,59.4"/>
					</g>
				</g>
				<g transform="matrix(-0.207724,-0.258384,0.236176,-0.235153,689.9856,567.2772)">
					<g id="t3_4_">
						<path style="fill:#006D00;stroke:#FFFFFF;stroke-width:8.25;" d="M805.8,547.1l15.7-33.8l-23.9,5.3l29.5-25.9l-18.9-1.3
							l33.9-18.6l-18.9-1.3l33.9-18.6l-18.9-1.3l39-25.2l-18.9-1.3l39-25.2l-18.9-1.3l39-25.2l19.5-12.6l9.4,0.7l-0.6,13.9
							l-10.6,27.2l-21.3,54.4l1.2-27.9l-21.3,54.4l1.2-27.9l-21.3,54.4l1.2-27.9l-16.3,47.8l1.2-27.9l-16.3,47.8l1.2-27.9L824,562.3
							l6.2-34.5L805.8,547.1z"/>
						<path style="fill:none;stroke:#000000;" d="M805.8,547.1l140.6-185.8"/>
						<path style="fill:none;stroke:#000000;" d="M913.8,456.8l12.5-69l-47.8,10.7"/>
						<path style="fill:none;stroke:#000000;" d="M893.7,483.3l12.5-69L858.4,425"/>
						<path style="fill:none;stroke:#000000;" d="M873.6,509.9l12.5-69l-47.8,10.7"/>
						<path style="fill:none;stroke:#000000;" d="M858.6,529.8l7.4-62.4l-42.8,4"/>
						<path style="fill:none;stroke:#000000;" d="M843.5,549.7l7.4-62.4l-42.8,4"/>
						<path style="fill:none;stroke:#000000;" d="M824,562.3l16.9-61.7l-43.4,17.9"/>
					</g>
				</g>
				<g transform="matrix(-0.362184,-9.947167e-2,-0.209809,0.317733,1222.415,-24.22945)">
					<g id="t2">
						<path style="fill:#006D00;stroke:#FFFFFF;stroke-width:8.25;" d="M116.5,430.5L139,536.1l63.5-85.9l-29.9,136.8l42-57.2
							l-39.4,137.6l38.7-56.9L164.9,749l51.5-58l-65.2,166.6l51.5-58l-65.2,166.6l51.5-58l-65.2,166.6l-32.6,83.3l-25.7,29
							l-18.9-25.3l-12.1-79.6L10.4,923l37.8,50.6L24,814.4L61.9,865L37.7,705.7l37.8,50.6l-40.4-131l50.7,49.6L35.9,544.6l47.3,49.8
							L68.4,461.3l34.4,77.8L116.5,430.5z"/>
						<path style="fill:none;stroke:#000000;" d="M118,484.1l12.5,187.1l-64.9,516"/>
						<path style="fill:none;stroke:#000000;" d="M20.9,949l58.3,129.5l93.6-142.1"/>
						<path style="fill:none;stroke:#000000;" d="M32.4,840.5l60.5,129.4l93.6-142.1"/>
						<path style="fill:none;stroke:#000000;" d="M47.1,731.8l59.4,129.5l92.5-142"/>
						<path style="fill:none;stroke:#000000;" d="M54.2,650.6l66,102l80.6-114.2"/>
						<path style="fill:none;stroke:#000000;" d="M54.8,570l75.7,101.2l70.9-113.4"/>
						<path style="fill:none;stroke:#000000;" d="M77.1,500.5l50.2,127.6l62.9-150"/>
					</g>
				</g>
				<g transform="matrix(0.360878,0.10411,1.321056e-2,0.380525,452.7614,-239.2657)">
					<g id="t2_1_">
						<path style="fill:#006D00;stroke:#FFFFFF;stroke-width:8.25;" d="M925.7,42.2L939.3,90l17.4-25.2l-3,52l11.5-16.9l-6.3,50.8
							l10.4-17.3l-9.5,49.5l14.8-15.6l-13.7,58.6l14.8-15.6L962,268.8l14.8-15.6l-13.7,58.6l-6.8,29.3l-7.4,7.8l-8-13.7l-8.5-35.2
							l-17-70.3l15.9,27.4l-17-70.3l15.9,27.4l-17-70.3l15.9,27.4l-21.2-61.3l20.3,29l-24.4-62.5L923,105l-12.3-57.9l16.2,38.1
							L925.7,42.2z"/>
						<path style="fill:none;stroke:#000000;" d="M929.1,64.8l14.5,80l5.3,204.1"/>
						<path style="fill:none;stroke:#000000;" d="M920.5,242.3l27.3,63.6l24.9-43.6"/>
						<path style="fill:none;stroke:#000000;" d="M918.6,199l28.1,63.9l24.9-43.6"/>
						<path style="fill:none;stroke:#000000;" d="M917.9,156.2l27.7,63.8l24.5-43.8"/>
						<path style="fill:none;stroke:#000000;" d="M915.9,123.6l28.5,53.4l21.9-34.1"/>
						<path style="fill:none;stroke:#000000;" d="M911.8,90.1l31.8,54.7l18.5-35.4"/>
						<path style="fill:none;stroke:#000000;" d="M915.8,64.9l24.4,61.5l13.8-52"/>
					</g>
				</g>
				<g transform="matrix(4.613187e-2,-0.364743,0.326017,6.479648e-2,379.5799,479.5432)">
					<path style="fill:#006D00;stroke:#FFFFFF;stroke-width:8.25;" d="M424.2,1058.4l134.2,102.3l31.7-65.3l-6,107.2l58.5-44.8
						L608.5,1266l58.5-44.8L633,1329.3l58.5-44.8L656.2,1414l58.5-44.8l-63.4,130.5l58.5-44.8l-35.3,129.5l-31.7,65.3l-29.3,22.4
						l-26.8-20.5l-24.4-63.3l-78.6-96.7l55.3,11.9L490.3,1377l53.7,40.9l-76.9-125.7l53.7,40.9l-78.1-104.3l81.7,40l-106.2-103.3
						l81.7,40l-107.4-81.9l109.8,39L424.2,1058.4z"/>
					<path style="fill:none;stroke:#000000;" d="M461.3,1091.5l94.8,112l24.4,63.3l10.9,54.2l8.7,94.9l9.9,85.2l3.6,171"/>
					<path style="fill:none;stroke:#000000;" d="M511.1,1504.6l96,82.3l86.4-109.9"/>
					<path style="fill:none;stroke:#000000;" d="M504.3,1397.9L610,1501.2l86.4-109.9"/>
					<path style="fill:none;stroke:#000000;" d="M493.3,1322.8l106.8,93.2l78.8-109.6"/>
					<path style="fill:none;stroke:#000000;" d="M445,1186l135.4,80.9l45.7-87.1"/>
					<path style="fill:none;stroke:#000000;" d="M429.3,1143.8l126.7,59.8l20.3-64.9"/>
					<path style="fill:none;stroke:#000000;" d="M469.5,1249.3l123.6,81.3l58.6-87.6"/>
				</g>
			</g>
		</g>
		<g transform="matrix(0.253333,0,0,0.253333,412,157.1807)">
			<path style="fill:#9D9D9D;stroke:#000000;stroke-width:0.2554;stroke-miterlimit:1.0133;" d="M384.3,782.7l118.2-28.2l123.2,28.2
				l-57.2,31.5l-105.4,2.3L384.3,782.7z"/>
			<path style="fill:#CC0000;stroke:#000000;stroke-width:0.4127;stroke-miterlimit:1.0133;" d="M503.5,529
				c-20.7,9.5-43.6-13.4-80.8,24c0,0-65-36.9-69.9,48.4c-0.2,3.5,10.3,24.3,11.7,22.8c8.2-8.3-3.9,8.1-3.9,10.5
				c0,2.4,1.2,3.7,1.6,4.8c0.4,1.1,1.4,2.7,1.6,7.2c0.2,4.5-7.4,16.8-4.2,21.3c3.2,4.5,3.4,17.5,3.4,21.2c0,3.7,2,14,3.4,16.2
				c1.4,2.1,3.8,7.4,3.8,11.9c0,4.5,1.4,17,0.8,20.1c-0.6,3.2,3.6,7.2,7.4,8.7c3.8,1.6,52.7,2.7,121.4,1.1
				c68.7-1.6,91.6,12.8,120-0.9c4.4-2.1,5.2-6.9,4.8-9.5c-0.4-2.6,0-11.1,1.2-13.2c1.2-2.1,9.2-19.1,7.6-22.3
				c1.5-1.8,12.7,8.6,5.6-0.7c-1.8-2.4,1-27.4,2-32.7c1-5.3,2.5-15.2,4.3-17.1c1.8-1.8-3.1-8.7-2.8-10c0.4-1.3,1.7-5.1,3.6-6.9
				c0,0,3.5-21.6,1.3-32.1c-2.1-10.6-9.9-58.3-58.6-48.7C588.7,553.1,523.5,519.8,503.5,529z"/>
			<g transform="translate(0,-2.600445e-4)">
				<g transform="matrix(1.085779,0,0,1.085779,6.91471,26.11235)">
					<g transform="matrix(0.496967,-4.459677e-2,8.946727e-2,0.726775,44.70009,100.5425)">
						<g id="t4">
							<path style="fill:#F7D917;stroke:#000000;stroke-width:1.241;" d="M567.1,603.5c-6.2,1.5-20.3,46.8-17.9,61.9
								c1.7,10.4,4.6,17.6,6.3,22c-3.8-7.4-12.7-21.6-25.8-21.3c-16.5,0.3-20.7,48-20.4,51c0,0,0,0,0,0.1c0,0,0,0,0,0c0,0,0,0,0,0
								c0.8-1.2,8.3-21,24.6-21.3c10.7-0.2,18.6,10.8,21.4,15.5c-0.1,1.5-0.1,3-0.2,4.4c-2.6,4.5-4.6,15.2-12.7,28.8
								c-9.7,16.4-37.4,18.6-42,18.8c1.2,0,45.2-0.9,59.7-1.2c0.1,0,0.1,0,0.2,0c0,0,0,0,0.1,0c0.1,0,0.1,0,0.2,0
								c14.5-0.3,58.5-1.2,59.6-1.2c-4.6-0.1-32.7-1.2-40.9-17.2c-6.9-13.3-7.4-23.9-9.6-28.3c0.1-1.5,0.2-2.9,0.2-4.4
								c3.3-4.8,12.1-16.2,22.8-16.4c16.3-0.3,22.1,19.2,22.8,20.3c0,0,0,0,0,0c0,0,0,0,0,0c0,0,0,0,0-0.1
								c0.5-3.1,0.5-50.6-15.9-50.3c-13.1,0.3-23.3,14.9-27.8,22.4c2.1-4.5,5.8-13.7,7.9-22.2c3.8-15.4-6.2-61.4-12.4-61.3
								C567.3,603.5,567.2,603.4,567.1,603.5z M555.7,687.6c0.4,0.8,0.7,1.4,1,2c0,0,0.4,4.7,0.4,4.7c0,0.1,2.5,16.1,2.4,16.2
								C559.3,709.9,556,688.5,555.7,687.6z M571.8,687.3c-0.5,1-5.8,22.5-6.2,23.2c0-0.1,5-21,5-21.1c0,0-0.7,4.7-0.7,4.7
								C570.2,693.5,571.3,688.1,571.8,687.3z"/>
							<path style="fill:#F7D917;stroke:#000000;stroke-width:1.241;" d="M553.1,710.8c0,0,4.9-3,9.8-3.1c4.8-0.1,9.5,2.8,9.5,2.8
								l-0.3,7.9c0,0-4.7-2.9-9.5-2.8s-9.8,3.1-9.8,3.1L553.1,710.8z"/>
						</g>
					</g>
					<g transform="matrix(0.495379,5.970303e-2,-6.359282e-2,0.729495,168.9189,96.59048)">
						<g id="t4_1_">
							<path style="fill:#F7D917;stroke:#000000;stroke-width:1.241;" d="M529.5,515.8c-3.1,0.5-11.2,32.5-10.5,43.8
								c0.5,7.8,1.8,13.4,2.5,16.7c-1.7-5.8-5.7-17.1-12.2-18.1c-8.1-1.3-11.5,33.3-11.4,35.6c0,0,0,0,0,0c0,0,0,0,0,0c0,0,0,0,0,0
								c0.4-0.8,4.7-14.6,12.7-13.3c5.3,0.8,8.9,9.7,10.2,13.4c-0.1,1.1-0.1,2.2-0.2,3.2c-1.4,3.1-2.7,10.8-7,20
								c-5.2,11.1-18.9,10.2-21.2,9.9c0.6,0.1,22.3,3.6,29.4,4.7c0,0,0.1,0,0.1,0c0,0,0,0,0,0c0,0,0.1,0,0.1,0
								c7.1,1.1,28.9,4.6,29.4,4.7c-2.3-0.5-16.1-3.9-19.7-16.5c-3-10.4-3-18.3-4-21.7c0.1-1.1,0.2-2.1,0.2-3.2
								c1.7-3.2,6.4-10.8,11.7-9.9c8,1.3,10.4,16.2,10.7,17.1c0,0,0,0,0,0c0,0,0,0,0,0c0,0,0,0,0,0c0.3-2.2,1.6-37.2-6.5-38.5
								c-6.5-1-11.9,8.7-14.3,13.9c1.1-3.1,3.2-9.6,4.5-15.6c2.3-11-1.5-45.7-4.5-46.2C529.6,515.8,529.5,515.8,529.5,515.8z
								 M521.6,576.6c0.2,0.6,0.3,1.1,0.4,1.6c0,0,0.1,3.5,0.1,3.5c0,0.1,0.8,12.1,0.8,12.2C522.8,593.4,521.8,577.3,521.6,576.6z
								 M529.6,577.9c-0.2,0.7-3.5,16-3.7,16.5c0-0.1,3-14.9,3-15c0,0-0.5,3.4-0.5,3.4C528.6,582.3,529.3,578.4,529.6,577.9z"/>
							<path style="fill:#F7D917;stroke:#000000;stroke-width:1.241;" d="M519.7,593.5c0,0,2.5-1.8,4.9-1.4c2.4,0.4,4.6,2.9,4.6,2.9
								l-0.4,5.8c0,0-2.2-2.5-4.6-2.9c-2.4-0.4-4.9,1.4-4.9,1.4L519.7,593.5z"/>
						</g>
					</g>
					<g>
						<path style="fill:#F7D917;stroke:#000000;stroke-width:0.1967;stroke-miterlimit:1.1003;" d="M326.4,571.4l11.6-18.8
							c0,0,1.1,1.9,0,0c-23.8-40.9-25-64.4-22.4-76.3c2.7-11.9,8.1-24.8,22.4-40.6c14.3-15.8,24.2-7,37.6-7c13.4,0,17,4,28.6,5.9
							c11.6,2,42.9,4,42.9,4v-10.9c0,0,1.2,0.3,0,0c-13.8-3.4-31.3,0-42.9-4c-11.6-4-21.5-5-34-5s-21.5-4.8-29.6,2.1
							c-8.1,6.9-17.9,18.8-25,28.7c-7.2,9.9-10.7,29.7-9.8,42.6c0.9,12.9,4.5,23.8,9.8,33.7c5.4,9.9,4.5,17.8,6.3,24.8
							C323.7,557.6,326.4,572.4,326.4,571.4z"/>
						<path style="fill:#F7D917;stroke:#000000;stroke-width:0.1967;stroke-miterlimit:1.1003;" d="M584.3,571.4l-11.6-18.8
							c0,0-1.1,1.9,0,0c23.8-40.9,25-64.4,22.4-76.3c-2.7-11.9-8-24.8-22.4-40.6c-14.3-15.8-24.2-7-37.6-7c-13.4,0-17,4-28.6,5.9
							c-11.6,2-42.9,4-42.9,4v-10.9c0,0-1.2,0.3,0,0c13.8-3.4,31.3,0,42.9-4c11.6-4,21.5-5,34-5c12.5,0,21.5-4.8,29.6,2.1
							c8,6.9,17.9,18.8,25,28.7c7.2,9.9,10.7,29.7,9.8,42.6c-0.9,12.9-4.5,23.8-9.8,33.7c-5.4,9.9-4.5,17.8-6.3,24.8
							C587,557.6,584.3,572.4,584.3,571.4z"/>
						
							<rect x="432.5" y="426.7" transform="matrix(-0.9996 -2.851614e-02 2.851614e-02 -0.9996 899.4772 963.1841)" style="fill:#F7D917;stroke:#000000;stroke-width:0.2297;stroke-miterlimit:1.1003;" width="48.3" height="97"/>
					</g>
					<g transform="translate(0,-8)">
						<path style="fill:#F7D917;stroke:#000000;stroke-width:0.1375;stroke-miterlimit:1.1003;" d="M440.8,327.1c0,0,4.5,4.8,7.9,11
							c3.4,6.2,5.8,13.8,5.8,13.8s-5.7-3.2-10.4-7.7c-4.7-4.5-8.3-10.5-8.3-10.5v41.9c0,0,3.6-5.9,8.3-10.5
							c4.7-4.6,10.4-7.7,10.4-7.7s-1.8,6.3-3,13.8c-1.1,6.8-9.8,22.4-9.8,22.4l25.6,2.3c0,0-4.3-17.9-6-24.7
							c-1.8-7.3-2.6-13.8-2.6-13.8s5.7,3.2,10.4,7.7c4.7,4.5,8.3,10.5,8.3,10.5v-41.9c0,0-3.6,5.9-8.3,10.5
							c-4.7,4.6-10.4,7.7-10.4,7.7s2.4-7.6,5.8-13.8c3.4-6.2,7.9-11,7.9-11H440.8z"/>
						<path style="fill:#F7D917;stroke:#000000;stroke-width:0.1375;stroke-miterlimit:1.1003;" d="M477.2,401.8
							c0,15.1-9.2,27.3-20.6,27.3c-11.4,0-20.6-12.2-20.6-27.3s9.2-27.3,20.6-27.3C468,374.5,477.2,386.7,477.2,401.8z"/>
						<path style="fill:#F7D917;stroke:#000000;stroke-width:0.1375;stroke-miterlimit:1.1003;" d="M436.5,405.7h40.9
							c0,0,0.6-10.5-2.4-14.4c-2.9,0-12.7,0-12.7,0l-0.2-15.8h-4.7h-7.3l-0.2,15.8c0,0-8.6,0.6-12.5,0.6c-1.8,6.4-1.5,7-1.5,7
							L436.5,405.7z"/>
					</g>
					<g>
						<path style="fill:#F7D917;stroke:#000000;stroke-width:0.2063;stroke-miterlimit:1.1003;" d="M430.3,527.9
							c0,0,7.5,8.1,13.2,18.4c5.7,10.4,9.7,23,9.7,23s-9.5-5.3-17.3-12.9c-7.8-7.6-13.9-17.5-13.9-17.5v70c0,0,6.1-9.9,13.9-17.5
							c7.8-7.6,17.3-12.9,17.3-12.9s-4,12.7-9.7,23c-5.7,10.4-13.2,18.4-13.2,18.4H483c0,0-7.5-8.1-13.2-18.4
							c-5.7-10.4-9.7-23-9.7-23s9.5,5.3,17.3,12.9c7.8,7.6,13.9,17.5,13.9,17.5v-70c0,0-6.1,9.9-13.9,17.5
							c-7.8,7.6-17.3,12.9-17.3,12.9s4-12.7,9.7-23c5.7-10.4,13.2-18.4,13.2-18.4H430.3z"/>
						<path style="fill:#F7D917;stroke:#000000;stroke-width:0.2063;stroke-miterlimit:1.1003;" d="M329.9,646.7l26-6.1
							c0,0-8.4-6.2-15.4-15.1c-7-8.9-12.6-20.4-12.6-20.4s10.1,3,18.8,8.7s15.9,14,15.9,14l-9.2-68.9c0,0-4.7,11.1-11.4,20.4
							c-6.7,9.3-15.4,16.7-15.4,16.7s2.3-13.4,6.5-24.9c4.3-11.5,10.6-21.2,10.6-21.2l-26,6.1L329.9,646.7z"/>
						<path style="fill:#F7D917;stroke:#000000;stroke-width:0.2063;stroke-miterlimit:1.1003;" d="M569.4,549.9
							c0,0,6.3,9.7,10.6,21.2c4.3,11.5,6.5,24.9,6.5,24.9s-8.7-7.4-15.4-16.7c-6.7-9.3-11.4-20.4-11.4-20.4l-9.2,68.9
							c0,0,7.3-8.3,15.9-14c8.7-5.7,18.8-8.7,18.8-8.7s-5.6,11.5-12.6,20.4c-7,8.9-15.4,15.1-15.4,15.1l26,6.1l12-90.7L569.4,549.9z
							"/>
						<path style="fill:#F7D917;stroke:#000000;stroke-width:0.2063;stroke-miterlimit:1.1003;" d="M330.2,643.1l0.2,50.2
							c0,0,63.2-28.6,126.4-28.6s126.4,28.6,126.4,28.6v-50.2c0,0-63.2-28.6-126.4-28.6S330.2,643.1,330.2,643.1z"/>
					</g>
					<g>
						<g transform="matrix(0.661234,0,0,0.661234,21.24618,-360.3206)">
							<path id="c3" style="fill:#FFFFFF;stroke:#000000;stroke-width:0.1819;stroke-miterlimit:10;" d="M458.3,1368.7
								c0.1,10.7-6.4,19.4-14.4,19.5s-14.6-8.5-14.7-19.1c0-0.1,0-0.2,0-0.4c-0.1-10.7,6.4-19.4,14.4-19.5c8-0.1,14.6,8.5,14.7,19.1
								C458.3,1368.5,458.3,1368.6,458.3,1368.7z"/>
						</g>
						<g transform="matrix(0.661234,0,0,0.661234,10.96519,-378.6019)">
							<path id="c3_1_" style="fill:#FFFFFF;stroke:#000000;stroke-width:0.1819;stroke-miterlimit:10;" d="M312,515.6
								c0,7.1-4.2,12.8-9.5,12.9c-5.3,0.1-9.7-5.6-9.7-12.7c0-0.1,0-0.2,0-0.2c0-7.1,4.2-12.8,9.5-12.9c5.3-0.1,9.7,5.6,9.7,12.7
								C312,515.4,312,515.5,312,515.6z"/>
						</g>
						<g transform="matrix(0.661234,0,0,0.661234,8.822333,-400.0304)">
							<path id="c3_2_" style="fill:#FFFFFF;stroke:#000000;stroke-width:0.1819;stroke-miterlimit:10;" d="M309.4,481.4
								c0,7.1-4.2,12.8-9.5,12.9c-5.3,0.1-9.7-5.6-9.7-12.7c0-0.1,0-0.2,0-0.2c0-7.1,4.2-12.8,9.5-12.9c5.3-0.1,9.7,5.6,9.7,12.7
								C309.4,481.3,309.4,481.4,309.4,481.4z"/>
						</g>
						<g transform="matrix(0.661234,0,0,0.661234,15.25091,-420.0304)">
							<path id="c3_3_" style="fill:#FFFFFF;stroke:#000000;stroke-width:0.1819;stroke-miterlimit:10;" d="M317.1,449.6
								c0,7.1-4.2,12.8-9.5,12.9c-5.3,0.1-9.7-5.6-9.7-12.7c0-0.1,0-0.2,0-0.2c0-7.1,4.2-12.8,9.5-12.9c5.3-0.1,9.7,5.6,9.7,12.7
								C317.1,449.4,317.1,449.5,317.1,449.6z"/>
						</g>
						<g transform="matrix(0.661234,0,0,0.661234,28.82233,-436.459)">
							<path id="c3_4_" style="fill:#FFFFFF;stroke:#000000;stroke-width:0.1819;stroke-miterlimit:10;" d="M333.4,423.4
								c0,7.1-4.2,12.8-9.5,12.9c-5.3,0.1-9.7-5.6-9.7-12.7c0-0.1,0-0.2,0-0.2c0-7.1,4.2-12.8,9.5-12.9c5.3-0.1,9.7,5.6,9.7,12.7
								C333.4,423.2,333.4,423.3,333.4,423.4z"/>
						</g>
						<g transform="matrix(0.661234,0,0,0.661234,47.39376,-447.8875)">
							<path id="c3_5_" style="fill:#FFFFFF;stroke:#000000;stroke-width:0.1819;stroke-miterlimit:10;" d="M355.7,405.2
								c0,7.1-4.2,12.8-9.5,12.9c-5.3,0.1-9.7-5.6-9.7-12.7c0-0.1,0-0.2,0-0.2c0-7.1,4.2-12.8,9.5-12.9c5.3-0.1,9.7,5.6,9.7,12.7
								C355.7,405,355.7,405.1,355.7,405.2z"/>
						</g>
						<g transform="matrix(0.661234,0,0,0.661234,68.10805,-446.459)">
							<path id="c3_6_" style="fill:#FFFFFF;stroke:#000000;stroke-width:0.1819;stroke-miterlimit:10;" d="M380.5,407.5
								c0,7.1-4.2,12.8-9.5,12.9c-5.3,0.1-9.7-5.6-9.7-12.7c0-0.1,0-0.2,0-0.2c0-7.1,4.2-12.8,9.5-12.9c5.3-0.1,9.7,5.6,9.7,12.7
								C380.5,407.3,380.5,407.4,380.5,407.5z"/>
						</g>
						<g transform="matrix(0.661234,0,0,0.661234,88.82233,-443.0304)">
							<path id="c3_7_" style="fill:#FFFFFF;stroke:#000000;stroke-width:0.1819;stroke-miterlimit:10;" d="M405.4,412.9
								c0,7.1-4.2,12.8-9.5,12.9c-5.3,0.1-9.7-5.6-9.7-12.7c0-0.1,0-0.2,0-0.2c0-7.1,4.2-12.8,9.5-12.9c5.3-0.1,9.7,5.6,9.7,12.7
								C405.4,412.8,405.4,412.9,405.4,412.9z"/>
						</g>
						<g transform="matrix(0.661234,0,0,0.661234,109.5366,-440.8875)">
							<path id="c3_8_" style="fill:#FFFFFF;stroke:#000000;stroke-width:0.1819;stroke-miterlimit:10;" d="M430.3,416.3
								c0,7.1-4.2,12.8-9.5,12.9c-5.3,0.1-9.7-5.6-9.7-12.7c0-0.1,0-0.2,0-0.2c0-7.1,4.2-12.8,9.5-12.9c5.3-0.1,9.7,5.6,9.7,12.7
								C430.3,416.2,430.3,416.3,430.3,416.3z"/>
						</g>
						<g transform="matrix(-0.661234,0,0,0.661234,242.3163,-360.3206)">
							<path id="c3_9_" style="fill:#FFFFFF;stroke:#000000;stroke-width:0.1819;stroke-miterlimit:10;" d="M586.4,544.7
								c0,7.1,4.2,12.8,9.5,12.9c5.3,0.1,9.7-5.6,9.7-12.7c0-0.1,0-0.2,0-0.2c0-7.1-4.2-12.8-9.5-12.9c-5.3-0.1-9.7,5.6-9.7,12.7
								C586.4,544.5,586.4,544.6,586.4,544.7z"/>
						</g>
						<g transform="matrix(-0.661234,0,0,0.661234,252.5973,-378.6019)">
							<path id="c3_10_" style="fill:#FFFFFF;stroke:#000000;stroke-width:0.1819;stroke-miterlimit:10;" d="M598.7,515.6
								c0,7.1,4.2,12.8,9.5,12.9c5.3,0.1,9.7-5.6,9.7-12.7c0-0.1,0-0.2,0-0.2c0-7.1-4.2-12.8-9.5-12.9c-5.3-0.1-9.7,5.6-9.7,12.7
								C598.7,515.4,598.7,515.5,598.7,515.6z"/>
						</g>
						<g transform="matrix(-0.661234,0,0,0.661234,254.7402,-400.0304)">
							<path id="c3_11_" style="fill:#FFFFFF;stroke:#000000;stroke-width:0.1819;stroke-miterlimit:10;" d="M601.3,481.4
								c0,7.1,4.2,12.8,9.5,12.9c5.3,0.1,9.7-5.6,9.7-12.7c0-0.1,0-0.2,0-0.2c0-7.1-4.2-12.8-9.5-12.9c-5.3-0.1-9.7,5.6-9.7,12.7
								C601.3,481.3,601.3,481.4,601.3,481.4z"/>
						</g>
						<g transform="matrix(-0.661234,0,0,0.661234,248.3116,-420.0304)">
							<path id="c3_12_" style="fill:#FFFFFF;stroke:#000000;stroke-width:0.1819;stroke-miterlimit:10;" d="M593.6,449.6
								c0,7.1,4.2,12.8,9.5,12.9c5.3,0.1,9.7-5.6,9.7-12.7c0-0.1,0-0.2,0-0.2c0-7.1-4.2-12.8-9.5-12.9c-5.3-0.1-9.7,5.6-9.7,12.7
								C593.6,449.4,593.6,449.5,593.6,449.6z"/>
						</g>
						<g transform="matrix(-0.661234,0,0,0.661234,234.7402,-436.459)">
							<path id="c3_13_" style="fill:#FFFFFF;stroke:#000000;stroke-width:0.1819;stroke-miterlimit:10;" d="M577.3,423.4
								c0,7.1,4.2,12.8,9.5,12.9c5.3,0.1,9.7-5.6,9.7-12.7c0-0.1,0-0.2,0-0.2c0-7.1-4.2-12.8-9.5-12.9c-5.3-0.1-9.7,5.6-9.7,12.7
								C577.3,423.2,577.3,423.3,577.3,423.4z"/>
						</g>
						<g transform="matrix(-0.661234,0,0,0.661234,216.1687,-447.8875)">
							<path id="c3_14_" style="fill:#FFFFFF;stroke:#000000;stroke-width:0.1819;stroke-miterlimit:10;" d="M555,405.2
								c0,7.1,4.2,12.8,9.5,12.9c5.3,0.1,9.7-5.6,9.7-12.7c0-0.1,0-0.2,0-0.2c0-7.1-4.2-12.8-9.5-12.9c-5.3-0.1-9.7,5.6-9.7,12.7
								C555,405,555,405.1,555,405.2z"/>
						</g>
						<g transform="matrix(-0.661234,0,0,0.661234,195.4544,-446.459)">
							<path id="c3_15_" style="fill:#FFFFFF;stroke:#000000;stroke-width:0.1819;stroke-miterlimit:10;" d="M530.1,407.5
								c0,7.1,4.2,12.8,9.5,12.9c5.3,0.1,9.7-5.6,9.7-12.7c0-0.1,0-0.2,0-0.2c0-7.1-4.2-12.8-9.5-12.9c-5.3-0.1-9.7,5.6-9.7,12.7
								C530.1,407.3,530.1,407.4,530.1,407.5z"/>
						</g>
						<g transform="matrix(-0.661234,0,0,0.661234,174.7402,-443.0304)">
							<path id="c3_16_" style="fill:#FFFFFF;stroke:#000000;stroke-width:0.1819;stroke-miterlimit:10;" d="M505.3,412.9
								c0,7.1,4.2,12.8,9.5,12.9c5.3,0.1,9.7-5.6,9.7-12.7c0-0.1,0-0.2,0-0.2c0-7.1-4.2-12.8-9.5-12.9c-5.3-0.1-9.7,5.6-9.7,12.7
								C505.3,412.8,505.3,412.9,505.3,412.9z"/>
						</g>
						<g transform="matrix(-0.661234,0,0,0.661234,154.0259,-440.8875)">
							<path id="c3_17_" style="fill:#FFFFFF;stroke:#000000;stroke-width:0.1819;stroke-miterlimit:10;" d="M480.4,416.3
								c0,7.1,4.2,12.8,9.5,12.9c5.3,0.1,9.7-5.6,9.7-12.7c0-0.1,0-0.2,0-0.2c0-7.1-4.2-12.8-9.5-12.9c-5.3-0.1-9.7,5.6-9.7,12.7
								C480.4,416.2,480.4,416.3,480.4,416.3z"/>
						</g>
						<g transform="translate(1.040326,0)">
							<g transform="matrix(0.661234,0,0,0.661234,138.4742,-378.3206)">
								<path id="c3_18_" style="fill:#FFFFFF;stroke:#000000;stroke-width:0.1819;stroke-miterlimit:10;" d="M465.2,516
									c0,7.1-4.2,12.8-9.5,12.9c-5.3,0.1-9.7-5.6-9.7-12.7c0-0.1,0-0.2,0-0.2c0-7.1,4.2-12.8,9.5-12.9c5.3-0.1,9.7,5.6,9.7,12.7
									C465.2,515.9,465.2,515.9,465.2,516z"/>
							</g>
							<g transform="matrix(0.661234,0,0,0.661234,138.4742,-392.6019)">
								<path id="c3_19_" style="fill:#FFFFFF;stroke:#000000;stroke-width:0.1819;stroke-miterlimit:10;" d="M465.2,493.3
									c0,7.1-4.2,12.8-9.5,12.9c-5.3,0.1-9.7-5.6-9.7-12.7c0-0.1,0-0.2,0-0.2c0-7.1,4.2-12.8,9.5-12.9c5.3-0.1,9.7,5.6,9.7,12.7
									C465.2,493.1,465.2,493.2,465.2,493.3z"/>
							</g>
							<g transform="matrix(0.661234,0,0,0.661234,138.4742,-404.0304)">
								<path id="c3_20_" style="fill:#FFFFFF;stroke:#000000;stroke-width:0.1819;stroke-miterlimit:10;" d="M465.2,475.1
									c0,7.1-4.2,12.8-9.5,12.9c-5.3,0.1-9.7-5.6-9.7-12.7c0-0.1,0-0.2,0-0.2c0-7.1,4.2-12.8,9.5-12.9c5.3-0.1,9.7,5.6,9.7,12.7
									C465.2,474.9,465.2,475,465.2,475.1z"/>
							</g>
							<g transform="matrix(0.661234,0,0,0.661234,138.4742,-414.459)">
								<path id="c3_21_" style="fill:#FFFFFF;stroke:#000000;stroke-width:0.1819;stroke-miterlimit:10;" d="M465.2,458.4
									c0,7.1-4.2,12.8-9.5,12.9c-5.3,0.1-9.7-5.6-9.7-12.7c0-0.1,0-0.2,0-0.2c0-7.1,4.2-12.8,9.5-12.9c5.3-0.1,9.7,5.6,9.7,12.7
									C465.2,458.3,465.2,458.4,465.2,458.4z"/>
							</g>
							<g transform="matrix(0.661234,0,0,0.661234,138.4742,-447.8875)">
								<path id="c3_22_" style="fill:#FFFFFF;stroke:#000000;stroke-width:0.1819;stroke-miterlimit:10;" d="M465.2,405.2
									c0,7.1-4.2,12.8-9.5,12.9c-5.3,0.1-9.7-5.6-9.7-12.7c0-0.1,0-0.2,0-0.2c0-7.1,4.2-12.8,9.5-12.9c5.3-0.1,9.7,5.6,9.7,12.7
									C465.2,405,465.2,405.1,465.2,405.2z"/>
							</g>
							<g transform="matrix(0.661234,0,0,0.661234,138.4742,-446.459)">
								<path id="c3_23_" style="fill:#FFFFFF;stroke:#000000;stroke-width:0.1819;stroke-miterlimit:10;" d="M465.2,407.5
									c0,7.1-4.2,12.8-9.5,12.9c-5.3,0.1-9.7-5.6-9.7-12.7c0-0.1,0-0.2,0-0.2c0-7.1,4.2-12.8,9.5-12.9c5.3-0.1,9.7,5.6,9.7,12.7
									C465.2,407.3,465.2,407.4,465.2,407.5z"/>
							</g>
							<g transform="matrix(0.661234,0,0,0.661234,138.4742,-439.0304)">
								<path id="c3_24_" style="fill:#FFFFFF;stroke:#000000;stroke-width:0.1819;stroke-miterlimit:10;" d="M465.2,419.3
									c0,7.1-4.2,12.8-9.5,12.9c-5.3,0.1-9.7-5.6-9.7-12.7c0-0.1,0-0.2,0-0.2c0-7.1,4.2-12.8,9.5-12.9c5.3-0.1,9.7,5.6,9.7,12.7
									C465.2,419.1,465.2,419.2,465.2,419.3z"/>
							</g>
							<g transform="matrix(0.661234,0,0,0.661234,138.4742,-428.8875)">
								<path id="c3_25_" style="fill:#FFFFFF;stroke:#000000;stroke-width:0.1819;stroke-miterlimit:10;" d="M465.2,435.5
									c0,7.1-4.2,12.8-9.5,12.9c-5.3,0.1-9.7-5.6-9.7-12.7c0-0.1,0-0.2,0-0.2c0-7.1,4.2-12.8,9.5-12.9c5.3-0.1,9.7,5.6,9.7,12.7
									C465.2,435.3,465.2,435.4,465.2,435.5z"/>
							</g>
						</g>
					</g>
					<g>
						<g transform="translate(-0.457137,-2)">
							<path id="circle1" style="fill:#FFFFFF;stroke:#000000;stroke-width:0.2751;stroke-miterlimit:1.1003;" d="M469.4,573
								c0,9.1-5.6,16.5-12.4,16.5s-12.4-7.4-12.4-16.5c0,0,0,0,0,0c0-9.1,5.6-16.5,12.4-16.5C463.8,556.5,469.4,563.9,469.4,573
								C469.4,573,469.4,573,469.4,573z"/>
						</g>
						<g transform="translate(-108.7143,16.78571)">
							<path id="circle1_1_" style="fill:#FFFFFF;stroke:#000000;stroke-width:0.2751;stroke-miterlimit:1.1003;" d="M339,600.9
								c0,9.1-5.6,16.5-12.4,16.5c-6.9,0-12.4-7.4-12.4-16.5c0,0,0,0,0,0c0-9.1,5.6-16.5,12.4-16.5C333.5,584.4,339,591.8,339,600.9
								C339,600.9,339,600.9,339,600.9z"/>
						</g>
						<g transform="translate(107.2857,16.78571)">
							<path id="circle1_2_" style="fill:#FFFFFF;stroke:#000000;stroke-width:0.2751;stroke-miterlimit:1.1003;" d="M598.2,600.9
								c0,9.1-5.6,16.5-12.4,16.5c-6.9,0-12.4-7.4-12.4-16.5c0,0,0,0,0,0c0-9.1,5.6-16.5,12.4-16.5
								C592.7,584.4,598.2,591.8,598.2,600.9C598.2,600.9,598.2,600.9,598.2,600.9z"/>
						</g>
					</g>
				</g>
				
					<rect x="479.6" y="708.6" transform="matrix(-0.9996 -2.851614e-02 2.851614e-02 -0.9996 987.138 1452.0223)" style="fill:#002B7F;stroke:#000000;stroke-width:0.2131;stroke-miterlimit:1.0133;" width="48.5" height="20.7"/>
				<path style="fill:#3E8225;stroke:#000000;stroke-width:1.5;" d="M549.5,724.8c0.1,7.2,8.6,14.2,19,15.6
					c10.3,1.4,18.6-3.3,18.5-10.5c0,0,0,0,0,0c-0.1-7.2-8.6-14.2-19-15.6S549.4,717.6,549.5,724.8
					C549.5,724.8,549.5,724.8,549.5,724.8z"/>
				<path style="fill:#CC0000;stroke:#000000;stroke-width:0.2751;stroke-miterlimit:1.0133;" d="M365.6,737.5l-10.5,13.9l12.1,9.3
					l28.2-10l-5-21.2L365.6,737.5z"/>
				<path style="fill:#CC0000;stroke:#000000;stroke-width:0.2751;stroke-miterlimit:1.0133;" d="M642.2,737.5l10.5,13.9l-12.1,9.3
					l-28.2-10l5-21.2L642.2,737.5z"/>
				<path style="fill:#3E8225;stroke:#000000;stroke-width:1.5;" d="M458.3,724.8c-0.1,7.2-8.6,14.2-19,15.6
					c-10.3,1.4-18.6-3.3-18.5-10.5c0,0,0,0,0,0c0.1-7.2,8.6-14.2,19-15.6S458.5,717.6,458.3,724.8
					C458.3,724.8,458.3,724.8,458.3,724.8z"/>
				<g>
					<g transform="translate(1.069518,-3.475935)">
						<path id="c2" style="fill:#FFFFFF;stroke:#000000;stroke-width:0.2533;stroke-miterlimit:1.0133;" d="M473,712.2
							c0,3.8-2.3,6.8-5.1,6.8s-5.1-3.1-5.1-6.8c0-3.8,2.3-6.8,5.1-6.8S473,708.4,473,712.2z"/>
					</g>
					<g transform="translate(2.406416,10.16042)">
						<path id="c2_1_" style="fill:#FFFFFF;stroke:#000000;stroke-width:0.2533;stroke-miterlimit:1.0133;" d="M475.6,730.4
							c0,3.8-2.3,6.8-5.1,6.8s-5.1-3.1-5.1-6.8c0-3.8,2.3-6.8,5.1-6.8S475.6,726.7,475.6,730.4z"/>
					</g>
					<g transform="translate(-52.40642,6.149728)">
						<path id="c2_2_" style="fill:#FFFFFF;stroke:#000000;stroke-width:0.2533;stroke-miterlimit:1.0133;" d="M409.9,724
							c0,3.8-2.3,6.8-5.1,6.8s-5.1-3.1-5.1-6.8c0-3.8,2.3-6.8,5.1-6.8S409.9,720.3,409.9,724z"/>
					</g>
					<g transform="translate(-47.05882,18.98396)">
						<path id="c2_3_" style="fill:#FFFFFF;stroke:#000000;stroke-width:0.2533;stroke-miterlimit:1.0133;" d="M416.3,744.5
							c0,3.8-2.3,6.8-5.1,6.8s-5.1-3.1-5.1-6.8c0-3.8,2.3-6.8,5.1-6.8S416.3,740.7,416.3,744.5z"/>
					</g>
					<g transform="matrix(-1,0,0,1,303.0748,-3.475943)">
						<path id="c2_4_" style="fill:#FFFFFF;stroke:#000000;stroke-width:0.2533;stroke-miterlimit:1.0133;" d="M533.6,708.7
							c0,3.8,2.3,6.8,5.1,6.8s5.1-3.1,5.1-6.8c0-3.8-2.3-6.8-5.1-6.8S533.6,704.9,533.6,708.7z"/>
					</g>
					<g transform="matrix(-1,0,0,1,301.7379,10.16041)">
						<path id="c2_5_" style="fill:#FFFFFF;stroke:#000000;stroke-width:0.2533;stroke-miterlimit:1.0133;" d="M532,730.4
							c0,3.8,2.3,6.8,5.1,6.8s5.1-3.1,5.1-6.8c0-3.8-2.3-6.8-5.1-6.8S532,726.7,532,730.4z"/>
					</g>
					<g transform="matrix(-1,0,0,1,356.5507,6.14972)">
						<path id="c2_6_" style="fill:#FFFFFF;stroke:#000000;stroke-width:0.2533;stroke-miterlimit:1.0133;" d="M597.7,724
							c0,3.8,2.3,6.8,5.1,6.8s5.1-3.1,5.1-6.8c0-3.8-2.3-6.8-5.1-6.8S597.7,720.3,597.7,724z"/>
					</g>
					<g transform="matrix(-1,0,0,1,351.2031,18.98395)">
						<path id="c2_7_" style="fill:#FFFFFF;stroke:#000000;stroke-width:0.2533;stroke-miterlimit:1.0133;" d="M591.3,744.5
							c0,3.8,2.3,6.8,5.1,6.8s5.1-3.1,5.1-6.8c0-3.8-2.3-6.8-5.1-6.8S591.3,740.7,591.3,744.5z"/>
					</g>
				</g>
			</g>
			<g transform="translate(0,-2.600445e-4)">
				<path style="fill:#FFFFFF;stroke:#000000;stroke-width:0.4342;stroke-miterlimit:1.0133;" d="M607.6,819.2
					c3.9-0.9,27.6-8.4,32.6-12.4c-3.2-7.7-9-13.7-4.5-11.2c2.4,1.4,4.3-9.2-2.7-17.3c-20.4,8.9-69.2,25.1-130.6,25.1
					c-62.8,0-112.3-17.1-132.6-25.9c-7,8.1-4.8,17.3-5.3,20.7c0,0,0,4.3,1.3,7.8c6.9,10,29.3,14.9,33.2,15.8
					c18.4,4.2,36.8,10.7,103.4,10.7C563.8,832.5,589.1,823.5,607.6,819.2z"/>
				<g transform="matrix(1.085779,0,0,1.085779,-81.34112,-69.11104)">
					<path style="fill:#FFFFFF;stroke:#000000;stroke-width:0.4341;stroke-miterlimit:1.1003;" d="M440.4,766.5
						c-3.6,0.8-26.6,11.6-31.2,15.3c0,0,0,0.1,0,0.1c0.4,3.2-4,17.9,2.5,25.4c18.8-8.2,71.4-32.5,128-32.5
						c57.9,0,105.8,24.3,124.5,32.5c6.5-7.5,2.1-22.2,2.5-25.4c0,0,0-0.1,0-0.1c-4.6-3.7-27.6-14.5-31.2-15.3
						c-17-3.9-34.5-18.5-95.8-18.5C483.1,748,457.4,762.6,440.4,766.5z"/>
					<g transform="matrix(1.384389,-0.143242,0.15642,1.267764,-86.62648,-64.7552)">
						<g id="t1">
							<g transform="matrix(0.4996,0,0,0.4996,56.86367,150.9007)">
								<path id="a1" style="stroke:#000000;" d="M465.4,1104.7c0,1.6-1,3-2.3,3.1s-2.2-1.2-2.2-2.8c0,0,0-0.1,0-0.1
									c0-1.6,1-3,2.3-3.1s2.2,1.2,2.2,2.8C465.4,1104.6,465.4,1104.7,465.4,1104.7z"/>
							</g>
							<g transform="matrix(0.4996,0,0,0.4996,55.52674,153.307)">
								<path id="a1_1_" style="stroke:#000000;" d="M287.7,706.7c0,0.8-0.5,1.5-1.1,1.6c-0.6,0-1.1-0.6-1.1-1.4c0,0,0,0,0-0.1
									c0-0.8,0.5-1.5,1.1-1.6C287.2,705.2,287.7,705.8,287.7,706.7C287.7,706.6,287.7,706.7,287.7,706.7z"/>
							</g>
							<g transform="matrix(0.4996,0,0,0.4996,57.3984,154.9114)">
								<path id="a1_2_" style="stroke:#000000;" d="M289.9,709.2c0,0.8-0.5,1.5-1.1,1.6c-0.6,0-1.1-0.6-1.1-1.4c0,0,0,0,0-0.1
									c0-0.8,0.5-1.5,1.1-1.6C289.4,707.6,289.9,708.3,289.9,709.2C289.9,709.1,289.9,709.1,289.9,709.2z"/>
							</g>
							<path style="stroke:#000000;" d="M288,706.2l10.4-5.4l-5.1,4l3.2-0.2l-3.1,2l4.8,0.3L288,706.2z"/>
						</g>
					</g>
					<g transform="matrix(1.384389,-0.143242,0.15642,1.267764,-45.03159,-76.65847)">
						<g id="t1_1_">
							<g transform="matrix(0.4996,0,0,0.4996,56.86367,150.9007)">
								<path id="a1_3_" style="stroke:#000000;" d="M834.6,1230.8c0.2,2.1-1,4-2.7,4.3c-1.7,0.3-3.3-1.2-3.5-3.3c0-0.1,0-0.1,0-0.2
									c-0.2-2.1,1-4,2.7-4.3c1.7-0.3,3.3,1.2,3.5,3.3C834.6,1230.7,834.6,1230.8,834.6,1230.8z"/>
							</g>
							<g transform="matrix(0.4996,0,0,0.4996,55.52674,153.307)">
								<path id="a1_4_" style="stroke:#000000;" d="M472.1,771c0.1,1-0.5,2-1.3,2.1s-1.6-0.6-1.8-1.6c0,0,0-0.1,0-0.1
									c-0.1-1,0.5-2,1.3-2.1S472,769.9,472.1,771C472.1,770.9,472.1,771,472.1,771z"/>
							</g>
							<g transform="matrix(0.4996,0,0,0.4996,57.3984,154.9114)">
								<path id="a1_5_" style="stroke:#000000;" d="M475.5,773.8c0.1,1-0.5,2-1.3,2.1s-1.6-0.6-1.8-1.6c0,0,0-0.1,0-0.1
									c-0.1-1,0.5-2,1.3-2.1C474.6,771.9,475.4,772.7,475.5,773.8C475.5,773.7,475.5,773.8,475.5,773.8z"/>
							</g>
							<path style="stroke:#000000;" d="M472.5,770.3l13.6-8.3l-6.5,5.8l4.4-0.8l-3.9,2.9l6.7-0.4L472.5,770.3z"/>
						</g>
					</g>
					<g transform="matrix(1.378425,0.192343,-0.151629,1.268346,100.1696,-120.8592)">
						<g id="t1_2_">
							<g transform="matrix(0.4996,0,0,0.4996,56.86367,150.9007)">
								<path id="a1_6_" style="stroke:#000000;" d="M958.6,1213.1c-0.1,2.1-1.7,3.6-3.4,3.3c-1.7-0.3-3-2.2-2.8-4.3
									c0-0.1,0-0.1,0-0.2c0.1-2.1,1.7-3.6,3.4-3.3c1.7,0.3,3,2.2,2.8,4.3C958.6,1212.9,958.6,1213,958.6,1213.1z"/>
							</g>
							<g transform="matrix(0.4996,0,0,0.4996,55.52674,153.307)">
								<path id="a1_7_" style="stroke:#000000;" d="M533.1,761.4c-0.1,1-0.8,1.8-1.7,1.7c-0.9-0.1-1.5-1.1-1.4-2.1c0,0,0-0.1,0-0.1
									c0.1-1,0.8-1.8,1.7-1.7S533.2,760.3,533.1,761.4C533.2,761.3,533.1,761.4,533.1,761.4z"/>
							</g>
							<g transform="matrix(0.4996,0,0,0.4996,57.3984,154.9114)">
								<path id="a1_8_" style="stroke:#000000;" d="M536,765.2c-0.1,1-0.8,1.8-1.7,1.7c-0.9-0.1-1.5-1.1-1.4-2.1c0,0,0-0.1,0-0.1
									c0.1-1,0.8-1.8,1.7-1.7S536,764.1,536,765.2C536,765.2,536,765.2,536,765.2z"/>
							</g>
							<path style="stroke:#000000;" d="M533.7,760.9l14.7-3.8l-7.4,3.6l4.5,0.7l-4.3,1.6l6.6,1.8L533.7,760.9z"/>
						</g>
					</g>
					<g transform="matrix(1.384389,0.143242,0.15642,-1.267764,54.4337,659.4577)">
						<g id="t1_3_">
							<g transform="matrix(0.4996,0,0,0.4996,56.86367,150.9007)">
								<path id="a1_9_" style="stroke:#000000;" d="M1073.5,1244.6c0.2-2.1-1-4-2.7-4.3s-3.3,1.2-3.5,3.3c0,0.1,0,0.1,0,0.2
									c-0.2,2.1,1,4,2.7,4.3c1.7,0.3,3.3-1.2,3.5-3.3C1073.5,1244.7,1073.5,1244.7,1073.5,1244.6z"/>
							</g>
							<g transform="matrix(0.4996,0,0,0.4996,55.52674,153.307)">
								<path id="a1_10_" style="stroke:#000000;" d="M591.4,767.6c0.1-1-0.5-2-1.3-2.1c-0.9-0.1-1.6,0.6-1.8,1.6c0,0,0,0.1,0,0.1
									c-0.1,1,0.5,2,1.3,2.1C590.5,769.4,591.3,768.7,591.4,767.6C591.4,767.6,591.4,767.6,591.4,767.6z"/>
							</g>
							<g transform="matrix(0.4996,0,0,0.4996,57.3984,154.9114)">
								<path id="a1_11_" style="stroke:#000000;" d="M594.8,764.7c0.1-1-0.5-2-1.3-2.1c-0.9-0.1-1.6,0.6-1.8,1.6c0,0,0,0.1,0,0.1
									c-0.1,1,0.5,2,1.3,2.1C593.9,766.6,594.7,765.9,594.8,764.7C594.8,764.8,594.8,764.8,594.8,764.7z"/>
							</g>
							<path style="stroke:#000000;" d="M591.9,768.2l13.6,8.3l-6.5-5.8l4.4,0.8l-3.9-2.9l6.7,0.4L591.9,768.2z"/>
						</g>
					</g>
					<g transform="matrix(1.384389,0.143242,0.15642,-1.267764,96.41226,670.4203)">
						<g id="t1_4_">
							<g transform="matrix(0.4996,0,0,0.4996,56.86367,150.9007)">
								<path id="a1_12_" style="stroke:#000000;" d="M1174.4,1279.6c0.2-2.1-1-4-2.7-4.3s-3.3,1.2-3.5,3.3c0,0.1,0,0.1,0,0.2
									c-0.2,2.1,1,4,2.7,4.3c1.7,0.3,3.3-1.2,3.5-3.3C1174.4,1279.7,1174.4,1279.6,1174.4,1279.6z"/>
							</g>
							<g transform="matrix(0.4996,0,0,0.4996,55.52674,153.307)">
								<path id="a1_13_" style="stroke:#000000;" d="M641.8,785c0.1-1-0.5-2-1.3-2.1c-0.9-0.1-1.6,0.6-1.8,1.6c0,0,0,0.1,0,0.1
									c-0.1,1,0.5,2,1.3,2.1C640.9,786.9,641.7,786.1,641.8,785C641.8,785.1,641.8,785,641.8,785z"/>
							</g>
							<g transform="matrix(0.4996,0,0,0.4996,57.3984,154.9114)">
								<path id="a1_14_" style="stroke:#000000;" d="M645.2,782.2c0.1-1-0.5-2-1.3-2.1s-1.6,0.6-1.8,1.6c0,0,0,0.1,0,0.1
									c-0.1,1,0.5,2,1.3,2.1C644.3,784.1,645.1,783.3,645.2,782.2C645.2,782.3,645.2,782.2,645.2,782.2z"/>
							</g>
							<path style="stroke:#000000;" d="M642.2,785.7l13.6,8.3l-6.5-5.8l4.4,0.8l-3.9-2.9l6.7,0.4L642.2,785.7z"/>
						</g>
					</g>
				</g>
			</g>
		</g>
	</g>
</g>
</svg>
