<?xml version="1.0" encoding="utf-8"?>
<!-- Generator: Adobe Illustrator 25.2.1, SVG Export Plug-In . SVG Version: 6.00 Build 0)  -->
<svg version="1.1" id="Layer_1" xmlns="http://www.w3.org/2000/svg" xmlns:xlink="http://www.w3.org/1999/xlink" x="0px" y="0px"
	 viewBox="0 0 720 480" style="enable-background:new 0 0 720 480;" xml:space="preserve">
<g>
	<path style="fill:#CE1126;" d="M0,0h720v480H0V0z"/>
	<path style="fill:#FFFFFF;" d="M0,160h720v320H0V160z"/>
	<path d="M0,320h720v160H0V320z"/>
	<g transform="translate(-1.009 -.584) scale(2.18978)">
		<path style="fill:#007A3D;" d="M196.9,96.2c-0.4-0.2-0.9-0.6-1.1-0.8c-0.3-0.4-0.1-0.4,0.9-0.1c1.9,0.5,3.1,0.3,4.2-0.7l1-0.9
			l1.2,0.6c0.7,0.3,1.4,0.6,1.6,0.5c0.5-0.1,1.6-1.6,1.6-2.1c0-0.6,0.5-0.5,0.7,0.2c0.5,1.3-0.2,2.8-1.5,3.1
			c-0.6,0.2-1.2,0.1-2.1-0.2c-1.2-0.4-1.3-0.4-1.9,0C200.3,96.9,198.5,97,196.9,96.2L196.9,96.2z M201.5,92c-0.5-0.6-1-2.7-0.8-3.3
			c0.2-0.5,0.3-0.6,0.7-0.4c0.7,0.2,0.9,0.7,0.8,2.5C202.1,92.2,201.9,92.5,201.5,92L201.5,92z M147.5,90.4c-0.1,1,1.9,3.7,2.8,4.1
			c-0.6,0.3-1.4,0.2-1.9,0.5c-3.2,3.2-14.7,14.4-16.8,17.1c6.2,0.1,13.2-0.1,19-0.4c0-4.2,4-4.5,6.7-6c1.4,2.2,4.9,2,5.3,5.3
			c0,3.9,0,9.8,0,14.1h-53.3c-0.9,4.1-4.7,7.3-9.9,6c1.6-1.7,4.3-2.3,5.3-4.6c0.8-5.1-1.6-8.2-3.2-11.1c2.6-1,3-1.2,5.7-3
			c-1.9,5.7,4.9,5.1,9.9,4.9c0.2-1.9,0.1-4.2-1.4-4.5c1.9-0.7,2.2-0.9,5.3-3.5v7.7c11.9,0,24.8-0.1,36.9-0.1c0-2.4,0.6-6.3-1.3-6.3
			c-1.8,0-0.1,4.9-1.5,4.9h-28.5c0-1.1,0-3.3,0-4.9c1.2-1.2,1.1-1.1,9.3-9.4C136.6,100.6,142.4,95.4,147.5,90.4L147.5,90.4z
			 M218.7,90.2c2,1.1,3.6,2.6,6,3.2c-0.3,1-1.2,1.4-1.4,2.5v21.5c2.7,0.6,3.3-0.9,4.6-1.8c0.4,3.4,2.5,6.8,2.5,9.5h-11.6
			C218.7,113.5,218.7,101.9,218.7,90.2L218.7,90.2z M203.2,101.8c0,0,4.2-3.6,4.2-3.7v18.8l3.1,0c0-7.2-0.1-14.4-0.1-21.1
			c1.2-1.2,3.7-3,4.3-4.3v33.6c-8.6,0-24.6,0-26.8,0c-0.4-7-0.5-14.2,7.7-12.7v-2.9c-0.2-0.5-0.7,0.1-0.8-0.5
			c1.3-1.3,1.7-1.6,5.2-4.7c0,3.7,0.1,12.4,0.1,12.4c0.9,0,2.5,0,3.1,0C203.2,116.8,203.2,102.3,203.2,101.8L203.2,101.8z
			 M193.2,116.7c0.6,0.9,2.5,0.8,2.4-0.6C195.3,114.9,192.7,115.3,193.2,116.7z"/>
		<circle style="fill:#007A3D;" cx="115.7" cy="129.1" r="1.6"/>
		<path style="fill:#007A3D;" d="M166.1,90.3c2,1.1,3.6,2.6,6,3.2c-0.3,1-1.2,1.4-1.4,2.5v21.5c2.7,0.6,3.3-0.9,4.6-1.8
			c0.4,3.4,2.5,6.8,2.5,9.5h-11.6C166.1,113.6,166.1,101.9,166.1,90.3L166.1,90.3z"/>
	</g>
</g>
</svg>
