<?xml version="1.0" encoding="utf-8"?>
<!-- Generator: Adobe Illustrator 25.2.1, SVG Export Plug-In . SVG Version: 6.00 Build 0)  -->
<svg version="1.1" id="Layer_1" xmlns="http://www.w3.org/2000/svg" xmlns:xlink="http://www.w3.org/1999/xlink" x="0px" y="0px"
	 viewBox="0 0 720 480" style="enable-background:new 0 0 720 480;" xml:space="preserve">
<g>
	<rect style="fill:#DA0000;" width="720" height="480"/>
	<rect style="fill:#FFFFFF;" width="720" height="320"/>
	<rect style="fill:#239F40;" width="720" height="160"/>
	<g transform="translate(8.4,100.4)">
		<g id="tb4">
			<g id="tb1">
				<path id="tbp1" style="fill:none;stroke:#FFFFFF;stroke-width:2.8;stroke-miterlimit:5.6;" d="M1.2,35.3h41.6 M2.8,52.1v-9.3
					h12.8v7.5h12.8v-7.5h-8 M7.6,50.3h3.2 M42.8,50.3h-8v-7.5h12.8 M47.6,33.5v16.8h12.8V33.5 M54,33.5v16.8"/>
				<path id="tbp2" style="fill:none;stroke:#FFFFFF;stroke-width:5.6;stroke-miterlimit:11.2;" d="M1.2,59.6H30 M33.2,59.6H62"/>
				<g>
					<path id="tbp2_1_" style="fill:none;stroke:#FFFFFF;stroke-width:5.6;stroke-miterlimit:11.2;" d="M1.2,219.6H30 M33.2,219.6
						H62"/>
				</g>
				<g>
					<path id="tbp1_1_" style="fill:none;stroke:#FFFFFF;stroke-width:2.8;stroke-miterlimit:5.6;" d="M1.2,228.9h41.6 M2.8,245.7
						v-9.3h12.8v7.5h12.8v-7.5h-8 M7.6,243.9h3.2 M42.8,243.9h-8v-7.5h12.8 M47.6,227.1v16.8h12.8v-16.8 M54,227.1v16.8"/>
				</g>
			</g>
			<g id="tb3">
				<g>
					<g id="tb1_1_">
						<path id="tbp1_2_" style="fill:none;stroke:#FFFFFF;stroke-width:2.8;stroke-miterlimit:5.6;" d="M65.2,35.3h41.6 M66.8,52.1
							v-9.3h12.8v7.5h12.8v-7.5h-8 M71.6,50.3h3.2 M106.8,50.3h-8v-7.5h12.8 M111.6,33.5v16.8h12.8V33.5 M118,33.5v16.8"/>
						<path id="tbp2_2_" style="fill:none;stroke:#FFFFFF;stroke-width:5.6;stroke-miterlimit:11.2;" d="M65.2,59.6H94 M97.2,59.6
							H126"/>
						<g>
							<path id="tbp2_3_" style="fill:none;stroke:#FFFFFF;stroke-width:5.6;stroke-miterlimit:11.2;" d="M65.2,219.6H94
								 M97.2,219.6H126"/>
						</g>
						<g>
							<path id="tbp1_3_" style="fill:none;stroke:#FFFFFF;stroke-width:2.8;stroke-miterlimit:5.6;" d="M65.2,228.9h41.6
								 M66.8,245.7v-9.3h12.8v7.5h12.8v-7.5h-8 M71.6,243.9h3.2 M106.8,243.9h-8v-7.5h12.8 M111.6,227.1v16.8h12.8v-16.8
								 M118,227.1v16.8"/>
						</g>
					</g>
				</g>
				<g>
					<g id="tb1_2_">
						<path id="tbp1_4_" style="fill:none;stroke:#FFFFFF;stroke-width:2.8;stroke-miterlimit:5.6;" d="M129.2,35.3h41.6
							 M130.8,52.1v-9.3h12.8v7.5h12.8v-7.5h-8 M135.6,50.3h3.2 M170.8,50.3h-8v-7.5h12.8 M175.6,33.5v16.8h12.8V33.5 M182,33.5
							v16.8"/>
						<path id="tbp2_4_" style="fill:none;stroke:#FFFFFF;stroke-width:5.6;stroke-miterlimit:11.2;" d="M129.2,59.6H158
							 M161.2,59.6H190"/>
						<g>
							<path id="tbp2_5_" style="fill:none;stroke:#FFFFFF;stroke-width:5.6;stroke-miterlimit:11.2;" d="M129.2,219.6H158
								 M161.2,219.6H190"/>
						</g>
						<g>
							<path id="tbp1_5_" style="fill:none;stroke:#FFFFFF;stroke-width:2.8;stroke-miterlimit:5.6;" d="M129.2,228.9h41.6
								 M130.8,245.7v-9.3h12.8v7.5h12.8v-7.5h-8 M135.6,243.9h3.2 M170.8,243.9h-8v-7.5h12.8 M175.6,227.1v16.8h12.8v-16.8
								 M182,227.1v16.8"/>
						</g>
					</g>
				</g>
				<g>
					<g id="tb1_3_">
						<path id="tbp1_6_" style="fill:none;stroke:#FFFFFF;stroke-width:2.8;stroke-miterlimit:5.6;" d="M193.2,35.3h41.6
							 M194.8,52.1v-9.3h12.8v7.5h12.8v-7.5h-8 M199.6,50.3h3.2 M234.8,50.3h-8v-7.5h12.8 M239.6,33.5v16.8h12.8V33.5 M246,33.5
							v16.8"/>
						<path id="tbp2_6_" style="fill:none;stroke:#FFFFFF;stroke-width:5.6;stroke-miterlimit:11.2;" d="M193.2,59.6H222
							 M225.2,59.6H254"/>
						<g>
							<path id="tbp2_7_" style="fill:none;stroke:#FFFFFF;stroke-width:5.6;stroke-miterlimit:11.2;" d="M193.2,219.6H222
								 M225.2,219.6H254"/>
						</g>
						<g>
							<path id="tbp1_7_" style="fill:none;stroke:#FFFFFF;stroke-width:2.8;stroke-miterlimit:5.6;" d="M193.2,228.9h41.6
								 M194.8,245.7v-9.3h12.8v7.5h12.8v-7.5h-8 M199.6,243.9h3.2 M234.8,243.9h-8v-7.5h12.8 M239.6,227.1v16.8h12.8v-16.8
								 M246,227.1v16.8"/>
						</g>
					</g>
				</g>
			</g>
		</g>
		<g>
			<g id="tb3_1_">
				<g>
					<g id="tb1_4_">
						<path id="tbp1_8_" style="fill:none;stroke:#FFFFFF;stroke-width:2.8;stroke-miterlimit:5.6;" d="M257.2,35.3h41.6
							 M258.8,52.1v-9.3h12.8v7.5h12.8v-7.5h-8 M263.6,50.3h3.2 M298.8,50.3h-8v-7.5h12.8 M303.6,33.5v16.8h12.8V33.5 M310,33.5
							v16.8"/>
						<path id="tbp2_8_" style="fill:none;stroke:#FFFFFF;stroke-width:5.6;stroke-miterlimit:11.2;" d="M257.2,59.6H286
							 M289.2,59.6H318"/>
						<g>
							<path id="tbp2_9_" style="fill:none;stroke:#FFFFFF;stroke-width:5.6;stroke-miterlimit:11.2;" d="M257.2,219.6H286
								 M289.2,219.6H318"/>
						</g>
						<g>
							<path id="tbp1_9_" style="fill:none;stroke:#FFFFFF;stroke-width:2.8;stroke-miterlimit:5.6;" d="M257.2,228.9h41.6
								 M258.8,245.7v-9.3h12.8v7.5h12.8v-7.5h-8 M263.6,243.9h3.2 M298.8,243.9h-8v-7.5h12.8 M303.6,227.1v16.8h12.8v-16.8
								 M310,227.1v16.8"/>
						</g>
					</g>
				</g>
				<g>
					<g id="tb1_5_">
						<path id="tbp1_10_" style="fill:none;stroke:#FFFFFF;stroke-width:2.8;stroke-miterlimit:5.6;" d="M321.2,35.3h41.6
							 M322.8,52.1v-9.3h12.8v7.5h12.8v-7.5h-8 M327.6,50.3h3.2 M362.8,50.3h-8v-7.5h12.8 M367.6,33.5v16.8h12.8V33.5 M374,33.5
							v16.8"/>
						<path id="tbp2_10_" style="fill:none;stroke:#FFFFFF;stroke-width:5.6;stroke-miterlimit:11.2;" d="M321.2,59.6H350
							 M353.2,59.6H382"/>
						<g>
							<path id="tbp2_11_" style="fill:none;stroke:#FFFFFF;stroke-width:5.6;stroke-miterlimit:11.2;" d="M321.2,219.6H350
								 M353.2,219.6H382"/>
						</g>
						<g>
							<path id="tbp1_11_" style="fill:none;stroke:#FFFFFF;stroke-width:2.8;stroke-miterlimit:5.6;" d="M321.2,228.9h41.6
								 M322.8,245.7v-9.3h12.8v7.5h12.8v-7.5h-8 M327.6,243.9h3.2 M362.8,243.9h-8v-7.5h12.8 M367.6,227.1v16.8h12.8v-16.8
								 M374,227.1v16.8"/>
						</g>
					</g>
				</g>
				<g>
					<g id="tb1_6_">
						<path id="tbp1_12_" style="fill:none;stroke:#FFFFFF;stroke-width:2.8;stroke-miterlimit:5.6;" d="M385.2,35.3h41.6
							 M386.8,52.1v-9.3h12.8v7.5h12.8v-7.5h-8 M391.6,50.3h3.2 M426.8,50.3h-8v-7.5h12.8 M431.6,33.5v16.8h12.8V33.5 M438,33.5
							v16.8"/>
						<path id="tbp2_12_" style="fill:none;stroke:#FFFFFF;stroke-width:5.6;stroke-miterlimit:11.2;" d="M385.2,59.6H414
							 M417.2,59.6H446"/>
						<g>
							<path id="tbp2_13_" style="fill:none;stroke:#FFFFFF;stroke-width:5.6;stroke-miterlimit:11.2;" d="M385.2,219.6H414
								 M417.2,219.6H446"/>
						</g>
						<g>
							<path id="tbp1_13_" style="fill:none;stroke:#FFFFFF;stroke-width:2.8;stroke-miterlimit:5.6;" d="M385.2,228.9h41.6
								 M386.8,245.7v-9.3h12.8v7.5h12.8v-7.5h-8 M391.6,243.9h3.2 M426.8,243.9h-8v-7.5h12.8 M431.6,227.1v16.8h12.8v-16.8
								 M438,227.1v16.8"/>
						</g>
					</g>
				</g>
			</g>
		</g>
		<g>
			<g id="tb4_1_">
				<g id="tb1_7_">
					<path id="tbp1_14_" style="fill:none;stroke:#FFFFFF;stroke-width:2.8;stroke-miterlimit:5.6;" d="M449.2,35.3h41.6
						 M450.8,52.1v-9.3h12.8v7.5h12.8v-7.5h-8 M455.6,50.3h3.2 M490.8,50.3h-8v-7.5h12.8 M495.6,33.5v16.8h12.8V33.5 M502,33.5v16.8
						"/>
					<path id="tbp2_14_" style="fill:none;stroke:#FFFFFF;stroke-width:5.6;stroke-miterlimit:11.2;" d="M449.2,59.6H478
						 M481.2,59.6H510"/>
					<g>
						<path id="tbp2_15_" style="fill:none;stroke:#FFFFFF;stroke-width:5.6;stroke-miterlimit:11.2;" d="M449.2,219.6H478
							 M481.2,219.6H510"/>
					</g>
					<g>
						<path id="tbp1_15_" style="fill:none;stroke:#FFFFFF;stroke-width:2.8;stroke-miterlimit:5.6;" d="M449.2,228.9h41.6
							 M450.8,245.7v-9.3h12.8v7.5h12.8v-7.5h-8 M455.6,243.9h3.2 M490.8,243.9h-8v-7.5h12.8 M495.6,227.1v16.8h12.8v-16.8
							 M502,227.1v16.8"/>
					</g>
				</g>
				<g id="tb3_2_">
					<g>
						<g id="tb1_8_">
							<path id="tbp1_16_" style="fill:none;stroke:#FFFFFF;stroke-width:2.8;stroke-miterlimit:5.6;" d="M513.2,35.3h41.6
								 M514.8,52.1v-9.3h12.8v7.5h12.8v-7.5h-8 M519.6,50.3h3.2 M554.8,50.3h-8v-7.5h12.8 M559.6,33.5v16.8h12.8V33.5 M566,33.5
								v16.8"/>
							<path id="tbp2_16_" style="fill:none;stroke:#FFFFFF;stroke-width:5.6;stroke-miterlimit:11.2;" d="M513.2,59.6H542
								 M545.2,59.6H574"/>
							<g>
								<path id="tbp2_17_" style="fill:none;stroke:#FFFFFF;stroke-width:5.6;stroke-miterlimit:11.2;" d="M513.2,219.6H542
									 M545.2,219.6H574"/>
							</g>
							<g>
								<path id="tbp1_17_" style="fill:none;stroke:#FFFFFF;stroke-width:2.8;stroke-miterlimit:5.6;" d="M513.2,228.9h41.6
									 M514.8,245.7v-9.3h12.8v7.5h12.8v-7.5h-8 M519.6,243.9h3.2 M554.8,243.9h-8v-7.5h12.8 M559.6,227.1v16.8h12.8v-16.8
									 M566,227.1v16.8"/>
							</g>
						</g>
					</g>
					<g>
						<g id="tb1_9_">
							<path id="tbp1_18_" style="fill:none;stroke:#FFFFFF;stroke-width:2.8;stroke-miterlimit:5.6;" d="M577.2,35.3h41.6
								 M578.8,52.1v-9.3h12.8v7.5h12.8v-7.5h-8 M583.6,50.3h3.2 M618.8,50.3h-8v-7.5h12.8 M623.6,33.5v16.8h12.8V33.5 M630,33.5
								v16.8"/>
							<path id="tbp2_18_" style="fill:none;stroke:#FFFFFF;stroke-width:5.6;stroke-miterlimit:11.2;" d="M577.2,59.6H606
								 M609.2,59.6H638"/>
							<g>
								<path id="tbp2_19_" style="fill:none;stroke:#FFFFFF;stroke-width:5.6;stroke-miterlimit:11.2;" d="M577.2,219.6H606
									 M609.2,219.6H638"/>
							</g>
							<g>
								<path id="tbp1_19_" style="fill:none;stroke:#FFFFFF;stroke-width:2.8;stroke-miterlimit:5.6;" d="M577.2,228.9h41.6
									 M578.8,245.7v-9.3h12.8v7.5h12.8v-7.5h-8 M583.6,243.9h3.2 M618.8,243.9h-8v-7.5h12.8 M623.6,227.1v16.8h12.8v-16.8
									 M630,227.1v16.8"/>
							</g>
						</g>
					</g>
					<g>
						<g id="tb1_10_">
							<path id="tbp1_20_" style="fill:none;stroke:#FFFFFF;stroke-width:2.8;stroke-miterlimit:5.6;" d="M641.2,35.3h41.6
								 M642.8,52.1v-9.3h12.8v7.5h12.8v-7.5h-8 M647.6,50.3h3.2 M682.8,50.3h-8v-7.5h12.8 M687.6,33.5v16.8h12.8V33.5 M694,33.5
								v16.8"/>
							<path id="tbp2_20_" style="fill:none;stroke:#FFFFFF;stroke-width:5.6;stroke-miterlimit:11.2;" d="M641.2,59.6H670
								 M673.2,59.6H702"/>
							<g>
								<path id="tbp2_21_" style="fill:none;stroke:#FFFFFF;stroke-width:5.6;stroke-miterlimit:11.2;" d="M641.2,219.6H670
									 M673.2,219.6H702"/>
							</g>
							<g>
								<path id="tbp1_21_" style="fill:none;stroke:#FFFFFF;stroke-width:2.8;stroke-miterlimit:5.6;" d="M641.2,228.9h41.6
									 M642.8,245.7v-9.3h12.8v7.5h12.8v-7.5h-8 M647.6,243.9h3.2 M682.8,243.9h-8v-7.5h12.8 M687.6,227.1v16.8h12.8v-16.8
									 M694,227.1v16.8"/>
							</g>
						</g>
					</g>
				</g>
			</g>
		</g>
	</g>
	<g transform="matrix(45,0,0,45,315,180)">
		<g id="emblem_half">
			<path style="fill:#DA0000;" d="M0.4,2.4c0.5,0.2,1.1-0.1,1.3-0.8c0.1-0.5,0-1-0.3-1.3C1.7,1,1.6,1.8,1.1,2.2
				C0.9,2.4,0.6,2.5,0.4,2.4"/>
			<path style="fill:#DA0000;" d="M1.7,2.2C2.1,1.9,2.3,1.3,2,0.8C1.9,0.6,1.7,0.4,1.5,0.3C2,0.8,2.1,1.6,1.7,2.2
				C1.7,2.2,1.7,2.2,1.7,2.2"/>
			<path style="fill:#DA0000;" d="M1,2.7L0.9,1.3l0.1-1c0,0.1,0.1,0.1,0.1,0.1v0.8l0,1.3L1,2.7z"/>
			<path style="fill:#DA0000;" d="M1,0.2L1,0.2c0.1,0.1,0.2,0.1,0.3,0.1C1.3,0.2,1.3,0.1,1.3,0c0,0.1-0.1,0.2-0.2,0.1
				C1.1,0.2,1,0.1,1,0.2"/>
		</g>
		<g transform="scale(-1,1)">
			<g id="emblem_half_1_">
				<path style="fill:#DA0000;" d="M1.6,2.4C1.1,2.7,0.5,2.3,0.3,1.7c-0.1-0.5,0-1,0.3-1.3C0.3,1,0.4,1.8,0.9,2.2
					C1.1,2.4,1.4,2.5,1.6,2.4"/>
				<path style="fill:#DA0000;" d="M0.3,2.2C-0.1,1.9-0.3,1.3,0,0.8c0.1-0.2,0.3-0.4,0.5-0.5C0,0.8-0.1,1.6,0.3,2.2
					C0.3,2.2,0.3,2.2,0.3,2.2"/>
				<path style="fill:#DA0000;" d="M1,2.7l0.1-1.3L1,0.3c0,0.1-0.1,0.1-0.1,0.1v0.8l0,1.3L1,2.7z"/>
				<path style="fill:#DA0000;" d="M1,0.2L1,0.2C0.9,0.3,0.8,0.3,0.8,0.3C0.7,0.2,0.7,0.1,0.7,0c0,0.1,0.1,0.2,0.2,0.1
					C0.9,0.2,1,0.1,1,0.2"/>
			</g>
		</g>
	</g>
</g>
</svg>
