<?xml version="1.0" encoding="utf-8"?>
<!-- Generator: Adobe Illustrator 25.2.1, SVG Export Plug-In . SVG Version: 6.00 Build 0)  -->
<svg version="1.1" id="Layer_1" xmlns="http://www.w3.org/2000/svg" xmlns:xlink="http://www.w3.org/1999/xlink" x="0px" y="0px"
	 viewBox="0 0 720 480" style="enable-background:new 0 0 720 480;" xml:space="preserve">
<g>
	<rect style="fill:#FFFFFF;" width="720" height="480"/>
	<rect width="720" height="144"/>
	<rect y="336" style="fill:#006600;" width="720" height="144"/>
	<g id="spear">
		<g>
			<path id="spearshape" style="stroke:#000000;stroke-miterlimit:10;" d="M274.3,382.5l5.2,3l140.1-242.7
				c8.2-2.2,12.7-10,17.2-17.8c3-5.2,15-26,20.2-53c-20.8,18-32.8,38.8-35.8,44c-4.5,7.8-9,15.6-6.8,23.8L274.3,382.5z"/>
		</g>
		<g>
			<path id="spearshape_1_" style="fill:#FFFFFF;" d="M274.3,382.5l5.2,3l140.1-242.7c8.2-2.2,12.7-10,17.2-17.8
				c3-5.2,15-26,20.2-53c-20.8,18-32.8,38.8-35.8,44c-4.5,7.8-9,15.6-6.8,23.8L274.3,382.5z"/>
		</g>
	</g>
	<g transform="scale(-1,1)">
		<g id="spear_1_">
			<g>
				<path id="spearshape_2_" style="stroke:#000000;stroke-miterlimit:10;" d="M445.7,382.5l-5.2,3L300.4,142.8
					c-8.2-2.2-12.7-10-17.2-17.8c-3-5.2-15-26-20.2-53c20.8,18,32.8,38.8,35.8,44c4.5,7.8,9,15.6,6.8,23.8L445.7,382.5z"/>
			</g>
			<g>
				<path id="spearshape_3_" style="fill:#FFFFFF;" d="M445.7,382.5l-5.2,3L300.4,142.8c-8.2-2.2-12.7-10-17.2-17.8
					c-3-5.2-15-26-20.2-53c20.8,18,32.8,38.8,35.8,44c4.5,7.8,9,15.6,6.8,23.8L445.7,382.5z"/>
			</g>
		</g>
	</g>
	<path style="fill:#BB0000;" d="M0,168v144h303c9,24,39,72,57,72s48-48,57-72h303V168H417c-9-24-39-72-57-72s-48,48-57,72H0z"/>
	<path id="deco_r" d="M417,312c9-24,15-48,15-72s-6-48-15-72c-9,24-15,48-15,72S408,288,417,312"/>
	<g transform="scale(-1,1)">
		<path id="deco_r_1_" d="M303,312c-9-24-15-48-15-72s6-48,15-72c9,24,15,48,15,72S312,288,303,312"/>
	</g>
	<g>
		<ellipse style="fill:#FFFFFF;" cx="360" cy="240" rx="12" ry="18"/>
		<path id="deco_br" style="fill:#FFFFFF;" d="M363,257.5c0,0,12,24,12,63s-12,63-12,63V257.5z"/>
		<g transform="scale(-1)">
			<path id="deco_br_1_" style="fill:#FFFFFF;" d="M357,222.4c0,0-12-24-12-63s12-63,12-63V222.4z"/>
		</g>
		<g transform="scale(-1,1)">
			<path id="deco_br_2_" style="fill:#FFFFFF;" d="M357,257.5c0,0-12,24-12,63s12,63,12,63V257.5z"/>
		</g>
		<g transform="scale(1,-1)">
			<path id="deco_br_3_" style="fill:#FFFFFF;" d="M363,222.4c0,0,12-24,12-63s-12-63-12-63V222.4z"/>
		</g>
	</g>
</g>
</svg>
