<?xml version="1.0" encoding="utf-8"?>
<!-- Generator: Adobe Illustrator 25.2.1, SVG Export Plug-In . SVG Version: 6.00 Build 0)  -->
<svg version="1.1" id="Layer_1" xmlns="http://www.w3.org/2000/svg" xmlns:xlink="http://www.w3.org/1999/xlink" x="0px" y="0px"
	 viewBox="0 0 720 480" style="enable-background:new 0 0 720 480;" xml:space="preserve">
<g>
	<g>
		<defs>
			<rect id="SVGID_1_" width="720" height="480"/>
		</defs>
		<clipPath id="SVGID_2_">
			<use xlink:href="#SVGID_1_"  style="overflow:visible;"/>
		</clipPath>
		<g style="clip-path:url(#SVGID_2_);">
			<path style="fill:#009E49;" d="M720,0H0v480"/>
			<path style="fill:#CE1126;" d="M0,480h720V0"/>
			<path style="stroke:#FCD116;stroke-width:210;" d="M0,480L720,0"/>
			<path style="stroke:#000000;stroke-width:150;" d="M0,480L720,0"/>
			<g id="d" transform="rotate(-33.69 514.716 -777.095)">
				<g id="c">
					<path id="b" style="fill:#FFFFFF;" d="M-13.8-83.8l-20.8,63.9l32,10.4"/>
					<g transform="scale(-1 1)">
						<path id="b_1_" style="fill:#FFFFFF;" d="M-13.8-83.8L7-19.9L-25-9.5"/>
					</g>
				</g>
				<g transform="rotate(72)">
					<g id="c_1_">
						<path id="b_2_" style="fill:#FFFFFF;" d="M50.1-37.4l-67.2,0l0,33.6"/>
						<g transform="scale(-1 1)">
							<path id="b_3_" style="fill:#FFFFFF;" d="M50.1-37.4L-4.2,2.1L-24-25.1"/>
						</g>
					</g>
				</g>
				<g transform="rotate(144)">
					<g id="c_2_">
						<path id="b_4_" style="fill:#FFFFFF;" d="M25.7,37.7L4.9-26.2l-32,10.4"/>
						<g transform="scale(-1 1)">
							<path id="b_5_" style="fill:#FFFFFF;" d="M25.7,37.7L-28.7-1.8L-8.9-29"/>
						</g>
					</g>
				</g>
				<g transform="rotate(216)">
					<g id="c_3_">
						<path id="b_6_" style="fill:#FFFFFF;" d="M-53.3,37.7L1.1-1.8L-18.7-29"/>
						<g transform="scale(-1 1)">
							<path id="b_7_" style="fill:#FFFFFF;" d="M-53.3,37.7l20.8-63.9l32,10.4"/>
						</g>
					</g>
				</g>
				<g transform="rotate(288)">
					<g id="c_4_">
						<path id="b_8_" style="fill:#FFFFFF;" d="M-77.7-37.4l54.4,39.5l19.7-27.2"/>
						<g transform="scale(-1 1)">
							<path id="b_9_" style="fill:#FFFFFF;" d="M-77.7-37.4l67.2,0l0,33.6"/>
						</g>
					</g>
				</g>
			</g>
			<g transform="translate(-285 190)">
				<g id="d_1_" transform="rotate(-33.69 514.716 -777.095)">
					<g id="c_5_">
						<path id="b_10_" style="fill:#FFFFFF;" d="M-342.6-83.8l-20.8,63.9l32,10.4"/>
						<g transform="scale(-1 1)">
							<path id="b_11_" style="fill:#FFFFFF;" d="M-342.6-83.8l20.8,63.9l-32,10.4"/>
						</g>
					</g>
					<g transform="rotate(72)">
						<g id="c_6_">
							<path id="b_12_" style="fill:#FFFFFF;" d="M-278.7-37.4l-67.2,0v33.6"/>
							<g transform="scale(-1 1)">
								<path id="b_13_" style="fill:#FFFFFF;" d="M-278.7-37.4l-54.4,39.5l-19.7-27.2"/>
							</g>
						</g>
					</g>
					<g transform="rotate(144)">
						<g id="c_7_">
							<path id="b_14_" style="fill:#FFFFFF;" d="M-303.1,37.7l-20.8-63.9l-32,10.4"/>
							<g transform="scale(-1 1)">
								<path id="b_15_" style="fill:#FFFFFF;" d="M-303.1,37.7l-54.4-39.5l19.7-27.2"/>
							</g>
						</g>
					</g>
					<g transform="rotate(216)">
						<g id="c_8_">
							<path id="b_16_" style="fill:#FFFFFF;" d="M-382.1,37.7l54.4-39.5L-347.5-29"/>
							<g transform="scale(-1 1)">
								<path id="b_17_" style="fill:#FFFFFF;" d="M-382.1,37.7l20.8-63.9l32,10.4"/>
							</g>
						</g>
					</g>
					<g transform="rotate(288)">
						<g id="c_9_">
							<path id="b_18_" style="fill:#FFFFFF;" d="M-406.5-37.4l54.4,39.5l19.7-27.2"/>
							<g transform="scale(-1 1)">
								<path id="b_19_" style="fill:#FFFFFF;" d="M-406.5-37.4l67.2,0v33.6"/>
							</g>
						</g>
					</g>
				</g>
			</g>
		</g>
	</g>
</g>
</svg>
