<?xml version="1.0" encoding="utf-8"?>
<!-- Generator: Adobe Illustrator 25.2.1, SVG Export Plug-In . SVG Version: 6.00 Build 0)  -->
<svg version="1.1" id="Layer_1" xmlns="http://www.w3.org/2000/svg" xmlns:xlink="http://www.w3.org/1999/xlink" x="0px" y="0px"
	 viewBox="0 0 720 480" style="enable-background:new 0 0 720 480;" xml:space="preserve">
<g>
	<path style="fill:#FFFFFF;" d="M0,0h720v480H0V0z"/>
	<g transform="rotate(-56.31)">
		<g id="b">
			<g>
				<path id="a_1_" d="M-60,182.7l120,0 M-60,212.7l120,0 M-60,242.7l120,0"/>
				<path d="M-60,252.7l0-20l120,0l0,20L-60,252.7z M-60,222.7l0-20l120,0l0,20L-60,222.7z M-60,192.7l0-20l120,0l0,20L-60,192.7z"
					/>
			</g>
			<g>
				<g>
					<path id="a_2_" d="M-60,622.7H60 M-60,652.7H60 M-60,682.7H60"/>
					<path d="M-60,692.7l0-20l120,0l0,20L-60,692.7z M-60,662.7l0-20l120,0l0,20L-60,662.7z M-60,632.7l0-20l120,0l0,20L-60,632.7z"
						/>
				</g>
			</g>
		</g>
		<g>
			<path d="M0,602.7l0,100"/>
			
				<rect x="-5" y="602.7" transform="matrix(0.5547 -0.8321 0.8321 0.5547 -543.0721 290.661)" style="fill:#FFFFFF;" width="10" height="100"/>
		</g>
		<circle style="fill:#CD2E3A;" cx="0" cy="432.7" r="120"/>
		<path style="fill:#CD2E3A;" d="M0,432.7"/>
	</g>
	<g transform="rotate(-123.69)">
		<g>
			<g id="b_1_">
				<g>
					<path id="a_3_" d="M-459.4-83.6l120,0 M-459.4-53.6l120,0 M-459.4-23.6l120,0"/>
					<path d="M-459.4-93.6l120,0l0,20l-120,0L-459.4-93.6z M-459.4-63.6l120,0l0,20l-120,0L-459.4-63.6z M-459.4-33.6l120,0l0,20
						l-120,0L-459.4-33.6z"/>
				</g>
				<g>
					<g>
						<path id="a_4_" d="M-459.4,356.4l120,0 M-459.4,386.4l120,0 M-459.4,416.4l120,0"/>
						<path d="M-459.4,346.4l120,0l0,20l-120,0L-459.4,346.4z M-459.4,376.4l120,0l0,20l-120,0L-459.4,376.4z M-459.4,406.4l120,0
							l0,20l-120,0V406.4z"/>
					</g>
				</g>
			</g>
		</g>
		<g>
			<path d="M-399.4-68.6v30 M-399.4,336.4l0,35 M-399.4,401.4v30"/>
			<path style="fill:#FFFFFF;" d="M-404.4-68.6l10,0l0,30l-10,0L-404.4-68.6z M-404.4,336.4l10,0l0,35l-10,0L-404.4,336.4z
				 M-404.4,401.4h10l0,30h-10L-404.4,401.4z"/>
		</g>
	</g>
</g>
</svg>
