<?xml version="1.0" encoding="utf-8"?>
<!-- Generator: Adobe Illustrator 25.2.1, SVG Export Plug-In . SVG Version: 6.00 Build 0)  -->
<svg version="1.1" id="Layer_1" xmlns:sodipodi="http://sodipodi.sourceforge.net/DTD/sodipodi-0.dtd"
	 xmlns="http://www.w3.org/2000/svg" xmlns:xlink="http://www.w3.org/1999/xlink" x="0px" y="0px" viewBox="0 0 720 480"
	 style="enable-background:new 0 0 720 480;" xml:space="preserve">
<g>
	<rect style="fill:#002B7F;" width="720" height="480"/>
	<rect y="240" style="fill:#CE1126;" width="720" height="240"/>
	<g>
		<g id="half">
			<path style="fill:#FFD83D;" d="M155.8,97.8l-1.3,50h-45.7c-5.6-12.1-10.3-22.4-10.3-36.4c0-11.7,8.3-21,20.2-21
				C131.3,90.5,145.2,95.2,155.8,97.8z"/>
			<g>
				<path style="fill:#FFD83D;stroke:#000000;stroke-width:1.5;stroke-linecap:round;stroke-linejoin:round;" d="M104,100.1V129"/>
				<path style="fill:#FFD83D;stroke:#000000;stroke-width:1.5;stroke-linecap:round;stroke-linejoin:round;" d="M107.7,97.2v38.4"
					/>
				<path style="fill:#FFD83D;stroke:#000000;stroke-width:1.5;stroke-linecap:round;stroke-linejoin:round;" d="M111.3,95.2v45.8"
					/>
				<path style="fill:#FFD83D;stroke:#000000;stroke-width:1.5;stroke-linecap:round;stroke-linejoin:round;" d="M115,94.2v35.9"/>
				<path style="fill:#FFD83D;stroke:#000000;stroke-width:1.5;stroke-linecap:round;stroke-linejoin:round;" d="M118.7,94v36.3"/>
				<path style="fill:#FFD83D;stroke:#000000;stroke-width:1.5;stroke-linecap:round;stroke-linejoin:round;" d="M122.3,92.8v37.5"
					/>
				<path style="fill:#FFD83D;stroke:#000000;stroke-width:1.5;stroke-linecap:round;stroke-linejoin:round;" d="M126,92.8v37.5"/>
				<path style="fill:#FFD83D;stroke:#000000;stroke-width:1.5;stroke-linecap:round;stroke-linejoin:round;" d="M129.7,93.1v37.5"
					/>
				<path style="fill:#FFD83D;stroke:#000000;stroke-width:1.5;stroke-linecap:round;stroke-linejoin:round;" d="M133.3,93.5V131"/>
				<path style="fill:#FFD83D;stroke:#000000;stroke-width:1.5;stroke-linecap:round;stroke-linejoin:round;" d="M137,95.9v37.5"/>
				<path style="fill:#FFD83D;stroke:#000000;stroke-width:1.5;stroke-linecap:round;stroke-linejoin:round;" d="M140.7,96.3v42.3"
					/>
				<path style="fill:#FFD83D;stroke:#000000;stroke-width:1.5;stroke-linecap:round;stroke-linejoin:round;" d="M144.3,96.3v37.5"
					/>
				<path style="fill:#FFD83D;stroke:#000000;stroke-width:1.5;stroke-linecap:round;stroke-linejoin:round;" d="M148,96.3v37.5"/>
				<path style="stroke:#000000;stroke-width:1.5;stroke-linecap:round;stroke-linejoin:round;" d="M127,94.3
					c7.7,1.4,24.8,10.3,22.8,22.2c-2.8,17-11.7,10.2-23.5,7.7l-8.9,3.3c-3.2,3.6-7.9,6.9-11.1,2.6H101v23h58.6V97.6L127,94.3z"/>
			</g>
			
				<ellipse style="fill:#FFD83D;stroke:#000000;stroke-width:2;stroke-linecap:round;stroke-linejoin:round;" cx="153.2" cy="90.4" rx="3.6" ry="4"/>
			
				<ellipse style="fill:#FFD83D;stroke:#000000;stroke-width:2;stroke-linecap:round;stroke-linejoin:round;" cx="145.2" cy="88.2" rx="3.6" ry="4"/>
			
				<ellipse style="fill:#FFD83D;stroke:#000000;stroke-width:2;stroke-linecap:round;stroke-linejoin:round;" cx="137.1" cy="86" rx="3.6" ry="4"/>
			
				<ellipse style="fill:#FFD83D;stroke:#000000;stroke-width:2;stroke-linecap:round;stroke-linejoin:round;" cx="129" cy="84.5" rx="3.6" ry="4"/>
			
				<ellipse style="fill:#FFD83D;stroke:#000000;stroke-width:2;stroke-linecap:round;stroke-linejoin:round;" cx="120.8" cy="83.6" rx="3.6" ry="4"/>
			
				<ellipse style="fill:#FFD83D;stroke:#000000;stroke-width:2;stroke-linecap:round;stroke-linejoin:round;" cx="112.9" cy="84.1" rx="3.6" ry="4"/>
			
				<ellipse style="fill:#FFD83D;stroke:#000000;stroke-width:2;stroke-linecap:round;stroke-linejoin:round;" cx="105.2" cy="87" rx="3.6" ry="4"/>
			
				<ellipse style="fill:#FFD83D;stroke:#000000;stroke-width:2;stroke-linecap:round;stroke-linejoin:round;" cx="98.8" cy="92.2" rx="3.6" ry="4"/>
			
				<ellipse style="fill:#FFD83D;stroke:#000000;stroke-width:2;stroke-linecap:round;stroke-linejoin:round;" cx="94.3" cy="99.5" rx="3.6" ry="4"/>
			
				<ellipse style="fill:#FFD83D;stroke:#000000;stroke-width:2;stroke-linecap:round;stroke-linejoin:round;" cx="92.1" cy="108.1" rx="3.6" ry="4"/>
			
				<ellipse style="fill:#FFD83D;stroke:#000000;stroke-width:2;stroke-linecap:round;stroke-linejoin:round;" cx="92.2" cy="117" rx="3.6" ry="4"/>
			
				<ellipse style="fill:#FFD83D;stroke:#000000;stroke-width:2;stroke-linecap:round;stroke-linejoin:round;" cx="93.7" cy="125.8" rx="3.6" ry="4"/>
			<path style="fill:#FFD83D;stroke:#000000;stroke-width:2;stroke-linecap:round;stroke-linejoin:round;" d="M154.8,95.6l-0.3,5.1
				c-8.8-1.5-21.4-7-33.1-7c-10.8,0-19.2,4.8-19.2,16.9c0,11.9,4.5,22.8,10.6,33.8l-6.3,3.3c-5.6-12.1-10.3-22.4-10.3-36.4
				c0-11.7,8.3-23.2,22.5-23.2C131.3,88.3,144.2,93,154.8,95.6z"/>
		</g>
		<g transform="translate(443.9375) scale(-1,1)">
			<g id="half_1_">
				<path style="fill:#FFD83D;" d="M163.8,97.8l1.3,50h45.7c5.6-12.1,10.3-22.4,10.3-36.4c0-11.7-8.3-21-20.2-21
					C188.3,90.5,174.4,95.2,163.8,97.8z"/>
				<g>
					<path style="fill:#FFD83D;stroke:#000000;stroke-width:1.5;stroke-linecap:round;stroke-linejoin:round;" d="M215.6,100.1V129"
						/>
					<path style="fill:#FFD83D;stroke:#000000;stroke-width:1.5;stroke-linecap:round;stroke-linejoin:round;" d="M212,97.2v38.4"/>
					<path style="fill:#FFD83D;stroke:#000000;stroke-width:1.5;stroke-linecap:round;stroke-linejoin:round;" d="M208.3,95.2v45.8"
						/>
					<path style="fill:#FFD83D;stroke:#000000;stroke-width:1.5;stroke-linecap:round;stroke-linejoin:round;" d="M204.6,94.2v35.9"
						/>
					<path style="fill:#FFD83D;stroke:#000000;stroke-width:1.5;stroke-linecap:round;stroke-linejoin:round;" d="M201,94v36.3"/>
					<path style="fill:#FFD83D;stroke:#000000;stroke-width:1.5;stroke-linecap:round;stroke-linejoin:round;" d="M197.3,92.8v37.5"
						/>
					<path style="fill:#FFD83D;stroke:#000000;stroke-width:1.5;stroke-linecap:round;stroke-linejoin:round;" d="M193.6,92.8v37.5"
						/>
					<path style="fill:#FFD83D;stroke:#000000;stroke-width:1.5;stroke-linecap:round;stroke-linejoin:round;" d="M190,93.1v37.5"/>
					<path style="fill:#FFD83D;stroke:#000000;stroke-width:1.5;stroke-linecap:round;stroke-linejoin:round;" d="M186.3,93.5V131"
						/>
					<path style="fill:#FFD83D;stroke:#000000;stroke-width:1.5;stroke-linecap:round;stroke-linejoin:round;" d="M182.6,95.9v37.5"
						/>
					<path style="fill:#FFD83D;stroke:#000000;stroke-width:1.5;stroke-linecap:round;stroke-linejoin:round;" d="M179,96.3v42.3"/>
					<path style="fill:#FFD83D;stroke:#000000;stroke-width:1.5;stroke-linecap:round;stroke-linejoin:round;" d="M175.3,96.3v37.5"
						/>
					<path style="fill:#FFD83D;stroke:#000000;stroke-width:1.5;stroke-linecap:round;stroke-linejoin:round;" d="M171.6,96.3v37.5"
						/>
					<path style="stroke:#000000;stroke-width:1.5;stroke-linecap:round;stroke-linejoin:round;" d="M192.6,94.3
						c-7.7,1.4-24.8,10.3-22.8,22.2c2.8,17,11.7,10.2,23.5,7.7l8.9,3.3c3.2,3.6,7.9,6.9,11.1,2.6h5.3v23H160V97.6L192.6,94.3z"/>
				</g>
				
					<ellipse style="fill:#FFD83D;stroke:#000000;stroke-width:2;stroke-linecap:round;stroke-linejoin:round;" cx="166.4" cy="90.4" rx="3.6" ry="4"/>
				
					<ellipse style="fill:#FFD83D;stroke:#000000;stroke-width:2;stroke-linecap:round;stroke-linejoin:round;" cx="174.4" cy="88.2" rx="3.6" ry="4"/>
				
					<ellipse style="fill:#FFD83D;stroke:#000000;stroke-width:2;stroke-linecap:round;stroke-linejoin:round;" cx="182.5" cy="86" rx="3.6" ry="4"/>
				
					<ellipse style="fill:#FFD83D;stroke:#000000;stroke-width:2;stroke-linecap:round;stroke-linejoin:round;" cx="190.7" cy="84.5" rx="3.6" ry="4"/>
				
					<ellipse style="fill:#FFD83D;stroke:#000000;stroke-width:2;stroke-linecap:round;stroke-linejoin:round;" cx="198.8" cy="83.6" rx="3.6" ry="4"/>
				
					<ellipse style="fill:#FFD83D;stroke:#000000;stroke-width:2;stroke-linecap:round;stroke-linejoin:round;" cx="206.8" cy="84.1" rx="3.6" ry="4"/>
				
					<ellipse style="fill:#FFD83D;stroke:#000000;stroke-width:2;stroke-linecap:round;stroke-linejoin:round;" cx="214.4" cy="87" rx="3.6" ry="4"/>
				
					<ellipse style="fill:#FFD83D;stroke:#000000;stroke-width:2;stroke-linecap:round;stroke-linejoin:round;" cx="220.8" cy="92.2" rx="3.6" ry="4"/>
				
					<ellipse style="fill:#FFD83D;stroke:#000000;stroke-width:2;stroke-linecap:round;stroke-linejoin:round;" cx="225.3" cy="99.5" rx="3.6" ry="4"/>
				
					<ellipse style="fill:#FFD83D;stroke:#000000;stroke-width:2;stroke-linecap:round;stroke-linejoin:round;" cx="227.5" cy="108.1" rx="3.6" ry="4"/>
				
					<ellipse style="fill:#FFD83D;stroke:#000000;stroke-width:2;stroke-linecap:round;stroke-linejoin:round;" cx="227.5" cy="117" rx="3.6" ry="4"/>
				
					<ellipse style="fill:#FFD83D;stroke:#000000;stroke-width:2;stroke-linecap:round;stroke-linejoin:round;" cx="225.9" cy="125.8" rx="3.6" ry="4"/>
				<path style="fill:#FFD83D;stroke:#000000;stroke-width:2;stroke-linecap:round;stroke-linejoin:round;" d="M164.8,95.6l0.3,5.1
					c8.8-1.5,21.4-7,33.1-7c10.8,0,19.2,4.8,19.2,16.9c0,11.9-4.5,22.8-10.6,33.8l6.3,3.3c5.6-12.1,10.3-22.4,10.3-36.4
					c0-11.7-8.3-23.2-22.5-23.2C188.3,88.3,175.4,93,164.8,95.6z"/>
			</g>
		</g>
		<path style="fill:#FFD83D;stroke:#000000;stroke-width:2;stroke-linecap:round;stroke-linejoin:round;" d="M159.8,42.5l-3.7,7.7
			l3.7,7.7l3.7-7.7L159.8,42.5z M159.8,62l-3.7,7.7l3.7,7.7l3.7-7.7L159.8,62z"/>
		<path style="fill:#FFD83D;stroke:#000000;stroke-width:2;stroke-linecap:round;stroke-linejoin:round;" d="M146.6,60l5.9,4.1
			l5.8-4.1l-5.8-4.1L146.6,60z M161.4,60l5.8,4.1l5.9-4.1l-5.9-4.1L161.4,60z"/>
		
			<ellipse style="fill:#FFD83D;stroke:#000000;stroke-width:2;stroke-linecap:round;stroke-linejoin:round;" cx="159.8" cy="60.1" rx="2.8" ry="3.1"/>
		
			<ellipse style="fill:#FFD83D;stroke:#000000;stroke-width:2;stroke-linecap:round;stroke-linejoin:round;" cx="159.8" cy="80" rx="7.5" ry="8.4"/>
		<path style="fill:none;stroke:#000000;stroke-width:1.5;stroke-linecap:round;stroke-linejoin:round;" d="M157.9,71.9
			c0,2.5,0,3.9,0,5.3c-1.8,0.1-3.6,0.3-5.4,0.6 M167.1,77.8c-1.8-0.3-3.5-0.5-5.4-0.6c0-1.4,0-2.8,0-5.3 M152.5,82.1
			c2.4-0.4,4.8-0.7,7.3-0.7c2.5,0,4.9,0.2,7.3,0.7"/>
		<path style="fill:#FFD83D;stroke:#000000;stroke-width:2;stroke-linecap:round;stroke-linejoin:round;" d="M152.5,94.2
			c-0.7,13.7-2.2,27.6-7,37.7l7.8-3.5c2.7-11.5,3.3-26.3,4.1-33.3L152.5,94.2z M167.2,94.2l-4.9,0.9c0.8,7,1.4,21.8,4.1,33.3
			l7.8,3.5C169.3,121.7,167.9,107.8,167.2,94.2z"/>
		<path style="fill:#FFD83D;stroke:#000000;stroke-width:2;stroke-linecap:round;stroke-linejoin:round;" d="M159.8,123.8
			c-9.3,0-16.1,4.9-16.5,17.3c-2.3-4.4-11.9-18.4-20.9-16.5c-5.3,1.1-10,9.3-9.2,18.8c-4.4-14.1-17.4-16.4-26.8-8.1
			c8.4,7.7,12.1,30.3,19.2,40.1h54.3h54.3c7.1-9.8,10.8-32.4,19.2-40.1c-9.4-8.3-22.4-6-26.8,8.1c0.8-9.4-3.9-17.6-9.3-18.8
			c-9-1.9-18.6,12.1-20.8,16.5C176,128.6,169.1,123.8,159.8,123.8z"/>
		<g>
			<path style="stroke:#000000;stroke-width:1.5;stroke-linecap:round;stroke-linejoin:round;" d="M213.9,175.2
				c0,4.5-24.2,9.4-54.1,9.4s-54.1-4.9-54.1-9.4c0-4.5,24.2-6.8,54.1-6.8S213.9,170.8,213.9,175.2z"/>
			
				<ellipse style="fill:#FFD83D;stroke:#000000;stroke-width:1.5;stroke-linecap:round;stroke-linejoin:round;" cx="159.8" cy="91.6" rx="2.5" ry="2.8"/>
			
				<ellipse style="fill:#FFD83D;stroke:#000000;stroke-width:1.5;stroke-linecap:round;stroke-linejoin:round;" cx="159.8" cy="97.6" rx="2.7" ry="3"/>
			
				<ellipse style="fill:#FFD83D;stroke:#000000;stroke-width:1.5;stroke-linecap:round;stroke-linejoin:round;" cx="159.8" cy="104.1" rx="2.9" ry="3.3"/>
			
				<ellipse style="fill:#FFD83D;stroke:#000000;stroke-width:1.5;stroke-linecap:round;stroke-linejoin:round;" cx="159.8" cy="111.4" rx="3.4" ry="3.7"/>
			
				<ellipse style="fill:#FFD83D;stroke:#000000;stroke-width:1.5;stroke-linecap:round;stroke-linejoin:round;" cx="159.8" cy="119.5" rx="3.7" ry="4.1"/>
			<path d="M158.4,127.4c-0.4,0-0.8,0.4-0.7,1.1c0.1,0.8,0.3,2.4,0.4,3.4c0.2,1.2,0.8,0.9,0.9,0c0.2-0.9,0.1-1.5,0.1-3.2
				C159.2,127.8,158.8,127.4,158.4,127.4z M161.3,127.4c-0.4,0-0.8,0.4-0.8,1.3c0,1.7,0,2.3,0.1,3.2c0.2,0.9,0.8,1.2,0.9,0
				c0.1-1.1,0.3-2.6,0.4-3.4C162.1,127.7,161.7,127.4,161.3,127.4z M155.7,127.8c-0.4,0.1-0.7,0.5-0.7,0.9c0,0.8,0.2,1.8,0.3,2.9
				c0.1,1.2,0.9,0.8,0.9,0.1c0.1-0.7,0.2-1.8,0.1-3.1c0-0.5-0.2-0.7-0.5-0.8C155.9,127.8,155.8,127.8,155.7,127.8z M163.7,127.8
				c-0.2,0-0.4,0.3-0.5,0.8c-0.1,1.4,0,2.4,0.1,3.1c0.1,0.7,0.9,1.2,0.9-0.1c0.1-1.2,0.3-2.2,0.3-2.9c0-0.4-0.4-0.8-0.7-0.9
				C163.8,127.8,163.8,127.8,163.7,127.8z M152.6,129.2c-0.3,0.1-0.6,0.5-0.5,1.1c0.2,1,0.4,2.1,0.4,3.2c0,0.9,0.7,0.6,0.7-0.1
				c0-0.6,0.1-1.9,0.1-3.1C153.3,129.4,153,129.1,152.6,129.2z M166.8,129.2c-0.2,0.1-0.4,0.4-0.4,1.1c0,1.2,0.1,2.5,0.1,3.1
				c0,0.6,0.7,0.9,0.7,0.1c0-1,0.2-2.2,0.4-3.2c0.1-0.5-0.2-1-0.5-1.1C166.9,129.2,166.9,129.2,166.8,129.2z M124.2,129.4
				c-0.4,0-0.7,0.6-0.4,1.2c0.4,1.1,0.9,1.7,1.3,2.9c0.4,1,1,0.4,0.8-0.3c-0.2-0.7-0.4-1.5-1-3C124.8,129.6,124.5,129.4,124.2,129.4
				z M195.4,129.4c-0.2,0-0.5,0.2-0.7,0.8c-0.6,1.5-0.8,2.3-1,3c-0.2,0.7,0.4,1.3,0.8,0.3c0.4-1.1,0.9-1.8,1.3-2.9
				C196.1,129.9,195.8,129.3,195.4,129.4z M127.1,129.4c-0.3,0.1-0.5,0.5-0.3,1c0.4,1,0.9,2,1.2,3c0.3,0.9,1,0.7,0.8-0.2
				c-0.2-0.8-0.3-1.3-0.8-2.9C127.8,129.5,127.4,129.3,127.1,129.4z M192.3,129.4c-0.3,0.1-0.5,0.3-0.7,0.9
				c-0.5,1.6-0.5,2.1-0.8,2.9c-0.2,0.8,0.5,1.1,0.8,0.2c0.4-1.1,0.9-2.1,1.2-3c0.2-0.5,0-0.9-0.3-1
				C192.4,129.4,192.4,129.4,192.3,129.4z M130.7,130.2c-0.4,0.1-0.7,0.7-0.4,1.5c0.3,1,0.8,1.9,1.2,3c0.4,1.1,1.1,0.9,0.9,0.2
				c-0.2-0.7-0.4-1.9-0.8-3.6C131.3,130.4,131,130.1,130.7,130.2z M188.9,130.2c-0.3-0.1-0.6,0.2-0.8,1c-0.5,1.8-0.7,2.9-0.8,3.6
				c-0.2,0.7,0.5,0.9,0.9-0.2c0.4-1.1,0.9-2,1.2-3C189.6,130.9,189.3,130.3,188.9,130.2z M121.8,130.7c-0.4,0-0.8,0.8-0.5,1.3
				c0.4,0.9,0.7,1.2,1,2.1c0.4,1,0.8,0.2,0.7-0.4s-0.4-1.3-0.6-2.2C122.3,130.9,122.1,130.7,121.8,130.7z M197.8,130.7
				c-0.2,0-0.5,0.2-0.6,0.8c-0.2,0.9-0.4,1.6-0.6,2.2c-0.2,0.6,0.3,1.4,0.7,0.4c0.4-0.9,0.6-1.2,1-2.1
				C198.6,131.5,198.2,130.8,197.8,130.7z M149.6,133c-0.4,0-0.9,0.6-0.7,1.2c0.2,0.9,0.6,1.8,0.9,3c0.2,1.1,0.9,0.5,0.9-0.2
				s-0.1-1.7-0.4-3.2C150.1,133.2,149.8,133,149.6,133z M170.1,133c-0.3,0-0.5,0.2-0.6,0.8c-0.3,1.5-0.4,2.5-0.4,3.2
				s0.6,1.2,0.9,0.2c0.3-1.2,0.6-2,0.9-3C170.9,133.6,170.5,133,170.1,133z M159.8,133.9c-0.5,0-0.6,0.8-0.6,1.4
				c-0.1,2.1-0.8,4.1-1.5,5.1c-0.7,1-1.6,0.7-2.5,0.2c-0.9-0.5-1.4-0.9-2.4-1.7c-1-0.8-1.7-0.3-0.5,1.5c3.3,5.3,6.9,9.8,6.9,18.3
				c0,1.1,0.2,1.5,0.6,1.5c0.4,0,0.6-0.3,0.6-1.5c0-8.6,3.6-13.1,6.9-18.3c1.1-1.8,0.4-2.3-0.5-1.5c-1,0.8-1.5,1.2-2.4,1.7
				s-1.9,0.8-2.5-0.2c-0.7-1-1.4-3-1.5-5.1C160.4,134.7,160.3,133.9,159.8,133.9z M134.4,132.6c0,0-0.1,0-0.1,0
				c-0.2,0.1-0.3,0.3-0.2,0.8c0.1,0.8,0.6,2.4,0.8,3.1c0.2,0.8,1,0.6,0.8-0.4c-0.2-1-0.2-1.3-0.4-2.5
				C135.1,133,134.7,132.6,134.4,132.6z M185.2,132.6c-0.3,0-0.7,0.4-0.9,1c-0.2,1.2-0.2,1.5-0.4,2.5c-0.2,1,0.6,1.2,0.8,0.4
				c0.2-0.8,0.7-2.3,0.8-3.1c0.1-0.4-0.1-0.7-0.2-0.8C185.3,132.6,185.3,132.6,185.2,132.6z M119.3,133c-0.4,0-0.7,0.6-0.3,1.5
				c0.5,0.9,1.2,2.1,1.6,2.8c0.4,0.7,1,0.2,0.5-0.6c-0.4-0.8-0.6-1.8-1.1-3C119.9,133.1,119.6,132.9,119.3,133z M200.3,133
				c-0.3,0-0.5,0.2-0.7,0.6c-0.5,1.2-0.7,2.2-1.1,3c-0.4,0.8,0.2,1.3,0.5,0.6s1.1-1.8,1.6-2.8C201,133.6,200.7,133,200.3,133z
				 M96.5,135.6c-0.5,0-0.6,0.9-0.2,1.6c0.7,0.9,1.1,1.4,1.9,2.2c0.6,0.6,0.8-0.2,0.5-0.8c-0.3-0.6-0.7-1.2-1.3-2.2
				C97,135.8,96.7,135.6,96.5,135.6z M223.1,135.6c-0.2,0-0.5,0.2-0.8,0.8c-0.6,1-1,1.6-1.3,2.2c-0.3,0.6-0.1,1.4,0.5,0.8
				c0.8-0.8,1.2-1.2,1.9-2.2C223.8,136.6,223.6,135.6,223.1,135.6z M100.1,136.4c-0.4,0-0.6,0.3-0.3,1.1c0.4,1,1,2.2,1.3,3
				c0.4,0.8,1.5,1.1,1-0.2c-0.4-1.2-0.5-1.9-0.9-3C101,136.7,100.5,136.4,100.1,136.4z M219.5,136.4c-0.4,0-0.9,0.3-1.1,0.9
				c-0.4,1.2-0.5,1.8-0.9,3c-0.4,1.2,0.7,1,1,0.2c0.4-0.8,0.9-2,1.4-3C220.1,136.7,219.9,136.4,219.5,136.4z M93.1,136.7
				c-0.6,0-0.6,0.6-0.1,1c0.7,0.5,1.4,1.1,2.2,1.8c0.9,0.8,1.2,0.1,0.8-0.6c-0.5-0.7-0.9-1.3-2.1-2
				C93.5,136.7,93.3,136.7,93.1,136.7z M226.5,136.7c-0.2,0-0.4,0.1-0.7,0.2c-1.2,0.7-1.7,1.3-2.1,2c-0.5,0.7-0.1,1.4,0.8,0.6
				c0.8-0.7,1.5-1.3,2.2-1.8C227.1,137.3,227.1,136.7,226.5,136.7z M147.6,137.3c-0.3,0-0.6,0.4-0.4,0.9c0.2,0.9,0.5,1.9,0.7,2.9
				c0.2,0.9,1.1,0.9,1,0.1c-0.2-0.8-0.2-1.9-0.5-3.2c-0.1-0.5-0.3-0.7-0.5-0.8C147.7,137.3,147.6,137.3,147.6,137.3z M171.9,137.3
				c-0.2,0-0.4,0.3-0.5,0.8c-0.3,1.3-0.4,2.3-0.5,3.2c-0.2,0.8,0.8,0.8,1-0.1c0.2-1,0.4-1.9,0.7-2.9c0.1-0.5-0.1-0.9-0.4-0.9
				C172,137.3,172,137.3,171.9,137.3z M125.9,135.7c-0.2,0.1-0.4,0.6-0.2,1.3c1,4,1.3,6.2,1.1,7.2c-0.2,1-0.7,1.1-1.3,0.8
				s-1.4-0.8-2-1.3c-0.6-0.5-1.2,0.1-0.4,0.9c4.4,4,7.4,8.5,8.5,14.1c0.2,1.1,0.9,1.3,0.7,0c-1-7-1.2-12.7,0.3-16.2
				c0.6-1.3,0-2.6-0.9-0.4c-0.6,1.5-1.6,2-2.3,0.8c-0.8-1.3-2.4-4.6-2.9-6.1c-0.2-0.6-0.4-0.8-0.6-0.9
				C126,135.7,125.9,135.7,125.9,135.7z M193.6,135.7c-0.2,0-0.4,0.3-0.6,0.9c-0.5,1.5-2.1,4.9-2.9,6.1c-0.8,1.3-1.7,0.7-2.3-0.8
				c-0.9-2.2-1.5-0.9-0.9,0.4c1.5,3.6,1.3,9.3,0.3,16.2c-0.2,1.3,0.5,1.1,0.7,0c1.2-5.5,4.2-10.1,8.5-14.1c0.9-0.8,0.2-1.3-0.4-0.9
				c-0.6,0.5-1.4,0.9-2,1.3c-0.7,0.3-1.1,0.2-1.3-0.8c-0.2-1,0.1-3.1,1.1-7.2c0.2-0.7,0-1.2-0.2-1.3
				C193.7,135.7,193.7,135.7,193.6,135.7z M104,137.6c-0.4,0-0.7,0.3-0.5,1c0.3,1.1,0.9,2.2,1.1,2.9c0.2,0.7,0.8,0.4,0.7-0.6
				c-0.1-0.9-0.2-1.5-0.3-2.5C104.8,137.9,104.4,137.6,104,137.6z M215.6,137.6c-0.4,0-0.8,0.3-0.9,0.8c-0.2,1-0.2,1.6-0.3,2.5
				c-0.1,0.9,0.5,1.2,0.7,0.6c0.2-0.7,0.8-1.8,1.1-2.9C216.4,137.9,216,137.6,215.6,137.6z M117.5,136.2c-0.5-0.1-0.5,1.2-0.1,1.8
				c0.5,0.7,1.2,1.6,2,2.5c0.6,0.8,1,0.1,0.6-0.6c-0.4-0.7-0.9-1.4-1.8-3.1C117.9,136.5,117.7,136.3,117.5,136.2z M202.1,136.2
				c-0.2,0-0.3,0.2-0.6,0.7c-1,1.7-1.5,2.4-1.8,3.1c-0.4,0.7,0,1.4,0.6,0.6c0.7-1,1.4-1.8,2-2.5
				C202.6,137.4,202.6,136.1,202.1,136.2z M107.1,139.4c-0.3,0-0.5,0.2-0.4,0.9c0.2,0.9,0.4,1.6,0.6,2.5c0.2,0.8,0.7,0.7,0.7-0.1
				c0-0.8-0.1-1.7-0.2-2.5C107.7,139.7,107.4,139.4,107.1,139.4z M212.6,139.4c-0.3,0-0.6,0.3-0.7,0.7c-0.1,0.8-0.2,1.7-0.2,2.5
				c0,0.8,0.5,0.9,0.7,0.1c0.2-0.8,0.4-1.6,0.6-2.5C213.1,139.6,212.8,139.4,212.6,139.4z M116.5,140.5c-0.4,0.1-0.8,0.6-0.3,1.3
				c0.8,1.2,1.8,2,2.1,2.5c0.3,0.4,1.1,0.3,0.6-0.7c-0.5-0.9-1.3-2.1-1.7-2.8C117,140.6,116.8,140.5,116.5,140.5z M202.9,140.5
				c-0.2,0-0.4,0.1-0.5,0.3c-0.4,0.7-1.2,1.9-1.7,2.8c-0.5,0.9,0.3,1.1,0.6,0.7c0.3-0.4,1.2-1.3,2.1-2.5c0.5-0.7,0.1-1.2-0.3-1.3
				C203.1,140.5,203,140.5,202.9,140.5z M101.6,143.9c-0.4,0-0.5,0.3,0,1c1.1,1.6,2.3,4.1,2.3,5.2c0.1,1.1-0.4,1.1-0.8,1.1
				c-1.3,0-2-1.1-3.2-1.4c-1.2-0.3-1.4,0.4-0.5,1.1c4.4,3.5,8.8,7.5,10.5,11.1c0.7,1.5,1.7,2,1.1,0.6c-1.6-4.3-2-7.9-1.7-10.1
				c0.4-2.2,0.8-3.7,0.8-4.9c-0.1-1.3-0.7-1.2-1,0c-0.2,0.8-0.5,1.9-0.8,2.2c-0.2,0.4-1.2,0.6-2.1-0.8c-0.9-1.4-3.2-4-4-4.7
				C102.1,144,101.8,143.9,101.6,143.9z M218,143.9c-0.2,0-0.5,0.2-0.8,0.4c-0.8,0.7-3.1,3.3-4,4.7c-0.9,1.4-1.9,1.1-2.1,0.8
				c-0.2-0.4-0.6-1.5-0.8-2.2c-0.3-1.2-0.9-1.3-1,0c-0.1,1.3,0.4,2.7,0.8,4.9c0.4,2.2,0,5.8-1.7,10.1c-0.5,1.4,0.4,0.9,1.1-0.6
				c1.8-3.6,6.2-7.5,10.5-11.1c0.9-0.7,0.7-1.4-0.5-1.1c-1.2,0.3-1.8,1.4-3.2,1.4c-0.4,0-0.9,0-0.8-1.1c0.1-1.1,1.3-3.5,2.3-5.2
				C218.5,144.1,218.4,143.8,218,143.9z"/>
			<path style="fill:#FFD83D;stroke:#000000;stroke-width:1.5;stroke-linecap:round;stroke-linejoin:round;" d="M108.1,170.1
				l1.4,4.9 M111,169.2l1.2,5 M114.1,168.6l0.9,5.1 M117,168l0.9,5.1 M120.7,167.6l0.7,5.1 M124.7,167.6l0.8,5.1 M128.5,166.1
				l0.6,5.1 M132.1,166.4l0.6,5.1 M135.6,165.9l0.6,5.1 M139.2,165.5l0.3,5.2 M142.9,165.5l0.3,5.2 M146.3,165.2l0.2,5.2
				 M150.1,164.9l0.2,5.2 M154.4,164.8l0.2,5.2 M211.5,170.1l-1.4,4.9 M208.7,169.2l-1.2,5 M205.5,168.6l-0.9,5.1 M202.6,168
				l-0.9,5.1 M198.9,167.6l-0.7,5.1 M195,167.6l-0.8,5.1 M191.1,166.1l-0.6,5.1 M187.5,166.4l-0.6,5.1 M184,165.9l-0.6,5.1
				 M180.5,165.5l-0.3,5.2 M176.7,165.5l-0.3,5.2 M173.3,165.2l-0.2,5.2 M169.5,164.9l-0.2,5.2 M165.2,164.8L165,170 M159.8,164.5
				v5.7"/>
		</g>
	</g>
</g>
</svg>
