<?xml version="1.0" encoding="utf-8"?>
<!-- Generator: Adobe Illustrator 25.2.1, SVG Export Plug-In . SVG Version: 6.00 Build 0)  -->
<svg version="1.1" id="Layer_1" xmlns="http://www.w3.org/2000/svg" xmlns:xlink="http://www.w3.org/1999/xlink" x="0px" y="0px"
	 viewBox="0 0 720 480" style="enable-background:new 0 0 720 480;" xml:space="preserve">
<path style="fill:#003DA5;" d="M-540-210"/>
<path style="fill:#003DA5;" d="M-540-210"/>
<path style="fill:#C8102E;" d="M-540-210"/>
<path d="M-540-210"/>
<g>
	<path style="fill:#C8102E;" d="M0,0h718.6v480H0V0z"/>
	<path style="fill:#FFD100;" d="M0,0h479.1v480H0V0z"/>
	<path style="fill:#003DA5;" d="M0,0h239.5v480H0V0z"/>
	<path d="M375.5,167.5c-1.8-1.7-3.3-3.7-4.4-5.9c-2.5-5.5-3.6-12.1-3.6-18.9c0-2.9,2.4-6.1,2.4-8.4c0-3.5-0.2-5.6-0.2-5.6
		c0.9,0.2,2.4,2.2,2.4,2.2s-0.1-5.8-1.4-6.9c0,0,0.6-0.8,2.6-0.8c-0.6-1.9-3.4-4.3-3.4-4.3c0.1-0.3,0.4-0.6,0.7-0.9
		c0.7-0.5,1.7-0.9,2.5-1.1c-0.8-0.2-1.7-0.6-2.8-1c-2.3-1-5.1-2.5-7.6-4.1c-4.7-3-8.3-3.2-10.2-3.2c-1.4,0-3.5,0.1-4.8,1.1
		c-1.1,1-1,2.3-1.4,2.8c-0.9,1.1-2.5,1-3.3,1c-5,0-5.2,7.1-5.2,7.1s1.3-2.6,3.5-2.6c3.7,0,6.6,2.7,6.6,3.7c0,0.4-0.4,0.5-0.4,0.5
		c-2.4,0-6.1-1.9-8.1-2v1.3c4.4,2,8.8,4.9,8.8,17.6c0,8-0.7,16.1-3.7,22.5c-1.1,2.3-2.6,4.2-4.4,5.9l17.7,4.3L375.5,167.5z"/>
	<g id="a">
		<path d="M0,0"/>
		<g>
			<path d="M0,0"/>
			<path style="fill:#AD7C59;" d="M305.2,155.4v5.1l-3.3,4.1v-15.9L305.2,155.4z M300.7,164.6l-3.3-4.1v-6l3.3-4.6V164.6z
				 M315.8,158.4c-0.8,1.4-2.8,5-4.9,6.5v-14C311.3,152.1,313.6,157,315.8,158.4z M309.7,151.7v12.9l-3.3-4.1v-4.6L309.7,151.7z
				 M296.3,165.4v12.9l-2.9-3.6V169L296.3,165.4z M300.7,169.5v4.6l-3.3,4.1v-12.8L300.7,169.5z M305.2,165.4v12.8l-3.3-4.1v-4.6
				L305.2,165.4z M309.7,169.6v4.6l-3.3,4.1v-12.8L309.7,169.6z M314.1,178.3l-3.3-4.1v-4.3c1.1-0.9,2.3-2.6,3.3-4.4L314.1,178.3z
				 M305.8,184l3.5-4.3v105.9c0,0,0.2,5.3,0.4,8.7l-7.4,9.9V179.6L305.8,184z M300.3,300.2c0,3.4-4.7,11.3-6.9,13.2V179.7l3.4,4.3
				l3.5-4.3V300.2z"/>
		</g>
		<g>
			<path style="fill:#C8102E;" d="M329.2,288.7l2.5-2.3c0,0,0.2,1.1,0.4,2.6c-1.1,2-7.3,13.3-10.4,18.9c-0.8,1.4-1.4,4.9-1.4,4.9
				s-1.1-0.7-1.1-2c0-1.3,0.1-2.8,0.1-2.8s-0.8,1.3-2.3,1.3c0-1.5,2.2-3.2,2.3-5.4c-1.7,1.7-3.2,0.8-5.2,1.6c-2.2,0.9-2.8,2.1-3.4,2
				c-0.4,0-0.7-0.9-0.6-1.5c0.3-1,2.9-3.6,4.8-4.1c0.4-0.1,4,1,4.7-0.4c2.9-6,7.6-15.7,8.1-16.7c0.3-0.1,0.6-0.2,0.8-0.4
				C328.5,284.6,328.5,287.7,329.2,288.7L329.2,288.7z"/>
			<path style="fill:#C8102E;" d="M0,0"/>
		</g>
	</g>
	<g transform="matrix(-1 0 0 1 1792.4 0)">
		<g id="a_1_">
			<path style="fill:#C8102E;" d="M715.6,0"/>
			<g>
				<path style="fill:#C8102E;" d="M715.6,0"/>
				<path style="fill:#AD7C59;" d="M410.4,155.4v5.1l3.3,4.1v-15.9L410.4,155.4z M414.8,164.6l3.3-4.1v-6l-3.3-4.6V164.6z
					 M399.8,158.4c0.8,1.4,2.8,5,4.9,6.5v-14C404.2,152.1,402,157,399.8,158.4z M405.9,151.7v12.9l3.3-4.1v-4.6L405.9,151.7z
					 M419.3,165.4v12.9l2.9-3.6V169L419.3,165.4z M414.8,169.5v4.6l3.3,4.1v-12.8L414.8,169.5z M410.4,165.4v12.8l3.3-4.1v-4.6
					L410.4,165.4z M405.9,169.6v4.6l3.3,4.1v-12.8L405.9,169.6z M401.5,178.3l3.3-4.1v-4.3c-1.1-0.9-2.3-2.6-3.3-4.4L401.5,178.3z
					 M409.8,184l-3.5-4.3v105.9c0,0-0.2,5.3-0.4,8.7l7.4,9.9V179.6L409.8,184z M415.3,300.2c0,3.4,4.7,11.3,6.9,13.2V179.7l-3.4,4.3
					l-3.5-4.3V300.2z"/>
			</g>
			<g>
				<path style="fill:#C8102E;" d="M386.4,288.7l-2.5-2.3c0,0-0.2,1.1-0.4,2.6c1.1,2,7.3,13.3,10.4,18.9c0.8,1.4,1.4,4.9,1.4,4.9
					s1.1-0.7,1.1-2c0-1.3-0.1-2.8-0.1-2.8s0.8,1.3,2.3,1.3c0-1.5-2.2-3.2-2.3-5.4c1.7,1.7,3.2,0.8,5.2,1.6c2.2,0.9,2.8,2.1,3.4,2
					c0.4,0,0.7-0.9,0.6-1.5c-0.3-1-2.9-3.6-4.8-4.1c-0.4-0.1-4,1-4.7-0.4c-2.9-6-7.6-15.7-8.1-16.7c-0.3-0.1-0.6-0.2-0.8-0.4
					C387.1,284.6,387.1,287.7,386.4,288.7L386.4,288.7z"/>
				<path style="fill:#C8102E;" d="M715.6,0"/>
			</g>
		</g>
	</g>
	<path style="fill:#C8102E;" d="M338.8,117.7c0,0,1-2.4,3.4-2.4c1,0,4.4-0.1,4.4-0.1c0.4,1.6,2.5,4.2,2.5,6.9c0,0-2.1-5-7.9-5
		C339.8,117,338.8,117.7,338.8,117.7L338.8,117.7z M348.3,123c0,0-1.2,1.7-1.5,2.7c-1.2-0.6-3.4-3.6-3.4-3.6S345.2,123.5,348.3,123
		L348.3,123z"/>
	<path d="M346.3,118.4c0,0-1.4-0.6-1.4-1.2c0-0.8,0.7-0.8,1.1-0.2C346.3,117.4,346.3,118.4,346.3,118.4L346.3,118.4z"/>
	<ellipse cx="352.9" cy="119.4" rx="2.9" ry="3"/>
	<ellipse style="fill:#FFD100;" cx="352.9" cy="119.4" rx="2" ry="2.7"/>
	<ellipse cx="352.9" cy="119.4" rx="0.9" ry="1.3"/>
	<path d="M319.9,315.7l6.5,4.7l-1.6,9.6l-6.5-4.7L319.9,315.7z"/>
	<path d="M289.8,223.3l-2.3,1.4l26.3,77h2.8L289.8,223.3z M320.8,314.2l-1.9,2.6l1.2,3.5l2.3-1.4L320.8,314.2z"/>
	<path d="M298,284.1c0,0,2.2,6.1,3.9,7c-0.9-0.3-3.7,1.1-3.7,1.1s5,6,9.2,6.3c3.6,0.3,5.3-2.1,5.3-2.1l-0.7-5.1c0,0-2.2-3.5-5.7-5.2
		C302.8,284.5,298,284.1,298,284.1L298,284.1z M314.7,273.1c0,0-3.1,3.5-3.9,7.6c-0.8,4.1,0.5,8.7,0.5,8.7l2.6,6.4
		c0,0,3.6-2.5,5.1-6.3c1.5-3.8,1-8.9,1-8.9s-2.8,1.4-3.2,2C317.4,278.3,314.7,273.1,314.7,273.1L314.7,273.1z M304.9,271.5
		c0,0-3.5,1.6-6.9,1.3c-3.2-0.3-5.9-3.9-5.9-3.9s2.7-2.4,4-2.1c-1.4-0.7-3.6-5.6-3.6-5.6s3-1.2,5.6,0.1c2.6,1.3,5,5.2,5,5.2
		L304.9,271.5L304.9,271.5z M306,248.7c0,0,1.7,4.8,1.3,6.5c0.5-1.1,2.6-2.9,2.6-2.9s1.2,7.8,0.1,12.6c-1.2,4.8-4.8,6.7-4.8,6.7
		l-4-10.3c0,0-0.6-3.8,0.6-6.8C303.2,251.5,306,248.7,306,248.7L306,248.7z M283.4,236c0,0,3.8-0.5,7.2,1.4c2.9,1.6,3.8,4.5,3.8,4.5
		l1.4,5.1c0,0-4.1,2.1-7.3,0.5c-3.2-1.6-5.6-6.8-5.6-6.8s2.3-1.1,3.1-0.7C284.7,239.2,283.4,236,283.4,236L283.4,236L283.4,236z
		 M295.2,226.6c0,0,1.7,2.8,1.7,6.1c0.4-1.7,2.5-3.6,2.5-3.6s2.1,6.9,1.7,11.7c-0.5,4.9-3.5,7.7-3.5,7.7l-3.8-9.6c0,0-1.2-4-0.9-7
		C293.3,228.7,295.2,226.6,295.2,226.6L295.2,226.6z M282.2,208.1c0,0-0.7,5.3,0.5,8.3c1,2.7,1.7,3.3,1.7,3.3c-2-1.7-5-1.9-5-1.9
		s1.1,5.7,3.6,8.3c2.5,2.6,6.5,2,6.5,2s2.6-4.6,2.4-9.5c-0.2-4.9-3.1-10.2-3.1-10.2s-1.2,3.2-1.3,5.6
		C286.7,211.5,282.2,208.1,282.2,208.1L282.2,208.1z M312.9,296.1l0.1,1.9c2.3,0,2.7-0.3,3.3,0.7c0.4,0.7,1.4,1.2,2.3,0.6
		c1-0.6,1.4-2.1,1-3.4c-0.4-1.3-1.3-1.6-2.2-1.3c-0.5,0.1-0.9,0.7-1.3,1C315.2,296.2,312.9,296.1,312.9,296.1L312.9,296.1z"/>
	<path d="M312.7,294.7l1.1,1.1c-1.2,2.7-1.6,2.9-1.3,4.1c0.2,0.8,0.1,2.2-0.8,3c-0.9,0.8-2.1,0.4-2.7-0.7c-0.6-1.2-0.3-2.3,0.3-3.2
		c0.4-0.5,0.9-0.6,1.3-1C311.6,297.4,312.7,294.7,312.7,294.7L312.7,294.7z M304.8,272.3l0.1,1.9c2.3,0,2.7-0.3,3.3,0.7
		c0.4,0.7,1.4,1.2,2.3,0.6c1-0.6,1.4-2.1,0.9-3.4c-0.4-1.3-1.3-1.6-2.2-1.3c-0.5,0.1-0.9,0.7-1.3,1
		C307.1,272.4,304.8,272.3,304.8,272.3L304.8,272.3z"/>
	<path d="M305.3,273l1,1.3c-1.5,2.4-1.9,2.5-1.8,3.8c0.1,0.8-0.2,2.2-1.1,2.8c-1,0.6-2.1,0-2.5-1.3c-0.4-1.3,0-2.4,0.7-3.1
		c0.4-0.4,1-0.4,1.4-0.7C303.8,275.4,305.3,273,305.3,273L305.3,273z M296.9,250l0.1,1.9c2.3,0,2.7-0.3,3.3,0.7
		c0.4,0.7,1.4,1.2,2.3,0.6c1-0.6,1.4-2.1,0.9-3.4c-0.4-1.3-1.3-1.6-2.2-1.3c-0.5,0.1-0.9,0.7-1.3,1C299.2,250.1,296.9,250,296.9,250
		L296.9,250z"/>
	<path d="M297.5,249.6l1,1.3c-1.5,2.4-1.9,2.5-1.8,3.8c0.1,0.8-0.2,2.2-1.1,2.8c-1,0.6-2.1,0-2.5-1.3c-0.4-1.3,0-2.4,0.7-3.1
		c0.4-0.4,1-0.4,1.4-0.7C296.1,252,297.5,249.6,297.5,249.6L297.5,249.6z M288.5,226.4l0.1,1.9c2.3,0,2.7-0.3,3.3,0.7
		c0.4,0.7,1.4,1.2,2.3,0.6c1-0.6,1.4-2.1,1-3.4s-1.3-1.6-2.2-1.3c-0.5,0.1-0.9,0.7-1.3,1C290.8,226.5,288.5,226.4,288.5,226.4
		L288.5,226.4z"/>
	<path d="M289.1,226l1,1.3c-1.5,2.4-1.9,2.5-1.8,3.8c0.1,0.8-0.2,2.2-1.1,2.8c-1,0.6-2.1,0-2.5-1.3c-0.4-1.3,0-2.4,0.7-3.1
		c0.4-0.4,1-0.4,1.4-0.7C287.7,228.4,289.1,226,289.1,226L289.1,226z"/>
	<g>
		<path style="fill:#FFD100;" d="M320.9,318.4l4,2.9l-1,6l-4-2.9L320.9,318.4z M303.3,266.7c-0.8,0.5-2.1-4.4-3-7.1
			c-0.9-2.7-2.8-7-2.3-7.3c0.6-0.4,1.4,1.9,2.3,4.7C301.3,259.8,304.1,266.3,303.3,266.7L303.3,266.7z M294.7,241
			c-0.8,0.5-1.8-2.7-2.7-5.4c-0.9-2.7-1.9-4.7-1.3-5c0.6-0.4,1.5,2,2.2,4.3C293.7,237,295.4,240.5,294.7,241L294.7,241z
			 M314.6,299.4c-0.7,0.2-3.5-7.8-5.9-14.6c-2.3-6.8-4.1-12.3-3.5-12.7c0.6-0.4,2.5,6.1,4.8,12.9
			C312.4,291.8,315.1,299.2,314.6,299.4L314.6,299.4z"/>
		<ellipse style="fill:#FFD100;" cx="317.9" cy="297.1" rx="1" ry="1.4"/>
		<ellipse style="fill:#FFD100;" cx="310.7" cy="300.8" rx="1" ry="1.4"/>
		<ellipse style="fill:#FFD100;" cx="309.7" cy="273.2" rx="1" ry="1.4"/>
		<ellipse style="fill:#FFD100;" cx="302.5" cy="278.5" rx="1" ry="1.4"/>
		<ellipse style="fill:#FFD100;" cx="301.8" cy="250.9" rx="1" ry="1.4"/>
		<ellipse style="fill:#FFD100;" cx="294.8" cy="255.1" rx="1" ry="1.4"/>
		<ellipse style="fill:#FFD100;" cx="293.4" cy="227.3" rx="1" ry="1.4"/>
		<ellipse style="fill:#FFD100;" cx="286.4" cy="231.6" rx="1" ry="1.4"/>
	</g>
	<path style="fill:#007749;" d="M283.4,211.3c0,0-0.1,3.8,0.8,6c1,2.2,3.1,3,3.1,3s0.1-3.8-0.8-6
		C285.5,212.2,283.4,211.3,283.4,211.3z M281.4,220c0,0,2.5,0.2,3.9,1.7c1.4,1.5,2,4.6,2,4.6s-1.7,0.2-3.1-1.3
		C282.8,223.5,281.4,220,281.4,220z M289.2,212.2c0,0-0.8,2.5-0.7,5.3c0.1,2.7,1.3,5.8,1.3,5.8s1.1-3.3,1-6
		C290.7,214.6,289.5,213,289.2,212.2L289.2,212.2z M285,237c0,0,1.2,2.3,3.1,3.5c1.9,1.2,4.7,1.3,4.7,1.3s-1.4-2.4-3.3-3.7
		C287.6,236.9,285,237,285,237L285,237z M285.6,242.3c0,0,0.9,2.4,2.5,3.4c1.6,1,5,0.9,5,0.9s-1.3-2.2-2.9-3.2
		C288.6,242.3,285.6,242.3,285.6,242.3L285.6,242.3z M295.1,229.7c0,0-1,2.2-0.9,4.6c0.1,2.4,1.3,5.1,1.3,5.1s0.8-3,0.7-5.5
		C296.1,231.5,295.1,229.7,295.1,229.7L295.1,229.7z M298.8,232.8c0,0-1.7,3.1-1.9,6.2c-0.2,3.1,1,6.4,1,6.4s2.1-2.8,2.3-5.9
		C300.3,236.3,298.8,232.8,298.8,232.8L298.8,232.8z M294.1,261.8c0,0,0.2,1.1,0.9,2.3c0.7,1.2,1.9,2.5,1.9,2.5s1.2-0.5,2.6-0.1
		c1.5,0.4,3.4,2.2,3.4,2.2s-2.1-4.2-4.3-5.8C296.5,261.3,294.1,261.8,294.1,261.8L294.1,261.8z M293.8,269c0,0,2.7-1.5,4.9-1.1
		c2.2,0.4,4.2,2.8,4.2,2.8s-3,1.4-5.3,1C295.6,271.2,293.8,269,293.8,269L293.8,269z M305.3,252.2c0,0-2.4,3.4-2.6,6.3
		c-0.2,2.9,1.9,5.7,1.9,5.7s-0.1-1.9,0.3-3.1c0.4-1.2,1.2-2.6,1.2-2.6s0.3-1.5,0.2-2.7C306.1,254,305.3,252.2,305.3,252.2
		L305.3,252.2z M308.8,256.1c0,0-2.3,3.1-2.9,6.3c-0.6,3.3,0.5,6.8,0.5,6.8s2.1-2.2,2.7-5.4C309.6,260.5,308.8,256.1,308.8,256.1
		L308.8,256.1z M314.4,275.8c0,0,1,2.9,1.3,5.2c0.3,2.4,0,3.2,0,3.2s-1.1,1.4-1.5,2.2c-0.6,1.1-0.7,3-0.7,3s-2.1-4.2-1.8-7.3
		C312,279.1,314.4,275.8,314.4,275.8L314.4,275.8z M318.9,282.4c0,0-2.7,2.4-3.8,4.9c-1.1,2.5-0.5,5-0.5,5s1.9-0.2,3-2.7
		C318.7,287.1,318.9,282.4,318.9,282.4L318.9,282.4z M301,292.6c0,0,3.9-0.1,6.3,0.6c2.4,0.8,3.3,2.5,3.3,2.5s-2.7,1.7-5.1,0.9
		C303.1,295.8,301,292.6,301,292.6L301,292.6z M300.3,286.3c0,0,1.8,3.7,4.1,5c3.2,1.8,6.8,0.9,6.8,0.9s-2-3.2-4.7-4.7
		C303.8,286.2,300.3,286.3,300.3,286.3L300.3,286.3z M0,0 M0,0"/>
	<g>
		<path style="fill:#FFD100;" d="M430.3,235.6c0,0,0.3-1.2,1.4-4c1.3-3.5,4.1-6,4.2-6.6c0.1-0.6-1-3.7-1-3.7s-2.5,0.6-2.8,1.1
			c-0.3,0.4-0.2,4.9-1.5,8.4c-1.1,2.9-1.6,3.9-1.6,3.9L430.3,235.6z"/>
		<path style="fill:#FFD100;" d="M0,0"/>
	</g>
	<path style="fill:#FFD100;" d="M396.7,177.9c0-3.5,3.5-7,3.5-7h-84.7c0,0,3.5,3.5,3.5,7v84.3c0,2.2,0.5,3.7,1.3,5.1
		c0.8,1.5,2.6,3.6,4.4,5.2c5.6,4.8,14.9,9.9,21.9,14.2c5.9,3.6,8.3,5,11.3,10c3-5,5.5-6.5,11.3-10c7-4.3,16.3-9.4,21.9-14.2
		c1.8-1.6,3.5-3.7,4.4-5.2c0.8-1.4,1.3-2.9,1.3-5.1L396.7,177.9z"/>
	<path style="fill:#C8102E;" d="M320.9,225.6v-47.7c0-2.7-1-4.3-1-4.3h75.8c0,0-1,1.6-1,4.3l0,47.7l-36.9,14.9L320.9,225.6z"/>
	<path style="fill:#003DA5;" d="M394.7,225.6l-22.8-0.6h-28.1l-22.8,0.6v36.6c0,1.8,1.4,6.1,9.7,11.6c13.6,9.1,24.1,13.3,27.2,18.5
		c3.1-5.2,13.6-9.4,27.2-18.5c8.2-5.5,9.7-9.8,9.7-11.6L394.7,225.6z"/>
	<path d="M371.3,223.7c0,0,13.2-4.4,13.2-23.3c0-14.7-13.2-22-13.6-25.5c-1.3,6.1,4.4,14.5,4.4,24.4c0,12.8-7.1,13.5-7.1,13.5
		c-1.7,0-2.3,1.6-3,1.6c-1.4-0.2-2.1-2.6-3.4-2.6c-1.3,0-2.3,2.7-4,2.7c-1.7,0-2.7-2.7-4-2.7c-1.4,0-2,2.4-3.4,2.6
		c-0.7,0-1.3-1.6-3-1.6c0,0-7.1-0.6-7.1-13.5c0-9.9,5.7-18.3,4.4-24.4c-0.4,3.5-13.6,10.8-13.6,25.5c0,18.8,13.2,23.3,13.2,23.3
		l-3.8,9.1c0,0,5.4,0.4,8.3,3.7c3.5,4,3.1,12.4,3.1,18.5c0,4.8-0.5,9.9-2.3,12c-2.5,2.8-4.2,3-4.2,6.3c0,2.8,1.6,3.3,4.2,5.1
		c3.3,2.3,3.2,5.5,8.1,5.5c4.9,0,4.8-3.1,8.1-5.5c2.6-1.8,4.2-2.4,4.2-5.1c0-3.3-1.7-3.5-4.2-6.3c-1.9-2.1-2.3-7.2-2.3-12
		c0-6.1-0.3-14.5,3.1-18.5c2.9-3.3,8.3-3.7,8.3-3.7L371.3,223.7z"/>
	<g>
		<path style="fill:#FFD100;" d="M338.4,199.3c0,9.7,3.9,15.4,9,15.4c1,0,2.1,1.8,3,1.8c1.5,0,2.5-2.2,3.4-2.2c1.2,0,2,2.5,4,2.5
			c2,0,2.8-2.5,4-2.5c0.9,0,1.9,2.2,3.4,2.2c0.9,0,2-1.8,3-1.8c5.2,0,9-5.7,9-15.4c0-7.9-5-17.5-4.4-19.1c0,0,9.7,9.3,9.7,20.2
			c0,17.6-13.3,21.9-13.3,21.9l3,9c0,0-4.1,0.8-6.7,3.5c-3.4,3.6-3.4,13.4-3.4,20.1c0,7.8,0.2,11.1,2.3,13.2c2.2,2.2,3.9,2.7,3.9,5
			c0,2-1.7,2.8-4,4.1c-2.6,1.5-2.8,4.1-6.5,4.1c-3.7,0-3.9-2.6-6.5-4.1c-2.3-1.3-4-2.1-4-4.1c0-2.3,1.7-2.8,3.9-5
			c2.1-2.1,2.3-5.4,2.3-13.2c0-6.6,0-16.4-3.4-20.1c-2.5-2.7-6.7-3.5-6.7-3.5l3-9c0,0-13.3-4.3-13.3-21.9c0-10.9,9.7-20.2,9.7-20.2
			C343.3,181.8,338.4,191.4,338.4,199.3L338.4,199.3z M352.7,271.9c-2.6,0-4.3,0.7-4.3,1.8c0,1.1,1.7,1.8,4.3,1.8
			c0.7,0,1.5-0.5,1.5-1.8S353.4,271.9,352.7,271.9L352.7,271.9z M362.9,271.9c-0.7,0-1.5,0.6-1.5,1.8c0,1.2,0.8,1.8,1.5,1.8
			c2.6,0,4.3-0.7,4.3-1.8C367.2,272.6,365.5,271.9,362.9,271.9L362.9,271.9z"/>
		<path id="b" style="fill:#FFD100;" d="M357.8,182.1l1.5,5.5l4-2.5l-1.9,5.3l4.1,2l-4.1,2l1.9,5.3l-4-2.5l-1.5,5.5l-1.5-5.5l-4,2.5
			l1.9-5.3l-4.1-2l4.1-2l-1.9-5.3l4,2.5L357.8,182.1L357.8,182.1z M324.8,225.7c0,0,5,3.3,7.6,6.3l0.1,0.2l0.1-0.1
			c2.4-3.7,6.8-6.8,6.8-6.8s-4.3-1.6-6.9-5.7C329.6,223.5,324.8,225.7,324.8,225.7L324.8,225.7z M390.8,225.8c0,0-5,3.3-7.6,6.3
			l-0.1,0.2l-0.1-0.1c-2.4-3.7-6.8-6.8-6.8-6.8s4.3-1.6,6.9-5.7C386,223.5,390.8,225.8,390.8,225.8L390.8,225.8z M347.1,238.6
			l1.7,2.2l-1.7,2.2l-1.7-2.2L347.1,238.6z M368.5,238.6l1.7,2.2l-1.7,2.2l-1.7-2.2L368.5,238.6z M349.3,248.3c1.2,2.1,1,5.6,1,10.4
			c0,4.8-2.7,6.7-2.7,6.7c0-11.6-0.9-14.4-1.4-17.9L349.3,248.3z M369.4,247.4c-0.5,3.5-1.4,6.3-1.4,17.9c0,0-2.7-1.9-2.7-6.7
			c0-4.8-0.2-8.2,1-10.4L369.4,247.4L369.4,247.4z M0,0"/>
		<g transform="rotate(72 838.89 486.468)">
		</g>
		<g transform="rotate(144 838.89 486.468)">
			<path id="b_1_" style="fill:#FFD100;" d="M720,206.4"/>
		</g>
		<ellipse style="fill:#FFD100;" cx="334.9" cy="259.4" rx="2.8" ry="3.8"/>
		<path style="fill:#FFD100;" d="M384.4,254.4c-4.7,1.2-8.1,6.7-7.6,13.2c-1.5-1.7-2.6-3.9-2.8-6.3c-0.4-4.8,2.2-8.5,6.2-8.5
			C381.7,252.7,383.2,253.3,384.4,254.4L384.4,254.4z"/>
	</g>
</g>
</svg>
