<?xml version="1.0" encoding="utf-8"?>
<!-- Generator: Adobe Illustrator 25.2.1, SVG Export Plug-In . SVG Version: 6.00 Build 0)  -->
<svg version="1.1" id="Layer_1" xmlns="http://www.w3.org/2000/svg" xmlns:xlink="http://www.w3.org/1999/xlink" x="0px" y="0px"
	 viewBox="0 0 720 480" style="enable-background:new 0 0 720 480;" xml:space="preserve">
<g>
	<rect style="fill:#003893;" width="720" height="480"/>
	<path style="fill:#FFFFFF;" d="M0,472.3v-11.5L720,56v139.8L0,472.3z"/>
	<path style="fill:#DD7500;" d="M0,464.6V457L720,7.7v94.1L0,464.6z"/>
	<polygon style="fill:#FFFFFF;" points="175.2,181.4 255.8,175.3 175.2,169.1 219.6,147.7 172.7,157.3 211.2,122 167.8,146.6 
		197.8,99.9 161,137.9 180.4,83 152.6,131.8 160.1,72.3 143.2,128.6 138.4,26.5 133.5,128.6 116.6,72.3 124.2,131.8 96.3,83 
		115.8,137.9 78.9,99.9 108.9,146.6 65.5,122 104.1,157.3 57.1,147.7 101.5,169.1 20.9,175.3 101.5,181.4 57.1,202.8 104.1,193.3 
		65.5,228.5 108.9,203.9 78.9,250.6 115.8,212.6 96.3,267.5 124.2,218.7 116.6,278.2 133.5,221.9 138.4,324.1 143.2,221.9 
		160.1,278.2 152.6,218.7 180.4,267.5 161,212.6 197.8,250.6 167.8,203.9 211.2,228.5 172.7,193.3 219.6,202.8 	"/>
</g>
</svg>
