<?xml version="1.0" encoding="utf-8"?>
<!-- Generator: Adobe Illustrator 25.2.1, SVG Export Plug-In . SVG Version: 6.00 Build 0)  -->
<svg version="1.1" id="Layer_1" xmlns="http://www.w3.org/2000/svg" xmlns:xlink="http://www.w3.org/1999/xlink" x="0px" y="0px"
	 viewBox="0 0 720 480" style="enable-background:new 0 0 720 480;" xml:space="preserve">
<g>
	<path style="fill:#012169;" d="M3.3-0.1h713.4V480H3.3V-0.1z"/>
	<path style="fill:#012169;" d="M3.3,240H360v-240h356.7V480H3.3V240z"/>
	<path style="fill:#FFFFFF;" d="M460.7,117.9h152.7l-0.2,146.3c1.3,58.8-26,95.3-76.1,111.7c-35.6-11.9-76.6-36.5-76.7-110.1
		L460.7,117.9L460.7,117.9z"/>
	<path style="fill:#00A2BD;stroke:#000000;stroke-width:1.813;" d="M464.1,122.4h145.9l-0.2,140.2c1.2,56.3-24.8,91.3-72.7,107.1
		c-34-11.4-73.2-35-73.3-105.5L464.1,122.4L464.1,122.4z"/>
	<path style="fill:#A53D08;" d="M608.9,279.1c-5.3,53.8-36.1,77.3-71.7,89.7c-31.6-11.4-65.5-29.6-72.1-89.5L608.9,279.1
		L608.9,279.1z"/>
	<path d="M531.4,148.5l-0.2-17.7l10.4,0.1l0.1,17.5h28.4l0.1,13.7l-28.5,0.1l-0.2,161.5l-10.1,0.1l-0.1-161.7l-28.3,0.1l0-14
		L531.4,148.5z"/>
	<g>
		<path style="fill-rule:evenodd;clip-rule:evenodd;fill:#FF9A08;stroke:#000000;stroke-width:0.968;" d="M508.4,285.8l26,36.3
			c9-13.3,2.8-63-9.1-72.1c-1.4,5.9-3.8,12.9-6.4,15.2c-5.6,5.2-19.4,11.2-14.8,15.1c1.1-2,3.8-3.8,5.1,0.5c1.5,6.9-5.7,7.3-5.7,7.3
			s-4.6-0.8-5.4-7.1c-0.8-6.3,6.9-12.1,7.5-12.5c0.6-0.3,10.7-3.9,12.4-15.9c2.1-11.8,4.3-10,4.7-10.2c13.1,1.7,21.7,33.3,22.2,55.6
			c0.5,22.2-6.7,36.9-8,37.9c-1.3,1-31.2-47.8-31.2-47.8L508.4,285.8z"/>
		<path style="fill:#FF9A08;stroke:#000000;stroke-width:0.968;" d="M527.4,252l0.2,65.5 M524.5,253.2l0.2,59.5 M521.3,261.8
			l0.2,47.3 M518.7,265.2l0.2,39.1 M516,266.9v33 M513,269.5v26.1 M510.4,271.6v20"/>
		<g>
			<path style="fill:none;stroke:#FFDF00;stroke-width:0.968;stroke-linecap:round;" d="M508,289.9l26.8,41.3"/>
			<path style="fill:none;stroke:#FFDF00;stroke-width:1.813;stroke-linecap:round;" d="M536.1,263.9c0,0,12.1,35.7,0.9,65.1
				 M504.9,282.4c0,0,0.9-3.2,2-1.9 M502.8,273.2c0,0-4.9,5.8-2.2,9.5"/>
		</g>
	</g>
	<g>
		<path style="fill:#008021;stroke:#000000;stroke-width:0.399;" d="M541.8,182.4c1.8-2.1,2.7-3.3,3.8-3.1c1.1,0.2,2.6,0.1,3.7-0.3
			c1.1-0.5,6.6-1.4,8.9-0.3c0.8,0.1,1.8,0.7,3.4,2.5c1.6,1.8,3.9,4.9,3.1,13.6c-0.8,8.7-0.5,12.4-0.9,17.2c-0.6,8.5-2,15.6-4.5,15
			c3.4,8.1,3.8,15,6,20.5c2.2,5.5,3.6,16.8,2.7,29.1c-0.9,12.2-3.3,39.7,3.9,58.1c-1.2,1.2-4.1,0-6.7-3.7c-2.6-3.7-3.7-3.6-5.8-1.4
			c-6.5,6.7-12.6,14.8-21.6,6.7c-2.1-1.8-2.7-4.1-1.2-9.7c3.8-14.1,5.6-33.4,5-42.5V182.4L541.8,182.4z"/>
		<path style="fill:#008021;stroke:#000000;stroke-width:0.399;" d="M3.3-0.1"/>
		<path style="fill:#870F00;stroke:#000000;stroke-width:0.399;" d="M547.3,156c0.5-4.1,2.6-4,4-3.6c0.6,0.2,1.9,0.3,3.2-0.1
			c2.5-0.9,4.5,0.3,4.2,3.6c0.7,0.7,1.4,2.3,1.3,3.7c-0.1,1.4,0.1,2,1,2.1c0.9,0.2,3,1.7,1.6,3.9c1.3,1,2.3,3.7,1.6,5.5
			c-0.7,1.8-2.7,2.1-3.6,0.5c-0.9,0.6-2.5,0.7-3.4-0.6c-0.6,1-2.3,0.9-2.6,0c-0.3-0.9-0.8-1.4-1.4-1.7c-0.7-0.3-0.7-2.8,0.3-3.1
			c-0.1-0.7-0.1-1.6,0.2-2c0.3-0.4,0-1.2-0.6-1.8c-0.6-0.6-1.1-3.1-0.5-4.4c-1,0.5-3.3-0.9-3.8-1.8
			C548.4,155.2,547.7,155.1,547.3,156L547.3,156z"/>
		<g>
			<path style="fill:none;stroke:#000000;stroke-width:0.399;" d="M548,173.7c1.7-0.3,2.2-1.7,3.5-1.6 M544.4,167.5
				c0.1,0.1,0.2,0.2,0.4,0.4c0.3,0.2,0.7,0.3,1,0.3 M544.9,165.1c0.2,0.1,0.5,0.3,0.7,0.6 M548.8,156c-1-1.3,1.7-3.9,4.5-0.2
				c0.5,0.7,1.8,0.7,2.2,0.5 M552.6,157.9c1.3-0.4,3.2-0.4,3.8,1.6c0.6,2,1.7,0.7,2.6,3c0.9,2.3,2.3,4.9,3.7,3.1 M557.2,170.9
				c-0.4-0.7-0.6-2.2-0.3-3.2c-0.5-0.8-0.3-2.5,0-3.3 M553.5,166.1c0,0.7,0.7,2,1.8,2.2 M560.6,171.5c-0.6-1-0.5-2-0.4-3.2"/>
			<path style="fill:none;stroke:#000000;stroke-width:0.399;" d="M554.4,160c0,1,0.4,2.4,1.2,2.9c0.2,0.6,1,2.2,2.7,2 M558.7,155.8
				c-0.9-1-2.2-2.2-3.9-2.5 M548.3,188.9c-1.5,2.7-2.4,6.3-1.7,11.5c0.7,5.2,1.8,12.8-1,16.3 M559.4,226.8c-2-0.6-4.8-0.6-6.3,0.9
				c-1.5,1.5-4.1,1.6-5.8,0.5"/>
			<path style="fill:none;stroke:#000000;stroke-width:0.399;" d="M555.2,226.6c-1.7,0.4-2.5,2-2.5,6.3s-0.7,10.5-0.1,16.6
				 M552.1,228.4c-1.1,0.4-2.3,0.5-2.1,4.5 M546.3,233c0-2.5,0.7-4.8,1.9-4.4 M558.7,233.5c0.1-5.5-0.8-7-2-7
				c1.6,0.1,2.7,0.3,3.4,9.3c0.5,6.7,1.6,9.1,2.7,14.3c3.1,13.6,1.5,34.6,3.1,42 M556.3,235.1c3.3,12.7,5,26.8-0.3,49.4
				c3.6,13.4,7.2,23.1,7.9,28.6 M546,265.1c0.6-2.9-1.5-3.2,0.3-13.4c0.8-4.4,0.9-7,0.4-8.4 M546.8,249.3c-0.8,4.5,2.5,12.9,0.9,19
				 M543.6,269.5c0,3.9,0.7,9,0.5,12.9c-0.2,3.9,1,5.7,2.4,9.5c5,13.4,8.4,22.9,7.9,35.5c-0.1,2.3,0.5,7.2-1.3,8.5 M543.8,339.3
				c0.5,0.1,1.1-0.3,1.7-2.4s2.7-14.5,1.8-23.1 M548.3,323.6c0.3,2.7,0.3,8.1-1,12.3 M551.6,315.6c0.8,5.7,0.7,10.7,0.1,14.3
				 M549.9,329.9c0.1,2.3,0.9,8.1-0.4,8.5 M556.3,303.2c3.2,6.7,5.7,23.2,8.3,26.7 M559.1,327.2c-0.1-1.8-0.2-4.4-0.9-5.5
				 M524.8,246.4c0-1.3-0.1-2.5,0.9-4.4 M523.3,247.2c0.1-4.4,0.1-4.8,1-6.1 M521.9,247.3c0-3.2-0.3-4.3,0.7-6.3 M533.8,152.1
				c-0.4,0.3-2.5,2.5-3.4,3.4 M534.7,153.2c-0.4,0.1-1.6,1.4-3.7,3.6 M534.8,154.9c-0.7,0.4-1.9,2-3.1,3.1 M529.5,154.6
				c-0.3,0.3-0.9,1.2-1.2,1.6 M559.4,348c-0.2-0.3-0.2-1.3,0.2-2.4 M560.9,347.5c-0.2-0.3,0-1.7,0.2-2.6 M562.4,346.8
				c-0.3-0.2-0.4-1,0-2.1 M563.5,346c-0.2-0.1-0.3-0.5,0.1-1.8"/>
		</g>
		<path d="M546.6,159.6c0.6,1.1,1.3,1,1.4,1.7c0.1,0.7,0.2,0.8,0.3,1c0.1,0.2-0.3,0.2-0.5,0.1c-0.2-0.1-0.7-0.1-1-0.1
			c-0.3,0-0.7-0.5-0.4-0.5c0.2-0.1,0.2-0.2,0.2-0.4c0-0.2,0.1-0.6,0.2-0.6c0.1-0.1,0-0.1-0.1-0.3
			C546.6,160.1,546.5,159.4,546.6,159.6z M547,158.6c0.7,0.1,1.9,0.6,2.5,1.6c0.5,0.8,0.1,0.6-0.2,0.6c-0.3,0-0.8-0.2-1-0.7
			c-0.3-0.4-1-1-1.4-1.1C546.7,158.9,546.5,158.5,547,158.6L547,158.6z"/>
	</g>
	<g>
		<g>
			<g>
				<g>
					<defs>
						<rect id="SVGID_1_" x="3.3" y="-0.1" width="295.5" height="258.4"/>
					</defs>
					<clipPath id="SVGID_2_">
						<use xlink:href="#SVGID_1_"  style="overflow:visible;"/>
					</clipPath>
					<g style="clip-path:url(#SVGID_2_);">
						<path style="fill:#012169;" d="M3.3-0.1v258.4h295.5V-0.1H3.3z"/>
						<g>
							<path d="M3.3-0.1l295.5,258.4 M298.8-0.1L3.3,258.3"/>
							<polygon style="fill:#FFFFFF;" points="292.1,281.4 151.1,157.9 10,281.4 -3.3,235.2 118,129.1 -3.3,23 10,-23.2 
								151.1,100.2 292.1,-23.2 305.4,23 184.1,129.1 305.4,235.2 							"/>
						</g>
						<g>
							<g>
								<g>
									<defs>
										<polygon id="SVGID_3_" points="151.1,129.1 298.8,129.1 298.8,258.3 151.1,258.3 3.3,258.3 3.3,129.1 3.3,-0.1 
											151.1,-0.1 298.8,-0.1 										"/>
									</defs>
									<clipPath id="SVGID_4_">
										<use xlink:href="#SVGID_3_"  style="overflow:visible;"/>
									</clipPath>
									<g style="clip-path:url(#SVGID_4_);">
										<path d="M3.3-0.1l295.5,258.4 M298.8-0.1L3.3,258.3"/>
										<polygon style="fill:#C8102E;" points="294.4,273.6 151.1,148.4 7.7,273.6 -1.1,242.9 129,129.1 -1.1,15.3 7.7,-15.5 
											151.1,109.8 294.4,-15.5 303.1,15.3 173.1,129.1 303.1,242.9 										"/>
									</g>
								</g>
							</g>
						</g>
						<g>
							<path d="M151.1-0.1v258.4 M3.3,129.1h295.5"/>
							<polygon style="fill:#FFFFFF;" points="175.7,258.3 126.4,258.3 126.4,172.1 3.3,172.1 3.3,86.1 126.4,86.1 126.4,-0.1 
								175.7,-0.1 175.7,86.1 298.8,86.1 298.8,172.1 175.7,172.1 							"/>
						</g>
						<g>
							<path d="M151.1-0.1v258.4 M3.3,129.1h295.5"/>
							<polygon style="fill:#C8102E;" points="165.8,258.3 136.3,258.3 136.3,154.9 3.3,154.9 3.3,103.3 136.3,103.3 136.3,-0.1 
								165.8,-0.1 165.8,103.3 298.8,103.3 298.8,154.9 165.8,154.9 							"/>
						</g>
					</g>
				</g>
			</g>
		</g>
	</g>
</g>
</svg>
