<?xml version="1.0" encoding="utf-8"?>
<!-- Generator: Adobe Illustrator 25.2.1, SVG Export Plug-In . SVG Version: 6.00 Build 0)  -->
<svg version="1.1" id="Layer_1" xmlns="http://www.w3.org/2000/svg" xmlns:xlink="http://www.w3.org/1999/xlink" x="0px" y="0px"
	 viewBox="0 0 720 480" style="enable-background:new 0 0 720 480;" xml:space="preserve">
<g>
	<path style="fill:#C8102E;" d="M0,0h720v480H0V0z"/>
	<path style="fill:#FFFFFF;" d="M0,0h360v480H0V0z"/>
	<path style="fill:#C8102E;" d="M17.8,66.3v36.4h36.4c0,6.1,6.1,12.1,12.1,12.1v36.4h36.4v-36.4c6.1,0,12.1-6.1,12.1-12.1h36.4V66.3
		h-36.4c0-6.1-6.1-12.1-12.1-12.1V17.8H66.3v36.4c-6.1,0-12.1,6.1-12.1,12.1H17.8z"/>
	<path style="fill:#96877D;" d="M20.2,68.7v31.5h36.4c0,6.1,6.1,12.1,12.1,12.1v36.4h31.5v-36.4c6.1,0,12.1-6.1,12.1-12.1h36.4V68.7
		h-36.4c0-6.1-6.1-12.1-12.1-12.1V20.2H68.7v36.4c-6.1,0-12.1,6.1-12.1,12.1H20.2z"/>
	<path style="fill:#CCCCCC;" d="M21.4,69.9V99h36.4c0,6.1,6.1,12.1,12.1,12.1v36.4H99v-36.4c6.1,0,12.1-6.1,12.1-12.1h36.4V69.9
		h-36.4c0-6.1-6.1-12.1-12.1-12.1V21.4H69.9v36.4c-6.1,0-12.1,6.1-12.1,12.1H21.4z"/>
	<g id="a">
		<path style="fill:#96877D;" d="M67.6,57.3c2.1,2.1,1.6,6.2-1.3,9c-2.8,2.8-6.9,3.4-9,1.3c-2.1-2.1-1.6-6.2,1.3-9
			C61.5,55.8,65.5,55.2,67.6,57.3z"/>
		<path style="fill:#D0D0D0;" d="M56.9,63.8l0.9-0.9l3.4,1.7l-1.7-3.4l0.9-0.9l3.4,6.9L56.9,63.8L56.9,63.8z M62.1,58.6l0.9-0.9
			l5.1,5.1l-0.9,0.9L62.1,58.6z"/>
	</g>
	<g transform="rotate(90 105.555 105.557)">
		<g id="a_1_">
			<path style="fill:#96877D;" d="M111.5,67.6c-2.1,2.1-6.2,1.6-9-1.3c-2.8-2.8-3.4-6.9-1.3-9c2.1-2.1,6.2-1.6,9,1.3
				C113.1,61.5,113.7,65.5,111.5,67.6z"/>
			<path style="fill:#D0D0D0;" d="M105.1,56.9l0.9,0.9l-1.7,3.4l3.4-1.7l0.9,0.9l-6.9,3.4L105.1,56.9L105.1,56.9z M110.3,62.1
				l0.9,0.9l-5.1,5.1l-0.9-0.9L110.3,62.1z"/>
		</g>
	</g>
	<g transform="rotate(180 105.555 105.557)">
		<g id="a_2_">
			<path style="fill:#96877D;" d="M101.3,111.5c-2.1-2.1-1.6-6.2,1.3-9c2.8-2.8,6.9-3.4,9-1.3c2.1,2.1,1.6,6.2-1.3,9
				S103.4,113.7,101.3,111.5z"/>
			<path style="fill:#D0D0D0;" d="M112,105.1l-0.9,0.9l-3.4-1.7l1.7,3.4l-0.9,0.9l-3.4-6.9L112,105.1L112,105.1z M106.8,110.3
				l-0.9,0.9l-5.1-5.1l0.9-0.9L106.8,110.3z"/>
		</g>
	</g>
	<g transform="rotate(270 105.555 105.557)">
		<g id="a_3_">
			<path style="fill:#96877D;" d="M57.3,101.3c2.1-2.1,6.2-1.6,9,1.3c2.8,2.8,3.4,6.9,1.3,9c-2.1,2.1-6.2,1.6-9-1.3
				C55.8,107.4,55.2,103.4,57.3,101.3z"/>
			<path style="fill:#D0D0D0;" d="M63.8,112l-0.9-0.9l1.7-3.4l-3.4,1.7l-0.9-0.9l6.9-3.4L63.8,112L63.8,112z M58.6,106.8l-0.9-0.9
				l5.1-5.1l0.9,0.9L58.6,106.8z"/>
		</g>
	</g>
	<g>
		<circle style="fill:none;stroke:#96877D;stroke-width:0.514;" cx="84.4" cy="84.4" r="25.5"/>
		<circle style="fill:none;stroke:#96877D;stroke-width:0.514;" cx="84.4" cy="84.4" r="19.4"/>
	</g>
	<circle cx="74.7" cy="105" r="1.2"/>
	<circle cx="94.1" cy="105" r="1.2"/>
	<path d="M0,0"/>
	<g>
		<path style="fill:#96877D;stroke:#000000;stroke-width:0.203;" d="M98.3,88.2c0.4-0.1,1.1,0,1.1,0s0.1,0.3-0.1,0.4
			c0.2,0.1,0.9,0.1,0.9,0.1s-0.3,0.2-0.4,0.3c0.3,0,0.6,0.4,0.6,0.4s-0.6,0.1-0.9,0c0.2,0.3,0.1,0.6,0.1,0.6s-1-0.2-1.4-0.9
			 M96.6,87.6c-0.2,0.6-2-0.5-2-0.5s0.8,1.2,1.9,1.4 M74.5,98.9h20.7l1.6-1.3l-2.7-1.4l-4.1-1.4l-1.6-0.9l-3,0.2l-2.5,1.4l-3.5,0.4
			l-0.8,0.9L76,97l-4.1-0.1l6.8,1.1l-5.6-0.3L74.5,98.9L74.5,98.9z"/>
		<path style="fill:#96877D;stroke:#000000;stroke-width:0.203;" d="M85.7,93c-2.6-1.4-3.4,2-4.5,2.9c1.5,0.3,2.6-1.2,3.9-1.8
			c1,2.7,2.5,0.9,2.5,0.9s1.6,2.6,3.8,1.4c0.6,0.4,1.2,0,1.2,0s0.8,0.1,0.9-0.2c0.4,0.1,0.9-0.4,0.9-0.4s0.9,0,1.1-0.5
			c1.3,0.2,3.1-2.7,3.1-2.7l0.5-1l0.8-0.2c0,0,0.1-0.5-0.4-0.5c0-0.3-0.3-0.5-0.7-0.4c0.1-0.2-0.2-0.3-0.2-0.3
			c-0.7,0.2-0.8,2.1-0.8,2.1s-1.3,1-1.8,1.2c0-1.1-1.8-2.5-1.4-3.2s1.5,1.1,2.5,0.7c1-0.3,1.5-1.6,1.6-2.7c-0.3-0.7-1-1.8-1-1.8
			l-0.7,0l-0.6-1.4c0,0-1.2,0.8-1.2,1.5c0,0.7,1.3,1.3,1.3,1.3s-0.7,0.5-1.4,0.2c-0.1,0.7,0.8,0.6,1.1,0.6c0.2,0.5,0.7,0.8,0.7,0.8
			s0.3,0.8-0.5,0.7c-0.8-0.1-1.7-1.9-2.9-1.1c-1.2,0.9,0.5,2.5,0.5,2.5s-1.1,0.6-1.7,2C90,91.4,88.5,92.4,85.7,93z"/>
		<path style="fill:#96877D;stroke:#000000;stroke-width:0.203;" d="M82,89.3c1.1,1,0.3,2.7,0.7,3c0.4,0.3,1.1-0.2,1.1-0.2
			c1.1,0.3,3.1-0.3,3.1-0.3c0.9,0.5,0.5-0.2,1.1-0.2c0.5,1.2,2,1,2,1s-1.4-1.5-2.3-1.9c-0.7,0.4-2.7,0.5-3,0.4
			c-0.4-0.1-0.1-0.5-0.3-0.8c0.7-0.7,0.2-2.5-0.2-3.2C82.4,86.1,80.5,87.9,82,89.3z M74.9,86.3c-1.3,0.4-3.7-1.7-4.8-0.9
			c-1.1,0.8-0.6,2.8,0.1,3.8c0.7,1-1,1.3-1.5,1.9c-0.4,0.5,0.1,1.2,0.1,1.2l0.5,0.3l-0.1,0.7l0.3,0.9c0,0,0.2,0.2,0.3-0.1
			c0.2,0.2,0,0.9,0.6,1c-0.2-0.4,0.1-1.6,0.1-1.6s1,0.1,1.2-0.3c0.2-0.4-0.2-1.3-0.2-1.3h0.3c-0.3-0.2-0.4-0.9-0.4-0.9
			s1.3-0.4,1.3-1.4c0-1-2.2-2.1-1.4-2.6c0.9-0.6,2.4,1.5,3.7,0.6c1.3-1,0.5,0,0.5,0S76.2,86,74.9,86.3z M81.8,72
			c-1.8-0.7-5.5-0.8-7.5-1.8c-0.9,0.1-1.3,0.8-1.3,1c-0.9,0-1.6,1.4-1.4,1.7c-1.7-0.7-2.5,2-1.9,2.6c-1.5,0.1-1.3,1.9-1.4,2.4
			c-0.5,1.1,0.1,1.5,1,1.1c0.1,0.5-0.1,0.8-0.5,0.9c2.5,2.9,4-1.8,6.2-1.8c2.8-0.8,3.9-2.2,3.9-2.2l1.1,0.1
			C79.8,76.1,81.8,72,81.8,72z"/>
		<circle style="fill:#96877D;stroke:#000000;stroke-width:0.203;" cx="84.1" cy="69.9" r="2.6"/>
		<path style="fill:#96877D;stroke:#000000;stroke-width:0.203;" d="M0,0"/>
		<path style="fill:#96877D;stroke:#000000;stroke-width:0.203;" d="M72.8,79.7c0.1-0.2,1.2,0.2,1.2,0.2l1.9,1.2l3.8,2.4l1.3,1.9
			l-2.4-0.8l-3.3-2.9l-1.8-1.2C73.4,80.7,72.6,79.9,72.8,79.7L72.8,79.7z M95.1,85.9c-1.3-0.3-4.5,3.6-4.5,3.6l2.4,2.6
			C93,92.1,93.1,87.6,95.1,85.9z"/>
		<path style="fill:#96877D;stroke:#000000;stroke-width:0.203;" d="M79.2,75c-0.7,0.9-0.8,2.7,0.2,3.5c0.1,1.1,1,3.4,1.8,3.6
			c0.8,0.2,4.1,1,5.3,0.8c-0.2,2.1,1.4,3.7,2.9,4.8c0,0.2,0,0.4,0.2,0.6c0.2,0.2,1,0.3,1,0.1c0.3,0.5,2,0.7,2.2,0.5
			c0.1-0.2-2.5-2-3.1-2.6c-0.5-0.9-1.4-3-1.6-4.6c-1.3-1.5-3.5-1.5-3.5-1.5l0.1-3l0.1-3.4l-1.2-0.6c0,0,0.2-0.1,0.4-0.2
			c0.3,0.1,0.8-0.5,0.9-0.6c0.3,0.1,0.5,0.1,0.6-0.1c0-0.1,0.1-0.7,0.2-1c0.9-0.8-0.1-2.5-1.5-2.5c-1.4,0-1.7,1.6-1.6,1.7
			c0.1,0.5,0.1,0.8,0,0.9c-0.1,0.1-0.6,0.4-0.6,0.4s-0.8-0.4-1.7,0c-0.9,0.4-2,0.8-2,1.4c-0.4,0.1-1.1,0.6-1.2,1.1
			c-0.4-0.1-0.9,0.2-1.6,1.5c-1.4,0.6-1.5,3.6-1.5,3.6s-0.4,0.6-0.4,0.9c0,0.3,0.1,0.6,0.3,0.5c0,0.2,0.3,0.4,0.4,0.3
			c0,0.2,0.3,0.3,0.5,0.3c0,0.1,0.6,0.1,0.6,0c0-0.1-0.1-0.8,0-0.9c0.1,0,0.5,0.3,0.6,0.2c0.1-0.1,0-0.4-0.1-0.5
			c-0.1-0.1-0.5-0.2-0.5-0.7c-0.1-0.5,0.2-1.1,0.2-1.1s1.5-1.2,1.7-2.2C78.3,76.4,78.9,75.4,79.2,75L79.2,75z"/>
		<path style="fill:#96877D;stroke:#000000;stroke-width:0.203;" d="M76.5,70.7c0.4-0.9,1.6-0.8,1.6-0.8s0.5-1.2,2.2-0.5
			c0.6-0.5,2.3,0.2,2.3,0.2s0.6-0.8,1.5-0.7c1.5,0.2,1.8,1.6,1.7,1.8c-0.8,0.2-2.3-0.7-3.4-0.4c-0.6,0.4-1.7,0.8-2.1,1.3
			C79.3,71.7,78.2,70.6,76.5,70.7z M79.8,72.1c0.4-0.2,1.3-0.7,2-0.1c0.7,0.7,1.7,1.4,1.7,1.4l1.2,0.5l0.5,0.3l-0.3,5.3
			c-1.1-1.1-2.1-1.3-2.9-2.6c-0.4-0.6-0.1-1.9-0.8-2.8C80.4,73.3,79.6,72.7,79.8,72.1z"/>
		<path style="fill:#96877D;stroke:#000000;stroke-width:0.203;" d="M82.6,73.7c0,0,0.6-0.1,0.8,0c0.2,0.1,0.4,0.1,0.5,0.3
			c0.2,0.1,0.4,0.2,0.4,0.4c0.2,0.1,0.3,0.4,0.3,0.4l-0.2,0.3c0,0-0.2-0.2-0.3-0.4c-0.1-0.1-0.5-0.1-0.6-0.4c-0.3,0-0.4-0.2-0.5-0.4
			C82.8,74,82.6,73.7,82.6,73.7z"/>
		<path style="fill:#96877D;stroke:#000000;stroke-width:0.203;" d="M87.7,70.2c-0.3-0.4-1-0.1-1-0.1l-1.6,2.8l-0.7,0.6l-0.1,2.2
			l0.6,2.1l-0.2,1.6c0,0,0.8-0.8,0.9-1.2c0.1-0.4-0.3-1.8-0.3-1.8s-0.5-0.8,0.1-2.4C86.1,72.4,87.4,71.2,87.7,70.2L87.7,70.2z"/>
		<path style="fill:#96877D;stroke:#000000;stroke-width:0.203;" d="M91.8,72.7c0,0-2.6,3.7-6.8,5c-1.2,0.3-0.7-2.7-0.7-2.7L84,75
			c0,0-0.6,2.9,0.9,3c4.2-0.8,7.4-5.3,7.4-5.3L91.8,72.7L91.8,72.7z M93.5,93.7c0,0-0.4,0.3-0.9,0c-0.3-0.6-1-0.7-1-0.7
			s-0.5-1.3-1.2-0.9c-0.1-0.7-0.9-0.3-0.9-0.3s0-1-0.9-0.9c0.3-1.1-1.3-1.1-1.3-1.1s-0.1-1.3-2.4-1c5-2.2,9,3.5,9,3.5 M95.9,94.2
			c0,0,1.2,1.3,1.8,1.3c0.6,0,0.7-1.3,0.7-1.3s0.2,0.6,0.5,0.4c0,0.4,0.4,0.5,0.4,0.5s-1,2.4-4,0.1 M86.8,94.7l-0.4,1.7
			c0,0-0.5,0.5-0.4,0.6c0.2,0.1,1-0.2,1-0.2s1.3-0.2,1.7-0.5c0.3,0.6,0.9,0.7,0.9,0.7s0-0.3,0-0.4c0.3,0.1,0.5,0,0.5,0
			s0.2-0.5-0.2-0.7c0-0.3,0.2-0.7-0.4-0.6c-0.5,0.5-1.6,1.1-1.9,0.9c-0.3-0.2,1.1-0.8,0.7-1.6"/>
	</g>
</g>
</svg>
