<?xml version="1.0" encoding="utf-8"?>
<!-- Generator: Adobe Illustrator 25.2.1, SVG Export Plug-In . SVG Version: 6.00 Build 0)  -->
<svg version="1.1" id="Layer_1" xmlns="http://www.w3.org/2000/svg" xmlns:xlink="http://www.w3.org/1999/xlink" x="0px" y="0px"
	 viewBox="0 0 720 480" style="enable-background:new 0 0 720 480;" xml:space="preserve">
<g>
	<g transform="scale(480)">
		<path style="fill:#FFFFFF;" d="M0,0h1.5v1H0V0z"/>
		<g>
			<path d="M0.1,0h1.4 M1.5,0.2H0.1 M0.1,0.3h1.4 M1.5,0.5H0.1"/>
			<path style="fill:#CC0000;" d="M1.5,0.5H0.1V0.4L1.5,0.5L1.5,0.5z M1.5,0.4H0.1V0.3L1.5,0.4L1.5,0.4z M1.5,0.2H0.1V0.1L1.5,0.2
				L1.5,0.2z M1.5,0.1H0.1V0L1.5,0.1L1.5,0.1z"/>
		</g>
		<path style="fill:#000066;" d="M0,0h0.8v0.6H0V0z"/>
		<g>
			<path d="M0,0.6h1.5 M1.5,0.8H0 M0,0.9h1.5"/>
			<path style="fill:#CC0000;" d="M1.5,0.9H0V0.9L1.5,0.9L1.5,0.9z M1.5,0.8H0V0.7L1.5,0.8L1.5,0.8z M1.5,0.6H0V0.6L1.5,0.6L1.5,0.6
				z"/>
		</g>
	</g>
	<path style="fill:#FFCC00;" d="M225,51.4l5.7,52.3l22.2-43.8L241,110.4l34.2-26.6l-27.1,38.6l39.5-4.2l-37,19.1l37,19.1l-39.5-4.2
		l27.1,38.6L241,163.9l11.9,50.4l-22.2-43.8l-5.7,52.3l-5.7-52.3l-22.2,43.8l11.9-50.4l-34.2,26.6l27.1-38.6l-39.5,4.2l37-19.1
		l-37-19.1l39.5,4.2l-27.1-38.6l34.2,26.6l-11.9-50.4l22.2,43.8L225,51.4z M192.9,53.6c-34.6-20.5-75.1,0.3-90.5,46.5
		s0.3,100.2,34.9,120.7c17.7,10.5,37.9,10.5,55.6,0c-34.6,33.1-82.8,22.5-107.6-23.6S68.3,86.7,102.9,53.6
		C129.8,27.9,166,27.9,192.9,53.6z"/>
</g>
</svg>
