<?xml version="1.0" encoding="utf-8"?>
<!-- Generator: Adobe Illustrator 25.2.1, SVG Export Plug-In . SVG Version: 6.00 Build 0)  -->
<svg version="1.1" id="Layer_1" xmlns="http://www.w3.org/2000/svg" xmlns:xlink="http://www.w3.org/1999/xlink" x="0px" y="0px"
	 viewBox="0 0 720 480" style="enable-background:new 0 0 720 480;" xml:space="preserve">
<g>
	<g>
		<path style="fill:#003580;" d="M0,480V2h720L0,480z"/>
		<path style="fill:#009543;" d="M720,2v478H0L720,2z"/>
	</g>
	<g>
		<path style="fill:#FFCE00;" d="M191,119.2l22.3-26.8l-33.9,5.8C184.9,104,188.9,111.2,191,119.2z"/>
		<ellipse style="fill:#FFCE00;" cx="144.5" cy="131" rx="40" ry="39.8"/>
		<path style="fill:#FFCE00;" d="M224,132.2l-32.8-12c0.8,3.5,1.3,7.1,1.3,10.8c0,4.7-0.7,9.2-2,13.5L224,132.2z"/>
		<path style="fill:#FFCE00;" d="M190.5,144.7c-5.9,19.7-24.3,34.1-46,34.1c-26.5,0-48-21.4-48-47.8c0-12.6,5-24.1,13.1-32.7
			l-34.9-6l22.9,27.5L64,132.2l33.6,12.3L74.7,172l35.4-6.1l-6.1,35.2l27.6-22.8l12.4,33.5l12.4-33.5l27.6,22.8l-6.1-35.2l35.4,6.1
			L190.5,144.7z"/>
		<path style="fill:#FFCE00;" d="M178.2,97l5.8-33.8l-26.4,21.8C165.4,87.3,172.5,91.4,178.2,97z"/>
		<path style="fill:#FFCE00;" d="M130.7,85.3l-26.7-22l6,34.7C115.6,92.1,122.7,87.7,130.7,85.3z"/>
		<path style="fill:#FFCE00;" d="M144.5,83.2c3.9,0,7.7,0.5,11.4,1.4L144,52.6l-12,32.4C136,83.9,140.2,83.2,144.5,83.2z"/>
	</g>
	<g>
		<defs>
			<rect id="SVGID_1_" y="2" width="720" height="478"/>
		</defs>
		<clipPath id="SVGID_2_">
			<use xlink:href="#SVGID_1_"  style="overflow:visible;"/>
		</clipPath>
		<g style="clip-path:url(#SVGID_2_);">
			<polygon style="fill:#FFFFFF;" points="34.1,521.1 -54.6,388.5 665.4,-89.4 754.1,43.1 			"/>
			<polygon style="fill:#D21034;" points="23.1,504.5 -43.5,405.1 676.5,-72.9 743.1,26.5 			"/>
		</g>
	</g>
</g>
</svg>
