<?xml version="1.0" encoding="utf-8"?>
<!-- Generator: Adobe Illustrator 25.2.1, SVG Export Plug-In . SVG Version: 6.00 Build 0)  -->
<svg version="1.1" id="Layer_1" xmlns="http://www.w3.org/2000/svg" xmlns:xlink="http://www.w3.org/1999/xlink" x="0px" y="0px"
	 viewBox="0 0 720 480" style="enable-background:new 0 0 720 480;" xml:space="preserve">
<g>
	<rect style="fill:#0067C6;" width="720" height="480"/>
	<rect y="160" style="fill:#FFFFFF;" width="720" height="160"/>
	<g id="text">
		<path style="fill:#C8A400;" d="M295.2,239.5c2.4,0.2,4.8,0.4,7.2,0.5c0-0.4,0-0.8,0.1-1.2c-0.9-0.1-1.9-0.1-2.8-0.2
			c0.1-1.3,0.2-2.6,0.2-3.8c1-0.8,2-1.6,3-2.4c0-0.5,0.1-1,0.1-1.5c-1.1,0.8-2.1,1.7-3.2,2.5c-0.1-0.8-0.5-1.7-1.3-2
			c-0.7-0.3-1.5-0.3-2,0.2c-0.7,0.6-0.9,1.6-0.9,2.6C295.4,236,295.3,237.7,295.2,239.5L295.2,239.5z M296.3,238.4
			c0.1-1.3,0.1-2.6,0.3-3.9c0.1-0.6,0.2-1.4,0.7-1.8c0.5-0.3,1.1-0.1,1.3,0.5c0.4,1,0.2,2.1,0.2,3.1c0,0.8-0.1,1.5-0.1,2.3
			C297.8,238.5,297.1,238.4,296.3,238.4L296.3,238.4z"/>
		<path style="fill:#C8A400;" d="M296.1,227.2c2.3,0.6,4.7,1.2,7,1.8c0.5-2.5,1.1-5.1,1.6-7.6c-0.3-0.1-0.7-0.2-1-0.3
			c-0.5,2.2-0.9,4.3-1.4,6.5c-0.7-0.2-1.4-0.4-2.1-0.6c0.4-1.9,0.8-3.9,1.2-5.8c-0.3-0.1-0.7-0.2-1-0.3c-0.4,1.9-0.8,3.9-1.2,5.8
			c-0.6-0.2-1.3-0.3-1.9-0.5c0.4-2.1,0.9-4.1,1.3-6.2c-0.3-0.1-0.7-0.2-1-0.3C297.2,222.3,296.6,224.8,296.1,227.2L296.1,227.2z"/>
		<path style="fill:#C8A400;" d="M298.7,216.7c2.3,0.9,4.5,1.8,6.8,2.6c0.1-0.4,0.2-0.7,0.3-1.1c-0.9-0.3-1.8-0.7-2.7-1
			c0.3-1.1,0.7-2.3,1.1-3.4c0.2-0.9,0.4-2-0.1-2.9c-0.4-0.6-1.1-1.1-1.8-1c-0.8,0-1.4,0.7-1.8,1.4c-0.5,1.1-0.8,2.3-1.2,3.4
			C299.1,215.4,298.9,216.1,298.7,216.7z M300,216c0.4-1.1,0.7-2.3,1.1-3.4c0.2-0.6,0.5-1.3,1.2-1.5c0.5-0.1,1,0.3,1.1,0.9
			c0.1,1.1-0.3,2.1-0.6,3.1c-0.2,0.6-0.4,1.2-0.6,1.8C301.4,216.6,300.7,216.3,300,216L300,216z"/>
		<path style="fill:#C8A400;" d="M302.4,207.1c1.3,0.8,2.6,1.7,3.8,2.5c0.7,0.4,1.6,0.7,2.4,0.2c1-0.6,1.7-1.8,2.2-3
			c0.4-1,0.7-2.2,0.2-3.2c-0.6-1-1.6-1.4-2.4-2c-0.8-0.5-1.7-1.1-2.5-1.6c-0.2,0.3-0.4,0.7-0.5,1c1.2,0.8,2.4,1.6,3.7,2.4
			c0.6,0.4,1.1,1.1,1,1.9c-0.1,0.9-0.6,1.8-1.1,2.5c-0.4,0.6-1.1,1.1-1.8,0.9c-0.7-0.2-1.3-0.7-2-1.1c-0.8-0.5-1.6-1.1-2.4-1.6
			C302.8,206.4,302.6,206.7,302.4,207.1L302.4,207.1z"/>
		<path style="fill:#C8A400;" d="M307.6,197.6c1.9,1.6,3.8,3.2,5.7,4.9c0.9-1.3,1.8-2.6,2.7-3.9c0.5-0.8,1-1.9,0.6-2.9
			c-0.3-0.8-1.1-1.4-1.8-1.5c-0.4-0.1-0.8,0.2-1,0.4c0.2-0.9-0.4-1.7-1.1-1.9c-0.9-0.3-1.7,0.3-2.3,0.9c-0.7,0.8-1.2,1.7-1.8,2.6
			C308.2,196.8,307.9,197.2,307.6,197.6z M309.1,197.4c0.7-1,1.3-1.9,2-2.9c0.3-0.4,0.8-0.9,1.4-0.6c0.5,0.2,0.6,0.9,0.4,1.3
			c-0.3,0.8-0.9,1.5-1.4,2.2c-0.3,0.4-0.5,0.8-0.8,1.1C310.1,198.3,309.6,197.8,309.1,197.4z M311.4,199.4c0.7-1,1.3-2,2.1-3
			c0.4-0.4,0.8-1,1.4-0.9c0.5,0.1,0.9,0.7,0.7,1.3c-0.3,1-1,1.8-1.6,2.7c-0.3,0.4-0.6,0.9-0.9,1.3
			C312.6,200.4,312,199.9,311.4,199.4z"/>
		<path style="fill:#C8A400;" d="M314.1,189.2l4.9,5.8l4.2-4.4l-0.7-0.8l-3.4,3.6l-0.1,0.1l-0.1-0.1l-4.2-4.9L314.1,189.2z"/>
		<path style="fill:#C8A400;" d="M320.4,183l4.4,6.3l0.9-0.7l-4.4-6.3L320.4,183z"/>
		<path style="fill:#C8A400;" d="M326.9,178.1c-0.7,0.5-1.3,1.1-1.7,1.7c-0.4,0.7-0.7,1.4-0.7,2.1c0,0.7,0.1,1.4,0.5,2.1
			c0.4,0.6,0.8,1.1,1.4,1.5c0.6,0.4,1.2,0.5,1.9,0.4c0.7-0.1,1.5-0.4,2.4-1c0.8-0.6,1.4-1.2,1.8-2c0.4-0.7,0.5-1.5,0.3-2.4l-1,0.4
			c0.3,1.6-0.7,2.4-1.7,3.1c-1.6,1.1-3.2,1-4.2-0.6c-1-1.9,0.1-3.4,1.5-4.4c1-0.7,1.9-1.1,2.9-0.5l0.8-0.8c-0.5-0.4-1.1-0.6-1.8-0.6
			C328.4,177.3,327.7,177.6,326.9,178.1L326.9,178.1z"/>
		<path style="fill:#C8A400;" d="M335.4,173.4l-0.8,9l1.1-0.5l0.2-2.8l0,0l3.6-1.6l1.9,1.8l1.1-0.5l-6.1-5.9L335.4,173.4
			L335.4,173.4z M336.4,174.3l2.4,2.3l-2.7,1.2L336.4,174.3z"/>
		<path style="fill:#C8A400;" d="M351.2,168.5c0.1,2.7,0.3,5.3,0.4,8c1.3-0.1,2.6-0.2,3.9-0.3c1-0.1,2.1-0.4,2.8-1.3
			c0.9-1.1,1-2.8,0.6-4.2c-0.3-1.2-1.3-2.1-2.4-2.4c-1.1-0.2-2.2,0-3.3,0C352.5,168.4,351.8,168.4,351.2,168.5L351.2,168.5z
			 M352.3,169.5c1-0.1,2.1-0.2,3.1-0.2c0.6,0,1.2,0.2,1.6,0.6c0.7,0.5,1.1,1.5,1,2.5c-0.1,1.1-0.8,2.1-1.8,2.4
			c-0.6,0.2-1.1,0.2-1.7,0.3c-0.7,0-1.3,0.1-2,0.1C352.5,173.3,352.4,171.4,352.3,169.5L352.3,169.5z"/>
		<path style="fill:#C8A400;" d="M361.2,168c-0.1,2.7-0.3,5.3-0.4,8c2.3,0.1,4.7,0.3,7,0.4c0-0.4,0-0.8,0.1-1.1c-2-0.1-4-0.3-6-0.4
			c0-0.8,0.1-1.6,0.1-2.4c1.8,0.1,3.6,0.2,5.4,0.3c0-0.4,0-0.8,0.1-1.1c-1.8-0.1-3.6-0.2-5.4-0.3c0-0.7,0.1-1.4,0.1-2.2
			c1.9,0.1,3.8,0.2,5.7,0.4c0-0.4,0-0.8,0.1-1.1C365.7,168.3,363.5,168.1,361.2,168L361.2,168z"/>
		<path style="fill:#C8A400;" d="M380,171.3l-2.6,7.5l0.9,0.4l2.1-5.9l0.1-0.3l0.1,0.3l2.5,7.9l1.2,0.5l2.6-7.5l-0.9-0.4l-2.1,5.9
			l-0.1,0.3l-0.1-0.3l-2.5-7.9L380,171.3z"/>
		<path style="fill:#C8A400;" d="M389.7,175.9l-3.3,7.1l-1-0.5l3.3-7.1L389.7,175.9z"/>
		<path style="fill:#C8A400;" d="M395.1,179.5c-0.7-0.5-1.4-0.9-2.1-1c-0.7-0.2-1.4-0.1-2,0.2c-0.6,0.3-1.1,0.7-1.5,1.4
			c-0.4,0.6-0.6,1.3-0.6,2.1c0,0.7,0.1,1.4,0.5,2.1c0.4,0.7,1,1.3,1.8,1.9c0.8,0.6,1.6,0.9,2.4,1c0.8,0,1.4-0.2,2.1-0.7l-0.8-0.8
			c-1.2,0.9-2.2,0.3-3.2-0.4c-1.6-1.2-2.2-2.8-1.2-4.5c1.1-1.8,2.8-1.3,4.2-0.3c1,0.7,1.8,1.5,1.6,2.7l1,0.5c0.1-0.7,0-1.4-0.3-2.1
			C396.5,180.7,395.9,180.1,395.1,179.5L395.1,179.5z"/>
		<path style="fill:#C8A400;" d="M402,185.2l-7.5,3.3l0.9,0.9l2.3-1l0,0l3,2.9L400,194l0.9,0.9l1.9-8.7L402,185.2L402,185.2z
			 M401.7,186.6l-0.8,3.4l-2.2-2.1L401.7,186.6L401.7,186.6z"/>
		<path style="fill:#C8A400;" d="M407.4,190.8c-1.9,1.7-3.7,3.4-5.6,5.1c0.2,0.3,0.4,0.6,0.7,0.9c0.7-0.7,1.5-1.3,2.2-2
			c0.7,1,1.5,2,2.2,3c-0.2,1.3-0.5,2.7-0.7,4c0.3,0.4,0.6,0.8,0.8,1.1c0.2-1.4,0.5-2.8,0.7-4.3c0.6,0.6,1.5,0.9,2.3,0.4
			c0.6-0.3,1.2-1,1.2-1.8c0.1-1.1-0.6-2-1.2-2.8C409.2,193.2,408.3,192,407.4,190.8L407.4,190.8z M407.3,192.4
			c0.8,1.1,1.6,2.1,2.3,3.2c0.3,0.6,0.8,1.4,0.4,2c-0.3,0.6-1,0.5-1.5,0.1c-0.9-0.7-1.5-1.7-2.2-2.5c-0.3-0.4-0.6-0.8-0.9-1.2
			C406.1,193.5,406.7,193,407.3,192.4z"/>
		<path style="fill:#C8A400;" d="M415.8,203.5l-8.1,0.4l0.6,1.2l2.5-0.1l0,0l2,3.8l-1.4,2.3l0.6,1.2l4.4-7.6L415.8,203.5
			L415.8,203.5z M415.1,204.7l-1.7,3l-1.4-2.8L415.1,204.7z"/>
		<path style="fill:#C8A400;" d="M420.4,214.1c-0.5-1.4-1.2-2.7-2.4-3.4c-1.3-0.7-3.1-0.4-4.1,0.9c-0.8,1.1-0.9,2.6-0.6,4
			c0.3,1.5,0.9,3,1.8,4.1c-0.2,0.1-0.4,0.1-0.5,0.2c0.1,0.4,0.2,0.7,0.3,1.1c1.1-0.4,2.2-0.9,3.4-1.3c-0.4-1.3-0.9-2.7-1.3-4
			c-0.3,0.1-0.5,0.2-0.8,0.3c0.3,1,0.6,2,1,3c-0.4,0.2-0.8,0.3-1.1,0.5c-1-1-1.6-2.4-1.9-3.8c-0.2-1.1-0.2-2.3,0.5-3.2
			c0.8-1,2.3-1.3,3.3-0.4c1,0.8,1.5,2.1,1.8,3.4c0.2,0.8,0.2,1.9-0.4,2.5c-0.2,0.1,0.1,0.3,0.1,0.5c0.1,0.2,0.2,0.3,0.3,0.5
			c0.6-0.5,1-1.4,1-2.2C420.9,215.8,420.7,214.9,420.4,214.1z"/>
		<path style="fill:#C8A400;" d="M422.5,220.4l-4,0.9c-0.7,0.2-1.3,0.4-1.7,0.8c-0.4,0.3-0.6,0.8-0.7,1.5c-0.1,0.6-0.1,1.4,0.1,2.4
			c0,0,0,0,0,0c0.2,1,0.4,1.7,0.7,2.3c0.3,0.6,0.7,0.9,1.2,1.1c0.5,0.2,1.1,0.2,1.8,0l4-0.9l-0.2-1.1l-3.9,0.8
			c-1.8,0.4-2.4-0.7-2.7-2.4c0,0,0,0,0,0c-0.3-1.8-0.1-3,1.7-3.3l3.9-0.8L422.5,220.4L422.5,220.4z"/>
		<path style="fill:#C8A400;" d="M424.7,234l-7.5-3.5l0.1,1.3l2.3,1.1l0,0l0.3,4.4l-2.1,1.4l0.1,1.3l6.9-4.7L424.7,234L424.7,234z
			 M423.6,234.7l-2.7,1.8l-0.2-3.2L423.6,234.7z"/>
		<polygon style="fill:#C8A400;" points="300.8,254.7 299.7,255 300.9,259.8 301.9,259.5 		"/>
		<polygon style="fill:#C8A400;" points="419.2,254.7 420.3,255 419.1,259.8 418.1,259.5 		"/>
		<path style="fill:#C8A400;" d="M311.9,275.2l-8.1,1l0.7,1.1l2.5-0.3l0,0l2.2,3.6l-1.2,2.4l0.7,1.1l3.9-7.9L311.9,275.2
			L311.9,275.2z M311.3,276.5l-1.5,3.1l-1.6-2.7L311.3,276.5L311.3,276.5z"/>
		<path style="fill:#C8A400;" d="M315,280.1l-5.1,5.3l0.7,0.8l4.3-4.5l-2.3,6.9l0.8,0.9l6.2-2.1l-4.2,4.4l0.7,0.8l5.1-5.3l-1-1.2
			l-6.3,2.1l2.4-6.8L315,280.1z"/>
		<path style="fill:#C8A400;" d="M322.5,288.6c-1.4,2.1-2.9,4.3-4.3,6.4c1.9,1.6,3.7,3.1,5.6,4.7c0.2-0.3,0.4-0.6,0.6-0.9
			c-1.6-1.3-3.2-2.7-4.8-4c0.4-0.6,0.9-1.3,1.3-1.9c1.4,1.2,2.9,2.4,4.3,3.6c0.2-0.3,0.4-0.6,0.6-0.9c-1.4-1.2-2.9-2.4-4.3-3.6
			c0.4-0.6,0.8-1.1,1.2-1.7c1.5,1.3,3.1,2.6,4.6,3.8c0.2-0.3,0.4-0.6,0.6-0.9C326.1,291.6,324.3,290.1,322.5,288.6L322.5,288.6z"/>
		<path style="fill:#C8A400;" d="M329.5,294.3c-1.1,2.4-2.3,4.7-3.4,7.1c0.3,0.2,0.6,0.4,0.9,0.6c0.4-0.9,0.9-1.9,1.3-2.8
			c1,0.6,2,1.2,3.1,1.8c0.2,1.3,0.5,2.7,0.7,4c0.4,0.2,0.8,0.5,1.2,0.7c-0.3-1.4-0.5-2.8-0.8-4.2c0.8,0.3,1.7,0.1,2.2-0.6
			c0.5-0.6,0.8-1.4,0.5-2.1c-0.3-1-1.2-1.6-2-2.1C332.1,295.8,330.8,295.1,329.5,294.3L329.5,294.3z M330,295.8
			c1.1,0.7,2.2,1.3,3.3,2c0.5,0.4,1.1,0.9,1.1,1.6c-0.1,0.7-0.7,1-1.2,0.9c-1.1-0.2-1.9-0.9-2.9-1.4c-0.4-0.3-0.9-0.5-1.3-0.8
			C329.2,297.3,329.6,296.6,330,295.8L330,295.8z"/>
		<path style="fill:#C8A400;" d="M337.6,299l-2.7,7.4l1,0.5l2.7-7.4L337.6,299z"/>
		<path style="fill:#C8A400;" d="M344.1,301.5c-0.8-0.3-1.6-0.4-2.3-0.4c-0.7,0.1-1.4,0.3-1.9,0.7c-0.5,0.4-0.9,1-1.1,1.8
			c-0.2,0.7-0.2,1.4-0.1,2.2c0.1,0.7,0.5,1.4,1,1.9c0.5,0.5,1.2,1,2.2,1.4c0.9,0.3,1.8,0.4,2.5,0.2c0.7-0.2,1.3-0.6,1.8-1.3
			l-0.9-0.6c-0.9,1.2-2.1,0.9-3.2,0.5c-1.8-0.7-2.8-2.1-2.2-4c0.6-2.1,2.4-2.1,4-1.5c1.1,0.4,2,0.9,2.2,2.1l1,0.2
			c-0.1-0.7-0.3-1.4-0.8-1.9C345.7,302.3,345,301.8,344.1,301.5L344.1,301.5z"/>
		<path style="fill:#C8A400;" d="M351.4,303.3l-4.7,7.3l1.2,0.2l1.5-2.3l0,0l3.9,0.6l0.8,2.6l1.2,0.2l-2.6-8.5L351.4,303.3
			L351.4,303.3z M351.8,304.6l1,3.3l-2.9-0.5L351.8,304.6z"/>
		<path style="fill:#C8A400;" d="M368.3,303.4c-0.8,0.2-1.5,0.5-2.2,0.9c-0.6,0.5-1.1,1-1.3,1.7c-0.3,0.7-0.3,1.4-0.2,2.2
			c0.1,0.7,0.4,1.4,0.9,1.9c0.4,0.6,1,0.9,1.7,1.1c0.7,0.2,1.5,0.2,2.5,0c1-0.2,1.7-0.6,2.3-1.2c0.6-0.5,0.9-1.2,1-2.1l-1.1,0
			c-0.3,1.6-1.4,1.9-2.6,2.2c-1.9,0.4-3.3-0.3-3.7-2.3c-0.3-2.1,1.2-3.1,2.8-3.5c1.1-0.2,2.2-0.3,2.8,0.7l1-0.4
			c-0.4-0.6-0.9-1-1.5-1.3C370,303.2,369.2,303.2,368.3,303.4L368.3,303.4z"/>
		<path style="fill:#C8A400;" d="M373.1,302.4c0.7,2.6,1.4,5.1,2,7.7c2.2-0.7,4.5-1.5,6.7-2.2c-0.1-0.4-0.2-0.7-0.3-1.1
			c-1.9,0.6-3.8,1.3-5.7,1.9c-0.2-0.8-0.4-1.6-0.6-2.3c1.7-0.6,3.4-1.1,5.2-1.7c-0.1-0.4-0.2-0.7-0.3-1.1c-1.7,0.6-3.4,1.1-5.2,1.7
			c-0.2-0.7-0.4-1.4-0.6-2.1c1.8-0.6,3.7-1.2,5.5-1.8c-0.1-0.4-0.2-0.7-0.3-1.1C377.4,301,375.2,301.7,373.1,302.4L373.1,302.4z"/>
		<path style="fill:#C8A400;" d="M380.9,299.7c1,2.4,2,4.8,3,7.3c0.3-0.2,0.6-0.3,0.9-0.5c-0.8-2-1.7-4-2.5-6.1
			c2.3,1.2,4.6,2.4,7,3.6c0.2,0.1,0.3,0,0.5,0c0.3-0.2,0.6-0.3,0.9-0.5c-1-2.4-2-4.8-3-7.3c-0.3,0.2-0.6,0.3-0.9,0.5
			c0.8,2,1.7,4,2.5,6c-2.4-1.2-4.8-2.4-7.2-3.7C381.6,299.3,381.2,299.5,380.9,299.7z"/>
		<path style="fill:#C8A400;" d="M388.8,295.6l0.6,1l2.6-1.9l0.1-0.1l0,0.1l3.3,5.6l0.9-0.6l-3.3-5.6l0-0.1l0.1-0.1l2.6-1.9l-0.6-1
			L388.8,295.6z"/>
		<path style="fill:#C8A400;" d="M396,290c1.6,2,3.3,3.9,4.9,5.9c0.3-0.3,0.5-0.5,0.8-0.8c-0.6-0.8-1.3-1.5-1.9-2.3
			c0.8-0.9,1.7-1.7,2.5-2.6c1.2,0.2,2.4,0.4,3.7,0.5c0.3-0.3,0.7-0.7,1-1c-1.3-0.2-2.6-0.4-3.9-0.6c0.5-0.7,0.7-1.7,0.2-2.5
			c-0.3-0.7-0.9-1.3-1.7-1.3c-1,0-1.8,0.8-2.5,1.5C398.1,287.9,397.1,289,396,290L396,290z M397.5,290.1c0.9-0.9,1.8-1.9,2.7-2.8
			c0.5-0.4,1.2-0.9,1.8-0.5c0.5,0.3,0.5,1.1,0.2,1.6c-0.5,1-1.4,1.7-2.2,2.5c-0.3,0.3-0.7,0.7-1,1
			C398.5,291.4,398,290.7,397.5,290.1L397.5,290.1z"/>
		<path style="fill:#C8A400;" d="M404.4,280.7l3.2,8.3l0.8-1l-1-2.6l0,0l2.5-3.4l2.5,0.6l0.8-1l-7.9-1.9L404.4,280.7L404.4,280.7z
			 M405.6,281l3.1,0.7l-1.8,2.5L405.6,281z"/>
		<path style="fill:#C8A400;" d="M407.5,276.2l6,4.4l3.2-5.4l-0.9-0.6l-2.5,4.3l-0.1,0.1l-0.1-0.1l-5.1-3.7L407.5,276.2z"/>
	</g>
	<g>
		<defs>
			<polygon id="SVGID_1_" points="360,181.1 314.1,269.4 405.9,269.4 			"/>
		</defs>
		<clipPath id="SVGID_2_">
			<use xlink:href="#SVGID_1_"  style="overflow:visible;"/>
		</clipPath>
		<g style="clip-path:url(#SVGID_2_);">
			<g id="rays">
				<path style="fill:#FFFFFF;" d="M360,181.1l-22.7,43.6l-11.1,21.4h67.5l-10.6-20.4L360,181.1L360,181.1z"/>
				<g id="rays5">
					<g id="ray">
						<path style="opacity:0.6204;fill:#17C0EB;stroke:#17C0EB;stroke-width:0.1287;enable-background:new    ;" d="M360,181.1
							l-1.7,3.3l1.7,44l1.7-44L360,181.1z"/>
						<path style="fill:#FFFFFF;" d="M360,222C360,222,359.9,222,360,222v2.5V222C360.1,222,360,222,360,222z"/>
					</g>
					<g transform="rotate(72,500.001,285.46654)">
						<g id="ray_1_">
							<path style="opacity:0.6204;fill:#17C0EB;stroke:#17C0EB;stroke-width:0.1287;enable-background:new    ;" d="M400.4,213.8
								l-3.3-0.8L360,228.4l38.2-11.8L400.4,213.8z"/>
							<path style="fill:#FFFFFF;" d="M365.5,226.4c0,0,0-0.1,0-0.1l-2.1,0.9l2.2-0.7C365.5,226.5,365.5,226.4,365.5,226.4z"/>
						</g>
					</g>
					<g transform="rotate(144,500.001,285.46654)">
						<g id="ray_2_">
							<path style="opacity:0.6204;fill:#17C0EB;stroke:#17C0EB;stroke-width:0.1287;enable-background:new    ;" d="M385,266.6
								l-0.4-3.7L360,228.4l21.9,36.7L385,266.6z"/>
							<path style="fill:#FFFFFF;" d="M363.4,233.5C363.4,233.5,363.4,233.5,363.4,233.5l-1.3-2L363.4,233.5
								C363.3,233.6,363.4,233.6,363.4,233.5z"/>
						</g>
					</g>
					<g transform="rotate(216,500.001,285.46654)">
						<g id="ray_3_">
							<path style="opacity:0.6204;fill:#17C0EB;stroke:#17C0EB;stroke-width:0.1287;enable-background:new    ;" d="M335,266.6
								l3.1-1.5l21.9-36.7l-24.6,34.5L335,266.6z"/>
							<path style="fill:#FFFFFF;" d="M356.6,233.5C356.6,233.6,356.7,233.6,356.6,233.5l1.3-2L356.6,233.5
								C356.6,233.5,356.6,233.5,356.6,233.5z"/>
						</g>
					</g>
					<g transform="rotate(288,500.001,285.46654)">
						<g id="ray_4_">
							<path style="opacity:0.6204;fill:#17C0EB;stroke:#17C0EB;stroke-width:0.1287;enable-background:new    ;" d="M319.6,213.8
								l2.3,2.8l38.2,11.8L322.9,213L319.6,213.8z"/>
							<path style="fill:#FFFFFF;" d="M354.5,226.4c0,0,0,0.1,0,0.1l2.2,0.7l-2.1-0.9C354.5,226.3,354.5,226.4,354.5,226.4z"/>
						</g>
					</g>
				</g>
				<g transform="rotate(8,500.001,285.46654)">
					<g id="rays5_1_">
						<g id="ray_5_">
							<path style="opacity:0.6204;fill:#17C0EB;stroke:#17C0EB;stroke-width:0.1287;enable-background:new    ;" d="M365.9,181.6
								l-2.1,3l-3.8,43.8l7.2-43.3L365.9,181.6z"/>
							<path style="fill:#FFFFFF;" d="M360.8,222C360.8,222,360.7,222,360.8,222l-0.3,2.5L360.8,222
								C360.9,222.1,360.8,222,360.8,222z"/>
						</g>
						<g transform="rotate(72,500.001,285.46654)">
							<g id="ray_6_">
								<path style="opacity:0.6204;fill:#17C0EB;stroke:#17C0EB;stroke-width:0.1287;enable-background:new    ;" d="M401.9,220.2
									l-3.2-1.3l-38.7,9.5l39.3-5.8L401.9,220.2z"/>
								<path style="fill:#FFFFFF;" d="M365.7,227.3c0,0,0-0.1,0-0.1l-2.2,0.5l2.2-0.3C365.7,227.3,365.7,227.3,365.7,227.3z"/>
							</g>
						</g>
						<g transform="rotate(144,500.001,285.46654)">
							<g id="ray_7_">
								<path style="opacity:0.6204;fill:#17C0EB;stroke:#17C0EB;stroke-width:0.1287;enable-background:new    ;" d="M380,270.1
									l0.1-3.8L360,228.4l17.1,39.7L380,270.1z"/>
								<path style="fill:#FFFFFF;" d="M362.7,234C362.7,234,362.8,234,362.7,234l-1.1-2.2L362.7,234
									C362.6,234.1,362.7,234,362.7,234z"/>
							</g>
						</g>
						<g transform="rotate(216,500.001,285.46654)">
							<g id="ray_8_">
								<path style="opacity:0.6204;fill:#17C0EB;stroke:#17C0EB;stroke-width:0.1287;enable-background:new    ;" d="M330.5,262.4
									l3.3-1l26.3-32.9l-28.7,30.3L330.5,262.4z"/>
								<path style="fill:#FFFFFF;" d="M356,233C356,233,356.1,233,356,233l1.6-1.8L356,233C356,232.9,356,232.9,356,233z"/>
							</g>
						</g>
						<g transform="rotate(288,500.001,285.46654)">
							<g id="ray_9_">
								<path style="opacity:0.6204;fill:#17C0EB;stroke:#17C0EB;stroke-width:0.1287;enable-background:new    ;" d="M321.8,207.7
									l1.9,3.1l36.3,17.6l-34.8-21L321.8,207.7z"/>
								<path style="fill:#FFFFFF;" d="M354.8,225.6C354.8,225.6,354.8,225.6,354.8,225.6l2,1.1L354.8,225.6
									C354.9,225.5,354.8,225.5,354.8,225.6z"/>
							</g>
						</g>
					</g>
				</g>
				<g transform="rotate(16,500.001,285.46654)">
					<g id="rays5_2_">
						<g id="ray_10_">
							<path style="opacity:0.6204;fill:#17C0EB;stroke:#17C0EB;stroke-width:0.1287;enable-background:new    ;" d="M371.7,183
								l-2.4,2.6l-9.3,42.8l12.5-41.8L371.7,183z"/>
							<path style="fill:#FFFFFF;" d="M361.6,222.2C361.6,222.2,361.5,222.2,361.6,222.2l-0.6,2.4L361.6,222.2
								C361.6,222.2,361.6,222.2,361.6,222.2z"/>
						</g>
						<g transform="rotate(72,500.001,285.46654)">
							<g id="ray_11_">
								<path style="opacity:0.6204;fill:#17C0EB;stroke:#17C0EB;stroke-width:0.1287;enable-background:new    ;" d="M402.5,226.7
									l-3-1.8l-39.5,3.4l39.6,0.3L402.5,226.7z"/>
								<path style="fill:#FFFFFF;" d="M365.8,228.2c0,0,0-0.1,0-0.1l-2.2,0.2l2.2,0C365.8,228.2,365.8,228.2,365.8,228.2z"/>
							</g>
						</g>
						<g transform="rotate(144,500.001,285.46654)">
							<g id="ray_12_">
								<path style="opacity:0.6204;fill:#17C0EB;stroke:#17C0EB;stroke-width:0.1287;enable-background:new    ;" d="M374.5,272.8
									l0.6-3.7L360,228.4l11.9,42L374.5,272.8z"/>
								<path style="fill:#FFFFFF;" d="M362,234.4C362,234.4,362,234.4,362,234.4l-0.8-2.3L362,234.4
									C361.9,234.4,361.9,234.4,362,234.4z"/>
							</g>
						</g>
						<g transform="rotate(216,500.001,285.46654)">
							<g id="ray_13_">
								<path style="opacity:0.6204;fill:#17C0EB;stroke:#17C0EB;stroke-width:0.1287;enable-background:new    ;" d="M326.5,257.5
									l3.4-0.5l30.1-28.6L327.8,254L326.5,257.5z"/>
								<path style="fill:#FFFFFF;" d="M355.5,232.3C355.5,232.3,355.5,232.4,355.5,232.3l1.8-1.5L355.5,232.3
									C355.4,232.3,355.4,232.3,355.5,232.3z"/>
							</g>
						</g>
						<g transform="rotate(288,500.001,285.46654)">
							<g id="ray_14_">
								<path style="opacity:0.6204;fill:#17C0EB;stroke:#17C0EB;stroke-width:0.1287;enable-background:new    ;" d="M324.7,202
									l1.5,3.4l33.8,23l-31.9-26.2L324.7,202z"/>
								<path style="fill:#FFFFFF;" d="M355.2,224.8C355.2,224.8,355.2,224.9,355.2,224.8l1.9,1.4L355.2,224.8
									C355.3,224.7,355.2,224.8,355.2,224.8z"/>
							</g>
						</g>
					</g>
				</g>
				<g transform="rotate(24,500.001,285.46654)">
					<g id="rays5_3_">
						<g id="ray_15_">
							<path style="opacity:0.6204;fill:#17C0EB;stroke:#17C0EB;stroke-width:0.1287;enable-background:new    ;" d="M377.3,185.2
								l-2.7,2.2L360,228.4l17.7-39.4L377.3,185.2z"/>
							<path style="fill:#FFFFFF;" d="M362.3,222.5C362.3,222.5,362.3,222.5,362.3,222.5l-0.9,2.3L362.3,222.5
								C362.4,222.6,362.4,222.5,362.3,222.5z"/>
						</g>
						<g transform="rotate(72,500.001,285.46654)">
							<g id="ray_16_">
								<path style="opacity:0.6204;fill:#17C0EB;stroke:#17C0EB;stroke-width:0.1287;enable-background:new    ;" d="M402.3,233.3
									l-2.7-2.2l-39.5-2.7l39.2,6.5L402.3,233.3z"/>
								<path style="fill:#FFFFFF;" d="M365.7,229c0,0,0-0.1,0-0.1l-2.2-0.2l2.2,0.4C365.7,229.1,365.7,229.1,365.7,229z"/>
							</g>
						</g>
						<g transform="rotate(144,500.001,285.46654)">
							<g id="ray_17_">
								<path style="opacity:0.6204;fill:#17C0EB;stroke:#17C0EB;stroke-width:0.1287;enable-background:new    ;" d="M368.8,274.6
									l1-3.6l-9.9-42.6l6.6,43.4L368.8,274.6z"/>
								<path style="fill:#FFFFFF;" d="M361.2,234.6C361.2,234.6,361.3,234.6,361.2,234.6l-0.5-2.4L361.2,234.6
									C361.1,234.6,361.2,234.6,361.2,234.6z"/>
							</g>
						</g>
						<g transform="rotate(216,500.001,285.46654)">
							<g id="ray_18_">
								<path style="opacity:0.6204;fill:#17C0EB;stroke:#17C0EB;stroke-width:0.1287;enable-background:new    ;" d="M323.2,252
									h3.4l33.4-23.6l-35.1,20.4L323.2,252z"/>
								<path style="fill:#FFFFFF;" d="M355,231.6C355,231.6,355.1,231.6,355,231.6l1.9-1.2L355,231.6
									C355,231.5,355,231.5,355,231.6z"/>
							</g>
						</g>
						<g transform="rotate(288,500.001,285.46654)">
							<g id="ray_19_">
								<path style="opacity:0.6204;fill:#17C0EB;stroke:#17C0EB;stroke-width:0.1287;enable-background:new    ;" d="M328.4,196.8
									l1,3.6l30.6,28l-28.3-30.8L328.4,196.8z"/>
								<path style="fill:#FFFFFF;" d="M355.7,224.1C355.7,224.1,355.7,224.1,355.7,224.1l1.7,1.7L355.7,224.1
									C355.8,224,355.7,224.1,355.7,224.1z"/>
							</g>
						</g>
					</g>
				</g>
				<g transform="rotate(32,500.001,285.46654)">
					<g id="rays5_4_">
						<g id="ray_20_">
							<path style="opacity:0.6204;fill:#17C0EB;stroke:#17C0EB;stroke-width:0.1287;enable-background:new    ;" d="M382.5,188.3
								l-3,1.8L360,228.4l22.4-36.3L382.5,188.3z"/>
							<path style="fill:#FFFFFF;" d="M363,223C363,222.9,363,222.9,363,223l-1.2,2.1L363,223C363.1,223,363.1,223,363,223z"/>
						</g>
						<g transform="rotate(72,500.001,285.46654)">
							<g id="ray_21_">
								<path style="opacity:0.6204;fill:#17C0EB;stroke:#17C0EB;stroke-width:0.1287;enable-background:new    ;" d="M401.3,239.8
									l-2.4-2.6l-38.8-8.8l38,12.5L401.3,239.8z"/>
								<path style="fill:#FFFFFF;" d="M365.6,229.9c0,0,0-0.1,0-0.1l-2.2-0.5l2.2,0.7C365.6,230,365.6,230,365.6,229.9z"/>
							</g>
						</g>
						<g transform="rotate(144,500.001,285.46654)">
							<g id="ray_22_">
								<path style="opacity:0.6204;fill:#17C0EB;stroke:#17C0EB;stroke-width:0.1287;enable-background:new    ;" d="M363,275.5
									l1.5-3.4l-4.5-43.7l1.1,44L363,275.5z"/>
								<path style="fill:#FFFFFF;" d="M360.4,234.8C360.4,234.7,360.5,234.7,360.4,234.8l-0.2-2.5L360.4,234.8
									C360.3,234.8,360.4,234.8,360.4,234.8z"/>
							</g>
						</g>
						<g transform="rotate(216,500.001,285.46654)">
							<g id="ray_23_">
								<path style="opacity:0.6204;fill:#17C0EB;stroke:#17C0EB;stroke-width:0.1287;enable-background:new    ;" d="M320.6,246.1
									l3.4,0.5l36.1-18.2l-37.3,14.7L320.6,246.1z"/>
								<path style="fill:#FFFFFF;" d="M354.7,230.8C354.7,230.8,354.7,230.8,354.7,230.8l2.1-0.9L354.7,230.8
									C354.6,230.7,354.7,230.7,354.7,230.8z"/>
							</g>
						</g>
						<g transform="rotate(288,500.001,285.46654)">
							<g id="ray_24_">
								<path style="opacity:0.6204;fill:#17C0EB;stroke:#17C0EB;stroke-width:0.1287;enable-background:new    ;" d="M332.7,192.2
									l0.6,3.7l26.7,32.5l-24.1-34.9L332.7,192.2z"/>
								<path style="fill:#FFFFFF;" d="M356.3,223.5C356.3,223.5,356.3,223.5,356.3,223.5l1.4,1.9L356.3,223.5
									C356.4,223.4,356.3,223.5,356.3,223.5z"/>
							</g>
						</g>
					</g>
				</g>
				<g transform="rotate(40,500.001,285.46654)">
					<g id="rays5_5_">
						<g id="ray_25_">
							<path style="opacity:0.6204;fill:#17C0EB;stroke:#17C0EB;stroke-width:0.1287;enable-background:new    ;" d="M387.3,192.2
								l-3.2,1.3L360,228.4l26.7-32.5L387.3,192.2z"/>
							<path style="fill:#FFFFFF;" d="M363.7,223.5C363.7,223.5,363.6,223.4,363.7,223.5l-1.4,1.9L363.7,223.5
								C363.7,223.5,363.7,223.5,363.7,223.5z"/>
						</g>
						<g transform="rotate(72,500.001,285.46654)">
							<g id="ray_26_">
								<path style="opacity:0.6204;fill:#17C0EB;stroke:#17C0EB;stroke-width:0.1287;enable-background:new    ;" d="M399.4,246.1
									l-2.1-3L360,228.4l36.1,18.2L399.4,246.1z"/>
								<path style="fill:#FFFFFF;" d="M365.3,230.8C365.3,230.7,365.4,230.7,365.3,230.8l-2.1-0.9L365.3,230.8
									C365.3,230.8,365.3,230.8,365.3,230.8z"/>
							</g>
						</g>
						<g transform="rotate(144,500.001,285.46654)">
							<g id="ray_27_">
								<path style="opacity:0.6204;fill:#17C0EB;stroke:#17C0EB;stroke-width:0.1287;enable-background:new    ;" d="M357,275.5
									l1.9-3.1l1.1-44l-4.5,43.7L357,275.5z"/>
								<path style="fill:#FFFFFF;" d="M359.6,234.8C359.6,234.8,359.7,234.8,359.6,234.8l0.2-2.5L359.6,234.8
									C359.5,234.7,359.6,234.7,359.6,234.8z"/>
							</g>
						</g>
						<g transform="rotate(216,500.001,285.46654)">
							<g id="ray_28_">
								<path style="opacity:0.6204;fill:#17C0EB;stroke:#17C0EB;stroke-width:0.1287;enable-background:new    ;" d="M318.7,239.8
									l3.3,1l38-12.5l-38.8,8.8L318.7,239.8z"/>
								<path style="fill:#FFFFFF;" d="M354.4,229.9c0,0,0,0.1,0,0.1l2.2-0.7l-2.2,0.5C354.4,229.9,354.4,229.9,354.4,229.9z"/>
							</g>
						</g>
						<g transform="rotate(288,500.001,285.46654)">
							<g id="ray_29_">
								<path style="opacity:0.6204;fill:#17C0EB;stroke:#17C0EB;stroke-width:0.1287;enable-background:new    ;" d="M337.5,188.3
									l0.1,3.8l22.4,36.3l-19.5-38.3L337.5,188.3z"/>
								<path style="fill:#FFFFFF;" d="M357,223C356.9,223,356.9,223,357,223l1.2,2.1L357,223C357,222.9,357,222.9,357,223z"/>
							</g>
						</g>
					</g>
				</g>
				<g transform="rotate(48,500.001,285.46654)">
					<g id="rays5_6_">
						<g id="ray_30_">
							<path style="opacity:0.6204;fill:#17C0EB;stroke:#17C0EB;stroke-width:0.1287;enable-background:new    ;" d="M391.6,196.8
								l-3.3,0.8L360,228.4l30.6-28L391.6,196.8z"/>
							<path style="fill:#FFFFFF;" d="M364.3,224.1C364.3,224.1,364.2,224,364.3,224.1l-1.7,1.7L364.3,224.1
								C364.3,224.1,364.3,224.1,364.3,224.1z"/>
						</g>
						<g transform="rotate(72,500.001,285.46654)">
							<g id="ray_31_">
								<path style="opacity:0.6204;fill:#17C0EB;stroke:#17C0EB;stroke-width:0.1287;enable-background:new    ;" d="M396.8,252
									l-1.7-3.3L360,228.4l33.4,23.6L396.8,252z"/>
								<path style="fill:#FFFFFF;" d="M365,231.6C365,231.5,365,231.5,365,231.6l-1.9-1.2L365,231.6C365,231.6,365,231.6,365,231.6
									z"/>
							</g>
						</g>
						<g transform="rotate(144,500.001,285.46654)">
							<g id="ray_32_">
								<path style="opacity:0.6204;fill:#17C0EB;stroke:#17C0EB;stroke-width:0.1287;enable-background:new    ;" d="M351.2,274.6
									l2.3-2.8l6.6-43.4l-9.9,42.6L351.2,274.6z"/>
								<path style="fill:#FFFFFF;" d="M358.8,234.6C358.8,234.6,358.9,234.6,358.8,234.6l0.5-2.4L358.8,234.6
									C358.7,234.6,358.8,234.6,358.8,234.6z"/>
							</g>
						</g>
						<g transform="rotate(216,500.001,285.46654)">
							<g id="ray_33_">
								<path style="opacity:0.6204;fill:#17C0EB;stroke:#17C0EB;stroke-width:0.1287;enable-background:new    ;" d="M317.7,233.3
									l3.1,1.5l39.2-6.5l-39.5,2.7L317.7,233.3z"/>
								<path style="fill:#FFFFFF;" d="M354.3,229c0,0,0,0.1,0,0.1l2.2-0.4l-2.2,0.2C354.3,229,354.3,229,354.3,229z"/>
							</g>
						</g>
						<g transform="rotate(288,500.001,285.46654)">
							<g id="ray_34_">
								<path style="opacity:0.6204;fill:#17C0EB;stroke:#17C0EB;stroke-width:0.1287;enable-background:new    ;" d="M342.7,185.2
									l-0.4,3.7l17.7,39.4l-14.5-40.9L342.7,185.2z"/>
								<path style="fill:#FFFFFF;" d="M357.7,222.5C357.6,222.5,357.6,222.6,357.7,222.5l0.9,2.3L357.7,222.5
									C357.7,222.5,357.7,222.5,357.7,222.5z"/>
							</g>
						</g>
					</g>
				</g>
				<g transform="rotate(56,500.001,285.46654)">
					<g id="rays5_7_">
						<g id="ray_35_">
							<path style="opacity:0.6204;fill:#17C0EB;stroke:#17C0EB;stroke-width:0.1287;enable-background:new    ;" d="M395.3,202
								l-3.4,0.3L360,228.4l33.8-23L395.3,202z"/>
							<path style="fill:#FFFFFF;" d="M364.8,224.8C364.8,224.8,364.7,224.7,364.8,224.8l-1.9,1.4L364.8,224.8
								C364.8,224.9,364.8,224.8,364.8,224.8z"/>
						</g>
						<g transform="rotate(72,500.001,285.46654)">
							<g id="ray_36_">
								<path style="opacity:0.6204;fill:#17C0EB;stroke:#17C0EB;stroke-width:0.1287;enable-background:new    ;" d="M393.5,257.5
									l-1.3-3.5L360,228.4l30.1,28.6L393.5,257.5z"/>
								<path style="fill:#FFFFFF;" d="M364.5,232.3C364.6,232.3,364.6,232.3,364.5,232.3l-1.8-1.5L364.5,232.3
									C364.5,232.4,364.5,232.3,364.5,232.3z"/>
							</g>
						</g>
						<g transform="rotate(144,500.001,285.46654)">
							<g id="ray_37_">
								<path style="opacity:0.6204;fill:#17C0EB;stroke:#17C0EB;stroke-width:0.1287;enable-background:new    ;" d="M345.5,272.8
									l2.6-2.4l11.9-42l-15.1,40.7L345.5,272.8z"/>
								<path style="fill:#FFFFFF;" d="M358,234.4C358.1,234.4,358.1,234.4,358,234.4l0.8-2.3L358,234.4
									C358,234.4,358,234.4,358,234.4z"/>
							</g>
						</g>
						<g transform="rotate(216,500.001,285.46654)">
							<g id="ray_38_">
								<path style="opacity:0.6204;fill:#17C0EB;stroke:#17C0EB;stroke-width:0.1287;enable-background:new    ;" d="M317.5,226.7
									l2.9,2l39.6-0.3l-39.5-3.4L317.5,226.7z"/>
								<path style="fill:#FFFFFF;" d="M354.3,228.2c0,0,0,0.1,0,0.1l2.2,0l-2.2-0.2C354.3,228.1,354.3,228.1,354.3,228.2z"/>
							</g>
						</g>
						<g transform="rotate(288,500.001,285.46654)">
							<g id="ray_39_">
								<path style="opacity:0.6204;fill:#17C0EB;stroke:#17C0EB;stroke-width:0.1287;enable-background:new    ;" d="M348.3,183
									l-0.8,3.7l12.5,41.8l-9.3-42.8L348.3,183z"/>
								<path style="fill:#FFFFFF;" d="M358.4,222.2C358.4,222.2,358.4,222.2,358.4,222.2l0.6,2.4L358.4,222.2
									C358.5,222.2,358.4,222.2,358.4,222.2z"/>
							</g>
						</g>
					</g>
				</g>
				<g transform="rotate(64,500.001,285.46654)">
					<g id="rays5_8_">
						<g id="ray_40_">
							<path style="opacity:0.6204;fill:#17C0EB;stroke:#17C0EB;stroke-width:0.1287;enable-background:new    ;" d="M398.2,207.7
								l-3.4-0.3l-34.8,21l36.3-17.6L398.2,207.7z"/>
							<path style="fill:#FFFFFF;" d="M365.2,225.6C365.2,225.5,365.1,225.5,365.2,225.6l-2,1.1L365.2,225.6
								C365.2,225.6,365.2,225.6,365.2,225.6z"/>
						</g>
						<g transform="rotate(72,500.001,285.46654)">
							<g id="ray_41_">
								<path style="opacity:0.6204;fill:#17C0EB;stroke:#17C0EB;stroke-width:0.1287;enable-background:new    ;" d="M389.5,262.4
									l-0.8-3.7L360,228.4l26.3,32.9L389.5,262.4z"/>
								<path style="fill:#FFFFFF;" d="M364,233C364,232.9,364,232.9,364,233l-1.6-1.8L364,233C364,233,364,233,364,233z"/>
							</g>
						</g>
						<g transform="rotate(144,500.001,285.46654)">
							<g id="ray_42_">
								<path style="opacity:0.6204;fill:#17C0EB;stroke:#17C0EB;stroke-width:0.1287;enable-background:new    ;" d="M340,270.1
									l2.9-2l17.1-39.7l-20.1,37.9L340,270.1z"/>
								<path style="fill:#FFFFFF;" d="M357.3,234C357.3,234,357.4,234.1,357.3,234l1.1-2.2L357.3,234
									C357.2,234,357.3,234,357.3,234z"/>
							</g>
						</g>
						<g transform="rotate(216,500.001,285.46654)">
							<g id="ray_43_">
								<path style="opacity:0.6204;fill:#17C0EB;stroke:#17C0EB;stroke-width:0.1287;enable-background:new    ;" d="M318.1,220.2
									l2.6,2.4l39.3,5.8l-38.7-9.5L318.1,220.2z"/>
								<path style="fill:#FFFFFF;" d="M354.3,227.3c0,0,0,0.1,0,0.1l2.2,0.3l-2.2-0.5C354.3,227.2,354.3,227.2,354.3,227.3z"/>
							</g>
						</g>
						<g transform="rotate(288,500.001,285.46654)">
							<g id="ray_44_">
								<path style="opacity:0.6204;fill:#17C0EB;stroke:#17C0EB;stroke-width:0.1287;enable-background:new    ;" d="M354.1,181.6
									l-1.3,3.5l7.2,43.3l-3.8-43.8L354.1,181.6z"/>
								<path style="fill:#FFFFFF;" d="M359.2,222C359.2,222,359.1,222.1,359.2,222l0.3,2.5L359.2,222
									C359.3,222,359.2,222,359.2,222z"/>
							</g>
						</g>
					</g>
				</g>
			</g>
			<g id="rainbow">
				<path style="fill:#FF0000;" d="M360,212.7c-8,0-15.3,3.2-20.9,8.6l-10.6,20.3c-0.4,2.1-0.5,4.3-0.5,6.6h3.6
					c0-17.4,12.7-31.5,28.3-31.5c15.6,0,28.3,14.1,28.3,31.5h3.6c0-2.3-0.2-4.5-0.5-6.6l-10.6-20.3C375.3,215.9,368,212.7,360,212.7
					L360,212.7z"/>
				<path style="fill:#FF6600;" d="M360,213.3c-8.5,0-16.2,3.7-21.8,9.8l-8.7,16.7c-0.6,2.7-0.9,5.5-0.9,8.4h3.1
					c0-17.4,12.7-31.5,28.3-31.5c15.6,0,28.3,14.1,28.3,31.5h3.1c0-2.9-0.3-5.7-0.9-8.4l-8.7-16.7
					C376.2,217.1,368.5,213.3,360,213.3L360,213.3z"/>
				<path style="fill:#FFFF00;" d="M360,214c-9.1,0-17.4,4.4-23,11.5l-6.3,12.1c-1,3.4-1.5,7-1.5,10.7h2.5
					c0-17.4,12.7-31.5,28.3-31.5c15.6,0,28.3,14.1,28.3,31.5h2.5c0-3.7-0.5-7.3-1.5-10.7l-6.3-12.1C377.4,218.4,369.1,214,360,214
					L360,214z"/>
				<path style="fill:#00FF00;" d="M360,214.6c-10.5,0-19.7,5.9-25.1,14.9l-2,3.9c-2,4.5-3.1,9.5-3.1,14.8h1.9
					c0-17.4,12.7-31.5,28.3-31.5c15.6,0,28.3,14.1,28.3,31.5h1.9c0-5.3-1.1-10.3-3.1-14.8l-2-3.9C379.7,220.5,370.5,214.6,360,214.6
					L360,214.6z"/>
				<path style="fill:#00CCFF;" d="M360,215.2c-16.4,0-29.7,14.8-29.7,33h1.3c0-17.4,12.7-31.5,28.3-31.5
					c15.6,0,28.3,14.1,28.3,31.5h1.3C389.7,230,376.4,215.2,360,215.2L360,215.2z"/>
				<path style="fill:#0000FF;" d="M360,215.9c-16.1,0-29.1,14.5-29.1,32.3h1c0-17.2,12.6-31.2,28.1-31.2c15.5,0,28.1,14,28.1,31.2
					h1C389.1,230.4,376.1,215.9,360,215.9L360,215.9z"/>
				<path style="fill:#800080;" d="M360,216.5c-15.7,0-28.5,14.2-28.5,31.7c0,0.2,0,0.4,0,0.6h0.6c0-0.2,0-0.4,0-0.6
					c0-17.1,12.5-31,27.9-31c15.4,0,27.9,13.9,27.9,31c0,0.2,0,0.4,0,0.6h0.6c0-0.2,0-0.4,0-0.6C388.5,230.7,375.7,216.5,360,216.5
					L360,216.5z"/>
			</g>
			<g id="cap">
				<path style="fill:#510000;" d="M360.3,230.5c-0.5-0.1-0.9-0.4-1.3-0.5c-0.5,0.6-0.6,1.2-0.5,1.7c0.2,0.1,0.2,0.3,0.6,0.7
					s0.4,0.6,0.3,1.6c0,0.4,0.1,1.3,0.4,1.3c0.4,0.1,0.7-0.3,0.8-0.9c0.1-0.6,0.3-1,0.5-1.4C361.4,231.5,361,231,360.3,230.5z"/>
				<path style="fill:#FF0000;" d="M358,226.8c-0.4,0-1.1,0.8-1.4,0.4c-0.2-0.2-0.2-0.7,0-1.1c0.4-0.9,0.8-1.4,1.6-1.9
					c1.7-1.1,2.8-0.8,3.7,0.9c0.8,1.4,1.5,3,1.6,4.3c0,0.4,0.2,1.1-0.1,1.5c-1,1.1-3.3-1.1-4.7-0.8c-0.5,0.1-1,0.5-1.4,0.2
					c-0.3-0.2-0.1-0.8,0.2-1c0.4-0.4,1.1-1.9,1-2.5C358.3,226.3,358.3,226.8,358,226.8L358,226.8z"/>
				
					<linearGradient id="SVGID_3_" gradientUnits="userSpaceOnUse" x1="359.5561" y1="248.4589" x2="361.0732" y2="252.9869" gradientTransform="matrix(1 0 0 -1 0 479.89)">
					<stop  offset="0" style="stop-color:#510000"/>
					<stop  offset="0.3" style="stop-color:#8A0000"/>
					<stop  offset="1" style="stop-color:#AA0000"/>
				</linearGradient>
				<path style="fill:url(#SVGID_3_);" d="M357.8,226c-0.8,0.4-0.7,0.9-1.1,1.3c0.1,0,0.6,0.2,1-0.2c0.2-0.2,0.4-0.2,0.5-0.3
					c-0.2,0.2-0.4,0.4-0.5,0.5c-0.3,0.3-0.7,0.9-1,1.5c-0.2,0.6-0.3,1.3-0.3,1.4c0,0.1,0.3,0.6,1.1,1c1.5,0.6,1.7,2,3.2,2
					c1.2,0,1-0.8,1.9-0.7c0.8,0.2,1.2-0.6,0.5-1c-1-0.4-2.9-0.2-3.9,0c-0.3-3.3,0-2.1-0.1-3.5c-0.1-1.4-0.4-1.5,0.1-2.6
					C358.8,226.1,358.3,226,357.8,226L357.8,226z"/>
				<path style="fill:#FF2A2A;" d="M360.7,223.8c0,0.2-0.1,0.4,0,0.5c0.1,0.3,0.1,0.6,0.2,0.8c0.1,0.3,0.1,0.5,0.2,0.7
					c0.1,0.3,0.3,0.4,0.5,0.6c0.3,0.2,0.1,0.8,0.2,0.9c0.1,0,0.4-0.9,0.4-1c0-0.2,0-0.3,0-0.5c-0.1-0.2-0.2-0.5-0.3-0.7c0,0,0,0,0,0
					c0-0.1-0.1-0.2-0.1-0.3c-0.2-0.3-0.3-0.5-0.6-0.7c0,0,0,0,0,0c-0.1-0.1-0.1-0.1-0.2-0.1C360.8,223.9,360.7,223.9,360.7,223.8
					L360.7,223.8z"/>
				
					<linearGradient id="SVGID_4_" gradientUnits="userSpaceOnUse" x1="359.4534" y1="247.3716" x2="360.6143" y2="250.4432" gradientTransform="matrix(1 0 0 -1 0 479.89)">
					<stop  offset="0" style="stop-color:#FF2A2A"/>
					<stop  offset="1" style="stop-color:#FF0000"/>
				</linearGradient>
				<path style="fill:url(#SVGID_4_);" d="M360.9,229.9c-0.5-0.2-1-0.4-1.5-0.6c-0.9-0.3-1.8-0.9-2.4-0.7c-0.2,0.1-0.2,0.4-0.3,0.7
					c0,0.4-0.4,1.1-0.1,0.8c0.5-0.3,1.8,0.6,2.2,0.9c0.2,0.1,0.6,0.4,0.8,0.8c0.1,0.4,0.1,1.4,0,1.8c0,0.5,0.1,1.5,0.5,1.6
					c0.4,0.1,0.8-0.3,0.9-1c0.2-0.7,0.3-1.1,0.5-1.5c0.3-0.4,0.5-0.6,1-0.7c0.4-0.1,1,0.4,1-0.2c0-0.3-0.3-0.7-0.2-1.2
					c0.1-0.4-0.3-0.3-0.6-0.5C362.1,230.1,361.4,230.1,360.9,229.9L360.9,229.9z"/>
				<path style="fill:#910000;" d="M358.8,231.1c-0.2-0.1-1.7-1.2-2.2-0.9c-0.2,0.1-0.2,0-0.2-0.2c0-0.2,0.1-0.5,0.1-0.7
					c0.1-0.2,0.1-0.6,0.4-0.8c0.5-0.5,1.6,0.5,2.2,0.7C359.1,229.6,358.8,231.1,358.8,231.1L358.8,231.1z"/>
				<path style="fill:#FF3A3A;" d="M361.3,233.1c0.7-1.3,1.1-1.1,1.9-1.1c0.3,0,0.3-0.3,0.3-0.5c-0.2,0.5-1.2-0.1-1.7,0.2
					c-1.1,0.6-0.9,3-1.5,3.3C360.8,235.4,361,233.5,361.3,233.1L361.3,233.1z"/>
			</g>
			<g id="seab">
				<path style="fill:#FFFFFF;" d="M326.2,246.1l-7.2,13.8h81.9l-7.2-13.8H326.2L326.2,246.1z"/>
				<g id="wavesb3">
					
						<linearGradient id="waveb1_9_" gradientUnits="userSpaceOnUse" x1="320.0461" y1="222.2719" x2="456.7756" y2="222.2719" gradientTransform="matrix(1 0 0 -1 0 479.89)">
						<stop  offset="0" style="stop-color:#002255"/>
						<stop  offset="0.5" style="stop-color:#0044AA"/>
						<stop  offset="1" style="stop-color:#002255"/>
					</linearGradient>
					<path id="waveb1" style="fill:url(#waveb1_9_);" d="M323.8,257.1c-1.2,0-2.3,0.1-3.4,0.3l-0.4,0.7c1.8-0.2,3.4-0.5,5.1-0.6
						c2.4,0.1,4.5,0.7,7,0.7c1.1,0,2.2,0,3.3,0c2.5,0,4.7-0.6,7-0.7c2.4,0.1,4.5,0.7,7.1,0.7c1.1,0,2.3,0,3.3,0c2.5,0,4.7-0.6,7-0.7
						c2.4,0.1,4.5,0.7,7,0.7c1.1,0,2.2,0,3.3,0c2.5,0,4.7-0.6,7-0.7c2.4,0.1,4.5,0.7,7,0.7c1.1,0,2.2,0,3.3,0c2.5,0,4.7-0.6,7-0.7
						c1.8,0,3.5,0.4,5.4,0.6l-0.4-0.7c-1-0.1-2-0.3-3.1-0.3c-1.1,0-2.2,0-3.3,0c-2.5,0-4.7,0.6-7,0.7c-2.4-0.1-4.5-0.7-7-0.7
						c-1.1,0-2.2,0-3.3,0c-2.5,0-4.7,0.6-7,0.7c-2.4-0.1-4.5-0.7-7-0.7c-1.1,0-2.2,0-3.3,0c-2.5,0-4.7,0.6-7,0.7
						c-2.4-0.1-4.5-0.7-7-0.7c-1.1,0-2.2,0-3.3,0c-2.5,0-4.7,0.6-7,0.7c-2.4-0.1-4.5-0.7-7-0.7C326,257.1,324.9,257.1,323.8,257.1
						L323.8,257.1z"/>
					<g>
						
							<linearGradient id="waveb1_10_" gradientUnits="userSpaceOnUse" x1="320.0461" y1="222.0492" x2="456.7756" y2="222.0492" gradientTransform="matrix(1 0 0 -1 0 478.7767)">
							<stop  offset="0" style="stop-color:#002255"/>
							<stop  offset="0.5" style="stop-color:#0044AA"/>
							<stop  offset="1" style="stop-color:#002255"/>
						</linearGradient>
						<path id="waveb1_1_" style="fill:url(#waveb1_10_);" d="M323.8,256.2c-1.2,0-2.3,0.1-3.4,0.3l-0.4,0.7
							c1.8-0.2,3.4-0.5,5.1-0.6c2.4,0.1,4.5,0.7,7,0.7c1.1,0,2.2,0,3.3,0c2.5,0,4.7-0.6,7-0.7c2.4,0.1,4.5,0.7,7.1,0.7
							c1.1,0,2.3,0,3.3,0c2.5,0,4.7-0.6,7-0.7c2.4,0.1,4.5,0.7,7,0.7c1.1,0,2.2,0,3.3,0c2.5,0,4.7-0.6,7-0.7c2.4,0.1,4.5,0.7,7,0.7
							c1.1,0,2.2,0,3.3,0c2.5,0,4.7-0.6,7-0.7c1.8,0,3.5,0.4,5.4,0.6l-0.4-0.7c-1-0.1-2-0.3-3.1-0.3c-1.1,0-2.2,0-3.3,0
							c-2.5,0-4.7,0.6-7,0.7c-2.4-0.1-4.5-0.7-7-0.7c-1.1,0-2.2,0-3.3,0c-2.5,0-4.7,0.6-7,0.7c-2.4-0.1-4.5-0.7-7-0.7
							c-1.1,0-2.2,0-3.3,0c-2.5,0-4.7,0.6-7,0.7c-2.4-0.1-4.5-0.7-7-0.7c-1.1,0-2.2,0-3.3,0c-2.5,0-4.7,0.6-7,0.7
							c-2.4-0.1-4.5-0.7-7-0.7C326,256.2,324.9,256.2,323.8,256.2L323.8,256.2z"/>
					</g>
					<g>
						
							<linearGradient id="waveb1_11_" gradientUnits="userSpaceOnUse" x1="320.0461" y1="221.8258" x2="456.7756" y2="221.8258" gradientTransform="matrix(1 0 0 -1 0 477.6595)">
							<stop  offset="0" style="stop-color:#002255"/>
							<stop  offset="0.5" style="stop-color:#0044AA"/>
							<stop  offset="1" style="stop-color:#002255"/>
						</linearGradient>
						<path id="waveb1_2_" style="fill:url(#waveb1_11_);" d="M323.8,255.3c-1.2,0-2.3,0.1-3.4,0.3l-0.4,0.7
							c1.8-0.2,3.4-0.5,5.1-0.6c2.4,0.1,4.5,0.7,7,0.7c1.1,0,2.2,0,3.3,0c2.5,0,4.7-0.6,7-0.7c2.4,0.1,4.5,0.7,7.1,0.7
							c1.1,0,2.3,0,3.3,0c2.5,0,4.7-0.6,7-0.7c2.4,0.1,4.5,0.7,7,0.7c1.1,0,2.2,0,3.3,0c2.5,0,4.7-0.6,7-0.7c2.4,0.1,4.5,0.7,7,0.7
							c1.1,0,2.2,0,3.3,0c2.5,0,4.7-0.6,7-0.7c1.8,0,3.5,0.4,5.4,0.6l-0.4-0.7c-1-0.1-2-0.3-3.1-0.3c-1.1,0-2.2,0-3.3,0
							c-2.5,0-4.7,0.6-7,0.7c-2.4-0.1-4.5-0.7-7-0.7c-1.1,0-2.2,0-3.3,0c-2.5,0-4.7,0.6-7,0.7c-2.4-0.1-4.5-0.7-7-0.7
							c-1.1,0-2.2,0-3.3,0c-2.5,0-4.7,0.6-7,0.7c-2.4-0.1-4.5-0.7-7-0.7c-1.1,0-2.2,0-3.3,0c-2.5,0-4.7,0.6-7,0.7
							c-2.4-0.1-4.5-0.7-7-0.7C326,255.3,324.9,255.3,323.8,255.3L323.8,255.3z"/>
					</g>
				</g>
				<g>
					<g id="wavesb3_1_">
						
							<linearGradient id="waveb1_12_" gradientUnits="userSpaceOnUse" x1="320.0461" y1="221.6031" x2="456.7756" y2="221.6031" gradientTransform="matrix(1 0 0 -1 0 476.5462)">
							<stop  offset="0" style="stop-color:#002255"/>
							<stop  offset="0.5" style="stop-color:#0044AA"/>
							<stop  offset="1" style="stop-color:#002255"/>
						</linearGradient>
						<path id="waveb1_3_" style="fill:url(#waveb1_12_);" d="M323.8,254.4c-1.2,0-2.3,0.1-3.4,0.3l-0.4,0.7
							c1.8-0.2,3.4-0.5,5.1-0.6c2.4,0.1,4.5,0.7,7,0.7c1.1,0,2.2,0,3.3,0c2.5,0,4.7-0.6,7-0.7c2.4,0.1,4.5,0.7,7.1,0.7
							c1.1,0,2.3,0,3.3,0c2.5,0,4.7-0.6,7-0.7c2.4,0.1,4.5,0.7,7,0.7c1.1,0,2.2,0,3.3,0c2.5,0,4.7-0.6,7-0.7c2.4,0.1,4.5,0.7,7,0.7
							c1.1,0,2.2,0,3.3,0c2.5,0,4.7-0.6,7-0.7c1.8,0,3.5,0.4,5.4,0.6l-0.4-0.7c-1-0.1-2-0.3-3.1-0.3c-1.1,0-2.2,0-3.3,0
							c-2.5,0-4.7,0.6-7,0.7c-2.4-0.1-4.5-0.7-7-0.7c-1.1,0-2.2,0-3.3,0c-2.5,0-4.7,0.6-7,0.7c-2.4-0.1-4.5-0.7-7-0.7
							c-1.1,0-2.2,0-3.3,0c-2.5,0-4.7,0.6-7,0.7c-2.4-0.1-4.5-0.7-7-0.7c-1.1,0-2.2,0-3.3,0c-2.5,0-4.7,0.6-7,0.7
							c-2.4-0.1-4.5-0.7-7-0.7C326,254.4,324.9,254.4,323.8,254.4L323.8,254.4z"/>
						<g>
							
								<linearGradient id="waveb1_13_" gradientUnits="userSpaceOnUse" x1="320.0461" y1="221.3805" x2="456.7756" y2="221.3805" gradientTransform="matrix(1 0 0 -1 0 475.433)">
								<stop  offset="0" style="stop-color:#002255"/>
								<stop  offset="0.5" style="stop-color:#0044AA"/>
								<stop  offset="1" style="stop-color:#002255"/>
							</linearGradient>
							<path id="waveb1_4_" style="fill:url(#waveb1_13_);" d="M323.8,253.5c-1.2,0-2.3,0.1-3.4,0.3l-0.4,0.7
								c1.8-0.2,3.4-0.5,5.1-0.6c2.4,0.1,4.5,0.7,7,0.7c1.1,0,2.2,0,3.3,0c2.5,0,4.7-0.6,7-0.7c2.4,0.1,4.5,0.7,7.1,0.7
								c1.1,0,2.3,0,3.3,0c2.5,0,4.7-0.6,7-0.7c2.4,0.1,4.5,0.7,7,0.7c1.1,0,2.2,0,3.3,0c2.5,0,4.7-0.6,7-0.7c2.4,0.1,4.5,0.7,7,0.7
								c1.1,0,2.2,0,3.3,0c2.5,0,4.7-0.6,7-0.7c1.8,0,3.5,0.4,5.4,0.6l-0.4-0.7c-1-0.1-2-0.3-3.1-0.3c-1.1,0-2.2,0-3.3,0
								c-2.5,0-4.7,0.6-7,0.7c-2.4-0.1-4.5-0.7-7-0.7c-1.1,0-2.2,0-3.3,0c-2.5,0-4.7,0.6-7,0.7c-2.4-0.1-4.5-0.7-7-0.7
								c-1.1,0-2.2,0-3.3,0c-2.5,0-4.7,0.6-7,0.7c-2.4-0.1-4.5-0.7-7-0.7c-1.1,0-2.2,0-3.3,0c-2.5,0-4.7,0.6-7,0.7
								c-2.4-0.1-4.5-0.7-7-0.7C326,253.5,324.9,253.6,323.8,253.5L323.8,253.5z"/>
						</g>
						<g>
							
								<linearGradient id="waveb1_14_" gradientUnits="userSpaceOnUse" x1="320.0461" y1="221.1571" x2="456.7756" y2="221.1571" gradientTransform="matrix(1 0 0 -1 0 474.3158)">
								<stop  offset="0" style="stop-color:#002255"/>
								<stop  offset="0.5" style="stop-color:#0044AA"/>
								<stop  offset="1" style="stop-color:#002255"/>
							</linearGradient>
							<path id="waveb1_5_" style="fill:url(#waveb1_14_);" d="M323.8,252.6c-1.2,0-2.3,0.1-3.4,0.3l-0.4,0.7
								c1.8-0.2,3.4-0.5,5.1-0.6c2.4,0.1,4.5,0.7,7,0.7c1.1,0,2.2,0,3.3,0c2.5,0,4.7-0.6,7-0.7c2.4,0.1,4.5,0.7,7.1,0.7
								c1.1,0,2.3,0,3.3,0c2.5,0,4.7-0.6,7-0.7c2.4,0.1,4.5,0.7,7,0.7c1.1,0,2.2,0,3.3,0c2.5,0,4.7-0.6,7-0.7c2.4,0.1,4.5,0.7,7,0.7
								c1.1,0,2.2,0,3.3,0c2.5,0,4.7-0.6,7-0.7c1.8,0,3.5,0.4,5.4,0.6l-0.4-0.7c-1-0.1-2-0.3-3.1-0.3c-1.1,0-2.2,0-3.3,0
								c-2.5,0-4.7,0.6-7,0.7c-2.4-0.1-4.5-0.7-7-0.7c-1.1,0-2.2,0-3.3,0c-2.5,0-4.7,0.6-7,0.7c-2.4-0.1-4.5-0.7-7-0.7
								c-1.1,0-2.2,0-3.3,0c-2.5,0-4.7,0.6-7,0.7c-2.4-0.1-4.5-0.7-7-0.7c-1.1,0-2.2,0-3.3,0c-2.5,0-4.7,0.6-7,0.7
								c-2.4-0.1-4.5-0.7-7-0.7C326,252.6,324.9,252.7,323.8,252.6L323.8,252.6z"/>
						</g>
					</g>
				</g>
				<g>
					<g id="wavesb3_2_">
						
							<linearGradient id="waveb1_15_" gradientUnits="userSpaceOnUse" x1="320.0461" y1="220.9336" x2="456.7756" y2="220.9336" gradientTransform="matrix(1 0 0 -1 0 473.1986)">
							<stop  offset="0" style="stop-color:#002255"/>
							<stop  offset="0.5" style="stop-color:#0044AA"/>
							<stop  offset="1" style="stop-color:#002255"/>
						</linearGradient>
						<path id="waveb1_6_" style="fill:url(#waveb1_15_);" d="M323.8,251.7c-1.2,0-2.3,0.1-3.4,0.3l-0.4,0.7
							c1.8-0.2,3.4-0.5,5.1-0.6c2.4,0.1,4.5,0.7,7,0.7c1.1,0,2.2,0,3.3,0c2.5,0,4.7-0.6,7-0.7c2.4,0.1,4.5,0.7,7.1,0.7
							c1.1,0,2.3,0,3.3,0c2.5,0,4.7-0.6,7-0.7c2.4,0.1,4.5,0.7,7,0.7c1.1,0,2.2,0,3.3,0c2.5,0,4.7-0.6,7-0.7c2.4,0.1,4.5,0.7,7,0.7
							c1.1,0,2.2,0,3.3,0c2.5,0,4.7-0.6,7-0.7c1.8,0,3.5,0.4,5.4,0.6l-0.4-0.7c-1-0.1-2-0.3-3.1-0.3c-1.1,0-2.2,0-3.3,0
							c-2.5,0-4.7,0.6-7,0.7c-2.4-0.1-4.5-0.7-7-0.7c-1.1,0-2.2,0-3.3,0c-2.5,0-4.7,0.6-7,0.7c-2.4-0.1-4.5-0.7-7-0.7
							c-1.1,0-2.2,0-3.3,0c-2.5,0-4.7,0.6-7,0.7c-2.4-0.1-4.5-0.7-7-0.7c-1.1,0-2.2,0-3.3,0c-2.5,0-4.7,0.6-7,0.7
							c-2.4-0.1-4.5-0.7-7-0.7C326,251.7,324.9,251.8,323.8,251.7L323.8,251.7z"/>
						<g>
							
								<linearGradient id="waveb1_16_" gradientUnits="userSpaceOnUse" x1="320.0461" y1="220.711" x2="456.7756" y2="220.711" gradientTransform="matrix(1 0 0 -1 0 472.0853)">
								<stop  offset="0" style="stop-color:#002255"/>
								<stop  offset="0.5" style="stop-color:#0044AA"/>
								<stop  offset="1" style="stop-color:#002255"/>
							</linearGradient>
							<path id="waveb1_7_" style="fill:url(#waveb1_16_);" d="M323.8,250.8c-1.2,0-2.3,0.1-3.4,0.3l-0.4,0.7
								c1.8-0.2,3.4-0.5,5.1-0.6c2.4,0.1,4.5,0.7,7,0.7c1.1,0,2.2,0,3.3,0c2.5,0,4.7-0.6,7-0.7c2.4,0.1,4.5,0.7,7.1,0.7
								c1.1,0,2.3,0,3.3,0c2.5,0,4.7-0.6,7-0.7c2.4,0.1,4.5,0.7,7,0.7c1.1,0,2.2,0,3.3,0c2.5,0,4.7-0.6,7-0.7c2.4,0.1,4.5,0.7,7,0.7
								c1.1,0,2.2,0,3.3,0c2.5,0,4.7-0.6,7-0.7c1.8,0,3.5,0.4,5.4,0.6l-0.4-0.7c-1-0.1-2-0.3-3.1-0.3c-1.1,0-2.2,0-3.3,0
								c-2.5,0-4.7,0.6-7,0.7c-2.4-0.1-4.5-0.7-7-0.7c-1.1,0-2.2,0-3.3,0c-2.5,0-4.7,0.6-7,0.7c-2.4-0.1-4.5-0.7-7-0.7
								c-1.1,0-2.2,0-3.3,0c-2.5,0-4.7,0.6-7,0.7c-2.4-0.1-4.5-0.7-7-0.7c-1.1,0-2.2,0-3.3,0c-2.5,0-4.7,0.6-7,0.7
								c-2.4-0.1-4.5-0.7-7-0.7C326,250.8,324.9,250.9,323.8,250.8L323.8,250.8z"/>
						</g>
						<g>
							
								<linearGradient id="waveb1_17_" gradientUnits="userSpaceOnUse" x1="320.0461" y1="220.4875" x2="456.7756" y2="220.4875" gradientTransform="matrix(1 0 0 -1 0 470.9681)">
								<stop  offset="0" style="stop-color:#002255"/>
								<stop  offset="0.5" style="stop-color:#0044AA"/>
								<stop  offset="1" style="stop-color:#002255"/>
							</linearGradient>
							<path id="waveb1_8_" style="fill:url(#waveb1_17_);" d="M323.8,250c-1.2,0-2.3,0.1-3.4,0.3l-0.4,0.7c1.8-0.2,3.4-0.5,5.1-0.6
								c2.4,0.1,4.5,0.7,7,0.7c1.1,0,2.2,0,3.3,0c2.5,0,4.7-0.6,7-0.7c2.4,0.1,4.5,0.7,7.1,0.7c1.1,0,2.3,0,3.3,0
								c2.5,0,4.7-0.6,7-0.7c2.4,0.1,4.5,0.7,7,0.7c1.1,0,2.2,0,3.3,0c2.5,0,4.7-0.6,7-0.7c2.4,0.1,4.5,0.7,7,0.7c1.1,0,2.2,0,3.3,0
								c2.5,0,4.7-0.6,7-0.7c1.8,0,3.5,0.4,5.4,0.6l-0.4-0.7c-1-0.1-2-0.3-3.1-0.3c-1.1,0-2.2,0-3.3,0c-2.5,0-4.7,0.6-7,0.7
								c-2.4-0.1-4.5-0.7-7-0.7c-1.1,0-2.2,0-3.3,0c-2.5,0-4.7,0.6-7,0.7c-2.4-0.1-4.5-0.7-7-0.7c-1.1,0-2.2,0-3.3,0
								c-2.5,0-4.7,0.6-7,0.7c-2.4-0.1-4.5-0.7-7-0.7c-1.1,0-2.2,0-3.3,0c-2.5,0-4.7,0.6-7,0.7c-2.4-0.1-4.5-0.7-7-0.7
								C326,249.9,324.9,250,323.8,250L323.8,250z"/>
						</g>
					</g>
				</g>
				
					<linearGradient id="SVGID_5_" gradientUnits="userSpaceOnUse" x1="320.0465" y1="232.075" x2="456.7759" y2="232.075" gradientTransform="matrix(1 0 0 -1 0 479.89)">
					<stop  offset="0" style="stop-color:#002255"/>
					<stop  offset="0.5" style="stop-color:#0044AA"/>
					<stop  offset="1" style="stop-color:#002255"/>
				</linearGradient>
				<path style="fill:url(#SVGID_5_);" d="M326.3,246l-0.1,0.2h67.5l-0.1-0.2H326.3L326.3,246z M326.2,246.3l-0.1,0.2h67.8l-0.1-0.2
					H326.2z M326,246.5l-0.1,0.3h68.3l-0.1-0.3H326L326,246.5z M325.8,247l-0.2,0.3h68.8l-0.2-0.3H325.8L325.8,247z M325.5,247.5
					l-0.2,0.3h69.3l-0.2-0.3H325.5L325.5,247.5z M325.2,248.1l-0.2,0.3H395l-0.2-0.3H325.2L325.2,248.1z M324.9,248.6l-0.2,0.3h70.5
					l-0.2-0.3H324.9z M324.6,249.2l-0.2,0.4h71.2l-0.2-0.4H324.6L324.6,249.2z"/>
				
					<linearGradient id="SVGID_6_" gradientUnits="userSpaceOnUse" x1="320.0465" y1="229.9427" x2="456.7759" y2="229.9427" gradientTransform="matrix(1 0 0 -1 0 479.89)">
					<stop  offset="0" style="stop-color:#002255"/>
					<stop  offset="0.5" style="stop-color:#0044AA"/>
					<stop  offset="1" style="stop-color:#002255"/>
				</linearGradient>
				<path style="fill:url(#SVGID_6_);" d="M329.3,249.8c2.5,0.5,2.7,0,2.7,0H329.3z M388,249.8c0,0,0.2,0.5,2.7,0H388z"/>
			</g>
			<g id="mountains">
				<g id="mountain1">
					
						<linearGradient id="SVGID_7_" gradientUnits="userSpaceOnUse" x1="380.5025" y1="230.5228" x2="380.5025" y2="225.7724" gradientTransform="matrix(1 0 0 -1 0 479.89)">
						<stop  offset="0" style="stop-color:#F5F549"/>
						<stop  offset="1" style="stop-color:#97C924"/>
					</linearGradient>
					<path style="fill:url(#SVGID_7_);" d="M382.1,237.6c-1.2,0-1.6,0.7-1.6,0.7c-2,8.5-8.5,17.1-16.3,17.1h-5.8v8.6c0,0,0,0,0,0
						h44.3l-4.5-8.8c-7-1.2-12.7-9.1-14.5-16.9C383.7,238.3,383.3,237.6,382.1,237.6L382.1,237.6z"/>
					<path style="fill:#97C924;" d="M382.1,238c-0.6,0-0.9,0.1-1.1,0.3c-0.2,0.1-0.2,0.2-0.2,0.2c0,0,0,0,0,0c-1,4.3-3.1,8.5-6,11.8
						c-2.9,3.3-6.5,5.5-10.5,5.5h-5.5v7.9h43.8l-4.1-8c-3.4-0.5-6.5-2.5-9-5.4c-2.9-3.2-5-7.5-6-11.8c0,0,0,0,0,0
						c0,0-0.1-0.1-0.2-0.2C383,238.1,382.6,238,382.1,238L382.1,238z"/>
					<path style="fill:#EDE71F;" d="M382.1,238c0.1,0,0.2,0,0.3,0c0,2.4,0,6.5,0,8.6c0,1.9-0.6,3.4-1.4,5.2
						c-0.4,1.2-0.7,0.8-1.7,2.3c-1.3,0.5-2.3,0.7-3.7,1c-1.8,0.3-5.8,0.6-7.8,0.1c2.6-0.9,5-2.6,7-4.9c0.5-0.6,1.1-1.2,1.5-1.9
						c0.8-1.1,1.5-2.3,2.2-3.6c0.3-0.5,0.5-1,0.7-1.5c0.3-0.8,0.6-1.6,0.9-2.4c0.1-0.3,0.2-0.5,0.3-0.8c0.2-0.5,0.3-1.1,0.4-1.6
						c0,0,0,0,0,0c0,0,0-0.1,0.2-0.2c0.1-0.1,0.2-0.1,0.4-0.2c0,0,0,0,0,0C381.6,238,381.8,238,382.1,238L382.1,238z"/>
					<path style="fill:#C6CB24;" d="M381.6,239.1c-0.3,4.8-1.6,10.6-4.8,14.2c-1.2,1.1-2.6,2-4.1,1.8
						C377.6,250.8,380.5,244,381.6,239.1z"/>
					<path style="fill:#9ECB34;" d="M377.6,247.4c-0.7,2.2-3.4,5.4-6.4,8c-0.8,0-1.3,0.1-2,0C371,255.3,375.2,251.4,377.6,247.4
						L377.6,247.4z"/>
				</g>
				<g>
					<g id="mountain1_1_">
						
							<linearGradient id="SVGID_8_" gradientUnits="userSpaceOnUse" x1="384.7979" y1="230.5228" x2="384.7979" y2="225.7724" gradientTransform="matrix(1 0 0 -1 -15.3407 479.89)">
							<stop  offset="0" style="stop-color:#F5F549"/>
							<stop  offset="1" style="stop-color:#97C924"/>
						</linearGradient>
						<path style="fill:url(#SVGID_8_);" d="M371,237.6c-1.2,0-1.6,0.7-1.6,0.7c-2,8.5-8.5,17.1-16.3,17.1h-5.8v8.6c0,0,0,0,0,0
							h44.3l-4.5-8.8c-7-1.2-12.7-9.1-14.5-16.9C372.6,238.3,372.2,237.6,371,237.6L371,237.6z"/>
						<path style="fill:#97C924;" d="M371,238c-0.6,0-0.9,0.1-1.1,0.3c-0.2,0.1-0.2,0.2-0.2,0.2c0,0,0,0,0,0c-1,4.3-3.1,8.5-6,11.8
							c-2.9,3.3-6.5,5.5-10.5,5.5h-5.5v7.9h43.8l-4.1-8c-3.4-0.5-6.5-2.5-9-5.4c-2.9-3.2-5-7.5-6-11.8c0,0,0,0,0,0
							c0,0-0.1-0.1-0.2-0.2C371.9,238.1,371.6,238,371,238L371,238z"/>
						<path style="fill:#EDE71F;" d="M371,238c0.1,0,0.2,0,0.3,0c0,2.4,0,6.5,0,8.6c0,1.9-0.6,3.4-1.4,5.2c-0.4,1.2-0.7,0.8-1.7,2.3
							c-1.3,0.5-2.3,0.7-3.7,1c-1.8,0.3-5.8,0.6-7.8,0.1c2.6-0.9,5-2.6,7-4.9c0.5-0.6,1.1-1.2,1.5-1.9c0.8-1.1,1.5-2.3,2.2-3.6
							c0.3-0.5,0.5-1,0.7-1.5c0.3-0.8,0.6-1.6,0.9-2.4c0.1-0.3,0.2-0.5,0.3-0.8c0.2-0.5,0.3-1.1,0.4-1.6c0,0,0,0,0,0
							c0,0,0-0.1,0.2-0.2c0.1-0.1,0.2-0.1,0.4-0.2c0,0,0,0,0,0C370.5,238,370.7,238,371,238L371,238z"/>
						<path style="fill:#C6CB24;" d="M370.5,239.1c-0.3,4.8-1.6,10.6-4.8,14.2c-1.2,1.1-2.6,2-4.1,1.8
							C366.5,250.8,369.5,244,370.5,239.1z"/>
						<path style="fill:#9ECB34;" d="M366.6,247.4c-0.7,2.2-3.4,5.4-6.4,8c-0.8,0-1.3,0.1-2,0C360,255.3,364.1,251.4,366.6,247.4
							L366.6,247.4z"/>
					</g>
				</g>
				<g id="mountain3">
					
						<linearGradient id="SVGID_9_" gradientUnits="userSpaceOnUse" x1="359.9823" y1="230.5228" x2="359.9823" y2="225.7724" gradientTransform="matrix(1 0 0 -1 0 479.89)">
						<stop  offset="0" style="stop-color:#F5F549"/>
						<stop  offset="1" style="stop-color:#97C924"/>
					</linearGradient>
					<path style="fill:url(#SVGID_9_);" d="M361.6,238.3c2,8.5,8.5,17.1,16.3,17.1h5.8v8.6c0,0,0,0,0,0h-47.4c0,0,0,0,0,0v-8.6h5.8
						c7.8,0,14.3-8.6,16.3-17.1c0,0,0.4-0.7,1.6-0.7S361.6,238.3,361.6,238.3L361.6,238.3z"/>
					<path style="fill:#97C924;" d="M360,238c0.6,0,0.9,0.2,1.1,0.3c0.2,0.1,0.2,0.2,0.2,0.2l0,0c1,4.3,3.1,8.5,6,11.8
						c2.9,3.3,6.5,5.5,10.5,5.5h5.5v7.9h-46.8v-7.9h5.5c4,0,7.6-2.2,10.5-5.5c2.9-3.2,5-7.5,6-11.8c0,0,0,0,0,0c0,0,0-0.1,0.2-0.2
						C359.1,238.1,359.4,238,360,238L360,238z"/>
					<path style="fill:#EDE71F;" d="M359.5,238c-0.1,0-0.1,0-0.2,0c0,0,0,0,0,0c-0.2,0.1-0.3,0.1-0.4,0.2c-0.2,0.1-0.2,0.2-0.2,0.2
						c0,0,0,0,0,0c-0.1,0.5-0.3,1.1-0.4,1.6c-0.1,0.3-0.2,0.5-0.3,0.8c-0.3,0.8-0.6,1.6-0.9,2.4c-0.2,0.5-0.5,1-0.7,1.5
						c-0.6,1.3-1.4,2.5-2.2,3.6c-0.5,0.7-1,1.3-1.5,1.9c-2,2.3-4.4,4-7,4.9c2,0.5,2.9,0,4.7-0.4c1.4-0.2,3-0.5,4.4-1
						c1-1.5,0.6-1,1-2.3c0.9-1.8,2.1-3.4,2.4-5.3C359.3,243.8,359.5,239.3,359.5,238L359.5,238z"/>
					<path style="fill:#C6CB24;" d="M359.5,239.1c-0.3,4.8-1.6,10.6-4.8,14.2c-1.2,1.1-2.6,2-4.1,1.8
						C355.5,250.8,358.5,244,359.5,239.1L359.5,239.1z"/>
					<path style="fill:#9ECB34;" d="M355.6,247.4c-0.7,2.2-3.4,5.4-6.4,8c-0.8,0-1.3,0.1-2,0C349,255.3,353.1,251.4,355.6,247.4
						L355.6,247.4z"/>
					<path style="fill:#EDE71F;" d="M360.7,238.1C360.7,238.1,360.7,238.1,360.7,238.1c0.2,0.1,0.3,0.1,0.4,0.2
						c0.2,0.1,0.2,0.2,0.2,0.2c0,0,0,0,0,0c0.1,0.5,0.3,1.1,0.4,1.6c0.1,0.3,0.2,0.5,0.3,0.8c0.3,0.8,0.6,1.6,0.9,2.4
						c0.2,0.5,0.5,1,0.7,1.5c0.6,1.3,1.4,2.5,2.2,3.6c0.5,0.7,1,1.3,1.5,1.9c2,2.3,4.4,4.4,7,5.2c-5.2,0-7.5-0.5-9.4-3.2
						c-1.9-2.7-2.6-3.9-3-5.5C361.6,245.1,360.6,241.5,360.7,238.1L360.7,238.1z"/>
					<path style="fill:#C6CB24;" d="M361.1,239.1c0.3,4.8,1.6,9.6,4.7,13.3c1.2,1.1,2.6,2,4.1,1.8
						C364.6,250.2,362.1,244,361.1,239.1z"/>
				</g>
				<g id="mountain4">
					
						<linearGradient id="SVGID_10_" gradientUnits="userSpaceOnUse" x1="346.1197" y1="230.5228" x2="346.1197" y2="225.7724" gradientTransform="matrix(1 0 0 -1 0 479.89)">
						<stop  offset="0" style="stop-color:#F5F549"/>
						<stop  offset="1" style="stop-color:#97C924"/>
					</linearGradient>
					<path style="fill:url(#SVGID_10_);" d="M349,237.6c-1.2,0-1.6,0.7-1.6,0.7c-1.8,7.8-8.5,17.9-15.5,19l-3.4,6.6h35.3v-9.1
						c-6.4-1.9-11.4-9.3-13.1-16.6C350.6,238.3,350.2,237.6,349,237.6L349,237.6z"/>
					<path style="fill:#97C924;" d="M349,238c-0.6,0-0.9,0.2-1.1,0.3c-0.2,0.1-0.2,0.2-0.2,0.2c0,0,0,0,0,0c-1,4.3-3.4,8.6-5.8,12
						c-2.4,3.4-7,6.9-10.1,7.3l-3.1,5.9h34.6v-8.6c-2.6-0.9-4.9-2.6-6.9-4.8c-2.9-3.2-5-7.5-6-11.8c0,0,0,0,0,0c0,0,0-0.1-0.2-0.2
						C349.9,238.1,349.6,238,349,238L349,238z"/>
					<path style="fill:#93BC30;" d="M348.1,239.1c-0.4,7.2-4.1,16.4-8.2,17.9c-1.3,0.5-3.7,0.7-4.5,0.8
						C342.6,254.1,346.8,245.2,348.1,239.1L348.1,239.1z"/>
					<path style="fill:#EDE71F;" d="M349,238c-0.1,0-0.2,0-0.3,0c0,2.4,0,6.5,0,8.6c0,1.9,0.6,3.4,1.4,5.2c0,0.2,0.1,0.3,0.1,0.4
						c0.3,0.9,0.5,1.2,1.6,2.1c3.6,3,8,3.5,10.7,3.2c-0.8-0.7-1.7-1.4-2.5-2c1.2,0,2.4-0.2,3.2-0.4c-2.6-0.9-5-2.6-7-4.9
						c-0.4-0.4-0.7-0.8-1-1.2c-0.1-0.2-0.4-0.6-0.4-0.6c-0.8-1.1-1.6-2.4-2.3-3.6c-0.3-0.5-0.5-1-0.7-1.5c-0.3-0.8-0.6-1.6-0.9-2.4
						c-0.1-0.3-0.2-0.5-0.3-0.8c-0.2-0.5-0.3-1.1-0.4-1.6c0,0,0,0,0,0c0,0,0-0.1-0.2-0.2c-0.1-0.1-0.2-0.1-0.4-0.2c0,0,0,0,0,0
						C349.5,238,349.3,238,349,238L349,238z"/>
					<path style="fill:#CCD11E;" d="M349.5,239.1c0.3,4.8,1.6,10.6,4.8,14.2c1.2,1.1,2.6,2,4.1,1.8
						C353.5,250.8,350.5,244,349.5,239.1L349.5,239.1z"/>
					<path style="fill:#9ECB34;" d="M352.5,245.8c1.7,4.7,6,9,10.5,12c0.8,0,1.1,0,1.8,0C361.6,255.8,356.5,253.1,352.5,245.8
						L352.5,245.8z"/>
				</g>
				<g>
					<g id="mountain4_1_">
						
							<linearGradient id="SVGID_11_" gradientUnits="userSpaceOnUse" x1="350.44" y1="230.5228" x2="350.44" y2="225.7724" gradientTransform="matrix(1 0 0 -1 -15.4296 479.89)">
							<stop  offset="0" style="stop-color:#F5F549"/>
							<stop  offset="1" style="stop-color:#97C924"/>
						</linearGradient>
						<path style="fill:url(#SVGID_11_);" d="M337.9,237.6c-1.2,0-1.6,0.7-1.6,0.7c-1.8,7.8-8.5,17.9-15.5,19l-3.4,6.6h35.3v-9.1
							c-6.4-1.9-11.4-9.3-13.1-16.6C339.5,238.3,339.1,237.6,337.9,237.6L337.9,237.6z"/>
						<path style="fill:#97C924;" d="M337.9,238c-0.6,0-0.9,0.2-1.1,0.3c-0.2,0.1-0.2,0.2-0.2,0.2c0,0,0,0,0,0
							c-1,4.3-3.4,8.6-5.8,12c-2.4,3.4-7,6.9-10.1,7.3l-3.1,5.9h34.6v-8.6c-2.6-0.9-4.9-2.6-6.9-4.8c-2.9-3.2-5-7.5-6-11.8
							c0,0,0,0,0,0c0,0,0-0.1-0.2-0.2C338.8,238.1,338.5,238,337.9,238L337.9,238z"/>
						<path style="fill:#93BC30;" d="M337,239.1c-0.4,7.2-4.1,16.4-8.2,17.9c-1.3,0.5-3.7,0.7-4.5,0.8
							C331.5,254.1,335.7,245.2,337,239.1L337,239.1z"/>
						<path style="fill:#EDE71F;" d="M337.9,238c-0.1,0-0.2,0-0.3,0c0,2.4,0,6.5,0,8.6c0,1.9,0.6,3.4,1.4,5.2c0,0.2,0.1,0.3,0.1,0.4
							c0.3,0.9,0.5,1.2,1.6,2.1c3.6,3,8,3.5,10.7,3.2c-0.8-0.7-1.7-1.4-2.5-2c1.2,0,2.4-0.2,3.2-0.4c-2.6-0.9-5-2.6-7-4.9
							c-0.4-0.4-0.7-0.8-1-1.2c-0.1-0.2-0.4-0.6-0.4-0.6c-0.8-1.1-1.6-2.4-2.3-3.6c-0.3-0.5-0.5-1-0.7-1.5c-0.3-0.8-0.6-1.6-0.9-2.4
							c-0.1-0.3-0.2-0.5-0.3-0.8c-0.2-0.5-0.3-1.1-0.4-1.6c0,0,0,0,0,0c0,0,0-0.1-0.2-0.2c-0.1-0.1-0.2-0.1-0.4-0.2c0,0,0,0,0,0
							C338.4,238,338.2,238,337.9,238L337.9,238z"/>
						<path style="fill:#C6CB24;" d="M338.4,239.1c0.3,4.8,1.6,10.6,4.8,14.2c1.2,1.1,2.6,2,4.1,1.8
							C342.4,250.8,339.4,244,338.4,239.1L338.4,239.1z"/>
						<path style="fill:#9ECB34;" d="M341.4,245.8c1.7,4.7,6,9,10.5,12c0.8,0,1.1,0,1.8,0C350.5,255.8,345.4,253.1,341.4,245.8
							L341.4,245.8z"/>
					</g>
				</g>
			</g>
			<g id="seaf">
				<path style="fill:#FFFFFF;" d="M400.7,259.8c-0.4,0.2-3.2-0.2-4.6,0l-0.9,0.3c-0.8,0-1.6,0-2.4,0c-2.6,0-4.8,0.8-7.3,0.8
					c-2.5,0-4.7-0.8-7.3-0.8c-0.8,0-1.6,0-2.4,0c-2.6,0-4.8,0.8-7.3,0.8c-2.5,0-4.7-0.8-7.3-0.8c-0.8,0-1.6,0-2.4,0
					c-2.6,0-4.8,0.8-7.2,0.8c-2.5,0-4.6-0.8-7.2-0.8c-0.2,0-0.4,0-0.6,0c-0.1,0-0.3,0-0.4,0c-0.1,0-0.2,0-0.2,0c-0.1,0-0.2,0-0.3,0
					c-0.1,0-0.2,0-0.4,0c-0.2,0-0.4,0-0.6,0c-2.6,0-4.8,0.8-7.3,0.8c-2.5,0-4.7-0.8-7.3-0.8c-0.2,0-0.4,0-0.6,0c-0.1,0-0.2,0-0.4,0
					c-0.1,0-0.2,0-0.3,0c-0.1,0-0.2,0-0.3,0c-0.1,0-0.3,0-0.4,0c-0.2,0-0.4,0-0.6,0c-2.1,0-4.5,0.5-6.4,0.7l-4.5,8.7l45.3,0l46.4,0
					L400.7,259.8z"/>
				
					<linearGradient id="SVGID_12_" gradientUnits="userSpaceOnUse" x1="60.4042" y1="640.593" x2="61.1242" y2="640.593" gradientTransform="matrix(116.1978 0 0 -5.849 -6701.4492 4007.656)">
					<stop  offset="0" style="stop-color:#002255"/>
					<stop  offset="0.5" style="stop-color:#0044AA"/>
					<stop  offset="1" style="stop-color:#002255"/>
				</linearGradient>
				<path style="fill:url(#SVGID_12_);" d="M394.6,258.5c-0.1,0-0.3,0-0.4,0c-2.3,0.1-4,0.9-8.1,0.9s-4.5-0.8-9.1-0.7
					c-4.3,0.1-6.1,1-8.4,1s-6.1-0.6-9-0.2c-2.9,0.3-6.4,1-8.6,1c-2.8,0-5.6-0.6-8.6-0.3c-2.9,0.3-4.3,1.2-8,1.2
					c-3.1,0-6.5-0.6-9.2-0.6c-2.5,0-5.2,0.8-7.3,1.2l-0.6,1.2c1.6-0.2,6.2-1,7.8-1c1.7,0,7.7,0.4,11,0.3c3.3-0.1,3.7-0.9,7.6-0.9
					c2.7,0,4.8,0.3,7.6,0.3c1.8,0,3.3-1,6-1c0.7,0,1.3,0,2-0.1c2.2-0.4,6,0,8.7,0.2c2.4,0.1,3.9-0.5,6.4-0.6
					c1.1-0.1,2.2-0.1,3.2-0.1c2.5-0.1,4.6,0.5,7,0.5c2.3-0.2,4.6-0.7,7.1-0.8c1.1-0.1,2.2-0.1,3.2-0.1c1.6-0.1,4.2,0.1,6,0.4
					l-0.6-1.2C398.7,258.9,396.6,258.5,394.6,258.5L394.6,258.5z"/>
				<g id="wavesf3">
					
						<linearGradient id="wavef1_9_" gradientUnits="userSpaceOnUse" x1="60.546" y1="585.5699" x2="61.266" y2="585.5699" gradientTransform="matrix(126.7259 0 0 -1.5223 -7358.3726 1159.8214)">
						<stop  offset="0" style="stop-color:#002255"/>
						<stop  offset="0.5" style="stop-color:#0044AA"/>
						<stop  offset="1" style="stop-color:#002255"/>
					</linearGradient>
					<path id="wavef1" style="fill:url(#wavef1_9_);" d="M324.2,267.8c-2.5,0-4.6,0.7-6.9,0.8c-0.9,0-1.7-0.1-2.5-0.3l-0.4,0.7
						c0.4,0,0.7,0.1,1.1,0.1c1.1,0,2.2,0,3.2,0c2.5,0,4.6-0.7,6.9-0.8c2.3,0.1,4.5,0.8,7,0.8c1.1,0,2.2,0,3.2,0c2.5,0,4.6-0.7,7-0.8
						c2.3,0.1,4.5,0.8,7,0.8c1.1,0,2.2,0,3.2,0c2.5,0,4.6-0.7,6.9-0.8c2.3,0.1,4.5,0.8,6.9,0.8c1.1,0,2.2,0,3.2,0
						c2.5,0,4.6-0.7,7-0.8c2.3,0.1,4.5,0.8,7,0.8c1.1,0,2.2,0,3.2,0c2.5,0,4.6-0.7,6.9-0.8c2.3,0.1,4.5,0.8,7,0.8c1.1,0,2.2,0,3.2,0
						c0.4,0,0.9,0,1.3-0.1l-0.3-0.6c-0.8,0.1-1.5,0.2-2.3,0.2c-2.3-0.1-4.5-0.8-6.9-0.8c-1.1,0-2.2,0-3.2,0c-2.5,0-4.6,0.7-6.9,0.8
						c-2.3-0.1-4.5-0.8-7-0.8c-1.1,0-2.2,0-3.2,0c-2.5,0-4.6,0.7-7,0.8c-2.3-0.1-4.5-0.8-7-0.8c-1.1,0-2.2,0-3.2,0
						c-2.5,0-4.6,0.7-6.9,0.8c-2.3-0.1-4.5-0.8-6.9-0.8c-1.1,0-2.2,0-3.2,0c-2.5,0-4.6,0.7-7,0.8c-2.3-0.1-4.5-0.8-7-0.8
						C326.4,267.8,325.3,267.8,324.2,267.8L324.2,267.8z"/>
					<g>
						
							<linearGradient id="wavef1_10_" gradientUnits="userSpaceOnUse" x1="60.546" y1="585.4006" x2="61.266" y2="585.4006" gradientTransform="matrix(126.7259 0 0 -1.5223 -7358.3726 1158.5319)">
							<stop  offset="0" style="stop-color:#002255"/>
							<stop  offset="0.5" style="stop-color:#0044AA"/>
							<stop  offset="1" style="stop-color:#002255"/>
						</linearGradient>
						<path id="wavef1_1_" style="fill:url(#wavef1_10_);" d="M324.2,266.8c-2.5,0-4.6,0.7-6.9,0.8c-0.9,0-1.7-0.1-2.5-0.3l-0.4,0.7
							c0.4,0,0.7,0.1,1.1,0.1c1.1,0,2.2,0,3.2,0c2.5,0,4.6-0.7,6.9-0.8c2.3,0.1,4.5,0.8,7,0.8c1.1,0,2.2,0,3.2,0
							c2.5,0,4.6-0.7,7-0.8c2.3,0.1,4.5,0.8,7,0.8c1.1,0,2.2,0,3.2,0c2.5,0,4.6-0.7,6.9-0.8c2.3,0.1,4.5,0.8,6.9,0.8
							c1.1,0,2.2,0,3.2,0c2.5,0,4.6-0.7,7-0.8c2.3,0.1,4.5,0.8,7,0.8c1.1,0,2.2,0,3.2,0c2.5,0,4.6-0.7,6.9-0.8
							c2.3,0.1,4.5,0.8,7,0.8c1.1,0,2.2,0,3.2,0c0.4,0,0.9,0,1.3-0.1l-0.3-0.6c-0.8,0.1-1.5,0.2-2.3,0.2c-2.3-0.1-4.5-0.8-6.9-0.8
							c-1.1,0-2.2,0-3.2,0c-2.5,0-4.6,0.7-6.9,0.8c-2.3-0.1-4.5-0.8-7-0.8c-1.1,0-2.2,0-3.2,0c-2.5,0-4.6,0.7-7,0.8
							c-2.3-0.1-4.5-0.8-7-0.8c-1.1,0-2.2,0-3.2,0c-2.5,0-4.6,0.7-6.9,0.8c-2.3-0.1-4.5-0.8-6.9-0.8c-1.1,0-2.2,0-3.2,0
							c-2.5,0-4.6,0.7-7,0.8c-2.3-0.1-4.5-0.8-7-0.8C326.4,266.8,325.3,266.8,324.2,266.8L324.2,266.8z"/>
					</g>
					<g>
						
							<linearGradient id="wavef1_11_" gradientUnits="userSpaceOnUse" x1="60.546" y1="585.2317" x2="61.266" y2="585.2317" gradientTransform="matrix(126.7259 0 0 -1.5223 -7358.3726 1157.2467)">
							<stop  offset="0" style="stop-color:#002255"/>
							<stop  offset="0.5" style="stop-color:#0044AA"/>
							<stop  offset="1" style="stop-color:#002255"/>
						</linearGradient>
						<path id="wavef1_2_" style="fill:url(#wavef1_11_);" d="M324.2,265.7c-2.5,0-4.6,0.7-6.9,0.8c-0.9,0-1.7-0.1-2.5-0.3l-0.4,0.7
							c0.4,0,0.7,0.1,1.1,0.1c1.1,0,2.2,0,3.2,0c2.5,0,4.6-0.7,6.9-0.8c2.3,0.1,4.5,0.8,7,0.8c1.1,0,2.2,0,3.2,0
							c2.5,0,4.6-0.7,7-0.8c2.3,0.1,4.5,0.8,7,0.8c1.1,0,2.2,0,3.2,0c2.5,0,4.6-0.7,6.9-0.8c2.3,0.1,4.5,0.8,6.9,0.8
							c1.1,0,2.2,0,3.2,0c2.5,0,4.6-0.7,7-0.8c2.3,0.1,4.5,0.8,7,0.8c1.1,0,2.2,0,3.2,0c2.5,0,4.6-0.7,6.9-0.8
							c2.3,0.1,4.5,0.8,7,0.8c1.1,0,2.2,0,3.2,0c0.4,0,0.9,0,1.3-0.1l-0.3-0.6c-0.8,0.1-1.5,0.2-2.3,0.2c-2.3-0.1-4.5-0.8-6.9-0.8
							c-1.1,0-2.2,0-3.2,0c-2.5,0-4.6,0.7-6.9,0.8c-2.3-0.1-4.5-0.8-7-0.8c-1.1,0-2.2,0-3.2,0c-2.5,0-4.6,0.7-7,0.8
							c-2.3-0.1-4.5-0.8-7-0.8c-1.1,0-2.2,0-3.2,0c-2.5,0-4.6,0.7-6.9,0.8c-2.3-0.1-4.5-0.8-6.9-0.8c-1.1,0-2.2,0-3.2,0
							c-2.5,0-4.6,0.7-7,0.8c-2.3-0.1-4.5-0.8-7-0.8C326.4,265.7,325.3,265.8,324.2,265.7L324.2,265.7z"/>
					</g>
				</g>
				<g>
					<g id="wavesf3_1_">
						
							<linearGradient id="wavef1_12_" gradientUnits="userSpaceOnUse" x1="60.546" y1="585.0619" x2="61.266" y2="585.0619" gradientTransform="matrix(126.7259 0 0 -1.5223 -7358.3726 1155.9542)">
							<stop  offset="0" style="stop-color:#002255"/>
							<stop  offset="0.5" style="stop-color:#0044AA"/>
							<stop  offset="1" style="stop-color:#002255"/>
						</linearGradient>
						<path id="wavef1_3_" style="fill:url(#wavef1_12_);" d="M324.2,264.7c-2.5,0-4.6,0.7-6.9,0.8c-0.9,0-1.7-0.1-2.5-0.3l-0.4,0.7
							c0.4,0,0.7,0.1,1.1,0.1c1.1,0,2.2,0,3.2,0c2.5,0,4.6-0.7,6.9-0.8c2.3,0.1,4.5,0.8,7,0.8c1.1,0,2.2,0,3.2,0
							c2.5,0,4.6-0.7,7-0.8c2.3,0.1,4.5,0.8,7,0.8c1.1,0,2.2,0,3.2,0c2.5,0,4.6-0.7,6.9-0.8c2.3,0.1,4.5,0.8,6.9,0.8
							c1.1,0,2.2,0,3.2,0c2.5,0,4.6-0.7,7-0.8c2.3,0.1,4.5,0.8,7,0.8c1.1,0,2.2,0,3.2,0c2.5,0,4.6-0.7,6.9-0.8
							c2.3,0.1,4.5,0.8,7,0.8c1.1,0,2.2,0,3.2,0c0.4,0,0.9,0,1.3-0.1l-0.3-0.6c-0.8,0.1-1.5,0.2-2.3,0.2c-2.3-0.1-4.5-0.8-6.9-0.8
							c-1.1,0-2.2,0-3.2,0c-2.5,0-4.6,0.7-6.9,0.8c-2.3-0.1-4.5-0.8-7-0.8c-1.1,0-2.2,0-3.2,0c-2.5,0-4.6,0.7-7,0.8
							c-2.3-0.1-4.5-0.8-7-0.8c-1.1,0-2.2,0-3.2,0c-2.5,0-4.6,0.7-6.9,0.8c-2.3-0.1-4.5-0.8-6.9-0.8c-1.1,0-2.2,0-3.2,0
							c-2.5,0-4.6,0.7-7,0.8c-2.3-0.1-4.5-0.8-7-0.8C326.4,264.7,325.3,264.7,324.2,264.7L324.2,264.7z"/>
						<g>
							
								<linearGradient id="wavef1_13_" gradientUnits="userSpaceOnUse" x1="60.546" y1="584.8925" x2="61.266" y2="584.8925" gradientTransform="matrix(126.7259 0 0 -1.5223 -7358.3726 1154.6647)">
								<stop  offset="0" style="stop-color:#002255"/>
								<stop  offset="0.5" style="stop-color:#0044AA"/>
								<stop  offset="1" style="stop-color:#002255"/>
							</linearGradient>
							<path id="wavef1_4_" style="fill:url(#wavef1_13_);" d="M324.2,263.7c-2.5,0-4.6,0.7-6.9,0.8c-0.9,0-1.7-0.1-2.5-0.3
								l-0.4,0.7c0.4,0,0.7,0.1,1.1,0.1c1.1,0,2.2,0,3.2,0c2.5,0,4.6-0.7,6.9-0.8c2.3,0.1,4.5,0.8,7,0.8c1.1,0,2.2,0,3.2,0
								c2.5,0,4.6-0.7,7-0.8c2.3,0.1,4.5,0.8,7,0.8c1.1,0,2.2,0,3.2,0c2.5,0,4.6-0.7,6.9-0.8c2.3,0.1,4.5,0.8,6.9,0.8
								c1.1,0,2.2,0,3.2,0c2.5,0,4.6-0.7,7-0.8c2.3,0.1,4.5,0.8,7,0.8c1.1,0,2.2,0,3.2,0c2.5,0,4.6-0.7,6.9-0.8
								c2.3,0.1,4.5,0.8,7,0.8c1.1,0,2.2,0,3.2,0c0.4,0,0.9,0,1.3-0.1l-0.3-0.6c-0.8,0.1-1.5,0.2-2.3,0.2c-2.3-0.1-4.5-0.8-6.9-0.8
								c-1.1,0-2.2,0-3.2,0c-2.5,0-4.6,0.7-6.9,0.8c-2.3-0.1-4.5-0.8-7-0.8c-1.1,0-2.2,0-3.2,0c-2.5,0-4.6,0.7-7,0.8
								c-2.3-0.1-4.5-0.8-7-0.8c-1.1,0-2.2,0-3.2,0c-2.5,0-4.6,0.7-6.9,0.8c-2.3-0.1-4.5-0.8-6.9-0.8c-1.1,0-2.2,0-3.2,0
								c-2.5,0-4.6,0.7-7,0.8c-2.3-0.1-4.5-0.8-7-0.8C326.4,263.7,325.3,263.7,324.2,263.7L324.2,263.7z"/>
						</g>
						<g>
							
								<linearGradient id="wavef1_14_" gradientUnits="userSpaceOnUse" x1="60.546" y1="584.7236" x2="61.266" y2="584.7236" gradientTransform="matrix(126.7259 0 0 -1.5223 -7358.3726 1153.3795)">
								<stop  offset="0" style="stop-color:#002255"/>
								<stop  offset="0.5" style="stop-color:#0044AA"/>
								<stop  offset="1" style="stop-color:#002255"/>
							</linearGradient>
							<path id="wavef1_5_" style="fill:url(#wavef1_14_);" d="M324.2,262.6c-2.5,0-4.6,0.7-6.9,0.8c-0.9,0-1.7-0.1-2.5-0.3
								l-0.4,0.7c0.4,0,0.7,0.1,1.1,0.1c1.1,0,2.2,0,3.2,0c2.5,0,4.6-0.7,6.9-0.8c2.3,0.1,4.5,0.8,7,0.8c1.1,0,2.2,0,3.2,0
								c2.5,0,4.6-0.7,7-0.8c2.3,0.1,4.5,0.8,7,0.8c1.1,0,2.2,0,3.2,0c2.5,0,4.6-0.7,6.9-0.8c2.3,0.1,4.5,0.8,6.9,0.8
								c1.1,0,2.2,0,3.2,0c2.5,0,4.6-0.7,7-0.8c2.3,0.1,4.5,0.8,7,0.8c1.1,0,2.2,0,3.2,0c2.5,0,4.6-0.7,6.9-0.8
								c2.3,0.1,4.5,0.8,7,0.8c1.1,0,2.2,0,3.2,0c0.4,0,0.9,0,1.3-0.1l-0.3-0.6c-0.8,0.1-1.5,0.2-2.3,0.2c-2.3-0.1-4.5-0.8-6.9-0.8
								c-1.1,0-2.2,0-3.2,0c-2.5,0-4.6,0.7-6.9,0.8c-2.3-0.1-4.5-0.8-7-0.8c-1.1,0-2.2,0-3.2,0c-2.5,0-4.6,0.7-7,0.8
								c-2.3-0.1-4.5-0.8-7-0.8c-1.1,0-2.2,0-3.2,0c-2.5,0-4.6,0.7-6.9,0.8c-2.3-0.1-4.5-0.8-6.9-0.8c-1.1,0-2.2,0-3.2,0
								c-2.5,0-4.6,0.7-7,0.8c-2.3-0.1-4.5-0.8-7-0.8C326.4,262.6,325.3,262.7,324.2,262.6L324.2,262.6z"/>
						</g>
					</g>
				</g>
				<g>
					<g id="wavesf3_2_">
						
							<linearGradient id="wavef1_15_" gradientUnits="userSpaceOnUse" x1="60.546" y1="584.5546" x2="61.266" y2="584.5546" gradientTransform="matrix(126.7259 0 0 -1.5223 -7358.3726 1152.0927)">
							<stop  offset="0" style="stop-color:#002255"/>
							<stop  offset="0.5" style="stop-color:#0044AA"/>
							<stop  offset="1" style="stop-color:#002255"/>
						</linearGradient>
						<path id="wavef1_6_" style="fill:url(#wavef1_15_);" d="M324.2,261.6c-2.5,0-4.6,0.7-6.9,0.8c-0.9,0-1.7-0.1-2.5-0.3l-0.4,0.7
							c0.4,0,0.7,0.1,1.1,0.1c1.1,0,2.2,0,3.2,0c2.5,0,4.6-0.7,6.9-0.8c2.3,0.1,4.5,0.8,7,0.8c1.1,0,2.2,0,3.2,0
							c2.5,0,4.6-0.7,7-0.8c2.3,0.1,4.5,0.8,7,0.8c1.1,0,2.2,0,3.2,0c2.5,0,4.6-0.7,6.9-0.8c2.3,0.1,4.5,0.8,6.9,0.8
							c1.1,0,2.2,0,3.2,0c2.5,0,4.6-0.7,7-0.8c2.3,0.1,4.5,0.8,7,0.8c1.1,0,2.2,0,3.2,0c2.5,0,4.6-0.7,6.9-0.8
							c2.3,0.1,4.5,0.8,7,0.8c1.1,0,2.2,0,3.2,0c0.4,0,0.9,0,1.3-0.1l-0.3-0.6c-0.8,0.1-1.5,0.2-2.3,0.2c-2.3-0.1-4.5-0.8-6.9-0.8
							c-1.1,0-2.2,0-3.2,0c-2.5,0-4.6,0.7-6.9,0.8c-2.3-0.1-4.5-0.8-7-0.8c-1.1,0-2.2,0-3.2,0c-2.5,0-4.6,0.7-7,0.8
							c-2.3-0.1-4.5-0.8-7-0.8c-1.1,0-2.2,0-3.2,0c-2.5,0-4.6,0.7-6.9,0.8c-2.3-0.1-4.5-0.8-6.9-0.8c-1.1,0-2.2,0-3.2,0
							c-2.5,0-4.6,0.7-7,0.8c-2.3-0.1-4.5-0.8-7-0.8C326.4,261.6,325.3,261.6,324.2,261.6L324.2,261.6z"/>
						<g>
							
								<linearGradient id="wavef1_16_" gradientUnits="userSpaceOnUse" x1="60.546" y1="584.3851" x2="61.266" y2="584.3851" gradientTransform="matrix(126.7259 0 0 -1.5223 -7358.3726 1150.8032)">
								<stop  offset="0" style="stop-color:#002255"/>
								<stop  offset="0.5" style="stop-color:#0044AA"/>
								<stop  offset="1" style="stop-color:#002255"/>
							</linearGradient>
							<path id="wavef1_7_" style="fill:url(#wavef1_16_);" d="M324.2,260.6c-2.5,0-4.6,0.7-6.9,0.8c-0.9,0-1.7-0.1-2.5-0.3
								l-0.4,0.7c0.4,0,0.7,0.1,1.1,0.1c1.1,0,2.2,0,3.2,0c2.5,0,4.6-0.7,6.9-0.8c2.3,0.1,4.5,0.8,7,0.8c1.1,0,2.2,0,3.2,0
								c2.5,0,4.6-0.7,7-0.8c2.3,0.1,4.5,0.8,7,0.8c1.1,0,2.2,0,3.2,0c2.5,0,4.6-0.7,6.9-0.8c2.3,0.1,4.5,0.8,6.9,0.8
								c1.1,0,2.2,0,3.2,0c2.5,0,4.6-0.7,7-0.8c2.3,0.1,4.5,0.8,7,0.8c1.1,0,2.2,0,3.2,0c2.5,0,4.6-0.7,6.9-0.8
								c2.3,0.1,4.5,0.8,7,0.8c1.1,0,2.2,0,3.2,0c0.4,0,0.9,0,1.3-0.1l-0.3-0.6c-0.8,0.1-1.5,0.2-2.3,0.2c-2.3-0.1-4.5-0.8-6.9-0.8
								c-1.1,0-2.2,0-3.2,0c-2.5,0-4.6,0.7-6.9,0.8c-2.3-0.1-4.5-0.8-7-0.8c-1.1,0-2.2,0-3.2,0c-2.5,0-4.6,0.7-7,0.8
								c-2.3-0.1-4.5-0.8-7-0.8c-1.1,0-2.2,0-3.2,0c-2.5,0-4.6,0.7-6.9,0.8c-2.3-0.1-4.5-0.8-6.9-0.8c-1.1,0-2.2,0-3.2,0
								c-2.5,0-4.6,0.7-7,0.8c-2.3-0.1-4.5-0.8-7-0.8C326.4,260.6,325.3,260.6,324.2,260.6L324.2,260.6z"/>
						</g>
						<g>
							
								<linearGradient id="wavef1_17_" gradientUnits="userSpaceOnUse" x1="60.546" y1="584.2163" x2="61.266" y2="584.2163" gradientTransform="matrix(126.7259 0 0 -1.5223 -7358.3726 1149.5181)">
								<stop  offset="0" style="stop-color:#002255"/>
								<stop  offset="0.5" style="stop-color:#0044AA"/>
								<stop  offset="1" style="stop-color:#002255"/>
							</linearGradient>
							<path id="wavef1_8_" style="fill:url(#wavef1_17_);" d="M324.2,259.6c-2.5,0-4.6,0.7-6.9,0.8c-0.9,0-1.7-0.1-2.5-0.3
								l-0.4,0.7c0.4,0,0.7,0.1,1.1,0.1c1.1,0,2.2,0,3.2,0c2.5,0,4.6-0.7,6.9-0.8c2.3,0.1,4.5,0.8,7,0.8c1.1,0,2.2,0,3.2,0
								c2.5,0,4.6-0.7,7-0.8c2.3,0.1,4.5,0.8,7,0.8c1.1,0,2.2,0,3.2,0c2.5,0,4.6-0.7,6.9-0.8c2.3,0.1,4.5,0.8,6.9,0.8
								c1.1,0,2.2,0,3.2,0c2.5,0,4.6-0.7,7-0.8c2.3,0.1,4.5,0.8,7,0.8c1.1,0,2.2,0,3.2,0c2.5,0,4.6-0.7,6.9-0.8
								c2.3,0.1,4.5,0.8,7,0.8c1.1,0,2.2,0,3.2,0c0.4,0,0.9,0,1.3-0.1l-0.3-0.6c-0.8,0.1-1.5,0.2-2.3,0.2c-2.3-0.1-4.5-0.8-6.9-0.8
								c-1.1,0-2.2,0-3.2,0c-2.5,0-4.6,0.7-6.9,0.8c-2.3-0.1-4.5-0.8-7-0.8c-1.1,0-2.2,0-3.2,0c-2.5,0-4.6,0.7-7,0.8
								c-2.3-0.1-4.5-0.8-7-0.8c-1.1,0-2.2,0-3.2,0c-2.5,0-4.6,0.7-6.9,0.8c-2.3-0.1-4.5-0.8-6.9-0.8c-1.1,0-2.2,0-3.2,0
								c-2.5,0-4.6,0.7-7,0.8c-2.3-0.1-4.5-0.8-7-0.8C326.4,259.5,325.3,259.6,324.2,259.6L324.2,259.6z"/>
						</g>
					</g>
				</g>
			</g>
			<path style="fill:#97C924;" d="M319.6,259.8l-1.7,3.4c2-0.4,5.1-1.4,7.7-1.4c2.6,0,5.8,0.7,9,0.7c3.6,0,5-0.9,8-1.2
				c2.9-0.3,5.8,0.4,8.6,0.4c2.3,0,5.7-0.9,8.6-1.2c2.9-0.3,5.6,0.2,9.1,0.3c3.5,0.1,4.1-0.9,8.3-1c4.6-0.1,5,0.7,9.1,0.7
				c3.1,0.2,5.7-0.7,8.4-0.9c2.7-0.2,4,0,6,0.1l-1.3-2.6c0,0,0,0-0.1,0l-72.9,1.8L319.6,259.8z"/>
			<path style="fill:#FFFFFF;" d="M396,259.7c0,0,2,0.1,2.8,0.2c0.8,0.1,2.1,0.2,2.1,0.2l-0.3-0.4
				C400.3,259.9,397.5,259.6,396,259.7z"/>
		</g>
	</g>
	<path style="fill:#C8A400;" d="M360,179.9l-23.1,44.5L313.2,270l46.3,0l47.3,0l-23.2-44.5L360,179.9L360,179.9z M360,182.3
		l22.7,43.7l22.2,42.7l-45.4,0l-44.4,0l22.7-43.7L360,182.3z"/>
</g>
</svg>
