<?xml version="1.0" encoding="utf-8"?>
<!-- Generator: Adobe Illustrator 25.2.1, SVG Export Plug-In . SVG Version: 6.00 Build 0)  -->
<svg version="1.1" id="Layer_1" xmlns="http://www.w3.org/2000/svg" xmlns:xlink="http://www.w3.org/1999/xlink" x="0px" y="0px"
	 viewBox="0 0 720 480" style="enable-background:new 0 0 720 480;" xml:space="preserve">
<g>
	<path style="fill:#012169;" d="M2,0h718v480H2V0z"/>
	<g>
		<g>
			<g>
				<g>
					<defs>
						<rect id="SVGID_1_" x="2" width="359" height="240"/>
					</defs>
					<clipPath id="SVGID_2_">
						<use xlink:href="#SVGID_1_"  style="overflow:visible;"/>
					</clipPath>
					<g style="clip-path:url(#SVGID_2_);">
						<path style="fill:#012169;" d="M2,0v240h359V0H2z"/>
						<g>
							<path d="M2,0l359,240 M361,0L2,240"/>
							<polygon style="fill:#FFFFFF;" points="352.9,261.5 181.5,146.8 10.1,261.5 -6.1,218.5 141.3,120 -6.1,21.5 10.1,-21.5 
								181.5,93.2 352.9,-21.5 369.1,21.5 221.7,120 369.1,218.5 							"/>
						</g>
						<g>
							<g>
								<g>
									<defs>
										<polygon id="SVGID_3_" points="181.5,120 361,120 361,240 181.5,240 2,240 2,120 2,0 181.5,0 361,0 										"/>
									</defs>
									<clipPath id="SVGID_4_">
										<use xlink:href="#SVGID_3_"  style="overflow:visible;"/>
									</clipPath>
									<g style="clip-path:url(#SVGID_4_);">
										<path d="M2,0l359,240 M361,0L2,240"/>
										<polygon style="fill:#C8102E;" points="355.7,254.3 181.5,137.9 7.3,254.3 -3.3,225.7 154.7,120 -3.3,14.3 7.3,-14.3 
											181.5,102.1 355.7,-14.3 366.3,14.3 208.3,120 366.3,225.7 										"/>
									</g>
								</g>
							</g>
						</g>
						<g>
							<path d="M181.5,0v240 M2,120h359"/>
							<polygon style="fill:#FFFFFF;" points="211.4,240 151.6,240 151.6,160 2,160 2,80 151.6,80 151.6,0 211.4,0 211.4,80 361,80 
								361,160 211.4,160 							"/>
						</g>
						<g>
							<path d="M181.5,0v240 M2,120h359"/>
							<polygon style="fill:#C8102E;" points="199.4,240 163.6,240 163.6,144 2,144 2,96 163.6,96 163.6,0 199.4,0 199.4,96 361,96 
								361,144 199.4,144 							"/>
						</g>
					</g>
				</g>
			</g>
		</g>
	</g>
	<path style="fill:#FEDD00;" d="M361,0h359v480H2V240h359V0z"/>
	<g transform="translate(30 15)">
		<g transform="scale(5.1039)">
			<ellipse style="fill:#012169;" cx="29.7" cy="20.6" rx="30.5" ry="40.8"/>
			<polygon style="fill:#FEDD00;" points="31.9,21.5 35.4,18.1 31,18.1 29.7,12.6 28.3,18.1 24,18.1 27.5,21.5 26.2,27 29.7,23.6 
				33.2,27 			"/>
		</g>
		<polygon style="fill:#FEDD00;" points="53.3,110.2 63.9,99.9 50.8,99.9 46.8,83.3 42.8,99.9 29.7,99.9 40.3,110.2 36.2,126.7 
			46.8,116.5 57.3,126.7 		"/>
		<polygon style="fill:#FEDD00;" points="262.7,110.2 273.3,99.9 260.2,99.9 256.2,83.3 252.2,99.9 239.1,99.9 249.7,110.2 
			245.7,126.7 256.2,116.5 266.8,126.7 		"/>
		<polygon style="fill:#FEDD00;" points="158,25.1 168.6,14.8 155.5,14.8 151.5,-1.8 147.5,14.8 134.4,14.8 145,25.1 140.9,41.7 
			151.5,31.4 162,41.7 		"/>
		<polygon style="fill:#FEDD00;" points="158,194.5 168.6,184.3 155.5,184.3 151.5,167.7 147.5,184.3 134.4,184.3 145,194.5 
			140.9,211.1 151.5,200.9 162,211.1 		"/>
	</g>
</g>
</svg>
