<?xml version="1.0" encoding="utf-8"?>
<!-- Generator: Adobe Illustrator 25.2.1, SVG Export Plug-In . SVG Version: 6.00 Build 0)  -->
<svg version="1.1" id="Layer_1" xmlns="http://www.w3.org/2000/svg" xmlns:xlink="http://www.w3.org/1999/xlink" x="0px" y="0px"
	 viewBox="0 0 720 480" style="enable-background:new 0 0 720 480;" xml:space="preserve">
<g>
	<path style="fill:#012169;" d="M0,0.5h720v479.1H0V0.5z"/>
	<polygon style="fill:#FFFFFF;" points="567.2,85 567.2,85 546.4,85 540,58.6 540,58.6 540,58.6 533.6,85 512.8,85 512.8,85 
		512.8,85 529.6,101.2 523.2,127.6 523.2,127.6 523.2,127.6 540,111.3 556.8,127.6 556.8,127.6 556.8,127.6 550.4,101.2 567.2,85 	
		"/>
	<polygon style="fill:#C8102E;" points="558,89 558,89 544.2,89 540,71.6 540,71.6 540,71.6 535.7,89 522,89 522,89 522,89 
		533.1,99.7 528.9,117.1 528.9,117.1 528.9,117.1 540,106.4 551.1,117.1 551.1,117.1 551.1,117.1 546.9,99.7 558,89 	"/>
	<g transform="rotate(82 900 240)">
		<polygon style="fill:#FFFFFF;" points="792.6,492 792.6,492 790.1,510.3 766.1,512.7 766.1,512.7 766.1,512.7 788.5,521.6 
			785.9,540 785.9,540 785.9,540 802.3,527.2 824.7,536.1 824.7,536.1 824.7,536.1 812.5,519.2 828.9,506.4 828.9,506.4 
			828.9,506.4 804.9,508.8 792.6,492 		"/>
		<polygon style="fill:#C8102E;" points="795.3,501.7 795.3,501.7 793.7,513 778.9,514.5 778.9,514.5 778.9,514.5 792.7,520 
			791.1,531.4 791.1,531.4 791.1,531.4 801.3,523.5 815.2,529 815.2,529 815.2,529 807.6,518.6 817.7,510.6 817.7,510.6 
			817.7,510.6 802.9,512.1 795.3,501.7 		"/>
	</g>
	<g transform="rotate(82 900 240)">
		<polygon style="fill:#FFFFFF;" points="798.9,645.8 798.9,645.8 796,666.4 769,669.1 769,669.1 769,669.1 794.2,679.2 
			791.3,699.8 791.3,699.8 791.3,699.8 809.8,685.4 834.9,695.4 834.9,695.4 834.9,695.4 821.2,676.5 839.6,662.1 839.6,662.1 
			839.6,662.1 812.6,664.8 798.9,645.8 		"/>
		<polygon style="fill:#C8102E;" points="801.5,655.5 801.5,655.5 799.6,669.2 781.8,670.9 781.8,670.9 781.8,670.9 798.4,677.6 
			796.5,691.2 796.5,691.2 796.5,691.2 808.7,681.7 825.4,688.3 825.4,688.3 825.4,688.3 816.3,675.8 828.5,666.3 828.5,666.3 
			828.5,666.3 810.6,668 801.5,655.5 		"/>
	</g>
	<polygon style="fill:#FFFFFF;" points="570.2,371.1 570.2,371.1 547.1,371.1 540,341.9 540,341.9 540,341.9 532.9,371.1 
		509.8,371.1 509.8,371.1 509.8,371.1 528.4,389.2 521.3,418.4 521.3,418.4 521.3,418.4 540,400.3 558.7,418.4 558.7,418.4 
		558.7,418.4 551.5,389.2 570.2,371.1 	"/>
	<polygon style="fill:#C8102E;" points="561,375.1 561,375.1 544.9,375.1 540,354.8 540,354.8 540,354.8 535,375.1 519,375.1 
		519,375.1 519,375.1 532,387.7 527,408 527,408 527,408 540,395.4 553,408 553,408 553,408 548,387.7 561,375.1 	"/>
	<g>
		<g>
			<g>
				<g>
					<defs>
						<rect id="SVGID_1_" x="0" y="1.3" width="276.6" height="201.7"/>
					</defs>
					<clipPath id="SVGID_2_">
						<use xlink:href="#SVGID_1_"  style="overflow:visible;"/>
					</clipPath>
					<g style="clip-path:url(#SVGID_2_);">
						<path style="fill:#012169;" d="M0,1.3V203h276.6V1.3H0z"/>
						<g>
							<path d="M0,1.3L276.6,203 M276.6,1.3L0,203"/>
							<polygon style="fill:#FFFFFF;" points="270.4,221 138.3,124.7 6.2,221 -6.2,185 107.3,102.1 -6.2,19.3 6.2,-16.7 138.3,79.6 
								270.4,-16.7 282.8,19.3 169.2,102.1 282.8,185 							"/>
						</g>
						<g>
							<g>
								<g>
									<defs>
										<polygon id="SVGID_3_" points="138.3,102.1 276.6,102.1 276.6,203 138.3,203 0,203 0,102.1 0,1.3 138.3,1.3 276.6,1.3 
																					"/>
									</defs>
									<clipPath id="SVGID_4_">
										<use xlink:href="#SVGID_3_"  style="overflow:visible;"/>
									</clipPath>
									<g style="clip-path:url(#SVGID_4_);">
										<path d="M0,1.3L276.6,203 M276.6,1.3L0,203"/>
										<polygon style="fill:#C8102E;" points="272.5,215 138.3,117.2 4.1,215 -4.1,191 117.6,102.1 -4.1,13.3 4.1,-10.7 
											138.3,87.1 272.5,-10.7 280.7,13.3 158.9,102.1 280.7,191 										"/>
									</g>
								</g>
							</g>
						</g>
						<g>
							<path d="M138.3,1.3V203 M0,102.1h276.6"/>
							<polygon style="fill:#FFFFFF;" points="161.4,203 115.2,203 115.2,135.7 0,135.7 0,68.6 115.2,68.6 115.2,1.3 161.4,1.3 
								161.4,68.6 276.6,68.6 276.6,135.7 161.4,135.7 							"/>
						</g>
						<g>
							<path d="M138.3,1.3V203 M0,102.1h276.6"/>
							<polygon style="fill:#C8102E;" points="152.1,203 124.5,203 124.5,122.3 0,122.3 0,82 124.5,82 124.5,1.3 152.1,1.3 
								152.1,82 276.6,82 276.6,122.3 152.1,122.3 							"/>
						</g>
					</g>
				</g>
			</g>
		</g>
	</g>
</g>
</svg>
