<?xml version="1.0" encoding="utf-8"?>
<!-- Generator: Adobe Illustrator 25.2.1, SVG Export Plug-In . SVG Version: 6.00 Build 0)  -->
<svg version="1.1" id="Layer_1" xmlns="http://www.w3.org/2000/svg" xmlns:xlink="http://www.w3.org/1999/xlink" x="0px" y="0px"
	 viewBox="0 0 720 480" style="enable-background:new 0 0 720 480;" xml:space="preserve">
<g>
	<rect style="fill:#DB161B;" width="720" height="480"/>
	<rect x="180" style="fill:#FFFFFF;" width="540" height="160"/>
	<rect x="180" y="320" style="fill:#008000;" width="540" height="160"/>
	<g id="a">
		<path style="fill-rule:evenodd;clip-rule:evenodd;fill:#FFFFFF;stroke:#DB161B;stroke-width:0.2833;" d="M41.4,82.1h19.3
			c1.1,0,1.9,1.1,1.9,2.4v12.1c0,1.3-0.9,2.4-1.9,2.4H41.4c-1.1,0-1.9-1.1-1.9-2.4V84.5C39.5,83.2,40.4,82.1,41.4,82.1z"/>
		<path style="fill-rule:evenodd;clip-rule:evenodd;fill:#FFFFFF;stroke:#DB161B;stroke-width:0.2642;" d="M41.9,82.8h18.4
			c1,0,1.8,1,1.8,2.2v11.1c0,1.2-0.8,2.2-1.8,2.2H41.9c-1,0-1.8-1-1.8-2.2V85C40.1,83.8,40.9,82.8,41.9,82.8z"/>
		<path style="fill-rule:evenodd;clip-rule:evenodd;fill:#FFFFFF;stroke:#DB161B;stroke-width:0.1668;" d="M50.3,87.1l1.1,0l0.1,0.7
			l0.9,0.6l0.7-0.8l0.9,0.6l-0.8,0.7l0.2,0.9l1,0V91L53.6,91l-0.4,0.8l0.9,0.9l-0.7,0.7l-0.8-0.8l-1.1,0.3l0.1,1.1l-1.2,0.1L50.2,93
			l-1-0.6l-0.6,0.8l-0.9-0.6l0.5-0.9l-0.6-0.6h-0.9l-0.1-1.6l0.9,0.1l0.6-0.9l-0.7-0.7l0.9-0.8l0.7,0.7l1.1-0.2L50.3,87.1L50.3,87.1
			z"/>
		<ellipse style="fill-rule:evenodd;clip-rule:evenodd;fill:#FFFFFF;stroke:#DB161B;" cx="50.7" cy="90.4" rx="1.2" ry="1.4"/>
		<path style="fill-rule:evenodd;clip-rule:evenodd;fill:#FFFFFF;stroke:#DB161B;stroke-width:0.2642;" d="M43.1,83.5l-1.8,2.1"/>
		<path style="fill-rule:evenodd;clip-rule:evenodd;fill:#FFFFFF;stroke:#DB161B;stroke-width:0.2642;" d="M44.3,83.5l-1.8,2.1"/>
		<path style="fill-rule:evenodd;clip-rule:evenodd;fill:#FFFFFF;stroke:#DB161B;stroke-width:0.2642;" d="M45.5,83.5l-1.8,2.1"/>
		<path style="fill-rule:evenodd;clip-rule:evenodd;fill:#FFFFFF;stroke:#DB161B;stroke-width:0.2642;" d="M46.7,83.5l-1.8,2.1"/>
		<path style="fill-rule:evenodd;clip-rule:evenodd;fill:#FFFFFF;stroke:#DB161B;stroke-width:0.2642;" d="M47.8,83.5l-1.8,2.1"/>
		<path style="fill-rule:evenodd;clip-rule:evenodd;fill:#FFFFFF;stroke:#DB161B;stroke-width:0.2642;" d="M49,83.5l-1.8,2.1"/>
		<path style="fill-rule:evenodd;clip-rule:evenodd;fill:#FFFFFF;stroke:#DB161B;stroke-width:0.2642;" d="M50.2,83.5l-1.8,2.1"/>
		<path style="fill-rule:evenodd;clip-rule:evenodd;fill:#FFFFFF;stroke:#DB161B;stroke-width:0.2642;" d="M51.4,83.5l-1.8,2.1"/>
		<path style="fill-rule:evenodd;clip-rule:evenodd;fill:#FFFFFF;stroke:#DB161B;stroke-width:0.2642;" d="M52.6,83.5l-1.8,2.1"/>
		<path style="fill-rule:evenodd;clip-rule:evenodd;fill:#FFFFFF;stroke:#DB161B;stroke-width:0.2642;" d="M53.8,83.5L52,85.6"/>
		<path style="fill-rule:evenodd;clip-rule:evenodd;fill:#FFFFFF;stroke:#DB161B;stroke-width:0.2642;" d="M55,83.5l-1.8,2.1"/>
		<path style="fill-rule:evenodd;clip-rule:evenodd;fill:#FFFFFF;stroke:#DB161B;stroke-width:0.2642;" d="M56.2,83.5l-1.8,2.1"/>
		<path style="fill-rule:evenodd;clip-rule:evenodd;fill:#FFFFFF;stroke:#DB161B;stroke-width:0.2642;" d="M51.4,83.5l-1.8,2.1"/>
		<path style="fill-rule:evenodd;clip-rule:evenodd;fill:#FFFFFF;stroke:#DB161B;stroke-width:0.2642;" d="M57.4,83.5l-1.8,2.1"/>
		<path style="fill-rule:evenodd;clip-rule:evenodd;fill:#FFFFFF;stroke:#DB161B;stroke-width:0.2642;" d="M58.5,83.5l-1.8,2.1"/>
		<path style="fill-rule:evenodd;clip-rule:evenodd;fill:#FFFFFF;stroke:#DB161B;stroke-width:0.2642;" d="M59.7,83.5L58,85.6"/>
		<path style="fill-rule:evenodd;clip-rule:evenodd;fill:#FFFFFF;stroke:#DB161B;stroke-width:0.2642;" d="M60.9,83.5l-1.8,2.1"/>
		<path style="fill-rule:evenodd;clip-rule:evenodd;fill:#FFFFFF;stroke:#DB161B;stroke-width:0.2642;" d="M59.1,83.5l1.8,2.1"/>
		<path style="fill-rule:evenodd;clip-rule:evenodd;fill:#FFFFFF;stroke:#DB161B;stroke-width:0.2642;" d="M58,83.5l1.8,2.1"/>
		<path style="fill-rule:evenodd;clip-rule:evenodd;fill:#FFFFFF;stroke:#DB161B;stroke-width:0.2642;" d="M56.8,83.5l1.8,2.1"/>
		<path style="fill-rule:evenodd;clip-rule:evenodd;fill:#FFFFFF;stroke:#DB161B;stroke-width:0.2642;" d="M55.6,83.5l1.8,2.1"/>
		<path style="fill-rule:evenodd;clip-rule:evenodd;fill:#FFFFFF;stroke:#DB161B;stroke-width:0.2642;" d="M54.4,83.5l1.8,2.1"/>
		<path style="fill-rule:evenodd;clip-rule:evenodd;fill:#FFFFFF;stroke:#DB161B;stroke-width:0.2642;" d="M53.2,83.5l1.8,2.1"/>
		<path style="fill-rule:evenodd;clip-rule:evenodd;fill:#FFFFFF;stroke:#DB161B;stroke-width:0.2642;" d="M52,83.5l1.8,2.1"/>
		<path style="fill-rule:evenodd;clip-rule:evenodd;fill:#FFFFFF;stroke:#DB161B;stroke-width:0.2642;" d="M50.8,83.5l1.8,2.1"/>
		<path style="fill-rule:evenodd;clip-rule:evenodd;fill:#FFFFFF;stroke:#DB161B;stroke-width:0.2642;" d="M49.6,83.5l1.8,2.1"/>
		<path style="fill-rule:evenodd;clip-rule:evenodd;fill:#FFFFFF;stroke:#DB161B;stroke-width:0.2642;" d="M48.4,83.5l1.8,2.1"/>
		<path style="fill-rule:evenodd;clip-rule:evenodd;fill:#FFFFFF;stroke:#DB161B;stroke-width:0.2642;" d="M47.2,83.5l1.8,2.1"/>
		<path style="fill-rule:evenodd;clip-rule:evenodd;fill:#FFFFFF;stroke:#DB161B;stroke-width:0.2642;" d="M46.1,83.5l1.8,2.1"/>
		<path style="fill-rule:evenodd;clip-rule:evenodd;fill:#FFFFFF;stroke:#DB161B;stroke-width:0.2642;" d="M50.8,83.5l1.8,2.1"/>
		<path style="fill-rule:evenodd;clip-rule:evenodd;fill:#FFFFFF;stroke:#DB161B;stroke-width:0.2642;" d="M44.9,83.5l1.8,2.1"/>
		<path style="fill-rule:evenodd;clip-rule:evenodd;fill:#FFFFFF;stroke:#DB161B;stroke-width:0.2642;" d="M43.7,83.5l1.8,2.1"/>
		<path style="fill-rule:evenodd;clip-rule:evenodd;fill:#FFFFFF;stroke:#DB161B;stroke-width:0.2642;" d="M42.5,83.5l1.8,2.1"/>
		<path style="fill-rule:evenodd;clip-rule:evenodd;fill:#FFFFFF;stroke:#DB161B;stroke-width:0.2642;" d="M41.3,83.5l1.8,2.1"/>
		<path style="fill-rule:evenodd;clip-rule:evenodd;fill:#FFFFFF;stroke:#DB161B;stroke-width:0.2642;" d="M43.1,95.5l-1.8,2.1"/>
		<path style="fill-rule:evenodd;clip-rule:evenodd;fill:#FFFFFF;stroke:#DB161B;stroke-width:0.2642;" d="M44.3,95.5l-1.8,2.1"/>
		<path style="fill-rule:evenodd;clip-rule:evenodd;fill:#FFFFFF;stroke:#DB161B;stroke-width:0.2642;" d="M45.5,95.5l-1.8,2.1"/>
		<path style="fill-rule:evenodd;clip-rule:evenodd;fill:#FFFFFF;stroke:#DB161B;stroke-width:0.2642;" d="M46.7,95.5l-1.8,2.1"/>
		<path style="fill-rule:evenodd;clip-rule:evenodd;fill:#FFFFFF;stroke:#DB161B;stroke-width:0.2642;" d="M47.8,95.5l-1.8,2.1"/>
		<path style="fill-rule:evenodd;clip-rule:evenodd;fill:#FFFFFF;stroke:#DB161B;stroke-width:0.2642;" d="M49,95.5l-1.8,2.1"/>
		<path style="fill-rule:evenodd;clip-rule:evenodd;fill:#FFFFFF;stroke:#DB161B;stroke-width:0.2642;" d="M50.2,95.5l-1.8,2.1"/>
		<path style="fill-rule:evenodd;clip-rule:evenodd;fill:#FFFFFF;stroke:#DB161B;stroke-width:0.2642;" d="M51.4,95.5l-1.8,2.1"/>
		<path style="fill-rule:evenodd;clip-rule:evenodd;fill:#FFFFFF;stroke:#DB161B;stroke-width:0.2642;" d="M52.6,95.5l-1.8,2.1"/>
		<path style="fill-rule:evenodd;clip-rule:evenodd;fill:#FFFFFF;stroke:#DB161B;stroke-width:0.2642;" d="M53.8,95.5L52,97.7"/>
		<path style="fill-rule:evenodd;clip-rule:evenodd;fill:#FFFFFF;stroke:#DB161B;stroke-width:0.2642;" d="M55,95.5l-1.8,2.1"/>
		<path style="fill-rule:evenodd;clip-rule:evenodd;fill:#FFFFFF;stroke:#DB161B;stroke-width:0.2642;" d="M56.2,95.5l-1.8,2.1"/>
		<path style="fill-rule:evenodd;clip-rule:evenodd;fill:#FFFFFF;stroke:#DB161B;stroke-width:0.2642;" d="M51.4,95.5l-1.8,2.1"/>
		<path style="fill-rule:evenodd;clip-rule:evenodd;fill:#FFFFFF;stroke:#DB161B;stroke-width:0.2642;" d="M57.4,95.5l-1.8,2.1"/>
		<path style="fill-rule:evenodd;clip-rule:evenodd;fill:#FFFFFF;stroke:#DB161B;stroke-width:0.2642;" d="M58.5,95.5l-1.8,2.1"/>
		<path style="fill-rule:evenodd;clip-rule:evenodd;fill:#FFFFFF;stroke:#DB161B;stroke-width:0.2642;" d="M59.7,95.5L58,97.7"/>
		<path style="fill-rule:evenodd;clip-rule:evenodd;fill:#FFFFFF;stroke:#DB161B;stroke-width:0.2642;" d="M60.9,95.5l-1.8,2.1"/>
		<path style="fill-rule:evenodd;clip-rule:evenodd;fill:#FFFFFF;stroke:#DB161B;stroke-width:0.2642;" d="M59.1,95.5l1.8,2.1"/>
		<path style="fill-rule:evenodd;clip-rule:evenodd;fill:#FFFFFF;stroke:#DB161B;stroke-width:0.2642;" d="M58,95.5l1.8,2.1"/>
		<path style="fill-rule:evenodd;clip-rule:evenodd;fill:#FFFFFF;stroke:#DB161B;stroke-width:0.2642;" d="M56.8,95.5l1.8,2.1"/>
		<path style="fill-rule:evenodd;clip-rule:evenodd;fill:#FFFFFF;stroke:#DB161B;stroke-width:0.2642;" d="M55.6,95.5l1.8,2.1"/>
		<path style="fill-rule:evenodd;clip-rule:evenodd;fill:#FFFFFF;stroke:#DB161B;stroke-width:0.2642;" d="M54.4,95.5l1.8,2.1"/>
		<path style="fill-rule:evenodd;clip-rule:evenodd;fill:#FFFFFF;stroke:#DB161B;stroke-width:0.2642;" d="M53.2,95.5l1.8,2.1"/>
		<path style="fill-rule:evenodd;clip-rule:evenodd;fill:#FFFFFF;stroke:#DB161B;stroke-width:0.2642;" d="M52,95.5l1.8,2.1"/>
		<path style="fill-rule:evenodd;clip-rule:evenodd;fill:#FFFFFF;stroke:#DB161B;stroke-width:0.2642;" d="M50.8,95.5l1.8,2.1"/>
		<path style="fill-rule:evenodd;clip-rule:evenodd;fill:#FFFFFF;stroke:#DB161B;stroke-width:0.2642;" d="M49.6,95.5l1.8,2.1"/>
		<path style="fill-rule:evenodd;clip-rule:evenodd;fill:#FFFFFF;stroke:#DB161B;stroke-width:0.2642;" d="M48.4,95.5l1.8,2.1"/>
		<path style="fill-rule:evenodd;clip-rule:evenodd;fill:#FFFFFF;stroke:#DB161B;stroke-width:0.2642;" d="M47.2,95.5l1.8,2.1"/>
		<path style="fill-rule:evenodd;clip-rule:evenodd;fill:#FFFFFF;stroke:#DB161B;stroke-width:0.2642;" d="M46.1,95.5l1.8,2.1"/>
		<path style="fill-rule:evenodd;clip-rule:evenodd;fill:#FFFFFF;stroke:#DB161B;stroke-width:0.2642;" d="M50.8,95.5l1.8,2.1"/>
		<path style="fill-rule:evenodd;clip-rule:evenodd;fill:#FFFFFF;stroke:#DB161B;stroke-width:0.2642;" d="M44.9,95.5l1.8,2.1"/>
		<path style="fill-rule:evenodd;clip-rule:evenodd;fill:#FFFFFF;stroke:#DB161B;stroke-width:0.2642;" d="M43.7,95.5l1.8,2.1"/>
		<path style="fill-rule:evenodd;clip-rule:evenodd;fill:#FFFFFF;stroke:#DB161B;stroke-width:0.2642;" d="M42.5,95.5l1.8,2.1"/>
		<path style="fill-rule:evenodd;clip-rule:evenodd;fill:#FFFFFF;stroke:#DB161B;stroke-width:0.2642;" d="M41.3,95.5l1.8,2.1"/>
	</g>
	<g transform="scale(-1,1)">
		<g id="a_1_">
			<path style="fill-rule:evenodd;clip-rule:evenodd;fill:#FFFFFF;stroke:#DB161B;stroke-width:0.2833;" d="M138.6,82.1h-19.3
				c-1.1,0-1.9,1.1-1.9,2.4v12.1c0,1.3,0.9,2.4,1.9,2.4h19.3c1.1,0,1.9-1.1,1.9-2.4V84.5C140.5,83.2,139.6,82.1,138.6,82.1z"/>
			<path style="fill-rule:evenodd;clip-rule:evenodd;fill:#FFFFFF;stroke:#DB161B;stroke-width:0.2642;" d="M138.1,82.8h-18.4
				c-1,0-1.8,1-1.8,2.2v11.1c0,1.2,0.8,2.2,1.8,2.2h18.4c1,0,1.8-1,1.8-2.2V85C139.9,83.8,139.1,82.8,138.1,82.8z"/>
			<path style="fill-rule:evenodd;clip-rule:evenodd;fill:#FFFFFF;stroke:#DB161B;stroke-width:0.1668;" d="M129.7,87.1l-1.1,0
				l-0.1,0.7l-0.9,0.6l-0.7-0.8l-0.9,0.6l0.8,0.7l-0.2,0.9l-1,0V91l0.8-0.1l0.4,0.8l-0.9,0.9l0.7,0.7l0.8-0.8l1.1,0.3l-0.1,1.1
				l1.2,0.1l0.2-1.1l1-0.6l0.6,0.8l0.9-0.6l-0.5-0.9l0.6-0.6h0.9l0.1-1.6l-0.9,0.1l-0.6-0.9l0.7-0.7l-0.9-0.8l-0.7,0.7l-1.1-0.2
				L129.7,87.1L129.7,87.1z"/>
			<ellipse style="fill-rule:evenodd;clip-rule:evenodd;fill:#FFFFFF;stroke:#DB161B;" cx="129.3" cy="90.4" rx="1.2" ry="1.4"/>
			<path style="fill-rule:evenodd;clip-rule:evenodd;fill:#FFFFFF;stroke:#DB161B;stroke-width:0.2642;" d="M136.9,83.5l1.8,2.1"/>
			<path style="fill-rule:evenodd;clip-rule:evenodd;fill:#FFFFFF;stroke:#DB161B;stroke-width:0.2642;" d="M135.7,83.5l1.8,2.1"/>
			<path style="fill-rule:evenodd;clip-rule:evenodd;fill:#FFFFFF;stroke:#DB161B;stroke-width:0.2642;" d="M134.5,83.5l1.8,2.1"/>
			<path style="fill-rule:evenodd;clip-rule:evenodd;fill:#FFFFFF;stroke:#DB161B;stroke-width:0.2642;" d="M133.3,83.5l1.8,2.1"/>
			<path style="fill-rule:evenodd;clip-rule:evenodd;fill:#FFFFFF;stroke:#DB161B;stroke-width:0.2642;" d="M132.2,83.5l1.8,2.1"/>
			<path style="fill-rule:evenodd;clip-rule:evenodd;fill:#FFFFFF;stroke:#DB161B;stroke-width:0.2642;" d="M131,83.5l1.8,2.1"/>
			<path style="fill-rule:evenodd;clip-rule:evenodd;fill:#FFFFFF;stroke:#DB161B;stroke-width:0.2642;" d="M129.8,83.5l1.8,2.1"/>
			<path style="fill-rule:evenodd;clip-rule:evenodd;fill:#FFFFFF;stroke:#DB161B;stroke-width:0.2642;" d="M128.6,83.5l1.8,2.1"/>
			<path style="fill-rule:evenodd;clip-rule:evenodd;fill:#FFFFFF;stroke:#DB161B;stroke-width:0.2642;" d="M127.4,83.5l1.8,2.1"/>
			<path style="fill-rule:evenodd;clip-rule:evenodd;fill:#FFFFFF;stroke:#DB161B;stroke-width:0.2642;" d="M126.2,83.5l1.8,2.1"/>
			<path style="fill-rule:evenodd;clip-rule:evenodd;fill:#FFFFFF;stroke:#DB161B;stroke-width:0.2642;" d="M125,83.5l1.8,2.1"/>
			<path style="fill-rule:evenodd;clip-rule:evenodd;fill:#FFFFFF;stroke:#DB161B;stroke-width:0.2642;" d="M123.8,83.5l1.8,2.1"/>
			<path style="fill-rule:evenodd;clip-rule:evenodd;fill:#FFFFFF;stroke:#DB161B;stroke-width:0.2642;" d="M128.6,83.5l1.8,2.1"/>
			<path style="fill-rule:evenodd;clip-rule:evenodd;fill:#FFFFFF;stroke:#DB161B;stroke-width:0.2642;" d="M122.6,83.5l1.8,2.1"/>
			<path style="fill-rule:evenodd;clip-rule:evenodd;fill:#FFFFFF;stroke:#DB161B;stroke-width:0.2642;" d="M121.5,83.5l1.8,2.1"/>
			<path style="fill-rule:evenodd;clip-rule:evenodd;fill:#FFFFFF;stroke:#DB161B;stroke-width:0.2642;" d="M120.3,83.5l1.8,2.1"/>
			<path style="fill-rule:evenodd;clip-rule:evenodd;fill:#FFFFFF;stroke:#DB161B;stroke-width:0.2642;" d="M119.1,83.5l1.8,2.1"/>
			<path style="fill-rule:evenodd;clip-rule:evenodd;fill:#FFFFFF;stroke:#DB161B;stroke-width:0.2642;" d="M120.9,83.5l-1.8,2.1"/>
			<path style="fill-rule:evenodd;clip-rule:evenodd;fill:#FFFFFF;stroke:#DB161B;stroke-width:0.2642;" d="M122,83.5l-1.8,2.1"/>
			<path style="fill-rule:evenodd;clip-rule:evenodd;fill:#FFFFFF;stroke:#DB161B;stroke-width:0.2642;" d="M123.2,83.5l-1.8,2.1"/>
			<path style="fill-rule:evenodd;clip-rule:evenodd;fill:#FFFFFF;stroke:#DB161B;stroke-width:0.2642;" d="M124.4,83.5l-1.8,2.1"/>
			<path style="fill-rule:evenodd;clip-rule:evenodd;fill:#FFFFFF;stroke:#DB161B;stroke-width:0.2642;" d="M125.6,83.5l-1.8,2.1"/>
			<path style="fill-rule:evenodd;clip-rule:evenodd;fill:#FFFFFF;stroke:#DB161B;stroke-width:0.2642;" d="M126.8,83.5l-1.8,2.1"/>
			<path style="fill-rule:evenodd;clip-rule:evenodd;fill:#FFFFFF;stroke:#DB161B;stroke-width:0.2642;" d="M128,83.5l-1.8,2.1"/>
			<path style="fill-rule:evenodd;clip-rule:evenodd;fill:#FFFFFF;stroke:#DB161B;stroke-width:0.2642;" d="M129.2,83.5l-1.8,2.1"/>
			<path style="fill-rule:evenodd;clip-rule:evenodd;fill:#FFFFFF;stroke:#DB161B;stroke-width:0.2642;" d="M130.4,83.5l-1.8,2.1"/>
			<path style="fill-rule:evenodd;clip-rule:evenodd;fill:#FFFFFF;stroke:#DB161B;stroke-width:0.2642;" d="M131.6,83.5l-1.8,2.1"/>
			<path style="fill-rule:evenodd;clip-rule:evenodd;fill:#FFFFFF;stroke:#DB161B;stroke-width:0.2642;" d="M132.8,83.5l-1.8,2.1"/>
			<path style="fill-rule:evenodd;clip-rule:evenodd;fill:#FFFFFF;stroke:#DB161B;stroke-width:0.2642;" d="M133.9,83.5l-1.8,2.1"/>
			<path style="fill-rule:evenodd;clip-rule:evenodd;fill:#FFFFFF;stroke:#DB161B;stroke-width:0.2642;" d="M129.2,83.5l-1.8,2.1"/>
			<path style="fill-rule:evenodd;clip-rule:evenodd;fill:#FFFFFF;stroke:#DB161B;stroke-width:0.2642;" d="M135.1,83.5l-1.8,2.1"/>
			<path style="fill-rule:evenodd;clip-rule:evenodd;fill:#FFFFFF;stroke:#DB161B;stroke-width:0.2642;" d="M136.3,83.5l-1.8,2.1"/>
			<path style="fill-rule:evenodd;clip-rule:evenodd;fill:#FFFFFF;stroke:#DB161B;stroke-width:0.2642;" d="M137.5,83.5l-1.8,2.1"/>
			<path style="fill-rule:evenodd;clip-rule:evenodd;fill:#FFFFFF;stroke:#DB161B;stroke-width:0.2642;" d="M138.7,83.5l-1.8,2.1"/>
			<path style="fill-rule:evenodd;clip-rule:evenodd;fill:#FFFFFF;stroke:#DB161B;stroke-width:0.2642;" d="M136.9,95.5l1.8,2.1"/>
			<path style="fill-rule:evenodd;clip-rule:evenodd;fill:#FFFFFF;stroke:#DB161B;stroke-width:0.2642;" d="M135.7,95.5l1.8,2.1"/>
			<path style="fill-rule:evenodd;clip-rule:evenodd;fill:#FFFFFF;stroke:#DB161B;stroke-width:0.2642;" d="M134.5,95.5l1.8,2.1"/>
			<path style="fill-rule:evenodd;clip-rule:evenodd;fill:#FFFFFF;stroke:#DB161B;stroke-width:0.2642;" d="M133.3,95.5l1.8,2.1"/>
			<path style="fill-rule:evenodd;clip-rule:evenodd;fill:#FFFFFF;stroke:#DB161B;stroke-width:0.2642;" d="M132.2,95.5l1.8,2.1"/>
			<path style="fill-rule:evenodd;clip-rule:evenodd;fill:#FFFFFF;stroke:#DB161B;stroke-width:0.2642;" d="M131,95.5l1.8,2.1"/>
			<path style="fill-rule:evenodd;clip-rule:evenodd;fill:#FFFFFF;stroke:#DB161B;stroke-width:0.2642;" d="M129.8,95.5l1.8,2.1"/>
			<path style="fill-rule:evenodd;clip-rule:evenodd;fill:#FFFFFF;stroke:#DB161B;stroke-width:0.2642;" d="M128.6,95.5l1.8,2.1"/>
			<path style="fill-rule:evenodd;clip-rule:evenodd;fill:#FFFFFF;stroke:#DB161B;stroke-width:0.2642;" d="M127.4,95.5l1.8,2.1"/>
			<path style="fill-rule:evenodd;clip-rule:evenodd;fill:#FFFFFF;stroke:#DB161B;stroke-width:0.2642;" d="M126.2,95.5l1.8,2.1"/>
			<path style="fill-rule:evenodd;clip-rule:evenodd;fill:#FFFFFF;stroke:#DB161B;stroke-width:0.2642;" d="M125,95.5l1.8,2.1"/>
			<path style="fill-rule:evenodd;clip-rule:evenodd;fill:#FFFFFF;stroke:#DB161B;stroke-width:0.2642;" d="M123.8,95.5l1.8,2.1"/>
			<path style="fill-rule:evenodd;clip-rule:evenodd;fill:#FFFFFF;stroke:#DB161B;stroke-width:0.2642;" d="M128.6,95.5l1.8,2.1"/>
			<path style="fill-rule:evenodd;clip-rule:evenodd;fill:#FFFFFF;stroke:#DB161B;stroke-width:0.2642;" d="M122.6,95.5l1.8,2.1"/>
			<path style="fill-rule:evenodd;clip-rule:evenodd;fill:#FFFFFF;stroke:#DB161B;stroke-width:0.2642;" d="M121.5,95.5l1.8,2.1"/>
			<path style="fill-rule:evenodd;clip-rule:evenodd;fill:#FFFFFF;stroke:#DB161B;stroke-width:0.2642;" d="M120.3,95.5l1.8,2.1"/>
			<path style="fill-rule:evenodd;clip-rule:evenodd;fill:#FFFFFF;stroke:#DB161B;stroke-width:0.2642;" d="M119.1,95.5l1.8,2.1"/>
			<path style="fill-rule:evenodd;clip-rule:evenodd;fill:#FFFFFF;stroke:#DB161B;stroke-width:0.2642;" d="M120.9,95.5l-1.8,2.1"/>
			<path style="fill-rule:evenodd;clip-rule:evenodd;fill:#FFFFFF;stroke:#DB161B;stroke-width:0.2642;" d="M122,95.5l-1.8,2.1"/>
			<path style="fill-rule:evenodd;clip-rule:evenodd;fill:#FFFFFF;stroke:#DB161B;stroke-width:0.2642;" d="M123.2,95.5l-1.8,2.1"/>
			<path style="fill-rule:evenodd;clip-rule:evenodd;fill:#FFFFFF;stroke:#DB161B;stroke-width:0.2642;" d="M124.4,95.5l-1.8,2.1"/>
			<path style="fill-rule:evenodd;clip-rule:evenodd;fill:#FFFFFF;stroke:#DB161B;stroke-width:0.2642;" d="M125.6,95.5l-1.8,2.1"/>
			<path style="fill-rule:evenodd;clip-rule:evenodd;fill:#FFFFFF;stroke:#DB161B;stroke-width:0.2642;" d="M126.8,95.5l-1.8,2.1"/>
			<path style="fill-rule:evenodd;clip-rule:evenodd;fill:#FFFFFF;stroke:#DB161B;stroke-width:0.2642;" d="M128,95.5l-1.8,2.1"/>
			<path style="fill-rule:evenodd;clip-rule:evenodd;fill:#FFFFFF;stroke:#DB161B;stroke-width:0.2642;" d="M129.2,95.5l-1.8,2.1"/>
			<path style="fill-rule:evenodd;clip-rule:evenodd;fill:#FFFFFF;stroke:#DB161B;stroke-width:0.2642;" d="M130.4,95.5l-1.8,2.1"/>
			<path style="fill-rule:evenodd;clip-rule:evenodd;fill:#FFFFFF;stroke:#DB161B;stroke-width:0.2642;" d="M131.6,95.5l-1.8,2.1"/>
			<path style="fill-rule:evenodd;clip-rule:evenodd;fill:#FFFFFF;stroke:#DB161B;stroke-width:0.2642;" d="M132.8,95.5l-1.8,2.1"/>
			<path style="fill-rule:evenodd;clip-rule:evenodd;fill:#FFFFFF;stroke:#DB161B;stroke-width:0.2642;" d="M133.9,95.5l-1.8,2.1"/>
			<path style="fill-rule:evenodd;clip-rule:evenodd;fill:#FFFFFF;stroke:#DB161B;stroke-width:0.2642;" d="M129.2,95.5l-1.8,2.1"/>
			<path style="fill-rule:evenodd;clip-rule:evenodd;fill:#FFFFFF;stroke:#DB161B;stroke-width:0.2642;" d="M135.1,95.5l-1.8,2.1"/>
			<path style="fill-rule:evenodd;clip-rule:evenodd;fill:#FFFFFF;stroke:#DB161B;stroke-width:0.2642;" d="M136.3,95.5l-1.8,2.1"/>
			<path style="fill-rule:evenodd;clip-rule:evenodd;fill:#FFFFFF;stroke:#DB161B;stroke-width:0.2642;" d="M137.5,95.5l-1.8,2.1"/>
			<path style="fill-rule:evenodd;clip-rule:evenodd;fill:#FFFFFF;stroke:#DB161B;stroke-width:0.2642;" d="M138.7,95.5l-1.8,2.1"/>
		</g>
	</g>
	<g id="b">
		<path style="fill-rule:evenodd;clip-rule:evenodd;fill:#FFFFFF;stroke:#DB161B;stroke-width:0.4237;" d="M75.9,117.7
			c-28.9,37.6-41.2,42.4-35.4,45.4c5.8,3,24.4-16.4,43.7-42.2c19.3-25.8,31.2-48.8,25.4-51.8C103.8,66.1,106.6,77.7,75.9,117.7z"/>
		<path style="fill-rule:evenodd;clip-rule:evenodd;fill:#FFFFFF;stroke:#DB161B;stroke-width:0.3303;" d="M51.6,145l10.1,3.5
			c-9.5,12-20.2,17-23.2,14.9C35.5,161.3,43.9,156.4,51.6,145L51.6,145z"/>
		<path style="fill-rule:evenodd;clip-rule:evenodd;fill:#FFFFFF;stroke:#DB161B;stroke-width:0.3303;" d="M51.6,146.5l8.3,2.8
			c-9.3,11.6-18.4,14.8-20.8,13.4C36.7,161.3,44.1,157.3,51.6,146.5z"/>
		<path style="fill:none;stroke:#DB161B;stroke-width:0.3303;" d="M82.7,116c0,0.2-0.1,1-0.2,1.3c0,0.4,0,0.8-0.1,1.1
			c-0.1,0.3-0.1,0.6-0.4,0.7c-0.2,0.4-0.3,0.5-0.6,0.6c-0.2,0.2-0.5,0.4-0.7,0.5c-0.3,0.2-0.6,0.2-0.9,0.1c-0.3-0.2-0.4-0.4-0.7-0.6
			c-0.1-0.3-0.1-0.7-0.1-1c0.1,0.3,0.1,0.7,0.1,1.1c0,0.4-0.1,0.6-0.3,1"/>
		<path style="fill:none;stroke:#DB161B;stroke-width:0.3303;" d="M79.9,121.9C79.9,121.9,79.9,121.8,79.9,121.9
			c0.1,0.1,0,0-0.4-0.3c-0.3-0.2-0.6-0.3-1-0.4h-1c-0.4,0-0.7,0.1-1,0.2c-0.2,0.2-0.5,0.4-0.7,0.6c-0.2,0.2-0.3,0.4-0.4,0.7
			c-0.2,0.2-0.3,0.6-0.5,0.8c-0.1,0.4-0.3,0.4-0.4,0.7c0.3,0,0.6,0.1,0.8,0.3c0.3,0.2-0.3-0.2-0.4-0.3c-0.2-0.1-0.3-0.2-0.7-0.2
			c-0.3-0.1-0.5,0.1-0.9,0.2c-0.2,0.1-0.3,0.2-0.5,0.2"/>
		<path style="fill:none;stroke:#DB161B;stroke-width:0.3303;" d="M75.9,126.3c-0.1,0-0.8,0.2-1.1,0c-0.3-0.1-0.5-0.3-0.7-0.6
			c-0.1-0.2,0,0.4,0,0.7c0,0.5-0.2,0.5-0.4,0.9c-0.2,0.2-0.4,0.4-0.7,0.5c-0.2,0.2-0.4,0.3-0.7,0.4c-0.2,0.1-0.5,0.2-0.7,0.4
			c-0.2,0.2-0.2,0.5-0.4,0.8c0,0.4,0.1,0.7,0.3,0.9c0.1,0.3,0.3,0.6,0.4,0.8c0.2,0.4,0.4,0.6-0.1,0.7c-0.3,0.1-0.4,0-0.7,0"/>
		<path style="fill:none;stroke:#DB161B;stroke-width:0.3303;" d="M71.3,132.4c-0.2,0-0.8-0.3-1.1-0.4h-1c-0.4,0-0.5,0.2-0.8,0.3
			c-0.2,0.3-0.4,0.4-0.7,0.6c-0.2,0.2-0.5,0.6-0.6,1c-0.1,0.3-0.1,0.7-0.1,1.1c0,0.5,0.1,0.6,0.1,1c0.1,0.4,0.2,0.7,0.4,1
			c0,0.1,0.1,0.1,0.1,0.2"/>
		<path style="fill:none;stroke:#DB161B;stroke-width:0.3303;" d="M67.8,138.4c0,0-0.1,0.2-0.2,0.4c-0.2,0.3-0.3,0.3-0.6,0.3
			c-0.3,0-0.3-0.2-0.5-0.3c-0.1-0.2-0.2-0.4-0.4-0.7c-0.1-0.2-0.2-0.5-0.3-0.6c-0.1-0.2-0.2-0.4-0.3-0.6c-0.1-0.1-0.1-0.1-0.3-0.1
			c0.3,0.1,0.3,0.2,0.5,0.4c0.1,0.2,0.2,0.4,0.3,0.6c0,0.3,0.1,0.5,0.1,0.9c0,0.4,0,0.6-0.1,1c-0.1,0.2-0.2,0.4-0.4,0.5
			c-0.1,0.2-0.3,0.4-0.4,0.5c-0.2,0.1-0.3,0.2-0.5,0.4c-0.2,0.1-0.3,0.2-0.6,0.3c-0.3,0-0.4-0.1-0.6-0.3c-0.2-0.2-0.4-0.3-0.5-0.5
			c-0.1-0.1-0.3-0.4-0.4-0.6c-0.3-0.1-0.5-0.1-0.6,0.1c-0.1,0.1-0.3,0.3-0.4,0.5c-0.1,0.1-0.2,0.2-0.3,0.3"/>
		<path style="fill:none;stroke:#DB161B;stroke-width:0.3303;" d="M62,141.2c0.1,0,0.4,0.3,0.5,0.4c0.1,0.4,0.2,0.6,0.3,0.9
			c0.1,0.4,0.1,0.8,0.1,1.2c-0.1,0.4-0.2,0.8-0.3,1.1c-0.2,0.2-0.3,0.3-0.6,0.5c-0.3,0-0.5,0.1-0.8,0.1c-0.2,0.1-0.6,0.1-0.8,0
			c-0.3-0.1-0.5-0.2-0.7-0.3c-0.2-0.2-0.4-0.4-0.7-0.5c-0.1-0.2-0.3-0.5-0.5-0.8c-0.2-0.3-0.3-0.4-0.4-0.8c0.1,0.4,0.2,0.7,0.3,1
			c0.1,0.4,0.2,0.5,0.3,0.9c0.1,0.4,0.1,0.8,0.1,1.2c0,0.3,0,0.8-0.1,1v0.3"/>
		<path style="fill:none;stroke:#DB161B;stroke-width:0.3303;" d="M52.3,149v0.1c0-0.3,0-0.2,0.1,0.5c0.2,0.3,0.7,0.4,1,0.2
			c0.3-0.3,0.3-0.6,0.9-0.7c0.6,0,0.8,0.3,1.2,0.5c0.4,0.2,0.6,0.4,0.8,0.9c0.1,0.4,0.2,0.7-0.2,0.9c-0.3,0.3-0.7,0.4-1.2,0.5
			c-0.5,0-0.8-0.1-1,0.2c-0.3,0.4-0.3,0.7-0.3,1.4c-0.1,0.2-0.1,0.9-0.2,1.1c-0.3,0.2-0.5,0.2-0.9,0.2c-0.1-0.4-0.2-1.1-0.3-1.5
			c-0.1-0.4-0.1-1.1-0.3-1.4c-0.2-0.3-0.4-0.6-0.7-0.9c-0.1-0.2-0.4-0.4-0.6-0.5c0.4,0.2,0.5,0.5,0.5,1.1c-0.4,0.2-0.5,0.4-1,0.4
			c-0.6-0.1-0.7-0.2-0.9-0.6c0,0.6-0.2,0.8-0.3,1.4c-0.2,0.4-0.3,0.8-0.5,1.2c0.1,0.6,0.3,0.6,0.3,1.4c0.1,0.5,0.1,1,0.4,1.2
			c0.1,0.2,0.2,0.2,0.5,0.2c-0.6,0-1-0.1-1.4-0.4c-0.3-0.2-0.5-0.5-0.8-0.7c-0.4-0.3-0.8-0.6-1.3-0.8c-0.5,0-0.8-0.1-1,0.2
			c-0.3,0.3-0.5,0.7-0.6,1.2c-0.1,0.6-0.1,1.1,0.1,1.5c0.2,0.5,0.2,0.7,0,1.2c-0.2,0.4-0.6,0.5-1.2,0.6c-0.4,0-0.8-0.1-1-0.2"/>
		<path style="fill-rule:evenodd;clip-rule:evenodd;fill:#FFFFFF;stroke:#DB161B;stroke-width:0.3352;" d="M108.8,83.7
			c12.8-29.5,21.3-54.6,19-56c-2.3-1.4-14.6,21.3-27.4,50.8L108.8,83.7z"/>
		<path style="fill-rule:evenodd;clip-rule:evenodd;fill:#FFFFFF;stroke:#DB161B;stroke-width:0.2945;" d="M108,83.2
			c12.4-28.4,20.9-52.5,19-53.6c-1.9-1.1-13.4,21-25.8,49.4"/>
		<path style="fill-rule:evenodd;clip-rule:evenodd;fill:#FFFFFF;stroke:#DB161B;stroke-width:0.3342;" d="M105.9,68.4
			c-1.5,3.3-3.1,7.1-4.6,10.7l6.8,4.2c1.5-3.6,3.2-7.3,4.6-10.7L105.9,68.4L105.9,68.4z"/>
		<path style="fill-rule:evenodd;clip-rule:evenodd;fill:#FFFFFF;stroke:#DB161B;stroke-width:0.3342;" d="M106.4,69.5
			c-1.5,3.3-2.5,5.9-4.1,9.4l5.1,3.1c1.5-3.6,2.7-6,4.1-9.4L106.4,69.5L106.4,69.5z"/>
		<polygon style="fill:#FFFFFF;stroke:#DB161B;stroke-width:0.335;" points="110.1,73.4 106.7,71.3 103.7,78.2 107.1,80.3 		"/>
		<path style="fill-rule:evenodd;clip-rule:evenodd;fill:#FFFFFF;stroke:#DB161B;stroke-width:0.3342;" d="M110.1,73.4l-6.4,4.8"/>
		<path style="fill-rule:evenodd;clip-rule:evenodd;fill:#FFFFFF;stroke:#DB161B;stroke-width:0.3342;" d="M107.1,80.3l-0.4-9"/>
		<path style="fill-rule:evenodd;clip-rule:evenodd;fill:#FFFFFF;stroke:#DB161B;stroke-width:0.3342;" d="M125.4,38.2l-3.4-2.1"/>
		
			<ellipse transform="matrix(0.1612 -0.9869 0.9869 0.1612 71.654 151.927)" style="fill:#DB161B;stroke:#DB161B;" cx="125.2" cy="33.8" rx="1.2" ry="1"/>
	</g>
	<g transform="scale(-1,1)">
		<g id="b_1_">
			<path style="fill-rule:evenodd;clip-rule:evenodd;fill:#FFFFFF;stroke:#DB161B;stroke-width:0.4237;" d="M104.1,117.7
				c28.9,37.6,41.2,42.4,35.4,45.4c-5.8,3-24.4-16.4-43.7-42.2C76.4,95.1,64.6,72.2,70.4,69.1C76.2,66.1,73.4,77.7,104.1,117.7z"/>
			<path style="fill-rule:evenodd;clip-rule:evenodd;fill:#FFFFFF;stroke:#DB161B;stroke-width:0.3303;" d="M128.4,145l-10.1,3.5
				c9.5,12,20.2,17,23.2,14.9C144.5,161.3,136.1,156.4,128.4,145L128.4,145z"/>
			<path style="fill-rule:evenodd;clip-rule:evenodd;fill:#FFFFFF;stroke:#DB161B;stroke-width:0.3303;" d="M128.4,146.5l-8.3,2.8
				c9.3,11.6,18.4,14.8,20.8,13.4C143.3,161.3,135.9,157.3,128.4,146.5z"/>
			<path style="fill:none;stroke:#DB161B;stroke-width:0.3303;" d="M97.3,116c0,0.2,0.1,1,0.2,1.3c0,0.4,0,0.8,0.1,1.1
				c0.1,0.3,0.1,0.6,0.4,0.7c0.2,0.4,0.3,0.5,0.6,0.6c0.2,0.2,0.5,0.4,0.7,0.5c0.3,0.2,0.6,0.2,0.9,0.1c0.3-0.2,0.4-0.4,0.7-0.6
				c0.1-0.3,0.1-0.7,0.1-1c-0.1,0.3-0.1,0.7-0.1,1.1c0,0.4,0.1,0.6,0.3,1"/>
			<path style="fill:none;stroke:#DB161B;stroke-width:0.3303;" d="M100.1,121.9C100.1,121.9,100.1,121.8,100.1,121.9
				c-0.1,0.1,0,0,0.4-0.3c0.3-0.2,0.6-0.3,1-0.4h1c0.4,0,0.7,0.1,1,0.2c0.2,0.2,0.5,0.4,0.7,0.6c0.2,0.2,0.3,0.4,0.4,0.7
				c0.2,0.2,0.3,0.6,0.5,0.8c0.1,0.4,0.3,0.4,0.4,0.7c-0.3,0-0.6,0.1-0.8,0.3c-0.3,0.2,0.3-0.2,0.4-0.3c0.2-0.1,0.3-0.2,0.7-0.2
				c0.3-0.1,0.5,0.1,0.9,0.2c0.2,0.1,0.3,0.2,0.5,0.2"/>
			<path style="fill:none;stroke:#DB161B;stroke-width:0.3303;" d="M104.1,126.3c0.1,0,0.8,0.2,1.1,0c0.3-0.1,0.5-0.3,0.7-0.6
				c0.1-0.2,0,0.4,0,0.7c0,0.5,0.2,0.5,0.4,0.9c0.2,0.2,0.4,0.4,0.7,0.5c0.2,0.2,0.4,0.3,0.7,0.4c0.2,0.1,0.5,0.2,0.7,0.4
				c0.2,0.2,0.2,0.5,0.4,0.8c0,0.4-0.1,0.7-0.3,0.9c-0.1,0.3-0.3,0.6-0.4,0.8c-0.2,0.4-0.4,0.6,0.1,0.7c0.3,0.1,0.4,0,0.7,0"/>
			<path style="fill:none;stroke:#DB161B;stroke-width:0.3303;" d="M108.7,132.4c0.2,0,0.8-0.3,1.1-0.4h1c0.4,0,0.5,0.2,0.8,0.3
				c0.2,0.3,0.4,0.4,0.7,0.6c0.2,0.2,0.5,0.6,0.6,1c0.1,0.3,0.1,0.7,0.1,1.1c0,0.5-0.1,0.6-0.1,1c-0.1,0.4-0.2,0.7-0.4,1
				c0,0.1-0.1,0.1-0.1,0.2"/>
			<path style="fill:none;stroke:#DB161B;stroke-width:0.3303;" d="M112.2,138.4c0,0,0.1,0.2,0.2,0.4c0.2,0.3,0.3,0.3,0.6,0.3
				c0.3,0,0.3-0.2,0.5-0.3c0.1-0.2,0.2-0.4,0.4-0.7c0.1-0.2,0.2-0.5,0.3-0.6c0.1-0.2,0.2-0.4,0.3-0.6c0.1-0.1,0.1-0.1,0.3-0.1
				c-0.3,0.1-0.3,0.2-0.5,0.4c-0.1,0.2-0.2,0.4-0.3,0.6c0,0.3-0.1,0.5-0.1,0.9c0,0.4,0,0.6,0.1,1c0.1,0.2,0.2,0.4,0.4,0.5
				c0.1,0.2,0.3,0.4,0.4,0.5c0.2,0.1,0.3,0.2,0.5,0.4c0.2,0.1,0.3,0.2,0.6,0.3c0.3,0,0.4-0.1,0.6-0.3c0.2-0.2,0.4-0.3,0.5-0.5
				c0.1-0.1,0.3-0.4,0.4-0.6c0.3-0.1,0.5-0.1,0.6,0.1c0.1,0.1,0.3,0.3,0.4,0.5c0.1,0.1,0.2,0.2,0.3,0.3"/>
			<path style="fill:none;stroke:#DB161B;stroke-width:0.3303;" d="M118,141.2c-0.1,0-0.4,0.3-0.5,0.4c-0.1,0.4-0.2,0.6-0.3,0.9
				c-0.1,0.4-0.1,0.8-0.1,1.2c0.1,0.4,0.2,0.8,0.3,1.1c0.2,0.2,0.3,0.3,0.6,0.5c0.3,0,0.5,0.1,0.8,0.1c0.2,0.1,0.6,0.1,0.8,0
				c0.3-0.1,0.5-0.2,0.7-0.3c0.2-0.2,0.4-0.4,0.7-0.5c0.1-0.2,0.3-0.5,0.5-0.8c0.2-0.3,0.3-0.4,0.4-0.8c-0.1,0.4-0.2,0.7-0.3,1
				c-0.1,0.4-0.2,0.5-0.3,0.9c-0.1,0.4-0.1,0.8-0.1,1.2c0,0.3,0,0.8,0.1,1v0.3"/>
			<path style="fill:none;stroke:#DB161B;stroke-width:0.3303;" d="M127.7,149v0.1c0-0.3,0-0.2-0.1,0.5c-0.2,0.3-0.7,0.4-1,0.2
				c-0.3-0.3-0.3-0.6-0.9-0.7c-0.6,0-0.8,0.3-1.2,0.5c-0.4,0.2-0.6,0.4-0.8,0.9c-0.1,0.4-0.2,0.7,0.2,0.9c0.3,0.3,0.7,0.4,1.2,0.5
				c0.5,0,0.8-0.1,1,0.2c0.3,0.4,0.3,0.7,0.3,1.4c0.1,0.2,0.1,0.9,0.2,1.1c0.3,0.2,0.5,0.2,0.9,0.2c0.1-0.4,0.2-1.1,0.3-1.5
				c0.1-0.4,0.1-1.1,0.3-1.4c0.2-0.3,0.4-0.6,0.7-0.9c0.1-0.2,0.4-0.4,0.6-0.5c-0.4,0.2-0.5,0.5-0.5,1.1c0.4,0.2,0.5,0.4,1,0.4
				c0.6-0.1,0.7-0.2,0.9-0.6c0,0.6,0.2,0.8,0.3,1.4c0.2,0.4,0.3,0.8,0.5,1.2c-0.1,0.6-0.3,0.6-0.3,1.4c-0.1,0.5-0.1,1-0.4,1.2
				c-0.1,0.2-0.2,0.2-0.5,0.2c0.6,0,1-0.1,1.4-0.4c0.3-0.2,0.5-0.5,0.8-0.7c0.4-0.3,0.8-0.6,1.3-0.8c0.5,0,0.8-0.1,1,0.2
				c0.3,0.3,0.5,0.7,0.6,1.2c0.1,0.6,0.1,1.1-0.1,1.5c-0.2,0.5-0.2,0.7,0,1.2c0.2,0.4,0.6,0.5,1.2,0.6c0.4,0,0.8-0.1,1-0.2"/>
			<path style="fill-rule:evenodd;clip-rule:evenodd;fill:#FFFFFF;stroke:#DB161B;stroke-width:0.3352;" d="M71.2,83.7
				c-12.8-29.5-21.3-54.6-19-56c2.3-1.4,14.6,21.3,27.4,50.8L71.2,83.7z"/>
			<path style="fill-rule:evenodd;clip-rule:evenodd;fill:#FFFFFF;stroke:#DB161B;stroke-width:0.2945;" d="M72,83.2
				C59.6,54.8,51.1,30.7,53,29.6c1.9-1.1,13.4,21,25.8,49.4"/>
			<path style="fill-rule:evenodd;clip-rule:evenodd;fill:#FFFFFF;stroke:#DB161B;stroke-width:0.3342;" d="M74.1,68.4
				c1.5,3.3,3.1,7.1,4.6,10.7L72,83.2c-1.5-3.6-3.2-7.3-4.6-10.7L74.1,68.4L74.1,68.4z"/>
			<path style="fill-rule:evenodd;clip-rule:evenodd;fill:#FFFFFF;stroke:#DB161B;stroke-width:0.3342;" d="M73.6,69.5
				c1.5,3.3,2.5,5.9,4.1,9.4l-5.1,3.1c-1.5-3.6-2.7-6-4.1-9.4L73.6,69.5L73.6,69.5z"/>
			<polygon style="fill:#FFFFFF;stroke:#DB161B;stroke-width:0.335;" points="69.9,73.4 73.3,71.3 76.3,78.2 72.9,80.3 			"/>
			<path style="fill-rule:evenodd;clip-rule:evenodd;fill:#FFFFFF;stroke:#DB161B;stroke-width:0.3342;" d="M69.9,73.4l6.4,4.8"/>
			<path style="fill-rule:evenodd;clip-rule:evenodd;fill:#FFFFFF;stroke:#DB161B;stroke-width:0.3342;" d="M72.9,80.3l0.4-9"/>
			<path style="fill-rule:evenodd;clip-rule:evenodd;fill:#FFFFFF;stroke:#DB161B;stroke-width:0.3342;" d="M54.6,38.2l3.4-2.1"/>
			
				<ellipse transform="matrix(0.9869 -0.1612 0.1612 0.9869 -4.7338 9.2759)" style="fill:#DB161B;stroke:#DB161B;" cx="54.8" cy="33.8" rx="1" ry="1.2"/>
		</g>
	</g>
	<path style="fill-rule:evenodd;clip-rule:evenodd;fill:#FFFFFF;stroke:#DB161B;stroke-width:0.3051;" d="M81.2,68
		c0,24.8,0.1,34.1-1.3,35.4c-1.3,1.4-37.4,0-37.4,7.1s29.7,14.1,38.7,14.1c11.9,0,17.8-7.1,17.8-21.2V68L81.2,68L81.2,68z"/>
	<path style="fill-rule:evenodd;clip-rule:evenodd;fill:#FFFFFF;stroke:#DB161B;stroke-width:0.2642;" d="M81.2,75v3.5
		c6,1.2,11.9,1.2,17.8,0V75C93.1,76.2,87.1,76.2,81.2,75z"/>
	<path style="fill-rule:evenodd;clip-rule:evenodd;fill:#FFFFFF;stroke:#DB161B;stroke-width:0.2642;" d="M81.2,68v3.5
		c6,1.2,11.9,1.2,17.8,0V68C93.1,69.1,87.1,69.1,81.2,68z"/>
	<path style="fill-rule:evenodd;clip-rule:evenodd;fill:#FFFFFF;stroke:#DB161B;stroke-width:0.2642;" d="M81.2,71.5V75
		c6,1.2,11.9,1.2,17.8,0v-3.5C93.1,72.7,87.1,72.7,81.2,71.5z"/>
	<path style="fill-rule:evenodd;clip-rule:evenodd;fill:#FFFFFF;stroke:#DB161B;stroke-width:0.2642;" d="M81.2,78.6v3.5
		c6,1.2,11.9,1.2,17.8,0v-3.5C93.1,79.8,87.1,79.8,81.2,78.6z"/>
	<ellipse style="fill:#FFFFFF;stroke:#DB161B;stroke-width:4.4628;" cx="82" cy="73.5" rx="0.8" ry="0.8"/>
	<ellipse style="fill:#FFFFFF;stroke:#DB161B;stroke-width:4.4628;" cx="85.2" cy="73.9" rx="0.8" ry="0.8"/>
	<ellipse style="fill:#FFFFFF;stroke:#DB161B;stroke-width:4.4629;" cx="88.5" cy="74.3" rx="0.8" ry="0.8"/>
	<ellipse style="fill:#FFFFFF;stroke:#DB161B;stroke-width:4.4629;" cx="91.7" cy="74.3" rx="0.8" ry="0.8"/>
	<ellipse style="fill:#FFFFFF;stroke:#DB161B;stroke-width:4.4628;" cx="94.9" cy="73.9" rx="0.8" ry="0.8"/>
	<ellipse style="fill:#FFFFFF;stroke:#DB161B;stroke-width:4.4628;" cx="98.2" cy="73.5" rx="0.8" ry="0.8"/>
	<g>
		<path style="fill-rule:evenodd;clip-rule:evenodd;fill:#FFFFFF;stroke:#DB161B;stroke-width:0.2642;" d="M81.2,85.6L99,104.7"/>
		<path style="fill-rule:evenodd;clip-rule:evenodd;fill:#FFFFFF;stroke:#DB161B;stroke-width:0.2642;" d="M82.9,85.6l16.1,17"/>
		<path style="fill-rule:evenodd;clip-rule:evenodd;fill:#FFFFFF;stroke:#DB161B;stroke-width:0.2642;" d="M85.3,86.4L99,100.5"/>
		<path style="fill-rule:evenodd;clip-rule:evenodd;fill:#FFFFFF;stroke:#DB161B;stroke-width:0.2642;" d="M87.1,86.4l11.9,12"/>
		<path style="fill-rule:evenodd;clip-rule:evenodd;fill:#FFFFFF;stroke:#DB161B;stroke-width:0.2642;" d="M88.9,86.4L99,96.3"/>
		<path style="fill-rule:evenodd;clip-rule:evenodd;fill:#FFFFFF;stroke:#DB161B;stroke-width:0.2642;" d="M90.7,86.4l8.3,7.8"/>
		<path style="fill-rule:evenodd;clip-rule:evenodd;fill:#FFFFFF;stroke:#DB161B;stroke-width:0.2642;" d="M92.5,86.4L99,92"/>
		<path style="fill-rule:evenodd;clip-rule:evenodd;fill:#FFFFFF;stroke:#DB161B;stroke-width:0.2642;" d="M94.2,86.4l4.8,4.2"/>
		<path style="fill-rule:evenodd;clip-rule:evenodd;fill:#FFFFFF;stroke:#DB161B;stroke-width:0.2642;" d="M96,86.4l3,2.8"/>
		<path style="fill-rule:evenodd;clip-rule:evenodd;fill:#FFFFFF;stroke:#DB161B;stroke-width:0.2642;" d="M97.8,86.4l1.2,1.4"/>
		<path style="fill-rule:evenodd;clip-rule:evenodd;fill:#FFFFFF;stroke:#DB161B;stroke-width:0.2642;" d="M81.2,87.8L99,106.9"/>
		<path style="fill-rule:evenodd;clip-rule:evenodd;fill:#FFFFFF;stroke:#DB161B;stroke-width:0.2642;" d="M99,85.6l-19.6,21.2"/>
		<path style="fill-rule:evenodd;clip-rule:evenodd;fill:#FFFFFF;stroke:#DB161B;stroke-width:0.2642;" d="M97.2,85.6L80,104"/>
		<path style="fill-rule:evenodd;clip-rule:evenodd;fill:#FFFFFF;stroke:#DB161B;stroke-width:0.2642;" d="M94.8,86.4l-13.7,14.1"/>
		<path style="fill-rule:evenodd;clip-rule:evenodd;fill:#FFFFFF;stroke:#DB161B;stroke-width:0.2642;" d="M93.1,86.4l-11.9,12"/>
		<path style="fill-rule:evenodd;clip-rule:evenodd;fill:#FFFFFF;stroke:#DB161B;stroke-width:0.2642;" d="M91.3,86.4l-10.1,9.9"/>
		<path style="fill-rule:evenodd;clip-rule:evenodd;fill:#FFFFFF;stroke:#DB161B;stroke-width:0.2642;" d="M89.5,86.4l-8.3,7.8"/>
		<path style="fill-rule:evenodd;clip-rule:evenodd;fill:#FFFFFF;stroke:#DB161B;stroke-width:0.2642;" d="M87.7,86.4L81.2,92"/>
		<path style="fill-rule:evenodd;clip-rule:evenodd;fill:#FFFFFF;stroke:#DB161B;stroke-width:0.2642;" d="M85.9,86.4l-4.8,4.2"/>
		<path style="fill-rule:evenodd;clip-rule:evenodd;fill:#FFFFFF;stroke:#DB161B;stroke-width:0.2642;" d="M84.1,86.4l-3,2.8"/>
		<path style="fill-rule:evenodd;clip-rule:evenodd;fill:#FFFFFF;stroke:#DB161B;stroke-width:0.2642;" d="M82.3,86.4l-1.2,1.4"/>
		<path style="fill-rule:evenodd;clip-rule:evenodd;fill:#FFFFFF;stroke:#DB161B;stroke-width:0.2642;" d="M99,87.8L79.4,109"/>
		<path style="fill-rule:evenodd;clip-rule:evenodd;fill:#FFFFFF;stroke:#DB161B;stroke-width:0.2642;" d="M99,89.9l-19.6,21.2"/>
		<path style="fill-rule:evenodd;clip-rule:evenodd;fill:#FFFFFF;stroke:#DB161B;stroke-width:0.2642;" d="M99,92l-19.6,21.2"/>
		<path style="fill-rule:evenodd;clip-rule:evenodd;fill:#FFFFFF;stroke:#DB161B;stroke-width:0.2642;" d="M99,94.1l-19.6,21.2"/>
		<path style="fill-rule:evenodd;clip-rule:evenodd;fill:#FFFFFF;stroke:#DB161B;stroke-width:0.2642;" d="M99,96.3l-19.6,21.2"/>
		<path style="fill-rule:evenodd;clip-rule:evenodd;fill:#FFFFFF;stroke:#DB161B;stroke-width:0.2642;" d="M99,98.4l-19.6,21.2"/>
		<path style="fill-rule:evenodd;clip-rule:evenodd;fill:#FFFFFF;stroke:#DB161B;stroke-width:0.2642;" d="M99,100.5l-19.6,21.2"/>
		<path style="fill-rule:evenodd;clip-rule:evenodd;fill:#FFFFFF;stroke:#DB161B;stroke-width:0.2642;" d="M99,102.6l-19.6,21.2"/>
		<path style="fill-rule:evenodd;clip-rule:evenodd;fill:#FFFFFF;stroke:#DB161B;stroke-width:0.2642;" d="M99,104.7l-18.4,19.8"/>
		<path style="fill-rule:evenodd;clip-rule:evenodd;fill:#FFFFFF;stroke:#DB161B;stroke-width:0.2642;" d="M99,106.9l-16.7,17.7"/>
		<path style="fill-rule:evenodd;clip-rule:evenodd;fill:#FFFFFF;stroke:#DB161B;stroke-width:0.2642;" d="M98.4,109.7l-13.1,14.1"
			/>
		<path style="fill-rule:evenodd;clip-rule:evenodd;fill:#FFFFFF;stroke:#DB161B;stroke-width:0.2642;" d="M97.8,112.5l-10.7,11.3"
			/>
		<path style="fill-rule:evenodd;clip-rule:evenodd;fill:#FFFFFF;stroke:#DB161B;stroke-width:0.2642;" d="M96.6,116.1l-5.4,5.7"/>
		<path style="fill-rule:evenodd;clip-rule:evenodd;fill:#FFFFFF;stroke:#DB161B;stroke-width:0.2642;" d="M81.2,89.9l17.2,18.4"/>
		<path style="fill-rule:evenodd;clip-rule:evenodd;fill:#FFFFFF;stroke:#DB161B;stroke-width:0.2642;" d="M81.2,92l17.2,18.4"/>
		<path style="fill-rule:evenodd;clip-rule:evenodd;fill:#FFFFFF;stroke:#DB161B;stroke-width:0.2642;" d="M81.2,94.1l16.7,17.7"/>
		<path style="fill-rule:evenodd;clip-rule:evenodd;fill:#FFFFFF;stroke:#DB161B;stroke-width:0.2642;" d="M81.2,96.3l16.7,17.7"/>
		<path style="fill-rule:evenodd;clip-rule:evenodd;fill:#FFFFFF;stroke:#DB161B;stroke-width:0.2642;" d="M81.2,98.4l16.1,17"/>
		<path style="fill-rule:evenodd;clip-rule:evenodd;fill:#FFFFFF;stroke:#DB161B;stroke-width:0.2642;" d="M80.6,99.8l16.1,17"/>
		<path style="fill-rule:evenodd;clip-rule:evenodd;fill:#FFFFFF;stroke:#DB161B;stroke-width:0.2642;" d="M80.6,101.9l14.9,15.6"/>
		<path style="fill-rule:evenodd;clip-rule:evenodd;fill:#FFFFFF;stroke:#DB161B;stroke-width:0.2642;" d="M80,103.3l14.9,15.6"/>
		<path style="fill-rule:evenodd;clip-rule:evenodd;fill:#FFFFFF;stroke:#DB161B;stroke-width:0.2642;" d="M79.4,104.7l14.3,14.8"/>
		<path style="fill-rule:evenodd;clip-rule:evenodd;fill:#FFFFFF;stroke:#DB161B;stroke-width:0.2642;" d="M79.4,106.9L93.1,121"/>
		<path style="fill-rule:evenodd;clip-rule:evenodd;fill:#FFFFFF;stroke:#DB161B;stroke-width:0.2642;" d="M79.4,109l11.9,12.7"/>
	</g>
	<path style="fill-rule:evenodd;clip-rule:evenodd;fill:#FFFFFF;stroke:#DB161B;stroke-width:0.2642;" d="M81.2,82.1v3.5
		c6,1.2,11.9,1.2,17.8,0v-3.5C93.1,83.3,87.1,83.3,81.2,82.1z"/>
	<path style="fill-rule:evenodd;clip-rule:evenodd;fill:#FFFFFF;stroke:#DB161B;stroke-width:0.2642;" d="M79.4,111.1l10.7,11.3"/>
	<path style="fill-rule:evenodd;clip-rule:evenodd;fill:#FFFFFF;stroke:#DB161B;stroke-width:0.2642;" d="M79.4,113.2l9.5,9.9"/>
	<path style="fill-rule:evenodd;clip-rule:evenodd;fill:#FFFFFF;stroke:#DB161B;stroke-width:0.2642;" d="M79.4,115.4l8.3,8.5"/>
	<path style="fill-rule:evenodd;clip-rule:evenodd;fill:#FFFFFF;stroke:#DB161B;stroke-width:0.2642;" d="M79.4,117.5l5.9,6.4"/>
	<path style="fill-rule:evenodd;clip-rule:evenodd;fill:#FFFFFF;stroke:#DB161B;stroke-width:0.2642;" d="M79.4,119.6l4.8,5"/>
	<path style="fill-rule:evenodd;clip-rule:evenodd;fill:#FFFFFF;stroke:#DB161B;stroke-width:0.2642;" d="M79.4,121.7l3,2.8"/>
	<ellipse style="fill:#FFFFFF;stroke:#DB161B;stroke-width:4.4628;" cx="82" cy="84.1" rx="0.8" ry="0.8"/>
	<ellipse style="fill:#FFFFFF;stroke:#DB161B;stroke-width:4.4628;" cx="85.2" cy="84.5" rx="0.8" ry="0.8"/>
	<ellipse style="fill:#FFFFFF;stroke:#DB161B;stroke-width:4.4629;" cx="88.5" cy="84.9" rx="0.8" ry="0.8"/>
	<ellipse style="fill:#FFFFFF;stroke:#DB161B;stroke-width:4.4629;" cx="91.7" cy="84.9" rx="0.8" ry="0.8"/>
	<ellipse style="fill:#FFFFFF;stroke:#DB161B;stroke-width:4.4628;" cx="94.9" cy="84.5" rx="0.8" ry="0.8"/>
	<ellipse style="fill:#FFFFFF;stroke:#DB161B;stroke-width:4.4628;" cx="98.2" cy="84.1" rx="0.8" ry="0.8"/>
	<g>
		<path style="fill-rule:evenodd;clip-rule:evenodd;fill:#FFFFFF;stroke:#DB161B;stroke-width:0.2642;" d="M55.6,118.9L77,104"/>
		<path style="fill-rule:evenodd;clip-rule:evenodd;fill:#FFFFFF;stroke:#DB161B;stroke-width:0.2642;" d="M54.4,118.2L74.6,104"/>
		<path style="fill-rule:evenodd;clip-rule:evenodd;fill:#FFFFFF;stroke:#DB161B;stroke-width:0.2642;" d="M53.8,116.8L72.2,104"/>
		<path style="fill-rule:evenodd;clip-rule:evenodd;fill:#FFFFFF;stroke:#DB161B;stroke-width:0.2642;" d="M53.2,115.4L69.3,104"/>
		<path style="fill-rule:evenodd;clip-rule:evenodd;fill:#FFFFFF;stroke:#DB161B;stroke-width:0.2642;" d="M52,113.9l14.9-9.9"/>
		<path style="fill-rule:evenodd;clip-rule:evenodd;fill:#FFFFFF;stroke:#DB161B;stroke-width:0.2642;" d="M52.6,111.8l10.1-7.1"/>
		<path style="fill-rule:evenodd;clip-rule:evenodd;fill:#FFFFFF;stroke:#DB161B;stroke-width:0.2642;" d="M52,110.4l7.7-5.7"/>
		<path style="fill-rule:evenodd;clip-rule:evenodd;fill:#FFFFFF;stroke:#DB161B;stroke-width:0.2642;" d="M52,108.3l5.4-3.5"/>
		<path style="fill-rule:evenodd;clip-rule:evenodd;fill:#FFFFFF;stroke:#DB161B;stroke-width:0.2642;" d="M57.4,119.6l20.2-14.1"/>
		<path style="fill-rule:evenodd;clip-rule:evenodd;fill:#FFFFFF;stroke:#DB161B;stroke-width:0.2642;" d="M59.1,120.3l19-13.4"/>
		<path style="fill-rule:evenodd;clip-rule:evenodd;fill:#FFFFFF;stroke:#DB161B;stroke-width:0.2642;" d="M60.9,121l17.8-12.7"/>
		<path style="fill-rule:evenodd;clip-rule:evenodd;fill:#FFFFFF;stroke:#DB161B;stroke-width:0.2642;" d="M62.7,121.7l14.9-10.6"/>
		<path style="fill-rule:evenodd;clip-rule:evenodd;fill:#FFFFFF;stroke:#DB161B;stroke-width:0.2642;" d="M65.1,121.7l13.1-9.2"/>
		<path style="fill-rule:evenodd;clip-rule:evenodd;fill:#FFFFFF;stroke:#DB161B;stroke-width:0.2642;" d="M66.9,122.4l11.3-7.8"/>
		<path style="fill-rule:evenodd;clip-rule:evenodd;fill:#FFFFFF;stroke:#DB161B;stroke-width:0.2642;" d="M68.7,123.1l8.9-6.4"/>
		<path style="fill-rule:evenodd;clip-rule:evenodd;fill:#FFFFFF;stroke:#DB161B;stroke-width:0.2642;" d="M71,123.1l7.1-5"/>
		<path style="fill-rule:evenodd;clip-rule:evenodd;fill:#FFFFFF;stroke:#DB161B;stroke-width:0.2642;" d="M73.4,123.8l4.8-3.5"/>
		<path style="fill-rule:evenodd;clip-rule:evenodd;fill:#FFFFFF;stroke:#DB161B;stroke-width:0.2642;" d="M75.8,123.8l3-2.1"/>
	</g>
	<path style="fill-rule:evenodd;clip-rule:evenodd;fill:#FFFFFF;stroke:#DB161B;stroke-width:0.2642;" d="M80,103.3h-3
		c-1,7.1-1,14.1,0,21.2h3C79,117.5,79,110.4,80,103.3z"/>
	<path style="fill-rule:evenodd;clip-rule:evenodd;fill:#FFFFFF;stroke:#DB161B;stroke-width:0.2642;" d="M44.9,113.2l7.1-7.1"/>
	<path style="fill-rule:evenodd;clip-rule:evenodd;fill:#FFFFFF;stroke:#DB161B;stroke-width:0.2642;" d="M44.9,108.3l7.1,8.5"/>
	<path style="fill-rule:evenodd;clip-rule:evenodd;fill:#FFFFFF;stroke:#DB161B;stroke-width:0.1881;" d="M55.6,104.7l-3.6,0.7
		c-0.8,4.5-0.8,8.2,0,12.7l3.6,1.4C54.8,115.1,54.8,109.2,55.6,104.7L55.6,104.7z"/>
	<path style="fill-rule:evenodd;clip-rule:evenodd;fill:#FFFFFF;stroke:#DB161B;stroke-width:0.3234;" d="M99,69.4v-3.6
		c-2.7,0-4.5-2.1-4.5-4.2l-8.9,0c0,2.1-1.8,4.2-4.5,4.2v3.5H99z"/>
	<rect x="86.2" y="57.4" style="fill:#FFFFFF;stroke:#DB161B;stroke-width:0.2734;" width="7.6" height="4.2"/>
	<rect x="86.9" y="53.1" style="fill:#FFFFFF;stroke:#DB161B;stroke-width:0.2734;" width="6.4" height="4.2"/>
	<rect x="86.9" y="48.9" style="fill:#FFFFFF;stroke:#DB161B;stroke-width:0.2734;" width="6.4" height="4.2"/>
	<rect x="87.5" y="43.2" style="fill:#FFFFFF;stroke:#DB161B;stroke-width:0.2734;" width="5.1" height="5.7"/>
	<rect x="87.3" y="38.3" style="fill:#FFFFFF;stroke:#DB161B;stroke-width:0.2849;" width="5.5" height="5"/>
	<ellipse style="fill:#FFFFFF;stroke:#DB161B;" cx="90.4" cy="33.7" rx="7.4" ry="6.7"/>
	<path style="fill-rule:evenodd;clip-rule:evenodd;fill:#FFFFFF;stroke:#DB161B;stroke-width:0.2686;" d="M94.1,33.3
		c0,1.9,1.8,5,1.8,5c-1.3,1.2-3.5,2.1-5.5,2.1c-2,0-4.6-0.5-5.5-2.1c0,0,1.8-3.1,1.8-5c0-1.9-1.8-4.2-1.8-4.2
		c1.3-1.2,3.5-2.1,5.5-2.1c2,0,4.2,0.9,5.5,2.1C95.9,29.1,94.1,31.5,94.1,33.3z"/>
	<path style="fill-rule:evenodd;clip-rule:evenodd;fill:#FFFFFF;stroke:#DB161B;stroke-width:0.2686;" d="M92.8,33.3
		c0,1.9,1.8,5.7,1.8,5.7c-1.3,1.2-2.3,1.4-4.3,1.4c-2,0-3.3,0.2-4.3-1.4c0,0,1.8-3.8,1.8-5.7c0-1.9-1.8-5-1.8-5
		c1.3-1.2,2.3-1.4,4.3-1.4c2,0,3,0.2,4.3,1.4C94.7,28.4,92.8,31.5,92.8,33.3z"/>
	<ellipse style="fill:#FFFFFF;stroke:#DB161B;" cx="83" cy="34" rx="1.8" ry="2.1"/>
	<ellipse style="fill:#FFFFFF;stroke:#DB161B;" cx="97.8" cy="34" rx="1.8" ry="2.1"/>
	<ellipse style="fill:#FFFFFF;stroke:#DB161B;" cx="90.4" cy="34" rx="1.8" ry="2.1"/>
	<ellipse style="fill:#FFFFFF;stroke:#DB161B;" cx="90.4" cy="26.9" rx="1.8" ry="2.1"/>
	<ellipse style="fill:#FFFFFF;stroke:#DB161B;" cx="85" cy="67.3" rx="1.9" ry="2.1"/>
	<ellipse style="fill:#FFFFFF;stroke:#DB161B;" cx="95.2" cy="67.3" rx="1.9" ry="2.1"/>
	<path style="fill-rule:evenodd;clip-rule:evenodd;fill:#FFFFFF;stroke:#DB161B;stroke-width:0.2733;" d="M85.6,61.6h8.9L90.1,68
		L85.6,61.6L85.6,61.6z"/>
	<ellipse style="fill:#FFFFFF;stroke:#DB161B;" cx="90.1" cy="66.6" rx="2.5" ry="2.8"/>
	<path style="fill:#FFFFFF;stroke:#DB161B;stroke-width:0.3303;" d="M81,87.8h12.2c0.4,0,0.7,0.3,0.7,0.8v2.7c0,0.4-0.3,0.8-0.7,0.8
		H81c-0.4,0-0.7-0.3-0.7-0.8v-2.7C80.3,88.1,80.6,87.8,81,87.8z"/>
	<path style="fill-rule:evenodd;clip-rule:evenodd;fill:#FFFFFF;stroke:#DB161B;stroke-width:0.3303;" d="M98.1,84.2
		c-1.6,0-3,1.6-3,3.7v3.2c0,2,1.3,3.7,3,3.7c1.7,0,3-1.6,3-3.7v-3.2C101.1,85.9,99.8,84.2,98.1,84.2z M98.1,85.7c-1,0-1.8,1.3-1.8,3
		v1.9c0,1.6,0.8,3,1.8,3c1,0,1.8-1.3,1.8-3v-1.9C99.9,87,99.1,85.7,98.1,85.7z"/>
	<path style="fill-rule:evenodd;clip-rule:evenodd;fill:#FFFFFF;stroke:#DB161B;stroke-width:0.3303;" d="M82.6,85
		c-1,0-1.8,1.3-1.8,3v3.3c0,1.6,0.8,3,1.8,3s1.8-1.3,1.8-3v-3.3C84.4,86.3,83.6,85,82.6,85z M82.6,83.5c-1.7,0-3,1.6-3,3.7v4.6
		c0,2,1.3,3.7,3,3.7s3-1.6,3-3.7v-4.6C85.6,85.2,84.3,83.5,82.6,83.5z"/>
	<path style="fill-rule:evenodd;clip-rule:evenodd;fill:#FFFFFF;stroke:#DB161B;stroke-width:0.3303;" d="M77.9,86.4
		c-1,0-1.8,1.3-1.8,3v0.8c0,1.6,0.8,3,1.8,3s1.8-1.3,1.8-3v-0.8C79.7,87.7,78.9,86.4,77.9,86.4z M77.9,85c-1.7,0-3,1.6-3,3.7v2.1
		c0,2,1.3,3.7,3,3.7c1.6,0,3-1.6,3-3.7v-2.1C80.9,86.6,79.5,85,77.9,85z"/>
	<path style="fill-rule:evenodd;clip-rule:evenodd;fill:#FFFFFF;stroke:#DB161B;stroke-width:0.3303;" d="M70.7,84.4
		c-1.8,0-3.2,1.5-3.2,3.3v3.7c0,1.8,1.4,3.3,3.2,3.3s3.2-1.5,3.2-3.3v-3.7C74,85.9,72.5,84.4,70.7,84.4z M70.7,82.8
		c-3,0-5.4,1.8-5.4,4.1v5.2c0,2.3,2.4,4.1,5.4,4.1s5.4-1.8,5.4-4.1V87C76.1,84.7,73.7,82.8,70.7,82.8z"/>
	<path style="fill-rule:evenodd;clip-rule:evenodd;fill:#FFFFFF;stroke:#DB161B;stroke-width:0.3303;" d="M109.4,85.1
		c-1.8,0-3.2,1.5-3.2,3.3v3.7c0,1.8,1.4,3.3,3.2,3.3c1.8,0,3.2-1.5,3.2-3.3v-3.7C112.6,86.6,111.2,85.1,109.4,85.1z M109.4,83.5
		c-3,0-5.4,1.8-5.4,4.1v5.2c0,2.3,2.4,4.1,5.4,4.1c3,0,5.4-1.8,5.4-4.1v-5.2C114.8,85.4,112.4,83.5,109.4,83.5L109.4,83.5z"/>
	<path style="fill:#FFFFFF;stroke:#DB161B;stroke-width:0.3303;" d="M99.7,87.8h6.4c0.2,0,0.4,0.3,0.4,0.8v2.7
		c0,0.4-0.2,0.8-0.4,0.8h-6.4c-0.2,0-0.4-0.3-0.4-0.8v-2.7C99.3,88.1,99.5,87.8,99.7,87.8z"/>
	<path style="fill:#FFFFFF;stroke:#DB161B;stroke-width:0.3303;" d="M93,87.1h3.7c0.1,0,0.2,0.4,0.2,1v3.7c0,0.6-0.1,1-0.2,1H93
		c-0.1,0-0.2-0.4-0.2-1v-3.7C92.8,87.5,92.9,87.1,93,87.1z"/>
	<path style="fill:#FFFFFF;stroke:#DB161B;stroke-width:0.3303;" d="M73.4,87.1h3.7c0.1,0,0.2,0.4,0.2,1v3.7c0,0.6-0.1,1-0.2,1h-3.7
		c-0.1,0-0.2-0.4-0.2-1v-3.7C73.1,87.5,73.2,87.1,73.4,87.1z"/>
	<path style="fill:#FFFFFF;stroke:#DB161B;stroke-width:0.3303;" d="M60.5,86.4h7.4c0.2,0,0.5,0.6,0.5,1.3v4.6
		c0,0.7-0.2,1.3-0.5,1.3h-7.4c-0.2,0-0.5-0.6-0.5-1.3v-4.6C60,86.9,60.2,86.4,60.5,86.4z"/>
	<path style="fill:#FFFFFF;stroke:#DB161B;stroke-width:0.3303;" d="M112.2,87.1h6.9c0.2,0,0.4,0.6,0.4,1.3v4.6
		c0,0.7-0.2,1.3-0.4,1.3h-6.9c-0.2,0-0.4-0.6-0.4-1.3v-4.6C111.8,87.6,112,87.1,112.2,87.1z"/>
</g>
</svg>
