<?xml version="1.0" encoding="utf-8"?>
<!-- Generator: Adobe Illustrator 25.2.1, SVG Export Plug-In . SVG Version: 6.00 Build 0)  -->
<svg version="1.1" id="Layer_1" xmlns="http://www.w3.org/2000/svg" xmlns:xlink="http://www.w3.org/1999/xlink" x="0px" y="0px"
	 viewBox="0 0 720 480" style="enable-background:new 0 0 720 480;" xml:space="preserve">
<g>
	<path style="fill:#FFFFFF;" d="M0,0h720v480H0V0z"/>
	<path style="fill:#002855;" d="M0,240h360v240H0V240z"/>
	<path style="fill:#A6192E;" d="M360,0h360v240H360V0z"/>
	<path style="fill-rule:evenodd;clip-rule:evenodd;fill:#A6192E;" d="M540,300l13.5,41.5l43.6,0l-35.3,25.6l13.5,41.5L540,382.9
		l-35.3,25.6l13.5-41.5l-35.3-25.6l43.6,0L540,300z"/>
	<path style="fill-rule:evenodd;clip-rule:evenodd;fill:#002855;" d="M180,60l13.5,41.5l43.6,0l-35.3,25.6l13.5,41.5L180,142.9
		l-35.3,25.6l13.5-41.5l-35.3-25.6l43.6,0L180,60z"/>
</g>
</svg>
