<?xml version="1.0" encoding="utf-8"?>
<!-- Generator: Adobe Illustrator 25.2.1, SVG Export Plug-In . SVG Version: 6.00 Build 0)  -->
<svg version="1.1" id="Layer_1" xmlns="http://www.w3.org/2000/svg" xmlns:xlink="http://www.w3.org/1999/xlink" x="0px" y="0px"
	 viewBox="0 0 720 480" style="enable-background:new 0 0 720 480;" xml:space="preserve">
<g>
	<path style="fill:#CE1126;" d="M0,0h720v480H0V0z"/>
	<path style="fill:#FFFFFF;" d="M0,120h720v240H0V120z"/>
	<g>
		<defs>
			<ellipse id="SVGID_1_" cx="360" cy="240.5" rx="103.2" ry="106"/>
		</defs>
		<clipPath id="SVGID_2_">
			<use xlink:href="#SVGID_1_"  style="overflow:visible;"/>
		</clipPath>
		<g transform="translate(-.528 -.947) scale(1.00176)" style="clip-path:url(#SVGID_2_);">
			<path style="fill:none;" d="M359.9,875.6"/>
			<g>
				<path style="fill:#083D9C;stroke:#083D9C;stroke-width:2.0566;stroke-miterlimit:4.007;" d="M335.8,330.3
					c-7.4,0.4-14.8,5.4-18.3,8.1c6.2,2.7,12.9,4.8,19.9,6.3c11.2,1.9,22.5,1.9,33.8,1.9c1.8-0.2,3.7-0.5,5.4-0.8l23.7-8
					c0,0-11.4-7.5-20.4-7.2c-9,0.3-15.1,9.2-22.4,8.5c-7.3-0.7-10.2-8.8-20.7-8.8C336.4,330.3,336.1,330.3,335.8,330.3L335.8,330.3z
					"/>
				<path style="fill:#083D9C;stroke:#083D9C;stroke-width:1.9324;stroke-miterlimit:4.007;" d="M427.4,324.8
					c0,0-11.7-12.4-25.4-12.7c-13.7-0.3-9.9,5.8-20.4,6.6c-10.5,0.9-13.1-6.3-22.7-6c-9.6,0.3-15.2,6-22.4,6.3
					c-7.3,0.3-16.6-7.2-22.2-6.9c-5.5,0.3-25.4,8.6-25.4,8.6l3.8,3.5L427.4,324.8z M275.5,308.3l166.2,0.6
					c2.6-3.7-8.2-12.7-18.1-13.5c-8.2,0.3-14,8.4-20.7,8.6c-6.7,0.3-14.3-8.4-21.9-8.1c-7.6,0.3-15.4,8.1-23,8.1
					c-7.6,0-13.1-8.4-22.7-8.4c-9.6,0-14,9.2-21.3,8.6c-7.3-0.6-13.7-9.2-20.7-9.2c-7,0-18.7,10.4-21,9.8
					C270,304.3,275.5,308.3,275.5,308.3L275.5,308.3z M339.7,292.4l37.1,0c0,0-8.3-12.7-18.5-11.8
					C346.9,280.9,339.7,292.4,339.7,292.4L339.7,292.4z M458,291.6h-50.8c0,0,6.6-3.8,8.4-7.4c3.3,1.8,2.4,3.5,9,3.8
					c6.6,0.3,12.8-7.4,19.1-7.1C450,281.2,458,291.6,458,291.6z M258,291.6h50.8c0,0-6.6-3.8-8.4-7.4c-3.3,1.8-2.4,3.5-9,3.8
					c-6.6,0.3-12.8-7.4-19.1-7.1C266.1,281.2,258,291.6,258,291.6L258,291.6z M298,276.1c0,0-2.3-4.9-2.6-10.9
					c-9.3-3.2-16.9,6.9-23.6,7.2c-6.7,0.3-13.7-7.2-13.7-7.2l3.8,10.7L298,276.1z M454.8,275.8l-36.1,0.3c0,0,2.3-4.9,2.6-10.9
					c9.3-3.2,16.9,6.9,23.6,7.2c6.7,0.3,13.7-7.2,13.7-7.2L454.8,275.8z M349,276.1l18.4,0c0,0,0.3-6.1-9.3-6.1
					C348.4,270,349,276.1,349,276.1z"/>
			</g>
			<g>
				<path style="fill:#CE1126;stroke:#630810;stroke-width:1.9324;stroke-linejoin:round;stroke-miterlimit:4.007;" d="M339.3,217
					l38.2,10.1v-53.9c-17.5,0.9-32.1-32.8-1.2-35.1c-30.3-4.3-33.8,3.5-37.3,11.8L339.3,217L339.3,217z M347.8,265.7
					c-8.3,13.6-30.5,9.6-35.7,0.1c-1.6-0.4-0.6-58.6-0.6-58.6s-2.5-1.1-2.6-2.9c-0.1-1.8,3.4-2,3.4-4.3c0-2.3-3.6-1.4-3.6-3.7
					c0-2.2,3.8-1.9,3.6-4c-0.2-2.3-4.2-2-4.4-4.1c-0.1-1.7,2.9-3.2,3.7-3.9l-2.8,0l-6.4,0.1c-4.5,0,0.1,1,0,3.5
					c0,1.7-2.3,2.8-2.5,4.3c-0.1,1.5,3.2,2.6,3.3,4.4c0,1.6-3.2,1.7-3.1,3.2c0.2,2.5,2.9,3.1,2.9,4.6c0,1.5-3.6,2.1-3.6,3.3
					c0.1,2.4,0.5,59.8,0.5,59.8C305.5,296.7,338.5,304.2,347.8,265.7L347.8,265.7z M369.6,265.7c8.3,13.6,30.5,9.6,35.7,0.1
					c1.6-0.4,0.6-58.6,0.6-58.6s2.5-1.1,2.6-2.9c0.1-1.8-3.2-2-3.2-4.3c0-2.3,3.3-1.4,3.4-3.7c0-2.2-3.5-2.1-3.3-4.1
					c0.2-2.3,2.9-2,3.1-4.2c0.1-1.8-1.7-3-2.6-3.7l2.7,0l6.4,0.1c4.5,0-0.1,1,0,3.5c0,1.7,2.3,2.8,2.5,4.3c0.1,1.5-3.2,2.6-3.3,4.4
					c0,1.6,3.2,1.7,3.1,3.2c-0.2,2.5-2.9,3.1-2.9,4.6c0,1.5,3.6,2.1,3.6,3.3c-0.1,2.4-0.5,59.8-0.5,59.8
					C411.9,296.7,378.9,304.2,369.6,265.7L369.6,265.7z"/>
				<g>
					<path style="fill:#630810;stroke:#630810;stroke-width:2.7919;stroke-linecap:round;stroke-miterlimit:4.007;" d="M337.9,268.3
						c3.2-1.7,6.1-3.5,8.2-7.5l-12.5,0.3c0,0-5.8,3.5-8.7,7.2L337.9,268.3z M378.4,268.3c-3.2-1.7-6.1-3.5-8.2-7.5l12.5,0.3
						c0,0,5.8,3.5,8.7,7.2L378.4,268.3z M315.1,256.2l86.3,0.3"/>
					<path id="b" style="fill:#630810;stroke:#630810;stroke-width:2.7919;stroke-linecap:round;stroke-miterlimit:4.007;" d="
						M319.2,235.7l10.2,13.5 M319.2,249.3l11.1-13.3 M325.1,234.9l-0.3,8.4"/>
					<g>
						<path id="b_1_" style="fill:#630810;stroke:#630810;stroke-width:2.7919;stroke-linecap:round;stroke-miterlimit:4.007;" d="
							M335.6,235.7l10.2,13.5 M335.6,249.3l11.1-13.3 M341.4,234.9l-0.3,8.4"/>
					</g>
					<g>
						<path id="b_2_" style="fill:#630810;stroke:#630810;stroke-width:2.7919;stroke-linecap:round;stroke-miterlimit:4.007;" d="
							M352.2,235.7l10.2,13.5 M352.2,249.3l11.1-13.3 M358,234.9l-0.3,8.4"/>
					</g>
					<g>
						<path id="b_3_" style="fill:#630810;stroke:#630810;stroke-width:2.7919;stroke-linecap:round;stroke-miterlimit:4.007;" d="
							M369.4,235.7l10.2,13.5 M369.4,249.3l11.1-13.3 M375.2,234.9l-0.3,8.4"/>
					</g>
					<g>
						<path id="b_4_" style="fill:#630810;stroke:#630810;stroke-width:2.7919;stroke-linecap:round;stroke-miterlimit:4.007;" d="
							M386,235.7l10.2,13.5 M386,249.3l11.1-13.3 M391.8,234.9l-0.3,8.4"/>
					</g>
				</g>
			</g>
		</g>
	</g>
</g>
</svg>
