<?xml version="1.0" encoding="utf-8"?>
<!-- Generator: Adobe Illustrator 25.2.1, SVG Export Plug-In . SVG Version: 6.00 Build 0)  -->
<svg version="1.1" id="Layer_1" xmlns="http://www.w3.org/2000/svg" xmlns:xlink="http://www.w3.org/1999/xlink" x="0px" y="0px"
	 viewBox="0 0 720 480" style="enable-background:new 0 0 720 480;" xml:space="preserve">
<g>
	<rect width="720" height="480"/>
	<path style="fill:#CE1126;" d="M0,0h720v480L0,0z"/>
	<path style="fill:#FCD116;" d="M445.8,139.5c-5.3,6.1-17.9-6.1-33-6.4c-15.1-0.3-25.8,12.8-30.1,17.3c-4.4,4.5-18.5,27.9-18.2,30.4
		c0.3,2.5,8.8-7,11.9-8.7c0.3,3.4-3.5,7.3-2.5,8.4c0.9,1.1,11-6.7,14.4-7c0.9,2.2-1.9,4.5-0.9,7.8c1.3,1.1,6.9-5.6,10.7-7
		c0.6,2.5-3.5,7.3-1.3,10.3c1.6,0.3,11-9.5,14.1-10.6c3.1-1.1-1.6,9.2,0,10.1c2.8-1.7,11.6-10.6,14.4-11.7
		c2.8-1.1-0.3,11.4,0.9,11.4c3.5-2.2,12.2-12.8,13.2-14.5c0.9-1.7-0.9,16.2,8.8,25.7c9.7,9.5,24.5,20.4,26.1,20.4
		c1.9-3.1-0.6-9.5,0.9-9.2c4.4,4.2,12.6,10.3,14.4,10.3c1.9,0-1.3-6.7,1.3-6.7c5,4.2,19.5,20.7,47.7,28.2c-1.9-4.7-6-8.9-6.3-11.2
		c1.9,0.3,8.5,3.1,9.7,2.8c1.3-0.3-13.8-16.8-12.9-19c3.5-0.3,5,1.7,6.3,0.3c-1.6-2.2-14.8-15.4-14.8-18.4c0-3.1,4.1,0.6,5.3,0
		c1.3-0.6-5-12.3-3.8-13.7c1.3-1.4,15.1,7.5,18.5,7.5c3.5,0,0.9-10.9,2.5-11.4s13.2,5.9,15.7,5.9c2.5,0,2.2-4.7,3.1-4.2
		c0.9,0.6,28.3,24.8,18.8,53.3c-9.4,20.4-28.3,31.3-55.9,22.3c1.6,2.2,16.3,13.1,32.3,9.2s35.5-15.1,33.3-43
		c-2.2-27.9-12.6-31.8-14.1-36c-1.6-4.2,2.5,1.1,6,2.2c3.5,1.1-0.6-5.9-1.6-8.9c-0.9-3.1,10.4,6.4,13.2,7.3
		c2.8,0.8-6.6-22.9-9.4-24.6c-2.8-1.7,2.8,0.6,4.7,1.1c1.9,0.6-17.3-26-21.4-26c-4.1,0,3.5-1.4,5.7-1.4c2.2,0-22-17.3-26.1-17.3
		s8.8-4.5,10-4.7c2.2,0.3-28-14.2-55,0.3c-1.6-1.1,12.7-9.9,13.2-13.7c0.2-1-4.7-3.1-5-4.2c-0.3-1.1,7.5-4.5,7.9-7
		c-1.9-2.2-5.3-1.4-7.2-2c-0.5-2.1,6.6-7.3,6-9.5c-0.5-1.3-5.7-1.7-6.9-0.8c-1.3,0.8,3.3-5.9,2.5-7.8c-0.6-0.8-3.1-0.3-5.7,0.3
		c-1.6-0.3,8.2-12.3,6.3-14c-1.9-1.7-28.3,12.3-38,27.9s-2.2,28.2-3.5,33.5c-1.3,5.3-2.8,10.6-6.9,10.6c-4.1,0-13.5-5.6-16.6-8.4
		c-3.1-2.8-3.8-4.7-8.2-5.9s-14.4,2.2-18.2,2.5s-18.5-2.5-19.5-1.7c-0.9,0.8,14.4,5.9,17.9,7.5c3.5,1.7,3.8,3.9,6.3,5.3
		C429.7,124.7,453.3,130.8,445.8,139.5z M537.8,178.8c7.5,6.7,58.4,36.8,58.4,73.7s-37.1,35.7-47.7,34.6
		c11.9,8.9,57.2,7.3,57.2-34.6c0-36.9-58.4-73.7-66-77.1C532.1,172.1,530.2,172.1,537.8,178.8z"/>
	<g>
		<polygon style="fill:#FFFFFF;" points="221.4,330.1 217.2,318.1 213,330.1 199.7,330.1 210.5,337.4 206.5,348.8 217.1,341.8 
			228,349.2 223.9,337.3 234.8,330.1 		"/>
		<polygon style="fill:#FFFFFF;" points="166.9,187.3 158.9,210.2 180.1,196.2 201.9,210.8 193.7,187.2 215.5,172.8 188.7,172.8 
			180.4,148.7 172,172.8 145.3,172.8 		"/>
		<polygon style="fill:#FFFFFF;" points="106.2,266.5 97.9,242.5 89.5,266.5 62.8,266.5 84.4,281.1 76.4,303.9 97.6,289.9 
			119.4,304.6 111.2,280.9 133,266.5 		"/>
		<polygon style="fill:#FFFFFF;" points="275.8,274.3 297.6,259.9 270.8,259.9 262.5,235.8 254.1,259.9 227.4,259.9 249,274.4 
			241,297.3 262.2,283.3 284,297.9 		"/>
		<polygon style="fill:#FFFFFF;" points="188.7,393.2 180.4,369.2 172,393.2 145.3,393.2 166.9,407.7 158.9,430.6 180.1,416.6 
			201.9,431.3 193.7,407.6 215.5,393.2 		"/>
	</g>
</g>
</svg>
