<?xml version="1.0" encoding="utf-8"?>
<!-- Generator: Adobe Illustrator 25.2.1, SVG Export Plug-In . SVG Version: 6.00 Build 0)  -->
<svg version="1.1" id="Layer_1" xmlns="http://www.w3.org/2000/svg" xmlns:xlink="http://www.w3.org/1999/xlink" x="0px" y="0px"
	 viewBox="0 0 720 480" style="enable-background:new 0 0 720 480;" xml:space="preserve">
<g>
	<path style="fill:#0038A8;" d="M0,0h720v480H0V0z"/>
	<path style="fill:#CE1126;" d="M0,240h720v240H0V240z"/>
	<path style="fill:#FFFFFF;" d="M311.8,240L0,480V0"/>
	<g transform="translate(28 45)">
		<path style="fill:#FCD116;" d="M155.3,201.3l4.7-6.3l-4.7-6.3l-35.4,3.1c-0.1-1-0.1-2.1-0.2-3.1l32.4-5.7l-3.8-5.1l-28.9,7.7
			c-0.9-6.3-2.8-12.1-5.4-17.3l24.5-21.8v-7.3l-25.9,26.5c-0.5-0.8-1-1.6-1.5-2.4l26.7-31.2v-8.9h-6.7l-23.4,35.6
			c-0.6-0.7-1.2-1.3-1.8-2l19.9-34.5h-5.4L104,155.1c-3.9-3.4-8.2-5.9-13-7.2l5.7-38.5l-3.8-5.1l-4.2,43.2c-0.8-0.1-1.5-0.2-2.3-0.3
			l2.3-47.2L84,93.7l-4.7,6.3l2.3,47.2c-0.8,0.1-1.5,0.2-2.3,0.3l-4.2-43.2l-3.8,5.1l5.7,38.5c-4.7,1.2-9.1,3.7-13,7.2l-16.4-32.6
			h-5.4L62.1,157c-0.6,0.6-1.2,1.3-1.8,2l-23.4-35.6h-6.7v8.9l26.7,31.2c-0.5,0.8-1,1.6-1.5,2.4l-25.9-26.5v7.3l24.5,21.8
			c-2.6,5.1-4.4,11-5.4,17.3L19.8,178l-3.8,5.1l32.4,5.7c-0.1,1-0.2,2-0.2,3.1l-35.4-3.1L8,195l4.7,6.3l35.4-3.1
			c0.1,1,0.1,2.1,0.2,3.1L16,206.9l3.8,5.1l28.9-7.7c0.9,6.3,2.8,12.1,5.4,17.3l-24.5,21.8v7.3l25.9-26.5c0.5,0.8,1,1.6,1.5,2.4
			l-26.7,31.2v8.9h6.7l23.4-35.6c0.6,0.7,1.2,1.3,1.8,2l-19.9,34.5h5.4L64,234.9c3.9,3.4,8.2,5.9,13,7.2l-5.7,38.5l3.8,5.1l4.2-43.2
			c0.8,0.1,1.5,0.2,2.3,0.3l-2.3,47.2l4.7,6.3l4.7-6.3l-2.3-47.2c0.8-0.1,1.5-0.2,2.3-0.3l4.2,43.2l3.8-5.1L91,242.1
			c4.7-1.2,9.1-3.7,13-7.2l16.4,32.6h5.4L105.9,233c0.6-0.6,1.2-1.3,1.8-2l23.4,35.6h6.7v-8.9l-26.7-31.2c0.5-0.8,1-1.6,1.5-2.4
			l25.9,26.5v-7.3l-24.5-21.8c2.6-5.1,4.4-11,5.4-17.3l28.9,7.7l3.8-5.1l-32.4-5.7c0.1-1,0.2-2,0.2-3.1L155.3,201.3z"/>
		<g>
			<polygon style="fill:#FCD116;" points="234.2,188.7 233.9,169.6 225.3,184.9 211.6,179.3 219.8,195 211.6,210.7 225.3,205.1 
				233.9,220.4 234.2,201.3 247.8,195 			"/>
			<polygon style="fill:#FCD116;" points="4,361.1 -2.1,343.8 -5.4,362.4 -19.6,364.8 -7.3,374.7 -10,393.4 0.8,380.9 13.4,390.2 
				7.8,372.6 18.3,359.5 			"/>
			<polygon style="fill:#FCD116;" points="13.4,-0.2 0.8,9.1 -10,-3.4 -7.3,15.3 -19.6,25.2 -5.4,27.6 -2.1,46.2 4,28.9 18.3,30.5 
				7.8,17.4 			"/>
		</g>
	</g>
</g>
</svg>
