<?xml version="1.0" encoding="utf-8"?>
<!-- Generator: Adobe Illustrator 25.2.1, SVG Export Plug-In . SVG Version: 6.00 Build 0)  -->
<svg version="1.1" id="Layer_1" xmlns="http://www.w3.org/2000/svg" xmlns:xlink="http://www.w3.org/1999/xlink" x="0px" y="0px"
	 viewBox="0 0 720 480" style="enable-background:new 0 0 720 480;" xml:space="preserve">
<g>
	<path style="fill:#FFFFFF;" d="M0,0h720v480H0V0z"/>
	<path style="fill:#01411C;" d="M180,0h540v480H180V0z"/>
	<path style="fill:#FFFFFF;" d="M486.8,339.3c-72.9,0-132-59.1-132-132c0-42.5,20.1-80.3,51.3-104.5C348.1,121.4,306,175.8,306,240
		c0,79.5,64.5,144,144,144c58.3,0,108.4-34.6,131.1-84.4C557.1,324.1,523.8,339.3,486.8,339.3z"/>
	<polygon style="fill:#FFFFFF;" points="529.1,193 563.2,200.5 540,174.4 557.6,144.3 525.7,158.3 502.5,132.2 505.9,167 474,180.9 
		508,188.4 511.5,223.1 	"/>
</g>
</svg>
