<?xml version="1.0" encoding="utf-8"?>
<!-- Generator: Adobe Illustrator 25.2.1, SVG Export Plug-In . SVG Version: 6.00 Build 0)  -->
<svg version="1.1" id="Layer_1" xmlns="http://www.w3.org/2000/svg" xmlns:xlink="http://www.w3.org/1999/xlink" x="0px" y="0px"
	 viewBox="0 0 720 480" style="enable-background:new 0 0 720 480;" xml:space="preserve">
<path style="fill:#012169;" d="M0,0h720v480H0V0z"/>
<g>
	<g>
		<path style="fill:#F7E017;stroke:#000000;stroke-width:1.500000e-02;" d="M480.4,256c-7.7,8.6-15,21.2-16.8,32.6
			c-5.1,32-11.8,39.1-22.2,32.3c0,17.2,11.4,18.5,16.4,8.5c0,16.1,4.4,30.1,14.4,42c4.2,5,5,1.6,3-4s-2-23.5-6-33.8
			c6.4,6.1,15.8,2.6,15-14c-8.2,6.4-16.3,6.1-17.2-9C466,292.8,471.2,267.1,480.4,256z M470.7,128.6c0.6-6.4-0.5-12.9-4-17
			c-6.8-7.9-13.4-5.3-18.3,1.1c-7.4-5.3-11.3,13.4-19.7,10.3c1.4,6.1,3.6,8.7,7.8,6.6c-4.4,5.3,0,11.6-5.2,18
			c9.4,4,14.4-2.9,14-14.8c3.6,4.2,9.2,4,12.2-0.8c-5-2.1-5-7.9-3-13.2C457.4,110.8,471.5,111.2,470.7,128.6z M0,3.1 M0,3.1 M0,3.1
			 M0,3.1"/>
		<path style="fill:#337321;stroke:#000000;stroke-width:1.500000e-02;" d="M440.9,249.7c-15.3,18.9-5.2,35.4,0.8,39.1
			c-1.6,13.2,7.8,11.6,7.6,22.7c3.8-2.9,4.8-10.6,4.2-16.7c4.8,6.9,17-0.8,19.6,11.9c1.6-14-6.6-28-16.8-26.7
			c4.2-5,1.8-13.2-2.2-15.3c-0.8,10.3-9.6,10.3-13,7.2C437.7,268.7,434.9,258.4,440.9,249.7z"/>
		<path style="fill:#F7E017;stroke:#000000;stroke-width:1.500000e-02;" d="M473.9,370c-1.7,1.3-1.5,4.1-0.5,5.9
			c2.1,3.7-1.5,12.1,5.3,13.9c2,0.5,3.5-1.1,4.3-4.1c2.1-8.3-4.6-9.3-5.2-13.2S475.3,368.9,473.9,370z"/>
		<path style="fill:#F7E017;stroke:#000000;stroke-width:1.500000e-02;" d="M479.6,385.6c-2.2,1.4-4.2,3.3-3.3,12.8
			c0.4,3.9,0.2,13.5-2.4,13.6c1.6,1,5,2.2,6.4-0.3c1.3,3,4.4,2.1,5.6-1.6c1.6,1.7,3.8-1.2,3.8-3.7c1.4,1.2,4.2-0.5,3.5-6.2
			c1.7,0.8,3.9-0.8,4.7-2.3c-2.5-0.7-8.8-5.2-10.3-8.7C486.1,385.7,482.2,384,479.6,385.6z"/>
		<path style="fill:#F7E017;stroke:#000000;stroke-width:1.500000e-02;" d="M0,3.1"/>
		<path style="fill:#F7E017;stroke:#000000;stroke-width:1.500000e-02;" d="M585.2,250c24.6,27.2,26.1,48.9,22.3,61.6
			c-2-11.9-12.2-30.4-22.8-35.2C584.8,276.4,585.2,250,585.2,250z"/>
		<path style="fill:#F7E017;stroke:#000000;stroke-width:1.500000e-02;" d="M0,3.1"/>
		<path style="fill:#F7E017;stroke:#000000;stroke-width:1.500000e-02;" d="M0,3.1"/>
		<path style="fill:#F7E017;stroke:#000000;stroke-width:1.500000e-02;" d="M0,3.1"/>
		<path style="fill:#F7E017;stroke:#000000;stroke-width:1.500000e-02;" d="M0,3.1"/>
		<path style="fill:#F7E017;stroke:#000000;stroke-width:1.500000e-02;" d="M535.3,341.2c3.4,0,14.2-1.5,18.1-1.5c1,0,1.8-2,1.8-4.5
			s-0.8-4.5-1.8-4.5c-3.9,0-14.7-1.5-18.1-1.5c-3.4,0-14.2,1.5-18.1,1.5c-1,0-1.8,2-1.8,4.5s0.8,4.5,1.8,4.5
			C521.1,339.7,531.9,341.2,535.3,341.2z"/>
		<path style="fill:#F7E017;stroke:#000000;stroke-width:1.500000e-02;" d="M0,3.1"/>
		<path style="fill:#F7E017;stroke:#000000;stroke-width:1.500000e-02;" d="M0,3.1"/>
		<path style="fill:#FFFFFF;stroke:#000000;stroke-width:1.500000e-02;" d="M526.1,285.1c0-1.3,0.8-1.8,1.7-2.8
			c1.1-1.1,1.6-1.7,2.6-1.7h13.1c1,0,1.2,0.3,1.2,1.5v23.6c0,1.2-0.2,1.5-1.2,1.5h-17.4v-22.4"/>
		<path style="fill:#E5E5E5;stroke:#000000;stroke-width:1.500000e-02;" d="M540.3,309.4c1.7,0,1.4-0.1,2.6-1.7
			c1.3-1.7,1.2-1.5,1.2-3.1v-21.6c0-1.1-0.2-1.4-1.1-1.4h-12.1c-1,0-1.4,0.5-2.4,1.6c-0.9,0.9-1.6,1.4-1.6,2.6v23.6H540.3z"/>
		<path style="fill:#FFFFFF;stroke:#000000;stroke-width:1.500000e-02;" d="M541.6,308.8c0,1.2-0.2,1.5-1.2,1.5h-13.1
			c-1,0-1.2-0.3-1.2-1.5v-23.6c0-1.2,0.2-1.5,1.2-1.5h13.1c1,0,1.2,0.3,1.2,1.5V308.8z"/>
		<path style="fill:#FFFFFF;stroke:#000000;stroke-width:1.500000e-02;" d="M0,3.1"/>
		<path d="M522.7,227.7c-0.9-17.6-6.2-32.1-13.8-42c3.6,1.3,11,1.3,16-3.4c6.6-5.8,23.8-16,30-11.6c0.5,1.5,0.8,4.8,0.4,6.9
			c-1.5-5.3-18.1,2.9-22.8,5.4c-4.5,2.8-6.5,6.5-4.9,14.8c-2.6-2.9-1.7-5.7-4.4-7.8c1.1,3.4,2,9.6,2.3,14.7
			c-1-3.6-2.8-11.2-6.7-15.7c3.4,8.7,6.3,29.7,4.9,40.8c2.7,0,8.6-3.5,11-6c-2.1,4-8.1,6.7-12,7.8c-1.8,2.8-3,9.9-2.9,13.9
			C519.7,240.4,520.9,228.5,522.7,227.7z M567,220.8c-3.3-4.9-9.5-7.5-17.4-4.7c1.2-0.8,3.8-2.1,6.1-2.6c-0.3-2.8-2.2-14.7-2.5-17.6
			l2.2-1.2c1.1,7.2,2.5,15.3,3.4,18.6c0.7,0.3,2.3,0.7,3.7,1.6c-0.6-2.8-4-22.7-3.9-24.9l3-2.1C562.8,198.8,564.7,214.5,567,220.8z
			 M0,3.1"/>
		<path style="fill:none;stroke:#000000;stroke-width:1.500000e-02;" d="M521,218.2c1.1,4.2,1.8,8.3,1.9,11.9 M511.9,165.5
			c-1.8,3.5-3.4,7.2-3.9,10.4c3.4,1.5,10.1,2.3,13.1,1.7"/>
		<path style="fill:none;stroke:#000000;stroke-width:1.500000e-02;" d="M505.4,184.7c1.3,0.3,2.5,0.6,3.5,1c3.6,1.3,11,1.3,16-3.4
			c5-4.8,18.6-19.6,33.9-21.1"/>
		<path style="fill:none;stroke:#000000;stroke-width:1.500000e-02;" d="M501.5,180.1c4.8,1.3,14.7,2,19.7-2.5
			c11.6-10.4,22.8-16.5,33.9-17.3"/>
		<path style="fill:#337321;stroke:#000000;stroke-width:1.500000e-02;" d="M585.2,250c16.8,15.3,29.1,30.1,32.7,53.9
			c3.6,23.8,10.4,30.1,18.8,23.8c-2,13.7-12.4,15.3-21.1,4.8c0.8,15.9-4,34.9-16.4,41.8c-0.8-9.5,4-17,2.6-24.9
			c-0.6-3.4-0.8-11.4,2.6-15.1c-6.6,2.9-17-2.6-18-15.6c7.6,4.8,17.4,5.6,21.1-7.2C611.3,298.9,609.7,277.2,585.2,250z M606.3,126.2
			c5.2-18,18.8-16.1,23.4-8.5c13.4-10,15.2,12.7,26.5,8.2c-0.2,4.2-4,8.2-8.2,7.9c4.4,5.3-1.8,13.2,7.6,18
			c-8,5.3-19.2-0.3-22.2-14.8c-2.6,6.9-12,6.9-15.8,1.3c8.2-2.9,7.6-12.9,3-16.9C616.1,117.4,607.9,119.1,606.3,126.2z M565.8,165.8
			c3.7,15.9,11.4,30.7,19.7,40.8c9.6,11.6,24,8.7,32.1-2.4c0.2,22.1-17.1,23.8-26.7,16.9c-4.2-3.1-7.7-1.5-3.6,3.4
			c6.2,7.4,19.7,12.9,35.7,17.5c27.9,7.9,18,37.3,9.8,37c2.4-0.1,4.3-3.3,0.9-7.3c-24.2-28.9-73.5-17.5-72.7-82
			c-5.2,16.9-26.5,10.3-16.6-9.8c3.2,3.4,8.8,3.7,10.4-1.6c1.2-4.1,0.4-11.3-5.2-17.4c0.9-0.1,2.9,0,2.7-3.1
			c0.2,1.8,1.5,4.4,4.6,3.5c0.9,1.9,1.8,3.1,3.1,2.4c0.2-0.1,1-0.6,0.7-2.5C561,164.8,564.2,166,565.8,165.8z M0,3.1"/>
		<path style="fill:#F7E017;stroke:#000000;stroke-width:1.500000e-02;" d="M595,384.7c2.4,1.7,4.6,3.9,3.3,14.5
			c-0.6,4.4-0.7,15,2.2,15.3c-1.8,1.1-5.6,2.1-7.1-0.7c-1.6,3.2-5,2.1-6.2-2.1c-1.8,1.8-4.2-1.6-4.1-4.4c-1.6,1.2-4.7-0.8-3.7-7.1
			c-1.9,0.8-4.3-1.1-5.2-2.8c2.8-0.6,10-5.2,11.8-9.2C587.7,384.5,592.1,382.8,595,384.7z"/>
		<path style="fill:#F7E017;stroke:#000000;stroke-width:1.500000e-02;" d="M0,3.1"/>
		<path style="fill:#F7E017;stroke:#000000;stroke-width:1.500000e-02;" d="M561,189.7c-0.3,27.1,8.2,40.8,19.9,49.7
			c-4.4-3.5-2.5-15.4-8.4-19.2c1.4-0.1,3.6,2.5,7.1,1.5c-1.7-5-4.5-12.7-11-13.7c1.7-0.3,5.4,0.5,7.8-0.7
			C573.1,200.4,564.1,203.7,561,189.7z M558.9,163.9c-0.7-0.3-1.3-1.3-1.9-2.5c-3.1,0.9-4.4-1.7-4.6-3.5c0.2,3.1-1.8,2.9-2.7,3
			c5.6,6.2,6.4,13.3,5.2,17.4c-1.6,5.3-7.2,5-10.4,1.6c-0.4,11.2,10.6,14.9,14.6,0.8c0,2.4,2.3,2.1,2.9,5.3
			C564.8,179.9,562.6,171.1,558.9,163.9z M0,3.1"/>
		<path style="fill:#C8102E;stroke:#000000;stroke-width:1.500000e-02;" d="M544.9,78.7c-0.1-2.4,3-5.5,7.2-5.4
			c5,0.1,8.9,6.1,13,5.6c4-0.6,2,2.4,1.2,3.2c-0.8,0.8-1.3,2-1.1,3.4c0.3,1.5-0.2,2.4-1.8,1c-3.6-3-7.2,1.2-11.9-1.1
			C547.4,83.4,545.1,82.3,544.9,78.7z"/>
		<path style="fill:#C8102E;stroke:#000000;stroke-width:1.500000e-02;" d="M0,3.1"/>
		<path style="fill:#C8102E;stroke:#000000;stroke-width:1.500000e-02;" d="M0,3.1"/>
		<path style="fill:none;stroke:#000000;stroke-width:1.500000e-02;" d="M525.2,138.2c-1.3-9.9,0.8-20.8,4.6-24.1
			c8.3,7.3,22.5,7.3,30.8-0.7"/>
		<path style="fill:none;stroke:#000000;stroke-width:1.500000e-02;" d="M0,3.1"/>
		<path style="fill:#337321;stroke:#000000;stroke-width:1.500000e-02;" d="M532.5,82.5c-2.3-4.2-8.6-5.6-10,0.1
			c-0.6,2.5-1.5,5.2-3,6.4c-1.5,1.2-1.2,4.8-0.5,6.4c1.6,3.8,0.2,7.5,3.3,10c0-3.1,3.4-6.2,6.3-7c2.9-0.8,7.3-4.2,7.9-8.1
			C537.1,86.4,538.1,83.2,532.5,82.5z"/>
		<path style="fill:#337321;stroke:#000000;stroke-width:1.500000e-02;" d="M0,3.1"/>
		<path style="fill:#337321;stroke:#000000;stroke-width:1.500000e-02;" d="M0,3.1"/>
		<path style="fill:#337321;stroke:#000000;stroke-width:1.500000e-02;" d="M0,3.1"/>
		<path style="fill:#F7E017;" d="M547.9,80.1c0-1,1.6-3.2,4.5-3.1c3.5,0,6.8,3.5,9.6,3.2c2.8-0.3,1.4,1,0.8,1.3
			c-0.6,0.3-0.9,0.8-0.7,1.4c0.2,0.6-0.1,1-1.3,0.4c-2.5-1.2-5,0.5-8.4-0.4C549.6,82,548,81.6,547.9,80.1z"/>
		<path style="fill:#F7E017;" d="M0,3.1"/>
		<path style="fill:#F7E017;" d="M0,3.1"/>
		<path style="fill:#F7E017;" d="M0,3.1"/>
	</g>
	<g>
		<g>
			<g>
				<g>
					<defs>
						<rect id="SVGID_1_" width="267.1" height="229.9"/>
					</defs>
					<clipPath id="SVGID_2_">
						<use xlink:href="#SVGID_1_"  style="overflow:visible;"/>
					</clipPath>
					<g style="clip-path:url(#SVGID_2_);">
						<path style="fill:#012169;" d="M0,0v229.9h267.1V0H0z"/>
						<g>
							<path d="M0,0l267.1,229.9 M267.1,0L0,229.9"/>
							<polygon style="fill:#FFFFFF;" points="261.1,250.4 133.6,140.6 6,250.4 -6,209.3 103.7,114.9 -6,20.5 6,-20.5 133.6,89.3 
								261.1,-20.5 273.1,20.5 163.4,114.9 273.1,209.3 							"/>
						</g>
						<g>
							<g>
								<g>
									<defs>
										<polygon id="SVGID_3_" points="133.6,114.9 267.1,114.9 267.1,229.9 133.6,229.9 0,229.9 0,114.9 0,0 133.6,0 267.1,0 
																					"/>
									</defs>
									<clipPath id="SVGID_4_">
										<use xlink:href="#SVGID_3_"  style="overflow:visible;"/>
									</clipPath>
									<g style="clip-path:url(#SVGID_4_);">
										<path d="M0,0l267.1,229.9 M267.1,0L0,229.9"/>
										<polygon style="fill:#C8102E;" points="263.1,243.6 133.6,132.1 4,243.6 -4,216.2 113.6,114.9 -4,13.7 4,-13.7 
											133.6,97.8 263.1,-13.7 271,13.7 153.5,114.9 271,216.2 										"/>
									</g>
								</g>
							</g>
						</g>
						<g>
							<path d="M133.6,0v229.9 M0,114.9h267.1"/>
							<polygon style="fill:#FFFFFF;" points="155.8,229.9 111.3,229.9 111.3,153.2 0,153.2 0,76.7 111.3,76.7 111.3,0 155.8,0 
								155.8,76.7 267.1,76.7 267.1,153.2 155.8,153.2 							"/>
						</g>
						<g>
							<path d="M133.6,0v229.9 M0,114.9h267.1"/>
							<polygon style="fill:#C8102E;" points="146.9,229.9 120.2,229.9 120.2,137.9 0,137.9 0,92 120.2,92 120.2,0 146.9,0 
								146.9,92 267.1,92 267.1,137.9 146.9,137.9 							"/>
						</g>
					</g>
				</g>
			</g>
		</g>
	</g>
</g>
</svg>
