<?xml version="1.0" encoding="utf-8"?>
<!-- Generator: Adobe Illustrator 25.2.1, SVG Export Plug-In . SVG Version: 6.00 Build 0)  -->
<svg version="1.1" id="Layer_1" xmlns="http://www.w3.org/2000/svg" xmlns:xlink="http://www.w3.org/1999/xlink" x="0px" y="0px"
	 viewBox="0 0 720 480" style="enable-background:new 0 0 720 480;" xml:space="preserve">
<g>
	<rect style="fill:#20603D;" width="720" height="480"/>
	<rect style="fill:#FAD201;" width="720" height="360"/>
	<rect style="fill:#00A1DE;" width="720" height="240"/>
	<g>
		<circle style="fill:#E5BE01;" cx="591" cy="125.4" r="21.7"/>
		<path style="fill:#E5BE01;" d="M614.8,128.5l53.6-3.1l-53.6-3.1l51-16.9l-52.6,10.8L658,86.7l-48,24.1l35.7-40.1l-40.1,35.7
			l24.1-48l-29.5,44.9L611,50.6l-16.9,51L591,48l-3.1,53.6l-16.9-51l10.8,52.6l-29.5-44.9l24.1,48l-40.1-35.7l35.7,40.1l-48-24.1
			l44.9,29.5l-52.6-10.8l51,16.9l-53.6,3.1l53.6,3.1l-51,16.9l52.6-10.8L524,164.1l48-24.1l-35.7,40.1l40.1-35.7l-24.1,48l29.5-44.9
			L571,200.2l16.9-51l3.1,53.6l3.1-53.6l16.9,51l-10.8-52.6l29.5,44.9l-24.1-48l40.1,35.7L610,140l48,24.1l-44.9-29.5l52.6,10.8
			L614.8,128.5z M591,149.4c-13.2,0-24-10.8-24-24s10.8-24,24-24c13.2,0,24,10.8,24,24S604.2,149.4,591,149.4z"/>
	</g>
</g>
</svg>
