<?xml version="1.0" encoding="utf-8"?>
<!-- Generator: Adobe Illustrator 25.2.1, SVG Export Plug-In . SVG Version: 6.00 Build 0)  -->
<svg version="1.1" id="Layer_1" xmlns="http://www.w3.org/2000/svg" xmlns:xlink="http://www.w3.org/1999/xlink" x="0px" y="0px"
	 viewBox="0 0 720 480" style="enable-background:new 0 0 720 480;" xml:space="preserve">
<g>
	<rect style="fill:#ED2939;" width="720" height="240"/>
	<rect y="240" style="fill:#FFFFFF;" width="720" height="240"/>
	<path style="fill:#FFFFFF;" d="M104.7,120c0-45.9,36.3-83.4,81.8-85.2c-9.3-3.3-19.4-5-29.8-5c-49.8,0-90.2,40.4-90.2,90.2
		s40.4,90.2,90.2,90.2c10.4,0,20.5-1.8,29.8-5C141,203.4,104.7,165.9,104.7,120z"/>
	<path id="star" style="fill:#FFFFFF;" d="M167.9,122.2l-12.3-9.4l-12.3,9.4l4.7-15.2l-12.3-9.3l15.2,0l4.7-15.2l4.7,15.2l15.2,0
		l-12.3,9.4L167.9,122.2z"/>
	<g transform="translate(577.18853,0)">
		<path id="star_1_" style="fill:#FFFFFF;" d="M264.1,122.2l-12.3-9.4l-12.3,9.4l4.7-15.2L232,97.7l15.2,0l4.7-15.2l4.7,15.2l15.2,0
			l-12.3,9.4L264.1,122.2z"/>
	</g>
	<g transform="translate(288.88853,-214.21117)">
		<path id="star_2_" style="fill:#FFFFFF;" d="M216,86.5l-12.3-9.4l-12.3,9.4l4.7-15.2L183.9,62l15.2,0l4.7-15.2l4.7,15.2l15.2,0
			l-12.3,9.4L216,86.5z"/>
	</g>
	<g transform="translate(107.99953,342.74883)">
		<path id="star_3_" style="fill:#FFFFFF;" d="M185.9,179.3l-12.3-9.4l-12.3,9.4l4.7-15.2l-12.3-9.3l15.2,0l4.7-15.2l4.7,15.2
			l15.2,0l-12.3,9.4L185.9,179.3z"/>
	</g>
	<g transform="translate(469.18853,342.74883)">
		<path id="star_4_" style="fill:#FFFFFF;" d="M246.1,179.3l-12.3-9.4l-12.3,9.4l4.7-15.2l-12.3-9.3l15.2,0l4.7-15.2l4.7,15.2
			l15.2,0l-12.3,9.4L246.1,179.3z"/>
	</g>
</g>
</svg>
