<?xml version="1.0" encoding="utf-8"?>
<!-- Generator: Adobe Illustrator 25.2.1, SVG Export Plug-In . SVG Version: 6.00 Build 0)  -->
<svg version="1.1" id="Layer_1" xmlns="http://www.w3.org/2000/svg" xmlns:xlink="http://www.w3.org/1999/xlink" x="0px" y="0px"
	 viewBox="0 0 720 480" style="enable-background:new 0 0 720 480;" xml:space="preserve">
<g>
	<path style="fill:#EE1C25;" d="M0,0h720v480H0V0z"/>
	<path style="fill:#0B4EA2;" d="M0,0h720v320H0V0z"/>
	<path style="fill:#FFFFFF;" d="M0,0h720v160H0V0z"/>
	<path style="fill:#FFFFFF;" d="M314.8,112.8H117.1l-0.7,6.4c-0.1,1.4-3.6,35.2-3.6,109.4c0,34.9,11.8,65.6,35,91.4
		c16.3,18.1,37.5,33.3,65,46.5l3.1,1.5l3.1-1.5c27.5-13.2,48.7-28.4,65-46.5c23.2-25.8,35-56.5,35-91.4c0-74.2-3.5-108-3.6-109.4
		L314.8,112.8L314.8,112.8z"/>
	<path style="fill:#EE1C25;" d="M215.9,360c-39.5-19-95.9-56.8-95.9-131.4s3.6-108.6,3.6-108.6h184.7c0,0,3.6,33.9,3.6,108.6
		S255.4,341,215.9,360z"/>
	<path style="fill:#FFFFFF;" d="M224.4,209c10.7,0.2,31.5,0.6,50.1-5.6c0,0-0.5,6.6-0.5,14.4s0.5,14.4,0.5,14.4
		c-17-5.7-38.1-5.8-50.1-5.7v41.2h-16.9v-41.2c-12-0.2-33.1,0-50.1,5.7c0,0,0.5-6.6,0.5-14.4c0-7.7-0.5-14.4-0.5-14.4
		c18.6,6.2,39.4,5.8,50.1,5.6v-25.9c-9.7-0.1-23.8,0.4-39.7,5.7c0,0,0.5-6.6,0.5-14.4s-0.5-14.4-0.5-14.4
		c15.8,5.3,29.9,5.8,39.6,5.7c-0.5-16.4-5.3-37.1-5.3-37.1s9.8,0.8,13.8,0.8c3.9,0,13.8-0.8,13.8-0.8s-4.8,20.7-5.3,37.1
		c9.7,0.1,23.8-0.4,39.6-5.7c0,0-0.5,6.6-0.5,14.4c0,7.7,0.5,14.4,0.5,14.4c-15.9-5.3-29.9-5.8-39.7-5.7L224.4,209L224.4,209z"/>
	<path style="fill:#0B4EA2;" d="M215.9,263.3c-19.9,0-30.5,27.6-30.5,27.6c-4.3-8.2-12.9-13.3-22.1-13.1c-11,0-19.1,9.8-24.2,18.8
		c20,31.8,51.8,51.4,76.9,63.4c25-12.1,56.9-31.7,76.9-63.4c-5.1-9-13.2-18.8-24.2-18.8c-9.3-0.2-17.8,4.9-22.2,13.1
		C246.4,290.9,235.8,263.3,215.9,263.3L215.9,263.3z"/>
</g>
</svg>
