<?xml version="1.0" encoding="utf-8"?>
<!-- Generator: Adobe Illustrator 25.2.1, SVG Export Plug-In . SVG Version: 6.00 Build 0)  -->
<svg version="1.1" id="Layer_1" xmlns="http://www.w3.org/2000/svg" xmlns:xlink="http://www.w3.org/1999/xlink" x="0px" y="0px"
	 viewBox="0 0 720 480" style="enable-background:new 0 0 720 480;" xml:space="preserve">
<g>
	<path style="fill:#3E5EB9;" d="M0,0h720v480H0V0z"/>
	<path style="fill:#FFD900;" d="M0,90h720v300H0V90z"/>
	<path style="fill:#B10C0C;" d="M0,120h720v240H0V120z"/>
	<g transform="scale(1.5)">
		<g id="a">
			<path style="fill:#FFFFFF;stroke:#000000;stroke-width:1.512;stroke-miterlimit:6;" d="M394.3,123.4l-19.4,6.9l19.4,6.9l19.4-6.9
				L394.3,123.4z"/>
			<path style="fill:#FFD900;stroke:#000000;stroke-width:1.512;stroke-miterlimit:6;" d="M100.8,128h280.7c1.4,0,2.5,1,2.5,2.3v0
				c0,1.3-1.1,2.3-2.5,2.3H100.8c-1.4,0-2.5-1-2.5-2.3v0C98.3,129,99.4,128,100.8,128z"/>
			<path style="fill:#FFD900;stroke:#000000;stroke-width:1.512;stroke-miterlimit:6;" d="M377.2,132.6c1.1,0,2.3-1.1,2.3-2.3
				s-1.1-2.3-2.3-2.3 M374.9,132.6c1.1,0,2.3-1.1,2.3-2.3s-1.1-2.3-2.3-2.3 M372.6,132.6c1.1,0,2.3-1.1,2.3-2.3s-1.1-2.3-2.3-2.3"/>
		</g>
		<g>
			<g id="a_1_">
				<path style="fill:#FFFFFF;stroke:#000000;stroke-width:1.512;stroke-miterlimit:6;" d="M375.7,137.1l-19.4,6.9l19.4,6.9
					l19.4-6.9L375.7,137.1z"/>
				<path style="fill:#FFD900;stroke:#000000;stroke-width:1.512;stroke-miterlimit:6;" d="M82.1,141.7h280.7c1.4,0,2.5,1,2.5,2.3v0
					c0,1.3-1.1,2.3-2.5,2.3H82.1c-1.4,0-2.5-1-2.5-2.3v0C79.7,142.7,80.8,141.7,82.1,141.7z"/>
				<path style="fill:#FFD900;stroke:#000000;stroke-width:1.512;stroke-miterlimit:6;" d="M358.5,146.3c1.1,0,2.3-1.1,2.3-2.3
					s-1.1-2.3-2.3-2.3 M356.2,146.3c1.1,0,2.3-1.1,2.3-2.3s-1.1-2.3-2.3-2.3 M354,146.3c1.1,0,2.3-1.1,2.3-2.3s-1.1-2.3-2.3-2.3"/>
			</g>
		</g>
		<path style="fill:#FFD900;stroke:#000000;stroke-width:1.62;stroke-miterlimit:6;" d="M51.2,156.6H433c1.9,0,3.4,1.5,3.4,3.4v0
			c0,1.9-1.5,3.4-3.4,3.4H51.2c-1.9,0-3.4-1.5-3.4-3.4v0C47.8,158.1,49.4,156.6,51.2,156.6z"/>
	</g>
	<path style="fill:#FFFFFF;stroke:#000000;stroke-width:1.512;" d="M531.4,240c-34.3,34.3-80,102.9-171.4,102.9
		c-80,0-137.1-68.6-171.4-102.9C222.8,205.7,280,137.1,360,137.1C451.4,137.1,497.1,205.7,531.4,240z"/>
	<path d="M348,172.9c9.1,10.3,1.5,14.4,11.2,15.1c10.2,0.7,4.4,10.8,13,11.2c6,0.3-0.6,24.2,5.2,32.1c5.9,8.2,10.8,2.4,10.9,8.4
		c0.1,6.1-16,5.5-16.3,24.5c-0.5,10.9-13.6,11.6-14.2,18.6c-0.8,6.6,25.8,10.3,25.5,16.2c-0.4,5.9-28.7,5-29.9,11.7
		c-0.6,6,38.9,11,42.1,28.5c-5.9,1.9-22.7,3.7-35.4,3.8c-80,0.1-137.1-68.6-171.4-102.9C222.9,205.7,280,137.1,360,137.1
		C360,137.1,336.3,158.8,348,172.9L348,172.9z"/>
	<g>
		<rect x="284.8" y="203.4" style="fill:#FFFFFF;" width="10.4" height="27.4"/>
		<rect x="251.5" y="203.4" style="fill:#FFFFFF;" width="10.4" height="27.4"/>
		<rect x="268.1" y="203.4" style="fill:#FFFFFF;" width="10.4" height="27.4"/>
		<rect x="284.8" y="249.1" style="fill:#FFFFFF;" width="10.4" height="27.4"/>
		<rect x="251.5" y="249.1" style="fill:#FFFFFF;" width="10.4" height="27.4"/>
		<rect x="268.1" y="249.1" style="fill:#FFFFFF;" width="10.4" height="27.4"/>
		<rect x="334.6" y="203.4" style="fill:#FFFFFF;" width="10.4" height="27.4"/>
		<rect x="318" y="203.4" style="fill:#FFFFFF;" width="10.4" height="27.4"/>
		<rect x="301.4" y="203.4" style="fill:#FFFFFF;" width="10.4" height="27.4"/>
		<rect x="318" y="249.1" style="fill:#FFFFFF;" width="10.4" height="27.4"/>
		<rect x="334.6" y="249.1" style="fill:#FFFFFF;" width="10.4" height="27.4"/>
		<rect x="301.4" y="249.1" style="fill:#FFFFFF;" width="10.4" height="27.4"/>
	</g>
	<g>
		<rect x="377.2" y="203.4" width="10.4" height="27.4"/>
		<rect x="410.5" y="203.4" width="10.4" height="27.4"/>
		<rect x="393.9" y="203.4" width="10.4" height="27.4"/>
		<rect x="410.5" y="249.1" width="10.4" height="27.4"/>
		<rect x="393.9" y="249.1" width="10.4" height="27.4"/>
		<rect x="377.2" y="249.1" width="10.4" height="27.4"/>
		<rect x="443.7" y="203.4" width="10.4" height="27.4"/>
		<rect x="460.4" y="203.4" width="10.4" height="27.4"/>
		<rect x="427.1" y="203.4" width="10.4" height="27.4"/>
		<rect x="460.4" y="249.1" width="10.4" height="27.4"/>
		<rect x="427.1" y="249.1" width="10.4" height="27.4"/>
		<rect x="443.7" y="249.1" width="10.4" height="27.4"/>
	</g>
	<g>
		<path style="fill:#3D5DA7;stroke:#000000;stroke-width:1.282;" d="M613.6,235.9c-5.2,9,4-3,26.4,12.1c4.2,2.8,7.8,10.2,7.8,15.3
			c-1.1-0.7-1.8-2.3-3-3.3c-1.6,1.6,1.6,9.1,2,12.6c-3.5-2-3.2-2.9-4.3-5.3c0.2,2.9-0.6,10.9,0.8,14c-2.8-0.8-2.6-3-4-3.5
			c1,3.5-0.9,7.3-0.4,11.2c-1.6-1.6-3.3-2.8-4.1-3.5c-0.1,1.9-3.1,6.8-3.2,8.6c-1.4-0.8-1.7-2.1-2-3c-1.7,2.1-7.7,10-8.1,12.4
			c-4.7-4.1-16.6-14.1-18.1-19.4c-1.4,3-3.4,4-7.3,6.2c-1.6-8.4-7.4-17.9-4.3-25.1c-2.2,1.3-4,2.6-6.2,4.2
			C587.7,257.3,598.3,243,613.6,235.9L613.6,235.9z"/>
		<path style="fill:#A70000;" d="M594.3,280.5c2.2-4.3,4.1-5.7,5.5-8.5c2.5-4.9,2.8-8.8,5-8.2c2.1,0.6,2.1,2.6-0.6,7.4
			C601.3,276,600,277,594.3,280.5z M608.8,290.7c-0.3-3.3,0.7-4.7,0.5-6.8c-0.3-3.7-1.8-6.3,0.2-6.5c2-0.2,2.9,1.1,2.9,4.8
			C612.4,286.1,611.8,287.1,608.8,290.7L608.8,290.7z M619.9,297.2c-0.9-4.6-0.2-6.6-0.8-9.6c-1-5.2-2.9-8.6-1-9.1
			c1.8-0.5,2.9,1.2,3.6,6.5C622.4,290.3,622.1,291.7,619.9,297.2L619.9,297.2z M631.4,265.1c-2.7-2.1-4.3-2.2-6-3.5
			c-3.1-2.3-4.6-4.8-5.6-3.6c-1,1.2-0.3,2.6,2.9,4.7C625.9,264.8,627,265,631.4,265.1L631.4,265.1z M629.5,280.3
			c-1.4-3-2.9-3.7-3.8-5.6c-1.6-3.3-1.6-6.2-3.4-5.5c-1.8,0.7-1.9,2.3,0,5.5C624.1,277.9,625.1,278.5,629.5,280.3z"/>
		<path style="fill:#3D5DA7;stroke:#000000;stroke-width:1.6;" d="M96.9,244.6c-0.3-2.6,0.3-2.9-1.3-4.9c2.3,1,2.4,3.6,5.3,1.7
			c1-0.5,1.5-0.6,0.2-3.5c3,0.1,12.7,3.5,14.3,3.6c4.1,0.2,11.6-4.3,16.8,1.2c5,5,3.3,10.3,3.3,17.2c-2-1-1-1.4-3.2-3.9
			c1.6,6.1-0.1,17.1-0.1,23.5c-0.8-1.6-0.7-0.9-1.5-2.5c-2.1,5.9-4.7,7.1-4.7,14.1c-0.8-2.7,0-2.2-0.9-3.6
			c-2.1,4.5-15.9,8.3-10.6,12.8c-4.8-2.8-6.9-2.5-9.1-5.1c-0.9,0.6-1.7,1.8-2.6,3.3c-8.5-3.9-5.4-12.3-12.1-17.9
			c-1.1,2.4-0.6,2-1.9,5.8c-1.3-5.3-1.7-8.7-3.2-12.6c-1.3,2.2-1.2,1.3-3.6,4.6c-1-6.5-2.6-8-1.9-12.3c-2.5,1.8-0.9,1.1-3.4,3.2
			C79.3,252.9,89.6,240.7,96.9,244.6L96.9,244.6z"/>
		<path style="fill:#A70000;" d="M86.5,271.7c2.2-5.3,4.1-7,5.6-10.5c2.5-6.1,2.9-10.9,5-10.1c2.1,0.7,2.1,3.2-0.7,9.2
			C93.5,266.2,92.2,267.5,86.5,271.7L86.5,271.7z M94.8,285.1c0.9-4.8,2.3-6.5,2.8-9.6c1-5.4,0.4-9.5,2.4-9.3
			c1.9,0.2,2.4,2.3,1.1,7.7C99.8,279.2,98.9,280.5,94.8,285.1L94.8,285.1z M104.7,294.4c0.2-4.6,1.3-6.5,1.5-9.5
			c0.3-5.3-0.7-9,1.1-9.1c1.9,0,2.5,1.9,1.9,7.1C108.7,288.3,108,289.6,104.7,294.4L104.7,294.4z M125.9,264c-4.1-4-6.5-4.8-9.1-7.4
			c-4.6-4.6-6.8-8.9-8.5-7.3c-1.6,1.5-0.7,3.8,4.2,8.1C117.3,261.7,119,262.4,125.9,264z M123.4,279.6c-2.6-4.1-4.6-5.1-6.3-7.7
			c-3-4.6-4-8.5-5.7-7.6c-1.7,1-1.3,3,1.9,7.5C116.6,276.3,117.9,277.1,123.4,279.6L123.4,279.6z M0,0"/>
		<path style="fill:#A70000;" d="M292.8,200.3c0.8-6.3,2.4-8.7,2.9-12.8c0.9-7.2-0.2-12.4,2.4-12.3c2.5,0.1,3.3,2.8,2,9.9
			C298.9,192.3,297.8,194,292.8,200.3L292.8,200.3z M306.1,211.9c-0.5-5.3,0.5-7.6,0.1-11.1c-0.6-6.1-2.4-10.2-0.2-10.5
			c2.2-0.4,3.3,1.7,3.6,7.8C309.8,204.2,309.3,205.8,306.1,211.9L306.1,211.9z M326.8,221.3c-2.3-4.6-4.2-6-5.6-9
			c-2.6-5.2-3.1-9.5-5.1-8.7c-2,0.8-1.9,3,1,8.1C319.9,216.8,321.2,217.9,326.8,221.3z M334,179.9c-5.7-3-8.7-3.1-12.4-5
			c-6.5-3.4-10.3-7.2-11.6-5.1c-1.3,2.1,0.4,4.2,7.2,7.3C323.8,180.2,325.9,180.4,334,179.9L334,179.9z M336.1,197.2
			c-4.2-3.5-6.6-4-9.3-6.2c-4.7-3.9-7.1-7.8-8.7-6.2c-1.6,1.6-0.5,3.6,4.5,7.3C327.5,195.8,329.2,196.3,336.1,197.2L336.1,197.2z"/>
	</g>
</g>
</svg>
