<?xml version="1.0" encoding="utf-8"?>
<!-- Generator: Adobe Illustrator 25.2.1, SVG Export Plug-In . SVG Version: 6.00 Build 0)  -->
<svg version="1.1" id="Layer_1" xmlns="http://www.w3.org/2000/svg" xmlns:xlink="http://www.w3.org/1999/xlink" x="0px" y="0px"
	 viewBox="0 0 720 480" style="enable-background:new 0 0 720 480;" xml:space="preserve">
<g>
	<path style="fill:#012169;" d="M0,0h720v480H0V0z"/>
	<path style="fill:#FFD100;" d="M131.8,414.5c-7.2-0.1,67.4-53,129.9-120.9c81.9-88.9,258.2-231.2,310-254.3
		c5.4-2.4-11.1,12.3-13.3,17.1c-55.3,87.3-11.2,252.1,58,335c20.8,21.2,19.7,22.3,58.3,24.4v4.8L131.8,414.5L131.8,414.5z
		 M127.2,424.2c0,0-5.3,5-5.2,8.7c0,4.1,5.9,9.6,5.9,9.6l535.5,7.9l9.8-8.7l-13.8-11.4L127.2,424.2L127.2,424.2z"/>
	<g>
		<polygon style="fill:#FFFFFF;" points="130.3,63 126.1,80.5 126.1,80.5 126.1,80.5 137.2,69.7 148.3,80.5 148.3,80.5 148.3,80.5 
			144.1,63 155.2,52.2 155.2,52.2 155.2,52.2 141.4,52.2 137.2,34.8 137.2,34.8 137.2,34.8 132.9,52.2 119.2,52.2 119.2,52.2 
			119.2,52.2 		"/>
		<polygon style="fill:#FFFFFF;" points="223.5,136.2 223.5,136.2 212,136.2 208.5,121.7 208.5,121.7 208.5,121.7 204.9,136.2 
			193.5,136.2 193.5,136.2 193.5,136.2 202.8,145.2 199.2,159.7 199.2,159.7 199.2,159.7 208.5,150.7 217.8,159.7 217.7,159.7 
			217.8,159.7 214.2,145.2 223.5,136.2 		"/>
		<polygon style="fill:#FFFFFF;" points="58.2,163.8 54,146.4 54,146.4 54,146.4 49.7,163.8 36,163.8 36,163.8 36,163.8 47.1,174.6 
			42.9,192 42.9,192 42.9,192 54,181.3 65.1,192 65.1,192 65.1,192 60.9,174.6 72,163.8 72,163.8 72,163.8 		"/>
		<polygon style="fill:#FFFFFF;" points="142.1,338.9 137.2,318.6 137.2,318.6 137.2,318.6 132.2,338.9 116.2,338.9 116.2,338.9 
			116.2,338.9 129.2,351.5 124.2,371.9 124.2,371.9 124.2,371.9 137.2,359.3 150.2,371.9 150.2,371.9 150.2,371.9 145.2,351.5 
			158.2,338.9 158.2,338.9 158.2,338.9 		"/>
	</g>
</g>
</svg>
