<?xml version="1.0" encoding="utf-8"?>
<!-- Generator: Adobe Illustrator 25.2.1, SVG Export Plug-In . SVG Version: 6.00 Build 0)  -->
<svg version="1.1" id="Layer_1" xmlns="http://www.w3.org/2000/svg" xmlns:xlink="http://www.w3.org/1999/xlink" x="0px" y="0px"
	 viewBox="0 0 1200 800" style="enable-background:new 0 0 1200 800;" xml:space="preserve">
<rect y="0" style="fill:#E30A17;" width="1200" height="800"/>
<path style="fill:#FFFFFF;" d="M475,560c-88.4,0-160-71.6-160-160s71.6-160,160-160c47.3,0,89.8,20.5,119.1,53.2
	c-35.4-56-97.9-93.2-169.1-93.2c-110.5,0-200,89.5-200,200s89.5,200,200,200c71.2,0,133.6-37.2,169.1-93.2
	C564.8,539.5,522.3,560,475,560z"/>
<polygon style="fill:#FFFFFF;" points="721.5,400 764.2,341.2 695.1,363.7 652.4,304.9 652.4,377.5 583.3,400 652.4,422.5 
	652.4,495.1 695.1,436.3 764.2,458.8 "/>
</svg>
