<?xml version="1.0" encoding="utf-8"?>
<!-- Generator: Adobe Illustrator 25.2.1, SVG Export Plug-In . SVG Version: 6.00 Build 0)  -->
<svg version="1.1" id="Layer_1" xmlns="http://www.w3.org/2000/svg" xmlns:xlink="http://www.w3.org/1999/xlink" x="0px" y="0px"
	 viewBox="0 0 720 480" style="enable-background:new 0 0 720 480;" xml:space="preserve">
<g>
	<path style="fill:#009CDE;" d="M0,240.3h360V0.7h360V480H0V240.3z"/>
	<g>
		<polygon style="fill:#FEDD00;" points="541.7,179.4 548.4,207.1 555.2,179.4 577,179.4 559.3,162.3 566.1,134.7 548.4,151.8 
			530.8,134.7 537.5,162.3 519.8,179.4 		"/>
		<polygon style="fill:#FEDD00;" points="605.2,150.5 612,178.2 618.7,150.5 640.5,150.5 622.9,133.4 629.6,105.8 612,122.9 
			594.3,105.8 601,133.4 583.4,150.5 		"/>
		<polygon style="fill:#FEDD00;" points="483.7,399 490.5,371.4 472.8,388.4 455.2,371.4 461.9,399 444.2,416.1 466.1,416.1 
			472.8,443.7 479.6,416.1 501.4,416.1 		"/>
		<polygon style="fill:#FEDD00;" points="650.8,75.3 644,102.9 661.7,85.9 679.4,102.9 672.6,75.3 690.3,58.2 668.4,58.2 
			661.7,30.6 655,58.2 633.1,58.2 		"/>
		<polygon style="fill:#FEDD00;" points="394,420.5 387.2,392.9 380.5,420.5 358.6,420.5 376.3,437.6 369.5,465.2 387.2,448.1 
			404.9,465.2 398.1,437.6 415.8,420.5 		"/>
		<polygon style="fill:#FEDD00;" points="490.5,273.9 472.8,291 455.2,273.9 461.9,301.6 444.2,318.6 466.1,318.6 472.8,346.3 
			479.6,318.6 501.4,318.6 483.7,301.6 		"/>
		<polygon style="fill:#FEDD00;" points="668.4,245.2 661.7,217.6 655,245.2 633.1,245.2 650.8,262.3 644,289.9 661.7,272.8 
			679.4,289.9 672.6,262.3 690.3,245.2 		"/>
		<polygon style="fill:#FEDD00;" points="604.6,299.9 597.9,272.3 591.1,299.9 569.3,299.9 586.9,317 580.2,344.6 597.9,327.6 
			615.5,344.6 608.8,317 626.4,299.9 		"/>
		<polygon style="fill:#FEDD00;" points="559.3,374.4 566.1,346.7 548.4,363.8 530.8,346.7 537.5,374.4 519.8,391.5 541.7,391.5 
			548.4,419.1 555.2,391.5 577,391.5 		"/>
	</g>
	<g>
		<g>
			<g>
				<g>
					<defs>
						<rect id="SVGID_1_" x="0" y="0.7" width="360" height="239.7"/>
					</defs>
					<clipPath id="SVGID_2_">
						<use xlink:href="#SVGID_1_"  style="overflow:visible;"/>
					</clipPath>
					<g style="clip-path:url(#SVGID_2_);">
						<path style="fill:#012169;" d="M0,0.7v239.7h360V0.7H0z"/>
						<g>
							<path d="M0,0.7l360,239.7 M360,0.7L0,240.3"/>
							<polygon style="fill:#FFFFFF;" points="351.9,261.8 180,147.3 8.1,261.8 -8.1,218.9 139.7,120.5 -8.1,22.1 8.1,-20.7 
								180,93.7 351.9,-20.7 368.1,22.1 220.3,120.5 368.1,218.9 							"/>
						</g>
						<g>
							<g>
								<g>
									<defs>
										<polygon id="SVGID_3_" points="180,120.5 360,120.5 360,240.3 180,240.3 0,240.3 0,120.5 0,0.7 180,0.7 360,0.7 
																					"/>
									</defs>
									<clipPath id="SVGID_4_">
										<use xlink:href="#SVGID_3_"  style="overflow:visible;"/>
									</clipPath>
									<g style="clip-path:url(#SVGID_4_);">
										<path d="M0,0.7l360,239.7 M360,0.7L0,240.3"/>
										<polygon style="fill:#C8102E;" points="354.7,254.6 180,138.4 5.3,254.6 -5.3,226.1 153.1,120.5 -5.3,14.9 5.3,-13.6 
											180,102.6 354.7,-13.6 365.3,14.9 206.9,120.5 365.3,226.1 										"/>
									</g>
								</g>
							</g>
						</g>
						<g>
							<path d="M180,0.7v239.7 M0,120.5h360"/>
							<polygon style="fill:#FFFFFF;" points="210,240.3 150,240.3 150,160.4 0,160.4 0,80.6 150,80.6 150,0.7 210,0.7 210,80.6 
								360,80.6 360,160.4 210,160.4 							"/>
						</g>
						<g>
							<path d="M180,0.7v239.7 M0,120.5h360"/>
							<polygon style="fill:#C8102E;" points="198,240.3 162,240.3 162,144.5 0,144.5 0,96.6 162,96.6 162,0.7 198,0.7 198,96.6 
								360,96.6 360,144.5 198,144.5 							"/>
						</g>
					</g>
				</g>
			</g>
		</g>
	</g>
</g>
</svg>
