<?xml version="1.0" encoding="utf-8"?>
<!-- Generator: Adobe Illustrator 25.2.1, SVG Export Plug-In . SVG Version: 6.00 Build 0)  -->
<svg version="1.1" id="Layer_1" xmlns="http://www.w3.org/2000/svg" xmlns:xlink="http://www.w3.org/1999/xlink" x="0px" y="0px"
	 viewBox="0 0 720 480" style="enable-background:new 0 0 720 480;" xml:space="preserve">
<g>
	<path style="fill:#1EB53A;" d="M0,0h720v480H0V0z"/>
	<path style="fill:#0099B5;" d="M0,0h720v240H0V0z"/>
	<path style="fill:#CE1126;" d="M0,153.6h720v172.8H0V153.6z"/>
	<path style="fill:#FFFFFF;" d="M0,163.2h720v153.6H0V163.2z"/>
	<path style="fill:#FFFFFF;" d="M72,76.8c0-28.5,15.6-52.2,36-56.8c-2.3-0.5-4.7-0.8-7.2-0.8c-23.9,0-43.2,25.8-43.2,57.6
		s19.3,57.6,43.2,57.6c2.5,0,4.9-0.3,7.2-0.8C87.6,129,72,105.3,72,76.8z"/>
	<g>
		<polygon style="fill:#FFFFFF;" points="197.8,119.3 195.8,111.4 193.9,119.3 187.6,119.3 192.7,124.2 190.8,132.2 195.8,127.3 
			200.9,132.2 199,124.2 204.1,119.3 		"/>
		<polygon style="fill:#FFFFFF;" points="195.8,65.3 193.9,73.2 187.6,73.2 192.7,78.2 190.8,86.1 195.8,81.2 200.9,86.1 199,78.2 
			204.1,73.2 197.8,73.2 		"/>
		<polygon style="fill:#FFFFFF;" points="195.8,19.2 193.9,27.2 187.6,27.2 192.7,32.1 190.8,40 195.8,35.1 200.9,40 199,32.1 
			204.1,27.2 197.8,27.2 		"/>
		<polygon style="fill:#FFFFFF;" points="232.3,119.3 230.4,111.4 228.5,119.3 222.2,119.3 227.3,124.2 225.3,132.2 230.4,127.3 
			235.5,132.2 233.5,124.2 238.6,119.3 		"/>
		<polygon style="fill:#FFFFFF;" points="230.4,65.3 228.5,73.2 222.2,73.2 227.3,78.2 225.3,86.1 230.4,81.2 235.5,86.1 
			233.5,78.2 238.6,73.2 232.3,73.2 		"/>
		<polygon style="fill:#FFFFFF;" points="230.4,19.2 228.5,27.2 222.2,27.2 227.3,32.1 225.3,40 230.4,35.1 235.5,40 233.5,32.1 
			238.6,27.2 232.3,27.2 		"/>
		<polygon style="fill:#FFFFFF;" points="266.9,119.3 265,111.4 263,119.3 256.7,119.3 261.8,124.2 259.9,132.2 265,127.3 
			270,132.2 268.1,124.2 273.2,119.3 		"/>
		<polygon style="fill:#FFFFFF;" points="265,65.3 263,73.2 256.7,73.2 261.8,78.2 259.9,86.1 265,81.2 270,86.1 268.1,78.2 
			273.2,73.2 266.9,73.2 		"/>
		<polygon style="fill:#FFFFFF;" points="261.8,32.1 259.9,40 265,35.1 270,40 268.1,32.1 273.2,27.2 266.9,27.2 265,19.2 263,27.2 
			256.7,27.2 		"/>
		<polygon style="fill:#FFFFFF;" points="128.7,119.3 126.7,111.4 124.8,119.3 118.5,119.3 123.6,124.2 121.6,132.2 126.7,127.3 
			131.8,132.2 129.9,124.2 134.9,119.3 		"/>
		<polygon style="fill:#FFFFFF;" points="163.2,119.3 161.3,111.4 159.3,119.3 153.1,119.3 158.1,124.2 156.2,132.2 161.3,127.3 
			166.4,132.2 164.4,124.2 169.5,119.3 		"/>
		<polygon style="fill:#FFFFFF;" points="161.3,65.3 159.3,73.2 153.1,73.2 158.1,78.2 156.2,86.1 161.3,81.2 166.4,86.1 
			164.4,78.2 169.5,73.2 163.2,73.2 		"/>
	</g>
</g>
</svg>
