<?xml version="1.0" encoding="utf-8"?>
<!-- Generator: Adobe Illustrator 25.2.1, SVG Export Plug-In . SVG Version: 6.00 Build 0)  -->
<svg version="1.1" id="Layer_1" xmlns="http://www.w3.org/2000/svg" xmlns:xlink="http://www.w3.org/1999/xlink" x="0px" y="0px"
	 viewBox="0 0 720 480" style="enable-background:new 0 0 720 480;" xml:space="preserve">
<g>
	<path style="fill:#FFFFFF;" d="M0,0h484.1v480H0V0z"/>
	<path style="fill:#FFE000;" d="M0,0h242v480H0V0z"/>
	<g>
		<g>
			<g id="a">
				<path style="fill:#FFFFFF;stroke:#000000;stroke-width:3.205;stroke-linecap:round;stroke-linejoin:round;" d="M344.9,190.1
					l3.1,0.7l5,0.8l2.3,0.2l-0.4,9.6c0,0-0.5,6.4-1.5,9.4c-0.7,2.2-3.1,6.4-3.1,6.4l-1.5,2.3L340,212c0,0,1.5-2.1,2-3.3
					c0.7-1.5,1.5-4.6,1.5-4.6l0.9-5l0.5-6.3L344.9,190.1z M333.8,219.2l8,6.9c0,0-1.6,1.4-2.6,1.9c-1.9,0.9-4,1.4-6.1,1.4
					c-1.5,0-3-0.6-4.3-1.2c-3-1.4-6.4-2.8-8.4-5.5c-0.7-1-1-2.2-0.9-3.4c0-1.3,1.2-3.8,1.2-3.8s0.5,1.7,1,2.3
					c0.9,1.1,2.2,1.8,3.4,2.4c0.9,0.4,2,0.8,3,0.8c1.3,0.1,2.7-0.1,4-0.6C332.8,220.1,333.8,219.2,333.8,219.2L333.8,219.2z"/>
				<path style="fill:#FFFFFF;stroke:#000000;stroke-width:3.205;stroke-linecap:round;stroke-linejoin:round;" d="M321.2,168.5
					c0,0,0.6,1.3,0.8,1.9c0.3,1.2,0.6,2.4,0.6,3.6c0,1.2-0.3,2.4-0.6,3.6c-0.5,1.7-1.2,3.4-2,5.1c-0.5,1-1.2,2-1.7,3
					c-0.8,1.7-1.4,3.4-2.1,5.2c-0.6,1.4-1.3,2.8-1.8,4.3c-0.6,2-0.9,4-1.2,6c-0.2,1.7-0.4,3.5-0.4,5.3c0,2.1,0,4.2,0.4,6.3
					c0.4,2,1,4.1,1.9,5.9c0.7,1.5,1.7,2.9,2.9,4.1c1,1,2.1,1.9,3.3,2.6c1.1,0.6,2.3,1,3.5,1.5c1.6,0.6,4.9,1.8,4.9,1.8
					s-4.6-2.2-6.1-4.1c-1.3-1.6-2-3.6-2.5-5.5c-0.5-2.3-0.5-4.7-0.2-7c0.3-2.5,1-5,1.8-7.4c0.8-2.5,2-5,3-7.4
					c0.7-1.8,1.6-3.5,2.3-5.3c0.9-2.1,1.7-4.2,2.4-6.4c0.4-1.3,0.9-2.6,1.1-4c0.1-1.5-0.1-3-0.4-4.5c-0.5-2-1.1-4.2-2.3-5.9
					c-0.7-1-1.7-1.9-2.9-2.5c-1.1-0.6-2.4-1-3.7-0.8C321.8,167.9,321.2,168.5,321.2,168.5L321.2,168.5z"/>
				<path style="fill:#FFFFFF;stroke:#000000;stroke-width:3.205;stroke-linecap:round;stroke-linejoin:round;" d="M331.4,181.6
					c0,0,0.9-3.5,1-5.2c0.1-1.5,0-3-0.1-4.5c-0.2-1.7-0.3-3.4-0.9-5c-0.7-1.6-1.7-3.1-3-4.3c-1.3-1.2-2.8-2.2-4.4-2.8
					c-1.7-0.7-3.6-0.8-5.4-0.9c-1.6-0.1-3.1,0-4.7,0.2c-0.9,0.1-1.8,0.3-2.7,0.5c-0.8,0.3-2.3,1.1-2.3,1.1l5.8,9.4
					c0,0,1.8-1.1,2.8-1.3c1.1-0.3,2.2-0.3,3.3-0.2c1.1,0.1,2.3,0.2,3.3,0.6c1.3,0.6,2.4,1.5,3.4,2.6c1.2,1.2,2.2,2.6,2.9,4.2
					c0.6,1.5,0.7,3.1,0.9,4.6C331.4,180.9,331.4,181.6,331.4,181.6L331.4,181.6z"/>
				<path style="fill:#CE9D09;stroke:#000000;stroke-width:3.205;stroke-linecap:round;stroke-linejoin:round;" d="M332.5,174.1
					c0,0-1-3.2-2-4.5c-1.1-1.5-2.6-3-4.3-3.8c-1.8-0.9-6-1.2-6-1.2l2.2,4.1l-3.9-0.1l-2-3.3l-3.7,1.7l-1.9-3l4-1.8l-1.8-2.9l4-0.4
					l1.7,2.8c0,0,3.1,0,4.6,0.3c1,0.2,2,0.6,2.9,1c0.9,0.5,1.7,1.1,2.4,1.7c0.9,0.8,1.7,1.7,2.3,2.7c0.6,1,1.3,3.2,1.3,3.2
					L332.5,174.1z"/>
				<path style="fill:#CE9D09;stroke:#000000;stroke-width:3.205;stroke-linecap:round;stroke-linejoin:round;" d="M306.3,162.3
					l6.2,8.9 M309,160.7l-2.9,1.7l-2.8,2.1l6,9.1l2.7-2l2.7-1.6L309,160.7z M320.2,198.9l3.5-7.1l3.7,1.5l1.5-3.7l-3.7-1.7l1.9-4.1
					l-2.7-1.2l-2.1,3.9l-3.7-1.5l-1.6,3.8l3.6,1.5l-3.3,7L320.2,198.9z M348,196.8l3.5-0.1v4l3.4,0.2l-0.6,4.1l-3.2-0.2
					c0,0-0.5,2.4-1,3.6c-0.5,1.2-1.9,3.3-1.9,3.3l-3.8-0.9c0,0,1.4-2.1,1.9-3.3c0.5-1,1.1-3.2,1.1-3.2l-3.9-0.5l0.7-3.9l3.5,0.2
					L348,196.8z"/>
			</g>
			<g transform="matrix(-1 0 0 1 3717.75 0)">
				<g id="a_1_">
					<path style="fill:#FFFFFF;stroke:#000000;stroke-width:3.205;stroke-linecap:round;stroke-linejoin:round;" d="M375,190.1
						l-3.1,0.7l-5,0.8l-2.3,0.2l0.4,9.6c0,0,0.5,6.4,1.5,9.4c0.7,2.2,3.1,6.4,3.1,6.4l1.5,2.3l8.8-7.5c0,0-1.5-2.1-2-3.3
						c-0.7-1.5-1.5-4.6-1.5-4.6l-0.9-5l-0.5-6.3L375,190.1z M386.1,219.2l-8,6.9c0,0,1.6,1.4,2.6,1.9c1.9,0.9,4,1.4,6.1,1.4
						c1.5,0,3-0.6,4.3-1.2c3-1.4,6.4-2.8,8.4-5.5c0.7-1,1-2.2,0.9-3.4c0-1.3-1.2-3.8-1.2-3.8s-0.5,1.7-1,2.3
						c-0.9,1.1-2.2,1.8-3.4,2.4c-0.9,0.4-2,0.8-3,0.8c-1.3,0.1-2.7-0.1-4-0.6C387.1,220.1,386.1,219.2,386.1,219.2L386.1,219.2z"/>
					<path style="fill:#FFFFFF;stroke:#000000;stroke-width:3.205;stroke-linecap:round;stroke-linejoin:round;" d="M398.7,168.5
						c0,0-0.6,1.3-0.8,1.9c-0.3,1.2-0.6,2.4-0.6,3.6c0,1.2,0.3,2.4,0.6,3.6c0.5,1.7,1.2,3.4,2,5.1c0.5,1,1.2,2,1.7,3
						c0.8,1.7,1.4,3.4,2.1,5.2c0.6,1.4,1.3,2.8,1.8,4.3c0.6,2,0.9,4,1.2,6c0.2,1.7,0.4,3.5,0.4,5.3c0,2.1,0,4.2-0.4,6.3
						c-0.4,2-1,4.1-1.9,5.9c-0.7,1.5-1.7,2.9-2.9,4.1c-1,1-2.1,1.9-3.3,2.6c-1.1,0.6-2.3,1-3.5,1.5c-1.6,0.6-4.9,1.8-4.9,1.8
						s4.6-2.2,6.1-4.1c1.3-1.6,2-3.6,2.5-5.5c0.5-2.3,0.5-4.7,0.2-7c-0.3-2.5-1-5-1.8-7.4c-0.8-2.5-2-5-3-7.4
						c-0.7-1.8-1.6-3.5-2.3-5.3c-0.9-2.1-1.7-4.2-2.4-6.4c-0.4-1.3-0.9-2.6-1.1-4c-0.1-1.5,0.1-3,0.4-4.5c0.5-2,1.1-4.2,2.3-5.9
						c0.7-1,1.7-1.9,2.9-2.5c1.1-0.6,2.4-1,3.7-0.8C398.1,167.9,398.7,168.5,398.7,168.5L398.7,168.5z"/>
					<path style="fill:#FFFFFF;stroke:#000000;stroke-width:3.205;stroke-linecap:round;stroke-linejoin:round;" d="M388.5,181.6
						c0,0-0.9-3.5-1-5.2c-0.1-1.5,0-3,0.1-4.5c0.2-1.7,0.3-3.4,0.9-5c0.7-1.6,1.7-3.1,3-4.3c1.3-1.2,2.8-2.2,4.4-2.8
						c1.7-0.7,3.6-0.8,5.4-0.9c1.6-0.1,3.1,0,4.7,0.2c0.9,0.1,1.8,0.3,2.7,0.5c0.8,0.3,2.3,1.1,2.3,1.1l-5.8,9.4
						c0,0-1.8-1.1-2.8-1.3c-1.1-0.3-2.2-0.3-3.3-0.2c-1.1,0.1-2.3,0.2-3.3,0.6c-1.3,0.6-2.4,1.5-3.4,2.6c-1.2,1.2-2.2,2.6-2.9,4.2
						c-0.6,1.5-0.7,3.1-0.9,4.6C388.5,180.9,388.5,181.6,388.5,181.6L388.5,181.6z"/>
					<path style="fill:#CE9D09;stroke:#000000;stroke-width:3.205;stroke-linecap:round;stroke-linejoin:round;" d="M387.4,174.1
						c0,0,1-3.2,2-4.5c1.1-1.5,2.6-3,4.3-3.8c1.8-0.9,6-1.2,6-1.2l-2.2,4.1l3.9-0.1l2-3.3l3.7,1.7l1.9-3l-4-1.8l1.8-2.9l-4-0.4
						l-1.7,2.8c0,0-3.1,0-4.6,0.3c-1,0.2-2,0.6-2.9,1c-0.9,0.5-1.7,1.1-2.4,1.7c-0.9,0.8-1.7,1.7-2.3,2.7c-0.6,1-1.3,3.2-1.3,3.2
						L387.4,174.1z"/>
					<path style="fill:#CE9D09;stroke:#000000;stroke-width:3.205;stroke-linecap:round;stroke-linejoin:round;" d="M413.6,162.3
						l-6.2,8.9 M410.9,160.7l2.9,1.7l2.8,2.1l-6,9.1l-2.7-2l-2.7-1.6L410.9,160.7z M399.7,198.9l-3.5-7.1l-3.7,1.5l-1.5-3.7l3.7-1.7
						l-1.9-4.1l2.7-1.2l2.1,3.9l3.7-1.5l1.6,3.8l-3.6,1.5l3.3,7L399.7,198.9z M371.9,196.8l-3.5-0.1v4l-3.4,0.2l0.6,4.1l3.2-0.2
						c0,0,0.5,2.4,1,3.6c0.5,1.2,1.9,3.3,1.9,3.3l3.8-0.9c0,0-1.4-2.1-1.9-3.3c-0.5-1-1.1-3.2-1.1-3.2l3.9-0.5l-0.7-3.9l-3.5,0.2
						L371.9,196.8z"/>
				</g>
			</g>
			<path style="fill:#FFFFFF;stroke:#000000;stroke-width:3.205;stroke-linecap:round;stroke-linejoin:round;" d="M340.2,141.2
				l-5.3,5.7l3.3,9.8l1.9,6.9l-5.4,5l9.8,13.6l-3.4,3.8c-0.4,0.4-0.5,1.1-0.4,1.7c0.1,0.5,0.3,1,0.7,1.4c0.9,0.8,2.2,1,3.4,1.3
				c4.1,1.1,8.3,1.6,12.5,1.9c0.9,0.1,2.7,0,2.7,0s1.8,0.1,2.7,0c4.2-0.3,8.4-0.8,12.5-1.9c1.2-0.3,2.5-0.5,3.4-1.3
				c0.4-0.4,0.6-0.9,0.7-1.4c0.1-0.6-0.1-1.2-0.4-1.7l-3.2-6.9l10-10.7l-3.8-3.4l-0.1-8.3l3.3-9.8l-4.9-4.9l-4.4-11.8
				c0,0-0.9-3.3-1.7-4.8c-0.5-0.9-1.1-1.7-1.8-2.5c-0.8-0.9-1.5-1.9-2.5-2.7c-0.9-0.7-1.8-1.2-2.8-1.7c-1.1-0.6-2.1-1.1-3.3-1.4
				c-1.2-0.3-3.7-0.3-3.7-0.3s-2.5,0-3.7,0.3c-1.2,0.3-2.2,0.9-3.3,1.4c-1,0.5-2,1-2.8,1.7c-0.9,0.8-1.7,1.7-2.5,2.7
				c-0.6,0.8-1.3,1.6-1.8,2.5c-0.8,1.5-1.7,4.8-1.7,4.8L340.2,141.2z"/>
			<path style="fill:#FFFFFF;stroke:#000000;stroke-width:3.205;stroke-linecap:round;stroke-linejoin:round;" d="M0,0"/>
			<path style="fill:#FFFFFF;stroke:#000000;stroke-width:3.205;stroke-linecap:round;stroke-linejoin:round;" d="M0,0"/>
			<path style="fill:#CE9D09;stroke:#000000;stroke-width:3.205;stroke-linecap:round;stroke-linejoin:round;" d="M384.5,152.9
				c0,0,0.1-1.1,0-1.6c-0.1-0.5-0.3-0.9-0.6-1.4c-0.3-0.4-1.1-1.1-1.1-1.1 M382.5,154.1c0,0,0.7,0,0.9-0.1c0.5-0.2,1.2-1.2,1.2-1.2
				s1.3,0.9,2,0.8c0.3-0.1,0.6-0.4,0.8-0.7c0.2-0.3,0.3-0.7,0.2-1.1c-0.1-0.3-0.3-0.5-0.5-0.7c-0.4-0.4-1.2-0.3-1.5-0.8
				c-0.2-0.4-0.1-0.9,0-1.4c0.3-0.9,0.9-1.7,1.5-2.4c0.3-0.5,1-0.8,1.1-1.4c0-0.3-0.4-0.9-0.4-0.9s-1,0-1.5,0.1
				c-0.8,0.2-1.6,0.6-2.2,1.2c-0.5,0.5-0.6,1.2-0.8,1.9c-0.2,0.5-0.5,1.5-0.5,1.5s-1.2,0-1.7,0.2c-0.7,0.3-1.4,0.8-1.7,1.5
				c-0.2,0.5-0.2,1.2,0,1.7c0.2,0.5,0.7,1,1.2,1.3C381.2,153.9,382.5,154.1,382.5,154.1z M337.1,148.8c0,0-0.8,0.7-1.1,1.1
				c-0.3,0.4-0.5,0.9-0.6,1.4c-0.1,0.5,0,1.6,0,1.6 M332.1,144.2c0,0-0.4,0.6-0.4,0.9c0.1,0.6,0.8,0.9,1.1,1.4
				c0.5,0.8,1.2,1.5,1.5,2.4c0.1,0.4,0.3,1,0,1.4c-0.3,0.5-1.1,0.4-1.5,0.8c-0.2,0.2-0.5,0.4-0.5,0.7c-0.1,0.4,0,0.8,0.2,1.1
				c0.2,0.3,0.5,0.6,0.8,0.7c0.7,0.1,2-0.8,2-0.8s0.7,1,1.2,1.2c0.3,0.1,0.9,0.1,0.9,0.1s1.3-0.2,1.9-0.5c0.5-0.3,1-0.8,1.2-1.3
				c0.2-0.5,0.2-1.2,0-1.7c-0.3-0.7-1-1.2-1.7-1.5c-0.5-0.2-1.7-0.2-1.7-0.2s-0.3-1-0.5-1.5c-0.2-0.6-0.4-1.4-0.8-1.9
				c-0.6-0.6-1.4-0.9-2.2-1.2C333.1,144.1,332.1,144.2,332.1,144.2L332.1,144.2z M358.3,146.9l1.6-0.5l1.6,0.5 M358.8,150.8
				c0,0-1.3-1.1-1.5-1.9c-0.1-0.3-0.1-0.7,0.1-1c0.2-0.4,1.1-0.9,1.1-0.9s-1.4-0.7-1.7-1.3c-0.2-0.4-0.2-0.8-0.1-1.2
				c0.2-0.6,0.6-1.1,1.1-1.6c0.6-0.5,2.2-1,2.2-1s1.6,0.5,2.2,1c0.5,0.4,1,0.9,1.1,1.6c0.1,0.4,0.1,0.9-0.1,1.2
				c-0.4,0.6-1.7,1.3-1.7,1.3s0.9,0.5,1.1,0.9c0.2,0.3,0.2,0.7,0.1,1c-0.2,0.8-1.5,1.9-1.5,1.9l-1.2,0.1L358.8,150.8z M363.1,145.6
				c0,0,2.6,1.1,3.5,2.1c0.2,0.3,0.5,0.7,0.4,1c-0.1,1.3-2,3.5-2,3.5l-3.9-1.6h-2.5l-3.9,1.6c0,0-1.9-2.2-2-3.5c0-0.4,0.2-0.8,0.4-1
				c0.9-1,3.5-2.1,3.5-2.1"/>
			<path style="fill:#CE9D09;stroke:#000000;stroke-width:3.205;stroke-linecap:round;stroke-linejoin:round;" d="M357.1,128.5
				l1.6-1.2l1.3,0l-1.3,0c0,0-0.7-0.5-0.9-0.8c-0.2-0.3-0.3-0.8-0.2-1.2c0.1-0.5,0.4-1,0.9-1.3c0.4-0.3,1.5-0.1,1.5-0.1
				s1.1-0.2,1.5,0.1c0.5,0.3,0.8,0.8,0.9,1.3c0.1,0.4,0,0.8-0.2,1.2c-0.2,0.4-0.9,0.8-0.9,0.8l-1.3,0l1.3,0l1.6,1.2 M372.9,129.5
				l-0.5,0.9 M378.7,126.5l-1.5,0.2 M378.9,128.4l-2.2,0.1 M376.4,125.9c0.3,0.2,0.8,0.5,0.9,0.9c0.2,0.6-0.1,1.4-0.6,1.8
				c-0.5,0.4-1.8,0.3-1.8,0.3 M339.7,135.3c0,0,2.2-0.5,3.3-0.8c1.6-0.4,3.1-0.8,4.7-1.1c1.8-0.3,3.6-0.6,5.4-0.7
				c2.3-0.2,6.8-0.1,6.8-0.1s4.5-0.1,6.8,0.1c1.8,0.1,3.6,0.4,5.4,0.7c1.6,0.3,3.1,0.7,4.7,1.1c1.1,0.3,3.3,0.8,3.3,0.8 M347,129.5
				l0.5,0.9 M341.2,126.5l1.5,0.2 M341,128.4l2.2,0.1 M341.9,131.6c0,0,2.4-0.6,3.7-0.9c1.3-0.3,2.7-0.5,4-0.7
				c1.6-0.2,3.1-0.3,4.7-0.4c1.9-0.1,5.6-0.1,5.6-0.1s3.7,0,5.6,0.1c1.6,0.1,3.1,0.2,4.7,0.4c1.4,0.2,2.7,0.4,4,0.7
				c1.2,0.3,3.7,0.9,3.7,0.9 M345,128.8c0,0-1.3,0.1-1.8-0.3c-0.5-0.4-0.8-1.2-0.6-1.8c0.1-0.5,1.1-1,1.1-1 M355.9,140
				c-2.3,0.1-4.6,0.3-6.9,0.7c-2.4,0.4-4.7,1-7,1.9c-2.2,0.8-4.4,4.3-6.2,2.9c-0.4-0.3,0.1-1,0.3-1.4c0.4-0.9,0.9-1.7,1.5-2.4
				c0.5-0.5,1.5-0.6,1.7-1.3c0.1-0.5-0.7-0.8-0.8-1.3c-0.2-0.6-0.3-1.3-0.1-1.9c0.2-0.8,1.3-1.2,1.5-2c0.2-0.7-0.5-1.5-0.2-2.1
				c0.4-0.8,2.2-0.5,2.3-1.4c0.1-0.4-0.7-0.6-0.9-1c-0.1-0.3,0.1-0.6,0.1-0.9c0-0.4,0.1-0.9-0.1-1.3c-0.2-0.3-0.7-0.4-0.8-0.8
				c-0.1-0.3,0-0.8,0.2-1c0.2-0.2,0.7,0.1,0.8-0.2c0.3-0.5-0.5-1-0.7-1.5c-0.3-0.6-0.6-1.2-0.8-1.9c-0.1-0.5-0.6-1.3-0.1-1.6
				c0.5-0.3,1.1,0.6,1.6,1c0.6,0.5,1.4,0.9,1.8,1.6c0.3,0.5,0.1,1.2,0.6,1.6c0.5,0.5,1.5,0.1,2,0.6c0.5,0.4,0.9,1.1,0.7,1.6
				c-0.1,0.6-1.5,0.5-1.3,1.1c0.2,0.7,1.3,0.6,2,0.5c0.4-0.1,0.7-0.4,1-0.7c0.3-0.2,0.5-0.4,0.7-0.5c0.3-0.1,1.1-0.2,1.1-0.2
				l-0.4-0.1c0,0-0.6-0.5-0.7-0.8c-0.1-0.3,0.1-0.7,0.3-1c0.3-0.3,0.7-0.4,1.1-0.4c0.3,0,0.7,0.1,0.9,0.4c0.2,0.2,0.4,0.6,0.3,0.9
				c0,0.3-0.2,0.6-0.4,0.7c-0.2,0.2-0.9,0.3-0.9,0.3l0.4,0.1l1.2,1.6l5.1-0.3c0,0,0.6-0.6,0.5-1c-0.1-0.4-0.5-0.5-1.1-0.5
				c-1.7,0.1-2-1.3-1.9-2.3c0.1-0.8,1.1-1.4,1.8-1.7c0.8-0.3,2.1,0.7,2.4,0c0.3-0.6-1.1-1-1.4-1.6c-0.1-0.3-0.1-0.6,0-0.9
				c0.4-0.7,1.1-1.2,1.8-1.5c0.3-0.1,1-0.2,1-0.2s0.7,0,1,0.2c0.7,0.3,1.5,0.8,1.8,1.5c0.1,0.3,0.1,0.6,0,0.9
				c-0.2,0.7-1.6,1-1.4,1.6c0.3,0.7,1.7-0.3,2.4,0c0.8,0.3,1.8,0.9,1.8,1.7c0.1,1-0.3,2.4-1.9,2.3c-0.6,0-1,0.1-1.1,0.5
				c-0.1,0.3,0.5,1,0.5,1l5.1,0.3l1.2-1.6l0.4-0.1c0,0-0.6-0.1-0.9-0.3c-0.2-0.2-0.4-0.4-0.4-0.7c0-0.3,0.1-0.7,0.3-0.9
				c0.2-0.2,0.6-0.4,0.9-0.4c0.4,0,0.8,0.1,1.1,0.4c0.2,0.2,0.4,0.6,0.3,1c-0.1,0.4-0.7,0.8-0.7,0.8l-0.4,0.1c0,0,0.7,0,1.1,0.2
				c0.3,0.1,0.5,0.4,0.7,0.5c0.3,0.2,0.6,0.6,1,0.7c0.7,0.1,1.8,0.2,2-0.5c0.1-0.6-1.2-0.5-1.3-1.1c-0.1-0.6,0.3-1.3,0.7-1.6
				c0.5-0.5,1.5-0.1,2-0.6c0.4-0.4,0.2-1.2,0.6-1.6c0.5-0.7,1.2-1.1,1.8-1.6c0.5-0.4,1-1.3,1.6-1c0.5,0.3,0,1.1-0.1,1.6
				c-0.2,0.7-0.5,1.3-0.8,1.9c-0.2,0.5-1,1-0.7,1.5c0.1,0.2,0.6,0,0.8,0.2c0.3,0.2,0.3,0.7,0.2,1c-0.1,0.4-0.7,0.4-0.8,0.8
				c-0.2,0.4-0.1,0.8-0.1,1.3c0,0.3,0.2,0.6,0.1,0.9c-0.1,0.4-1,0.6-0.9,1c0.1,0.9,1.9,0.6,2.3,1.4c0.3,0.6-0.4,1.5-0.2,2.1
				c0.2,0.8,1.3,1.2,1.5,2c0.2,0.6,0.1,1.3-0.1,1.9c-0.2,0.5-0.9,0.8-0.8,1.3c0.1,0.7,1.2,0.7,1.7,1.3c0.6,0.7,1.1,1.5,1.5,2.4
				c0.2,0.5,0.7,1.1,0.3,1.4c-1.8,1.4-4.1-2.1-6.2-2.9c-2.3-0.8-4.6-1.4-7-1.9c-2.3-0.4-4.6-0.6-6.9-0.7c-1.3-0.1-4.1-0.1-4.1-0.1
				S357.2,139.9,355.9,140L355.9,140z M361.9,114.3l-2,0l-2,0 M361.3,107.8c0.5-1.1-0.4-1.9-1.3-2.7c-0.9,0.8-1.8,1.6-1.3,2.7
				 M361.4,116.8c0.8,0.1,1.7,0.8,2.2,0.3c0.3-0.2,0.1-0.7,0-1c-0.3-0.7-1.6-0.9-1.7-1.7c-0.1-0.7,1-1,1.2-1.6c0.1-0.3,0.1-0.7,0-1
				c-0.5-1.3-2.8-1.3-3.2-2.6c-0.2-0.6,1.1-1.2,1.3-1.3c0.8-0.4,1.9,0.5,2.7,0.2c0.6-0.2,1.2-0.8,1.2-1.4c0-0.7-0.7-1.2-1.3-1.5
				c-1.2-0.5-3.1,1.1-3.9,0.1c-0.7-1,1.7-2.1,1.4-3.3c-0.1-0.5-1.4-1-1.4-1s-1.2,0.5-1.4,1c-0.3,1.1,2,2.3,1.4,3.3
				c-0.7,1.1-2.7-0.6-3.9-0.1c-0.6,0.3-1.3,0.8-1.3,1.5c0,0.6,0.6,1.2,1.2,1.4c0.8,0.4,1.9-0.5,2.7-0.2c0.2,0.1,1.5,0.7,1.3,1.3
				c-0.4,1.3-2.7,1.4-3.2,2.6c-0.1,0.3-0.1,0.7,0,1c0.2,0.6,1.3,1,1.2,1.6c-0.1,0.8-1.4,0.9-1.7,1.7c-0.1,0.3-0.3,0.8,0,1
				c0.6,0.5,1.5-0.3,2.2-0.3c0.5,0,1.4,0,1.4,0S360.9,116.7,361.4,116.8z M0,0"/>
		</g>
		<g>
			<g id="b">
				<path style="fill:#CCCCCC;stroke:#000000;stroke-width:3.205;stroke-linejoin:round;" d="M296.9,173.6l19.6,16.6
					c0,0-1,2.2-1.4,3.3c-0.4,1-0.7,2.1-1,3.1c-0.4,1.6-0.8,4.8-0.8,4.8l-22.8-20.7C290.8,175.9,293.5,174.2,296.9,173.6L296.9,173.6
					z M294.1,184l-4.7,5.2l2.9,2.8l-4.5,4.4l-2.9-2.9l-4.9,5.2l0,6.5l11.2,8.7l3.9-2.9l-0.2-6.2l3,1.6l3-1.8l0.2,5.6l-2.4-1.8
					l-2.7,3.5l-0.3,6.2l8.5,7.5l10.3-9l-0.8-2.7l-0.4-2.4l-0.2-4.8l0.4-5.3L294.1,184z"/>
				<path style="fill:#CCCCCC;stroke:#000000;stroke-width:3.205;stroke-linejoin:round;" d="M289.4,189.2l-0.1,5.8l3-2.9
					L289.4,189.2z"/>
				<path style="fill:none;stroke:#000000;stroke-width:3.205;stroke-linejoin:round;" d="M304.4,219l-0.4,6.6 M300.4,198.7l0.1,6.1
					 M297.7,201.5l0.2,5 M295.1,199.5l0.1,5.6 M291,208l0.1,5.9 M295.9,212l8.5,7.1l8.7-7.6 M280,198.6l11.1,9.4l3.7-3.2l-2.9-2.4
					l3.2-3l2.5,2.1l2.8-2.9l3.7,3.5l-3.3,2.6l3.1,2.8l-2.9,2.7"/>
				<path style="fill:#CCCCCC;stroke:#000000;stroke-width:3.205;stroke-linejoin:round;" d="M368.2,236l9.4,8.6l2.1,6l-12.1-1.3
					l-6.9-6.8l-7.4-6.8l-31.8-27.3c0,0,0.7-2.5,1.1-3.7c0.6-1.8,1.3-3.5,2-5.3c0.2-0.4,0.6-1.3,0.6-1.3l35.4,31.2L368.2,236z"/>
				<path style="fill:#CCCCCC;stroke:#000000;stroke-width:3.205;stroke-linejoin:round;" d="M376.2,237.3
					c5.2,7.3,14.1,14.1,16.8,17.4c2.7,3.3,4.4,6.4,0.5,10.7c-3.9,4.2-8.3,1.8-11.8-0.5c-3.5-2.3-9.6-9.9-18.3-15.6L376.2,237.3z"/>
				<path style="fill:#CCCCCC;stroke:#000000;stroke-width:3.205;stroke-linejoin:round;" d="M373.1,249.6l-6.8-3 M374.2,239.2
					c0.5,1.5,0.1,3.2,0.7,4.7c0.6,1.5,2.7,3.8,2.7,3.8s-1.4,0.2-2,0.4c-0.9,0.4-2.3,0.5-2.6,1.5c-0.2,0.8,0.8,1.5,1.4,2.2
					c0.6,0.6,1.3,1,2,1.4c1.2,0.7,2.4,1.5,3.8,1.7c1.7,0.3,4.9-2.1,5.2-0.4c0.1,0.7-1.4,0.3-2.1,0.6c-1.5,0.7-2.3,2.3-0.9,3.4
					c0.8,0.7,2.2,0.5,3.3,0.5c1.1,0.1,2.3-0.5,3.2,0c1.1,0.6,2.5,2.1,1.9,3.2c-0.6,1.1-2.8,1.1-3.9,0.4c-0.8-0.5-0.6-1.8-0.7-2.8
					c0-0.3,0-0.6,0-0.8"/>
				
					<ellipse style="fill:#CCCCCC;stroke:#000000;stroke-width:3.205;stroke-linejoin:round;" cx="417.2" cy="284.2" rx="25.1" ry="24.9"/>
				<path style="fill:#FFFFFF;stroke:#000000;stroke-width:3.205;stroke-linejoin:round;" d="M407.8,285.2c-4.3,0-7.8,3.5-7.8,7.8
					c0,4.3,3.5,7.8,7.8,7.8s7.8-3.5,7.8-7.8l2.7-0.1c0,4.3,3.5,7.8,7.8,7.8c4.3,0,7.8-3.5,7.8-7.8s-3.5-7.8-7.8-7.8l0.1-1.5
					c4.3,0,7.8-3.5,7.8-7.8s-3.5-7.8-7.8-7.8c-4.3,0-7.8,3.5-7.8,7.8l-2.7-0.2c0-4.3-3.5-7.8-7.8-7.8c-4.3,0-7.8,3.5-7.8,7.8
					c0,4.3,3.5,7.8,7.8,7.8L407.8,285.2z"/>
				
					<ellipse style="fill:#CCCCCC;stroke:#000000;stroke-width:3.205;stroke-linejoin:round;" cx="417.2" cy="277.6" rx="2.8" ry="2.8"/>
				
					<ellipse style="fill:#CCCCCC;stroke:#000000;stroke-width:3.205;stroke-linejoin:round;" cx="423.9" cy="284.2" rx="2.8" ry="2.8"/>
				
					<ellipse style="fill:#CCCCCC;stroke:#000000;stroke-width:3.205;stroke-linejoin:round;" cx="417.3" cy="290.2" rx="2.8" ry="2.8"/>
				
					<ellipse style="fill:#CCCCCC;stroke:#000000;stroke-width:3.205;stroke-linejoin:round;" cx="410.4" cy="284.2" rx="2.8" ry="2.8"/>
				<path style="fill:#FFFFFF;stroke:#000000;stroke-width:3.205;stroke-linejoin:round;" d="M416.8,299.2c-1,2.1-2.4,3.1-4.2,4.2
					c2.6,1.1,5.7,0.9,8.5,0C419.2,302.5,417.9,301.1,416.8,299.2z M401.9,283.8c-2.1-1-3.1-2.4-4.2-4.2c-1.1,2.5-0.9,5.6,0,8.4
					C398.6,286.2,400,284.9,401.9,283.8L401.9,283.8z M432.8,284.5c2.1-1,3.1-2.4,4.2-4.2c1.1,2.5,0.9,5.6,0,8.4
					C436.1,286.9,434.7,285.6,432.8,284.5L432.8,284.5z M417.6,269c-1-2.1-2.4-3.1-4.2-4.2c2.6-1.1,5.7-0.9,8.5,0
					C420,265.7,418.7,267.1,417.6,269z"/>
			</g>
			<g>
				<g id="c">
					<path style="fill:#CE9D09;stroke:#000000;stroke-width:3.205;stroke-linejoin:round;" d="M296.9,173.5c0,0,0.1-1,0-1.4
						c-0.2-0.7-0.7-1.4-1.3-2c-0.5-0.4-1.1-0.8-1.8-0.9c-0.7-0.1-1.4,0-2.1,0.2c-0.5,0.1-1.3,0.6-1.3,0.6l-2.9,1.2l-1.1,3.4
						c0,0-0.6,1.1-0.8,1.7c-0.2,0.6-0.3,1.3-0.1,2c0.2,0.7,0.6,1.5,1.2,2c0.5,0.5,1.3,0.7,2,0.8c0.5,0,1.6-0.4,1.6-0.4
						C290.8,177,292.4,174.3,296.9,173.5L296.9,173.5z"/>
					<path style="fill:#CE9D09;stroke:#000000;stroke-width:3.205;stroke-linejoin:round;" d="M290.5,170l-7.5-3.3l-0.6,0.6l4.1,7.3
						c0,0,1.1-1.7,1.8-2.4C289,171.5,290.5,170,290.5,170L290.5,170z"/>
					
						<ellipse style="fill:#CE9D09;stroke:#000000;stroke-width:3.205;stroke-linejoin:round;" cx="282.2" cy="166.1" rx="3.1" ry="3.1"/>
					<path style="fill:#CE9D09;stroke:#000000;stroke-width:3.205;stroke-linejoin:round;" d="M303.3,179c0.7,5.4,1.4,10.7,3.1,16.1
						l6,5.5c-1.3-5.6-3.6-11.2-3.6-16.8L303.3,179z"/>
					<path style="fill:#CE9D09;stroke:#000000;stroke-width:3.205;stroke-linejoin:round;" d="M0,0"/>
					
						<ellipse style="fill:#CE9D09;stroke:#000000;stroke-width:3.205;stroke-linejoin:round;" cx="436.6" cy="264.1" rx="3.4" ry="3.4"/>
					
						<ellipse style="fill:#CE9D09;stroke:#000000;stroke-width:3.205;stroke-linejoin:round;" cx="437.7" cy="303.4" rx="3.4" ry="3.4"/>
					
						<ellipse style="fill:#CE9D09;stroke:#000000;stroke-width:3.205;stroke-linejoin:round;" cx="399.3" cy="305.6" rx="3.4" ry="3.4"/>
				</g>
			</g>
		</g>
		<g transform="matrix(-1 0 0 1 3718.256 0)">
			<g>
				<g id="b_1_">
					<path style="fill:#CE9D09;stroke:#000000;stroke-width:3.205;stroke-linejoin:round;" d="M3295.2,173.6l19.6,16.6
						c0,0-1,2.2-1.4,3.3c-0.4,1-0.7,2.1-1,3.1c-0.4,1.6-0.8,4.8-0.8,4.8l-22.8-20.7C3289,175.9,3291.7,174.2,3295.2,173.6
						L3295.2,173.6z M3292.4,184l-4.7,5.2l2.9,2.8l-4.5,4.4l-2.9-2.9l-4.9,5.2l0,6.5l11.2,8.7l3.9-2.9l-0.2-6.2l3,1.6l3-1.8l0.2,5.6
						l-2.4-1.8l-2.7,3.5l-0.3,6.2l8.5,7.5l10.3-9l-0.8-2.7l-0.4-2.4l-0.2-4.8l0.4-5.3L3292.4,184z"/>
					<path style="fill:#CE9D09;stroke:#000000;stroke-width:3.205;stroke-linejoin:round;" d="M3287.7,189.2l-0.1,5.8l3-2.9
						L3287.7,189.2z"/>
					<path style="fill:none;stroke:#000000;stroke-width:3.205;stroke-linejoin:round;" d="M3302.6,219l-0.4,6.6 M3298.7,198.7
						l0.1,6.1 M3295.9,201.5l0.2,5 M3293.3,199.5l0.1,5.6 M3289.3,208l0.1,5.9 M3294.1,212l8.5,7.1l8.7-7.6 M3278.3,198.6l11.1,9.4
						l3.7-3.2l-2.9-2.4l3.2-3l2.5,2.1l2.8-2.9l3.7,3.5l-3.3,2.6l3.1,2.8l-2.9,2.7"/>
					<path style="fill:#CE9D09;stroke:#000000;stroke-width:3.205;stroke-linejoin:round;" d="M3366.4,236l9.4,8.6l2.1,6l-12.1-1.3
						l-6.9-6.8l-7.4-6.8l-31.8-27.3c0,0,0.7-2.5,1.1-3.7c0.6-1.8,1.3-3.5,2-5.3c0.2-0.4,0.6-1.3,0.6-1.3l35.4,31.2L3366.4,236z"/>
					<path style="fill:#CE9D09;stroke:#000000;stroke-width:3.205;stroke-linejoin:round;" d="M3374.4,237.3
						c5.2,7.3,14.1,14.1,16.8,17.4c2.7,3.3,4.4,6.4,0.5,10.7c-3.9,4.2-8.3,1.8-11.8-0.5c-3.5-2.3-9.6-9.9-18.3-15.6L3374.4,237.3z"
						/>
					<path style="fill:#CE9D09;stroke:#000000;stroke-width:3.205;stroke-linejoin:round;" d="M3371.3,249.6l-6.8-3 M3372.5,239.2
						c0.5,1.5,0.1,3.2,0.7,4.7c0.6,1.5,2.7,3.8,2.7,3.8s-1.4,0.2-2,0.4c-0.9,0.4-2.3,0.5-2.6,1.5c-0.2,0.8,0.8,1.5,1.4,2.2
						c0.6,0.6,1.3,1,2,1.4c1.2,0.7,2.4,1.5,3.8,1.7c1.7,0.3,4.9-2.1,5.2-0.4c0.1,0.7-1.4,0.3-2.1,0.6c-1.5,0.7-2.3,2.3-0.9,3.4
						c0.8,0.7,2.2,0.5,3.3,0.5c1.1,0.1,2.3-0.5,3.2,0c1.1,0.6,2.5,2.1,1.9,3.2c-0.6,1.1-2.8,1.1-3.9,0.4c-0.8-0.5-0.6-1.8-0.7-2.8
						c0-0.3,0-0.6,0-0.8"/>
					
						<ellipse style="fill:#CE9D09;stroke:#000000;stroke-width:3.205;stroke-linejoin:round;" cx="3415.5" cy="284.2" rx="25.1" ry="24.9"/>
					<path style="fill:#FFFFFF;stroke:#000000;stroke-width:3.205;stroke-linejoin:round;" d="M3406.1,285.2c-4.3,0-7.8,3.5-7.8,7.8
						c0,4.3,3.5,7.8,7.8,7.8c4.3,0,7.8-3.5,7.8-7.8l2.7-0.1c0,4.3,3.5,7.8,7.8,7.8s7.8-3.5,7.8-7.8s-3.5-7.8-7.8-7.8l0.1-1.5
						c4.3,0,7.8-3.5,7.8-7.8s-3.5-7.8-7.8-7.8c-4.3,0-7.8,3.5-7.8,7.8l-2.7-0.2c0-4.3-3.5-7.8-7.8-7.8c-4.3,0-7.8,3.5-7.8,7.8
						c0,4.3,3.5,7.8,7.8,7.8L3406.1,285.2z"/>
					
						<ellipse style="fill:#CE9D09;stroke:#000000;stroke-width:3.205;stroke-linejoin:round;" cx="3415.5" cy="277.6" rx="2.8" ry="2.8"/>
					
						<ellipse style="fill:#CE9D09;stroke:#000000;stroke-width:3.205;stroke-linejoin:round;" cx="3422.2" cy="284.2" rx="2.8" ry="2.8"/>
					
						<ellipse style="fill:#CE9D09;stroke:#000000;stroke-width:3.205;stroke-linejoin:round;" cx="3415.6" cy="290.2" rx="2.8" ry="2.8"/>
					
						<ellipse style="fill:#CE9D09;stroke:#000000;stroke-width:3.205;stroke-linejoin:round;" cx="3408.6" cy="284.2" rx="2.8" ry="2.8"/>
					<path style="fill:#FFFFFF;stroke:#000000;stroke-width:3.205;stroke-linejoin:round;" d="M3415,299.2c-1,2.1-2.4,3.1-4.2,4.2
						c2.6,1.1,5.7,0.9,8.5,0C3417.5,302.5,3416.2,301.1,3415,299.2z M3400.2,283.8c-2.1-1-3.1-2.4-4.2-4.2c-1.1,2.5-0.9,5.6,0,8.4
						C3396.8,286.2,3398.3,284.9,3400.2,283.8L3400.2,283.8z M3431,284.5c2.1-1,3.1-2.4,4.2-4.2c1.1,2.5,0.9,5.6,0,8.4
						C3434.4,286.9,3432.9,285.6,3431,284.5L3431,284.5z M3415.8,269c-1-2.1-2.4-3.1-4.2-4.2c2.6-1.1,5.7-0.9,8.5,0
						C3418.3,265.7,3417,267.1,3415.8,269z"/>
				</g>
			</g>
			<g>
				<g id="c_1_">
					<path style="fill:#CCCCCC;stroke:#000000;stroke-width:3.205;stroke-linejoin:round;" d="M3295.2,173.5c0,0,0.1-1,0-1.4
						c-0.2-0.7-0.7-1.4-1.3-2c-0.5-0.4-1.1-0.8-1.8-0.9c-0.7-0.1-1.4,0-2.1,0.2c-0.5,0.1-1.3,0.6-1.3,0.6l-2.9,1.2l-1.1,3.4
						c0,0-0.6,1.1-0.8,1.7c-0.2,0.6-0.3,1.3-0.1,2c0.2,0.7,0.6,1.5,1.2,2c0.5,0.5,1.3,0.7,2,0.8c0.5,0,1.6-0.4,1.6-0.4
						C3289,177,3290.6,174.3,3295.2,173.5L3295.2,173.5z"/>
					<path style="fill:#CCCCCC;stroke:#000000;stroke-width:3.205;stroke-linejoin:round;" d="M3288.8,170l-7.5-3.3l-0.6,0.6
						l4.1,7.3c0,0,1.1-1.7,1.8-2.4C3287.2,171.5,3288.8,170,3288.8,170L3288.8,170z"/>
					
						<ellipse style="fill:#CCCCCC;stroke:#000000;stroke-width:3.205;stroke-linejoin:round;" cx="3280.4" cy="166.1" rx="3.1" ry="3.1"/>
					<path style="fill:#CCCCCC;stroke:#000000;stroke-width:3.205;stroke-linejoin:round;" d="M3301.5,179
						c0.7,5.4,1.4,10.7,3.1,16.1l6,5.5c-1.3-5.6-3.6-11.2-3.6-16.8L3301.5,179z"/>
					<path style="fill:#CCCCCC;stroke:#000000;stroke-width:3.205;stroke-linejoin:round;" d="M2998.3,0"/>
					
						<ellipse style="fill:#CCCCCC;stroke:#000000;stroke-width:3.205;stroke-linejoin:round;" cx="3434.8" cy="264.1" rx="3.4" ry="3.4"/>
					
						<ellipse style="fill:#CCCCCC;stroke:#000000;stroke-width:3.205;stroke-linejoin:round;" cx="3436" cy="303.4" rx="3.4" ry="3.4"/>
					
						<ellipse style="fill:#CCCCCC;stroke:#000000;stroke-width:3.205;stroke-linejoin:round;" cx="3397.6" cy="305.6" rx="3.4" ry="3.4"/>
				</g>
			</g>
		</g>
		<g>
			<path id="d" style="fill:#FA0204;stroke:#000000;stroke-width:3.205;stroke-linejoin:round;" d="M361.9,225.7
				c0,1-0.9,1.4-2.6,1.4s-2.5-0.5-2.5-1.5c0-1,0.8-1.3,2.5-1.3S361.9,224.7,361.9,225.7z"/>
			<g>
				<path id="d_1_" style="fill:#FA0204;stroke:#000000;stroke-width:3.205;stroke-linejoin:round;" d="M363.2,228.5
					c0,1-0.9,1.4-2.6,1.4s-2.5-0.5-2.5-1.5c0-1,0.8-1.3,2.5-1.3S363.2,227.5,363.2,228.5z"/>
			</g>
			<path style="fill:#FA0204;stroke:#000000;stroke-width:3.205;stroke-linejoin:round;" d="M363.5,232.1c-0.3,1-1.3,1.1-2.9,0.5
				c-1.6-0.6-2.2-1.3-1.8-2.2c0.3-1,1.2-1,2.8-0.4C363.2,230.5,363.9,231.1,363.5,232.1L363.5,232.1z"/>
			<path id="e" style="fill:#FA0204;stroke:#000000;stroke-width:3.205;stroke-linejoin:round;" d="M363.6,234.7
				c-0.2,1-1.1,1.2-2.8,0.9c-1.7-0.3-2.3-1-2.1-2c0.2-1,1-1.1,2.7-0.8C363,233.2,363.8,233.7,363.6,234.7L363.6,234.7z"/>
			<g>
				<path id="e_1_" style="fill:#FA0204;stroke:#000000;stroke-width:3.205;stroke-linejoin:round;" d="M364.3,237.8
					c-0.2,1-1.1,1.2-2.8,0.9c-1.7-0.3-2.3-1-2.1-2s1-1.1,2.7-0.8C363.7,236.3,364.5,236.8,364.3,237.8L364.3,237.8z"/>
			</g>
			<path style="fill:#FA0204;stroke:#000000;stroke-width:3.205;stroke-linejoin:round;" d="M372.1,233.5c-0.5-0.1-0.4-1-0.3-1.5
				c0.2-0.8,1.6-1.7,1.6-1.7s0.3,1.1,0.2,1.6C373.4,232.5,372.9,233.7,372.1,233.5L372.1,233.5z"/>
			<path style="fill:#FA0204;stroke:#000000;stroke-width:3.205;stroke-linejoin:round;" d="M370.3,235.1c-0.5-0.1-0.6-1.1-0.5-1.6
				c0.2-0.8,1.9-1.8,1.9-1.8s0.3,1.2,0.1,1.7C371.5,234.1,371,235.2,370.3,235.1L370.3,235.1z M368.2,238.1
				c-0.8-0.2-0.7-1.7-0.5-2.5c0.2-0.7,0.7-1.8,1.4-1.6c0.8,0.2,0.8,1.6,0.6,2.4C369.5,237.1,368.9,238.3,368.2,238.1z"/>
			<path style="fill:#FA0204;stroke:#000000;stroke-width:3.205;stroke-linejoin:round;" d="M365.7,240.4c-0.8-0.2-1.2-1.5-1-2.3
				c0.2-0.9,1-2,1.9-1.8c0.9,0.2,1.2,1.6,1,2.5C367.4,239.6,366.5,240.6,365.7,240.4L365.7,240.4z M365.3,241.8
				c-0.2,1-1.5,1.3-2.2,1.1c-0.8-0.3-1.9-1.4-1.6-2.4c0.2-1,1.6-1.3,2.4-1C364.6,239.8,365.5,240.9,365.3,241.8L365.3,241.8z
				 M348.8,232.4c0,0,1,0.5,1.4,0.9c0.4,0.5,1,0.6,0.7,1.3c-0.3,0.7-1.1,0.5-1.6,0C349,234.1,348.8,232.4,348.8,232.4z M353.7,234.1
				c1,0.2,1,1.4,0.5,2.1c-0.5,0.8-2.1,1.7-3.2,1.5c-1.1-0.2-0.9-1.5-0.3-2.2C351.3,234.7,352.8,233.9,353.7,234.1z"/>
			<path id="f" style="fill:#FA0204;stroke:#000000;stroke-width:3.205;stroke-linejoin:round;" d="M357.1,236.3
				c0.9,0.4,0.7,1.5,0,2.1c-0.7,0.6-2.4,1.2-3.4,0.8c-1-0.4-0.6-1.7,0.2-2.3C354.5,236.4,356.2,235.9,357.1,236.3L357.1,236.3z"/>
			<g>
				<path id="f_1_" style="fill:#FA0204;stroke:#000000;stroke-width:3.205;stroke-linejoin:round;" d="M359.8,238.3
					c0.9,0.4,0.7,1.5,0,2.1c-0.7,0.6-2.4,1.2-3.4,0.8c-1-0.4-0.6-1.7,0.2-2.3C357.3,238.4,358.9,237.9,359.8,238.3L359.8,238.3z"/>
			</g>
			<path style="fill:#FA0204;stroke:#000000;stroke-width:3.205;stroke-linejoin:round;" d="M360.7,240.1c0.9,0.1,1.2,1.4,0.9,2.2
				c-0.3,0.9-1.4,2-2.4,1.9c-1-0.2-1.2-1.6-0.8-2.4C358.7,241,359.8,240,360.7,240.1L360.7,240.1z"/>
			<path style="fill:#FA0204;stroke:#000000;stroke-width:3.205;stroke-linejoin:round;" d="M363.1,242.9c0.8,0.4,0.6,1.8,0.1,2.6
				c-0.5,0.8-1.9,1.7-2.7,1.2c-0.8-0.5-0.5-2,0-2.8C361,243.2,362.3,242.5,363.1,242.9L363.1,242.9z M346.4,235.3
				c0.8-0.1,1.4,1.1,1.4,2c0,0.9-0.6,2.4-1.5,2.5c-0.9,0.1-1.4-1.3-1.4-2.2C345,236.7,345.6,235.4,346.4,235.3L346.4,235.3z"/>
			<path style="fill:#FA0204;stroke:#000000;stroke-width:3.205;stroke-linejoin:round;" d="M349.1,237.6c0.8,0.2,1,1.5,0.7,2.4
				c-0.3,0.9-1.3,2.1-2.2,1.9c-0.9-0.2-1-1.7-0.6-2.5C347.3,238.5,348.3,237.5,349.1,237.6L349.1,237.6z"/>
			<path style="fill:#FA0204;stroke:#000000;stroke-width:3.205;stroke-linejoin:round;" d="M351.6,239.3c1,0.2,1.2,1.9,0.8,2.9
				c-0.4,1.1-1.6,2.6-2.6,2.3c-1-0.2-1.1-2.1-0.7-3.1C349.5,240.4,350.7,239.1,351.6,239.3L351.6,239.3z"/>
			<path style="fill:#FA0204;stroke:#000000;stroke-width:3.205;stroke-linejoin:round;" d="M353.6,241.3c1-0.1,1.7,1.4,1.8,2.5
				c0.1,1.1-0.6,3-1.6,3.1c-1,0.1-1.8-1.5-1.8-2.7C352,243.1,352.7,241.4,353.6,241.3L353.6,241.3z"/>
			<path id="g" style="fill:#FA0204;stroke:#000000;stroke-width:3.205;stroke-linejoin:round;" d="M356,243c0.9-0.1,1.6,1.1,1.6,2
				c0.1,1-0.5,2.5-1.4,2.6c-0.9,0.1-1.6-1.3-1.6-2.2C354.6,244.5,355.2,243.1,356,243L356,243z"/>
			<g>
				<path id="g_1_" style="fill:#FA0204;stroke:#000000;stroke-width:3.205;stroke-linejoin:round;" d="M358.5,245
					c0.9-0.1,1.6,1.1,1.6,2c0.1,1-0.5,2.5-1.4,2.6c-0.9,0.1-1.6-1.3-1.6-2.2C357,246.5,357.6,245.1,358.5,245L358.5,245z"/>
			</g>
			<path id="h" style="fill:#FA0204;stroke:#000000;stroke-width:3.205;stroke-linejoin:round;" d="M373.6,240.2
				c-0.6,0.5-1.9,0.1-2.4-0.6c-0.6-0.6-1-2-0.3-2.6c0.7-0.6,2,0,2.6,0.7C373.9,238.4,374.2,239.6,373.6,240.2z"/>
			<g>
				<path id="h_1_" style="fill:#FA0204;stroke:#000000;stroke-width:3.205;stroke-linejoin:round;" d="M372.2,242.6
					c-0.6,0.5-1.9,0.1-2.4-0.6c-0.6-0.6-1-2-0.3-2.6c0.7-0.6,2,0,2.6,0.7C372.5,240.8,372.8,242.1,372.2,242.6z"/>
			</g>
			<g>
				<path id="h_2_" style="fill:#FA0204;stroke:#000000;stroke-width:3.205;stroke-linejoin:round;" d="M369.8,244.7
					c-0.6,0.5-1.9,0.1-2.4-0.6c-0.6-0.6-1-2-0.3-2.6c0.7-0.6,2,0,2.6,0.7C370.1,242.9,370.4,244.1,369.8,244.7z"/>
			</g>
			<path style="fill:#FA0204;stroke:#000000;stroke-width:3.205;stroke-linejoin:round;" d="M368.9,246c-0.2,0.8-1.5,1.1-2.3,0.9
				c-0.9-0.2-2-1.1-1.7-2c0.2-0.8,1.7-1.1,2.5-0.8C368.2,244.3,369.1,245.2,368.9,246z"/>
			<path style="fill:#FA0204;stroke:#000000;stroke-width:3.205;stroke-linejoin:round;" d="M365.4,245.4c0.7,0.5,0.5,2,0.1,2.9
				c-0.5,0.9-1.8,1.8-2.5,1.3c-0.7-0.5-0.5-2.2,0-3C363.5,245.7,364.7,244.9,365.4,245.4L365.4,245.4z"/>
			<path style="fill:#FA0204;stroke:#000000;stroke-width:3.205;stroke-linejoin:round;" d="M362,247.2c0.8,0.4,0.6,1.8,0.1,2.6
				c-0.5,0.8-1.9,1.7-2.7,1.2c-0.8-0.5-0.5-2,0-2.8C360,247.5,361.3,246.8,362,247.2L362,247.2z"/>
			<path id="i" style="fill:#FA0204;stroke:#000000;stroke-width:3.205;stroke-linejoin:round;" d="M354.6,252.1
				c-0.7,0.6-0.1,2.2,0.5,2.9c0.7,0.8,2.3,1.6,3,0.9c0.7-0.7,0.1-2.3-0.7-3.1C356.7,252.1,355.3,251.5,354.6,252.1L354.6,252.1z"/>
			<g>
				<path id="i_1_" style="fill:#FA0204;stroke:#000000;stroke-width:3.205;stroke-linejoin:round;" d="M353.2,254.7
					c-0.7,0.6-0.1,2.2,0.5,2.9c0.7,0.8,2.3,1.6,3,0.9c0.7-0.7,0.1-2.3-0.7-3.1C355.3,254.7,353.9,254.1,353.2,254.7L353.2,254.7z"/>
			</g>
			<path id="j" style="fill:#FA0204;stroke:#000000;stroke-width:3.205;stroke-linejoin:round;" d="M352.6,257.2
				c-0.8,0.3-0.9,2-0.6,2.9c0.4,1,1.5,2.3,2.4,1.9c0.9-0.4,0.9-2.1,0.5-3.1C354.5,258,353.4,256.9,352.6,257.2L352.6,257.2z"/>
			<g>
				<path id="j_1_" style="fill:#FA0204;stroke:#000000;stroke-width:3.205;stroke-linejoin:round;" d="M350.5,260
					c-0.8,0.3-0.9,2-0.6,2.9c0.4,1,1.5,2.3,2.4,1.9c0.9-0.4,0.9-2.1,0.5-3.1C352.5,260.8,351.4,259.7,350.5,260L350.5,260z"/>
			</g>
			<path id="k" style="fill:#FA0204;stroke:#000000;stroke-width:3.205;stroke-linejoin:round;" d="M349.1,263.2
				c-0.9,0.2-1.2,1.8-1.1,2.8c0.2,1.1,1.2,2.5,2.1,2.3c0.9-0.2,1.2-2,1-3C350.9,264.3,349.9,263,349.1,263.2L349.1,263.2z"/>
			<g>
				<path id="k_1_" style="fill:#FA0204;stroke:#000000;stroke-width:3.205;stroke-linejoin:round;" d="M347.1,266.3
					c-0.9,0.2-1.2,1.8-1.1,2.8c0.2,1.1,1.2,2.5,2.1,2.3c0.9-0.2,1.2-2,1-3C348.9,267.4,348,266.1,347.1,266.3L347.1,266.3z"/>
			</g>
			<path id="l" style="fill:#FA0204;stroke:#000000;stroke-width:3.205;stroke-linejoin:round;" d="M345.5,269.4
				c-0.9,0-1.6,1.5-1.6,2.5c0,1.1,0.7,2.7,1.6,2.6c1,0,1.6-1.7,1.6-2.8C347,270.8,346.4,269.4,345.5,269.4L345.5,269.4z"/>
			<g>
				<path id="l_1_" style="fill:#FA0204;stroke:#000000;stroke-width:3.205;stroke-linejoin:round;" d="M343.5,273.1
					c-0.9,0-1.6,1.5-1.6,2.5c0,1.1,0.7,2.7,1.6,2.6c1,0,1.6-1.7,1.6-2.8C345,274.5,344.4,273.1,343.5,273.1L343.5,273.1z"/>
			</g>
			<g>
				<path id="l_2_" style="fill:#FA0204;stroke:#000000;stroke-width:3.205;stroke-linejoin:round;" d="M341.1,276.5
					c-0.9,0-1.6,1.5-1.6,2.5c0,1.1,0.7,2.7,1.6,2.6c1,0,1.6-1.7,1.6-2.8C342.7,277.9,342,276.5,341.1,276.5L341.1,276.5z"/>
			</g>
			<g>
				<path id="l_3_" style="fill:#FA0204;stroke:#000000;stroke-width:3.205;stroke-linejoin:round;" d="M338.7,279.5
					c-0.9,0-1.6,1.5-1.6,2.5c0,1.1,0.7,2.7,1.6,2.6c1,0,1.6-1.7,1.6-2.8C340.3,280.9,339.6,279.4,338.7,279.5L338.7,279.5z"/>
			</g>
			<g>
				<path id="l_4_" style="fill:#FA0204;stroke:#000000;stroke-width:3.205;stroke-linejoin:round;" d="M336.2,282.2
					c-0.9,0-1.6,1.5-1.6,2.5c0,1.1,0.7,2.7,1.6,2.6c1,0,1.6-1.7,1.6-2.8C337.8,283.6,337.1,282.2,336.2,282.2L336.2,282.2z"/>
			</g>
			<g>
				<path id="l_5_" style="fill:#FA0204;stroke:#000000;stroke-width:3.205;stroke-linejoin:round;" d="M333.5,284.4
					c-0.9,0-1.6,1.5-1.6,2.5c0,1.1,0.7,2.7,1.6,2.6c1,0,1.6-1.7,1.6-2.8C335,285.8,334.4,284.4,333.5,284.4L333.5,284.4z"/>
			</g>
			<g>
				<path id="l_6_" style="fill:#FA0204;stroke:#000000;stroke-width:3.205;stroke-linejoin:round;" d="M330.8,286.8
					c-0.9,0-1.6,1.5-1.6,2.5c0,1.1,0.7,2.7,1.6,2.6c1,0,1.6-1.7,1.6-2.8C332.4,288.2,331.7,286.8,330.8,286.8L330.8,286.8z"/>
			</g>
			<path style="fill:#FA0204;stroke:#000000;stroke-width:3.205;stroke-linejoin:round;" d="M327.8,288l-1,4c0,0,0.6,1.4,1.2,1.3
				c1.1-0.1,1.3-1.7,1.6-2.8C329.7,288.9,327.8,288,327.8,288z M390.6,290.5c0.3,1.2,3,2.2,3,2.2l-1.3-5.3
				C391.2,287.4,390.4,289.8,390.6,290.5L390.6,290.5z"/>
			<path style="fill:#FA0204;stroke:#000000;stroke-width:3.205;stroke-linejoin:round;" d="M390.4,286.3c-0.8-0.3-2,0.8-2.5,1.7
				c-0.4,1-0.5,2.7,0.4,3.1c0.9,0.3,2.1-0.9,2.5-1.9C391.3,288.2,391.2,286.6,390.4,286.3L390.4,286.3z"/>
			<path id="m" style="fill:#FA0204;stroke:#000000;stroke-width:3.205;stroke-linejoin:round;" d="M387.4,283.9
				c-0.9,0-1.7,1.4-1.8,2.4c-0.1,1.1,0.4,2.7,1.4,2.8c1,0,1.7-1.5,1.8-2.6C388.9,285.4,388.3,284,387.4,283.9L387.4,283.9z"/>
			<g>
				<path id="m_1_" style="fill:#FA0204;stroke:#000000;stroke-width:3.205;stroke-linejoin:round;" d="M384.8,281.3
					c-0.9,0-1.7,1.4-1.8,2.4c-0.1,1.1,0.4,2.7,1.4,2.8c1,0,1.7-1.5,1.8-2.6C386.3,282.8,385.7,281.3,384.8,281.3L384.8,281.3z"/>
			</g>
			<g>
				<path id="m_2_" style="fill:#FA0204;stroke:#000000;stroke-width:3.205;stroke-linejoin:round;" d="M382.4,278.3
					c-0.9,0-1.7,1.4-1.8,2.4c-0.1,1.1,0.4,2.7,1.4,2.8c1,0,1.7-1.5,1.8-2.6C383.9,279.8,383.3,278.3,382.4,278.3L382.4,278.3z"/>
			</g>
			<g>
				<path id="m_3_" style="fill:#FA0204;stroke:#000000;stroke-width:3.205;stroke-linejoin:round;" d="M380,275.8
					c-0.9,0-1.7,1.4-1.8,2.4c-0.1,1.1,0.4,2.7,1.4,2.8c1,0,1.7-1.5,1.8-2.6C381.4,277.3,380.8,275.8,380,275.8L380,275.8z"/>
			</g>
			<g>
				<path id="m_4_" style="fill:#FA0204;stroke:#000000;stroke-width:3.205;stroke-linejoin:round;" d="M377.9,272.3
					c-0.9,0-1.7,1.4-1.8,2.4c-0.1,1.1,0.4,2.7,1.4,2.8c1,0,1.7-1.5,1.8-2.6C379.4,273.9,378.8,272.4,377.9,272.3L377.9,272.3z"/>
			</g>
			<g>
				<path id="m_5_" style="fill:#FA0204;stroke:#000000;stroke-width:3.205;stroke-linejoin:round;" d="M375.8,269.2
					c-0.9,0-1.7,1.4-1.8,2.4c-0.1,1.1,0.4,2.7,1.4,2.8c1,0,1.7-1.5,1.8-2.6C377.2,270.8,376.7,269.3,375.8,269.2L375.8,269.2z"/>
			</g>
			<g>
				<path id="m_6_" style="fill:#FA0204;stroke:#000000;stroke-width:3.205;stroke-linejoin:round;" d="M373.8,266
					c-0.9,0-1.7,1.4-1.8,2.4c-0.1,1.1,0.4,2.7,1.4,2.8c1,0,1.7-1.5,1.8-2.6C375.2,267.5,374.7,266,373.8,266L373.8,266z"/>
			</g>
			<g>
				<path id="m_7_" style="fill:#FA0204;stroke:#000000;stroke-width:3.205;stroke-linejoin:round;" d="M372,262.2
					c-0.9,0-1.7,1.4-1.8,2.4c-0.1,1.1,0.4,2.7,1.4,2.8c1,0,1.7-1.5,1.8-2.6C373.4,263.7,372.9,262.2,372,262.2L372,262.2z"/>
			</g>
			<g>
				<path id="m_8_" style="fill:#FA0204;stroke:#000000;stroke-width:3.205;stroke-linejoin:round;" d="M370,258.7
					c-0.9,0-1.7,1.4-1.8,2.4c-0.1,1.1,0.4,2.7,1.4,2.8c1,0,1.7-1.5,1.8-2.6C371.5,260.2,370.9,258.8,370,258.7L370,258.7z"/>
			</g>
			<g>
				<path id="m_9_" style="fill:#FA0204;stroke:#000000;stroke-width:3.205;stroke-linejoin:round;" d="M368.5,254.6
					c-0.9,0-1.7,1.4-1.8,2.4c-0.1,1.1,0.4,2.7,1.4,2.8c1,0,1.7-1.5,1.8-2.6C369.9,256.1,369.3,254.7,368.5,254.6L368.5,254.6z"/>
			</g>
			<path style="fill:#FA0204;stroke:#000000;stroke-width:3.205;stroke-linejoin:round;" d="M364.8,250.5c0,0-0.3,5.1,1.6,5.5
				c1.2,0.2,2.1-2.9,2.1-2.9L364.8,250.5z"/>
			<path id="n" style="fill:#FA0204;stroke:#000000;stroke-width:3.205;stroke-linejoin:round;" d="M360.6,309.3
				c-0.6,0.7,0.2,2.2,1,2.8c0.8,0.7,2.5,1.2,3.1,0.5c0.6-0.8-0.3-2.3-1.1-3C362.6,309,361.1,308.6,360.6,309.3L360.6,309.3z"/>
			<g>
				<path id="n_1_" style="fill:#FA0204;stroke:#000000;stroke-width:3.205;stroke-linejoin:round;" d="M364.1,308.9
					c-0.6,0.7,0.2,2.2,1,2.8c0.8,0.7,2.5,1.2,3.1,0.5c0.6-0.8-0.3-2.3-1.1-3C366.2,308.5,364.7,308.1,364.1,308.9L364.1,308.9z"/>
			</g>
			<g>
				<path id="n_2_" style="fill:#FA0204;stroke:#000000;stroke-width:3.205;stroke-linejoin:round;" d="M367.7,308.1
					c-0.6,0.7,0.2,2.2,1,2.8c0.8,0.7,2.5,1.2,3.1,0.5c0.6-0.8-0.3-2.3-1.1-3C369.8,307.8,368.2,307.4,367.7,308.1L367.7,308.1z"/>
			</g>
			<path id="o" style="fill:#FA0204;stroke:#000000;stroke-width:3.205;stroke-linejoin:round;" d="M371,307.9
				c-0.4,0.8,0.5,2.1,1.4,2.6c0.9,0.6,2.6,0.8,3.1,0c0.5-0.8-0.6-2.2-1.6-2.8C373.1,307.3,371.5,307.2,371,307.9L371,307.9z"/>
			<g>
				<path id="o_1_" style="fill:#FA0204;stroke:#000000;stroke-width:3.205;stroke-linejoin:round;" d="M374.9,307.3
					c-0.4,0.8,0.5,2.1,1.4,2.6c0.9,0.6,2.6,0.8,3.1,0c0.5-0.8-0.6-2.2-1.6-2.8C376.9,306.7,375.4,306.5,374.9,307.3L374.9,307.3z"/>
			</g>
			<path id="p" style="fill:#FA0204;stroke:#000000;stroke-width:3.205;stroke-linejoin:round;" d="M378.3,306.3
				c-0.4,0.8,0.7,2.1,1.6,2.5c1,0.5,2.7,0.6,3.1-0.3c0.4-0.9-0.8-2.2-1.8-2.6C380.2,305.5,378.6,305.5,378.3,306.3L378.3,306.3z"/>
			<g>
				<path id="p_1_" style="fill:#FA0204;stroke:#000000;stroke-width:3.205;stroke-linejoin:round;" d="M381.9,305.2
					c-0.4,0.8,0.7,2.1,1.6,2.5c1,0.5,2.7,0.6,3.1-0.3c0.4-0.9-0.8-2.2-1.8-2.6C383.9,304.5,382.3,304.4,381.9,305.2L381.9,305.2z"/>
			</g>
			<path id="q" style="fill:#FA0204;stroke:#000000;stroke-width:3.205;stroke-linejoin:round;" d="M385.6,304.1
				c-0.3,0.8,0.8,2,1.8,2.4c1,0.4,2.7,0.4,3.1-0.5c0.3-0.9-1-2.1-2-2.5C387.5,303.2,385.9,303.3,385.6,304.1L385.6,304.1z"/>
			<g>
				<path id="q_1_" style="fill:#FA0204;stroke:#000000;stroke-width:3.205;stroke-linejoin:round;" d="M389.3,302.9
					c-0.3,0.8,0.8,2,1.8,2.4c1,0.4,2.7,0.4,3.1-0.5c0.3-0.9-1-2.1-2-2.5C391.2,302,389.6,302.1,389.3,302.9L389.3,302.9z"/>
			</g>
			<g>
				<path id="q_2_" style="fill:#FA0204;stroke:#000000;stroke-width:3.205;stroke-linejoin:round;" d="M392.9,301.4
					c-0.3,0.8,0.8,2,1.8,2.4c1,0.4,2.7,0.4,3.1-0.5c0.3-0.9-1-2.1-2-2.5C394.8,300.5,393.2,300.6,392.9,301.4L392.9,301.4z"/>
			</g>
			<g>
				<path id="q_3_" style="fill:#FA0204;stroke:#000000;stroke-width:3.205;stroke-linejoin:round;" d="M396.7,299.9
					c-0.3,0.8,0.8,2,1.8,2.4c1,0.4,2.7,0.4,3.1-0.5c0.3-0.9-1-2.1-2-2.5C398.6,298.9,397,299,396.7,299.9L396.7,299.9z"/>
			</g>
			<g>
				<path id="q_4_" style="fill:#FA0204;stroke:#000000;stroke-width:3.205;stroke-linejoin:round;" d="M400.6,298.6
					c-0.3,0.8,0.8,2,1.8,2.4c1,0.4,2.7,0.4,3.1-0.5c0.3-0.9-1-2.1-2-2.5C402.5,297.7,400.9,297.8,400.6,298.6L400.6,298.6z"/>
			</g>
			<g>
				<path id="q_5_" style="fill:#FA0204;stroke:#000000;stroke-width:3.205;stroke-linejoin:round;" d="M401.1,295.6
					c-0.3,0.8,0.8,2,1.8,2.4c1,0.4,2.7,0.4,3.1-0.5c0.3-0.9-1-2.1-2-2.5C403,294.7,401.4,294.8,401.1,295.6L401.1,295.6z"/>
			</g>
			<path style="fill:#FA0204;stroke:#000000;stroke-width:3.205;stroke-linejoin:round;" d="M400.2,294.7c0,0,2.6,0.4,2.9-0.6
				c0.3-1.2-3-2.4-3-2.4L400.2,294.7z"/>
			<path id="r" style="fill:#FA0204;stroke:#000000;stroke-width:3.205;stroke-linejoin:round;" d="M329.5,302.5
				c-0.8,0.5-0.6,2.1-0.1,3c0.5,0.9,1.9,2,2.7,1.5c0.8-0.5,0.5-2.2,0-3.2C331.6,302.9,330.3,302,329.5,302.5L329.5,302.5z"/>
			<g>
				<path id="r_1_" style="fill:#FA0204;stroke:#000000;stroke-width:3.205;stroke-linejoin:round;" d="M333.2,304
					c-0.8,0.5-0.6,2.1-0.1,3c0.5,0.9,1.9,2,2.7,1.5c0.8-0.5,0.5-2.2,0-3.2C335.2,304.4,333.9,303.5,333.2,304L333.2,304z"/>
			</g>
			<g>
				<path id="r_2_" style="fill:#FA0204;stroke:#000000;stroke-width:3.205;stroke-linejoin:round;" d="M336.7,304.5
					c-0.8,0.5-0.6,2.1-0.1,3c0.5,0.9,1.9,2,2.7,1.5c0.8-0.5,0.5-2.2,0-3.2C338.7,305,337.4,304.1,336.7,304.5L336.7,304.5z"/>
			</g>
			<g>
				<path id="r_3_" style="fill:#FA0204;stroke:#000000;stroke-width:3.205;stroke-linejoin:round;" d="M340.5,305.5
					c-0.8,0.5-0.6,2.1-0.1,3c0.5,0.9,1.9,2,2.7,1.5c0.8-0.5,0.5-2.2,0-3.2C342.6,305.9,341.3,305,340.5,305.5L340.5,305.5z"/>
			</g>
			<g>
				<path id="r_4_" style="fill:#FA0204;stroke:#000000;stroke-width:3.205;stroke-linejoin:round;" d="M344,306
					c-0.8,0.5-0.6,2.1-0.1,3c0.5,0.9,1.9,2,2.7,1.5c0.8-0.5,0.5-2.2,0-3.2C346,306.4,344.7,305.5,344,306L344,306z"/>
			</g>
			<g>
				<path id="r_5_" style="fill:#FA0204;stroke:#000000;stroke-width:3.205;stroke-linejoin:round;" d="M347.4,306.7
					c-0.8,0.5-0.6,2.1-0.1,3c0.5,0.9,1.9,2,2.7,1.5c0.8-0.5,0.5-2.2,0-3.2C349.4,307.1,348.1,306.2,347.4,306.7L347.4,306.7z"/>
			</g>
			<g>
				<path id="r_6_" style="fill:#FA0204;stroke:#000000;stroke-width:3.205;stroke-linejoin:round;" d="M350.9,307.6
					c-0.8,0.5-0.6,2.1-0.1,3c0.5,0.9,1.9,2,2.7,1.5c0.8-0.5,0.5-2.2,0-3.2C352.9,308.1,351.6,307.2,350.9,307.6L350.9,307.6z"/>
			</g>
			<g>
				<path id="r_7_" style="fill:#FA0204;stroke:#000000;stroke-width:3.205;stroke-linejoin:round;" d="M354.3,308.3
					c-0.8,0.5-0.6,2.1-0.1,3c0.5,0.9,1.9,2,2.7,1.5c0.8-0.5,0.5-2.2,0-3.2C356.4,308.7,355.1,307.8,354.3,308.3L354.3,308.3z"/>
			</g>
			<g>
				<path id="r_8_" style="fill:#FA0204;stroke:#000000;stroke-width:3.205;stroke-linejoin:round;" d="M357.9,308.8
					c-0.8,0.5-0.6,2.1-0.1,3c0.5,0.9,1.9,2,2.7,1.5c0.8-0.5,0.5-2.2,0-3.2C360,309.2,358.7,308.3,357.9,308.8L357.9,308.8z"/>
			</g>
			<path style="fill:#FA0204;stroke:#000000;stroke-width:3.205;stroke-linejoin:round;" d="M319.1,291.4c-0.8-0.4-2.1,0.6-2.6,1.5
				c-0.5,0.9-0.7,2.6,0.1,3.1c0.9,0.4,2.2-0.7,2.7-1.7C319.8,293.3,319.9,291.8,319.1,291.4L319.1,291.4z"/>
			<path style="fill:#FA0204;stroke:#000000;stroke-width:3.205;stroke-linejoin:round;" d="M318,294.6c-0.9-0.3-2,0.8-2.4,1.8
				c-0.4,1-0.4,2.7,0.5,3c0.9,0.3,2.1-1,2.5-2C318.9,296.5,318.8,294.9,318,294.6L318,294.6z"/>
			<path style="fill:#FA0204;stroke:#000000;stroke-width:3.205;stroke-linejoin:round;" d="M319.1,297.6c-0.9-0.2-1.9,1-2.2,2
				c-0.3,1-0.1,2.7,0.8,3c0.9,0.2,2-1.2,2.3-2.2C320.2,299.4,319.9,297.8,319.1,297.6L319.1,297.6z"/>
			<path style="fill:#FA0204;stroke:#000000;stroke-width:3.205;stroke-linejoin:round;" d="M321.9,298.8c-0.9-0.3-2,1-2.3,1.9
				c-0.3,1-0.2,2.7,0.7,3c0.9,0.3,2-1.1,2.4-2.1C323,300.6,322.8,299.1,321.9,298.8L321.9,298.8z"/>
			<path id="s" style="fill:#FA0204;stroke:#000000;stroke-width:3.205;stroke-linejoin:round;" d="M323.7,299.3
				c-0.9,0.2-1.2,1.8-1,2.8c0.2,1.1,1.2,2.5,2.1,2.2c0.9-0.2,1.2-2,0.9-3C325.6,300.3,324.6,299.1,323.7,299.3L323.7,299.3z"/>
			<g>
				<path id="s_1_" style="fill:#FA0204;stroke:#000000;stroke-width:3.205;stroke-linejoin:round;" d="M327,300.5
					c-0.9,0.2-1.2,1.8-1,2.8c0.2,1.1,1.2,2.5,2.1,2.2c0.9-0.2,1.2-2,0.9-3C328.8,301.5,327.9,300.3,327,300.5L327,300.5z"/>
			</g>
			<g>
				<path id="i_2_" style="fill:#FA0204;stroke:#000000;stroke-width:3.205;stroke-linejoin:round;" d="M356.3,249.9
					c-0.7,0.6-0.1,2.2,0.5,2.9c0.7,0.8,2.3,1.6,3,0.9c0.7-0.7,0.1-2.3-0.7-3.1C358.4,249.9,356.9,249.3,356.3,249.9L356.3,249.9z"/>
			</g>
			<g>
				<path id="i_3_" style="fill:#FA0204;stroke:#000000;stroke-width:3.205;stroke-linejoin:round;" d="M355.5,253.3
					c-0.7,0.6-0.1,2.2,0.5,2.9c0.7,0.8,2.3,1.6,3,0.9c0.7-0.7,0.1-2.3-0.7-3.1C357.6,253.3,356.2,252.7,355.5,253.3L355.5,253.3z"/>
			</g>
			<g>
				<path id="i_4_" style="fill:#FA0204;stroke:#000000;stroke-width:3.205;stroke-linejoin:round;" d="M355.6,257.2
					c-0.7,0.6-0.1,2.2,0.5,2.9c0.7,0.8,2.3,1.6,3,0.9c0.7-0.7,0.1-2.3-0.7-3.1C357.7,257.2,356.2,256.6,355.6,257.2L355.6,257.2z"/>
			</g>
			<g>
				<path id="i_5_" style="fill:#FA0204;stroke:#000000;stroke-width:3.205;stroke-linejoin:round;" d="M355.5,261.3
					c-0.7,0.6-0.1,2.2,0.5,2.9c0.7,0.8,2.3,1.6,3,0.9c0.7-0.7,0.1-2.3-0.7-3.1C357.6,261.3,356.2,260.7,355.5,261.3L355.5,261.3z"/>
			</g>
			<g>
				<path id="i_6_" style="fill:#FA0204;stroke:#000000;stroke-width:3.205;stroke-linejoin:round;" d="M355.7,265.2
					c-0.7,0.6-0.1,2.2,0.5,2.9c0.7,0.8,2.3,1.6,3,0.9c0.7-0.7,0.1-2.3-0.7-3.1C357.8,265.2,356.3,264.6,355.7,265.2L355.7,265.2z"/>
			</g>
			<g>
				<path id="i_7_" style="fill:#FA0204;stroke:#000000;stroke-width:3.205;stroke-linejoin:round;" d="M355,268.9
					c-0.7,0.6-0.1,2.2,0.5,2.9c0.7,0.8,2.3,1.6,3,0.9c0.7-0.7,0.1-2.3-0.7-3.1C357.2,268.9,355.7,268.3,355,268.9L355,268.9z"/>
			</g>
			<g>
				<path id="i_8_" style="fill:#FA0204;stroke:#000000;stroke-width:3.205;stroke-linejoin:round;" d="M355.5,273
					c-0.7,0.6-0.1,2.2,0.5,2.9c0.7,0.8,2.3,1.6,3,0.9c0.7-0.7,0.1-2.3-0.7-3.1C357.6,273,356.2,272.4,355.5,273L355.5,273z"/>
			</g>
			<g>
				<path id="i_9_" style="fill:#FA0204;stroke:#000000;stroke-width:3.205;stroke-linejoin:round;" d="M355,276.3
					c-0.7,0.6-0.1,2.2,0.5,2.9c0.7,0.8,2.3,1.6,3,0.9c0.7-0.7,0.1-2.3-0.7-3.1C357.2,276.4,355.7,275.7,355,276.3L355,276.3z"/>
			</g>
			<g>
				<path id="i_10_" style="fill:#FA0204;stroke:#000000;stroke-width:3.205;stroke-linejoin:round;" d="M355.5,279.6
					c-0.7,0.6-0.1,2.2,0.5,2.9c0.7,0.8,2.3,1.6,3,0.9c0.7-0.7,0.1-2.3-0.7-3.1C357.6,279.6,356.2,279,355.5,279.6L355.5,279.6z"/>
			</g>
			<g>
				<path id="i_11_" style="fill:#FA0204;stroke:#000000;stroke-width:3.205;stroke-linejoin:round;" d="M355.5,283.5
					c-0.7,0.6-0.1,2.2,0.5,2.9c0.7,0.8,2.3,1.6,3,0.9c0.7-0.7,0.1-2.3-0.7-3.1C357.6,283.5,356.2,282.9,355.5,283.5L355.5,283.5z"/>
			</g>
			<g>
				<path id="i_12_" style="fill:#FA0204;stroke:#000000;stroke-width:3.205;stroke-linejoin:round;" d="M355.3,287.4
					c-0.7,0.6-0.1,2.2,0.5,2.9c0.7,0.8,2.3,1.6,3,0.9c0.7-0.7,0.1-2.3-0.7-3.1C357.4,287.4,355.9,286.8,355.3,287.4L355.3,287.4z"/>
			</g>
			<g>
				<path id="i_13_" style="fill:#FA0204;stroke:#000000;stroke-width:3.205;stroke-linejoin:round;" d="M355.3,291.1
					c-0.7,0.6-0.1,2.2,0.5,2.9c0.7,0.8,2.3,1.6,3,0.9c0.7-0.7,0.1-2.3-0.7-3.1C357.5,291.1,356,290.5,355.3,291.1L355.3,291.1z"/>
			</g>
			<g>
				<path id="i_14_" style="fill:#FA0204;stroke:#000000;stroke-width:3.205;stroke-linejoin:round;" d="M355.5,295
					c-0.7,0.6-0.1,2.2,0.5,2.9c0.7,0.8,2.3,1.6,3,0.9c0.7-0.7,0.1-2.3-0.7-3.1C357.6,295,356.1,294.4,355.5,295L355.5,295z"/>
			</g>
			<g>
				<path id="i_15_" style="fill:#FA0204;stroke:#000000;stroke-width:3.205;stroke-linejoin:round;" d="M355.5,298.8
					c-0.7,0.6-0.1,2.2,0.5,2.9c0.7,0.8,2.3,1.6,3,0.9c0.7-0.7,0.1-2.3-0.7-3.1C357.6,298.8,356.1,298.2,355.5,298.8L355.5,298.8z"/>
			</g>
			<g>
				<path id="i_16_" style="fill:#FA0204;stroke:#000000;stroke-width:3.205;stroke-linejoin:round;" d="M355.3,302.6
					c-0.7,0.6-0.1,2.2,0.5,2.9c0.7,0.8,2.3,1.6,3,0.9c0.7-0.7,0.1-2.3-0.7-3.1C357.5,302.6,356,302,355.3,302.6L355.3,302.6z"/>
			</g>
			<g>
				<path id="i_17_" style="fill:#FA0204;stroke:#000000;stroke-width:3.205;stroke-linejoin:round;" d="M355.1,306.5
					c-0.7,0.6-0.1,2.2,0.5,2.9c0.7,0.8,2.3,1.6,3,0.9c0.7-0.7,0.1-2.3-0.7-3.1C357.2,306.5,355.8,305.8,355.1,306.5L355.1,306.5z"/>
			</g>
			<g>
				<path id="i_18_" style="fill:#FA0204;stroke:#000000;stroke-width:3.205;stroke-linejoin:round;" d="M355.1,310.7
					c-0.7,0.6-0.1,2.2,0.5,2.9c0.7,0.8,2.3,1.6,3,0.9c0.7-0.7,0.1-2.3-0.7-3.1C357.2,310.7,355.8,310,355.1,310.7L355.1,310.7z"/>
			</g>
			<g>
				<path id="i_19_" style="fill:#FA0204;stroke:#000000;stroke-width:3.205;stroke-linejoin:round;" d="M355,315
					c-0.7,0.6-0.1,2.2,0.5,2.9c0.7,0.8,2.3,1.6,3,0.9c0.7-0.7,0.1-2.3-0.7-3.1C357.1,315,355.6,314.4,355,315L355,315z"/>
			</g>
			<g>
				<path id="i_20_" style="fill:#FA0204;stroke:#000000;stroke-width:3.205;stroke-linejoin:round;" d="M355,319.1
					c-0.7,0.6-0.1,2.2,0.5,2.9c0.7,0.8,2.3,1.6,3,0.9c0.7-0.7,0.1-2.3-0.7-3.1C357.1,319.1,355.6,318.5,355,319.1L355,319.1z"/>
			</g>
			<g>
				<path id="i_21_" style="fill:#FA0204;stroke:#000000;stroke-width:3.205;stroke-linejoin:round;" d="M355,322.9
					c-0.7,0.6-0.1,2.2,0.5,2.9c0.7,0.8,2.3,1.6,3,0.9c0.7-0.7,0.1-2.3-0.7-3.1C357.1,322.9,355.6,322.3,355,322.9L355,322.9z"/>
			</g>
			<g>
				<path id="i_22_" style="fill:#FA0204;stroke:#000000;stroke-width:3.205;stroke-linejoin:round;" d="M354.9,327.2
					c-0.7,0.6-0.1,2.2,0.5,2.9c0.7,0.8,2.3,1.6,3,0.9c0.7-0.7,0.1-2.3-0.7-3.1C357,327.2,355.5,326.6,354.9,327.2L354.9,327.2z"/>
			</g>
			<path id="t" style="fill:#FA0204;stroke:#000000;stroke-width:3.205;stroke-linejoin:round;" d="M364.5,250.2
				c0.5,0.7-0.3,2.1-1,2.7c-0.8,0.6-2.3,1-2.8,0.3c-0.5-0.8,0.4-2.2,1.2-2.8C362.6,249.8,364,249.5,364.5,250.2z"/>
			<g>
				<path id="t_1_" style="fill:#FA0204;stroke:#000000;stroke-width:3.205;stroke-linejoin:round;" d="M365,253.3
					c0.5,0.7-0.3,2.1-1,2.7c-0.8,0.6-2.3,1-2.8,0.3c-0.5-0.8,0.4-2.2,1.2-2.8C363.1,252.9,364.5,252.6,365,253.3z"/>
			</g>
			<g>
				<path id="t_2_" style="fill:#FA0204;stroke:#000000;stroke-width:3.205;stroke-linejoin:round;" d="M364.9,256.8
					c0.5,0.7-0.3,2.1-1,2.7c-0.8,0.6-2.3,1-2.8,0.3c-0.5-0.8,0.4-2.2,1.2-2.8C363.1,256.4,364.5,256.1,364.9,256.8z"/>
			</g>
			<g>
				<path id="t_3_" style="fill:#FA0204;stroke:#000000;stroke-width:3.205;stroke-linejoin:round;" d="M364.9,260.3
					c0.5,0.7-0.3,2.1-1,2.7c-0.8,0.6-2.3,1-2.8,0.3c-0.5-0.8,0.4-2.2,1.2-2.8C363,259.9,364.4,259.6,364.9,260.3z"/>
			</g>
			<g>
				<path id="t_4_" style="fill:#FA0204;stroke:#000000;stroke-width:3.205;stroke-linejoin:round;" d="M364.8,263.5
					c0.5,0.7-0.3,2.1-1,2.7c-0.8,0.6-2.3,1-2.8,0.3c-0.5-0.8,0.4-2.2,1.2-2.8C363,263.1,364.4,262.8,364.8,263.5z"/>
			</g>
			<g>
				<path id="t_5_" style="fill:#FA0204;stroke:#000000;stroke-width:3.205;stroke-linejoin:round;" d="M365,266.9
					c0.5,0.7-0.3,2.1-1,2.7c-0.8,0.6-2.3,1-2.8,0.3c-0.5-0.8,0.4-2.2,1.2-2.8C363.1,266.5,364.5,266.2,365,266.9z"/>
			</g>
			<g>
				<path id="t_6_" style="fill:#FA0204;stroke:#000000;stroke-width:3.205;stroke-linejoin:round;" d="M364.8,270.3
					c0.5,0.7-0.3,2.1-1,2.7c-0.8,0.6-2.3,1-2.8,0.3c-0.5-0.8,0.4-2.2,1.2-2.8C362.9,269.9,364.3,269.6,364.8,270.3z"/>
			</g>
			<path style="fill:#FA0204;stroke:#000000;stroke-width:3.205;stroke-linejoin:round;" d="M364.7,273.8c0.5,0.7-0.3,2.2-1.1,2.8
				c-0.9,0.7-2.5,1.1-3.1,0.3c-0.6-0.8,0.4-2.3,1.3-2.9C362.6,273.4,364.2,273.1,364.7,273.8L364.7,273.8z"/>
			<path id="u" style="fill:#FA0204;stroke:#000000;stroke-width:3.205;stroke-linejoin:round;" d="M364.4,277.2
				c0.7,0.6,0.1,2.2-0.5,2.9c-0.7,0.8-2.3,1.6-3,0.9c-0.7-0.7-0.1-2.3,0.7-3.1C362.3,277.2,363.8,276.6,364.4,277.2L364.4,277.2z"/>
			<g>
				<path id="u_1_" style="fill:#FA0204;stroke:#000000;stroke-width:3.205;stroke-linejoin:round;" d="M364.6,281.1
					c0.7,0.6,0.1,2.2-0.5,2.9c-0.7,0.8-2.3,1.6-3,0.9c-0.7-0.7-0.1-2.3,0.7-3.1C362.5,281.1,363.9,280.5,364.6,281.1L364.6,281.1z"
					/>
			</g>
			<g>
				<path id="u_2_" style="fill:#FA0204;stroke:#000000;stroke-width:3.205;stroke-linejoin:round;" d="M364.6,284.9
					c0.7,0.6,0.1,2.2-0.5,2.9c-0.7,0.8-2.3,1.6-3,0.9c-0.7-0.7-0.1-2.3,0.7-3.1C362.5,284.9,364,284.3,364.6,284.9L364.6,284.9z"/>
			</g>
			<g>
				<path id="u_3_" style="fill:#FA0204;stroke:#000000;stroke-width:3.205;stroke-linejoin:round;" d="M364.5,289.1
					c0.7,0.6,0.1,2.2-0.5,2.9c-0.7,0.8-2.3,1.6-3,0.9c-0.7-0.7-0.1-2.3,0.7-3.1C362.4,289.1,363.9,288.5,364.5,289.1L364.5,289.1z"
					/>
			</g>
			<g>
				<path id="u_4_" style="fill:#FA0204;stroke:#000000;stroke-width:3.205;stroke-linejoin:round;" d="M364.6,292.9
					c0.7,0.6,0.1,2.2-0.5,2.9c-0.7,0.8-2.3,1.6-3,0.9c-0.7-0.7-0.1-2.3,0.7-3.1C362.5,293,364,292.3,364.6,292.9L364.6,292.9z"/>
			</g>
			<g>
				<path id="u_5_" style="fill:#FA0204;stroke:#000000;stroke-width:3.205;stroke-linejoin:round;" d="M364.5,296.9
					c0.7,0.6,0.1,2.2-0.5,2.9c-0.7,0.8-2.3,1.6-3,0.9c-0.7-0.7-0.1-2.3,0.7-3.1C362.4,296.9,363.9,296.3,364.5,296.9L364.5,296.9z"
					/>
			</g>
			<g>
				<path id="u_6_" style="fill:#FA0204;stroke:#000000;stroke-width:3.205;stroke-linejoin:round;" d="M364.6,300.8
					c0.7,0.6,0.1,2.2-0.5,2.9c-0.7,0.8-2.3,1.6-3,0.9c-0.7-0.7-0.1-2.3,0.7-3.1C362.5,300.8,363.9,300.2,364.6,300.8L364.6,300.8z"
					/>
			</g>
			<g>
				<path id="u_7_" style="fill:#FA0204;stroke:#000000;stroke-width:3.205;stroke-linejoin:round;" d="M364.6,304.8
					c0.7,0.6,0.1,2.2-0.5,2.9c-0.7,0.8-2.3,1.6-3,0.9c-0.7-0.7-0.1-2.3,0.7-3.1C362.5,304.8,363.9,304.1,364.6,304.8L364.6,304.8z"
					/>
			</g>
			<g>
				<path id="u_8_" style="fill:#FA0204;stroke:#000000;stroke-width:3.205;stroke-linejoin:round;" d="M364.4,308.7
					c0.7,0.6,0.1,2.2-0.5,2.9c-0.7,0.8-2.3,1.6-3,0.9c-0.7-0.7-0.1-2.3,0.7-3.1C362.3,308.7,363.7,308.1,364.4,308.7L364.4,308.7z"
					/>
			</g>
			<g>
				<path id="u_9_" style="fill:#FA0204;stroke:#000000;stroke-width:3.205;stroke-linejoin:round;" d="M364.6,312.4
					c0.7,0.6,0.1,2.2-0.5,2.9c-0.7,0.8-2.3,1.6-3,0.9c-0.7-0.7-0.1-2.3,0.7-3.1C362.5,312.4,364,311.7,364.6,312.4L364.6,312.4z"/>
			</g>
			<g>
				<path id="u_10_" style="fill:#FA0204;stroke:#000000;stroke-width:3.205;stroke-linejoin:round;" d="M364.6,316.2
					c0.7,0.6,0.1,2.2-0.5,2.9c-0.7,0.8-2.3,1.6-3,0.9c-0.7-0.7-0.1-2.3,0.7-3.1C362.5,316.2,364,315.5,364.6,316.2L364.6,316.2z"/>
			</g>
			<g>
				<path id="u_11_" style="fill:#FA0204;stroke:#000000;stroke-width:3.205;stroke-linejoin:round;" d="M364.5,320.2
					c0.7,0.6,0.1,2.2-0.5,2.9c-0.7,0.8-2.3,1.6-3,0.9c-0.7-0.7-0.1-2.3,0.7-3.1C362.4,320.3,363.9,319.6,364.5,320.2L364.5,320.2z"
					/>
			</g>
			<g>
				<path id="u_12_" style="fill:#FA0204;stroke:#000000;stroke-width:3.205;stroke-linejoin:round;" d="M364.5,324.3
					c0.7,0.6,0.1,2.2-0.5,2.9c-0.7,0.8-2.3,1.6-3,0.9c-0.7-0.7-0.1-2.3,0.7-3.1C362.4,324.3,363.9,323.7,364.5,324.3L364.5,324.3z"
					/>
			</g>
		</g>
		<path style="fill:#FA0204;stroke:#000000;stroke-width:3.205;stroke-linejoin:round;" d="M358.2,354.9c3.9,1.1,6.1,1,9.3,0.1
			l-3.4-5.4"/>
		<path style="fill:#CE9D09;stroke:#000000;stroke-width:3.205;stroke-linejoin:round;" d="M365.7,341l-6.1-1.6c0,0,0.1-6.8,3.9-6.2
			C366.7,333.8,365.8,341,365.7,341z"/>
		
			<ellipse style="fill:#CE9D09;stroke:#000000;stroke-width:3.205;stroke-linejoin:round;" cx="362.7" cy="330.8" rx="2.5" ry="2.5"/>
		<path style="fill:#FA0204;stroke:#000000;stroke-width:3.205;stroke-linejoin:round;" d="M365.1,344c1.4,3.4,2.2,6.4,0.9,10.3
			 M367.5,354.9c-2-1.6-7.1-1.1-9.3-0.1c-0.9,0-3.2-16,5-15.6C370.7,339.7,368,355,367.5,354.9L367.5,354.9z"/>
		<path style="fill:#FA0204;stroke:#000000;stroke-width:3.205;stroke-linejoin:round;" d="M351.5,358.3c3.7,2.3,7.2,2.1,10.5,0.1
			l-7.8-8.1"/>
		<ellipse style="fill:#CE9D09;stroke:#000000;stroke-width:3.205;stroke-linejoin:round;" cx="357" cy="333.7" rx="2.5" ry="2.5"/>
		<path style="fill:#CE9D09;stroke:#000000;stroke-width:3.205;stroke-linejoin:round;" d="M360,341.8l-6.3-0.1c0,0-0.8-5.1,3.1-5.3
			C360.1,336.1,360.2,341.8,360,341.8z"/>
		<path style="fill:#FA0204;stroke:#000000;stroke-width:3.205;stroke-linejoin:round;" d="M357,357.3c-1.2-2.7-1.3-6-1-9.5
			 M354.2,357.4c-1.5-2.5-1.8-5.8-0.6-9.8 M362,358.5c-1-1.2-7.8-1.7-10.5-0.1c-1,0-3.6-18,5.6-17.6
			C365.6,341.2,362.6,358.5,362,358.5L362,358.5z"/>
	</g>
</g>
</svg>
