<?xml version="1.0" encoding="utf-8"?>
<!-- Generator: Adobe Illustrator 25.2.1, SVG Export Plug-In . SVG Version: 6.00 Build 0)  -->
<svg version="1.1" id="Layer_1" xmlns="http://www.w3.org/2000/svg" xmlns:xlink="http://www.w3.org/1999/xlink" x="0px" y="0px"
	 viewBox="0 0 720 480" style="enable-background:new 0 0 720 480;" xml:space="preserve">
<g>
	<path style="fill:#FFFFFF;" d="M0,0h720v480H0V0z"/>
	<path style="fill:#369443;stroke:#010002;stroke-width:3;stroke-miterlimit:10;" d="M224.6,325c0,0-0.6-3.9,6.9-6.8
		c7.5-2.9,8.1-13.7,6.6-20.9c0,0-3.9,6.8-8.7,9.1c0,0-7.7,4-8.1,11.7c0,0-0.1,2.8-0.6,5c-0.3,1.2-3.7-9.6,2.7-17.7
		c6.7-8.3,8.6-15.1,3.2-28.2c0,0-0.5,8-5.7,12.5c-5.2,4.6-5.9,4.9-5.8,15.8c0,0,0.1,3.8-1.9,5c0,0-4.1-6-5.2-9.9
		c-1.1-3.9-1.6-5.6,3.1-10.2c0,0,14.9-9.7,4.2-30.8c0,0-0.3,7.3-5.5,11.6c-5.2,4.3-4.7,7.2-5,14.6c-0.3,7.5-0.7,6.9-1.3,8
		c0,0-9.5-17.5-2.2-26.8c7.3-9.3,11.4-11.2,3.3-28.5c0,0,0.4,8.9-6.1,13.2c-6.5,4.4-5,14.6-5,14.6s0.4,3.9-0.9,6.7
		c0,0-9.1-17.8-0.4-27.5c7.4-8.2,7.9-13.9,3.9-25.4c0,0-0.5,5.4-4.6,8.2c-4.1,2.9-7.3,5.8-6.6,16.9c0,0,0.3,7.8-0.7,10
		c0,0-3.8-7.1-4.9-11.8c-1.1-4.6-1.5-7.4,1.3-12c2.8-4.6,14.1-18,0.7-37.2c0,0-0.4,6.2-3.8,11.8c-3.4,5.6-1.8,12.3-1.1,17.4
		c0.7,5.1-1.7,10-1.7,10s-5.8-10.7-4.6-23c1.2-12.3-3.7-22.4-15.1-29.6c0,0-8.2,19.1,3,28.9c0,0,9.6,9.5,12,21
		c0,0-7.2-0.7-13.8-13.5c-6.6-12.8-20.2-10.8-21.2-10.9c0,0,2.2,19.8,23.2,25.4c0,0,13.4,2.3,15.9,12.1c0,0,2.2,6.8,3.2,10.4
		c0,0-4.2-1.7-8.2-7.5c-3.9-5.8-3.4-6.5-16.7-7.8c0,0-5.3-0.6-8.2-4.4c0,0,5.6,21,19.9,20.8c0,0,13.1-1.4,20.4,15.8
		c0,0-1.4-0.9-3.3-2.2c-1.9-1.3-6.7-3.8-16.3-2.6c-9.6,1.1-12.2-0.4-14.7-1.2c0,0,9.7,17.7,23.3,12.5c13.7-5.3,20.3,13.9,20.4,14.3
		c0,0-1.8-1.4-4.2-3.8c-2.4-2.4-7.4-5.3-16.9-2.3c0,0-6.8,2.6-13.7,0.5c0,0,6.7,12.9,22.2,10.7C197,295,201,308.7,201,308.7
		s-2.1-1.2-3.5-2.4c-1.4-1.1-6.7-4.1-17.9-0.8c-11.2,3.3-15.3-0.5-15.3-0.5s6.2,11.4,18.2,12.7c0,0,6.7-0.1,9.5-1.1
		c2.8-1.1,10.3-2.7,15.5,4.7c0,0-1.4,0.3-3.6-0.7c0,0-8-2.9-14.1,2.2c0,0-5.4,5.5-13.1,4.5c0,0,9.9,9.6,25.7,1.5
		c0,0,5.3-3.9,9.2-0.9C215.5,330.9,224.6,325,224.6,325L224.6,325z"/>
	<path style="fill:#F4C53D;stroke:#010002;stroke-width:3;stroke-miterlimit:10;" d="M312.2,87.3c0,0-1.8-16.3,11.2-17.9
		c13.6-1.6,20.3,1.2,20.3,1.2l6.1,12l-2.1,8.1l-8.4,3.9c0,0,1.4-12.4-9.9-12.7c-2.9-0.1-4.6,1.1-9.1,0.4
		C315.7,81.5,313.3,86.5,312.2,87.3L312.2,87.3z"/>
	<path style="fill:#F4C53D;stroke:#010002;stroke-width:3;stroke-miterlimit:10;" d="M404,127.7c-1.9,2.5-9.7,3.4-9.7,3.4
		s8,6.1,11.4,14.9c3.4,8.8-92.7,0.1-92.7,0.1s4.2-3,7-8.6c0,0-4.2,1.6-8.5-2.6c0,0,3.2,1.1,7.3-5.3c0,0,6.2-7.9,10.5-10
		c0,0-2,1.2-6.8-1.4c0,0,8.3-1.1,11.3-15.3c0,0,0.5-3.2,3.7-7.7c3.2-4.6,2.5,0.9,8.3-6.1c0,0,2.7-5,0.3-8c-2.3-3-4.8-1.9-9.7-4.9
		s-7.1-4.6-5.4-9.1c1.7-4.5,6-3.8,6.6-3.8c0.6,0,0.9-3.9,6.3-6.6c5.3-2.7,19.5-1.5,21.6-0.4c2.1,1.2,10.7,3.7,15.7,16.3
		c5,12.6-1.3,17.4,12.3,36.4c0,0-5.4,1.2-8.9,0.1C384.6,109.2,391.6,121.7,404,127.7L404,127.7z"/>
	<path style="fill:none;stroke:#010002;stroke-width:3;stroke-miterlimit:10;" d="M344.5,74.4c-11.1-0.5-6.8-11.1-6.8-11.1"/>
	<path style="fill:#F4C53D;stroke:#010002;stroke-width:3;stroke-miterlimit:10;" d="M363.8,75.8c0,0-2-0.9-3.6-3.1
		c-2.3-3.1-7.5-4.6-10.3-1.7c0,0-2.8,3.2-5.3,3.3c0,0,2.8,0.9,4.8,2.7c2,1.8,4,3.1,6.9,2.7c2.9-0.4,3.4-1.9,4.7-2.9
		C362.4,76,363.8,75.8,363.8,75.8L363.8,75.8z"/>
	<path style="fill:#F4C53D;stroke:#010002;stroke-width:3;" d="M435.8,233.6c0,0,10.3,8.4,19,0c0,0,3.5,4.2,10.5,3
		c7-1.2,8.2-4.9,8.8-7c0,0,6.1,3.5,11.2,0.7c5.1-2.8,5.1-7,5.1-7s8.9,1.8,13.4-4.3c4.6-6,1.8-12-0.7-12.7c0,0,9.6,2.5,12.2-5.7
		c2.2-7-2.8-10.6-2.8-10.6s20.2-0.1,28.5-6.4c0,0,6.9-4.3,2.8-8.9c0,0,18.2-2.9,22.8-10.2c0,0,2-2,1.3-5.5c0,0-0.1-2-2.1-2.1
		c0,0,20.8-3.2,26.8-10.1c0,0,2.9-3.2,1.4-7.4c0,0-0.3-1.1-0.8-1.9c0,0,18.9-4,28.2-12.4c0,0,5.4-4.8,2.6-11.2
		c0,0,31.6-8.7,24.3-22.6c0,0,14.8-4.8,10.1-18.1c0,0,12.2-6.2,6.9-16c-5.1-9.4-20.8,1.6-39.3,6.8c0,0-50.2,15.8-74.9,20L481,188.6
		l-41,15.8L435.8,233.6L435.8,233.6z"/>
	<path style="fill:#F4C53D;stroke:#010002;stroke-width:3;" d="M435.3,156.6c0,0,6.6-4.9,18.3,0.9c0,0,4,2.7,7.1-0.3
		c2.6-2.5,2.8-7.1-0.7-9.7c-8.7-6.5-12-26,1.3-34c0,0,19.3-11.5,90.2-29.5c0,0,5.9-1.6,9.1-0.9c3.5,0.9,5.9,3.9,6.4,6.4
		c0,0,3.2,9-7.5,14.2c0,0-4.8,2.2-9.8,3.6c0,0,5.4-1.2,7.8,4.2c2.2,5.1-1,10.4-11,13.8c0,0-2.7,1.1-6.6,2c0,0,8.6,2.5,4.4,9.4
		c0,0-3.7,7.3-16.6,8.5c0,0,9.7,1.1,2.8,10.2c0,0-3,5-12.4,6.9c0,0,7.2,0.2,3.6,6.7c-3.6,6.4-12.1,10.1-20.5,10.6
		c0,0-4.5,0.2-7.7-0.5c0,0,7.9,4,3.3,10.6c0,0-3.4,4.7-12,4.5c0,0,2.2,7.4-4.1,10.3c-4.9,2.2-9-1.3-9-1.3s1.7,8-5.5,10.8
		c0,0-3.6,1.8-8.9,0c0,0-4.1,9.1-18.6,2.7C424.3,210.3,435.3,156.6,435.3,156.6z"/>
	<path style="fill:none;stroke:#010002;stroke-width:3;" d="M658.6,73.2c0,0-22.8,13.2-93.7,26.4"/>
	<path style="fill:#F4C53D;stroke:#010002;stroke-width:3;" d="M252,306.3c0,0-8.4,14.5-18.7,14.7c0,0-17.6-2.1-22.5,2.5
		c-3.5,3.2-7,5.8-8.4,14s2.8,9.9,3.8,10.3c0,0,0.8,5.8,6.6,4.3c0,0,0.3,6.1,10.6,3.2c10.2-2.9,14.4-2,16.4-12.2
		c2-10.2,3.8-10,5.7-11.2c2.4-1.6,7-3.2,10.4-5.1c3.1-1.8,14.8-7.7,18.8-8.2c4-0.5,3.1-13.9,3.1-13.9h-10.3l-5-7.4L252,306.3
		L252,306.3z"/>
	<path style="fill:none;stroke:#010002;stroke-width:3;" d="M648.5,91.4c0,0-61.6,20.1-90.3,22.6 M624.2,113.9
		c0,0-36.1,11.3-78.5,18.5 M593.3,137.6c0,0-40.8,9.8-60.3,11.4"/>
	<path style="fill:none;stroke:#010002;stroke-width:3;stroke-miterlimit:10;" d="M565.9,156.9c0,0-34.5,7.2-43.3,8.1"/>
	<path style="fill:#0081C6;stroke:#010002;stroke-width:3;stroke-miterlimit:10;" d="M527.1,209.4l1.7,54.8l0,0l-9.7-5.6l0,0
		L503,328.2l-6.6-4.8l15.7-66.6l0,0l-10.9,0.2l0,0L527.1,209.4z"/>
	<path style="fill:none;stroke:#010002;stroke-width:3;stroke-miterlimit:10;" d="M543.9,174.6c0,0-25.2,3.8-35.2,3.6 M512.6,190
		c0,0-10.2-0.5-15.1-1.3 M503.2,206.3c0,0-8.7-2.3-13.8-5.6 M490.4,223.3c0,0-6.7-2.6-9.9-9.6 M474.1,229.5c0,0-5.2-4.6-5.5-9.8"/>
	<path style="fill:#0081C6;stroke:#010002;stroke-width:3;stroke-miterlimit:10;" d="M589.7,233.8L566.7,283l0,0l-6-9.7l0,0
		l-48.4,57.1l-5.2-5.9l48.2-56.4l0,0l-9.7-5.2l0,0L589.7,233.8z"/>
	<path style="fill:none;stroke:#010002;stroke-width:3;stroke-miterlimit:10;" d="M454.8,233.6c0,0,1.9-1.7,0.6-8.9"/>
	<path style="fill:#0081C6;stroke:#010002;stroke-width:3;stroke-miterlimit:10;" d="M568.8,197.6L557,251l0,0l-8-8.1l0,0
		l-43.3,83.2l-6.7-3.9l43.6-83.1l0,0l-10.6-2.8l0,0L568.8,197.6z"/>
	<path style="fill:none;stroke:#010002;stroke-width:3;stroke-miterlimit:10;" d="M457.3,214c0,0,1-2.1,0.7-5.4"/>
	<path style="fill:#F4C53D;stroke:#010002;stroke-width:3;" d="M284.5,233.6c0,0-10.3,8.4-19,0c0,0-3.5,4.2-10.5,3
		c-7-1.2-8.2-4.9-8.8-7c0,0-6.1,3.5-11.2,0.7c-5.1-2.8-5.1-7-5.1-7s-8.9,1.8-13.4-4.3c-4.6-6-1.8-12,0.7-12.7c0,0-9.6,2.5-12.2-5.7
		c-2.2-7,2.8-10.6,2.8-10.6s-20.2-0.1-28.5-6.4c0,0-6.9-4.3-2.8-8.9c0,0-18.2-2.9-22.8-10.2c0,0-2-2-1.3-5.5c0,0,0.1-2,2.1-2.1
		c0,0-20.8-3.2-26.8-10.1c0,0-2.9-3.2-1.4-7.4c0,0,0.3-1.1,0.8-1.9c0,0-18.9-4-28.2-12.4c0,0-5.4-4.8-2.6-11.2
		c0,0-31.6-8.7-24.3-22.6c0,0-14.8-4.8-10.1-18.1c0,0-12.2-6.2-6.9-16c5.1-9.4,20.8,1.6,39.3,6.8c0,0,50.2,15.8,74.9,20l70.2,104.6
		l41,15.8L284.5,233.6L284.5,233.6z"/>
	<path style="fill:none;stroke:#010002;stroke-width:3;stroke-miterlimit:10;" d="M493.8,110.2c0,0-11.7,4.7-15.5,11.1
		c-3.9,6.4-1.3,12.7,0,16.3c0.7,1.8,8.9,17.6-0.8,29.1"/>
	<path style="fill:#F4C53D;stroke:#010002;stroke-width:3;" d="M285,156.6c0,0-6.6-4.9-18.3,0.9c0,0-4,2.7-7.1-0.3
		c-2.6-2.5-2.8-7.1,0.7-9.7c8.7-6.5,12-26-1.3-34c0,0-19.3-11.5-90.2-29.5c0,0-5.9-1.6-9.1-0.9c-3.5,0.9-5.9,3.9-6.4,6.4
		c0,0-3.2,9,7.5,14.2c0,0,4.8,2.2,9.8,3.6c0,0-5.4-1.2-7.8,4.2c-2.2,5.1,1,10.4,11,13.8c0,0,2.7,1.1,6.6,2c0,0-8.6,2.5-4.4,9.4
		c0,0,3.7,7.3,16.6,8.5c0,0-9.7,1.1-2.8,10.2c0,0,3,5,12.4,6.9c0,0-7.2,0.2-3.6,6.7c3.6,6.4,12.1,10.1,20.5,10.6
		c0,0,4.5,0.2,7.7-0.5c0,0-7.9,4-3.3,10.6c0,0,3.4,4.7,12,4.5c0,0-2.2,7.4,4.1,10.3c4.9,2.2,9-1.3,9-1.3s-1.7,8,5.5,10.8
		c0,0,3.6,1.8,8.9,0c0,0,4.1,9.1,18.6,2.7C296.1,210.3,285,156.6,285,156.6z"/>
	<path style="fill:none;stroke:#010002;stroke-width:3;stroke-miterlimit:10;" d="M493.6,179.1c0,0-0.1-0.1-4.2-1.3 M518.2,162.3
		c0,0-7,1.4-13.8,1.5 M527.8,145.2c0,0-8.2,0.8-15.8,0.7 M539.9,127.3c0,0-11.8,2.3-18.1,2.5 M549.7,107.3c0,0-14.5,4.1-25.3,5.6
		 M500.4,121.4c0,0,10.4,9.7-2.1,18.7c0,0,5.2,8.2-5.2,16.7"/>
	<path style="fill:#F4C53D;stroke:#010002;stroke-width:3;" d="M285.9,239.5c0,0-2.1,11.4-19,25.8c0,0-13,11.5-12.7,24.7
		c0.3,13.5-2.3,15-7.4,19.5c0,0,10.6,0.8,15.7-6.2c0,0-0.2,11.7-1.8,12.7c0,0,3.3,0.2,8.1-5c0,0,2.9-3,5.6-4.2c0,0-3.1,8.1-0.7,15.6
		c0,0,0.8-2.9,4.9-4.2c0,0,7.4-1.5,10.3-12.3c0,0,1.9-7.1,13.5-13.5c0,0,13.2-5,12.9-11.5C314.9,274.4,285.9,239.5,285.9,239.5z"/>
	<path style="fill:none;stroke:#010002;stroke-width:3;stroke-miterlimit:10;" d="M495.9,160.9c0,0,1.6,15.6-17.5,15.6
		c0,0,3.7,13.9-14.8,13.5c0,0-2.1,11.1-15.4,8.9"/>
	<path style="fill:#F4C53D;stroke:#010002;stroke-width:3;" d="M468.4,306.3c0,0,8.4,14.5,18.7,14.7c0,0,17.6-2.1,22.5,2.5
		c3.5,3.2,7,5.8,8.4,14c1.4,8.2-2.8,9.9-3.8,10.3c0,0-0.8,5.8-6.6,4.3c0,0-0.3,6.1-10.6,3.2c-10.2-2.9-14.4-2-16.4-12.2
		c-2-10.2-3.8-10-5.7-11.2c-2.4-1.6-7-3.2-10.4-5.1c-3.1-1.8-14.8-7.7-18.8-8.2c-4-0.5-3.1-13.9-3.1-13.9h10.3l5-7.4L468.4,306.3
		L468.4,306.3z"/>
	<path style="fill:#F4C53D;stroke:#010002;stroke-width:3;" d="M434.5,239.5c0,0,2.1,11.4,19,25.8c0,0,13,11.5,12.7,24.7
		c-0.3,13.5,2.3,15,7.4,19.5c0,0-10.6,0.8-15.7-6.2c0,0,0.2,11.7,1.8,12.7c0,0-3.3,0.2-8.1-5c0,0-2.9-3-5.6-4.2
		c0,0,3.1,8.1,0.7,15.6c0,0-0.8-2.9-4.9-4.2c0,0-7.4-1.5-10.3-12.3c0,0-1.9-7.1-13.5-13.5c0,0-13.2-5-12.9-11.5
		C405.4,274.4,434.5,239.5,434.5,239.5L434.5,239.5z"/>
	<path style="fill:none;stroke:#010002;stroke-width:3;" d="M477.5,321.1c0,0,3,0.7,9.6,0"/>
	<path style="fill:none;stroke:#010002;stroke-width:3;stroke-miterlimit:10;" d="M505.5,329.3c0,0,9.2-1.4,8.8,18.6 M499.9,333.8
		c0,0,8.3-1.1,7.8,18.4"/>
	<path style="fill:none;stroke:#010002;stroke-width:3;" d="M419.5,287c0,0,4,0.8,6.8,4c2.8,3.2,8.1,2.6,8.1,2.6s-2.9-2.3-3.9-8.2
		c-1-5.8-4.2-7.6-4.2-7.6 M435.8,272.3c0,0,4,0.8,6.8,4c2.8,3.2,8.1,2.6,8.1,2.6s-2.9-2.3-3.9-8.2s-4.2-7.6-4.2-7.6 M438.6,295
		c0,0,3.5,0.7,5.9,3.5c2.4,2.8,7.1,2.2,7.1,2.2s-2.5-2-3.4-7.1c-0.9-5.1-3.7-6.6-3.7-6.6"/>
	<path style="fill:#F4C53D;stroke:#010002;stroke-width:3;stroke-miterlimit:10;" d="M373.2,386.7c0,0,3,13.4,13.5,12.3
		c0,0,7.4-0.7,6.9-13.1c0,0,11,5.8,12.8-8.7c0,0,10,2.3,9.9-11.2c0,0,9.3,1.6,8.2-10.4c0,0,10.1,2.7,10.1-8.7
		c0,0,23.7-3.9-25.7-48.9l-44,26.2L373.2,386.7L373.2,386.7z"/>
	<path style="fill:#F4C53D;stroke:#010002;stroke-width:3;" d="M368.4,326.7c0,0,7.3,6.5,12.5-3.2c0,0,7.1-0.4,8.2-5.7
		c0,0,5.8-0.6,6.9-6.1c0,0,7.9-0.8,7.7-7.5c0,0,14.3-1.1,0-17.3c-14.3-16.2-38.7,26.9-38.7,26.9L368.4,326.7z"/>
	<path style="fill:none;stroke:#010002;stroke-width:3;stroke-miterlimit:10;" d="M393.7,385.9c0,0-1.1-23.5-21.5-57.2 M406.4,377.2
		c0,0,3.2-13.6-25.5-53.7c0,0,3.3-9.6-6.9-15.7 M416.3,366c0,0,0.9-14.7-27.2-48.2c0,0,2.5-8.7-7.7-15.6 M424.5,355.6
		c0,0-1.1-14.9-28.5-43.9c0,0,1.4-8.9-8.5-14.4 M434.7,346.9c0,0-2-17-31-42.7c0,0,1-6.7-8.7-13.5"/>
	<path style="fill:#F4C53D;stroke:#010002;stroke-width:3;stroke-miterlimit:10;" d="M347.1,386.7c0,0-3,13.4-13.5,12.3
		c0,0-7.4-0.7-6.9-13.1c0,0-11,5.8-12.8-8.7c0,0-10,2.3-9.9-11.2c0,0-9.3,1.6-8.2-10.4c0,0-10.1,2.7-10.1-8.7
		c0,0-23.7-3.9,25.7-48.9l44,26.2L347.1,386.7L347.1,386.7z"/>
	<path style="fill:#F4C53D;stroke:#010002;stroke-width:3;" d="M352,326.7c0,0-7.3,6.5-12.5-3.2c0,0-7.1-0.4-8.2-5.7
		c0,0-5.8-0.6-6.9-6.1c0,0-7.9-0.8-7.7-7.5c0,0-14.3-1.1,0-17.3c14.3-16.2,38.7,26.9,38.7,26.9L352,326.7L352,326.7z"/>
	<path style="fill:none;stroke:#010002;stroke-width:3;stroke-miterlimit:10;" d="M326.7,385.9c0,0,1.1-23.5,21.5-57.2 M313.9,377.2
		c0,0-3.2-13.6,25.5-53.7c0,0-3.3-9.6,6.9-15.7"/>
	<path style="fill:#F4C53D;stroke:#010002;stroke-width:3;" d="M360.2,322.7c7.1,0,15.2,44.4,13.1,71.1c-0.8,9.7-6,17.6-13.1,17.6
		c-7.1,0-12.3-7.9-13.1-17.6C345,367.1,353.1,322.7,360.2,322.7"/>
	<path style="fill:none;stroke:#010002;stroke-width:3;stroke-miterlimit:10;" d="M304,366c0,0-0.9-14.7,27.2-48.2
		c0,0-2.5-8.7,7.7-15.6 M295.8,355.6c0,0,1.1-14.9,28.5-43.9c0,0-1.4-8.9,8.5-14.4"/>
	<ellipse style="fill:#F4C53D;stroke:#010002;stroke-width:3;" cx="360.2" cy="322.4" rx="9.8" ry="14.6"/>
	<path style="fill:none;stroke:#010002;stroke-width:3;stroke-miterlimit:10;" d="M285.7,346.9c0,0,2-17,31-42.7c0,0-1-6.7,8.7-13.5
		"/>
	<path style="fill:#FFFFFF;stroke:#010002;stroke-width:3;" d="M360.2,319.2c0,0,83.4-37,83.6-122.4H276.6
		C276.8,282.2,360.2,319.2,360.2,319.2z"/>
	<path style="fill:none;stroke:#010002;stroke-width:3;stroke-miterlimit:10;" d="M315.2,196.7H328 M289.4,196.7h12.9 M340.9,196.7
		h12.9"/>
	<path style="fill:#A60032;stroke:#010002;stroke-width:3;" d="M289.4,196.7v54.6c0,0,6.4,12.7,12.9,20.6v-75.2H289.4L289.4,196.7z
		 M315.2,196.7v90c0,0,8,7.9,12.9,11.7V196.7H315.2L315.2,196.7z M340.9,196.7V308c0,0,9.2,5.9,12.9,7.9V196.7L340.9,196.7
		L340.9,196.7z"/>
	<path style="fill:none;stroke:#010002;stroke-width:3;" d="M289.4,196.7h12.9 M315.2,196.7H328 M340.9,196.7h12.9"/>
	<path style="fill:#A60032;stroke:#010002;stroke-width:3;" d="M430.9,196.7v54.6c0,0-6.4,12.7-12.9,20.6v-75.2H430.9z M405.2,196.7
		v90c0,0-8,7.9-12.9,11.7V196.7H405.2z M379.5,196.7V308c0,0-9.2,5.9-12.9,7.9V196.7L379.5,196.7L379.5,196.7z"/>
	<path style="fill:none;" d="M448.3,401.8l-7.7,9.5 M430.9,400.8l21.3,19.7"/>
	<path style="fill:#0081C6;stroke:#010002;stroke-width:3;stroke-miterlimit:10;" d="M495,351.6l-3.2,13.3l0,0l8.9,8.8l0,0l-12.5,53
		l-11.2-15l-16.5,7.7l12.5-53l0,0l11.6-3.2l0,0l3-13.2C487.6,349.9,491.1,348.6,495,351.6L495,351.6z"/>
	<path style="fill:#0081C6;stroke:#010002;stroke-width:3;stroke-miterlimit:10;" d="M498,342.8l-6.4,11.9l0,0l6.4,11l0,0
		l-25.1,47.8l-7.1-17.5l-17.9,2.9l25.1-47.8l0,0l12,0l0,0l6.2-12C491.2,339.2,495.7,339.2,498,342.8L498,342.8z"/>
	<path style="fill:#0081C6;stroke:#010002;stroke-width:3;stroke-miterlimit:10;" d="M499,346.3l-17,21.6l0,0l3.9,12.2l0,0
		l-34.7,40.6l-3.2-18.8l-18-1.4l34.7-40.6l0,0l11.7,2.9l0,0l18-22.9C494.5,340,499.3,342.4,499,346.3L499,346.3z"/>
	<path style="fill:none;stroke:#010002;stroke-width:3;" d="M61.8,73.2c0,0,22.8,13.2,93.7,26.4 M71.9,91.4c0,0,61.6,20.1,90.3,22.6
		 M96.1,113.9c0,0,36.1,11.3,78.5,18.5 M127,137.6c0,0,40.8,9.8,60.3,11.4"/>
	<path style="fill:none;stroke:#010002;stroke-width:3;stroke-miterlimit:10;" d="M154.4,156.9c0,0,34.5,7.2,43.3,8.1 M176.4,174.6
		c0,0,25.2,3.8,35.2,3.6 M207.7,190c0,0,10.2-0.5,15.1-1.3 M217.1,206.3c0,0,8.7-2.3,13.8-5.6 M229.9,223.3c0,0,6.7-2.6,9.9-9.6
		 M246.2,229.6c0,0,5.2-4.6,5.5-9.8 M265.5,233.6c0,0-1.9-1.7-0.6-8.9 M263,214c0,0-1-2.1-0.7-5.4 M226.6,110.2
		c0,0,11.7,4.7,15.5,11.1c3.9,6.4,1.3,12.7,0,16.3c-0.7,1.8-8.9,17.6,0.8,29.1 M226.7,179.1c0,0,0.1-0.1,4.2-1.3 M202.1,162.3
		c0,0,7,1.4,13.8,1.5 M192.5,145.2c0,0,8.2,0.8,15.8,0.7"/>
	<path style="fill:#369443;stroke:#010002;stroke-width:3;stroke-miterlimit:10;" d="M222.9,349.2c0,0-0.2-7.1,8.7-7.6l26.5,36.8
		c0,0-1,2.4-13,2.1c0,0-1.3,0-1.9,1.4C242.2,384.1,222.9,349.2,222.9,349.2L222.9,349.2z"/>
	<path style="fill:none;stroke:#010002;stroke-width:3;stroke-miterlimit:10;" d="M180.4,127.3c0,0,11.8,2.3,18.1,2.5 M170.6,107.3
		c0,0,14.5,4.1,25.3,5.6 M219.9,121.4c0,0-10.4,9.7,2.1,18.7c0,0-5.2,8.2,5.2,16.7 M224.5,160.9c0,0-1.6,15.6,17.5,15.6
		c0,0-3.7,13.9,14.8,13.5c0,0,2.1,11.1,15.4,8.9"/>
	<path style="fill:none;stroke:#010002;stroke-width:3;" d="M242.9,321.1c0,0-3,0.7-9.6,0"/>
	<path style="fill:none;stroke:#010002;stroke-width:3;stroke-miterlimit:10;" d="M214.8,329.3c0,0-9.2-1.4-8.8,18.6 M220.4,333.8
		c0,0-8.3-1.1-7.8,18.4"/>
	<path style="fill:none;stroke:#010002;stroke-width:3;" d="M300.8,287c0,0-4,0.8-6.8,4c-2.8,3.2-8.1,2.6-8.1,2.6s2.9-2.3,3.9-8.2
		c1-5.8,4.2-7.6,4.2-7.6 M284.5,272.3c0,0-4,0.8-6.8,4c-2.8,3.2-8.1,2.6-8.1,2.6s2.9-2.3,3.9-8.2s4.2-7.6,4.2-7.6 M281.8,295
		c0,0-3.5,0.7-5.9,3.5c-2.4,2.8-7.1,2.2-7.1,2.2s2.5-2,3.4-7.1c0.9-5.1,3.7-6.6,3.7-6.6"/>
	<path style="fill:#162667;stroke:#010002;stroke-width:3;stroke-miterlimit:10;" d="M443.8,134.6c0,0-40.9,21.4-83.6-1.8
		c-42.7,23.2-83.6,1.8-83.6,1.8v62.1h167.2V134.6L443.8,134.6z"/>
	<path style="fill:#0081C6;stroke:#010002;stroke-width:3;stroke-miterlimit:10;" d="M68.4,295.7c4.1-1.7,7-3.3,7-7.6
		c0-1-0.6-3.3-1.7-6.8l-27.2-83.1c-1.6-4.9-2.8-7.9-3.4-9c-1.2-2.3-3.6-3.3-6.9-4.6h34.6c-3.8,1.8-7.2,3.2-7.1,7.2
		c0,1.5,0.4,3.7,1.3,6.4l20.8,65.2l20.8-65.2c0.9-2.8,1.3-4.9,1.3-6.4c0-4.1-3.6-5.6-7.1-7.2h33.5c-3.1,1.2-5.6,2.2-6.8,4.6
		c-0.6,1.1-1.8,4-3.4,9l-27.2,83.1c-1.2,3.5-1.6,5.8-1.7,6.9c0,0-1.3,5.3,7,7.5L68.4,295.7L68.4,295.7L68.4,295.7z M648.2,287.1V193
		c0-1.6-0.3-2.9-0.8-3.7c-0.5-0.9-2.9-3.4-6.2-4.7h31.2c-3.3,1.1-5.7,3.8-6.2,4.7c-0.5,0.9-0.8,2.2-0.8,3.8v94.1
		c0,1.7,0.3,3,0.8,3.9c0.6,0.9,2.8,3.1,6.2,4.7h-31.2c3.3-1.5,5.7-3.9,6.2-4.7C647.9,290.1,648.2,288.8,648.2,287.1z"/>
</g>
</svg>
