<?xml version="1.0" encoding="utf-8"?>
<!-- Generator: Adobe Illustrator 25.2.1, SVG Export Plug-In . SVG Version: 6.00 Build 0)  -->
<svg version="1.1" id="Layer_1" xmlns="http://www.w3.org/2000/svg" xmlns:xlink="http://www.w3.org/1999/xlink" x="0px" y="0px"
	 viewBox="0 0 720 480" style="enable-background:new 0 0 720 480;" xml:space="preserve">
<g>
	<path style="fill:#D21034;" d="M0,0h720v240H0V0z"/>
	<path style="fill:#009543;" d="M0,240h720v240H0V240z"/>
	<path d="M0,0l419,240L0,480V0z"/>
	<path d="M0,197.1h720v85.9H0V197.1z"/>
	<path style="fill:#FDCE12;" d="M0,34.1L359.4,240L0,445.9V34.1z"/>
	<path style="fill:#FDCE12;" d="M0,227.4h720v25.3H0V227.4z"/>
	<path d="M0,62.5L309.8,240L0,417.5V62.5z"/>
	<path style="fill:#FDCE12;" d="M87.5,285.9v27.3c21.4,0,63.4-18.2,63.4-76.9s-44.8-69.6-58.2-69.6c-13.4,0-54.8,10.7-54.8,58.7
		s40.6,52.5,48.6,52.5s38-8,34.6-44c0,10.2-10.4,31.8-32.2,31.8c-21.8,0-35.4-18-35.4-35.8c0-17.8,13.2-41.6,36.2-41.6
		s39.8,22.7,39.8,45.6C129.5,256.8,113.3,285.9,87.5,285.9L87.5,285.9z"/>
	<g id="a">
		<path style="fill:#FDCE12;stroke:#FDCE12;" d="M68.8,250.3l1.3,0.9c0,0,10.1-25.7,37.4-43.9C104,209.4,85.7,219.5,68.8,250.3z"/>
		<path style="fill:#FDCE12;" d="M71.4,245.9c0,0-3.2-7.2-0.4-10.3c2.8-3.2,1.5,8.4,1.5,8.4l1.2-1.9c0,0-1.9-8.8,0.2-10.6
			c2.1-1.8,1.1,8.4,1.1,8.4l1.3-1.8c0,0-1.4-8.5,0.7-10.1c2-1.6,0.8,8,0.8,8l1.5-1.9c0,0-1.1-8.1,1.4-10c2.5-1.9,0.3,7.7,0.3,7.7
			l1.7-2c0,0-0.8-7.4,1.4-9.1c2.1-1.7,0.3,7,0.3,7l1.5-1.8c0,0-0.5-6.9,1.6-8.5c2-1.6,0.2,6.6,0.2,6.6l1.6-1.7c0,0-0.4-6.9,2.2-8.3
			c2.6-1.3-0.5,6.5-0.5,6.5l1.7-1.7c0,0,0.5-8.1,2.7-8.8c2.2-0.8-1,7.2-1,7.2l1.6-1.4c0,0,0.8-6.9,3.2-7.8c2.4-0.8-1.5,6.3-1.5,6.3
			L99,213c0,0,1.7-6.9,4-7.7c2.3-0.8-2.3,6.5-2.3,6.5l1.5-1.2c0,0,2.5-6.3,4.5-6.7c2-0.4-2.3,5.2-2.3,5.2l1.9-1.3
			c0,0,3.2-6.5,4.4-4.5c1.1,2-4.5,4.9-4.5,4.9l-1.9,1.2c0,0,6.8-3.6,7.7-1.8c0.8,1.8-9.4,3-9.4,3l-1.7,1.3c0,0,6.8-2.1,6-0.2
			c-0.8,1.9-7.6,1.5-7.6,1.5l-1.6,1.3c0,0,6.8-1.8,5.9-0.1c-0.9,1.8-7.6,1.6-7.6,1.6l-1.7,1.5c0,0,6.7-1.9,5.7,0.3
			c-1,2.3-8.6,2.2-8.6,2.2l-1.9,1.9c0,0,7.1-2.7,6.5-0.6c-0.6,2.1-8.6,3.2-8.6,3.2l-1.8,2c0,0,7.6-2.8,5.3-0.3
			c-2.3,2.6-7.7,3.3-7.7,3.3l-2.2,2.9c0,0,7.5-5,6.5-2.2c-1.1,2.8-8.4,4.8-8.4,4.8l-1.5,2c0,0,6.8-4.3,6.1-1.9c-0.7,2.4-7.9,5-7.9,5
			l-1.2,1.8c0,0,8-5.3,7.3-2.6c-0.7,2.7-8.3,4.6-8.3,4.6l-1,1.7c0,0,7.4-4.7,7.4-2.4c0.1,2.3-8.6,4.5-8.6,4.5L71.4,245.9L71.4,245.9
			z"/>
	</g>
	<g transform="matrix(-1 0 0 1 238.5 0)">
		<g id="a_1_">
			<path style="fill:#FDCE12;stroke:#FDCE12;" d="M112,250.3l-1.3,0.9c0,0-10.1-25.7-37.4-43.9C76.8,209.4,95,219.5,112,250.3z"/>
			<path style="fill:#FDCE12;" d="M109.4,245.9c0,0,3.2-7.2,0.4-10.3c-2.8-3.2-1.5,8.4-1.5,8.4l-1.2-1.9c0,0,1.9-8.8-0.2-10.6
				c-2.1-1.8-1.1,8.4-1.1,8.4l-1.3-1.8c0,0,1.4-8.5-0.7-10.1c-2-1.6-0.8,8-0.8,8l-1.5-1.9c0,0,1.1-8.1-1.4-10
				c-2.5-1.9-0.3,7.7-0.3,7.7l-1.7-2c0,0,0.8-7.4-1.4-9.1c-2.1-1.7-0.3,7-0.3,7l-1.5-1.8c0,0,0.5-6.9-1.6-8.5
				c-2-1.6-0.2,6.6-0.2,6.6l-1.6-1.7c0,0,0.4-6.9-2.2-8.3c-2.6-1.3,0.5,6.5,0.5,6.5l-1.7-1.7c0,0-0.5-8.1-2.7-8.8
				c-2.2-0.8,1,7.2,1,7.2l-1.6-1.4c0,0-0.8-6.9-3.2-7.8c-2.4-0.8,1.5,6.3,1.5,6.3l-1.6-1.3c0,0-1.7-6.9-4-7.7
				c-2.3-0.8,2.3,6.5,2.3,6.5l-1.5-1.2c0,0-2.5-6.3-4.5-6.7c-2-0.4,2.3,5.2,2.3,5.2l-1.9-1.3c0,0-3.2-6.5-4.4-4.5
				c-1.1,2,4.5,4.9,4.5,4.9l1.9,1.2c0,0-6.8-3.6-7.7-1.8c-0.8,1.8,9.4,3,9.4,3l1.7,1.3c0,0-6.8-2.1-6-0.2c0.8,1.9,7.6,1.5,7.6,1.5
				l1.6,1.3c0,0-6.8-1.8-5.9-0.1c0.9,1.8,7.6,1.6,7.6,1.6l1.7,1.5c0,0-6.7-1.9-5.7,0.3c1,2.3,8.6,2.2,8.6,2.2l1.9,1.9
				c0,0-7.1-2.7-6.5-0.6c0.6,2.1,8.6,3.2,8.6,3.2l1.8,2c0,0-7.6-2.8-5.3-0.3c2.3,2.6,7.7,3.3,7.7,3.3l2.2,2.9c0,0-7.5-5-6.5-2.2
				c1.1,2.8,8.4,4.8,8.4,4.8l1.5,2c0,0-6.8-4.3-6.1-1.9c0.7,2.4,7.9,5,7.9,5l1.2,1.8c0,0-8-5.3-7.3-2.6c0.7,2.7,8.3,4.6,8.3,4.6
				l1,1.7c0,0-7.4-4.7-7.4-2.4c-0.1,2.3,8.6,4.5,8.6,4.5L109.4,245.9L109.4,245.9z"/>
		</g>
	</g>
</g>
</svg>
