<?xml version="1.0" encoding="utf-8"?>
<!-- Generator: Adobe Illustrator 25.2.1, SVG Export Plug-In . SVG Version: 6.00 Build 0)  -->
<svg version="1.1" id="Layer_1" xmlns="http://www.w3.org/2000/svg" xmlns:xlink="http://www.w3.org/1999/xlink" x="0px" y="0px"
	 viewBox="0 0 720 480" style="enable-background:new 0 0 720 480;" xml:space="preserve">
<g>
	<path style="fill:#244AA5;" d="M0,0h720v480H0V0z"/>
	<path style="fill:#D0A650;" d="M363.9,152.1c3,3.3,5,6.6,5,10.5c-2.5,1.2-6,1.6-8,3.8c12.6-1.6,15.1,11.9,29.1,6.8
		c0.5,1.9,2.5,3.5,5,2.8l1.5-3.7c5.5-1.4,4,7,10.1,5.4c3,2.3,1,6.3,3,9.1c0,3.3,1.5,6.1,3,8.9c1.5-1.6,2.5-4,6-3.3
		c2.5,2.6,4.5,4.9,5,7.7c-1,5.4-2.5,10.1,3.5,12.9v1.6c4,1.6,13.1-1.6,13.1,4.9c-0.5,2.3,2.5,0.2,3.5,1.6c2.5-0.9,6-0.5,9-0.5
		c2.5,4.9-3,8.4-4.5,12.9c2.5,2.3,1.5,6.6,1,9.4l-1.5,0.7c4,0.7,9-0.5,12.6,1.7l6.5,2.3c3-1.6,6.5-1.9,10.5-1.6c3,2.1-1,5.6,1.5,7.3
		c3.5,0,6.5,0.5,7,3.3l0.5,0.9c2.5-4.2,9.5-1.4,12.6-4.4c5,0,6,5.1,8.5,8c1,7.3-8.5,10.6-5.5,17.8c-2,3.5-6,6.3-9,9.6
		c1,0.5,0.5,1.6,0.5,2.3c-3,1.7-0.5,6.6-4.5,7c-0.5,3.1-6.5,1.9-4.5,5.2c4,4.9-2,8-2,12.4c-2.5,2.6-7.6-2.4-7.6,2.6
		c-3,0.7-6-2.6-8,0.2c-1,3.3,2,4.4,1.5,7.7c5-0.5,6.5,4.2,8.5,7l5,4.7c-5,3.7-11.6-0.5-17.6,1.6c-1.5-0.7,0-2.6-1.5-3.3
		c-1.5-1.7-4.5-1.7-7-2.1c0.5,2.1-4,2.8-2,5.4c0,0.7,1,2.8-1,2.8c-4,1.2-3.5-3.3-7-1.6c-4.5,1.6-1,8-7.5,7.3c1,5.6-10,9.4-2.5,14.3
		c1,0.9,0.5,2.8,0.5,4.2c-4.5,3.8-12.5,2.4-17.6,1c-4-1-1.5-5.6-3-8.2c-1.5-2.4-6-4-6-7.3c-3-1.2-5.5-1.9-7.6-4.2
		c-7,6.3-15.6,12.4-25.6,12.6c-4.5,2.1-7,10.6-14.1,7.1c-2.8,4.2-11.1,0-11.6,6.1c-3.3,1.2-1.8,5.2-3.8,7c-0.8,4.7,0,8.7,4.3,11.5
		c1.8,3.5-3.8,3.5-1.5,6.8c0.5,1.2,0,2.8-0.8,3.3c-1.5,0.7-2,1.4-1.5,2.8c-1.3,0-1.8,0.7-2.8,1.6c-1.3,2.3-5.3,3.5-8,5.1
		c-2.8,0.7-4.8-1.2-6.5-2.8c-0.5,2.6-2.8,4-5.5,4c-4,0-3.3-3.3-6.3-4.7c1.3-4.2-2.8-6.1-1.5-9.8c3.3-2.3,8.8-4,7.3-8.9
		c-3.5-4-2.3-9.8-5.8-14.5c-2.3-1.9-6-4.7-4.8-9.1c3.3-3.5,0-7.7-1.8-11.5c-0.8-3.1-2.8-5.9-2.8-9.4c-5.5-3-5.8-11-13.6-11.7
		c-5.5,0-6.5-6.6-12-6.1c-0.5-0.9-1.8-1.6-2.8-2.6c-4,2.6-9-0.7-14.1,0.5c-3.3-5.1,2.8-12.2-6-15.2v-3.3c1,0.5,1.5-0.5,1.8-1
		c0.5-3.5-6.3-4-3.5-8c-1.5-1.2-3.3-1.7-2.3-4c-3.8-7.3-15.1-6.6-17.6-13.8c2-1.6,2-3.3,2.8-4.7c-1.8-2.8-2.3-5.8-1.8-8.9
		c1.8-0.5,2.8-2.6,3.8-4.2c-2.3-1.4-5-3.5-7.5-2.8c-4.5-0.7-7.8-4-11.8-5.8c-1-0.9-0.5-2.6-0.5-3.7c5.5-1.7-0.8-8.9,6-8
		c1.8-2.1,5.5-2.8,8.3-4.5c2.8-0.5,5,0.5,7.8,1.2c2.3,2.8,6.3,1.6,8.5,4c2.3-0.5,5-1.6,7.8-0.5c0-4,2-6.3,5-9.1
		c0.5-1.6,3.3-2.8,5.5-3.7c4.3,0.9,9.3,0.9,12.3-1.9c2,1.2,3.8-1.2,6-1.2c2.8-0.5,5,0.2,7,1.4c0.2-4.7,9-0.7,10.8-6.3
		c2-3.8-5.5-5.2-5-8.4c-1.3-3.8,1.8-5.6,3.3-8.2c1.8-0.7,3.8-1.6,6-1.2c5.8-1.9,1.3-12.9,10.6-8.9c0,1.2-0.5,2.6,0.2,2.8
		c3.3,0,3.8-3.5,6-4.7c1-3.3-1.3-7.3,1.7-9.8c1.5-0.2,2.8-0.7,3.8-1.9c0-2.6-1.5-4-3.8-5.6c-0.8,1.2-2.8,0.2-4,0.7
		c0-2.8-1.8-4.7-2.3-7.3c-1.5-0.7-2.3-1.9-1.7-3.5c2.3-2.1,0-7.3,5.3-6.1c2-1.6,5.5-0.5,7.5-3.3c5.3-2.8,12.3-2.8,16.3-8
		c1.8,0.2,3.8-1.4,5.5,0C359.1,150.5,363.9,149.3,363.9,152.1"/>
	<path style="fill:#FFFFFF;" d="M402.8,88.6l-6.9-19.9L389,88.6h-22.5l18.2,12.3l-6.9,19.9l18.1-12.3l18.2,12.3l-6.9-19.9l18.2-12.3
		H402.8z M473.4,100.2l-6.9-19.8l-6.9,19.8h-22.5l18.2,12.3l-6.9,19.9l18.1-12.3l18.2,12.3l-6.9-19.9l18.2-12.3L473.4,100.2z
		 M540.8,123l-6.9-19.8L527,123h-22.5l18.2,12.3l-6.9,19.9l18.2-12.3l18.1,12.3l-6.9-19.9l18.2-12.3H540.8z M331,88.6l-6.9-19.9
		l-6.9,19.9h-22.5l18.2,12.3l-6.9,19.9l18.2-12.3l18.1,12.3l-6.9-19.9l18.2-12.3L331,88.6z M260.4,100.2l-6.9-19.8l-6.9,19.8h-22.5
		l18.2,12.3l-6.9,19.9l18.2-12.3l18.1,12.3l-6.9-19.9l18.2-12.3H260.4z M193,123l-6.9-19.8l-6.9,19.8h-22.5l18.2,12.3l-6.9,19.9
		l18.1-12.3l18.2,12.3l-6.9-19.9l18.2-12.3H193z"/>
</g>
</svg>
