<?xml version="1.0" encoding="utf-8"?>
<!-- Generator: Adobe Illustrator 25.2.1, SVG Export Plug-In . SVG Version: 6.00 Build 0)  -->
<svg version="1.1" id="Layer_1" xmlns="http://www.w3.org/2000/svg" xmlns:xlink="http://www.w3.org/1999/xlink" x="0px" y="0px"
	 viewBox="0 0 720 480" style="enable-background:new 0 0 720 480;" xml:space="preserve">
<g>
	<g>
		<defs>
			<rect id="SVGID_1_" x="1.2" y="2.3" width="718.8" height="480.4"/>
		</defs>
		<clipPath id="SVGID_2_">
			<use xlink:href="#SVGID_1_"  style="overflow:visible;"/>
		</clipPath>
		<path style="clip-path:url(#SVGID_2_);fill:#001489;" d="M1.2,179.9v480.4H720V179.9H1.2z"/>
		<path style="clip-path:url(#SVGID_2_);fill:#E03C31;" d="M1.2,2.3v240.2H720V2.3H1.2z"/>
	</g>
	<g>
		<g>
			<g>
				<polygon style="fill:#FFFFFF;" points="45.5,549.3 -43.2,416 216.6,242.5 -43.2,68.9 45.5,-64.3 384.8,162.5 720,162.5 
					720,322.6 384.8,322.6 				"/>
			</g>
		</g>
	</g>
	<g>
		<defs>
			<polyline id="SVGID_3_" points="1.2,2.3 360.6,242.5 1.2,482.7 			"/>
		</defs>
		<clipPath id="SVGID_4_">
			<use xlink:href="#SVGID_3_"  style="overflow:visible;"/>
		</clipPath>
		<g style="clip-path:url(#SVGID_4_);">
			<g>
				<path id="b_1_" d="M1.2,2.3l359.4,240.2L1.2,482.7"/>
				<polygon style="fill:#FFB81C;" points="45.5,549.3 -43.1,416.1 216.6,242.5 -43.1,68.9 45.5,-64.3 504.6,242.5 				"/>
			</g>
		</g>
	</g>
	<g>
		<polygon style="fill:#007749;" points="27.8,520.4 -25.4,440.5 274.2,240.3 -25.4,40 27.8,-39.9 375.1,192.2 720,192.2 720,288.3 
			375.1,288.3 		"/>
	</g>
</g>
</svg>
