<?xml version="1.0" encoding="utf-8"?>
<!-- Generator: Adobe Illustrator 25.2.1, SVG Export Plug-In . SVG Version: 6.00 Build 0)  -->
<svg version="1.1" id="Layer_1" xmlns="http://www.w3.org/2000/svg" xmlns:xlink="http://www.w3.org/1999/xlink" x="0px" y="0px"
	 viewBox="0 0 720 480" style="enable-background:new 0 0 720 480;" xml:space="preserve">
<g>
	<path style="fill:#198A00;" d="M0,0h720v480H0V0z"/>
	<path style="fill:#DE2010;" d="M462.9,171.4h171.4V480H462.9V171.4z"/>
	<path style="fill:#EF7D00;" d="M548.6,171.4H720V480H548.6V171.4z"/>
	<path d="M548.6,171.4h85.7V480h-85.7V171.4z"/>
	<g>
		<path style="fill:#EF7D00;stroke:#000000;stroke-width:2.25;stroke-linecap:round;stroke-linejoin:round;" d="M657.1,57.7
			c0,0,29.5-11.6,32.3-13.9c1.3,1.4-11.8,16-37.3,21.3c23.1-5,42.9-20.7,46.9-20.3c1.2,0.2,0.9,15.4-52.1,28.5
			c36.6-8.8,57.9-25,57.7-23.2c0.3,0.4-3.6,12.7-35.7,22.4c9-1.9,33.3-15.5,33-12.9c0.8,1.1-23.5,29.7-67.4,20.4
			c35.1,8.3,57.8-11.8,61-11.4c0.6,0.1-6.5,17.6-50.7,18.7c21.2-2,15.1-0.1,15.1-0.1s-12.5,8.9-27.5,2.9c11.8,3,13.1,3.1,13.4,4.1
			c-0.8,1.2-10.5,3-19.9-1.7c7.5,2.9,14.3,3.3,14.4,4.4c-0.1,0.4-4.9,2.9-9.2,1.1c-4.3-1.8-43.8-24.1-43.8-24.1l67.3-16.9
			L657.1,57.7z M578,118c-5.9,0-6.1,4.8-6.1,4.8s-0.5,0.3-0.2,2.7c1-1.6,1.5-2.1,1.5-2.1c0.7,0.1,3.4,0.8,7.7-2.2
			c-3.9,3.7-1.6,5.1-1.6,5.1s-0.9,2.9,2.1,3.5c-0.9-1.2-0.4-2.2-0.4-2.2s4.2-0.4,3.9-5.1c0.2,4.2,2.7,5.3,2.7,5.3s0,2.3,2.7,2.5
			c-1.5-1.2-1.1-3-1.1-3s3.5-2.3,0.5-6.3c1.8-0.9,3.3-3.6,3.3-3.6s-2.4-0.9-3.6-1.7c-0.5-1-0.1-6.8-0.1-6.8l-1.5-7.4l-4.2,11.6
			C583.8,111.4,583.9,118,578,118L578,118z"/>
		<path style="fill:#EF7D00;stroke:#000000;stroke-width:2.25;stroke-linecap:round;stroke-linejoin:round;" d="M607.2,101.3
			c0.1,0.1,4.4,4.5,8.6,4.3c1.6-1.2-3.2-3.8-3.2-4.4c1.7,1.4,8.8,7,13.4,5c1.8-2.4-3.2-2-8.8-8.5c3.9,2.4,13.6,7.6,18.2,5.6
			c1.9-1.9-10.1-7.9-14.2-12.5L610.7,86l-14.2,10.6L607.2,101.3z M591.2,65.1c0,0,4.8-2.6,24-1.3c2.1,0.2,13.1-3.5,16.6-4.5
			c5.6-1,23.4-4.5,28.2-7.9c3.4-0.4-0.9,5.7-5.2,7.1c-4.5,1.9-21,7.1-26.9,6.4c7,0.1,3.1,5.4-8.6,2.9c5.6,2.9,3.5,3.3,3.5,3.3
			s-9.9,0.5-12.5-1.5c6.6,2.3,3.9,3.1,3.9,3.1s-6.8,0.6-9.9-0.7c4.8,1.3,2.3,2.1,2.3,2.1s-3.9,0.6-7.1-0.5
			C596.4,72.6,591.5,65.1,591.2,65.1L591.2,65.1z M598.9,103.8l0.7,11.7c0,0-0.4,0.6-0.7,0.9c-0.3,0.3-9-1.2-7.8,4.8
			c0,2.5,0.1,3.1,1.9,4.5c-0.5-1.6-0.3-2.8-0.3-2.8s2.4,1.3,4.8-2.3c-1.6,3.6-0.5,4.9-0.1,5c0.4,0.6-0.7,3.6,2.6,3.5
			c-1.2-1.1-0.7-2.7-0.7-2.7s3.4-0.5,2.2-6.2c1.2-1.1,1.7,0,1.7,0s0.4,3.4,3.4,2.7c1.4,0.7-0.2,2.5-0.2,2.5s2.2,0.1,2.8-1.6
			c0.7-1.7,1.4-4.7-2.2-6c-0.4-1.2,1.4-1.3,1.4-1.3s2.3,0.7,2.9,1.7c0.7,1,0.4-2.7-2.4-3.1c-3.5-0.1-3.7-0.7-3.7-0.9
			c0-0.1-0.6-8.5-0.9-10.9L598.9,103.8z"/>
		<path style="fill:#EF7D00;stroke:#000000;stroke-width:2.25;stroke-linecap:round;stroke-linejoin:round;" d="M611,113.7
			c0-0.5-5.9-7.9-4.4-8.9c1.5,0.3,4,3.6,6,2.6c-0.6-1.3-2.4-0.6-4.4-3.9c-2-3.8-2.3-9.5-9.5-15.7c4.6,6.6,15.1,10.4,15.6,8.5
			c0.4-1.9-9.2-9.1-8.7-10.9c1.9,3.6,11.6,11.5,18.8,10.9c0.5-1.5-5.9-4.6-7.5-7.5c-4.6-2.8-16.8-12.5-17.1-14.7
			c-4.5-6-7.2-7.8-8.5-8.5c-0.5-0.5-0.6-1.1-0.7-1.4c-2.8-6,0.9-7.9,3-8.2c1.8-0.2,2.3,0.1,3.5-0.5c-1.5-0.5-3-1-4.5-1.6
			c2,1.3,7,0.2,5.9,4c2.2-0.8,6.9-5.9-5.3-7c-4-4.2-20.2-6.6-24.3,11.6c0.3,0.3,0.5,0.5,1.5,1.2c-5.1-2.3-19-4-24-4.8
			c-13.5-3.6-27.5-12.2-28.9-11.1c-1.8,0.7,8.2,9.2,7.6,9.4c-8.6-4.6-16.5-7.9-23.9-10.9c-5.2-1.8-10.3-5.9-10.9-5.1
			c-1.9,3.6,8.3,12.7,10.2,13.8c1.9,1,16.8,7.4,16.6,7.4c-22.4-9.3-26.2-11-27.3-12.1c-2-0.4-6.8-6.4-8.1-6
			c-0.7,0.7,0.7,10.1,11.4,14.3c1.7,1.2,22.9,8.1,22.7,8.7c-0.1,0.1-24.3-9.2-25.2-9.5c-4.7-1.7-10.4-7.6-11.5-6.9
			c-1,0.6,2.6,7,7.4,9c2.5,1,12,5.3,20.5,8.1c0.5,0.2-15.4-5.5-23-8.5c-3.5-1.8-5.1-4-5.6-3.5c-0.8,0.5,1.3,9.9,25.8,15.2
			c0.6,0.3,8.7-1.7,8.3-1.5c-0.1,0.1-7.9,1.6-8.7,1.6c-0.7-0.1-5,0.5-5.1,0.7c-0.3,0.6,1.6,4,14.3,3.3c1.6-0.1,10.4-2.9,9.7-2.3
			c-0.4,0.3-12,3.8-12.9,3.8c-0.8,0.1-4.9,0.5-5,0.9c-0.2,0.5,3,2.9,9.8,3.3c6,0.3,17.5-3.4,17.3-3.1c-0.2,0.2-11.1,3.6-11.3,3.8
			c-0.4,0.2-4.4,0.4-4.5,0.7c-0.3,0.7,5.7,5.9,23.6,0.3c-1.8,2.2-10.5,3.7-10.4,4.1c0,0.3,1.9,2,4.9,2.6c1.5,0.3,3.6,0.2,5.5,0
			c3.4-0.6,7-1.9,11.5-5.7c0.5,1.2-11.4,6.7-10.8,7.3c2.6,2.2,11.2-0.3,11.7-0.6c0.6-0.3,16.5-8.5,16.5-9.5
			c0.2,1.2-20.6,11.6-20.4,12c1.3,2,8.5-0.1,8.8-0.3c0.3-0.2,9.1-4.5,9.3-4.6c0.2-0.1-10.3,5.6-9.3,6.5c-0.5,3.7,16.4-2.6,17.7-3.4
			c0.7-0.4-8.1,3.5-8.1,5.4c2.8,4.4,11.9,3,13.3,2c0.7-0.5-0.8,3.3-0.3,2.9c0.2-0.1,2-2,2.7-3.4c-0.2,1.2-1.2,3.2-1.8,5.4
			c-0.6,2.2-0.7,4.7-1.5,7.4c-0.2,1.2,5.6-2.3,4.7-10.5c0.5,4.3-1.8,12.3-1.2,12.7c1.2,0.8,4.5-4,4.9-7.2c1,1.6,3.1,5.1,4.9,5.9
			c-0.2-2.5,0-2.4-0.8-4.8c0.5-3.2,0.5-7.7,0.6-12.8c4.9,8.6,6.8,12.2,5.4,18.7c1.4,0.6,3.8-4.6,3.6-7.2
			C602.8,112.8,610.9,113.9,611,113.7L611,113.7z"/>
		<path style="fill:#EF7D00;stroke:#000000;stroke-width:2.25;stroke-linecap:round;stroke-linejoin:round;" d="M529.9,59.4
			c0,0-3.3,2.3-7.4,2.2c1,3.8,9.6,0.9,9.6,0.9s-4.1,4.2-7.1,4.9c1.8,1.4,9.2,0.9,10.5,0.2c1.3-0.7,3.5-3.3,3.5-3.3s-7.7,8.1-8.8,8
			c-0.1,0.9,8,0.6,9.7-0.8c1.7-1.4,6-3.5,6-3.5s-11.2,7.2-11.7,7.2c4.2,1,12.6-1.2,18-4.3c-8,4.9-8.7,5.7-12.7,7.4
			c3.6,0.7,5.4,3,17.7-1.9c7-3,11-8.6,11-8.6c-4.3,5.3-11.2,9.9-18.8,14.3c-0.4,0.8,8.1,4.1,19-6.3 M589.1,82c0,0,0.7,3.2,3.7,5.6
			c2.9,2.4,3.2,4.8,3.2,4.8 M587.6,61.3c0,0,1,2.8,4,4.7c3.1,1.8,7.7,7.6,8.1,8.6c0.4,1.2,2.1,10.1,2,11"/>
		<path style="fill:#EF7D00;stroke:#000000;stroke-width:2.25;stroke-linecap:round;stroke-linejoin:round;" d="M568.9,65.7
			c0.2,1.1-4.3,6.6,1.9,13c-5.7,6.3-5.7,7.2-5.7,7.2s3.2,1.6,8.8-2.8c9.4,10.5,6.2,15.4,6.2,15.4"/>
		<path style="fill:#EF7D00;stroke:#000000;stroke-width:2.25;stroke-linecap:round;stroke-linejoin:round;" d="M579.4,90.9
			c0,0-0.9-1.1,0.7-5.4c1.4,1.5,2.9,1.9,3.6,2.5c0.7,0.6,7.7,1.6,8.2,5.9 M587.7,51.2c0-0.3-1.4-3.1-6.7,0.4
			C583.9,51.8,586.7,53.3,587.7,51.2z M638.4,64c0.3,0.1,15.8,3.2,21,1.7c-6.6,8.1-19.9,2.6-19.9,2.6c6.5,1.8,6.8,1.7,8.8,3.3
			c0.6,1.5-11.9,0.8-16.1-1.3c11.6,3.3,11.8,3.1,12.2,4.4c0.5,1.8-19-0.5-20.7-2.9c5.2,3.7,8.1,4.4,10.9,6.1c-3.5,1.4-10,2.9-22-4.9
			c15.7,13.1,29.9,12.3,32.1,14.7c-5.5,7.4-26.6-4.4-36.4-10.4c-9.7-6,21.3,14.4,24.2,14.1c-1.4,2-11.7,0.2-12.3-0.7 M642.4,77.7
			c-1.8,0.2-7.3,0.2-8.1,0.1 M525.3,57.3c0,0,11.9,5.7,16.9,5.3c-1.3,1.1-3.3,1.6-3.3,1.6c1.3,0.5,4.7,2.2,9.9,1.1
			c-1.3,1.1-2.9,2.4-2.9,2.4s4.5,1.6,9.6-0.9c-1.5,1.8-2.4,3-2.4,3l3.5,0.2"/>
	</g>
</g>
</svg>
