<?xml version="1.0" encoding="utf-8"?>
<!-- Generator: Adobe Illustrator 25.2.1, SVG Export Plug-In . SVG Version: 6.00 Build 0)  -->
<svg version="1.1" id="Layer_1" xmlns="http://www.w3.org/2000/svg" xmlns:xlink="http://www.w3.org/1999/xlink" x="0px" y="0px"
	 viewBox="0 0 720 480" style="enable-background:new 0 0 720 480;" xml:space="preserve">
<g>
	<path style="fill:#FFFFFF;" d="M0,0h720v480H0V0z"/>
	<path d="M0,0h720v240H0V0z"/>
	<polygon style="fill:#FCD116;" points="436.8,172.6 504.6,127.9 425.1,144.3 470.7,77.1 403.5,122.8 419.9,43.2 375.3,111.1 
		360,31.3 344.7,111.1 300.1,43.2 316.5,122.8 249.3,77.1 294.9,144.3 215.4,127.9 283.2,172.6 203.5,187.8 360,217.8 516.5,187.8 	
		"/>
	<path style="fill:#0072C6;" d="M0,187.8h720v104.3H0V187.8z"/>
	<path style="fill:#CE1126;" d="M0,0v480h720V0L360,480L0,0z"/>
</g>
</svg>
