<?xml version="1.0" encoding="utf-8"?>
<!-- Generator: Adobe Illustrator 25.2.1, SVG Export Plug-In . SVG Version: 6.00 Build 0)  -->
<svg version="1.1" id="Layer_1" xmlns="http://www.w3.org/2000/svg" xmlns:xlink="http://www.w3.org/1999/xlink" x="0px" y="0px"
	 viewBox="0 0 720 480" style="enable-background:new 0 0 720 480;" xml:space="preserve">
<g>
	<path style="fill:#FF0000;" d="M720,0H0v480h720V0z"/>
	<path style="fill-rule:evenodd;clip-rule:evenodd;" d="M379.5,362.7c-4.5-3.7-10-11.1-9.9-18.2c0.4-5.3,4.3-8.4,6.8-1.9
		c3.6,7.2,11.2,19,21.8,12.1c4.6-3.2,4.5-7.8-1.8-7.3c-7.8-0.5-12.6-4.5-16.1-14.8c-0.6-5.7,1.9-5.5,5.4-1.9
		c4.5,4.9,13.6,12.2,23.5,8.3c5.5-2.2,7.1-6.6-1.3-7.7c-7.9,0.1-14.4-4.7-20.8-12c-3.5-4,1.7-8.1,4.8-4.7c2.8,2.2,6.7,6.4,10,6.9
		c3.9,0.7,8.7,0.4,14-2.3c5.7-4.5,3.9-7.7-3.1-8.4c-5.4,0.2-8.3,2.2-15.3-2.2c-12.5-7.9-22.4-18.4-24-31.1c-1-8.3,3.8-10.9,7.8-9.9
		c10.9,2.6,18,21.5,25.5,32c2.5,3,4.7,3,6.3,2.1c3-2.4,5.4-4.4,8.4-7.1c0,0,22.1,3.7,34.1,7.4l-13.4,4.4c-5.1-2.6-11.2,0.2-11.2,4.7
		c-4.8,3.1-4.4,6.7-2.3,10.2c0.6-2.4,1.2-5.6,5-6c5.4,2.1,11.7-0.9,11.7-4.8l15.8-5.8l16,8.4c0,5.7,5.8,7.5,11.8,6
		c2.8,1.6,4.7,4.5,5.6,7.6c1.8-4.4,1.4-7.5-1.4-9.7c1.6-5.7-7-11.2-13.6-7.5l-11.5-6.2l19.7-0.5c2.3,3.8,10.5,4,12.9,0
		c2.1-0.5,3.8-0.9,7.8,1.9c-1.3-4.5-3.7-6.4-7.4-6.4c-2.8-4.6-12.9-4.6-14.4,0.6l-20.5,0.5l12.2-8.1c4.5,2.5,10.9-0.3,12.2-4.8
		c1.8-2,4-2.9,8.4-1.6c-2.3-3.7-5.5-4.9-11.2-2.3c-5.3-3.7-12.2,0.8-11.1,4.5l-16.2,10.3c-11.7-3.3-33-8.4-33-8.4
		c2.5-2.5,5.1-4.8,7.6-7.3c0.9-1.5-0.5-3.2-2.4-3.6c-19-3.7-29.8-10.8-36.4-28.9c-2.8-7.6,3.2-9.9,5.2-5.2c2.8,6.5,5.9,13.5,14.5,19
		c2.9,1.9,11.7,0.4,6.5-4.2c-5.4-4.1-7.7-5.9-10.3-15.9c0-5.1,5.5-7.3,8.6-2.5c3.3,10,3.6,14.3,9.6,20.7c4.5,4.9,10.4,8.1,13.4,8.1
		c5.3-0.1,10.6-5.4,3.5-9.3c-10.4-3.9-14.2-9.2-15.7-14.2c-1.7-8.8,0.2-13.1,5.8-8.7c8.1,8.6,23.5,24.5,31.5,31.9
		c9,6.5,19.4,6.7,27.7,0.1c4.7-5.1,3-10.5-4.4-9.4c-16.7,1.3-29.3-6.4-43.2-27.3c-2.7-4.7-3.5-11.5,2.5-6.5
		c6.9,8.7,17,16.2,26.4,19.3c9.4,3.2,17.2,1.4,20.2-1.3c3.6-3.4,2.7-11.9-3.6-9.9c-5.2,1.7-12.5,2.1-20-0.6
		c-7.6-2.8-15.5-8.7-23.8-18.8c-2.9-5.7-1.9-10.5,3.9-7.6c13.7,10.9,31.4,19.7,40.5,14.4c6.7-3.9,6.8-13.8-1.7-13.2
		c-17,2.2-23.4-1.3-39.8-14.8c-3.7-2.6-3.5-9.2,2.5-5c13.7,8.3,32.5,11.5,39.8,7.2c6.6-3.9,5.7-15.7-5.5-11.5
		c-8.9,5.1-18.8,4.9-38.5-8.2c-5-3.9-1.3-8.9,2.8-6.7c15.9,8.4,39,12.1,45-5.1c2.3-6.6-1.9-10.4-8.1-5.9c-13.6,11.8-29.1,6-37.8,0.1
		c-2.5-1.4-7-8.3,1-7c20.7,4.4,41.1,0.6,44.9-13.1c2.2-4.4-2.1-12.3-9.6-5.7c-9.9,9.2-20.5,9.5-33.7,9.4c-6.7-1.3-6.8-8.2-1.2-9.3
		c10.4,0.2,20.8-4.1,29-8.4c8.1-4.3,14.8-10.4,16.9-18.8c1.3-7.5-6.5-15.5-11.2-7.5c-6.9,11.7-22.2,22.7-39.3,24.7
		c-0.9-1.4-3.1-4.9-5.9-3.9c-5,1.8-11,4.2-17.1,7c-13.2,5.9-18.7,8.7-17.2,18.8c1.7,10.6-7.1,17.2-14.3,15.4
		c-6.3-1.6-9.8-6.9-8.6-16.1c0.9-7.3,8.8-16.2,17.7-20.8c5.7-3,14.4-4.6,24.9-6.8c6.4-1.2,9.6-3.5,10-5.9c0,0-4.3,3-11.3,2.5
		c-3.3-0.2-5.5-1.6-6.3-2.9c2.4-0.5,6.8,0.1,10.7,0.1c5.2,0,17.4-1.1,20.6-8c1-4.5-2.2-5.4-5.2-2.5c-3.2,3.1-4.5,6-10.9,7
		c-3.9,0.6-7.8,1.4-12.8,0.3c2.8-3.1,7.3-6.3,11.2-5.8c1.3,0.2,2.9,1.3,4.3,3.2c0.8-5-0.6-10.6-14.9-8.2c0.2-3.8-8.3-5.4-13.3-5.3
		c-2.9,0.1-8.8,1.7-13.1,3.6c-6.8,2-13.5,3.4-21.4,3.9c4.6,3.7,5.4,3.9,10,7c-6.9,2.4-12.3,7.4-14.7,10.6c0,0,8.1-0.2,10.1,0.6
		c-8.4,2.3-12.2,3.7-16.7,7.9c1.6,0.2,3.9,0.7,4.9,1c1,0.4,0.8,1-0.1,1.6c-1.8,1.3-9.3,9.4-11.5,11.4c-2.2-2-9.7-10.1-11.5-11.4
		c-0.8-0.6-1.1-1.2-0.1-1.6s3.3-0.8,4.9-1c-4.5-4.3-8.3-5.6-16.7-7.9c2-0.9,10.1-0.6,10.1-0.6c-2.4-3.3-7.8-8.2-14.7-10.6
		c4.6-3.1,5.4-3.3,10-7c-7.9-0.5-14.6-2-21.4-3.9c-4.3-1.9-10.2-3.5-13.1-3.6c-5.1-0.1-13.6,1.6-13.3,5.3
		c-14.2-2.3-15.7,3.3-14.9,8.2c1.3-2,3-3,4.3-3.2c3.8-0.6,8.3,2.6,11.2,5.8c-5,1.1-8.9,0.4-12.8-0.2c-6.4-1.1-7.7-3.9-10.9-7
		c-3-2.9-6.2-2.1-5.2,2.5c3.2,6.9,15.4,8,20.6,8c3.9,0,8.3-0.5,10.7-0.1c-0.8,1.4-3,2.7-6.3,2.9c-7,0.4-11.3-2.5-11.3-2.5
		c0.4,2.4,3.6,4.7,10,5.9c10.4,2.2,19.1,3.8,24.9,6.8c8.9,4.6,16.8,13.5,17.7,20.8c1.1,9.2-2.3,14.5-8.6,16.1
		c-7.2,1.8-15.9-4.8-14.3-15.4c1.6-10.1-3.9-13-17.2-18.8c-6.1-2.7-12.1-5.1-17.1-7c-2.8-1-5,2.6-5.9,3.9c-17-2-32.4-13-39.3-24.7
		c-4.7-8-12.5,0-11.2,7.5c2.1,8.4,8.8,14.5,16.9,18.8c8.3,4.3,18.6,8.6,29,8.4c5.7,1,5.6,7.9-1.2,9.3c-13.2,0.1-23.8-0.2-33.7-9.4
		c-7.5-6.6-11.8,1.3-9.6,5.7c3.7,13.7,24.2,17.5,44.9,13.1c8-1.3,3.4,5.6,1,7c-8.7,5.9-24.1,11.7-37.8-0.1
		c-6.2-4.5-10.5-0.7-8.1,5.9c6,17.2,29.2,13.6,45,5.1c4.1-2.2,7.8,2.9,2.8,6.7c-19.7,13.2-29.6,13.3-38.5,8.2
		c-11.2-4.2-12.1,7.6-5.5,11.5c7.4,4.3,26.1,1.1,39.8-7.2c5.9-4.2,6.2,2.4,2.5,5c-16.3,13.5-22.8,17-39.8,14.8
		c-8.4-0.6-8.3,9.3-1.7,13.2c9,5.3,26.7-3.5,40.5-14.4c5.8-2.9,6.7,1.9,3.9,7.6c-8.4,10.1-16.3,16.1-23.8,18.8
		c-7.6,2.7-14.9,2.3-20,0.6c-6.3-2.1-7.2,6.5-3.6,9.9c3,2.8,10.8,4.5,20.2,1.3s19.5-10.6,26.4-19.3c6-5,5.2,1.7,2.5,6.5
		c-13.9,20.9-26.5,28.6-43.2,27.3c-7.4-1.2-9.1,4.3-4.4,9.4c8.3,6.6,18.6,6.4,27.7-0.1c8.1-7.4,23.5-23.4,31.5-31.9
		c5.7-4.3,7.5-0.1,5.8,8.7c-1.5,5-5.3,10.3-15.7,14.2c-7.1,3.9-1.7,9.2,3.5,9.3c2.9,0.1,8.9-3.2,13.4-8.1c6-6.4,6.3-10.7,9.6-20.7
		c3.1-4.9,8.6-2.6,8.6,2.5c-2.6,10-4.9,11.8-10.3,15.9c-5.2,4.6,3.6,6.1,6.5,4.2c8.5-5.5,11.6-12.5,14.5-19c2-4.6,8-2.4,5.2,5.2
		c-6.6,18.1-17.4,25.3-36.4,28.9c-1.9,0.4-3.3,2.1-2.4,3.6c2.5,2.5,5.1,4.8,7.6,7.3c0,0-21.3,5.1-33,8.4l-16.2-10.3
		c1.1-3.7-5.9-8.2-11.1-4.5c-5.8-2.5-8.9-1.4-11.2,2.3c4.4-1.4,6.6-0.4,8.4,1.6c1.3,4.5,7.6,7.3,12.2,4.8l12.2,8.1l-20.5-0.5
		c-1.5-5.2-11.6-5.2-14.4-0.6c-3.7,0-6.1,1.9-7.4,6.4c4-2.8,5.8-2.4,7.8-1.9c2.4,4,10.7,3.8,12.9,0l19.7,0.5l-11.5,6.2
		c-6.6-3.6-15.2,1.8-13.6,7.5c-2.8,2.2-3.2,5.3-1.4,9.7c1-3.1,2.8-5.9,5.6-7.6c6,1.5,11.8-0.3,11.8-6l16-8.4l15.8,5.8
		c0,3.9,6.3,6.9,11.7,4.8c3.8,0.4,4.3,3.6,5,6c2.1-3.5,2.5-7.1-2.3-10.2c0-4.5-6.1-7.4-11.2-4.7l-13.4-4.4c12-3.7,34.1-7.4,34.1-7.4
		c3,2.7,5.4,4.7,8.4,7.1c1.6,0.9,3.9,0.9,6.3-2.1c7.5-10.4,14.6-29.3,25.5-32c4-1,8.8,1.6,7.8,9.9c-1.6,12.7-11.5,23.2-24,31.1
		c-7,4.3-9.9,2.4-15.3,2.2c-7,0.7-8.8,4-3.1,8.4c5.3,2.6,10.1,3,14,2.3c3.3-0.6,7.3-4.7,10-6.9c3.1-3.4,8.3,0.6,4.8,4.7
		c-6.4,7.3-12.9,12.1-20.8,12c-8.4,1.1-6.8,5.6-1.3,7.7c10,3.9,19-3.4,23.5-8.3c3.5-3.7,6.1-3.8,5.4,1.9
		c-3.5,10.3-8.3,14.3-16.1,14.8c-6.3-0.5-6.4,4.1-1.8,7.3c10.6,7,18.2-4.9,21.8-12.1c2.5-6.5,6.4-3.4,6.8,1.9
		c0.1,7.1-5.4,14.5-9.9,18.2s19.5,26.9,19.5,26.9S384,366.4,379.5,362.7L379.5,362.7z M411.6,99.4c-3.7,0-6,1.2-6,2.7s2.3,2.7,6,2.7
		s6.1-1.3,6.1-2.8C417.7,100.5,415.3,99.4,411.6,99.4L411.6,99.4z M308.4,99.4c3.7,0,6,1.2,6,2.7s-2.3,2.7-6,2.7s-6.1-1.3-6.1-2.8
		C302.3,100.5,304.7,99.4,308.4,99.4L308.4,99.4z"/>
</g>
</svg>
