<?xml version="1.0" encoding="utf-8"?>
<!-- Generator: Adobe Illustrator 25.2.1, SVG Export Plug-In . SVG Version: 6.00 Build 0)  -->
<svg version="1.1" id="Layer_1" xmlns="http://www.w3.org/2000/svg" xmlns:xlink="http://www.w3.org/1999/xlink" x="0px" y="0px"
	 viewBox="0 0 720 480" style="enable-background:new 0 0 720 480;" xml:space="preserve">
<path style="fill:#FFFFFF;" d="M-140-10"/>
<path style="fill:#5A3719;" d="M-140-10"/>
<g>
	<path style="fill:#000066;" d="M0,0h720v480H0V0z"/>
	<path style="fill:#BD1021;" d="M0,240L720,0v480L0,240z"/>
	<path style="fill:#FFFFFF;" d="M77.1,240L720,25.7v428.6"/>
	<path style="fill:#FFC221;" d="M522.1,322.3c-5.2,4.1-4.3,6.3-3.8,7.6c0.5,1.3,0.5,2.5-0.9,4.4s-1.3,2.6-1.3,2.6
		c0.2,6.8,3.8,8.2,5.3,9.9c1.3,1.4,3.4,5.8,3.4,5.8c2.7,5.1,5.5,5.2,7.6,5.2s1.9-0.2,0.8-1.5c-1-1.2-3.1-3.5-3.1-3.5
		c2.8,1.3,5.5,5.2,5.5,5.2c5.3,7.8,10.2,6.7,12.4,6.4c2.2-0.4,1.8-2,1.8-2c-0.1-0.3-2.2-0.5-2.2-0.5c-8-1-10.4-8-10.4-8
		c4.8,6.3,12.4,7.6,14.7,7.5s2.2,0.8,1.7,0.9c-0.5,0.2-1.2,0-2.3-0.1s-1.1,0.2-0.8,0.8s1.3,0.7,2.5,0.6c1.3-0.1,0.2,0.1,3.5,3.5
		s11.5,0.7,11.5,0.7c-5.3-1.8-6-5-6-5c-7.2,1.1-10.2-4.6-10.2-4.6c-1.3-1.7-5.1-4.4-5.1-4.4c-4.1-2.3-4.7-7.3-4.7-7.3
		c1.1,2.2,3.4,4.7,6.2,5.7s3.6,1.6,3.6,1.6c-1.4,0.3-2.2-0.3-2.2-0.3c-2.8-1.1-1.2,0.4-1.2,0.4c3.1,3.3,4,3.1,4,3.1
		c8.2,1.1,4.1-3.2,4.1-3.2c5.8,1.8,6.8-1.1,6.8-1.1c1.2,3.4,5.6,2.2,5.6,2.2c-5.9,3.8-1.4,2.7-1.4,2.7c5.9-1.5,7.1,0.5,7.1,0.5
		c1.6,2,3.2,1.7,3.2,1.7s1.1,0,3.3,0.6c2.3,0.6,5.7,3.2,9,2.6c3.3-0.5,3.8,0.8,3.8,0.8c-0.6-0.3-2.1-0.6-4.6,0.9s-6.9,2-13.3,0
		c-6.4-2-6.9-1.8-6.9-1.8c1.5,1.5,2.9,3.6,3.2,5.1s1.4,1.6,1.4,1.6c0.5-1.9,2.4-2.7,2.4-2.7c1.3,1.6,4.6,3.6,4.6,3.6
		c0.4-1,0-1.7,0-1.7c2.5,3.1,5.3,2.2,5.3,2.2c0.8-0.7,0.5-2.5,0.5-2.5c1,0,1.1,0.8,1.8,1.4s2.9,0.2,2.9,0.2
		c-0.8-0.5-1.4-2.1-1.4-2.1c3.2-3,10.3-1.7,10.3-1.7c5.1,1.2,4.4,5.6,4.4,5.6c1,0.7,2.4,2.7,2.4,2.7c0.4-1.6,0-3.1,0-3.1
		c2.3,1.5,2.8,5.1,2.8,5.1c2.7-4.1-2.6-8.7-2.6-8.7c2.5-0.4,5.4-0.1,7.1,0.2s4.1,1.5,6.1,3.7s5.6,3.2,5.6,3.2
		c-0.1-0.9-2-2.5-2.4-2.8s-0.6-1.1-0.6-1.1c1.7,0.4,3,0.2,3,0.2c-6.1-5-7.7-7.4-7.7-7.4c2.3,0.4,3.6-1.5,3.6-1.5
		c-4.8,0.1-5-1.5-5-1.5c0.6,0.2,2.8,0.9,5.7,0.2c2.9-0.8,6.9,0,6.9,0c-2.1-4.5-10.2-3.7-12.8-3.5s-3.6-0.3-3.6-0.3
		c0.4-0.3,0.8-0.8,2.9-0.9c2,0,4,0.2,6.3-1.9s5.4-1.4,5.4-1.4c-0.8-2-4.4-2.7-7.6,0s-6,1.9-6,1.9c5.1-1,6.5-3.3,6.5-3.3
		c-1.5-0.5-2.4,0.2-5.4,1s-3.9-0.6-3.9-0.6c3.3-2.6,5.7-3.7,5.7-3.7c-2.8-0.8-5.5-2.4-5.5-2.4c-3,3.7-5.2,5.8-10.9,1.8
		s-8.6-3.5-8.6-3.5c5-3.9,10.1-2.2,13.8,0.7c3.7,3,4.8,0.5,4.8,0.5c-1.2-1-1-1.8-1-1.8c9,6.1,12.9,2.3,14.9,0.5s-0.9-4.2-0.9-4.2
		c-0.2,3.9-3.9,5.7-6.8,4.4s-5.6-3-9.7-5.3c-4.2-2.3-9.4-1.1-14.3,0.2c-4.9,1.4-5.5,0.7-5.9,0.2s-0.7-2.1-3.2-0.7s-8.3-2.3-11.9-3.4
		s-9.5-0.5-14.6,3.2s-7.6,2.8-9.2,1.9c-1.5-0.9-2.5-3.5-0.8-5.8c1.6-2.3,1.8-2.9,1.6-6.2c-0.1-3.3-2.6-5.3-2.6-5.3
		c2.2-3.1,2.8-3.8,2-5.1c-0.8-1.3,0.4-1.3,1.7-2.1c1.3-0.8,0.7-0.9,0.4-1.9s-1-0.8-1-0.8c-3,0.2-4.6-0.9-4.6-0.9
		c-4.9-3-9.5,2.9-9.5,2.9c-2.8-2.9-3.4-1-3.9-0.3s-1.5,1.2-2.8,1.4c-1.2,0.1-3,0.8-3.6,2.3c0,0-0.6,1.2,0.1,2.5c0,0,0.8,1.5-0.6,3.4
		c-1.4,1.9-1.9,2.3-1.5,4.1c0.4,1.8,0.3,3.1-0.2,4.3c0,0-0.6-1-0.5-2.2s0.2-1.9,0-2.6c0,0-1.4,1.8-1.6,3.1c0,0-0.6-2,1.4-4.6
		s2.9-4,2.3-5C523.9,320.8,522.4,322,522.1,322.3L522.1,322.3z"/>
	<path d="M527.7,351.6c0,0-2.5-2.5-2.2-6.1c0.3-3.5,0.3-4,0-4.7c0,0-0.5,0.4-0.4,1.7c0,1.3-0.1,2.6-0.2,2.9c0,0-1.3-2.9-1.8-3.5
		c0,0,0.4-3.1-0.3-4.4s-1.4-1.4-2.2-1c-1.1,0.6-2,2,1.8,6.1c0,0,1.4,1.5,2.4,4.8C525.7,350.9,527.4,351.4,527.7,351.6z M540,341.8
		c0,0-0.2-2,1.1-5.5s0.5-6.1,0.2-7s-0.5-0.5,0.9-2.1c1.7-1.9-0.6-4.2,2.1-7.5c0,0,1.8-2.1,2.2-2.9c0,0-2.9,2.1-4.8,3.1
		c-1.9,1-9.1,5.8-7.5,8.9c1.6,3.2,1.4,3.3,1.2,4.6c0,0-4.3-3-2.8-7.9c0,0,0.7-2,2.5-4.2c1.6-2,0.7,0.4,4-2.1c0,0,2.7-2.1,4-4.9
		c0,0-1.7,1.5-2.4,1.7c0,0-3.9,0.9-5.4,3.1c-1.6,2.2-4.9,6-3.7,10.2c0,0-3.9-0.6-4.7-6c0,0-7.1,11.7,7.8,17.2
		C534.8,340.6,537.5,341.6,540,341.8z"/>
	<path style="fill:#FFC221;" d="M606,302.6c5.6-1.1,38-7.7,41-8.1c3.2-0.4,4.5-1,5.5,2.5c1.2,3.9-4.4,4-4.4,4l-38.7,5.8
		c-1.9,0.3-2.3-0.7-2.3-0.7c-0.3-0.8-1-1.9-1.4-2.6C605.6,303.5,605.1,302.8,606,302.6L606,302.6z"/>
	<path style="fill:#5A3719;" d="M526.8,326.1c0,0-4.2,11.7,12.3,14.7c0,0,0-1.3,0.7-3.2c0.7-1.8,2.1-5.6,0.7-8
		c-1.4-2.4,1.1-1.1,1.5-4.3c0.4-3.2-0.2-2.7,0.9-4.7c0,0-5.2,2.5-7.1,5.5c-2,3,2.7,5.3-0.1,8.6c0,0-2.3-1.1-3.7-4.4
		C532,330.3,528.8,330.4,526.8,326.1L526.8,326.1z"/>
	<path d="M542.8,340.5c0,0,4.1,4.7,8.9,4.5c4.8-0.2,6.9-1.9,8.1-4.5c0,0,0.9,2,0.9,3.3c0,0,4.2-4.6,11.4-0.6s5,2.9,6.6,3.2
		c0,0-3.1-0.7-10.1,3.6C561.5,354.3,542.7,352.8,542.8,340.5L542.8,340.5z"/>
	<path style="fill:#5A3719;" d="M536.1,319.8c0,0,1.8,0.4,3.7-2.4C539.8,317.4,537.3,318,536.1,319.8z M522.3,341.6
		c0,0-3.4-3.6-1.2-4.3C521.1,337.3,522.6,337,522.3,341.6z"/>
	<path d="M596.2,363.9c0,0,1.8-4.3,7-4.3s5.8,3.2,12.4,3.8c0,0-7.9,3-13.4,0.2C599.4,362.2,596.8,363.4,596.2,363.9z"/>
	<path style="fill:#5A3719;" d="M544.6,343.6c0,0,7.8,6.3,14.7-0.5c0,0,0.6,0.7,1.1,2.4c0,0,5.2-6.8,14.6,0.5c0,0-1.2-0.2-5.6,2.4
		C563.7,351.7,549.3,353.9,544.6,343.6z"/>
	<path d="M574.7,350c0,0,7.5,1.2,13.8,0.7c3.9-0.3,8.1-1.3,6,0.5s-1.1,1.9,7.9,0.8c8.9-1.1-0.1,2.3,6.1,3.3
		C608.4,355.3,593.5,365.4,574.7,350z"/>
	<path style="fill:#5A3719;" d="M594.3,343.7c0,0,4.4-2.1,8.4,0.4c4.1,2.5,3.4,2.7,6.2,3.1c0,0-1.9,3.6-6.4,0.7
		C598.1,345,596.9,344.4,594.3,343.7z M599.2,361.6c0,0,4.3-2.9,9.1,0.1c0.6,0.4,1.9,1.1,3.1,1.4c0,0-3.6,1.5-7.4,0
		C602.4,362.5,601.2,362,599.2,361.6L599.2,361.6z M577.9,351.4c0,0,9.6,1.2,14.8-0.2c0,0-6,3.9,9.1,2.1c0,0,3.4-0.5,3,0.2
		s-0.7,1.2,1,1.9C605.8,355.3,594.5,362.1,577.9,351.4L577.9,351.4z"/>
	<path d="M530,340.5c0,0,0.1,1,2.2,2.3s3.3,3.5,3.7,4.8c0.5,1.2,1.5,3.1,3.3,3.7c0,0-7.5,2.1-10.9-3.1
		C528.3,348,525.8,344.3,530,340.5"/>
	<path style="fill:#5A3719;" d="M589.2,363.6c0,0-3-0.2-7.1-2.1s-5.1-0.3-7.4-2.6c-2.3-2.3-6.9-0.9-7.8-0.7c-0.9,0.2-3.3,0-0.2-2.7
		c0,0-2.5-0.1-3.4-1.7c0,0-1.1,1.4-5.2,0.9c0,0,1.8,3.9-5.6,2.8c0,0,2.2,3.4,4.9,4.1s3.8,0.5,5.5-0.2c0,0-0.5,3,3,4.1
		c3.4,1.1,4.1,2,5.9,3c0,0,0.2-1.9-4.3-6.4c0,0,2.5-0.2,6,1C576.8,364.3,584.8,367,589.2,363.6L589.2,363.6z M591,368.2
		c0,0,0.7,2.3,3,1.8s6-1.4,9.6,1.1c0,0,0.6-4.1-6.6-4.4C597,366.7,592.5,367,591,368.2L591,368.2z M529.7,342c0,0-2.8,3.1-0.3,6.2
		c2.3,2.9,5.9,2.6,7.6,2.6c0,0-1-0.8-1.9-2.6s-0.9-3-2.8-4.2C530.3,342.8,530.1,342.5,529.7,342z M526.8,326.1
		c0,0-4.2,11.7,12.3,14.7c0,0,0-1.3,0.7-3.2c0.7-1.8,2.1-5.6,0.7-8c-1.4-2.4,1.1-1.1,1.5-4.3c0.4-3.2-0.2-2.7,0.9-4.7
		c0,0-5.2,2.5-7.1,5.5c-2,3,2.7,5.3-0.1,8.6c0,0-2.3-1.1-3.7-4.4C532,330.3,528.8,330.4,526.8,326.1L526.8,326.1z"/>
	<path d="M570,353.2c0,0,3.4-0.7,12.2,3.6s12.4,3.3,13.7,3.2c0,0-5,3.4-12.6-1.1C576.6,354.9,576.1,356.4,570,353.2L570,353.2z"/>
	<path style="fill:#FFC221;" d="M624.9,350.6c0,0,2-0.1,3.2,0.6c0,0,0.8-0.9,2.6-1.1C630.7,350.1,629.5,348.5,624.9,350.6z
		 M618.9,344.1c0,0,2-0.1,2.6-1.4c0,0-1-1.7-2.6-2.5C619,340.1,619.3,342,618.9,344.1z M551.5,314.2c0,0-0.4-1.3,1.7-1.7
		c2.1-0.4,29.4-5.6,29.4-5.6s1.4,0,1.7,1.3c0.2,1.4-0.2,2.4-6.8,3.4s-24,3.9-24,3.9S551.7,315.9,551.5,314.2z"/>
	<path style="fill:#FFC221;" d="M578.2,312.6c0,0,0,5.2,3.9,5.9c3.8,0.7,5.1-0.3,6.2-3c0.3-0.7,1.4-6.1-0.3-6.5
		c-0.7-0.2-1.8-0.1-2.7,0.4c-1.3,0.8-2.5,1.6-2.1,2.5c0.9,1.9,1.1,2.3,0.8,2.5c-0.9,0.4-1.6-0.7-1.8-1.5c-0.2-1,0.5-1.6-2.1-1.1
		C579,312,578.2,312,578.2,312.6L578.2,312.6z"/>
	<path style="fill:#FFC221;" d="M594.5,308.6c2,0.3,1.9,6-0.5,8.5c-2.6,2.8-5.1,1.8-5.1,1.8c-1.3-0.7-1.1-0.5-0.1-2.5
		c1-1.9,1.4-4.5,0.9-6.4c-0.2-0.6,0.3-1.1,1-1.2C590.6,308.8,592.5,308.3,594.5,308.6z"/>
	<path style="fill:#FFC221;" d="M596.3,309.1c0,0,1.4,2.4-0.4,6.8c0,0-0.8,1.3,1,1.1c1.8-0.2,5.7-2.7,5.3-6c0,0-0.1-0.8-1.2-0.7
		c-1,0.1-0.2-0.8,0.2-0.9c0.4-0.2,1.8-0.8-1.7-3.8c0,0-0.6-0.7-1.3-0.4c-0.5,0.2-2.4,1.2-2.4,2.7
		C595.9,308.5,596.3,309.1,596.3,309.1L596.3,309.1z"/>
	<path style="fill:#FFC221;" d="M600.1,305.1c0,0,2.8,2.7,2.8,3.5s-0.3,1.9,0.5,1.8c0.7-0.1,3.8-1,2.9-3.6c-0.8-2.7-1.7-3.6-3.1-4.3
		c-1.4-0.7-1.8,0.2-3,1.4C600.3,303.9,599.4,304.6,600.1,305.1z M585,308.8c0,0,0.5-2-2.1-2.7c0,0,1.1-1.2,3.2-0.5
		c2.1,0.6,1.9,2.5,1.9,2.7C588,308.3,586.3,308.2,585,308.8L585,308.8z M590.4,308.4c0,0,2.9-0.7,4.2-0.5c0,0-1.4-4.3-5.3-2.8
		C589.3,305.1,590.7,307.2,590.4,308.4L590.4,308.4z M595.4,307.3c0,0,0-1.3,2.5-2.6c0,0-1.2-1.5-2.9-1.4c-1.9,0.2-2.3,1.1-2.3,1.1
		S594.8,305.4,595.4,307.3z M596.4,302.8c0,0,1.5,0.5,2.5,1.6c0,0,1.5-2.1,2.7-2.6C601.6,301.9,599.2,300.2,596.4,302.8z"/>
	<path style="fill:#5A3719;" d="M515.9,292.5c0,0,6.8-7.6,10.5-6.7c3.8,0.9,1.9,0.3,6-0.6s8.4-1.4,10.1-1.1c0,0-5-4.8-13.9-4.7
		c0,0-6.3,2.9-10.7,6.8c0,0-8.4-6.2-17-2.5C501,283.6,510.4,288.2,515.9,292.5L515.9,292.5z"/>
	<path style="fill:#FFC221;" d="M587.7,305.7l1.1-0.3c0,0,1.9,3.1,0.5,3.2c-1.1,0-0.6-0.4-0.8-1.4C588.3,306.4,588,306,587.7,305.7z
		 M579.2,306c0,0-0.7,1.1,0.6,0.9c1.5-0.3,1.3,0.1,3-1.5c0,0,1-1.5,3-0.6c0,0,1.6,0.7,3-0.1c1.3-0.9,1.6-0.8,2.4-0.7
		c0.7,0.1,0.7,0.3,1.6-0.6c1-0.9,2.6-0.2,3.7-1.4c1-1.2,2.4-0.2,0-2.4c0,0-0.5-0.7-0.5-1.2c0,0,0.9,0.3,1.6,1.2
		c0.7,0.9,1.9,0.6,2.1,0.5c0,0,0.1-2.8,2.2-5.4c2.1-2.6,2.1-2.8,0.9-2.8c-1.2,0-3.3-0.7-4,0s-6.8,6-10.4,6.9
		C584.8,299.6,581.5,300.9,579.2,306z M484,276.6c0,0,11,3.8,13.4,5.3c0,0,0.6-2.4-4.4-4.4c0,0,12.1-0.5,24.9,7.3
		c0,0,6.2-7.1,26-4.9c0,0,0-2.3,0.2-4.1c0,0-13.9-0.5-26.7-10.9C517.4,265,505.9,272.5,484,276.6L484,276.6z M544.9,283.7
		c-0.8-14.9,3.5-16.3,3.5-16.3s2,0,4.2,0.5c0,0-3.4,5.4-2.5,16c0,0,0.4,1.7-2.5,1.7C544.8,285.7,544.9,283.7,544.9,283.7z"/>
	<path style="fill:#5A3719;" d="M547.8,293.6c0,0-2.1-2.8-2.3-6.1c0,0-0.1-0.8,2.1-0.8c2.1,0.1,2.4-0.3,2.9,1.4
		c0.5,1.6,1.8,4.9,2.2,5.3L547.8,293.6L547.8,293.6z"/>
	<path style="fill:#5A3719;" d="M576.4,286.1c0,0,4.1,0.8-2.2,2.8c0,0,0.3,10.2,7.8,3c0,0,4.4-3.8,7.5-5.3c0,0,1.5-0.7,1.4-2.2
		c0,0,0.1-1.8-1.5-1.5c0,0-1.3,0-2.1-0.4c0,0-0.9-1.4-1.5-0.9s-2,0.2-0.9,2s1.4,1.3,1.9,0.8s2.9-1.8,0.7,0.8
		c-2.2,2.6-3.9-1.4-4.6-2.2L576.4,286.1L576.4,286.1z M555.8,287.3l-1.8-0.1c0,0-1,2-1.7-1.1l-0.8,2
		C551.5,288.1,553.8,299,555.8,287.3z"/>
	<path style="fill:#FFC221;" d="M553.2,274.7c0,0-0.9,7.1,0.2,11.6l19.8,0.5c0,0-0.2-5.1,0.1-12.1h-2.8c0,0-0.4,5.8,0,9.3H570
		c0,0-0.4-5,0-9.3h-2.3c0,0-0.4,5.3-0.1,9.4h-0.4c0,0-0.3-4.7,0.1-9.4H565c0,0-0.4,4.8,0,9.3h-0.5c0,0-0.5-4.9,0-9.3H562
		c0,0-0.6,4.5,0,9.3h-0.5c0,0-0.6-4.6,0.1-9.3h-2.5c0,0-0.6,5.1-0.1,9.3h-0.5c0,0-0.4-4.9,0.1-9.3h-2.4c0,0-0.6,4.3-0.1,9.3h-0.5
		c0,0-0.4-3.7,0.1-9.3H553.2L553.2,274.7z M574.1,287.7c0,0-0.5-12.9,1.3-16.3c1.9-3.3,2.2-2.7,5.4,0s7.3,5.6,7.9,5.9
		c0.7,0.3,1.6,0.7,1.6,3s0.3,3.1-2.4,0.1c-0.4-0.4-1.7-2-2.6-2.4c-2.5-1,0.6,0.7,1.5,2.4c0.7,1.4,1.3,1.3-0.6,1.9
		C584.3,283,577.7,286,574.1,287.7L574.1,287.7z"/>
	<path d="M581.1,278.5c0,0-1.4-2.4,0.4-3c1.8-0.6,2,3.8,2.3,6.5C584.1,284.6,581.5,279.3,581.1,278.5z M578.4,289.7c0,0-2.1,1-0.7,2
		c1.4,0.9,5.3-3.4,4-3.2C580.3,288.8,578.4,289.7,578.4,289.7z M581.3,285.8c0,0,1.9-0.2,1.5,0.8c-0.4,1.1-1,0.4-1.3,0.2
		C581.2,286.5,579.9,285.9,581.3,285.8L581.3,285.8z"/>
	<path style="fill:#FFC221;" d="M591.4,282.4c0,0,0.5,4.9,3.7,6.2c0,0,1.8,0.6,1.4-1.5c0,0-0.3-1.8-0.6-2.6
		c-0.3-0.8-1.5-1.2-1.7-1.3c-0.1-0.1-0.3-0.6,0.6-0.2c0.9,0.4,1,0.4,0.9-0.4s-0.6-0.5-1.4-1c-0.3-0.2,0-0.5,0.4-0.4
		c0.3,0.1,1.1,0.4,1.1-1.3c0,0,0.2-0.9-0.8-1c-1.1-0.1-1-0.7-0.6-0.8s1.4,0.9,1.7-0.8c0.3-1.7-1.5-0.7-1.3-1.6s1.5,0.5,1.7-0.5
		c0.1-1,1.2-1.5-0.6-1.8c-0.8-0.2-0.1-0.7,0.9-0.5s1.6-1.5,2.2-2c0.6-0.5,3.9-3.2-0.5-2.3c-4.4,0.9-5.7,3.7-6,4.3
		C592.2,273.4,591,276.8,591.4,282.4L591.4,282.4z"/>
	<path style="fill:#FFC221;" d="M601.7,286.2c0.6-0.1,1.1,0.1,1.3,0.6c0.7,2-0.9,1.3-1.9,2.8c-0.9,1.5-1,1.2-2.3,0.7
		s-1.8-3.2-1.8-3.2c-0.1-0.8,0.4-0.9,1.1-0.8C598.1,286.2,600.3,286.5,601.7,286.2L601.7,286.2z M596.9,285.1c0,0,0.1,0.6,0.8,0.7
		c0.8,0.1,2.9,0.3,4.2-0.2c0,0,0.5-0.1,0.3-1.3c0,0,0-0.7-1.2-0.4s-2.9,0-3.4-0.2C597,283.6,596.6,283.7,596.9,285.1L596.9,285.1z
		 M596.7,281.6c0,0,0,1.6,1.1,1.8c1.2,0.2,2.6,0.2,3.2,0c0.5-0.1,1.3-0.3,1.4-1.3c0.1-0.9,0.3-1.6-1.2-1.1c-1.4,0.5-3.2,0.2-3.4,0.1
		C597.7,281,596.7,280.6,596.7,281.6L596.7,281.6z M597.2,278.4c0,0-0.3,0.7-0.2,1.4c0,0.7,0.9,0.9,2.4,0.9s2.9-0.3,3-1
		s0.5-1.5-0.7-1.2c-1.2,0.2-2.7,0.3-3.3,0C597.7,278.2,597.3,278.1,597.2,278.4z"/>
	<path style="fill:#5A3719;" d="M653.5,286.3c0,0,0,1.4,0.8,2.8l-42.5-1.6c0,0,0.6-0.5,0.8-2.7L653.5,286.3L653.5,286.3z"/>
	<path style="fill:#FFC221;" d="M597.6,276.1c0,0-0.4,1.4,0.4,1.7c0.8,0.3,2.1,0.6,3.8,0.2c0,0,0.9,0.1,1.2-1.2
		c0.3-1.2,0.3-0.5-2.2-1.2c0,0-0.8-0.3,1.5-0.3c0,0,1.3,0.1,1.4-0.2c0.2-0.3,1.9-2-0.3-1.9s-1.1-0.5,0-0.5s1.4,0.3,1.8-0.2
		c0.4-0.5,0-0.1-0.6-0.9s-0.2-0.6,0.2-0.1c0.4,0.4,0.7,0.6,1.2,0s-0.4-1.4,0-1.3s0.5,1,1.9,0.1s3.3-0.4,3.8,0.1s2,1.2,2.9,0
		s-1-2.2-0.2-2.4c0.8-0.2,1.4,0.2,1.7-0.7c0.3-0.9-1.3-1.7,0.3-2.3c1.5-0.6,0.2-6.3-0.3-6.8c0,0-1.7,1.4-3.6,5.4
		c-1.9,4.1-3,6.4-5.6,5.2c-3.7-1.8-5.6,0.8-6.2,1.3c-0.9,0.7,1.9,1.1,0.3,1.1c-1.6,0-1.6,0.2-1.8,0.6c-0.2,0.3,0,0.6,0.3,0.6
		s0.9,0.8-0.1,0.8s-1.7-0.2-1.4,1.1c0,0,0,0.3,0.6,0.4s0.8,0.9-0.3,0.9C597.7,275.6,597.6,276,597.6,276.1L597.6,276.1z
		 M601.5,290.3c0,0-0.8,0.7,0.3,0.8c1,0.1,1.6,0.3,1.9-0.4c0.3-0.7,1.7-0.4,0.8-1.5C603.6,288.2,602.9,288.7,601.5,290.3
		L601.5,290.3z"/>
	<path style="fill:#FFC221;" d="M605.9,273.2c0,0,3.5-4.4,6.5-1.4s3.2,3.5,3.3,3.5c0,0.1,0.3,0.4-0.5,1.3s0,0.9,0.9,0.3
		s0.9,0,1.4,0.6c0.4,0.6,1,1-0.4,1s-4.3,0-4.3,0s-2,0.2-1-0.9s0.9-2.4,0.3-2.5c-0.5-0.1,0,0.7-0.3,1.2s-1,1-1.7,1s-1.3,0.7-0.2,1.2
		s-0.1,0.9-0.7,0.9c-0.6,0-3.3,0.3-0.5,0.7c2.8,0.5-0.3,0.3,1.8,1.9c2.3,1.7,0.6,5.4-0.2,5.7c0,0-0.9,0.7,0.2,0.5
		c1.2-0.2,1.8-0.4,1,0.4c-0.8,0.9-2.5,3.7-4.9,1.5c0,0-1.1-0.7,0.8-0.8c1.9-0.1-1.6-0.7-2.1-1.2c-0.6-0.5-2.8-3.5-1.4-3.1
		c1.4,0.4,0.9-0.7,0.1-1.1c-0.8-0.4-1-2.1-0.1-1.7s2,1.1,2.7,1c0.7,0,0.5-0.5-1-1.1c-1.6-0.7-2.2-0.8-1.9-2.5
		c0.4-1.8,2.1,0.7,1.7-0.6c-0.4-1.3-1.9-0.7-1.1-2.4c0.8-1.8,1-1,1.4-0.8s1,0.1-0.1-1C605,274.3,605.7,273.5,605.9,273.2
		L605.9,273.2z"/>
	<path d="M608.4,274.5c0,0,0-0.6,0.6-0.5s0.5-0.3,0.7-0.4s1.8,0.6,0.3,1.4C609.4,275.2,608.6,275,608.4,274.5L608.4,274.5z"/>
	<path style="fill:#FFC221;" d="M611.8,279.5c0,0-1.2,0.8-0.1,2.5c0.9,1.4,0.9,1.9,0.8,2.8c-0.1,0.9,40.9,1.5,40.9,1.5
		s-0.1-3.5,1.7-5.5C655.1,280.8,632.7,280.2,611.8,279.5L611.8,279.5z"/>
	<path style="fill:#7B3C20;" d="M607.2,298.1c0,0,2.7-3.1,3.1-4.5c0,0,7.4,7,6.9,0.6c0,0,0-1.7,0.2-3.4c0,0,2.7,0.3,3.1-2.5
		l-6.9-0.3c0,0-0.7-0.2-1.8,1.3s-3.3,3.2-5.3,1.8c0,0-0.9-1-1.7-0.2c-0.9,0.8-0.9,1.1-0.2,2C605.4,293.9,606.9,296.7,607.2,298.1
		L607.2,298.1z M623,278.9l-4-0.2c0,0-1.5-2.8-4.3-5.8c0,0-0.8-0.5,0.8-2.2s2.1-3.6,2.2-4.4c0.1-0.8-0.1-2.1,0.5-1.1s4.8,6,5.4,4.5
		c0.6-1.5,0.7-2.2,0.8-2.6s0.2-1.8,0.8-0.4c0.6,1.5,1,1.1,1,4.8c0,0,0.1,3.7,0.5,5.1C626.7,276.5,621.4,274.3,623,278.9L623,278.9z
		 M605.5,267.4c0,0,3.1,2.3,4.6-0.8c1.5-3.1,2.5-3.6,1.4-6.6s0-4.4,0.9-5.6s1.6-1,1.7-5.8c0.1-4.7,2.6-6.3,3.7-7.8s3.9-3.7-0.3-4.7
		c-4.2-0.9-12.6-3.8-14.8-8.2c-2.2-4.3-3.2-1.8-3.2-1.6s-0.7,3.4,1.4,9.1s4,9.5,6.1,11.4s4,2.9,2.9,6.7
		C608.9,257.4,607.1,264.3,605.5,267.4z"/>
	<path style="fill:#5A3719;" d="M626.3,266.2c0,0-1.3-1.2-1.3-3.4c0,0,0.9,0.2,1.3,1c0,0,3.3-5-0.6-6.8c-4-1.8-2-6.6-0.6-6.6
		c1.3,0,1.6-0.5,0.4-2.5c-1.1-2-1-2.1,1.2-2.6s1.9-1.1,0.9-1.9c-1-0.7-1.8-1.9-1.8-1.9s6.3-3.7,4.3-5.4c-2.1-1.7,0-1.3,1.8-3
		s2.1-2.1,2.4-2.8c0,0-1.8,0.2-3.1-0.1c0,0,1.6-1,0-2.8c-1.6-1.7-2.2-3.3-4.8-2.5s-1.7-0.3-0.7-1.7s0.5-2.2-1.3-2.5
		c0,0,0.2-1.4,1.6-3.2c0,0-3.4,0.3-4.6-0.5c0,0,1.4-1.3,1.5-2.8c0,0-1.9,0.8-4.3,0.5c0,0,1.4-1.6,1.4-3c0,0-4.1,1.2-6,3.2
		c0,0-0.4-0.1-0.7-0.7c-0.3-0.6-0.6-1.2-5.1,0.7c0,0,0.5-2.7,1.6-3.8s0.9-3.3-6.2,2.6c0,0-1-0.8-1.7-3.6c0,0-1.5,2.9-2.7,3.9
		c0,0-1,0.6-0.9-1.3c0.1-1.8-0.7-0.5-1.4,0s-1.2,1.8-0.9-1.9c0.4-3.7-1-4.5-1-4.5s-2.2,4.2-3.5,4.6c0,0-2.3-3-3.2-5
		c-0.8-2-0.8-2.7-1.6,0.7c-0.8,3.5-1.8,3.8-1.8,3.8s-1.4-1.6-1.6-2.5c0,0-0.2,0.9-0.7,1.4c0,0-1.2-1.9-1.2-4.7c0,0-7.6,5.6-8.6,9
		c0,0-7.2-0.6-10.2,0.2c0,0,0.7-3.1,2.6-4.7c0,0-1.9-0.3-2-2.9c0,0,1.5,0.3,2.5,0s-1.3-4,1.1-4.1c2.4-0.1,3.9,1.5,2.8-2.7
		c-1.1-4.2-0.6-4.2-0.6-4.2s4.1,3.3,4.8,2.5s-0.5-2.6,3.2-1.8s2.7-2,4.1-2.1c1.4-0.1,2.2,1.2,1.3-7.7s4.5,4.4,0.8-9
		c0,0-0.9-4.1-3.1-5.8c0,0-0.5,2.9-3,0.3c-2.5-2.6-7.4-3.5-5.3-5.6c2.1-2,3-4.8,2.4-6.5c0,0-2.4,3.4-6.6,1c-3.3-1.9-4,1.6-7.4,0.6
		c0,0,0.1-1.2,2.9-4.2c2.9-3-1.7,1-3.4,1.5s-2.3,0.1,1.5-3.8c3.8-3.9,11.2-10.8,10.2-16.4c0,0,1.8,3,6.4,0.8
		c4.6-2.2,8.1-2.9,9.5-6.1c1.4-3.2,5-6.4,6-7.1s2.2-1.2,0.8,1.8c-1.4,3-3.8,8.2-10.2,11.7s-8.9,6.1-10,7.9c-1.1,1.8-7,6-3.2,5.3
		s10.3,0.1,7.3-1.1c-3.1-1.2-6.6,0.7-3.7-2.7c2.8-3.4,3.3-4.6,7.4-6.9c4.1-2.3,8.7-7.5,8.2-2c-0.5,5.6-8.1,11.5-10,13.3
		s-1.2,1.5-1.1,2.3c0,0.7-0.3,2.3-1.1,2.9c-0.8,0.7-0.5,1.5-0.3,3c0.2,1.6-0.2,2.2,0.4,2.4c0.6,0.2,1.1,0.4,1.3,1.5s0.6,1.2,1.7,1.1
		c1.1-0.1,1.8,0,1.9,0.9c0.1,0.9,1.1,2,1.3-0.6c0.1-2.6,0.8-3.1-1.2-1.9s-2.4,0.8-2.4-0.5c0-1.2-0.2-1-1-1.1s-1.1-1.7,0.4-2.7
		s1.5,0,3.3-2s1.9-2.6,2.2-3.6s-2.7,2.8-4.1,3.7c-1.4,0.9-1-0.6-0.8-2.7s3.8-5,5.4-5c1.6,0,5.3,1.2,3.7,4.2c-1.6,2.9-6,6.4-4.1,6.7
		s2.2-0.7,3.3,0.6s0.1,4-0.4,5.4s-1.6,3.2-2.1,3.5c0,0-2-4.8-2-1c0.1,3.8-0.4,5.2,0,5.3s2.7,2.1,3.4,2.2s-3.9,2.9-2,3.1
		c1.9,0.2,5-1.1,6-3.8c0,0-3.9-1.3-5.5-3.2c0,0,4.6-1.4,3.3-7.3c0,0,4.6,1.7,2.6,4.4s-3.2,2.3-1.5,3.1s2.5,1.4,2.5,1.4
		s1.2,0.8,0.5,2c-0.7,1.3-0.7,3.2-0.1,3.2s2.5-1.2,0.9-2.5s1.8-1.1,0.4-2.2c-1.5-1.1-1.9-1.4-2.3-1.9c-0.4-0.5,18.5-15.3,9-9.8
		c0,0,2-5.8,4.8-5.8s3,2.9,1.4,5.2c-1.6,2.2-2.6,5.7-6.3,6.5c0,0,5.3,3.5-1,9.1c0,0-1.4,0.9-0.9,1.5s4.2-2.2,4.7-3.8
		s1.3-2.8,2.7-3.7s8.4-7.3,10.5-12.1s2.7-5,6.8-9.4s3.4-3.5,3.9-4.6s0.7-2.8,2.6-4.2c1.9-1.4,9.2-6.8,11.5-9.1c2.3-2.2,7-6.3,9-9.7
		c2-3.4,7.5-7.8,8.8-7c1.4,0.8-0.1,3.4-3.3,6.6s-11.1,11.8-12.4,13.1c-1.3,1.3-8,7.9-10.5,8.3c-2.5,0.4-2.2,1.6-3.7,3.8
		s-5,6.8-6.2,8c-1.2,1.3-4,3.8-4.1,5.6c-0.2,1.8,0.5,2-1.7,4.8s-8.8,9.2-11.2,10.2c0,0,4.2,1.9,1.7,5.6c-2.5,3.8-2.4,3.2-2.5,3.5
		c0,0,6.4-1.3,1.9,5.4c0,0-0.9,1.9,1.1-0.1c2.2-2.1,1.2-5,1-5.5c0,0,3.4-2.8,7.3-2.9c3.9-0.1,3.8-0.4,0.3-1.8c0,0,2.5-4,4.6-2
		s1.4,3.1-0.8,4.7c-2.2,1.6-5.5,2.2-7.9,4c0,0,4.6,1.2,7.1-1.3s2.6-1.3,2.9-0.8c0.3,0.4,0.6,1.3-0.5,3.4s-1.2,2.2-1.1,2.7
		c0.1,0.5-0.1,1.9-2.3,2.4s-3.3,1.7-2.5,3.2c0.8,1.4,0.8,4.9-1.1,4.6c-1.9-0.3-1.4-2.3-2.1-3.1c-0.7-0.8-1.8-2-5.1,0.3
		s-3.6-0.4-3.4-1.9c0,0-2.2,2.5-4,0.2s-0.2-3.2,0.9-4.4s5.3-3.6,2.7-3.2c-2.5,0.4-6.3,0.7-7.2-2c-0.9-2.6,1.9-2.3,2.3-2.1
		c0.4,0.2,2.2,2.2,2.3-0.4c0.1-2.5,2.9-2.8,1.9-3.3s-2.3,1.1-2.7,1.7c0,0-2-3.7-5.1-2.5c-3.2,1.2,1,0.7,1.9,0.9
		c0.8,0.2,0.4,2.3-2.5,5.7c-2.8,3.4-1.6,2.4,0.5,2.4s7.3,0,4.3,3.3s-4.2,4.9-5.8,4.3s0.2-1.9,0.9-2.5s1.1-1.6-0.4-0.8
		c-1.5,0.7-2,0.9-3.2-1.9c-1.2-2.8-0.7-2-0.2-3.8s1.6-3.8,0.3-3.1c-1.4,0.7-1.2,0.7-1.1-1.4c0.1-2.1-1.6-2.6-1.6-2.6
		s0.7,2.1,0.1,3.4c-0.6,1.3-0.6,1.8,0.4,2.2s1.9,1.5,0.6,2.7c-1.3,1.2-1.2,1.1-0.3,1.8c0.8,0.7,2.1,1.6,0.8,3.3s-0.2,1.2,0.4,1.2
		c0.7,0,2.1,0.7,2.2,2.4c0,1.7-0.1,2.1,2,0.5s6.4-1.4,6.3,0.8c-0.1,2.2-0.5,2.8,1.7,0.9c2.3-1.9,3.3,1.8,4.8,0
		c1.6-1.8,2.5-3.5,4.3-0.5s1.2,3.9-1,6.1s1.1,0.5,2.7-0.7s6.3-1.9,9-0.3c2.7,1.6,3.4,1.2,5.4,0.1c2-1.1,3-1.3,6,1.3s5.3,3.1,6.9,3.1
		c0,0-3.3,1.7-7,2s-5.6,1.3-6.3,2c0,0,2.2,1.8,2.7,4c0,0,2.4-0.4,3.6,0.2c0,0-0.6,2.3,0.9,3.6s2.5,1.7,1.4,3.4s1.7,1,0.1,3.4
		c-1.6,2.4-2.1,3.7-2.1,5.6c-0.1,2,0.4,2.3-1.1,2.5c-1.4,0.2,0.2,2.3-0.4,4.9c-0.7,2.6-4.7,2.3-4.5,9.2c0,0,1.1-3.4,3.5-6.3
		c2.4-2.9,2.5-3.2,2.4-5s-0.2-1.4,1.1-2.7s-0.6-2.6,0.7-4.5s0.2-1.5,1.7-3.5s-1.3-2.2,0.2-4.2s-3.7-4.3-2.2-5.5
		c1.5-1.3,4.1-3.1-4.6-2.9c0,0,2.1-4.6,9.5-3.6c0,0-1.9,1.8-2.1,3.6c0,0,0.8,0.6,1.4,0.7c0,0-0.3,1.3-1.7,2.9c0,0,3.9,2.9,4.5,4.6
		c0,0-2.4,1-3,2.4c0,0,1,1.6,1.4,3.6c0,0-2.7-0.4-3,2.2c-0.4,2.6-1.1,0.8-1.1,2.4s0.1,2.2-0.8,2.4c-0.9,0.2-0.2,1.6,0,2.4
		c0.2,0.9,0.5,2.9,0.3,3.5c0,0-1.3,0-2,0.3c0,0,0.4,3.8-1.2,4.3c-1.6,0.5,0.8,1.3-0.8,1.7c-1.7,0.4-1.5,0.5-3.6,5.5
		c0,0,1.8-1.3,3.6-2.9c1.8-1.6-0.1-1.1,2.9-5.1s2.5-4.3,2.2-6.3s-0.3-3.7,0.8-5.6c1.1-1.9,1.4-4.1,5.3-3.8c0,0-1.1-3.4-2.6-4.3
		c0,0,1.9-1.7,3.8-2c0,0-1.7-2.8-5.2-5.4c0,0,2.9-3.3,3.6-4.9c0,0-1.3,0.3-2.4-0.1c0,0,0.5-1.6,3.1-3.9c0,0,1.4,1.8,1.3,3.7
		c0,0,4.5-3.4,7-3.1c0,0,1.3,4.3-4.9,12.4c0,0,3.9,0.5,5.5,0.2c0,0-0.9,4-5.6,6.3s1,5.1-3.8,4.6s-3.3,1.7-3.2,5
		c0.1,3.2,0.3,6.6,0.2,7.5c0,0-3.8-1.7-3.7,3.3c0.1,4.9-2,6-2.4,6.4c0,0-1.1-1.3-2.8-2.1C632.5,256.7,630.1,262.7,626.3,266.2
		L626.3,266.2z"/>
	<path style="fill:#7B3C20;" d="M620.8,204.3c0,0,1.3-0.3,3.5,1.6s4.4-2,1.9-2.9s0-2.1,2.3,0.2c2.2,2.4,3.1,1.2,3.9,0.4
		c0.8-0.8,1.8-1.3,0.3-2.7s1-0.7,2.2,0.2c1.1,1,0.7,2,0.5,2.3s-0.3,3.5,2,0.5s3.4-6,3.3-7.4c0,0,1.2,1,1.4,2.9s1.9-1,2.5-2
		s1.6-3.6,1.4-5.5c0,0,1.5,3.1,3.8,0s1.3-1.2,4-2.1s6.1-3.6,8-6.6s2-1,4.3-1.7c2.4-0.7,7.2-5.2,7.6-7.6c0.5-2.4,0.4-3.9-0.3-3.1
		c-0.7,0.8-0.4,0.2-1.4-0.7s-2.5,1.1-2.5,1.1s1.5,1.6,0.4,2.2s-2.3,2.8-4.4,2c-2.2-0.8-4.4,2.7-4.4,2.7s1.9,2.1-0.7,3.4
		c-2.5,1.3-2.1,1.8-3.7,0.3c0,0-2.7,4.6-4.3,5.5c0,0-0.7-0.1-1.2-0.9c0,0-1.8,2.7-2.7,3.2c0,0-1.1-1.4-2.1-1.9c0,0-2.1,3.5-3.9,4.6
		c0,0-0.5-1.3-1.7-2.2c0,0-0.6,4.6-4.3,7.3c0,0,0.2-1.2-1.6-2.9c0,0-4.7,5.4-6.5,5.9s-0.1-1.1,0.1-1.8c0.2-0.7,1.4-3-0.9-3.9
		c-2.3-0.9-1.9,0.7-2.4,0.9c-0.5,0.3-0.5-0.5-2.1-0.2c-1.5,0.3-1.3,1.2-1.9,1.5c-0.7,0.3-3.3-0.6-3.2,1.8c0.1,2.3,1.4,3.9-0.9,5.3
		C614.6,205.2,617.8,204.9,620.8,204.3L620.8,204.3z"/>
	<path style="fill:#5A3719;" d="M610.4,177.5c0,0-1.1,1.2,0,2.1c1.1,1,4.7-2.5,5.2-3s1.8-0.4,0,1.4s-3.7,3.8-4.8,5.7
		c0,0,6.1-2.2,10.1-6.8s-0.2-1.6,6.6-6s10.3-11.4,6.7-10.6c-3.7,0.7-6.9,6.3-9.8,8.4c-2.8,2.1-4.4,2.4-4,1.2
		c0.5-1.2,2.5-0.7,6.4-4.9s3-3.9,3.1-5.4s-1.5-5.1,4.4-9.2s24.1-18.3,25.7-23.2c0,0-5.3,0.8-12.3,7.7s-10.8,10.2-12.7,11
		s-1.7,0.3-3,2.3s-8.2,10.9-9.5,12.2s-1.6,2.2-1.7,4.8C620.7,166.5,612.8,174.5,610.4,177.5L610.4,177.5z"/>
	<path style="fill:#5A3719;" d="M605.4,168.6c0,0-2.2,2-1.3,3.1c0.9,1,2.5,1.2,5.8-2.5s11.3-12.9,6.2-13.2c0,0-6.5-0.5-6.2,4.7
		C610.1,166.1,605.8,168.3,605.4,168.6z M590.5,165.5c0,0,4.3,3.3,2.7,6.1c0,0,13.1-14.8,9.4-18c-3.7-3.2-6.6,2.8-5.7,3.4
		c0.9,0.6,2.8-0.5,2.1,0.6C598.3,158.7,591.3,165,590.5,165.5L590.5,165.5z M587.1,160.7c0,0,2.9,1.1,3,2.8c0.1,1.6,8.7-8,6.4-12.1
		c-1-1.9-5.8-2.6-6,1s4.3-0.4,2.7,2.3C591.2,158.1,587.7,160.1,587.1,160.7z M617.8,152.6c0,0-1.8,1.8-0.2,2.8
		c1.6,1.1,2.7-0.6,3.5-1.6s4.9-5,5.8-7.5c0.9-2.5,2.3-3.3,3.8-4.6s11.9-8.2,18.3-15.9c6.4-7.7,3.7-5.7,10.4-10.6
		c6.6-4.9,11-9.4,12.4-14.7c0,0-3.1,1.4-5.8,3.7s-8.8,7.4-10,8.1s-3,0.8-3.9,2.1c-0.9,1.3-0.8,2.8-4,6.3s-19.7,19.1-21.7,21.3
		C624.4,144.3,617.8,152.6,617.8,152.6L617.8,152.6z"/>
	<path style="fill:#AA5323;" d="M604.5,157.8c0,0,1.8-1.3,5.2-1s16.8-17,20.7-20.5s16-15.2,17.7-17.3c1.6-2.1,1.9-4.4,3.3-5.7
		c1.4-1.3,2.7-1.1,6-3.6s19-15.1,18.1-22.4c0,0-23.5,18.8-28.9,24.9s-20.5,20-23.1,22.2c-2.7,2.2-4.8,6.1-9.3,11
		S605.3,154.4,604.5,157.8L604.5,157.8z"/>
	<path style="fill:#AA5323;" d="M599.6,151.1c0,0,4.3-0.6,4.9,2.2c0,0,9.3-8.5,11.4-12c2.1-3.5-0.7-1.5,4.6-6.1s22.9-21.1,25.4-24
		s7.3-6.8,11.1-10.3c3.8-3.4,18.8-13.2,17.1-21.2c0,0-11,9.8-13.5,12c-2.5,2.1-3.5,0.9-6,3.5s-8,7.9-9,9.5s-9.4,10.3-13.5,13.9
		c-4.1,3.7-13.3,10.8-17.7,15.9C610,139.7,601.4,149.2,599.6,151.1L599.6,151.1z"/>
	<path style="fill:#AA5323;" d="M586,149.5c0,0,2.2,0,2.9,1.2c0,0,4.1-4.7,8.4-0.1c0,0,15.9-14.3,17.4-17.9
		c1.6-3.6,4.2-3.7,10.3-9.7s10.1-8.5,14.2-12.8c4.1-4.3,7.5-9.1,10.5-11.6c3-2.6,10.4-9.1,9.1-14.7c0,0-6,4.6-10,10.3
		c-3.9,5.7-3.6,0.8-7.6,5.6c-4,4.8-10.2,11.4-15.3,14.7s-2,3-5.7,6.2s-3.4,2.7-4.8,3.1c-1.4,0.4-3.4,1.7-4.8,3.9c-1.4,2.2-5,5-9,8
		C597.6,138.8,587.8,146.6,586,149.5L586,149.5z"/>
	<path style="fill:#AA5323;" d="M590.8,138.5c0,0-0.9-2.4,0.7-4.1c1.5-1.7,4.3-6.1,4.7-8.9c0.5-2.8,0.1-2.3,4.5-4.7
		c4.4-2.4,14.4-8.6,20-13.3c5.6-4.6,14.2-12.1,15.9-13.9c1.8-1.8,6-5.8,7.8-7.7c0,0,0.8,3.2-1.1,5.3s-9.1,9-10.3,10
		c-1.2,1.1-7.9,7-9.9,8.6s-7.1,5-8.9,7c-1.8,2-1.6,2.6-9.6,7.9c-8.1,5.2-8.4,5.8-8.2,6.2s3.9-1.7,5.6-3c1.7-1.4,8.3-5.4,10.3-7.4
		c2-2.1,5.3-5.4,6.7-6.4c1.4-1.1,13.3-10.6,16.7-13.9c3.4-3.4,4.3-4.5,5.1-3.9c0.7,0.6,1.9,0.6,0.4,2.5s-6.4,7.6-8.2,9.2
		s-7.6,6.2-9.2,7.3c-1.6,1.1-2.2,3.2-3.1,4s-3.5,3.4-6.7,4.3c-3.2,1-3.8,4.2-5.9,6c-2.1,1.8-17,12.5-17.4,13
		C590.6,142.6,591.5,141.4,590.8,138.5L590.8,138.5z"/>
	<path style="fill:#7B3C20;" d="M575.3,132.3c0,0-4.5,3.2-2.9,5.2s4,1.4,5,0.8s2.9-1.2,3.2-1.3s4.2-1.6,5.2-4s3.6-5.2,5.7-7.2
		c2.1-2,2.8-4,2.5-5.4C593.9,120.3,576.3,131.4,575.3,132.3z M548.7,159.8c0,0,3.1-2.4,7.4-0.9c0,0-0.2-1.4-0.9-2.1
		c0,0,5.2-1.8,6.4-4.9s1.4-2.5,2.4-3.4s8.1-8.5,7.3-10.2s-1-3.8-1.6-4.6c0,0-1.5,2.7-8.4,7.2s-14.6,7.8-20.1,17.8
		c-5.6,10-5,15.8,1.8,18.4c0,0,4.8-4,16.5-2.6s15.7,7.2,16.4,8.3s3.1,4.9,0.8,11.4c0,0,2.3,1.4,2.5-1.6s0.3-2.3,0.9-1.8
		c0.5,0.5,1.2,0.5,0.9-1.8c-0.2-2.3-1.1-7.4-2.1-9.2s0.1-1,0.8-0.6s3.2,3,1.7-1.9s-1.8-2.5-1.9-2.3c0,0.2-0.3,1.5-3.5-1.7
		s-6.1-4.7-8.3-5.6c-2.2-0.8-0.7-0.8,0.6-1.4c1.3-0.6,3-1,3.6-2.9c0,0-1.3,0.4-3.6-0.7s-7-1.2-10.8,2.5c0,0,1.2-5.8-2.3-5.5
		s-5.9,0.2-9.5,4.1c0,0-0.2-5.9,3.2-8.9s3-1.2,4.9-2s2.1-3.4,1.3-4.2c0,0,4.5,1,12.1-7.4c0,0-4.1,7.1-9,8.6c0,0-0.8,3.8-5.3,4.6
		C548.6,155.5,548.7,159,548.7,159.8L548.7,159.8z"/>
	<path style="fill:#5A3719;" d="M535.8,194.5c0,0,2.2-17.6,14.6-18.9c10.9-1.1,14.3,0.7,16.5,1.6c2.2,0.9,7.4,3,5.4,5.3
		s-3.2,1.9-3.2,1.9s2.4-3.5,0.2-4.1s-2.4,1.1-2.7,2.6s-0.4,3.2-1.5,4.4c0,0-1.1-1.7-2.7-0.2c-1.6,1.5-0.2,1.5,0.4,1.3
		c0.6-0.2,1.4-0.7,1.3,0.6s-1,3.5-3.6,5.3s-2.4,1.7-5.5,2.3c-3.1,0.7-5.9,2.3-9.8,6.7c-3.9,4.5-8.2,3-9.1-2
		C535.4,197,535.8,194.5,535.8,194.5L535.8,194.5z"/>
	<path d="M549.9,194c0,0,1.2-3.5-0.9-5.1c0,0-6.5,1.5-8.4-1.1c0,0,7.1-0.5,11.5-2.8s3.1-3.9,1.6-4.3c-1.5-0.4-4.3,0.5-4.6,2.4
		c0,0-0.9-2,0.2-3.3c1.1-1.3,2.8-1.6,4.4-0.9c1.6,0.6,3,1.5,8.1-2c0,0,3,0.9,3,3.6s-0.2,3.8-0.5,4.2c-0.2,0.4-0.6,1.2-1.2,1.1
		c-0.6-0.1-1.4-0.3-2.2,1.6c-0.8,1.8-1.2,3.4-2.6,4.7c0,0,1.5-5.7-2.2-7.1c0,0-3.1,2.5-5.5,2.6C550.6,187.4,553.6,191.1,549.9,194
		L549.9,194z"/>
	<path style="fill:#5A3719;" d="M556.7,183.4c0,0-1.4-2.1,0.5-2.3s4.4,1.6,3.9,3.2C560.6,185.8,558.4,185.8,556.7,183.4L556.7,183.4
		z"/>
	<path style="fill:#5A3719;" d="M560,180.9c0,0,1.6,0.7,2.1,2.2c0.4,1.5,1.4-0.7,1.4-1.4s-1-3.8-2.8-2.3S559.8,180.8,560,180.9
		L560,180.9z"/>
	<path style="fill:#7B3C20;" d="M555.5,211.2c0,0,3.5-2.2,6.4-1.9c0,0-1.1-5.5,0.9-4.6c2.1,0.9,1.5,0.6,1.9,0.5c0,0,0.1-3.6-0.4-5.1
		c0,0,2.1,0.7,4.2,0.7c0,0-2-5.2,0.2-8.8c0,0,1.2,3.4,4,4.3c0,0,0-1.5,0-3c0,0,1.6-0.2,2.9,0.7c1.3,0.9,2.3-9.5-1.4-11.8
		c0,0-0.9,2-4.4,2.9c-3.5,1-3.5,1.9-4.9,5.5c-1.5,3.5-2.7,3.6-5.7,6.1s-4.7,7.7-4.9,8.1C554.2,204.8,555.7,207.4,555.5,211.2
		L555.5,211.2z"/>
	<path style="fill:#FFFFFF;" d="M525.5,248.6c0,0-0.2-7.6,2.6-11.4c2.9-3.8,16.8-23.2,18.9-28.6c0,0,1.8,1.7,1.9,4.7
		c0,0,2.3-5.4,4.2-7.4c0,0,1.6,2.2,1.4,6.7c0,0,3.4-2.4,8.6-2.4c0,0-1.9,3-2,4.8c0,0,7.2-1.1,11-0.2c0,0-9.9,7.4-7.1,8.1
		c2.8,0.7,5.7,0,5.7,0s-3.2,4.3-8.2,5.2c0,0,6.4-0.1,7.7,1.8c0,0-6.2,1.3-11.2,6.3c0,0-0.5-0.3-0.5-2.2c0,0-0.2,1.7-1.6,3.3
		c-1.4,1.6-4.9,5-6.2,6.7s-3.7,5.1-6.2,5c0,0,0.6-2.6-1.3-3.4c-1.9-0.8-4.1-0.2-5.6,1.9c0,0-6.7,0.1-8.9,0.5c0,0,1.5-3.2,2.9-3.2
		c1.4,0.1,7,1.1,7.5-4s-3.6-3.8-2.1-6.8c1.6-3,1.2-2.9,1.2-3.2c0,0-1.3,0.9-2,3.6c-0.7,2.7-1.3,4.8-3.9,7.5
		c-2.7,2.7-3.8,4.3-4.5,6.2C527.8,248.1,526.6,248.3,525.5,248.6z"/>
	<path style="fill:#FFFFFF;" d="M532,244c0,0,0.2-1,2.2-1.5c2-0.4,2.1-1.7,1.8-2.2c-0.2-0.5-1.4-0.5,0.5-3.4c0,0,0.7,0.2,1.1,1
		C538,238.5,540.2,244.7,532,244z"/>
	<path style="fill:#999999;" d="M527.2,238.7c0.1,5.1,5.1,3.2,5.1,3.2c-1.8,1.8-2.9,3.1-3.6,4.4c0.3-2.5-2.8-3.1-2.8-3.1
		C526.2,241.6,526.6,240,527.2,238.7z M545.5,211.7c0.7-1.3,1.3-2.3,1.6-3.1c0,0,1.8,1.7,1.9,4.7c0,0,2.3-5.4,4.2-7.4
		c0,0,1.6,2.2,1.4,6.7c0,0,3.4-2.4,8.6-2.4c0,0-1.9,3-2,4.8c0,0,7.2-1.1,11-0.2c0,0-9.9,7.4-7.1,8.1c2.8,0.7,5.7,0,5.7,0
		s-3.2,4.3-8.2,5.2c0,0,6.4-0.1,7.7,1.8c0,0-1.8,0.4-4.3,1.5c0,0-1.8-2.3-7.2-2c0,0,4.1-3.1,7.4-4.1c0,0-1.4-2.5-3.7-0.2
		c0,0-4.5-4.1-0.8-7.7c0,0-2.6-0.7-4.3,0.9c0,0,0.1-2.8,2-4.1c0,0-5.1-1.1-6.3,3.9c0,0-1-2-0.5-4.4c0,0-3.1,2.3-4.5,5
		C547.9,218.6,547.4,213.5,545.5,211.7 M535.7,243.7c-0.9,0.3-2.1,0.4-3.7,0.3c0,0,0.1-0.7,1.2-1.1
		C533.1,242.9,533.4,243.7,535.7,243.7"/>
	<path d="M544.9,224.6c0,0,2.3,2.4,3.1,3.9c0,0,2.1-2,2.9-3.6c0,0,1.6,1.4,2.2,3.6c0,0,1.1-1.1,1.4-2.5c0,0,2.9,0.8,3.8,2.1
		c0,0,0.4-3.7,0-6.1c0,0,2,0.2,3.2,0.9c0,0-1.1-2.5,4.7-5.6c0,0-4.4,1.3-6.1,3.8c0,0-1.9,0.1-2.7-0.7c0,0,0.1,3.8,0,5.6
		c0,0-1.1-0.6-3.4-1.3c0,0-0.5,1.2-0.9,1.5c0,0-1.4-1.5-2-3.4c0,0-2.1,2.6-3,3.7C548.3,226.6,546.3,224.7,544.9,224.6L544.9,224.6z"
		/>
	<path style="fill:#FFC221;" d="M531.7,262.9c0,0,0.9,0.6,3-1.7c2.1-2.3,8.2-7.4,8.7-11.5c0.6-4.1-1.9-4.3-3.9-3.2
		c-2,1.2-1.1,3.5-1.1,4.2c0.1,0.7,0.1,3.6-3.1,7.6C532.2,262.3,531.7,262.9,531.7,262.9L531.7,262.9z"/>
	<path style="fill:#FFC221;" d="M531,264.2c0,0-4.8-2.7-0.5-5.6c4.3-2.9,6.3-3.7,6.8-6.1c0.5-2.4,0.2-2-1.4-1
		c-1.6,1-7.8,4.7-8.7,1.3c0,0,2.5,1.3,5.7-0.7s5.7-2.7,3.7-3.5c-2-0.9-9.3,0.2-10.5,0.7s-0.9,0.4-1.1,2c-0.2,1.6-1.6,5-2.1,5.9
		c-0.5,1-1.7,5.1,0.5,6.9C525.7,265.8,529.2,265.7,531,264.2z"/>
	<path d="M529.1,250.2c0,0-1.1,0.2-0.9,0.8c0.2,0.6,0.5,0.5,0.9,0.5s1-0.3,1.1-0.7C530.3,250.4,529.5,250,529.1,250.2L529.1,250.2z"
		/>
	<path style="fill:#FFFFFF;" d="M530.7,262.8c0,0-2.3-1.5,0.3-3.4s5.4-3.7,5.7-4.5C536.7,255,535.5,257.3,530.7,262.8L530.7,262.8z"
		/>
</g>
<path style="fill:#5A3719;" d="M570.2,340.2c0,0,0.2-3.1,1.9-4.1c0.9-0.6,2.2-0.2,2.7,2.3c0.8,3.5-2.2,6.5-3.6,5.2
	C569.9,342.3,570.2,340.2,570.2,340.2L570.2,340.2z"/>
<path style="fill:#5A3719;" d="M537.1,248.9c0,0,0.7-3.1-1.9-4.6c0,0,17.2-2.6,4.2-9.2c0,0,15.4-3.2,11.8-8.1
	c-3.6-4.9-7.2-3.8-7.7-3.8s3.3-2.9,4.3-2.5s13.4,5.2,10.3,1.1s-2.9-3.8-3.4-5c0,0,4.1,0,10.3,6.1c0,0,1.3-1.4,1.1-3.8
	c0,0,4.4,1.2,5.8,2.6c0,0,0.7-1.5,0.5-2.4c0,0,3.8,2,5.1,4.2c0,0,1.8-1.5,2.1-3.3c0,0,3.8,1.6,4.8,2.8c0,0,1.3-1.7,0.8-4.1
	c0,0,6.3,1.9,7.2-2c0,0,6.4,1.4,2.2,3.9c-5.3,3.2-0.5-0.8-6,3c-4.2,2.9-6.6,6.4-8.6,5.7c-1.5-0.5-3.3,3.8-5.3,1.7s-2.1-1.2-3.5,1.1
	s-3.6,4.5-3.6,4.5s-1.1-0.6-2-1.5c0,0-1.2,2-2.8,3.6c0,0-1.3-1.7-3.2-2.7c0,0-3.1,3.6-5.1,4.9c0,0-1.8-1.8-3.8-2.4
	c0,0-0.3,4.9-4.1,7.4c0,0-0.8-1.6-3.2-2.6C543.2,243.2,541.3,246.3,537.1,248.9L537.1,248.9z"/>
<path style="fill:#5A3719;" d="M528.1,241.3c0,0-2.1,1.6-0.7,3.3c1.3,1.7,1.4-0.3,3.1-0.5s22.8-3.8,3.7-9.5c0,0,0.8-0.7,4.1-1
	s15.3-3.5,9.7-7.8s-10.2,1.4-5.5-3.7c3.8-4.1,0.7-6.1,0.7-6.1s-11.1,7.4-13.6,8.8s-6,4-1.8,5.3s7-4.5,7.4-3.2s-8.4,6.2-7.1,8.4
	c1.3,2.3,1,4.1,3.1,3.7c2.2-0.4,8,1.1,3.2,0.9S528.1,241.3,528.1,241.3L528.1,241.3z"/>
<path d="M535.7,230.7c0,0-1.9,1.4,0.6,0.7c2.6-0.7,7.7-1.8,6.7-3.1C542.1,227,538.6,228.6,535.7,230.7z"/>
<path style="fill:#7B3C20;" d="M569.5,208.7c0,0,9.8-0.3,13.8,2.5s6,4.5,7.2,4.9c0,0-0.2,3.7-6.4,1.1c0,0,0.3,1.8-0.3,3.5
	c0,0-2.3-1.5-5-2.2c0,0-0.5,1.4-1.3,2.2c0,0-2.8-2.8-5.9-3.7c0,0-0.6,1.4-1.2,1.9c0,0-3.4-1.9-5.9-1.9c0,0,0.5,2,0,2.9
	c0,0-7.1-5.6-13.4-4.9c0,0,3.1,4.5,5.1,6.7c0,0-12.8-1-10.7-7.9s-0.2-5.2,8.2-5.1S569.5,208.7,569.5,208.7z"/>
<path style="fill:#5A3719;" d="M542.9,208.5c0,0-1.9,0.9-3.7,0s-1.3-4.8,3.1-7.1s12.4-5.8,16.4-6.4c0,0-0.6,5.1-13.2,9.3
	C545.6,204.3,546.4,207,542.9,208.5z"/>
<path style="fill:#AA5323;" d="M547.4,205.2c0,0,0.4,1.2,0,2.4c0,0,23.4,2.3,35.5-12c0,0-16.6,1.5-23.2,5.5c0,0,4.2-5.2,16.6-9.5
	c12.4-4.3,17.5-9.6,18.6-12.6c0,0-15.7,5.5-23.2,5.5c0,0-1.5,0-2.9,0.8s-11.5,8.1-14.1,9.3c0,0,5.6-0.5,7.6-2.3
	C562.2,192.3,558.3,202.9,547.4,205.2L547.4,205.2z"/>
<path style="fill:#AA5323;" d="M553.8,140.8c0,0-1.1,1-0.5,1.6c0.8,0.8,3.7,2.8,7.3-0.8s13.2-11.3,16.4-13.2
	c3.1-1.8,4.6-3.6,4.5-6.1C581.4,122.3,566.6,130.2,553.8,140.8z M574.2,139.4c0,0,2.3-3.8,7.9-7.4c5.6-3.6,14-8.8,15.1-10.1
	c0,0,2,2.3-2.4,5c-4.4,2.7-12.9,8.4-14,9.3S578.1,138.3,574.2,139.4z"/>
<path style="fill:#FFFFFF;" d="M583,204.9c0,0-4.8,1.4-0.3,4.3s6.6,5.5,9.9,6.4s6.6,2,6.6,5.3c-0.1,3.2-0.7,4.5-2.4,6.7
	c-1.8,2.2,1,3.2,3.3,1.9s4.3-2,5.9-2.9s4.1-0.8,1.8,0.4s-4.8,1.9-1.8,2s21.2,0.4,25-0.8s8.8-1.6,9.2-6.6c0,0,0.2-2.2,1.6-3.1
	c1.4-0.9,2.4-3,0.3-1.6c-2.1,1.4-3.7,2.2-4.1,1.7s-0.5-0.7,1-1.4s2.4,0,3.8-2.1c1.4-2.1,1.3-1.7,0.5-2.5c-0.7-0.8-2.3-1.4-1.5-2.4
	s1.5-4-1.8-2.2s-9.9,6.3-12.9,7s-5.4,1.6-9.5,2.5s-6.6,1.7-11,4.1s-4.1-1.3-3.3-1.8c0,0,1.7,2.9,6.1-0.9s3-0.2,13.9-3.8
	s8.2-4.1,12.5-6.4s8.3-2.3,5.3-5.3s-3.3-3.2-7.1,0s-14.4,8.4-20.8,8.5c0,0,24.5-10.6,22-12.1s-5.2-2.9-6.9-3.3s-2.2-0.8-6.1,1
	s-4.6,2.2-5.7,2.3s-4.4,0.8-9.1,3.2s-7.2,3.4-10.3,5.3c0,0,2.2-4.4,11.8-7.3s14.6-5.6,13.5-6.1s-3.5-0.9-5.3-0.6s-1.3-0.1-7.2,2.2
	s-3.4,1.8-8.1,2.8s-6.7,2.1-9,3.1c0,0,1-1.3,4.2-2.5c1.6-0.6-1.8-1.2,2.8-1.4c0.4,0,0.8,0.1,1.3,0c5.9-1.7,12.3-4,11.4-4.2
	c-1-0.2-6.7-0.8-12.5,1.9s-3.2,1.8-5.2,2.2c-2.1,0.4-6.4,3.2-7.8,4.3C585,204,583,204.9,583,204.9L583,204.9z"/>
<path style="fill:#999999;" d="M596.6,200.1c1.8-0.3-1.8-1.2,2.8-1.4c0.4,0,0.8,0.1,1.3,0c5.9-1.7,12.3-4,11.4-4.2
	c-1-0.2-6.7-0.8-12.5,1.9s-3.2,1.8-5.2,2.2c-2.1,0.4-6.4,3.2-7.8,4.3s-3.5,2-3.5,2s-4.8,1.4-0.3,4.3s6.6,5.5,9.9,6.4s6.6,2,6.6,5.3
	c-0.1,3.2-0.7,4.5-2.4,6.7c-1.8,2.2,1,3.2,3.3,1.9s4.3-2,5.9-2.9s4.1-0.8,1.8,0.4s-4.8,1.9-1.8,2s21.2,0.4,25-0.8s8.8-1.6,9.2-6.6
	c0,0,0.2-2.2,1.6-3.1c1.4-0.9,2.4-3,0.3-1.6c-2.1,1.4-3.7,2.2-4.1,1.7s-0.5-0.7,1-1.4s2.4,0,3.8-2.1c1.4-2.1,1.3-1.7,0.5-2.5
	c-0.4-0.4-1-0.8-1.4-1.1c0,0-1.1-1-2.4-0.1s-6.9,3.2-9.1,3.4c-2.2,0.3-4.6,1.2-8.6,3.2s-10.7,6-11.8,2.2c0,0-2.9,1-3.6,1.4
	c-4.5,2.3-4.1-1-3.3-1.8c0,0-2.4,2.6-2.3,0.2c0.1-2.4,1.6-2,4.2-2.8s6.8-2.5,5.1-3.9s-3.5,1.4-5.4,2.3s-5.7,1.6-6.3-1.1
	s-0.6-4.7-5.7-5s-5-3.5-3.6-4.9S591.7,200.9,596.6,200.1L596.6,200.1z"/>
<path d="M612.9,225c0,0,8-3.7,15.4-5.4s1.6,0.2,0.3,0.6s-12.7,4.2-15.4,5.4C610.5,226.9,611.1,225.8,612.9,225L612.9,225z
	 M614.8,226.6c0,0,9-3,10.7-1.7s0.3,0.6-1.7,0.9c-2,0.3-7.4,1.2-8.8,1.2C613.5,226.9,614.8,226.6,614.8,226.6z M629.2,223.5
	c0,0,1.7-0.3,1.9,0.3s-0.8,0.7-1.7,0.6C628.5,224.3,627.6,223.7,629.2,223.5z"/>
</svg>
