<?xml version="1.0" encoding="utf-8"?>
<!-- Generator: Adobe Illustrator 25.2.1, SVG Export Plug-In . SVG Version: 6.00 Build 0)  -->
<svg version="1.1" id="Layer_1" xmlns="http://www.w3.org/2000/svg" xmlns:xlink="http://www.w3.org/1999/xlink" x="0px" y="0px"
	 viewBox="0 0 720 480" style="enable-background:new 0 0 720 480;" xml:space="preserve">
<g>
	<path style="fill:#418FDE;" d="M0,0h720v480H0V0z"/>
	<path style="fill:#FFD100;" d="M0,320h720v26.7H0v26.7h720V400H0V320z"/>
	<g>
		<path style="fill:#EF3340;" d="M123.3,90l-16.7-54L90,90l-54,16.7l54,16.7l16.7,54l16.7-54l54-16.7L123.3,90z"/>
		<path style="fill:#FFFFFF;" d="M106.7,186.4l-18.8-60.9L27,106.7l60.9-18.8L106.7,27l18.8,60.9l60.9,18.8l-60.9,18.8L106.7,186.4z
			 M45,106.7l47.1,14.5l14.5,47.1l14.5-47.1l47.1-14.5l-47.1-14.5L106.7,45L92.1,92.1L45,106.7z"/>
	</g>
</g>
</svg>
