<?xml version="1.0" encoding="utf-8"?>
<!-- Generator: Adobe Illustrator 25.2.1, SVG Export Plug-In . SVG Version: 6.00 Build 0)  -->
<svg version="1.1" id="Layer_1" xmlns="http://www.w3.org/2000/svg" xmlns:xlink="http://www.w3.org/1999/xlink" x="0px" y="0px"
	 viewBox="0 0 720 480" style="enable-background:new 0 0 720 480;" xml:space="preserve">
<g>
	<rect style="fill:#F7E017;" width="720" height="480"/>
	<path style="fill:#FFFFFF;" d="M0,33.3v213.3l720,100V233.3L0,33.3z"/>
	<path d="M0,146.7v100l720,200v-100L0,146.7z"/>
	<g>
		<path style="fill:#CF1126;" d="M347.9,379.8c-9.7-1.7-18.6-5.8-24.7-11.4c-1.2-1.1-2.3-2-2.5-2c-0.2,0-0.3,1.2-0.3,2.7
			c0,4.2-1.3,6.4-4.5,7.5c-3.1,1.1-7.8-1.1-11.6-5.3c-3.9-4.4-8.5-7.7-12.4-9c-3.2-1.1-7.4-0.9-10.4,0.4c-1.4,0.6-3,1.5-3.6,2
			c-0.6,0.5-1.2,0.8-1.4,0.8c-0.5,0-0.5-4.6,0.1-6c0.7-1.9,2.6-3.8,4.7-4.8c1.1-0.5,2-1.2,2-1.5c0-0.3-0.4-1.4-0.8-2.4
			c-1.5-3.4-0.9-6.7,1.7-9.2c2.6-2.6,7-3.1,10.9-1.1c1,0.5,1.9,0.9,2,0.9c0.5,0,0.2-1-1.2-3.7c-1.6-3.2-1.9-4.7-1.7-8.5
			c0.3-4.8,3.2-8.7,6.7-9c2.9-0.3,4.7,1,9,6.5c12.8,16.3,26.8,25.3,43,27.7c4.1,0.6,12.4,0.3,17.2-0.7c14.6-2.9,29.4-12.8,40.9-27.2
			c3.2-4,4.7-5.1,7.3-5.1c2.3,0,3.9,1,5.5,3.4c1.5,2.2,2,4.3,1.8,7.6c-0.1,2.1-0.4,3.2-1.3,5.3c-1.4,3.1-1.2,3.3,1.6,1.9
			c3.8-2,8.4-1.1,10.9,2.1c2.2,2.8,2.4,5.6,0.7,9.4c-0.6,1.4-1.1,2.7-1.1,2.9c0,0.4,0.5,0.6,2.8,1.1c3,0.6,4.7,3.6,4.7,8.1
			c0,1.4-0.1,2.5-0.3,2.5c-0.1,0-1.3-0.6-2.5-1.2c-3.5-1.9-5.5-2.4-9.6-2.4c-3.1,0-4.2,0.2-6.3,1.2c-3.3,1.4-6.9,4.2-9.8,7.7
			c-3.2,3.8-5.2,5-8.3,4.9c-2.9,0-4.9-1.2-5.9-3.3c-0.6-1.2-0.6-1.9-0.5-4.5c0.1-1.7,0.1-3.1,0-3.1c-0.1,0-1.2,0.9-2.5,2.1
			c-3.3,3-5.4,4.5-9.2,6.6C377.4,379.4,360.7,382.1,347.9,379.8L347.9,379.8z"/>
		<path style="fill:#CF1126;" d="M353.2,350.1c-19.3-2.5-37.7-15.9-49-37.1c-12.2-22.2-16-51.4-12.3-78.2c2-12.2,6-24.4,12.8-33
			c-5.4,15.3-7.3,32.9-4.4,49.5c4.5,33.2,25.5,61.2,50.7,66.1c10,3.8,20.2-0.2,29.7-4.3c21-9.9,36.9-36.4,38.9-66.1
			c1.7-16.1-0.2-32.7-5.6-47.3c3.1,2.2,7,10.7,9.3,16.5c8,20.7,8.4,45.4,3.7,67.5c-6.4,28.1-22.5,52.7-43.8,61.6
			C373.5,349.5,363.3,350.8,353.2,350.1L353.2,350.1z"/>
		<g id="hand">
			<path style="fill:#CF1126;" d="M256,313.3c-1.3-0.3-2.7,1.4-2.2,3.1c0.9,1.8,2.5,2.6,3.9,3.5c3.4,1.8,7.1,2.5,10.7,2.4
				c-1.3,0,0.4,0,0.9,0c2.9,0,5.8-0.7,8.5-2c1.5-0.7,3.4-1.3,4.1-3.6c0.6-1.4-0.5-2.9-1.6-2.6c-1.5,0.4-3,1.4-4.5,1.9
				c-3.3,1.2-6.7,1.7-10.2,1.3c-2.5-0.4-4.9-1.5-7.2-2.8C257.6,314.1,256.9,313.4,256,313.3L256,313.3z"/>
			<path style="fill:#CF1126;" d="M257.4,306.3c-1.3-0.3-2.4,1.7-1.8,3.3c1,1.9,2.6,2.9,4.2,3.8c2.7,1.4,5.6,2,8.5,1.9
				c-1.1,0,0.4,0,0.8,0c2.5,0,4.9-0.6,7.2-1.9c1.4-0.7,3.1-1.4,3.7-3.5c0.4-1.1,0.1-2.7-0.9-2.8c-1-0.1-1.8,0.8-2.7,1.1
				c-3.2,1.8-6.8,2.5-10.3,2.1c-2.2-0.4-4.3-1.4-6.2-2.7C258.9,307.3,258.3,306.5,257.4,306.3L257.4,306.3z"/>
			<path style="fill:#CF1126;" d="M259.1,299.7c-1.1-0.2-1.8,1.5-1.7,2.8c0.2,1.2,0.9,1.9,1.6,2.6c2.7,2.6,6,3.7,9.3,3.6
				c-1.3,0,1.7,0,0.8,0c2.1,0,4.1-0.7,6-1.9c1.2-0.7,2.7-1.6,3.1-3.5c0.2-0.9,0.3-2.2-0.4-2.6c-0.8-0.6-1.6,0.3-2.3,0.7
				c-2.4,1.6-5.1,2.5-7.8,2.5c-2.3,0.1-4.5-1.2-6.5-2.6C260.6,300.8,260,299.9,259.1,299.7L259.1,299.7z"/>
			<path style="fill:#CF1126;" d="M240.8,201.8c-1.6,2.2-0.4,6.2-0.5,9c0.8,8.8,1.9,17.7,4.3,25.9c3,8.1,9.4,12.4,13.3,19.5
				c1.4,3.4,0.9,7.6,1.2,11.3c0.2,10.2,0.2,20.5,0,30.7c3.5,2.3,7.2,4.7,11.2,3.8c2.4-0.8,6.8-1.2,7.2-4.4
				c-0.2-17.7-0.3-35.3-0.5-53c-1.3-5.4-5.5-8.2-8.6-11.7c-2.5-3.4-4.9-7-7.1-10.7c-1.3-2.9-6.4-4-4.6,1.1c1.1,4.4,3.9,7.7,4.6,12.4
				c0.2,2.6,2.4,7.3,0.5,8.7c-1.2-2.8-3-5.2-5.3-6.6c-2.2-2.2-5.9-3.1-6.7-7c-0.6-5.5-2.7-10.5-5.4-14.7c0.7-5,0-11.2-3.2-14.3
				L240.8,201.8L240.8,201.8L240.8,201.8z"/>
			<path style="fill:#CF1126;" d="M245.7,202.8c-1.5,0.3-1.4,2.8-0.7,4.2c0.7,2.9,0.9,6,0.5,8.9c2.6,4.1,4.7,9,5.3,14.4
				c0,2,1.6,2.7,2.7,3.7c2.4,2.1,5.2,3.6,7.3,6.2c0.5,0.7,0.8,1.4,0.5,0c-0.3-1.7-0.5-3.6-1.5-4.9c-1.4-2-3.1-3.7-5.1-4.3
				c-0.2-2.7-1.1-5.3-2.1-7.7c-1-2.3-2.1-4.8-3.8-6.3c0.1-4.1,0-8.3-1.3-12.1C247.2,204,246.6,202.9,245.7,202.8L245.7,202.8z"/>
			<path style="fill:#CF1126;" d="M249.9,204.4c-1,0.4-0.8,2.1-0.5,3.1c0.5,2.9,0.6,5.8,0.5,8.8c1.9,2,3.1,4.9,4.2,7.7
				c0.7,1.9,1.3,3.8,1.6,5.9c1.5,0.7,2.9,2,4.1,3.4c-0.5-1.9-1.5-3.4-2.3-5.2c-0.8-1.8-1.5-3.7-1.8-5.8c-1.5-2.1-2.3-5.1-2-8
				c0.1-3.2-0.7-6.5-2.3-8.9C250.9,205,250.5,204.5,249.9,204.4L249.9,204.4z"/>
			<path style="fill:#CF1126;" d="M254.6,205.3c-0.6,0.1-0.9,0.8-1.2,1.4c-0.1,0.6,0.4,1.2,0.5,1.8c0.7,2.2,0.9,4.6,0.7,7
				c0,1.7,0.4,3.3,1,4.7c0.2-1,0.9-1.8,1.7-1.9c0.3-0.1,0.7,0.1,0.5-0.5c-0.2-3.2-0.6-6.4-1.4-9.4c-0.3-1.1-0.7-2.2-1.4-2.9
				C254.9,205.4,254.8,205.3,254.6,205.3L254.6,205.3z"/>
		</g>
		<g transform="matrix(-1,0,0,1,1440,0)">
			<g id="hand_1_">
				<path style="fill:#CF1126;" d="M464,313.3c1.3-0.3,2.7,1.4,2.2,3.1c-0.9,1.8-2.5,2.6-3.9,3.5c-3.4,1.8-7.1,2.5-10.7,2.4
					c1.3,0-0.4,0-0.9,0c-2.9,0-5.8-0.7-8.5-2c-1.5-0.7-3.4-1.3-4.1-3.6c-0.6-1.4,0.5-2.9,1.6-2.6c1.5,0.4,3,1.4,4.5,1.9
					c3.3,1.2,6.7,1.7,10.2,1.3c2.5-0.4,4.9-1.5,7.2-2.8C462.4,314.1,463.1,313.4,464,313.3L464,313.3z"/>
				<path style="fill:#CF1126;" d="M462.6,306.3c1.3-0.3,2.4,1.7,1.8,3.3c-1,1.9-2.6,2.9-4.2,3.8c-2.7,1.4-5.6,2-8.5,1.9
					c1.1,0-0.4,0-0.8,0c-2.5,0-4.9-0.6-7.2-1.9c-1.4-0.7-3.1-1.4-3.7-3.5c-0.4-1.1-0.1-2.7,0.9-2.8c1-0.1,1.8,0.8,2.7,1.1
					c3.2,1.8,6.8,2.5,10.3,2.1c2.2-0.4,4.3-1.4,6.2-2.7C461.1,307.3,461.7,306.5,462.6,306.3L462.6,306.3z"/>
				<path style="fill:#CF1126;" d="M460.9,299.7c1.1-0.2,1.8,1.5,1.7,2.8c-0.2,1.2-0.9,1.9-1.6,2.6c-2.7,2.6-6,3.7-9.3,3.6
					c1.3,0-1.7,0-0.8,0c-2.1,0-4.1-0.7-6-1.9c-1.2-0.7-2.7-1.6-3.1-3.5c-0.2-0.9-0.3-2.2,0.4-2.6c0.8-0.6,1.6,0.3,2.3,0.7
					c2.4,1.6,5.1,2.5,7.8,2.5c2.3,0.1,4.5-1.2,6.5-2.6C459.4,300.8,460,299.9,460.9,299.7L460.9,299.7z"/>
				<path style="fill:#CF1126;" d="M479.2,201.8c1.6,2.2,0.4,6.2,0.5,9c-0.8,8.8-1.9,17.7-4.3,25.9c-3,8.1-9.4,12.4-13.3,19.5
					c-1.4,3.4-0.9,7.6-1.2,11.3c-0.2,10.2-0.2,20.5,0,30.7c-3.5,2.3-7.2,4.7-11.2,3.8c-2.4-0.8-6.8-1.2-7.2-4.4
					c0.2-17.7,0.3-35.3,0.5-53c1.3-5.4,5.5-8.2,8.6-11.7c2.5-3.4,4.9-7,7.1-10.7c1.3-2.9,6.4-4,4.6,1.1c-1.1,4.4-3.9,7.7-4.6,12.4
					c-0.2,2.6-2.4,7.3-0.5,8.7c1.2-2.8,3-5.2,5.3-6.6c2.2-2.2,5.9-3.1,6.7-7c0.6-5.5,2.7-10.5,5.4-14.7c-0.7-5,0-11.2,3.2-14.3
					L479.2,201.8L479.2,201.8L479.2,201.8z"/>
				<path style="fill:#CF1126;" d="M474.3,202.8c1.5,0.3,1.4,2.8,0.7,4.2c-0.7,2.9-0.9,6-0.5,8.9c-2.6,4.1-4.7,9-5.3,14.4
					c0,2-1.6,2.7-2.7,3.7c-2.4,2.1-5.2,3.6-7.3,6.2c-0.5,0.7-0.8,1.4-0.5,0c0.3-1.7,0.5-3.6,1.5-4.9c1.4-2,3.1-3.7,5.1-4.3
					c0.2-2.7,1.1-5.3,2.1-7.7c1-2.3,2.1-4.8,3.8-6.3c-0.1-4.1,0-8.3,1.3-12.1C472.8,204,473.4,202.9,474.3,202.8L474.3,202.8z"/>
				<path style="fill:#CF1126;" d="M470.1,204.4c1,0.4,0.8,2.1,0.5,3.1c-0.5,2.9-0.6,5.8-0.5,8.8c-1.9,2-3.1,4.9-4.2,7.7
					c-0.7,1.9-1.3,3.8-1.6,5.9c-1.5,0.7-2.9,2-4.1,3.4c0.5-1.9,1.5-3.4,2.3-5.2c0.8-1.8,1.5-3.7,1.8-5.8c1.5-2.1,2.3-5.1,2-8
					c-0.1-3.2,0.7-6.5,2.3-8.9C469.1,205,469.5,204.5,470.1,204.4L470.1,204.4z"/>
				<path style="fill:#CF1126;" d="M465.4,205.3c0.6,0.1,0.9,0.8,1.2,1.4c0.1,0.6-0.4,1.2-0.5,1.8c-0.7,2.2-0.9,4.6-0.7,7
					c0,1.7-0.4,3.3-1,4.7c-0.2-1-0.9-1.8-1.7-1.9c-0.3-0.1-0.7,0.1-0.5-0.5c0.2-3.2,0.6-6.4,1.4-9.4c0.3-1.1,0.7-2.2,1.4-2.9
					C465.1,205.4,465.2,205.3,465.4,205.3L465.4,205.3z"/>
			</g>
		</g>
		<path style="fill:#CF1126;" d="M357.8,317.3c-6.7-0.9-12.8-7.4-14.9-16c0.1-1.5,1.5,0.8,2.1,1c1.2,0.9,2.5,1.7,4,1.8
			c1.8,1,2.9,3.4,4.6,4.6c0.8,0.8,3.6,2.4,3.1-0.2c-0.7-1.4-1.1-3.1-0.5-4.6c0.9-2.8,2.4-5.2,3.9-7.5c1.1-0.5,1.8,2.4,2.6,3.3
			c1.1,2.2,2.4,4.9,1.7,7.6c-0.6,1-1,4,0.6,3c2-1.2,3.7-3.2,5.3-5c1.5-1.4,3.3-1.5,4.9-2.6c0.7-0.2,2.2-2.1,2.5-1.1
			c-0.8,3-2.2,5.7-3.7,8.1c-2.4,3.7-5.7,6.5-9.4,7.3C362.3,317.4,360,317.5,357.8,317.3L357.8,317.3z"/>
		<path style="fill:#CF1126;" d="M365.8,306.8c0.1-1.8-0.2-3.6-0.9-5.3c-1.1-2.9-2.6-5.4-4-8c-1.4-1.1-2.1,2.4-3.1,3.4
			c-1.4,2.9-3.2,5.8-3.3,9.4c-0.8,1.7-2.3-1.4-2.9-2.4c-1.2-2.3-2.2-5.1-2-8c-0.1-4.7,0.5-9.4,1.8-13.7c1-3.7,2.5-7.3,2.4-11.4
			c0.1-3.1-0.4-6.4-2.2-8.5c-1.8-1.9,1.1-2.2,2.1-1.3c1.6,0.1,2.4,3.6,3.9,2.8c0.6-1.8,0.7-4,1.9-5.4c1.2-2.1,2.4,0.9,2.8,2.3
			c0.8,1.2,0,4.3,1.3,4.4c1.6-1.5,2.7-4,4.8-4.6c0.8-0.6,2.3-0.1,1.2,1.2c-1.5,1.9-2.8,4.3-3.1,7.1c-0.5,3.5,0.2,7.1,1.4,10.3
			c2.2,6.3,3.9,13.3,2.8,20.3c-0.5,3.1-2.1,5.8-4,7.6C366.2,307.3,365.8,307.3,365.8,306.8L365.8,306.8z"/>
		<path style="fill:#CF1126;" d="M363.4,259.8c-0.7-1.7-1.6-3.5-2.8-4.7c-1.2,0-1.9,2-2.7,3c-0.6,1.4-1.3,3.8-2.7,1.9
			c-2.2-1.7-2.6-5.5-2.6-8.6c-0.1-5.1,1.4-9.8,2.7-14.4c0.9-2.9,0.7-6.1,0.1-9.1c-0.7-3.4-2.7-5.7-4.3-8.4c0.1-1,2.1-0.5,2.9-0.3
			c1.7,0.6,2.7,2.5,3.9,4c0.9-0.4,0.5-2.8,0.9-3.9c0-1.6,1.6-3.7,2.3-1.4c1,1.4,0,4.3,1.2,5.2c1.2-0.6,1.8-2.4,2.9-3.1
			c1.1-1,2.7-1.1,3.9-0.3c0.4,1.5-1.3,2.7-1.8,4c-2,3.3-2.7,7.9-1.9,12.1c0.7,3.2,1.9,6.3,2.3,9.6c0.5,3.8,0.5,7.7-0.2,11.4
			c-0.4,2.3-1.9,3.8-3.4,4.7C363.8,261,363.6,260.3,363.4,259.8L363.4,259.8z"/>
		<path style="fill:#CF1126;" d="M355.8,217.9c-1.7-1.6-2.2-3.2-2.2-6.3c0-1.6,0.2-2.4,1-3.9c1.2-2.1,0.9-2.8-0.7-2.2
			c-2.6,1-3.9,0.1-4-2.9c0-1.5,0.2-2.1,1.7-4.4c1.2-1.9,1.6-2.9,1.4-3.2c-0.2-0.3-1.6,1.3-4.5,5.2c-2.3,3.1-4.9,6.3-5.7,7
			c-4.9,4.4-9.6,5.1-11.8,1.7c-1.1-1.7-1-2.7,0.2-3.8c0.6-0.5,1.6-1.6,2.2-2.5c1.5-2,5.9-6.3,8-7.7c1.8-1.2,2.2-2,1-2
			c-1.5,0-6.3,4.1-9.9,8.6c-1.1,1.3-2.6,2.8-3.4,3.2c-1.8,1.1-5.4,1.5-6.9,0.8c-1.1-0.5-3.1-3.1-3.1-4c0-0.2,0.5-0.8,1-1.2
			c0.6-0.4,1.6-1.4,2.2-2.2c2.9-3.4,8.4-6.9,12.8-8.1c1.4-0.4,0.9-1.3-0.7-1.2c-3,0.2-8.9,3.9-12.5,7.8c-4.2,4.6-10.4,4.1-12.5-0.9
			c-0.4-0.9-0.6-1.7-0.5-1.8c0.1-0.1,1.3-0.6,2.7-1.1c1.5-0.5,4.6-2.2,7.5-4.1c4.6-3,5.9-3.7,9-4.3c1.4-0.3,1.5-1.2,0.1-1.4
			c-1.8-0.3-4.5,0.9-9.2,4c-6.1,4-7.9,4.7-11.1,4.5c-3-0.2-4.6-1.2-7-4.3c-1.6-2-3.8-7-3.4-7.6c0.1-0.1,0.8,0,1.6,0.3
			c0.9,0.3,3.3,0.6,6.3,0.6c4.2,0,5.3-0.1,7.5-1c3.7-1.4,8.6-4.8,12-8.1c6.4-6.4,11.7-9,18.4-9c6.2,0,10.1,1.9,13.6,6.6
			c1.2,1.6,2.2,2.6,2.4,2.4c0.2-0.2,0.3-3,0.4-6.2c0,0,1.8-0.2,2.2,0.4c0,5.2,0,5.6,0.6,5.6c0.4,0,0.8-0.5,1-1.3
			c0.5-1.7,2.5-4,4.6-5.4c4.5-3.1,12.4-3.2,18.6-0.2c2.6,1.2,5.6,3.5,8.4,6.3c2.8,2.9,8.6,6.7,12,8c3.4,1.3,9.5,1.6,12.6,0.7
			c1.3-0.4,2.5-0.7,2.7-0.7c1.1,0-0.8,5.1-3.1,8.1c-4.2,5.5-9.6,5.4-17.3-0.1c-4.8-3.4-10.5-5.3-10.5-3.4c0,0.4,0.3,0.6,0.7,0.6
			c1.7,0,4.9,1.5,9.3,4.3c4.8,3.1,7.5,4.4,9.2,4.4c1.2,0,1.2,1,0.1,3.1c-1.2,2.3-3.1,3.4-5.9,3.4c-2.6,0-4.1-0.8-6.5-3.4
			c-4-4.4-13.8-9.3-13.4-6.7c0.1,0.5,0.5,0.8,1.6,1c3.4,0.7,7.5,3.3,11.6,7.4c1.3,1.3,2.6,2.5,2.9,2.8c0.6,0.4,0.6,0.6,0.1,1.7
			c-0.7,1.8-2.6,3.3-4.6,3.5c-2.6,0.4-4.9-0.7-7.2-3.3c-5-5.5-9.7-9.6-11.2-9.6c-1.2,0-0.7,0.9,1.5,2.4c2.8,2,5.8,4.7,7.9,7.4
			c1,1.3,2.2,2.5,2.5,2.8c0.9,0.6,0.9,1.6-0.1,3.3c-1,1.8-2.7,2.5-4.8,2.2c-4.3-0.6-7.7-3.4-13-10.7c-2.1-2.9-3.9-5.2-4.1-5.2
			c-0.7,0-0.3,1.3,1.1,3.3c1.7,2.5,2,3.9,1.4,6c-0.6,1.8-1.5,2.2-3.4,1.5c-2-0.7-2.3-0.1-1,2.1c1.9,3.2,1.6,7.1-0.7,9.8
			c-0.7,0.8-1.5,1.5-1.7,1.5c-0.2,0-0.7-0.7-1.2-1.6c-1.5-3.1-2.9-3.1-4.3,0.1c-0.5,1.1-1,2-1,2
			C357.3,219.4,356.6,218.7,355.8,217.9L355.8,217.9z"/>
		<path style="fill:#CF1126;" d="M363.3,155.4l-2.6,2.7l-2.3-2.3v18.5l4.9,0.1V155.4z"/>
		<path style="fill:#CF1126;" d="M347.4,136.2c-0.5,8.7-2.2,14.8-4.5,21.6l5.5-6.9l3.9,6.1l4.2-6.2l4.3,5.3l4.1-5.5l4.3,6.6l3.7-5.5
			l6.3,6c-2.3-6.7-5.4-12.4-5-21.9C368.1,141.9,353.7,142.9,347.4,136.2L347.4,136.2z"/>
		<path style="fill:#CF1126;" d="M358.5,131.7c-2.2,0.1-4.6,0.1-6.7,0.6c-1.5,0.4-2.8,1-3.9,2.1c0.2,5.7,20.5,8.1,26,0.1
			c-1.1-1.1-2.5-1.8-4.1-2.2c-2-0.5-4.3-0.6-6.4-0.6c0,1.6,0,3.1,0,4.7l-4.9,0V131.7L358.5,131.7z"/>
		<path style="fill:#CF1126;" d="M362.5,102.6l-3.2,0v32.9l3.2,0L362.5,102.6z"/>
		<path style="fill:#CF1126;" d="M362.4,103.5l-1.2,15.8l12.2,7.9l-6.2-11l8.4-3.6L362.4,103.5z"/>
		<path style="fill:#CF1126;" d="M361.1,99.4c-1.8,0-3.2,0.9-3.2,2c0,1.1,1.4,2,3.2,2s3.2-0.9,3.2-2
			C364.3,100.3,362.9,99.4,361.1,99.4z"/>
	</g>
	<g>
		<path style="fill:#F7E017;" d="M355.5,375.9c2-0.9,3.1-2.5,3.9-5.6c0.4-1.5,0.7-3.2,0.6-3.6c-0.2-1-1-0.9-2,0.1
			c-0.6,0.7-0.7,1.1-0.5,2.6c0.5,3.7-0.5,4.7-5.8,5.4c-0.5,0.1-2,0-3.4-0.3c-2.5-0.4-3.4-0.1-2.5,0.9c0.3,0.3,1,0.7,1.6,0.9
			C348.8,376.9,354,376.5,355.5,375.9L355.5,375.9z"/>
		<path style="fill:#F7E017;" d="M366.5,375.3c0.3-0.4,1.3-1,2.3-1.4c1.3-0.5,1.9-1.1,2.5-2.2c1.6-3.1,1.3-5.7-1-9.3
			c-1.2-1.9-1.8-1.9-2.8,0.3c-0.9,1.9-0.8,2,0.4,2.4c0.6,0.2,1.3,0.9,1.6,1.6c1.3,3.1,0.9,5-1,5c-1.8,0-2.3,0.4-2.8,1.9
			c-0.3,0.8-0.5,1.7-0.5,1.9C365.2,376.1,365.9,376,366.5,375.3L366.5,375.3z"/>
		<path style="fill:#F7E017;" d="M362.9,371.8c0.3-1.2,0.5-3.4,0.4-7.9c0-3.4-0.1-6.3-0.2-6.5c-0.3-0.4-1.8,0.9-2,1.7
			c-0.1,0.4,0.1,1.4,0.4,2.2c0.5,1.2,0.5,2.3,0.4,7C361.7,374.1,362,375.1,362.9,371.8L362.9,371.8z"/>
		<path style="fill:#F7E017;" d="M354.4,369c0.2-1.1,0.4-3.4,0.5-5c0.1-1.6,0.4-3.7,0.6-4.6c0.5-2.3,0-2.9-1.4-1.6l-1,1l0.2,3.3
			c0.2,3-0.2,8.6-0.7,10.7c-0.1,0.6,0.1,0.4,0.6-0.5C353.8,371.5,354.3,370.1,354.4,369z"/>
		<path style="fill:#F7E017;" d="M346.9,370.6c1.8-2,1.6-5.5,2-8.3c0-1.9,0.9-4.1,0.3-5.8c-1.7,0.4-2.8,2.6-1.9,4.7
			c0.1,2.5,0,5.2-1,7.4c-0.8,1.4-3.3,1.1-3.2-1c0.6-3.1-2.1-1.6-3.2-0.8c-0.8,0.8-2.6,0.8-2-1.1c-0.4-2.6-2.9-1-4.2-1
			c-1.3,0-0.1-3.4-1.9-2.8c-3.4-0.4-7.2,0-10.1-2.7c-1.7-1.1-1.5-3.9-0.6-5.7c1.1-2.4,1.4-5.5,3.1-7.4c1.7-2.2-1.6-1.2-2.3-0.5
			c-1.6,1.2-0.1,4.3-1.5,6c-0.8,1.8-1.8,4.2-3.6,3.9c-2.6-0.7-4.1-3.9-6-6.1c-1.6-0.4-0.7,3.5,0.1,4.3c1.6,1.6,3.6,2.8,5.5,3.5
			c2-0.4,2,3,3.7,3.6c3.1,1.9,6.5,2.5,9.9,2.7c1.3,0.1,0.6,3.3,2.3,2.7c1,0.3,3.2-0.5,3.3,1c-1.5,2.3,1.4,2.3,2.5,1.9
			c1.4-0.3,3.1-1,3.5,1.5c1.1,1.6,3.2,1.4,4.6,0.5C346.6,370.9,346.8,370.8,346.9,370.6L346.9,370.6z"/>
		<path style="fill:#F7E017;" d="M317.1,350.4c0.6-0.9,1.4-2.8,1.8-4.2c0.5-1.4,1.1-3,1.5-3.5c0.9-1.3,0.4-2-1-1.6
			c-0.8,0.2-1.1,0.6-1.2,1.5c-0.4,2.8-1.2,5.7-1.9,7.1c-1.2,2.4-1.3,2.5-0.8,2.5C315.8,352.1,316.5,351.3,317.1,350.4L317.1,350.4z"
			/>
		<path style="fill:#F7E017;" d="M298.3,334.7c-1.4,0-1.5,1.2-0.1,1.8c0.7,0.3,1.2,1,1.7,2.3c1.3,3.5,2.1,4.2,5.6,4.6l2.3,0.3
			l0.1,1.8c0.1,1,0.2,1.9,0.4,1.9s1-0.5,1.9-1.1c1.7-1.1,3.2-3.7,3.2-5.4c0-1.1-1.3-2.2-2.5-2.2c-0.5,0-1.6,0.6-2.4,1.4
			c-2.5,2.4-5.2,1.9-6.7-1.2C300.7,336.2,299.4,334.7,298.3,334.7L298.3,334.7z M310.6,341.2c0.7,0,0.8,0.7,0.5,1.9
			c-0.2,0.9-1.1,0.9-1.3,0C309.4,342.2,309.8,341.2,310.6,341.2L310.6,341.2z"/>
		<path style="fill:#F7E017;" d="M405.4,337.1c-0.9,0-1.2,0.3-1.8,1.5c-1,1.9-1,6-0.2,7.4c0.5,0.9,0.6,0.9,1.8,0.3
			c1.6-0.9,1.9-0.9,1.9,0.3c0,2.9-3.2,8.6-6.5,11.6c-0.9,0.8-1.7,1.7-1.8,2c-0.2,0.8,1,0.7,2.5-0.4c2.1-1.4,4.8-5.1,5.9-8
			c0.9-2.3,1-3.1,1.1-7.1c0.1-3.7,0-4.8-0.5-6.1c-0.5-1.4-0.7-1.5-2-1.5C405.7,337.1,405.6,337.1,405.4,337.1L405.4,337.1z
			 M405.5,339.7c0.7,0,0.8,0.2,0.9,1.5c0.1,1.1-0.1,1.8-0.5,2.3c-0.6,0.7-0.7,0.7-1.2-0.4C403.9,341.6,404.4,339.7,405.5,339.7
			L405.5,339.7z"/>
		<path style="fill:#F7E017;" d="M390.4,368.2c2.9-1.9,4.6-4.1,5.8-7.2c0.5-1.5,1-2.9,1-3.1c0-0.5-1.4-1.4-2.3-1.4
			c-0.9,0-1-0.8-0.7-3c0.4-2.1-0.1-4.8-0.8-4.8c-0.3,0-0.7,0.5-1,1.1c-0.5,0.9-0.5,1.3-0.1,2.7c0.5,2,0.1,3.5-1.3,4.8
			c-0.6,0.6-1,1.3-1,2c0,0.6,0.1,1.1,0.1,1.1c0.1,0,0.8-0.5,1.6-1.1l1.5-1.1l0.9,0.9c0.5,0.5,0.9,1.3,0.9,1.8c0,2.4-5.1,6.4-8.6,6.7
			c-1.9,0.2-2.2,0.1-2.8-0.7c-0.5-0.7-0.7-1.3-0.5-2.1c0.1-0.6,0.3-1.8,0.4-2.6c0.3-2.1-0.3-1.8-1.5,0.6c-0.9,2-1.2,4.1-0.7,5.2
			c0.4,0.9,3.3,1.8,5.4,1.6C387.7,369.5,389,369.1,390.4,368.2L390.4,368.2z"/>
		<path style="fill:#F7E017;" d="M409.9,353.7c1.8-2.4,2.6-5.4,2.6-10l0-3.5l1.5-1c2-1.3,3.8-3.7,3.8-5.1c0-1.4-0.5-1.4-1.3,0.2
			c-0.6,1.1-1.5,1.8-4.5,3.7c-0.8,0.5-0.8,0.7-1,5c-0.2,5-0.7,6.8-2.8,10.2c-1.3,2.1-1.3,2.3-0.4,2.3
			C408.2,355.5,409.1,354.7,409.9,353.7z"/>
		<path style="fill:#F7E017;" d="M389.8,350.9c0.2-0.7-0.8-1.2-1.3-0.6c-0.2,0.2-0.2,0.7-0.1,0.9
			C388.7,351.8,389.6,351.6,389.8,350.9L389.8,350.9z"/>
		<path style="fill:#F7E017;" d="M417.5,341.3c0.2-0.7-0.8-1.2-1.3-0.6c-0.2,0.3-0.2,0.7-0.1,1C416.4,342.3,417.3,342.1,417.5,341.3
			L417.5,341.3z"/>
		<path style="fill:#F7E017;" d="M384.2,315.5c-0.7,0.5-1.1,1.5-1.6,2.3c-0.4,0.3-0.1,0.6,0.1,0.9c1.3,1.8,1.8,4.3,2.4,6.5
			c0.6,2.7,1.3,5.6,0.7,8.4c-0.2,1.1-0.9,2.2-1.8,1.8c-1.5-0.1-3-0.7-4.5-0.6c-1.4,0.1-2.4,1.7-3.8,1.6c-0.9,0.1-0.8-2.4-1.7-1.7
			c-0.4,1.3-0.2,2.7-0.3,4.1c0.2,0.2,0.6,0,0.8,0.1h2.7c0.2,1.3,0.2,2.7,0.8,3.7c0.9,0.4,2,0.1,2.9-0.4c1-0.6,1.1-2.1,1.4-3.3
			c0.3-1.3,1.6-1,2.3-1.5c1.8-0.7,3-3.3,2.9-5.8c-0.1-3.8-1.2-7.4-2-11c-0.4-1.6-0.7-3.2-1.2-4.8
			C384.4,315.6,384.3,315.5,384.2,315.5L384.2,315.5z M379.7,337.3c1-0.1,1.5,1.6,1.2,2.7c-0.4,1.5-1.8,0.5-2-0.5
			C378.4,338.5,378.7,337.2,379.7,337.3L379.7,337.3z"/>
		<path style="fill:#F7E017;" d="M342,324.8c-0.5,0-1,0.2-1.5,0.7c-2.7,2.5-3.3,5.4-1.5,6.6c1.3,0.8,1,1.8-1.1,3.2
			c-3,2-5.6,1.7-10.6-1c-1.2-0.7-1.5-0.4-1.3,1.1c0.3,1.5,1.3,2.3,3.8,3c2.7,0.8,6,0.6,8.1-0.6c1-0.6,2.2-1.8,3.3-3.3l1.6-2.4
			l1.9,0.3c2.3,0.4,2.4,0.4,2.4,1.9c0,1.2,0,1.2,2.2,1.5c1.2,0.2,2.8,0.3,3.5,0.3c0.9,0,1.5,0.2,1.8,0.8c0.4,0.8,0.7,0.8,4.2,0.4
			c3.3-0.4,3.9-0.4,5.4,0.3c1.1,0.5,2.2,0.7,3.1,0.5c2.5-0.4,6-3.1,6.5-5.1c0.1-0.2,1-0.7,2-1c2.5-0.7,2.7-1.4,0.3-1.8
			c-1-0.2-2.6-0.7-3.4-1.1c-0.9-0.5-2-0.8-2.6-0.8c-1.3,0-2.5,1.1-2.5,2.2c0,0.7,0.2,0.8,1.7,0.6c1.4-0.2,1.8-0.1,2.6,0.7
			c0.5,0.5,0.8,1.1,0.7,1.4c-0.3,0.7-3.3,2.5-4.6,2.8c-0.9,0.2-1.6,0.1-2.3-0.4c-1.2-0.8-2.9-0.9-3.2-0.2c-0.1,0.3-0.5,0.1-1-0.5
			l-0.8-1l-1.8,1c-1.8,1-2.5,1-2.5-0.2c0-0.5-0.5-0.6-3.2-0.4c-2.9,0.3-3.2,0.2-3.8-0.6c-0.5-0.7-0.5-1-0.2-1.8c0.3-0.7,0.3-1,0-1.4
			c-0.3-0.4-0.7-0.4-1.9,0c-2.9,1-3.7,0.5-3.7-2.6C343.8,325.9,343,324.8,342,324.8L342,324.8z M341.2,327.6c0.2,0,0.3,0.1,0.5,0.4
			c0.3,0.3,0.4,0.9,0.3,1.3c-0.3,0.9-1.5,0.9-1.8,0c-0.1-0.4,0-0.9,0.4-1.3C340.9,327.7,341.1,327.6,341.2,327.6L341.2,327.6z"/>
		<path style="fill:#F7E017;" d="M336,330.4c1.8-1.5,1.7-1.4,2-5.5c0.2-2.9,0.1-3.1-0.5-3.1c-0.9,0-1.3,1.3-1.3,3.7
			c0,1.5-0.2,2.2-0.8,3.1c-1.5,2-5.1,1.1-5.6-1.4c-0.2-0.8,0-1.6,0.8-3c1.6-3,1.2-3.8-0.7-1.5c-1.3,1.6-1.6,1.6-1.3,0.3
			c0.2-1.2-0.3-1.7-1.4-1.4c-0.6,0.2-0.9,0.7-1,1.6c-0.1,0.9-0.4,1.4-1,1.6c-0.9,0.3-2.4-0.8-2.4-1.8c0-0.7,2.3-4.4,5.2-8.4
			c1.1-1.5,2-2.9,2-3.1c0-0.2-0.6-0.4-1.3-0.4c-1,0-1.3,0.2-1.3,0.8c0,0.4-1.5,3-3.2,5.7c-3.7,5.6-4,6.8-2.2,8.3
			c1.5,1.2,3.4,1.1,4.9-0.2l1.2-1.1v2c0,2.5,0.4,3.5,1.9,4.5C331.9,332.1,334.2,332,336,330.4L336,330.4z"/>
		<path style="fill:#F7E017;" d="M414.3,295.8c-1.4,1.1-0.3,3.4-0.1,5c-0.6,2.1-2.6,2.7-4.1,3.1c-2.1,0.5-3.6,2.8-4.4,5.3
			c-0.4,1.6-1.5,4.1-2.6,1.7c-1-1.3-2.8-2.4-4-0.8c-0.9,1.1-1.1,2.8-1.4,4.3c-0.5-1.2-0.8-2.9-1.9-3.2c-1.8,0.3-1.1,3.3-0.3,4.5
			c0.8,1.4,1.5,3.3,0.7,5c-0.7,2-2.9,3.4-4.2,1.7c-1.2-0.9-0.4-4-1.6-4.1c-0.6,0.6-0.7,3.8-1.6,2.1c-0.7-1.5-0.3-3.6-1.2-4.9
			c-1,0.2-1.8,2.5-1.5,3.7c1.3,2.4,1.9,5.4,2.4,8.3c0.3,1.2,0,3.5,0.8,3.9c0.6-1.9,0-4,0.5-5.8c1.3-0.2,2.8,0.6,4.1,0.2
			c2-0.3,3.5-2.6,4.2-4.9c0.2-1.8,0-3.6-0.1-5.3c1.6,0.3,3.2,0.3,4.7,1c0.7,1.5-0.2,3.6-0.4,5.3c-0.8,3.4-2.8,5.8-4.7,8.1
			c-0.8,0.6-0.9,2.3,0.3,1.4c2.6-1.5,4.5-4.6,5.6-8c0.8-2.6,0.2-5.5,0.7-8.2c0.8-2,2.7-1.6,4.1-1.6c1.4-0.1,2.7-2.3,2.2-4.2
			c-0.5-2.2,1.3-3.2,2.4-4c1.6-1,2.7-3.2,2.6-5.6C415.5,298.2,415.6,295.9,414.3,295.8L414.3,295.8z M408.8,308.3
			c1.7,0.6-0.3,4.8-1.2,2.1C407.4,309.4,408,308.3,408.8,308.3z M401.1,311.3c2.2-0.2,1.4,4.1-0.4,2.1
			C399.7,312.8,400,311.3,401.1,311.3z"/>
		<path style="fill:#F7E017;" d="M322.5,327.7c0.1-0.4-0.1-0.7-0.4-0.7c-0.6,0-1,0.7-0.7,1.3C321.8,328.9,322.4,328.5,322.5,327.7
			L322.5,327.7z"/>
		<path style="fill:#F7E017;" d="M348,323.9c0-0.6-0.2-0.9-0.6-0.8c-0.9,0.2-0.9,1.7-0.1,1.7C347.8,324.8,348,324.5,348,323.9z"/>
		<path style="fill:#F7E017;" d="M316.5,303.5c-1-0.3-1.7,0.9-2,2c-0.8,1.7-1.7,3.4-3,4.3c-1,0.4-2-0.1-2.9-0.8
			c-1-0.7-0.8-2.3-1.2-3.4c-0.7-0.8-2,0.3-2,1.5c-0.1,1.6,1,2.5,2,3.1c0.8,0.6,1.9,1,2.2,2.3c0,1.1,0.3,2.4,1.3,1.9
			c1.1,0,1.4,1.8,1,2.9c-0.5,1.2-0.8,2.7-0.6,4.1c0.5,0.6,1.1-1,1.5-1.5c0.3-0.5,0.5-0.9,0.8-1.4c2,0.1,4,0.5,6,0.4
			c1.4,0,2.6-1.2,3.5-2.6c1.3-1.8,2.3-3.9,3.8-5.4c1-0.3,0.5-3-0.6-2.2c-1,0.5-1.3,2-2,2.9c-1.2,1.9-2.3,3.8-3.8,5.2
			c-1.1,0.6-2.3,0.3-3.4,0c-0.5-0.5,0.9-1,1.1-1.6c0.6-0.8,1.4-1.6,1.7-2.7c-0.3-1-1.4-1.1-2.2-1.1c-1.8,0.3-3.3,2.4-5.1,2.6
			c-1.4,0.1-0.7-2,0-2.7c1.2-2,2.6-3.8,3.9-5.7c0.4-0.6,1.7-1.2,0.9-2C317.2,303.5,316.8,303.5,316.5,303.5L316.5,303.5z
			 M317.4,313.5c0.9,0.7-0.6,1.8-1.2,1.7c-0.8,0.3-0.9-0.8-0.1-1C316.5,313.9,316.9,313.6,317.4,313.5L317.4,313.5z M314.6,316.1
			c0.5,0,1.6,0.7,0.6,1.1C314.4,318,313.6,316.4,314.6,316.1z"/>
		<path style="fill:#F7E017;" d="M337.1,317.8c0-0.9-1.3-0.8-1.4,0.1c-0.1,0.6,0.1,0.8,0.6,0.6C336.7,318.5,337.1,318.2,337.1,317.8
			z"/>
		<path style="fill:#F7E017;" d="M393.1,311.2c0.1-0.9-0.8-1.5-1.3-0.8c-0.5,0.7,0,1.9,0.6,1.7C392.7,312,393,311.6,393.1,311.2
			L393.1,311.2z"/>
		<path style="fill:#F7E017;" d="M305.9,302.1c0.9-1,0.9-1.1,0.5-3.3c-0.5-3.1-0.5-3.4,0.4-3.7c1.1-0.4,4,1.7,4.6,3.3
			c0.5,1.3,0.5,1.3-0.4,2.4c-0.9,1.1-0.9,2.4,0,2.4c0.7,0,2.8-2.6,2.8-3.5c0-1.3-2.3-4.3-4.1-5.4c-1.1-0.7-2.2-1-3.5-1
			c-2.3,0-2.6,0.7-2,4.2c0.7,4.2-0.3,4.7-2.8,1.6c-1.9-2.3-2.6-4.8-2.6-8.6c0-4.1,1.2-6.1,3.8-6.6c1.8-0.3,1.7-0.9-0.1-1.2
			c-2.6-0.5-4.9,1.8-5.7,6c-0.9,4.7,1.2,10.4,5,13.3C303.9,303.4,304.7,303.4,305.9,302.1z"/>
		<path style="fill:#F7E017;" d="M410.3,296.9c0.2-0.3,0.4-0.9,0.4-1.4s0.4-1.6,0.8-2.4c0.5-0.8,0.8-1.6,0.8-1.8
			c0-0.8-1-0.8-1.8,0.1c-0.8,0.9-1.4,0.9-1.4,0c0-0.2,0.4-0.6,0.9-0.9c1.2-0.8,1.3-1.5,0.3-2.2c-1.3-0.8-2.6,0.6-2.7,3
			c-0.1,1.6,0,1.8,0.9,2.6c0.8,0.7,1,1,0.8,1.9C409.1,297.4,409.6,298,410.3,296.9L410.3,296.9z"/>
		<path style="fill:#F7E017;" d="M420.1,295.5c0.7-0.9,1.3-1.8,1.3-2.2s0.6-1.2,1.4-1.9c2.2-2.1,2.6-4.2,1.7-7.4
			c-0.4-1.3-1.6-3-4.1-6.1c-2-2.4-3.8-4.3-4-4.3c-0.7,0-0.6,3.4,0.1,3.7c1.3,0.5,2.1,1.2,4.1,3.7c2.3,2.8,3.4,5.5,2.8,6.9
			c-0.6,1.4-1.3,1-3.4-2c-1.1-1.6-2.2-2.8-2.4-2.8c-0.2,0-0.4,0.6-0.4,1.4c0,1,0.4,1.9,1.5,3.5c1.7,2.6,1.9,4.1,0.6,5.5
			c-0.5,0.5-1,0.9-1.1,0.9c-0.1,0-0.5-0.8-0.9-1.7c-0.7-2-5.2-8.3-5.9-8.3c-0.3,0-0.5,0.5-0.5,1.5c0,1.2,0.2,1.6,0.9,2.1
			c0.9,0.6,3.1,3.6,5.3,7.1c0.6,1,1.2,1.8,1.4,1.8C418.7,297,419.4,296.3,420.1,295.5L420.1,295.5z"/>
		<path style="fill:#F7E017;" d="M424.5,278.7c-0.3-1.2-6.3-9.5-6.9-9.5c-0.3,0-0.4,0.5-0.3,1.8c0.1,1.6,0.2,1.9,1,2.1
			c0.5,0.2,2.1,1.8,3.5,3.7c1.4,1.8,2.6,3.2,2.8,3.1C424.7,279.9,424.7,279.3,424.5,278.7L424.5,278.7z"/>
		<path style="fill:#F7E017;" d="M388.8,371.3c0,0.6-0.4,1.1-0.9,1.1c-0.5,0-0.9-0.5-0.9-1.1s0.4-1.1,0.9-1.1
			C388.4,370.2,388.8,370.7,388.8,371.3z"/>
		<path style="fill:#F7E017;" d="M391.9,369.9c0,0.6-0.4,1.1-0.9,1.1c-0.5,0-0.9-0.5-0.9-1.1s0.4-1.1,0.9-1.1
			C391.5,368.8,391.9,369.3,391.9,369.9z"/>
	</g>
</g>
</svg>
