<?xml version="1.0" encoding="utf-8"?>
<!-- Generator: Adobe Illustrator 25.2.1, SVG Export Plug-In . SVG Version: 6.00 Build 0)  -->
<svg version="1.1" id="Layer_1" xmlns="http://www.w3.org/2000/svg" xmlns:xlink="http://www.w3.org/1999/xlink" x="0px" y="0px"
	 viewBox="0 0 720 480" style="enable-background:new 0 0 720 480;" xml:space="preserve">
<g>
	<rect style="fill:#FFD520;" width="720" height="480"/>
	<path style="fill:#FF4E12;" d="M0,480h720V0L0,480z"/>
	<g>
		<g>
			<path style="fill:#FFFFFF;stroke:#000000;stroke-width:0.5208;" d="M385.4,150.1c-4-1.4-6.6,0.6-6.4,5.8c0.1,5.2,2.8,8.1,6.8,6.2
				L385.4,150.1L385.4,150.1z"/>
			<path style="fill:#FFFFFF;stroke:#000000;stroke-width:0.5208;" d="M388.9,140.4c-3.3-2.6-6.4-1.5-8,3.4c-1.5,4.9,0.1,8.6,4.5,8
				L388.9,140.4L388.9,140.4z"/>
			<path style="fill:#FFFFFF;stroke:#000000;stroke-width:0.5208;" d="M394.4,131.1c-2.9-3.1-6.1-2.5-8.4,2.1
				c-2.3,4.6-1.3,8.5,3.1,8.7L394.4,131.1L394.4,131.1z"/>
			<path style="fill:#FFFFFF;stroke:#000000;stroke-width:0.5208;" d="M390.8,176.5c-4.9,1.8-5.4,8.5-2.3,12.6
				c3.1,4.1,8.8,4.9,11.8,0L390.8,176.5L390.8,176.5z"/>
			<path style="fill:#FFFFFF;stroke:#000000;stroke-width:0.5208;" d="M385.1,162.3c-4.6-1.5-8.8,4.7-9.5,10.3
				c-0.9,7.1-10.9,9.4-5.4,20.1c1.2-6.8,5.7-10.6,9.3-10.8c3.6-0.3,9-1,11.3-5.4L385.1,162.3L385.1,162.3z"/>
			<path style="fill:#FFFFFF;stroke:#000000;stroke-width:0.5208;" d="M399.8,189.9c-5.4,1.3-6.2,8.5-2.3,13.7
				c3.3,4.4,13.7,3.3,13.4-1L399.8,189.9L399.8,189.9z"/>
			<path style="fill:#FFFFFF;stroke:#000000;stroke-width:0.5208;" d="M415.1,233.3c0.3-4.6-7.2-6.4-10.8-5.5
				c-3.6,0.9-10.5-0.1-12.1-4c-1.3,3.1,0.6,6.4,5.8,8.1c3.9,1.3,3.9,4.1,2.7,5.4C403.7,237.8,412.4,237.8,415.1,233.3L415.1,233.3z"
				/>
			<path style="fill:#FFFFFF;stroke:#000000;stroke-width:0.5208;" d="M410.9,203.6c-5.3-2.3-8.4,1.2-10.4,4.6
				c-3,5-12.1-1.4-15.2,5.3c4.2-1.8,8.4,2,10.4,3.3c5.7,3.7,16.6,2.6,18.2-6.2L410.9,203.6L410.9,203.6z"/>
			<path style="fill:#FFFFFF;stroke:#000000;stroke-width:0.5208;" d="M414,209.8c-5.3,4-7.3,8.8-7.2,12c0.1,3.2,4.6,10.3,9.5,10.7
				C419.1,226.7,420.6,214.5,414,209.8L414,209.8z"/>
			<path style="fill:#FFFFFF;stroke:#000000;stroke-width:0.5208;" d="M392.1,234.7c0-1.9,2.8-2.7,4.8-2.1c1.9,0.6,4.9,2.6,3.9,4.6
				L392.1,234.7L392.1,234.7z"/>
			<path style="fill:#FFFFFF;stroke:#000000;stroke-width:0.5208;" d="M363,224.1c-0.5-2.3,3.2-6.3,8.2-4.1c5,2.2,5.7,6.4,3.6,8.1
				L363,224.1L363,224.1z"/>
			<path style="fill:#FFFFFF;stroke:#000000;stroke-width:0.5208;" d="M375.2,228.4c-0.4-1.3,3.2-3.9,9.4-2.3
				c6.2,1.5,7.7,5.5,7.5,8.6L375.2,228.4L375.2,228.4z"/>
			<path style="fill:#FFFFFF;stroke:#000000;stroke-width:0.5208;" d="M362.3,224.1c3.2-2.4,2-7.1-0.9-8.5
				c-5.3-2.6-3.3-9.3-6.7-10.6c-3.3-1.3-6.6-3.6-6.7-5.9c-1.7,3.2-0.6,6.2,1.7,8.2c2.3,2.1-1.8,10.4,1.2,12.6L362.3,224.1
				L362.3,224.1z"/>
			<path style="fill:#FFFFFF;stroke:#000000;stroke-width:0.5208;" d="M293.3,222.3c-2.7-4.2-9.1-3.5-11.8-0.5
				c-2.7,3-2.3,7.3,0.3,9.3L293.3,222.3L293.3,222.3z"/>
			<path style="fill:#FFFFFF;stroke:#000000;stroke-width:0.5208;" d="M308.8,216c-1-5.7-7.9-6.3-11.6-4.9
				c-3.7,1.4-6.3,7.1-3.9,11.2L308.8,216L308.8,216z"/>
			<path style="fill:#FFFFFF;stroke:#000000;stroke-width:0.5208;" d="M319.1,215.2c2.4-4.8-2.3-11.8-7.7-12.9
				c-4.5-0.9-9.9-0.8-11.6-5.3c-1.1,3.9,1.8,6.3,5.2,8.5c3.3,2.2-0.6,7.9,4.8,11.1L319.1,215.2L319.1,215.2z"/>
			<path style="fill:#FFFFFF;stroke:#000000;stroke-width:0.5208;" d="M318.6,215.4c-1.1-3.4,1.2-8,5.8-7.6c4.6,0.3,7.3,3.7,5.2,7.9
				L318.6,215.4L318.6,215.4z"/>
			<path style="fill:#FFFFFF;stroke:#000000;stroke-width:0.5208;" d="M328.9,215.7c-0.6-3.5,2.3-7.7,6.8-6.7c4.5,1,6.7,4.7,4.1,8.5
				L328.9,215.7L328.9,215.7z"/>
			<path style="fill:#FFFFFF;stroke:#000000;stroke-width:0.5208;" d="M339.1,217.3c-0.5-3.6,2.6-7.6,7.1-6.4c4.5,1.2,6.4,5,3.6,8.7
				L339.1,217.3L339.1,217.3z"/>
			<path style="fill:#FFFFFF;stroke:#000000;stroke-width:0.5208;" d="M261.4,276.3c-8.6,0-10.7,2.1-12,10.9
				C247.9,298.3,262.9,299.6,261.4,276.3z"/>
			<path style="fill:#FFFFFF;stroke:#000000;stroke-width:0.5208;" d="M265.2,264.7c-13.3-5-20.5,16-33.6,12.2
				c4.7,7.5,16.1,0,20.3,0.8C259.2,279,274.8,276.3,265.2,264.7L265.2,264.7z"/>
			<path style="fill:#FFFFFF;stroke:#000000;stroke-width:0.5208;" d="M256.6,293.4c-6.6-3-13.7,7.1-12.4,11.5
				C245.9,310.4,260.9,305.9,256.6,293.4z"/>
			<path style="fill:#FFFFFF;stroke:#000000;stroke-width:0.5208;" d="M226,336.7c3.6,1,8,3.1,7.2,10c-0.8,7-13.9,21.1-25.8,21.9
				c-11.8,0.8-16.1,15.1-26.3,11.1c9.5-1.8,9.5-12.6,17-16c-5.4-1.9-8.2,10.3-15.2,10.3c-7,0-10.3,11.1-18.8,10.3
				c-8.5-0.8-9.4,13.5-26.4,13.7c-13,0.1-29.1,15.3-34.9,8.8c12.6-1.8,17.7-8.8,25.2-16.5c12.1-12.4,25.8-6.8,30.4-17.8
				c-5.5,3.7-12,5.5-18.3,5.4c-7.9-0.2-16.6,12.6-25.5,7c5.2-0.6,8.5-2.8,13.9-8.5c5.5-5.8,13.7-2.1,20.1-8
				c10-9.3,18.7-1.5,28.3-13.1c-2.7-1.3-8.5-0.4-13.9,2.4c-5.4,2.8-12.4-1.9-18.5,1.4c0.8-7.6,15.2-3.2,24.2-8.5
				c10.2-5.9,18.6-4.2,26.7-3.5c-11.2-0.1-15.6-10.7-31-7.6c-6.7,1.3-12.1-9.3-18.8-3.9c0.2-4,7.2-7.2,14.4-3.3
				c7.2,3.9,10.1-3.4,24.5,5.7c5.9,3.7,16.1-2.3,22.5,1.7c-0.8-2.4-4.5-4-8.8-3.7C200.9,330.4,218.4,331.1,226,336.7L226,336.7z"/>
			<path style="fill:#FFFFFF;stroke:#000000;stroke-width:0.5208;" d="M237.4,328.3c-5.7-4.4-13.5,0.9-18.9-1.2
				c0,3.6,1.8,9,7.7,11.1C228,336.9,236.1,329.8,237.4,328.3L237.4,328.3z"/>
			<path style="fill:#FFFFFF;stroke:#000000;stroke-width:0.5208;" d="M246.3,315.8c-8.9-4.5-10.4,6.7-17.4,4.4
				c0.3,3.2,2.8,7.2,8.5,8.1L246.3,315.8L246.3,315.8z"/>
			<path style="fill:#FFFFFF;stroke:#000000;stroke-width:0.5208;" d="M251.6,305.6c-13.1-5.2-14.8,7.5-22.5,5
				c1.8,4.4,12.9,6.7,18.5,5.2L251.6,305.6L251.6,305.6z"/>
			<path style="fill:#FFFFFF;stroke:#000000;stroke-width:0.5208;" d="M269.6,250.4c-3.5-4.9-10.8-0.9-12,4.9
				c-1.2,5.8,1.7,13.9,6.6,12.1L269.6,250.4L269.6,250.4z"/>
			<path style="fill:#FFFFFF;stroke:#000000;stroke-width:0.5208;" d="M278.5,234.9c-6.1-1.4-13-0.8-12.2,5.2c-2.3,1-3,8.6,3.3,10.3
				L278.5,234.9L278.5,234.9z"/>
			<path style="fill:#FFFFFF;stroke:#000000;stroke-width:0.5208;" d="M282.5,230.9c-5.9-7-12.5-6.8-16.2-3.9
				c-6.8,5.4-13.5,2.3-13.7,7.7c4.1-3.2,7.7,0.6,11.1-0.5c3.3-1.2,5.8,5.3,15.1,2.6L282.5,230.9L282.5,230.9z"/>
			<path style="fill:#FFFFFF;stroke:#000000;stroke-width:0.5208;" d="M268.2,334.9c0.9,1.7,6.4,2.4,9.1-0.4
				c3.6-3.8-0.4-14.2-6.1-14.9C265.6,318.8,265.1,331.3,268.2,334.9L268.2,334.9z"/>
			<path style="fill:#FFFFFF;stroke:#000000;stroke-width:0.5208;" d="M261.8,335.1c8.1,3,11.6-3.7,7.2-8
				C267.8,328.6,263.6,333.7,261.8,335.1z"/>
			<path style="fill:#FFFFFF;stroke:#000000;stroke-width:0.5208;" d="M231.4,346.2c-1.5,4.6-9.5,5.4-18.5,19.8
				c-9,14.4-17.6,8.4-19.8,18.3c10.8-8.8,19.3-2.9,25.8-11.6c9.8-13.1,17.8-11.3,21.6-20.1c5.4-12.6,29.1-12.4,30.4-32.2
				C262.8,318.9,237.5,340.3,231.4,346.2L231.4,346.2z"/>
			<path style="fill:#FFFFFF;stroke:#000000;stroke-width:0.5208;" d="M434.6,151.5c10.3,3.3,10.6,16.7,22.4,21.1
				c11.9,4.4,13,14.9,22.7,12.4c-9-2.4-8.4-12.9-17.8-15.5c-11-3-15.2-19.8-24-22.4"/>
			<path style="fill:#FFFFFF;stroke:#000000;stroke-width:0.5208;" d="M481.9,221.4c1.8,4.1,1.5,11.5-4.9,13.4
				c3.5,2.2,8.6,0.1,11.5-4.6c-4.2,9.4-1.4,17.9,5.3,19.6c-3.2-6.6,4-9.7,1.7-13.9c4.2,1.8,8,7.6,7.9,11.2
				c5.5-6.2-4.1-14.4-2.3-20.2L481.9,221.4L481.9,221.4z"/>
			<path style="fill:#FFFFFF;stroke:#000000;stroke-width:0.5208;" d="M415.1,287.6c-6.3-5.5-9,1.4-12.1-1c-2.9-2.3-6.8-2.6-8.2-0.3
				c5.4,0.2,2.8,4.4,13.3,5.4c-10.5,0.7-8.6,12.4-15.6,11.8c7.5,7.1,11.3-6.3,17.4-4.1c-1.8,0.5,2.8,4.8-0.4,10.4
				c5.2-0.1,7.3-7.3,8-11.1L415.1,287.6L415.1,287.6z"/>
			<path style="fill:#FFFFFF;stroke:#000000;stroke-width:0.5208;" d="M276.2,347.8c-2.3-1.9-9-2.8-11.6-1.3
				c-2.6,1.5-1.7,1.9,1.4,2.2c3.1,0.3,7.1,5.3,0.4,5.5c-3.1,0.1-2.1,7.6-8.5,8.1c2.6,3.2,10.2,1.1,12.9-2.4c-0.5,2.9,3.3,5.5,1.8,9
				c4.8,0.5,2-9.7,9.5-9.1c-3.1,0.4-1.8,7.3,3.6,5.5c-3.2,1.5-1.5,5.3,2.1,4.4c-2.3,0.8-3.1,3.7,0.1,5.4
				C291,370.8,287.5,355.6,276.2,347.8L276.2,347.8z"/>
			<path style="fill:#FFFFFF;stroke:#000000;stroke-width:0.5208;" d="M556.7,205.7c9.9,0,17.8-8,17.8-17.8c0-9.9-8-17.8-17.8-17.8
				c-9.9,0-17.9,8-17.9,17.8C538.8,197.7,546.8,205.7,556.7,205.7z"/>
			<path style="fill:#FFFFFF;stroke:#000000;stroke-width:0.5208;" d="M463.4,227.2c5.4-5.2,13.7-7.7,19.3-3.9
				c5.7,3.9,24.5,8.5,33.7,2.1c9.3-6.4,13.7-9.8,17.8-9c3.1,4.6,6.8,6.8,11.5,7.2c1.4,1.5,6.4,2.8,9.3,2.4c4.1,1,9.1-0.3,13.1-4.6
				c6.2,0.9,12-3.7,14.2-10.7c6.6-0.8,7-8.1,2.8-13c-3.9-0.8-0.9-13.8-14.9-11.2c5.9,3.6,1.4,10.8,6.3,14.2c-3.3,0-7.7,1.4-8.7,6.4
				c1.3-3.5-0.2-5.8-1.1-6.6c0.1-3-6.4-10.2-12.6-7.6c4.4,1,1.9,8.1,5.2,10.8c-2.3,0.1-4.8,1.3-6.2,3.3c-1.7-3-7.6-6.1-11.2-6.3
				c0-1-0.2-3.1-0.6-4.1c-1.6-3.1-3-6.8-2.3-11.5c-3.1,3.3-5.7,8-7.2,11.3c-4.9-3.3-17,1.5-22.7,2.8c-5.7,1.3-24.7-1.8-29.1-6.4
				c-4.4-4.6-12.9-7.5-20.9-9.8c-11-3.2-11.1-15.2-23.2-23.4C435.6,174.7,458.3,222.1,463.4,227.2L463.4,227.2z"/>
			<path style="fill:#FFFFFF;stroke:#000000;stroke-width:0.5208;" d="M337.2,341.1c9.5,0,17.3-7.7,17.3-17.3s-7.7-17.3-17.3-17.3
				s-17.3,7.7-17.3,17.3C320,333.3,327.7,341.1,337.2,341.1L337.2,341.1z"/>
			<path style="fill:#FFFFFF;stroke:#000000;stroke-width:0.5208;" d="M296,327.8c3.5,4.5,9.4,4.3,11.8,3.9
				c2.1,5.4,8.6,5.3,11.5,8.2c2.8,3,12.5,2.7,15.3,1c-2.6-0.3-5.9-1.8-9.1-4.5c-3.9-3.3-2.1-9.8-5.2-12.1c2.3-2.6,2.7-6.8,2.2-8.5
				c2.4-1.4,4.2-3.7,4.5-4.9c4.3-0.3,8-2.4,9.5-4.1c2.2,2.1,7.7-0.6,10.7,2.8c0.6-8.5-7.5-13-12.9-10.2c-2.2-1.2-8-0.4-9,1.2
				c-1.8-0.8-6.8,1.8-9.1,3.5c2.6-1.4,3-5.7,1.9-7.2c2.2-0.9,4.6-3.9,4.9-6.1c3.1,0.5,7.7-1.5,9.8-1c-3.3-4.4-8.9-5.9-14.6-5.5
				c-5.9,0.3-8.4,4.4-9.1,8.9c-3.5,2.1-4.6,9-3.3,11.5c-2-0.1-3.9,1.9-4.6,3c-2.7-1.2-6.6-2-9.3-2"/>
			<path style="fill:#FFFFFF;stroke:#000000;stroke-width:0.5208;" d="M293.1,298.6c-1.2-3.3,0.4-6.4,1.2-9c2-6.8,0.8-8.5-5.3-7.6
				C288.4,285.2,291.5,295.7,293.1,298.6L293.1,298.6z"/>
			<path style="fill:#FFFFFF;stroke:#000000;stroke-width:0.5208;" d="M288.6,282.3c1.5,1.5,7,2.3,7.6-2.6c0.7-5.6-1.6-7.8-6.5-5.6
				C289.3,275.4,288.9,280.7,288.6,282.3L288.6,282.3z"/>
			<path style="fill:#FFFFFF;stroke:#000000;stroke-width:0.5208;" d="M289.8,273.9c2.1,0.8,6.5,2.5,9-2.3c2.1-4-0.6-7.1-4.9-6.8
				C292.8,266,290.7,270.1,289.8,273.9L289.8,273.9z"/>
			<path style="fill:#FFFFFF;stroke:#000000;stroke-width:0.5208;" d="M293.6,264.4c0.5,1.5,5.8,6.7,9.7,3c3.9-3.7,3.9-9.3-1.9-11.3
				C299.8,256.3,295.1,261.7,293.6,264.4L293.6,264.4z"/>
			<path style="fill:#FFFFFF;stroke:#000000;stroke-width:0.5208;" d="M301.3,256.1c1.2,3.2,4.8,8.8,11.5,6.2
				c6.7-2.6,3.9-10.9,0.8-12.6C311.7,249.8,304.4,253.1,301.3,256.1L301.3,256.1z"/>
			<path style="fill:#FFFFFF;stroke:#000000;stroke-width:0.5208;" d="M313.5,249.6c-0.5,2.8,0,10.6,9.1,10.4
				c9.1-0.1,6.6-10.8,4.2-12.4C323.2,247.7,316.9,247.8,313.5,249.6L313.5,249.6z"/>
			<path style="fill:#FFFFFF;stroke:#000000;stroke-width:0.5208;" d="M327.3,248.1c-1,2.2-3.4,16.6,14.6,12.6
				C344.2,260.2,350.2,246.9,327.3,248.1z"/>
			<path style="fill:#FFFFFF;stroke:#000000;stroke-width:0.5208;" d="M337.1,249.4c-1.8,1.8,2.8,16.4,14.9,13.9
				C364.1,260.8,354,247,337.1,249.4z"/>
			<path style="fill:#FFFFFF;stroke:#000000;stroke-width:0.5208;" d="M347.4,251.6c-1.9,4,1,15.8,15.9,15.8
				C376.8,267.4,362.6,251.8,347.4,251.6z"/>
			<path style="fill:#FFFFFF;stroke:#000000;stroke-width:0.5208;" d="M359.1,255c-1,2.2-2.2,14.8,15.5,15.8
				C387.3,271.6,384.2,253.6,359.1,255z"/>
			<path style="fill:#FFFFFF;stroke:#000000;stroke-width:0.5208;" d="M378.1,260.3c-2.2,3.9-4.5,13.5,14.8,14.3
				C405.2,275.1,397.6,260.6,378.1,260.3z"/>
			<path style="fill:#FFFFFF;stroke:#000000;stroke-width:0.5208;" d="M394.2,263.3c-2.8,3.9-0.7,11.4,6.4,12.9
				c9,1.8,10.3-6.7,4.1-10.8C398.5,261.2,394.2,263.3,394.2,263.3L394.2,263.3z"/>
			<path style="fill:#FFFFFF;stroke:#000000;stroke-width:0.5208;" d="M402.9,265.1c-2.1,3.6-0.8,12.4,12.9,12.4
				C418.6,277.4,429.4,266.4,402.9,265.1z"/>
			<path style="fill:#FFFFFF;stroke:#000000;stroke-width:0.5208;" d="M297.2,433c11.1,0,20-9,20-20c0-11.1-9-20-20-20
				c-11.1,0-20,9-20,20C277.1,424,286.1,433,297.2,433z"/>
			<path style="fill:#FFFFFF;stroke:#000000;stroke-width:0.5208;" d="M444.1,141.7c-1.5,1.5-4.8,6.2-5.4,8
				c-6.7,20.1,11.2,35.1,21.6,56.7c8.2,17,7.2,43.8-5.7,60.8c-4.4,5.8-3.1,7.5-8.8,13.4c-2.2,2.3-4.6,5.2-3.9,13.4
				c3.6-1.3,8.8,2.1,9.8,4.9c2.6-1.3,6.2-0.8,7.5,0.8c4.4-2.1,8-1,11.8,3.1c3.4-0.5,7,0,10.3,3.6c1.8-3.6,5.4-4.9,8-4.1
				c-0.3-4.6,4.4-8,8.5-6.2c-1.3-6.2,4.4-10.8,9.8-9c4.6-3.6,13.9-3.9,18.5,1.5c-8.2-2.3-8,6.4-14.9,5.7c1.8,5.2-2.8,8.1-7.5,9.8
				c3-1.4,6.2-3.1,7.2-1.3c2.6-2.3,7.7-1.4,9-0.3c3.4-1.1,6.7-0.3,8.2,3.9c4.6,2.8,7.7,10,4.4,15.5c-1-5.7-4.9-5.4-6.4-7.7
				c-3.6,1.3-7.2,1.3-8.2-1c-2.1,2.1-9,3.9-12.1,0.8c-1.2,4.6-5.2,8.5-9.8,8.5c1.3,3.6-2.3,9.8-5.1,12.9c4.4,2.3,3.1,7.5,2.1,10.6
				c6.7,1,1,7,12.6,10.8c-5.7,1.8-16.7,0-18.3-7c-5.7-0.3-9.5-5.9-9.3-11.9c-4.4-4.1-5-10,1-14.2c-5.2,1.5-8-6.7-15.5-3.3
				c-3.7,1.7-13.5-1.2-13.4-4.6c-1.5,2.6-10.9,1.5-12.2-2.8c-3.1,1.7-10.3-1.2-10.2-5.4c-4,1.8-9.4-1.4-9.1-5.5
				c-3.7-0.5-4.1-3.9-3.9-6.7c-3.4-1.5-2.4-4.8-1.2-8.6c-2.3-2.6-1.3-6.2,0.5-9.5c-2.6-2.6-2.1-5.7-1.3-9.3
				c-12.4-1-27.9-4-63.4-14.9c-53.6-16.5-68,22.2-56.1,46.4c13.7,27.9-1.5,34,3.1,54.9c4.9,1,7.5,5.2,7.2,9.5c2.9,0.1,5,2.8,3.9,8
				c2.4-0.5,5.6,0.3,7.7,2.3c1.8-3.3,7.7-4.1,10.8-0.3c6.7-0.5,10,4.9,9.8,11.6c3.6,6.4,2.3,14.3-1.5,19.3c0.4-2.7,0-6.6-0.1-8.9
				c-0.2-4.3-6.2-5.2-5.5-8.6c-3.1,0.3-6.1-1.4-7.1-3.7c-1.8,1.5-4.4,2.1-6.6,1.3c3.5,1.5,6.2,7.7,5.2,11.8
				c1.8,3.1,1.4,8.8-0.8,11.2c-1,5-4.9,6.8-9.9,4.6c2.8-1.8,3.9-5,3.7-7.7c-1.8-1.5-2.7-4.5-2.8-6.3c-5,0.8-12-3.5-13.3-5.2
				c-11.1,0-20,9-20,20c-0.5-4.1-5.7-8.2-5.1-11.7c-3.1-9.5,1.3-18.4,13.9-20.2c-1.5-3.6,3.9-7.3,1.8-11.5
				c-2.6-5.3-7.5-12.1-14.7-20.1c4.4-7.5,3.1-17.5,0.5-23.7c-3.7-8.9-7.2-6.7-20.3,7.7c-21.4,23.5-50,17-75.2,32.5
				c-6.7,4.1-13.4,5.7-6.2-1.5c7.2-7.2,26.3-14.4,38.6-20.6c23.2-11.6,42.8-30.9,50.5-68.5c18.2-88.4,85-59.2,127.2-42.8
				c39.7,15.5,32.5-19.6,12.4-40.7c-24.1-25.4-19.3-45.3-8-61.3C412.9,127.8,452,134.9,444.1,141.7L444.1,141.7z"/>
			<path style="fill:#FFFFFF;stroke:#000000;stroke-width:0.5208;" d="M515.9,358.8c12.2,0,22-9.9,22-22c0-12.2-9.9-22-22-22
				c-12.2,0-22,9.9-22,22C493.8,348.9,503.7,358.8,515.9,358.8L515.9,358.8z"/>
		</g>
		<g>
			<path style="fill:none;stroke:#000000;stroke-width:0.5208;" d="M431.8,142.7c-4.9,21.6-0.8,31.4,6.4,41
				c14.9,19.7,26.8,64.6,9.8,94"/>
			<g>
				<path style="fill:none;stroke:#000000;stroke-width:0.5208;stroke-linecap:round;" d="M457.5,252.3c2.1-0.8,5.9-3.2,6.8-7.5"/>
				<path style="fill:none;stroke:#000000;stroke-width:0.5208;stroke-linecap:round;" d="M459.1,242.9c0.6-3.7,6.4-5.3,6.6-9.3"/>
				<path style="fill:none;stroke:#000000;stroke-width:0.5208;stroke-linecap:round;" d="M459.2,228.4c-0.4-3.9,5.8-7.3,4.9-11.2"
					/>
				<path style="fill:none;stroke:#000000;stroke-width:0.5208;stroke-linecap:round;" d="M455.8,214.5c-0.5-2.2,5.1-6.3,3.6-9.8"/>
				<path style="fill:none;stroke:#000000;stroke-width:0.5208;stroke-linecap:round;" d="M451.6,200.9c-1.2-2.4,2.7-5.3,1-7.9"/>
				<path style="fill:none;stroke:#000000;stroke-width:0.5208;stroke-linecap:round;" d="M445.4,190.1c-0.4-1.7,2-5.3,0.7-7.5"/>
				<path style="fill:none;stroke:#000000;stroke-width:0.5208;stroke-linecap:round;" d="M439.2,177.4c0.5-0.6,2.6-2.2,1.7-4.1"/>
				<path style="fill:none;stroke:#000000;stroke-width:0.5208;stroke-linecap:round;" d="M435,168c0.8-0.5,3.3-1.2,3-3.1"/>
				<path style="fill:none;stroke:#000000;stroke-width:0.5208;stroke-linecap:round;stroke-linejoin:round;" d="M306.1,410.9
					c-5.2-1.8-11.6,0.8-12.9,5.2"/>
				<path style="fill:none;stroke:#000000;stroke-width:0.5208;stroke-linecap:round;stroke-linejoin:round;" d="M297,420
					c0.6-4.4,7.3-6.3,9.4-4.2c-4.2-2.3-6.3,5.9-2.6,6.2"/>
				<path style="fill:none;stroke:#000000;stroke-width:0.5208;stroke-linecap:round;stroke-linejoin:round;" d="M338.5,318.1
					c-3.1,1.5-4,7.2,0,11.5"/>
				<path style="fill:none;stroke:#000000;stroke-width:0.5208;stroke-linecap:round;stroke-linejoin:round;" d="M343.2,319.4
					c-2.2,1.8-2.1,7.2,1.2,8.5c-2.7-1.9,0-5.3,1.9-5.4c1.9-0.1,3.2,2.2,0.9,4.5"/>
				<path style="fill:none;stroke:#000000;stroke-width:0.5208;stroke-linecap:round;stroke-linejoin:round;" d="M524.1,332.2
					c-7.2-1.9-13,6.4-6.4,13.9c-0.1-7.2,5-12,11.3-10.7"/>
				<path style="fill:none;stroke:#000000;stroke-width:0.5208;stroke-linecap:round;stroke-linejoin:round;" d="M526.1,340.4
					c-1.8,0-2.8,1.4-2.8,2.7c0,1.4,1.2,2.8,3.2,2.8c1.3,0,2.3-1.5,2.3-2.6"/>
				<path style="fill:none;stroke:#000000;stroke-width:0.5208;stroke-linecap:round;stroke-linejoin:round;" d="M551.5,182.3
					c1.2,4.4,7.2,6.2,12,5.2"/>
				<path style="fill:none;stroke:#000000;stroke-width:0.5208;stroke-linecap:round;stroke-linejoin:round;" d="M563.5,184.6
					c-3.7,0.1-6.8-3.3-6.6-6.3c0,2.2,5,3.2,6.6,1.8"/>
				<path style="fill:none;stroke:#000000;stroke-width:0.5208;stroke-linecap:round;" d="M307.9,331.7c-1-2.6,3.1-5.2,3.2-7.6
					c0.1-2.4,4.6-4.4,9.3,0.3"/>
				<path style="fill:none;stroke:#000000;stroke-width:0.5208;stroke-linecap:round;" d="M318.2,296.9c-0.9,0.4-1.7,0.9-2.4,1.2"/>
				<path style="fill:none;stroke:#000000;stroke-width:0.5208;stroke-linecap:round;" d="M327.1,310.9c-1.1,0.1-3.3-0.1-4.6-0.9"/>
				<path style="fill:none;stroke:#000000;stroke-width:0.5208;stroke-linecap:round;" d="M322.6,315.8c-0.9,0.5-2.9,1.2-4.1,1.5"/>
				<path style="fill:none;stroke:#000000;stroke-width:0.5208;stroke-linecap:round;" d="M278.4,393.6c-0.1,2.3,2.2,5.7,3.5,6.7"/>
				<path style="fill:none;stroke:#000000;stroke-width:0.5208;stroke-linecap:round;" d="M288.4,388.1c-1.3,1.9-2.1,5.3-1.3,7.6"/>
				<path style="fill:none;stroke:#000000;stroke-width:0.5208;stroke-linecap:round;" d="M307.6,395.8c-2.3-1.5-0.8-5.5-1-8.1
					c-0.3-2.6,2.7-6.7,8.5-3.2"/>
				<path style="fill:none;stroke:#000000;stroke-width:0.5208;stroke-linecap:round;" d="M286,381.1c2.3-0.4,4.8-0.3,6.3,0.4"/>
				<path style="fill:none;stroke:#000000;stroke-width:0.5208;stroke-linecap:round;" d="M315.3,373.8c-1,1.4-1.3,3-1.4,4"/>
				<path style="fill:none;stroke:#000000;stroke-width:0.5208;stroke-linecap:round;" d="M326.2,373.5c-1.8,0-3.3,1.3-4.1,2.6"/>
				<path style="fill:none;stroke:#000000;stroke-width:0.5208;stroke-linecap:round;" d="M301.2,307.6c2.1,0.7,7.4,4,7.6,7.4"/>
				<path style="fill:none;stroke:#000000;stroke-width:0.5208;stroke-linecap:round;" d="M323.1,290.8c-6.3-0.1-8.8-6.6-4-6.6"/>
				<path style="fill:none;stroke:#000000;stroke-width:0.5208;stroke-linecap:round;" d="M334.4,299.5c-2.4,1-1.3,5.3,2.2,7.3"/>
				<path style="fill:none;stroke:#000000;stroke-width:0.5208;stroke-linecap:round;" d="M319.3,339.9c-1.2-1.5,0.4-6,4.4-4.7"/>
				<path style="fill:none;stroke:#000000;stroke-width:0.5208;stroke-linecap:round;" d="M328.7,386.9c0.3-3.9,5.2-6.2,7.2-1.8"/>
				<path style="fill:none;stroke:#000000;stroke-width:0.5208;stroke-linecap:round;" d="M310.4,398.1c-0.3-4.3,1.9-5.7,3.8-6
					c1.9-0.3,4.7,1.3,6,4.2"/>
				<path style="fill:none;stroke:#000000;stroke-width:0.5208;stroke-linecap:round;" d="M272.1,401.3c0.3-2.6,2.4-5.3,4.8-4.9"/>
				<path style="fill:none;stroke:#000000;stroke-width:0.5208;stroke-linecap:round;" d="M507.7,287c-1.7,1.2-2.8,6.7,3.6,7.2"/>
				<path style="fill:none;stroke:#000000;stroke-width:0.5208;stroke-linecap:round;" d="M498,296c0,0.6,0.8,1.5,1.4,1.9"/>
				<path style="fill:none;stroke:#000000;stroke-width:0.5208;stroke-linecap:round;" d="M528.3,306.3c-1.7-1.3-6,3.9-2.1,7.7"/>
				<path style="fill:none;stroke:#000000;stroke-width:0.5208;stroke-linecap:round;" d="M487.4,349.6c-1-3.7,2.4-4.6,5.7-3.9"/>
				<path style="fill:none;stroke:#000000;stroke-width:0.5208;stroke-linecap:round;" d="M479.2,323.5c1.9-1.3,3.9-2.7,6.3-3.3"/>
				<path style="fill:none;stroke:#000000;stroke-width:0.5208;stroke-linecap:round;" d="M478.1,337.7c0-3.1,1.5-5.7,3-6.4"/>
				<path style="fill:none;stroke:#000000;stroke-width:0.5208;stroke-linecap:round;" d="M489.4,302.2c-0.3,3.7,1.3,7.3,2.5,9.3"/>
				<path style="fill:none;stroke:#000000;stroke-width:0.5208;stroke-linecap:round;" d="M520.1,302.4c-1.9,0.6-3.5,1.3-4.2,2.8"/>
				<path style="fill:none;stroke:#000000;stroke-width:0.5208;stroke-linecap:round;" d="M518,313c0.9-0.8,1.9-1.7,2.4-2.3"/>
				<path style="fill:none;stroke:#000000;stroke-width:0.5208;stroke-linecap:round;" d="M566.7,200.6c0,3.6-4.5,5.5-7.5,3.2"/>
				<path style="fill:none;stroke:#000000;stroke-width:0.5208;stroke-linecap:round;" d="M576.5,200.7c2,1.5,8.9,0.1,7.3-3.9"/>
				<path style="fill:none;stroke:#000000;stroke-width:0.5208;stroke-linecap:round;" d="M568.1,221.4c-1.4-0.3-3.9-1.8-4.9-3.1"/>
				<path style="fill:none;stroke:#000000;stroke-width:0.5208;stroke-linecap:round;" d="M582.3,210.7c-2.3,0.5-3.9,0-5-0.5"/>
				<path style="fill:none;stroke:#000000;stroke-width:0.5208;stroke-linecap:round;" d="M545.7,223.6c1.3,0,4.4-0.5,6.5-1.6"/>
				<path style="fill:none;stroke:#000000;stroke-width:0.5208;stroke-linecap:round;" d="M541.9,200.8c-1.7-0.2-2.9,0.1-3.9,0.8"/>
				<path style="fill:none;stroke:#000000;stroke-width:0.5208;stroke-linecap:round;" d="M567.8,207.1c-0.5,1.6-1.6,4.1-3,5.2"/>
				<path style="fill:none;stroke:#000000;stroke-width:0.5208;stroke-linecap:round;stroke-linejoin:round;" d="M537.5,212.8
					c3.2-1.4,7.2,9.5,14.9,5.7"/>
				<path style="fill:none;stroke:#000000;stroke-width:0.5208;stroke-linecap:round;stroke-linejoin:round;" d="M553.1,207.1
					c-1,1.4-1.7,3.6-1.8,5.5"/>
			</g>
			<path style="fill:none;stroke:#000000;stroke-width:0.5208;" d="M399,190.4c1-0.1,2.8-0.5,3.2-1.8"/>
			<path style="fill:none;stroke:#000000;stroke-width:0.5208;" d="M266.5,310.3c3.9,2.2,6.6,5.9,4.9,11.5"/>
			<path style="fill:none;stroke:#000000;stroke-width:0.5208;" d="M443.6,178.5c1.2,0.8,5.5,0.8,8-0.1"/>
			<path style="fill:none;stroke:#000000;stroke-width:0.5208;" d="M454.7,181.1c-0.1,1.8,0.4,8.6-3.1,10"/>
			<path style="fill:none;stroke:#000000;stroke-width:0.5208;" d="M452.9,190.3c3.2,1,9.7,0.6,11.7-5.3"/>
			<path style="fill:none;stroke:#000000;stroke-width:0.5208;" d="M460.1,190c1.7,2.6,2.2,7.6-2.8,10.3"/>
			<path style="fill:none;stroke:#000000;stroke-width:0.5208;" d="M461.4,194.2c3.7,1.3,12.4,1.4,11.5-5.9"/>
			<path style="fill:none;stroke:#000000;stroke-width:0.5208;" d="M469.9,194.2c2.6,3.6,13.9,7.9,12.1,0.4"/>
			<path style="fill:none;stroke:#000000;stroke-width:0.5208;" d="M459.4,204.7c4.4,1,10.6-1.9,8-9.7"/>
			<path style="fill:none;stroke:#000000;stroke-width:0.5208;" d="M479.8,198.9c0.6,3,15.1,6.1,13.1-0.6"/>
			<path style="fill:none;stroke:#000000;stroke-width:0.5208;" d="M490.2,202.1c2.7,6.2,17,5.7,12.5-2.6"/>
			<path style="fill:none;stroke:#000000;stroke-width:0.5208;" d="M500.4,206c2.8,3.5,15.5,1.4,10.4-7"/>
			<path style="fill:none;stroke:#000000;stroke-width:0.5208;" d="M510.7,205.8c7.9,5.9,17-2.6,7.1-8.8"/>
			<path style="fill:none;stroke:#000000;stroke-width:0.5208;" d="M522.3,203.9c7,5.5,15.5-4.5,9.4-7.3"/>
			<path style="fill:none;stroke:#000000;stroke-width:0.5208;" d="M467.3,201.6c2.2,0.6,6.8,0.4,7.9-3.6"/>
			<path style="fill:none;stroke:#000000;stroke-width:0.5208;" d="M473.4,200.7c-0.3,5.9,9.6,8.1,12.1,1.4"/>
			<path style="fill:none;stroke:#000000;stroke-width:0.5208;" d="M482.2,205.7c1.8,3.9,10.4,5.4,11.8-0.1"/>
			<path style="fill:none;stroke:#000000;stroke-width:0.5208;" d="M492.7,208.2c1.4,3.9,8.9,3.5,10.9-0.5"/>
			<path style="fill:none;stroke:#000000;stroke-width:0.5208;" d="M500.9,210.2c2.3,5,11.8,5,14-2.3"/>
			<path style="fill:none;stroke:#000000;stroke-width:0.5208;" d="M513.3,211.1c3.7,2.3,11.7,1.4,11.1-5.8"/>
			<path style="fill:none;stroke:#000000;stroke-width:0.5208;" d="M522.8,210.5c5.5,4.5,13.4,0.1,9.5-7.5"/>
			<path style="fill:none;stroke:#000000;stroke-width:0.5208;" d="M532,216.4c3-0.5,4.5-6.4,1.4-8"/>
			<path style="fill:none;stroke:#000000;stroke-width:0.5208;" d="M463.3,217.4c6.2-3.3,7.3-9,3.1-14.6"/>
			<path style="fill:none;stroke:#000000;stroke-width:0.5208;" d="M468.6,211.8c3.9,2.3,11.2-0.1,12.5-5.8"/>
			<path style="fill:none;stroke:#000000;stroke-width:0.5208;" d="M473.9,212.4c2.2,2.8,2.6,6.3-0.3,9.5"/>
			<path style="fill:none;stroke:#000000;stroke-width:0.5208;" d="M475.7,216c6.8-4.2,15.3,3.6,9,8.4"/>
			<path style="fill:none;stroke:#000000;stroke-width:0.5208;" d="M483.5,215.6c1.5-0.4,4.2-3.2,4.5-6.4"/>
			<path style="fill:none;stroke:#000000;stroke-width:0.5208;" d="M486.6,218.6c2.8-3,22.2,3.1,9.9,9.3"/>
			<path style="fill:none;stroke:#000000;stroke-width:0.5208;" d="M495.6,210.5c3.7,1.4,5.7,6.7,0,8.5"/>
			<path style="fill:none;stroke:#000000;stroke-width:0.5208;" d="M500.5,223.4c4.1-4.2,17-1.5,12.4,3.9"/>
			<path style="fill:none;stroke:#000000;stroke-width:0.5208;" d="M509.8,221.7c2.3-7.9,16.1-3,11.6,0.3"/>
			<path style="fill:none;stroke:#000000;stroke-width:0.5208;" d="M507,213.8c0.4,1.5,0.5,5.4-2.1,7.5"/>
			<path style="fill:none;stroke:#000000;stroke-width:0.5208;" d="M518.6,212.3c0.5,1.3,0.4,3.7-0.8,5.3"/>
			<path style="fill:none;stroke:#000000;stroke-width:0.5208;" d="M527.3,212.4c0.8,1.4,2.1,4.1-0.8,6.3"/>
			<path style="fill:none;stroke:#000000;stroke-width:0.5208;" d="M417.1,153.2c0.1,7.3,2.7,12.2,12.6,7.6"/>
			<path style="fill:none;stroke:#000000;stroke-width:0.5208;" d="M420.2,161.9c-4.9,6.6,0.6,13.7,10.3,6.6"/>
			<path style="fill:none;stroke:#000000;stroke-width:0.5208;" d="M405.1,165.1c6.7,7.2,18.7,1.9,10.9-9"/>
			<path style="fill:none;stroke:#000000;stroke-width:0.5208;" d="M424.2,171.3c-1.3,7.1,4.5,8.5,9.3,5.3"/>
			<path style="fill:none;stroke:#000000;stroke-width:0.5208;" d="M399.2,166.3c1.2,7.1,8.5,12.7,15.6,8.4"/>
			<path style="fill:none;stroke:#000000;stroke-width:0.5208;" d="M407.9,176.1c0,10.2,14,11.3,17.3,0.8"/>
			<path style="fill:none;stroke:#000000;stroke-width:0.5208;" d="M420.2,183.3c4.5,9.3,14.3,5.5,17.5-0.1"/>
			<path style="fill:none;stroke:#000000;stroke-width:0.5208;" d="M410.2,168.5c1.8,4.5,5.4,9.5,13.8,5.8"/>
			<path style="fill:none;stroke:#000000;stroke-width:0.5208;" d="M384.5,166.3c1.2,3.7,7.9,8.2,15.6,3.1"/>
			<path style="fill:none;stroke:#000000;stroke-width:0.5208;" d="M389.3,171.1c-4.1,6.1,4.1,11.7,14,2.7"/>
			<path style="fill:none;stroke:#000000;stroke-width:0.5208;" d="M394.2,178.5c1.7,8.5,5,15.3,17.1,4.4"/>
			<path style="fill:none;stroke:#000000;stroke-width:0.5208;" d="M405.2,187.3c4.4,5.4,11.1,8.8,17.4-0.4"/>
			<path style="fill:none;stroke:#000000;stroke-width:0.5208;" d="M427.2,188.8c-0.4,6.4,0.9,9.7,5.9,9.4c4-0.2,7.7-3.3,9.9-6.7"/>
			<path style="fill:none;stroke:#000000;stroke-width:0.5208;" d="M432.3,198.2c-0.1,7.3,5.7,13.1,16.5,5.7"/>
			<path style="fill:none;stroke:#000000;stroke-width:0.5208;" d="M436.8,206.9c-2.1,5.5,4.1,14.6,16.2,9.9"/>
			<path style="fill:none;stroke:#000000;stroke-width:0.5208;" d="M411.2,192.2c-0.8,7.1,5.8,11.8,16.4,2.7"/>
			<path style="fill:none;stroke:#000000;stroke-width:0.5208;" d="M416.3,200c0.4,5.8,7,12.7,16.6,2.7"/>
			<path style="fill:none;stroke:#000000;stroke-width:0.5208;" d="M420.9,207.4c-0.8,9.9,8.4,12.7,16.1,5.2"/>
			<path style="fill:none;stroke:#000000;stroke-width:0.5208;" d="M407.2,200c2.1,0.1,3.7-1.7,4.8-3"/>
			<path style="fill:none;stroke:#000000;stroke-width:0.5208;" d="M411.5,207.2c1.8,0.4,4.9-1.3,5.9-3.3"/>
			<path style="fill:none;stroke:#000000;stroke-width:0.5208;" d="M416,219c2.1,2.2,9,0.6,9.9-2.3"/>
			<path style="fill:none;stroke:#000000;stroke-width:0.5208;" d="M423.8,218.8c3.9,9,14.2,8.6,18.4-1.5"/>
			<path style="fill:none;stroke:#000000;stroke-width:0.5208;" d="M440.3,220.9c1.9,5.3,6.8,8.6,14.8,6.8"/>
			<path style="fill:none;stroke:#000000;stroke-width:0.5208;" d="M444.1,226.3c-4.5,7.3,1.4,16,11.5,7.5"/>
			<path style="fill:none;stroke:#000000;stroke-width:0.5208;" d="M446.6,237.3c-0.5,4.6,3.7,9.9,9.5,10.6"/>
			<path style="fill:none;stroke:#000000;stroke-width:0.5208;" d="M427.5,223.7c-1.5,10.4,5.9,15.5,15.3,9.9"/>
			<path style="fill:none;stroke:#000000;stroke-width:0.5208;" d="M416.6,228.8c2.4,1.9,6.8,2.2,10.9,0.6"/>
			<path style="fill:none;stroke:#000000;stroke-width:0.5208;" d="M432.5,235.5c-2.3,8.8,6.7,15.1,14.4,5.3"/>
			<path style="fill:none;stroke:#000000;stroke-width:0.5208;" d="M420,230.2c0.1,4.5,4.5,9.4,12.1,8"/>
			<path style="fill:none;stroke:#000000;stroke-width:0.5208;" d="M453.4,247.2c-5.2,3.5-6.2,9.7,1,13.7"/>
			<path style="fill:none;stroke:#000000;stroke-width:0.5208;" d="M440.8,245.4c0.3,5.3,2.7,8.2,8.5,8.8"/>
			<path style="fill:none;stroke:#000000;stroke-width:0.5208;" d="M433.2,242.7c-7.7,7.1-0.1,15.3,9,8.4"/>
			<path style="fill:none;stroke:#000000;stroke-width:0.5208;" d="M438.6,253.2c-2.6,8.1,7.1,13,12.2,4.8"/>
			<path style="fill:none;stroke:#000000;stroke-width:0.5208;" d="M422.6,236c-2.8,8,0.8,13.3,7.3,12.7"/>
			<path style="fill:none;stroke:#000000;stroke-width:0.5208;" d="M412.4,234.4c0.4,4.8,4.5,6.4,9.1,5.4"/>
			<path style="fill:none;stroke:#000000;stroke-width:0.5208;" d="M415.4,239.4c-3.5,6.7,1.8,10.3,8.8,7.7"/>
			<path style="fill:none;stroke:#000000;stroke-width:0.5208;" d="M445.3,262.1c-1.2,4.2-0.5,7.3,5.8,8.8"/>
			<path style="fill:none;stroke:#000000;stroke-width:0.5208;" d="M445.7,268.2c-7.6,3.5-8.2,10.8-2.3,15.6"/>
			<path style="fill:none;stroke:#000000;stroke-width:0.5208;" d="M439.5,260c-4,3.6-3.2,9.9,1.2,12.3"/>
			<path style="fill:none;stroke:#000000;stroke-width:0.5208;" d="M405.7,236.5c-4.4,4.3-0.2,16.2,9.5,9.7"/>
			<path style="fill:none;stroke:#000000;stroke-width:0.5208;" d="M430.9,251.6c-5.9,4.9-3.2,13.8,6.6,11.3"/>
			<path style="fill:none;stroke:#000000;stroke-width:0.5208;" d="M421.1,247.8c-3.1,8.8-0.1,11.8,6.8,12"/>
			<path style="fill:none;stroke:#000000;stroke-width:0.5208;" d="M399.3,236.1c-5.3,4-3.9,9.7-1.5,12.2c2.3,2.6,6.7,1.4,8.1-1.9"
				/>
			<path style="fill:none;stroke:#000000;stroke-width:0.5208;" d="M388.2,232.6c-5.9,7.6,0,16.6,8.4,13.9"/>
			<path style="fill:none;stroke:#000000;stroke-width:0.5208;" d="M419.9,255.2c-6.1,2.2-10.7,7.7-7,12.5
				c2.2,2.8,11.7,3.2,14.4-7.7"/>
			<path style="fill:none;stroke:#000000;stroke-width:0.5208;" d="M409,248.1c-3.5,5-2.3,9.8,4.1,12.2"/>
			<path style="fill:none;stroke:#000000;stroke-width:0.5208;" d="M408.6,257.5c-3.7,2.1-6.2,4.5-5.3,9"/>
			<path style="fill:none;stroke:#000000;stroke-width:0.5208;" d="M400.2,249.6c-1.4,6.1,0.3,9.8,4,11.6"/>
			<path style="fill:none;stroke:#000000;stroke-width:0.5208;" d="M400.1,256.8c-5.8-0.4-8.8,2.1-6.8,7.7"/>
			<path style="fill:none;stroke:#000000;stroke-width:0.5208;" d="M393.8,258.2c-5.7-2.1-6.6-7-4.1-12.1"/>
			<path style="fill:none;stroke:#000000;stroke-width:0.5208;" d="M388.9,253.7c-6.2,0.3-8.9,3.3-8.9,7.6"/>
			<path style="fill:none;stroke:#000000;stroke-width:0.5208;" d="M380.5,229.7c-4.5,1.9-5.9,8-4.2,11.3c1.7,3.3,7,3.6,10.2,1.4"/>
			<path style="fill:none;stroke:#000000;stroke-width:0.5208;" d="M367.9,224.9c-4.1,4.6,0.6,13.7,8,11.5"/>
			<path style="fill:none;stroke:#000000;stroke-width:0.5208;" d="M357.3,221.3c-3.9,5.4,0.4,14.4,10.3,11.8"/>
			<path style="fill:none;stroke:#000000;stroke-width:0.5208;" d="M368.1,258.2c-1-6.4,5.7-10.7,13.9-2.3"/>
			<path style="fill:none;stroke:#000000;stroke-width:0.5208;" d="M378.1,242.9c-2.4,2.2-3.6,5.7-3.2,8.5"/>
			<path style="fill:none;stroke:#000000;stroke-width:0.5208;" d="M346.8,218.2c-4.2,7.2,0.9,13.8,10,11.2"/>
			<path style="fill:none;stroke:#000000;stroke-width:0.5208;" d="M370.6,236.1c-6.1,6.1-4,12.1,0.5,15.6"/>
			<path style="fill:none;stroke:#000000;stroke-width:0.5208;" d="M366.7,243.2c-9.1,0.1-9.7,10.7-2.2,14"/>
			<path style="fill:none;stroke:#000000;stroke-width:0.5208;" d="M359.8,232.6c-3.7,2.6-4.9,9.7,1.5,12.5"/>
			<path style="fill:none;stroke:#000000;stroke-width:0.5208;" d="M359.5,248.5c-3.9-1.8-8.5,0.4-8.1,4.9"/>
			<path style="fill:none;stroke:#000000;stroke-width:0.5208;" d="M353.7,248.6c-3.5-8.2-13.7-6.8-12.7,1.7"/>
			<path style="fill:none;stroke:#000000;stroke-width:0.5208;" d="M356.5,238.4c-2.2,0.4-6.6,1.7-8.2,5"/>
			<path style="fill:none;stroke:#000000;stroke-width:0.5208;" d="M349,229.1c-4.1,4.6-0.9,10.2,2.4,11.3"/>
			<path style="fill:none;stroke:#000000;stroke-width:0.5208;" d="M336.7,216.1c-0.8,5.5,1.4,8.2,8.4,7.7"/>
			<path style="fill:none;stroke:#000000;stroke-width:0.5208;" d="M339.2,223.2c-2.7,6.7,0.9,9.7,7.9,9.3"/>
			<path style="fill:none;stroke:#000000;stroke-width:0.5208;" d="M340.7,231.5c-4.1,4.9-1.3,10.2,2.7,12.4"/>
			<path style="fill:none;stroke:#000000;stroke-width:0.5208;" d="M338.8,237.6c-7.3-0.9-8.5,7.6-6.1,11.6"/>
			<path style="fill:none;stroke:#000000;stroke-width:0.5208;" d="M332.8,215.5c-4.5,1.9-7.1,7.6-4.6,11.1c2.4,3.5,7.3,2.3,10,0.5"
				/>
			<path style="fill:none;stroke:#000000;stroke-width:0.5208;" d="M329.8,228.1c-3.7,5.7-0.4,9.9,3.6,11.6"/>
			<path style="fill:none;stroke:#000000;stroke-width:0.5208;" d="M315.3,214.8c-3,3.1-1.2,9.4,6.1,9.5c5.8,0.1,8.8-5.4,7-9.3"/>
			<path style="fill:none;stroke:#000000;stroke-width:0.5208;" d="M320.4,224.4c-2.3,5.2-0.9,10.7,7.9,9.8"/>
			<path style="fill:none;stroke:#000000;stroke-width:0.5208;" d="M332,242.3c-5.4-2.4-12.6,0-9.5,6.4"/>
			<path style="fill:none;stroke:#000000;stroke-width:0.5208;" d="M321.6,233.1c-2.2,3.1-1.4,7.5,1,10.2"/>
			<path style="fill:none;stroke:#000000;stroke-width:0.5208;" d="M321.3,241.4c-3.6,0.6-7.1,2.6-4.9,8.2"/>
			<path style="fill:none;stroke:#000000;stroke-width:0.5208;" d="M315.8,245c-4.6-1.4-10.6,1.9-7,6.7"/>
			<path style="fill:none;stroke:#000000;stroke-width:0.5208;" d="M308.1,247.2c-4-0.6-8.8,3.6-4.9,7.9"/>
			<path style="fill:none;stroke:#000000;stroke-width:0.5208;" d="M301.7,251.6c-3.6,0.9-7.9,5-4.1,8.2"/>
			<path style="fill:none;stroke:#000000;stroke-width:0.5208;" d="M319.8,231.3c-5.2,2.3-5.7,8.1-3.2,12.4"/>
			<path style="fill:none;stroke:#000000;stroke-width:0.5208;" d="M314.4,220.6c-7.7,3-7.6,13.3,0.9,16.5"/>
			<path style="fill:none;stroke:#000000;stroke-width:0.5208;" d="M311.7,234.8c-4.6,2.7-5.5,7.9-2.4,11.2"/>
			<path style="fill:none;stroke:#000000;stroke-width:0.5208;" d="M303.6,216.8c-3.1,1-2.8,10.6,5.4,10.3"/>
			<path style="fill:none;stroke:#000000;stroke-width:0.5208;" d="M295.1,220c-6.2,4.1,1.3,14.6,11.3,7.1"/>
			<path style="fill:none;stroke:#000000;stroke-width:0.5208;" d="M300.9,229.7c-0.9,4.2,0.3,8.9,7.1,9.4"/>
			<path style="fill:none;stroke:#000000;stroke-width:0.5208;" d="M301.3,235.3c-4.9,1.8-5.8,11.8,3.1,12.6"/>
			<path style="fill:none;stroke:#000000;stroke-width:0.5208;" d="M285.7,226.2c-6.3,5.8,5.2,10.8,9.4,2.4"/>
			<path style="fill:none;stroke:#000000;stroke-width:0.5208;" d="M277,235.8c-3.1,3.7,7.7,13.5,12.5-2.8"/>
			<path style="fill:none;stroke:#000000;stroke-width:0.5208;" d="M290.6,232.8c0.3,3.9,2.6,6.2,7.3,6.4"/>
			<path style="fill:none;stroke:#000000;stroke-width:0.5208;" d="M297.8,242.9c-7.6,1.2-10,10.7-1.5,12.7"/>
			<path style="fill:none;stroke:#000000;stroke-width:0.5208;" d="M283.8,241.6c-0.3,3.6,3.5,6.6,7.7,5.9"/>
			<path style="fill:none;stroke:#000000;stroke-width:0.5208;" d="M295.4,255.4c-7,1.5-7.9,10.6-1.7,10"/>
			<path style="fill:none;stroke:#000000;stroke-width:0.5208;" d="M290.5,273.8c-5.8-1.7-5.9-8.6-0.8-11.2"/>
			<path style="fill:none;stroke:#000000;stroke-width:0.5208;" d="M285.7,267.8c-4.9,3-3,10-0.4,11.1c2.6,1,4.6-0.3,4.9-2.4"/>
			<path style="fill:none;stroke:#000000;stroke-width:0.5208;" d="M289.8,286.3c0.5,3.3-11.9,2.1-5.5-8.4"/>
			<path style="fill:none;stroke:#000000;stroke-width:0.5208;" d="M284.2,286.9c-4.2,6.6,2.6,11.9,7,6.3"/>
			<path style="fill:none;stroke:#000000;stroke-width:0.5208;" d="M284.8,294.8c-1.7,5.3,4.7,9.1,8.8,5"/>
			<path style="fill:none;stroke:#000000;stroke-width:0.5208;" d="M270.9,245.4c-2.3,4.8,9.3,6.6,10-3.2"/>
			<path style="fill:none;stroke:#000000;stroke-width:0.5208;" d="M267.7,252.5c-2.3,9.3,15.2,7.3,10.7-4.6"/>
			<path style="fill:none;stroke:#000000;stroke-width:0.5208;" d="M278.8,254c2.4,1.4,9.8,1.5,11.6-6.3"/>
			<path style="fill:none;stroke:#000000;stroke-width:0.5208;" d="M285.1,254.3c0.5,2.4,2.7,5.4,4.8,6.3"/>
			<path style="fill:none;stroke:#000000;stroke-width:0.5208;" d="M276.7,256.7c-0.8,5,4.2,9.1,10,8.8"/>
			<path style="fill:none;stroke:#000000;stroke-width:0.5208;" d="M277.6,261.6c-2.8,3.9-3.7,11.3,5.2,11.8"/>
			<path style="fill:none;stroke:#000000;stroke-width:0.5208;" d="M264.1,262.9c-1.4,4,7,8.1,11.8,1.5"/>
			<path style="fill:none;stroke:#000000;stroke-width:0.5208;" d="M261.5,273.1c-0.7,3,6.8,7.1,11.1-5.8"/>
			<path style="fill:none;stroke:#000000;stroke-width:0.5208;" d="M269.2,273.8c1.8,3.2,7.9,5.8,11.6-0.5"/>
			<path style="fill:none;stroke:#000000;stroke-width:0.5208;" d="M274.8,277.2c-1.5,4.5,2.7,8.8,7.9,7.5"/>
			<path style="fill:none;stroke:#000000;stroke-width:0.5208;" d="M265.1,276.2c-1,6.4,6.4,10.2,11.1,6.8"/>
			<path style="fill:none;stroke:#000000;stroke-width:0.5208;" d="M260.2,279c-2.2,8.2,8.4,11.3,12.4,5.2"/>
			<path style="fill:none;stroke:#000000;stroke-width:0.5208;" d="M269.9,286.6c0.4,4.6,7.6,8.6,13.3,4.8"/>
			<path style="fill:none;stroke:#000000;stroke-width:0.5208;" d="M257,290.4c-0.5,2.1,8.1,4.1,9.4-3.1"/>
			<path style="fill:none;stroke:#000000;stroke-width:0.5208;" d="M262,292.2c2.1,5.3,9,6.6,13,0.1"/>
			<path style="fill:none;stroke:#000000;stroke-width:0.5208;" d="M272.7,295c0.9,4.9,7.2,7.6,12.7,4.2"/>
			<path style="fill:none;stroke:#000000;stroke-width:0.5208;" d="M287.8,301.1c-1.4,6.6,5.4,11.8,9.7,8.2"/>
			<path style="fill:none;stroke:#000000;stroke-width:0.5208;" d="M276.8,300c-2.1,7.2,7,11.3,12,7.3"/>
			<path style="fill:none;stroke:#000000;stroke-width:0.5208;" d="M266,296.4c-0.5,6.7,4.8,10.7,10.8,7.7"/>
			<path style="fill:none;stroke:#000000;stroke-width:0.5208;" d="M254.6,297c-1.8,4.4,7.7,8,12.2,4.2"/>
			<path style="fill:none;stroke:#000000;stroke-width:0.5208;" d="M248.6,309c2.4,2.8,10.9,0,11.7-6.3"/>
			<path style="fill:none;stroke:#000000;stroke-width:0.5208;" d="M258,307.3c3.1,3.6,10.4,5.5,13.4-2.2"/>
			<path style="fill:none;stroke:#000000;stroke-width:0.5208;" d="M268.8,309.1c-0.1,5.5,9.8,9.5,13-0.6"/>
			<path style="fill:none;stroke:#000000;stroke-width:0.5208;" d="M293.5,310.5c-0.9,2.7,1.2,7,5.7,7.5"/>
			<path style="fill:none;stroke:#000000;stroke-width:0.5208;" d="M285.3,308.8c-0.6,3.1,3.9,7.4,8.6,5.7"/>
			<path style="fill:none;stroke:#000000;stroke-width:0.5208;" d="M294.9,315.8c-1.3,3.3-0.2,8.2,4.3,8.1"/>
			<path style="fill:none;stroke:#000000;stroke-width:0.5208;" d="M295.3,322c-3.3,2.8-1.9,7.9,2.9,8"/>
			<path style="fill:none;stroke:#000000;stroke-width:0.5208;" d="M293.6,326.8c-4.8,3.2-3.1,10.3,3.2,9.9"/>
			<path style="fill:none;stroke:#000000;stroke-width:0.5208;" d="M279.2,313.1c0,7,8.6,8,10.3,1.5"/>
			<path style="fill:none;stroke:#000000;stroke-width:0.5208;" d="M286.1,318.8c-1.3,4.1,2.1,8.1,7.3,7"/>
			<path style="fill:none;stroke:#000000;stroke-width:0.5208;" d="M287.1,368.5c1.2,1.7,5.9-1.2,4.6-4c-1.3-2.8-6.3-1.3-5.8,1.7"/>
			<path style="fill:none;stroke:#000000;stroke-width:0.5208;" d="M290.6,363.3c0.6-5.7-6.1-6.6-7.7-1.7"/>
			<path style="fill:none;stroke:#000000;stroke-width:0.5208;" d="M285.3,358.8c1.7-2.8-4-6.7-6.3-2.6"/>
			<path style="fill:none;stroke:#000000;stroke-width:0.5208;" d="M281.1,354.6c1.5-4.1-4.9-5.9-5.4-2.2"/>
			<path style="fill:none;stroke:#000000;stroke-width:0.5208;" d="M274.3,347c0.8-2.1,8-0.8,4.9,3.5"/>
			<path style="fill:none;stroke:#000000;stroke-width:0.5208;" d="M284.7,355.6c2.8-2.6-1.9-7.9-4.9-5.9"/>
			<path style="fill:none;stroke:#000000;stroke-width:0.5208;" d="M303.7,363.5c-2.3,0.3-4.6,1.7-2.9,6.5c1.2,3.3,6.1,3.5,6.8,1.5"
				/>
			<path style="fill:none;stroke:#000000;stroke-width:0.5208;" d="M300.5,365.8c-2.2-1.4-7,1-4.8,5.6c1.6,3.5,5.8,2.1,6.4,0.3"/>
			<path style="fill:none;stroke:#000000;stroke-width:0.5208;" d="M288.2,372.5c1.1,1.9,6.6,1.1,7.5-1"/>
			<path style="fill:none;stroke:#000000;stroke-width:0.5208;" d="M291.9,366.1c1.2-0.8,3.3,0.2,3.7,1.2"/>
			<path style="fill:none;stroke:#000000;stroke-width:0.5208;" d="M291.5,334.4c-3.7,2.4-1.4,9.9,4.4,8"/>
			<path style="fill:none;stroke:#000000;stroke-width:0.5208;" d="M290.4,340.4c-3,2.3-0.3,9.5,5.3,6.8"/>
			<path style="fill:none;stroke:#000000;stroke-width:0.5208;" d="M291.3,347.2c-2.1,2.1-0.1,7.8,5.3,6.7"/>
			<path style="fill:none;stroke:#000000;stroke-width:0.5208;" d="M290.5,350.1c-1.2-0.5-4.2-0.1-5.5,1.8"/>
			<path style="fill:none;stroke:#000000;stroke-width:0.5208;" d="M287.1,324c-2.8,2.7-1.5,8.2,3.8,8.7"/>
			<path style="fill:none;stroke:#000000;stroke-width:0.5208;" d="M286.1,329.7c-4.1,2-4.1,10,4.1,10.4"/>
			<path style="fill:none;stroke:#000000;stroke-width:0.5208;" d="M285.8,338.7c-2.3,1.8-1.2,8.8,4.6,7.9"/>
			<path style="fill:none;stroke:#000000;stroke-width:0.5208;" d="M287.6,346.3c-0.8,0.8-1,3-0.3,3.9"/>
			<path style="fill:none;stroke:#000000;stroke-width:0.5208;" d="M285.1,343.7c-2.1,0.1-4.8,1.5-5.5,3.7"/>
			<path style="fill:none;stroke:#000000;stroke-width:0.5208;" d="M275.9,339.9c0.8-2.1,7.1-1.9,7.6,4.1"/>
			<path style="fill:none;stroke:#000000;stroke-width:0.5208;" d="M284.1,336.8c-0.9,0.2-2.6,1-3.1,2.8"/>
			<path style="fill:none;stroke:#000000;stroke-width:0.5208;" d="M281.3,317.9c-2.8,2.5-4.1,10.4,4.3,12"/>
			<path style="fill:none;stroke:#000000;stroke-width:0.5208;" d="M275.7,334.3c0-2.1,5.7-3.9,7.7-0.8"/>
			<path style="fill:none;stroke:#000000;stroke-width:0.5208;" d="M272.1,322.8c0.8,1.6,4.8,3.8,7.3,2"/>
			<path style="fill:none;stroke:#000000;stroke-width:0.5208;" d="M251.3,310.2c-0.1,3.7,3,7.1,7.2,6.6c4.2-0.5,5.2-4.2,3.9-6.7"/>
			<path style="fill:none;stroke:#000000;stroke-width:0.5208;" d="M259.2,316.8c-2.8,3.5,0.6,8.4,3.9,7"/>
			<path style="fill:none;stroke:#000000;stroke-width:0.5208;" d="M262.4,314.4c1.7-0.6,7.2-1.4,8.9,1.2"/>
			<path style="fill:none;stroke:#000000;stroke-width:0.5208;" d="M244.5,315.4c-1.3,1.9,6.7,3.9,9.4,0.1"/>
			<path style="fill:none;stroke:#000000;stroke-width:0.5208;" d="M251.2,317.5c-0.3,2.6,1,7,7.6,5.2"/>
			<path style="fill:none;stroke:#000000;stroke-width:0.5208;" d="M259.8,326.6c1-2.2-3.9-5.8-7.6-1.8c-3.7,4,0.5,8.5,2.8,7"/>
			<path style="fill:none;stroke:#000000;stroke-width:0.5208;" d="M242.7,318c-1.9,3.3,5.5,9.5,9.8,3.8"/>
			<path style="fill:none;stroke:#000000;stroke-width:0.5208;" d="M237.7,323.8c-2.7,2.8,0.6,7.9,4.7,6.3c4.1-1.5,3.7-5.8,2.7-6.9"
				/>
			<path style="fill:none;stroke:#000000;stroke-width:0.5208;" d="M232.5,329c-2.2,2-0.1,6.7,3,6.7c3,0,4.9-2.4,4.3-5.4"/>
			<path style="fill:none;stroke:#000000;stroke-width:0.5208;" d="M244.8,328.6c-0.4,3,4,5,6.8,2.3"/>
			<path style="fill:none;stroke:#000000;stroke-width:0.5208;" d="M251.8,325.4c0.4-0.6,0.1-1.7-0.6-2.3"/>
			<path style="fill:none;stroke:#000000;stroke-width:0.5208;" d="M227.8,332.9c-2.5,2,2.9,7.5,6.3,2.4"/>
			<path style="fill:none;stroke:#000000;stroke-width:0.5208;" d="M247.2,331.8c-1.6,1.5,1,5.6,3.5,4.4"/>
			<path style="fill:none;stroke:#000000;stroke-width:0.5208;" d="M238.4,334.7c0.4,2.8,5.8,4.8,9.2,0.6"/>
			<path style="fill:none;stroke:#000000;stroke-width:0.5208;" d="M241.4,337.4c-0.8,1.7,0.8,4.5,2.9,4.1"/>
			<path style="fill:none;stroke:#000000;stroke-width:0.5208;" d="M292.6,353.4c-2,3.9,4.4,8.5,9,3.7"/>
			<path style="fill:none;stroke:#000000;stroke-width:0.5208;" d="M297.2,359.2c-1,2.1,0.2,5.1,1.9,6.2"/>
			<path style="fill:none;stroke:#000000;stroke-width:0.5208;" d="M291.2,363.7c0.5-1.9,3.2-3.7,5.7-2.8"/>
			<path style="fill:none;stroke:#000000;stroke-width:0.5208;" d="M287.8,358.6c0.4-1.7,2.7-3.5,4.4-3"/>
			<path style="fill:none;stroke:#000000;stroke-width:0.5208;" d="M439.5,278.2c-9.1,0.1-5.3,14.8,2.6,11.8"/>
			<path style="fill:none;stroke:#000000;stroke-width:0.5208;" d="M436.5,289c-1.8,3,1.7,7.7,5.5,4.9"/>
			<path style="fill:none;stroke:#000000;stroke-width:0.5208;" d="M441,294.5c-2.7,4.5,7,11.4,10.8,4.3"/>
			<path style="fill:none;stroke:#000000;stroke-width:0.5208;" d="M448.8,301.5c0.1,4.2,12.5,7,10.7-1.5"/>
			<path style="fill:none;stroke:#000000;stroke-width:0.5208;" d="M458.3,304.6c3,5,14,5.5,12.9-1.9"/>
			<path style="fill:none;stroke:#000000;stroke-width:0.5208;" d="M468.7,307.8c2.3,3.3,13.1,5.4,12.8-1.5"/>
			<path style="fill:none;stroke:#000000;stroke-width:0.5208;" d="M424.8,265.5c1.5,4,6.8,5.4,12.6,3.1"/>
			<path style="fill:none;stroke:#000000;stroke-width:0.5208;" d="M421.5,268.3c3.6,2.3-1.7,12.9-7.2,8.6"/>
			<path style="fill:none;stroke:#000000;stroke-width:0.5208;" d="M421.5,274.9c4,1.9,8.9,0.5,10.3-5.2"/>
			<path style="fill:none;stroke:#000000;stroke-width:0.5208;" d="M429.3,274.1c0.4,3,4.6,5.3,10.2,4.1"/>
			<path style="fill:none;stroke:#000000;stroke-width:0.5208;" d="M419.4,277.2c5.2,4.4-2.3,13.4-5.7,9.3"/>
			<path style="fill:none;stroke:#000000;stroke-width:0.5208;" d="M421.3,280.5c2.4,1.8,8.8,0.8,9.4-4"/>
			<path style="fill:none;stroke:#000000;stroke-width:0.5208;" d="M427.9,280.5c0.5,3.1,3,4.2,6.4,4.4"/>
			<path style="fill:none;stroke:#000000;stroke-width:0.5208;" d="M419.9,284.8c2.6,3.6,9,4.6,11.8-0.1"/>
			<path style="fill:none;stroke:#000000;stroke-width:0.5208;" d="M428.9,287.4c-0.3,3.5,3.6,6.3,7.6,5.5"/>
			<path style="fill:none;stroke:#000000;stroke-width:0.5208;" d="M414.9,295.1c3.3,1.7,7-4.6,4.1-9"/>
			<path style="fill:none;stroke:#000000;stroke-width:0.5208;" d="M418.8,301.8c4,0.3,4.5-5.8,0.8-9.1"/>
			<path style="fill:none;stroke:#000000;stroke-width:0.5208;" d="M427.9,307.3c3.4-0.8,2.3-8.1-5.8-8.8"/>
			<path style="fill:none;stroke:#000000;stroke-width:0.5208;" d="M438.1,312.7c3.2-0.9,0.6-9-8.2-8.5"/>
			<path style="fill:none;stroke:#000000;stroke-width:0.5208;" d="M450.3,315.6c2.2-3.3-5-9-10.9-6.1"/>
			<path style="fill:none;stroke:#000000;stroke-width:0.5208;" d="M456.4,320.2c4,1.2,6.7-9.4-5.9-7.7"/>
			<path style="fill:none;stroke:#000000;stroke-width:0.5208;" d="M463.7,320.2c3.5-0.9,5.9-7.2-4.2-5.2"/>
			<path style="fill:none;stroke:#000000;stroke-width:0.5208;" d="M471.4,320.7c3.1,1.5,4.5-7.5-4.9-5"/>
			<path style="fill:none;stroke:#000000;stroke-width:0.5208;" d="M419.5,292.6c3.9,2.2,9.9-0.4,9.4-5.3"/>
			<path style="fill:none;stroke:#000000;stroke-width:0.5208;" d="M427.4,291.6c1.3,2.3,0.8,6.8-1.7,8"/>
			<path style="fill:none;stroke:#000000;stroke-width:0.5208;" d="M427.8,297c2.6,1,6.1,0.1,8.1-4"/>
			<path style="fill:none;stroke:#000000;stroke-width:0.5208;" d="M432.3,297c0.8,1.8,1,5.4-0.6,7.2"/>
			<path style="fill:none;stroke:#000000;stroke-width:0.5208;" d="M432.9,300.1c2.8,1.5,6.2-0.5,7.6-3.5"/>
			<path style="fill:none;stroke:#000000;stroke-width:0.5208;" d="M438.7,299.2c2.1,1.3,3.9,7.3,0.4,9.8"/>
			<path style="fill:none;stroke:#000000;stroke-width:0.5208;" d="M441,306.2c2.4,0.1,6.1,0.1,8.4-3"/>
			<path style="fill:none;stroke:#000000;stroke-width:0.5208;" d="M447.7,304.9c2.2,0.6,4.8,4.2,3.9,7.5"/>
			<path style="fill:none;stroke:#000000;stroke-width:0.5208;" d="M451.7,311.2c2.4-0.3,6.7-1.9,7.9-4.9"/>
			<path style="fill:none;stroke:#000000;stroke-width:0.5208;" d="M458.4,308.2c2.1,1.2,3.5,3.6,3.2,6.4"/>
			<path style="fill:none;stroke:#000000;stroke-width:0.5208;" d="M461.6,312.6c2.4-0.1,4.6-1.4,5.3-4.1"/>
			<path style="fill:none;stroke:#000000;stroke-width:0.5208;" d="M466.3,310.3c1.8,0.6,4,2.7,4.1,5.2"/>
			<path style="fill:none;stroke:#000000;stroke-width:0.5208;" d="M470.1,313.9c1.8-0.3,3.1-1.4,4.2-3.2"/>
			<path style="fill:none;stroke:#000000;stroke-width:0.5208;" d="M479.3,310.4c2.3,2.3-0.8,10-5.5,8.6"/>
			<path style="fill:none;stroke:#000000;stroke-width:0.5208;" d="M429.8,154.3c-4.8,2.8-18.3,1.9-11.6-9.3"/>
			<path style="fill:none;stroke:#000000;stroke-width:0.5208;" d="M431.1,146.7c-9.4,3.7-21-3.5-8.9-11.3"/>
			<path style="fill:none;stroke:#000000;stroke-width:0.5208;" d="M419,132.8c-7.9,0-13.1,12.6-2.6,17"/>
			<path style="fill:none;stroke:#000000;stroke-width:0.5208;" d="M388.5,138.1c-2.1,4,5.3,8.4,10.3,4.4c3.9-3.1,3.6-11.5,1.3-14.7
				"/>
			<path style="fill:none;stroke:#000000;stroke-width:0.5208;" d="M384.5,147.6c-2.6,8.5,16.4,9,13.4-4.5"/>
			<path style="fill:none;stroke:#000000;stroke-width:0.5208;" d="M383.5,160.2c0.6,6.4,18.2,4.4,12.5-8.6"/>
			<path style="fill:none;stroke:#000000;stroke-width:0.5208;" d="M398,148c1.4,1.9,5.3,5.3,11.8,4.6"/>
			<path style="fill:none;stroke:#000000;stroke-width:0.5208;" d="M401.1,138.9c0.6,2.3,4.5,4.1,9.5,2.4"/>
			<path style="fill:none;stroke:#000000;stroke-width:0.5208;" d="M225.4,334.8c-4.4,3.2,2.4,8.1,4.9,2.6"/>
			<path style="fill:none;stroke:#000000;stroke-width:0.5208;" d="M221.9,337.3c-4.4,3.2,2.4,8.1,4.9,2.6"/>
			<path style="fill:none;stroke:#000000;stroke-width:0.5208;" d="M218.2,339.6c-4.4,3.2,2.4,8.1,4.9,2.6"/>
			<path style="fill:none;stroke:#000000;stroke-width:0.5208;" d="M214.4,341.8c-4.2,2.3,0.7,7.8,5,2.9"/>
			<path style="fill:none;stroke:#000000;stroke-width:0.5208;" d="M210.2,344c-4.2,2.2,0.7,7.8,5,2.9"/>
			<path style="fill:none;stroke:#000000;stroke-width:0.5208;" d="M231.8,337.3c-0.1,3.3,6.2,4.6,8.4-0.3"/>
			<path style="fill:none;stroke:#000000;stroke-width:0.5208;" d="M235.7,340.4c-1.9,2.4,1.6,5.5,3.5,4.4"/>
			<path style="fill:none;stroke:#000000;stroke-width:0.5208;" d="M227.4,339.9c-0.2,2.8,5.2,4.4,7.9,1.4"/>
			<path style="fill:none;stroke:#000000;stroke-width:0.5208;" d="M230.3,342.8c-1.7,2.3,1.7,5.3,3.9,4.4"/>
			<path style="fill:none;stroke:#000000;stroke-width:0.5208;" d="M223.8,342.4c0.2,2.2,3.3,4.7,6.6,3.3"/>
			<path style="fill:none;stroke:#000000;stroke-width:0.5208;" d="M225.8,345.4c-1.3,1.2-0.6,3.9,1.2,4.7"/>
			<path style="fill:none;stroke:#000000;stroke-width:0.5208;" d="M219.1,345.2c-0.5,2,2.9,5.5,6.4,3.2"/>
			<path style="fill:none;stroke:#000000;stroke-width:0.5208;" d="M219.8,347.5c-2.1,1.6-1.8,4.1,0.8,4.4"/>
			<path style="fill:none;stroke:#000000;stroke-width:0.5208;" d="M214.8,347.2c-0.3,1.4,1.5,3.5,3.7,3.3"/>
			<path style="fill:none;stroke:#000000;stroke-width:0.5208;" d="M203.8,347.1c-2.1,1.1,3.2,6.7,6.5,1.5"/>
			<path style="fill:none;stroke:#000000;stroke-width:0.5208;" d="M198.7,349.4c-2.6,1.2,3.8,7.4,6.6,1.1"/>
			<path style="fill:none;stroke:#000000;stroke-width:0.5208;" d="M215.4,349.2c-2,0.4-3.3,3.4-1.6,4.5"/>
			<path style="fill:none;stroke:#000000;stroke-width:0.5208;" d="M208.9,350.2c-0.3,1.2,2.2,3.1,4.2,2.4"/>
			<path style="fill:none;stroke:#000000;stroke-width:0.5208;" d="M207.2,350.7c-1.9,1.2-0.9,4.6,1.4,4.1"/>
			<path style="fill:none;stroke:#000000;stroke-width:0.5208;" d="M200.3,353c-1.8,1.4-0.6,4.1,1.9,3.4"/>
			<path style="fill:none;stroke:#000000;stroke-width:0.5208;" d="M203.6,352.8c0.1,0.7,1.7,1.8,3,1.4"/>
			<path style="fill:none;stroke:#000000;stroke-width:0.5208;" d="M194.1,351.6c-2.3,1-2.1,6.6,5.5,3.5"/>
			<path style="fill:none;stroke:#000000;stroke-width:0.5208;" d="M189,353.9c-3.2,1.5-2.1,5.8,4.8,1.7"/>
			<path style="fill:none;stroke:#000000;stroke-width:0.5208;" d="M194.3,355.9c-0.8,0.6-1.7,3.5,1.4,2.4"/>
			<path style="fill:none;stroke:#000000;stroke-width:0.5208;" d="M188.6,357.3c-1.3,1.2-0.4,3.5,2.4,2.6"/>
			<path style="fill:none;stroke:#000000;stroke-width:0.5208;" d="M181.9,357.7c-2.3,1.4,2.8,3.2,6.2-0.5"/>
			<path style="fill:none;stroke:#000000;stroke-width:0.5208;" d="M183.5,359.3c-1,1-1,4.1,1.7,3"/>
			<path style="fill:none;stroke:#000000;stroke-width:0.5208;" d="M176.9,360.6c-1.5,1.2,1.1,2.7,5.9,0.6"/>
			<path style="fill:none;stroke:#000000;stroke-width:0.5208;" d="M178.8,362.2c-1.8,1.5-1.6,3.3,1,2.8"/>
			<path style="fill:none;stroke:#000000;stroke-width:0.5208;" d="M173.5,363.1c-2,1.8,0.9,3,4.4,1.5"/>
			<path style="fill:none;stroke:#000000;stroke-width:0.5208;" d="M173.5,365.1c-3.4,1.5-1.9,4.4,0.2,3.3"/>
			<path style="fill:none;stroke:#000000;stroke-width:0.5208;" d="M287.5,374.9c-0.8,1.7,1.8,3.1,4.2,2.7c2.4-0.4,4.6-2.3,2.8-5"/>
			<path style="fill:none;stroke:#000000;stroke-width:0.5208;" d="M294.7,376c2.3,1.8,6.4-0.3,6.4-3"/>
		</g>
		<g>
			<path style="fill:#FFFFFF;stroke:#000000;stroke-width:0.5208;" d="M436.8,103.1c-10.3-5.2-31.7-14.7-37.7-7
				c5.5-2.3,21.8,0.1,35.2,12.5L436.8,103.1L436.8,103.1z"/>
			<path style="fill:#FFFFFF;stroke:#000000;stroke-width:0.5208;" d="M443,102.5c-11.9-13.9-18.9-10.8-27.5-15.6
				c-8-4.5-20.9-5.4-23.3,1.7c11.8-5.7,22.6,3.1,29.2,4.1c9.1,1.5,14.2,8.5,16.9,11.7L443,102.5L443,102.5z"/>
			<path style="fill:#FFFFFF;stroke:#000000;stroke-width:0.5208;" d="M487.9,100.7c-6.2-14.2-19.4-10.5-25.2-16.5
				c-8.5-8.8-30-16.9-38.9-10.8c19.6-1,27.9,13.5,38.4,18.5C469.6,95.6,477.6,103.3,487.9,100.7L487.9,100.7z"/>
			<path style="fill:#FFFFFF;stroke:#000000;stroke-width:0.5208;" d="M464.7,99.2c-10.6-13.1-26.8-24.7-34.3-20.3
				c9.8,0.5,12.9,7.3,19.8,11.7C457.3,94.9,454.2,101.3,464.7,99.2z"/>
			<path style="fill:#FFFFFF;stroke:#000000;stroke-width:0.5208;" d="M414.5,122.4c-11.1-4.1-32.7-6.2-42.8,6.4
				C388.5,131.7,413.7,130.1,414.5,122.4z"/>
			<path style="fill:#FFFFFF;stroke:#000000;stroke-width:0.5208;" d="M412.4,127.3c-11.1-5.2-19.7,2-30.1,1
				c-19.8-1.9-34-0.8-35.8,8.8c11.3-10.2,30.4-1.8,38.1-3.9c7.7-2.1,36.3-0.3,45.3,3.6C425.3,131.1,418.1,129.6,412.4,127.3
				L412.4,127.3z"/>
			<path style="fill:#FFFFFF;stroke:#000000;stroke-width:0.5208;" d="M447.2,97.8c-2.6-8.5-2.4-17.5,10.3-16.9
				c-3.2-4-15.1-6.1-17,8.9c-14-10.3-29.4-12.1-32.2-3.2c7.2-6.2,18.4-1.7,31.8,13.5C441.3,99.5,444.4,98.2,447.2,97.8L447.2,97.8z"
				/>
			<path style="fill:#FFFFFF;stroke:#000000;stroke-width:0.5208;" d="M427.9,109.5c-8-5.2-18.8-13.5,0.1-16.9
				c-8.1-4.4-20-2.4-18.7,12.5c-21.6-8.8-37.2-5.8-40.4,2.8c-3.6,9.5,9.8,14.8,12.1,8.8c-2.4,1-10.8-1.8-6.4-7.2
				c4.4-5.4,26.8-1.3,48.2,9.8C428.7,122.4,449,121.9,427.9,109.5L427.9,109.5z"/>
			<path style="fill:#FFFFFF;stroke:#000000;stroke-width:0.5208;" d="M422.2,123.7c-6.2-12.6-26.1-1.2-30.2-13.3
				C386.6,128.2,420.5,118.3,422.2,123.7z"/>
			<path style="fill:#FFFFFF;stroke:#000000;stroke-width:0.5208;" d="M549.3,137.3c4.2,2.1,7.8-1.2,1.4-3.8
				c4.2,2.1,7.8-1.1,1.4-3.7c4.2,2.1,7.9-1.1,1.4-3.7C551.9,127.9,549.5,134.2,549.3,137.3L549.3,137.3z"/>
			<path style="fill:#FFFFFF;stroke:#000000;stroke-width:0.5208;" d="M551.5,113.1c9.3-9.8-0.8-13.1,10.6-23.2
				c9.3-8.2,1.8-13.7,10.6-20.1c2.8-2.1,9-6.2,9.5-10.3c3.7,9.3-11.6,10.6-10.6,25.5c0.7,9.5-5.8,8.7-8.2,24.7
				C562.9,113.1,560.5,120.6,551.5,113.1L551.5,113.1z"/>
			<path style="fill:#FFFFFF;stroke:#000000;stroke-width:0.5208;" d="M555.6,117.5c5.1-11.1,11.1-10.9,13.9-15.2
				c5.4-8.2,16.9,1.4,26.5-5.9c-1.7,10.4-14.7,6.7-20.3,13.4C570.1,116.5,565.4,119.5,555.6,117.5L555.6,117.5z"/>
			<path style="fill:#FFFFFF;stroke:#000000;stroke-width:0.5208;" d="M556.9,121.1c9-7.2,15.7-2.4,21.9-6.2
				c15.7-9.5,22,1.9,36.1-2.6c-3.7,9-24.5,1.3-33.5,8C572.4,127,540.7,133.5,556.9,121.1L556.9,121.1z"/>
			<path style="fill:#FFFFFF;stroke:#000000;stroke-width:0.5208;" d="M530.7,172.5c-0.1-4.1-4-9.4-9.4-10
				c-5.4-0.6-7.7-6.3-11.8-6.6c-4.1-0.3-6.8-8.5-12.5-8.4c-5.7,0.1-8,7.5,5.3,14.2C515.5,168.4,530.1,176.1,530.7,172.5L530.7,172.5
				z"/>
			<path style="fill:#FFFFFF;stroke:#000000;stroke-width:0.5208;" d="M513.9,176c-5.7,0.3-6.4,8.5-11.8,8.8c7.5,4,12.9-1.8,16.7-7
				L513.9,176L513.9,176z"/>
			<path style="fill:#FFFFFF;stroke:#000000;stroke-width:0.5208;" d="M518.6,177c-4.9,4.1-6.3,12.7,0.8,15.2
				c-4.2-5.9,7.5-8.5,3.9-13.9L518.6,177L518.6,177z"/>
			<path style="fill:#FFFFFF;stroke:#000000;stroke-width:0.5208;" d="M523.4,177.2c-3.9,7.5,6.1,8.4,3.5,14
				c5.7-1.3,6.6-12,1.4-14.8L523.4,177.2L523.4,177.2z"/>
			<path style="fill:#FFFFFF;stroke:#000000;stroke-width:0.5208;" d="M485.6,161.3c9.3-0.5,17.8,4.5,23.4,12.6
				c3.6,5.2,15.7,7.2,19.8,3.1c4.1-4.1,1.8-12.9-8.5-10c-2.6-4.4-10-2.8-13.7-6.4C503.1,156.9,489.2,146.6,485.6,161.3L485.6,161.3z
				"/>
			<path style="fill:#FFFFFF;stroke:#000000;stroke-width:0.5208;stroke-linecap:round;" d="M520.4,166.9c-2.4,0.5-3.2,4.8-1.7,7"/>
			<path style="fill:#FFFFFF;stroke:#000000;stroke-width:0.5208;stroke-linecap:round;" d="M525.6,169.5c0.8,1.3,0.3,3.1-0.1,4"/>
			<path style="fill:#FFFFFF;stroke:#000000;stroke-width:0.5208;stroke-linecap:round;" d="M500.3,161.7c4.8,0.3,5.7,3.7,10.8,5"/>
			<path style="fill:#FFFFFF;stroke:#000000;stroke-width:0.5208;" d="M497.1,149.9c16.5,4.1,29.5,7.7,37.6,12.4
				c8.1,4.6,20.6,5.9,31.6,2.8c11-3.1,32.1-5.9,31.1,7.7c5.8-6.8-1.6-14.2-16.2-15.5c0.3-6.7-6.9-12.7-12.1-8.8
				c4.8-0.6,8.9,8.2-0.5,11.8c1.8-6.7-4.8-12.7-11.8-9.8c4.4,1.3,8.9,8.7-1,11.6c-6.3,1.8-15.4-0.5-22.2-4.6
				C526.9,153.5,488.8,138.6,497.1,149.9L497.1,149.9z"/>
			<path style="fill:#FFFFFF;stroke:#000000;stroke-width:0.5208;" d="M538.6,143.2c-5.2,2.3-1.8,7.7-9.8,10.8
				c-8,3.1-13.5,10.2-11.7,16.2c5.4-11.8,14.9-11.3,18.3-16C538.8,149.7,543.7,142.9,538.6,143.2L538.6,143.2z"/>
			<path style="fill:#FFFFFF;stroke:#000000;stroke-width:0.5208;" d="M540.1,144c-0.3,9.4-7.7,6-4.8,19.2
				c0.9,4.1,2.6,10.8-0.3,17.5c8.3-6.1,3-18.8,6.7-23.6c1.8-2.3,4.1-5.9,5-9c-1.9,5.4-1.8,15.5,3.5,18c-4.2-10,11.5-18.3,0.6-29.9
				C549.3,139.1,544.4,144.1,540.1,144L540.1,144z"/>
			<path style="fill:#FFFFFF;stroke:#000000;stroke-width:0.5208;" d="M513.8,134.6c1.3,1.9,2.6,6.8,1.4,9.5
				c2.6-1.5,6.3-5.5,7.5-8.2c5.3,0.8,7.3,7.3,2.3,10.2c3.1,0,8.4,0,11.3-3.5C532.7,138.6,521.5,132.4,513.8,134.6L513.8,134.6z"/>
			<path style="fill:#FFFFFF;stroke:#000000;stroke-width:0.5208;" d="M433.7,116.1c-0.8-0.8-2.2-1.5-4.8-2
				c-7.8-1.6-3.8-8.6,2.9-8.6c14.2-15.5,22.1-3.5,39.4-8.4c6-1.7,10.2-1.2,13.5,0.2c7.7-5.2,16.8-3.7,23.4,2.3
				c0.7-1.2,1.7-2,3.1-2.4c6.1-1.7,10.9,3.5,12.6,10.2c4.7-0.9,10.1,1.5,13.6,4.7c4.9-2.5,8.3-2.6,9.5,0c4.4-2.1,10.1-3.4,12.9,3.6
				c2.8,7-6.7,4.9-8.2,19.6c-1,9.1-11.1,12.6-19.1,7.2c-12.8-8.7-25.2-10-31.4,3.1c-6.2,13.1-11,20.8-26,16.5
				c-5.4-1.5-12.4,0.5-16.7,6.4c-4.4,5.9-11.1,0.4-19.1,1c10-1.5,6.2-4.1,14.9-4.6c8-0.5,5.9-8,11.1-9c-20.1,5.2-19.3-2.3-35.8,2.8
				c7.2-9.3,18.5-4.1,24.2-9.5c-14.9-0.3-21.6-10-28.3-5.9c-10.6,6.4-5.9,24.8-33.5,23.2c-13.4-0.8-21.9,1-29.9,9
				c13.9-28.8,32.8-13,42-22.2c5.4-5.4,9.5-9.5,12.4-14.7c1-1.8,2.3-2.8,4-3.3C397.4,128.2,411.3,116.9,433.7,116.1L433.7,116.1z"/>
			<path style="fill:#FFFFFF;stroke:#000000;stroke-width:0.5208;stroke-linecap:round;" d="M546.9,112.1c0.4,0.7,0.5,1.7,0.5,2.8
				c0,5.7-8.5,5.9-9,14.3c-0.3,4.4-0.8,6.8-3.7,6.3c-3-0.5-5.5-5.2-2.7-10.6"/>
			<path style="fill:#FFFFFF;stroke:#000000;stroke-width:0.5208;" d="M437.9,107.7c-2.1-1.5-4.3-2.1-6.2-2.1"/>
			<path style="fill:#FFFFFF;stroke:#000000;stroke-width:0.5208;" d="M484.6,97.3c6.8,3,10.1,10,20.1,10.4
				c9.5,0.3,15.5,14.2,31.4,5.2c0.4-0.2,0.9-0.5,1.3-0.7"/>
			<path style="fill:#FFFFFF;stroke:#000000;stroke-width:0.5208;" d="M508,99.7c-1.4,2.3-1.7,5.4-1.4,8.2"/>
			<path style="fill:#FFFFFF;stroke:#000000;stroke-width:0.5208;" d="M476.8,128.8c-12.1,0-15.2,6.2-15.2,12.1
				c0,5.9,5.7,13.7,15.7,13.7c10,0,15.5-6.2,15.5-12.9S486.6,128.8,476.8,128.8L476.8,128.8z"/>
			<path style="fill:#FFFFFF;stroke:#000000;stroke-width:0.5208;" d="M479,154.3c-0.3-3.3-6.3-2.8-6.1-5.4c0.3-2.6,3.4-3.6,3.4-7.2
				c0-3.6,5.4-3.9,7.2-1c1.8,2.8,7.2,8.4,8.4,5.5"/>
			<path style="fill:#FFFFFF;stroke:#000000;stroke-width:0.5208;" d="M483.5,140.7c-2.8,2.8-4.1,8.6-0.4,13.1"/>
			<path style="fill:#FFFFFF;stroke:#000000;stroke-width:0.5208;" d="M487.4,145c-0.9,1.9-1.2,4.9-0.1,6.7"/>
			<path style="fill:none;stroke:#000000;stroke-width:0.5208;" d="M535.5,135.6c9.5,0.8,11.1-9.7,4-10.3"/>
			<path style="fill:none;stroke:#000000;stroke-width:0.5208;" d="M523.8,107.4c-3.3-4.2-10.8-5.6-10.9,3.3"/>
			<path style="fill:#FFFFFF;stroke:#000000;stroke-width:0.5208;" d="M512,120.8c-3.2-8-11.5-9.1-15.8-5.2
				c-3.6,3.3-3.7,12,4.1,13.8C503,126.2,508.3,122,512,120.8L512,120.8z"/>
			<path style="fill:#FFFFFF;stroke:#000000;stroke-width:0.5208;" d="M508.4,115.8c-4.6-4.1-11.5,3.7-5.3,10.8"/>
			<path style="fill:#FFFFFF;stroke:#000000;stroke-width:0.5208;" d="M420.2,135.3c3.1-0.7,7.6,0.8,14.6,4.1
				c4.4,2.1,17.5,6.4,25.8,2.1c-8.5,3.1-14.9-9.8-21.4-8.2c-6.4,1.5-18.2,3.9-23.2-0.8c12.1,0.8,18.6-8.8,32.5-0.5
				c3.9,2.3,8.8,3.9,13.1,3.6c-11.3-13.7-26.3-4.9-27.8-16c6.8,7.3,23.5-1.7,32,12.1"/>
			<path style="fill:#FFFFFF;stroke:#000000;stroke-width:0.5208;" d="M436.3,121.6c-1.6-2-0.9-4-2.6-5.5"/>
		</g>
		<path d="M523.8,107.4c-2.8-3-9-0.6-7.3,5.5C517.9,110.1,520.8,107.7,523.8,107.4z"/>
		<path d="M506.3,123.9c2-1.4,4-2.6,5.7-3.1c-0.9-2.3-2.3-4-3.8-5.2C506.7,114.6,502.5,120.3,506.3,123.9L506.3,123.9z"/>
		<g>
			<path style="fill:none;stroke:#000000;stroke-width:0.5208;stroke-linecap:round;" d="M498.7,113.5c-4.6-3.1-8.9-2.8-10.3-0.3
				c-3.3-0.1-6.1,2.3-6.2,7.2"/>
			<path style="fill:none;stroke:#000000;stroke-width:0.5208;stroke-linecap:round;" d="M489.3,122.5c-5.5-3.8-13.1-2.4-12.6,6.1"
				/>
			<path style="fill:none;stroke:#000000;stroke-width:0.5208;stroke-linecap:round;" d="M473.4,133.5c2.7-2.2,6.6-3.7,9.5,0.1"/>
			<path style="fill:none;stroke:#000000;stroke-width:0.5208;stroke-linecap:round;" d="M514.7,125.1c-1,1.4-1.8,3.6-0.1,7
				c-2.1-2.7-7.2-2.7-12.8,4.5"/>
			<path style="fill:none;stroke:#000000;stroke-width:0.5208;stroke-linecap:round;" d="M526.9,124.7c-6.7,0.8-6.6,5.2-1.2,7.1"/>
			<path style="fill:none;stroke:#000000;stroke-width:0.5208;stroke-linecap:round;" d="M479.3,108.3c-5.7-1.2-9.8,2.2-1.9,5"/>
			<path style="fill:none;stroke:#000000;stroke-width:0.5208;stroke-linecap:round;" d="M490.1,104.5c-8-1.9-11.2,0.1-7.6,1.9"/>
			<path style="fill:none;stroke:#000000;stroke-width:0.5208;stroke-linecap:round;" d="M467,136.6c-0.3,2.8,1.3,6.6,5.9,2.3"/>
			<path style="fill:none;stroke:#000000;stroke-width:0.5208;stroke-linecap:round;" d="M468.6,145c0,0.8-0.1,1.7-0.6,2.3"/>
			<path style="fill:none;stroke:#000000;stroke-width:0.5208;stroke-linecap:round;" d="M450,107.3c-4.9-1.4-5.8-5.9-0.1-5.5"/>
			<path style="fill:none;stroke:#000000;stroke-width:0.5208;stroke-linecap:round;" d="M448.4,117.7c-5.4-1.8-5.4-7.1-0.9-6.6"/>
			<path style="fill:none;stroke:#000000;stroke-width:0.5208;stroke-linecap:round;" d="M458.4,115c-6.3-1.5-6.6-5.9-1.8-5.3"/>
			<path style="fill:none;stroke:#000000;stroke-width:0.5208;stroke-linecap:round;" d="M459.2,101.6c-3.3-0.3-8.5,3.5,0.1,5.7"/>
			<path style="fill:none;stroke:#000000;stroke-width:0.5208;stroke-linecap:round;" d="M468.6,109.1c-7.9-1.2-7.7,2.1-3.1,4.1"/>
			<path style="fill:none;stroke:#000000;stroke-width:0.5208;stroke-linecap:round;" d="M474.5,101.6c-6.1-1.2-8.1,2.4-4,4"/>
			<path style="fill:none;stroke:#000000;stroke-width:0.5208;stroke-linecap:round;" d="M455.5,123.9c-1.5-1.2-2.7-7.1,4.4-5.3"/>
			<path style="fill:none;stroke:#000000;stroke-width:0.5208;stroke-linecap:round;" d="M470.1,122.1c-4.8-1.3-9.3,3.3-4.9,6.1"/>
			<path style="fill:none;stroke:#000000;stroke-width:0.5208;stroke-linecap:round;" d="M476.4,116.6c-5-0.9-9.3,0.5-6.6,2.3"/>
		</g>
		<path style="fill:#FFFFFF;stroke:#000000;stroke-width:0.5208;" d="M523.6,107.4c-2.8,0.5-5.4,2.2-7,5.5"/>
	</g>
</g>
</svg>
