<?xml version="1.0" encoding="utf-8"?>
<!-- Generator: Adobe Illustrator 25.2.1, SVG Export Plug-In . SVG Version: 6.00 Build 0)  -->
<svg version="1.1" id="Layer_1" xmlns="http://www.w3.org/2000/svg" xmlns:xlink="http://www.w3.org/1999/xlink" x="0px" y="0px"
	 viewBox="0 0 720 480" style="enable-background:new 0 0 720 480;" xml:space="preserve">
<path style="fill:#1C8A42;" d="M779.6,184c-0.5,1.4-2.8,2-5.1,1.3c-2.3-0.7-3.8-2.5-3.3-3.9l0,0c0.5-1.4,2.8-2,5.1-1.3
	C778.7,180.8,780.1,182.6,779.6,184z"/>
<g>
	<rect style="fill:#0021AD;" width="720" height="480"/>
	<path style="fill:#1C8A42;" d="M0,0h720v480L0,0z"/>
	<ellipse style="fill:#FFC639;" cx="360" cy="240" rx="65" ry="86.7"/>
	<path style="fill:#1C8A42;" d="M320.3,201.1c4.4,8.1,11.2,21.8,16.6,18.2c4.2,0,6.4,0.4,7,4.2c10,2.3,26.8-3.3,37.2-21.5
		c0,0,0.9,0.2,0.6-6.7c0.1-3,3.1-2.4,3.1-1.4c0.4,1.5,0.3,2.6,0.9,2.6c1.3-0.6,3-4.4,4.5-6.9c0.4-1.1,0.2-2.2,0.3-3.6
		c0.8-2.5,2.7-2,3.1-0.7c0.4,0.9,0.4,1.5,0.7,2.4c2,1.8,5.5,0.1,5.8,0.1c0.3-2.1,1.4-1.9,1.4-1.9c1.3-0.4,0.8-0.2,1.7,0.4
		c-0.8,11.5,1.7,12,1.5,17.9c0.1,6.6-1.5,8.5-1.5,11c0.5,3.1,7.8,3.2,5.2,5.8c-2.3,1.6,0,4.6-3.4,5.8c-9.9,6.7-11.8,12.4-11.8,12.4
		s-2.5,6.3-2.8,6.3c-1.7,4.2-3.8,1.9-4.9,3.9c-0.6,2.6-1.2,8.2-0.1,11.2c0.6,4-0.1,6.3-0.8,10.3c-0.7,8.4-3.2,9.7-3.5,12.7
		c-1.2,3.2,0.2,18-0.9,18c-7.4,0.2-13-1.9-15.9-2.7c2.8-16.3,1.7-30.6,1.7-32.1c-0.7-11.7-13.1-8.8-15-10.4
		c-1.6-0.4-2.6-2.1-3.1-2.9c-1.7-0.3-2.4-0.8-4.2-1c-0.9,0.6-0.3,1.2-2.3,2c-4.9,0.8-7.1-5.7-7.1-5.7c0.2-2.2-11.1,0.4-17.3-1.5
		c-2.5,1.9-3.6,7.4-5.7,8.1c-0.1,1.7-3.4-1.4-4.1-3.1c-0.1-4.9,3.2-7.1,3.2-7.1c2.7-2.5,4.3-2.9,5.5-4.6c0.6-4.3,0.3-7.5,1.7-10.7
		c1.2-2.5,2.9-1.3,4-2.4c1.2-1.1,1.8-8.3,0.6-10.3c0,0-5-6-5.3-6.4C315.7,204.6,319.3,200.6,320.3,201.1L320.3,201.1z"/>
	<path style="fill:#FFC639;" d="M632.1,93.7c-2.9-15.5-29.3-49-49.1-70.3c-4.7-4.3-7.8-1.7-7.2,4.4c2.5,5.5,4.3,11.5,6.8,17
		c0.7,3.7,2,6.2,2.7,9.9c0,0,0.2,6.3,0.6,6.9c6.2,9.1,7,16.7,7,16.7c3.6,9.1,6.7,15.8,13,23.3c7,5.9,1.9,24,2.1,33.7
		c0,6.1-3.3,5.4-6.2,4.7c-22.7-27.8-45.2-27.9-65-35.9c-7.8-1.1-7.9,3.8-5.3,6.6c13.9,19.8,26.9,33.2,44,44.4
		c2.9,2.4,5.8,4.8,8.6,7.1c3.3,3.7,6.6,7.3,9.9,11c7.6,6.6,8.2,12.6,8.2,13.2c0.2,12.3-4.7,21.9-6.2,25.8
		c-2.6,13.1-7.8,15.4-7.8,15.4c-42.4,38.1-64.6,48-133.3,36.2c-1-0.7-7.6,0.7,0,4.4c17.5,7.8,60.5,20.2,102-6
		c10-9.3,16.7-6.3,23.9-11.9c11.9-9.8,28.8-21.9,31.9-23.3c9.3-6.6,35.2-14,41.2-20.6c6.9-0.7,14-1.9,14.4-9.8
		c2.2-1.9,5.5-0.5,8-6.9c5.4-1.3,4.5-3.9,4.5-3.9c-1.4-5.1-6.5-7.2-10.1-11c-5.4-2.4-9.1-3.1-13-0.6c-1.2,0.7-2.5,1.5-3.7,2.2
		c0,0-5.8-1.1-5.8-1.6C635.4,173.8,636.6,117.2,632.1,93.7L632.1,93.7z"/>
	<g>
		<path id="s" style="fill:#FFFFFF;" d="M135.5,183.3l-9.2-11.5l-9.3,11.3l1-16.7l-12.4-2.6l10.4-9.4l-6.2-14.6l12,5l4.7-15.6
			l4.5,15.6l12-4.8l-6.3,14.5l10.3,9.6l-12.4,2.4L135.5,183.3L135.5,183.3z"/>
		<path style="fill:#FFFFFF;" d="M168,322.1l-9.9-8.8l-9.6,9.3l3.4-14.9l-9.8-9l12-0.4l3.6-14.9l4,14.7l12-0.1l-9.5,9.5L168,322.1
			L168,322.1z"/>
		<g>
			<path id="s_1_" style="fill:#FFFFFF;" d="M137.3,441.6l-9.2-11.5l-9.3,11.3l1-16.7l-12.4-2.6l10.4-9.4l-6.2-14.6l12,5l4.7-15.6
				l4.5,15.6l12-4.8l-6.3,14.5l10.3,9.6l-12.4,2.4L137.3,441.6L137.3,441.6z"/>
		</g>
		<g>
			<path id="s_2_" style="fill:#FFFFFF;" d="M54.8,301.6l-9.2-11.5l-9.3,11.3l1-16.7l-12.4-2.6l10.4-9.4l-6.2-14.6l12,5l4.7-15.6
				l4.5,15.6l12-4.8l-6.3,14.5l10.3,9.6L54,284.9L54.8,301.6L54.8,301.6z"/>
		</g>
		<g>
			<path id="s_3_" style="fill:#FFFFFF;" d="M213.5,264.9l-9.2-11.5l-9.3,11.3l1-16.7l-12.4-2.6l10.4-9.4l-6.2-14.6l12,5l4.7-15.6
				l4.5,15.6l12-4.8l-6.3,14.5l10.3,9.6l-12.4,2.4L213.5,264.9L213.5,264.9z"/>
		</g>
	</g>
</g>
</svg>
