<?xml version="1.0" encoding="utf-8"?>
<!-- Generator: Adobe Illustrator 25.2.1, SVG Export Plug-In . SVG Version: 6.00 Build 0)  -->
<svg version="1.1" id="Layer_1" xmlns="http://www.w3.org/2000/svg" xmlns:xlink="http://www.w3.org/1999/xlink" x="0px" y="0px"
	 viewBox="0 0 720 480" style="enable-background:new 0 0 720 480;" xml:space="preserve">
<g>
	<path style="fill:#006B3F;" d="M0,0h720v480H0V0z"/>
	<path style="fill:#FCD116;" d="M0,180h720v80H0V180z"/>
	<path style="fill:#FFFFFF;" d="M0,220h720v80H0V220z"/>
	<path d="M0,220h720v40H0V220z"/>
	<path style="fill:#FCD116;" d="M315,0h60v480h-60V0z"/>
	<path style="fill:#FFFFFF;" d="M345,0h60v480h-60V0z"/>
	<path d="M345,0h30v480h-30V0z"/>
	<g transform="translate(600 300)">
		<ellipse style="fill:#D41C30;" cx="-240" cy="-60" rx="90" ry="120"/>
		<g id="b">
			<path id="a" style="fill:#006B3F;stroke:#000000;" d="M-242.9-154.7l2.9-11l2.6,10.8l8.8,0.2l-7,7.1l3.1,12l-7.6-7.4l-7.5,7.1
				l2.9-11.7l-6.8-6.9L-242.9-154.7z"/>
			<g transform="scale(-1)">
				<path id="a_1_" style="fill:#006B3F;stroke:#000000;" d="M-237.1,34.7l-2.9,11l-2.6-10.8l-8.8-0.2l7-7.1l-3.1-12l7.6,7.4
					l7.5-7.1l-2.9,11.7l6.8,6.9L-237.1,34.7z"/>
			</g>
		</g>
		<g transform="rotate(36)">
			<g id="b_1_">
				<path id="a_2_" style="fill:#006B3F;stroke:#000000;" d="M-200.6-138.9l7.2-6.6l-2.6,10.8l7,7l-8.7,0.3l-2.8,12.2l-2.9-12
					l-9.2-0.1l7.5-7.2l-2.5-10.9L-200.6-138.9z"/>
				<g transform="scale(-1)">
					<path id="a_3_" style="fill:#006B3F;stroke:#000000;" d="M-279.4,18.9l-7.2,6.6l2.6-10.8l-7-7l8.7-0.3l2.8-12.2l2.9,12l9.2,0.1
						l-7.5,7.2l2.5,10.9L-279.4,18.9z"/>
				</g>
			</g>
		</g>
		<g transform="rotate(72)">
			<g id="b_2_">
				<path id="a_4_" style="fill:#006B3F;stroke:#000000;" d="M-173.3-92.9l8.7,0.3l-6.9,6.7l2.6,11.2l-7.2-6.6l-7.6,7.7l3-11.9
					l-7.4-7.3l9.2,0l2.8-10.8L-173.3-92.9z"/>
				<g transform="scale(-1)">
					<path id="a_5_" style="fill:#006B3F;stroke:#000000;" d="M-306.7-27.1l-8.7-0.3l6.9-6.7l-2.6-11.2l7.2,6.6l7.6-7.7l-3,11.9
						l7.4,7.3l-9.2,0l-2.8,10.8L-306.7-27.1z"/>
				</g>
			</g>
		</g>
		<g transform="rotate(108)">
			<g id="b_3_">
				<path id="a_6_" style="fill:#006B3F;stroke:#000000;" d="M-171.5-34.4l6.9,7.1l-8.5,0l-2.8,11.1l-2.9-11l-9.6,0.3l7.7-7.4
					l-2.7-11.7l7.4,7.3l7-6.5L-171.5-34.4z"/>
				<g transform="scale(-1)">
					<path id="a_7_" style="fill:#006B3F;stroke:#000000;" d="M-308.5-85.6l-6.9-7.1l8.5,0l2.8-11.1l2.9,11l9.6-0.3l-7.7,7.4
						l2.7,11.7l-7.4-7.3l-7,6.5L-308.5-85.6z"/>
				</g>
			</g>
		</g>
		<g transform="rotate(144)">
			<g id="b_4_">
				<path id="a_8_" style="fill:#006B3F;stroke:#000000;" d="M-195.9,14.4l2.5,11.1l-6.9-6.7l-7.2,6.7l2.5-11.2l-7.9-7.3l9.4,0.1
					l2.9-11.6l2.8,11.7l8.6,0.2L-195.9,14.4z"/>
				<g transform="scale(-1)">
					<path id="a_9_" style="fill:#006B3F;stroke:#000000;" d="M-284.1-134.4l-2.5-11.1l6.9,6.7l7.2-6.7l-2.5,11.2l7.9,7.3l-9.4-0.1
						l-2.9,11.6l-2.8-11.7l-8.6-0.2L-284.1-134.4z"/>
				</g>
			</g>
		</g>
		<g>
			
				<ellipse transform="matrix(0.9987 -5.148138e-02 5.148138e-02 0.9987 1.1528 -11.7579)" style="fill:#006B3F;stroke:#000000;stroke-width:2.5;" cx="-227.7" cy="-28.3" rx="5.4" ry="35.3"/>
			
				<ellipse transform="matrix(0.9987 -5.157772e-02 5.157772e-02 0.9987 1.1654 -11.5074)" style="fill:#006B3F;stroke:#000000;stroke-width:2.5;" cx="-222.4" cy="-28.3" rx="5.7" ry="35.3"/>
			
				<ellipse transform="matrix(0.9987 -5.100382e-02 5.100382e-02 0.9987 1.0564 -11.5043)" style="fill:#006B3F;stroke:#000000;stroke-width:2.5;" cx="-224.9" cy="-26.5" rx="4.6" ry="39"/>
			<path style="fill:#9C4A00;stroke:#000000;stroke-width:0.657;" d="M-266.5-9.9c4.6-0.3,2.6-3.5,4.9-5.3c2.3-1.7,5.6-0.6,6.6,1.6
				c1,2.2,0.2,4.3,1.5,4.3c1.3,0,36-1.9,37.2-0.1c1.3,1.8,1.5,5.4,0.2,6.8c-1.3,1.4-45.1,2.1-46.7,0.6
				C-264.3-3.4-266.5-9.6-266.5-9.9z"/>
			<g>
				<path style="fill:#FCD116;stroke:#000000;stroke-width:0.633;" d="M-242-5.4c-0.1,4.6,5,3.3,5.1,7.2c-0.2,4.1-8.6,0.3-8.7-7.2
					c0.4-7.5,8.6-11.2,8.7-6.9C-236.8-8.9-241.9-10.1-242-5.4z"/>
				<path style="fill:#FCD116;stroke:#000000;stroke-width:0.633;" d="M-239-5.4c-0.1,4.6,5,3.3,5.1,7.2c-0.2,4.1-8.6,0.2-8.7-7.2
					c0.4-7.5,8.6-11.2,8.7-6.9C-233.8-8.8-238.9-10-239-5.4z"/>
				<path style="fill:#FCD116;stroke:#000000;stroke-width:0.633;" d="M-235.8-5.6c-0.1,4.6,5,3.3,5.1,7.2c-0.2,4.1-8.6,0.3-8.7-7.2
					c0.4-7.5,8.6-11.2,8.7-6.9C-230.5-9-235.7-10.2-235.8-5.6L-235.8-5.6z"/>
				<path style="fill:#FCD116;stroke:#000000;stroke-width:0.633;" d="M-232.7-5.5c-0.1,4.6,5,3.3,5.1,7.2c-0.2,4.1-8.6,0.2-8.7-7.2
					c0.4-7.5,8.6-11.2,8.7-6.9C-227.5-8.9-232.6-10.1-232.7-5.5z"/>
			</g>
			
				<ellipse transform="matrix(1.062905e-02 -0.9999 0.9999 1.062905e-02 -209.8965 -224.3177)" style="fill:#9C4A00;stroke:#000000;stroke-width:0.399;" cx="-218.3" cy="-6.1" rx="4" ry="2.9"/>
			
				<ellipse transform="matrix(0.9979 -6.419022e-02 6.419022e-02 0.9979 0.7554 -15.1814)" style="fill:#006B3F;stroke:#000000;stroke-width:2.5;" cx="-235.9" cy="-19.3" rx="2.6" ry="7.7"/>
			
				<ellipse transform="matrix(0.9979 -6.419022e-02 6.419022e-02 0.9979 0.7761 -15.4657)" style="fill:#006B3F;stroke:#000000;stroke-width:2.5;" cx="-240.3" cy="-19.8" rx="2.6" ry="7.7"/>
			
				<ellipse transform="matrix(0.9979 -6.419022e-02 6.419022e-02 0.9979 1.253 -15.6841)" style="fill:#006B3F;stroke:#000000;stroke-width:2.5;" cx="-243.5" cy="-27.3" rx="2.6" ry="7.7"/>
			
				<ellipse transform="matrix(0.9978 -6.684418e-02 6.684418e-02 0.9978 1.3152 -16.0367)" style="fill:#006B3F;stroke:#000000;stroke-width:2.5;" cx="-239" cy="-27.7" rx="2.5" ry="8.5"/>
			
				<ellipse transform="matrix(0.9978 -6.570146e-02 6.570146e-02 0.9978 1.31 -15.3557)" style="fill:#006B3F;stroke:#000000;stroke-width:2.5;" cx="-232.8" cy="-27.6" rx="2.5" ry="7.9"/>
			
				<ellipse transform="matrix(0.9978 -6.570146e-02 6.570146e-02 0.9978 1.4818 -15.5845)" style="fill:#006B3F;stroke:#000000;stroke-width:2.5;" cx="-236.2" cy="-30.3" rx="2.5" ry="7.9"/>
			
				<ellipse transform="matrix(0.9978 -6.570146e-02 6.570146e-02 0.9978 1.7309 -15.8742)" style="fill:#006B3F;stroke:#000000;stroke-width:2.5;" cx="-240.5" cy="-34.3" rx="2.5" ry="7.9"/>
			
				<ellipse transform="matrix(0.9978 -6.570146e-02 6.570146e-02 0.9978 1.8788 -16.1397)" style="fill:#006B3F;stroke:#000000;stroke-width:2.5;" cx="-244.4" cy="-36.6" rx="2.5" ry="7.9"/>
			<path style="fill:#9461C9;stroke:#000000;stroke-width:0.575;" d="M-248.8-102.1c0,0-8.8,10.2-7.8,37.7
				c1.1,27.7,19.4,40.7,19.4,40.7s4.7-7.9,4.1-30.1c-1.3-32.5-10-46.9-10-46.9L-248.8-102.1z"/>
			
				<ellipse transform="matrix(5.650616e-02 -0.9984 0.9984 5.650616e-02 -197.6646 -246.0861)" style="fill:#006B3F;stroke:#000000;stroke-width:2.5;" cx="-229" cy="-18.5" rx="7.7" ry="2.6"/>
			
				<ellipse transform="matrix(5.650616e-02 -0.9984 0.9984 5.650616e-02 -200.2011 -251.7814)" style="fill:#006B3F;stroke:#000000;stroke-width:2.5;" cx="-233.3" cy="-20" rx="7.7" ry="2.6"/>
			
				<ellipse transform="matrix(5.650616e-02 -0.9984 0.9984 5.650616e-02 -194.0357 -261.5835)" style="fill:#006B3F;stroke:#000000;stroke-width:2.5;" cx="-235.4" cy="-28.1" rx="7.7" ry="2.6"/>
			
				<ellipse transform="matrix(5.745907e-02 -0.9983 0.9983 5.745907e-02 -190.3539 -256.4081)" style="fill:#006B3F;stroke:#000000;stroke-width:2.5;" cx="-231" cy="-27.4" rx="8.5" ry="2.5"/>
			
				<ellipse transform="matrix(5.705263e-02 -0.9984 0.9984 5.705263e-02 -186.273 -248.9143)" style="fill:#006B3F;stroke:#000000;stroke-width:2.5;" cx="-224.9" cy="-25.8" rx="7.9" ry="2.5"/>
			
				<ellipse transform="matrix(5.705263e-02 -0.9984 0.9984 5.705263e-02 -185.5954 -255.1713)" style="fill:#006B3F;stroke:#000000;stroke-width:2.5;" cx="-227.9" cy="-29.3" rx="7.9" ry="2.5"/>
			
				<ellipse transform="matrix(5.705263e-02 -0.9984 0.9984 5.705263e-02 -184.1925 -263.4587)" style="fill:#006B3F;stroke:#000000;stroke-width:2.5;" cx="-231.6" cy="-34.2" rx="7.9" ry="2.5"/>
			
				<ellipse transform="matrix(5.705263e-02 -0.9984 0.9984 5.705263e-02 -184.2887 -270.1318)" style="fill:#006B3F;stroke:#000000;stroke-width:2.5;" cx="-235.1" cy="-37.5" rx="7.9" ry="2.5"/>
			
				<ellipse transform="matrix(0.9556 -0.2945 0.2945 0.9556 5.9373 -70.2329)" style="fill:#D41C30;stroke:#000000;" cx="-230.2" cy="-54.8" rx="7.7" ry="29.4"/>
			
				<ellipse transform="matrix(0.9999 -1.353281e-02 1.353281e-02 0.9999 1.1066 -3.2)" style="fill:#006B3F;stroke:#000000;stroke-width:1.464;" cx="-235.9" cy="-83.4" rx="3.2" ry="3.8"/>
			<ellipse style="fill:#006B3F;stroke:#000000;stroke-width:1.546;" cx="-233.5" cy="-88.8" rx="2.9" ry="3.8"/>
			<ellipse style="fill:#006B3F;stroke:#000000;stroke-width:1.546;" cx="-237.4" cy="-88.8" rx="2.9" ry="3.8"/>
			
				<ellipse transform="matrix(0.9999 -1.328841e-02 1.328841e-02 0.9999 1.2121 -3.1511)" style="fill:#006B3F;stroke:#000000;stroke-width:1.56;" cx="-236.5" cy="-92.8" rx="3" ry="3.6"/>
			
				<ellipse transform="matrix(0.9999 -1.328841e-02 1.328841e-02 0.9999 1.2722 -3.1561)" style="fill:#006B3F;stroke:#000000;stroke-width:1.56;" cx="-236.9" cy="-97.3" rx="3" ry="3.6"/>
			<ellipse style="fill:#006B3F;stroke:#000000;stroke-width:1.546;" cx="-241.1" cy="-91.9" rx="2.9" ry="3.8"/>
			
				<ellipse transform="matrix(1 -2.436734e-03 2.436734e-03 1 0.2351 -0.5857)" style="fill:#006B3F;stroke:#000000;stroke-width:1.562;" cx="-240.2" cy="-96.8" rx="2.9" ry="3.7"/>
			
				<ellipse transform="matrix(0.9999 -1.353281e-02 1.353281e-02 0.9999 1.2855 -3.3248)" style="fill:#006B3F;stroke:#000000;stroke-width:1.464;" cx="-245" cy="-96.6" rx="3.2" ry="3.8"/>
			
				<ellipse transform="matrix(0.9999 -1.328841e-02 1.328841e-02 0.9999 1.3471 -3.186)" style="fill:#006B3F;stroke:#000000;stroke-width:1.56;" cx="-239.1" cy="-103" rx="3" ry="3.6"/>
			
				<ellipse transform="matrix(1 -2.436734e-03 2.436734e-03 1 0.2485 -0.5928)" style="fill:#006B3F;stroke:#000000;stroke-width:1.562;" cx="-243.1" cy="-102.3" rx="2.9" ry="3.7"/>
			<ellipse style="fill:#006B3F;stroke:#000000;stroke-width:1.546;" cx="-249.3" cy="-96.4" rx="2.9" ry="3.8"/>
			
				<ellipse transform="matrix(1 -2.436734e-03 2.436734e-03 1 0.2412 -0.6053)" style="fill:#006B3F;stroke:#000000;stroke-width:1.562;" cx="-248.3" cy="-99.3" rx="2.9" ry="3.7"/>
			
				<ellipse transform="matrix(1 -2.436734e-03 2.436734e-03 1 0.2488 -0.6023)" style="fill:#006B3F;stroke:#000000;stroke-width:1.562;" cx="-247" cy="-102.4" rx="2.9" ry="3.7"/>
			
				<ellipse transform="matrix(0.955 -0.2965 0.2965 0.955 7.407 -70.2874)" style="fill:#006B3F;stroke:#000000;stroke-width:2.545;" cx="-228" cy="-59.6" rx="9.7" ry="34.9"/>
			
				<ellipse transform="matrix(0.9536 -0.301 0.301 0.9536 5.9644 -68.7918)" style="fill:#006B3F;stroke:#000000;stroke-width:2.5;" cx="-220.3" cy="-53.8" rx="1.9" ry="7.3"/>
			<g>
				<path style="fill:#006B3F;stroke:#000000;stroke-width:0.575;" d="M-221.1-53.8c7.7,12.5,6.7,20.4,5.9,27.1
					c-2.4-7.7-3.7-12.6-11.4-25.1c-7.7-12.5-3.9-21.2-3.3-25.9C-228.8-73.6-228.8-66.2-221.1-53.8z"/>
				<path style="fill:#006B3F;stroke:#000000;stroke-width:0.575;" d="M-220.4-43.7c7.7,12.5,6.7,20.4,5.9,27.1
					c-2.4-7.7-3.7-12.6-11.4-25.1c-7.7-12.5-3.9-21.2-3.3-25.9C-228.1-63.5-228.1-56.2-220.4-43.7z"/>
				<path style="fill:#006B3F;stroke:#000000;stroke-width:0.575;" d="M-220.2-35.6c7.9,12.3,7,20.2,6.3,26.9
					c-2.5-7.7-3.9-12.5-11.8-24.7c-7.9-12.3-4.2-21.1-3.7-25.8C-228.2-55.2-228.1-47.8-220.2-35.6L-220.2-35.6z"/>
			</g>
			
				<ellipse transform="matrix(0.9494 -0.3142 0.3142 0.9494 9.16 -74.2137)" style="fill:#006B3F;stroke:#000000;stroke-width:1.389;" cx="-225.7" cy="-65.5" rx="3.4" ry="13"/>
			
				<ellipse transform="matrix(0.9528 -0.3035 0.3035 0.9528 6.9941 -72.1751)" style="fill:#006B3F;stroke:#000000;stroke-width:1.64;" cx="-228.7" cy="-58.6" rx="3" ry="10.7"/>
			
				<ellipse transform="matrix(0.9575 -0.2884 0.2884 0.9575 5.6669 -69.3057)" style="fill:#006B3F;stroke:#000000;stroke-width:1.64;" cx="-232.4" cy="-53.9" rx="3" ry="10.7"/>
			
				<ellipse transform="matrix(0.9377 -0.3475 0.3475 0.9377 10.3559 -84.1239)" style="fill:#006B3F;stroke:#000000;stroke-width:2.097;" cx="-229.3" cy="-70.9" rx="2.4" ry="8.1"/>
			
				<ellipse transform="matrix(0.9531 -0.3027 0.3027 0.9531 9.6114 -73.5296)" style="fill:#006B3F;stroke:#000000;stroke-width:2.097;" cx="-232.4" cy="-67.8" rx="2.4" ry="8.2"/>
			<path style="fill:#006B3F;stroke:#000000;stroke-width:0.575;" d="M-234.8-72.6c2.3,7.4,3.2,14.1,2.1,14.9
				c-1.1,0.8-3.9-4.6-6.2-12"/>
			
				<ellipse transform="matrix(0.9531 -0.3027 0.3027 0.9531 12.2264 -74.0509)" style="fill:#006B3F;stroke:#000000;stroke-width:2.097;" cx="-232.8" cy="-76.5" rx="2.4" ry="8.2"/>
			
				<ellipse transform="matrix(0.9581 -0.2866 0.2866 0.9581 11.2918 -70.9173)" style="fill:#006B3F;stroke:#000000;stroke-width:2.097;" cx="-236.6" cy="-74" rx="2.4" ry="8.2"/>
			<g>
				<path style="fill:#006B3F;stroke:#000000;stroke-width:0.575;" d="M-238.8-82.7c2.2,5,3.4,9.7,2.7,10.4
					c-0.7,0.8-3.1-2.7-5.3-7.7"/>
				<path style="fill:#006B3F;stroke:#000000;stroke-width:0.575;" d="M-237.3-86c2.2,5,3.4,9.7,2.7,10.4c-0.7,0.8-3.1-2.7-5.3-7.7
					 M-230.4-85.3c3.1,6.8,4.7,13.2,3.7,14.2c-1,1-4.4-3.7-7.4-10.5"/>
				<path style="fill:#006B3F;stroke:#000000;stroke-width:0.575;" d="M-234.9-88.9c2.2,5.5,3.4,10.7,2.7,11.5
					c-0.7,0.8-3.1-3-5.4-8.5"/>
			</g>
			<g>
				<g>
					<path style="fill:#9461C9;stroke:#000000;stroke-width:0.591;" d="M-235.1-96.9c-1.5,2,0,5.7,1.3,7c1.5,1.8,10,13.8,16.1,3.7
						C-222.6-86.2-231.6-101.3-235.1-96.9z"/>
					<path style="fill:#9461C9;stroke:#000000;stroke-width:0.591;" d="M-236.2-102.8c-1.5,2,0,5.7,1.3,7c1.5,1.8,10,13.8,16.1,3.7
						C-223.6-92.1-232.6-107.2-236.2-102.8z"/>
					<path style="fill:#9461C9;stroke:#000000;stroke-width:0.591;" d="M-237.5-108.5c-1.5,2,0,5.7,1.3,7c1.5,1.8,10,13.8,16.1,3.7
						C-225-97.8-234-112.9-237.5-108.5z"/>
					<path style="fill:#9461C9;stroke:#000000;stroke-width:0.591;" d="M-240.5-114.9c-1.5,2,0,5.7,1.3,7c1.5,1.8,10,13.8,16.1,3.7
						C-227.9-104.3-236.9-119.4-240.5-114.9L-240.5-114.9z"/>
				</g>
				<path style="fill:#9461C9;stroke:#000000;stroke-width:0.628;" d="M-251-121.2c3-3,8.6-3.9,13-0.9c3.6,2.4,9.7,12.1,14.2,14.3
					c-3.2,0.8-5.2,0.1-7.2-1.2c-4,3.9-5.5,4.5-9.6,5.3c-5.7,1.1-10.5-0.9-12.2-4.9C-254.4-112.3-253.6-118.4-251-121.2z"/>
			</g>
			
				<ellipse transform="matrix(3.914436e-02 -0.9992 0.9992 3.914436e-02 -119.8858 -354.93)" style="fill:#D41C30;stroke:#000000;stroke-width:2.5;" cx="-244.5" cy="-115.1" rx="2" ry="2.6"/>
			
				<ellipse transform="matrix(0.7827 -0.6225 0.6225 0.7827 11.6674 -180.4096)" style="fill:#FCD116;stroke:#000000;stroke-width:2.5;" cx="-252.5" cy="-106.9" rx="3.9" ry="2.8"/>
			
				<ellipse transform="matrix(0.9998 -1.798888e-02 1.798888e-02 0.9998 2.0339 -4.4193)" cx="-244.6" cy="-115.3" rx="0.9" ry="1.1"/>
			<path style="fill:#FCD116;stroke:#000000;stroke-width:0.732;" d="M-250.3-112.4c0.2,1.6-0.6,3.7-2.5,4.4
				c-1.9,1.1-3.4,3.5-4.2,7.4c-2.9-8.9-1.1-12.7,2-13.7C-252.3-115.4-250.7-115.3-250.3-112.4z"/>
		</g>
	</g>
</g>
</svg>
