<?xml version="1.0" encoding="utf-8"?>
<!-- Generator: Adobe Illustrator 25.2.1, SVG Export Plug-In . SVG Version: 6.00 Build 0)  -->
<svg version="1.1" id="Layer_1" xmlns="http://www.w3.org/2000/svg" xmlns:xlink="http://www.w3.org/1999/xlink" x="0px" y="0px"
	 viewBox="0 0 720 480" style="enable-background:new 0 0 720 480;" xml:space="preserve">
<path style="fill:#CE1126;" d="M-90-60"/>
<path style="fill:#002D62;" d="M-90-60"/>
<path style="fill:none;stroke:#000000;stroke-width:0.234;" d="M-90-60"/>
<path style="fill:#CE1126;" d="M-90-60"/>
<g>
	<path style="fill:#FFFFFF;" d="M1.3,1.1H719V478H1.3V1.1z"/>
	<path style="fill:#002D62;" d="M1.3,1.1h311v190.8H1.3V1.1z"/>
	<path style="fill:#CE1126;" d="M1.3,287.2h311V478H1.3V287.2z"/>
	<path style="fill:#002D62;" d="M408,287.2h311V478H408V287.2z"/>
	<path style="fill:#CE1126;" d="M408,1.1h311v190.8H408V1.1z"/>
	<g>
		<path style="fill:#002D62;" d="M348.9,199.9c0.7-0.6,0.8-0.8,2-1.2c2.5-0.8,6.5-0.8,9.2-0.8c2.2,0,4.3,0,6.5,0.2
			c2.2,0.2,3.5,0.5,4.9,1.7c0.3-1.5,0.6-2.8,0.6-4.5c0.1-1.8-0.9-2.3-2.5-2.6c-2.6-0.5-7-0.5-9.9-0.5c-1.8,0-8.4,0.1-9.7,0.5
			c-1.2,0.4-2.2,1.4-2.1,3C347.9,196.7,348.5,199.4,348.9,199.9L348.9,199.9z"/>
		<path style="fill:#002D62;" d="M329.6,208.5c0.4-0.4,0.1-0.8,2.2-2c2.6-1.5,6.3-2.8,9.3-3.4c2.6-0.5,5.3-0.5,8-0.3
			c1.2,0.1,2.8,0.3,4,0.1c0,0,1.3-0.3,1.6-0.6c0.5-0.4,0.4-1.4,0.4-1.4c-0.9-0.7-3.4,1.7-5.6,1c-0.7-0.2-0.9-1.4-1.2-2.2l-0.7-2.8
			c-4.1-0.5-11.2,1.1-15,2.8c-1.7,0.8-4.6,2.2-5.6,3.3c-0.9,1,0,2.4,0.6,3.1C328.2,206.9,329.1,208,329.6,208.5L329.6,208.5z
			 M365.1,200.8c-0.2,1.4,0.8,1.9,2.1,2.1c2.7,0.4,6.6-0.8,11.9,0.2c2.3,0.4,4.5,1.2,6.4,2c0.8,0.3,3.6,1.6,4.1,2.2l1,1.2
			c0.3-0.2,1.8-2,2.1-2.4c0.6-0.7,1.5-2.1,0.6-3.1c-0.8-0.9-4.2-2.7-5.7-3.3c-2-0.9-5.2-1.6-7.7-2.1c-2.5-0.4-7.6-0.8-7.6-0.8
			s-0.3,4.7-1.6,5.1C368.2,202.6,366.9,200.5,365.1,200.8z"/>
		<path style="fill:#002D62;" d="M385.1,206.7c-0.2,0.7-0.5,0.8,0.8,1.9c3.1,2.6,8.4,2.7,11.6,4.1c1.7,0.7,2.6,1.3,4.1,2.2
			c-0.1-0.4-2.1-3.2-2.5-3.9c1.5,0,3.4,0.1,4.9,0.2c-0.1-0.1-0.1-0.1-0.2-0.2c-2.2-1.9-7.8-3.7-10.6-4.6c-0.8,0.9-1.6,1.9-2.5,2.8
			c-0.3,0.3-0.6,0.6-1.3,0.4c-0.9-0.2-1.6-1-2.1-1.5C386.8,207.6,385.7,206.7,385.1,206.7L385.1,206.7z M365.2,200.4
			c1.6,0.1,1.8,0.4,3,0.9c0.5,0.2,1.1,0.3,1.7,0.3c0.9-0.1,1-0.2,1.2-0.9c0.3-1-1.3-1.6-2.1-1.8l-3.5-0.5L365.2,200.4z M355,200.4
			l-0.3-1.9c-1.1-0.1-5.9,0.7-5.6,2.2c0.2,0.7,0.3,0.8,1.1,0.9C352.4,201.8,352.7,200.4,355,200.4L355,200.4z M330,208.8
			c0.7,1.3,2.6-1,3.7-1.8c0.6-0.5,0.7-0.5,1.4-0.7l-0.4-0.6c-0.6,0.1-2.1,1-2.7,1.3C331.2,207.3,330.3,207.9,330,208.8L330,208.8z
			 M1.3,1.1"/>
	</g>
	<path style="fill:#006300;" d="M348.9,278.4c0.6,0.2,1.9,0.8,2.5,1.1c0,0,1.8,3.4,1.8,3.3c0.7,0.5,0.6,0.4,1.4,0.6l-4.3,1.8
		c-1.2,0.5-0.7,1.6-0.2,1.8c0.6,0.2,2-0.4,2.4-0.6c2.1-1,4.1-2,6-3.2c0.3-0.2,1.7-1.2,2-1.1l7.6,4.3c0.6,0.2,1.7,1,2.3,0.5
		c0.2-0.2,0.6-0.5,0.5-1c-0.1-0.5-0.4-0.5-0.8-0.7c-0.6-0.2-4-1.8-4.1-1.8l0.9-0.2c0.3-0.2-0.2-0.8,0.2-0.6l1.9-3.1l2.4-0.8
		C371.3,276.5,353.6,275.1,348.9,278.4L348.9,278.4z"/>
	<path style="fill:#FFFF00;" d="M350.2,285.7c-0.6,0.2-0.5,1.4,0.8,1C351.8,286.4,351.2,285.4,350.2,285.7L350.2,285.7z M369,285.8
		c-0.2,0.5-0.2,0.7,0.3,0.9c0.5,0.2,0.7,0.2,1.1-0.1c0.4-0.4,0.1-0.6-0.3-0.8c-0.4-0.2-0.1-0.2-0.4-0.1
		C369.5,285.7,369.3,285.7,369,285.8z M1.3,1.1"/>
	<g>
		<path style="fill:#008F4C;" d="M394.5,244.6c0.4-3.8,5-12.7,6.4-12.9c0.2,0-1.5,2.5-2.7,5c-1.2,2.5-2.5,5.7-2.9,7.2
			c-0.4,1.5-0.8,2.6-0.8,2.6C394.4,246.4,394.4,245.6,394.5,244.6L394.5,244.6z M404.6,242.3c0,0.1-0.9,0.9-1.9,1.9
			c-3.5,3.3-7.6,9-9.5,13.7c-2,5-1.5,3.7-0.9,1.3c1.5-5.2,5.7-11.8,9.6-15C403.3,242.9,404.7,242,404.6,242.3L404.6,242.3z
			 M392.9,233.8c0-3.4,0.3-4.6,2.3-8.8c1.3-2.6,1.7-3.5,1.9-3.3c0.1,0.1,0,0.6-0.3,1.1c-1.2,2.3-3.1,8.7-3.4,11.5
			c-0.1,0.9-0.3,1.7-0.4,1.7C392.9,236.1,392.9,235.1,392.9,233.8L392.9,233.8z M387.3,253c0.2,2.7-0.2,5.7-1.4,8.8
			c-0.7,1.8-3.5,6.1-4.2,6.3c-0.3,0.1-0.2,0,0.5-0.9c2.9-3.5,4.9-8.6,4.9-13.4C386.9,251.3,387.1,250.9,387.3,253L387.3,253z"/>
		<path style="fill:#008F4C;" d="M395.8,249.8c0.4,1.2,0.5,4,0,5.5c-1.1,3.5-3.6,6.1-7.2,7.4c-0.7,0.2-1.3,0.4-1.4,0.4
			c0,0,0.5-0.3,1.2-0.7c4.5-2.1,7.3-6.3,7.3-11.1c0-0.9-0.2-1.3-0.2-1.5c-0.1-0.4-0.2-0.6,0-0.7C395.7,249,395.5,248.9,395.8,249.8
			L395.8,249.8z"/>
		<path style="fill:#008F4C;" d="M405.7,257.3c0,0-2,0.4-4.3,0.8c-2.3,0.4-5.4,1-6.7,1.3c-2.1,0.4-2.5,0.5-2.6,0.3
			c-0.1-0.1-0.1-0.2-0.1-0.3c0-0.1,6.3-1.2,9.9-1.8C404.4,257.2,405.8,257.1,405.7,257.3L405.7,257.3z M387.2,217.8
			c1.5,1.8,1.8,2.6,2.6,5.6c0.5,2,0.6,2.6,0.5,2.6c-0.1,0-0.3-0.3-0.3-0.7c-0.4-1.7-2.2-6-3.2-7.6c-0.4-0.5-0.6-1-0.6-1.1
			C386.2,216.7,386.7,217.2,387.2,217.8L387.2,217.8z"/>
		<path style="fill:#008F4C;" d="M385.6,220c0.7,2.3,1.2,3,3.3,5.2c1.4,1.5,1.9,1.9,1.9,1.8c0-0.1-0.1-0.4-0.4-0.7
			c-1.2-1.2-3.8-5-4.6-6.8c-0.3-0.6-0.5-1.1-0.6-1.1C385.2,218.5,385.3,219.2,385.6,220L385.6,220z M399,227
			c-2.4,2.2-6.2,9.1-5.7,10.2c0.1,0.2,1.1-1.4,2.2-3.6c1.1-2.1,2.6-4.7,3.4-5.8c0.8-1,1.4-1.9,1.3-1.9
			C400.2,226,399.6,226.5,399,227L399,227z M400.1,228.8c-2.7,2.4-7,10.2-6.3,11.4c0.1,0.2,1.2-1.6,2.4-4c1.2-2.4,2.9-5.2,3.8-6.4
			c0.9-1.2,1.6-2.1,1.5-2.1C401.4,227.7,400.8,228.2,400.1,228.8L400.1,228.8z M384.9,221.7c0.4,2.3,0.8,3.1,2.6,5.6
			c1.2,1.6,1.6,2.2,1.7,2c0-0.1-0.1-0.4-0.3-0.7c-1.1-1.4-3.1-5.5-3.7-7.4c-0.2-0.6-0.4-1.1-0.5-1.1
			C384.6,220.1,384.7,220.8,384.9,221.7L384.9,221.7z"/>
		<path style="fill:#008F4C;" d="M388.5,226.3c1.9,0.6,2.5,0.8,2.5,0.6c0-0.1-0.3-0.3-0.7-0.4c-1.7-0.4-6.4-2.6-6.5-3.4
			c-0.2-0.3-1-1.5-1-1.5S386.9,225.8,388.5,226.3L388.5,226.3z M404.6,234.5c-3.6,2.5-10.1,11.2-9.5,12.8c0.1,0.2,1.7-1.7,3.6-4.4
			c1.8-2.7,4.4-5.9,5.7-7.2c1.3-1.3,2.2-2.3,2.1-2.3C406.4,233.4,405.6,233.9,404.6,234.5L404.6,234.5z M404.1,239.9
			c-1.6,3.2-7.6,9.2-8.9,8.9c-0.2-0.1,1.2-1.6,3.1-3.3c1.9-1.7,4.1-4.1,5-5.3c0.8-1.2,1.5-2,1.6-2
			C404.8,238.3,404.5,239,404.1,239.9L404.1,239.9z M382.8,261.6c-0.6,3.1-4.5,9.8-5.7,9.8c-0.2,0,0.7-1.6,1.9-3.6
			c1.2-2,2.6-4.6,3.1-5.8c0.5-1.2,0.9-2.1,0.9-2.1C383,260.1,382.9,260.8,382.8,261.6z M392.7,243c-0.6-2-2.4-4.4-4.9-6.6
			c-2.5-2.2-3.2-2.6-1.1-0.5c2,1.9,4.5,5.3,5.4,7.3c0.4,0.8,0.8,1.5,0.8,1.4C393.1,244.6,392.9,243.8,392.7,243L392.7,243z
			 M394.5,268.3c-2.8-0.8-9.9-0.7-10.5,0.1c-0.1,0.1,1.6,0.2,3.7,0.1c2.1-0.1,4.8,0,6,0.1c1.2,0.2,2.1,0.2,2.1,0.2
			C395.9,268.7,395.2,268.5,394.5,268.3L394.5,268.3z M391.5,269.5c-2.8-0.7-9.9-0.3-10.5,0.5c-0.1,0.1,1.6,0.1,3.7-0.1
			c2.1-0.2,4.8-0.2,6-0.1c1.2,0.1,2.1,0.1,2.1,0.1C392.8,269.9,392.2,269.7,391.5,269.5z M388.3,271c-2.8-0.6-9.9-0.1-10.4,0.8
			c-0.1,0.1,1.6,0.1,3.7-0.2c2.1-0.2,4.8-0.4,6-0.3c1.2,0.1,2.1,0.1,2.1,0C389.7,271.3,389.1,271.2,388.3,271z"/>
		<path style="fill:#008F4C;" d="M386.5,272.8c-2.4-0.9-8.6-1.1-9.1-0.2c-0.1,0.1,1.4,0.2,3.2,0.2c1.9,0,4.2,0.1,5.3,0.3
			c1,0.2,1.8,0.3,1.8,0.3C387.6,273.3,387.1,273,386.5,272.8L386.5,272.8z M397.6,264c-5.9,1.7-12.9,2.7-13.3,4.1
			c-0.1,0.2,2.6-0.2,5.2-1.2c2.6-1,6-2.1,7.5-2.4c1.5-0.3,2.7-0.6,2.7-0.8C399.5,263.6,398.5,264,397.6,264L397.6,264z M405.2,260.3
			c-0.1,0.1-2.4,0.5-5.2,1c-2.8,0.5-6.4,1.1-7.9,1.5c-2.4,0.5-2.9,0.6-3.1,0.4c-0.1-0.1-0.2-0.3-0.2-0.3c0-0.1,7.5-1.5,11.8-2.1
			C403.8,260.2,405.4,260.1,405.2,260.3L405.2,260.3z"/>
		<path style="fill:#008F4C;" d="M403.4,258.8c0,0-2,0.6-4.2,1.2c-2.3,0.6-5.2,1.5-6.5,1.9c-2,0.6-2.4,0.7-2.5,0.6
			c-0.1-0.1-0.2-0.2-0.2-0.3c0-0.1,6.2-1.9,9.7-2.8C402.2,258.8,403.6,258.6,403.4,258.8L403.4,258.8z"/>
		<path style="fill:#008F4C;" d="M401.9,251.9c-4,1.6-12.2,8.7-11.9,10.4c0,0.2,2-1.3,4.4-3.5c2.4-2.2,5.5-4.8,7-5.8
			c1.5-1,2.7-1.8,2.6-1.8C404,251.2,403,251.5,401.9,251.9L401.9,251.9z"/>
		<path style="fill:#008F4C;" d="M404.9,253.8c-4,0.3-13.2,4.4-13.4,6c0,0.2,2.2-0.6,4.9-2c2.7-1.4,6.2-2.8,7.8-3.2
			c1.6-0.4,2.8-0.8,2.8-0.9C406.9,253.8,406,253.8,404.9,253.8L404.9,253.8z"/>
		<path style="fill:#008F4C;" d="M404.8,254.3c-10.3,8.6-16.1,12.9-18.2,12c-0.3-0.1,3.8-2.5,7.3-4.7c3.5-2.2,7.7-5.4,9.4-7
			c1.7-1.6,3-2.8,3-2.7S405.6,253.1,404.8,254.3L404.8,254.3z M393.8,257c2.1-3.4,3.1-4.3,7.6-7.1c2.8-1.8,3.8-2.3,3.9-2.1
			c0,0.2-0.4,0.6-0.9,0.9c-2.5,1.5-8.3,6.6-10.3,9.1c-0.7,0.9-1.3,1.5-1.4,1.5C392.5,259.3,393,258.2,393.8,257L393.8,257z
			 M394.9,247.3c0.4-3.8,6.8-16.3,8.2-16.5c0.2,0-1.5,2.5-2.7,5c-1.2,2.5-2.5,5.7-2.9,7.2c-0.4,1.5-2.8,7-2.8,6.9
			C394.6,249.8,394.8,248.2,394.9,247.3L394.9,247.3z M392.2,232.7c-1.1-2.6-1.1-3.5-0.3-7.1c0.5-2.3,0.7-3.1,0.9-3
			c0.1,0.1,0.2,0.5,0.1,0.9c-0.5,2-0.5,7.3,0,9.5c0.2,0.7,0.3,1.4,0.2,1.4C393,234.4,392.6,233.7,392.2,232.7L392.2,232.7z
			 M394.2,246.6c-0.6-1.8-2.2-4-4.4-5.9c-2.2-2-2.9-2.3-0.9-0.4c1.8,1.7,4.1,4.8,4.9,6.6c0.3,0.7,0.7,1.3,0.8,1.3
			C394.5,248,394.4,247.3,394.2,246.6L394.2,246.6z M384.3,249.4c2-7.3,3.7-6,3.7-6c4.5,4.2,2.3,18.6,2.3,18.6
			C390.1,232.5,384.3,249.4,384.3,249.4L384.3,249.4z"/>
		<path style="fill:#008F4C;" d="M385.9,248.9c2-7.3,2.6-7,2.6-7c3.7,0.7,3.5,16.9,3.5,16.9C390.3,231.2,385.9,248.9,385.9,248.9
			L385.9,248.9z M384,254.6c-0.1-5.2,1-4.5,1-4.5c3,2.7,4.1,12.9,4.1,12.9C384.4,242.4,384,254.6,384,254.6L384,254.6z M393,239.2
			c-0.9-2.8-3.7-5.7-6.5-9.4c-3.5-3.1-4.6-3.6-1.5-0.7c2,1.2,6,7,7.3,10.5c0.5,1.2,1.1,2.1,1.2,2C393.6,241.5,393.4,240.4,393,239.2
			L393,239.2z"/>
		<path style="fill:#008F4C;" d="M392.7,236.7c-0.7-2.2-2.5-5-5.2-7.3l-1.6-1.5c1.6,1.9,5.2,6.9,6.2,9.1c0.4,0.9,0.8,1.6,0.9,1.5
			C393.2,238.5,393,237.7,392.7,236.7L392.7,236.7z M377.9,265.8c-0.2,1.6-1.9,5.1-2.5,5.2c-0.1,0,0.3-0.8,0.8-1.9
			c0.6-1,1.1-2.4,1.4-3c0.2-0.6,0.4-1.1,0.4-1.1C377.9,265,377.9,265.4,377.9,265.8L377.9,265.8z M376.4,266.7
			c-0.2,1.6-1.9,5.1-2.5,5.2c-0.1,0,0.3-0.8,0.8-1.9c0.6-1,1.1-2.4,1.4-3c0.2-0.6,0.4-1.1,0.4-1.1
			C376.5,265.9,376.4,266.3,376.4,266.7L376.4,266.7z M378.6,266.8c-0.2,1.6-1.9,5.1-2.5,5.2c-0.1,0,0.3-0.8,0.8-1.9
			c0.6-1,1.1-2.4,1.4-3c0.2-0.6,0.4-1.1,0.4-1.1C378.7,266.1,378.7,266.4,378.6,266.8L378.6,266.8z"/>
	</g>
	<path style="fill:#00873F;" d="M324.2,226.6c0,0.8,0.2,1,0.6,1.5l0.1-1.5C324.6,226.4,324.5,226.6,324.2,226.6L324.2,226.6z"/>
	<g transform="translate(-82.672 -25.552) scale(1.06534)">
		<path style="fill:none;stroke:#006300;stroke-width:0.668;stroke-miterlimit:4.2614;" d="M379.9,247.5l-0.7-0.6 M380.6,243.3
			c-0.6-0.8-0.6-0.8-0.6-0.8 M378.6,253.2c-0.2-1.7-1.2-2.2-1.2-2.2 M386.5,274.9c-4.3-4.7-5.7-13.3-5.7-13.3
			c1.4-3.6,3.3-4.4,3.3-4.4 M380.8,261.5c-1.4-5.5-1.1-11.3-1.1-11.3c0.5-7.1,2.8-13.4,2.8-13.4 M379.7,252.2
			c1.1-5.2,5.5-4.6,5.5-4.6"/>
		<path id="a" style="fill:none;stroke:#006300;stroke-width:0.1047;stroke-miterlimit:4.2614;" d="M379.6,253.1
			c3.9-1.6,3.4-5,4.1-6.4c1.1-2.1,1.8-2.7,1.8-2.7 M383.5,270.1c-1.3-3.3,0.2-4,0.2-4 M383,269c-1.7-2.2-3.9-2-3.9-2 M382.2,258.8
			c1-1.9,0-3.8,0-3.8 M382.7,268l-3-3.9 M381.5,239.9c0.4-1.5-0.8-2.2-0.8-2.2 M369.4,184.1"/>
		<g transform="translate(442.052 224.217) scale(.1567)">
		</g>
		<g transform="matrix(.1567 0 0 .18128 444.567 235.353)">
			<path id="a_1_" style="fill:none;stroke:#006300;stroke-width:0.627;" d="M371.4,193"/>
		</g>
		<g transform="translate(443.685 248.32) scale(.1567)">
			<path id="a_2_" style="fill:none;stroke:#006300;stroke-width:0.1047;stroke-miterlimit:10;" d="M370.7,203.3"/>
		</g>
		<g transform="translate(439.992 252.043) scale(.16899)">
			<path id="a_3_" style="fill:none;stroke:#006300;stroke-width:0.1129;stroke-miterlimit:10;" d="M367.8,206.3"/>
		</g>
		<g transform="translate(438.744 256.228) scale(.16899)">
			<path id="a_4_" style="fill:none;stroke:#006300;stroke-width:0.1129;stroke-miterlimit:10;" d="M366.8,209.6"/>
		</g>
		<g transform="translate(440.286 257.844) scale(.16899)">
			<path id="a_5_" style="fill:none;stroke:#006300;stroke-width:0.1129;stroke-miterlimit:10;" d="M368,210.9"/>
		</g>
		<g transform="translate(463.222 286.05) scale(.12289)">
			<path id="a_6_" style="fill:none;stroke:#006300;stroke-width:8.208661e-02;stroke-miterlimit:10;" d="M386.3,233.3"/>
		</g>
		<g transform="translate(464.293 287.305) scale(.12289)">
			<path id="a_7_" style="fill:none;stroke:#006300;stroke-width:8.208661e-02;stroke-miterlimit:10;" d="M387.2,234.3"/>
		</g>
		<path style="fill:none;stroke:#006300;stroke-width:0.668;stroke-miterlimit:4.2614;" d="M382.7,257.6c-0.2-0.8-0.9-1-0.9-1
			 M393.6,275.8c1.3,0.9,1.7,0.3,1.7,0.3"/>
	</g>
	<g>
		<path style="fill:#006300;" d="M338.4,271.2c-0.8-3-0.6-3.6-0.6-3.6 M331.3,265.8c0,0-0.5-1.2,0.3-1.8c0.5-0.4,2.6,0.7,3.6-3.9
			c0,0-0.6-0.1-2.1,0.6v-0.4c0,0-0.3-1-0.2-2.3c0,0,0.7-1.1,0.7-1.5c0,0-1.3-0.5-3.9,2.9c0,0-0.2-0.7-2.2-2c0,0-1,2.9-0.5,4.6
			c0.4,1.3,0.4,1.7,1.8,2.7c0,0,1.1,0.5,1.2,1.9c0.5,0,1.2-0.1,1.2-0.1S331.3,266.5,331.3,265.8L331.3,265.8z M329.3,269.2
			c-0.4,0.2-0.6,0.5-1.4,0.6c-3.4,0.4-5.3-4-5.3-4c-0.1-0.9,0.3-0.4,1-0.2c0.9,0.3,1.2,0.1,2.2-0.1c1.4-0.2,2.9,1.2,2.9,1.2
			c0.9,0.8,0.9,2.3,0.9,2.3C329.6,269.2,329.3,269.2,329.3,269.2L329.3,269.2z M325.3,261.3c-3.5-1.5-5.6,0.2-5.6,0.2
			c-0.1,0.2,0.2,0.3,0.2,0.3c2.2,0.3,1.5,0.2,2.4,1.4c1.6,2.2,4.4,1.7,4.4,1.7c0.6,0.1,1.1,0.8,1.1,0.8
			C327.6,263.8,325.3,261.3,325.3,261.3L325.3,261.3z M319.2,247.4c-0.7-0.5-0.5,0.5-0.5,0.5c-1.5-2.5-5.3-2.7-5.3-2.7
			c-0.3,0-0.5-0.3-0.5-0.3c-0.6,0,0.1,1.3,0.1,1.3c1.2,3.1,2.3,3.4,2.3,3.4c-1.3,0.7-3.4-0.9-2.9,0.3c2,2.1,3.4,2.4,3.4,2.4
			c2.6,0.6,3.7,0,3.7,0c0.6,1.1,1,1.2,1,1.2c2.3,0.7,2.8,2,2.8,2c0-2.5-1-5.7-1-5.7C321.6,248.8,319.2,247.4,319.2,247.4
			L319.2,247.4z"/>
		<path style="fill:#006300;" d="M337.4,272c-1.2,0.4-1.4,1.3-1.4,1.3c-1.2,1.7-5.6,0.1-5.6,0.1c-1.4-0.4-1.1-0.7-1.1-0.7
			c1.2-0.6,1.6-1.1,1.6-1.1c-2.3-2.1-2.7-4.8-2.7-4.8c3.6-0.7,4.8-0.1,4.8-0.1c-0.2-1.4-1.4-1.4-1.4-1.4c-0.3-0.4,0.3-0.5,0.3-0.5
			c3.2,0.3,4.9,2.3,4.9,2.3c1.2,1.7,0.8,3.3,0.8,3.3C338,272.1,337.4,272,337.4,272L337.4,272z M322.5,257.4
			c-1.8-0.5-2.8,0.1-2.8,0.1c-0.9,0.4-2.6-0.7-2.6-0.7c-2.2-1.8-2.6-3-2.6-3c0-0.3,1.9-0.3,1.9-0.3c2.6-0.1,3.2,0.5,3.2,0.5
			c1.3,0.8,1.2,1.4,1.7,1.7c1.1,0.7,1.3,1,1.3,1C322.9,257.2,323.1,257.6,322.5,257.4L322.5,257.4z M326,258.3
			c1.2-1.4,2.9-0.4,2.9-0.4c2.5,0.3,3.3-2.6,3.3-2.6c0.6-1.2,1-1.7,1-1.7c0.1-0.7-1.1-0.1-1.1-0.1c-2.2,0.5-2.2,0.8-2.2,0.8
			c0.4-3.4,0.4-3.4,0.4-3.4c0-0.6-0.6-0.1-0.6-0.1c-3.1,1.8-3.5,3.1-3.5,3.1l-1.3-2.4c-0.4-1-0.7,0.1-0.7,0.1
			c-0.6,2.9-0.4,3.2-0.4,3.2c0.4,1.6,0.8,2,0.8,2c0.7,1,0.7,1.3,0.7,1.3L326,258.3z"/>
		<path style="fill:#006300;" d="M344.4,266.3c-0.5,0.1-1.8,2.2-1.8,2.2c-1.6-2.9-3.6-3.4-3.6-3.4c-0.4,0.2,0.1,0.9,0.1,0.9
			c0.6,1.6-0.1,2.8-0.1,2.8c-0.2,1.1,0,1.4,0,1.4c-2.5-1.3-2.6-1.1-2.6-1.1c0,1.6,1.9,4.5,1.9,4.5c4.1-1.1,4.4-1,4.4-1
			c1.5-0.2,1.5-0.3,1.5-0.3C345.3,268.8,344.4,266.3,344.4,266.3L344.4,266.3z M324.2,250.2c1.6,0.8,1.7,1.8,1.7,1.8
			c0.4,1.3,4.1,1.7,4.1,1.7c3-0.3,2.7-0.9,2.7-0.9c-1.7-1.5-1.2-1.4-2-2.1c-1.3-1.3-3-1.3-3-1.3c-2.3,0.4-2.8-0.1-2.8-0.1
			C324.1,249.7,324.2,250.2,324.2,250.2L324.2,250.2z M320.6,244.9c-0.7-2.7,1.7-6.1,1.7-6.1c2.1,3.8,1.7,4.9,1.7,4.9
			c-0.7,2.5-1.7,4.4-1.7,4.4C321.9,246.2,320.9,245.9,320.6,244.9L320.6,244.9z"/>
		<path style="fill:#006300;" d="M319.3,246c-2.6,0.1-5.1-2.9-5.1-2.9c3.9-1,4.8-0.4,4.8-0.4c2.1,1.2,3.6,2.5,3.6,2.5
			C320.8,245.1,320.3,246,319.3,246L319.3,246z"/>
		<path style="fill:#006300;" d="M317.3,242.3c-1.7,0.3-3.1-1.4-3.1-1.4c-2.2-2.9-1.5-3.9-1.5-3.9c0.2-0.1,0.4,0.3,0.4,0.3
			c0.7,0.6,1.9,0.8,1.9,0.8c-3.5-2.2-1.2-7.1-1.2-7.1c0.4-0.5,0.6,0.7,0.6,0.7c0.5,1.3,1.9,2.1,1.9,2.1c0.7,1,0.7,1.4,0.7,1.4
			c0.4-1.7,0.8-1.2,0.8-1.2c0.4,1.3,1.9,2.2,2.1,3.2c0.5,2.5,0.1,2.8,0.1,2.8c-0.3,1.4-0.3,2.5-0.3,2.5
			C318.5,241.9,317.3,242.3,317.3,242.3L317.3,242.3z M325.6,248.2c0.8-1.1,0-3.3,0-3.3c-0.3-2.3,3.1-4.4,3.1-4.4
			c1,1.8,0.9,2.9,0.9,2.9c2.6-0.6,3.2-0.8,3.2-0.8c0.1,1.5-1.3,3.6-1.3,3.6c2.1,0.6,2.9-0.4,2.9-0.4c-1,4.7-5.6,3.8-5.6,3.8
			C327,248.4,325.6,248.2,325.6,248.2L325.6,248.2z"/>
		<path style="fill:#006300;" d="M318.5,234.5c0.3-2.9,0.8-3,0.8-3c0.3,0.1,0.5,1.4,0.9,1.6c1.8,0.8,1.8,2.7,1.8,2.7
			c-0.1,2.3-0.4,2.1-0.4,2.1C319.1,237.8,318.5,234.5,318.5,234.5L318.5,234.5z M326.8,235c0.9-3.2,0.3-3.6,0.3-3.6
			c-0.4,0-1.1,1.3-1.6,1.4c-2.3,0.2-3.1,2.3-3.1,2.3c-0.9,2.5-0.4,2.4-0.4,2.4C324.8,238.5,326.5,236.2,326.8,235L326.8,235z"/>
		<path style="fill:#006300;" d="M318.7,229.1c0.3-3.3,0.9-3.5,0.9-3.5c0.4,0.1,0.5,1.6,1,1.8c2.1,1,2.1,3.2,2.1,3.2
			c-0.1,2.7-0.4,2.4-0.4,2.4C319.3,233.1,318.5,230.3,318.7,229.1L318.7,229.1z M328,229.9c0.9-3.2,0.4-3.5,0.4-3.5
			c-0.4,0-1.1,1.3-1.6,1.3c-2.3,0.1-3.1,2.2-3.1,2.2c-0.9,2.5-0.5,2.4-0.5,2.4C325.9,233.4,327.7,231.1,328,229.9L328,229.9z
			 M331.8,238.9c2.7-2,2.4-2.6,2.4-2.6c-0.3-0.2-1.7,0.4-2.1,0.1c-1.9-1.2-3.8,0-3.8,0c-2.2,1.5-1.8,1.7-1.8,1.7
			C328.1,240.5,330.9,239.6,331.8,238.9z M1.3,1.1"/>
	</g>
	<g>
		<path style="fill:#006300;" d="M1.3,1.1"/>
		<path style="fill:#006300;" d="M1.3,1.1"/>
		<path style="fill:#00863D;" d="M330.6,239.2c0.6,0.1,0.4,0,0.9,0.2c-0.3,0.2-1.3-0.1-1.7,0l-1.8,0c0.6,0.8,1.5,1.2,2.8,1
			c1.3-0.1,1.7-0.5,2.7-1.1l-2-0.7L330.6,239.2z M329.8,250.6c-0.2-0.2-0.6-0.4-0.9-0.5c-1.1-0.4-2,0-2.5,0l-1.3-0.1
			c0.3,0.4,1.7,0.9,2.4,1C329.2,251.2,328.1,251.7,329.8,250.6L329.8,250.6z M330,251.9l0.5,0.5c-0.1,0.1-0.3-0.1-0.5-0.2l-0.1,1.2
			l2.3-0.3c-0.7-0.9-1.2-1.4-2.1-2.2C330.1,251.2,330,251.5,330,251.9L330,251.9z M327,252.5l1.4-1c-0.4-0.3-1-0.3-1.5-0.4l-1.3-0.5
			c0.3,0.4,0.3,0.3,0.7,1C326.5,251.9,326.7,252.3,327,252.5L327,252.5z M333.7,232.1c-0.6,0.4-1,0.9-1.7,1.2
			c-0.9,0.4-1.9,0-2.4,0.6c1.5-0.1,2.5,0.5,3.7-0.6c0.7-0.7,1.4-1.7,2-2.6c-0.2,0-1,0.2-1.2,0.4c-0.1,0.1-0.2,0.4-0.3,0.5
			C333.5,232,333.7,231.7,333.7,232.1L333.7,232.1z M328.7,266.8l1.1,2.3l1.5,1.9c0.3-0.1,0.7-0.4,1-0.6l1.2-0.4
			c-0.7-0.3-0.7-0.6-1.1-0.7c-1-0.1-0.4,0.1-1.7-0.1c0.1-0.2,0.1-0.1,0.7-0.1l0.8,0c-0.5-0.4-1-0.7-1.6-1.1l1.7,0.8l-0.1-1.1
			c0.4,0,0.2,0.7,0.3,1.3c0.1,0.3,0.6,0.6,0.9,0.8c0.5,0.3,0.7,0.2,1.3,0.4l1.3,0.4c-0.5-0.7-0.3,0.1-1.2-1.8
			c-0.4-0.7-0.7-1.2-1.3-1.6C332.2,266.2,330.4,266.8,328.7,266.8L328.7,266.8z M330.6,264.6c0-0.9-0.1-1.7,0-2.7
			c0-0.4-0.2-1.5-0.2-2.2c0.2,0.1,0.2,0.2,0.2,0.4l0.2,0.6c0.2-1,0.3-0.9,0.8-1.6c0.1,0.2-0.5,1-0.6,2l-0.1,2.7
			c0.1-0.1,0.1-0.2,0.2-0.3c0.1-0.1,0.2-0.2,0.3-0.3c0.2-0.2,0.3-0.4,0.5-0.7c1.3-2,0.5-3.2,0.5-3.8l0.4-1.9c-0.4,0.2-1.5,1-1.8,1.2
			c-1,1-2,2.8-1.4,4.3c0.1,0.4,0.3,0.7,0.5,1C330.3,263.8,330.4,264.3,330.6,264.6L330.6,264.6z M1.3,1.1"/>
		<path style="fill:#00863D;" d="M343,269.8c0.1-0.2,0.1-0.3,0.2-0.5c0.1-0.3,0-0.2,0.3-0.4c0.1,0.2,0,0.3-0.1,0.8
			c-0.3,0.8-0.5,1.6-0.7,2.4c0.8-0.1,0.7-0.1,1.1-0.7c0.2-0.4,0.4-0.8,0.4-1.3l-0.1-3.3l-1,1.3C342.5,268.8,342.9,268.4,343,269.8
			L343,269.8z M332.5,262.3c0.3-0.1,0.8-0.8,1.1-1.1c0.1,0.3-0.5,1-0.7,1.1c-0.6,0.5-0.2,0-1,0.9c1.5,0.2,2.1-1.8,2.6-2.8
			c-0.3,0-1.3,0.3-1.5,0.5c-0.2,0.1-0.1,0.1-0.2,0.3c0,0.2-0.1,0.2-0.1,0.4C332.7,261.9,332.6,262.1,332.5,262.3L332.5,262.3z"/>
	</g>
	<g>
		<path style="fill:#00863D;" d="M1.3,1.1"/>
		<path style="fill:#CE1126;stroke:#000000;stroke-width:0.301;" d="M354.6,284.1c2.1-0.3,4-1.4,4-1.4c0.3,0.3,2,0.1,2,0.1
			c0.8-0.2,1.1-0.3,1.1-0.3c2.1,1.3,3.7,1.5,3.7,1.5c1.9-0.1,1.9-1.5,1.9-1.5c-0.1-1.3-0.2-1.3-0.2-1.3c1-1.6-0.1-2.8-0.1-2.8
			c-0.5-0.6-3.4,0.3-3.4,0.3c-1.9,0.9-2.1,0.5-2.1,0.5c-0.6-0.9-2.6-0.7-3.5,0c-2.1-0.5-2.4-0.6-2.4-0.6c-2.2-0.8-2.5-0.3-2.5-0.3
			c-0.8,0.9-0.5,1.9-0.5,1.9c0,0.5,0.2,1,0.2,1C352.4,283.9,354.6,284.1,354.6,284.1L354.6,284.1z"/>
		<path style="fill:#CE1126;stroke:#000000;stroke-width:0.239;" d="M361.8,281.7c4.7,1,4.3,1.7,4.3,1.7c-0.3,0.5-1.7-0.1-1.7-0.1
			C360.8,282,361.8,281.7,361.8,281.7L361.8,281.7z M358.9,281.7c-4.7,1-4.3,1.7-4.3,1.7c0.3,0.5,1.7-0.1,1.7-0.1
			C359.8,282,358.9,281.7,358.9,281.7L358.9,281.7z"/>
		<path style="fill:#AA241E;stroke:#000000;stroke-width:0.223;" d="M359.1,278.6c-2,0.4-0.4,1.8-0.4,2.8c0,0.5-0.5,1.3,0,1.6
			c0.5,0.2,1.5,0,2.1,0c0.8,0,1.3,0,1.2-1c-0.1-0.7-0.3-1-0.3-2c0-0.7,0.1-1.4-0.6-1.5C360.6,278.4,359.5,278.5,359.1,278.6
			L359.1,278.6z"/>
		<path style="fill:none;stroke:#000000;stroke-width:0.241;" d="M361.8,279.7c5.3,0,4.9-0.9,4.9-0.9 M361.9,281.3
			c5.3,0.7,4.6,1.5,4.6,1.5"/>
		<path style="fill:none;stroke:#000000;stroke-width:0.234;" d="M358.6,281.1c-4.9,1.1-4.5,1.9-4.5,1.9 M358.1,279.6
			c-5,0.4-4.5-0.5-4.5-0.5"/>
	</g>
	<g>
		<path style="fill:none;stroke:#000000;stroke-width:0.234;" d="M1.3,1.1"/>
		<path style="fill:#CE1126;" d="M320.7,273.5c1.4,0.3,1.9,0.7,2.9,1.9c2.1,2.8,2.1,4.8,5.6,8.6c0.8,0.9,1.4,1.6,2.6,2.1
			c1.3,0.6,2.6,0.7,4.1,0.5c1.4-0.2,2.5-0.6,3.6-1.2c0,0,1.3-0.7,1.6-1.2c0.3-0.5,0.4-1.5,0.4-1.5c-1-0.3-2.9,1.7-4.1,2.5
			c-2.2,1.5-3.1,0.9-4.7-0.4c-1.4-1.2-1.9-2.4-2.8-4c-0.4-0.6-1-1.6-0.8-2.5l1.7-1.7c-0.7-1.1-1.5-2.3-2.1-3.2
			c-0.8-1.3-1.3-2.1-2.4-2.9c-0.6-0.5-1.9-1.2-2.8-0.7c-0.7,0.6-1.3,1.3-1.9,2.1C321.4,272.3,321,272.9,320.7,273.5z"/>
		<path style="fill:#CE1126;" d="M318.4,268.1c-0.3-0.1-1.5-1-2.1-1.3l-2.6-0.9c0.4,0.4,0.7,0.7,1.4,1.6c1.7,2.1,1.7,3.8,3,6.3
			c0.4,0.9,1.2,2,1.9,2.7c0.4,0.6,2,2,2.3,2.3c0.9,0.8,1.9,0.9,2.4,0.2c0.1-0.4-1.1-1.2-1.7-1.6c-0.8-0.4-1.5-0.9-2.1-1.4
			c-1.5-1.6-0.4-3.5,0.8-4.8l0.8-0.9c0.2-0.6-1.1-2.4-1.8-3.3c-0.7-0.9-2.5-2.9-3.3-3.8c0.1,0.7,0.4,1.7,0.5,2.5
			C317.9,266.3,318.3,267.7,318.4,268.1L318.4,268.1z M341.5,282.4l-0.6-1.5c-0.9,0.1-5.1,1.9-6.1,2.6c-0.3,0.2-1.5,1.1-0.9,1.7
			c1.6,1.8,4.1-0.8,5.6-1.9C339.9,282.8,340.6,282.3,341.5,282.4z"/>
		<path style="fill:#CE1126;" d="M325.1,279c-0.3-0.1-0.2-0.6-1.2-1.3c-0.4-0.3-2.5-1.4-2.9-1.8c0,0-0.7-0.5-0.6-1.2
			c0.1-0.6,0.5-0.7,0.5-0.7C322.9,274,325.2,278.7,325.1,279L325.1,279z M399.6,273.6c-1.4,0.3-1.9,0.7-2.9,1.9
			c-2.1,2.8-2.1,4.8-5.6,8.6c-0.8,0.9-1.4,1.6-2.6,2.1c-1.3,0.6-2.6,0.7-4.1,0.5c-1.4-0.2-2.5-0.6-3.6-1.2c0,0-1.3-0.7-1.6-1.2
			c-0.3-0.5-0.4-1.5-0.4-1.5c1-0.3,2.9,1.7,4.1,2.5c2.2,1.5,3.1,0.9,4.7-0.4c1.4-1.2,1.9-2.4,2.8-4c0.4-0.6,1-1.6,0.8-2.5l-1.7-1.7
			c0.7-1.1,1.5-2.3,2.1-3.2c0.8-1.3,1.3-2.1,2.4-2.9c0.6-0.5,1.9-1.2,2.8-0.7c0.7,0.6,1.3,1.3,1.9,2.1
			C398.9,272.4,399.4,273,399.6,273.6L399.6,273.6z"/>
		<path style="fill:#CE1126;" d="M402,268.2c0.3-0.1,1.5-1,2.1-1.3l2.6-0.9c-0.4,0.4-0.7,0.7-1.4,1.6c-1.7,2.1-1.7,3.8-3,6.3
			c-0.4,0.9-1.2,2-1.9,2.7c-0.4,0.6-2,2-2.3,2.3c-0.9,0.8-2.1,0.8-2.4,0.2c-0.1-0.4,1.1-1.2,1.7-1.6c0.8-0.4,1.5-0.9,2.1-1.4
			c1.5-1.6,0.4-3.5-0.8-4.8l-0.8-0.9c0.2-1.2,1.1-2.4,1.8-3.4c0.7-0.9,2.5-2.9,3.3-3.8c-0.1,0.7-0.4,1.7-0.5,2.5
			C402.3,266.6,402.1,267.4,402,268.2L402,268.2z M378.8,282.5l0.6-1.5c0.9,0.1,5.1,1.9,6.1,2.6c0.3,0.2,1.5,1.1,0.9,1.7
			c-1.6,1.8-4.1-0.8-5.6-1.9C380.4,282.9,379.7,282.4,378.8,282.5L378.8,282.5z"/>
		<path style="fill:#CE1126;" d="M395.2,279c0.3-0.1,0.2-0.6,1.2-1.3c0.4-0.3,2.5-1.4,2.9-1.8c0,0,0.7-0.5,0.6-1.2
			c-0.1-0.6-0.5-0.7-0.5-0.7C397.4,274.1,395.1,278.8,395.2,279z"/>
	</g>
	<g transform="matrix(1.11591 0 0 1.11592 -106.897 -41.652)">
		<path style="fill:#FFFFFF;" d="M398.9,232c0.1,0.3,0,29.2,0,32.2c0,2.9,0,4.7,1.4,6.5c1.1,1.6,3,2.9,4.8,3.3
			c1.3,0.3,6.1,0.2,7.8,0.2c3.7-0.2,4.1,0.6,5.5,2.5c1.6-2.6,3.3-2.6,6.6-2.5c1.7,0,5.2,0.1,6.7-0.2c1.8-0.4,3.1-1.3,4.3-2.7
			c1.9-2.1,1.8-4.8,1.8-7.6v-30.5c0-1.4-0.2-1,0.5-1.7l4.6-4.8l-49.2,0L398.9,232L398.9,232z"/>
		<path style="fill:#002D62;" d="M414.3,246.3v-19.7h-20.3l5.1,5.3l0,14.4H414.3z"/>
		<path style="fill:#CE1126;" d="M422.4,246.3v-19.7h20.7l-5.3,5.7v14H422.4z M414.3,254.5h-15.4l0,12.4c0.7,5.4,4.7,7.3,8.3,7.2
			c2.4,0,3.3,0,7.1,0V254.5z"/>
		<path style="fill:#002D62;" d="M422.4,254.5h15.5l-0.1,12.4c-0.4,5.4-4.7,7.3-8.3,7.2l-7.1,0L422.4,254.5z"/>
		<path style="fill:#002D62;" d="M20.5,8.6"/>
		<path style="fill:#EAC102;stroke:#000000;stroke-width:0.3046;stroke-miterlimit:4.4636;" d="M417.6,231.5v2.2h-2.2v1.9h2.2v7.9
			h1.8v-7.9h2.3v-1.9h-2.3v-2.2H417.6z"/>
		<g id="b">
			<path style="fill:#FFFFFF;" d="M404.8,234.4l0,3.6l-1.5-1.5l0.2,25.4c0,3.8,2.7,6.8,6.1,6.8c3.3,0,6.1-3,6.1-6.8l-0.2-13.1
				l-1.6-1.7l0-1.3L404.8,234.4z"/>
			<path style="fill:#002D62;" d="M404.8,234.5l0,3.6l-1.5-1.5l0.1,14.5l6.6,6.2l0-13.8l-0.2-0.3v-2.3L404.8,234.5z"/>
			<path style="fill:#CE1126;" d="M411.9,243.5l1.9,2.4l0,0.8l-2-2L411.9,243.5z M415.5,249l0.2,9.1c-0.9,1.8-2.8,0.8-2.8,0.8
				l0.1-12.6L415.5,249z"/>
			<path style="fill:#002D62;" d="M415.7,262.7c-2.5,1.9-3.2-0.9-3.2-0.9c1.9-0.2,2.8-1.3,3.2-2.4L415.7,262.7z"/>
			<path style="fill:#CE1126;" d="M403.5,254.8c3.4,3.9,6.4,6,6.4,6c0.8,6.1,4.4,4.1,5.7,3.1c-0.7,2.9-3.1,4.9-5.9,4.9
				c-3.4,0-6.1-3.1-6.1-6.9L403.5,254.8z"/>
			<path style="fill:none;stroke:#000000;stroke-width:0.2924;stroke-miterlimit:4.4636;" d="M413.8,246.8l0-0.9l-9-11.4l0,3.2
				L413.8,246.8z"/>
			<path style="fill:none;stroke:#000000;stroke-width:0.3537;stroke-miterlimit:4.4636;" d="M403.3,236.5l0.2,25.4
				c0,3.8,2.7,6.9,6.1,6.9c3.3,0,6.1-3,6.1-6.8l-0.2-13.1L403.3,236.5z"/>
			<g>
				<path style="fill:#EAC102;stroke:#000000;stroke-width:7.141825e-02;stroke-miterlimit:4.4636;" d="M408.2,232.2
					c-0.6-1.2-0.5-1.7-0.1-2.1l-2.3-2.4l0.7,3.3C407.2,230.8,407.6,231,408.2,232.2z M405.8,227.7l2.4,4.5"/>
				<path style="fill:#EAC102;stroke:#000000;stroke-width:7.141825e-02;stroke-miterlimit:4.4636;" d="M417.7,247.7l-0.6,0.2
					l-9.5-16.2l0.6-0.3L417.7,247.7z"/>
				<path style="fill:#EAC102;stroke:#000000;stroke-width:7.141825e-02;stroke-miterlimit:4.4636;" d="M407.3,231.6
					c-0.1-0.2,0.1-0.4,0.4-0.6c0.3-0.2,0.6-0.2,0.7,0c0.1,0.2-0.1,0.4-0.4,0.6C407.7,231.8,407.4,231.8,407.3,231.6L407.3,231.6z
					 M404.1,232.9c-0.8-1.1-0.7-1.6-0.3-2.1l-2.6-2.1l1.1,3.2C402.9,231.8,403.4,231.9,404.1,232.9z M401.2,228.8l2.9,4.1"/>
				<path style="fill:#EAC102;stroke:#000000;stroke-width:7.141825e-02;stroke-miterlimit:4.4636;" d="M415.5,247.1l-0.6,0.3
					l-11.5-14.9l0.5-0.4L415.5,247.1z"/>
				<path style="fill:#EAC102;stroke:#000000;stroke-width:7.141825e-02;stroke-miterlimit:4.4636;" d="M403.1,232.6
					c-0.1-0.1,0-0.4,0.3-0.6c0.3-0.2,0.6-0.2,0.7-0.1c0.1,0.1,0,0.4-0.3,0.6C403.5,232.7,403.2,232.7,403.1,232.6z M403.5,236.2
					c-0.9-1-0.9-1.5-0.6-2l-2.8-1.7l1.4,3.1C402.1,235.2,402.6,235.3,403.5,236.2z M400.1,232.5l3.4,3.8"/>
				<path style="fill:#EAC102;stroke:#000000;stroke-width:7.141825e-02;stroke-miterlimit:4.4636;" d="M415.8,249.3l-13.1-13.4
					l0.5-0.4l13.1,13.5L415.8,249.3z"/>
				<path style="fill:#EAC102;stroke:#000000;stroke-width:7.141825e-02;stroke-miterlimit:4.4636;" d="M402.4,236
					c-0.1-0.1,0-0.4,0.2-0.6c0.2-0.2,0.5-0.3,0.6-0.2c0.1,0.1,0,0.4-0.2,0.6C402.8,236,402.5,236.1,402.4,236z"/>
			</g>
		</g>
		<g transform="matrix(-1 0 0 1 998.257 0)">
			<g id="b_1_">
				<path style="fill:#FFFFFF;" d="M432.3,234.4l0,3.6l1.5-1.5l-0.2,25.4c0,3.8-2.7,6.8-6.1,6.8c-3.3,0-6.1-3-6.1-6.8l0.2-13.1
					l1.6-1.7l0-1.3L432.3,234.4z"/>
				<path style="fill:#002D62;" d="M432.3,234.5l0,3.6l1.5-1.5l-0.1,14.5l-6.6,6.2l0-13.8l0.2-0.3v-2.3L432.3,234.5z"/>
				<path style="fill:#CE1126;" d="M425.2,243.5l-1.9,2.4l0,0.8l2-2L425.2,243.5z M421.6,249l-0.2,9.1c0.9,1.8,2.8,0.8,2.8,0.8
					l-0.1-12.6L421.6,249z"/>
				<path style="fill:#002D62;" d="M421.4,262.7c2.5,1.9,3.2-0.9,3.2-0.9c-1.9-0.2-2.8-1.3-3.2-2.4L421.4,262.7z"/>
				<path style="fill:#CE1126;" d="M433.7,254.8c-3.4,3.9-6.4,6-6.4,6c-0.8,6.1-4.4,4.1-5.7,3.1c0.7,2.9,3.1,4.9,5.9,4.9
					c3.4,0,6.1-3.1,6.1-6.9L433.7,254.8z"/>
				<path style="fill:none;stroke:#000000;stroke-width:0.2924;stroke-miterlimit:4.4636;" d="M423.3,246.8l0-0.9l9-11.4l0,3.2
					L423.3,246.8z"/>
				<path style="fill:none;stroke:#000000;stroke-width:0.3537;stroke-miterlimit:4.4636;" d="M433.8,236.5l-0.2,25.4
					c0,3.8-2.7,6.9-6.1,6.9c-3.3,0-6.1-3-6.1-6.8l0.2-13.1L433.8,236.5z"/>
				<g>
					<path style="fill:#EAC102;stroke:#000000;stroke-width:7.141825e-02;stroke-miterlimit:4.4636;" d="M428.9,232.2
						c0.6-1.2,0.5-1.7,0.1-2.1l2.3-2.4l-0.7,3.3C430,230.8,429.5,231,428.9,232.2z M431.3,227.7l-2.4,4.5"/>
					<path style="fill:#EAC102;stroke:#000000;stroke-width:7.141825e-02;stroke-miterlimit:4.4636;" d="M419.4,247.7l0.6,0.2
						l9.5-16.2l-0.6-0.3L419.4,247.7z"/>
					<path style="fill:#EAC102;stroke:#000000;stroke-width:7.141825e-02;stroke-miterlimit:4.4636;" d="M429.9,231.6
						c0.1-0.2-0.1-0.4-0.4-0.6c-0.3-0.2-0.6-0.2-0.7,0c-0.1,0.2,0.1,0.4,0.4,0.6C429.5,231.8,429.8,231.8,429.9,231.6L429.9,231.6z
						 M433,232.9c0.8-1.1,0.7-1.6,0.3-2.1l2.6-2.1l-1.1,3.2C434.3,231.8,433.8,231.9,433,232.9z M436,228.8l-2.9,4.1"/>
					<path style="fill:#EAC102;stroke:#000000;stroke-width:7.141825e-02;stroke-miterlimit:4.4636;" d="M421.6,247.1l0.6,0.3
						l11.5-14.9l-0.5-0.4L421.6,247.1z"/>
					<path style="fill:#EAC102;stroke:#000000;stroke-width:7.141825e-02;stroke-miterlimit:4.4636;" d="M434,232.6
						c0.1-0.1,0-0.4-0.3-0.6c-0.3-0.2-0.6-0.2-0.7-0.1c-0.1,0.1,0,0.4,0.3,0.6C433.6,232.7,433.9,232.7,434,232.6z M433.7,236.2
						c0.9-1,0.9-1.5,0.6-2l2.8-1.7l-1.4,3.1C435,235.2,434.6,235.3,433.7,236.2z M437.1,232.5l-3.4,3.8"/>
					<path style="fill:#EAC102;stroke:#000000;stroke-width:7.141825e-02;stroke-miterlimit:4.4636;" d="M421.3,249.3l13.1-13.4
						l-0.5-0.4L420.8,249L421.3,249.3z"/>
					<path style="fill:#EAC102;stroke:#000000;stroke-width:7.141825e-02;stroke-miterlimit:4.4636;" d="M434.7,236
						c0.1-0.1,0-0.4-0.2-0.6c-0.2-0.2-0.5-0.3-0.6-0.2s0,0.4,0.2,0.6C434.3,236,434.6,236.1,434.7,236z"/>
				</g>
			</g>
		</g>
		<g>
			<path style="fill:#CE1126;stroke:#000000;stroke-width:0.2634;stroke-miterlimit:4.4636;" d="M416.7,258.6l-0.5,8
				c-0.5,0-1.5-0.1-1.6-0.8c0-0.4,1-6.9,1-7.6C416,258.4,416.3,258.6,416.7,258.6L416.7,258.6z"/>
			<path style="fill:#002D62;stroke:#000000;stroke-width:0.2634;stroke-miterlimit:4.4636;" d="M415.9,258.3
				c-0.1,0.3-0.2,2.2-0.2,2.5c0.2,0.8,1.1,0.7,1.6,0.7l0.1-4.1C417.3,257.5,416.1,258.2,415.9,258.3z"/>
			<path style="fill:#002D62;stroke:#000000;stroke-width:0.2634;stroke-miterlimit:4.4636;" d="M416,268.6c1.3-1.7,3.8-0.4,3.8-0.4
				c2.7,0.6,2-2.5,2-2.5c-0.6-6.2-1.2-10.4-1.2-10.4l-4,2.6L416,268.6z"/>
			<path style="fill:#002D62;stroke:#000000;stroke-width:0.2098;stroke-miterlimit:4.4636;" d="M416,268.7
				c-0.3,1.8,1.6,1.6,1.6,1.6c2.2,0,1.6-2.3,1.6-2.3C416.7,267.2,416,268.7,416,268.7z"/>
			<path style="fill:#CE1126;stroke:#000000;stroke-width:0.2634;stroke-miterlimit:4.4636;" d="M417.5,257.2
				c-0.1,6.4-0.2,7.1-0.2,7.1c0.1,1.8,2,0.8,2,0.8c0.5-0.2,1,0,1,0l-0.1-2.2c3.2-0.2,2.5-2.1,2.5-2.1c-1.3-6.1-1.4-5.8-1.4-5.8
				L417.5,257.2z"/>
			<path style="fill:none;stroke:#000000;stroke-width:0.2511;stroke-miterlimit:4.4636;" d="M420.3,262.8c-2,0-2.8,0.8-2.8,0.8
				l-0.1,0.2"/>
			<path style="fill:#FFFFFF;stroke:#000000;stroke-width:0.2332;stroke-miterlimit:4.4636;" d="M420.1,268.1l-0.7-12.1l1.4-0.9
				l1.2,11.3v0.1C422,268.6,420.1,268.1,420.1,268.1z"/>
		</g>
		<g>
			<path style="stroke:#000000;stroke-width:4.686822e-02;stroke-miterlimit:4.4636;" d="M409.9,248.8l5.4,9.9L427,251l-6.1-8.9
				L409.9,248.8z"/>
			<path style="fill:#FFFFFF;stroke:#000000;stroke-width:0.3035;stroke-miterlimit:4.4636;" d="M410.1,248.7l11-6.4l6,8.6
				l-11.6,7.4L410.1,248.7z"/>
			<path style="stroke:#000000;stroke-width:4.352049e-02;stroke-miterlimit:4.4636;" d="M415.6,257.8l10.9-7l-0.8-1.3l-5.5-7.4
				l-4,3.2l-5.1,2.8l-0.9-0.6l0.2,1.2L415.6,257.8z"/>
			<path style="fill:#FFFFFF;stroke:#000000;stroke-width:0.1652;stroke-miterlimit:4.4636;" d="M416.2,245.3
				c-1.6-0.8-3.5,1.6-4,2.1c-0.5,0.5-1.6,0.2-1.6,0.2l4.9,8.8c1.5,0.6,2.4-1.3,3.1-1.9c1.2-1.1,2.7-1,2.7-1L416.2,245.3z"/>
			<path style="fill:#FFFFFF;stroke:#000000;stroke-width:0.1652;stroke-miterlimit:4.4636;" d="M416.4,245.4c0-1.9,2.4-2.5,3-2.8
				c0.6-0.3,0.8-1.5,0.8-1.5l5.5,8.4c-0.1,1.7-2.1,1.8-2.8,2.2c-1.4,0.8-1.6,2-1.6,2L416.4,245.4z"/>
			<path style="fill:#FFFFFF;stroke:#000000;stroke-width:0.1172;stroke-miterlimit:4.4636;" d="M415.3,256.5
				c-3.2-5.8-4.9-8.8-4.9-8.8c-0.1,1.1,0,1,0,1c3.7,5.9,5.2,9.1,5.2,9.1C415.5,257.3,415.4,256.9,415.3,256.5z"/>
			<g>
				<path style="fill:#FFFFFF;stroke:#000000;stroke-width:0.1172;stroke-miterlimit:4.4636;" d="M20.5,8.6"/>
				<path style="fill:#FFFFFF;stroke:#000000;stroke-width:0.1172;stroke-miterlimit:4.4636;" d="M20.5,8.6"/>
				<path style="fill:#FFFFFF;stroke:#000000;stroke-width:0.1172;stroke-miterlimit:4.4636;" d="M20.5,8.6"/>
			</g>
		</g>
	</g>
</g>
</svg>
