<?xml version="1.0" encoding="utf-8"?>
<!-- Generator: Adobe Illustrator 25.2.1, SVG Export Plug-In . SVG Version: 6.00 Build 0)  -->
<svg version="1.1" id="Layer_1" xmlns="http://www.w3.org/2000/svg" xmlns:xlink="http://www.w3.org/1999/xlink" x="0px" y="0px"
	 viewBox="0 0 720 480" style="enable-background:new 0 0 720 480;" xml:space="preserve">
<g>
	<rect style="fill:#EA0437;" width="720" height="480"/>
	<path style="fill:#4189DD;" d="M0,480h720V240"/>
	<path style="fill:#12AD2B;" d="M0,0h720v240"/>
	<path style="fill:#FFC726;" d="M165.8,354.4c-7.8,2.9-12.2,10.9-12.1,18.5l38.3-0.2c0.3-8.2-4.7-15.7-12.4-18.7
		c37.5-1,70.1-19.8,76-31.8c-5.9-3.4-12.6,2.1-17.5,0.8c11.5-7.1,45.8-36.7,40.2-68.5c-4.3,17.7-17.5,32.3-23.1,36.2
		c12.8-26,30.4-53,15.2-74c0.8,12.1-5.8,25.5-8.7,26.5c7.4-27.5,14.5-61.9-1.6-84.7c2.1,8.2,1.3,31.4-1.7,32.4
		c-0.9-18.7-3.3-57.9-18-57.4c4.7,5.6,6.7,20.7,6.8,36.1c-3.4-10.5-7.2-18.4-15.3-26.2c-6.6-16.9-18.4-30.9-30.1-40.9
		c1.3,12.3,2.4,22,15.3,34.8c-6.7-0.6-13.4-17.5-20.6-18c-5.7-0.4-10.2,6.9-19.5,2.7c1,4.1,5.4,5.9,6.3,9c-2,1.8-6.7-0.3-10.7-3
		c5.4,9.9,13.8,15.6,21,13.7c8.5-2.2,17.6-1,26.3,5.6c-2.2,1.5-10.8,1.5-16.4,0.6c5,6.8,8.4,11.3,17.2,11.2
		c7.8-0.1,11.9-5.6,13.9-2.2c4.9,7.7,8.2,15.5,12.3,24.6c-9.1,1.3-6.3-13.7-16.4-21.3c-5.7,15.6,6.5,34.2,14.8,41.9
		c0.1,11.8,1.4,21.6,5.1,30.5c2.5,6.3,5.8,12.8,4.6,27c-5-4.8-9.8-21.1-8-34c-6.2,2.3-8.6,16.8-5.7,24.2c2.2,5.6,3.6,16.3,1.1,21.1
		c-2.5,4.5-2.7,4-2.7,13.5c0.1,5.7-2.3,12.5-6.2,17.2c0.8-4,1.7-11,0.8-15.3c-3.1,7-10.8,14.2-13.3,21.7c-2.4,7.5-3,20.5-14.6,23.5
		c-14.9,3.9-20,7.4-29.6,12.6c-1.1-9.7,2.1-29.9,8.2-28.8c5.9,1.4,24-8.3,17.5-28.5c-1.3,6.4-5.5,12.6-10.1,12.9
		c5-8.6,13.8-17.5,9.5-31.8c-2.4,6.1-6.2,13.4-11.9,17.6c6.1-15.7,0.7-20.3-6.6-7.4c-2.7,5-4.4,14.9-6.2,27.6
		c-2.9-10.3-2.7-23.9-6.1-34.9c-3.5-11.9,4.7-15,8.6-14.1c9.5,3.4,25.3,3.4,24.2-17.5c-4.1,7.1-11.3,9.3-19,6.7
		c8.7-8.5,15.6-24.4,5.9-32.8c-0.3,8.8-5.5,18.7-12.3,23.3c-1.6-7.5-1.6-15.4-0.2-24c-3.8,5.4-6.6,16.5-8.8,29.2
		c-0.2-12.5,1.6-21.6,2.9-28.3c2-9.9,7-3.4,14.6-2.7c7.3,0.6,17.4-4.8,15.5-18.1c-2.5,5.2-7.6,7.3-12.9,6.7
		c6.3-5.1,17.3-14.2,11.3-28.1c-2.5,5.3-3.4,9.8-10.7,11.4c1.9-5.9,2.2-14.2,7.9-17.5c-10.2-2.7-16,6.2-18.9,20.1
		c-1.2-9.7-2.6-13.2-2.9-20.3c5.5-8.1,6.1-24.1-5.8-27.6c-0.7,8.2-0.5,10.2,0.9,16.9c-5.6-4.4-13.5-6.9-18.7-0.6
		c3.6,5.1,9,9.6,17.5,4c-2,8.7-7.2,7.2-14.4,3.9c4.4,10.9,9.9,12.9,16,11.6c3.2,11.2,3.3,19.7-6,36c0.4-10.1-0.1-17.7-6.2-25.9
		c-5.2-6.8-9.4,0.3-1.3,15.3c-4.9-4.8-10.5-14.6-12.1-24.4c-1.6,12.1-0.2,26.3,4.9,34.3c-2.4,3.4-5.1-0.4-9.1-8.6
		c1.5,26.5,10,31.6,21.4,25.7c0.3,14.5,0.3,28,1,45.5c-6.6-12.7-15.1-22.2-19.7-24.6c-1.5,7.1,4,16.4,7.1,21.6
		c-4.7-1.3-14.9-11.7-14.9-11.7c-1,11.8,10.4,22.7,17.8,27.6c-8.7-0.5-12.5-4.9-18.1-12.1c0.1,32.7,26.6,27,31.6,22
		c0.6,16.1,1.6,34.7,2.2,50.9c-7.5-1.7-6.9-4.7-13.3-5.5c-17.8-0.9-31.9-28.5-36.6-48.7c-1.3,3.3-0.3,6.8-1.5,10.9
		c-2.9-9.9-6.6-22.8-11.5-28.8c1.3,5.8,1.4,11.7,1,22.5c-1.7-7-3.3-9.2-3.4-17.4c0.1-6.3,4.6-11,4.3-19.9
		c-0.2-6.5-4.6-20.6-5.3-31.5c-2.2,11.2-3.5,23-6.8,30c1.6-12,1.1-20.2,3.9-28.3c3.2-8.5,5.9-16.1,3.8-24.6c-2,3.3-1.3,6.3-6.5,14.4
		c-1.1-8.7,6.6-22.7,14.2-28.4c5.3-3.7,12-17.1,7.6-26.2c-5,4.8-7.2,11.2-14.3,22.3c5-26.2,18.1-33.1,33.7-33.2
		c3.5,0,10.4-1.7,12.4-7.8c-4.4,2.3-9.6,2.6-14.3,1.3c3.4-6.6,10.5-5.8,17.1-5.8c5.2,0,13.3-1,16.6-10.8c-6.3,3.7-16.2,4.4-22.5,1.8
		c9.9-6.8,25.4-7.6,33.4-16.6c-9.1-9-31.8,2.1-46.1,15.2c4-4.9,10.3-13.5,13.8-20.5c-7.8-5-27.7,24.3-34.5,41.7
		c-6.5,4.9-9.1,12.5-11.6,17.9c3.5-15.6,3.8-26.9,6.7-39.7c-22.2,10.2-13,65-17.8,78.1c0.6-14.5,0.1-33-4.4-42.6
		c-6.8,7-7.4,48-1,82.1c-2.3-9.1-6.7-17.7-8.1-28.8c-10.1,24.6,5.9,53.7,19.4,76.7c-10.1-7-20.1-22.1-26.7-34.8
		c1.8,44.1,36.4,53.3,41.7,64.1c-7.3-4.5-21.2-13.5-27.1-4.1c9.6,3,17.3,6.4,23.5,11.8C119.2,346.2,136.2,352.7,165.8,354.4
		L165.8,354.4z"/>
</g>
</svg>
