<?xml version="1.0" encoding="utf-8"?>
<!-- Generator: Adobe Illustrator 25.2.1, SVG Export Plug-In . SVG Version: 6.00 Build 0)  -->
<svg version="1.1" id="Layer_1" xmlns="http://www.w3.org/2000/svg" xmlns:xlink="http://www.w3.org/1999/xlink" x="0px" y="0px"
	 viewBox="0 0 720 480" style="enable-background:new 0 0 720 480;" xml:space="preserve">
<g>
	<path style="fill:#C60B1E;" d="M0,0h720v480H0V0z"/>
	<path style="fill:#FFC400;" d="M0,120h720v240H0V120z"/>
	<g>
		<g>
			<path style="fill:#AD1519;stroke:#000000;stroke-width:0.26;stroke-linejoin:round;" d="M161.3,213.4c0,0-0.5,0-0.8-0.2
				c-0.3-0.2-1.1-0.9-1.1-0.9l-0.7-0.5l-0.6-0.8c0,0-0.7-1.1-0.4-2c0.3-0.9,0.9-1.2,1.4-1.4c0.5-0.2,1.5-0.6,1.5-0.6
				s0.8-0.4,1.1-0.4c0.3-0.1,1.2-0.3,1.2-0.3s0.3-0.2,0.5-0.3c0.3-0.1,0.7-0.1,0.9-0.2c0.2-0.1,0.8-0.2,1.1-0.2
				c0.5,0,1.3,0.1,1.6,0.1s1.2,0,1.6,0c0.4,0,1.7-0.1,2.1-0.1c0.4,0,0.7,0,1.1,0c0.4,0.1,1.2,0.3,1.4,0.4s1.5,0.6,2,0.7
				c0.5,0.2,1.7,0.4,2.2,0.6c0.5,0.3,0.9,0.7,1.1,1.1c0.3,0.4,0.3,0.7,0.4,1c0.1,0.2,0.1,0.8,0,1.1c-0.1,0.2-0.5,0.8-0.5,0.8l-0.6,1
				l-0.8,0.6c0,0-0.5,0.5-1,0.5c-0.4,0-4.8-0.8-7.7-0.8S161.3,213.4,161.3,213.4L161.3,213.4L161.3,213.4z"/>
			<g>
				<ellipse style="fill:#C8B100;stroke:#000000;stroke-width:0.26;" cx="168.6" cy="207.1" rx="1.3" ry="2.4"/>
				<ellipse style="fill:#C8B100;stroke:#000000;stroke-width:0.26;" cx="168.7" cy="207.1" rx="0.6" ry="2.2"/>
				<ellipse style="fill:#C8B100;" cx="168.7" cy="204.5" rx="0.9" ry="0.8"/>
				<path style="fill:#C8B100;stroke:#000000;stroke-width:0.3;" d="M169.9,204.2v0.6h-2.4v-0.6h0.9V203h-0.6v-0.5h0.6v-0.5h0.6v0.5
					h0.6v0.5h-0.6v1.3H169.9"/>
				<path style="fill:#C8B100;stroke:#000000;stroke-width:0.3;" d="M0,0"/>
				<path style="fill:#C8B100;stroke:#000000;stroke-width:0.26;" d="M168.7,213.2H164l-0.1-1.1l-0.2-1.2l-0.2-1.5
					c-1.3-1.7-2.4-2.8-2.8-2.5c0.1-0.3,0.2-0.5,0.5-0.7c1.1-0.7,3.5,0.9,5.2,3.6c0.2,0.2,0.3,0.5,0.4,0.7h3.8
					c0.1-0.2,0.3-0.5,0.4-0.7c1.7-2.6,4.1-4.3,5.2-3.6c0.2,0.1,0.4,0.4,0.5,0.7c-0.4-0.2-1.6,0.9-2.8,2.5l-0.2,1.5l-0.2,1.2
					l-0.1,1.1H168.7L168.7,213.2z"/>
				<path style="fill:none;stroke:#000000;stroke-width:0.26;" d="M160.8,206.8c0.9-0.5,2.9,1.1,4.5,3.6 M176.5,206.8
					c-0.9-0.5-2.9,1.1-4.5,3.6"/>
			</g>
			<g id="a">
				<path style="fill:#C8B100;stroke:#000000;stroke-width:0.26;" d="M161.8,215.3c-0.2-0.5-0.6-1-0.6-1c1.9-0.5,4.5-0.9,7.4-0.9
					c2.9,0,5.5,0.4,7.4,0.9c0,0-0.2,0.4-0.5,0.9c-0.2,0.3-0.4,0.8-0.4,0.8c-1.7-0.5-3.9-0.8-6.5-0.8c-2.7,0-5.2,0.3-6.6,0.8
					C162.1,215.9,162,215.6,161.8,215.3L161.8,215.3"/>
				<path style="fill:#C8B100;stroke:#000000;stroke-width:0.26;" d="M168.6,217.7c2.3,0,4.9-0.4,5.9-0.6c0.6-0.2,1-0.5,0.9-0.8
					c0-0.2-0.2-0.3-0.4-0.4c-1.4-0.5-3.9-0.8-6.4-0.8c-2.5,0-5.1,0.3-6.5,0.8c-0.2,0.1-0.3,0.2-0.4,0.4c-0.1,0.3,0.3,0.6,0.9,0.8
					C163.7,217.3,166.3,217.7,168.6,217.7z M176.1,213.2l-0.6-0.5c0,0-0.5,0.3-1.2,0.2c-0.7-0.1-0.9-0.9-0.9-0.9s-0.8,0.6-1.4,0.6
					c-0.6-0.1-1-0.6-1-0.6s-0.7,0.5-1.3,0.4c-0.6-0.1-1.2-0.8-1.2-0.8s-0.6,0.8-1.2,0.8c-0.6,0-1.1-0.5-1.1-0.5s-0.3,0.6-1,0.7
					c-0.8,0.1-1.4-0.6-1.4-0.6s-0.4,0.7-1,0.9c-0.5,0.2-1.2-0.3-1.2-0.3s-0.1,0.3-0.2,0.4c-0.1,0.2-0.3,0.2-0.3,0.2l0.2,0.5
					c1.9-0.5,4.4-0.9,7.2-0.9c2.9,0,5.4,0.3,7.3,0.9L176.1,213.2L176.1,213.2L176.1,213.2z M0,0"/>
				<path style="fill:#C8B100;stroke:#000000;stroke-width:0.26;stroke-linejoin:round;" d="M168.6,213.3c-2.9,0-5.5,0.4-7.4,0.9
					c-0.1,0-0.3-0.1-0.3-0.2c0-0.1,0-0.3,0.2-0.3c1.9-0.6,4.5-0.9,7.5-0.9c3,0,5.6,0.4,7.5,0.9c0.1,0,0.2,0.2,0.2,0.3
					c0,0.1-0.2,0.2-0.3,0.2C174.1,213.7,171.5,213.4,168.6,213.3z"/>
				<path style="fill:#C8B100;stroke:#000000;stroke-width:0.26;" d="M158.8,212.2c0,0-0.4-0.5-0.6-0.7c-0.2-0.2-0.7-0.3-0.7-0.3
					c0-0.1,0.3-0.3,0.6-0.3c0.2,0,0.3,0.1,0.4,0.2l0-0.2c0,0,0.2,0,0.3,0.3c0.1,0.3,0,0.7,0,0.7S158.9,212.1,158.8,212.2
					L158.8,212.2z M160.6,211.4l-0.1,0.6l-1.3,0.1l-0.2-0.1l0-0.2l1-0.8L160.6,211.4"/>
				<path style="fill:#C8B100;stroke:#000000;stroke-width:0.26;" d="M158.8,211.9c0.1-0.1,0.3-0.1,0.5,0.1c0.2,0.1,0.2,0.4,0.1,0.5
					c-0.1,0.1-0.3,0.1-0.5-0.1C158.8,212.3,158.7,212,158.8,211.9z M161.3,212c-0.1-0.2,0-0.4,0.1-0.4c0.1,0,0.3,0.1,0.4,0.3
					c0.1,0.2,0,0.4-0.1,0.4C161.5,212.3,161.4,212.2,161.3,212z M161.9,211.2l0.5,0.5l1.2-0.6l0.1-0.2l-0.2-0.2l-1.3-0.1
					L161.9,211.2"/>
				<path style="fill:#C8B100;stroke:#000000;stroke-width:0.26;" d="M163.3,209l-0.6,0.6l0.8,1.1l0.2,0.1l0.2-0.2l0.3-1.3
					L163.3,209"/>
				<path style="fill:#C8B100;stroke:#000000;stroke-width:0.26;" d="M165.5,210.5l-0.2,0.6l-1.3-0.1l-0.2-0.2l0.1-0.2l1.2-0.6
					L165.5,210.5"/>
				<ellipse style="fill:#C8B100;stroke:#000000;stroke-width:0.26;" cx="163.7" cy="210.9" rx="0.5" ry="0.5"/>
				<path style="fill:#C8B100;stroke:#000000;stroke-width:0.26;" d="M166,211.2c0-0.2,0.1-0.4,0.2-0.4c0.1,0,0.3,0.1,0.3,0.3
					c0,0.2-0.1,0.4-0.2,0.4C166.1,211.5,166,211.3,166,211.2z M166.8,210.5l0.4,0.5l1.3-0.4l0.1-0.2l-0.1-0.2l-1.3-0.4L166.8,210.5"
					/>
				<path style="fill:#C8B100;stroke:#000000;stroke-width:0.26;" d="M168.6,208.5l-0.8,0.5l0.6,1.3l0.2,0.1l0.2-0.1l0.6-1.3
					L168.6,208.5"/>
				<path style="fill:#C8B100;stroke:#000000;stroke-width:0.26;" d="M170.4,210.5l-0.4,0.5l-1.3-0.4l-0.1-0.2l0.1-0.2l1.3-0.4
					L170.4,210.5"/>
				<ellipse style="fill:#C8B100;stroke:#000000;stroke-width:0.26;" cx="168.6" cy="210.4" rx="0.5" ry="0.5"/>
				<path style="fill:#C8B100;stroke:#000000;stroke-width:0.26;" d="M171.4,211.2c0-0.2-0.1-0.4-0.2-0.4c-0.1,0-0.3,0.1-0.3,0.3
					c0,0.2,0.1,0.4,0.2,0.4C171.2,211.5,171.3,211.3,171.4,211.2z M171.8,210.5l0.2,0.6l1.3-0.1l0.2-0.2l-0.1-0.2l-1.2-0.6
					L171.8,210.5"/>
				<path style="fill:#C8B100;stroke:#000000;stroke-width:0.26;" d="M174,209l0.6,0.6l-0.8,1.1l-0.2,0.1l-0.2-0.2l-0.3-1.3L174,209
					"/>
				<path style="fill:#C8B100;stroke:#000000;stroke-width:0.26;" d="M175.4,211.2l-0.5,0.5l-1.2-0.6l-0.1-0.2l0.2-0.2l1.3-0.1
					L175.4,211.2"/>
				<ellipse style="fill:#C8B100;stroke:#000000;stroke-width:0.26;" cx="173.6" cy="210.9" rx="0.5" ry="0.5"/>
				<path style="fill:#C8B100;stroke:#000000;stroke-width:0.26;" d="M176,212c0.1-0.2,0-0.4-0.1-0.4c-0.1,0-0.3,0.1-0.4,0.3
					c-0.1,0.2,0,0.4,0.1,0.4C175.8,212.3,175.9,212.2,176,212z M178.3,212.2c0,0,0.4-0.5,0.6-0.7c0.2-0.2,0.6-0.3,0.6-0.3
					c0-0.1-0.3-0.3-0.6-0.3c-0.2,0-0.3,0.1-0.4,0.2l0-0.2c0,0-0.2,0-0.3,0.3c-0.1,0.3,0,0.7,0,0.7S178.2,212.1,178.3,212.2
					L178.3,212.2z M176.5,211.4l0.1,0.6l1.3,0.1l0.2-0.1l0-0.2l-1-0.8L176.5,211.4"/>
				<path style="fill:#C8B100;stroke:#000000;stroke-width:0.26;" d="M178.3,211.9c-0.1-0.1-0.3-0.1-0.5,0.1s-0.2,0.4-0.1,0.5
					c0.1,0.1,0.3,0.1,0.5-0.1C178.4,212.3,178.4,212,178.3,211.9z"/>
			</g>
			<g id="b">
				<path style="fill:#AD1519;stroke:#000000;stroke-width:0.26;" d="M161.3,215.3l0.3-0.5l0.6,0.1l-0.4,0.5L161.3,215.3"/>
				<path style="fill:#AD1519;stroke:#000000;stroke-width:0.26;" d="M0,0"/>
				<ellipse style="fill:#FFFFFF;stroke:#000000;stroke-width:0.26;" cx="166.3" cy="214.4" rx="0.4" ry="0.4"/>
				<path style="fill:#AD1519;stroke:#000000;stroke-width:0.26;" d="M168.7,214.5h-0.9c-0.2,0-0.3-0.1-0.3-0.3
					c0-0.2,0.1-0.3,0.3-0.3h1.9c0.2,0,0.3,0.1,0.3,0.3c0,0.2-0.1,0.3-0.3,0.3H168.7"/>
				<ellipse style="fill:#FFFFFF;stroke:#000000;stroke-width:0.26;" cx="171" cy="214.4" rx="0.4" ry="0.4"/>
				<path style="fill:#FFFFFF;stroke:#000000;stroke-width:0.26;" d="M0,0"/>
				<path style="fill:#AD1519;stroke:#000000;stroke-width:0.26;" d="M175.9,215.4l-0.2-0.5l-0.6,0.1l0.3,0.6L175.9,215.4"/>
				<path style="fill:#AD1519;stroke:#000000;stroke-width:0.26;stroke-linejoin:round;" d="M168.6,217.1c-2.3,0-4.4-0.2-6-0.6
					c1.6-0.4,3.7-0.7,6-0.7c2.3,0,4.5,0.3,6.1,0.7C173.1,216.9,171,217.1,168.6,217.1z"/>
				<path style="fill:none;stroke:#000000;stroke-width:1.000000e-02;" d="M169.7,217v-1.1 M169.2,217.1l0-1.2 M168.8,217.1v-1.2"/>
				<path style="fill:none;stroke:#000000;stroke-width:2.000000e-02;" d="M168.4,217.1v-1.2"/>
				<path style="fill:none;stroke:#000000;stroke-width:3.000000e-02;" d="M168.1,217.1v-1.2"/>
				<path style="fill:none;stroke:#000000;stroke-width:4.000000e-02;" d="M167.8,217.1v-1.2 M167.5,217.1v-1.2"/>
				<path style="fill:none;stroke:#000000;stroke-width:5.000000e-02;" d="M167.2,217.1v-1.2"/>
				<path style="fill:none;stroke:#000000;stroke-width:6.000000e-02;" d="M166.7,217l0-1.1 M166.9,217.1v-1.2"/>
				<path style="fill:none;stroke:#000000;stroke-width:7.000000e-02;" d="M166.2,217v-1 M166.4,217l0-1.1"/>
				<path style="fill:none;stroke:#000000;stroke-width:8.000000e-02;" d="M165.5,216.9V216 M165.7,216.9V216 M166,217v-1"/>
				<path style="fill:none;stroke:#000000;stroke-width:9.000000e-02;" d="M165.3,216.9v-0.9"/>
				<path style="fill:none;stroke:#000000;stroke-width:0.1;" d="M165.1,216.9v-0.8"/>
				<path style="fill:none;stroke:#000000;stroke-width:0.11;" d="M164.9,216.9v-0.7"/>
				<path style="fill:none;stroke:#000000;stroke-width:0.12;" d="M164.4,216.8l0-0.6 M164.6,216.8v-0.7 M164.2,216.7v-0.5"/>
				<path style="fill:none;stroke:#000000;stroke-width:0.13;" d="M163.9,216.7v-0.4"/>
				<path style="fill:none;stroke:#000000;stroke-width:0.14;" d="M163.7,216.6v-0.3"/>
				<path style="fill:none;stroke:#000000;stroke-width:0.15;" d="M163.4,216.6v-0.3"/>
				<path style="fill:none;stroke:#000000;stroke-width:0.18;" d="M163.2,216.6v-0.1"/>
			</g>
		</g>
		<g id="c">
			<g>
				<path style="fill:#005BBF;stroke:#000000;stroke-width:0.39;" d="M183.6,317.5c-1.5,0-2.8-0.3-3.8-0.8c-1-0.5-2.3-0.8-3.7-0.8
					c-1.4,0-2.8,0.3-3.8,0.8c-1,0.5-2.3,0.8-3.8,0.8c-1.5,0-2.8-0.3-3.8-0.9c-1-0.5-2.2-0.8-3.6-0.8c-1.5,0-2.7,0.3-3.7,0.8
					c-1,0.5-2.3,0.8-3.8,0.8v2.3c1.5,0,2.8-0.3,3.8-0.8c1-0.5,2.2-0.8,3.7-0.8c1.4,0,2.7,0.3,3.6,0.8c1,0.5,2.3,0.9,3.8,0.9
					c1.5,0,2.8-0.3,3.8-0.8c1-0.5,2.3-0.8,3.8-0.8c1.4,0,2.7,0.3,3.7,0.8c1,0.5,2.3,0.8,3.8,0.8L183.6,317.5L183.6,317.5z"/>
				<path style="fill:#CCCCCC;stroke:#000000;stroke-width:0.39;" d="M183.6,319.8c-1.5,0-2.8-0.3-3.8-0.8c-1-0.5-2.3-0.8-3.7-0.8
					c-1.4,0-2.8,0.3-3.8,0.8c-1,0.5-2.3,0.8-3.8,0.8c-1.5,0-2.8-0.4-3.8-0.9c-1-0.5-2.2-0.8-3.6-0.8c-1.5,0-2.7,0.3-3.7,0.8
					c-1,0.5-2.3,0.8-3.8,0.8v2.3c1.5,0,2.8-0.3,3.8-0.8c1-0.5,2.2-0.8,3.7-0.8c1.4,0,2.7,0.3,3.6,0.8c1,0.5,2.3,0.9,3.8,0.9
					c1.5,0,2.8-0.3,3.8-0.8c1-0.5,2.3-0.8,3.8-0.8c1.4,0,2.7,0.3,3.7,0.8c1,0.5,2.3,0.8,3.8,0.8L183.6,319.8"/>
				<path style="fill:#005BBF;stroke:#000000;stroke-width:0.39;" d="M183.6,322.1c-1.5,0-2.8-0.3-3.8-0.8c-1-0.5-2.3-0.8-3.7-0.8
					c-1.4,0-2.8,0.3-3.8,0.8c-1,0.5-2.3,0.8-3.8,0.8c-1.5,0-2.8-0.3-3.8-0.9c-1-0.5-2.2-0.8-3.6-0.8c-1.5,0-2.7,0.3-3.7,0.8
					c-1,0.5-2.3,0.8-3.8,0.8v2.3c1.5,0,2.8-0.3,3.8-0.8c1-0.5,2.2-0.8,3.7-0.8c1.4,0,2.7,0.3,3.6,0.8c1,0.5,2.3,0.9,3.8,0.9
					c1.5,0,2.8-0.3,3.8-0.8c1-0.5,2.3-0.8,3.8-0.8c1.4,0,2.7,0.3,3.7,0.8c1,0.5,2.3,0.8,3.8,0.8L183.6,322.1"/>
				<path style="fill:#CCCCCC;stroke:#000000;stroke-width:0.39;" d="M183.6,326.7c-1.5,0-2.8-0.3-3.8-0.8c-1-0.5-2.3-0.8-3.7-0.8
					c-1.4,0-2.8,0.3-3.8,0.8s-2.3,0.8-3.8,0.8c-1.5,0-2.8-0.4-3.8-0.9c-1-0.5-2.2-0.8-3.6-0.8c-1.5,0-2.7,0.3-3.7,0.8
					c-1,0.5-2.3,0.8-3.8,0.8v-2.3c1.5,0,2.8-0.3,3.8-0.9c1-0.5,2.2-0.8,3.7-0.8c1.4,0,2.7,0.3,3.6,0.8c1,0.5,2.3,0.9,3.8,0.9
					c1.5,0,2.8-0.3,3.8-0.8c1-0.5,2.3-0.8,3.8-0.8c1.4,0,2.7,0.3,3.7,0.8c1,0.5,2.3,0.8,3.8,0.8L183.6,326.7"/>
				<path style="fill:#005BBF;stroke:#000000;stroke-width:0.39;" d="M183.6,329c-1.5,0-2.8-0.3-3.8-0.8c-1-0.5-2.3-0.8-3.7-0.8
					c-1.4,0-2.8,0.3-3.8,0.8c-1,0.5-2.3,0.8-3.8,0.8c-1.5,0-2.8-0.4-3.8-0.9c-1-0.5-2.2-0.8-3.6-0.8c-1.5,0-2.7,0.3-3.7,0.8
					c-1,0.5-2.3,0.8-3.8,0.8v-2.3c1.5,0,2.8-0.4,3.8-0.9c1-0.5,2.2-0.8,3.7-0.8c1.4,0,2.7,0.3,3.6,0.8c1,0.5,2.3,0.9,3.8,0.9
					c1.5,0,2.8-0.3,3.8-0.8c1-0.5,2.3-0.8,3.8-0.8c1.4,0,2.7,0.3,3.7,0.8c1,0.5,2.3,0.8,3.8,0.8L183.6,329L183.6,329z"/>
			</g>
			<g>
				<path style="fill:#C8B100;stroke:#000000;stroke-width:0.39;stroke-linejoin:round;" d="M160.2,307.9c0,0.2,0.1,0.4,0.1,0.6
					c0,1.4-1.2,2.5-2.7,2.5h22c-1.5,0-2.7-1.1-2.7-2.5c0-0.2,0-0.4,0.1-0.6c-0.1,0-0.3,0.1-0.4,0.1h-16
					C160.5,308,160.4,308,160.2,307.9z"/>
				<path style="fill:#C8B100;stroke:#000000;stroke-width:0.39;" d="M160.6,306.5h16c0.5,0,1,0.3,1,0.7s-0.4,0.8-1,0.8h-16
					c-0.5,0-1-0.3-1-0.8S160.1,306.5,160.6,306.5z M157.7,316.7h22v-5.6h-22V316.7z"/>
			</g>
			<path style="fill:#CCCCCC;stroke:#000000;stroke-width:0.39;" d="M160.8,305.6h15.6v-76.4h-15.6V305.6z"/>
			<path style="fill:none;stroke:#000000;stroke-width:0.39;" d="M172,229.2v76.3 M173.7,229.2v76.3"/>
			<g>
				<path style="fill:#C8B100;stroke:#000000;stroke-width:0.39;" d="M158,223.1h21.4v-5.6H158L158,223.1L158,223.1z"/>
				<path style="fill:#C8B100;stroke:#000000;stroke-width:0.39;" d="M0,0"/>
				<path style="fill:#C8B100;stroke:#000000;stroke-width:0.39;" d="M160.6,226.7h16c0.5,0,1,0.3,1,0.7c0,0.4-0.4,0.8-1,0.8h-16
					c-0.5,0-1-0.3-1-0.8C159.7,227.1,160.1,226.7,160.6,226.7z M160.6,223.1h16c0.5,0,1,0.3,1,0.6c0,0.4-0.4,0.6-1,0.6h-16
					c-0.5,0-1-0.3-1-0.6C159.7,223.4,160.1,223.1,160.6,223.1z"/>
			</g>
		</g>
		<g id="d">
			<path style="fill:#AD1519;stroke:#000000;stroke-width:0.39;" d="M156,286.7c-2.2,1.2-3.6,2.5-3.4,3.2c0.1,0.6,0.8,1,1.8,1.7
				c1.6,1.1,2.5,3,1.8,3.9c1.3-1,2.1-2.6,2.1-4.3C158.2,289.3,157.4,287.7,156,286.7z"/>
			<path style="fill:#AD1519;stroke:#000000;stroke-width:0.39;stroke-linejoin:round;" d="M192.4,257.7c-3.4-1.4-9.2-2.4-15.8-2.7
				c-2.3,0-4.8,0.2-7.5,0.7c-9.3,1.6-16.4,5.3-15.9,8.3c0,0.1,0,0.2,0,0.2c0,0-3.5-7.9-3.6-8.2c-0.6-3.4,7.3-7.5,17.6-9.2
				c3.3-0.5,6.4-0.8,9.2-0.7c6.6,0,12.4,0.9,15.9,2.1L192.4,257.7"/>
			<path style="fill:#AD1519;stroke:#000000;stroke-width:0.39;" d="M160.8,267.3c-4.3-0.3-7.3-1.5-7.6-3.3c-0.3-1.4,1.2-3,3.8-4.5
				c1.2,0.1,2.5,0.3,3.8,0.3L160.8,267.3 M176.5,261.5c2.7,0.4,4.7,1.1,5.7,1.9l0.1,0.2c0.5,1-1.9,3.1-5.9,5.4L176.5,261.5"/>
			<path style="fill:#AD1519;stroke:#000000;stroke-width:0.39;stroke-linejoin:round;" d="M151.1,282.1c-0.4-1.2,3.8-3.7,9.8-5.9
				c2.7-1,5-2,7.8-3.2c8.3-3.7,14.4-7.9,13.7-9.4l-0.1-0.2c0.4,0.4,1.1,7.9,1.1,7.9c0.7,1.4-4.8,5.5-12.5,9.2
				c-2.4,1.2-7.6,3.1-10,3.9c-4.4,1.5-8.7,4.4-8.3,5.4L151.1,282.1L151.1,282.1L151.1,282.1z"/>
		</g>
		<g>
			<path style="fill:#AD1519;stroke:#000000;stroke-width:0.27;" d="M311.9,211.6c0,0-0.7,0.7-1.2,0.9c-0.5,0.1-1.2-0.5-1.2-0.5
				s-0.5,0.5-1,0.6c-0.6,0.1-1.4-0.6-1.4-0.6s-0.5,0.8-1,1c-0.5,0.2-1.1-0.2-1.1-0.2s-0.2,0.4-0.6,0.6c-0.2,0.1-0.5,0-0.5,0
				l-0.6-0.4l-0.7-0.7l-0.6-0.2c0,0-0.3-0.9-0.3-1c0-0.2-0.1-0.5-0.1-0.5c-0.1-0.6,0.8-1.3,2.2-1.7c0.8-0.2,1.5-0.2,2,0
				c0.5-0.5,1.7-0.8,3.1-0.8c1.2,0,2.3,0.3,2.9,0.7c0.6-0.4,1.7-0.7,2.9-0.7c1.4,0,2.5,0.3,3.1,0.8c0.5-0.2,1.2-0.2,2,0
				c1.4,0.3,2.3,1,2.2,1.7c0,0-0.1,0.4-0.1,0.5c0,0.2-0.3,1-0.3,1l-0.6,0.2l-0.7,0.7l-0.6,0.4c0,0-0.3,0.1-0.5,0
				c-0.4-0.2-0.6-0.6-0.6-0.6s-0.6,0.4-1.1,0.2c-0.5-0.2-1-1-1-1s-0.8,0.8-1.4,0.6c-0.6-0.1-1-0.6-1-0.6s-0.7,0.6-1.2,0.5
				C312.6,212.4,311.9,211.6,311.9,211.6L311.9,211.6z"/>
			<g>
				<ellipse style="fill:#C8B100;stroke:#000000;stroke-width:0.26;" cx="311.8" cy="207.6" rx="1.3" ry="1.9"/>
				<ellipse style="fill:#C8B100;stroke:#000000;stroke-width:0.26;" cx="311.9" cy="207.6" rx="0.6" ry="1.7"/>
				<ellipse style="fill:#C8B100;" cx="311.8" cy="205.4" rx="0.9" ry="0.8"/>
				<path style="fill:#C8B100;stroke:#000000;stroke-width:0.3;" d="M313.1,205.1v0.6h-2.4v-0.6h0.9v-1.2H311v-0.6h0.6v-0.6h0.6v0.6
					h0.6v0.6h-0.6v1.2H313.1"/>
				<path style="fill:#C8B100;stroke:#000000;stroke-width:0.3;" d="M0,0"/>
			</g>
			<g>
				<path style="fill:none;stroke:#000000;stroke-width:0.26;stroke-linecap:round;" d="M301.8,211.2c-0.1-0.3-0.2-0.7-0.2-1
					c0-1.5,1.2-2.8,2.7-2.8c0.5,0,0.9,0.1,1.3,0.4"/>
				<path style="fill:none;stroke:#000000;stroke-width:0.26;" d="M306.7,209.2c-0.1-0.2-0.3-0.5-0.3-0.8c0-1.1,1.1-2,2.5-2
					c0.6,0,1.2,0.2,1.6,0.4 M317,209.2c0.1-0.2,0.2-0.5,0.2-0.8c0-1.1-1.1-2-2.5-2c-0.6,0-1.1,0.2-1.6,0.4"/>
				<path style="fill:none;stroke:#000000;stroke-width:0.26;stroke-linecap:round;" d="M321.8,211.2c0.1-0.3,0.2-0.7,0.2-1
					c0-1.5-1.2-2.8-2.7-2.8c-0.5,0-0.9,0.1-1.3,0.4"/>
				<ellipse style="fill:none;stroke:#000000;stroke-width:0.21;" cx="301" cy="209.9" rx="0.4" ry="0.4"/>
				<ellipse style="fill:none;stroke:#000000;stroke-width:0.21;" cx="301.2" cy="208.4" rx="0.4" ry="0.4"/>
				<ellipse style="fill:none;stroke:#000000;stroke-width:0.21;" cx="302.2" cy="207.3" rx="0.4" ry="0.4"/>
				<ellipse style="fill:none;stroke:#000000;stroke-width:0.21;" cx="303.5" cy="206.6" rx="0.4" ry="0.4"/>
				<ellipse style="fill:none;stroke:#000000;stroke-width:0.21;" cx="304.8" cy="206.7" rx="0.4" ry="0.4"/>
				<ellipse style="fill:#FFFFFF;stroke:#000000;stroke-width:0.21;" cx="305.7" cy="208.4" rx="0.4" ry="0.4"/>
				<ellipse style="fill:none;stroke:#000000;stroke-width:0.21;" cx="305.9" cy="207" rx="0.4" ry="0.4"/>
				<ellipse style="fill:none;stroke:#000000;stroke-width:0.21;" cx="307" cy="206.1" rx="0.4" ry="0.4"/>
				<ellipse style="fill:none;stroke:#000000;stroke-width:0.21;" cx="308.4" cy="205.6" rx="0.4" ry="0.4"/>
				<ellipse style="fill:none;stroke:#000000;stroke-width:0.21;" cx="309.8" cy="205.7" rx="0.4" ry="0.4"/>
				<ellipse style="fill:none;stroke:#000000;stroke-width:0.21;" cx="313.9" cy="205.7" rx="0.4" ry="0.4"/>
				<ellipse style="fill:none;stroke:#000000;stroke-width:0.21;" cx="315.3" cy="205.6" rx="0.4" ry="0.4"/>
				<ellipse style="fill:none;stroke:#000000;stroke-width:0.21;" cx="316.6" cy="206.1" rx="0.4" ry="0.4"/>
				<ellipse style="fill:none;stroke:#000000;stroke-width:0.21;" cx="317.7" cy="207" rx="0.4" ry="0.4"/>
				<ellipse style="fill:#FFFFFF;stroke:#000000;stroke-width:0.21;" cx="317.9" cy="208.4" rx="0.4" ry="0.4"/>
				<ellipse style="fill:none;stroke:#000000;stroke-width:0.21;" cx="318.8" cy="206.7" rx="0.4" ry="0.4"/>
				<ellipse style="fill:none;stroke:#000000;stroke-width:0.21;" cx="320.2" cy="206.6" rx="0.4" ry="0.4"/>
				<ellipse style="fill:none;stroke:#000000;stroke-width:0.21;" cx="321.5" cy="207.3" rx="0.4" ry="0.4"/>
				<ellipse style="fill:none;stroke:#000000;stroke-width:0.21;" cx="322.4" cy="208.4" rx="0.4" ry="0.4"/>
				<ellipse style="fill:none;stroke:#000000;stroke-width:0.21;" cx="322.6" cy="209.9" rx="0.4" ry="0.4"/>
			</g>
			<g>
				<g id="a_1_">
					<path style="fill:#C8B100;stroke:#000000;stroke-width:0.26;" d="M305,215.3c-0.2-0.5-0.6-1-0.6-1c1.9-0.5,4.5-0.9,7.4-0.9
						c2.9,0,5.5,0.4,7.4,0.9c0,0-0.2,0.4-0.5,0.9c-0.2,0.3-0.4,0.8-0.4,0.8c-1.7-0.5-3.9-0.8-6.5-0.8c-2.7,0-5.2,0.3-6.6,0.8
						C305.3,215.9,305.2,215.6,305,215.3L305,215.3"/>
					<path style="fill:#C8B100;stroke:#000000;stroke-width:0.26;" d="M311.8,217.7c2.3,0,4.9-0.4,5.9-0.6c0.6-0.2,1-0.5,0.9-0.8
						c0-0.2-0.2-0.3-0.4-0.4c-1.4-0.5-3.9-0.8-6.4-0.8c-2.5,0-5.1,0.3-6.5,0.8c-0.2,0.1-0.3,0.2-0.4,0.4c-0.1,0.3,0.3,0.6,0.9,0.8
						C306.9,217.3,309.5,217.7,311.8,217.7z M319.3,213.2l-0.6-0.5c0,0-0.5,0.3-1.2,0.2c-0.7-0.1-0.9-0.9-0.9-0.9s-0.8,0.6-1.4,0.6
						c-0.6-0.1-1-0.6-1-0.6s-0.7,0.5-1.3,0.4c-0.6-0.1-1.2-0.8-1.2-0.8s-0.6,0.8-1.2,0.8c-0.6,0-1.1-0.5-1.1-0.5s-0.3,0.6-1,0.7
						c-0.8,0.1-1.4-0.6-1.4-0.6s-0.4,0.7-1,0.9c-0.5,0.2-1.2-0.3-1.2-0.3s-0.1,0.3-0.2,0.4c-0.1,0.2-0.3,0.2-0.3,0.2l0.2,0.5
						c1.9-0.5,4.4-0.9,7.2-0.9s5.4,0.3,7.3,0.9L319.3,213.2L319.3,213.2L319.3,213.2z M143.2,0"/>
					<path style="fill:#C8B100;stroke:#000000;stroke-width:0.26;stroke-linejoin:round;" d="M311.8,213.3c-2.9,0-5.5,0.4-7.4,0.9
						c-0.1,0-0.3-0.1-0.3-0.2c0-0.1,0-0.3,0.2-0.3c1.9-0.6,4.5-0.9,7.5-0.9c3,0,5.6,0.4,7.5,0.9c0.1,0,0.2,0.2,0.2,0.3
						c0,0.1-0.2,0.2-0.3,0.2C317.3,213.7,314.7,213.4,311.8,213.3z"/>
					<path style="fill:#C8B100;stroke:#000000;stroke-width:0.26;" d="M302,212.2c0,0-0.4-0.5-0.6-0.7c-0.2-0.2-0.7-0.3-0.7-0.3
						c0-0.1,0.3-0.3,0.6-0.3c0.2,0,0.3,0.1,0.4,0.2l0-0.2c0,0,0.2,0,0.3,0.3c0.1,0.3,0,0.7,0,0.7S302.1,212.1,302,212.2L302,212.2z
						 M303.8,211.4l-0.1,0.6l-1.3,0.1l-0.2-0.1l0-0.2l1-0.8L303.8,211.4"/>
					<path style="fill:#C8B100;stroke:#000000;stroke-width:0.26;" d="M302,211.9c0.1-0.1,0.3-0.1,0.5,0.1c0.2,0.1,0.2,0.4,0.1,0.5
						c-0.1,0.1-0.3,0.1-0.5-0.1C302,212.3,301.9,212,302,211.9z M304.5,212c-0.1-0.2,0-0.4,0.1-0.4c0.1,0,0.3,0.1,0.4,0.3
						c0.1,0.2,0,0.4-0.1,0.4C304.7,212.3,304.6,212.2,304.5,212z M305.1,211.2l0.5,0.5l1.2-0.6l0.1-0.2l-0.2-0.2l-1.3-0.1
						L305.1,211.2"/>
					<path style="fill:#C8B100;stroke:#000000;stroke-width:0.26;" d="M306.5,209l-0.6,0.6l0.8,1.1l0.2,0.1l0.2-0.2l0.3-1.3
						L306.5,209"/>
					<path style="fill:#C8B100;stroke:#000000;stroke-width:0.26;" d="M308.7,210.5l-0.2,0.6l-1.3-0.1l-0.2-0.2l0.1-0.2l1.2-0.6
						L308.7,210.5"/>
					<ellipse style="fill:#C8B100;stroke:#000000;stroke-width:0.26;" cx="306.9" cy="210.9" rx="0.5" ry="0.5"/>
					<path style="fill:#C8B100;stroke:#000000;stroke-width:0.26;" d="M309.2,211.2c0-0.2,0.1-0.4,0.2-0.4c0.1,0,0.3,0.1,0.3,0.3
						c0,0.2-0.1,0.4-0.2,0.4C309.3,211.5,309.2,211.3,309.2,211.2z M310,210.5l0.4,0.5l1.3-0.4l0.1-0.2l-0.1-0.2l-1.3-0.4L310,210.5
						"/>
					<path style="fill:#C8B100;stroke:#000000;stroke-width:0.26;" d="M311.8,208.5L311,209l0.6,1.3l0.2,0.1l0.2-0.1l0.6-1.3
						L311.8,208.5"/>
					<path style="fill:#C8B100;stroke:#000000;stroke-width:0.26;" d="M313.7,210.5l-0.4,0.5l-1.3-0.4l-0.1-0.2l0.1-0.2l1.3-0.4
						L313.7,210.5"/>
					<ellipse style="fill:#C8B100;stroke:#000000;stroke-width:0.26;" cx="311.8" cy="210.4" rx="0.5" ry="0.5"/>
					<path style="fill:#C8B100;stroke:#000000;stroke-width:0.26;" d="M314.6,211.2c0-0.2-0.1-0.4-0.2-0.4c-0.1,0-0.3,0.1-0.3,0.3
						c0,0.2,0.1,0.4,0.2,0.4C314.4,211.5,314.5,211.3,314.6,211.2z M315,210.5l0.2,0.6l1.3-0.1l0.2-0.2l-0.1-0.2l-1.2-0.6L315,210.5
						"/>
					<path style="fill:#C8B100;stroke:#000000;stroke-width:0.26;" d="M317.2,209l0.6,0.6l-0.8,1.1l-0.2,0.1l-0.2-0.2l-0.3-1.3
						L317.2,209"/>
					<path style="fill:#C8B100;stroke:#000000;stroke-width:0.26;" d="M318.6,211.2l-0.5,0.5l-1.2-0.6l-0.1-0.2l0.2-0.2l1.3-0.1
						L318.6,211.2"/>
					<ellipse style="fill:#C8B100;stroke:#000000;stroke-width:0.26;" cx="316.8" cy="210.9" rx="0.5" ry="0.5"/>
					<path style="fill:#C8B100;stroke:#000000;stroke-width:0.26;" d="M319.2,212c0.1-0.2,0-0.4-0.1-0.4c-0.1,0-0.3,0.1-0.4,0.3
						c-0.1,0.2,0,0.4,0.1,0.4C319,212.3,319.1,212.2,319.2,212z M321.5,212.2c0,0,0.4-0.5,0.6-0.7c0.2-0.2,0.6-0.3,0.6-0.3
						c0-0.1-0.3-0.3-0.6-0.3c-0.2,0-0.3,0.1-0.4,0.2l0-0.2c0,0-0.2,0-0.3,0.3c-0.1,0.3,0,0.7,0,0.7S321.4,212.1,321.5,212.2
						L321.5,212.2z M319.7,211.4l0.1,0.6l1.3,0.1l0.2-0.1l0-0.2l-1-0.8L319.7,211.4"/>
					<path style="fill:#C8B100;stroke:#000000;stroke-width:0.26;" d="M321.5,211.9c-0.1-0.1-0.3-0.1-0.5,0.1
						c-0.2,0.1-0.2,0.4-0.1,0.5c0.1,0.1,0.3,0.1,0.5-0.1C321.6,212.3,321.6,212,321.5,211.9z"/>
				</g>
			</g>
			<g>
				<g id="b_1_">
					<path style="fill:#AD1519;stroke:#000000;stroke-width:0.26;" d="M304.5,215.3l0.3-0.5l0.6,0.1l-0.4,0.5L304.5,215.3"/>
					<path style="fill:#AD1519;stroke:#000000;stroke-width:0.26;" d="M143.2,0"/>
					<ellipse style="fill:#FFFFFF;stroke:#000000;stroke-width:0.26;" cx="309.5" cy="214.4" rx="0.4" ry="0.4"/>
					<path style="fill:#AD1519;stroke:#000000;stroke-width:0.26;" d="M311.9,214.5H311c-0.2,0-0.3-0.1-0.3-0.3
						c0-0.2,0.1-0.3,0.3-0.3h1.9c0.2,0,0.3,0.1,0.3,0.3c0,0.2-0.1,0.3-0.3,0.3H311.9"/>
					<ellipse style="fill:#FFFFFF;stroke:#000000;stroke-width:0.26;" cx="314.2" cy="214.4" rx="0.4" ry="0.4"/>
					<path style="fill:#FFFFFF;stroke:#000000;stroke-width:0.26;" d="M143.2,0"/>
					<path style="fill:#AD1519;stroke:#000000;stroke-width:0.26;" d="M319.1,215.4l-0.2-0.5l-0.6,0.1l0.3,0.6L319.1,215.4"/>
					<path style="fill:#AD1519;stroke:#000000;stroke-width:0.26;stroke-linejoin:round;" d="M311.8,217.1c-2.3,0-4.4-0.2-6-0.6
						c1.6-0.4,3.7-0.7,6-0.7c2.3,0,4.5,0.3,6.1,0.7C316.3,216.9,314.2,217.1,311.8,217.1z"/>
					<path style="fill:none;stroke:#000000;stroke-width:1.000000e-02;" d="M312.9,217v-1.1 M312.4,217.1l0-1.2 M312,217.1v-1.2"/>
					<path style="fill:none;stroke:#000000;stroke-width:2.000000e-02;" d="M311.6,217.1v-1.2"/>
					<path style="fill:none;stroke:#000000;stroke-width:3.000000e-02;" d="M311.3,217.1v-1.2"/>
					<path style="fill:none;stroke:#000000;stroke-width:4.000000e-02;" d="M311,217.1v-1.2 M310.7,217.1v-1.2"/>
					<path style="fill:none;stroke:#000000;stroke-width:5.000000e-02;" d="M310.4,217.1v-1.2"/>
					<path style="fill:none;stroke:#000000;stroke-width:6.000000e-02;" d="M309.9,217l0-1.1 M310.1,217.1v-1.2"/>
					<path style="fill:none;stroke:#000000;stroke-width:7.000000e-02;" d="M309.4,217v-1 M309.6,217l0-1.1"/>
					<path style="fill:none;stroke:#000000;stroke-width:8.000000e-02;" d="M308.7,216.9V216 M308.9,216.9V216 M309.2,217v-1"/>
					<path style="fill:none;stroke:#000000;stroke-width:9.000000e-02;" d="M308.5,216.9v-0.9"/>
					<path style="fill:none;stroke:#000000;stroke-width:0.1;" d="M308.3,216.9v-0.8"/>
					<path style="fill:none;stroke:#000000;stroke-width:0.11;" d="M308.1,216.9v-0.7"/>
					<path style="fill:none;stroke:#000000;stroke-width:0.12;" d="M307.6,216.8l0-0.6 M307.8,216.8v-0.7 M307.4,216.7v-0.5"/>
					<path style="fill:none;stroke:#000000;stroke-width:0.13;" d="M307.1,216.7v-0.4"/>
					<path style="fill:none;stroke:#000000;stroke-width:0.14;" d="M306.9,216.6v-0.3"/>
					<path style="fill:none;stroke:#000000;stroke-width:0.15;" d="M306.7,216.6v-0.3"/>
					<path style="fill:none;stroke:#000000;stroke-width:0.18;" d="M306.4,216.6v-0.1"/>
				</g>
			</g>
		</g>
		<g>
			<g id="c_1_">
				<g>
					<path style="fill:#005BBF;stroke:#000000;stroke-width:0.39;" d="M326.8,317.5c-1.5,0-2.8-0.3-3.8-0.8c-1-0.5-2.3-0.8-3.7-0.8
						c-1.4,0-2.8,0.3-3.8,0.8c-1,0.5-2.3,0.8-3.8,0.8c-1.5,0-2.8-0.3-3.8-0.9c-1-0.5-2.2-0.8-3.6-0.8c-1.5,0-2.7,0.3-3.7,0.8
						c-1,0.5-2.3,0.8-3.8,0.8v2.3c1.5,0,2.8-0.3,3.8-0.8c1-0.5,2.2-0.8,3.7-0.8c1.4,0,2.7,0.3,3.6,0.8c1,0.5,2.3,0.9,3.8,0.9
						c1.5,0,2.8-0.3,3.8-0.8c1-0.5,2.3-0.8,3.8-0.8c1.4,0,2.7,0.3,3.7,0.8c1,0.5,2.3,0.8,3.8,0.8L326.8,317.5L326.8,317.5z"/>
					<path style="fill:#CCCCCC;stroke:#000000;stroke-width:0.39;" d="M326.8,319.8c-1.5,0-2.8-0.3-3.8-0.8c-1-0.5-2.3-0.8-3.7-0.8
						c-1.4,0-2.8,0.3-3.8,0.8c-1,0.5-2.3,0.8-3.8,0.8c-1.5,0-2.8-0.4-3.8-0.9c-1-0.5-2.2-0.8-3.6-0.8c-1.5,0-2.7,0.3-3.7,0.8
						c-1,0.5-2.3,0.8-3.8,0.8v2.3c1.5,0,2.8-0.3,3.8-0.8c1-0.5,2.2-0.8,3.7-0.8c1.4,0,2.7,0.3,3.6,0.8c1,0.5,2.3,0.9,3.8,0.9
						c1.5,0,2.8-0.3,3.8-0.8c1-0.5,2.3-0.8,3.8-0.8c1.4,0,2.7,0.3,3.7,0.8c1,0.5,2.3,0.8,3.8,0.8L326.8,319.8"/>
					<path style="fill:#005BBF;stroke:#000000;stroke-width:0.39;" d="M326.8,322.1c-1.5,0-2.8-0.3-3.8-0.8c-1-0.5-2.3-0.8-3.7-0.8
						c-1.4,0-2.8,0.3-3.8,0.8c-1,0.5-2.3,0.8-3.8,0.8c-1.5,0-2.8-0.3-3.8-0.9c-1-0.5-2.2-0.8-3.6-0.8c-1.5,0-2.7,0.3-3.7,0.8
						c-1,0.5-2.3,0.8-3.8,0.8v2.3c1.5,0,2.8-0.3,3.8-0.8c1-0.5,2.2-0.8,3.7-0.8c1.4,0,2.7,0.3,3.6,0.8c1,0.5,2.3,0.9,3.8,0.9
						c1.5,0,2.8-0.3,3.8-0.8c1-0.5,2.3-0.8,3.8-0.8c1.4,0,2.7,0.3,3.7,0.8c1,0.5,2.3,0.8,3.8,0.8L326.8,322.1"/>
					<path style="fill:#CCCCCC;stroke:#000000;stroke-width:0.39;" d="M326.8,326.7c-1.5,0-2.8-0.3-3.8-0.8c-1-0.5-2.3-0.8-3.7-0.8
						c-1.4,0-2.8,0.3-3.8,0.8s-2.3,0.8-3.8,0.8c-1.5,0-2.8-0.4-3.8-0.9c-1-0.5-2.2-0.8-3.6-0.8c-1.5,0-2.7,0.3-3.7,0.8
						c-1,0.5-2.3,0.8-3.8,0.8v-2.3c1.5,0,2.8-0.3,3.8-0.9c1-0.5,2.2-0.8,3.7-0.8c1.4,0,2.7,0.3,3.6,0.8c1,0.5,2.3,0.9,3.8,0.9
						c1.5,0,2.8-0.3,3.8-0.8c1-0.5,2.3-0.8,3.8-0.8c1.4,0,2.7,0.3,3.7,0.8c1,0.5,2.3,0.8,3.8,0.8L326.8,326.7"/>
					<path style="fill:#005BBF;stroke:#000000;stroke-width:0.39;" d="M326.8,329c-1.5,0-2.8-0.3-3.8-0.8c-1-0.5-2.3-0.8-3.7-0.8
						c-1.4,0-2.8,0.3-3.8,0.8c-1,0.5-2.3,0.8-3.8,0.8c-1.5,0-2.8-0.4-3.8-0.9c-1-0.5-2.2-0.8-3.6-0.8c-1.5,0-2.7,0.3-3.7,0.8
						c-1,0.5-2.3,0.8-3.8,0.8v-2.3c1.5,0,2.8-0.4,3.8-0.9c1-0.5,2.2-0.8,3.7-0.8c1.4,0,2.7,0.3,3.6,0.8c1,0.5,2.3,0.9,3.8,0.9
						c1.5,0,2.8-0.3,3.8-0.8c1-0.5,2.3-0.8,3.8-0.8c1.4,0,2.7,0.3,3.7,0.8c1,0.5,2.3,0.8,3.8,0.8L326.8,329L326.8,329z"/>
				</g>
				<g>
					<path style="fill:#C8B100;stroke:#000000;stroke-width:0.39;stroke-linejoin:round;" d="M303.4,307.9c0,0.2,0.1,0.4,0.1,0.6
						c0,1.4-1.2,2.5-2.7,2.5h22c-1.5,0-2.7-1.1-2.7-2.5c0-0.2,0-0.4,0.1-0.6c-0.1,0-0.3,0.1-0.4,0.1h-16
						C303.7,308,303.6,308,303.4,307.9z"/>
					<path style="fill:#C8B100;stroke:#000000;stroke-width:0.39;" d="M303.8,306.5h16c0.5,0,1,0.3,1,0.7s-0.4,0.8-1,0.8h-16
						c-0.5,0-1-0.3-1-0.8S303.3,306.5,303.8,306.5z M300.9,316.7h22v-5.6h-22V316.7z"/>
				</g>
				<path style="fill:#CCCCCC;stroke:#000000;stroke-width:0.39;" d="M304.1,305.6h15.6v-76.4h-15.6V305.6z"/>
				<path style="fill:none;stroke:#000000;stroke-width:0.39;" d="M315.2,229.2v76.3 M316.9,229.2v76.3"/>
				<g>
					<path style="fill:#C8B100;stroke:#000000;stroke-width:0.39;" d="M301.2,223.1h21.4v-5.6h-21.4L301.2,223.1L301.2,223.1z"/>
					<path style="fill:#C8B100;stroke:#000000;stroke-width:0.39;" d="M143.2,0"/>
					<path style="fill:#C8B100;stroke:#000000;stroke-width:0.39;" d="M303.8,226.7h16c0.5,0,1,0.3,1,0.7c0,0.4-0.4,0.8-1,0.8h-16
						c-0.5,0-1-0.3-1-0.8C302.9,227.1,303.3,226.7,303.8,226.7z M303.8,223.1h16c0.5,0,1,0.3,1,0.6c0,0.4-0.4,0.6-1,0.6h-16
						c-0.5,0-1-0.3-1-0.6C302.9,223.4,303.3,223.1,303.8,223.1z"/>
				</g>
			</g>
		</g>
		<g transform="matrix(-1 0 0 1 500.57 0)">
			<g id="d_1_">
				<path style="fill:#AD1519;stroke:#000000;stroke-width:0.39;" d="M324.6,286.7c2.2,1.2,3.6,2.5,3.4,3.2c-0.1,0.6-0.8,1-1.8,1.7
					c-1.6,1.1-2.5,3-1.8,3.9c-1.3-1-2.1-2.6-2.1-4.3C322.3,289.3,323.2,287.7,324.6,286.7z"/>
				<path style="fill:#AD1519;stroke:#000000;stroke-width:0.39;stroke-linejoin:round;" d="M288.2,257.7c3.4-1.4,9.2-2.4,15.8-2.7
					c2.3,0,4.8,0.2,7.5,0.7c9.3,1.6,16.4,5.3,15.9,8.3c0,0.1,0,0.2,0,0.2c0,0,3.5-7.9,3.6-8.2c0.6-3.4-7.3-7.5-17.6-9.2
					c-3.3-0.5-6.4-0.8-9.2-0.7c-6.6,0-12.4,0.9-15.9,2.1L288.2,257.7"/>
				<path style="fill:#AD1519;stroke:#000000;stroke-width:0.39;" d="M319.7,267.3c4.3-0.3,7.3-1.5,7.6-3.3c0.3-1.4-1.2-3-3.8-4.5
					c-1.2,0.1-2.5,0.3-3.8,0.3L319.7,267.3 M304.1,261.5c-2.7,0.4-4.7,1.1-5.7,1.9l-0.1,0.2c-0.5,1,1.9,3.1,5.9,5.4L304.1,261.5"/>
				<path style="fill:#AD1519;stroke:#000000;stroke-width:0.39;stroke-linejoin:round;" d="M329.4,282.1c0.4-1.2-3.8-3.7-9.8-5.9
					c-2.7-1-5-2-7.8-3.2c-8.3-3.7-14.4-7.9-13.7-9.4l0.1-0.2c-0.4,0.4-1.1,7.9-1.1,7.9c-0.7,1.4,4.8,5.5,12.5,9.2
					c2.4,1.2,7.6,3.1,10,3.9c4.4,1.5,8.7,4.4,8.3,5.4L329.4,282.1L329.4,282.1L329.4,282.1z"/>
			</g>
		</g>
		<path style="fill:#C8B100;" d="M159.8,254.1c1.9-0.7,3.2-1.5,2.6-3c-0.4-1-1.4-1.1-2.9-0.6l-2.6,1l2.3,5.8
			c0.3-0.1,0.5-0.2,0.8-0.3c0.3-0.1,0.5-0.2,0.8-0.2L159.8,254.1L159.8,254.1L159.8,254.1z M158.6,251.3l0.7-0.2
			c0.5-0.2,1.2,0.1,1.4,0.8c0.2,0.5,0.2,1.1-0.5,1.5c-0.2,0.1-0.4,0.2-0.7,0.3L158.6,251.3 M165.9,248.9c-0.3,0.1-0.5,0.2-0.8,0.2
			c-0.3,0-0.6,0.1-0.8,0.1l1.4,6l4.2-0.8c0-0.1-0.1-0.2-0.1-0.4c0-0.1,0-0.3,0-0.4c-0.7,0.2-1.5,0.4-2.5,0.6L165.9,248.9 M174.3,254
			c0.8-2.2,1.7-4.3,2.7-6.4c-0.2,0-0.3,0.1-0.5,0.1c-0.2,0-0.4,0-0.5,0c-0.5,1.5-1.1,3.1-1.8,4.6c-0.8-1.4-1.7-2.9-2.3-4.3
			c-0.3,0-0.7,0.1-1,0.1c-0.3,0-0.7,0-1,0c1.2,2,2.4,3.9,3.5,6c0.2,0,0.3-0.1,0.5-0.1C174,254,174.1,254,174.3,254 M183.1,249.4
			c0.1-0.3,0.3-0.6,0.5-0.9c-0.2-0.2-0.9-0.5-1.7-0.6c-1.7-0.2-2.7,0.6-2.8,1.6c-0.2,2.2,3.2,2,3,3.4c-0.1,0.6-0.7,0.9-1.4,0.8
			c-0.8-0.1-1.4-0.5-1.4-1.1l-0.2,0c-0.1,0.4-0.3,0.7-0.5,1.1c0.5,0.3,1.2,0.5,1.8,0.6c1.8,0.2,3.1-0.5,3.2-1.7
			c0.2-2.1-3.2-2.2-3.1-3.4c0.1-0.5,0.5-0.8,1.3-0.8c0.6,0.1,1,0.4,1.2,0.9L183.1,249.4 M297.9,254.4c0.6-2.2,1.4-4.4,2.1-6.6
			c-0.2,0-0.3,0.1-0.5,0.1c-0.2,0-0.3,0-0.5,0c-0.4,1.6-0.8,3.2-1.4,4.7c-0.9-1.4-1.9-2.7-2.7-4.1c-0.3,0.1-0.7,0.1-1,0.2
			s-0.7,0.1-1,0.1c1.4,1.9,2.7,3.7,4,5.7c0.2,0,0.3-0.1,0.5-0.1C297.6,254.4,297.7,254.4,297.9,254.4 M303.8,247.8
			c-0.3,0-0.6,0-0.8,0c-0.3,0-0.6,0-0.9-0.1L302,254l4.3,0.1c0-0.1-0.1-0.3-0.1-0.4c0-0.1,0-0.3,0.1-0.4c-0.8,0-1.6,0.1-2.6,0.1
			L303.8,247.8 M310.6,248.8c0.7,0.1,1.4,0.2,2,0.3c0-0.1,0-0.3,0-0.4c0-0.1,0.1-0.2,0.1-0.4l-5.8-0.5c0,0.1,0,0.3,0,0.4
			c0,0.1-0.1,0.3-0.1,0.4c0.6,0,1.3,0,2.1,0l-0.5,5.5c0.3,0,0.6,0,0.8,0c0.3,0,0.6,0.1,0.8,0.1L310.6,248.8 M313,254.9
			c0.3,0,0.6,0.1,0.8,0.1c0.3,0.1,0.5,0.1,0.8,0.2l0.7-2.8l0.1,0c0.2,0.4,0.4,0.9,0.5,1.1l0.9,2.1c0.3,0.1,0.7,0.1,1,0.2
			c0.3,0.1,0.7,0.2,1,0.3l-0.3-0.6c-0.5-1-1-1.9-1.4-2.9c1.1,0,1.9-0.3,2.1-1.2c0.1-0.6-0.1-1.1-0.7-1.5c-0.4-0.3-1.2-0.5-1.8-0.6
			l-2.3-0.5L313,254.9 M316,249.7c0.7,0.2,1.5,0.3,1.5,1c0,0.2,0,0.3-0.1,0.5c-0.2,0.9-0.9,1.2-2,0.9L316,249.7 M324.1,256.8
			c0,0.7-0.2,1.3-0.3,2c0.3,0.1,0.6,0.3,0.9,0.4c0.3,0.2,0.5,0.3,0.8,0.5l0.6-6.9c-0.1-0.1-0.3-0.1-0.4-0.2
			c-0.1-0.1-0.2-0.1-0.4-0.2l-6.1,3.9c0.2,0.1,0.3,0.2,0.5,0.2c0.2,0.1,0.3,0.2,0.5,0.3c0.5-0.4,1.1-0.8,1.7-1.2L324.1,256.8
			L324.1,256.8z M322.3,255.2l2-1.3l-0.2,2.3L322.3,255.2"/>
		<path style="fill:#AD1519;stroke:#000000;stroke-width:0.26;" d="M239.7,175.4c6.4,0,12.1,1,15.8,2.4c2.1,1,5,1.7,8.1,2.1
			c2.4,0.3,4.6,0.4,6.6,0.2c2.6-0.1,6.4,0.7,10.2,2.4c3.1,1.4,5.8,3.1,7.5,4.7l-1.5,1.3l-0.4,3.8l-4.1,4.7l-2.1,1.8l-4.9,3.9
			l-2.5,0.2l-0.8,2.2l-31.6-3.7l-31.7,3.7l-0.8-2.2l-2.5-0.2l-4.9-3.9l-2.1-1.8l-4.1-4.7l-0.4-3.8l-1.5-1.3c1.7-1.6,4.4-3.3,7.5-4.7
			c3.8-1.7,7.6-2.4,10.2-2.4c2,0.1,4.2,0.1,6.6-0.2c3.1-0.4,6-1.1,8.1-2.1C227.9,176.4,233.3,175.4,239.7,175.4L239.7,175.4z"/>
		<g>
			<path style="fill:#C8B100;stroke:#000000;stroke-width:0.39;" d="M216.3,183.8l1.3,1.1l2-3.3c-2.2-1.3-3.6-3.6-3.6-6.2
				c0-0.3,0-0.6,0.1-0.9c0.2-4.2,5.3-7.6,11.7-7.6c3.3,0,6.4,0.9,8.5,2.4c0.1-0.6,0.1-1.2,0.2-1.8c-2.3-1.4-5.4-2.2-8.7-2.2
				c-7.4,0-13.2,4.2-13.5,9.2c0,0.3,0,0.6,0,0.9c0,2.6,1.2,5,3.1,6.7L216.3,183.8"/>
			<path style="fill:#C8B100;stroke:#000000;stroke-width:0.39;" d="M216.4,183.8c-2.5-1.9-4.1-4.5-4.1-7.3c0-3.2,2.1-6.1,5.4-8.1
				c-2,1.6-3.2,3.7-3.4,6c0,0.3,0,0.6,0,0.9c0,2.6,1.2,5,3.1,6.7L216.4,183.8"/>
			<path style="fill:#C8B100;stroke:#000000;stroke-width:0.39;" d="M0,0"/>
			<path style="fill:#C8B100;stroke:#000000;stroke-width:0.39;" d="M196.7,173.3c-1.8,1.2-3.2,2.6-4,4.2c-0.6,1.2-0.9,2.4-0.9,3.8
				c0,2.2,0.9,4.3,2.3,5.9l-1.5,2.5c-1.5-1.9-2.3-4.1-2.3-6.4C190.3,179.1,192.8,175.6,196.7,173.3L196.7,173.3z M240,164.4
				c1.7,0,3.1,1.1,3.5,2.6c0.2,1.3,0.4,2.8,0.4,4.4c0,0.2,0,0.3,0,0.5c0,0.2,0,0.4,0,0.6c0.1,3.4,0.5,6.4,1.2,8.2l-5.1,4.9l-5.2-4.9
				c0.7-1.8,1.2-4.8,1.2-8.2c0-0.2,0-0.4,0-0.6c0-0.2,0-0.3,0-0.5c0-1.6,0.2-3.1,0.4-4.4C236.8,165.5,238.3,164.4,240,164.4
				L240,164.4z"/>
			<path style="fill:#C8B100;stroke:#000000;stroke-width:0.39;" d="M240,166c0.9,0,1.6,0.6,1.8,1.3c0.2,1.3,0.4,2.7,0.4,4.2
				c0,0.2,0,0.3,0,0.5c0,0.2,0,0.4,0,0.6c0,3.2,0.5,6,1.2,7.7l-3.4,3.2l-3.4-3.2c0.6-1.7,1.1-4.5,1.2-7.7c0-0.2,0-0.4,0-0.6
				c0-0.2,0-0.3,0-0.5c0-1.5,0.2-2.9,0.4-4.2C238.4,166.6,239.2,166,240,166z M263.7,183.8l-1.3,1.1l-2-3.3c2.2-1.3,3.7-3.6,3.7-6.2
				c0-0.3,0-0.6-0.1-0.9c-0.2-4.2-5.3-7.6-11.7-7.6c-3.4,0-6.4,0.9-8.5,2.4c-0.1-0.6-0.1-1.2-0.2-1.8c2.3-1.4,5.4-2.2,8.7-2.2
				c7.4,0,13.2,4.2,13.5,9.2c0,0.3,0,0.6,0,0.9c0,2.6-1.2,5-3.1,6.7L263.7,183.8"/>
			<path style="fill:#C8B100;stroke:#000000;stroke-width:0.39;" d="M263.6,183.8c2.5-1.9,4.1-4.5,4.1-7.3c0-3.2-2.1-6.1-5.4-8.1
				c2,1.6,3.2,3.7,3.4,6c0,0.3,0,0.6,0,0.9c0,2.6-1.2,5-3.1,6.7L263.6,183.8"/>
			<path style="fill:#C8B100;stroke:#000000;stroke-width:0.39;" d="M285.9,187.1c1.4-1.6,2.3-3.6,2.3-5.9c0-1.4-0.3-2.6-0.9-3.8
				c-2.1-4.2-8.5-7.3-16.1-7.3c-2.1,0-4.1,0.2-5.9,0.6c0.4,0.4,0.7,0.9,1,1.4c1.5-0.3,3.2-0.5,4.9-0.5c7,0,12.8,2.7,14.5,6.4
				c0.5,0.9,0.7,2,0.7,3.1c0,2.2-1,4.2-2.7,5.6l2.5,4.1l1.4-1.1L285.9,187.1z"/>
			<path style="fill:#C8B100;stroke:#000000;stroke-width:0.39;" d="M283.3,173.3c1.8,1.2,3.2,2.6,4,4.2c0.6,1.2,0.9,2.4,0.9,3.8
				c0,2.2-0.9,4.3-2.3,5.9l1.5,2.5c1.5-1.9,2.3-4.1,2.3-6.4C289.8,179.1,287.2,175.6,283.3,173.3L283.3,173.3z"/>
			<ellipse style="fill:#005BBF;stroke:#000000;stroke-width:0.26;" cx="240" cy="160.6" rx="4.3" ry="4"/>
			<path style="fill:#C8B100;stroke:#000000;stroke-width:0.26;" d="M238.9,149.3v2.2h-2.3v2.2h2.3v6.3H236c0,0.2-0.2,0.4-0.2,0.6
				c0,0.6,0.1,1.1,0.3,1.6c0,0,0,0,0,0h7.8c0,0,0,0,0,0c0.2-0.5,0.3-1,0.3-1.6c0-0.2-0.2-0.4-0.2-0.6h-2.8v-6.3h2.3v-2.2h-2.3v-2.2
				H238.9z"/>
		</g>
		<g>
			<ellipse style="fill:#FFFFFF;stroke:#000000;stroke-width:0.39;" cx="240" cy="181.4" rx="1.8" ry="1.7"/>
			<ellipse style="fill:#FFFFFF;stroke:#000000;stroke-width:0.39;" cx="240" cy="178" rx="1.8" ry="1.7"/>
			<ellipse style="fill:#FFFFFF;stroke:#000000;stroke-width:0.39;" cx="240" cy="174.3" rx="1.5" ry="1.4"/>
			<ellipse style="fill:#FFFFFF;stroke:#000000;stroke-width:0.39;" cx="240" cy="171.1" rx="1.1" ry="1"/>
			<ellipse style="fill:#FFFFFF;stroke:#000000;stroke-width:0.39;" cx="240" cy="168.2" rx="0.8" ry="0.8"/>
			<ellipse style="fill:#FFFFFF;stroke:#000000;stroke-width:0.39;" cx="191" cy="190.7" rx="1.1" ry="1"/>
			<ellipse style="fill:#FFFFFF;stroke:#000000;stroke-width:0.39;" cx="189.5" cy="188.2" rx="1.1" ry="1"/>
			<ellipse style="fill:#FFFFFF;stroke:#000000;stroke-width:0.39;" cx="188.6" cy="185.2" rx="1.1" ry="1"/>
			<ellipse style="fill:#FFFFFF;stroke:#000000;stroke-width:0.39;" cx="188.5" cy="182.1" rx="1.1" ry="1"/>
			<ellipse style="fill:#FFFFFF;stroke:#000000;stroke-width:0.39;" cx="189.2" cy="178.9" rx="1.1" ry="1"/>
			<ellipse style="fill:#FFFFFF;stroke:#000000;stroke-width:0.39;" cx="190.9" cy="176.1" rx="1.1" ry="1"/>
			<ellipse style="fill:#FFFFFF;stroke:#000000;stroke-width:0.39;" cx="193" cy="173.8" rx="1.1" ry="1"/>
			<ellipse style="fill:#FFFFFF;stroke:#000000;stroke-width:0.39;" cx="195.5" cy="171.8" rx="1.1" ry="1"/>
			<ellipse style="fill:#FFFFFF;stroke:#000000;stroke-width:0.39;" cx="198.5" cy="170.3" rx="1.1" ry="1"/>
			<ellipse style="fill:#FFFFFF;stroke:#000000;stroke-width:0.39;" cx="201.6" cy="169.1" rx="1.1" ry="1"/>
			<ellipse style="fill:#FFFFFF;stroke:#000000;stroke-width:0.39;" cx="205.1" cy="168.5" rx="1.1" ry="1"/>
			<ellipse style="fill:#FFFFFF;stroke:#000000;stroke-width:0.39;" cx="208.4" cy="168.3" rx="1.1" ry="1"/>
			<ellipse style="fill:#FFFFFF;stroke:#000000;stroke-width:0.39;" cx="211.7" cy="168.5" rx="1.1" ry="1"/>
			<ellipse style="fill:#FFFFFF;stroke:#000000;stroke-width:0.39;" cx="215.2" cy="182.7" rx="1.1" ry="1"/>
			<ellipse style="fill:#FFFFFF;stroke:#000000;stroke-width:0.39;" cx="213.4" cy="180.1" rx="1.1" ry="1"/>
			<ellipse style="fill:#FFFFFF;stroke:#000000;stroke-width:0.39;" cx="212.5" cy="177.4" rx="1.1" ry="1"/>
			<ellipse style="fill:#FFFFFF;stroke:#000000;stroke-width:0.39;" cx="212.6" cy="174.3" rx="1.1" ry="1"/>
			<ellipse style="fill:#FFFFFF;stroke:#000000;stroke-width:0.39;" cx="213.3" cy="171.2" rx="1.1" ry="1"/>
			<ellipse style="fill:#FFFFFF;stroke:#000000;stroke-width:0.39;" cx="214.9" cy="168.5" rx="1.1" ry="1"/>
			<ellipse style="fill:#FFFFFF;stroke:#000000;stroke-width:0.39;" cx="217.3" cy="166.5" rx="1.1" ry="1"/>
			<ellipse style="fill:#FFFFFF;stroke:#000000;stroke-width:0.39;" cx="220.2" cy="164.9" rx="1.1" ry="1"/>
			<ellipse style="fill:#FFFFFF;stroke:#000000;stroke-width:0.39;" cx="223.4" cy="164" rx="1.1" ry="1"/>
			<ellipse style="fill:#FFFFFF;stroke:#000000;stroke-width:0.39;" cx="226.7" cy="163.4" rx="1.1" ry="1"/>
			<ellipse style="fill:#FFFFFF;stroke:#000000;stroke-width:0.39;" cx="229.9" cy="163.5" rx="1.1" ry="1"/>
			<ellipse style="fill:#FFFFFF;stroke:#000000;stroke-width:0.39;" cx="233.3" cy="164" rx="1.1" ry="1"/>
			<ellipse style="fill:#FFFFFF;stroke:#000000;stroke-width:0.39;" cx="236.4" cy="165.1" rx="1.1" ry="1"/>
			<ellipse style="fill:#FFFFFF;stroke:#000000;stroke-width:0.39;" cx="243.6" cy="165.1" rx="1.1" ry="1"/>
			<ellipse style="fill:#FFFFFF;stroke:#000000;stroke-width:0.39;" cx="246.8" cy="164" rx="1.1" ry="1"/>
			<ellipse style="fill:#FFFFFF;stroke:#000000;stroke-width:0.39;" cx="250.1" cy="163.5" rx="1.1" ry="1"/>
			<ellipse style="fill:#FFFFFF;stroke:#000000;stroke-width:0.39;" cx="253.3" cy="163.4" rx="1.1" ry="1"/>
			<ellipse style="fill:#FFFFFF;stroke:#000000;stroke-width:0.39;" cx="256.6" cy="164" rx="1.1" ry="1"/>
			<ellipse style="fill:#FFFFFF;stroke:#000000;stroke-width:0.39;" cx="259.8" cy="164.9" rx="1.1" ry="1"/>
			<ellipse style="fill:#FFFFFF;stroke:#000000;stroke-width:0.39;" cx="262.7" cy="166.5" rx="1.1" ry="1"/>
			<ellipse style="fill:#FFFFFF;stroke:#000000;stroke-width:0.39;" cx="265.1" cy="168.5" rx="1.1" ry="1"/>
			<ellipse style="fill:#FFFFFF;stroke:#000000;stroke-width:0.39;" cx="266.8" cy="171.2" rx="1.1" ry="1"/>
			<ellipse style="fill:#FFFFFF;stroke:#000000;stroke-width:0.39;" cx="267.4" cy="174.3" rx="1.1" ry="1"/>
			<ellipse style="fill:#FFFFFF;stroke:#000000;stroke-width:0.39;" cx="267.5" cy="177.4" rx="1.1" ry="1"/>
			<ellipse style="fill:#FFFFFF;stroke:#000000;stroke-width:0.39;" cx="266.6" cy="180.1" rx="1.1" ry="1"/>
			<ellipse style="fill:#FFFFFF;stroke:#000000;stroke-width:0.39;" cx="264.8" cy="182.7" rx="1.1" ry="1"/>
			<ellipse style="fill:#FFFFFF;stroke:#000000;stroke-width:0.39;" cx="268.4" cy="168.5" rx="1.1" ry="1"/>
			<ellipse style="fill:#FFFFFF;stroke:#000000;stroke-width:0.39;" cx="271.6" cy="168.3" rx="1.1" ry="1"/>
			<ellipse style="fill:#FFFFFF;stroke:#000000;stroke-width:0.39;" cx="274.9" cy="168.5" rx="1.1" ry="1"/>
			<ellipse style="fill:#FFFFFF;stroke:#000000;stroke-width:0.39;" cx="278.4" cy="169.1" rx="1.1" ry="1"/>
			<ellipse style="fill:#FFFFFF;stroke:#000000;stroke-width:0.39;" cx="281.5" cy="170.3" rx="1.1" ry="1"/>
			<ellipse style="fill:#FFFFFF;stroke:#000000;stroke-width:0.39;" cx="284.5" cy="171.8" rx="1.1" ry="1"/>
			<ellipse style="fill:#FFFFFF;stroke:#000000;stroke-width:0.39;" cx="287" cy="173.8" rx="1.1" ry="1"/>
			<ellipse style="fill:#FFFFFF;stroke:#000000;stroke-width:0.39;" cx="289.2" cy="176.1" rx="1.1" ry="1"/>
			<ellipse style="fill:#FFFFFF;stroke:#000000;stroke-width:0.39;" cx="290.8" cy="178.9" rx="1.1" ry="1"/>
			<ellipse style="fill:#FFFFFF;stroke:#000000;stroke-width:0.39;" cx="291.6" cy="182.1" rx="1.1" ry="1"/>
			<ellipse style="fill:#FFFFFF;stroke:#000000;stroke-width:0.39;" cx="291.5" cy="185.2" rx="1.1" ry="1"/>
			<ellipse style="fill:#FFFFFF;stroke:#000000;stroke-width:0.39;" cx="290.5" cy="188.2" rx="1.1" ry="1"/>
			<ellipse style="fill:#FFFFFF;stroke:#000000;stroke-width:0.39;" cx="289.1" cy="190.7" rx="1.1" ry="1"/>
		</g>
		<g>
			<path style="fill:#C8B100;stroke:#000000;stroke-width:0.39;" d="M240.1,217.1c-11.8,0-22.3-1.4-29.8-3.7
				c-0.5-0.2-0.8-0.7-0.8-1.2c0-0.5,0.3-1,0.8-1.1c7.5-2.3,18.1-3.7,29.8-3.7c11.8,0,22.3,1.4,29.8,3.7c0.5,0.2,0.8,0.6,0.8,1.1
				c0,0.5-0.3,1-0.8,1.2C262.5,215.7,251.9,217.1,240.1,217.1"/>
			<path style="fill:#C8B100;stroke:#000000;stroke-width:0.39;" d="M240.1,207.4c-11.9,0-22.6,1.5-30.1,3.8
				c0.6-0.3,0.6-1.1-0.2-3.1c-0.9-2.4-2.4-2.3-2.4-2.3c8.3-2.5,19.9-4,32.8-4c12.9,0,24.6,1.6,32.9,4c0,0-1.5-0.1-2.4,2.3
				c-0.8,2-0.8,2.8-0.2,3.1C262.9,209,252,207.5,240.1,207.4"/>
			<path style="fill:#C8B100;stroke:#000000;stroke-width:0.39;" d="M240.1,201.9c-12.9,0-24.5,1.6-32.8,4c-0.6,0.2-1.1,0-1.3-0.6
				c-0.2-0.5,0.1-1.1,0.7-1.3c8.4-2.6,20.2-4.2,33.4-4.2c13.2,0,25.1,1.6,33.5,4.2c0.6,0.2,0.9,0.8,0.7,1.3
				c-0.2,0.5-0.8,0.7-1.3,0.6C264.6,203.4,253,201.9,240.1,201.9"/>
			<path style="fill:#C8B100;stroke:#000000;stroke-width:0.39;" d="M0,0"/>
			<path style="fill:#C8B100;stroke:#000000;stroke-width:0.39;" d="M0,0"/>
			<path style="fill:#AD1519;stroke:#000000;stroke-width:0.39;" d="M197.1,196.8c0.5-0.5,1.5-0.4,2.3,0.2c0.8,0.6,1,1.6,0.5,2.1
				c-0.5,0.5-1.5,0.4-2.3-0.2C196.8,198.3,196.6,197.3,197.1,196.8"/>
			<path style="fill:#FFFFFF;stroke:#000000;stroke-width:0.39;" d="M207.7,197.7c-0.3-0.8,0-1.6,0.5-1.8c0.6-0.2,1.3,0.3,1.5,1.1
				c0.3,0.8,0,1.6-0.5,1.8C208.7,199,208,198.5,207.7,197.7"/>
			<path style="fill:#C8B100;stroke:#000000;stroke-width:0.39;" d="M217.1,193.8c-0.3-0.3-0.6-0.6-0.6-1c-0.1-0.4,0-0.8,0.2-1.2
				c0,0-0.8-0.4-1.8-0.7c-0.7-0.2-1.9-0.2-2.3-0.2c-0.4,0-1.1,0-1.1,0s0.1,0.2,0.3,0.5c0.3,0.4,0.5,0.7,0.5,0.7
				c-1.2,0.3-2.3,1.1-2.9,2c1,0.7,2.2,1.1,3.5,0.9c0,0-0.1,0.3-0.2,0.8c-0.1,0.4-0.1,0.6-0.1,0.6s0.7-0.2,1-0.4
				c0.3-0.1,1.5-0.5,2.1-0.9C216.4,194.5,217.1,193.8,217.1,193.8"/>
			<path style="fill:#C8B100;stroke:#000000;stroke-width:0.39;" d="M216.7,184c1,0.6,1.9,1.7,2.2,2.9c0,0,0.1-0.2,0.7-0.6
				c0.6-0.3,1-0.3,1-0.3s-0.2,0.9-0.2,1.3c-0.1,0.3-0.1,1.3-0.3,2.2c-0.2,0.9-0.6,1.6-0.6,1.6c-0.4-0.3-1-0.5-1.5-0.4
				c-0.6,0.1-1,0.4-1.3,0.9c0,0-0.6-0.6-1.2-1.3c-0.5-0.8-0.9-1.7-1.1-2c-0.2-0.3-0.7-1.1-0.7-1.1s0.5-0.2,1.1,0
				c0.6,0.1,0.8,0.3,0.8,0.3C215.5,186.2,215.9,184.9,216.7,184"/>
			<path style="fill:#C8B100;stroke:#000000;stroke-width:0.39;" d="M0,0"/>
			<ellipse style="fill:#AD1519;stroke:#000000;stroke-width:0.39;" cx="218.3" cy="192.4" rx="2.1" ry="2"/>
			<path style="fill:#FFFFFF;stroke:#000000;stroke-width:0.39;" d="M228.2,193.7c-0.1-0.8,0.3-1.6,0.9-1.6c0.6-0.1,1.2,0.5,1.3,1.4
				c0.1,0.8-0.3,1.6-0.9,1.6C228.9,195.1,228.4,194.5,228.2,193.7"/>
			<path style="fill:#C8B100;stroke:#000000;stroke-width:0.39;" d="M238.6,191.8c-0.3-0.3-0.5-0.8-0.5-1.3c0-0.5,0.2-0.9,0.5-1.3
				c0,0-0.9-0.6-1.8-1.1c-0.7-0.3-2.1-0.6-2.5-0.6l-1.2-0.2c0,0,0,0.2,0.2,0.6c0.2,0.5,0.4,0.9,0.4,0.9c-1.4,0.1-2.7,0.8-3.7,1.7
				c0.9,0.9,2.2,1.6,3.7,1.7c0,0-0.2,0.3-0.4,0.9c-0.2,0.4-0.2,0.6-0.2,0.6l1.2-0.2c0.4-0.1,1.8-0.3,2.5-0.6
				C237.7,192.5,238.6,191.8,238.6,191.8"/>
			<path style="fill:#C8B100;stroke:#000000;stroke-width:0.39;" d="M240.1,180.8c1,0.9,1.8,2.3,1.9,3.7c0,0,0.2-0.3,0.9-0.5
				c0.7-0.2,1.2-0.2,1.2-0.2s-0.4,1-0.5,1.4c-0.2,0.4-0.4,1.5-0.8,2.4c-0.4,1-1,1.7-1,1.7c-0.4-0.4-1-0.7-1.6-0.7
				c-0.7,0-1.2,0.3-1.6,0.7c0,0-0.6-0.7-1-1.7c-0.4-1-0.6-2.1-0.8-2.4c-0.2-0.4-0.5-1.4-0.5-1.4s0.5-0.1,1.2,0.2
				c0.7,0.2,0.9,0.5,0.9,0.5C238.4,183.1,239.1,181.7,240.1,180.8"/>
			<path style="fill:#C8B100;stroke:#000000;stroke-width:0.39;" d="M241.7,191.8c0.3-0.3,0.5-0.8,0.5-1.3c0-0.5-0.2-0.9-0.5-1.3
				c0,0,0.9-0.6,1.8-1.1c0.7-0.3,2.1-0.6,2.5-0.6l1.2-0.2c0,0,0,0.2-0.2,0.6c-0.2,0.5-0.4,0.9-0.4,0.9c1.4,0.1,2.7,0.8,3.7,1.7
				c-0.9,0.9-2.2,1.6-3.7,1.7c0,0,0.2,0.3,0.4,0.9c0.2,0.4,0.2,0.6,0.2,0.6l-1.2-0.2c-0.4-0.1-1.8-0.3-2.5-0.6
				C242.6,192.5,241.7,191.8,241.7,191.8"/>
			<ellipse style="fill:#AD1519;stroke:#000000;stroke-width:0.39;" cx="240.1" cy="190.6" rx="2.1" ry="2"/>
			<path style="fill:#FFFFFF;stroke:#000000;stroke-width:0.39;" d="M252.1,193.7c0.1-0.8-0.3-1.6-0.9-1.6c-0.6-0.1-1.2,0.5-1.3,1.4
				c-0.1,0.8,0.3,1.6,0.9,1.6C251.4,195.1,252,194.5,252.1,193.7"/>
			<path style="fill:#C8B100;stroke:#000000;stroke-width:0.39;" d="M260.5,193.3c-0.2-0.3-0.3-0.8-0.2-1.2c0.1-0.4,0.3-0.8,0.6-1
				c0,0-0.6-0.7-1.4-1.2c-0.6-0.4-1.7-0.8-2.1-0.9c-0.3-0.1-1-0.4-1-0.4s0,0.2,0.1,0.6c0.1,0.5,0.2,0.8,0.2,0.8
				c-1.2-0.1-2.5,0.3-3.5,0.9c0.7,0.9,1.7,1.7,2.9,2c0,0-0.2,0.3-0.5,0.7c-0.2,0.4-0.3,0.5-0.3,0.5l1.1,0c0.4,0,1.6,0,2.3-0.2
				C259.7,193.8,260.5,193.3,260.5,193.3"/>
			<path style="fill:#C8B100;stroke:#000000;stroke-width:0.39;" d="M263.7,184c-1,0.6-1.9,1.7-2.2,2.9c0,0-0.1-0.2-0.7-0.6
				c-0.6-0.3-1-0.3-1-0.3s0.2,0.9,0.2,1.3c0.1,0.3,0.1,1.3,0.3,2.2c0.2,0.9,0.6,1.6,0.6,1.6c0.4-0.3,1-0.5,1.5-0.4
				c0.6,0.1,1,0.4,1.3,0.9c0,0,0.6-0.6,1.2-1.3c0.5-0.8,0.9-1.7,1.1-2c0.2-0.3,0.7-1.1,0.7-1.1s-0.5-0.2-1.1,0
				c-0.6,0.1-0.8,0.3-0.8,0.3C264.8,186.2,264.4,184.9,263.7,184"/>
			<path style="fill:#C8B100;stroke:#000000;stroke-width:0.39;" d="M263.3,193.8c0.3-0.3,0.6-0.6,0.6-1c0.1-0.4,0-0.8-0.2-1.2
				c0,0,0.8-0.4,1.8-0.7c0.7-0.2,1.9-0.2,2.3-0.2c0.4,0,1.1,0,1.1,0s-0.1,0.2-0.3,0.5c-0.2,0.4-0.5,0.7-0.5,0.7
				c1.2,0.3,2.2,1.1,2.9,2c-1,0.7-2.2,1.1-3.5,0.9c0,0,0.1,0.3,0.2,0.8c0.1,0.4,0.1,0.6,0.1,0.6s-0.7-0.2-1-0.4
				c-0.3-0.1-1.5-0.5-2.1-0.9C263.9,194.5,263.3,193.8,263.3,193.8"/>
			<ellipse style="fill:#AD1519;stroke:#000000;stroke-width:0.39;" cx="262.1" cy="192.4" rx="2.1" ry="2"/>
			<path style="fill:#FFFFFF;stroke:#000000;stroke-width:0.39;" d="M272.6,197.7c0.3-0.8,0-1.6-0.5-1.8c-0.6-0.2-1.3,0.3-1.5,1.1
				c-0.3,0.8,0,1.6,0.5,1.8C271.6,199,272.3,198.5,272.6,197.7"/>
			<path style="fill:#C8B100;stroke:#000000;stroke-width:0.39;" d="M280.3,198.1c0.1-0.4,0.3-0.7,0.7-1c0.8-0.7,1.8-0.8,2.3-0.2
				c0.1,0.1,0.1,0.2,0.2,0.2c0,0,1.1-2,2.3-2.7c1.2-0.7,3.4-0.5,3.4-0.5c0-1.5-1.3-2.8-2.9-2.8c-1,0-1.8,0.4-2.4,1.1l-0.2-1
				c0,0-1.3,0.3-1.9,1.7c-0.6,1.5,0,3.6,0,3.6s-0.3-0.9-0.8-1.5c-0.5-0.6-1.7-1.3-2.4-1.6c-0.7-0.3-1.3-0.8-1.3-0.8s0,0.2-0.1,0.6
				c0,0.5,0,0.8,0,0.8c-1.2-0.2-2.6,0-3.7,0.5c0.5,0.9,1.3,1.8,2.5,2.2c0,0-0.4,0.3-0.8,0.7c-0.3,0.3-0.4,0.5-0.4,0.5
				s0.8,0.1,1.2,0.2c0.4,0,1.8,0.3,2.6,0.2C279.2,198.2,279.9,198.1,280.3,198.1"/>
			<path style="fill:#AD1519;stroke:#000000;stroke-width:0.39;" d="M283.2,196.8c-0.5-0.5-1.5-0.4-2.3,0.2c-0.8,0.6-1,1.6-0.5,2.1
				c0.5,0.5,1.5,0.4,2.3-0.2C283.5,198.3,283.7,197.3,283.2,196.8"/>
		</g>
		<g>
			<path style="fill:#AD1519;stroke:#000000;stroke-width:0.39;stroke-linejoin:round;" d="M240.1,215.6c-10.6,0-20.2-1.2-27.5-3.1
				c7.3-1.9,16.9-3,27.5-3.1c10.6,0,20.3,1.2,27.6,3.1C260.4,214.3,250.7,215.6,240.1,215.6L240.1,215.6z"/>
			<path style="fill:none;stroke:#000000;stroke-width:5.000000e-02;" d="M247.7,215.3v-5.8 M244.8,215.5l0-6.1 M242.7,215.6v-6.2"
				/>
			<path style="fill:none;stroke:#000000;stroke-width:9.000000e-02;" d="M240.9,215.7v-6.3"/>
			<path style="fill:none;stroke:#000000;stroke-width:0.14;" d="M239.2,215.7v-6.3"/>
			<path style="fill:none;stroke:#000000;stroke-width:0.18;" d="M237.6,215.7v-6.3"/>
			<path style="fill:none;stroke:#000000;stroke-width:0.23;" d="M236,215.7v-6.3"/>
			<path style="fill:none;stroke:#000000;stroke-width:0.28;" d="M234.5,215.7v-6.3"/>
			<path style="fill:none;stroke:#000000;stroke-width:0.33;" d="M231.8,215.3l0-5.7 M233.1,215.4v-6"/>
			<path style="fill:none;stroke:#000000;stroke-width:0.37;" d="M229.3,215v-5.3 M230.6,215.2l0-5.6"/>
			<path style="fill:none;stroke:#000000;stroke-width:0.42;" d="M225.9,214.8v-4.6 M227,214.8V210 M228.2,215v-5.1"/>
			<path style="fill:none;stroke:#000000;stroke-width:0.46;" d="M224.8,214.7v-4.5"/>
			<path style="fill:none;stroke:#000000;stroke-width:0.51;" d="M223.7,214.5v-4.2"/>
			<path style="fill:none;stroke:#000000;stroke-width:0.56;" d="M222.5,214.4v-3.9"/>
			<path style="fill:none;stroke:#000000;stroke-width:0.6;" d="M220.1,214l0-3.1 M221.3,214.2v-3.5"/>
			<path style="fill:none;stroke:#000000;stroke-width:0.63;" d="M218.8,213.8V211"/>
			<path style="fill:none;stroke:#000000;stroke-width:0.68;" d="M217.7,213.6v-2.3"/>
			<path style="fill:none;stroke:#000000;stroke-width:0.73;" d="M216.4,213.2v-1.8"/>
			<path style="fill:none;stroke:#000000;stroke-width:0.77;" d="M215.2,213.1v-1.3"/>
			<path style="fill:none;stroke:#000000;stroke-width:0.91;" d="M213.8,212.8v-0.6"/>
			<path style="fill:none;stroke:#000000;stroke-width:0.39;" d="M211.3,212.8c7.4-2.1,17.6-3.4,28.8-3.4c11.3,0,21.4,1.3,28.9,3.4"
				/>
			<path style="fill:#AD1519;stroke:#000000;stroke-width:0.39;" d="M208.1,208.5l1.2-1.5l3.2,0.4l-2.6,1.9L208.1,208.5"/>
			<path style="fill:#FFFFFF;stroke:#000000;stroke-width:0.39;" d="M215.1,206.7c0-0.6,0.5-1,1.1-1s1.1,0.4,1.1,1
				c0,0.5-0.5,1-1.1,1S215.1,207.2,215.1,206.7"/>
			<path style="fill:#058E6E;stroke:#000000;stroke-width:0.39;" d="M224.3,206.5l-2.3,0.3c-0.6,0.1-1.1-0.3-1.2-0.9
				c-0.1-0.5,0.3-1,0.9-1.1l2.3-0.3l2.3-0.3c0.6-0.1,1.1,0.3,1.2,0.9c0.1,0.5-0.3,1-0.9,1.1L224.3,206.5"/>
			<path style="fill:#FFFFFF;stroke:#000000;stroke-width:0.39;" d="M230.9,204.8c0-0.6,0.5-1,1.1-1c0.6,0,1.1,0.4,1.1,1
				c0,0.5-0.5,1-1.1,1C231.4,205.8,230.9,205.4,230.9,204.8"/>
			<path style="fill:#AD1519;stroke:#000000;stroke-width:0.39;" d="M240.1,205.6H237c-0.6,0-1.1-0.4-1.1-1c0-0.6,0.5-1,1.1-1h6.4
				c0.6,0,1.1,0.4,1.1,1c0,0.5-0.5,1-1.1,1H240.1"/>
			<path style="fill:#FFFFFF;stroke:#000000;stroke-width:0.39;" d="M247.3,204.8c0-0.6,0.5-1,1.1-1c0.6,0,1.1,0.4,1.1,1
				c0,0.5-0.5,1-1.1,1C247.7,205.8,247.3,205.4,247.3,204.8"/>
			<path style="fill:#058E6E;stroke:#000000;stroke-width:0.39;" d="M256,206.5l2.3,0.3c0.6,0.1,1.1-0.3,1.2-0.9
				c0.1-0.5-0.3-1-0.9-1.1l-2.3-0.3l-2.3-0.3c-0.6-0.1-1.1,0.3-1.2,0.9c-0.1,0.5,0.3,1,0.9,1.1L256,206.5"/>
			<path style="fill:#FFFFFF;stroke:#000000;stroke-width:0.39;" d="M263.1,206.7c0-0.6,0.5-1,1.1-1c0.6,0,1.1,0.4,1.1,1
				c0,0.5-0.5,1-1.1,1C263.6,207.7,263.1,207.2,263.1,206.7"/>
			<path style="fill:#AD1519;stroke:#000000;stroke-width:0.39;" d="M272.2,208.5l-1.2-1.5l-3.2,0.4l2.6,1.9L272.2,208.5"/>
		</g>
		<g>
			<path style="fill:#CCCCCC;stroke:#000000;stroke-width:0.52;" d="M240.5,330.6c-12.6,0-25-3.1-35.5-8.2
				c-7.7-3.8-12.8-11.5-12.8-20.3v-32h96.4v32c0,8.8-5.1,16.5-12.8,20.3C265.3,327.5,253,330.6,240.5,330.6L240.5,330.6z"/>
			<path style="fill:#FFD691;stroke:#000000;stroke-width:0.52;" d="M242.8,316.4c2,0.6,3,2.1,3,3.8c0,2.3-2.2,4-5.1,4
				c-2.9,0-5.2-1.7-5.2-4c0-1.7,1-3.6,3-3.8c0,0-0.1-0.2-0.2-0.5c-0.2-0.2-0.6-0.6-0.6-0.6s0.8-0.1,1.2,0c0.4,0.2,0.7,0.5,0.7,0.5
				s0.2-0.4,0.5-0.7c0.3-0.3,0.7-0.5,0.7-0.5s0.4,0.4,0.6,0.6c0.1,0.3,0.2,0.6,0.2,0.6s0.4-0.3,0.8-0.5c0.4-0.1,0.8-0.2,0.8-0.2
				s-0.1,0.4-0.2,0.7C242.8,315.9,242.8,316.4,242.8,316.4"/>
			<path style="fill:#058E6E;stroke:#000000;stroke-width:0.52;" d="M240.3,326.7c0,0-3.8-2.6-5.5-2.9c-2.1-0.5-4.5-0.1-5.5-0.1
				c0,0,1.2,0.9,1.8,1.4c0.5,0.5,2.3,1.6,3.3,1.8C237.5,327.7,240.3,326.7,240.3,326.7 M241.4,326.9c0,0,2.4-2.6,5-2.9
				c3-0.4,5,0.2,6.2,0.6c0,0-1,0.5-1.5,0.8c-0.5,0.4-1.9,1.5-4,1.5c-2.1,0-4.4-0.2-4.8-0.2C242,326.9,241.4,326.9,241.4,326.9 M0,0"
				/>
			<path style="fill:#058E6E;stroke:#000000;stroke-width:0.52;" d="M239.7,329c0,0,0.6-1.5,0.6-2.7c0.1-1-0.1-2.1-0.1-2.1h0.8
				c0,0,0.4,1.1,0.4,2.1c0,1-0.2,2.3-0.2,2.3s-0.5,0.1-0.7,0.2C240.3,328.8,239.7,329,239.7,329"/>
			<g>
				<path style="fill:#AD1519;stroke:#000000;stroke-width:0.52;" d="M240.3,302c0,12.6-10.7,22.9-24,22.9s-24.1-10.2-24.1-22.9v-32
					h48.2V302"/>
				<path style="fill:#C8B100;stroke:#000000;stroke-width:0.52;" d="M192,301.6c0.1,6.7,2.8,11.8,5.5,15v-47.5h-5.4L192,301.6
					L192,301.6z M202.6,320.9c1.5,0.8,3.6,2.1,5.8,2.7l-0.1-54.7h-5.6V320.9z M213.4,324.7c2.2,0.2,3.8,0.2,5.6,0v-55.9h-5.6V324.7z
					 M224,323.5c2.2-0.4,4.7-1.8,5.8-2.5v-52.2h-5.6L224,323.5z M235,316.1c2.4-2.1,4.6-6.8,5.4-12.2l0.1-35h-5.6L235,316.1z"/>
			</g>
			<path style="fill:#AD1519;stroke:#000000;stroke-width:0.52;" d="M288.6,270v32c0,12.6-10.8,22.9-24.2,22.9
				c-13.3,0-24.2-10.2-24.2-22.9v-32H288.6"/>
			<path id="e" style="fill:#AD1519;stroke:#000000;stroke-width:0.52;" d="M0,0"/>
			<g transform="matrix(-1 0 0 1 550.43 0)">
				<path id="e_1_" style="fill:#AD1519;stroke:#000000;stroke-width:0.52;" d="M528.4,0"/>
			</g>
			<path style="fill:#058E6E;" d="M261.7,294.7c0-1.4,1.2-2.5,2.6-2.5c1.4,0,2.6,1.1,2.6,2.5c0,1.4-1.2,2.5-2.6,2.5
				C262.9,297.1,261.7,296,261.7,294.7"/>
			<g>
				<path style="fill:#AD1519;stroke:#000000;stroke-width:0.52;" d="M192.1,270h48.2v-53.5h-48.2V270z"/>
				<path style="fill:#C8B100;stroke:#000000;stroke-width:0.46;" d="M208.6,228.9h-0.9V228h-1.6v3.5h1.6v2.4h-3.3v7.1h1.8v14.2
					h-3.6v7.3h27.3v-7.3h-3.5v-14.2h1.8V234h-3.3v-2.4h1.6V228h-1.6v0.9h-0.9V228h-1.5v0.9h-1.1V228h-1.6v3.5h1.6v2.4H218v-7.8h1.8
					v-3.6H218v0.9h-0.9v-0.9h-1.6v0.9h-0.9v-0.9h-1.8v3.6h1.8v7.8h-3.3v-2.4h1.6V228h-1.6v0.9h-0.9V228h-1.8L208.6,228.9
					L208.6,228.9z M202.7,262.6h27.3 M202.7,260.8h27.3 M202.7,259h27.3 M202.7,257.3h27.3 M202.7,255.3h27.3 M206.2,253.7h20.2
					 M206.2,251.9h20.2 M206.2,249.9h20.2 M206.2,248.2h20.2 M206.2,246.4h20.2 M206.2,244.6h20.2 M206.2,242.9h20.2 M204.4,241.1
					h23.7 M204.4,239.3h23.7 M204.4,237.5h23.7 M204.4,235.8h23.7 M207.8,234h17.1 M214.6,232.2h3.3 M214.6,230.4h3.3 M214.6,228.7
					h3.3 M214.6,226.9h3.3 M212.9,224.7h6.9 M207.8,232.2h3.5 M206.2,230h6.7 M206.2,262.6v-1.8 M206.2,259v-1.8 M204.4,259v1.8
					 M207.8,260.8V259 M209.5,262.6v-1.8 M209.5,259v-1.8 M209.5,255.3v-1.6 M209.5,251.9v-2 M207.8,257.3v-2 M204.4,257.3v-2
					 M211.3,255.3v2 M212.9,255.3v-1.6 M207.8,251.9v1.8 M211.3,251.9v1.8 M214.6,251.9v1.8 M212.9,251.9v-2 M214.6,248.2v1.8
					 M214.6,244.6v1.8 M212.9,242.9v1.8 M214.6,241.1v1.8 M211.3,241.1v1.8 M207.8,241.1v1.8 M206.2,239.3v1.8 M209.5,239.3v1.8
					 M212.9,239.3v1.8 M214.6,237.5v1.8 M211.3,237.5v1.8 M207.8,237.5v1.8 M206.2,235.8v1.8 M212.9,235.8v1.8 M209.5,232.2v1.8
					 M224.8,232.2h-3.6 M226.4,230h-6.7 M226.4,262.6v-1.8 M226.4,259v-1.8 M228.2,259v1.8 M224.8,260.8V259 M223.1,262.6v-1.8
					 M223.1,259v-1.8 M223.1,255.3v-1.6 M223.1,251.9v-2 M224.8,257.3v-2 M228.2,257.3v-2 M221.3,255.3v2 M219.7,255.3v-1.6
					 M224.8,251.9v1.8 M221.3,251.9v1.8 M218,251.9v1.8 M219.7,251.9v-2 M218,248.2v1.8 M218,244.6v1.8 M219.7,242.9v1.8 M218,241.1
					v1.8 M221.3,241.1v1.8 M224.8,241.1v1.8 M226.4,239.3v1.8 M223.1,239.3v1.8 M219.7,239.3v1.8 M218,237.5v1.8 M221.3,237.5v1.8
					 M224.8,237.5v1.8 M226.4,235.8v1.8 M219.7,235.8v1.8 M223.1,232.2v1.8 M216.2,251.9v-2 M216.2,244.6v-1.8 M216.2,248.2v-1.8
					 M216.2,241.1v-1.8 M216.2,237.5v-1.8 M216.2,232.2v-1.8 M216.2,228.7v-1.8 M207.8,231.5h3.5 M214.6,226.2h3.3 M221.3,231.5h3.6
					"/>
				<path style="fill:#C8B100;stroke:#000000;stroke-width:0.46;" d="M220.8,262.6v-4.7c0-0.9-0.4-3.6-4.7-3.6c-4,0-4.4,2.7-4.4,3.6
					v4.7H220.8z"/>
				<path style="fill:#C8B100;stroke:#000000;stroke-width:0.46;" d="M213.3,258.2l-2.2-0.2c0-0.9,0.2-2.2,0.9-2.7l2,1.6
					C213.8,257,213.3,257.7,213.3,258.2z M217.1,255.9l1.1-2c-0.4-0.2-1.3-0.4-2-0.4c-0.4,0-1.3,0.2-1.8,0.4l1.1,2H217.1
					L217.1,255.9z M219.3,258.2l2.2-0.2c0-0.9-0.2-2.2-0.9-2.7l-2,1.6C218.9,257,219.3,257.7,219.3,258.2z M212.9,250.4v-4.9
					c0-1.3-0.9-2.4-2.4-2.4c-1.6,0-2.4,1.1-2.4,2.4v4.9H212.9L212.9,250.4z M219.7,250.4v-4.9c0-1.3,0.9-2.4,2.4-2.4
					c1.5,0,2.4,1.1,2.4,2.4v4.9H219.7z M211.3,238.4l0.2-4.4h-4.2l0.5,4.4H211.3z M218,238.4l0.4-4.4h-4.2l0.2,4.4H218z
					 M221.3,238.4l-0.4-4.4h4.4l-0.4,4.4H221.3L221.3,238.4z"/>
				<path style="fill:#0039F0;" d="M219.3,262.6v-4c0-0.7-0.4-2.7-3.1-2.7c-2.4,0-2.9,2-2.9,2.7v4H219.3L219.3,262.6z M212.4,249.9
					v-4.2c0-1.1-0.7-2.2-2-2.2c-1.3,0-2,1.1-2,2.2v4.2H212.4z M220.2,249.9v-4.2c0-1.1,0.7-2.2,2-2.2c1.3,0,2,1.1,2,2.2v4.2H220.2z"
					/>
			</g>
			<path style="fill:#CCCCCC;stroke:#000000;stroke-width:0.52;" d="M240.3,270h48.3v-53.5h-48.3V270z"/>
			<path style="fill:#DB4446;stroke:#000000;stroke-width:0.39;" d="M264.9,229.7l0-0.6l0.1-0.3c0,0-1.5,0.1-2.4-0.1
				s-1.5-0.6-2.3-1.2c-0.8-0.7-1.1-1.1-1.6-1.1c-1.3-0.2-2.3,0.4-2.3,0.4s1,0.4,1.7,1.3c0.7,0.9,1.5,1.4,1.9,1.5
				c0.6,0.2,2.6,0,3.1,0.1C263.7,229.5,264.9,229.7,264.9,229.7L264.9,229.7z"/>
			<g>
				<path style="fill:#ED72AA;stroke:#000000;stroke-width:0.39;" d="M272.1,227.5c0,0,0,0.7,0.1,1.3c0.1,0.6-0.2,1.2-0.1,1.5
					c0.1,0.4,0.2,0.6,0.3,0.9c0.1,0.2,0.2,0.9,0.2,0.9s-0.4-0.3-0.7-0.5c-0.3-0.3-0.6-0.4-0.6-0.4l0.1,1c0,0.3,0.2,0.9,0.5,1.2
					c0.3,0.3,0.8,0.9,1,1.3c0.2,0.4,0.1,1.4,0.1,1.4s-0.4-0.7-0.8-0.9c-0.4-0.1-1.2-0.6-1.2-0.6s0.8,0.8,0.8,1.5
					c0,0.7-0.3,1.5-0.3,1.5s-0.3-0.7-0.8-1.1c-0.5-0.4-1.1-0.9-1.1-0.9s0.5,1.1,0.5,1.9c0,0.8-0.1,2.4-0.1,2.4s-0.4-0.6-0.8-0.9
					c-0.4-0.3-0.8-0.6-1-0.7c-0.1-0.2,0.5,0.6,0.5,1.1c0.1,0.5,0.3,2.3,1.8,4.5c0.9,1.3,2.3,3.6,5.3,2.9c3-0.7,1.9-4.8,1.2-6.6
					c-0.6-1.9-0.9-3.9-0.9-4.7c0-0.7,0.6-2.9,0.5-3.3c-0.1-0.4-0.2-1.9,0.1-3.1c0.4-1.3,0.7-1.8,0.9-2.3c0.2-0.5,0.4-0.8,0.4-1.3
					c0.1-0.5,0.1-1.3,0.1-1.3s0.6,1,0.7,1.4c0.1,0.4,0.1,1.4,0.1,1.4s0.1-1.1,0.9-1.6c0.8-0.5,1.8-1.1,2-1.4
					c0.2-0.3,0.3-0.5,0.3-0.5s-0.1,1.8-0.6,2.6c-0.3,0.5-1.7,2-1.7,2s0.7-0.3,1.2-0.3c0.5,0,0.8,0,0.8,0s-0.6,0.5-1.4,1.6
					c-0.8,1.1-0.5,1.2-1,2.1c-0.6,0.9-1,1-1.7,1.5c-1,0.8-0.5,4.2-0.3,4.7c0.1,0.5,1.9,4.6,2,5.6c0,1,0.2,3.2-1.5,4.6
					c-1.1,0.9-2.9,0.9-3.4,1.2c-0.4,0.3-1.2,1.1-1.2,2.8c0,1.7,0.6,2,1.1,2.4c0.5,0.4,1.1,0.2,1.2,0.5c0.1,0.3,0.2,0.5,0.4,0.7
					c0.2,0.2,0.3,0.4,0.3,0.8c-0.1,0.4-0.9,1.2-1.2,1.8c-0.3,0.6-0.8,2.1-0.8,2.4s-0.1,1,0.2,1.3c0,0,0.9,1,0.3,1.2
					c-0.4,0.1-0.7-0.2-0.9-0.2c-0.5,0.1-0.8,0.5-0.9,0.4c-0.3-0.1-0.3-0.2-0.4-0.7c0-0.5,0-0.7-0.2-0.7c-0.2,0-0.3,0.2-0.4,0.4
					s0,0.9-0.3,0.9s-0.6-0.4-0.8-0.5c-0.2-0.1-0.8-0.2-0.8-0.5c0-0.3,0.3-0.8,0.7-0.9c0.4-0.1,0.7-0.3,0.5-0.5
					c-0.2-0.2-0.5-0.2-0.7,0c-0.2,0.2-0.8,0-0.7-0.3c0-0.3,0.1-0.7,0.1-0.8c0-0.2-0.5-0.5,0.1-0.8c0.6-0.3,0.8,0.3,1.4,0.2
					s0.8-0.3,1-0.6c0.2-0.3,0.2-1-0.2-1.4c-0.4-0.4-0.8-0.5-0.9-0.8c-0.1-0.3-0.3-0.9-0.3-0.9s0.1,1.2,0,1.3c-0.1,0.2,0,0.9,0,0.9
					s-0.4-0.4-0.7-0.8c-0.3-0.3-0.6-1.3-0.6-1.3s0,0.9,0,1.3c0,0.4,0.4,0.7,0.3,0.8c-0.1,0.1-0.8-0.7-1-0.8c-0.2-0.1-0.7-0.6-1-1
					c-0.2-0.5-0.4-1.1-0.5-1.4c-0.1-0.2-0.2-1.3-0.1-1.5c0.2-0.4,0.5-1.1,0.5-1.1h-1.4c-0.7,0-1.2-0.2-1.5,0.3s-0.1,1.5,0.2,2.8
					c0.4,1.3,0.6,1.9,0.5,2.1c-0.1,0.2-0.6,0.8-0.7,0.9c-0.2,0.1-0.7,0.1-0.9,0c-0.2-0.1-0.5-0.3-1.2-0.3c-0.7,0-1.1,0-1.3,0
					c-0.2-0.1-0.8-0.4-1.1-0.3c-0.3,0.1-0.8,0.3-0.6,0.7c0.2,0.6-0.2,0.7-0.5,0.7c-0.3,0-0.5-0.1-0.9-0.2c-0.3-0.1-0.9,0-0.8-0.4
					c0.1-0.4,0.2-0.4,0.4-0.7c0.2-0.3,0.2-0.5,0-0.5c-0.2,0-0.5,0-0.7,0.1c-0.2,0.2-0.5,0.5-0.7,0.4c-0.2-0.1-0.4-0.4-0.4-1
					c0-0.6-0.7-1.2,0-1.1c0.6,0,1.4,0.5,1.5,0.1c0.1-0.3,0.1-0.5-0.3-0.7c-0.3-0.3-0.7-0.4-0.3-0.7c0.4-0.3,0.5-0.3,0.7-0.5
					c0.2-0.2,0.4-0.8,0.7-0.6c0.6,0.3,0,0.7,0.6,1.4c0.6,0.7,1,0.9,2,0.8c1-0.1,1.3-0.2,1.3-0.5c0-0.3-0.1-0.8-0.1-1
					c0-0.2,0.1-1,0.1-1s-0.5,0.3-0.6,0.6c-0.1,0.3-0.4,0.8-0.4,0.8s-0.1-0.6-0.1-1c0-0.3,0.1-0.8,0.1-0.9c0-0.3-0.2-0.9-0.2-0.9
					s-0.2,0.7-0.3,0.9c-0.1,0.2-0.2,1-0.2,1s-0.6-0.6-0.5-1.5c0.1-0.7-0.1-1.7,0.1-2c0.2-0.3,0.7-1.6,2-1.6c1.2,0,2.2,0,2.7,0
					c0.4,0,2-0.3,2-0.3s-2.9-1.5-3.5-1.9c-0.7-0.4-1.7-1.6-2-2.1c-0.3-0.5-0.6-1.5-0.6-1.5s-0.5,0-1,0.3c-0.5,0.3-0.9,0.6-1.2,1
					s-0.7,1-0.7,1s0.1-0.9,0.1-1.2s-0.1-0.8-0.1-0.8s-0.3,1.2-1,1.7c-0.7,0.5-1.4,1.1-1.4,1.1s0.1-0.7,0.1-0.8c0-0.2,0.2-1,0.2-1
					s-0.5,0.7-1.2,0.8c-0.7,0.1-1.7,0.1-1.8,0.5c-0.1,0.4,0.2,1,0,1.3s-0.5,0.5-0.5,0.5s-0.4-0.3-0.8-0.4c-0.3,0-0.7,0.2-0.7,0.2
					s-0.3-0.4-0.2-0.6c0.1-0.2,0.6-0.6,0.5-0.8c-0.1-0.2-0.6,0.1-0.8,0.2c-0.3,0.1-0.8,0.3-0.8-0.2c0-0.4,0.2-0.7,0-1
					c-0.1-0.3,0-0.5,0.2-0.6c0.2-0.1,1.1,0,1.2-0.2c0.1-0.2-0.2-0.5-0.8-0.6c-0.6-0.1-0.8-0.5-0.5-0.7c0.3-0.3,0.4-0.4,0.5-0.6
					c0.1-0.3,0.2-0.7,0.7-0.5c0.5,0.2,0.4,0.8,1,1c0.5,0.2,1.8-0.1,2.1-0.2c0.3-0.2,1.1-0.8,1.4-1c0.3-0.1,1.5-1.1,1.5-1.1
					s-0.7-0.5-1-0.8c-0.3-0.3-0.7-0.9-1-1c-0.2-0.1-1.4-0.6-1.8-0.6c-0.4,0-1.7-0.5-1.7-0.5s0.6-0.2,0.8-0.3
					c0.2-0.2,0.6-0.5,0.8-0.5c0.2,0,0.3,0,0.3,0s-1.2,0-1.4-0.1c-0.2-0.1-1-0.5-1.2-0.5s-0.8,0.1-0.8,0.1s0.7-0.5,1.3-0.6
					c0.6-0.1,1.1-0.1,1.1-0.1s-0.9-0.3-1.1-0.6c-0.2-0.3-0.4-0.8-0.6-1c-0.2-0.2-0.3-0.5-0.6-0.6c-0.3,0-0.8,0.4-1.1,0.3
					s-0.5-0.2-0.5-0.6c0-0.4,0-0.3-0.1-0.5c-0.1-0.2-0.5-0.8-0.1-0.9c0.4-0.1,1.3,0.1,1.4-0.1c0.1-0.2-0.5-0.6-0.8-0.8
					c-0.4-0.2-0.9-0.5-0.6-0.7c0.3-0.2,0.6-0.4,0.8-0.6c0.2-0.2,0.4-0.9,0.7-0.7c0.3,0.2,0.8,1.2,1.1,1.1c0.3-0.1,0.3-0.8,0.2-1.1
					c-0.1-0.3,0-0.8,0.3-0.8s0.5,0.4,0.9,0.4c0.4,0,1.1-0.1,1,0.2c0,0.3-0.3,0.7-0.6,1c-0.3,0.3-0.4,1-0.2,1.4
					c0.2,0.4,0.7,1.1,1.1,1.4c0.4,0.3,1.2,0.5,1.8,0.8c0.5,0.3,1.7,1.3,2.1,1.4c0.4,0.1,0.8,0.3,0.8,0.3s0.5-0.2,1.1-0.2
					s2.1,0.1,2.6-0.1c0.5-0.2,1.2-0.6,1-1.1c-0.2-0.5-1.4-0.9-1.3-1.3c0.1-0.4,0.5-0.4,1.3-0.4c0.7,0,1.7,0.1,1.9-0.9
					c0.2-1,0.2-1.6-0.8-1.8c-1-0.2-1.8-0.3-2-1c-0.2-0.7-0.4-0.9-0.2-1.1c0.2-0.2,0.6-0.3,1.4-0.4c0.8-0.1,1.6-0.1,1.9-0.2
					c0.2-0.2,0.3-0.7,0.6-0.9c0.3-0.2,1.5-0.4,1.5-0.4s1.4,0.7,2.7,1.6C271.1,226.3,272.1,227.5,272.1,227.5"/>
				<path style="fill:none;stroke:#000000;stroke-width:0.39;" d="M258.2,233.7c0,0-0.8,0.2-1.1,0.6c-0.4,0.5-0.3,1-0.3,1
					s0.7-0.5,1.5-0.3c0.8,0.2,0.9,0.3,1.3,0.3s1.2-0.3,1.2-0.3s-0.7,0.8-0.6,1.4c0.1,0.6,0.2,0.8,0.2,1.1c-0.1,0.7-0.6,1.5-0.6,1.5
					s0.3-0.2,1-0.3c0.7-0.2,1.3-0.5,1.7-0.8c0.4-0.3,0.9-1,0.9-1s-0.2,1,0,1.4c0.2,0.4,0.2,1.6,0.2,1.6s0.5-0.4,0.8-0.6
					c0.2-0.1,0.7-0.4,0.9-0.7c0.1-0.2,0.3-1,0.3-1s0.1,0.9,0.4,1.3c0.3,0.4,0.7,1.7,0.7,1.7s0.3-0.8,0.6-1.2c0.3-0.3,0.7-0.8,0.7-1
					c0-0.3-0.1-0.8-0.1-0.8l0.4,0.8 M257.2,238.9c0,0,0.5-0.8,0.9-1.1c0.4-0.2,1-0.7,1.2-0.8c0.2,0,0.9-0.4,0.9-0.4 M261.1,241.6
					c0,0,1-0.5,1.4-0.7c0.7-0.4,1.1-1.1,1.1-1.1"/>
				<path style="fill:none;stroke:#000000;stroke-width:0.26;" d="M271.3,231.3c0,0-0.3-0.5-0.4-0.6c-0.1-0.1-0.2-0.5-0.2-0.5"/>
				<path style="fill:none;stroke:#000000;stroke-width:0.39;" d="M267.2,247.1c0,0,2,1.2,1.9,2.2c-0.1,1-1.1,2.3-1.1,2.3"/>
			</g>
			<path style="stroke:#000000;stroke-width:0.26;" d="M262.1,226.8c0,0-0.2-0.5-0.2-0.6c0-0.1-0.1-0.3-0.1-0.3s0.8,0,0.8,0.3
				c0,0.3-0.3,0.3-0.3,0.4C262.3,226.6,262.1,226.8,262.1,226.8L262.1,226.8z"/>
			<path style="stroke:#000000;stroke-width:5.000000e-02;" d="M266,225.5l-0.1-0.4c0,0,0.7,0,1.1,0.2c0.5,0.4,0.9,1,0.9,1
				c-0.1,0.1-0.5-0.3-0.8-0.4c0,0-0.2,0-0.4,0c-0.2,0-0.3-0.1-0.4-0.2c0-0.1,0-0.3,0-0.3L266,225.5z"/>
			<path style="stroke:#000000;stroke-width:0.26;" d="M262.2,230.5l0.3-0.5l0.3,0.5L262.2,230.5 M262.9,230.5l0.4-0.5l0.4,0.5
				L262.9,230.5 M262.6,227.4l0.8,0.3l-0.7,0.4L262.6,227.4 M263.5,227.6l0.7,0.2l-0.6,0.4L263.5,227.6"/>
			<path style="fill:#DB4446;stroke:#000000;stroke-width:0.39;" d="M251.4,226.6c0,0,0.5,0.3,0.8,0.4c0.4,0,0.7,0,0.8,0
				c0,0,0.2-0.5,0.1-0.9c-0.2-1.2-1.2-1.4-1.2-1.4s0.3,0.7,0.2,1C251.8,226.3,251.4,226.6,251.4,226.6L251.4,226.6z M249.2,227.6
				c0,0-0.4-0.7-1.3-0.6c-0.9,0.1-1.4,0.8-1.4,0.8s1,0,1.2,0.1c0.4,0.2,0.5,0.8,0.5,0.8s0.5-0.3,0.7-0.5
				C249,228,249.2,227.6,249.2,227.6L249.2,227.6z M248.2,230.6c0,0-0.7,0.1-1.1,0.6c-0.4,0.5-0.3,1.3-0.3,1.3s0.5-0.5,0.9-0.5
				c0.4,0,1.1,0.2,1.1,0.2s-0.2-0.5-0.2-0.8S248.2,230.6,248.2,230.6L248.2,230.6z M250.6,240.4c0,0-0.4-0.4-1.1-0.3
				c-0.7,0.1-1.2,0.9-1.2,0.9s0.6-0.2,1-0.1c0.3,0.1,0.6,0.4,0.6,0.4s0.3-0.3,0.4-0.4C250.4,240.7,250.6,240.4,250.6,240.4
				L250.6,240.4z M249.8,243.2c0,0-0.6-0.1-1.1,0.3c-0.5,0.4-0.5,1.2-0.5,1.2s0.5-0.4,0.9-0.4c0.4,0,0.8,0.3,0.8,0.3
				s0.1-0.5,0.1-0.6C250.1,243.6,249.8,243.2,249.8,243.2L249.8,243.2z M251.2,245.8c0,0,0,0.8,0.3,1.2c0.4,0.5,1.1,0.6,1.1,0.6
				s-0.2-0.5-0.3-0.8c-0.1-0.4,0.3-0.7,0.3-0.7s-0.4-0.4-0.7-0.4C251.6,245.8,251.2,245.8,251.2,245.8L251.2,245.8z M258.2,252.6
				c0,0-0.5-0.6-1.2-0.6c-0.7,0-1.4,0.7-1.4,0.7s0.8-0.1,1.1,0.2c0.2,0.3,0.4,0.6,0.4,0.6s0.4-0.2,0.5-0.3
				C257.9,253.1,258.2,252.6,258.2,252.6L258.2,252.6z M256.2,255.3c0,0-0.9-0.1-1.3,0.3c-0.4,0.5-0.4,1.3-0.4,1.3s0.5-0.6,1-0.5
				c0.5,0,1,0.3,1,0.3s-0.1-0.5-0.1-0.7C256.3,255.7,256.2,255.3,256.2,255.3L256.2,255.3z M258.1,258.1c0,0-0.4,0.6-0.1,1.1
				c0.3,0.5,1,0.7,1,0.7s-0.2-0.4-0.1-0.8c0.1-0.3,0.6-0.8,0.6-0.8L258.1,258.1L258.1,258.1z M270,259.3c0,0-0.8-0.2-1.2,0.1
				c-0.4,0.2-0.8,1.3-0.8,1.3s0.7-0.6,1.2-0.5c0.5,0.1,0.9,0.3,0.9,0.3s0.1-0.4,0-0.7C270.1,259.6,270,259.3,270,259.3L270,259.3z
				 M270.4,262.2c0,0-0.6,0.6-0.4,1.1c0.2,0.5,0.6,1.1,0.6,1.1s0-0.8,0.2-1c0.4-0.3,1-0.4,1-0.4s-0.5-0.5-0.7-0.5
				C271,262.5,270.4,262.2,270.4,262.2z M273.4,263.1c0,0-0.3,0.7,0.3,1.2c0.6,0.5,1.1,0.5,1.1,0.5s-0.4-0.8-0.3-1.2
				c0.1-0.4,0.5-0.7,0.5-0.7s-0.7-0.2-0.8-0.2C274,262.8,273.4,263.1,273.4,263.1L273.4,263.1z M0,0"/>
			<g>
				<path style="stroke:#000000;stroke-width:5.000000e-02;" d="M269.4,224.1c0-0.1,0.1-0.1,0.2,0s0.1,0.2,0.1,0.2
					c0,0.1-0.1,0.1-0.2,0C269.4,224.2,269.4,224.1,269.4,224.1L269.4,224.1z M270.3,224.8l-0.3-0.2c-0.1,0-0.1-0.1,0-0.2
					c0,0,0.1,0,0.2,0l0.3,0.2l0.3,0.2c0,0,0.1,0.1,0,0.2c0,0-0.1,0-0.2,0L270.3,224.8 M268.6,223.7l-0.2-0.1c-0.1,0-0.1-0.1-0.1-0.2
					c0,0,0.1-0.1,0.2,0l0.2,0.2l0.2,0.1c0.1,0,0.1,0.1,0.1,0.2c0,0-0.1,0.1-0.2,0L268.6,223.7 M267.6,223c0-0.1,0.2-0.1,0.2,0
					c0.1,0.1,0.1,0.2,0,0.2c0,0-0.1,0-0.2,0S267.6,223.1,267.6,223L267.6,223z M271.3,225.5c0,0,0-0.1,0-0.2c-0.1-0.1-0.2-0.1-0.2,0
					c0,0,0,0.1,0.1,0.2C271.2,225.6,271.3,225.6,271.3,225.5L271.3,225.5z M271.9,226.2l0.2,0.2c0,0,0.1,0.1,0.2,0c0,0,0-0.1,0-0.2
					L272,226l-0.2-0.2c0,0-0.1-0.1-0.2,0c0,0,0,0.1,0,0.2L271.9,226.2 M272.8,226.9c0-0.1,0-0.1,0-0.2c-0.1-0.1-0.2-0.1-0.2,0
					c0,0.1,0,0.1,0,0.2C272.6,227,272.7,227,272.8,226.9z"/>
				<path style="fill:#C8B100;stroke:#000000;stroke-width:0.26;" d="M270.1,221.1l-0.6,0l-0.1,0.8l0.1,0.1l0.1,0l0.7-0.5
					L270.1,221.1"/>
				<path style="fill:#C8B100;stroke:#000000;stroke-width:0.26;" d="M270.1,221.1l-0.6,0l-0.1,0.8l0.1,0.1l0.1,0l0.7-0.5
					L270.1,221.1"/>
				<path style="fill:#C8B100;stroke:#000000;stroke-width:0.26;" d="M268.6,221.6l0,0.5l0.9,0.1l0.1-0.1l0-0.1l-0.5-0.7
					L268.6,221.6"/>
				<path style="fill:#C8B100;stroke:#000000;stroke-width:0.26;" d="M270.4,222.6l-0.5,0.3l-0.5-0.7l0-0.1l0.1-0.1l0.9,0.1
					L270.4,222.6"/>
				<path style="fill:#C8B100;stroke:#000000;stroke-width:0.26;" d="M0,0"/>
				<path style="fill:#C8B100;stroke:#000000;stroke-width:0.26;" d="M268.2,221.4l-0.4,0.4l-0.7-0.6l0.1-0.1l0-0.1l0.9-0.1
					L268.2,221.4"/>
				<path style="fill:#C8B100;stroke:#000000;stroke-width:0.26;" d="M267.1,221.1c0-0.1,0.2-0.2,0.3-0.2c0.1,0,0.1,0.2,0.1,0.3
					c0,0.1-0.2,0.2-0.3,0.2C267.1,221.4,267.1,221.2,267.1,221.1z M272.3,222.5l-0.6-0.1l-0.2,0.8l0,0.1l0.1,0l0.8-0.4L272.3,222.5"
					/>
				<path style="fill:#C8B100;stroke:#000000;stroke-width:0.26;" d="M270.7,222.7l-0.1,0.5l0.9,0.2l0.1,0l0-0.1l-0.4-0.8
					L270.7,222.7"/>
				<path style="fill:#C8B100;stroke:#000000;stroke-width:0.26;" d="M272.4,224l-0.5,0.2l-0.4-0.7l0-0.1l0.1,0l0.9,0.2L272.4,224"
					/>
				<path style="fill:#C8B100;stroke:#000000;stroke-width:0.26;" d="M0,0"/>
				<path style="fill:#C8B100;stroke:#000000;stroke-width:0.26;" d="M274.1,225.8l-0.5,0.1l-0.3-0.8l0-0.1l0.1,0l0.8,0.3
					L274.1,225.8"/>
				<path style="fill:#C8B100;stroke:#000000;stroke-width:0.26;" d="M272.6,224.3l-0.2,0.5l0.8,0.3l0.2,0l0-0.1l-0.3-0.8
					L272.6,224.3"/>
				<path style="fill:#C8B100;stroke:#000000;stroke-width:0.26;" d="M0,0"/>
				<path style="fill:#C8B100;stroke:#000000;stroke-width:0.26;" d="M274.3,226.1l-0.3,0.4l0.7,0.5l0.1-0.1l0.1,0l-0.1-0.8
					L274.3,226.1"/>
				<path style="fill:#C8B100;stroke:#000000;stroke-width:0.26;" d="M274.9,227.1c0.1-0.1,0.2-0.2,0.1-0.3c-0.1-0.1-0.2-0.1-0.3,0
					c-0.1,0.1-0.2,0.2-0.1,0.3C274.6,227.1,274.8,227.1,274.9,227.1z"/>
			</g>
			<g>
				<ellipse style="fill:#AD1519;stroke:#000000;stroke-width:0.61;" cx="240.4" cy="269.8" rx="15.6" ry="17.6"/>
				<ellipse style="fill:#005BBF;stroke:#000000;stroke-width:0.61;" cx="240.4" cy="269.7" rx="11" ry="12.9"/>
				<g id="f">
					<path style="fill:#C8B100;stroke:#000000;stroke-width:0.34;stroke-linejoin:round;" d="M235.2,260.9c0,0-1.3,1.4-1.3,2.7
						c0,1.3,0.5,2.4,0.5,2.4c-0.2-0.5-0.7-0.9-1.4-0.9c-0.8,0-1.4,0.6-1.4,1.4c0,0.2,0.1,0.6,0.2,0.7l0.5,1c0.2-0.4,0.5-0.5,0.9-0.5
						c0.6,0,1,0.4,1,1c0,0.1,0,0.2,0,0.2l-1.2,0v1h1l-0.8,1.5l1-0.4l0.8,0.9l0.8-0.9l1,0.4l-0.8-1.5h1v-1l-1.2,0c0-0.1,0-0.2,0-0.2
						c0-0.5,0.5-1,1-1c0.4,0,0.8,0.2,0.9,0.5l0.5-1c0.1-0.2,0.2-0.5,0.2-0.7c0-0.8-0.6-1.4-1.4-1.4c-0.6,0-1.2,0.4-1.4,0.9
						c0,0,0.5-1.1,0.5-2.4C236.6,262.3,235.2,260.9,235.2,260.9L235.2,260.9z"/>
					<path style="fill:#C8B100;stroke:#000000;stroke-width:0.34;" d="M233.2,269.9h4.2v-1h-4.2V269.9z"/>
				</g>
				<g>
					<g id="f_1_">
						<path style="fill:#C8B100;stroke:#000000;stroke-width:0.34;stroke-linejoin:round;" d="M245.4,260.9c0,0-1.3,1.4-1.3,2.7
							c0,1.3,0.5,2.4,0.5,2.4c-0.2-0.5-0.7-0.9-1.4-0.9c-0.8,0-1.4,0.6-1.4,1.4c0,0.2,0.1,0.6,0.2,0.7l0.5,1
							c0.2-0.4,0.5-0.5,0.9-0.5c0.6,0,1,0.4,1,1c0,0.1,0,0.2,0,0.2l-1.2,0v1h1l-0.8,1.5l1-0.4l0.8,0.9l0.8-0.9l1,0.4l-0.8-1.5h1v-1
							l-1.2,0c0-0.1,0-0.2,0-0.2c0-0.5,0.5-1,1-1c0.4,0,0.8,0.2,0.9,0.5l0.5-1c0.1-0.2,0.2-0.5,0.2-0.7c0-0.8-0.6-1.4-1.4-1.4
							c-0.6,0-1.2,0.4-1.4,0.9c0,0,0.5-1.1,0.5-2.4C246.8,262.3,245.4,260.9,245.4,260.9L245.4,260.9z"/>
						<path style="fill:#C8B100;stroke:#000000;stroke-width:0.34;" d="M243.4,269.9h4.2v-1h-4.2V269.9z"/>
					</g>
				</g>
				<g>
					<g id="f_2_">
						<path style="fill:#C8B100;stroke:#000000;stroke-width:0.34;stroke-linejoin:round;" d="M240.3,269.6c0,0-1.3,1.4-1.3,2.7
							c0,1.3,0.5,2.4,0.5,2.4c-0.2-0.5-0.7-0.9-1.4-0.9c-0.8,0-1.4,0.6-1.4,1.4c0,0.2,0.1,0.6,0.2,0.7l0.5,1
							c0.2-0.4,0.5-0.5,0.9-0.5c0.6,0,1,0.4,1,1c0,0.1,0,0.2,0,0.2l-1.2,0v1h1l-0.8,1.5l1-0.4l0.8,0.9l0.8-0.9l1,0.4l-0.8-1.5h1v-1
							l-1.2,0c0-0.1,0-0.2,0-0.2c0-0.5,0.5-1,1-1c0.4,0,0.8,0.2,0.9,0.5l0.5-1c0.1-0.2,0.2-0.5,0.2-0.7c0-0.8-0.6-1.4-1.4-1.4
							c-0.6,0-1.2,0.4-1.4,0.9c0,0,0.5-1.1,0.5-2.4C241.7,271.1,240.3,269.6,240.3,269.6L240.3,269.6z"/>
						<path style="fill:#C8B100;stroke:#000000;stroke-width:0.34;" d="M238.3,278.6h4.2v-1h-4.2V278.6z"/>
					</g>
				</g>
			</g>
		</g>
	</g>
</g>
</svg>
