<?xml version="1.0" encoding="utf-8"?>
<!-- Generator: Adobe Illustrator 25.2.1, SVG Export Plug-In . SVG Version: 6.00 Build 0)  -->
<svg version="1.1" id="Layer_1" xmlns="http://www.w3.org/2000/svg" xmlns:xlink="http://www.w3.org/1999/xlink" x="0px" y="0px"
	 viewBox="0 0 720 480" style="enable-background:new 0 0 720 480;" xml:space="preserve">
<style type="text/css">
	.st0{clip-path:url(#SVGID_2_);}
	.st1{fill:#012169;}
	.st2{fill:#FFFFFF;}
	.st3{clip-path:url(#SVGID_4_);}
	.st4{fill:#C8102E;}
</style>
<g>
	<g>
		<defs>
			<rect id="SVGID_1_" x="0" width="720" height="480"/>
		</defs>
		<clipPath id="SVGID_2_">
			<use xlink:href="#SVGID_1_"  style="overflow:visible;"/>
		</clipPath>
		<g class="st0">
			<path class="st1" d="M0,0v480h720V0H0z"/>
			<g>
				<path d="M0,0l720,480 M720,0L0,480"/>
				<polygon class="st2" points="703.9,522.9 360,293.7 16.1,522.9 -16.1,437.1 279.5,240 -16.1,42.9 16.1,-42.9 360,186.3 
					703.9,-42.9 736.1,42.9 440.5,240 736.1,437.1 				"/>
			</g>
			<g>
				<defs>
					<polygon id="SVGID_3_" points="360,240 720,240 720,480 360,480 0,480 0,240 0,0 360,0 720,0 					"/>
				</defs>
				<clipPath id="SVGID_4_">
					<use xlink:href="#SVGID_3_"  style="overflow:visible;"/>
				</clipPath>
				<g class="st3">
					<path d="M0,0l720,480 M720,0L0,480"/>
					<polygon class="st4" points="709.3,508.6 360,275.8 10.7,508.6 -10.7,451.4 306.3,240 -10.7,28.6 10.7,-28.6 360,204.2 
						709.3,-28.6 730.7,28.6 413.7,240 730.7,451.4 					"/>
				</g>
			</g>
			<g>
				<path d="M360,0v480 M0,240h720"/>
				<polygon class="st2" points="420,480 300,480 300,320 0,320 0,160 300,160 300,0 420,0 420,160 720,160 720,320 420,320 				"/>
			</g>
			<g>
				<path d="M360,0v480 M0,240h720"/>
				<polygon class="st4" points="396,480 324,480 324,288 0,288 0,192 324,192 324,0 396,0 396,192 720,192 720,288 396,288 				"/>
			</g>
		</g>
	</g>
</g>
</svg>
