<?xml version="1.0" encoding="utf-8"?>
<!-- Generator: Adobe Illustrator 25.2.1, SVG Export Plug-In . SVG Version: 6.00 Build 0)  -->
<svg version="1.1" id="Layer_1" xmlns="http://www.w3.org/2000/svg" xmlns:xlink="http://www.w3.org/1999/xlink" x="0px" y="0px"
	 viewBox="0 0 720 480" style="enable-background:new 0 0 720 480;" xml:space="preserve">
<g>
	<rect y="0" style="fill:#FFFFFF;" width="720" height="480"/>
	<polygon style="fill:#E8112D;" points="420,480 300,480 300,300 0,300 0,180 300,180 300,0 420,0 420,180 720,180 720,300 420,300 
			"/>
	<polygon style="fill:#F9DD16;" points="504,220 380,220 380,80.4 400,60.4 320,60.4 340,80.4 340,220 324,220 200,220 180,200 
		180,280 200,260 324,260 340,260 340,260.4 340,418.9 320,438.9 400,438.9 380,418.9 380,260.4 380,260 504,260 524,280 524,200 	
		"/>
</g>
</svg>
