<?xml version="1.0" encoding="utf-8"?>
<!-- Generator: Adobe Illustrator 25.2.1, SVG Export Plug-In . SVG Version: 6.00 Build 0)  -->
<svg version="1.1" id="Layer_1" xmlns="http://www.w3.org/2000/svg" xmlns:xlink="http://www.w3.org/1999/xlink" x="0px" y="0px"
	 viewBox="0 0 720 480" style="enable-background:new 0 0 720 480;" xml:space="preserve">
<g>
	<path style="fill:#EE1C25;" d="M0,0h720v480H0V0z"/>
	<g>
		<path style="fill:#FFFFFF;" d="M386.1,104.1c-78.2-5.4-115.7,98-40.5,136.6c-7.8-6.2-13.7-15.4-16.6-26.3
			c-4.2-15.5-1.8-32.2,6.7-45.7l1.8,1.1c-8.2,13-10.6,29.1-6.5,44c3,11.1,9.4,20.6,17.6,26.5c-13.8-15-8.2-39.4,13.1-49
			c14.1-6.3,25.4-32.4,15-48.6C367.5,128.1,369.9,112.5,386.1,104.1z M348,164.7l-4.7,7.4l-1.7-8.6l-8.6-2.2l7.7-4.3l-0.6-8.8l6.5,6
			l8.2-3.2l-3.7,8l5.6,6.8L348,164.7z"/>
		<path style="fill:#FFFFFF;" d="M353.5,236.4c3.4-9.3,10.4-17.8,19.8-24c13.4-8.8,30-11.7,45.5-7.8l-0.5,2c-15-3.8-31-1-43.8,7.4
			c-9.6,6.3-16.7,15.4-19.8,25c10.1-17.8,35-20,50.7-2.6c10.4,11.4,38.7,14.2,50.9-0.7c10.9-13.4,26.5-15.9,39.4-3
			C476.8,156.7,366.9,153,353.5,236.4z M432.9,216.3l-4.7,7.4l-1.8-8.6l-8.6-2.2l7.7-4.3l-0.6-8.8l6.5,6l8.2-3.2l-3.7,8l5.6,6.8
			L432.9,216.3z"/>
		<g transform="rotate(144 450 300)">
			<path style="fill:#FFFFFF;" d="M503.3,401.3c9.8,0.4,20.1,4.4,29,11.5c12.6,10.1,20.3,25,21.4,40.9l-2.1,0.2
				c-1-15.4-8.6-29.8-20.6-39.4c-9-7.2-19.8-11.1-29.8-11c20,4.1,29.8,27.1,18.2,47.4c-7.7,13.4-1.5,41.2,16.4,48.2
				c16,6.2,23.3,20.2,15,36.6C617.3,493.8,586.9,388.2,503.3,401.3z M553.5,471.8l-4.7,7.4l-1.8-8.6l-8.6-2.2l7.7-4.3l-0.6-8.8
				l6.5,6l8.2-3.2l-3.7,8l5.6,6.8L553.5,471.8z"/>
		</g>
		<g transform="rotate(216 450 300)">
			<path style="fill:#FFFFFF;" d="M565.4,294.7c2.6,9.5,2,20.5-2,31.1c-5.7,15-17.4,27-32.3,33l-0.8-1.9
				c14.3-5.8,25.7-17.4,31.1-31.8c4.1-10.8,4.5-22.2,1.3-31.8c2.3,20.3-16.6,36.7-39.4,32c-15.1-3.1-39.7,11.3-40.7,30.5
				c-1,17.2-12.1,28.4-30.2,25.6C512.6,431.7,603.6,370.1,565.4,294.7z M520.3,365.4l-4.7,7.4l-1.7-8.6l-8.6-2.2l7.7-4.3l-0.6-8.8
				l6.5,6l8.2-3.2l-3.7,8l5.6,6.8L520.3,365.4z"/>
		</g>
		<g transform="rotate(216 450 300)">
			<path style="fill:#FFFFFF;" d="M552,291.8c-7.7,6.2-18,9.9-29.4,10.4c-16.1,0.7-31.7-5.4-43.1-16.7l1.5-1.5
				c10.9,10.9,26.1,16.8,41.5,16.1c11.5-0.5,22.2-4.6,29.7-11.3c-17.8,10.1-40.3-0.8-44.9-23.7c-3.1-15.1-26-32-44-25.4
				c-16.2,5.9-30.9,0.1-35.4-17.7C405.3,297.2,497.8,356.6,552,291.8z M469.3,278.2l-8.7-1.4l7.3-4.9l-1.3-8.8l7,5.4l7.9-4l-3,8.3
				l6.2,6.3l-8.8-0.2l-4,7.8L469.3,278.2z"/>
		</g>
		<g transform="rotate(288 450 300)">
			<path style="fill:#FFFFFF;" d="M437.8,203.3c-16.1-0.7-31.1-8.2-41.4-20.5l1.6-1.4c9.8,11.8,24.4,19,39.8,19.8
				c11.5,0.6,22.6-2.6,30.6-8.6c-18.6,8.5-40.1-4.4-42.6-27.7c-1.7-15.4-23-34.2-41.6-29.4c-16.6,4.4-30.8-2.7-33.7-20.8
				c-29.3,72.8,57.5,140.4,117.4,80.7C459.8,200.9,449.1,203.7,437.8,203.3z M388.5,183l-1.8-8.6l-8.6-2.2l7.7-4.3l-0.6-8.8l6.5,6
				l8.2-3.2l-3.7,8l5.6,6.8l-8.7-1L388.5,183z"/>
		</g>
	</g>
</g>
</svg>
