<?xml version="1.0" encoding="utf-8"?>
<!-- Generator: Adobe Illustrator 25.2.1, SVG Export Plug-In . SVG Version: 6.00 Build 0)  -->
<svg version="1.1" id="Layer_1" xmlns="http://www.w3.org/2000/svg" xmlns:xlink="http://www.w3.org/1999/xlink" x="0px" y="0px"
	 viewBox="0 0 720 480" style="enable-background:new 0 0 720 480;" xml:space="preserve">
<path style="fill:#016A16;stroke:#000000;stroke-width:0.3;" d="M-39.9,213.8"/>
<g>
	<path style="fill:#D21034;" d="M0,0h720v480H0V0z"/>
	<path style="fill:#00209F;" d="M0,0h720v240H0V0z"/>
	<path style="fill:#FFFFFF;" d="M291.7,177.9h136.6v124.1H291.7V177.9z"/>
	<path style="fill:#016A16;" d="M359.7,265.7L359.7,265.7c-2.9,0.4-34.5,4.2-43,11.4c-9,7.5-25,15.3-25,15.3v9.6h136.6v-9.6
		c0,0-16-7.8-25-15.3c-8.6-7.1-40.1-10.9-43-11.3v-0.1l-0.3,0L359.7,265.7L359.7,265.7z"/>
	<g>
		<path style="fill:#FFFFFF;stroke:#000000;stroke-width:0.3;" d="M336.9,287.6c-0.4-1.1-3.5-1-5.9-0.2c-2.4,0.8-3.8,0.6-9,0.7
			c-5.2,0.1-8.2,1.4-8.6,1.6c-0.5,0.2-8.3,4.3-11.3,5.4c-3,1.1-5.9,0-5.9,0s3.5,3.7,8.4,0.7c0,0-4.1,2.4-6.7,2.8
			c0,0,3.9,0.9,7.3-0.7c0.3-0.1,0.6-0.3,0.9-0.5c2.1-1.1,3.9-2,5.6-2.7c9.5-3.8,13.3-1.4,19.8-3.2"/>
		<path style="fill:#FFFFFF;stroke:#000000;stroke-width:0.312;" d="M336.9,287.5c-0.4,0.9-3,0.4-4.7,1c0.4,0.4,1.5,1,4.7,1.7
			C337.5,288,336.9,287.5,336.9,287.5z"/>
		<path style="fill:#FFFFFF;stroke:#000000;stroke-width:0.312;" d="M53.5,212"/>
		<path style="fill:none;stroke:#000000;stroke-width:0.265;" d="M314.9,292.9c0,0,4.3-1.4,7.6-1 M315.4,292.1c0,0,4-1.2,7.6-0.9
			 M315.9,291.2c0,0,3.8-1.1,7.5-0.8 M316.4,290.3c0,0,3.5-0.9,7.5-0.8 M316.8,289.4c0,0,3.2-0.7,7.5-0.7"/>
		<path style="fill:none;stroke:#000000;stroke-width:0.3;" d="M328.3,288.6c0,0,1.9-0.5,3.9-0.8c1.7-0.3,3.3-0.4,3.8,0.1
			 M327.9,289.4c0,0,2.3-0.3,4.1-0.8 M327.5,290.1c0,0,2.6,0,4.3-0.7 M327.2,290.9c0,0,2.9,0.2,4.5-0.7 M326.8,291.5
			c0,0,3.2,0.4,4.7-0.5"/>
	</g>
	<g>
		<path style="fill:#F1B517;stroke:#000000;stroke-width:1.228;" d="M343.3,226.2l4.7,10.7l1.1-0.6l8.4,17.1l0.1-2.9l-7.9-15.1
			l0.4-0.3l-0.5-0.7l-0.3,0.2l0,0c0,0-0.5-0.1-0.6,0.1L343.3,226.2z"/>
		<path style="fill:#F1B517;stroke:#000000;stroke-width:1.228;" d="M53.2,211.6"/>
		<path style="fill:none;stroke:#000000;" d="M349.4,234.5l-0.2,0.1l0.4,0.8l0.4-0.3L349.4,234.5z"/>
		<path style="fill:none;stroke:#000000;stroke-width:1.228;" d="M343.3,226.2l4.7,10.7l1.1-0.6l8.4,17.1l0.1-2.9l-7.9-15.1l0.4-0.3
			l-0.5-0.7l-0.3,0.2l0,0c0,0-0.5-0.1-0.6,0.1L343.3,226.2z"/>
		<g>
			<path style="fill:#F1B517;stroke:#000000;stroke-width:1.228;" d="M346.3,222.2l3.7,11.2l1.1-0.5l6.8,17.9l0.3-2.9l-6.5-15.9
				l0.4-0.3l-0.5-0.7l-0.3,0.1l0,0c0,0-0.5-0.1-0.6,0.1L346.3,222.2z"/>
			<path style="fill:#FFFFFF;stroke:#000000;stroke-width:0.567;" d="M346.3,222.2l3.7,11.2l1.1-0.5l-0.4-1.7L346.3,222.2z"/>
			<path style="fill:none;stroke:#000000;" d="M351.7,231l-0.3,0.1l0.3,0.9l0.4-0.3L351.7,231z"/>
			<path style="fill:none;stroke:#000000;stroke-width:1.228;" d="M346.3,222.2l3.7,11.2l1.1-0.5l6.8,17.9l0.3-2.9l-6.5-15.9
				l0.4-0.3l-0.5-0.7l-0.3,0.1l0,0c0,0-0.5-0.1-0.6,0.1L346.3,222.2z"/>
			<path style="fill:#FFFFFF;stroke:#000000;stroke-width:0.15;" d="M346.4,222.2l3.7,11.2l1.1-0.5l-0.4-1.7L346.4,222.2z"/>
			<path style="fill:none;stroke:#000000;stroke-width:0.265;" d="M351.7,231l-0.3,0.1l0.3,0.9l0.4-0.3L351.7,231z"/>
			<path style="fill:#FFFFFF;stroke:#000000;stroke-width:0.567;" d="M353.4,236c-0.3,0.1-0.6,0.3-0.8,0.5l0.9,2.4
				c0.3-0.2,0.6-0.3,0.9-0.5L353.4,236z"/>
			<path style="fill:none;stroke:#000000;stroke-width:0.325;" d="M346.4,222.2l3.7,11.2l1.1-0.5l6.8,17.9l0.3-2.9l-6.5-15.9
				l0.4-0.3l-0.5-0.7l-0.3,0.1l0,0c0,0-0.5-0.1-0.6,0.1L346.4,222.2z"/>
		</g>
		<g>
			<path style="fill:#F1B517;stroke:#000000;stroke-width:1.228;" d="M350.4,220.8l2.9,11.4l1.1-0.4l5.5,18.4l0.5-2.8l-5.4-16.4
				l0.4-0.2l-0.4-0.7l-0.3,0.1l0,0c0,0-0.5-0.2-0.6,0L350.4,220.8z"/>
			<path style="fill:#FFFFFF;stroke:#000000;stroke-width:0.567;" d="M350.4,220.8l2.9,11.4l1.1-0.4l-0.3-1.7L350.4,220.8z"/>
			<path style="fill:none;stroke:#000000;" d="M355.1,230.1l-0.3,0.1l0.3,0.9l0.4-0.2L355.1,230.1z"/>
			<path style="fill:none;stroke:#000000;stroke-width:1.228;" d="M350.4,220.8l2.9,11.4l1.1-0.4l5.5,18.4l0.5-2.8l-5.4-16.4
				l0.4-0.2l-0.4-0.7l-0.3,0.1l0,0c0,0-0.5-0.2-0.6,0L350.4,220.8z"/>
			<path style="fill:#FFFFFF;stroke:#000000;stroke-width:0.15;" d="M350.4,220.8l2.9,11.4l1.1-0.4l-0.3-1.7L350.4,220.8z"/>
			<path style="fill:none;stroke:#000000;stroke-width:0.265;" d="M355.1,230.1l-0.3,0.1l0.3,0.9l0.4-0.2L355.1,230.1z"/>
			<path style="fill:#FFFFFF;stroke:#000000;stroke-width:0.567;" d="M356.4,235.2c-0.3,0.1-0.6,0.3-0.9,0.5l0.7,2.4
				c0.3-0.2,0.6-0.3,1-0.4L356.4,235.2z"/>
			<path style="fill:none;stroke:#000000;stroke-width:0.325;" d="M350.4,220.8l2.9,11.4l1.1-0.4l5.5,18.4l0.5-2.8l-5.4-16.4
				l0.4-0.2l-0.4-0.7l-0.3,0.1l0,0c0,0-0.5-0.2-0.6,0L350.4,220.8z"/>
		</g>
	</g>
	<g transform="matrix(0.79645564,0,0,0.77530405,100.0721,273.79617) matrix(-1.0843767,0,0,1.0843767,1036.5897,-11.271433)">
		<path style="fill:#D20014;" d="M676.4-7.2l-1.1,12.6l-14.4-1.1L676.4-7.2z"/>
		<path style="fill:#0A328C;" d="M704.1-21.1c0,0-1,20.1-6.6,30.2l-22.5-3.7l0.6-12.2l28.4-21.5L704.1-21.1z"/>
		<path style="fill:#0A328C;stroke:#000000;stroke-width:0.265;" d="M683.1-52c-1.3,0.7-2.6,0.1-2.6,0.1s-0.6,0.9,1,0.9
			c0,0,0.6,0.1,0.2,0.9"/>
		<path style="fill:#D20014;stroke:#000000;stroke-width:0.3;" d="M685-53.5c0,0-2.4-2.2-3.9-2c-1.5,0.1-1.6,0.1-1.7,0.4
			c-0.1,0.3-0.4,1.7,0.3,2.7c0.7,1,1,0.8,1.1,0.5c0.1-0.2,1.1-0.8,2.9-0.4"/>
		<path style="fill:#0A328C;stroke:#000000;stroke-width:0.15;" d="M681.2-55.6c0,0-0.1,0-0.1,0c-1.5,0.1-1.6,0.1-1.7,0.4
			c-0.1,0.2-0.2,0.9-0.1,1.7c0.2-0.2,0.7-0.5,1.7-0.4c1.9,0.1,3,1,3,1l0.2,0.2l0.9-0.7C685-53.5,682.7-55.5,681.2-55.6L681.2-55.6z"
			/>
		<path style="fill:#D20014;" d="M656.9-3.5l17.2-17.4c3.8,1.9,3.5,5.3,0.9,9.5l0.1,4.3L661,3.8l-3.9-1.1L657-1.2L656.9-3.5z
			 M657.5-14.7L668-29.8l2.7,6.6l-0.8,6.2L657.3-3.9L657.5-14.7z"/>
		<path style="fill:#0A328C;" d="M668-29.5c0,0,2.1,5.4,1.8,12.4l12.8-13.3l6.1-6.2l-0.1,0.1l-0.8-4.3l-0.4-2.4l-1,0.3v-1.4
			l-0.2-1.2l-0.9-1.9l-0.7-2l-0.2-1.7l0.3-2l-0.5,0.2L668-29.5z"/>
		<path style="fill:#0A328C;stroke:#000000;stroke-width:0.265;" d="M706-28.5c0,0,1.2,1.4,1.4,4.5s0.1,5.3,0.1,5.3s-2,1.3-4,0.8
			c0,0,0.3-0.9,0.4-2.2c0-1.3,0-8,0-8L706-28.5z"/>
		<path style="fill:#D20014;stroke:#000000;stroke-width:0.15;" d="M704.8-28.1l-0.9,0.1c0,0.1,0.1,6.7,0,7.9c0,1.3-0.4,2.2-0.4,2.2
			c0.7,0.2,1.4,0.2,2,0c0-0.3,0.2-4.1,0.2-6.1C705.8-26,704.8-28.1,704.8-28.1z"/>
		<path style="fill:#F1B517;" d="M721,28.8c0.4-1.1,1.4-1.4,1.4-1.4s0.1-0.1-0.2-0.9c-0.3-0.8-0.2-1.4-0.2-1.4
			c0.1-4.3-0.3-5.5-0.3-5.5c0.3,0,1.5,1.6,1.5,1.6c0-4.1-5.5-6-5.5-6c2,5.6,1.2,6.3,1.2,6.3c1.3-0.6,1.4-1.5,1.4-1.5
			c0.2,1.5,0,4.5,0,4.5s0.1,1.4-1.1,0.7c-1.2-0.7-6-3.2-6-3.2l-0.5,1.1l6.6,3.4c0,0,1,0.5,0.7,1.3c-0.3,0.8-0.4,0.9-0.4,0.9
			L721,28.8z"/>
		<path style="fill:none;stroke:#000000;stroke-width:0.3;" d="M720.5,24.5c0,0,0.2-3,0-4.5c0,0-0.2,0.9-1.4,1.5
			c0,0,0.8-0.6-1.2-6.3c0,0,5.4,1.9,5.5,6c0,0-1.2-1.6-1.5-1.6c0,0,0.4,1.1,0.3,5.5"/>
		<path style="fill:none;stroke:#000000;stroke-width:0.15;" d="M721,28.8c0.4-1.1,1.4-1.4,1.4-1.4s0.1-0.1-0.2-0.9
			c-0.3-0.8-0.2-1.4-0.2-1.4c0.1-4.3-0.3-5.5-0.3-5.5c0.3,0,1.5,1.6,1.5,1.6c0-4.1-5.5-6-5.5-6c2,5.6,1.2,6.3,1.2,6.3
			c1.3-0.6,1.4-1.5,1.4-1.5c0.2,1.5,0,4.5,0,4.5s0.1,1.4-1.1,0.7c-1.2-0.7-6-3.2-6-3.2l-0.5,1.1l6.6,3.4c0,0,1,0.5,0.7,1.3
			c-0.3,0.8-0.4,0.9-0.4,0.9"/>
		<path style="fill:none;stroke:#000000;stroke-width:0.15;" d="M300.1-63.1"/>
		<path style="fill:#F1B517;stroke:#000000;stroke-width:0.15;" d="M711.5,24.4c0,0,0.2-2.8,1.8-3.8c0,0,0.4,0,0.4,0.4
			c0,0.3-1.5,3.3-1.5,3.3L711.5,24.4z"/>
		<path style="fill:#F1B517;stroke:#000000;stroke-width:0.125;" d="M711.7,24c0,0,0.1-2.3,1.5-3.2c0,0,0.3,0,0.4,0.3
			c0,0.3-1.2,2.8-1.2,2.8L711.7,24z"/>
		<ellipse style="fill:#F1B517;stroke:#000000;stroke-width:0.15;stroke-linecap:round;" cx="696.9" cy="17.2" rx="1.5" ry="1.6"/>
		<path style="fill:#D20014;" d="M719.1-2.7c0,0,2.9,0.2,2.9,1.8c0,1.6-0.5,3.1,0.5,3.4c1,0.3,3,0.3,3.5,0.9
			c0.5,0.6,0.5,1.3,0.5,1.3s-2.5-1-3.6-0.3c-1.1,0.7-2.3-0.4-2.4-0.8c-0.4-0.8-0.2-2.4-0.9-2.7c-0.8-0.3-3.2-0.3-3.2-0.3L719.1-2.7z
			"/>
		<path style="fill:#0A328C;" d="M698-24.6c0.5-8.7-0.9-18.9-0.9-18.9l-0.1-1.5l-23.5,24.9c0,0,1.6,2.7,1.4,13.2l1.8-1.4L698-24.6z"
			/>
		<path style="fill:none;stroke:#000000;stroke-width:0.265;" d="M698-24.6c0.5-8.7-0.9-18.9-0.9-18.9l-0.1-1.5"/>
		<g>
			<path style="fill:#F1B517;stroke:#000000;stroke-width:0.3;" d="M691.7-64l-3.1,8.1c0,0-0.9-1-1.7,0l-0.7,1.1 M691.7-64l-6.1,5.7
				c0,0,1.2,0.7,0.5,1.8l-0.7,1.1l0.8,0.6"/>
			<path style="fill:#F1B517;stroke:#000000;stroke-width:0.3;" d="M683.8-57.2l4.3,3.5L687-52l-4.3-3.5L683.8-57.2z"/>
			<path style="fill:#F1B517;stroke:#000000;stroke-width:0.15;" d="M683.9-56.7l3.7,3l-0.7,1.1l-3.7-3L683.9-56.7z"/>
		</g>
		<g>
			<path style="fill:#F1B517;stroke:#000000;stroke-width:0.3;" d="M705.7-53.9l-4.3,7.5c0,0-0.8-1.2-1.6-0.3l-0.9,0.9 M705.7-53.9
				l-6.8,4.6c0,0,1,0.9,0.2,1.8l-0.8,1l0.7,0.8"/>
			<path style="fill:#F1B517;stroke:#000000;stroke-width:0.3;" d="M696.9-48.6l3.8,4.2l-1.4,1.5l-3.8-4.2L696.9-48.6z"/>
			<path style="fill:#F1B517;stroke:#000000;stroke-width:0.15;" d="M696.9-48.1l3.3,3.7l-0.9,1l-3.3-3.7L696.9-48.1z"/>
		</g>
		<g>
			<path style="fill:#F1B517;stroke:#000000;stroke-width:0.3;" d="M714.7-36.9l-5.4,6.6c0,0-0.6-1.3-1.6-0.6l-1,0.7 M714.7-36.9
				l-7.4,3.2c0,0,0.9,1-0.1,1.8l-1,0.8l0.6,0.9"/>
			<path style="fill:#F1B517;stroke:#000000;stroke-width:0.3;" d="M705.3-33.3l3.1,4.9l-1.6,1.2l-3.1-4.9L705.3-33.3z"/>
			<path style="fill:#F1B517;stroke:#000000;stroke-width:0.15;" d="M705.2-32.8l2.6,4.2l-1,0.8l-2.6-4.2L705.2-32.8z"/>
		</g>
		<path style="fill:#F1B517;stroke:#000000;stroke-width:0.3;" d="M684.6-53.9l-27.3,38.5l0.4,0.4l27.3-38.5L684.6-53.9z
			 M696.4-44.5L657-3.8l0.4,0.4L696.8-44L696.4-44.5z M702.8-28.2l-42,31.9l0.3,0.5l42-31.9L702.8-28.2z"/>
		<path style="fill:#0A328C;stroke:#000000;stroke-width:0.265;" d="M698.3-43.9c0,0-4-0.8-4.9-0.2s1.7,0.7,2.2,0.5l-1,1.1
			c0,0-2.3-0.6-2.6-3c-0.4-2.4,1.1-2.4,1.5-2.3C693.7-47.8,695.7-47.5,698.3-43.9L698.3-43.9z"/>
		<path style="fill:#0A328C;stroke:#000000;stroke-width:0.265;" d="M300.1-63.1"/>
		<path style="fill:none;stroke:#000000;stroke-width:0.15;" d="M696.7-44.4c0,0-4.4-1.5-4.4-0.1"/>
		<path style="fill:none;stroke:#000000;stroke-width:0.3;" d="M698.3-43.9c0,0-4-0.8-4.9-0.2s1.7,0.7,2.2,0.5l-1,1.1
			c0,0-2.3-0.6-2.6-3c-0.4-2.4,1.1-2.4,1.5-2.3C693.7-47.8,695.7-47.5,698.3-43.9L698.3-43.9z"/>
		<path style="fill:#0A328C;stroke:#000000;stroke-width:0.15;" d="M697.7-44c-0.1,0.6-0.2,1.3-0.2,1.6c1.3,3.7,3,3.7,2.4,8.2l1.4,0
			c0.1-2.1-0.1-4-0.5-4.9c-0.2-0.4-0.5-0.9-1-1.5c-0.4-0.5-0.9-1-1.2-1.4c-0.6-0.8-0.2-1.7-0.2-1.7L697.7-44z"/>
		<path style="fill:#D20014;stroke:#000000;stroke-width:0.265;" d="M696.9-44.3c0,0-0.2,0.7-0.2,1.7c0,0.5,0.1,1.1,0.2,1.6
			c0.2,0.6,0.3,1.2,0.5,1.8c0.2,1.3,0.4,2.8,0.4,5.1l2.2-0.1c0.7-4.4-1.1-4.5-2.4-8.2c-0.1-0.3,0.1-1,0.2-1.6L696.9-44.3z"/>
		<path style="fill:#D20014;stroke:#000000;stroke-width:0.265;" d="M300.1-63.1"/>
		<path style="fill:none;stroke:#000000;stroke-width:0.15;" d="M698.9-34.2c0,0,0.5-2.4-0.6-4.6c-1.1-2.2-1.5-5.6-0.9-5.4"/>
		<path style="fill:#F1B517;stroke:#000000;stroke-width:0.157;" d="M695,1.3l-3,5.9l-12,1l-1.1,0.2c0,0-1.8,4.6-3.7,5.2
			c-1.9,0.6-15,5.1-15,5.1l-0.4-3.3l8.4-3c0,0,2.5-1,3.2-2.1c0.7-1.1,6.9-7.6,6.9-7.6L695,1.3z"/>
		<g>
			<path style="fill:#F1B517;stroke:#000000;stroke-width:0.3;" d="M689.6-13.8l-17.4,32.3l0.4,0.2L690-13.5L689.6-13.8z"/>
			<path style="fill:#FFFFFF;stroke:#000000;stroke-width:0.3;" d="M689.2-12.5c0,0,0.5,0.5,1.1-0.3c0.6-0.8,2.4-4.2,2.7-4.9
				c0.3-0.6,0.8-1.1,0.2-1.6c-0.6-0.4-1.4,0.1-2.1,1.7C690.6-16,688.4-13.3,689.2-12.5L689.2-12.5z"/>
		</g>
		<path style="fill:#F1B517;stroke:#000000;stroke-width:0.1574;" d="M704.7-8.1c0.7-0.1,1.8,1.3,2.1,3.8s0,4.5-0.6,4.6
			c-0.2,0-0.5-0.2-0.8-0.7l-34.8,5.2l-0.7-7.3L704.3-7C704.4-7.9,704.4-8,704.7-8.1z"/>
		<path style="fill:#F4CF0E;stroke:#000000;stroke-width:0.15;stroke-linecap:round;" d="M671.2-2.6c0,0,0.2,0.4,0.3,0.6 M671.9-2.7
			c0,0,0.2,0.4,0.3,0.6 M672.7-2.8c0,0,0.2,0.4,0.3,0.6 M673.4-2.9c0,0,0.2,0.4,0.3,0.6 M674.2-3c0,0,0.2,0.4,0.3,0.6 M674.9-3.1
			c0,0,0.2,0.4,0.3,0.6 M675.7-3.2c0,0,0.2,0.4,0.3,0.6 M676.4-3.3c0,0,0.2,0.4,0.3,0.6 M677.2-3.4c0,0,0.2,0.4,0.3,0.6 M677.9-3.5
			c0,0,0.2,0.4,0.3,0.6 M678.7-3.6c0,0,0.2,0.4,0.3,0.6 M679.5-3.7c0,0,0.2,0.4,0.3,0.6 M680.2-3.8c0,0,0.2,0.4,0.3,0.6 M681-3.9
			c0,0,0.2,0.4,0.3,0.6 M681.7-4c0,0,0.2,0.4,0.3,0.6 M682.5-4.1c0,0,0.2,0.4,0.3,0.6 M683.2-4.2c0,0,0.2,0.4,0.3,0.6 M684-4.2
			c0,0,0.2,0.4,0.3,0.6 M684.7-4.3c0,0,0.2,0.4,0.3,0.6 M685.5-4.4c0,0,0.2,0.4,0.3,0.6 M686.2-4.5c0,0,0.2,0.4,0.3,0.6 M687-4.6
			c0,0,0.2,0.4,0.3,0.6 M687.7-4.7c0,0,0.2,0.4,0.3,0.6 M688.5-4.8c0,0,0.2,0.4,0.3,0.6 M689.2-4.9c0,0,0.2,0.4,0.3,0.6 M690-5
			c0,0,0.2,0.4,0.3,0.6 M690.7-5.1c0,0,0.2,0.4,0.3,0.6 M691.5-5.2c0,0,0.2,0.4,0.3,0.6 M692.3-5.3c0,0,0.2,0.4,0.3,0.6 M693-5.4
			c0,0,0.2,0.4,0.3,0.6 M693.8-5.5c0,0,0.2,0.4,0.3,0.6 M694.5-5.6c0,0,0.2,0.4,0.3,0.6 M695.3-5.7c0,0,0.2,0.4,0.3,0.6 M696-5.8
			c0,0,0.2,0.4,0.3,0.6 M696.8-5.9c0,0,0.2,0.4,0.3,0.6 M697.5-6c0,0,0.2,0.4,0.3,0.6 M698.3-6.1c0,0,0.2,0.4,0.3,0.6 M699-6.2
			c0,0,0.2,0.4,0.3,0.6 M699.8-6.3c0,0,0.2,0.4,0.3,0.6 M700.5-6.4c0,0,0.2,0.4,0.3,0.6 M701.3-6.5c0,0,0.2,0.4,0.3,0.6 M702-6.6
			c0,0,0.2,0.4,0.3,0.6 M702.8-6.7c0,0,0.2,0.4,0.3,0.6 M703.6-6.8c0,0,0.2,0.4,0.3,0.6 M704.3-6.9c0,0,0.2,0.4,0.3,0.6"/>
		<path style="fill:none;stroke:#000000;stroke-width:0.278;" d="M705.5-4.6l-35.3,5.3 M705.6-3.7l-35.3,5.3 M705.7-2.8l-35.3,5.3
			 M705.8-2.4l-35.3,5.3 M705.8-1.9l-35.3,5.3 M705.9-1.5l-35.3,5.3 M705.9-1.1l-35.3,5.3 M706-0.6l-35.3,5.3 M300.1-63.1"/>
		<path style="fill:#F1B517;stroke:#000000;stroke-width:0.1573;" d="M669.6,0l-2-0.1c0,0-1.2,0.5-1.3,1c-0.1,0.6-0.1,1.4,0,1.6
			c0.1,0.2,2.4,0.7,3.2-0.1L669.6,0z"/>
		<path d="M666.4,0.9c0.8,0.2,2.2,0.1,3.2,0l0,1.5c-0.8,0.8-3.1,0.3-3.2,0.1C666.2,2.3,666.3,1.4,666.4,0.9L666.4,0.9L666.4,0.9z"/>
		<path d="M300.1-63.1"/>
		<g transform="matrix(-1,0,0,1,984.9863,0.74097931)">
			<path d="M-24.3-63.2"/>
			<ellipse style="fill:#F1B517;stroke:#000000;stroke-width:0.15;stroke-linecap:round;" cx="296.4" cy="6" rx="1.4" ry="1.5"/>
			<path style="fill:#F1B517;stroke:#000000;stroke-width:0.15;stroke-linecap:round;" d="M-24.3-63.2"/>
			<ellipse cx="296.4" cy="-4.7" rx="0.3" ry="0.3"/>
			<ellipse cx="296.4" cy="16.4" rx="0.3" ry="0.3"/>
			<g transform="rotate(45,445.45132,86.297958)">
				<ellipse cx="282.6" cy="124.8" rx="0.3" ry="0.3"/>
				<ellipse cx="283.7" cy="144.8" rx="0.3" ry="0.3"/>
			</g>
			<g transform="matrix(-0.70710678,0.70710678,0.70710678,0.70710678,699.4111,-289.70556)">
				<ellipse cx="493.4" cy="-86" rx="0.3" ry="0.3"/>
				<ellipse cx="494.5" cy="-66" rx="0.3" ry="0.3"/>
			</g>
			<g transform="matrix(0,1,1,0,359.15336,-359.15336)">
				<ellipse cx="365" cy="-72.2" rx="0.3" ry="0.3"/>
				<ellipse cx="365" cy="-53.3" rx="0.3" ry="0.3"/>
			</g>
			<g transform="matrix(0.37566452,0.92675572,0.92675572,-0.37566452,198.13393,-294.10752)">
				<ellipse cx="315.3" cy="-31.2" rx="0.3" ry="0.3"/>
				<ellipse cx="314.5" cy="-12" rx="0.3" ry="0.3"/>
			</g>
			<g transform="rotate(113.39109,445.45132,86.297957)">
				<ellipse cx="431.2" cy="245.4" rx="0.3" ry="0.3"/>
				<ellipse cx="430.4" cy="264.7" rx="0.3" ry="0.3"/>
			</g>
			<g transform="rotate(23.077806,445.45132,86.297956)">
				<ellipse cx="276.4" cy="60.3" rx="0.3" ry="0.3"/>
				<ellipse cx="277.2" cy="81.1" rx="0.3" ry="0.3"/>
			</g>
			<g transform="matrix(-0.9199734,0.39198079,0.39198079,0.9199734,821.42755,-167.70223)">
				<ellipse cx="550.6" cy="-56.5" rx="0.3" ry="0.3"/>
				<ellipse cx="551.4" cy="-35.8" rx="0.3" ry="0.3"/>
			</g>
		</g>
		<ellipse style="fill:#F1B517;stroke:#000000;stroke-width:0.15;stroke-linecap:round;" cx="701.1" cy="17.2" rx="1.5" ry="1.6"/>
		<path style="fill:#FFFFFF;stroke:#000000;stroke-width:0.15;" d="M658.8-8.2c0,0,4.2,2,4.6-1.5c0,0,2.6,3.6-0.9,5.8
			c0,0,1.6-2.8-3.6-3.2c0,0-0.7,0.1-0.7-0.6C658.2-8.2,658.8-8.2,658.8-8.2z"/>
		<path d="M658.2-7.4c0.6,0.1,2,0.2,4.1,0.7c0.9,0.2,1.6,0.1,2.1-0.2c0,1-0.4,2.2-1.8,3.1c0,0,1.6-2.8-3.6-3.2
			C658.8-7,658.2-6.9,658.2-7.4z"/>
		<path style="fill:#FFFFFF;stroke:#000000;stroke-width:0.15;" d="M660.7-8.2l0.4,0.1l-1.5,10.9l-0.4-0.1L660.7-8.2z"/>
		<path style="fill:#FFFFFF;stroke:#000000;stroke-width:0.15;" d="M660.5-8.2l0.6,0.1l-0.3,2.2L660.3-6L660.5-8.2z"/>
		<g transform="matrix(-1,0,0,1,984.5452,0)">
			
				<ellipse transform="matrix(-0.9999 1.345382e-02 -1.345382e-02 -0.9999 631.7051 37.2425)" style="fill:#FFFFFF;stroke:#000000;stroke-width:0.15;" cx="315.7" cy="20.7" rx="2.6" ry="1.3"/>
			<g>
				<path style="fill:#FFFFFF;stroke:#000000;stroke-width:0.15;" d="M-24.4-63.1"/>
				<path style="fill:none;stroke:#000000;stroke-width:0.15;" d="M317.3,20.3c0,0-0.7-2-0.9-7.1c-0.2-5.2-0.2-5.6,0-5.8
					c0.2-0.2,0.9-0.7,1.2-0.4c0.4,0.2,0.3,0.3,0.3,1.2c0.1,0.9,0.1,6.6,0.1,6.6s-0.2,0.9-0.7,0.9c-0.5,0-0.8-0.2-0.9-0.6"/>
			</g>
			<path style="fill:none;stroke:#000000;stroke-width:0.15;" d="M314.2,20.4c0,0,0.7-0.9,0.9-2.5c0.2-1.7,0.6-10.1,0.6-10.7V5.4"/>
		</g>
		<g>
			<path style="fill:#FFFFFF;stroke:#000000;stroke-width:0.265;" d="M678,14.2c0,0-2.3,0.1-3.1,1.7c-0.8,1.6-0.3,3.1,0.5,3.7
				c0.9,0.6,2.8,1.1,3.7,0.5c0.9-0.6,1.5-2.6,0.5-2.8c-1-0.2-2.7-0.6-2.5-1.4c0.2-0.8,1.1-0.8,1.1-0.8L678,14.2z"/>
			<path style="fill:#FFFFFF;stroke:#000000;stroke-width:0.15;" d="M677.7,13.9l0.4-0.1l0.3,1.7l-0.4,0.1L677.7,13.9z"/>
		</g>
		<path style="fill:#FFFFFF;stroke:#000000;stroke-width:0.3;" d="M710.6,5.9l-9.8,5.7l0.1,0.1l0.7,0.1l9.3-5.4L710.6,5.9z"/>
		<path style="fill:#FFFFFF;stroke:#000000;stroke-width:0.3;" d="M710.9,6.2l-5.5,10.9l0.9-0.5l5.1-10L710.9,6.2z"/>
		<path style="fill:#FFFFFF;stroke:#000000;stroke-width:0.3;" d="M300.1-63.1"/>
		<path style="fill:#FFFFFF;stroke:#000000;stroke-width:0.3;" d="M300.1-63.1"/>
		<ellipse style="fill:#F1B517;stroke:#000000;stroke-width:0.15;stroke-linecap:round;" cx="677.3" cy="24.9" rx="1.5" ry="1.6"/>
		<ellipse style="fill:#F1B517;stroke:#000000;stroke-width:0.15;stroke-linecap:round;" cx="681.5" cy="21" rx="1.5" ry="1.6"/>
		<ellipse style="fill:#F1B517;stroke:#000000;stroke-width:0.15;stroke-linecap:round;" cx="687.8" cy="21.5" rx="1.5" ry="1.6"/>
		<ellipse style="fill:#F1B517;stroke:#000000;stroke-width:0.15;stroke-linecap:round;" cx="692.6" cy="24.4" rx="1.5" ry="1.6"/>
		<ellipse style="fill:#F1B517;stroke:#000000;stroke-width:0.15;stroke-linecap:round;" cx="696.8" cy="24.4" rx="1.5" ry="1.6"/>
		<ellipse style="fill:#F1B517;stroke:#000000;stroke-width:0.15;stroke-linecap:round;" cx="701" cy="24.4" rx="1.5" ry="1.6"/>
		<ellipse style="fill:#F1B517;stroke:#000000;stroke-width:0.15;stroke-linecap:round;" cx="705.1" cy="24.4" rx="1.5" ry="1.6"/>
		<ellipse style="fill:#F1B517;stroke:#000000;stroke-width:0.15;stroke-linecap:round;" cx="694.7" cy="20.8" rx="1.5" ry="1.6"/>
		<ellipse style="fill:#F1B517;stroke:#000000;stroke-width:0.15;stroke-linecap:round;" cx="698.9" cy="20.8" rx="1.5" ry="1.6"/>
		<ellipse style="fill:#F1B517;stroke:#000000;stroke-width:0.15;stroke-linecap:round;" cx="703.1" cy="20.8" rx="1.5" ry="1.6"/>
		<path style="fill:#D20014;stroke:#000000;stroke-width:0.3;" d="M685.8-52.6c0,0-0.1,1.5,1,2.4c1.1,0.9,2.5,1.9,3,4.4
			c0.5,2.6,0.1,2.3,0.1,2.3l-3.6,0.7c0,0,0.4-1.8-0.5-3.2c-0.9-1.4-2.2-5.6-0.9-7.2L685.8-52.6z"/>
		<path style="fill:#0A328C;stroke:#000000;stroke-width:0.15;" d="M685.7-52.7c-0.2,0.6-0.6,2,0.2,2.9c1.1,1.3,2.1,1.9,2.5,3.6
			c0.2,1,0.4,2.1,0.5,2.8l1.1-0.2c0,0,0.4,0.3-0.1-2.3s-1.9-3.5-3-4.4c-1.1-0.9-1-2.4-1-2.4L685.7-52.7z"/>
		<path style="fill:none;stroke:#000000;stroke-width:0.15;" d="M685.3-53.3c0,0-0.7,1.7,0.1,3.5c0.7,1.7,1.5,2.6,1.9,3.7
			c0.4,1.1,0,2.2,0.5,3"/>
		<path style="fill:none;stroke:#000000;stroke-width:0.15;" d="M300.1-63.1"/>
		<path style="fill:#FFFFFF;stroke:#000000;stroke-width:0.15;" d="M717.6,25.6c0,0,0,0.4,0.3,0.8c0.3,0.4,0.9,0.8,2.1,0.8l0-0.3
			c-1.1,0-1.7-0.4-1.9-0.7c-0.3-0.3-0.2-0.6-0.2-0.6L717.6,25.6z"/>
		<path style="fill:#F1B517;" d="M721,28.8c0.4-1.1,1.4-1.4,1.4-1.4s0.1-0.1-0.2-0.9c-0.3-0.8-0.2-1.4-0.2-1.4
			c0.1-4.3-0.3-5.5-0.3-5.5c0.3,0,1.5,1.6,1.5,1.6c0-4.1-5.5-6-5.5-6c2,5.6,1.2,6.3,1.2,6.3c1.3-0.6,1.4-1.5,1.4-1.5
			c0.2,1.5,0,4.5,0,4.5s0.1,1.4-1.1,0.7c-0.6-0.4-3.7-2-3.7-2l-0.3,1.2l4.1,2.1c0,0,1,0.5,0.7,1.3c-0.3,0.8-0.4,0.9-0.4,0.9
			L721,28.8z"/>
		<path style="fill:#F1B517;" d="M300.1-63.1"/>
		<path style="fill:#0A328C;stroke:#000000;stroke-width:0.3;" d="M703.8-31.9c0,0-2.2-1.2-2.7-0.2c-0.5,1-0.7,2.9,0,4.1
			c0,0,3.1,0.4,4.7-0.2l0.2-0.1L703.8-31.9z"/>
		<path style="fill:#0A328C;stroke:#000000;stroke-width:0.3;" d="M300.1-63.1"/>
		<path style="fill:none;stroke:#000000;stroke-width:0.15;" d="M700.8-28.9c0,0,1-0.8,2.7,0c1.7,0.8,1.7,0.7,1.7,0.7"/>
		<path style="fill:none;stroke:#000000;stroke-width:0.3;" d="M703.8-31.9c0,0-2.2-1.2-2.7-0.2c-0.5,1-0.7,2.9,0,4.1
			c0,0,3.1,0.4,4.7-0.2l0.2-0.1L703.8-31.9z"/>
		<path style="fill:none;stroke:#000000;stroke-width:0.15;" d="M704.5-28c0,0,0.3,1.6,0.4,4.9c0.1,3.3-0.5,5.5-0.8,5.5"/>
		<path style="fill:none;stroke:#000000;stroke-width:0.265;" d="M706-28.5c0,0,1.2,1.4,1.4,4.5s0.1,5.3,0.1,5.3s-2,1.3-4,0.8
			c0,0,0.3-0.9,0.4-2.2c0-1.3,0-8,0-8"/>
		<path style="fill:none;stroke:#000000;stroke-width:0.3;" d="M687.4-43.1c0,0,1,4.6,1.1,6.7"/>
		<path style="fill:none;stroke:#000000;stroke-width:0.15;" d="M679.7-52.5c0,0,1-1.5,4-0.2"/>
	</g>
	<path style="fill:#016A16;stroke:#000000;stroke-width:0.287;" d="M358.3,215.8l0.5-16.8l2.2-1.3l0.6,18.1L358.3,215.8z"/>
	<path style="fill:#0A328C;stroke:#000000;stroke-width:0.325;" d="M359.2,183.7c0,0-0.2,0-0.6-0.4c-0.4-0.4-0.6-0.4-0.3-0.9
		c0.3-0.5,0.6-1.2,1.8-1.2c1.2,0.1,2.1,0.2,2.6,1.5c0.4,1.4,0.6,5.1,0.2,6.6c-1.8-0.1-4.6-1.7-5-2.8
		C357.5,185.5,359.2,183.7,359.2,183.7z"/>
	<g>
		<path style="fill:#F1B517;stroke:#000000;stroke-width:1.228;" d="M376.1,226.2l-4.7,10.7l-1.1-0.6l-8.4,17.1l-0.1-2.9l7.9-15.1
			l-0.4-0.3l0.5-0.7l0.3,0.2l0,0c0,0,0.5-0.1,0.6,0.1L376.1,226.2z"/>
		<path style="fill:#F1B517;stroke:#000000;stroke-width:1.228;" d="M666.3,211.6"/>
		<path style="fill:none;stroke:#000000;" d="M370,234.5l0.2,0.1l-0.4,0.8l-0.4-0.3L370,234.5z"/>
		<path style="fill:none;stroke:#000000;stroke-width:1.228;" d="M376.1,226.2l-4.7,10.7l-1.1-0.6l-8.4,17.1l-0.1-2.9l7.9-15.1
			l-0.4-0.3l0.5-0.7l0.3,0.2l0,0c0,0,0.5-0.1,0.6,0.1L376.1,226.2z"/>
		<g>
			<path style="fill:#F1B517;stroke:#000000;stroke-width:1.228;" d="M373.1,222.2l-3.7,11.2l-1.1-0.5l-6.8,17.9l-0.3-2.9l6.5-15.9
				l-0.4-0.3l0.5-0.7l0.3,0.1l0,0c0,0,0.5-0.1,0.6,0.1L373.1,222.2z"/>
			<path style="fill:#FFFFFF;stroke:#000000;stroke-width:0.567;" d="M373.1,222.2l-3.7,11.2l-1.1-0.5l0.4-1.7L373.1,222.2z"/>
			<path style="fill:none;stroke:#000000;" d="M367.8,231l0.3,0.1l-0.3,0.9l-0.4-0.3L367.8,231z"/>
			<path style="fill:none;stroke:#000000;stroke-width:1.228;" d="M373.1,222.2l-3.7,11.2l-1.1-0.5l-6.8,17.9l-0.3-2.9l6.5-15.9
				l-0.4-0.3l0.5-0.7l0.3,0.1l0,0c0,0,0.5-0.1,0.6,0.1L373.1,222.2z"/>
			<path style="fill:#FFFFFF;stroke:#000000;stroke-width:0.15;" d="M373.1,222.2l-3.7,11.2l-1.1-0.5l0.4-1.7L373.1,222.2z"/>
			<path style="fill:none;stroke:#000000;stroke-width:0.265;" d="M367.8,231l0.3,0.1l-0.3,0.9l-0.4-0.3L367.8,231z"/>
			<path style="fill:#FFFFFF;stroke:#000000;stroke-width:0.567;" d="M366.1,236c0.3,0.1,0.6,0.3,0.8,0.5l-0.9,2.4
				c-0.3-0.2-0.6-0.3-0.9-0.5L366.1,236z"/>
			<path style="fill:none;stroke:#000000;stroke-width:0.325;" d="M373.1,222.2l-3.7,11.2l-1.1-0.5l-6.8,17.9l-0.3-2.9l6.5-15.9
				l-0.4-0.3l0.5-0.7l0.3,0.1l0,0c0,0,0.5-0.1,0.6,0.1L373.1,222.2z"/>
		</g>
		<g>
			<path style="fill:#F1B517;stroke:#000000;stroke-width:1.228;" d="M369.1,220.8l-2.9,11.4l-1.1-0.4l-5.5,18.4l-0.5-2.8l5.4-16.4
				l-0.4-0.2l0.4-0.7l0.3,0.1l0,0c0,0,0.5-0.2,0.6,0L369.1,220.8z"/>
			<path style="fill:#FFFFFF;stroke:#000000;stroke-width:0.567;" d="M369.1,220.8l-2.9,11.4l-1.1-0.4l0.3-1.7L369.1,220.8z"/>
			<path style="fill:none;stroke:#000000;" d="M364.4,230.1l0.3,0.1l-0.3,0.9l-0.4-0.2L364.4,230.1z"/>
			<path style="fill:none;stroke:#000000;stroke-width:1.228;" d="M369.1,220.8l-2.9,11.4l-1.1-0.4l-5.5,18.4l-0.5-2.8l5.4-16.4
				l-0.4-0.2l0.4-0.7l0.3,0.1l0,0c0,0,0.5-0.2,0.6,0L369.1,220.8z"/>
			<path style="fill:#FFFFFF;stroke:#000000;stroke-width:0.15;" d="M369.1,220.8l-2.9,11.4l-1.1-0.4l0.3-1.7L369.1,220.8z"/>
			<path style="fill:none;stroke:#000000;stroke-width:0.265;" d="M364.4,230.1l0.3,0.1l-0.3,0.9l-0.4-0.2L364.4,230.1z"/>
			<path style="fill:#FFFFFF;stroke:#000000;stroke-width:0.567;" d="M363,235.2c0.3,0.1,0.6,0.3,0.9,0.5l-0.7,2.4
				c-0.3-0.2-0.6-0.3-1-0.4L363,235.2z"/>
			<path style="fill:none;stroke:#000000;stroke-width:0.325;" d="M369.1,220.8l-2.9,11.4l-1.1-0.4l-5.5,18.4l-0.5-2.8l5.4-16.4
				l-0.4-0.2l0.4-0.7l0.3,0.1l0,0c0,0,0.5-0.2,0.6,0L369.1,220.8z"/>
		</g>
	</g>
	<path style="fill:none;stroke:#000000;stroke-width:0.287;stroke-linecap:round;" d="M361.7,184.3c0,0-1.5,0.3-1.4,1.1"/>
	<path style="fill:none;stroke:#000000;stroke-width:0.287;" d="M361,182.5c0,0-1.7,0.5-2.3,2.1 M360.2,182.8c0,0-1,0.9-1.4,0.6"/>
	<path style="fill:#D20014;stroke:#000000;stroke-width:0.287;" d="M358.5,185C358.4,185,358.4,185,358.5,185l-0.3,0.1
		c-0.3,0.5-0.5,1.1-0.3,1.6c0,0.1,0.1,0.2,0.1,0.2l0.2-0.1c0,0,3.3-0.3,4.7,2.4l0.1,0.2c0.1-0.6,0.2-1.6,0.2-2.6
		C360.9,185,359,185,358.5,185L358.5,185z"/>
	<path style="fill:none;stroke:#000000;stroke-width:0.287;stroke-linecap:round;" d="M362.3,185.1c0,0-0.8,0.4-0.8,0.8"/>
	<path style="fill:#F1B517;stroke:#000000;stroke-width:0.3;" d="M361.7,215.7c0,0,1.1,37,0.2,50.9 M361.7,215.7
		c-1.3-0.2-3.4,0-3.4,0s-1.1,37-0.2,50.9c0,0,2.3-0.3,3.7,0 M0,0 M49,211.5 M46.1,211.6"/>
	<g transform="matrix(0.79645564,0,0,0.77530405,100.0721,273.79617) matrix(1.0843767,0,0,1.0843767,-32.322351,-11.271433)">
		<path style="fill:#D20014;" d="M351.3-6.8l-0.3,12.2l-14.4-1.1L351.3-6.8z"/>
		<path style="fill:#0A328C;" d="M379.9-21.1c0,0-1,20.1-6.6,30.2l-22.5-3.7l0.6-12.2l28.4-21.5L379.9-21.1z"/>
		<path style="fill:#0A328C;stroke:#000000;stroke-width:0.265;" d="M358.9-52c-1.3,0.7-2.6,0.1-2.6,0.1s-0.6,0.9,1,0.9
			c0,0,0.6,0.1,0.2,0.9"/>
		<path style="fill:#D20014;stroke:#000000;stroke-width:0.3;" d="M360.8-53.5c0,0-2.4-2.2-3.9-2c-1.5,0.1-1.6,0.1-1.7,0.4
			c-0.1,0.3-0.4,1.7,0.3,2.7c0.7,1,1,0.8,1.1,0.5c0.1-0.2,1.1-0.8,2.9-0.4"/>
		<path style="fill:#0A328C;stroke:#000000;stroke-width:0.15;" d="M357-55.6c0,0-0.1,0-0.1,0c-1.5,0.1-1.6,0.1-1.7,0.4
			c-0.1,0.2-0.2,0.9-0.1,1.7c0.2-0.2,0.7-0.5,1.7-0.4c1.9,0.1,3,1,3,1l0.2,0.2l0.9-0.7C360.8-53.5,358.5-55.5,357-55.6L357-55.6z"/>
		<path style="fill:#D20014;" d="M332.7-3.5l17.2-17.4l2.5,6.5l-1.6,7.3L336.8,3.8L333,2.8l-0.2-3.9L332.7-3.5z M333.3-14.7
			l10.5-15.1l2.7,6.6l-0.8,6.2L333.1-3.9L333.3-14.7z"/>
		<path style="fill:#0A328C;" d="M343.8-29.5c0,0,2.1,5.4,1.8,12.4l12.8-13.3l6.1-6.2l-0.1,0.1l-0.8-4.3l-0.4-2.4l-1,0.3v-1.4
			l-0.2-1.2l-0.9-1.9l-0.7-2l-0.2-1.7l0.3-2l-0.5,0.2L343.8-29.5z"/>
		<path style="fill:#0A328C;stroke:#000000;stroke-width:0.265;" d="M381.8-28.5c0,0,1.2,1.4,1.4,4.5c0.2,3.1,0.1,5.3,0.1,5.3
			s-2,1.3-4,0.8c0,0,0.3-0.9,0.4-2.2c0-1.3,0-8,0-8L381.8-28.5z"/>
		<path style="fill:#D20014;stroke:#000000;stroke-width:0.15;" d="M380.6-28.1l-0.9,0.1c0,0.1,0.1,6.7,0,7.9c0,1.3-0.4,2.2-0.4,2.2
			c0.7,0.2,1.4,0.2,2,0c0-0.3,0.2-4.1,0.2-6.1C381.6-26,380.6-28.1,380.6-28.1z"/>
		<path style="fill:#F1B517;" d="M396.8,28.8c0.4-1.1,1.4-1.4,1.4-1.4s0.1-0.1-0.2-0.9c-0.3-0.8-0.2-1.4-0.2-1.4
			c0.1-4.3-0.3-5.5-0.3-5.5c0.3,0,1.5,1.6,1.5,1.6c0-4.1-5.5-6-5.5-6c2,5.6,1.2,6.3,1.2,6.3c1.3-0.6,1.4-1.5,1.4-1.5
			c0.2,1.5,0,4.5,0,4.5s0.1,1.4-1.1,0.7c-1.2-0.7-6-3.2-6-3.2l-0.5,1.1l6.6,3.4c0,0,1,0.5,0.7,1.3c-0.3,0.8-0.4,0.9-0.4,0.9
			L396.8,28.8z"/>
		<path style="fill:none;stroke:#000000;stroke-width:0.3;" d="M396.3,24.5c0,0,0.2-3,0-4.5c0,0-0.2,0.9-1.4,1.5
			c0,0,0.8-0.6-1.2-6.3c0,0,5.4,1.9,5.5,6c0,0-1.2-1.6-1.5-1.6c0,0,0.4,1.1,0.3,5.5"/>
		<path style="fill:none;stroke:#000000;stroke-width:0.15;" d="M396.8,28.8c0.4-1.1,1.4-1.4,1.4-1.4s0.1-0.1-0.2-0.9
			c-0.3-0.8-0.2-1.4-0.2-1.4c0.1-4.3-0.3-5.5-0.3-5.5c0.3,0,1.5,1.6,1.5,1.6c0-4.1-5.5-6-5.5-6c2,5.6,1.2,6.3,1.2,6.3
			c1.3-0.6,1.4-1.5,1.4-1.5c0.2,1.5,0,4.5,0,4.5s0.1,1.4-1.1,0.7c-1.2-0.7-6-3.2-6-3.2l-0.5,1.1l6.6,3.4c0,0,1,0.5,0.7,1.3
			c-0.3,0.8-0.4,0.9-0.4,0.9"/>
		<path style="fill:none;stroke:#000000;stroke-width:0.15;" d="M-24.1-63.1"/>
		<path style="fill:#F1B517;stroke:#000000;stroke-width:0.15;" d="M387.3,24.4c0,0,0.2-2.8,1.8-3.8c0,0,0.4,0,0.4,0.4
			c0,0.3-1.5,3.3-1.5,3.3L387.3,24.4z"/>
		<path style="fill:#F1B517;stroke:#000000;stroke-width:0.125;" d="M387.5,24c0,0,0.1-2.3,1.5-3.2c0,0,0.3,0,0.4,0.3
			c0,0.3-1.2,2.8-1.2,2.8L387.5,24z"/>
		<ellipse style="fill:#F1B517;stroke:#000000;stroke-width:0.15;stroke-linecap:round;" cx="372.7" cy="17.2" rx="1.5" ry="1.6"/>
		<path style="fill:#D20014;" d="M394.9-2.7c0,0,2.9,0.2,2.9,1.8c0,1.6-0.5,3.1,0.5,3.4c1,0.3,3,0.3,3.5,0.9
			c0.5,0.6,0.5,1.3,0.5,1.3s-2.5-1-3.6-0.3c-1.1,0.7-2.3-0.4-2.4-0.8c-0.4-0.8-0.2-2.4-0.9-2.7c-0.8-0.3-3.2-0.3-3.2-0.3L394.9-2.7z
			"/>
		<path style="fill:#0A328C;" d="M373.8-24.6c0.5-8.7-0.9-18.9-0.9-18.9l-0.1-1.5l-23.5,24.9c0,0,1.7-2,1.1,8.3l2,3.5L373.8-24.6z"
			/>
		<path style="fill:none;stroke:#000000;stroke-width:0.265;" d="M373.8-24.6c0.5-8.7-0.9-18.9-0.9-18.9l-0.1-1.5"/>
		<g>
			<path style="fill:#F1B517;stroke:#000000;stroke-width:0.3;" d="M367.5-64l-3.1,8.1c0,0-0.9-1-1.7,0l-0.7,1.1 M367.5-64l-6.1,5.7
				c0,0,1.2,0.7,0.5,1.8l-0.7,1.1l0.8,0.6"/>
			<path style="fill:#F1B517;stroke:#000000;stroke-width:0.3;" d="M359.6-57.2l4.3,3.5l-1.1,1.7l-4.3-3.5L359.6-57.2z"/>
			<path style="fill:#F1B517;stroke:#000000;stroke-width:0.15;" d="M359.7-56.7l3.7,3l-0.7,1.1l-3.7-3L359.7-56.7z"/>
		</g>
		<g>
			<path style="fill:#F1B517;stroke:#000000;stroke-width:0.3;" d="M381.5-53.9l-4.3,7.5c0,0-0.8-1.2-1.6-0.3l-0.9,0.9 M381.5-53.9
				l-6.8,4.6c0,0,1,0.9,0.2,1.8l-0.8,1l0.7,0.8"/>
			<path style="fill:#F1B517;stroke:#000000;stroke-width:0.3;" d="M372.7-48.6l3.8,4.2l-1.4,1.5l-3.8-4.2L372.7-48.6z"/>
			<path style="fill:#F1B517;stroke:#000000;stroke-width:0.15;" d="M372.7-48.1l3.3,3.7l-0.9,1l-3.3-3.7L372.7-48.1z"/>
		</g>
		<g>
			<path style="fill:#F1B517;stroke:#000000;stroke-width:0.3;" d="M390.5-36.9l-5.4,6.6c0,0-0.6-1.3-1.6-0.6l-1,0.7 M390.5-36.9
				l-7.4,3.2c0,0,0.9,1-0.1,1.8l-1,0.8l0.6,0.9"/>
			<path style="fill:#F1B517;stroke:#000000;stroke-width:0.3;" d="M381.1-33.3l3.1,4.9l-1.6,1.2l-3.1-4.9L381.1-33.3z"/>
			<path style="fill:#F1B517;stroke:#000000;stroke-width:0.15;" d="M381-32.8l2.6,4.2l-1,0.8l-2.6-4.2L381-32.8z"/>
		</g>
		<path style="fill:#F1B517;stroke:#000000;stroke-width:0.3;" d="M360.4-53.9l-27.3,38.5l0.4,0.4l27.3-38.5L360.4-53.9z
			 M372.2-44.5L332.8-3.8l0.4,0.4L372.6-44L372.2-44.5z M378.5-28.2l-42,31.9l0.3,0.5l42-31.9L378.5-28.2z"/>
		<path style="fill:#0A328C;stroke:#000000;stroke-width:0.265;" d="M374.1-43.9c0,0-4-0.8-4.9-0.2s1.7,0.7,2.2,0.5l-1,1.1
			c0,0-2.3-0.6-2.6-3c-0.4-2.4,1.1-2.4,1.5-2.3C369.5-47.8,371.5-47.5,374.1-43.9L374.1-43.9z"/>
		<path style="fill:#0A328C;stroke:#000000;stroke-width:0.265;" d="M-24.1-63.1"/>
		<path style="fill:none;stroke:#000000;stroke-width:0.15;" d="M372.5-44.4c0,0-4.4-1.5-4.4-0.1"/>
		<path style="fill:none;stroke:#000000;stroke-width:0.3;" d="M374.1-43.9c0,0-4-0.8-4.9-0.2s1.7,0.7,2.2,0.5l-1,1.1
			c0,0-2.3-0.6-2.6-3c-0.4-2.4,1.1-2.4,1.5-2.3C369.5-47.8,371.5-47.5,374.1-43.9L374.1-43.9z"/>
		<path style="fill:#0A328C;stroke:#000000;stroke-width:0.15;" d="M373.5-44c-0.1,0.6-0.2,1.3-0.2,1.6c1.3,3.7,3,3.7,2.4,8.2l1.4,0
			c0.1-2.1-0.1-4-0.5-4.9c-0.2-0.4-0.5-0.9-1-1.5c-0.4-0.5-0.9-1-1.2-1.4c-0.6-0.8-0.2-1.7-0.2-1.7L373.5-44z"/>
		<path style="fill:#D20014;stroke:#000000;stroke-width:0.265;" d="M372.7-44.3c0,0-0.2,0.7-0.2,1.7c0,0.5,0.1,1.1,0.2,1.6
			c0.2,0.6,0.3,1.2,0.5,1.8c0.2,1.3,0.4,2.8,0.4,5.1l2.2-0.1c0.7-4.4-1.1-4.5-2.4-8.2c-0.1-0.3,0.1-1,0.2-1.6L372.7-44.3z"/>
		<path style="fill:#D20014;stroke:#000000;stroke-width:0.265;" d="M-24.1-63.1"/>
		<path style="fill:none;stroke:#000000;stroke-width:0.15;" d="M374.7-34.2c0,0,0.5-2.4-0.6-4.6c-1.1-2.2-1.5-5.6-0.9-5.4"/>
		<path style="fill:#F1B517;stroke:#000000;stroke-width:0.157;" d="M370.8,1.3l-3,5.9l-12,1l-1.1,0.2c0,0-1.8,4.6-3.7,5.2
			c-1.9,0.6-15,5.1-15,5.1l-0.4-3.3l8.4-3c0,0,2.5-1,3.2-2.1c0.7-1.1,6.9-7.6,6.9-7.6L370.8,1.3z"/>
		<g>
			<path style="fill:#F1B517;stroke:#000000;stroke-width:0.3;" d="M365.4-13.8L348,18.5l0.4,0.2l17.4-32.3L365.4-13.8z"/>
			<path style="fill:#FFFFFF;stroke:#000000;stroke-width:0.3;" d="M365-12.5c0,0,0.5,0.5,1.1-0.3c0.6-0.8,2.4-4.2,2.7-4.9
				c0.3-0.6,0.8-1.1,0.2-1.6c-0.6-0.4-1.4,0.1-2.1,1.7C366.4-16,364.2-13.3,365-12.5L365-12.5z"/>
		</g>
		<path style="fill:#F1B517;stroke:#000000;stroke-width:0.1574;" d="M380.5-8.1c0.7-0.1,1.8,1.3,2.1,3.8c0.3,2.5,0,4.5-0.6,4.6
			c-0.2,0-0.5-0.2-0.8-0.7l-34.8,5.2l-0.7-7.3L380.1-7C380.2-7.9,380.1-8,380.5-8.1z"/>
		<path style="fill:#F4CF0E;stroke:#000000;stroke-width:0.15;stroke-linecap:round;" d="M347-2.6c0,0,0.2,0.4,0.3,0.6 M347.7-2.7
			c0,0,0.2,0.4,0.3,0.6 M348.5-2.8c0,0,0.2,0.4,0.3,0.6 M349.2-2.9c0,0,0.2,0.4,0.3,0.6 M350-3c0,0,0.2,0.4,0.3,0.6 M350.7-3.1
			c0,0,0.2,0.4,0.3,0.6 M351.5-3.2c0,0,0.2,0.4,0.3,0.6 M352.2-3.3c0,0,0.2,0.4,0.3,0.6 M353-3.4c0,0,0.2,0.4,0.3,0.6 M353.7-3.5
			c0,0,0.2,0.4,0.3,0.6 M354.5-3.6c0,0,0.2,0.4,0.3,0.6 M355.2-3.7c0,0,0.2,0.4,0.3,0.6 M356-3.8c0,0,0.2,0.4,0.3,0.6 M356.8-3.9
			c0,0,0.2,0.4,0.3,0.6 M357.5-4c0,0,0.2,0.4,0.3,0.6 M358.3-4.1c0,0,0.2,0.4,0.3,0.6 M359-4.2c0,0,0.2,0.4,0.3,0.6 M359.8-4.2
			c0,0,0.2,0.4,0.3,0.6 M360.5-4.3c0,0,0.2,0.4,0.3,0.6 M361.3-4.4c0,0,0.2,0.4,0.3,0.6 M362-4.5c0,0,0.2,0.4,0.3,0.6 M362.8-4.6
			c0,0,0.2,0.4,0.3,0.6 M363.5-4.7c0,0,0.2,0.4,0.3,0.6 M364.3-4.8c0,0,0.2,0.4,0.3,0.6 M365-4.9c0,0,0.2,0.4,0.3,0.6 M365.8-5
			c0,0,0.2,0.4,0.3,0.6 M366.5-5.1c0,0,0.2,0.4,0.3,0.6 M367.3-5.2c0,0,0.2,0.4,0.3,0.6 M368.1-5.3c0,0,0.2,0.4,0.3,0.6 M368.8-5.4
			c0,0,0.2,0.4,0.3,0.6 M369.6-5.5c0,0,0.2,0.4,0.3,0.6 M370.3-5.6c0,0,0.2,0.4,0.3,0.6 M371.1-5.7c0,0,0.2,0.4,0.3,0.6 M371.8-5.8
			c0,0,0.2,0.4,0.3,0.6 M372.6-5.9c0,0,0.2,0.4,0.3,0.6 M373.3-6c0,0,0.2,0.4,0.3,0.6 M374.1-6.1c0,0,0.2,0.4,0.3,0.6 M374.8-6.2
			c0,0,0.2,0.4,0.3,0.6 M375.6-6.3c0,0,0.2,0.4,0.3,0.6 M376.3-6.4c0,0,0.2,0.4,0.3,0.6 M377.1-6.5c0,0,0.2,0.4,0.3,0.6 M377.8-6.6
			c0,0,0.2,0.4,0.3,0.6 M378.6-6.7c0,0,0.2,0.4,0.3,0.6 M379.4-6.8c0,0,0.2,0.4,0.3,0.6 M380.1-6.9c0,0,0.2,0.4,0.3,0.6"/>
		<path style="fill:none;stroke:#000000;stroke-width:0.278;" d="M381.3-4.6l-35.3,5.3 M381.4-3.7l-35.3,5.3 M381.5-2.8l-35.3,5.3
			 M381.6-2.4l-35.3,5.3 M381.6-1.9l-35.3,5.3 M381.7-1.5l-35.3,5.3 M381.7-1.1l-35.3,5.3 M381.8-0.6l-35.3,5.3 M-24.1-63.1"/>
		<path style="fill:#F1B517;stroke:#000000;stroke-width:0.1573;" d="M345.4,0l-2-0.1c0,0-1.2,0.5-1.3,1c-0.1,0.6-0.1,1.4,0,1.6
			c0.1,0.2,2.4,0.7,3.2-0.1L345.4,0z"/>
		<path d="M342.2,0.9c0.8,0.2,2.2,0.1,3.2,0l0,1.5c-0.8,0.8-3.1,0.3-3.2,0.1C342,2.3,342.1,1.4,342.2,0.9L342.2,0.9L342.2,0.9z"/>
		<path d="M-24.1-63.1"/>
		<g transform="matrix(-1,0,0,1,984.9863,0.74097931)">
			<path d="M299.9-63.2"/>
			<ellipse style="fill:#F1B517;stroke:#000000;stroke-width:0.15;stroke-linecap:round;" cx="620.6" cy="6" rx="1.4" ry="1.5"/>
			<path style="fill:#F1B517;stroke:#000000;stroke-width:0.15;stroke-linecap:round;" d="M299.9-63.2"/>
			<ellipse cx="620.6" cy="-4.7" rx="0.3" ry="0.3"/>
			<ellipse cx="620.6" cy="16.4" rx="0.3" ry="0.3"/>
			<g transform="rotate(45,445.45132,86.297958)">
				<ellipse cx="511.9" cy="-104.5" rx="0.3" ry="0.3"/>
				<ellipse cx="512.9" cy="-84.5" rx="0.3" ry="0.3"/>
			</g>
			<g transform="matrix(-0.70710678,0.70710678,0.70710678,0.70710678,699.4111,-289.70556)">
				<ellipse cx="264.2" cy="143.3" rx="0.3" ry="0.3"/>
				<ellipse cx="265.2" cy="163.3" rx="0.3" ry="0.3"/>
			</g>
			<g transform="matrix(0,1,1,0,359.15336,-359.15336)">
				<ellipse cx="365" cy="252" rx="0.3" ry="0.3"/>
				<ellipse cx="365" cy="270.9" rx="0.3" ry="0.3"/>
			</g>
			<g transform="matrix(0.37566452,0.92675572,0.92675572,-0.37566452,198.13393,-294.10752)">
				<ellipse cx="437.1" cy="269.2" rx="0.3" ry="0.3"/>
				<ellipse cx="436.3" cy="288.5" rx="0.3" ry="0.3"/>
			</g>
			<g transform="rotate(113.39109,445.45132,86.297957)">
				<ellipse cx="302.4" cy="-52.2" rx="0.3" ry="0.3"/>
				<ellipse cx="301.7" cy="-32.9" rx="0.3" ry="0.3"/>
			</g>
			<g transform="rotate(23.077806,445.45132,86.297956)">
				<ellipse cx="574.7" cy="-66.8" rx="0.3" ry="0.3"/>
				<ellipse cx="575.4" cy="-46" rx="0.3" ry="0.3"/>
			</g>
			<g transform="matrix(-0.9199734,0.39198079,0.39198079,0.9199734,821.42755,-167.70223)">
				<ellipse cx="252.4" cy="70.6" rx="0.3" ry="0.3"/>
				<ellipse cx="253.1" cy="91.3" rx="0.3" ry="0.3"/>
			</g>
		</g>
		<ellipse style="fill:#F1B517;stroke:#000000;stroke-width:0.15;stroke-linecap:round;" cx="376.9" cy="17.2" rx="1.5" ry="1.6"/>
		<path style="fill:#FFFFFF;stroke:#000000;stroke-width:0.15;" d="M334.6-8.2c0,0,4.2,2,4.6-1.5c0,0,2.6,3.6-0.9,5.8
			c0,0,1.6-2.8-3.6-3.2c0,0-0.7,0.1-0.7-0.6C334-8.2,334.6-8.2,334.6-8.2z"/>
		<path d="M334-7.4c0.6,0.1,2,0.2,4.1,0.7c0.9,0.2,1.6,0.1,2.1-0.2c0,1-0.4,2.2-1.8,3.1c0,0,1.6-2.8-3.6-3.2
			C334.6-7,334-6.9,334-7.4z"/>
		<path style="fill:#FFFFFF;stroke:#000000;stroke-width:0.15;" d="M336.5-8.2l0.4,0.1l-1.5,10.9L335,2.7L336.5-8.2z"/>
		<path style="fill:#FFFFFF;stroke:#000000;stroke-width:0.15;" d="M336.3-8.2l0.6,0.1l-0.3,2.2L336.1-6L336.3-8.2z"/>
		<g transform="matrix(-1,0,0,1,984.5452,0)">
			
				<ellipse transform="matrix(1.673339e-02 -0.9999 0.9999 1.673339e-02 608.4779 660.2385)" style="fill:#FFFFFF;stroke:#000000;stroke-width:0.15;" cx="639.9" cy="20.7" rx="2.6" ry="-1.3"/>
			<g>
				<path style="fill:#FFFFFF;stroke:#000000;stroke-width:0.15;" d="M299.8-63.1"/>
				<path style="fill:none;stroke:#000000;stroke-width:0.15;" d="M641.5,20.3c0,0-0.7-2-0.9-7.1c-0.2-5.2-0.2-5.6,0-5.8
					c0.2-0.2,0.9-0.7,1.2-0.4c0.4,0.2,0.3,0.3,0.3,1.2c0.1,0.9,0.1,6.6,0.1,6.6s-0.2,0.9-0.7,0.9c-0.5,0-0.8-0.2-0.9-0.6"/>
			</g>
			<path style="fill:none;stroke:#000000;stroke-width:0.15;" d="M638.4,20.4c0,0,0.7-0.9,0.9-2.5c0.2-1.7,0.6-10.1,0.6-10.7V5.4"/>
		</g>
		<g>
			<path style="fill:#FFFFFF;stroke:#000000;stroke-width:0.265;" d="M353.8,14.2c0,0-2.3,0.1-3.1,1.7c-0.8,1.6-0.3,3.1,0.5,3.7
				c0.9,0.6,2.8,1.1,3.7,0.5c0.9-0.6,1.5-2.6,0.5-2.8c-1-0.2-2.7-0.6-2.5-1.4c0.2-0.8,1.1-0.8,1.1-0.8L353.8,14.2z"/>
			<path style="fill:#FFFFFF;stroke:#000000;stroke-width:0.15;" d="M353.4,13.9l0.4-0.1l0.3,1.7l-0.4,0.1L353.4,13.9z"/>
		</g>
		<path style="fill:#FFFFFF;stroke:#000000;stroke-width:0.3;" d="M386.4,5.9l-9.8,5.7l0.1,0.1l0.7,0.1l9.3-5.4L386.4,5.9z"/>
		<path style="fill:#FFFFFF;stroke:#000000;stroke-width:0.3;" d="M386.7,6.2l-5.5,10.9l0.9-0.5l5.1-10L386.7,6.2z"/>
		<path style="fill:#FFFFFF;stroke:#000000;stroke-width:0.3;" d="M-24.1-63.1"/>
		<path style="fill:#FFFFFF;stroke:#000000;stroke-width:0.3;" d="M-24.1-63.1"/>
		<ellipse style="fill:#F1B517;stroke:#000000;stroke-width:0.15;stroke-linecap:round;" cx="353.1" cy="24.9" rx="1.5" ry="1.6"/>
		<ellipse style="fill:#F1B517;stroke:#000000;stroke-width:0.15;stroke-linecap:round;" cx="357.3" cy="21" rx="1.5" ry="1.6"/>
		<ellipse style="fill:#F1B517;stroke:#000000;stroke-width:0.15;stroke-linecap:round;" cx="363.6" cy="21.5" rx="1.5" ry="1.6"/>
		<ellipse style="fill:#F1B517;stroke:#000000;stroke-width:0.15;stroke-linecap:round;" cx="368.4" cy="24.4" rx="1.5" ry="1.6"/>
		<ellipse style="fill:#F1B517;stroke:#000000;stroke-width:0.15;stroke-linecap:round;" cx="372.6" cy="24.4" rx="1.5" ry="1.6"/>
		<ellipse style="fill:#F1B517;stroke:#000000;stroke-width:0.15;stroke-linecap:round;" cx="376.8" cy="24.4" rx="1.5" ry="1.6"/>
		<ellipse style="fill:#F1B517;stroke:#000000;stroke-width:0.15;stroke-linecap:round;" cx="380.9" cy="24.4" rx="1.5" ry="1.6"/>
		<ellipse style="fill:#F1B517;stroke:#000000;stroke-width:0.15;stroke-linecap:round;" cx="370.5" cy="20.8" rx="1.5" ry="1.6"/>
		<ellipse style="fill:#F1B517;stroke:#000000;stroke-width:0.15;stroke-linecap:round;" cx="374.7" cy="20.8" rx="1.5" ry="1.6"/>
		<ellipse style="fill:#F1B517;stroke:#000000;stroke-width:0.15;stroke-linecap:round;" cx="378.9" cy="20.8" rx="1.5" ry="1.6"/>
		<path style="fill:#D20014;stroke:#000000;stroke-width:0.3;" d="M361.6-52.6c0,0-0.1,1.5,1,2.4c1.1,0.9,2.5,1.9,3,4.4
			c0.5,2.6,0.1,2.3,0.1,2.3l-3.6,0.7c0,0,0.4-1.8-0.5-3.2c-0.9-1.4-2.2-5.6-0.9-7.2L361.6-52.6z"/>
		<path style="fill:#0A328C;stroke:#000000;stroke-width:0.15;" d="M361.5-52.7c-0.2,0.6-0.6,2,0.2,2.9c1.1,1.3,2.1,1.9,2.5,3.6
			c0.2,1,0.4,2.1,0.5,2.8l1.1-0.2c0,0,0.4,0.3-0.1-2.3c-0.5-2.6-1.9-3.5-3-4.4c-1.1-0.9-1-2.4-1-2.4L361.5-52.7z"/>
		<path style="fill:none;stroke:#000000;stroke-width:0.15;" d="M361.1-53.3c0,0-0.7,1.7,0.1,3.5c0.7,1.7,1.5,2.6,1.9,3.7
			c0.4,1.1,0,2.2,0.5,3"/>
		<path style="fill:none;stroke:#000000;stroke-width:0.15;" d="M-24.1-63.1"/>
		<path style="fill:#FFFFFF;stroke:#000000;stroke-width:0.15;" d="M393.4,25.6c0,0,0,0.4,0.3,0.8c0.3,0.4,0.9,0.8,2.1,0.8l0-0.3
			c-1.1,0-1.7-0.4-1.9-0.7c-0.3-0.3-0.2-0.6-0.2-0.6L393.4,25.6z"/>
		<path style="fill:#F1B517;" d="M396.8,28.8c0.4-1.1,1.4-1.4,1.4-1.4s0.1-0.1-0.2-0.9c-0.3-0.8-0.2-1.4-0.2-1.4
			c0.1-4.3-0.3-5.5-0.3-5.5c0.3,0,1.5,1.6,1.5,1.6c0-4.1-5.5-6-5.5-6c2,5.6,1.2,6.3,1.2,6.3c1.3-0.6,1.4-1.5,1.4-1.5
			c0.2,1.5,0,4.5,0,4.5s0.1,1.4-1.1,0.7c-0.6-0.4-3.7-2-3.7-2l-0.3,1.2l4.1,2.1c0,0,1,0.5,0.7,1.3c-0.3,0.8-0.4,0.9-0.4,0.9
			L396.8,28.8z"/>
		<path style="fill:#F1B517;" d="M-24.1-63.1"/>
		<path style="fill:#0A328C;stroke:#000000;stroke-width:0.3;" d="M379.6-31.9c0,0-2.2-1.2-2.7-0.2c-0.5,1-0.7,2.9,0,4.1
			c0,0,3.1,0.4,4.7-0.2l0.2-0.1L379.6-31.9z"/>
		<path style="fill:#0A328C;stroke:#000000;stroke-width:0.3;" d="M-24.1-63.1"/>
		<path style="fill:none;stroke:#000000;stroke-width:0.15;" d="M376.6-28.9c0,0,1-0.8,2.7,0c1.7,0.8,1.7,0.7,1.7,0.7"/>
		<path style="fill:none;stroke:#000000;stroke-width:0.3;" d="M379.6-31.9c0,0-2.2-1.2-2.7-0.2c-0.5,1-0.7,2.9,0,4.1
			c0,0,3.1,0.4,4.7-0.2l0.2-0.1L379.6-31.9z"/>
		<path style="fill:none;stroke:#000000;stroke-width:0.15;" d="M380.3-28c0,0,0.3,1.6,0.4,4.9c0.1,3.3-0.5,5.5-0.8,5.5"/>
		<path style="fill:none;stroke:#000000;stroke-width:0.265;" d="M381.8-28.5c0,0,1.2,1.4,1.4,4.5c0.2,3.1,0.1,5.3,0.1,5.3
			s-2,1.3-4,0.8c0,0,0.3-0.9,0.4-2.2c0-1.3,0-8,0-8"/>
		<path style="fill:none;stroke:#000000;stroke-width:0.3;" d="M363.2-43.1c0,0,1,4.6,1.1,6.7"/>
		<g>
			<path style="fill:#D20014;stroke:#000000;stroke-width:0.1243;" d="M351.9-7.7c0,0,1.1-1.4,1.2-1.9c0.1-0.6,0.1-1.5-0.6-1.6
				c-0.7,0-4-0.6-5,0.3c-1,0.9-1.2,1.4-1,1.8c0.2,0.5,1,1.2,1.7,1.2c0.7,0,1.4,0.3,1.6,0.1c0.3-0.2,1.4-1.7,1.7-0.3l0,0.5L351.9-7.7
				z"/>
			<path style="fill:#F1B617;stroke:#000000;stroke-width:0.1243;" d="M348.7-2.5c0,0,0.7-3.6,1.8-5.2c0,0,1.4-0.4,2,0
				c0.5,0.4-0.1-0.5,0.5,0.3c0.6,0.8,0.6,4.1,0.6,4.1l0.8,0.8C352.4-1.6,348.7-2.5,348.7-2.5L348.7-2.5z"/>
			<path style="stroke:#000000;stroke-width:0.1243;" d="M354.3-2.7c-1.8,1.1-5.5,0.3-5.5,0.3s-0.6,1.6,0,1.3c0.6-0.3,0.3,0.6,0.9,0
				c0.6-0.6,0.6-0.8,0.6-0.8s3.5,0,4.2-0.3L354.3-2.7z"/>
			<path style="stroke:#000000;stroke-width:0.1243;" d="M-24.1-63.1"/>
			<path style="fill:#D20014;stroke:#000000;stroke-width:0.1243;" d="M350.7-9.2l-1.2,1.3 M349.9-9.2l-0.8,1.3 M349.1-9.2L348.8-8
				 M348.4-9.3l0,1.2 M347.6-9.3l0.4,1.2 M346.8-9.3l0.8,1.2 M347.3-9.2l0.5,1.1"/>
		</g>
		<path style="fill:none;stroke:#000000;stroke-width:0.15;" d="M355.5-52.5c0,0,1-1.5,4-0.2"/>
	</g>
	<path style="fill:#FFFFFF;stroke:#000000;stroke-width:0.325;" d="M332.2,288.3c-0.3,1.4-1,4.9-1,4.9c6.9,3.4,26.2,3.6,28,3.6v0
		l0.2,0l0.2,0v0c1.8,0,21.7-0.2,28.6-3.6c0,0-0.7-3.5-1-4.9c0,0-0.9,3.2-27.8,3.7C332.4,291.5,332.2,288.3,332.2,288.3L332.2,288.3z
		"/>
	<g>
		<path style="fill:#FFFFFF;stroke:#000000;stroke-width:0.3;" d="M382.3,287.6c0.4-1.1,3.5-1,5.9-0.2c2.4,0.8,3.8,0.6,9,0.7
			c5.2,0.1,8.2,1.4,8.6,1.6c0.5,0.2,8.3,4.3,11.3,5.4c3,1.1,5.9,0,5.9,0s-3.5,3.7-8.4,0.7c0,0,4.1,2.4,6.7,2.8c0,0-3.9,0.9-7.3-0.7
			c-0.3-0.1-0.6-0.3-0.9-0.5c-2.1-1.1-3.9-2-5.6-2.7c-9.5-3.8-13.3-1.4-19.8-3.2"/>
		<path style="fill:#FFFFFF;stroke:#000000;stroke-width:0.3;" d="M665.7,212"/>
		<path style="fill:none;stroke:#000000;stroke-width:0.265;" d="M404.3,292.9c0,0-4.3-1.4-7.6-1 M403.8,292.1c0,0-4-1.2-7.6-0.9
			 M403.3,291.2c0,0-3.8-1.1-7.5-0.8 M402.8,290.3c0,0-3.5-0.9-7.5-0.8 M402.4,289.4c0,0-3.2-0.7-7.5-0.7"/>
		<path style="fill:none;stroke:#000000;stroke-width:0.3;" d="M390.9,288.6c0,0-1.9-0.5-3.9-0.8c-1.7-0.3-3.3-0.4-3.8,0.1
			 M391.3,289.4c0,0-2.3-0.3-4.1-0.8 M391.7,290.1c0,0-2.6,0-4.3-0.7 M392,290.9c0,0-2.9,0.2-4.5-0.7 M392.4,291.5
			c0,0-3.2,0.4-4.7-0.5"/>
		<path style="fill:#FFFFFF;stroke:#000000;stroke-width:0.312;" d="M382.3,287.5c0.4,0.9,3,0.4,4.7,1c-0.4,0.4-1.5,1-4.7,1.7
			C381.7,288,382.3,287.5,382.3,287.5z"/>
	</g>
	<g>
		<path style="fill:#F1B517;stroke:#000000;stroke-width:0.15;stroke-linecap:round;" d="M354.5,269.3h11v11.1h-11L354.5,269.3z"/>
		<path style="fill:#D20014;stroke:#000000;stroke-width:0.15;stroke-linecap:round;" d="M359.9,280c0.7,0,1.4,0,2.1-0.1
			 M359.9,279.4c0.7,0,1.4,0,2.1-0.1 M359.9,278.8c0.7,0,1.4,0,2.1-0.1 M359.9,278.2c0.7,0,1.4,0,2.1-0.1 M359.9,277.6
			c0.7,0,1.4,0,2.1-0.1 M359.9,277c0.7,0,1.4,0,2.1-0.1 M359.9,276.4c0.7,0,1.4,0,2.1-0.1 M359.9,275.8c0.7,0,1.4,0,2.1-0.1
			 M359.9,275.2c0.7,0,1.4,0,2.1-0.1 M359.9,274.6c0.7,0,1.4,0,2.1-0.1 M359.9,274c0.7,0,1.4,0,2.1-0.1 M359.9,273.4
			c0.7,0,1.4,0,2.1-0.1 M359.9,272.8c0.7,0,1.4,0,2.1-0.1 M359.9,272.2c0.7,0,1.4,0,2.1-0.1 M359.9,271.6c0.7,0,1.4,0,2.1-0.1"/>
		<path style="fill:#FFFFFF;stroke:#000000;stroke-width:0.15;stroke-linecap:round;" d="M365.4,278.9c-0.4,0.3-1,0.5-1.7,0.7
			 M365.4,278.3c-0.4,0.3-1,0.5-1.7,0.7 M365.4,277.7c-0.4,0.3-1,0.5-1.7,0.7 M365.4,277.1c-0.4,0.3-1,0.5-1.7,0.7 M365.4,276.5
			c-0.4,0.3-1,0.5-1.7,0.7 M365.4,275.9c-0.4,0.3-1,0.5-1.7,0.7 M365.4,275.3c-0.4,0.3-1,0.5-1.7,0.7 M365.4,274.7
			c-0.4,0.3-1,0.5-1.7,0.7 M365.4,274.1c-0.4,0.3-1,0.5-1.7,0.7 M365.4,273.5c-0.4,0.3-1,0.5-1.7,0.7 M365.4,272.9
			c-0.4,0.3-1,0.5-1.7,0.7 M365.4,272.3c-0.4,0.3-1,0.5-1.7,0.7 M365.4,271.7c-0.4,0.3-1,0.5-1.7,0.7 M365.4,271.1
			c-0.4,0.3-1,0.5-1.7,0.7 M365.4,270.5c-0.4,0.3-1,0.5-1.7,0.7"/>
		<path style="fill:none;stroke:#000000;stroke-width:0.15;stroke-linecap:round;" d="M357.4,271.4c-1-0.2-1.9-0.4-2.6-0.7
			 M357.4,272c-1-0.2-1.9-0.4-2.6-0.7 M357.4,272.6c-1-0.2-1.9-0.4-2.6-0.7 M357.4,273.2c-1-0.2-1.9-0.4-2.6-0.7 M357.4,273.8
			c-1-0.2-1.9-0.4-2.6-0.7 M357.4,274.4c-1-0.2-1.9-0.4-2.6-0.7 M357.4,275c-1-0.2-1.9-0.4-2.6-0.7 M357.4,275.6
			c-1-0.2-1.9-0.4-2.6-0.7 M357.4,276.2c-1-0.2-1.9-0.4-2.6-0.7 M357.4,276.8c-1-0.2-1.9-0.4-2.6-0.7 M357.4,277.4
			c-1-0.2-1.9-0.4-2.6-0.7 M357.4,278c-1-0.2-1.9-0.4-2.6-0.7 M357.4,278.6c-1-0.2-1.9-0.4-2.6-0.7 M357.4,279.2
			c-1-0.2-1.9-0.4-2.6-0.7 M357.4,279.8c-1-0.2-1.9-0.4-2.6-0.7 M68.9,156.3 M68.9,156.3 M68.9,156.3 M68.9,156.3 M68.9,156.3
			 M68.9,156.3 M68.9,156.3 M68.9,156.3 M68.9,156.3"/>
	</g>
	<path style="fill:none;stroke:#000000;stroke-width:0.3;" d="M360.6,215.2h1 M360.6,214.5h1 M360.6,213.9h1 M360.5,213.3h1
		 M360.5,212.7h1 M360.5,212.1h1 M360.5,211.5h1 M360.4,210.9h1 M360.4,210.3h1 M360.4,209.7h1 M360.4,209.1h1 M360.3,208.5h1
		 M360.3,207.9h1 M360.3,207.3h1 M360.3,206.7h1 M360.3,206.1h1 M360.2,205.5h1 M360.2,204.9h1 M360.2,204.3h1 M360.2,203.7h1
		 M360.1,203.1h1 M360.1,202.5h1 M360.1,201.9h1 M360.1,201.3h1"/>
	<g>
		<path style="fill:#016A16;stroke:#000000;stroke-width:0.3;" d="M358.2,196.4c-9.2-1.3-12.1-0.3-12.5-0.2s-6.3,1.9-8.7,6.2
			c-2.3,4.2-0.5,5.8-0.5,5.8c-0.4-1,1.1-4.6,1.1-4.6c-0.7,1.5,0.2,4,0.2,4c-0.3-0.7,0.4-3,0.4-3l0.5,1.8c0-1,0.5-3.5,0.5-3.5
			c0.1,3.2,0.6,3.8,0.6,3.8c-0.5-0.8,0.4-5.7,0.4-5.7c-0.5,2.9,0.3,3.5,0.3,3.5c0-3.4,1.5-5.2,1.5-5.2c-1.6,2-0.5,4.9-0.5,4.9
			c0.2-3.4,2.5-6.1,2.5-6.1c-2.2,2.6-0.9,4.3-0.9,4.3c0.1-2.2,3.5-5.3,3.5-5.3c-1.5,1.5-1.4,3.4-1.4,3.4c0.6-1.2,2.8-3.5,2.8-3.5
			c-0.5,0.8-1,2.9-1,2.9l0.7-0.5l1.9-2.5l-1.2,1.9l1.2-0.6l1.3-1.3l-0.6,0.9l1-0.3l1-1.2l-0.6,0.9h1.4l0.6-0.6l-0.3,0.7l1,0.1
			l0.3-0.6l-0.1,0.6h0.5l0.4-0.9l-0.2,0.9c0,0,1.1,0,1.3,0.3c0.2,0.3-6.8,2.3-6.8,2.3s1.5,0,1.6,0.5c0.1,0.5-3.5,1.1-3.5,1.1
			l1.7,0.8l-3.5,0.5l2.5,0.3l-4.4,1.1h4l-4.2,0.9l2.7,0.4l-3.5,0.6l3.4,0.3l-3.6,1.7l2-0.3c-3.9,4-2.5,6.9-2.5,6.9
			c0.3-1.3,2-4.2,2-4.2c-0.4,3.7,0.5,5,0.5,5c0.1-1,1.3-6.3,1.3-6.3c0.2,1.2,0.3,4.6,0.3,4.6c0.9-0.8,0.5-4.8,0.5-4.8l1.4,1.5
			c-0.7-1.3-0.5-4.2-0.5-4.2c0.4,0.5,1,2.5,1,2.5c0.1-0.5,0.5-3.8,0.5-3.8c0,1.2,0.8,3.5,0.8,3.5l0.3-4c0.1,1,1.1,2.9,1.1,2.9v-4.3
			l0.7,1.9l0.1-3l0.3,3.5l0.6-0.7l-0.5-0.1l0.2-0.1l0.6-3.5l0.9,1.6l0.3-1l-0.2-1.7c0.3,0.1,0.8,1.1,0.8,1.1v-2.1l0.8,0.4l1.3-2
			l-0.8,1.6l1.2-0.8l-1.4,1.2l0.9,0.4l-2,0.2v0.6l1.8,0.2c-2.5,0.5-2.6,1.3-2.6,1.3l2.4-0.1c-1.9-0.1-3.3,1.4-3.3,1.4l2.9-0.1
			c-2.7,0.2-3.8,1.4-3.8,1.4l3.4,0.2c-1.7-0.2-3.5,1.8-3.5,1.8l2.2,0.1c-2.1,0.2-2.5,1.5-2.5,1.5l1.8,0.1c-1.8,1.1-2,3.1-2,3.1
			l2.1-1.8c-2.2,2.1-1.4,3.8-1.4,3.8l1.3-1.7c-1.8,1.9-1.4,3.3-1.4,3.3l1.4-1.6c-0.7,4.9,0.3,5,0.3,5l0.3-4.9
			c1.2,0.6,1.9,3.5,1.9,3.5l-1-4.5c1.1,0.9,1.4,2.6,1.4,2.6c0.4-2.1-1.3-4.7-1.3-4.7l2.2,3l-1.6-4.5l1.9,3.1
			c0.1-2.9-1.5-4.7-1.5-4.7l2.3,2.2c-0.1-0.9-1.3-3.3-1.3-3.3c0.5,0.4,1.4,1.6,1.4,1.6c-0.3-1.4-1.6-3.1-1.6-3.1
			c0.6,0.2,1.7,1.6,1.7,1.6c0-0.8-0.7-3.8-0.7-3.8l0.8,1.8l-0.3-3l0.7,1.1l-0.2-2.1l0.5,0.1l0.3-2.5l-0.2,2.5l-0.5-0.2l0.2,2
			l1.6-1.9l-1,3.5l1.6-1.7l-1.3,3l1.9-2.4l-1.4,3.9l1.5-1.4l-1.4,2.9c0.8,0,2.4-1.9,2.4-1.9c-0.8,0.5-2,3.7-2,3.7
			c1,0,1.7-1.9,1.7-1.9l-1.6,3.3c1-0.3,2.1-2.4,2.1-2.4c0.2,1.1-1.7,4.9-1.7,4.9c0.6,0,1.6-0.9,1.6-0.9s0.2-0.7-0.5,0.6
			c-0.7,1.4-2.3,3-2.3,3c1.4,0.1,2.7-1.9,2.7-1.9c0.2,0.9-1.6,4.5-1.6,4.5c1.3-0.1,2.4-4.1,2.4-4.1c0.4,0.5,0.7,5.1,0.8,4.6
			c0.1-0.6,0.1-6.3,0.1-6.3c0.3,0.4,1.3,3,1.3,3c0.1-1.3-1.2-6.2-1.2-6.2l1.5,3l-1.8-5.7l2.2,2.9l-2.8-5.8l1.4,2.3
			c-0.5-3.9-2.8-3.9-2.8-3.9c2.8-0.4,3.1,3.4,3.1,3.4c0.6-0.2,0.6-2.1,0.6-2.1l0.2,0.9l0.5,3.2l0.3-2.8v3.5c0,0.3,0.9-2,0.9-2
			c0.2,0.4,0.2,3.3,0.2,3.3l0.8-2.3c0.5,1.4,0.2,3.7,0.2,3.7c0.8,0,1-2,1-2l0.9,3l-0.1-2.2c-0.1-2.2-2.8-6.6-3.5-7
			c-0.7-0.4-3.5-1.4-3.5-1.4l-2.6-2.6l2.6,2.6c0.3-0.4-0.3-2.6-0.3-2.6l2,2.9c0.5-1-0.5-2.7-0.5-2.7c0.6,0.8,2.4,3.6,2.4,3.6
			c0.2-1-0.5-3.3-0.5-3.3c0.6,0.6,2.5,4.1,2.5,4.1c-0.1-0.3-1.2-3.8-1.2-3.8c1.3,1.3,2.7,5.4,2.7,5.4c0.4-1.4-0.6-4.9-0.6-4.9
			l2.3,5.9c0.2-1.2-0.2-3.6-0.2-3.6c0.7,0.7,1.9,3.7,1.9,3.7c-0.2-1.8-0.6-4-0.6-4l2,4.1l-0.4-2.7l1.3,3l-0.6-2.6l1.7,2.6l-1.4-2.8
			l2,2.2c0,0-3-4-3.6-4.6c-0.6-0.6-6.2-2.8-7.5-3.5c-1.3-0.7-6.8-0.3-6.8-0.3l1.7-0.1l-0.3-0.8l0.3,0.7h1.1l-0.6-0.7l0.5,0.8h1.9
			l-1.3-1.2c0.6,0.3,1.3,1.1,1.3,1.1l0.9,0.1l-0.6-1.4l0.9,1.6l1.6,0.3c-0.2-0.8-1.2-2-1.2-2c0.6,0.7,1.4,2,1.4,2l1.3,0.5
			c0-0.8-1.1-2.5-1.1-2.5c0.9,0.9,1.7,2.6,1.7,2.6c0.1-0.7-0.5-2.7-0.5-2.7c0.6,0.4,1.7,3.1,1.7,3.1c0.1-0.8-0.1-3.1-0.2-3
			c0.5,0.6,1.5,3.7,1.5,3.7v-3c0.3,0,1.2,3.2,1.2,3.2c0.5-1.2-0.1-3.7-0.1-3.7c0.4,0.9,1.3,3.6,1.3,3.6l0.2-1.2l0.2,2.2l0.2-1.9
			l0.7,2c-0.1-1.2-0.9-4.4-0.9-4.4c0.6,0.7,2.3,4.7,2.3,4.7v-1.4l0.5,2.3c0.7-2.3-0.8-4.9-0.8-4.9c1.1,1.7,1.5,3.9,1.5,3.9l0.5-1.2
			c0.5,0.9,0.5,3.1,0.5,3.1c0.6-2.4-0.6-4.5-0.6-4.5c1.3,1.1,2.1,5.6,2.1,5.6l0.2-3.5c0.4,0.9,1.1,3.5,1.1,3.5
			c0.2-1.5-0.4-4-1.2-5.1c-0.8-1.1-1.4-2.2-6.1-3.3c-4.7-1.1-16.2-0.2-16.2-0.2l1.8-0.4c1.2-1,3.9-0.2,3.9-0.2l0.7,0
			c0,0-0.1-0.9-0.1-1.2c0-0.3,1.3,1,1.3,1l0.5,0v-1.5l1.9,1.6l0.7,0.1l-1.3-1.8c0.7,0.7,2.9,1.7,2.9,1.7c-0.1-0.7-1.8-2.1-1.8-2.1
			c0.5,0,2.8,2.2,2.8,2.2l-1.3-1.7l3.2,1.6c-0.2-0.4-1.3-1.6-1.3-1.6c1.3,1.2,3.8,2,3.8,2l-3.1-2.6l3.8,3.2c-0.6-2-2.5-3.8-2.5-3.8
			c0.9,0.2,4.5,4,4.5,4c0-1.5-1.3-3.3-1.3-3.3c0.9,0.3,3.3,3.9,3.3,3.9c0.1-0.9-1.3-3.4-1.3-3.4c0.7,0.4,2.7,3.4,2.7,3.4
			c0.4-1.8-1.4-3.3-1.4-3.3l3.7,2.2c-1.9-3.1-5.8-4.2-6.3-4.3c-0.5-0.2-3.9-0.2-6.8-0.1c-2.9,0.1-6.7,2-6.9,2c-0.2,0-3.2,1-3.2,1
			l-0.8-0.3l1,0.3l1.4-0.4l-1.4-1l1.8,0.8l1-0.4l-1.4-0.9l1.5,0.7l2.2-0.9l-2.5-1l4,0l-3-1.2l4.9,0.9c-0.4-0.6-1.8-1.1-1.8-1.1
			c1,0,3.3,0.6,3.3,0.6c-0.4-0.5-2.4-1.5-2.4-1.5c1.1,0.2,3.9,1.2,3.9,1.2l-2.1-1.6c0.3,0.1,2,0.8,2,0.8c-0.4-0.7-1.5-1.3-1.5-1.3
			c0.5,0,3.9,1.8,3.9,1.8c-0.7-1.3-2.4-3.2-2.4-3.2l2.1,1.4l-1.2-1.5l3.1,1.6c-1.1-1.6-3.4-2.5-4.2-2.7c-0.7-0.1-5.7,0.5-9.7,3.5
			c-3.9,3-4.4,5.8-4.4,5.8s-4-9.5-11.1-10c0,0,1.1,1.1,3.3,1.7c0,0-2.4,0.6-3,1.5c0,0,2.6-0.2,4.3,0.3c0,0-2.8,0.6-3.2,1.4
			c0,0,3-0.3,4.6-0.1c0,0-2.7,0.4-2.8,1.1c0,0,4.2,0,4.3,0.9c0,0-2.9-0.1-3.6,0.4c0,0,3.8,0.6,4.5,1.1l-2.3,0.4c0,0,3,0.7,3.4,1.6
			c0,0-6.7-3.1-12.1-3.8c-5.4-0.6-7.1,0.9-8,1.8c-1,0.9-3.1,3.1-2.7,4.9c0,0,1.2-2.5,4-4.4l-2.5,3.3l2.9-2.5c0,0-1.7,2.6-1.7,3.4
			c0,0,2.7-4.7,3.9-5.6c0,0-2,2.7-1.9,3.7c0,0,3.8-4,4.1-3.9c0,0-2.9,2.8-2.8,4.6c0,0,3.3-3.8,4.3-4.1c0,0-2.5,1.5-2,2.9l2.7-2.7
			l-1.6,2.9l0.8-0.3c0,0,1.2-2.4,2.8-2.3l-2.2,2.2l1.1-0.1c0,0,1.3-1.7,2.8-2.3c0,0-2.2,1.9-2.3,2.3l0.7,0.1c0,0,1.3-1.5,2.3-1.8
			l-1,1.7h0.5l1.3-1.3l-0.9,1.3l1.2,0.1l0.8-0.8l-0.7,0.9h0.8l0.5-0.5L354,196l1.4,0.1l0.4-0.8l-0.1,0.7L358.2,196.4z"/>
	</g>
	<g>
		<path style="fill:#FFFFFF;stroke:#000000;stroke-width:0.29;" d="M340.4,258.5c0,0,2.2-1.4,3.5-0.1l-0.4,1l-2.1,0.2L340.4,258.5z"
			/>
		<path style="fill:#008000;stroke:#000000;stroke-width:0.164;" d="M342,255.6l0,3.7l0.4,0l0-3.7L342,255.6z"/>
		<path style="fill:#008000;stroke:#000000;stroke-width:0.265;" d="M340.5,259.7c0,0,0.4,0.2,0.4,0.9c-0.1,0.7-0.3,3.3,1.4,3.3
			c1.7,0,1.5-2.5,1.5-2.9s0.1-1.2,0.1-1.2v-1.4c0,0-1.7,1.3-3.4,0V259.7z"/>
		<path style="fill:#008000;stroke:#000000;stroke-width:0.265;" d="M0,0"/>
		<path style="fill:#FFFFFF;stroke:#000000;stroke-width:0.567;" d="M343.8,259.6c-1.5,0.5-2.6,0.4-3.3,0.1v0.1c0,0,0.2,0.1,0.3,0.4
			c1.4,0.7,2.5,0.1,3.1-0.3L343.8,259.6z"/>
	</g>
	<g>
		<path d="M336.8,291.1l-0.4-0.1l-0.6,3.2l1.9,0.4l0.1-0.4l-1.5-0.3L336.8,291.1z M338.3,292.6l0.3,0.1l0.2-1.1l-0.3-0.1
			L338.3,292.6z M341.2,291.8l-0.3,2c0,0.2-0.1,0.3-0.1,0.4c-0.1,0.1-0.1,0.2-0.2,0.2c-0.2,0.1-0.4,0.1-0.6,0.1
			c-0.1,0-0.2,0-0.3-0.1c-0.1,0-0.2-0.1-0.2-0.2c-0.1-0.1-0.1-0.2-0.1-0.3c0-0.1,0-0.3,0-0.4l0.3-2l-0.4-0.1l-0.3,2.1
			c0,0.3,0,0.6,0.2,0.8c0.2,0.3,0.4,0.4,0.8,0.5c0.4,0.1,0.7,0,1-0.2c0.2-0.2,0.4-0.5,0.4-0.8l0.3-2.1L341.2,291.8z M343.9,294.8
			L343.9,294.8l-1.2-2.8l-0.5-0.1l-0.3,3.2l0.4,0l0.3-2.6h0l1.3,2.8l0.5,0.1l0.3-3.2l-0.4,0L343.9,294.8z M345.6,292.3l-0.4,0
			l-0.3,3.2l0.4,0L345.6,292.3z M348.5,294.2c0,0.4-0.1,0.7-0.3,0.9c-0.2,0.2-0.5,0.3-0.8,0.3c-0.3,0-0.6-0.2-0.7-0.4
			c-0.2-0.3-0.2-0.6-0.2-1c0-0.4,0.1-0.7,0.3-0.9c0.2-0.2,0.5-0.3,0.8-0.3c0.3,0,0.6,0.2,0.7,0.4
			C348.4,293.5,348.5,293.8,348.5,294.2z M348.9,294.2c0-0.2,0-0.4,0-0.6c0-0.2-0.1-0.4-0.2-0.6c-0.1-0.2-0.2-0.3-0.4-0.5
			c-0.2-0.1-0.4-0.2-0.7-0.2c-0.1,0-0.3,0-0.4,0c-0.1,0-0.2,0.1-0.3,0.1c-0.2,0.1-0.4,0.2-0.5,0.4c-0.1,0.2-0.2,0.3-0.3,0.5
			c-0.1,0.2-0.1,0.4-0.1,0.6c0,0.2,0,0.4,0,0.6c0,0.2,0.1,0.4,0.2,0.6c0.1,0.2,0.2,0.3,0.4,0.5c0.2,0.1,0.4,0.2,0.7,0.2
			c0.1,0,0.3,0,0.4,0c0.1,0,0.2,0,0.3-0.1c0.2-0.1,0.4-0.2,0.5-0.4c0.1-0.2,0.2-0.3,0.3-0.5C348.9,294.6,348.9,294.4,348.9,294.2
			L348.9,294.2z M351.3,295.4L351.3,295.4l-1.4-2.7l-0.5,0l-0.2,3.2l0.4,0l0.1-2.6h0l1.4,2.7l0.5,0l0.2-3.2l-0.4,0L351.3,295.4z
			 M354,294.6l1.5,0.1l0-0.4l-1.5-0.1l0-1l1.7,0.1l0-0.4l-2.1-0.1l-0.1,3.2l0.4,0L354,294.6z M357.4,295.3l0.3,1l0.4,0l-1-3.3
			l-0.5,0l-1.2,3.2l0.4,0l0.3-0.9L357.4,295.3z M356.3,294.9l0.5-1.4h0l0.4,1.4L356.3,294.9z M359,293l-0.4,0l0,3.2l0.4,0L359,293z
			 M359.3,293.4l1,0l0,2.9l0.4,0l0-2.9l1,0l0-0.4l-2.4,0L359.3,293.4z M363.7,292.9l-0.4,0l0.1,3.2l1.9-0.1l0-0.4l-1.5,0.1
			L363.7,292.9z M367.3,295.1l0.3,0.9l0.4,0l-1.2-3.2l-0.5,0l-1,3.3l0.4,0l0.3-1L367.3,295.1z M366.2,294.7l0.4-1.5h0l0.5,1.4
			L366.2,294.7z M370,294.4l1.5-0.1l0-0.4L370,294l-0.1-1l1.7-0.1l0-0.4l-2.1,0.1l0.2,3.2l0.4,0L370,294.4z M374.4,293.9
			c0,0.4,0,0.7-0.2,1c-0.2,0.3-0.4,0.4-0.7,0.4c-0.3,0-0.6-0.1-0.8-0.3c-0.2-0.2-0.3-0.5-0.4-0.9c0-0.4,0-0.7,0.2-1
			c0.2-0.3,0.4-0.4,0.7-0.4c0.3,0,0.6,0.1,0.8,0.3C374.3,293.2,374.4,293.5,374.4,293.9L374.4,293.9z M374.8,293.8
			c0-0.2,0-0.4-0.1-0.6c-0.1-0.2-0.2-0.4-0.3-0.5c-0.1-0.2-0.3-0.3-0.5-0.4c-0.2-0.1-0.4-0.1-0.7-0.1c-0.1,0-0.3,0-0.4,0.1
			c-0.1,0-0.2,0.1-0.3,0.1c-0.2,0.1-0.3,0.3-0.4,0.5c-0.1,0.2-0.2,0.4-0.2,0.6c0,0.2,0,0.4,0,0.6c0,0.2,0.1,0.4,0.1,0.5
			c0.1,0.2,0.2,0.4,0.3,0.5c0.1,0.2,0.3,0.3,0.5,0.4c0.2,0.1,0.4,0.1,0.7,0.1c0.1,0,0.3,0,0.4-0.1c0.1,0,0.2-0.1,0.3-0.1
			c0.2-0.1,0.3-0.3,0.4-0.5c0.1-0.2,0.2-0.4,0.2-0.6C374.8,294.2,374.8,294,374.8,293.8L374.8,293.8z M375.7,294l1-0.1
			c0.1,0,0.2,0,0.3,0c0.1,0,0.1,0.1,0.2,0.1c0,0,0.1,0.1,0.1,0.2c0,0.1,0,0.1,0,0.2c0,0.1,0,0.2,0.1,0.4c0,0.1,0,0.2,0,0.2
			c0,0.1,0,0.1,0.1,0.2l0.5-0.1l0-0.1c-0.1,0-0.1-0.1-0.1-0.1c0,0,0-0.1-0.1-0.2l-0.1-0.6c0-0.1,0-0.2-0.1-0.3
			c0-0.1-0.1-0.1-0.1-0.2c0,0-0.1-0.1-0.1-0.1c0,0-0.1,0-0.1,0c0,0,0.1-0.1,0.1-0.1c0,0,0.1-0.1,0.1-0.2c0-0.1,0.1-0.1,0.1-0.2
			c0-0.1,0-0.2,0-0.3c0-0.3-0.2-0.6-0.4-0.7c-0.2-0.1-0.4-0.1-0.7-0.1l-1.4,0.2l0.3,3.2l0.4,0L375.7,294z M375.6,292.5l1-0.1
			c0.1,0,0.2,0,0.4,0c0.1,0,0.1,0.1,0.2,0.1c0,0.1,0.1,0.2,0.1,0.3c0,0.1,0,0.2,0,0.3c0,0.1-0.1,0.1-0.1,0.2c-0.1,0-0.1,0.1-0.2,0.1
			c-0.1,0-0.1,0-0.2,0.1l-0.9,0.1L375.6,292.5z M380.6,292.4c-0.1-0.3-0.2-0.5-0.4-0.7c-0.2-0.2-0.5-0.2-0.9-0.2
			c-0.4,0.1-0.8,0.3-1,0.6c-0.2,0.3-0.3,0.8-0.2,1.3c0.1,0.6,0.3,1,0.6,1.3c0.3,0.2,0.6,0.3,1,0.3c0.1,0,0.2,0,0.3-0.1
			c0.1,0,0.2-0.1,0.4-0.2c0.1-0.1,0.2-0.3,0.3-0.4c0.1-0.2,0.1-0.4,0.1-0.7l-0.4,0.1c0,0.2,0,0.3-0.1,0.5c-0.1,0.1-0.1,0.2-0.2,0.3
			c-0.1,0.1-0.2,0.1-0.2,0.2c-0.1,0-0.2,0.1-0.2,0.1c-0.4,0.1-0.6,0-0.8-0.3c-0.2-0.2-0.3-0.5-0.3-0.9c-0.1-0.4,0-0.8,0.2-1
			c0.2-0.2,0.4-0.4,0.6-0.4c0.1,0,0.2,0,0.2,0c0.1,0,0.2,0,0.3,0.1c0.1,0,0.2,0.1,0.2,0.2c0.1,0.1,0.1,0.2,0.2,0.3L380.6,292.4z
			 M383.6,293.7l-1.8,0.4l-0.2-1.1l1.6-0.3l-0.1-0.4l-1.6,0.3l-0.2-1l1.7-0.4l-0.1-0.4l-2.1,0.4l0.6,3.2l2.2-0.4L383.6,293.7z"/>
	</g>
</g>
</svg>
