<?xml version="1.0" encoding="utf-8"?>
<!-- Generator: Adobe Illustrator 25.2.1, SVG Export Plug-In . SVG Version: 6.00 Build 0)  -->
<svg version="1.1" id="Layer_1" xmlns="http://www.w3.org/2000/svg" xmlns:xlink="http://www.w3.org/1999/xlink" x="0px" y="0px"
	 viewBox="0 0 720 480" style="enable-background:new 0 0 720 480;" xml:space="preserve">
<g>
	<g>
		<rect style="fill:#FF9933;" width="720" height="480"/>
		<rect y="160" style="fill:#FFFFFF;" width="720" height="160"/>
		<rect y="320" style="fill:#128807;" width="720" height="160"/>
	</g>
	<path style="fill:#000088;" d="M360,176c-35.3,0-64,28.7-64,64s28.7,64,64,64s64-28.7,64-64S395.3,176,360,176z M415.1,250
		c-0.3,1.5-0.6,3-1,4.4l-31.9-10.5l-11.2-1.6c0.1-0.6,0.2-1.2,0.2-1.8l11.3,1.4L416,240l-33.6-1.9l-11.3,1.4c0-0.6-0.1-1.2-0.2-1.8
		l11.2-1.6l31.9-10.5c0.4,1.5,0.7,2.9,1,4.4c-1.5,0.3-2.5,1.6-2.3,3.1s1.5,2.5,3,2.4c0.1,1.5,0.2,3,0.2,4.5s-0.1,3-0.2,4.5
		c-1.5-0.1-2.8,0.9-3,2.4C412.5,248.4,413.6,249.8,415.1,250z M409.2,260.4c-0.6,1.4,0.1,3,1.4,3.6c-0.7,1.4-1.3,2.7-2.1,4
		l-28.1-18.4l-10.4-4.5c0.3-0.5,0.5-1.1,0.7-1.6l10.5,4.2l32.9,6.8c-0.4,1.5-0.8,2.9-1.4,4.3C411.3,258.3,409.7,259,409.2,260.4z
		 M383.9,290.6c-0.6-1.3-2.2-2-3.6-1.4s-2,2.1-1.5,3.5c-1.4,0.5-2.9,1-4.3,1.4l-6.8-32.9l-4.2-10.5c0.6-0.2,1.1-0.4,1.6-0.7
		l4.5,10.4l18.4,28.1C386.7,289.2,385.3,289.9,383.9,290.6z M380.4,190.8c1.4,0.6,3-0.1,3.6-1.4c1.4,0.7,2.7,1.3,4,2.1l-18.4,28.1
		l-4.5,10.4c-0.5-0.3-1.1-0.5-1.6-0.7l4.2-10.5l6.8-32.9c1.5,0.4,2.9,0.8,4.3,1.4C378.3,188.7,379,190.3,380.4,190.8z M409.2,219.6
		c0.6,1.4,2.1,2,3.5,1.5c0.5,1.4,1,2.9,1.4,4.3l-32.9,6.8l-10.5,4.2c-0.2-0.6-0.4-1.1-0.7-1.6l10.4-4.5l28.1-18.4
		c0.8,1.3,1.5,2.7,2.1,4C409.2,216.7,408.6,218.3,409.2,219.6z M402.7,203.8c-1.2,1-1.4,2.6-0.4,3.8c0.9,1.2,2.6,1.4,3.8,0.6
		c0.9,1.2,1.7,2.5,2.4,3.8l-30,15.1l-9.1,6.8c-0.3-0.5-0.7-1-1.1-1.4l8.9-7l22.4-25.1l-25.1,22.4l-7,8.9c-0.4-0.4-0.9-0.8-1.4-1.1
		l6.8-9.1l15.1-30c1.3,0.8,2.6,1.5,3.8,2.4c-0.9,1.2-0.6,2.9,0.6,3.8c1.2,0.9,2.9,0.7,3.8-0.4c1.2,1,2.3,2,3.4,3.1
		C400.7,201.5,401.7,202.6,402.7,203.8z M364.5,184.2c-0.1,1.5,0.9,2.8,2.4,3s2.9-0.8,3.1-2.3c1.5,0.3,3,0.6,4.4,1l-10.5,31.9
		l-1.6,11.2c-0.6-0.1-1.2-0.2-1.8-0.2l1.4-11.3L360,184l-1.9,33.6l1.4,11.3c-0.6,0-1.2,0.1-1.8,0.2l-1.6-11.2L345.5,186
		c1.5-0.4,2.9-0.7,4.4-1c0.3,1.5,1.6,2.5,3.1,2.3s2.5-1.5,2.4-3c1.5-0.1,3-0.2,4.5-0.2S363,184.1,364.5,184.2z M339.6,289.2
		c-1.4-0.6-3,0.1-3.6,1.4c-1.4-0.7-2.7-1.3-4-2.1l18.4-28.1l4.5-10.4c0.5,0.3,1.1,0.5,1.6,0.7l-4.2,10.5l-6.8,32.9
		c-1.5-0.4-2.9-0.8-4.3-1.4C341.7,291.3,341,289.7,339.6,289.2z M310.8,260.4c-0.6-1.4-2.1-2-3.5-1.5c-0.5-1.4-1-2.9-1.4-4.3
		l32.9-6.8l10.5-4.2c0.2,0.6,0.4,1.1,0.7,1.6l-10.4,4.5L311.5,268c-0.8-1.3-1.5-2.7-2.1-4C310.8,263.3,311.4,261.7,310.8,260.4z
		 M304.2,244.5c-0.1-1.5-0.2-3-0.2-4.5s0.1-3,0.2-4.5c1.5,0.1,2.8-0.9,3-2.4s-0.8-2.9-2.3-3.1c0.3-1.5,0.6-3,1-4.4l31.9,10.5
		l11.2,1.6c-0.1,0.6-0.2,1.2-0.2,1.8l-11.3-1.4L304,240l33.6,1.9l11.3-1.4c0,0.6,0.1,1.2,0.2,1.8l-11.2,1.6L306,254.5
		c-0.4-1.5-0.7-2.9-1-4.4c1.5-0.3,2.5-1.6,2.3-3.1C307.1,245.5,305.7,244.4,304.2,244.5z M310.8,219.6c0.6-1.4-0.1-3-1.4-3.6
		c0.7-1.4,1.3-2.7,2.1-4l28.1,18.4l10.4,4.5c-0.3,0.5-0.5,1.1-0.7,1.6l-10.5-4.2l-32.9-6.8c0.4-1.5,0.8-2.9,1.4-4.3
		C308.7,221.7,310.3,221,310.8,219.6z M354.9,230.1l-4.5-10.4L332,191.5c1.3-0.8,2.7-1.5,4-2.1c0.6,1.3,2.2,2,3.6,1.4s2-2.1,1.5-3.5
		c1.4-0.5,2.9-1,4.3-1.4l6.8,32.9l4.2,10.5C356,229.6,355.5,229.8,354.9,230.1z M323.8,197.3c1,1.2,2.6,1.4,3.8,0.4
		c1.2-0.9,1.4-2.6,0.6-3.8c1.2-0.9,2.5-1.7,3.8-2.4l15.1,30l6.8,9.1c-0.5,0.3-1,0.7-1.4,1.1l-7-8.9l-25.1-22.4l22.4,25.1l8.9,7
		c-0.4,0.4-0.8,0.9-1.1,1.4l-9.1-6.8l-30-15.1c0.8-1.3,1.5-2.6,2.4-3.8c1.2,0.9,2.9,0.6,3.8-0.6c0.9-1.2,0.7-2.9-0.4-3.8
		c1-1.2,2-2.3,3.1-3.4C321.5,199.3,322.6,198.3,323.8,197.3z M317.3,276.2c1.2-1,1.4-2.6,0.4-3.8c-0.9-1.2-2.6-1.4-3.8-0.6
		c-0.9-1.2-1.7-2.5-2.4-3.8l30-15.1l9.1-6.8c0.3,0.5,0.7,1,1.1,1.4l-8.9,7l-22.4,25.1l25.1-22.4l7-8.9c0.4,0.4,0.9,0.8,1.4,1.1
		l-6.8,9.1l-15.1,30c-1.3-0.8-2.6-1.5-3.8-2.4c0.9-1.2,0.6-2.9-0.6-3.8s-2.9-0.7-3.8,0.4C321.5,280.7,319.3,278.5,317.3,276.2z
		 M355.5,295.8c0.1-1.5-0.9-2.8-2.4-3s-2.9,0.8-3.1,2.3c-1.5-0.3-3-0.6-4.4-1l10.5-31.9l1.6-11.2c0.6,0.1,1.2,0.2,1.8,0.2l-1.4,11.3
		L360,296l1.9-33.6l-1.4-11.3c0.6,0,1.2-0.1,1.8-0.2l1.6,11.2l10.5,31.9c-1.5,0.4-2.9,0.7-4.4,1c-0.3-1.5-1.6-2.5-3.1-2.3
		s-2.5,1.5-2.4,3c-1.5,0.1-3,0.2-4.5,0.2S357,295.9,355.5,295.8z M396.2,282.7c-1-1.2-2.6-1.4-3.8-0.4c-1.2,0.9-1.4,2.6-0.6,3.8
		c-1.2,0.9-2.5,1.7-3.8,2.4l-15.1-30l-6.8-9.1c0.5-0.3,1-0.7,1.4-1.1l7,8.9l25.1,22.4l-22.4-25.1l-8.9-7c0.4-0.4,0.8-0.9,1.1-1.4
		l9.1,6.8l30,15.1c-0.8,1.3-1.5,2.6-2.4,3.8c-1.2-0.9-2.9-0.6-3.8,0.6s-0.7,2.9,0.4,3.8C400.7,278.5,398.5,280.7,396.2,282.7z"/>
</g>
</svg>
