<?xml version="1.0" encoding="utf-8"?>
<!-- Generator: Adobe Illustrator 25.2.1, SVG Export Plug-In . SVG Version: 6.00 Build 0)  -->
<svg version="1.1" id="Layer_1" xmlns="http://www.w3.org/2000/svg" xmlns:xlink="http://www.w3.org/1999/xlink" x="0px" y="0px"
	 viewBox="0 0 720 480" style="enable-background:new 0 0 720 480;" xml:space="preserve">
<g>
	<path style="fill:#FFFFFF;" d="M-0.2,0H720v480H-0.2V0z"/>
	<g>
		<defs>
			<rect id="SVGID_1_" x="-0.2" width="720.2" height="480"/>
		</defs>
		<clipPath id="SVGID_2_">
			<use xlink:href="#SVGID_1_"  style="overflow:visible;"/>
		</clipPath>
		<g style="clip-path:url(#SVGID_2_);">
			<path d="M-0.2,0L720,480 M-0.2,480L720,0"/>
			<polygon style="fill:#DF112D;" points="707.6,502.9 359.9,271.1 12.1,502.9 -12.6,457.1 313.2,240 -12.6,22.9 12.1,-22.9 
				359.9,208.9 707.6,-22.9 732.4,22.9 406.5,240 732.4,457.1 			"/>
		</g>
	</g>
	<g>
		<path style="fill:#E8112D;stroke:#000000;stroke-width:1.500000e-02;" d="M397.6,71.8c9.2,41.6,4.2,93-37.6,121.6
			c-41.8-28.5-46.9-79.9-37.6-121.6C332.2,61.9,377,55.7,397.6,71.8z"/>
		<path style="fill:#F9DD16;stroke:#000000;stroke-width:1.500000e-02;" d="M359.9,63.5c15.3,0,29.6,4.5,38,10.3
			c1.6-14.4,7.5-28.7,14.4-39.6c-7.2-0.2-10.4,4.1-10.5,8.5c-1.8-5.7-8.9-5.3-11-2.3c7.9,5.9,1.8,16.4-5.3,14.3
			c-3.4-1-5.1-3.6-5.8-7.4c2.1-0.2,3.8-2.2,3.6-4.6c-0.1-2.4-2-4.2-4.1-4c-2.1,0.2-3.8,2.2-3.6,4.6c0.1,1.7,1.1,3.2,2.5,3.8
			c-1.9,3.6-5.6,5.4-9.2,4.4c-3.7-1.2-5.3-4.9-5.3-8.3c0-8.7,7.5-10,9.8-8.5c-0.1-5.8-8.4-10.5-11-5.7c3.2-6.2,2.2-14-2.4-19
			c-5.1,5.3-5.3,13.3-2.4,19c-2.5-4.8-10.8-0.2-11,5.7c2.3-1.5,9.8-0.2,9.8,8.5c0.1,3.8-2.1,7.2-5.3,8.3c-3.6,0.9-7.4-0.9-9.2-4.5
			c2-0.9,3-3.4,2.2-5.6c-0.8-2.2-3-3.3-5-2.4c-2,0.9-3,3.4-2.2,5.6c0.6,1.6,1.9,2.6,3.4,2.7c-0.6,3.8-2.4,6.4-5.7,7.4
			c-7.1,2.2-13.2-8.3-5.3-14.3c-2.2-3.1-9.2-3.4-11,2.2c-0.1-4.4-3.3-8.7-10.5-8.5c6.9,10.9,12.8,25.2,14.4,39.6
			C330.3,67.9,344.6,63.5,359.9,63.5z"/>
		<g id="b">
			<g>
				<path style="fill:#F9DD16;stroke:#000000;stroke-width:1.500000e-02;" d="M391.7,104.3c-0.9,0.3-0.9,1.6-1.4,1.6
					c2.4-0.1,3.6-0.8,4.3-2.2c-0.5,0.5-0.1,1.5-0.2,1.8c1.8-0.7,2.6-2.3,2-3.5c0.4,0.6,1.5,1,1.9,1c-1.2-1.1-0.4-3.5-2.4-4.8
					c0.6-0.1,1.9,0.8,2.3,1.8c-0.3-2.2-0.6-3.6-2.2-4.9c0.2,0.2,1.1,0.4,1.5,0c-0.9-0.6-1.4-1.6-1.3-2.7c0.1-1.1-0.5-1.3-1.8-1
					c-1.7,0.3-3.4,0.5-5.1,0.5c-3.1,0-5.8,0-8.4-2c3.8,1.8,8.7-1.9,8.7-5c0-3.4-3.8-6.2-11.5-4.3c-7.7,1.9-17,1.1-17-1.8
					c0-2.9,6.7-3.2,10.1-2.7c3.4,0.6,5.9,1,12.3-1.5c-1.6,0.7-6.7,0.9-10.8-0.4c-4.1-1.3-14-1.3-14.1,4.7c-0.1,6,10.6,5.4,19.8,3.9
					c5.4-0.9,8.2-0.3,8.2,1.7c0,1.9-4.9,2.6-8.7,2.1c-4.1-0.6-8.2-0.2-12.2,1.1c-3.7,1.2-6.3,0-10.5,0.8c-2,0.4-6.9,0-9.3-4.4
					c-1.5,1.2-5.9,3.6-6.7,6c-1.1,2.2-0.4,4.4,1.1,6.6c1.8,2.7-0.9,2.3-2.8,2.4c-2.6,0.1-6.1-0.3-7.9-2.6c-1.6-2-3.7-3.7-5.4-2.2
					c-0.9,0.8,0,1.8,0.6,1.5c0.7-0.3,1.5,0.3,2.3,0.6c-1-0.5-2.1-0.3-3,0.4c-0.7,0.7,0.1,2,1,1.5c0.7-0.4,2-0.6,2.9,0.3
					c-0.9-0.2-1.9-0.2-2.4,0.4c-0.5,0.6-0.1,1.4,0.9,1.3c1.7-0.1,2.1,1.2,3.7,0.9c-0.7,0.1-1.4,0.5-1.8,1.2c1.5-0.8,3.2,1.3,5.2,0.9
					c-0.8,0.3-2,1.2-2,1.9c1.2-1.5,9.2,1.1,9.4-2.2c0.2,0.9,0.1,1.9-0.5,2.6c1-0.7,4.3-0.9,5.3-3.6c0.1,0.8,0,1.8-0.6,2.1
					c1.1,0.4,2.4-0.5,3.9-2.9c0.6-0.9,0.7-1.5,0.6-2.2c1.3,0.1,2.6-0.4,3.6-1.4c1.1-1.1,2.4,0.9,4.3-0.5c1.9-1.4,3.6-0.2,4.7-0.9
					c1.1-0.7,2.5,0.3,3.7-0.5c1.1-0.8,2.9,0.4,4.8-1.3c3,1.2,6.5,3.5,15,1.7c4.9-1,6.4,0.9,6.4,3.3c0,1.7-0.9,1.9-1.6,1.9
					c-2.7,0.2-3.9-1.1-5-0.7c-0.7,0.3-1.2,1.6-0.1,2.1c-0.9,0.5-0.7,1.4-0.3,1.7c0.4,0.3,1.6,0,2.4-0.4c-1,0.5-2,1.4-1.4,2.3
					c0.4,0.5,1.2,1,2.1-0.2C389.1,105.1,390.7,104.1,391.7,104.3L391.7,104.3z M337.4,78.4c-2.5-1.1-3.3-1.1-2.7,1.1
					c0.2,1,0.8,2.3,1.4,2.9C336.1,81.5,336.4,78.9,337.4,78.4z"/>
				<path style="fill:#F9DD16;stroke:#000000;stroke-width:1.500000e-02;" d="M345.1,78.4c2.5-1.1,3.3-1.1,2.7,1.1
					c-0.3,1.1-0.8,2.1-1.4,2.9C346.4,81.5,346.1,78.9,345.1,78.4z"/>
				<path style="fill:#F9DD16;stroke:#000000;stroke-width:1.500000e-02;" d="M341.3,76.9c4.7,0,5.3,2.4,5.2,5.5
					c0,3.3-1.6,2.1-2.5,6.4c-0.4,1.6-1.5,1.7-2.7,1.7s-2.4-0.1-2.7-1.7c-0.9-4.2-2.5-3.1-2.5-6.4C336,79.4,336.6,76.9,341.3,76.9z"
					/>
				<path style="fill:#F9DD16;stroke:#000000;stroke-width:1.500000e-02;" d="M329.2,89c-1.2-0.8-2-0.3-2.4-0.1
					c1.5,0.5,1.6,2.7,5.1,3.7c-0.8-0.3-1.2,0.3-2-0.2c1.4,1.3,3.1,2.7,6.5,2.8c1.9,0,0.6,1.1-0.7,0.5c1.3,1.5,3.9,0.3,5.5,3
					c0.3-2.1-3-5.4-1.5-7.8c-4.8-0.2-5.1-3.1-7.9-5.5c-2.2-1.9-2.4-3.8-3.4-7.4c-0.4-1.7-2.2-2.7-3.1-2.3c-0.8,0.3-1.1,1.1-0.4,1.7
					c0.7,0.6,1.6,0.7,1.8,2.2c-0.9-1.3-2.3-1.7-3-0.9c-0.4,0.5-0.2,1.5,0.6,1.7c1.4,0.2,0.4,1.7,2,3.2c-1.4-1.8-2.7-2-3.5-1
					c-0.5,0.6,0,1.6,1,1.5C325.4,83.9,327.1,87.9,329.2,89z M367.6,104.1c-0.7,0.2-0.5,1.5-1.5,1.6c2.4,0,3.6-0.6,4.8-1.7
					c-0.5,0.3-0.7,1.2-0.8,1.7c1.3-1.2,4.3-1.3,5.9-1c1.6,0.3,1.8-0.5,2.4-1.6c0.6-1.1-0.2-1.8-1-2.7s-1-2.1-0.8-4.2
					c-4.2-6.3-11.8-3.2-11.9-0.5c2.7,3.5,3.1,3.1,5.4,3.6c2.3,0.5,3.7,0.5,2.2,1.9c-0.5,0.5-2.7,0.3-4.5,0.3
					c-3.8,0.2-5.6-2.9-6.7-1.3c-1,1.3,0,1.9,1.9,1.9c-1.3,0-3.1-0.1-2.8,1.3c0.5,2.3,2.5-0.4,3.2,0.5c-0.6-0.2-1.7,0.3-1.7,1
					c0,0.7,1.4,1.6,3.1,0.1C365.6,104.5,366.6,104.1,367.6,104.1z"/>
				<path style="fill:#F9DD16;stroke:#000000;stroke-width:1.500000e-02;" d="M370.9,94.5c-1.3-0.6-2.8-0.8-4.2-0.5 M350.1,93.8
					c-1.1,2.7-0.5,4-0.3,5.3 M338,81c0.8,0.5,1.2-0.8,2.4,0.5c-0.3-0.4-0.7,1-1.6,0.1 M344.4,81c-0.8,0.5-1.2-0.8-2.4,0.5
					c0.3-0.4,0.7,1,1.6,0.1"/>
				<path style="fill:#F9DD16;stroke:#000000;stroke-width:1.500000e-02;" d="M342,81.5c-0.3,0.3-0.3-0.2-0.1,1
					c0.4,2.1,0.8,3.1-0.7,3.1c-1.6,0-1.1-1-0.7-3.1c0.2-1.1,0.2-0.7-0.1-1"/>
			</g>
			<path style="fill:#FF0016;stroke:#000000;stroke-width:8.000000e-03;" d="M341.3,89.7c1.2,0,2,0,1.8-2c-0.1-0.8,0.9-1.1,0.5-2.4
				c0.4,1.6-2.3,1.4-2.3,0.7c0,0.7-2.7,0.9-2.3-0.7c-0.3,1.3,0.6,1.6,0.5,2.4C339.3,89.6,340,89.7,341.3,89.7z M340.1,85.7l-3-0.9
				 M340.1,85.9l-3.4-0.1 M340.1,86.1l-2.9,0.9 M342.4,85.7l3-0.9 M342.4,85.9l3.4-0.1 M342.4,86.1l2.9,0.9"/>
			<path style="fill:#0051BA;stroke:#000000;stroke-width:2.000000e-03;" d="M325.6,75.7c-0.9-1.2-3.1-0.2-3.1,1.3
				c0.7-1,2,0.4,2.6,0.1C325.6,76.9,326,76.2,325.6,75.7z M324.5,78.5c-0.9-1.2-3.1-0.2-3.1,1.3c0.7-1,1.9,0.4,2.6,0.1
				C324.5,79.8,324.9,79,324.5,78.5L324.5,78.5z M323.9,82.4c-1-1.1-3.1,0.2-3,1.7c0.6-1.1,2,0.2,2.6-0.2
				C324,83.6,324.3,82.8,323.9,82.4z M325,94.3c-1.1-1-3,0.6-2.8,2.1c0.5-1.1,2-0.1,2.6-0.5C325.2,95.6,325.4,94.7,325,94.3z
				 M324.9,97c-1.3-0.5-2.7,1.6-2,2.9c0.2-1.3,1.8-0.7,2.3-1.4C325.5,98.1,325.5,97.2,324.9,97z M326.6,98.9
				c-1.3-0.6-2.7,1.6-2.1,2.9c0.2-1.3,1.9-0.7,2.3-1.4C327.1,100,327.1,99.1,326.6,98.9L326.6,98.9z M361,102.7
				c-1.3-0.5-2.7,1.6-2.1,2.9c0.2-1.3,1.9-0.8,2.3-1.4C361.6,103.8,361.6,102.9,361,102.7z M362.8,104.5c-1.3-0.4-2.5,1.9-1.7,3.1
				c0-1.3,1.8-1,2.1-1.7C363.4,105.5,363.4,104.6,362.8,104.5L362.8,104.5z M361.6,100.2c-1.2-0.8-2.9,1.1-2.5,2.5
				c0.4-1.2,2-0.4,2.5-0.9C361.9,101.4,362,100.5,361.6,100.2z M386.1,103.3c-1.4-0.4-2.5,1.9-1.8,3.1c0-1.3,1.8-1,2.2-1.7
				C386.7,104.3,386.6,103.4,386.1,103.3z M386.1,100.9c-1.2-0.7-2.9,1.2-2.4,2.6c0.4-1.2,2-0.5,2.5-1
				C386.5,102,386.6,101.1,386.1,100.9z M387,105.4c-1.4-0.3-2.4,2.1-1.6,3.3c0-1.3,1.7-1.1,2.1-1.8
				C387.7,106.4,387.6,105.5,387,105.4z M341.3,88.5c0.9,0,1.2,0.3,1.2,2c0,3.7,0,5.2-1.1,5.2c-1.1,0-1-1.5-1-4.2c0-1.4,0-2.1-0.2-2
				C340.2,88.6,340.6,88.5,341.3,88.5z"/>
		</g>
		<g transform="matrix(.9 0 0 .9 1.453 1.671)">
			<g id="b_1_">
				<g>
					<path style="fill:#F9DD16;stroke:#000000;stroke-width:1.350000e-02;stroke-miterlimit:3.6;" d="M387.4,138.4
						c-0.8,0.2-0.8,1.4-1.3,1.4c2.2-0.1,3.2-0.7,3.9-1.9c-0.5,0.5-0.1,1.4-0.2,1.6c1.6-0.6,2.3-2.1,1.8-3.1c0.4,0.6,1.4,0.9,1.7,0.9
						c-1.1-1-0.3-3.2-2.1-4.3c0.6,0,1.7,0.7,2.1,1.6c-0.3-2-0.5-3.3-2-4.4c0.2,0.2,1,0.4,1.3,0c-0.8-0.5-1.2-1.5-1.1-2.5
						c0.1-1-0.5-1.2-1.6-0.9c-1.5,0.3-3.1,0.4-4.6,0.4c-2.8,0-5.2,0-7.5-1.8c3.5,1.6,7.9-1.8,7.9-4.5c0-3.1-3.4-5.6-10.3-3.9
						c-6.9,1.7-15.3,1-15.3-1.6c0-2.6,6-2.9,9.1-2.4c3.1,0.6,5.3,0.9,11.1-1.4c-1.4,0.6-6,0.8-9.7-0.4c-3.7-1.2-12.6-1.2-12.7,4.2
						c-0.1,5.4,9.6,4.9,17.8,3.5c4.8-0.8,7.4-0.2,7.4,1.5c0,1.7-4.5,2.4-7.9,1.9c-3.7-0.5-7.4-0.2-11,1c-3.4,1.1-5.7,0-9.4,0.7
						c-1.8,0.3-6.2,0-8.3-4c-1.3,1.1-5.3,3.3-6,5.4c-1,2-0.3,4,1,5.9c1.6,2.4-0.8,2.1-2.5,2.2c-2.3,0.1-5.5-0.3-7.1-2.3
						c-1.4-1.8-3.4-3.3-4.9-1.9c-0.8,0.7,0,1.6,0.6,1.4c0.6-0.3,1.4,0.2,2,0.6c-0.9-0.4-1.9-0.3-2.7,0.3c-0.6,0.6,0.1,1.8,0.9,1.4
						c0.6-0.3,1.8-0.6,2.6,0.2c-0.8-0.2-1.7-0.1-2.2,0.4c-0.4,0.5-0.1,1.2,0.8,1.2c1.5-0.1,1.9,1.1,3.3,0.8
						c-0.7,0.1-1.3,0.5-1.7,1.1c1.4-0.7,2.9,1.2,4.7,0.8c-0.7,0.3-1.8,1.1-1.8,1.7c1.1-1.4,8.3,1,8.4-1.9c0.2,0.8,0.1,1.7-0.4,2.3
						c0.9-0.6,3.9-0.8,4.8-3.2c0.1,0.7,0,1.6-0.6,1.8c1,0.3,2.2-0.5,3.5-2.6c0.5-0.8,0.6-1.4,0.5-2c1.2,0.1,2.3-0.3,3.2-1.2
						c1-1,2.1,0.8,3.9-0.5c1.7-1.2,3.2-0.2,4.2-0.8c1-0.6,2.3,0.2,3.3-0.5c1-0.7,2.6,0.3,4.3-1.2c2.7,1.1,5.8,3.1,13.5,1.5
						c4.4-0.9,5.8,0.8,5.8,3c0,1.6-0.8,1.7-1.4,1.7c-2.4,0.2-3.5-1-4.5-0.6c-0.6,0.3-1,1.4-0.1,1.8c-0.8,0.4-0.7,1.2-0.3,1.6
						c0.4,0.3,1.4,0,2.1-0.3c-0.9,0.5-1.8,1.2-1.3,2.1c0.3,0.5,1.1,0.9,1.9-0.1C385.1,139.2,386.5,138.3,387.4,138.4L387.4,138.4z
						 M338.5,115.1c-2.2-1-3-1-2.5,1c0.2,0.9,0.8,2.1,1.3,2.6C337.3,117.9,337.6,115.6,338.5,115.1z"/>
					<path style="fill:#F9DD16;stroke:#000000;stroke-width:1.350000e-02;stroke-miterlimit:3.6;" d="M345.4,115.1c2.2-1,3-1,2.5,1
						c-0.2,1-0.7,1.9-1.3,2.6C346.6,117.9,346.3,115.6,345.4,115.1z"/>
					<path style="fill:#F9DD16;stroke:#000000;stroke-width:1.350000e-02;stroke-miterlimit:3.6;" d="M342,113.8
						c4.2,0,4.8,2.2,4.7,4.9c0,3-1.4,1.9-2.2,5.7c-0.3,1.5-1.4,1.6-2.5,1.6s-2.1-0.1-2.4-1.6c-0.8-3.8-2.2-2.8-2.3-5.8
						C337.3,116,337.8,113.8,342,113.8z"/>
					<path style="fill:#F9DD16;stroke:#000000;stroke-width:1.350000e-02;stroke-miterlimit:3.6;" d="M331.2,124.6
						c-1.1-0.7-1.8-0.2-2.2-0.1c1.4,0.4,1.4,2.4,4.6,3.3c-0.7-0.2-1.1,0.2-1.8-0.2c1.3,1.1,2.8,2.5,5.9,2.5c1.7,0,0.5,1-0.6,0.5
						c1.2,1.3,3.5,0.2,5,2.7c0.3-1.9-2.7-4.9-1.4-7.1c-4.3-0.2-4.6-2.8-7.1-4.9c-2-1.7-2.2-3.4-3.1-6.7c-0.4-1.5-1.9-2.4-2.8-2
						c-0.8,0.3-1,1-0.4,1.6c0.6,0.6,1.5,0.6,1.6,2c-0.8-1.1-2.1-1.5-2.7-0.8c-0.4,0.4-0.2,1.4,0.6,1.5c1.3,0.1,0.4,1.5,1.8,2.9
						c-1.3-1.6-2.4-1.8-3.1-0.9c-0.4,0.5,0,1.5,0.9,1.4C327.7,120.1,329.2,123.7,331.2,124.6z M365.7,138.2
						c-0.7,0.1-0.5,1.4-1.4,1.4c2.2,0,3.3-0.6,4.3-1.5c-0.5,0.3-0.7,1.1-0.7,1.6c1.1-1.1,3.9-1.2,5.3-0.9c1.4,0.3,1.7-0.4,2.2-1.4
						c0.5-1-0.2-1.6-0.9-2.4c-0.7-0.8-0.9-1.9-0.7-3.7c-3.8-5.6-10.7-2.9-10.7-0.4c2.5,3.2,2.8,2.8,4.8,3.3c2.1,0.4,3.3,0.4,1.9,1.7
						c-0.5,0.5-2.5,0.2-4,0.3c-3.5,0.2-5-2.6-6-1.2c-0.9,1.2,0,1.8,1.7,1.7c-1.2,0-2.8,0-2.5,1.2c0.4,2.1,2.2-0.4,2.9,0.5
						c-0.6-0.2-1.5,0.2-1.5,0.9c0,0.6,1.3,1.4,2.8,0.1C363.9,138.6,364.8,138.3,365.7,138.2z"/>
					<path style="fill:#F9DD16;stroke:#000000;stroke-width:1.350000e-02;stroke-miterlimit:3.6;" d="M368.6,129.6
						c-1.2-0.6-2.5-0.7-3.8-0.5 M350,129c-1,2.4-0.4,3.6-0.3,4.8 M339.1,117.4c0.7,0.4,1.1-0.7,2.1,0.5c-0.3-0.4-0.6,0.9-1.4,0.1
						 M344.8,117.4c-0.7,0.4-1.1-0.7-2.1,0.5c0.3-0.4,0.6,0.9,1.4,0.1"/>
					<path style="fill:#F9DD16;stroke:#000000;stroke-width:1.350000e-02;stroke-miterlimit:3.6;" d="M342.7,117.9
						c-0.2,0.2-0.3-0.2-0.1,0.9c0.3,1.9,0.7,2.8-0.6,2.8c-1.4,0-1-0.9-0.6-2.8c0.2-1,0.2-0.6-0.1-0.9"/>
				</g>
				<path style="fill:#FF0016;stroke:#000000;stroke-width:7.200000e-03;stroke-miterlimit:3.6;" d="M342,125.2c1.1,0,1.8,0,1.6-1.8
					c-0.1-0.7,0.8-1,0.5-2.1c0.3,1.4-2.1,1.3-2.1,0.6c0,0.6-2.4,0.8-2.1-0.6c-0.3,1.2,0.6,1.4,0.5,2.2
					C340.2,125.2,340.9,125.2,342,125.2z M341,121.7l-2.7-0.8 M341,121.8l-3,0 M341,122l-2.6,0.8 M343,121.7l2.7-0.8 M343,121.8l3,0
					 M343,122l2.6,0.8"/>
				<path style="fill:#0051BA;stroke:#000000;stroke-width:1.800000e-03;stroke-miterlimit:3.6;" d="M327.9,112.6
					c-0.8-1.1-2.8-0.2-2.8,1.2c0.7-0.9,1.8,0.4,2.4,0.1C327.9,113.8,328.2,113.1,327.9,112.6z M326.9,115.2
					c-0.8-1.1-2.8-0.2-2.8,1.2c0.6-0.9,1.8,0.4,2.4,0.1C326.9,116.4,327.2,115.7,326.9,115.2L326.9,115.2z M326.4,118.7
					c-0.9-1-2.8,0.2-2.7,1.5c0.6-1,1.8,0.2,2.3-0.2C326.5,119.8,326.8,119.1,326.4,118.7z M327.3,129.5c-1-0.9-2.7,0.5-2.5,1.8
					c0.5-1,1.8,0,2.3-0.5C327.5,130.6,327.7,129.8,327.3,129.5z M327.3,131.8c-1.2-0.5-2.4,1.4-1.8,2.6c0.2-1.1,1.7-0.7,2.1-1.2
					C327.8,132.8,327.8,132,327.3,131.8z M328.8,133.6c-1.2-0.5-2.5,1.4-1.9,2.6c0.2-1.1,1.7-0.7,2.1-1.2
					C329.3,134.6,329.3,133.8,328.8,133.6L328.8,133.6z M359.8,137c-1.2-0.5-2.5,1.4-1.9,2.6c0.2-1.2,1.7-0.7,2.1-1.2
					C360.3,138,360.3,137.2,359.8,137z M361.4,138.6c-1.2-0.3-2.3,1.7-1.6,2.8c0-1.2,1.6-0.9,1.9-1.5
					C362,139.5,361.9,138.7,361.4,138.6L361.4,138.6z M360.3,134.7c-1.1-0.7-2.6,1-2.2,2.2c0.3-1.1,1.8-0.3,2.2-0.8
					C360.6,135.8,360.7,135,360.3,134.7z M382.3,137.5c-1.2-0.3-2.3,1.7-1.6,2.8c0-1.2,1.6-0.9,1.9-1.5
					C382.9,138.4,382.8,137.6,382.3,137.5z M382.3,135.3c-1.1-0.7-2.6,1.1-2.2,2.3c0.3-1.1,1.8-0.4,2.2-0.9
					C382.7,136.4,382.8,135.6,382.3,135.3z M383.2,139.4c-1.2-0.2-2.2,1.8-1.4,2.9c0-1.2,1.6-1,1.9-1.6
					C383.8,140.3,383.7,139.5,383.2,139.4z M342.1,124.2c0.8,0,1.1,0.2,1.1,1.8c0,3.3,0,4.7-1,4.7c-1,0-0.9-1.3-0.9-3.8
					c0-1.2,0-1.9-0.2-1.8C341.1,124.3,341.4,124.2,342.1,124.2z"/>
			</g>
		</g>
		<g transform="matrix(.67 0 0 .75 4.909 3.354)">
			<g id="b_2_">
				<g>
					<path style="fill:#F9DD16;stroke:#000000;stroke-width:1.500000e-02;" d="M380.2,167.6c-0.6,0.2-0.6,1.2-0.9,1.2
						c1.6-0.1,2.4-0.6,2.9-1.6c-0.4,0.4,0,1.2-0.2,1.3c1.2-0.5,1.7-1.8,1.3-2.6c0.3,0.5,1,0.7,1.3,0.8c-0.8-0.8-0.3-2.7-1.6-3.6
						c0.4,0,1.3,0.6,1.5,1.3c-0.2-1.7-0.4-2.7-1.5-3.6c0.1,0.2,0.7,0.3,1,0c-0.6-0.4-0.9-1.2-0.9-2.1c0.1-0.8-0.4-1-1.2-0.7
						c-1.1,0.2-2.3,0.4-3.4,0.4c-2.1,0-3.9,0-5.6-1.5c2.6,1.3,5.9-1.5,5.9-3.8c0-2.6-2.5-4.7-7.7-3.3c-5.1,1.4-11.4,0.8-11.4-1.3
						c0-2.1,4.5-2.4,6.8-2c2.3,0.5,4,0.7,8.3-1.2c-1.1,0.5-4.5,0.7-7.2-0.3c-2.7-1-9.4-1-9.4,3.5c-0.1,4.5,7.1,4.1,13.3,2.9
						c3.6-0.7,5.5-0.2,5.5,1.3c0,1.4-3.3,2-5.9,1.6c-2.7-0.4-5.5-0.2-8.2,0.8c-2.5,0.9-4.2,0-7,0.6c-1.3,0.3-4.6,0-6.2-3.3
						c-1,0.9-4,2.7-4.5,4.5c-0.7,1.7-0.2,3.3,0.7,4.9c1.2,2-0.6,1.7-1.9,1.8c-1.7,0.1-4.1-0.2-5.3-1.9c-1.1-1.5-2.5-2.7-3.7-1.6
						c-0.6,0.6,0,1.3,0.4,1.1c0.5-0.2,1,0.2,1.5,0.5c-0.7-0.3-1.4-0.2-2,0.3c-0.5,0.5,0.1,1.5,0.7,1.2c0.5-0.3,1.4-0.5,1.9,0.2
						c-0.6-0.1-1.3-0.1-1.6,0.3c-0.3,0.4-0.1,1,0.6,1c1.1-0.1,1.4,0.9,2.5,0.7c-0.5,0.1-0.9,0.4-1.2,0.9c1-0.6,2.2,1,3.5,0.6
						c-0.5,0.3-1.4,0.9-1.4,1.4c0.8-1.2,6.1,0.9,6.3-1.6c0.2,0.7,0,1.4-0.3,1.9c0.7-0.5,2.9-0.7,3.6-2.7c0.1,0.6,0,1.4-0.4,1.5
						c0.7,0.3,1.6-0.4,2.6-2.1c0.4-0.7,0.5-1.2,0.4-1.7c0.9,0.1,1.7-0.3,2.4-1c0.8-0.8,1.6,0.7,2.9-0.4c1.3-1,2.4-0.1,3.1-0.7
						s1.7,0.2,2.5-0.4c0.8-0.6,2,0.3,3.2-1c2,0.9,4.3,2.6,10.1,1.3c3.3-0.7,4.3,0.6,4.3,2.5c0,1.3-0.6,1.4-1.1,1.4
						c-1.8,0.1-2.6-0.9-3.3-0.5c-0.5,0.2-0.8,1.2-0.1,1.5c-0.6,0.4-0.5,1-0.2,1.3c0.3,0.3,1.1,0,1.6-0.3c-0.7,0.4-1.4,1-1,1.8
						c0.2,0.4,0.8,0.8,1.4-0.1C378.5,168.3,379.6,167.5,380.2,167.6L380.2,167.6z M343.8,148.3c-1.7-0.8-2.2-0.9-1.8,0.8
						c0.2,0.7,0.6,1.7,1,2.2C343,150.6,343.2,148.6,343.8,148.3z"/>
					<path style="fill:#F9DD16;stroke:#000000;stroke-width:1.500000e-02;" d="M349,148.3c1.7-0.8,2.2-0.9,1.8,0.8
						c-0.2,0.8-0.5,1.6-1,2.2C349.9,150.6,349.6,148.6,349,148.3z"/>
					<path style="fill:#F9DD16;stroke:#000000;stroke-width:1.500000e-02;" d="M346.4,147.1c3.1,0,3.5,1.8,3.5,4.1
						c0,2.5-1.1,1.6-1.7,4.8c-0.2,1.2-1,1.3-1.8,1.3s-1.6-0.1-1.8-1.3c-0.6-3.2-1.7-2.3-1.7-4.8C342.9,149,343.3,147.1,346.4,147.1z
						"/>
					<path style="fill:#F9DD16;stroke:#000000;stroke-width:1.500000e-02;" d="M338.4,156.2c-0.8-0.6-1.3-0.2-1.6-0.1
						c1,0.3,1.1,2,3.4,2.8c-0.5-0.2-0.8,0.2-1.3-0.1c1,0.9,2.1,2.1,4.4,2.1c1.3,0,0.4,0.8-0.5,0.4c0.9,1.1,2.6,0.2,3.7,2.2
						c0.2-1.6-2-4.1-1-5.9c-3.2-0.2-3.4-2.4-5.3-4.1c-1.5-1.4-1.6-2.9-2.3-5.6c-0.3-1.2-1.4-2-2.1-1.7c-0.6,0.2-0.8,0.9-0.3,1.3
						c0.5,0.5,1.1,0.5,1.2,1.7c-0.6-0.9-1.6-1.3-2-0.7c-0.3,0.3-0.2,1.2,0.4,1.2c1,0.1,0.3,1.3,1.4,2.4c-1-1.3-1.8-1.5-2.3-0.7
						c-0.3,0.4,0,1.2,0.7,1.1C335.8,152.4,336.9,155.4,338.4,156.2z M364,167.5c-0.5,0.1-0.4,1.1-1,1.2c1.6,0,2.4-0.5,3.2-1.2
						c-0.4,0.3-0.5,0.9-0.5,1.3c0.9-0.9,2.9-1,4-0.7c1.1,0.3,1.2-0.4,1.6-1.2c0.4-0.9-0.1-1.3-0.7-2c-0.5-0.7-0.6-1.6-0.5-3.1
						c-2.8-4.7-7.9-2.4-8-0.4c1.8,2.6,2.1,2.3,3.6,2.7c1.5,0.4,2.5,0.4,1.4,1.4c-0.4,0.4-1.8,0.2-3,0.3c-2.6,0.1-3.7-2.2-4.5-1
						c-0.6,1,0,1.5,1.3,1.4c-0.9,0-2.1,0-1.8,1c0.3,1.7,1.7-0.3,2.2,0.4c-0.4-0.1-1.1,0.2-1.1,0.7c0,0.5,1,1.2,2.1,0.1
						C362.7,167.8,363.4,167.5,364,167.5z"/>
					<path style="fill:#F9DD16;stroke:#000000;stroke-width:1.500000e-02;" d="M366.2,160.3c-0.9-0.5-1.9-0.6-2.8-0.4 M352.4,159.8
						c-0.8,2-0.3,3-0.2,4 M344.3,150.2c0.5,0.3,0.8-0.6,1.6,0.4c-0.2-0.3-0.5,0.7-1.1,0.1 M348.5,150.2c-0.5,0.3-0.8-0.6-1.6,0.4
						c0.2-0.3,0.5,0.7,1.1,0.1"/>
					<path style="fill:#F9DD16;stroke:#000000;stroke-width:1.500000e-02;" d="M346.9,150.6c-0.2,0.2-0.2-0.1-0.1,0.7
						c0.3,1.6,0.5,2.3-0.5,2.3c-1.1,0-0.7-0.7-0.5-2.3c0.1-0.9,0.1-0.5-0.1-0.7"/>
				</g>
				<path style="fill:#FF0016;stroke:#000000;stroke-width:8.000000e-03;" d="M346.4,156.7c0.8,0,1.3,0,1.2-1.5
					c0-0.6,0.6-0.8,0.4-1.8c0.2,1.2-1.5,1.1-1.5,0.5c0,0.5-1.8,0.6-1.6-0.5c-0.2,1,0.4,1.2,0.4,1.8
					C345.1,156.7,345.6,156.7,346.4,156.7z M345.7,153.7l-2-0.7 M345.7,153.8l-2.3,0 M345.7,154l-1.9,0.6 M347.2,153.7l2-0.7
					 M347.2,153.8l2.3,0 M347.2,154l1.9,0.6"/>
				<path style="fill:#0051BA;stroke:#000000;stroke-width:2.000000e-03;" d="M335.9,146.2c-0.6-0.9-2.1-0.1-2.1,1
					c0.5-0.7,1.3,0.3,1.8,0.1C335.9,147.1,336.2,146.6,335.9,146.2z M335.2,148.3c-0.6-0.9-2.1-0.1-2.1,1c0.5-0.7,1.3,0.3,1.8,0.1
					C335.2,149.3,335.4,148.7,335.2,148.3L335.2,148.3z M334.8,151.2c-0.7-0.8-2.1,0.1-2,1.3c0.4-0.8,1.3,0.1,1.7-0.1
					C334.9,152.2,335.1,151.6,334.8,151.2z M335.5,160.2c-0.7-0.7-2,0.4-1.9,1.5c0.4-0.8,1.3,0,1.7-0.4
					C335.6,161.1,335.8,160.5,335.5,160.2z M335.5,162.2c-0.9-0.4-1.8,1.2-1.4,2.2c0.1-0.9,1.2-0.6,1.5-1
					C335.8,163,335.8,162.3,335.5,162.2z M336.6,163.6c-0.9-0.4-1.8,1.2-1.4,2.2c0.1-0.9,1.3-0.6,1.5-1
					C337,164.4,337,163.8,336.6,163.6L336.6,163.6z M359.7,166.5c-0.9-0.4-1.8,1.2-1.4,2.2c0.1-1,1.3-0.6,1.5-1
					C360,167.3,360,166.6,359.7,166.5z M360.8,167.8c-0.9-0.3-1.7,1.4-1.2,2.4c0-1,1.2-0.7,1.4-1.2
					C361.3,168.6,361.2,167.9,360.8,167.8L360.8,167.8z M360,164.6c-0.8-0.6-2,0.8-1.7,1.9c0.3-0.9,1.3-0.3,1.7-0.7
					C360.3,165.5,360.3,164.8,360,164.6z M376.4,166.9c-0.9-0.3-1.7,1.4-1.2,2.4c0-1,1.2-0.7,1.4-1.2
					C376.9,167.6,376.8,167,376.4,166.9z M376.4,165.1c-0.8-0.6-1.9,0.9-1.6,1.9c0.2-0.9,1.3-0.3,1.7-0.8
					C376.7,166,376.8,165.3,376.4,165.1z M377.1,168.5c-0.9-0.2-1.6,1.5-1.1,2.4c0-1,1.2-0.8,1.4-1.3
					C377.6,169.2,377.5,168.6,377.1,168.5z M346.5,155.8c0.6,0,0.8,0.2,0.8,1.5c0,2.7,0,3.9-0.7,3.9c-0.7,0-0.7-1.1-0.7-3.1
					c0-1,0-1.6-0.2-1.5C345.7,155.9,346,155.8,346.5,155.8z"/>
			</g>
		</g>
	</g>
</g>
</svg>
