<?xml version="1.0" encoding="utf-8"?>
<!-- Generator: Adobe Illustrator 25.2.1, SVG Export Plug-In . SVG Version: 6.00 Build 0)  -->
<svg version="1.1" id="Layer_1" xmlns="http://www.w3.org/2000/svg" xmlns:xlink="http://www.w3.org/1999/xlink" x="0px" y="0px"
	 viewBox="0 0 720 480" style="enable-background:new 0 0 720 480;" xml:space="preserve">
<g>
	<path style="fill:#C81010;" d="M0.1,0H720v259.2H0.1V0z"/>
	<g id="bird">
		<path id="bird_outline" style="fill:#F8D000;stroke:#000000;stroke-width:0.46;stroke-miterlimit:22.9256;" d="M371.2,43.7
			c-22.8-12.6-36.7-14.9-52.3-15.2c-22.6,0.2-33.3,13.2-54.8,14.4c8.5,12.3,39.4,15.3,52.5-0.8c19.4,2.7,23.8,9.7,29,18.4
			c-8.1-1.7-17.4-4.8-25.1,6.6c-6.5,1.8-9.5,0-20.7,0c-5.2,0-7,3.4-6.9,9.6c3.4-6.2,26.6-2.6,32.3,0c4.4,2,9,10.1,14.6,11.4
			c14.6,3.5,35.4-6.7,54.7-13.7l41.6-7.4h-28.6l35.7-9.6h-38.9c-0.8-1.3-2.8-2.9-4.4-4.3c10-8.6,18.8-24.3,21.1-31.9
			c18-0.2,29.6-2.5,43.6-6.9C372.5,0.9,393.5,15.6,371.2,43.7z"/>
		<path id="eye" d="M328.6,63.8c1,0,1.8,1.1,1.8,2.4s-0.8,2.4-1.8,2.4c-1,0-1.8-1.1-1.8-2.4S327.6,63.8,328.6,63.8z"/>
		<path id="eye_outline" style="fill:none;stroke:#000000;stroke-width:0.15;stroke-miterlimit:22.926;" d="M328.6,63.8
			c1,0,1.8,1.1,1.8,2.4s-0.8,2.4-1.8,2.4c-1,0-1.8-1.1-1.8-2.4S327.6,63.8,328.6,63.8z"/>
		<path style="fill:none;stroke:#000000;stroke-width:0.46;stroke-miterlimit:22.9256;" d="M352.6,61.3c0,0-7.5,5.9-12.5,5.9
			 M394.4,74.6c0,0,6.8-7.4,13.1-7.4 M285.3,39.4c0,0,5.6-3.9,8.2-4.9 M308.4,33.8c0,0,8.8-5.1,18.6-4.8 M332.3,35
			c0,0,11.6-2.6,22.3,0.6 M345.6,38.8c0,0,9.6-2.2,18.8,1.3 M355.4,42.7c0,0,9.8,0.2,14.6,2.7 M264.1,43c0,0,13.7,5,24.9-2.2
			 M265.8,45.2c0,0,17.8,5.9,26-5 M271.8,49.3c0,0,13.4,5.8,24-9.2 M284.2,52.9c0,0,10.8-4.2,14.9-12.7 M292.7,53.2
			c0,0,7.3-6.8,9.9-12.8 M386.4,45.6c0,0,2.8,4.8,13.5,7.8 M388.3,43.3c0,0,4.6,6.2,14.2,7.7 M390.6,40.4c0,0,4.7,5.4,14.8,7.4
			 M392.9,37.3c0,0,7.1,6.4,15.3,7.1 M395.7,33.3c0,0,5,6.3,14.9,7.8 M397.8,30.1c0,0,5.9,6.8,15.1,7.7 M399.9,26.7
			c0,0,3.6,5.6,15.4,7 M402,23.1c0,0,4,5.9,15.3,7.2 M403.6,20.1c0,0,7,7.1,15.2,7 M405,17.4c0,0,9.3,7.5,14.9,7.2 M406.7,13.9
			c0,0,7.4,6.2,14.3,7.5 M374.9,48.6c0,0,3,3,5.8,2.9 M376.6,46.4c0,0,2.6,3,6.1,2.9 M378.7,43.6c0,0,2.9,3.7,6.5,3 M380.7,41
			c0,0,3.5,3.2,6.7,3.1 M382.9,37.9c0,0,2.6,3,6.7,3.3 M384.9,34.6c0,0,3.1,3.6,6.9,3.8 M386.9,32.2c0,0,3,2.5,7.2,3 M388.8,29.4
			c0,0,4,1.9,7.7,2.4 M391,26c0,0,2.8,2.6,7.7,2.4 M392.9,22.6c0,0,3.3,2.9,7.5,3 M394.3,19.3c0,0,4.4,3.3,8.2,2.6 M395.9,15.4
			c0,0,2.8,4.1,8,3.9 M397.1,13.7c0,0,5,3.8,8.4,2.8 M399.2,11.5c0,0,3.8,3.1,7.2,3 M403,10c0,0,6.7,4.6,15.9-0.4 M408.8,13.3
			c0,0,13.6,4.2,19.5-3.1 M419.5,14.4c0,0,9.4,1.3,19.9-3.1 M425.7,14.4c0,0,14.2,3.8,39,0.1 M296.6,52.7c0,0,6.4-5.6,9-12.1
			 M301.4,51.7c0,0,5.1-6.7,6.6-10.8 M306.1,50c0,0,4.2-5.1,5.1-8.6 M285.5,41.1c0,0,9.1-2.7,31,1.1 M294,36.2c0,0,7.7-5,14.5-6.5
			 M301.6,34.1c0,0,5.6-3.5,13.9-5.3 M314.3,33.4c0,0,7.7-4.4,17.2-4 M324.1,33.5c0,0,10.6-3.2,20.4-1.4 M352.6,40.5
			c0,0,8.1-0.5,17.4,2.6 M338.7,36.1c0,0,11.6-0.8,19.6,1.1 M410.5,13.7c0,0,4,4.7,15.2,7.6 M416.8,14.5c0,0,6.3,4.8,16.2,6.4
			 M423.4,14.5c0,0,8.8,5.1,18.1,5.5 M433.2,15.6c0,0,9,2.9,20.1,2.1 M319.5,33.2c0,0,6.1-3.4,16.9-3.1 M359.6,45.5
			c0,0,3.7-0.6,8.2,2.3"/>
		<path style="fill:none;stroke:#000000;stroke-width:0.46;stroke-miterlimit:22.9256;" d="M345.5,60.6c2.5,0.5,4.9,0.9,7.1,0.7
			c8.5-6.3,14.4-12.1,18.6-17.5"/>
	</g>
	<path style="fill:#F8D000;stroke:#000000;stroke-width:0.46;stroke-miterlimit:22.926;" d="M422.9,227.3l40.8-44L413,200.4l0,0
		c0,0,0,0,0,0l0,0l26.2-60.8l-42.8,40.6l0,0c0,0,0,0,0,0l0,0l8.1-69.4l-28.9,58.5l-11.2-68.6l-11.2,68.6h0c0,0,0,0-0.1,0l0,0
		l-28.9-58.5l8.1,69.4l0,0c0,0,0,0,0,0l0,0l-42.8-40.6l26.2,60.8L265,183.3l40.8,44c0,0,0,0,0,0l-52,8.6l49.9,21.3l0,0
		c2.8,41.6,28.9,74.1,60.6,74.1c31.7,0,57.8-32.6,60.6-74.1l0,0.1l49.9-21.3L422.9,227.3z M315.8,200.4L315.8,200.4
		C315.8,200.4,315.8,200.4,315.8,200.4L315.8,200.4z M375.5,169.4L375.5,169.4L375.5,169.4C375.6,169.4,375.5,169.4,375.5,169.4z
		 M422.9,227.3L422.9,227.3L422.9,227.3C422.9,227.3,422.9,227.3,422.9,227.3z"/>
	<path style="fill:#183070;" d="M0.1,259.2H720V480H0.1V259.2z"/>
	<path id="wave" style="fill:none;stroke:#FFFFFF;stroke-width:24;" d="M-36.8,259.2c23.9-12.8,47.8-12.8,71.6,0
		c23.9,12.8,47.8,12.8,71.6,0c23.9-12.8,47.8-12.8,71.6,0c23.9,12.8,47.8,12.8,71.6,0c23.9-12.8,49-12.8,75.2,0
		c26.3,12.8,52.5,12.8,78.8,0c26.3-12.8,51.3-12.8,75.2,0c23.9,12.8,47.8,12.8,71.6,0c23.9-12.8,47.8-12.8,71.6,0
		c23.9,12.8,47.8,12.8,71.6,0c23.9-12.8,47.8-12.8,71.6,0"/>
	<g>
		<path id="wave_1_" style="fill:none;stroke:#FFFFFF;stroke-width:24;" d="M-36.8,336.6c23.9-12.8,47.8-12.8,71.6,0
			c23.9,12.8,47.8,12.8,71.6,0c23.9-12.8,47.8-12.8,71.6,0c23.9,12.8,47.8,12.8,71.6,0c23.9-12.8,49-12.8,75.2,0
			c26.3,12.8,52.5,12.8,78.8,0c26.3-12.8,51.3-12.8,75.2,0c23.9,12.8,47.8,12.8,71.6,0c23.9-12.8,47.8-12.8,71.6,0
			c23.9,12.8,47.8,12.8,71.6,0c23.9-12.8,47.8-12.8,71.6,0"/>
	</g>
	<g>
		<path id="wave_2_" style="fill:none;stroke:#FFFFFF;stroke-width:24;" d="M-36.8,413.4c23.9-12.8,47.8-12.8,71.6,0
			c23.9,12.8,47.8,12.8,71.6,0c23.9-12.8,47.8-12.8,71.6,0c23.9,12.8,47.8,12.8,71.6,0c23.9-12.8,49-12.8,75.2,0
			c26.3,12.8,52.5,12.8,78.8,0c26.3-12.8,51.3-12.8,75.2,0c23.9,12.8,47.8,12.8,71.6,0c23.9-12.8,47.8-12.8,71.6,0
			c23.9,12.8,47.8,12.8,71.6,0c23.9-12.8,47.8-12.8,71.6,0"/>
	</g>
</g>
</svg>
