<?xml version="1.0" encoding="utf-8"?>
<!-- Generator: Adobe Illustrator 25.2.1, SVG Export Plug-In . SVG Version: 6.00 Build 0)  -->
<svg version="1.1" id="Layer_1" xmlns="http://www.w3.org/2000/svg" xmlns:xlink="http://www.w3.org/1999/xlink" x="0px" y="0px"
	 viewBox="0 0 720 480" style="enable-background:new 0 0 720 480;" xml:space="preserve">
<g>
	<rect style="fill:#3A75C4;" width="720" height="480"/>
	<rect style="fill:#CE1126;" width="720" height="360"/>
	<rect style="fill:#FFFFFF;" width="720" height="240"/>
	<rect style="fill:#FFC61E;" width="720" height="120"/>
	<path style="fill:#3D8E33;" d="M0,480l360-240L0,0V480z"/>
	<ellipse style="fill:#FFFFFF;" cx="122.4" cy="240" rx="97.2" ry="108"/>
	<ellipse style="fill:#3D8E33;" cx="165.6" cy="240" rx="97.2" ry="108"/>
	<path id="star" style="fill:#FFFFFF;" d="M144,142.7l10.6,36.1l-27.7-22.3h34.2l-27.7,22.3L144,142.7z"/>
	<g>
		<path id="star_1_" style="fill:#FFFFFF;" d="M144,194.3l10.6,36.1l-27.7-22.3h34.2l-27.7,22.3L144,194.3z"/>
	</g>
	<g>
		<path id="star_2_" style="fill:#FFFFFF;" d="M144,245.8l10.6,36.1l-27.7-22.3h34.2l-27.7,22.3L144,245.8z"/>
	</g>
	<g>
		<path id="star_3_" style="fill:#FFFFFF;" d="M144,297.3l10.6,36.1l-27.7-22.3h34.2l-27.7,22.3L144,297.3z"/>
	</g>
</g>
</svg>
