<?xml version="1.0" encoding="utf-8"?>
<!-- Generator: Adobe Illustrator 25.2.1, SVG Export Plug-In . SVG Version: 6.00 Build 0)  -->
<svg version="1.1" id="Layer_1" xmlns="http://www.w3.org/2000/svg" xmlns:xlink="http://www.w3.org/1999/xlink" x="0px" y="0px"
	 viewBox="0 0 720 480" style="enable-background:new 0 0 720 480;" xml:space="preserve">
<g>
	<rect style="fill:#00AFCA;" width="720" height="480"/>
	<g id="sun" transform="translate(1080.4716,420)">
		<ellipse style="fill:#FEC50C;" cx="-691.5" cy="-218.4" rx="48.4" ry="64.6"/>
		<g id="r16">
			<g id="r4">
				<path id="r" style="fill:#FEC50C;" d="M-691.5-291.8c2.9,0,4-2.4,4-5.3c0-3.8-4-22.1-4-22.1s-4,18.3-4,22.1
					C-695.5-294.2-694.4-291.8-691.5-291.8z"/>
				<g transform="rotate(90)">
					<path id="r_1_" style="fill:#FEC50C;" d="M-636.5-218.4c0,3.8,1.8,5.3,4,5.3c2.9,0,16.6-5.3,16.6-5.3s-13.7-5.3-16.6-5.3
						C-634.6-223.7-636.5-222.2-636.5-218.4z"/>
				</g>
				<g transform="rotate(180)">
					<path id="r_2_" style="fill:#FEC50C;" d="M-691.5-145c-2.9,0-4,2.4-4,5.3c0,3.8,4,22.1,4,22.1s4-18.3,4-22.1
						C-687.5-142.6-688.6-145-691.5-145z"/>
				</g>
				<g transform="rotate(270)">
					<path id="r_3_" style="fill:#FEC50C;" d="M-746.5-218.4c0-3.8-1.8-5.3-4-5.3c-2.9,0-16.6,5.3-16.6,5.3s13.7,5.3,16.6,5.3
						C-748.4-213.1-746.5-214.6-746.5-218.4z"/>
				</g>
			</g>
			<g transform="rotate(22.5)">
				<g id="r4_1_">
					<path id="r_4_" style="fill:#FEC50C;" d="M-670.4-286.2c2.7,1.4,4.4-0.2,5.2-2.9c1.1-3.5,2.7-22.5,2.7-22.5s-8.9,14.9-10,18.4
						C-673.4-290.5-673.1-287.7-670.4-286.2z"/>
					<g transform="rotate(90)">
						<path id="r_5_" style="fill:#FEC50C;" d="M-640.6-190.3c-1.1,3.6,0.2,5.8,2.2,6.9c2.7,1.5,16.8,3.6,16.8,3.6
							s-11.2-11.9-13.8-13.3C-637.4-194.3-639.5-193.9-640.6-190.3z"/>
					</g>
					<g transform="rotate(180)">
						<path id="r_6_" style="fill:#FEC50C;" d="M-712.6-150.6c-2.7-1.4-4.4,0.2-5.2,2.9c-1.1,3.5-2.7,22.5-2.7,22.5
							s8.9-14.9,10-18.4C-709.6-146.3-709.9-149.1-712.6-150.6z"/>
					</g>
					<g transform="rotate(270)">
						<path id="r_7_" style="fill:#FEC50C;" d="M-742.4-246.5c1.1-3.6-0.2-5.8-2.2-6.9c-2.7-1.5-16.8-3.6-16.8-3.6
							s11.2,11.9,13.8,13.3C-745.6-242.5-743.5-242.9-742.4-246.5z"/>
					</g>
				</g>
			</g>
			<g transform="rotate(45)">
				<g id="r4_2_">
					<path id="r_8_" style="fill:#FEC50C;" d="M-652.6-270.3c2.1,2.7,4.1,2,5.6,0c2-2.7,8.9-19.4,8.9-19.4s-12.5,9.2-14.5,11.9
						C-654.1-275.8-654.6-273-652.6-270.3z"/>
					<g transform="rotate(90)">
						<path id="r_9_" style="fill:#FEC50C;" d="M-652.6-166.5c-2,2.7-1.5,5.5,0,7.5c2,2.7,14.5,11.9,14.5,11.9s-6.9-16.7-8.9-19.4
							C-648.5-168.5-650.5-169.2-652.6-166.5z"/>
					</g>
					<g transform="rotate(180)">
						<path id="r_10_" style="fill:#FEC50C;" d="M-730.4-166.5c-2.1-2.7-4.1-2-5.6,0c-2,2.7-8.9,19.4-8.9,19.4s12.5-9.2,14.5-11.9
							C-728.9-161-728.4-163.8-730.4-166.5z"/>
					</g>
					<g transform="rotate(270)">
						<path id="r_11_" style="fill:#FEC50C;" d="M-730.4-270.3c2-2.7,1.5-5.5,0-7.5c-2-2.7-14.5-11.9-14.5-11.9s6.9,16.7,8.9,19.4
							C-734.5-268.3-732.5-267.6-730.4-270.3z"/>
					</g>
				</g>
			</g>
			<g transform="rotate(67.5)">
				<g id="r4_3_">
					<path id="r_12_" style="fill:#FEC50C;" d="M-640.6-246.5c1.1,3.5,3.2,3.9,5.2,2.8c2.7-1.5,13.8-13.3,13.8-13.3
						s-14.2,2.1-16.8,3.6C-640.5-252.3-641.7-250-640.6-246.5z"/>
					<g transform="rotate(90)">
						<path id="r_13_" style="fill:#FEC50C;" d="M-670.4-150.6c-2.6,1.5-3,4.3-2.1,6.9c1.1,3.5,10,18.4,10,18.4s-1.6-18.9-2.7-22.5
							C-666.1-150.4-667.8-152.1-670.4-150.6z"/>
					</g>
					<g transform="rotate(180)">
						<path id="r_14_" style="fill:#FEC50C;" d="M-742.4-190.3c-1.1-3.5-3.2-3.9-5.2-2.8c-2.7,1.5-13.8,13.3-13.8,13.3
							s14.2-2.1,16.8-3.6C-742.5-184.5-741.3-186.8-742.4-190.3z"/>
					</g>
					<g transform="rotate(270)">
						<path id="r_15_" style="fill:#FEC50C;" d="M-712.6-286.2c2.6-1.5,3-4.3,2.1-6.9c-1.1-3.5-10-18.4-10-18.4s1.6,18.9,2.7,22.5
							C-716.9-286.4-715.2-284.7-712.6-286.2z"/>
					</g>
				</g>
			</g>
		</g>
		<g transform="rotate(11.25)">
			<g id="r16_1_">
				<g id="r4_4_">
					<path id="r_16_" style="fill:#FEC50C;" d="M-680.8-290.4c2.8,0.7,4.2-1.4,4.7-4.2c0.6-3.8-0.6-22.7-0.6-22.7
						s-6.6,16.9-7.1,20.7C-684.3-293.8-683.6-291.1-680.8-290.4z"/>
					<g transform="rotate(90)">
						<path id="r_17_" style="fill:#FEC50C;" d="M-637.5-204.1c-0.5,3.8,1,5.7,3.1,6.2c2.8,0.7,17-0.9,17-0.9s-12.7-8.7-15.5-9.5
							C-634.9-208.8-637-207.8-637.5-204.1z"/>
					</g>
					<g transform="rotate(180)">
						<path id="r_18_" style="fill:#FEC50C;" d="M-702.2-146.4c-2.8-0.7-4.2,1.4-4.7,4.2c-0.6,3.8,0.6,22.7,0.6,22.7
							s6.6-16.9,7.1-20.7C-698.7-143-699.4-145.7-702.2-146.4z"/>
					</g>
					<g transform="rotate(270)">
						<path id="r_19_" style="fill:#FEC50C;" d="M-745.5-232.7c0.5-3.8-1-5.7-3.1-6.2c-2.8-0.7-17,0.9-17,0.9s12.7,8.7,15.5,9.5
							C-748.1-228-746-229-745.5-232.7z"/>
					</g>
				</g>
				<g transform="rotate(22.5)">
					<g id="r4_5_">
						<path id="r_20_" style="fill:#FEC50C;" d="M-660.9-279.4c2.4,2.1,4.3,0.9,5.5-1.5c1.6-3.2,5.9-21.3,5.9-21.3
							s-10.9,12.3-12.5,15.5C-663.2-284.4-663.3-281.6-660.9-279.4z"/>
						<g transform="rotate(90)">
							<path id="r_21_" style="fill:#FEC50C;" d="M-645.7-177.6c-1.6,3.2-0.7,5.8,1.1,7.4c2.4,2.1,16,7.9,16,7.9
								s-9.2-14.6-11.6-16.7C-642-180.7-644.1-180.8-645.7-177.6z"/>
						</g>
						<g transform="rotate(180)">
							<path id="r_22_" style="fill:#FEC50C;" d="M-722.1-157.4c-2.4-2.1-4.3-0.9-5.5,1.5c-1.6,3.2-5.9,21.3-5.9,21.3
								s10.9-12.3,12.5-15.5C-719.8-152.4-719.7-155.2-722.1-157.4z"/>
						</g>
						<g transform="rotate(270)">
							<path id="r_23_" style="fill:#FEC50C;" d="M-737.3-259.2c1.6-3.2,0.7-5.8-1.1-7.4c-2.4-2.1-16-7.9-16-7.9s9.2,14.6,11.6,16.7
								C-741-256.1-738.9-256-737.3-259.2z"/>
						</g>
					</g>
				</g>
				<g transform="rotate(45)">
					<g id="r4_6_">
						<path id="r_24_" style="fill:#FEC50C;" d="M-645.7-259.2c1.6,3.2,3.7,3,5.5,1.4c2.4-2.1,11.6-16.7,11.6-16.7s-13.6,5.8-16,7.9
							C-646.4-264.9-647.3-262.4-645.7-259.2z"/>
						<g transform="rotate(90)">
							<path id="r_25_" style="fill:#FEC50C;" d="M-660.9-157.4c-2.4,2.2-2.3,5-1.1,7.4c1.6,3.2,12.5,15.5,12.5,15.5
								s-4.3-18.1-5.9-21.3C-656.6-158.3-658.5-159.5-660.9-157.4z"/>
						</g>
						<g transform="rotate(180)">
							<path id="r_26_" style="fill:#FEC50C;" d="M-737.3-177.6c-1.6-3.2-3.7-3-5.5-1.4c-2.4,2.1-11.6,16.7-11.6,16.7
								s13.6-5.8,16-7.9C-736.6-171.9-735.7-174.4-737.3-177.6z"/>
						</g>
						<g transform="rotate(270)">
							<path id="r_27_" style="fill:#FEC50C;" d="M-722.1-279.4c2.4-2.2,2.3-5,1.1-7.4c-1.6-3.2-12.5-15.5-12.5-15.5
								s4.3,18.1,5.9,21.3C-726.4-278.5-724.5-277.3-722.1-279.4z"/>
						</g>
					</g>
				</g>
				<g transform="rotate(67.5)">
					<g id="r4_7_">
						<path id="r_28_" style="fill:#FEC50C;" d="M-637.5-232.7c0.6,3.8,2.6,4.7,4.7,4.1c2.8-0.7,15.5-9.5,15.5-9.5s-14.2-1.6-17-0.9
							C-636.5-238.4-638.1-236.5-637.5-232.7z"/>
						<g transform="rotate(90)">
							<path id="r_29_" style="fill:#FEC50C;" d="M-680.8-146.4c-2.8,0.8-3.5,3.4-3.1,6.3c0.6,3.8,7.1,20.7,7.1,20.7
								s1.2-19,0.6-22.7C-676.5-145-677.9-147.2-680.8-146.4z"/>
						</g>
						<g transform="rotate(180)">
							<path id="r_30_" style="fill:#FEC50C;" d="M-745.5-204.1c-0.6-3.8-2.6-4.7-4.7-4.1c-2.8,0.7-15.5,9.5-15.5,9.5
								s14.2,1.6,17,0.9C-746.5-198.4-744.9-200.3-745.5-204.1z"/>
						</g>
						<g transform="rotate(270)">
							<path id="r_31_" style="fill:#FEC50C;" d="M-702.2-290.4c2.8-0.8,3.5-3.4,3.1-6.3c-0.6-3.8-7.1-20.7-7.1-20.7
								s-1.2,19-0.6,22.7C-706.5-291.8-705.1-289.6-702.2-290.4z"/>
						</g>
					</g>
				</g>
			</g>
		</g>
	</g>
	<g id="bird">
		<path style="fill:#FEC50C;" d="M380.3,341.5c-1.3,0.1-2.6,0.3-3.8,0.8c-1.7,0.3-3.3,1.1-5,1.5l-0.7,0.1l-1.1,0.1
			c0.1,0.4,0.1,0.8,0.1,1.2c0,0.4,0,0.8-0.1,1.2c-0.1,0.3-0.3,0.8-0.5,1c-0.2,0.4-0.5,0.7-0.8,0.8c-0.3,0.2-0.6,0.3-0.9,0.3
			c-0.3,0-0.7,0-1-0.2c-0.3-0.1-0.6-0.4-0.9-0.7c-0.3,0.1-0.7,0.2-1,0.2c-0.3,0-0.6,0-0.9,0c-0.3-0.1-0.7-0.3-1-0.4
			c-0.3-0.2-0.6-0.4-0.9-0.7c-1.2,1-2.6,1.9-3.3,3.6c-0.4,0.8-0.5,1.6-0.6,2.6c-0.1,1.1,0.2,2.3,0.5,3.3c0.1,0.3,0.2-1.1,0.6-1.3
			c0.7-0.8,1.5-1.3,2.4-1.6c0.7-0.5,0.6,0,0.3,0.8c-0.1,0.4-0.5,1.9,0.1,1.2c2.4-1.4,5.1-1.7,7.8-2c3.8-0.5,7.6-0.6,11.5-0.7
			c3.6,0.1,7.2,0.1,10.8,0.3c1.7,0.1,3.4,0.6,5.1,0.2c0.4-0.1,1-0.2,1.3-0.5c-0.8-0.6-1.7-0.6-2.5-0.8h-6.9
			c-1.9-0.3-3.9-0.3-5.7-1.2c-0.5-0.3-0.9-0.9-1.4-0.2c-0.7,0.3-1.4,0.5-2.1,0.6c-1.3,0.1-2.5-0.2-3.7-0.8c0.8-1.6,1.8-2.9,2.8-4.4
			c-0.7-0.2-1.5-0.4-2.2-0.6C377.8,344.1,379.1,342.8,380.3,341.5L380.3,341.5z"/>
		<path style="fill:#FEC50C;" d="M436.4,358.1c-2.6,2.1-4.6-1.6-6.8-2.7c-1.6,1.1-1.7,4.9-3.2,6.7c-1.7,2.6-3.9-0.7-3.7-3.3
			c-2.1,2.3-3.1,7.6-6.5,6.9c-1.6-1.7-2.8-5.4-4-1.2c-1,2-3.6,4.9-5,1.8c-0.4-2.7-1.4-5.9-2.5-1.6c-0.8,3-3.2,5.3-5.5,3.9
			c-1.3-1.4,1-6.6-0.6-6.2c-2.4,2.2-3.9,7.5-7.3,7.1c-1.3-2,0.8-5.3-0.7-7.6c-1.7,2.9-3.6,7.2-6.6,7.6c-1.4-1.6,0.1-6-0.9-6.7
			c-3,2.4-6.3,6.8-10.1,5.4c1.5-7.6,7.7-10.3,13-10.9c9-1.5,18.5,1.2,27.2-3.1c1.4-1.1,4.8-2.8,3.6-5.4c-1.1-2.1,2.8-1.3,3.2-3.7
			c-0.2-3.1,1.8-2.7,3.7-2.9c8.8-0.5,17.4,2,26.2,2.4c0.7,5.7-4.1,9.7-7.9,7.9c-1.8,0.4-4.5-5.6-4-1.2
			C437.7,353.6,438,356.6,436.4,358.1 M361.7,346.4c2,2.5,3.5-0.5,5.4-1.5c6.4-2.9,11.9-8,17.4-13.1c3.3-3.7,6.2-8.4,10.7-9.6
			c8.7-3.5,17.9-3.1,26.7-6.3c6.6-12.1,17.9-16.5,27.4-23.4c2.1-0.9,2.9-3.2,3.6-5.8c3.6-7.6,8.5-14.3,14.3-18.9
			c2.8-2,6-3.2,9.2-2.2c-0.2,4.9-2.4,9.3-4.9,12.8c2.1-0.1,3.9-1.8,6-1.7c0.7,5.1-3.4,7.7-5.6,10.9c1.2,0.4,5.9,0.8,3.3,2.5
			c-3.2,3-6.9,5.1-9.9,8.5c2.8,0.7,3.1,1.4,0.3,2.8c-1.5,1.4-4.4,1.9-4.7,4.5c2.1,1.7-1,3.4-2.1,4c-2.2,0.7-4.6,2-1.6,4.3
			c-1.1,2.3-3.6,2.8-5.5,2.5c0.6,2.6,1.5,5.5-1,6.6c-5.6,5.7-12.2,9.8-19.3,10.7c8.8,0.9,17.9-1.3,25.5-7.7c1-1.6,6.2-3.3,3.3-4.6
			c-1.4-0.8-4.3-1.6-4.5-3c4.1-3.4,9.2-2.2,13.6-4.2c0.1-1.9-3.3-1.4-4.6-1.8c-3.1-0.3-2.9-1.4,0.1-1.8c3.8-1.3,8-1.6,11.2-4.8
			c-2.6-1.6-5.8-0.2-8.5-1.5c4.6-2.7,10.1-3,14.3-7.1c1.9-2.8-2.4-1.9-3.7-1.9c-2.6,0.6-3.8-1-0.8-2.5c5-4.9,11.3-8.1,14.8-15.2
			c0.8-1.6,2-6.4-0.7-4.7c-3.5,1.5-6.6,6.8-10.5,5.2c7.8-8.1,15.3-17.3,20.6-28.5c0.3-3.2-3.5-3.6-4.5-1c-5,6.5-9.6,14.1-16,18.1
			c6.2-7.9,11.3-17.3,15.7-27.1c1-2.9,3.5-6.4,2.1-9.6c-2.2-2.5-5-0.2-6.2,2.8c-3.9,6.8-6.9,14.7-11.9,20.3c4.4-11.2,9-23.1,9.1-36
			c0-2.7-0.4-6.6-3.1-6.1c-2.1,0.5-1.6,4.8-2.5,7c-1.9,8.8-2.9,18.4-6.9,26.1c0.9-7.2,2.5-14.6,1.3-21.9c-0.6-3.2-4.5-1.8-4,1.4
			c-4.7,31.6-20.6,59.3-41.4,75.3c-9.5,7.2-20.2,11.8-31,13.9c-2.9,0.9-6.1,0.4-8.8,1.7c-6.7,6.9-10.8,18.4-19.4,22
			c-3.8,2.5-8.8,3.1-11.6,7.8C361.8,345.1,361.7,345.8,361.7,346.4"/>
		<path style="fill:#FEC50C;" d="M387.3,314.4c-1.3,3-2,6.6-3.6,9.3c-4.9-5.9-11.9-5.7-18.1-6.1c-5.1-0.4-10.7-1-14.6-5.8
			c-4.2-4.5-7.5-10.4-12.2-14.1c-4.2-1.5-8.5-3.5-11.9-7.3c-7.3-7.9-11.4-19.6-18.6-27.8c-1.4-1.8-3-3.2-4.5-4.7
			c-1.4,0.5-0.8,4.6-2.6,2.5c-1-0.9-3.4-1-3.6,0.3c2.2,3.8,4.4,8.2,4.7,13.1c-1.5,0.2-4.1-0.4-4.9,0.3c2,3.9,4.5,7.4,7.4,10.2
			c-1.4,0.3-4.1,0.1-4.6,0.9c2.8,3.1,5.9,6.3,9.6,7.1c0.8,1.3-1.1,3.9,0.5,5.1c0.9,0.5,3.9,1.3,1.9,2.7c-1.4,1.3-0.9,4.3,0.9,4.2
			c1.2,0.8,3.8,1,4,2.3c-1,1.4-4.2,3-1.5,4.3c2.5,1.9,5.4,3.1,8.3,3.2c-1.5,1.6-3.2,2.6-4.7,4.1c6.7,5.2,14.1,8.7,21.4,12
			c2.9,1.3,5.9,2.5,8.9,3.3c-8.8-0.7-17.3-4.1-25.2-8.9c-4.1-2.4-8.3-4.8-12.6-6.8c1.9-1.3,4-1.6,5.9-2.7c-4-1.1-8.4-1.4-11.9-4.4
			c0.5-1.3,2.6-1.3,3.7-2c2.1-0.7,3.4-1.5,0.4-1.8c-3-1.1-6.5-0.6-9.2-3c0.2-1.5,3-1,4.1-1.6c1.4-0.3,3-0.6,4.2-1.9
			c-4.7-2.6-10.8-0.8-14.5-6.3c-0.8-2.1,2.6-0.4,3.6-0.8c2.5,0,5.2,1.1,7.6-0.3c-6.8-4-14.1-7.7-19.3-15.1c-0.6-1.2-2.3-4.4-0.9-4.8
			c4,0.7,7,6.6,11.3,5.7c0.6-1-2.5-2.7-3.3-4.2c-6.3-7.2-12.4-15.1-16.9-24.5c-0.3-3.2,3.4-3.6,4.4-1.2c4.8,6.2,9.2,13.4,15.2,17.7
			c2.1,1.4-1.2-1.6-1.7-2.7c-5.6-8.6-10.8-17.7-14.7-27.8c-0.7-1.8-1.8-5.1,0.2-6.1c2.1-1.4,4.1,0.5,5.2,2.9
			c4.1,6.9,7.1,15,12.2,20.7c-4.3-11.2-9-23-9.1-35.9c0.1-2.5,0.2-6.3,2.8-6.2c2.1-0.4,1.8,3.2,2.5,5c2.1,9.5,3,19.7,7.2,28.1
			c-0.9-7-2.3-14.3-1.4-21.4c0.2-2.3,2.2-3.1,3.5-1.6c1,3.4,1.3,7.6,2.2,11.3c5.4,24.7,17.6,46.5,33.5,61.1
			c13.1,11.9,28.6,19.1,44.4,20.3C384.4,314.2,385.9,314.3,387.3,314.4"/>
		<ellipse style="fill:#FEC50C;" cx="367.2" cy="346" rx="0.9" ry="1.1"/>
		<ellipse style="fill:#FEC50C;stroke:#00AFCA;stroke-width:0.3813;" cx="367.1" cy="345.8" rx="0.3" ry="0.5"/>
	</g>
	<g id="ornament">
		<g id="oh">
			<g id="oq">
				<path style="fill:#FEC50C;" d="M43.2,35c0,0-3.5-3.9-4.6-1.9c-1.9,3.1,5.8,18.7,5.8,24.2c0,9-4.5,11.5-10.1,12.7
					c-3.7,0.9-9.8-0.4-9.8-0.4c1.1-2.1,1.9-2.7,3.8-2.8c-2.1-1.5-4.3-4.7-4.3-9.7c0-7.7,2.4-10.9,2.4-19.7c0-4.8-3-11-3-11
					c5.3,0.7,7.9,7.2,6.4,12.4c0.8,0.2,1.6-0.1,2.3-0.9c0.4,1.4-0.2,3.1-1,4.6c0.7,0.5,1.1,0.2,2.2-0.1c-0.1,1.5-0.8,3.1-2.4,4.5
					c4.7-1.6,7.6,2.8,7.6,7.4c0,3.5-1.8,6-3.6,6c-0.6,0-1.4-0.3-1.9-0.8c-0.3,1-0.2,2.2,0.2,3.2c-1.3-0.5-2.1-1.5-1.5-3.7
					c-1-0.1-1.8-0.6-2.4-1.4c0.6-0.9,1.4-1.5,2.4-1.4c-0.7-2,0.1-3.1,1.3-4.1c0,0-0.8,4.1,1.2,4.1c0.9,0,1.7-0.4,1.7-2.1
					c0-1.5-1-3.5-3.2-3.4c-2.3,0.1-4.1,2.1-4.1,6.9c0,4.4,2.7,6.6,6.2,6.8c3.2,0.1,5.6-2.2,5.6-6.5c0-5.8-6.3-19.1-6.3-24.3
					c0-3.9,2.6-6.1,5.2-6.1c3.3,0,6.1,4.4,6.1,4.4L43.2,35L43.2,35z"/>
				<path id="op" style="fill:#FEC50C;" d="M43.9,140.2c0,9.7-6.6,14.7-11.7,14.7c-6.9,0-10.6-5.5-10.6-12.8c0-4.1,0.6-6.7,2-10.6
					c0,0,11.4-31.7,15.9-44c0.6-1.5,0.7-3.3,0.7-5.8c0-3.9-2.9-7.2-5.9-7.3c-2.7-0.1-5.7,3.4-5.7,7.4c0,4.8,1.9,7,3.8,7
					c2.4,0,3.3-1.3,3.3-3.5c0-1.6-0.6-2.2-1.4-2.2c-2,0-1.5,3.7-1.5,3.7c-1-0.3-1.8-1.7-1.4-3.4c-0.7-0.2-1.4-0.7-2-1.6
					c0.5-0.7,1.2-1.3,2-1.4c-0.5-2.1,0.2-3.1,1.5-3.6c-0.3,0.8-0.3,1.6-0.2,2.3c2.2-0.8,5.5,0.5,5.5,5.5c0,5-2.6,9.2-7.4,8.1
					c1.2,0.7,1.7,2.2,1.9,3.9c-0.9-0.5-1.9-0.5-1.9-0.5c0.6,1.3,1.4,2.5,1.3,5.1c-0.9-0.5-1.7-1.6-2.9-0.9
					c1.8,4.8-0.4,11.3-6.1,12.8c2.1-3.2,3.1-6.7,3.1-10.2c0-11.3-2.4-13.2-2.4-21c0-3.3,1.3-6.8,3.8-9.2v0.1
					c-1.7-0.6-2.7-1.7-3.3-3.2c3.8-1.4,9.3-1.4,12.2,0.1c3.4,0.5,5.8,4,6.5,5.8c0.7,1.8,2.1,8.1,0,13.9
					c-2.2,6.3-12.9,36.3-16.2,45.7c-0.7,2-1.1,4.1-1.1,6.4c0,5.8,4,7.8,6.2,7.8c2.7,0,5.4-2.7,5.4-6.2c0-2.2-0.9-3.5-2.2-3.5
					c-3,0-2.9,3.5-2.3,5.6c-1.9-1.1-3-3.2-2.7-5.3c-1.1-0.2-2.1-0.9-3-2.3c0.7-1.2,1.6-2.2,3-2.2c-0.6-3.3,1.1-4.7,2.7-5.5
					c-0.5,2.4-0.9,5.2,2.3,5.2c2.3,0,4.1,0.5,5.1,2.5c0.1-2.6,0.2-13,0.2-13c0.1-3.9-3.9-3.8-6.5-2.6c1-4.5,3-6.9,7.5-6.3
					c-1.1-0.6-2.3-2-2.3-4.7c0-3.6,2.2-7.7,3.7-8.9L43.9,140.2L43.9,140.2z"/>
				<g transform="matrix(1,0,0,-1,0,645.08)">
					<path id="op_1_" style="fill:#FEC50C;" d="M43.9,169.4c0-9.7-6.6-14.7-11.7-14.7c-6.9,0-10.6,5.5-10.6,12.8
						c0,4.1,0.6,6.7,2,10.6c0,0,11.4,31.7,15.9,44c0.6,1.5,0.7,3.3,0.7,5.8c0,3.9-2.9,7.2-5.9,7.3c-2.7,0.1-5.7-3.4-5.7-7.4
						c0-4.8,1.9-7,3.8-7c2.4,0,3.3,1.3,3.3,3.5c0,1.6-0.6,2.2-1.4,2.2c-2,0-1.5-3.7-1.5-3.7c-1,0.3-1.8,1.7-1.4,3.4
						c-0.7,0.2-1.4,0.7-2,1.6c0.5,0.7,1.2,1.3,2,1.4c-0.5,2.1,0.2,3.1,1.5,3.6c-0.3-0.8-0.3-1.6-0.2-2.3c2.2,0.8,5.5-0.5,5.5-5.5
						c0-5-2.6-9.2-7.4-8.1c1.2-0.7,1.7-2.2,1.9-3.9c-0.9,0.5-1.9,0.5-1.9,0.5c0.6-1.3,1.4-2.5,1.3-5.1c-0.9,0.5-1.7,1.6-2.9,0.9
						c1.8-4.8-0.4-11.3-6.1-12.8c2.1,3.2,3.1,6.7,3.1,10.2c0,11.3-2.4,13.2-2.4,21c0,3.3,1.3,6.8,3.8,9.2v-0.1
						c-1.7,0.6-2.7,1.7-3.3,3.2c3.8,1.4,9.3,1.4,12.2-0.1c3.4-0.5,5.8-4,6.5-5.8c0.7-1.8,2.1-8.1,0-13.9
						c-2.2-6.3-12.9-36.3-16.2-45.7c-0.7-2-1.1-4.1-1.1-6.4c0-5.8,4-7.8,6.2-7.8c2.7,0,5.4,2.7,5.4,6.2c0,2.2-0.9,3.5-2.2,3.5
						c-3,0-2.9-3.5-2.3-5.6c-1.9,1.1-3,3.2-2.7,5.3c-1.1,0.2-2.1,0.9-3,2.3c0.7,1.2,1.6,2.2,3,2.2c-0.6,3.3,1.1,4.7,2.7,5.5
						c-0.5-2.4-0.9-5.2,2.3-5.2c2.3,0,4.1-0.5,5.1-2.5c0.1,2.6,0.2,13,0.2,13c0.1,3.9-3.9,3.8-6.5,2.6c1,4.5,3,6.9,7.5,6.3
						c-1.1,0.6-2.3,2-2.3,4.7c0,3.6,2.2,7.7,3.7,8.9L43.9,169.4L43.9,169.4z"/>
				</g>
			</g>
			<g transform="matrix(-1,0,0,1,240,0)">
				<g id="oq_1_">
					<path style="fill:#FEC50C;" d="M43.2,35c0,0,3.5-3.9,4.6-1.9c1.9,3.1-5.8,18.7-5.8,24.2c0,9,4.5,11.5,10.1,12.7
						c3.7,0.9,9.8-0.4,9.8-0.4c-1.1-2.1-1.9-2.7-3.8-2.8c2.1-1.5,4.3-4.7,4.3-9.7c0-7.7-2.4-10.9-2.4-19.7c0-4.8,3-11,3-11
						c-5.3,0.7-7.9,7.2-6.4,12.4c-0.8,0.2-1.6-0.1-2.3-0.9c-0.4,1.4,0.2,3.1,1,4.6c-0.7,0.5-1.1,0.2-2.2-0.1
						c0.1,1.5,0.8,3.1,2.4,4.5c-4.7-1.6-7.6,2.8-7.6,7.4c0,3.5,1.8,6,3.6,6c0.6,0,1.4-0.3,1.9-0.8c0.3,1,0.2,2.2-0.2,3.2
						c1.3-0.5,2.1-1.5,1.5-3.7c1-0.1,1.8-0.6,2.4-1.4c-0.6-0.9-1.4-1.5-2.4-1.4c0.7-2-0.1-3.1-1.3-4.1c0,0,0.8,4.1-1.2,4.1
						c-0.9,0-1.7-0.4-1.7-2.1c0-1.5,1-3.5,3.2-3.4c2.3,0.1,4.1,2.1,4.1,6.9c0,4.4-2.7,6.6-6.2,6.8c-3.2,0.1-5.6-2.2-5.6-6.5
						c0-5.8,6.3-19.1,6.3-24.3c0-3.9-2.6-6.1-5.2-6.1c-3.3,0-6.1,4.4-6.1,4.4L43.2,35L43.2,35z"/>
					<path id="op_2_" style="fill:#FEC50C;" d="M42.5,140.2c0,9.7,6.6,14.7,11.7,14.7c6.9,0,10.6-5.5,10.6-12.8
						c0-4.1-0.6-6.7-2-10.6c0,0-11.4-31.7-15.9-44c-0.6-1.5-0.7-3.3-0.7-5.8c0-3.9,2.9-7.2,5.9-7.3c2.7-0.1,5.7,3.4,5.7,7.4
						c0,4.8-1.9,7-3.8,7c-2.4,0-3.3-1.3-3.3-3.5c0-1.6,0.6-2.2,1.4-2.2c2,0,1.5,3.7,1.5,3.7c1-0.3,1.8-1.7,1.4-3.4
						c0.7-0.2,1.4-0.7,2-1.6c-0.5-0.7-1.2-1.3-2-1.4c0.5-2.1-0.2-3.1-1.5-3.6c0.3,0.8,0.3,1.6,0.2,2.3c-2.2-0.8-5.5,0.5-5.5,5.5
						c0,5,2.6,9.2,7.4,8.1c-1.2,0.7-1.7,2.2-1.9,3.9c0.9-0.5,1.9-0.5,1.9-0.5c-0.6,1.3-1.4,2.5-1.3,5.1c0.9-0.5,1.7-1.6,2.9-0.9
						c-1.8,4.8,0.4,11.3,6.1,12.8c-2.1-3.2-3.1-6.7-3.1-10.2c0-11.3,2.4-13.2,2.4-21c0-3.3-1.3-6.8-3.8-9.2v0.1
						c1.7-0.6,2.7-1.7,3.3-3.2c-3.8-1.4-9.3-1.4-12.2,0.1c-3.4,0.5-5.8,4-6.5,5.8c-0.7,1.8-2.1,8.1,0,13.9
						c2.2,6.3,12.9,36.3,16.2,45.7c0.7,2,1.1,4.1,1.1,6.4c0,5.8-4,7.8-6.2,7.8c-2.7,0-5.4-2.7-5.4-6.2c0-2.2,0.9-3.5,2.2-3.5
						c3,0,2.9,3.5,2.3,5.6c1.9-1.1,3-3.2,2.7-5.3c1.1-0.2,2.1-0.9,3-2.3c-0.7-1.2-1.6-2.2-3-2.2c0.6-3.3-1.1-4.7-2.7-5.5
						c0.5,2.4,0.9,5.2-2.3,5.2c-2.3,0-4.1,0.5-5.1,2.5c-0.1-2.6-0.2-13-0.2-13c-0.1-3.9,3.9-3.8,6.5-2.6c-1-4.5-3-6.9-7.5-6.3
						c1.1-0.6,2.3-2,2.3-4.7c0-3.6-2.2-7.7-3.7-8.9L42.5,140.2L42.5,140.2z"/>
					<g transform="matrix(1,0,0,-1,0,645.08)">
						<path id="op_3_" style="fill:#FEC50C;" d="M42.5,169.4c0-9.7,6.6-14.7,11.7-14.7c6.9,0,10.6,5.5,10.6,12.8
							c0,4.1-0.6,6.7-2,10.6c0,0-11.4,31.7-15.9,44c-0.6,1.5-0.7,3.3-0.7,5.8c0,3.9,2.9,7.2,5.9,7.3c2.7,0.1,5.7-3.4,5.7-7.4
							c0-4.8-1.9-7-3.8-7c-2.4,0-3.3,1.3-3.3,3.5c0,1.6,0.6,2.2,1.4,2.2c2,0,1.5-3.7,1.5-3.7c1,0.3,1.8,1.7,1.4,3.4
							c0.7,0.2,1.4,0.7,2,1.6c-0.5,0.7-1.2,1.3-2,1.4c0.5,2.1-0.2,3.1-1.5,3.6c0.3-0.8,0.3-1.6,0.2-2.3c-2.2,0.8-5.5-0.5-5.5-5.5
							c0-5,2.6-9.2,7.4-8.1c-1.2-0.7-1.7-2.2-1.9-3.9c0.9,0.5,1.9,0.5,1.9,0.5c-0.6-1.3-1.4-2.5-1.3-5.1c0.9,0.5,1.7,1.6,2.9,0.9
							c-1.8-4.8,0.4-11.3,6.1-12.8c-2.1,3.2-3.1,6.7-3.1,10.2c0,11.3,2.4,13.2,2.4,21c0,3.3-1.3,6.8-3.8,9.2v-0.1
							c1.7,0.6,2.7,1.7,3.3,3.2c-3.8,1.4-9.3,1.4-12.2-0.1c-3.4-0.5-5.8-4-6.5-5.8c-0.7-1.8-2.1-8.1,0-13.9
							c2.2-6.3,12.9-36.3,16.2-45.7c0.7-2,1.1-4.1,1.1-6.4c0-5.8-4-7.8-6.2-7.8c-2.7,0-5.4,2.7-5.4,6.2c0,2.2,0.9,3.5,2.2,3.5
							c3,0,2.9-3.5,2.3-5.6c1.9,1.1,3,3.2,2.7,5.3c1.1,0.2,2.1,0.9,3,2.3c-0.7,1.2-1.6,2.2-3,2.2c0.6,3.3-1.1,4.7-2.7,5.5
							c0.5-2.4,0.9-5.2-2.3-5.2c-2.3,0-4.1-0.5-5.1-2.5c-0.1,2.6-0.2,13-0.2,13c-0.1,3.9,3.9,3.8,6.5,2.6c-1,4.5-3,6.9-7.5,6.3
							c1.1,0.6,2.3,2,2.3,4.7c0,3.6-2.2,7.7-3.7,8.9L42.5,169.4L42.5,169.4z"/>
					</g>
				</g>
			</g>
		</g>
		<g transform="matrix(1,0,0,-1,0,1000)">
			<g id="oh_1_">
				<g id="oq_2_">
					<path style="fill:#FEC50C;" d="M43.2,445c0,0-3.5,3.9-4.6,1.9c-1.9-3.1,5.8-18.7,5.8-24.2c0-9-4.5-11.5-10.1-12.7
						c-3.7-0.9-9.8,0.4-9.8,0.4c1.1,2.1,1.9,2.7,3.8,2.8c-2.1,1.5-4.3,4.7-4.3,9.7c0,7.7,2.4,10.9,2.4,19.7c0,4.8-3,11-3,11
						c5.3-0.7,7.9-7.2,6.4-12.4c0.8-0.2,1.6,0.1,2.3,0.9c0.4-1.4-0.2-3.1-1-4.6c0.7-0.5,1.1-0.2,2.2,0.1c-0.1-1.5-0.8-3.1-2.4-4.5
						c4.7,1.6,7.6-2.8,7.6-7.4c0-3.5-1.8-6-3.6-6c-0.6,0-1.4,0.3-1.9,0.8c-0.3-1-0.2-2.2,0.2-3.2c-1.3,0.5-2.1,1.5-1.5,3.7
						c-1,0.1-1.8,0.6-2.4,1.4c0.6,0.9,1.4,1.5,2.4,1.4c-0.7,2,0.1,3.1,1.3,4.1c0,0-0.8-4.1,1.2-4.1c0.9,0,1.7,0.4,1.7,2.1
						c0,1.5-1,3.5-3.2,3.4c-2.3-0.1-4.1-2.1-4.1-6.9c0-4.4,2.7-6.6,6.2-6.8c3.2-0.1,5.6,2.2,5.6,6.5c0,5.8-6.3,19.1-6.3,24.3
						c0,3.9,2.6,6.1,5.2,6.1c3.3,0,6.1-4.4,6.1-4.4L43.2,445L43.2,445z"/>
					<path id="op_4_" style="fill:#FEC50C;" d="M43.9,339.8c0-9.7-6.6-14.7-11.7-14.7c-6.9,0-10.6,5.5-10.6,12.8
						c0,4.1,0.6,6.7,2,10.6c0,0,11.4,31.7,15.9,44c0.6,1.5,0.7,3.3,0.7,5.8c0,3.9-2.9,7.2-5.9,7.3c-2.7,0.1-5.7-3.4-5.7-7.4
						c0-4.8,1.9-7,3.8-7c2.4,0,3.3,1.3,3.3,3.5c0,1.6-0.6,2.2-1.4,2.2c-2,0-1.5-3.7-1.5-3.7c-1,0.3-1.8,1.7-1.4,3.4
						c-0.7,0.2-1.4,0.7-2,1.6c0.5,0.7,1.2,1.3,2,1.4c-0.5,2.1,0.2,3.1,1.5,3.6c-0.3-0.8-0.3-1.6-0.2-2.3c2.2,0.8,5.5-0.5,5.5-5.5
						c0-5-2.6-9.2-7.4-8.1c1.2-0.7,1.7-2.2,1.9-3.9c-0.9,0.5-1.9,0.5-1.9,0.5c0.6-1.3,1.4-2.5,1.3-5.1c-0.9,0.5-1.7,1.6-2.9,0.9
						c1.8-4.8-0.4-11.3-6.1-12.8c2.1,3.2,3.1,6.7,3.1,10.2c0,11.3-2.4,13.2-2.4,21c0,3.3,1.3,6.8,3.8,9.2v-0.1
						c-1.7,0.6-2.7,1.7-3.3,3.2c3.8,1.4,9.3,1.4,12.2-0.1c3.4-0.5,5.8-4,6.5-5.8c0.7-1.8,2.1-8.1,0-13.9
						c-2.2-6.3-12.9-36.3-16.2-45.7c-0.7-2-1.1-4.1-1.1-6.4c0-5.8,4-7.8,6.2-7.8c2.7,0,5.4,2.7,5.4,6.2c0,2.2-0.9,3.5-2.2,3.5
						c-3,0-2.9-3.5-2.3-5.6c-1.9,1.1-3,3.2-2.7,5.3c-1.1,0.2-2.1,0.9-3,2.3c0.7,1.2,1.6,2.2,3,2.2c-0.6,3.3,1.1,4.7,2.7,5.5
						c-0.5-2.4-0.9-5.2,2.3-5.2c2.3,0,4.1-0.5,5.1-2.5c0.1,2.6,0.2,13,0.2,13c0.1,3.9-3.9,3.8-6.5,2.6c1,4.5,3,6.9,7.5,6.3
						c-1.1,0.6-2.3,2-2.3,4.7c0,3.6,2.2,7.7,3.7,8.9L43.9,339.8L43.9,339.8z"/>
					<g transform="matrix(1,0,0,-1,0,645.08)">
						<path id="op_5_" style="fill:#FEC50C;" d="M43.9,310.6c0,9.7-6.6,14.7-11.7,14.7c-6.9,0-10.6-5.5-10.6-12.8
							c0-4.1,0.6-6.7,2-10.6c0,0,11.4-31.7,15.9-44c0.6-1.5,0.7-3.3,0.7-5.8c0-3.9-2.9-7.2-5.9-7.3c-2.7-0.1-5.7,3.4-5.7,7.4
							c0,4.8,1.9,7,3.8,7c2.4,0,3.3-1.3,3.3-3.5c0-1.6-0.6-2.2-1.4-2.2c-2,0-1.5,3.7-1.5,3.7c-1-0.3-1.8-1.7-1.4-3.4
							c-0.7-0.2-1.4-0.7-2-1.6c0.5-0.7,1.2-1.3,2-1.4c-0.5-2.1,0.2-3.1,1.5-3.6c-0.3,0.8-0.3,1.6-0.2,2.3c2.2-0.8,5.5,0.5,5.5,5.5
							c0,5-2.6,9.2-7.4,8.1c1.2,0.7,1.7,2.2,1.9,3.9c-0.9-0.5-1.9-0.5-1.9-0.5c0.6,1.3,1.4,2.5,1.3,5.1c-0.9-0.5-1.7-1.6-2.9-0.9
							c1.8,4.8-0.4,11.3-6.1,12.8c2.1-3.2,3.1-6.7,3.1-10.2c0-11.3-2.4-13.2-2.4-21c0-3.3,1.3-6.8,3.8-9.2v0.1
							c-1.7-0.6-2.7-1.7-3.3-3.2c3.8-1.4,9.3-1.4,12.2,0.1c3.4,0.5,5.8,4,6.5,5.8c0.7,1.8,2.1,8.1,0,13.9
							c-2.2,6.3-12.9,36.3-16.2,45.7c-0.7,2-1.1,4.1-1.1,6.4c0,5.8,4,7.8,6.2,7.8c2.7,0,5.4-2.7,5.4-6.2c0-2.2-0.9-3.5-2.2-3.5
							c-3,0-2.9,3.5-2.3,5.6c-1.9-1.1-3-3.2-2.7-5.3c-1.1-0.2-2.1-0.9-3-2.3c0.7-1.2,1.6-2.2,3-2.2c-0.6-3.3,1.1-4.7,2.7-5.5
							c-0.5,2.4-0.9,5.2,2.3,5.2c2.3,0,4.1,0.5,5.1,2.5c0.1-2.6,0.2-13,0.2-13c0.1-3.9-3.9-3.8-6.5-2.6c1-4.5,3-6.9,7.5-6.3
							c-1.1-0.6-2.3-2-2.3-4.7c0-3.6,2.2-7.7,3.7-8.9L43.9,310.6L43.9,310.6z"/>
					</g>
				</g>
				<g transform="matrix(-1,0,0,1,240,0)">
					<g id="oq_3_">
						<path style="fill:#FEC50C;" d="M43.2,445c0,0,3.5,3.9,4.6,1.9c1.9-3.1-5.8-18.7-5.8-24.2c0-9,4.5-11.5,10.1-12.7
							c3.7-0.9,9.8,0.4,9.8,0.4c-1.1,2.1-1.9,2.7-3.8,2.8c2.1,1.5,4.3,4.7,4.3,9.7c0,7.7-2.4,10.9-2.4,19.7c0,4.8,3,11,3,11
							c-5.3-0.7-7.9-7.2-6.4-12.4c-0.8-0.2-1.6,0.1-2.3,0.9c-0.4-1.4,0.2-3.1,1-4.6c-0.7-0.5-1.1-0.2-2.2,0.1
							c0.1-1.5,0.8-3.1,2.4-4.5c-4.7,1.6-7.6-2.8-7.6-7.4c0-3.5,1.8-6,3.6-6c0.6,0,1.4,0.3,1.9,0.8c0.3-1,0.2-2.2-0.2-3.2
							c1.3,0.5,2.1,1.5,1.5,3.7c1,0.1,1.8,0.6,2.4,1.4c-0.6,0.9-1.4,1.5-2.4,1.4c0.7,2-0.1,3.1-1.3,4.1c0,0,0.8-4.1-1.2-4.1
							c-0.9,0-1.7,0.4-1.7,2.1c0,1.5,1,3.5,3.2,3.4c2.3-0.1,4.1-2.1,4.1-6.9c0-4.4-2.7-6.6-6.2-6.8c-3.2-0.1-5.6,2.2-5.6,6.5
							c0,5.8,6.3,19.1,6.3,24.3c0,3.9-2.6,6.1-5.2,6.1c-3.3,0-6.1-4.4-6.1-4.4L43.2,445L43.2,445z"/>
						<path id="op_6_" style="fill:#FEC50C;" d="M42.5,339.8c0-9.7,6.6-14.7,11.7-14.7c6.9,0,10.6,5.5,10.6,12.8
							c0,4.1-0.6,6.7-2,10.6c0,0-11.4,31.7-15.9,44c-0.6,1.5-0.7,3.3-0.7,5.8c0,3.9,2.9,7.2,5.9,7.3c2.7,0.1,5.7-3.4,5.7-7.4
							c0-4.8-1.9-7-3.8-7c-2.4,0-3.3,1.3-3.3,3.5c0,1.6,0.6,2.2,1.4,2.2c2,0,1.5-3.7,1.5-3.7c1,0.3,1.8,1.7,1.4,3.4
							c0.7,0.2,1.4,0.7,2,1.6c-0.5,0.7-1.2,1.3-2,1.4c0.5,2.1-0.2,3.1-1.5,3.6c0.3-0.8,0.3-1.6,0.2-2.3c-2.2,0.8-5.5-0.5-5.5-5.5
							c0-5,2.6-9.2,7.4-8.1c-1.2-0.7-1.7-2.2-1.9-3.9c0.9,0.5,1.9,0.5,1.9,0.5c-0.6-1.3-1.4-2.5-1.3-5.1c0.9,0.5,1.7,1.6,2.9,0.9
							c-1.8-4.8,0.4-11.3,6.1-12.8c-2.1,3.2-3.1,6.7-3.1,10.2c0,11.3,2.4,13.2,2.4,21c0,3.3-1.3,6.8-3.8,9.2v-0.1
							c1.7,0.6,2.7,1.7,3.3,3.2c-3.8,1.4-9.3,1.4-12.2-0.1c-3.4-0.5-5.8-4-6.5-5.8c-0.7-1.8-2.1-8.1,0-13.9
							c2.2-6.3,12.9-36.3,16.2-45.7c0.7-2,1.1-4.1,1.1-6.4c0-5.8-4-7.8-6.2-7.8c-2.7,0-5.4,2.7-5.4,6.2c0,2.2,0.9,3.5,2.2,3.5
							c3,0,2.9-3.5,2.3-5.6c1.9,1.1,3,3.2,2.7,5.3c1.1,0.2,2.1,0.9,3,2.3c-0.7,1.2-1.6,2.2-3,2.2c0.6,3.3-1.1,4.7-2.7,5.5
							c0.5-2.4,0.9-5.2-2.3-5.2c-2.3,0-4.1-0.5-5.1-2.5c-0.1,2.6-0.2,13-0.2,13c-0.1,3.9,3.9,3.8,6.5,2.6c-1,4.5-3,6.9-7.5,6.3
							c1.1,0.6,2.3,2,2.3,4.7c0,3.6-2.2,7.7-3.7,8.9L42.5,339.8L42.5,339.8z"/>
						<g transform="matrix(1,0,0,-1,0,645.08)">
							<path id="op_7_" style="fill:#FEC50C;" d="M42.5,310.6c0,9.7,6.6,14.7,11.7,14.7c6.9,0,10.6-5.5,10.6-12.8
								c0-4.1-0.6-6.7-2-10.6c0,0-11.4-31.7-15.9-44c-0.6-1.5-0.7-3.3-0.7-5.8c0-3.9,2.9-7.2,5.9-7.3c2.7-0.1,5.7,3.4,5.7,7.4
								c0,4.8-1.9,7-3.8,7c-2.4,0-3.3-1.3-3.3-3.5c0-1.6,0.6-2.2,1.4-2.2c2,0,1.5,3.7,1.5,3.7c1-0.3,1.8-1.7,1.4-3.4
								c0.7-0.2,1.4-0.7,2-1.6c-0.5-0.7-1.2-1.3-2-1.4c0.5-2.1-0.2-3.1-1.5-3.6c0.3,0.8,0.3,1.6,0.2,2.3c-2.2-0.8-5.5,0.5-5.5,5.5
								c0,5,2.6,9.2,7.4,8.1c-1.2,0.7-1.7,2.2-1.9,3.9c0.9-0.5,1.9-0.5,1.9-0.5c-0.6,1.3-1.4,2.5-1.3,5.1c0.9-0.5,1.7-1.6,2.9-0.9
								c-1.8,4.8,0.4,11.3,6.1,12.8c-2.1-3.2-3.1-6.7-3.1-10.2c0-11.3,2.4-13.2,2.4-21c0-3.3-1.3-6.8-3.8-9.2v0.1
								c1.7-0.6,2.7-1.7,3.3-3.2c-3.8-1.4-9.3-1.4-12.2,0.1c-3.4,0.5-5.8,4-6.5,5.8c-0.7,1.8-2.1,8.1,0,13.9
								c2.2,6.3,12.9,36.3,16.2,45.7c0.7,2,1.1,4.1,1.1,6.4c0,5.8-4,7.8-6.2,7.8c-2.7,0-5.4-2.7-5.4-6.2c0-2.2,0.9-3.5,2.2-3.5
								c3,0,2.9,3.5,2.3,5.6c1.9-1.1,3-3.2,2.7-5.3c1.1-0.2,2.1-0.9,3-2.3c-0.7-1.2-1.6-2.2-3-2.2c0.6-3.3-1.1-4.7-2.7-5.5
								c0.5,2.4,0.9,5.2-2.3,5.2c-2.3,0-4.1,0.5-5.1,2.5c-0.1-2.6-0.2-13-0.2-13c-0.1-3.9,3.9-3.8,6.5-2.6c-1-4.5-3-6.9-7.5-6.3
								c1.1-0.6,2.3-2,2.3-4.7c0-3.6-2.2-7.7-3.7-8.9L42.5,310.6L42.5,310.6z"/>
						</g>
					</g>
				</g>
			</g>
		</g>
	</g>
</g>
</svg>
