<?xml version="1.0" encoding="utf-8"?>
<!-- Generator: Adobe Illustrator 25.2.1, SVG Export Plug-In . SVG Version: 6.00 Build 0)  -->
<svg version="1.1" id="Layer_1" xmlns="http://www.w3.org/2000/svg" xmlns:xlink="http://www.w3.org/1999/xlink" x="0px" y="0px"
	 viewBox="0 0 720 480" style="enable-background:new 0 0 720 480;" xml:space="preserve">
<g>
	<path style="fill:#FFBE29;" d="M1.1,0.7H720V480H1.1V0.7z"/>
	<path style="fill:#EB7400;" d="M34.6,45.4h186.9v389.8H34.6V45.4z"/>
	<path style="fill:#00534E;" d="M34.6,45.4h93.5v389.8H34.6V45.4z"/>
	<path style="fill:#8D153A;" d="M255.1,45.4h431.4v389.8H255.1V45.4z"/>
	<path style="fill:#FFBE29;stroke:#000000;stroke-width:2.096;" d="M302,359.5c0,0-4,11-8.3,15.5c-6.5,6.7-19.8,6.2-25.5,14
		c-6.8,9.2,0.5,21.3,0.5,22.3l-0.4,6.4c0,0,4.6,0.1,6.5,0.5c2.9,0.6,4,3.8,9.4,3.4c13.5-1.2,13-17.9,13.7-32.1
		c0.7-5.4,2.3-12.5,3.1-17.9C301.8,366.9,302,359.5,302,359.5L302,359.5z"/>
	<g transform="matrix(1.04354 0 0 1.01818 -40.191 -5.814)">
		<g>
			<g id="a">
				<path style="fill:#FFBE29;stroke:#000000;stroke-width:2.096;" d="M16.5,1.8"/>
				<path style="fill:#FFBE29;stroke:#000000;stroke-width:5.56;" d="M533.8,384.5l2.8-2.4l1.9,2.4c2.5,3.2,5.4,3.1,7.8-0.2
					c1.1-1.4,2-2.4,2.1-2.2c0.1,0.2,0.6,1.3,1,2.4c0.6,1.4,1.8,2,4,2.3c2.7,0.3,3.4-0.1,4.4-2.1l1.3-2.4l2.8,2.4
					c7.6,6.5,11.6-0.3,8.2-13.9c-1.7-6.9-0.8-10.8,4.8-19.6c2.3-3.7,4.3-7.7,4.3-8.8c0-1.8-0.4-2-3.6-2c-3,0.1-3.9-0.3-5.4-2.7
					c-2.6-3.8-2.4-8,0.5-12.8l2.3-3.8l-4-3.7c-2.2-2-6.2-6.8-8.9-10.6c-6-8.6-11.9-12.6-19.8-13.5l-5.2-0.6l0,5.3
					c0,6.8,2.4,13.3,8.9,24.4c7.4,12.6,8,14.6,8.3,31l0.3,13.9l-2.2,2.7c-1.9,2.5-2.8,2.8-9.1,3.3c-6,0.5-7.2,0.9-9,2.9
					c-2.3,2.7-3,4.2-3.7,8c-0.4,2.2-0.2,2.7,0.9,2.7C530.3,386.9,532.2,385.8,533.8,384.5L533.8,384.5z M375.2,344.2
					c0-1.8,0.6-2.2,3.5-2.8l3.5-0.7l-2.3-2.5c-2.8-2.9-3-5.2-0.6-5.2c2.4,0,6.5-3.4,7.2-5.9c0.3-1.2,0.1-2.7-0.4-3.5
					c-1.4-2.1-3.9-1.8-4.4,0.5c-0.5,2.5-1.4,2.5-3.3,0c-2.9-3.7-3-11.3-0.1-15.8c1.3-2.1,1.3-2.2-0.4-4.4c-1.8-2.3-3.2-6.9-2.3-8
					c0.3-0.3,1.7-0.1,3.2,0.6c2.1,1,3,1,3.9,0.1c2.7-2.8-0.2-6.4-4.5-5.6c-1.7,0.3-2.4,0-2.7-1.2c-0.2-0.9-1.7-2.1-3.4-2.7
					c-3-1-3.1-1-3.1,1.8c0,3.1-1.3,3.6-3.8,1.7c-2-1.6-4-0.4-4,2.5c0,2.7,2,4,5.6,3.7c2.8-0.2,2.9,2.5,0.2,6.5l-1.9,2.8l1.5,2.9
					c2.2,4.2,2,11.3-0.4,14.8l-1.9,2.7l-1.2-2.2c-1.7-3.1-4.1-2.9-4.8,0.4c-0.4,2.1-0.1,3.1,1.9,5.4c1.4,1.5,3.3,2.8,4.4,2.8
					c2.6,0,2.5,2.8-0.2,5.5l-2.1,2.2l3.3,0.7c1.8,0.4,3.3,1.1,3.3,1.6c0,1.9,0.9,7.5,3,7.7C374,350.8,375.2,346.9,375.2,344.2
					L375.2,344.2z"/>
				<path style="fill:#FFBE29;stroke:#000000;stroke-width:5.56;" d="M417,323.7c3-1.6,9.5-8.9,9.5-10.7c0-0.6-1.8-3.2-4-5.8
					c-4.6-5.6-9.6-14.9-10.9-20.4c-0.7-2.9-3.9-7.7-13.2-19.6l-12.3-15.8l-3.5,1.2c-1.9,0.7-4.3,1.2-5.3,1.2c-1.6,0-1.6,0.2,0.6,2.4
					l2.3,2.4l3.2-2.4c3.1-2.3,3.2-2.3,3.6-0.5c0.2,1.1-0.3,3-1.1,4.4c-0.8,1.3-1.3,2.9-1.1,3.4c0.3,0.5-0.6,1.6-1.8,2.4
					c-2.3,1.5-3.9,6.4-2.1,6.4c1.6,0,5.2-5.9,4.8-7.9c-0.2-1-0.1-2.1,0.2-2.3c1.4-1.1,1.3,3.6-0.1,5.8c-0.8,1.3-1.3,2.9-1.1,3.4
					c0.3,0.5-0.6,1.6-1.8,2.4c-2.3,1.5-3.9,6.4-2.1,6.4c1.8,0,5.3-5.7,4.9-7.8c-0.2-1.1-0.1-2.2,0.2-2.5c0.9-0.7,1.5,2.9,0.7,4.7
					c-0.4,1-0.4,2.3,0,3.3c0.8,1.9,0,5.5-1.5,6.6c-0.6,0.5-0.2,1.4,1.3,2.9c2.2,2.2,2.2,2.4,2.2,12.1c0,8.1,0.2,10.2,1.4,11.6
					c1.2,1.6,1.4,1.6,1.4,0.1c0-1.7,2.2-3.7,4-3.7c0.5,0,3.8,3.7,7.3,8.2c3.5,4.6,7.2,8.4,8.2,8.7c1,0.2,2.1,0.5,2.5,0.6
					C413.8,325.2,415.4,324.5,417,323.7L417,323.7z M379.5,284.6c0-2.6-4-5.4-8.8-6.1c-3.9-0.6-4-0.5-4,2c0,2.1,0.6,3,3.3,4.5
					C374.3,287.6,379.5,287.3,379.5,284.6z"/>
				<path style="fill:#FFBE29;stroke:#000000;stroke-width:5.56;" d="M383.9,284.4c2-2.4,2.9-5.2,1.7-5.2c-1.4,0-5,4.3-5,5.9
					C380.7,287.7,381.3,287.5,383.9,284.4z M379.7,276.7c0.2-1.5-0.5-2.5-2.6-3.7c-4.4-2.7-9.7-3.9-10.9-2.6c-2.3,2.5-0.8,5.7,3,6.3
					c1.5,0.2,3.6,0.9,4.6,1.4C376.7,279.6,379.5,279,379.7,276.7z M379.7,268.8c0.2-2.1-0.8-2.8-9-6.7c-6.1-2.9-8.8-1.5-6.9,3.4
					c0.7,1.7,1.8,2.5,4.4,3c1.9,0.4,4.5,1.1,5.8,1.7C377.5,271.6,379.5,271.1,379.7,268.8L379.7,268.8z M383.8,261.4
					c1.2-1.7,2.3-3.6,2.3-4.4c0-2.4-4.9,1.8-5.5,4.8C379.8,265.4,381,265.2,383.8,261.4z M379.7,260.9c0.3-2.4-2.7-4.5-8.6-6.2
					c-4.3-1.2-6.2-0.5-5.9,2.1c0.2,1.5,1.6,2.5,5.7,4.2C377.5,263.8,379.4,263.7,379.7,260.9L379.7,260.9z M385.5,249.8
					c7.5-4.5,8.2-15.7,1.1-18.6c-2.9-1.2-4.8-0.6-5.9,2.1c-0.9,2-0.3,5.7,0.9,5.7c0.4,0,0.7,0.7,0.7,1.5c0,3.9-11.5,5.7-16.2,2.5
					c-1.7-1.1-2.4-4-1-4c1,0,1.7-3,1.2-5c-0.7-2.8-2.9-3.8-6-2.7c-7,2.5-6.8,13.5,0.3,18.1C366.5,253.2,379.4,253.4,385.5,249.8
					L385.5,249.8z"/>
				<path style="fill:#FFBE29;stroke:#000000;stroke-width:5.56;" d="M380.8,241.2c0.4-0.5,0.2-1.4-0.5-2.2c-1.6-1.7-1.5-4.2,0.2-7
					c1.3-2.1,1.5-5.3,1.9-37.6c0.8-55.6,3.9-97.4,8-107.5c1.6-4,1.4-4-2.8-0.2c-5.4,4.9-9.5,11.3-13.2,20.5
					c-6.9,17.3-9.3,40.6-9.3,90.2c0,28.2,0.1,31.9,1.3,34.5c1.1,2.5,1.2,3.4,0.4,6.1c-0.5,1.7-0.8,3.4-0.5,3.7
					C367.9,243.8,379.1,243.3,380.8,241.2L380.8,241.2z M443.8,188.2c0.2-0.5-0.3-2.9-1.2-5.4c-1.4-3.9-1.9-4.5-3.8-4.5
					c-6.1,0-15.8-3.6-25.8-9.6c-5.8-3.4-7.8-4.2-8.5-3.4c-1.8,2.2,1.2,7.5,5.7,10.3c4,2.5,15.4,5.5,20.5,5.5c3,0,3.1,0.2,1.4,3.5
					l-1.3,2.4l3.4,0.1c1.9,0.1,4.4,0.5,5.7,0.9C443.3,189.1,443.4,189.1,443.8,188.2L443.8,188.2z"/>
				<path style="stroke:#000000;stroke-width:5.56;" d="M479.2,213.2c0-1.4-3.2-5.3-6.4-7.8c-2.5-2-2.9-2-2.9-0.4
					c0,2.4-1.6,8.6-2.3,8.6c-0.4,0-0.9-1.2-1.2-2.7c-0.3-1.5-1.5-4.4-2.7-6.4l-2.2-3.8l-1.7,3.5c-1.6,3.2-4.3,6.4-5.6,6.4
					c-0.3,0-0.3-1.7-0.1-3.8c0.2-2.3,0.1-4.1-0.5-4.5c-0.5-0.4-0.9-0.2-0.9,0.3c0,1.2-3.8,7-4.6,7c-0.3,0-0.8-1.7-1-3.7
					c-0.2-2-0.6-5.2-0.9-7.1c-0.3-1.9,0.3-0.6,1.2,2.8l1.7,6.3l1.8-3.8c1-2.1,1.8-4.4,1.8-5.1c0-0.7,0.3-1,0.8-0.7
					c0.4,0.3,1,2.9,1.3,5.6l0.5,5l2-2.9c1.1-1.6,2.4-3.8,2.9-4.8c0.9-1.8,0.9-1.8,2.6,0.1c1,1.1,2.4,3.7,3.3,5.7
					c0.8,2.1,1.6,3.6,1.8,3.4c0.1-0.2,0.4-2.3,0.7-4.7c0.2-2.4,0.5-4.5,0.5-4.6c0.1-0.6,6.1,4.6,8.3,7.2c1.4,1.7,2.8,2.8,3,2.5
					c0.2-0.3,0.4-2.8,0.4-5.5c0-4.2-0.3-5.4-2.3-7.7c-2.2-2.7-2.3-2.7-3.1-0.7c-1.1,2.5-2.3,2.6-2.3,0.1c0-1.8-4.2-8.9-5.3-8.9
					c-0.3,0-1.2,1.5-2,3.4c-0.8,1.9-1.7,3.4-1.9,3.4c-1.1,0-7.1-8.9-7.1-10.5c0-1.3,0.4-0.9,1.4,1.2c0.8,1.6,2.4,4,3.5,5.4
					c2.3,2.7,3.2,2,4.1-3.2c0.3-1.5,0.7-2.7,1-2.7c1,0,6.2,7.4,6.9,9.8l0.7,2.4l0.6-2.7c0.7-3.3,1.4-3.4,2.5-0.4
					c0.5,1.3,2.7,3.9,5,5.8l4.1,3.5l0.8-3.5c0.5-1.9,1.1-3.1,1.3-2.5c0.4,0.9-0.7,6.7-1.5,8c-0.1,0.2-1.5-0.9-3-2.3l-2.8-2.7l0,4.8
					c0,2.6-0.2,5.8-0.5,7C480.5,214.7,479.2,215.3,479.2,213.2L479.2,213.2z M458.5,175.2c-4.9-5.5-5.7-6.7-5.6-9.3l0.1-2.8l0.3,2.7
					c0.2,1.6,1.5,3.9,3.2,5.6l2.8,3l1.7-2.7c1-1.5,1.8-3.2,1.8-3.9c0-1.8,0.3-1.6,3.6,2.3c3,3.4,3,3.4,3.5,1.2
					c0.2-1.2,0.2-3.6-0.2-5.2c-1-4.4-0.8-5.1,0.7-2.4c0.7,1.3,1.9,3.2,2.6,4.2c1.2,1.7,1.3,1.7,1.8-0.5c0.3-1.2,0.5-3.5,0.5-5l0-2.8
					l2.7,4c2.5,3.8,2.7,3.9,3.5,2.1c0.4-1.1,0.8-3.6,0.8-5.7c0-2.7,0.2-3.3,0.7-2.3c0.8,1.7,0.3,6.3-1.3,10.2l-1.1,2.8l-1.5-3.1
					c-1.9-3.9-2.5-3.8-3.7,0.4c-1.1,4-1.9,4.3-3,1.2c-0.7-2-0.9-1.7-1.4,2.4l-0.6,4.6l-3.4-3.5l-3.4-3.5l-1.5,2.3
					c-0.8,1.3-1.5,2.9-1.6,3.5C460.6,176.5,459.8,176.6,458.5,175.2L458.5,175.2z M502.4,154.7c-1.8-2.2-3-4.2-2.7-4.6
					c0.3-0.4,0.6-0.5,0.7-0.2c0.1,0.2,1.6,2.3,3.3,4.6C507.5,159.8,506.7,159.9,502.4,154.7L502.4,154.7z M443.9,146.7
					c-1.6-2.9-1.5-4.9,0.5-8.1c1.4-2.3,2.1-2.6,4.6-2.2c1.6,0.3,5.1,2.2,7.7,4.2c3,2.4,6.2,3.9,8.6,4.3c2.1,0.3,3.8,0.5,3.8,0.3
					c0-0.2-0.9-2.1-1.9-4.2c-2.5-5.1-2.4-5.6,0.4-2.6c2.9,3.1,6.4,4,14.3,3.7l3.8-0.2l-2.2-2.9c-3.1-4.1-2.2-4.5,1.3-0.5
					c3.2,3.7,3,4-3.8,4.9c-2.9,0.4-6,0.1-8.5-0.8c-3.8-1.3-4-1.3-3.3,0.4c0.4,1,1.1,1.8,1.5,1.8s0.7,0.5,0.7,1.1
					c0,1.9-8.3,0.2-12.3-2.5c-9.1-6.1-10.2-6.7-12.4-5.8c-1.2,0.5-2.4,2-2.8,3.5c-1.4,4.9,3.9,8.8,6,4.4c0.6-1.3,0.5-2.1-0.6-3.7
					c-1.5-2.1-1.4-2.4,0.7-1.4c1.4,0.7,1.6,5.3,0.3,7C448.8,149.6,445.3,149.1,443.9,146.7L443.9,146.7z"/>
				<path style="stroke:#000000;stroke-width:5.56;" d="M479.7,134.5c-1.1-1.4-0.2-1.8,4.8-1.9c6.3-0.2,10.1-1.6,14.6-5.4
					c3.6-3,4.6-2.4,1.2,0.7c-3.1,2.9-8,5.1-12.7,5.8c-2.3,0.3-4.9,0.8-5.8,1C480.9,134.9,480,134.8,479.7,134.5L479.7,134.5z"/>
			</g>
		</g>
		<g id="a_1_">
			<path style="stroke:#000000;stroke-width:5.56;" d="M16.5,1.8"/>
			<path style="fill:#FFBE29;" d="M533.8,384.5l2.8-2.4l1.9,2.4c2.5,3.2,5.4,3.1,7.8-0.2c1.1-1.4,2-2.4,2.1-2.2
				c0.1,0.2,0.6,1.3,1,2.4c0.6,1.4,1.8,2,4,2.3c2.7,0.3,3.4-0.1,4.4-2.1l1.3-2.4l2.8,2.4c7.6,6.5,11.6-0.3,8.2-13.9
				c-1.7-6.9-0.8-10.8,4.8-19.6c2.3-3.7,4.3-7.7,4.3-8.8c0-1.8-0.4-2-3.6-2c-3,0.1-3.9-0.3-5.4-2.7c-2.6-3.8-2.4-8,0.5-12.8l2.3-3.8
				l-4-3.7c-2.2-2-6.2-6.8-8.9-10.6c-6-8.6-11.9-12.6-19.8-13.5l-5.2-0.6l0,5.3c0,6.8,2.4,13.3,8.9,24.4c7.4,12.6,8,14.6,8.3,31
				l0.3,13.9l-2.2,2.7c-1.9,2.5-2.8,2.8-9.1,3.3c-6,0.5-7.2,0.9-9,2.9c-2.3,2.7-3,4.2-3.7,8c-0.4,2.2-0.2,2.7,0.9,2.7
				C530.3,386.9,532.2,385.8,533.8,384.5L533.8,384.5z M375.2,344.2c0-1.8,0.6-2.2,3.5-2.8l3.5-0.7l-2.3-2.5c-2.8-2.9-3-5.2-0.6-5.2
				c2.4,0,6.5-3.4,7.2-5.9c0.3-1.2,0.1-2.7-0.4-3.5c-1.4-2.1-3.9-1.8-4.4,0.5c-0.5,2.5-1.4,2.5-3.3,0c-2.9-3.7-3-11.3-0.1-15.8
				c1.3-2.1,1.3-2.2-0.4-4.4c-1.8-2.3-3.2-6.9-2.3-8c0.3-0.3,1.7-0.1,3.2,0.6c2.1,1,3,1,3.9,0.1c2.7-2.8-0.2-6.4-4.5-5.6
				c-1.7,0.3-2.4,0-2.7-1.2c-0.2-0.9-1.7-2.1-3.4-2.7c-3-1-3.1-1-3.1,1.8c0,3.1-1.3,3.6-3.8,1.7c-2-1.6-4-0.4-4,2.5
				c0,2.7,2,4,5.6,3.7c2.8-0.2,2.9,2.5,0.2,6.5l-1.9,2.8l1.5,2.9c2.2,4.2,2,11.3-0.4,14.8l-1.9,2.7l-1.2-2.2
				c-1.7-3.1-4.1-2.9-4.8,0.4c-0.4,2.1-0.1,3.1,1.9,5.4c1.4,1.5,3.3,2.8,4.4,2.8c2.6,0,2.5,2.8-0.2,5.5l-2.1,2.2l3.3,0.7
				c1.8,0.4,3.3,1.1,3.3,1.6c0,1.9,0.9,7.5,3,7.7C374,350.8,375.2,346.9,375.2,344.2L375.2,344.2z"/>
			<path style="fill:#FFBE29;" d="M417,323.7c3-1.6,9.5-8.9,9.5-10.7c0-0.6-1.8-3.2-4-5.8c-4.6-5.6-9.6-14.9-10.9-20.4
				c-0.7-2.9-3.9-7.7-13.2-19.6l-12.3-15.8l-3.5,1.2c-1.9,0.7-4.3,1.2-5.3,1.2c-1.6,0-1.6,0.2,0.6,2.4l2.3,2.4l3.2-2.4
				c3.1-2.3,3.2-2.3,3.6-0.5c0.2,1.1-0.3,3-1.1,4.4c-0.8,1.3-1.3,2.9-1.1,3.4c0.3,0.5-0.6,1.6-1.8,2.4c-2.3,1.5-3.9,6.4-2.1,6.4
				c1.6,0,5.2-5.9,4.8-7.9c-0.2-1-0.1-2.1,0.2-2.3c1.4-1.1,1.3,3.6-0.1,5.8c-0.8,1.3-1.3,2.9-1.1,3.4c0.3,0.5-0.6,1.6-1.8,2.4
				c-2.3,1.5-3.9,6.4-2.1,6.4c1.8,0,5.3-5.7,4.9-7.8c-0.2-1.1-0.1-2.2,0.2-2.5c0.9-0.7,1.5,2.9,0.7,4.7c-0.4,1-0.4,2.3,0,3.3
				c0.8,1.9,0,5.5-1.5,6.6c-0.6,0.5-0.2,1.4,1.3,2.9c2.2,2.2,2.2,2.4,2.2,12.1c0,8.1,0.2,10.2,1.4,11.6c1.2,1.6,1.4,1.6,1.4,0.1
				c0-1.7,2.2-3.7,4-3.7c0.5,0,3.8,3.7,7.3,8.2c3.5,4.6,7.2,8.4,8.2,8.7c1,0.2,2.1,0.5,2.5,0.6C413.8,325.2,415.4,324.5,417,323.7
				L417,323.7z M379.5,284.6c0-2.6-4-5.4-8.8-6.1c-3.9-0.6-4-0.5-4,2c0,2.1,0.6,3,3.3,4.5C374.3,287.6,379.5,287.3,379.5,284.6z"/>
			<path style="fill:#FFBE29;" d="M383.9,284.4c2-2.4,2.9-5.2,1.7-5.2c-1.4,0-5,4.3-5,5.9C380.7,287.7,381.3,287.5,383.9,284.4z
				 M379.7,276.7c0.2-1.5-0.5-2.5-2.6-3.7c-4.4-2.7-9.7-3.9-10.9-2.6c-2.3,2.5-0.8,5.7,3,6.3c1.5,0.2,3.6,0.9,4.6,1.4
				C376.7,279.6,379.5,279,379.7,276.7z M379.7,268.8c0.2-2.1-0.8-2.8-9-6.7c-6.1-2.9-8.8-1.5-6.9,3.4c0.7,1.7,1.8,2.5,4.4,3
				c1.9,0.4,4.5,1.1,5.8,1.7C377.5,271.6,379.5,271.1,379.7,268.8L379.7,268.8z M383.8,261.4c1.2-1.7,2.3-3.6,2.3-4.4
				c0-2.4-4.9,1.8-5.5,4.8C379.8,265.4,381,265.2,383.8,261.4z M379.7,260.9c0.3-2.4-2.7-4.5-8.6-6.2c-4.3-1.2-6.2-0.5-5.9,2.1
				c0.2,1.5,1.6,2.5,5.7,4.2C377.5,263.8,379.4,263.7,379.7,260.9L379.7,260.9z M385.5,249.8c7.5-4.5,8.2-15.7,1.1-18.6
				c-2.9-1.2-4.8-0.6-5.9,2.1c-0.9,2-0.3,5.7,0.9,5.7c0.4,0,0.7,0.7,0.7,1.5c0,3.9-11.5,5.7-16.2,2.5c-1.7-1.1-2.4-4-1-4
				c1,0,1.7-3,1.2-5c-0.7-2.8-2.9-3.8-6-2.7c-7,2.5-6.8,13.5,0.3,18.1C366.5,253.2,379.4,253.4,385.5,249.8L385.5,249.8z"/>
			<path style="fill:#FFBE29;" d="M380.8,241.2c0.4-0.5,0.2-1.4-0.5-2.2c-1.6-1.7-1.5-4.2,0.2-7c1.3-2.1,1.5-5.3,1.9-37.6
				c0.8-55.6,3.9-97.4,8-107.5c1.6-4,1.4-4-2.8-0.2c-5.4,4.9-9.5,11.3-13.2,20.5c-6.9,17.3-9.3,40.6-9.3,90.2
				c0,28.2,0.1,31.9,1.3,34.5c1.1,2.5,1.2,3.4,0.4,6.1c-0.5,1.7-0.8,3.4-0.5,3.7C367.9,243.8,379.1,243.3,380.8,241.2L380.8,241.2z
				 M443.8,188.2c0.2-0.5-0.3-2.9-1.2-5.4c-1.4-3.9-1.9-4.5-3.8-4.5c-6.1,0-15.8-3.6-25.8-9.6c-5.8-3.4-7.8-4.2-8.5-3.4
				c-1.8,2.2,1.2,7.5,5.7,10.3c4,2.5,15.4,5.5,20.5,5.5c3,0,3.1,0.2,1.4,3.5l-1.3,2.4l3.4,0.1c1.9,0.1,4.4,0.5,5.7,0.9
				C443.3,189.1,443.4,189.1,443.8,188.2L443.8,188.2z"/>
			<path d="M479.2,213.2c0-1.4-3.2-5.3-6.4-7.8c-2.5-2-2.9-2-2.9-0.4c0,2.4-1.6,8.6-2.3,8.6c-0.4,0-0.9-1.2-1.2-2.7
				c-0.3-1.5-1.5-4.4-2.7-6.4l-2.2-3.8l-1.7,3.5c-1.6,3.2-4.3,6.4-5.6,6.4c-0.3,0-0.3-1.7-0.1-3.8c0.2-2.3,0.1-4.1-0.5-4.5
				c-0.5-0.4-0.9-0.2-0.9,0.3c0,1.2-3.8,7-4.6,7c-0.3,0-0.8-1.7-1-3.7c-0.2-2-0.6-5.2-0.9-7.1c-0.3-1.9,0.3-0.6,1.2,2.8l1.7,6.3
				l1.8-3.8c1-2.1,1.8-4.4,1.8-5.1c0-0.7,0.3-1,0.8-0.7c0.4,0.3,1,2.9,1.3,5.6l0.5,5l2-2.9c1.1-1.6,2.4-3.8,2.9-4.8
				c0.9-1.8,0.9-1.8,2.6,0.1c1,1.1,2.4,3.7,3.3,5.7c0.8,2.1,1.6,3.6,1.8,3.4c0.1-0.2,0.4-2.3,0.7-4.7c0.2-2.4,0.5-4.5,0.5-4.6
				c0.1-0.6,6.1,4.6,8.3,7.2c1.4,1.7,2.8,2.8,3,2.5c0.2-0.3,0.4-2.8,0.4-5.5c0-4.2-0.3-5.4-2.3-7.7c-2.2-2.7-2.3-2.7-3.1-0.7
				c-1.1,2.5-2.3,2.6-2.3,0.1c0-1.8-4.2-8.9-5.3-8.9c-0.3,0-1.2,1.5-2,3.4c-0.8,1.9-1.7,3.4-1.9,3.4c-1.1,0-7.1-8.9-7.1-10.5
				c0-1.3,0.4-0.9,1.4,1.2c0.8,1.6,2.4,4,3.5,5.4c2.3,2.7,3.2,2,4.1-3.2c0.3-1.5,0.7-2.7,1-2.7c1,0,6.2,7.4,6.9,9.8l0.7,2.4l0.6-2.7
				c0.7-3.3,1.4-3.4,2.5-0.4c0.5,1.3,2.7,3.9,5,5.8l4.1,3.5l0.8-3.5c0.5-1.9,1.1-3.1,1.3-2.5c0.4,0.9-0.7,6.7-1.5,8
				c-0.1,0.2-1.5-0.9-3-2.3l-2.8-2.7l0,4.8c0,2.6-0.2,5.8-0.5,7C480.5,214.7,479.2,215.3,479.2,213.2L479.2,213.2z M458.5,175.2
				c-4.9-5.5-5.7-6.7-5.6-9.3l0.1-2.8l0.3,2.7c0.2,1.6,1.5,3.9,3.2,5.6l2.8,3l1.7-2.7c1-1.5,1.8-3.2,1.8-3.9c0-1.8,0.3-1.6,3.6,2.3
				c3,3.4,3,3.4,3.5,1.2c0.2-1.2,0.2-3.6-0.2-5.2c-1-4.4-0.8-5.1,0.7-2.4c0.7,1.3,1.9,3.2,2.6,4.2c1.2,1.7,1.3,1.7,1.8-0.5
				c0.3-1.2,0.5-3.5,0.5-5l0-2.8l2.7,4c2.5,3.8,2.7,3.9,3.5,2.1c0.4-1.1,0.8-3.6,0.8-5.7c0-2.7,0.2-3.3,0.7-2.3
				c0.8,1.7,0.3,6.3-1.3,10.2l-1.1,2.8l-1.5-3.1c-1.9-3.9-2.5-3.8-3.7,0.4c-1.1,4-1.9,4.3-3,1.2c-0.7-2-0.9-1.7-1.4,2.4l-0.6,4.6
				l-3.4-3.5l-3.4-3.5l-1.5,2.3c-0.8,1.3-1.5,2.9-1.6,3.5C460.6,176.5,459.8,176.6,458.5,175.2L458.5,175.2z M502.4,154.7
				c-1.8-2.2-3-4.2-2.7-4.6c0.3-0.4,0.6-0.5,0.7-0.2c0.1,0.2,1.6,2.3,3.3,4.6C507.5,159.8,506.7,159.9,502.4,154.7L502.4,154.7z
				 M443.9,146.7c-1.6-2.9-1.5-4.9,0.5-8.1c1.4-2.3,2.1-2.6,4.6-2.2c1.6,0.3,5.1,2.2,7.7,4.2c3,2.4,6.2,3.9,8.6,4.3
				c2.1,0.3,3.8,0.5,3.8,0.3c0-0.2-0.9-2.1-1.9-4.2c-2.5-5.1-2.4-5.6,0.4-2.6c2.9,3.1,6.4,4,14.3,3.7l3.8-0.2l-2.2-2.9
				c-3.1-4.1-2.2-4.5,1.3-0.5c3.2,3.7,3,4-3.8,4.9c-2.9,0.4-6,0.1-8.5-0.8c-3.8-1.3-4-1.3-3.3,0.4c0.4,1,1.1,1.8,1.5,1.8
				s0.7,0.5,0.7,1.1c0,1.9-8.3,0.2-12.3-2.5c-9.1-6.1-10.2-6.7-12.4-5.8c-1.2,0.5-2.4,2-2.8,3.5c-1.4,4.9,3.9,8.8,6,4.4
				c0.6-1.3,0.5-2.1-0.6-3.7c-1.5-2.1-1.4-2.4,0.7-1.4c1.4,0.7,1.6,5.3,0.3,7C448.8,149.6,445.3,149.1,443.9,146.7L443.9,146.7z"/>
			<path d="M479.7,134.5c-1.1-1.4-0.2-1.8,4.8-1.9c6.3-0.2,10.1-1.6,14.6-5.4c3.6-3,4.6-2.4,1.2,0.7c-3.1,2.9-8,5.1-12.7,5.8
				c-2.3,0.3-4.9,0.8-5.8,1C480.9,134.9,480,134.8,479.7,134.5L479.7,134.5z"/>
		</g>
	</g>
	<path style="fill:#FFBE29;stroke:#000000;stroke-width:2.094;" d="M639.6,359.6c0,0,4,11,8.3,15.5c6.5,6.7,19.8,6.2,25.4,13.9
		c6.8,9.2-0.5,21.2-0.5,22.3l0.4,6.4c0,0-4.6,0.1-6.5,0.5c-2.9,0.6-4,3.8-9.4,3.3c-13.5-1.2-13-17.8-13.7-32.1
		c-0.7-5.4-2.2-12.5-3.1-17.9C639.8,367,639.6,359.6,639.6,359.6L639.6,359.6z"/>
	<path style="fill:#FFBE29;stroke:#000000;stroke-width:2.096;" d="M639.6,121.1c0,0,4-11,8.3-15.5c6.5-6.7,19.8-6.2,25.5-14
		c6.8-9.2-0.5-21.3-0.5-22.3l0.4-6.4c0,0-4.6-0.1-6.5-0.5c-2.9-0.6-4-3.8-9.4-3.4c-13.5,1.2-13,17.9-13.7,32.1
		c-0.7,5.4-2.3,12.5-3.1,17.9C639.7,113.7,639.6,121.1,639.6,121.1L639.6,121.1z M302,121.1c0,0-4-11-8.3-15.5
		c-6.5-6.7-19.8-6.2-25.5-14c-6.8-9.2,0.5-21.3,0.5-22.3l-0.4-6.4c0,0,4.6-0.1,6.5-0.5c2.9-0.6,4-3.8,9.4-3.4
		c13.5,1.2,13,17.9,13.7,32.1c0.7,5.4,2.3,12.5,3.1,17.9C301.8,113.7,302,121.1,302,121.1L302,121.1z"/>
</g>
</svg>
