<?xml version="1.0" encoding="utf-8"?>
<!-- Generator: Adobe Illustrator 25.2.1, SVG Export Plug-In . SVG Version: 6.00 Build 0)  -->
<svg version="1.1" id="Layer_1" xmlns="http://www.w3.org/2000/svg" xmlns:xlink="http://www.w3.org/1999/xlink" x="0px" y="0px"
	 viewBox="0 0 720 480" style="enable-background:new 0 0 720 480;" xml:space="preserve">
<g>
	<rect style="fill:#009543;" width="720" height="480"/>
	<rect style="fill:#FFFFFF;" width="720" height="336"/>
	<rect style="fill:#00209F;" width="720" height="144"/>
	<g>
		<path style="stroke:#000000;" d="M359.6,152.9c-2.7,0.1-5.4,3.1-5.4,3.1l0.2,32.4l-10.2,10.7h8.3l-0.1,18.6l-48.9,65.9l-7.2-2.5
			l-12.6,27c0,0,31.3,19.6,76.7,19.1c49.8-0.6,76.9-20,76.9-20l-13.1-26.6l-6.4,2.8l-49.6-65.6l-0.1-19.1h8.3L365.1,188l0.1-32.3
			C365.2,155.8,362.4,152.9,359.6,152.9L359.6,152.9z"/>
		<path style="fill:none;stroke:#000000;stroke-width:5;" d="M376.7,230.4h-33.8c0,0-12.3-25.9-10.3-44c2-18.4,12.6-27.1,26.6-27.3
			c16.6-0.2,25.2,8.1,27.8,26.6C389.6,204,376.7,230.4,376.7,230.4L376.7,230.4z"/>
		<path style="fill:#FFFFFF;" d="M300.5,292.1c-0.6,0.7-4.6,8.9-4.6,8.9l7-1.5L300.5,292.1L300.5,292.1z"/>
		<path style="fill:#FFFFFF;" d="M304.5,302.6l-7.4,2.4l8.9,3.5L304.5,302.6L304.5,302.6z"/>
		<path style="fill:#FFFFFF;" d="M307.8,292.3l3.7,10.9l9-2.6l-2.4-5.2L307.8,292.3z"/>
		<path style="fill:#FFFFFF;" d="M313.6,307.1l1.3,4.4l12,3l-4.8-10.1L313.6,307.1L313.6,307.1z"/>
		<path style="fill:#FFFFFF;" d="M326.8,297.8l4.2,10.1l9-3.5l-3-4.4L326.8,297.8z"/>
		<path style="fill:#FFFFFF;" d="M332.7,311.7l1.5,3.9l14,2l-5.9-9.2L332.7,311.7L332.7,311.7z"/>
		<path style="fill:#FFFFFF;" d="M346.2,300.8l5.2,9l13.1-4.8l-1.5-3.5L346.2,300.8L346.2,300.8z"/>
		<path style="fill:#FFFFFF;" d="M353.8,313.1l2.8,4.8l16.2-0.6l-6.1-9L353.8,313.1L353.8,313.1z"/>
		<path style="fill:#FFFFFF;" d="M370.9,301.2l4.4,7.6l10.3-5l-2.8-4.1L370.9,301.2L370.9,301.2z"/>
		<path style="fill:#FFFFFF;" d="M387.9,306.9l-10.3,5.2l2.8,4.4l13.8-2.2L387.9,306.9L387.9,306.9z"/>
		<path style="fill:#FFFFFF;" d="M391.2,298.9l5.3,6.6l8.7-6.8l-3-3.1L391.2,298.9L391.2,298.9z"/>
		<path style="fill:#FFFFFF;" d="M407.1,302.4l-8.3,6.3l2.2,3.9l11.4-3L407.1,302.4L407.1,302.4z"/>
		<path style="fill:#FFFFFF;" d="M418.5,289.3l2,3l-5.7,8.5l-5.9-7.6L418.5,289.3L418.5,289.3z"/>
		<path style="fill:#FFFFFF;" d="M422.4,296.7l3.5,7l-7,2.4l-0.6-3.3L422.4,296.7L422.4,296.7z"/>
	</g>
</g>
</svg>
