<?xml version="1.0" encoding="utf-8"?>
<!-- Generator: Adobe Illustrator 25.2.1, SVG Export Plug-In . SVG Version: 6.00 Build 0)  -->
<svg version="1.1" id="Layer_1" xmlns="http://www.w3.org/2000/svg" xmlns:xlink="http://www.w3.org/1999/xlink" x="0px" y="0px"
	 viewBox="0 0 720 480" style="enable-background:new 0 0 720 480;" xml:space="preserve">
<g>
	<rect style="fill:#00785E;" width="720" height="480"/>
	<polygon style="fill:#FBD116;" points="360,90.5 344.5,138.2 385.1,108.7 334.9,108.7 375.5,138.2 	"/>
	<g id="h">
		<path style="fill:#FFFFFF;" d="M360,331.6H257.5c-1.3-1.3-2.6-2.6-3.8-4H360c0.8,0.3,1.4,1,1.4,1.9
			C361.5,330.4,360.9,331.3,360,331.6z M360,300.3c0.6-1.2,1.8-4,1.2-7.6c-0.2-1.6-0.8-2.9-1.2-3.8c-5.8,5.4-16.6,14.2-32.5,19
			c-7.4,2.3-15.3,3.5-23.5,3.5h-63.1c1.9,2.7,3.8,5.4,5.9,8h61C327.7,319.4,345.9,312.2,360,300.3z M250.4,275.6
			c-3,1.2-6.3,1.9-9.7,2.1c14.9,16.8,36.6,27.4,60.8,27.4c23,0,43.7-9.6,58.5-24.9c2.5-17.3,4.3-37.1,4.5-58.9
			c0.3-25.4-1.7-48.2-4.5-67.7c-6.6,5.9-19,18.7-24.8,38.3c-2.2,7.3-3.4,15.1-3.4,23.1c0,16.7,5,32.2,13.7,45.1
			c-10.6-13.7-16.9-30.9-16.9-49.6c0-12.4,2.8-24.2,7.8-34.7c-3.4-3.6-6.1-8.1-7.5-13c-6.7,11.8-10.5,25.4-10.5,39.9
			c0,18,5.9,34.7,15.9,48.2c-17.4-18.2-41.9-29.6-69-29.6c-1.5,0-2.9,0-4.4,0.1c2.7,2.5,5,5.6,6.8,8.9c27,0,51.4,11.3,68.7,29.4
			c-16.6-13.8-37.9-22.1-61.1-22.1c-13,0-25.4,2.6-36.6,7.3c11.6,30.6,41.2,52.4,75.9,52.4c2.2,0,4.5-0.1,6.7-0.3
			c-4.7,0.8-9.5,1.3-14.4,1.3C284.9,298.4,265,289.7,250.4,275.6z M360,364.4h-53.1c16.4,6.5,34.4,10.1,53.1,10.1
			c0.5-0.9,1.2-2.6,1.3-5C361.3,367.1,360.5,365.2,360,364.4z M360,339.9h-93.6c2.5,2.2,5.1,4.3,7.8,6.2H360
			c0.2-0.2,1.3-1.3,1.3-3.1C361.3,341.2,360.2,340.1,360,339.9z M360,352.4h-76.7c4.6,2.9,9.5,5.6,14.4,8H360
			c0.4-0.6,1.2-2.1,1.2-4.2C361.1,354.3,360.4,353,360,352.4z"/>
		<polygon style="fill:#FBD116;" points="259.2,164.4 244.6,195.8 274.9,179 240.5,174.8 265.9,198.4 		"/>
		<polygon style="fill:#FBD116;" points="284.4,122.5 294.5,155.7 305.8,122.8 277.4,142.8 312.1,143.4 		"/>
	</g>
	<g transform="matrix(-1,0,0,1,660,0)">
		<g id="h_1_">
			<path style="fill:#FFFFFF;" d="M360,331.6h102.5c1.3-1.3,2.6-2.6,3.8-4H360c-0.8,0.3-1.4,1-1.4,1.9
				C358.5,330.4,359.1,331.3,360,331.6z M360,300.3c-0.6-1.2-1.8-4-1.2-7.6c0.2-1.6,0.8-2.9,1.2-3.8c5.8,5.4,16.6,14.2,32.5,19
				c7.4,2.3,15.3,3.5,23.5,3.5h63.1c-1.9,2.7-3.8,5.4-5.9,8h-61C392.3,319.4,374.1,312.2,360,300.3z M469.6,275.6
				c3,1.2,6.3,1.9,9.7,2.1c-14.9,16.8-36.6,27.4-60.8,27.4c-23,0-43.7-9.6-58.5-24.9c-2.5-17.3-4.3-37.1-4.5-58.9
				c-0.3-25.4,1.7-48.2,4.5-67.7c6.6,5.9,19,18.7,24.8,38.3c2.2,7.3,3.4,15.1,3.4,23.1c0,16.7-5,32.2-13.7,45.1
				c10.6-13.7,16.9-30.9,16.9-49.6c0-12.4-2.8-24.2-7.8-34.7c3.4-3.6,6.1-8.1,7.5-13c6.7,11.8,10.5,25.4,10.5,39.9
				c0,18-5.9,34.7-15.9,48.2c17.4-18.2,41.9-29.6,69-29.6c1.5,0,2.9,0,4.4,0.1c-2.7,2.5-5,5.6-6.8,8.9c-27,0-51.4,11.3-68.7,29.4
				c16.6-13.8,37.9-22.1,61.1-22.1c13,0,25.4,2.6,36.6,7.3c-11.6,30.6-41.2,52.4-75.9,52.4c-2.2,0-4.5-0.1-6.7-0.3
				c4.7,0.8,9.5,1.3,14.4,1.3C435.1,298.4,455,289.7,469.6,275.6z M360,364.4h53.1c-16.4,6.5-34.4,10.1-53.1,10.1
				c-0.5-0.9-1.2-2.6-1.3-5C358.7,367.1,359.5,365.2,360,364.4z M360,339.9h93.6c-2.5,2.2-5.1,4.3-7.8,6.2H360
				c-0.2-0.2-1.3-1.3-1.3-3.1C358.7,341.2,359.8,340.1,360,339.9z M360,352.4h76.7c-4.6,2.9-9.5,5.6-14.4,8H360
				c-0.4-0.6-1.2-2.1-1.2-4.2C358.9,354.3,359.6,353,360,352.4z"/>
			<polygon style="fill:#FBD116;" points="460.8,164.4 475.4,195.8 445.1,179 479.5,174.8 454.1,198.4 			"/>
			<polygon style="fill:#FBD116;" points="435.6,122.5 425.5,155.7 414.2,122.8 442.6,142.8 407.9,143.4 			"/>
		</g>
	</g>
</g>
</svg>
