<?xml version="1.0" encoding="utf-8"?>
<!-- Generator: Adobe Illustrator 25.2.1, SVG Export Plug-In . SVG Version: 6.00 Build 0)  -->
<svg version="1.1" id="Layer_1" xmlns="http://www.w3.org/2000/svg" xmlns:xlink="http://www.w3.org/1999/xlink" x="0px" y="0px"
	 viewBox="0 0 720 480" style="enable-background:new 0 0 720 480;" xml:space="preserve">
<g>
	<rect width="720" height="480"/>
	<g>
		<circle style="fill:#CE1126;" cx="360" cy="182.4" r="103.2"/>
		<rect y="160" style="fill:#CE1126;" width="720" height="160"/>
		<g id="r16">
			<g id="r8">
				<g id="r4">
					<g id="r2">
						<path id="r" style="fill:#CE1126;" d="M360,19.2c-3.5,0-4.8,5.3-4.8,10.4c0,12.8,1.6,19.2,4.8,37.6c3.3-18.4,4.8-25,4.8-37.6
							C364.8,24.3,363.2,19.2,360,19.2"/>
						<g transform="rotate(5)">
							<path id="r_1_" style="fill:#CE1126;" d="M374.2,19.8c-3.5-0.3-5.2,4.8-5.7,9.9c-1.1,12.8-0.1,19.3,1.5,37.9
								c4.9-18,7-24.4,8.1-37C378.6,25.3,377.4,20.1,374.2,19.8"/>
						</g>
					</g>
					<g transform="rotate(10)">
						<g id="r2_1_">
							<path id="r_2_" style="fill:#CE1126;" d="M388.3,21.7c-3.5-0.6-5.6,4.4-6.5,9.4C379.6,43.7,380,50.3,380,69
								c6.4-17.6,9.1-23.7,11.3-36.2C392.2,27.6,391.5,22.2,388.3,21.7"/>
							<g transform="rotate(5)">
								<path id="r_3_" style="fill:#CE1126;" d="M402.2,24.8c-3.4-0.9-6,3.9-7.3,8.8c-3.3,12.4-3.4,19-5.1,37.6
									c7.9-16.9,11.1-22.9,14.4-35.1C405.6,30.9,405.3,25.6,402.2,24.8"/>
							</g>
						</g>
					</g>
				</g>
				<g transform="rotate(20)">
					<g id="r4_1_">
						<g id="r2_2_">
							<path id="r_4_" style="fill:#CE1126;" d="M415.8,29c-3.3-1.2-6.3,3.3-8.1,8.1c-4.4,12-5.1,18.6-8.3,37
								c9.4-16.2,13-21.8,17.4-33.7C418.6,35.5,418.8,30.1,415.8,29"/>
							<g transform="rotate(5)">
								<path id="r_5_" style="fill:#CE1126;" d="M429,34.5c-3.2-1.5-6.6,2.8-8.7,7.4c-5.4,11.6-6.7,18.1-11.5,36.1
									c10.7-15.3,14.9-20.6,20.2-32C431.2,41.2,431.9,35.8,429,34.5"/>
							</g>
						</g>
						<g transform="rotate(10)">
							<g id="r2_3_">
								<path id="r_6_" style="fill:#CE1126;" d="M441.6,41.1c-3-1.8-6.8,2.2-9.4,6.6c-6.4,11.1-8.2,17.4-14.6,35
									c12-14.3,16.6-19.2,23-30.2C443.2,47.9,444.4,42.7,441.6,41.1"/>
								<g transform="rotate(5)">
									<path id="r_7_" style="fill:#CE1126;" d="M453.6,48.7c-2.9-2-7,1.6-9.9,5.8C436.4,65,434,71.1,426.1,88
										c13.2-13.2,18.2-17.7,25.5-28C454.6,55.7,456.2,50.5,453.6,48.7"/>
								</g>
							</g>
						</g>
					</g>
				</g>
			</g>
			<g transform="rotate(40)">
				<g id="r8_1_">
					<g id="r4_2_">
						<g id="r2_4_">
							<path id="r_8_" style="fill:#CE1126;" d="M464.9,57.4c-2.7-2.3-7.1,1-10.4,4.9c-8.2,9.8-11.1,15.7-20.5,31.9
								c14.3-12,19.7-16,27.8-25.7C465.3,64.4,467.4,59.4,464.9,57.4"/>
							<g transform="rotate(5)">
								<path id="r_9_" style="fill:#CE1126;" d="M475.4,67c-2.5-2.5-7.1,0.3-10.7,4c-9.1,9.1-12.4,14.7-23.2,30
									c15.3-10.7,21-14.3,30-23.2C475.2,74,477.7,69.3,475.4,67"/>
							</g>
						</g>
						<g transform="rotate(10)">
							<g id="r2_5_">
								<path id="r_10_" style="fill:#CE1126;" d="M485,77.5c-2.3-2.7-7.1-0.3-11.1,3c-9.8,8.2-13.7,13.6-25.7,27.8
									c16.2-9.3,22.2-12.4,31.9-20.5C484.2,84.5,487.1,79.9,485,77.5"/>
								<g transform="rotate(5)">
									<path id="r_11_" style="fill:#CE1126;" d="M493.7,88.8c-2-2.9-7.1-0.9-11.3,2c-10.5,7.3-14.8,12.3-28,25.5
										c16.9-7.9,23.2-10.4,33.6-17.6C492.2,95.7,495.5,91.4,493.7,88.8"/>
								</g>
							</g>
						</g>
					</g>
					<g transform="rotate(20)">
						<g id="r4_3_">
							<g id="r2_6_">
								<path id="r_12_" style="fill:#CE1126;" d="M501.3,100.8c-1.8-3-7-1.5-11.4,1c-11.1,6.4-15.8,11-30.2,23
									c17.6-6.4,24-8.3,35-14.6C499.3,107.5,502.9,103.6,501.3,100.8"/>
								<g transform="rotate(5)">
									<path id="r_13_" style="fill:#CE1126;" d="M507.9,113.4c-1.5-3.2-6.8-2.1-11.5,0c-11.6,5.4-16.7,9.6-32,20.2
										c18.1-4.8,24.6-6.2,36.1-11.5C505.3,119.9,509.3,116.3,507.9,113.4"/>
								</g>
							</g>
							<g transform="rotate(10)">
								<g id="r2_7_">
									<path id="r_14_" style="fill:#CE1126;" d="M513.4,126.6c-1.2-3.3-6.6-2.7-11.4-1c-12,4.4-17.5,8.1-33.7,17.4
										c18.4-3.2,25.1-4,37-8.3C510.2,132.8,514.5,129.6,513.4,126.6"/>
									<g transform="rotate(5)">
										<path id="r_15_" style="fill:#CE1126;" d="M517.6,140.2c-0.9-3.4-6.3-3.3-11.3-1.9c-12.4,3.3-18.1,6.5-35.1,14.4
											c18.6-1.6,25.4-1.8,37.6-5.1C513.9,146.1,518.5,143.3,517.6,140.2"/>
									</g>
								</g>
							</g>
						</g>
					</g>
				</g>
			</g>
		</g>
		<g transform="rotate(-80)">
			<g id="r16_1_">
				<g id="r8_2_">
					<g id="r4_4_">
						<g id="r2_8_">
							<path id="r_16_" style="fill:#CE1126;" d="M199.3,154.1c-0.6,3.5,4.4,5.6,9.4,6.5c12.6,2.2,19.2,1.8,37.9,1.8
								c-17.6-6.4-23.7-9.1-36.2-11.3C205.2,150.2,199.8,150.9,199.3,154.1"/>
							<g transform="rotate(5)">
								<path id="r_17_" style="fill:#CE1126;" d="M202.4,140.2c-0.9,3.4,3.9,6,8.8,7.3c12.4,3.3,19,3.4,37.6,5.1
									c-16.9-7.9-22.9-11.1-35.1-14.4C208.5,136.8,203.2,137.1,202.4,140.2"/>
							</g>
						</g>
						<g transform="rotate(10)">
							<g id="r2_9_">
								<path id="r_18_" style="fill:#CE1126;" d="M206.6,126.6c-1.2,3.3,3.3,6.3,8.1,8.1c12,4.4,18.6,5.1,37,8.3
									c-16.2-9.4-21.8-13-33.7-17.4C213.1,123.8,207.7,123.6,206.6,126.6"/>
								<g transform="rotate(5)">
									<path id="r_19_" style="fill:#CE1126;" d="M212.1,113.4c-1.5,3.2,2.8,6.6,7.4,8.7c11.6,5.4,18.1,6.7,36.1,11.5
										c-15.3-10.7-20.6-14.9-32-20.2C218.8,111.2,213.4,110.5,212.1,113.4"/>
								</g>
							</g>
						</g>
					</g>
					<g transform="rotate(20)">
						<g id="r4_5_">
							<g id="r2_10_">
								<path id="r_20_" style="fill:#CE1126;" d="M218.7,100.8c-1.8,3,2.2,6.8,6.6,9.4c11.1,6.4,17.4,8.2,35,14.6
									c-14.3-12-19.2-16.6-30.2-23C225.5,99.2,220.3,98,218.7,100.8"/>
								<g transform="rotate(5)">
									<path id="r_21_" style="fill:#CE1126;" d="M226.3,88.8c-2,2.9,1.6,7,5.8,9.9c10.5,7.3,16.6,9.7,33.6,17.6
										c-13.2-13.2-17.7-18.2-28-25.5C233.3,87.8,228.1,86.2,226.3,88.8"/>
								</g>
							</g>
							<g transform="rotate(10)">
								<g id="r2_11_">
									<path id="r_22_" style="fill:#CE1126;" d="M235,77.5c-2.3,2.7,1,7.1,4.9,10.4c9.8,8.2,15.7,11.1,31.9,20.5
										c-12-14.3-16-19.7-25.7-27.8C242,77.1,237,75,235,77.5"/>
									<g transform="rotate(5)">
										<path id="r_23_" style="fill:#CE1126;" d="M244.6,67c-2.5,2.5,0.3,7.1,4,10.7c9.1,9.1,14.7,12.4,30,23.2
											c-10.7-15.3-14.3-21-23.2-30C251.6,67.2,246.9,64.7,244.6,67"/>
									</g>
								</g>
							</g>
						</g>
					</g>
				</g>
				<g transform="rotate(40)">
					<g id="r8_3_">
						<g id="r4_6_">
							<g id="r2_12_">
								<path id="r_24_" style="fill:#CE1126;" d="M255.1,57.4c-2.7,2.3-0.3,7.1,3,11.1c8.2,9.8,13.6,13.7,27.8,25.7
									c-9.3-16.2-12.4-22.2-20.5-31.9C262.1,58.2,257.5,55.3,255.1,57.4"/>
								<g transform="rotate(5)">
									<path id="r_25_" style="fill:#CE1126;" d="M266.4,48.7c-2.9,2-0.9,7.1,2,11.3c7.3,10.5,12.3,14.8,25.5,28
										c-7.9-16.9-10.4-23.2-17.6-33.6C273.3,50.2,269,46.9,266.4,48.7"/>
								</g>
							</g>
							<g transform="rotate(10)">
								<g id="r2_13_">
									<path id="r_26_" style="fill:#CE1126;" d="M278.4,41.1c-3,1.8-1.5,7,1,11.4c6.4,11.1,11,15.8,23,30.2
										c-6.4-17.6-8.3-24-14.6-35C285.1,43.1,281.2,39.5,278.4,41.1"/>
									<g transform="rotate(5)">
										<path id="r_27_" style="fill:#CE1126;" d="M291,34.5c-3.2,1.5-2.1,6.8,0,11.5c5.4,11.6,9.6,16.7,20.2,32
											c-4.8-18.1-6.2-24.7-11.5-36.1C297.5,37.1,293.9,33.1,291,34.5"/>
									</g>
								</g>
							</g>
						</g>
						<g transform="rotate(20)">
							<g id="r4_7_">
								<g id="r2_14_">
									<path id="r_28_" style="fill:#CE1126;" d="M304.2,29c-3.3,1.2-2.7,6.6-1,11.4c4.4,12,8.1,17.5,17.4,33.7
										c-3.2-18.4-4-25.1-8.3-37C310.4,32.2,307.2,27.9,304.2,29"/>
									<g transform="rotate(5)">
										<path id="r_29_" style="fill:#CE1126;" d="M317.8,24.8c-3.4,0.9-3.3,6.3-1.9,11.3c3.3,12.4,6.5,18.1,14.4,35.1
											c-1.6-18.6-1.8-25.4-5.1-37.6C323.7,28.5,320.9,23.9,317.8,24.8"/>
									</g>
								</g>
								<g transform="rotate(10)">
									<g id="r2_15_">
										<path id="r_30_" style="fill:#CE1126;" d="M331.7,21.7c-3.5,0.6-3.8,6-2.9,11.1C331,45.4,333.6,51.4,340,69
											c0-18.7,0.4-25.4-1.8-37.9C337.3,25.9,334.8,21.1,331.7,21.7"/>
										<g transform="rotate(5)">
											<path id="r_31_" style="fill:#CE1126;" d="M345.8,19.8c-3.5,0.3-4.3,5.7-3.9,10.8c1.1,12.8,3.3,19,8.1,37
												c1.6-18.6,2.6-25.3,1.5-37.9C351,24.5,349,19.5,345.8,19.8"/>
										</g>
									</g>
								</g>
							</g>
						</g>
					</g>
				</g>
			</g>
		</g>
	</g>
	<rect y="148" width="720" height="12"/>
	<rect y="320" style="fill:#339E35;" width="720" height="160"/>
</g>
</svg>
