<?xml version="1.0" encoding="utf-8"?>
<!-- Generator: Adobe Illustrator 25.2.1, SVG Export Plug-In . SVG Version: 6.00 Build 0)  -->
<svg version="1.1" id="Layer_1" xmlns="http://www.w3.org/2000/svg" xmlns:xlink="http://www.w3.org/1999/xlink" x="0px" y="0px"
	 viewBox="0 0 720 480" style="enable-background:new 0 0 720 480;" xml:space="preserve">
<g>
	<path style="fill:#CE1126;" d="M0.5,0H720v480H0.5V0z"/>
	<path style="fill:#FFFFFF;" d="M0.5,0h479.7v480H0.5V0z"/>
	<path style="fill:#006847;" d="M0.5,0h239.8v480H0.5V0z"/>
	<g transform="translate(-.699 1.184) scale(1.16833)">
		<path style="fill:#FCCA3E;stroke:#AA8C30;stroke-width:0.4089;stroke-miterlimit:4.6733;" d="M343.4,260l0.2,5l1.6-1.3l-1.2-4.1
			L343.4,260z"/>
		
			<ellipse style="fill:#FCCA3E;stroke:#AA8C30;stroke-width:0.3505;stroke-miterlimit:4.6733;" cx="343.2" cy="258.7" rx="1.6" ry="1.9"/>
		<path style="fill:#FCCA3E;stroke:#AA8C30;stroke-width:0.4089;stroke-miterlimit:4.6733;" d="M348.6,267.9l-3.2-3.5l-1.4,1.3
			l4.3,2.9L348.6,267.9z"/>
		<path style="fill:#FCCA3E;stroke:#AA8C30;stroke-width:0.3505;stroke-miterlimit:4.6733;" d="M348.3,269.9
			c-0.4-0.7-0.3-1.7,0.3-2.3c0.6-0.6,1.5-0.4,1.9,0.2c0.4,0.7,0.3,1.7-0.3,2.3C349.6,270.7,348.8,270.6,348.3,269.9z"/>
		<path style="fill:#FCCA3E;stroke:#AA8C30;stroke-width:0.4089;stroke-miterlimit:4.6733;" d="M372.9,215.2l3.2,3.8l0.4-1.9l-3-2.3
			L372.9,215.2z"/>
		
			<ellipse style="fill:#FCCA3E;stroke:#AA8C30;stroke-width:0.3505;stroke-miterlimit:4.6733;" cx="372.4" cy="214.2" rx="1.6" ry="1.8"/>
		<path style="fill:#FCCA3E;stroke:#AA8C30;stroke-width:0.4089;stroke-miterlimit:4.6733;" d="M381.4,217.4l-4.9,1.6l0.4-1.9
			l4.3-0.5L381.4,217.4z"/>
		
			<ellipse style="fill:#FCCA3E;stroke:#AA8C30;stroke-width:0.3505;stroke-miterlimit:4.6733;" cx="382.2" cy="216.6" rx="1.5" ry="1.8"/>
		<path style="fill:#FCCA3E;stroke:#AA8C30;stroke-width:0.4089;stroke-miterlimit:4.6733;" d="M364.8,245.9l-3-5.5l0.5-0.3l3.4,4.7
			L364.8,245.9z"/>
		
			<ellipse style="fill:#FCCA3E;stroke:#AA8C30;stroke-width:0.3505;stroke-miterlimit:4.6733;" cx="361.5" cy="239.1" rx="1.6" ry="1.9"/>
		<path style="fill:#FCCA3E;stroke:#AA8C30;stroke-width:0.4089;stroke-miterlimit:4.6733;" d="M365,246l3.8,0.8l0.1-0.6l-3.2-1.5
			L365,246z"/>
		
			<ellipse style="fill:#FCCA3E;stroke:#AA8C30;stroke-width:0.3505;stroke-miterlimit:4.6733;" cx="370" cy="246.9" rx="1.6" ry="1.9"/>
		<path style="fill:#FCCA3E;stroke:#AA8C30;stroke-width:0.3505;stroke-miterlimit:4.6733;" d="M274.9,258.5c0,0.8-0.5,1.3-1,1.3
			c-0.5,0-0.9-0.6-0.9-1.4c0-0.8,0.4-1.4,0.9-1.4C274.4,257,274.9,257.7,274.9,258.5L274.9,258.5z"/>
		<path style="fill:#FCCA3E;stroke:#AA8C30;stroke-width:0.4089;stroke-miterlimit:4.6733;" d="M274.9,261l0.9,5.6l-1.2-0.5
			l-0.4-4.9L274.9,261z"/>
		<path style="fill:#FCCA3E;stroke:#AA8C30;stroke-width:0.3505;stroke-miterlimit:4.6733;" d="M275.9,259.1
			c0.6,0.9-0.4,2.2-1.4,2.5c-1,0.3-2.3-0.2-2.3-1.3c0-1.2,1.5-0.6,1.9-0.7C274.7,259.3,275.3,258.2,275.9,259.1L275.9,259.1z"/>
		
			<ellipse style="fill:#FCCA3E;stroke:#AA8C30;stroke-width:0.3505;stroke-miterlimit:4.6733;" cx="267.5" cy="267.7" rx="1.5" ry="1.3"/>
		<path style="fill:#FCCA3E;stroke:#AA8C30;stroke-width:0.4089;stroke-miterlimit:4.6733;" d="M270.1,267.4l4.6-0.3l-0.8-1.1
			l-3.8,0.5L270.1,267.4z"/>
		<path style="fill:#FCCA3E;stroke:#AA8C30;stroke-width:0.3505;stroke-miterlimit:4.6733;" d="M270.4,266.8c0.4,1.4,0.4,3.2-0.9,3
			c-1.3-0.2-1.1-1.6-1.2-2.1c-0.2-1-1-1.8-0.2-2.8C269,264,270.1,265.4,270.4,266.8z"/>
		
			<ellipse style="fill:#FCCA3E;stroke:#AA8C30;stroke-width:0.3505;stroke-miterlimit:4.6733;" cx="255.4" cy="237.2" rx="0.9" ry="1.6"/>
		<path style="fill:#FCCA3E;stroke:#AA8C30;stroke-width:0.4089;stroke-miterlimit:4.6733;" d="M255.4,240.8l0.1,5.2l-1.2-1.2
			l0.1-4.2L255.4,240.8z"/>
		<path style="fill:#FCCA3E;stroke:#AA8C30;stroke-width:0.3505;stroke-miterlimit:4.6733;" d="M257.1,239.2
			c0.2,1.2-1.3,1.9-2.3,1.7c-1-0.2-1.8-0.9-1.7-2c0.2-1.1,1.4-0.9,1.9-0.6C255.5,238.7,256.8,237.5,257.1,239.2L257.1,239.2z"/>
		
			<ellipse style="fill:#FCCA3E;stroke:#AA8C30;stroke-width:0.3505;stroke-miterlimit:4.6733;" cx="247.4" cy="245.4" rx="1.6" ry="0.8"/>
		<path style="fill:#FCCA3E;stroke:#AA8C30;stroke-width:0.4089;stroke-miterlimit:4.6733;" d="M250.3,245.4l3.5-0.3l1.5,1.4
			l-5.1-0.2L250.3,245.4z"/>
		<path style="fill:#FCCA3E;stroke:#AA8C30;stroke-width:0.3505;stroke-miterlimit:4.6733;" d="M249,243.2c1,0,1.6,1.3,1.5,2.6
			c-0.1,1.3-1,2.3-1.9,2.2c-0.9-0.2-0.8-1-0.8-1.3c0-0.3,0.5-0.7,0.6-1.1c0.1-0.4-0.3-1.3-0.1-1.8
			C248.3,243.3,248.5,243.2,249,243.2z M246.1,211.3c-0.4,0.7-1.1,1.3-1.5,1c-0.4-0.3-0.2-1.3,0.1-2c0.4-0.7,1-1.1,1.4-0.8
			C246.5,209.8,246.5,210.6,246.1,211.3L246.1,211.3z"/>
		<path style="fill:#FCCA3E;stroke:#AA8C30;stroke-width:0.4089;stroke-miterlimit:4.6733;" d="M242.2,219.6l2-5.4l-0.3-0.3
			l-2.2,3.8L242.2,219.6z"/>
		<path style="fill:#FCCA3E;stroke:#AA8C30;stroke-width:0.3505;stroke-miterlimit:4.6733;" d="M243.8,214.2c-1-0.8-1.2-1.7-0.9-2.5
			c0.3-0.8,1-0.3,1-0.3s0.5,0.6,0.8,0.8c0.4,0.2,0.9-0.1,1.3,0.6c0.4,0.7,0.2,1.4-0.2,1.6C245.6,214.5,244.6,214.9,243.8,214.2
			L243.8,214.2z M235.6,213.5c0.7,0.5,1.1,1.2,0.8,1.8c-0.2,0.5-1,0.5-1.7,0.1c-0.7-0.5-1.1-1.2-0.8-1.8
			C234.2,213,234.9,213,235.6,213.5z"/>
		<path style="fill:#FCCA3E;stroke:#AA8C30;stroke-width:0.4089;stroke-miterlimit:4.6733;" d="M237.7,215.8l3.6,2.5l-0.1,2l-3.9-4
			L237.7,215.8z"/>
		<path style="fill:#FCCA3E;stroke:#AA8C30;stroke-width:0.3505;stroke-miterlimit:4.6733;" d="M237.6,216.3
			c-0.8,1.1-1.5,1.2-2.2,0.7c-0.7-0.5-0.1-1.3-0.1-1.3s0.6-0.5,0.8-0.9c0.2-0.4,0-1.1,0.7-1.5c0.6-0.4,1.2,0,1.3,0.4
			C238.2,214.2,238.3,215.4,237.6,216.3L237.6,216.3z"/>
	</g>
	<g>
		<path style="fill:#AA8C30;" d="M401.5,305.4c0,0-0.3,0.2-0.5,0.6c-0.2,0.4-0.3,1.2-0.3,1.2l0-1.9l0.5-0.4L401.5,305.4L401.5,305.4
			z"/>
		<path style="fill:#AA8C30;" d="M401.7,304.2c0,0-0.4,0.8-1.3,0.7c-0.9-0.1-1.3-0.5-1.4-1.1c-0.1-0.5-0.1-0.9,0.2-1.5
			c0.3-0.6-0.4,0.6-0.4,0.6v1.2l0.7,0.9l0.6,0.2l0.6,0l0.7-0.3l0.5-0.4L401.7,304.2z M406.4,313.9c0,0-0.5,0.3-0.8,0.1
			c-2.1-0.9-3.9-2.3-3.9-2.3l4.3,3.1L406.4,313.9z M409.1,315.3c0,0,0,0.9-0.9,1.3c-0.8,0.4-1.4,0.2-1.7-0.2
			c-0.3-0.4-0.5-0.8-0.4-1.5c0-0.7-0.2,0.8-0.2,0.8l0.5,1.1l0.9,0.5l0.6-0.1l0.5-0.3l0.5-0.6l0.3-0.6L409.1,315.3z M436.4,252.8
			c0,0-0.1,0.2-0.1,0.5c0,0.3,0,0.9,0,0.9l-0.9-1.2l0.5-0.7L436.4,252.8z M435.9,251.2c0.1,0.9-1,2.1-1.8,1.7
			c-0.8-0.4-1.4-1.4-0.9-2.3c0.4-1-0.2,0.4-0.2,0.4l0.1,1.4l0.8,0.8l1,0.1l0.7-0.5l0.5-1L435.9,251.2z M447.2,253.6
			C447.2,253.6,447,253,447.2,253.6c0,0.7-0.7,2.2-1.6,2.1c-0.9-0.1-1.2-1-1.2-1.8c0.1-0.8-0.1,0.3-0.1,0.3l0.1,1.1l0.5,0.5l0.7,0.5
			l0.8-0.2l0.7-0.5l0.3-0.8v-0.5L447.2,253.6z M0.5,0"/>
		<path style="fill:#AA8C30;" d="M433,289.2c0.3,1.2-0.6,2.3-1.7,1.9c-1.1-0.4-1.4-1.7-1.1-2.4l-0.3,0.8l0.2,1.1l0.7,0.7l0.7,0.2
			l0.7-0.2l0.7-0.8l0.2-1L433,289.2z M321.6,303.9c0.3,0.4-0.2,1.9-1.4,2.5c-1.3,0.6-1.9,0-2.3-0.5c-0.3-0.5-0.3-1-0.3-1l-0.2,0.3
			l0.2,0.8l0.6,0.6l1.1,0.3l0.8-0.2l0.8-0.5l0.4-0.5l0.4-0.6l0-0.8L321.6,303.9L321.6,303.9L321.6,303.9L321.6,303.9z"/>
		<path style="fill:#AA8C30;" d="M320.4,307.2c0,0-0.2,0.1-0.4,0.5c-0.2,0.4-0.3,1-0.3,1l-0.1-1.8l0.7-0.4L320.4,307.2z
			 M316.2,312.5c0,0-0.1,0.4,0.2,0.6c0.3,0.2,1.1,0.4,1.1,0.4l-2.1,0.1l-0.2-0.9L316.2,312.5z M315.5,314c0,0,0,0.1,0,0.2
			c0,0.2,0,0.4-0.2,0.7c-0.2,0.6-0.3,1.3-1.1,1.1c-0.8-0.2-1.1-0.8-1.1-1.4c-0.1-0.6-0.2-0.8-0.2-0.8v0.8l0.5,1.3l0.8,0.4h0.7
			l0.5-0.2l0.2-0.8l0.1-0.6L315.5,314z"/>
		<path style="fill:#AA8C30;" d="M310.2,313.8c0,0,0.2,1.1,1.3,1.2c1.1,0,1.3-0.3,1.3-0.3l0.1,0.4l-0.4,0.2l-0.9,0.1l-0.8-0.2
			l-0.4-0.3l-0.3-0.6L310.2,313.8z M299.6,280.4c0,0,0,0.1,0,0.5c-0.1,0.4-0.7,1.4-2,1.4c-1.2,0-1.7-0.5-2.1-0.9
			c-0.3-0.5-0.4-1.1-0.4-1.1l0,0.7l0.5,0.9l1.2,0.7l1.2,0l1.2-0.4l0.5-0.7l0.1-0.7L299.6,280.4L299.6,280.4z M297.6,283.5
			c0,0-0.4,0-0.7,0.3c-0.2,0.2-0.4,0.5-0.4,0.5l0-1.7l1.1,0.1L297.6,283.5z M292.4,288c0,0-0.1,0.1,0.5,0.4c0.6,0.3,3.5,0.7,3.5,0.7
			l-4.6-0.1l0.2-0.9L292.4,288z M291.8,288.1c0,0,0,0.2-0.2,0.8c-0.2,0.5-0.8,2-1.8,1.8c-1-0.2-0.9-1-0.9-1.1c0-0.1,0-0.4,0-0.4
			l-0.2,0.8l0.2,0.6l0.4,0.3l0.8,0.1l0.5-0.3l0.6-0.7l0.3-0.7l0.2-0.7L291.8,288.1z M289.3,288.2c0,0,0,0.3-0.8,0.3
			c-0.8,0-1.9-0.4-1.9-0.4l0.4,0.5l0.6,0.2l0.8,0l0.6-0.1L289.3,288.2z M287,250.2c0,0,0.2,0.6-0.3,1c-0.4,0.4-1.4,0.6-2,0.2
			c-0.6-0.4-1.7-1.7-1.7-1.7l0.5,1.1l0.8,0.8l1.1,0.4l1.1-0.2l0.5-0.5l0.1-0.4L287,250.2z"/>
		<path style="fill:#AA8C30;" d="M283.7,252c0,0,0,0.1,0,0.7c0,0.6-0.2,1.5-0.2,1.5l1-2.5l-0.4-0.4L283.7,252z M277.7,254
			c0,0-0.1-0.2,0.1,0.6c0.3,0.8,2.7,3.4,2.7,3.4l-3.8-3.7l0.4-0.7L277.7,254L277.7,254z M276.4,254.4c0,0-0.5,0.4-0.9,0.4
			c-0.4,0-1.2,0-1.3-0.6c-0.1-0.6,0.1-0.9,0.1-0.9l-0.3,0.8l0.1,0.5l0.6,0.4l0.8,0.1l0.7-0.4L276.4,254.4L276.4,254.4z M274.9,252.5
			c0,0,0,0.2-0.7,0.1c-0.7-0.1-1.6-1.1-1.6-1.1l0.6,1l1.2,0.6L274.9,252.5z"/>
	</g>
	<g>
		<path style="fill:#AA8C30;" d="M0.5,0"/>
		<path style="fill:#AA8C30;" d="M0.5,0"/>
		<path style="fill:#9CA168;" d="M345.3,325.2c0,0,0.5-1.5,3.5-3.2c3.1-1.8,7.7-4.1,8.1-3.8c0.4,0.3-0.2,2.3-0.2,2.3l-3,1.1
			l-2.4,1.6l-2.8,2.1L345.3,325.2z"/>
		<path style="fill:#9CA168;" d="M0.5,0"/>
		<path style="fill:#9CA168;" d="M0.5,0"/>
	</g>
	<path style="fill:#FFFFFF;" d="M354,333.1c0,0-0.7-0.9-1.7-1.5c-0.9-0.6-1.3-0.4-1.3-0.4l-0.4-0.2l0.8-2.5l6.3-7l1-7l0.2,0l3.6,0
		l0,9.6l1.1,0.6l7,4.9l0,2.1c0,0-0.3,0.1-1,0.5c-0.7,0.3-0.8,0.5-0.8,0.5l-2.6,0.3l-4.6-3.9l-1.9-2.3l-3.5,5.2L354,333.1L354,333.1z
		"/>
	<path style="fill:#016848;" d="M358.9,314.5c0,0-0.1,0.4-0.1,1.4c0,1.1,0.1,6.7-0.2,7.5c-0.2,0.8-3.6,2.4-5.5,4.4
		c-1.9,2-2,3.4-2,3.4s-0.6,0.1-1.8,0.6c-1.2,0.5-1.7,1.3-1.7,1.3s0.7-3.5,3.8-6.7c3.1-3.2,4.6-3.5,5-4.1c0.3-0.5,0-6.7,0.1-7.2
		c0.1-0.5,0.4-0.5,0.7-0.6C357.3,314.5,358.9,314.5,358.9,314.5L358.9,314.5z M366.9,335.2c0,0,0.5-1.1,0.8-1.5c0.3-0.4,1.1-1,1.1-1
		s0.1-0.1-1.6-1c-1.7-0.9-2.6-0.6-3.8-1.6c-1.2-1-2.4-2.7-2.4-2.7l-1.6,1.7c0,0,1,1.6,1.9,2.7c0.9,1,3,1.4,3.9,2
		C366.1,334.3,366.9,335.2,366.9,335.2L366.9,335.2z"/>
	<path style="fill:#CD202A;" d="M362,314.5c0,0,1.8-0.1,2.1,0.2c0.3,0.3,0.2,0.7,0.2,0.8c0,0.1,0.1,5.2-0.2,6.9
		c-0.3,1.8-1.1,3.5-1.6,4c-0.4,0.5-3.2,3.3-4.5,4.8c-1.3,1.5-2.7,3.6-2.7,3.6s-0.5-0.6-0.9-1.2c-0.4-0.6-0.8-0.8-0.7-1.2
		c0.1-0.4,1.5-2.8,3.7-4.5c2.2-1.7,4.1-3.6,4.5-6.4C362.3,318.8,362,314.5,362,314.5L362,314.5z"/>
	<path style="fill:#CD202A;" d="M374.3,332c0,0-0.4-0.5-2-0.6c-1.6,0-1.7,0.2-1.7,0.2s-0.9-1.3-2.2-2.3c-1.4-1.1-2.4-0.9-3.9-2
		c-1.5-1.1-2.3-2.8-2.3-2.8l1.1-2.7c0,0,1.3,2.1,2.6,3.2c1.3,1.1,4.3,2.3,5.2,3.2C372.1,329.2,374.3,332,374.3,332L374.3,332z"/>
	<g transform="translate(-.699 1.184) scale(1.16833)">
		<path style="fill:#30C2DC;stroke:#0872A7;stroke-width:0.8178;stroke-miterlimit:4.6733;" d="M333,256.6c0,0-3.4-1.6-3.2-3
			c0.3-1.4,7.9-3.8,7.9-3.8l0.1-2.4c0,0-1.1-0.1-3.1,0.7c-1.9,0.7-5,1.7-8.3,1.7c-2,0-3.1-0.2-3.6-0.4c-0.4-0.1-27.1-2-28-2
			c-0.4,0-0.9,0-1.5-0.1c-3.6-0.3-5.9-6.7-5.9-6.7l-1.7,0.3c0,0,0.5,3.1-0.4,3.4c-1.8,0.5-13.4-6.7-13.4-6.7l-0.6,2.9
			c0,0,7.1,4.4,6.9,6.1c-0.2,1.7-2.3,1.5-2.3,1.5l0.9,2c0.3,0,11.7,0.7,11.9,4.7c0.1,1.6-2.8,2.6-2.8,2.6l1,1.4v0.7
			c0,0,6.3,0,8.1,1.2c1.8,1.1,2.6,2.8,4.8,4.2c2.1,1.4,16.7,1.1,19,0.3c2.6-0.8,4.2-4.2,8.3-5.7c4.2-1.5,5.5-1.6,5.5-1.6L333,256.6z
			"/>
		
			<ellipse style="fill:#FFFFFF;stroke:#0872A7;stroke-width:1.6006;stroke-miterlimit:4.6733;" cx="274.7" cy="250.2" rx="2.4" ry="2.7"/>
		
			<ellipse style="fill:#FFFFFF;stroke:#0872A7;stroke-width:1.6006;stroke-miterlimit:4.6733;" cx="286.3" cy="239.2" rx="2.4" ry="2.7"/>
		
			<ellipse style="fill:#FFFFFF;stroke:#0872A7;stroke-width:1.6006;stroke-miterlimit:4.6733;" cx="334.5" cy="256.8" rx="2.4" ry="2.8"/>
		<path style="fill:#F8C83C;" d="M265.7,235.7c-0.7,1.8,1.9,5.1,3.8,5.5c1.8,0.4,2.8-0.1,3.1-1.2c0.3-1,0.1-2.2-0.3-2.8
			C271.1,235.4,266.4,233.9,265.7,235.7L265.7,235.7z"/>
		<path style="fill:#FFFFFF;" d="M271.4,238.4c0-1.1-1.6-2.1-2.5-2.1c-1,0-1.9,0-1.8,0.6c0.2,0.6,2.7,1.4,2.7,1.7
			c0.1,0.3-0.7,0.7-0.3,1.2c0.4,0.4,0.9,0.1,1.3-0.2C271.2,239.2,271.5,239.1,271.4,238.4z"/>
		<path style="fill:#F8C83C;" d="M287.4,258.7c0.4,1.6-0.6,2.3-2,3c-1.3,0.7-4.1,0.3-4.7-1c-0.6-1.3,1-3.3,2.7-3.8
			C285.1,256.5,287.1,257.3,287.4,258.7z"/>
		<path style="fill:#FFFFFF;" d="M284.7,259.6c0.5-0.1,0.5,0.9,1,0.9c0.5-0.1,0.9-1,0.7-1.6c-0.1-0.6-1-1.4-1.8-1.3
			c-0.8,0.1-3,2.3-2.7,2.9c0.3,0.6,0.8,0.5,1.2,0.3C283.5,260.5,284.1,259.7,284.7,259.6z"/>
		<path style="fill:#F8C83C;" d="M337.1,250.6c1.2,1.9,3.4,0.1,4-0.6c0.6-0.7,2.4-2,1.6-3.2c-0.7-1.2-2-1.1-2.8-1.1
			c-0.8,0-2.5,1.5-2.8,2.1C336.8,248.5,336.6,249.8,337.1,250.6L337.1,250.6z"/>
		<path style="fill:#FFFFFF;" d="M337.5,249.3c0,0,0.1-2.1,1.8-2.1c0.9,0,1,0.3,1.7,0.8c0.7,0.5,1-0.6,1-0.6s0,1.5-1.1,1.5
			c-1.1,0-0.7-0.6-1.9-0.8C338,247.9,337.5,249.3,337.5,249.3L337.5,249.3z"/>
	</g>
	<g>
		<path style="fill:#F9AA51;stroke:#953220;stroke-width:0.701;stroke-linecap:round;stroke-linejoin:round;" d="M362.3,287.8
			l-1-0.7c0,0-1.9-0.1-3.2-0.1c-1.3,0-3.8,0.2-3.8,0.2l3.8,13l4.6,7.7l1.8,0.7l3.6-0.3l0.6-2l-1.3-12.5L362.3,287.8L362.3,287.8z"/>
		<path style="fill:#F9AA51;stroke:#953220;stroke-width:0.701;stroke-linecap:round;stroke-linejoin:round;" d="M349.7,288.6
			l0.2-1.5c0,0,0.9-0.1,2.1-0.2c1.2,0,2.3,0.1,2.4,0.2c0.1,0.1,2.7,3.7,3.5,6.1c0.9,2.4,1.9,6.4,3,8.8c1.1,2.4,3.6,6.5,3.6,6.5
			s-1.2,0.1-2.3,0.1s-2.3,0-2.3,0l-2.1-0.9l-6.4-11.7L349.7,288.6L349.7,288.6z"/>
		<path style="fill:#F9AA51;stroke:#953220;stroke-width:0.701;stroke-linecap:round;stroke-linejoin:round;" d="M347,287
			c0,0,2.6-0.1,2.9,0.1c0.2,0.2,3.2,3.2,4.3,7c1.2,3.7,0.6,4.3,2.1,8.1c1.5,3.9,3.6,6.5,3.6,6.5s-4.4,0.3-6.9-0.2
			c-2.5-0.5-3.4-0.5-3.9-1.3c-0.6-0.8-1.9-1.8-1.9-1.8h-2.5l0.6-4l-0.7-9.1l0.1-4.7L347,287L347,287z M373.3,289.4l-4.2-2l-7.8-0.5
			c0,0,0.3,2.4,0.6,4.7c0.3,2.2,1.7,7.6,2.9,10.2c1.3,2.6,2.5,5.8,3.2,6.5c0.7,0.8,5.2-1.4,5.2-1.4l2.9-0.5l-0.4-3.7l-0.4-1.2
			l0.7-10.6l-0.6-1.6L373.3,289.4z"/>
		<path style="fill:#F9AA51;stroke:#953220;stroke-width:0.701;stroke-linecap:round;stroke-linejoin:round;" d="M345.8,289.5
			c0,1.2,1,1.2,1.3,1.2c0.3-0.1,1.2-0.5,1.2-2c0-1.6-0.8-2.8-2.5-2.9c-1.6-0.1-2.9,2.3-2.9,3.9c0,1.6,1.4,2.5,1.4,3.1
			c0,0-1.4,1.5-1.3,4.1c0.1,2.6,1.9,4.6,1.9,4.6s-2,1.8-2,3.6s1.5,3,2.9,3s3.2-1,3.2-2.4c0-1.4-1-2.2-1.9-2.2
			c-0.9,0-1.2,0.6-1.2,1.1 M374.7,290.2c0,1.1-0.6,1.2-1.2,1.2c-0.5,0-1.3-0.3-1.3-1.8c0-1.4,1.6-2.2,2.6-2.2c1,0,2.8,1.6,2.8,3.6
			c0,2-1.2,3.3-1.2,3.3s0.8,0.4,0.8,2.9c0,2.5-1.4,4.3-1.4,4.3s1.8,0.8,1.8,3.4c0,2.6-1.5,3.4-2.6,3.4s-2.9-0.7-2.9-2.5
			c0-1.8,1-2.4,1.7-2.4c0.7,0,1.4,1,1.4,2 M0.5,0"/>
	</g>
	<g>
		<path style="fill:#231F20;" d="M390,287.4c0,0-1-0.4-1.5-1.4c-0.5-1-0.9-2.3-0.5-2.5c0.4-0.3,1.1,0.6,1.1,1.4
			C389,285.6,390,287.4,390,287.4L390,287.4z M401.7,283.6c0,0,0.7,1.6,1,1.7c0.3,0.2,1.4,0.8,1.4,0.8s-1.6,0-2.2-0.5
			c-0.5-0.5-1.2-1.9-1.2-1.9L401.7,283.6z"/>
		<path style="fill:#231F20;" d="M405.3,284.9c0,0-1,0.7-1.8,0.3c-0.8-0.4-1.5-1-1.2-1.4c0.3-0.4,0.5-0.3,1,0.3
			C403.7,284.7,405.3,284.9,405.3,284.9L405.3,284.9z M411.2,279c0,0-0.8,0.8-1.4,0.8c-0.6,0-1.8-0.3-1.8-0.6s1.5-0.5,1.8-0.4
			C410.1,278.9,411.2,279,411.2,279L411.2,279z M402.3,265.2c0,0-1.3,0.5-1.8,1.3c-0.4,0.8-0.3,1.6,0.2,1.6c0.5,0,0.7-0.9,0.7-1.2
			C401.4,266.7,402.3,265.2,402.3,265.2L402.3,265.2z M396.4,269c0,0-1,0.7-1.2,1.4c-0.3,0.6-0.5,2,0.1,2.1c0.6,0,0.8-1,0.8-1.6
			C396.1,270.3,396.4,269,396.4,269z"/>
		<path style="fill:#8CBEBF;stroke:#04534E;stroke-width:0.701;" d="M385.9,277.3l-3.2,4c0,0,7.4,4.8,13.1,4.6
			c5.7-0.2,12.2-5.4,12.6-6.5c0.4-1.1,0.1-5.7-0.7-7.2c-0.7-1.5-4.7-5.1-6.2-4.9c-1.5,0.2-4.1,2.5-6.6,5.3c-2.4,2.8-2.2,5.1-5.6,4.9
			C386,277.3,385.9,277.3,385.9,277.3L385.9,277.3z"/>
		<path style="fill:#0C8489;" d="M385.1,278.9c0,0,7.9,1.4,10.2-1c2.3-2.4,4.8-7,6.4-8s2.3-1,2.3-1s1.2,0.9,1.7,1.4c0.5,0.5,2,2,2,2
			l0.6,4.4l0,2.4l-2.5,2.4l-4.6,2.5l-4.4,1.6l-3.7-0.1l-7.5-2.5l-1.9-1.6l-0.5-0.5L385.1,278.9z"/>
		<path style="fill:#0C8489;" d="M0.5,0"/>
		<path style="fill:#8CBEBF;" d="M400.4,275.9c0-0.6,0.7-1.1,1.2-1.1c0.4,0,0.8,0.5,0.8,1.2c0,0.6-0.4,1.2-0.8,1.2
			C401.1,277.1,400.4,276.5,400.4,275.9L400.4,275.9z M399.3,281.2c0-0.7,0.6-1,1.2-1c0.7,0,1.2,0.3,1.2,1c0,0.7-0.5,1.3-1.2,1.3
			C399.8,282.5,399.3,281.9,399.3,281.2z M395.1,279.6c0-0.8,1.1-1.2,1.6-1.2c0.5,0,0.4,0.5,0.4,1.4c0,0.8-0.4,1.5-0.9,1.5
			C395.8,281.2,395.1,280.4,395.1,279.6L395.1,279.6z M397.1,273.4c0-0.7,0.5-0.8,0.9-0.8c0.4,0,0.7,0.2,0.7,1
			c0,0.7-0.3,1.3-0.7,1.3C397.5,275,397.1,274.2,397.1,273.4L397.1,273.4z M388.4,280.1c0-0.9,0.6-1.7,1.6-1.7
			c0.9,0,1.9,0.4,1.9,1.2c0,0.9-1.2,2.3-2.1,2.3C388.9,282,388.4,281,388.4,280.1z"/>
		<path style="fill:#231F20;" d="M391.5,278.6c0,0-1.1,0.2-1.7,0.9c-0.6,0.7-0.7,1.4-0.3,1.6c0.3,0.2,0.7-0.5,0.8-0.8
			C390.4,280,391.5,278.6,391.5,278.6L391.5,278.6z M396.7,277.2c0,0-1.1,0.9-1.2,1.7c-0.1,0.9,0,1.3,0.3,1.3c0.3,0,0.5-1.1,0.4-1.6
			C396.1,278.3,396.7,277.2,396.7,277.2L396.7,277.2z"/>
		<path style="fill:#231F20;" d="M397.6,278.5c0,0-0.7,0-1.2,0.6c-0.5,0.5-0.9,1.2-0.6,1.2c0.3,0,0.8-0.3,0.9-0.6
			C396.8,279.4,397.6,278.5,397.6,278.5z M398.7,271.4c0,0-0.5,0.5-0.8,0.8c-0.3,0.3-0.7,1.2-0.3,1.4c0.4,0.2,0.6-0.2,0.9-0.8
			C398.7,272.2,398.7,271.4,398.7,271.4L398.7,271.4z M402.7,274.4c0,0-1,0.2-1.4,0.7c-0.3,0.5-0.5,1.1-0.1,1.1
			c0.4,0,0.5-0.3,0.7-0.7C402.2,275,402.7,274.4,402.7,274.4L402.7,274.4z M402.1,279.9c0,0-0.2,0.8-0.8,1.2
			c-0.6,0.4-0.8,0.7-1.1,0.2c-0.3-0.5,0.1-0.8,0.4-0.9C400.9,280.3,402.1,279.9,402.1,279.9L402.1,279.9z"/>
		<path style="fill:#04534E;" d="M408.5,276.2c0,0,0.4,2.6-1.5,3.8c-1.9,1.3-7.2,5.7-12.3,5.2c-5-0.5-10.8-3.9-10.8-3.9l-0.8,0.4
			l1.3,0.6l3.9,1.9l4.5,1.5l2.8,0.2l2.4-0.3l4.5-1.7l3.8-2.3l2-1.8l0.5-0.8l0-1.1v-1.5L408.5,276.2z"/>
		<path style="fill:#231F20;" d="M309.5,242.9c0,0,1.2,1.2,1.1,2.2c-0.1,1-0.4,1.4-0.7,1.2c-0.3-0.2-0.3-1.2-0.3-1.6
			C309.6,244.2,309.5,242.9,309.5,242.9L309.5,242.9z M318.1,252.3c0,0-0.3,1.7-0.9,1.9c-0.6,0.2-1-0.6-0.9-0.9
			c0.1-0.3,0.6,0,0.8-0.3C317.4,252.8,318.1,252.3,318.1,252.3L318.1,252.3z M299.3,253.6c0,0,0.4,1,1.2,1.2c0.8,0.2,1.1-0.4,1-0.7
			c-0.1-0.3-0.4-0.2-0.8-0.2C300.2,253.8,299.3,253.6,299.3,253.6L299.3,253.6z M302.6,261.3c0,0,0.7,1,1.6,1.1
			c0.9,0.1,1.4-0.7,1.5-1c0.1-0.3-1.1-0.2-1.5,0.1C304,261.9,302.6,261.3,302.6,261.3L302.6,261.3z M308.6,267.3
			c0,0,1.5-0.3,1.8-0.8c0.3-0.5,0.7-1.3,0.3-1.8c-0.3-0.5-0.6,0.7-0.8,1.2C309.8,266.3,308.6,267.3,308.6,267.3L308.6,267.3z"/>
		<path style="fill:#8CBEBF;stroke:#04534E;stroke-width:0.701;" d="M318.2,262.5c0,0,1-8-4.5-13.7c-5.6-5.7-9.2-4.3-11.1-2.2
			c-1.9,2.1-3.6,8.9,2.3,14.8c5.9,5.9,13.2,4.1,13.2,4.1L318.2,262.5z"/>
		<path style="fill:#0C8489;" d="M301.2,254.1c0,0-0.1-4.4,1.7-5.7c1.8-1.3,7.7-2.5,10.6,4.1c2.9,6.5,3,9.8,2.2,13l-3.1,0l-4.8-2.3
			l-4-3.4L301.2,254.1L301.2,254.1z"/>
		<path style="fill:#04534E;" d="M317.4,263.7c0,0-1,1.3-3,1.2c-2-0.1-11.3-2.9-13.6-12.7l0.1,2.1l0.1,0.7l0.6,2l2,3.3l2.5,2.5
			l3.1,1.9l2.2,0.8l2.9,0.6h1.7L317.4,263.7L317.4,263.7z"/>
		<path style="fill:#04534E;" d="M312.6,260.9c0-0.9,0.4-0.9,1-0.9c0.6,0,1-0.3,1,0.6c0,0.9-0.4,2.1-1,2.1
			C313,262.7,312.6,261.7,312.6,260.9z M313,255.7c0-0.6,0.5-1.1,1-1.1c0.6,0,1,0.5,1,1.1c0,0.6-0.5,1.1-1,1.1
			C313.5,256.8,313,256.3,313,255.7z M308.8,261.4c0-0.5,0.5-0.9,1.2-0.9c0.7,0,1.2,0.4,1.2,0.9s-1.2,1.1-1.8,1.1
			C308.7,262.5,308.8,261.9,308.8,261.4L308.8,261.4z M308.4,255.3c0-0.8,0.3-0.5,0.9-0.5c0.6,0,1.3,0.2,1.3,1
			c0,0.8-0.7,1.8-1.3,1.8C308.7,257.6,308.4,256.1,308.4,255.3z M304.5,256.4c0-0.6,0.4-1.5,1.1-1.5c0.7,0,1.5,0.9,1.5,1.5
			c0,0.6-0.6,1.2-1.3,1.2C305,257.5,304.5,257,304.5,256.4L304.5,256.4z M305.2,251c0-0.7,0.4-0.6,1.1-0.6c0.7,0,1.3,0.3,1.3,1
			c0,0.7-0.8,1.5-1.6,1.5C305.3,252.9,305.2,251.7,305.2,251L305.2,251z M309.4,250.5c0-0.6,0.5-0.4,1.1-0.4c0.7,0,1.2,0.5,1.2,1.2
			c0,0.6-0.9,1.4-1.5,1.4S309.4,251.1,309.4,250.5L309.4,250.5z"/>
		<path style="fill:#8CBEBF;" d="M305.2,250.8c0.1-0.5,0.4-0.8,0.9-0.8c0.5,0,0.9,0.1,0.9,0.8c0,0.7-0.4,1.2-0.9,1.2
			C305.6,252.1,305,251.5,305.2,250.8z M304.4,256.1c0-0.7,0.3-1.3,0.9-1.3c0.6,0,1,0.1,1,0.7c0,0.7-0.5,1.4-1.1,1.4
			C304.6,257,304.4,256.8,304.4,256.1L304.4,256.1z M309.4,250.5c0-0.5,0.4-0.6,0.9-0.6c0.5,0,0.9,0.1,0.9,0.6c0,0.5-0.4,0.9-1,0.9
			S309.4,251.1,309.4,250.5L309.4,250.5z M308.4,255.6c0,0.7,0.4,1.3,1,1.3c0.6,0,1.1-0.6,1.1-1.3c0-0.7-0.6-1.4-1.2-1.4
			C308.8,254.2,308.4,254.9,308.4,255.6L308.4,255.6z M313.2,254.9c0,0.6,0.5,1.2,1.1,1.2c0.6,0,1.1-0.5,1.1-1.2
			c0-0.6-0.5-1.2-1.1-1.2C313.6,253.7,313.2,254.2,313.2,254.9z M308.6,261.4c0-0.6,0.5-1.1,1-1.1c0.5,0,1,0.4,1,0.9
			c0,0.6-0.9,1.3-1.4,1.3C308.7,262.5,308.6,261.9,308.6,261.4L308.6,261.4z M312.6,260.5c0-0.7,0.5-0.8,1.1-0.8s0.9,0.1,0.9,0.8
			c0,0.7-0.5,1.3-1.1,1.3S312.6,261.2,312.6,260.5L312.6,260.5z"/>
		<path style="fill:#231F20;" d="M313.7,252.4c0,0,0.6,0.9,0.7,1.6c0.1,0.7,0.1,1.5-0.1,1.6c-0.2,0.1-0.6-0.4-0.7-1.1
			C313.5,253.8,313.7,252.4,313.7,252.4L313.7,252.4z M310.2,248c0,0,0.4,0.7,0.4,1.4c0,0.6-0.1,1.3-0.4,1.3c-0.3,0-0.3-0.6-0.3-1.1
			C309.9,249.1,310.2,248,310.2,248L310.2,248z M306,248.6c0,0,0.4,0.7,0.4,1.4c0,0.6-0.1,1.3-0.4,1.3c-0.3,0-0.3-0.6-0.3-1.1
			C305.8,249.8,306,248.6,306,248.6L306,248.6z"/>
		<path style="fill:#231F20;" d="M304.6,249.6c0,0,0.5,0.2,1,0.6c0.5,0.4,0.7,1,0.5,1.2c-0.2,0.3-0.6-0.1-0.7-0.4
			C305.2,250.6,304.6,249.6,304.6,249.6L304.6,249.6z M307.7,254.7c0,0,0.8,0,1.2,0.5c0.4,0.5,0.8,0.9,0.5,1.2
			c-0.3,0.3-0.9-0.3-1.1-0.6C308.1,255.4,307.7,254.7,307.7,254.7z M303.9,254.5c0,0,0.7,0.2,1.1,0.5c0.4,0.3,0.5,0.9,0.3,1
			c-0.2,0.1-0.4-0.1-0.8-0.5C304.2,255.2,303.9,254.5,303.9,254.5L303.9,254.5z M313.2,257.9c0,0,0.3,1,0.3,1.8
			c0,0.7,0.1,1.4-0.2,1.4c-0.3,0-0.4-0.9-0.4-1.5C312.8,259,313.2,257.9,313.2,257.9L313.2,257.9z M312.2,259.6c0,0,0.7,0.3,1,0.6
			c0.3,0.3,0.4,0.8,0.1,0.9c-0.2,0.1-0.4-0.5-0.5-0.7C312.5,260.2,312.2,259.6,312.2,259.6L312.2,259.6z M308,259.9
			c0,0,0.7,0.1,1,0.3c0.3,0.2,0.3,1.4,0.3,1.5c0,0.1-0.5,0-0.7-0.5C308.4,260.7,308,259.9,308,259.9L308,259.9z"/>
		<path style="fill:#04534E;" d="M306.4,245.1c0,0-3.7,0.9-4.4,3.7c-0.7,2.8-0.7,5.9-0.7,5.9l-0.5-3.5l0.7-2.3l1.1-2.1l1.6-1.2
			l1.5-0.6L306.4,245.1z M317.9,261.5c0,0,0.4-1.1-0.7-4.5c-1.1-3.4-3.3-7.8-3.3-7.8l1.7,2.3l1.4,2.6l0.7,2.4l0.5,2.2l0,2.1
			L317.9,261.5z"/>
		<path style="fill:#231F20;" d="M321.6,256c0,0,1.3,1,1.4,1.5c0.1,0.5,0.2,0.7-0.1,0.9c-0.3,0.2-0.9-0.5-1-0.9
			C321.7,257.1,321.6,256,321.6,256z M316.2,272.9c0,0,0.6-1.3,1.4-1.8c0.8-0.5,1.4-0.4,1.6-0.1c0.2,0.3-0.5,1-1.1,1.2
			C317.6,272.4,316.2,272.9,316.2,272.9L316.2,272.9z M325.3,277c0,0,0.9-0.5,1.5-1.2c0.6-0.7,0.7-1.3,0.4-1.5
			c-0.2-0.3-1,0.2-1.3,0.8C325.6,275.6,325.3,277,325.3,277L325.3,277z M324.3,276c0,0,0.3-1.4,0.6-1.8c0.3-0.4,0.7-0.7,1.1-0.4
			c0.3,0.2,0.1,0.8-0.1,1.2C325.6,275.2,324.3,276,324.3,276z"/>
		<path style="fill:#8CBEBF;stroke:#04534E;stroke-width:0.701;" d="M339.4,267.9c0,0-5.6-9.5-14.4-10c-7-0.4-9.2,6.9-9,9.1
			c0.3,2.2,2.9,6.9,12.2,7.7c9.4,0.8,10.9-5.1,11.3-5.4C339.9,269,339.4,267.9,339.4,267.9L339.4,267.9z"/>
		<path style="fill:#0C8489;" d="M332.8,261.4c0,0,2.3,2.1,3.3,3.7c1,1.6,1.2,2.9,0.6,3.1c-0.6,0.2-5.7-5.3-9.8-6.4
			c-4.2-1.2-7.8-0.1-8.6,2.3c-0.8,2.3-0.5,5.8,1.4,7.3c1.9,1.4,10.8,3.1,10.8,3.1s4.1-0.6,4.2-0.7c0.1-0.1,2.6-1.7,2.6-1.7l0.5-1.6
			l0.7-2.2l0.3-0.9l-2.2-2.8L332.8,261.4L332.8,261.4z"/>
		<path style="fill:#04534E;" d="M325.6,262.7c0,0.6-0.6,0.9-1.1,0.9c-0.5,0-1-0.3-1-0.9c0-0.6,0.4-1.1,1-1.1
			C325,261.6,325.6,262.1,325.6,262.7z M320.4,264.9c0-0.6,0.6-0.6,1.2-0.6c0.6,0,1.1,0.5,1.1,1.1c0,0.6-0.9,1.5-1.5,1.2
			C320.6,266.2,320.4,265.5,320.4,264.9L320.4,264.9z M326,268.4c0-0.8,0.6-1.4,1.3-1.4c0.7,0,1.3,0.6,1.3,1.4
			c0,0.8-0.9,1.6-1.6,1.6S326,269.2,326,268.4L326,268.4z"/>
		<path style="fill:#8CBEBF;" d="M321.8,269.8c0-0.7,0.6-0.8,1.1-0.8c0.5,0,1.2,0.6,1.2,1.3c0,0.7-0.7,1.1-1.2,1.1
			C322.4,271.5,321.8,270.5,321.8,269.8L321.8,269.8z"/>
		<path style="fill:#8CBEBF;" d="M0.5,0"/>
		<path style="fill:#8CBEBF;" d="M325.3,262.1c0,0.5-0.2,0.8-0.7,0.8c-0.5,0-1-0.3-1-0.8c0-0.6,0.2-0.7,0.7-0.7
			C324.7,261.4,325.3,261.6,325.3,262.1L325.3,262.1z M322.6,264.7c0,0.6-0.8,1-1.3,1s-0.8-0.4-0.8-1c0-0.6,0.4-0.8,0.9-0.8
			C321.9,263.9,322.6,264.1,322.6,264.7L322.6,264.7z M323.8,269.7c0,0.5-0.2,0.9-0.7,0.9c-0.5,0-1.2-0.4-1.2-0.9
			c0-0.5,0.2-0.9,0.7-0.9C323.1,268.9,323.8,269.2,323.8,269.7z M328.2,268c0,0.5-0.9,1.2-1.4,1.2c-0.5,0-0.7-1-0.7-1.6
			c0-0.6,0.4-1,0.9-1C327.5,266.7,328.2,267.5,328.2,268z M334.7,269.7c0,0.6-0.8,0.5-1.2,0.5c-0.4,0-0.8-0.6-0.8-1.2
			c0-0.6,0.1-1.1,1.2-1C334.3,268.1,334.7,269.1,334.7,269.7L334.7,269.7z M330.9,272c0,0.6-0.4,1-0.8,1c-0.5,0-0.8-0.5-0.8-1
			c0-0.6,0.4-0.8,0.8-0.8C330.5,271.2,330.9,271.4,330.9,272L330.9,272z"/>
		<path style="fill:#231F20;" d="M331.5,268.8c0,0,0.9-0.3,1.6-0.3c0.7,0.1,0.7,0.4,0.7,0.5c0,0.1-0.5,0.4-0.8,0.3
			C332.8,269.3,331.5,268.8,331.5,268.8L331.5,268.8z M327.7,272.6c0,0,0.7-0.5,1.3-0.6c0.5-0.1,1,0.1,0.9,0.5
			c0,0.4-0.2,0.5-0.8,0.5C328.6,272.9,327.7,272.6,327.7,272.6z M325.2,266c0,0,1.6,0.8,1.9,1.5c0.3,0.7,0.5,0.9,0.1,1.1
			c-0.3,0.2-0.7-0.3-0.9-0.6C326.1,267.7,325.2,266,325.2,266L325.2,266z"/>
		<path style="fill:#231F20;" d="M324.8,268.3c0,0,1.2-0.4,1.8-0.4c0.5,0,0.7,0,0.8,0.3c0.1,0.3-0.1,0.4-0.6,0.4
			C326.3,268.7,324.8,268.3,324.8,268.3z M321,268.4c0,0,1.3,0.2,1.6,0.6c0.3,0.4,0.3,0.8,0.2,1c-0.1,0.2-0.8,0.1-0.9-0.1
			C321.7,269.6,321,268.4,321,268.4L321,268.4z"/>
		<path style="fill:#231F20;" d="M320.8,270.6c0.1-0.1,0.5-0.9,1-1.1c0.5-0.2,1-0.2,1.1,0.1c0.1,0.3-0.4,0.7-0.8,0.8
			C321.8,270.6,320.8,270.6,320.8,270.6L320.8,270.6z M319.8,263.9l1.3,0.4c0.5,0.4,0.6,0.8,0.5,0.9c-0.1,0.2-0.6,0.2-1-0.1
			C320,264.7,319.8,263.9,319.8,263.9L319.8,263.9z M322.7,260c0,0,1.3,0.4,1.8,1.1c0.4,0.7,0.4,1.1,0.2,1.3c-0.2,0.1-0.7-0.2-1-0.5
			C323.3,261.6,322.7,260,322.7,260z"/>
		<path style="fill:#04534E;" d="M337.8,271.2c0,0-2.7,2.7-8.8,2.4c-6.1-0.3-11.6-3.3-13-6.6l0.5,1.6l1.4,2.1l4.3,2.6l4.8,1.3
			l3.8,0.3l3.6-0.7c0,0,2.6-1.5,2.8-1.6c0.1-0.1,0.4-0.8,0.4-0.8L337.8,271.2z M338.6,267.8c0,0-1-1.5-2.4-3c-1.4-1.6-7-5.8-7-5.8
			l4.5,2.4l3,2.9l2.1,2.7L338.6,267.8L338.6,267.8z"/>
		<path style="fill:#231F20;" d="M338.9,261.5c0,0,1.5,0.7,1.8,1.1c0.3,0.4,0.6,0.8,0.6,0.8s-0.4,1.2-0.8,0.7
			c-0.4-0.5-0.4-0.5-0.8-1.1C339.3,262.4,338.9,261.5,338.9,261.5z M343.5,258.6c0,0,1.4,0.7,1.9,1.5c0.5,0.8,0.4,1.5,0.2,1.6
			c-0.2,0.1-1.2-0.9-1.3-1.3C344.1,260.1,343.5,258.6,343.5,258.6L343.5,258.6z M0.5,0"/>
		<path style="fill:#231F20;" d="M356.6,283.5c0,0,0.8-1.2,1-1.8c0.2-0.6,0.3-1.4-0.1-1.3c-0.4,0-0.8,0.7-0.9,1.1
			C356.6,282,356.6,283.5,356.6,283.5L356.6,283.5z"/>
		<path style="fill:#8CBEBF;stroke:#04534E;stroke-width:0.701;" d="M337.6,271.7c0.1-3.2,3.9-10.6,8.4-10.5c1.9,0,5.5,1.2,8.5,2.7
			c2.5,1.3,3.3,2.7,4.9,3.2c1.6,0.5,4.1,0.1,4.1,0.1l5.6-0.7l-4.4,7.5l-1.6,1.6c0,0-1.4,3.2-5.4,5c-4,1.8-10.7,0.5-13.7-0.4
			C341.1,279.4,337.5,276,337.6,271.7L337.6,271.7z"/>
		<path style="fill:#8CBEBF;stroke:#04534E;stroke-width:0.701;" d="M0.5,0"/>
		<path style="fill:#0C8489;" d="M364.7,272.7c-0.5,0.4-1,0.4-1.6,0.4c-0.6,0-13-8.9-16.9-8.5c-3.9,0.4-7.6,2.3-7.7,7
			c-0.1,4.6,0.9,4.7,1.7,6c0.8,1.3,8.4,3.2,8.4,3.2l4.6-0.1l3.7-0.5l3.3-2.1l1.8-1.7l1.2-1.7L364.7,272.7L364.7,272.7z"/>
		<path style="fill:#0C8489;" d="M0.5,0"/>
		<path style="fill:#8CBEBF;" d="M345,270.2c0,0.7-0.5,1.3-1.2,1.3c-0.6,0-1.2-0.6-1.2-1.3c0-0.7,0.5-1,1.2-1
			C344.5,269.2,345,269.4,345,270.2L345,270.2z M348.6,266c0,0.7-0.2,1.1-0.8,1.1c-0.6,0-1.5-0.4-1.5-1.1c0-0.7,0.5-1.3,1.1-1.3
			C348.1,264.8,348.6,265.3,348.6,266L348.6,266z M355.8,268.3c0,0.6-0.5,1.1-1.1,1.1c-0.6,0-1.1-0.5-1.1-1.1c0-0.6,0.5-1.1,1.1-1.1
			C355.4,267.2,355.8,267.7,355.8,268.3L355.8,268.3z"/>
		<path style="fill:#04534E;" d="M352,271.9c0,0.9-0.3,1.5-1.1,1.5c-0.8,0-1.3-0.4-1.3-1.3c0-0.9,0.4-1.2,1.2-1.2
			C351.6,270.9,352,271,352,271.9L352,271.9z"/>
		<path style="fill:#8CBEBF;" d="M346.8,275.7c0,0.7-0.5,1.3-1.2,1.3c-0.6,0-1.2-0.6-1.2-1.3c0-0.7,0.7-1.1,1.4-1.1
			C346.5,274.7,346.8,275,346.8,275.7L346.8,275.7z M351.8,271.7c0,0.7-0.5,1.3-1.1,1.3c-0.6,0-1.1-0.6-1.1-1.3
			c0-0.7,0.5-1.3,1.1-1.3C351.3,270.4,351.8,271,351.8,271.7z M357.7,273.5c0,0.8-0.4,1.4-1.1,1.4s-1.3-0.6-1.3-1.4
			c0-0.8,0.2-1.1,0.9-1.1C356.9,272.4,357.7,272.7,357.7,273.5L357.7,273.5z M353.9,277.1c0,0.7-0.4,1.2-1.1,1.2
			c-0.6,0-1.3-0.4-1.3-1.2c0-0.7,0.6-1,1.2-1C353.4,276.1,353.9,276.4,353.9,277.1z M0.5,0"/>
		<path style="fill:#231F20;" d="M340.9,270.3c0,0,1.1-0.3,1.7-0.3c0.5,0,1.3-0.2,1.3,0.3c0,0.5-0.7,0.6-1.1,0.5
			C342.5,270.6,340.9,270.3,340.9,270.3L340.9,270.3z M350.6,277.6c0,0,1.2-0.9,1.8-0.7c0.6,0.2,0.8,0.1,0.8,0.5
			c0,0.4-0.7,0.3-0.9,0.3S350.6,277.6,350.6,277.6L350.6,277.6z M343.8,276.4c0,0,0.5-0.8,1-0.9c0.5-0.1,0.7,0,0.8,0.2
			c0.1,0.3-0.4,0.7-0.7,0.7C344.7,276.5,343.8,276.4,343.8,276.4L343.8,276.4z"/>
		<path style="fill:#04534E;" d="M363.2,275c0,0-1.9,2.6-4.5,3.9c-2.6,1.3-4.6,1.7-8.2,1.5c-3.6-0.3-5.4-0.9-7.8-2.4
			c-2.4-1.5-4.4-3.6-4.8-4.5c-0.4-0.9,0.4,1.5,0.4,1.5l2.2,3.4l2.7,1.4l3.9,1.1l3.7,0.5l2.8-0.1l3.4-0.6l2.2-0.9l1.5-1l1.1-1.1
			L363.2,275z M359.7,267.3c0,0-1,0.4-3.2-1.2c-2.2-1.6-4.9-3.7-9.9-3.7c-5,0-6.6,4-7,4.3c-0.3,0.3,2.3-3.5,2.3-3.5l2.3-1.4l1.8-0.3
			l1.7,0.1l2.2,0.7l2,0.7l2.3,0.9l2,1.3l2.5,1.5L359.7,267.3L359.7,267.3z M366.5,269c0,0-3,0-3.8,0c-0.8,0.1-0.9,0.3-1,0.5
			c-0.1,0.3-0.3,0.6-0.3,0.6l-0.9-2.3l4-0.7l2.2,1L366.5,269z"/>
		<path style="fill:#0C8489;stroke:#04534E;stroke-width:0.701;" d="M361,293.1c0.2,0.6,0.7,1.2,1.3,1.2c0.6,0,1.8,0,1.8,0l4-0.3
			l1.4-1.9l0.9-4.2c0,0,1.1-1.5,1.1-1.6c0-0.1,3.7-2.4,3.7-2.4l3.2-1.1l2.1-0.3l2.8-1.1l2.1-1.3l0.9-1.6l0.9-2.4l-0.9-3.2l-2.2-3.5
			l-3.8-1.8h-3.1l-3.5,1.5l-6.2,1.7c0,0-3.4,1.7-4.8,4.8c-1.4,3.1-1.4,3.9-1.6,8C360.9,287.8,361,293.1,361,293.1L361,293.1z"/>
		<path style="fill:#8CBEBF;" d="M362.7,291.5c1.2,0,0.3-2.3,1.6-5c1.3-2.7,3-6,3.4-6c0.4,0,0.5,0.5,1,0.3c0.5-0.2,1.3-1,1.4-1.3
			c0-0.2,0-1.8,1.1-2.7c1-1,2.5-2.4,3.1-2.5c0.7-0.2,1-0.3,1.1,0.1c0.1,0.4-0.4,0.9,0.1,1.1c0.5,0.2,1.5,0.1,1.8-0.7
			c0.3-0.8,0.2-1.2,0.2-1.2s0.7-0.8,2-0.5c1.3,0.3,1.5,0.3,1.6,0.9c0.1,0.6-0.6,0.7-0.5,1.1c0.1,0.4-0.1,0.4,0,0.7
			c0.1,0.3,0.4,1.2,1.3,1.2c0.9,0,1.3-0.6,1.3-0.6l0.3-0.6c0,0,0.2-0.7-0.1-0.9c-0.3-0.3-0.2-0.6,0.1-0.4c0.3,0.2,1.7,2.4,2.2,1.5
			c0.5-0.9,0.5-2.2,0.3-2.5c-0.2-0.3-2.2-3.7-2.2-3.7l-3.4-1.4l-4.6,0.4l-4.4,2.9l-4,2.5c0,0-0.2,3.9-1,3.2c-0.7-0.7-1.8-2.6-2.1-2
			c-0.3,0.6-1,3.5-1.4,4.9c-0.4,1.4-1.6,5.8-1.5,7.4C361.5,289.3,362.3,291.5,362.7,291.5L362.7,291.5z"/>
		<path style="fill:#8CBEBF;" d="M366.8,285.3c-0.3,0-0.8,0.4-0.9,0.6c-0.1,0.2-0.4,0.7-0.2,1.2c0.1,0.5,0.8,1,0.8,1.1l0.5,0
			l1.1-0.4c0,0,0.4-0.5,0.4-1.1c0-0.6-0.3-0.8-0.5-0.8C367.8,285.8,366.8,285.3,366.8,285.3z M373.7,278.5c-0.6-0.3-0.9,0.2-1,0.5
			c-0.1,0.2-0.1,0.7-0.1,0.7s0.1,1,0.5,1.2c0.3,0.2,1.2,0.5,1.5,0.2c0.3-0.3,0.6-0.6,0.5-1.2c0-0.7-0.8-1-0.8-1L373.7,278.5z
			 M379.3,280.1c0-0.2-0.6-0.4-0.9-0.3c-0.4,0.1-0.9,0.6-0.7,1.4c0.2,0.8,0.8,0.9,1.4,0.7c0.5-0.2,0.4-1,0.4-1.2
			C379.5,280.7,379.3,280.1,379.3,280.1L379.3,280.1z M363.1,281.4c0,0.4,0.6,1.2,1.4,1.1c0.8-0.1,1.3-0.8,1.3-1.3
			c0.1-0.6-0.4,0.5-1,0.6c-0.6,0.2-0.9,0.3-1.2,0C363.4,281.5,363.1,281.4,363.1,281.4L363.1,281.4z"/>
		<path style="fill:#04534E;" d="M368.4,286.7c0,0,0.1,0.8-0.4,1.3c-0.5,0.4-0.8,0.4-1.1,0.4c-0.3,0-0.6-0.1-0.8-0.4
			s-0.4-0.8-0.4-0.8s0.6,1.1,1.5,0.8C368,287.6,368.4,286.7,368.4,286.7L368.4,286.7z M383.5,275.8c0,0,0,0.8-0.6,1.2
			c-0.6,0.3-0.8,0.4-1.1,0.4c-0.3,0-0.7-0.2-0.9-0.6c-0.7-1.2-0.3-2-0.3-2s0.5,2.1,1.4,1.9C383,276.6,383.5,275.8,383.5,275.8
			L383.5,275.8z M370.1,279.5c0,0-0.5,1.6-1.4,1.6c-0.9,0-0.8-0.3-0.8-0.5c0.1-0.2,0.4,0.2,0.8,0.1
			C369.1,280.6,370.1,279.5,370.1,279.5L370.1,279.5z M372.7,279.2c0,0-0.1,1.2,0.2,1.6c0.3,0.4,0.7,0.6,1.1,0.6
			c0.4,0,0.7-0.1,1-0.6c0.3-0.5,0.1-1,0.1-1s0,0.3-0.3,0.6c-0.3,0.3-0.5,0.4-0.8,0.4c-0.3,0-0.8,0-0.9-0.4
			C372.9,280,372.7,279.2,372.7,279.2L372.7,279.2z M377.4,273.5c0,0,0.3,0.9-0.3,1.6c-0.6,0.7-1.7,0.3-1.7,0.3s0.9,0.3,1.3-0.3
			C377.2,274.5,377.4,273.5,377.4,273.5L377.4,273.5z"/>
		<path style="fill:#04534E;" d="M362.2,294c0,0,5.9-0.1,6.4-1.1c0.5-0.9-0.5-4.7,3.1-7.6c3.6-2.9,6.4-2.9,8.3-3.1
			c1.9-0.2,6-1.7,6.7-5.9c0.4-2.6-2.6-2.8-3.7-5.2c-1.1-2.5-4.1-1.5-4.2-1.5c-0.1,0-3.4-0.1-4.9,1.6c-0.9,1-0.8,2.3-1.2,2.9
			c-0.4,0.6-4.3,0-4.8,0.7c-0.4,0.7,0.1,2.3-0.2,2.6c-0.3,0.3-1.2-1-1.2-1l0.3-3.7l5-3.4l5.7-3.7c0,0,3.7,0.2,3.9,0.1
			c0.1-0.1,3.8,2.2,3.9,2.3c0.1,0,1.9,2.6,1.9,2.6s0.4,1,0.5,3.1c0.1,1,0,1.8-0.2,2.6c-0.9,3.8-4.1,6.4-7.5,6.6
			c-3.4,0.2-6.4,2-8,3.3c-1.5,1.3-2.3,7.1-2.3,7.8c0,0.7-7.4,0.2-7.4,0.2L362.2,294L362.2,294z"/>
		<path style="fill:#231F20;" d="M364.7,280.5c-0.3,0.3-0.7,0.3-0.8-0.1c-0.3-1.1,0.3-2.8,0.3-2.8s0,1.8,0.1,2
			c0.1,0.3,0.4,0.2,0.5,0.5C364.8,280.2,364.9,280.3,364.7,280.5z M368.4,279.6c-0.3-0.1-0.2-1.2,0-1.6c0.2-0.5,1.9-1.9,1.9-1.9
			s-0.5,1.4-0.7,2C369.4,278.6,368.8,279.8,368.4,279.6z M367,286.7c-0.2,0.1-0.3-0.5-0.3-1.3c0-0.8,1.1-2.1,1.1-2.1
			s-0.3,1.2-0.4,1.6c0,0.4,0.2,0.7,0.1,1.2C367.5,286.5,367.2,286.6,367,286.7L367,286.7z"/>
		<path style="fill:#231F20;" d="M369.7,284.7c0,0-0.5,0.7-1.1,1.1c-0.6,0.4-1.3,1-1.6,0.8c-0.4-0.1,0.2-1.1,0.4-1.1
			C368.4,285.1,369.7,284.7,369.7,284.7z M374.8,276.3c0,0-0.7,0.7-1,1.6c-0.3,0.9-0.5,1.7-0.1,1.9c0.3,0.2,0.8-1.1,0.9-1.5
			C374.5,277.8,374.8,276.3,374.8,276.3z"/>
		<path style="fill:#231F20;" d="M376.7,279.2c0,0-0.5-0.5-1.3-0.8c-0.8-0.2-1.2,0-1.3,0.3c-0.1,0.3-0.7,0.7-0.4,0.9
			c0.3,0.2,0.7-0.4,0.9-0.4c0.3-0.1,0.6-0.3,1-0.2C376,279.1,376.7,279.2,376.7,279.2L376.7,279.2z M375.6,273.4
			c0.3,0.3,0.8-0.3,1.2-0.8c0.4-0.5,0.7-1.6,0.7-1.6s-0.9,0.5-1.2,0.9C375.9,272.3,375.4,273.3,375.6,273.4L375.6,273.4z
			 M383.3,273.2c0,0-1,0.6-1.3,1.1c-0.3,0.5-0.8,1.1-0.4,1.4c0.3,0.3,0.7-0.3,0.9-0.7C382.7,274.6,383.3,273.2,383.3,273.2
			L383.3,273.2z M381.1,279.3c0,0-0.3,0.8-1,1.3c-0.6,0.5-1.4,0.7-1.5,0.5c-0.1-0.3,0.1-0.8,0.3-0.9c0.2-0.1,0.4-0.1,1-0.3
			C380.5,279.6,381.1,279.3,381.1,279.3L381.1,279.3z"/>
	</g>
	<g transform="translate(-.699 1.184) scale(1.16833)">
		
			<radialGradient id="SVGID_1_" cx="997.8521" cy="-205.1882" r="25.8603" gradientTransform="matrix(0.1514 7.473707e-02 6.251634e-02 -0.1776 145.4097 109.8233)" gradientUnits="userSpaceOnUse">
			<stop  offset="0" style="stop-color:#FFFFFF"/>
			<stop  offset="1" style="stop-color:#F15770"/>
		</radialGradient>
		<path style="fill:url(#SVGID_1_);" d="M284.3,216.1c1.5,0.3,2.5,2.6,2.1,5.3c-0.3,2.6-1.8,4.6-3.4,4.3s-2.5-2.6-2.1-5.3
			C281.3,217.7,282.8,215.8,284.3,216.1z"/>
		<g>
			<path style="fill:#FCCA3E;stroke:#AA8C30;stroke-width:0.4089;stroke-miterlimit:4.6733;" d="M285.2,212.2l-1.6,4.8l1.3-0.2
				l0.8-4.2L285.2,212.2z"/>
			<path style="fill:#FCCA3E;stroke:#AA8C30;stroke-width:0.3505;stroke-miterlimit:4.6733;" d="M286,210.2
				c-0.6-0.1-1.1,0.4-1.2,1.2c-0.1,0.7,0.3,1.4,0.9,1.5c0.6,0.1,1.1-0.4,1.2-1.2C287,210.9,286.6,210.2,286,210.2z"/>
			<path style="fill:#FCCA3E;stroke:#AA8C30;stroke-width:0.4089;stroke-miterlimit:4.6733;" d="M356.8,222.2l-4.1,4.4l1.7,0.5
				l2.8-4.3L356.8,222.2z"/>
			<path style="fill:#FCCA3E;stroke:#AA8C30;stroke-width:0.3505;stroke-miterlimit:4.6733;" d="M358.6,220.3
				c-0.6-0.4-1.5-0.1-1.9,0.6c-0.4,0.8-0.2,1.7,0.4,2.1c0.6,0.4,1.5,0.1,1.9-0.6C359.5,221.7,359.3,220.7,358.6,220.3z"/>
			<path style="fill:#FCCA3E;stroke:#AA8C30;stroke-width:0.4089;stroke-miterlimit:4.6733;" d="M253.8,196.5l2.1,5.5l0.9-1.5
				l-2.4-4.2L253.8,196.5z"/>
			<path style="fill:#FCCA3E;stroke:#AA8C30;stroke-width:0.3505;stroke-miterlimit:4.6733;" d="M252.9,194.1
				c-0.5,0.5-0.6,1.5-0.1,2.1c0.5,0.7,1.3,0.8,1.8,0.3c0.5-0.5,0.6-1.5,0.1-2.1C254.3,193.7,253.5,193.6,252.9,194.1z"/>
		</g>
		<g>
			<path style="fill:#AA8C30;" d="M286.4,210.3C286.4,210.3,286.7,210.5,286.4,210.3c-0.4-0.1-1.3,0.5-1.3,1.2c0,0.7,0.5,1.2,1,1.2
				c0.5,0-0.2,0.1-0.2,0.1l-0.6-0.2l-0.3-0.4l-0.2-0.6l0.2-0.6l0.4-0.6l0.5-0.2l0.3,0L286.4,210.3z"/>
			<path style="fill:#AA8C30;" d="M285.4,213.6c0,0-0.3-0.1-0.5,0.3c-0.2,0.4-0.7,1.2-0.7,1.2l0.9-2.6l0.5,0.3L285.4,213.6z
				 M359,220.7C359,220.7,359.3,221.1,359,220.7c-0.5-0.3-1.8-0.2-2.1,0.6c-0.3,0.8,0,1.6,0.6,1.8c0.6,0.3-0.3,0-0.3,0l-0.6-0.6
				l-0.1-0.6l0-0.8l0.5-0.6l0.7-0.4l0.6,0l0.3,0.2L359,220.7L359,220.7z"/>
			<path style="fill:#AA8C30;" d="M356.5,223.8c0,0-0.3-0.2-0.7,0.1c-0.5,0.3-1.4,0.9-1.4,0.9l2.2-2.4l0.5,0.6L356.5,223.8z
				 M253.4,193.9c0,0,0.4-0.2,0,0.1c-0.4,0.3-0.8,1.6-0.2,2.2c0.5,0.6,1.2,0.5,1.6,0c0.4-0.5-0.1,0.3-0.1,0.3l-0.6,0.5l-0.5-0.1
				l-0.6-0.3l-0.3-0.7l-0.1-0.8l0.2-0.6l0.3-0.3L253.4,193.9z"/>
			<path style="fill:#AA8C30;" d="M255,197.4c0,0-0.3,0.2-0.1,0.8c0.1,0.6,0.3,1.7,0.3,1.7l-1.2-3l0.6-0.3L255,197.4z"/>
		</g>
		
			<radialGradient id="SVGID_2_" cx="-103.8199" cy="222.824" r="25.8684" gradientTransform="matrix(-1.495301e-02 -0.1895 -0.1506 1.667784e-02 290.6476 183.5551)" gradientUnits="userSpaceOnUse">
			<stop  offset="0" style="stop-color:#FFFFFF"/>
			<stop  offset="1" style="stop-color:#F15770"/>
		</radialGradient>
		<path style="fill:url(#SVGID_2_);" d="M261.3,205.4c1.1,2.6,0.8,5.3-0.6,6.2s-3.6-0.5-4.7-3c-1.1-2.6-0.8-5.3,0.6-6.2
			C258.1,201.4,260.2,202.8,261.3,205.4z"/>
		<g>
			<path style="fill:#E92736;" d="M253.6,205.8c0,0,0.9,0.2,1.4,0c0.5-0.3,0.6-0.7,0.7-0.9c0.1-0.1,0.3-0.7,0.2-1
				c0-0.3-0.7-1.5-0.9-1.6c-0.2-0.1-0.9,0-1-0.1c-0.1-0.1,0.1-0.5-0.2-0.5c-0.3-0.1-1.7,1.8-1.4,2.1c0.3,0.3,0.4-0.1,0.5,0.1
				c0.1,0.2,0,0.9,0,1.2C252.9,205.2,253.6,205.8,253.6,205.8L253.6,205.8z"/>
			<path style="fill:#E92736;" d="M255,202.3c0.1,0.3,0.6,1.1,0.8,1.2c0.2,0.1,0.8,0.1,1,0c0.2-0.1,0.9-0.8,0.9-1.2
				c0-0.3,0-0.6-0.1-0.9c-0.1-0.3-0.1-1.2-0.3-1.2c-0.3,0-0.4-0.1-0.5-0.3c-0.1-0.2,0.1-0.5-0.1-0.8c-0.2-0.3-2.4,1.2-2.3,1.5
				c0.2,0.3,0.4,0,0.5,0.2C255.1,201,254.9,202,255,202.3L255,202.3z"/>
			<path style="fill:#E92736;" d="M260,201.7c0.1-0.4,0.1-1.7-0.1-2c-0.2-0.3-0.6-0.3-0.6-0.5c0-0.2,0.3-0.2,0.3-0.5
				c0-0.3-2.5,0.1-2.3,0.4c0.2,0.3,0.6,0.1,0.6,0.3c0,0.2-0.4,0.4-0.5,0.7c0,0.2,0.1,1.1,0.2,1.3c0.1,0.2,0,0.4,0.3,0.6
				c0.3,0.1,0.2,0.1,0.5,0.2c0.3,0.1,1.3,0,1.4-0.1C259.8,202,259.9,202,260,201.7L260,201.7z M281.1,216.1c0,0,0.4,0.8,0.9,1
				c0.4,0.2,0.7,0,0.9,0c0.2,0,0.5-0.2,0.7-0.5c0.2-0.2,0.4-1.4,0.3-1.6c-0.1-0.2-0.5-0.7-0.5-0.9c0-0.2,0.3-0.2,0.2-0.4
				c-0.1-0.2-1.9-0.2-1.9,0.2c0,0.4,0.3,0.2,0.2,0.4c-0.1,0.2-0.5,0.6-0.6,0.7C281,215.3,281.1,216.1,281.1,216.1L281.1,216.1z"/>
			<path style="fill:#E92736;" d="M283.7,215.1c-0.1,0.2-0.2,1.1-0.1,1.3c0.1,0.2,0.4,0.7,0.6,0.8c0.2,0.1,1,0.2,1.1,0
				c0.2-0.2,0.3-0.3,0.4-0.6c0.1-0.3,0.6-0.7,0.5-0.9c-0.1-0.2-0.2-0.3-0.1-0.5c0-0.2,0.3-0.2,0.4-0.6c0.1-0.3-2.1-1.1-2.1-0.8
				c-0.1,0.3,0.2,0.3,0.2,0.5C284.4,214.4,283.8,214.8,283.7,215.1L283.7,215.1z"/>
			<path style="fill:#E92736;" d="M287,218.4c0.3-0.1,0.9-0.9,0.9-1.2c0-0.3-0.2-0.6-0.1-0.7c0.1-0.1,0.3,0.1,0.4-0.1
				c0.2-0.2-1.5-1.8-1.6-1.5c-0.1,0.3,0.3,0.5,0.1,0.6c-0.1,0.1-0.5,0-0.6,0.1c-0.2,0.1-0.5,0.7-0.5,0.9c0,0.2-0.3,0.2-0.2,0.5
				c0.1,0.3,0.1,0.3,0.2,0.5c0.1,0.3,0.7,1,0.8,1C286.7,218.5,286.8,218.6,287,218.4L287,218.4z M350.7,224.6c0,0,0,0.9,0.3,1.3
				c0.3,0.4,0.6,0.4,0.7,0.5c0.1,0.1,0.5,0.1,0.7,0c0.2-0.1,0.9-1,0.9-1.2c0-0.2-0.2-0.9-0.1-1c0.1-0.1,0.3,0,0.3-0.3
				c0-0.3-1.5-1.2-1.7-0.9c-0.1,0.3,0.2,0.3,0,0.5s-0.6,0.2-0.8,0.3C351,223.9,350.7,224.6,350.7,224.6z"/>
			<path style="fill:#E92736;" d="M353.2,225.2c-0.2,0.1-0.6,0.7-0.7,0.9c0,0.2,0,0.7,0.1,0.9c0.1,0.2,0.7,0.6,0.9,0.6
				c0.2,0,0.4-0.1,0.6-0.2c0.2-0.2,0.8-0.2,0.8-0.5c0-0.2,0-0.3,0.1-0.5c0.1-0.1,0.3,0,0.5-0.2c0.2-0.2-1.2-1.9-1.3-1.7
				c-0.2,0.2,0.1,0.3,0,0.4C354.1,225.1,353.4,225.1,353.2,225.2L353.2,225.2z"/>
			<path style="fill:#E92736;" d="M353.7,229.4c0.3,0.1,1.1,0.1,1.3-0.1c0.2-0.2,0.2-0.5,0.3-0.5c0.1,0,0.2,0.2,0.4,0.3
				c0.2,0,0-2.2-0.2-2c-0.2,0.1-0.1,0.5-0.3,0.5c-0.1,0-0.3-0.4-0.5-0.4c-0.2,0-0.7,0.1-0.9,0.2c-0.1,0.1-0.3,0-0.4,0.2
				c-0.1,0.3-0.1,0.2-0.2,0.5c-0.1,0.2-0.1,1.1,0,1.2C353.5,229.2,353.4,229.3,353.7,229.4L353.7,229.4z"/>
		</g>
		<path style="fill:#F7E204;" d="M255.1,203.4c0.2,0.4-0.1,1.2-0.2,1.5c-0.2,0.2-1.3-0.1-1.3-0.4c0-0.2-0.1-0.7,0-0.9
			c0.1-0.2,0.5-0.7,0.8-0.7C254.8,203,255.1,203.3,255.1,203.4L255.1,203.4z M255.5,201.8c-0.1,0.3,0.1,0.7,0.2,0.9
			c0.1,0.2,0.9,0.4,1.2,0.3c0.2-0.2,0.6-1.6,0.4-1.8c-0.2-0.2-0.6-0.3-0.7-0.2C256.3,200.9,255.5,201.5,255.5,201.8L255.5,201.8z
			 M258.1,200.3c-0.1,0.3-0.1,0.7,0,0.8c0.1,0.1,0.6,0.6,0.9,0.5c0.3,0,0.5-1,0.5-1.2c0-0.2-0.1-0.3-0.3-0.4
			C259,200,258.1,200.3,258.1,200.3z M283.3,215.8c-0.1,0.4-0.7,0.7-0.9,0.7c-0.2,0-0.7-1-0.6-1.2s0.3-0.5,0.5-0.5
			c0.2,0,0.7-0.1,0.8,0.2C283.2,215.3,283.3,215.7,283.3,215.8L283.3,215.8z M284.3,215.1c-0.2,0.1-0.3,0.4-0.3,0.7
			c0,0.2,0.3,0.9,0.5,1c0.2,0.1,1.2-0.5,1.2-0.8c0-0.2-0.2-0.6-0.3-0.7C285.3,215.2,284.5,215.1,284.3,215.1L284.3,215.1z
			 M286.6,216.2c-0.2,0.1-0.4,0.4-0.4,0.5c0,0.1,0.1,0.8,0.3,1c0.2,0.2,0.8-0.3,0.9-0.4c0.1-0.1,0.1-0.2,0-0.4
			C287.3,216.7,286.6,216.2,286.6,216.2z M352.7,225.4c-0.2,0.3-0.8,0.2-1,0.1c-0.2-0.1-0.2-1.2,0-1.3c0.2-0.1,0.4-0.2,0.6-0.1
			c0.2,0.1,0.6,0.3,0.6,0.6C352.9,225,352.7,225.4,352.7,225.4L352.7,225.4z M353.6,225.5c-0.2-0.1-0.5,0.2-0.6,0.3
			c-0.1,0.2-0.1,0.9,0,1c0.1,0.2,1.2,0.2,1.3,0.1c0.1-0.2,0.1-0.5,0.1-0.7C354.4,226.2,353.8,225.6,353.6,225.5L353.6,225.5z
			 M354.7,227.8c-0.2-0.1-0.5-0.1-0.6,0c-0.1,0.1-0.4,0.5-0.4,0.8c0,0.3,0.7,0.4,0.8,0.4c0.1,0,0.2-0.1,0.3-0.3
			C354.9,228.5,354.7,227.8,354.7,227.8L354.7,227.8z"/>
		
			<radialGradient id="SVGID_3_" cx="1363.4082" cy="-564.1935" r="25.8651" gradientTransform="matrix(5.456977e-02 7.592013e-02 0.1262 -0.1272 347.3513 54.7691)" gradientUnits="userSpaceOnUse">
			<stop  offset="0" style="stop-color:#FFFFFF"/>
			<stop  offset="1" style="stop-color:#F15770"/>
		</radialGradient>
		<path style="fill:url(#SVGID_3_);" d="M353.8,226.7c0.8,1,0,3.4-1.7,5.2s-3.8,2.5-4.6,1.5c-0.8-1,0-3.4,1.7-5.2
			S353,225.7,353.8,226.7z"/>
	</g>
	<g transform="translate(-.699 1.184) scale(1.16833)">
		<path style="fill:#A8AC71;" d="M276,158.6c0,0-3.7,0.4-6.3-0.1c-2.6-0.5-2-8.1-2.1-8.4c-0.1-0.2-1.6-2.1-1.3-3.8
			c0.3-1.7,5-6.2,5.6-6.4c0.4-0.2,1.4,0.3,1.4,0.3s1.2-1.4,1.6-1.4c0.4,0,0.9,0.8,0.7,1.1c-0.1,0.3-1.8,1.4-1.9,2.3
			c-0.1,0.9,0,1.7-0.5,2.5c-0.5,0.8-1.4,2-1.5,2.7c-0.1,0.7-0.4,1.3,0.1,1.6c0.5,0.3,2,0,3.3-0.7c1.3-0.7,1.9-1.6,2.1-1.6
			c0.2,0.1-0.8,1.9-2.2,2.7c-1.5,0.7-2.4,1.6-3.2,1.4c0,0-0.8,2.3,1.7,2.4c2.5,0.1,3.9-0.6,3.9-0.6L276,158.6z M261.6,176.6
			c0,0,1.9,0.9,1.9,3.4c0,2.5-2.1,4.6-2.1,9.1c0.1,4.4,0.7,4.5,5.7,9.3c0.2,0.1,1.2,1.4,1.5,2.9c0.3,1.4,1.2,10,6,9.9
			c4.8,0,5.5-3.6,5.5-3.6l-2.1-3.6c0,0-1.7,0.6-2.6,0.3c-0.9-0.3-1.7-1-2.3-2.3c-0.5-1.4-0.7-4.6-1.5-6.1c-2-3.6-5.7-4.1-5.7-7.9
			c0-3.7,2.2-4.1,1.6-8.6c-0.6-4.4-5.2-6.6-5.2-6.6l-1.8-0.9l-0.6,4.5L261.6,176.6z"/>
		<path style="fill:#F1A720;" d="M274.9,145.5c1.6-0.4,0.7-5.4,0.7-5.4l-1.1,1.1c0,0,0.7,1.1,0.7,2.2
			C275.2,144.5,274.9,145.5,274.9,145.5L274.9,145.5z"/>
		<path style="fill:#A8AC71;" d="M277.9,194.8c0,0-0.8-0.7-0.8-0.8c-0.6-0.5-3.1-2.9-2.7-10c0.5-8.1,10.5-12.3,11.2-15.5
			c0.7-3.6,3-5.1-5-12.4l-1.9,2.6l3.3,2.9c0,0,0.7-0.5,0.8,0.6c0,1.1-0.9,2-1.1,2.9c-0.2,0.8-5.2,4.8-5.6,5.2
			c-0.4,0.4-2.9,2.7-2.9,2.7s-1.3,1.5-2.5,4.6c-1.2,3.1-0.6,7.2-0.6,7.2S270.1,193.3,277.9,194.8L277.9,194.8z"/>
		<path style="fill:#78732E;" d="M273,199.3l0.6,3l-1.6,0.7l-0.7,0l-0.5,0.3l-1.2,1.4l-0.3-0.1c0,0-0.2,0.1-0.2-0.8
			c-0.1-0.9-0.2-1.7-0.2-1.7l1.5,0.7l0.5,0l0.4-0.1l0.7-1.7L273,199.3z M268.3,199.9c0,0-0.5-0.7-0.8-1.1c-0.2-0.4-0.3-0.4-0.9-1
			l1.1-0.7l1.2,0l-0.2,1.6L268.3,199.9z M271,195c0,0,0.7,0.4,1,1.1c0.2,0.6,0.6,1.4,0.6,1.4l-1.9-0.2l-1.4-0.5l0.9-1.5L271,195z
			 M270.3,208.5c0,0-0.4-0.3-0.6-1c-0.2-0.7-0.4-1.8-0.4-1.8l1.2-0.3l1.5,0.7l0.4,0c0,0-0.3,0.9-0.4,0.9c0,0-1.4,1.4-1.4,1.4
			L270.3,208.5z M275.2,203.8c0,0-1.1-0.4-1.3-1c-0.2-0.6-0.3-0.5-0.3-0.5l-0.3,1.7l-0.4,1.6c0,0,0.1,0.3,0.1,0.3c0,0,1-0.3,1.1-0.3
			c0.1,0,0.8-1,0.8-1C274.9,204.5,275.2,203.8,275.2,203.8z M270.6,209.2c0,0,0.5,0.4,1.3,0.9c0.8,0.5,1.2,0.5,1.2,0.5l0.6-0.7
			l0.6-1.4l0.1-0.2l-3,0.3L270.6,209.2z M274.9,207.9l2.5-1.8l0.2-1.6l-0.5-0.4c0,0,0.1,0.1-0.6,0.1h-0.9l-0.5,1.9L274.9,207.9z
			 M273.1,210.7c0,0,1.8,0.9,4.8-0.4c1.4-0.6,1.6-1.4,1.6-1.4l-1.2-0.6l-1.2,1.2L273.1,210.7L273.1,210.7z M270.7,187.8
			c0,0-0.2-0.7-0.4-1.5c-0.2-0.9-0.2-1.2-0.2-1.2l0.9,0.5l1.3,1.1l-0.9,0.9L270.7,187.8z M272.8,192c0,0-0.4-0.5-0.8-1.2
			c-0.4-0.7-0.6-1.3-0.6-1.3l1,0.2l1.1,0.6l-0.5,1.7L272.8,192z"/>
		<path style="fill:#C6C7A6;" d="M267.1,144.9c-0.2,0.7-0.4,2,0.5,2.3c0.5,0.1,2.3,0,4.4-2.8c1-1.3,1-2.6,1-2.6l0.4-1.5
			c0,0-0.8-0.7-2.1,0.3C270.1,141.3,267.1,144.9,267.1,144.9L267.1,144.9z"/>
		<ellipse style="fill:#1C242F;" cx="272.8" cy="141" rx="0.4" ry="0.5"/>
		<path style="fill:#A8AC71;" d="M270.2,141.4c-0.9,0.8-1.7,1.9-1.7,1.9s1.4-0.5,2.5-1.7c0.6-0.7,1.9-0.9,2.5-0.8
			c0.3,0.1,0.2-0.4,0.1-0.6c-0.4-0.3-1.4-0.5-1.6-0.3C271.9,140,271.1,140.6,270.2,141.4z"/>
		<path style="fill:#78732E;" d="M274.4,187c0,0-0.1-0.3-0.1-1.2c0-0.9,0-1.3,0-1.3l-0.8,0.8l-0.8,1.3l1.2,0.5L274.4,187z
			 M270.1,184.1c0,0-0.1-1.3-0.1-2.6c0.1-1.3,0.5-3.5,0.5-3.5l0.5,1.6l1.5,2.8l0.5,0.4l-1.3,1.1l-1.3,0.5L270.1,184.1z M274.4,183.4
			c0,0,0.1-0.6,0.2-1.2c0.1-0.6,0.5-1.5,0.5-1.5s0,0.1,0,0.1c-0.1,0-1.3,1.2-1.4,1.3c0,0.1-0.6,0.6-0.6,0.6l0.8,0.7L274.4,183.4
			 M270.9,176.8c0,0,0.2-0.8,0.9-1.8c0.7-1,1.3-2,1.3-2l0.6,2.7l0.3,2.3l0.1,0.5c0,0-0.5,0.2-0.7,0.2c-0.2,0-1.6-0.1-1.8-0.4
			C271.5,178,270.9,176.8,270.9,176.8L270.9,176.8z M275.5,180c0,0,0.4-0.5,0.8-0.9c0.4-0.4,1-1.2,1-1.2l-3.1,0.7l0.4,1.2L275.5,180
			z M273.6,172.5c0,0,0.3-0.1,1.1-1.1c0.8-1,1.3-0.9,1.3-0.9l0.3,3.9l-1.6-0.6L273.6,172.5z"/>
		<path style="fill:#78732E;" d="M277.5,177.6l1.9-2.2l-3.1-1l0.6,2.5L277.5,177.6z M278.8,171.8l0.2-3.7c0,0-0.6,0.3-1.4,1.1
			c-0.8,0.8-1.2,1-1.2,1l0.4,0.7l1.1,0.8L278.8,171.8z M281.5,168.1l0-2.9l-0.1,0.1c0,0-0.4,0.8-1,1.3c-0.5,0.5-0.8,0.9-0.8,0.9
			l0.8,0.6L281.5,168.1L281.5,168.1z M282.7,172.1c0,0,0.9-0.8,1.5-1.4c1-0.9,1.4-1.8,1.4-1.8l-4-0.4l0.2,1.9L282.7,172.1z
			 M273.3,156.6l-0.1,2.1l3.3,0l-0.8-1.3l-1-0.7l-1-1.1L273.3,156.6z M279.8,174.9c0.2-0.2,1-0.9,1.5-1.4c0.5-0.5,1.2-1.1,1.2-1.1
			l-3.2-0.4l0.1,2.4L279.8,174.9z M285.8,168.2c0,0,0.3-1.5,0.3-2.9c0-1.4-0.2-2.1-0.2-2.1l-2.4,1.9l0.3,1.4l0.9,1.1L285.8,168.2z"
			/>
		<path style="fill:#78732E;" d="M281.8,164.8c0,0,0.7-1,0.8-1.6c0-0.6,0-0.4,0-0.4l1.9,0l1.1,0.1l0.1,0.1l-0.8,1.2l-1.2,0.8
			l-1.5,0.2L281.8,164.8z M285.6,162.6c0,0-0.7-1.5-1.1-2.3c-0.4-0.8-0.8-1.2-0.8-1.2l-0.9,3.2l-0.1,0.3H285.6z M0.6-0.1 M0.6-0.1
			 M0.6-0.1"/>
		<path style="fill:#A8AC71;" d="M286.2,194.9c0,0,1.7,0.5,1.6,2.1c-0.1,1.6-0.8,3.8-0.8,3.8l-2.3-2.4l1.3-1.3l0.5-0.8L286.2,194.9z
			"/>
		<path style="fill:#F8C83C;stroke:#977C2E;stroke-width:0.4089;stroke-miterlimit:4.6733;" d="M257.3,175.8c0,0-1.7,0.7-2-0.2
			c-0.3-0.9-0.2-1.5-0.2-1.7c0-0.2-1-0.3-0.9-1.4c0.1-1.1,1.3-1,1.6-1c0.3,0,0.3-1.7,1.2-1.6c0.8,0.1,1.3,1.2,1.3,1.2L257.3,175.8z"
			/>
		<path style="fill:#F8C83C;stroke:#977C2E;stroke-width:0.4089;stroke-miterlimit:4.6733;" d="M259.1,176.3c0,0-1.4,0.9-1.8,0
			c-0.4-0.8,0-1.9-0.2-2c-0.2-0.2-1-0.5-0.8-1.5c0.2-1,1-0.7,1.3-0.9c0.3-0.2,0.5-1.6,1.4-1.4c0.9,0.3,1,1.1,1,1.1
			S259.4,175.5,259.1,176.3L259.1,176.3z"/>
		<path style="fill:#F8C83C;stroke:#977C2E;stroke-width:0.4089;stroke-miterlimit:4.6733;" d="M261.5,176.7c0,0-0.4,1-1.4,0.8
			c-1-0.2-0.7-1.9-0.8-2.2c-0.2-0.3-0.9-0.5-0.8-1.6c0.1-1.1,1-0.9,1.4-1.1c0.3-0.1,0.7-1.8,1.4-1.6c0.7,0.3,1.3,1.2,1.2,1.7
			c0,0-1.4,0.5-1.6,1.6C260.6,175.4,261.5,176.7,261.5,176.7L261.5,176.7z"/>
		<path style="fill:#AF7029;" d="M283.6,194.5c0,0-1.3-1.6-2.1-3c-0.9-1.4-2.2-3-2.2-3l-2.1-1.3l-1.4-2.6l-0.2-3.1l0.6-1.8l0.8-1.4
			c0,0-4.4,1.9-2.2,11.8c1,4.2,3.4,4.8,3.4,4.8l4.1-0.3L283.6,194.5z"/>
		<path style="fill:#AF7029;" d="M0.6-0.1"/>
		<path style="fill:#FFFFFF;" d="M287.6,196.2c0,0-1.1,2.3-1.3,2.3c-0.3,0,0.9,0.4,1.2,0.9l-0.3,0.6c0,0-1.2-1-1.9-1l-0.1-0.8
			c0,0,0.6-0.2,1.1-0.8c0.4-0.4,0.8-1.6,0.8-1.9L287.6,196.2z"/>
		<path style="fill:#FCCA3D;" d="M291.7,197.7l-2.6,0.8l-1.3-1c0,0,0.1-1.3-0.5-1.8c-0.6-0.6-1-0.7-1.5-1c-0.5-0.3-2.4-0.3-2.4-0.3
			l-4.7-6l1.8,0.2l2.8-0.4l2.6-0.3l1.4,0.2l1.5,0.5l0.8,0.8l0.8,0.8l0.8,1.5l0.5,1.7l0.2,1.9L291.7,197.7z"/>
		<path style="fill:#FCCA3D;" d="M0.6-0.1"/>
		<path style="fill:#FCCA3D;" d="M291.1,195.9l0.1,1.4l0.5,0.2l0-1.3L291.1,195.9z M288.7,162.3l-0.3-2.5l-0.8-1.6l-1-1.7l-1.1-1.4
			l-0.6-0.7l-0.3-0.5l-2.7,0.1l-1.4,2c0,0,3.7,3.1,5.2,6.5c1.2,0.4,2.2,1.3,2.7,1.9l0.1-0.3L288.7,162.3z"/>
		<path style="fill:#AF7029;" d="M286.1,165c0,2.5-0.4,3.7-0.7,4.2l1.7-2.2l1.2-2.5c-0.5-0.6-1.5-1.5-2.7-1.9
			C285.9,163.4,286.1,164.2,286.1,165L286.1,165z"/>
		<path style="fill:#816C2A;" d="M289.9,202c0,0-0.8-1.1-1.3-1.8c-0.6-0.7-1.3-1-1.3-1l-0.1,0.3c0,0,0,0,0.1,0.1
			c0.2,0.1,0.7,0.4,1.1,0.9c0.3,0.3,0.6,0.8,0.9,1.1c0.3,0.4,0.5,0.6,0.5,0.6L289.9,202z"/>
		<path style="fill:#6F5B24;" d="M291.6,199.3c0,0-0.3,1.1-1.2,2.1c-0.9,1-2.1,1.7-2.1,1.7l2.7,1.2l1.8-1.9L291.6,199.3z"/>
		<path style="fill:#404118;" d="M292,201.9l-0.2,0.4l-0.5,0.6l-0.4,0.5l0.7-3.3l0.5,1l0.1,0.5L292,201.9z"/>
		<path style="fill:none;stroke:#78732E;stroke-width:0.3505;stroke-miterlimit:4.6733;" d="M276,158.6c0,0-3.7,0.4-6.3-0.1
			c-2.6-0.5-2-8.1-2.1-8.4c-0.1-0.2-1.6-2.1-1.3-3.8c0.3-1.7,5-6.2,5.6-6.4c0.4-0.2,1.4,0.3,1.4,0.3s1.2-1.4,1.6-1.4
			c0.4,0,0.9,0.8,0.7,1.1c-0.1,0.3-1.8,1.4-1.9,2.3c-0.1,0.9,0,1.7-0.5,2.5c-0.5,0.8-1.4,2-1.5,2.7c-0.1,0.7-0.4,1.3,0.1,1.6
			c0.5,0.3,2,0,3.3-0.7c1.3-0.7,1.9-1.6,2.1-1.6c0.2,0.1-0.8,1.9-2.2,2.7c-1.5,0.7-2.4,1.6-3.2,1.4c0,0-0.8,2.3,1.7,2.4
			c2.5,0.1,3.9-0.6,3.9-0.6L276,158.6z"/>
	</g>
	<g>
		<path style="fill:#AB6D29;stroke:#4D2A15;stroke-width:0.511;" d="M358.7,148.8c0,0-7.9-1.7-7.8,5.9c0,2.4,0.5,3.3,2.2,3.8
			c1.7,0.5,5,0.7,7.9,3.7c2.8,3,3,5.1,3,6.9c0,1.8-0.7,3.4-0.7,3.4l1.8,10.1l1.8,7.5l5.3-3.6l3.1-11.1l-4-20L358.7,148.8z"/>
		<path style="fill:#4D2A15;" d="M366.6,187.4c0,0,2.8-1.2,3.5-3.8c0.2-0.7-2.8-3.8-2.9-3.8c-0.1,0,1.5,0.9,2.2,1.7
			c0.7,0.8,1.3,1.1,1.5,1c0.2-0.1,1.5-3.6,1-4.3c-0.5-0.7-1.2-2.5-2.4-3.4c-1.1-0.9-2.7-0.8-2.7-0.8s2.1-0.8,3.1-0.1
			c1,0.7,1.1,1.5,1.3,1.2c0.1-0.3-0.2-3.7-0.7-4.9c-0.5-1.2-1-1.7-2.2-2c-1.3-0.3-2.6-0.2-2.6-0.2s1.8-1.2,3.2-0.8
			c1.4,0.4,1.4,1.2,1.5,1c0.1-0.2-0.7-3.1-1-3.9c-0.3-0.7-2-2.3-2.5-2.4c-0.5-0.2-2-0.2-2-0.2l-0.7,0c0,0,1.1-0.9,2.4-0.7
			c1.3,0.1,1.4,0.7,1.6,0.6c0.2-0.1-0.1-0.3-1-1c-0.8-0.7-4.8-2.6-4.8-2.6l-3.6-0.1c0,0,0-1.1,1-1.3c1-0.2,1.4,0.2,1.3-0.2
			c-0.1-0.3-3-1.1-3-1.1s-1.7,0.1-2.4,0.1c-0.7,0-3.4,0.4-3.4,0.4s0.2-0.7,0.8-1.2c0.4-0.4,1-0.7,1.5-0.8c1.2-0.4-0.7-1.4-0.7-1.4
			l1-1.7l4.4,0.4l9.3,6.3l4.3,4.4l2.8,8.2l-0.8,14.1l-6.2,6c0,0-2.7,0.5-2.7,0.3C366,190.3,366.6,187.4,366.6,187.4L366.6,187.4z"/>
		<path style="fill:#D2A567;" d="M358.5,152.4c0,0-0.3-1-0.3-2.3s0.2-1.2,0.2-1.2s-3-0.5-5.1,1.5c-2.2,2-0.9,5.5-0.9,5.5
			s0.9-1.1,2.1-1.6c1.2-0.5,3.4-0.4,3.4-0.4c0.2-0.2-0.5-1.2-1.3-1.4c-0.8-0.2-2.4-0.2-2.4-0.2s0.9-0.7,2.5-0.6
			C358.3,151.8,358.5,152.4,358.5,152.4L358.5,152.4z"/>
		<path style="fill:#8F4620;" d="M367.8,188.6l-2,0.8l1.2,9.8l8,16l4.2-0.9l1.4-2.9l1.1,0.6c0.5,0.6,2,3.7,3.4,4.3
			c1.3,0.6,2,0.4,3.2,1.5c1.2,1.1,5.4,8.5,5.7,8.8c0.2,0.3-0.2-3.2-0.2-3.2l-1.3-4.4l-1.6-3.1l-0.2-0.8l2.2,0l1.4,1l2.1,2.1l1.1,1.5
			l0.6,1.6l0.2,1.4l0.6,2.1l1.2,2.9l1.4,2.8l0.4-1.1L401,226l-2.1-8l-1.3-2.7c0,0,1.7,1.5,2.2,1.6c0.5,0.2,2,2.9,2,2.9l1,2.8
			l0.7,2.6l0.5,2.3l0.7,2.4l1.2-0.8l-0.2-1.8l-1.1-5.5l-0.5-5.9c0,0,0.6,0,1.3,0.9c0.7,0.9,1.4,3.1,1.4,3.1l0.5,5.4l0.7,4.9l1.4,5
			l1.4,3.2l0.9,1.8c0,0,0-2.5,0-2.6c0-0.1-1.7-21-1.7-21l0.2-0.9c0,0,0.2-0.1,0.8,0.9c0.6,1,1.2,2.6,1.2,2.6l0.5,3.3l0.3,2.3
			l0.4,4.3l0.5,4.6l1.8,5l1,2.7l0.5-3.2l-0.9-22.5l0.4-0.6c0,0,1,1,1.4,1.7c0.3,0.7,1,1.4,1,1.4l0.6,4.9l0.5,14.2l0.4,3.6l3.6-37.1
			l2.2-0.6l0.3-0.7l-1.6-1.4l-3.6-6.5l-2.4-6.3l-4.3-9.2l-7.4-10.6c0,0-4.6-4.6-5.8-5.6c-1.2-1-2.1-1.7-2.1-1.7l0.4-1.3l1.2-2.3
			l-0.2-0.1l-1,0.1l-2.5,0.4l-2.5-0.9l-4.9-4l-5.3-2.9l-3.1-1.3l-7.5-2.2l-7.4-1.2l-3.3-0.1l-3,0.7c0,0-1.5,0.7-2,1.9
			c-0.5,1.1-0.5,1.9-0.4,3.5c0.1,1.6,1,2.5,3.1,3.5c2.1,1,7,4.8,7,4.8l2.4,2.8l0.9,1.3l0.1,1l1.6,14.6l-3.1,7.9L367.8,188.6
			L367.8,188.6z"/>
		<path style="fill:#AB6D29;" d="M375.8,211.3c0,0,1.3,2.7,3.2,0.6c1.9-2-0.8-7.9-0.8-8.2c0-0.3,0.9-0.5,0.9-0.5l1.4,3
			c0,0,0.8,1.6,0.5,4.2c-0.3,2.6-2.4,4.8-2.4,4.8l-2.4-0.6L375.8,211.3z"/>
		<path style="fill:#AB6D29;" d="M0.5,0"/>
		<path style="fill:#8F4620;" d="M422.5,228.4c0,0,1-1.3,1.4-3.2c0.4-1.8,0.6-16.2-0.9-18c-1.5-1.8-4.4-3.2-4.6-3.1
			c-0.1,0.1,1.2,4.7,1.2,4.7s0.4,0.7,0.9,1.9c0.3,0.7,0.6,1.9,0.7,2.3c0.2,1.2,1,4.2,1.2,7.9C422.4,224.7,422.5,228.4,422.5,228.4z"
			/>
		<path style="fill:#8F4620;" d="M0.5,0"/>
		<path style="fill:#8F4620;" d="M0.5,0"/>
		<path style="fill:#4D2A15;" d="M370.9,200.8c0,0,3.1,3.2,4.8,0.1c1.7-3.1,0.4-6.7,0.4-6.7s4.3,7.5,5.6,0.5
			c0.2-1.3-2.6-6.1-2.6-6.1l1-1.1l2.2,4.3c0,0,2.1-1.1,2.1-4.1c0-3-2.1-6.8-2.1-6.8l2,2.6c0,0,4,0.1,4.1-2.8
			c0.1-2.9-3.4-5.8-3.4-5.8s2.7,0.2,2.7-1.6c0-1.9-3.7-3.2-3.8-4.3c-0.1-1.2,1.1-3.2,2.8-2.1c1.7,1.1,4,1.9,5-0.2
			c1-2.1-0.1-2.6-0.1-2.6s-2.2-0.5-2.4-0.6c-0.2-0.1-3.8-2.4-3.8-2.4l-3-1.3l-3.1-0.5l1.2,2.7l0.8,7.5l0,3.5l0.6,7.5l-1.5,6.3
			l-0.8,1.1l-0.6,0.8l-1.3,3.3l-1.9,2.4l-2.4,3.6L370.9,200.8L370.9,200.8z"/>
		<path style="fill:#AB6D29;" d="M392.7,214.9c0,0-0.8-2.2-2.4-3.8c-1.7-1.5-4.3-1.6-4.3-1.6l4.5,5.6L392.7,214.9z M399,216.2
			c0,0-1.5-3.4-3.2-5.5c-1.7-2.1-2.8-4.8-3.3-4.8c-0.5,0-0.8,0.1-0.8,0.1l0.4,4.3l3.1,3.5C395.3,213.9,398.2,216.4,399,216.2
			L399,216.2z M404.2,215.9c0,0-0.7-4-2.5-7.8c-1.7-3.8-3.6-5.4-3.6-5.4l0.4,4.1l1.4,3.9l2.3,3.9L404.2,215.9z M408.4,213.7
			c0,0,1.2-8.1,0.1-10.4c-1.1-2.2-3.2-2.7-3.2-2.7l-0.7,1.2l0.7,5.8l1.7,4.4L408.4,213.7z M412.6,200.1c0,0,1,0.6,2.3,3.3
			c1.2,2.7,3,10.9,3,11.3c0,0.4-0.7,0.3-0.8,0.2c-0.2-0.1-4.4-7.8-4.4-7.8l-0.7-7.2L412.6,200.1z"/>
		<path style="fill:#D2A567;" d="M383.2,209.6c0,0,2.2-0.6,2.2-1.5c0-0.9-2.7-2.7-2.4-4.2c0.1-0.7,2.3,0.1,2.4-0.4
			c0.1-0.5-2.2-4.8-1.5-5.8c0.7-1,2.7,4.7,2.7,4.7s1.2,2.7,0.8,4.2C386,211.3,383.2,209.6,383.2,209.6L383.2,209.6z M388.4,203.7
			c0.1-0.4,3.5,0.5,3.5,0.3c0.1-0.9-3.1-3.8-3.1-3.8s-0.7-1.6-0.5-1.9c0.2-0.3,2.3,0.3,2.4-0.1c0.1-0.3-2.3-4.1-2.3-4.8
			c0-0.7,0.7-0.1,0.7-0.1s1.9,2.3,3,4.2c1,1.9,2,3.5,1.6,6.5C393.3,207.2,388.1,204.7,388.4,203.7L388.4,203.7z M403.8,197.7
			c0,0-0.6-2.7-0.2-3c0.3-0.3,1.2-0.6,1.2-0.6s-1.8-1.3-2.7-1.3c-0.9,0-1-0.3-1.2,0.1c-0.2,0.4,1.6,3,1.6,3L403.8,197.7z M0.5,0"/>
		<path style="fill:#D2A567;" d="M386.6,176.1c0,0,4.4,1.4,4.2-1.8c-0.1-1.8-4.3-6-4.6-6.7c-0.3-0.7-0.2-1.6-0.2-1.6l2.2,2.3
			c0,0,2.8,0.8,3.6-1.1c0.8-1.9,0.2-3.1,0-3.1c-0.1,0,0.6-0.2,0.6-0.2l1.3,0.3l-0.2,2.9l-1.4,7.3c0,0,0.4,2.9-1.5,3.1
			C388.8,177.7,386.6,176.1,386.6,176.1L386.6,176.1z M390.8,214.9c0,0,0.1-1.5-0.9-2.5c-1-1-2.9-2-3.2-2.2
			c-0.3-0.2,3.1,4.6,3.1,4.6L390.8,214.9z M397.1,215.1c0,0-2.2-3.2-2.7-4.2c-0.5-1.1-1.6-3.5-2.5-3.6c-0.9-0.1,0.9,3.9,0.9,3.9
			l3.6,3.8L397.1,215.1z M403.1,215c0,0-1.9-4.2-2.3-5.4c-0.5-1.2-1.4-4.5-2.6-5.4c-1.1-0.9,0.1,1.5,0.1,1.5l1.2,4.3l2.1,3.7
			L403.1,215z M407.5,212c0,0-0.1-3.5-0.5-6c-0.4-2.5-2-4.5-2.1-4.4c-0.1,0.1,0.1,4.4,0.1,4.4L407.5,212z M416.7,214.7
			c0,0-1.5-4.3-2.2-6.3c-0.6-2-2.2-5.4-2.3-5.4s0.5,3.9,0.5,3.9l1.9,6.2L416.7,214.7z M424.6,203.5c0,0-1.4-1.7-4.4-3.1
			c-3-1.4-6.1-1.5-6.1-1.5l0.4,0.5l1.4,1.4l3.2,1.9l4.1,1.2L424.6,203.5z"/>
		<path style="fill:#202020;" d="M392,205.6c0,0,0,3.1,1.4,5c1.4,1.9,4.6,5.3,5.2,6c0.6,0.7,1.2,4.5,2.1,7.7
			c0.9,3.2,1.2,5.8,1.6,6.7c0.4,0.9,1.3,2.3,0.6,2.2c-0.6-0.1-1.2-1-1.6-2.2c-0.4-1.2-0.3-1.2-0.2-2.7c0-1.6-2.1-9.7-3-10.6
			c-1-0.9-5.5-5.2-7.2-8.3c-1.7-3-1.4-3.7-1.4-3.7L392,205.6L392,205.6z"/>
		<path style="fill:#202020;" d="M399.3,226c-1-2.3-1.1-4.3-1.4-5.7c-0.3-1.4-4.1-5-5-5.5c-0.7-0.4-2.1,0.1-2.7-0.4
			c-0.6-0.5-4.1-5.2-4.1-5.2s-0.5,0.6-0.4,0.8c0.2,0.2,3.9,4.8,5.2,6.3c1.3,1.5,2.1,4.8,3,7.4c1,2.6,0.6,2.1,0.7,3.3
			c0.1,1.3,0.8,2,1.5,2c0.7,0,0.9-0.4,0.6-0.6c-0.3-0.2-1.6-2.1-2.5-4.6c-0.7-2.3-1.7-6.4-2.9-8c-0.1-0.1-0.2-0.2-0.3-0.3
			c0.3,0,0.7-0.1,1.5-0.2c0.9-0.1,4.6,4,4.9,5.1c0.3,1.2,0,1.6,1.5,5.6c1.6,4,2.3,4.9,2.3,4.9h0.3C401.6,231,400.2,228.2,399.3,226
			L399.3,226z M393.4,199.8c0,0,2.7,2,3.5,2.3c0.8,0.3,1.4,0.3,1.4,0.3s0.4,5.8,2.4,9c2,3.2,3.6,4.4,3.6,4.4s0.1,6.3,1.5,10.6
			c1.5,4.3,1.8,9.6,1.4,10.4c-0.3,0.8-1.6-2.6-2.4-5.5c-0.8-3-1.6-6.2-2.1-8.2c-0.5-2-2-5-2.9-5.8c-0.8-0.8-0.2-0.7,0.3-0.2
			c0.5,0.5,1.9,2.6,2.8,5.9c0.9,3.3,1.3,6.7,1.8,6.7c0.5,0,0.9-0.5,0.9-1.2c0-0.7-0.6-2.4-1.1-5.5c-0.5-3.1-0.9-5.2-1.4-6.1
			c-0.4-0.9-1.1-1-2.8-4.5c-1.7-3.5-2.4-5.4-2.7-7c-0.3-1.6,0.1-1.4-0.2-1.7c-0.3-0.2-0.5,0-1.8-0.8
			C394.3,202,393.4,199.8,393.4,199.8L393.4,199.8z"/>
		<path style="fill:#202020;" d="M400.4,198.6c0,0,1.7,1.5,2.6,2c0.9,0.5,2.3,0.5,2.3,0.5s-0.3,5.5,1.5,9c1.8,3.5,3.7,5.6,3.7,5.6
			s0.3,1.3,0.9,8.9c0.6,7.6,0.6,7.8,0.8,10.8c0.2,3.1,0.3,13.9-0.1,13.6c-1.4-1.3-0.2-7.2-0.9-9.6c-0.7-2.4-1.8-2.8-3.2-9.7
			c-1.4-6.9-0.5-8.4-1.5-11c-1-2.6-2.3-2.8-2.3-2.8s1.8,0.4,2.6,2.6c0.8,2.2,0.9,7.9,1.5,10.8c1.4,6.4,3.3,9.7,3.3,9.7
			s-0.4-8.1-1-12.7c-0.5-4.6-0.5-8.4-1.2-10.2c-0.7-1.8-2.3-3.2-3.3-5.5c-1-2.3-1.3-6.9-1.8-8.1c-0.5-1.2-0.7-0.8-1.4-1.1
			C400.7,200.4,400.4,198.6,400.4,198.6L400.4,198.6z"/>
		<path style="fill:#202020;" d="M405.4,195.6c0,0,1.5,1.9,3.5,3.3c2,1.4,3.1,1,3.4,1.3c0.3,0.3-0.4,5.1,1.7,9.6
			c2.1,4.5,2.9,4.6,3,5.2c0,0.6,0.4,13.8,0.7,18.3c0.3,4.5,0.6,19.5-1,19.5c-1.6,0-0.1-11.1-0.9-13.7c-0.8-2.6-0.8-1.8-1.5-3.9
			c-0.8-2.1-0.7-10.3-2-15.2c-0.9-3.6-1.8-4.2-1.8-4.2s1.5,1,2.2,4c0.7,3,0.9,13.1,1.8,14.7c0.8,1.6,2,3.6,2.3,5.1
			c0.3,1.5-0.2-19.1-0.5-20.4c-0.4-1.2-3.9-8.7-4.2-12.8c-0.3-4.1-0.4-4.5-0.7-4.8c-0.3-0.3-1.3-0.1-3-1.9
			C406.6,197.7,405.4,195.6,405.4,195.6L405.4,195.6z"/>
		<path style="fill:#202020;" d="M0.5,0"/>
		<path style="fill:#202020;" d="M0.5,0"/>
		<path style="fill:#202020;" d="M399.6,161.1c0,0,0.2-0.8,0.5-1.3c0.3-0.4,1.8-2.3,1.2-2.6c-0.5-0.4-2.3,0.3-3.5,0.2
			c-1.1-0.1-1.9,0.2-5.2-3c0,0-10.4-8.5-26.6-9.6c-5.1-0.3-7.4,1.8-7.7,2.9c0,0.3,1.3-2.4,6.5-2.3c2.3,0,18.5,1.6,27,9.3
			c0.4,0.4,3.2,3.5,5.8,3.2c2.6-0.3,3.2-0.7,3.1-0.3c-0.1,0.4-0.9,1.6-1.1,2.1c-0.2,0.5-0.4,1.5-0.4,1.5L399.6,161.1z M371.5,163.7
			c0,0,0-0.1,0-0.2c-0.1-0.5-1.2-2.2-3-4.1c-2.1-2.3-8.7-5.5-9-5.6c-0.3-0.1,6.8,3.8,8.7,6C371.3,163.3,371.5,163.7,371.5,163.7
			L371.5,163.7z M0.5,0"/>
	</g>
	<g>
		<path style="fill:#F8C83C;stroke:#977C2E;stroke-width:0.35;" d="M342.8,237.9c0,0,1,2,3,2.1c2,0.1,3.5,3.4,3.5,3.4l-2.2,2.5
			l-5.2,0.3l-1.7-3.1L342.8,237.9L342.8,237.9z M342.9,235.8c0.2-0.4-1.5-4.3-2.8-5c-1.2-0.7,0.4,1.3,0.1,2.1
			c-0.3,0.8-0.4,1.8-0.4,1.9c0.1,0.1,1,1.8,0.5,2.6C340,238.1,342.9,235.8,342.9,235.8L342.9,235.8z"/>
		<path style="fill:#F8C83C;stroke:#977C2E;stroke-width:0.35;" d="M342,241.8c0,0,0.9,0.5,1.7,0.3c0.7-0.3,1.4-1.1,1.4-1.1
			 M341,240.3c0,0,2.9-2.5,2.7-3.8c-0.2-1.3-0.8-1.3-1.2-1.2c-0.4,0.1-2.2,1.8-2.3,2.2C340.1,238,341,240.3,341,240.3L341,240.3z"/>
		<path style="fill:#F8C83C;stroke:#977C2E;stroke-width:0.35;" d="M339,242c0,0,0.5,1.6,1.5,1.6c1,0,2.3-0.9,2.3-1.6
			c0-0.7-1-1.9-1.6-2.2c-0.6-0.3-2.1,0.5-2.1,0.5L339,242z"/>
		<path style="fill:#F8C83C;stroke:#977C2E;stroke-width:0.35;" d="M341.6,239.7c-0.1,0.5-2,1.5-2.6,1.6c-0.6,0.1-1.9-1.8-1.3-2
			c0.5-0.3,1.1-0.2,1.6-0.5c0.5-0.3,0.6-1,0.9-1c0.3,0,1,0.2,1.2,0.7C341.5,239,341.8,239.2,341.6,239.7L341.6,239.7z"/>
		<path style="fill:#F8C83C;stroke:#977C2E;stroke-width:0.35;" d="M339.7,241.2c0,0-2.9,4.5-4.1,4.3c-1.2-0.2,0.5-6.4,0.5-6.4
			s0.5,0.3,1.4,0.7C338.5,240.1,339.4,240.5,339.7,241.2L339.7,241.2z"/>
		<path style="fill:#F8C83C;stroke:#977C2E;stroke-width:0.35;" d="M334.6,237.9c0,0,3.7,0.7,3.9,1.4c0.2,0.7-1.8,1.6-2.8,1.6
			C334.6,241,334.6,237.9,334.6,237.9L334.6,237.9z"/>
		<path style="fill:#202220;" d="M325.4,244.5c0,0,0.5,2.1,2.1,2.2c1.6,0.1,3.1-2,3.1-2l-3.8-1.7L325.4,244.5z"/>
		<path style="fill:#202220;" d="M0.5,0"/>
		<path style="fill:#202220;" d="M326.5,243.9c0,0,0.6,1.6,2.7,1.6c2.1,0.1,3.8-2,3.8-2l-3.3-3.1L326.5,243.9z"/>
		<path style="fill:#202220;" d="M0.5,0"/>
		<path style="fill:#4B4139;" d="M326.7,244.3c0,0,0.9,0.9,2,1c1.1,0.1,2.5-0.3,2.5-0.3l-1.3,0.5l-0.9,0.1l-0.9-0.2l-0.8-0.3
			l-0.6-0.5L326.7,244.3z"/>
		<path style="fill:#202220;" d="M329.2,242.1c0,0,0.9,2.7,2.9,2.4c1.9-0.3,2-1.6,2-1.6l-2.2-3.7L329.2,242.1L329.2,242.1z"/>
		<path style="fill:#202220;" d="M0.5,0"/>
		<path style="fill:#4B4139;" d="M329.5,242.6c0,0,1.2,1.7,2.2,1.6c1,0,1.7-0.5,1.7-0.5l0,0.2l-0.5,0.3l-0.9,0.2l-0.9-0.1l-0.8-0.5
			L329.5,242.6L329.5,242.6z M325.8,245.3c0,0,0.9,1.1,1.7,1.1c0.8,0,2.1-0.8,2.1-0.8l0.2-0.1l-0.2,0.2l-0.9,0.5l-1,0.3l-0.8-0.2
			l-0.6-0.4l-0.4-0.6L325.8,245.3z"/>
		<path style="fill:#F8C83C;stroke:#977C2E;stroke-width:0.35;" d="M334.4,237.7c0.9-0.1,2.7,2.8,2.7,4.2c0,1.4-0.5,3.6-1.4,3.5
			c-0.9-0.1-2.9-2.2-3.4-3.3c-0.5-1.1-0.9-1.8-0.6-2.4C332,239.2,334.4,237.7,334.4,237.7z M325.3,238c0,0-1.5-1.3-2-0.6
			c-0.6,0.7-0.4,3,0,3.5c0.4,0.5,2.1-1.1,2.1-1.1L325.3,238z"/>
		<path style="fill:#F8C83C;stroke:#977C2E;stroke-width:0.35;" d="M325.1,239.6c0,0-1.9,0.2-1.9,1.3c0,1,0.9,2.1,1.1,2.4
			c0.2,0.2,1.9-0.9,1.9-0.9L325.1,239.6z"/>
		<path style="fill:#F8C83C;stroke:#977C2E;stroke-width:0.35;" d="M325.9,241.5c0,0-2,0.7-2,1.5c0,0.8,0.9,2.3,1.5,2.3
			c0.6,0,1.1-1.4,1.4-1.7C327,243.3,325.9,241.5,325.9,241.5L325.9,241.5z M326.9,234.7c0,0-0.4-0.6-1.2-0.2
			c-0.8,0.4-1.8,1.4-1.6,2.9c0.1,1.6,0.6,2.6,0.6,2.6l3-1.2L326.9,234.7z"/>
		<path style="fill:#F8C83C;stroke:#977C2E;stroke-width:0.35;" d="M327.1,237.4c0,0-2.6,1-2.7,2.1c-0.1,1.2,0.6,2.3,1.3,2.5
			c0.7,0.2,2.9-2.2,2.9-2.2L327.1,237.4z"/>
		<path style="fill:#F8C83C;stroke:#977C2E;stroke-width:0.35;" d="M329.3,242.2c0,0-2.5,2-2.9,2c-0.3,0-1.3-1.6-1.1-2.6
			c0.2-1,1.9-1.8,2.6-2.1C328.7,239.2,329.3,242.2,329.3,242.2L329.3,242.2z M331.6,231.5c0,0-0.8-0.8-2.3-0.6
			c-1.5,0.1-2.7,2.5-2.9,3.6c-0.2,1.2,0,3.4,0.5,3.7c0.6,0.3,3.8-2.6,3.8-2.6L331.6,231.5z"/>
		<path style="fill:#F8C83C;stroke:#977C2E;stroke-width:0.35;" d="M328.4,240.4c-1.1-0.1-2-1.9-1.8-3c0.2-1.1,2.3-2.9,3.4-2.7
			c1.1,0.2,0.9,3.4,0.9,3.4S329.5,240.5,328.4,240.4L328.4,240.4z"/>
		<path style="fill:#F8C83C;stroke:#977C2E;stroke-width:0.35;" d="M331.8,240.1c0,0-0.5,1.4-1.6,2.1c-1.1,0.6-1.7,0.1-2.3-0.9
			c-0.6-1,0.3-1.5,0.8-2c0.5-0.5,1.9-0.9,1.9-0.9L331.8,240.1z"/>
		<path style="fill:#F8C83C;stroke:#977C2E;stroke-width:0.35;" d="M330.1,236.3c0,0-1.2,1.1-0.5,2.4c0.7,1.3,1.2,1.8,2.1,1.9
			c0.9,0.2,1.4-0.2,2.1-1.2c0.7-1,1.7-1.4,1.6-2.6c-0.1-1.2-0.5-2.1-1.1-2.5C333.6,234.1,331.8,234.5,330.1,236.3L330.1,236.3z"/>
		<path style="fill:#202220;" d="M333.5,230.7c0,0-1.2-0.6-2.2,0.1c-0.9,0.6-1.6,2-1.6,3.2c0,1.2,0.2,2.9,0.2,2.9s1.3-0.4,2.1-1.3
			c0.8-0.8,1.1-1,1-1.5c-0.1-0.3-0.4-0.5-0.4-1.6C332.6,230.9,333.5,230.7,333.5,230.7z"/>
		<path style="fill:#4B4139;" d="M333.5,230.7c0,0-1.4-0.3-2.1,0.3c-0.7,0.5-1.3,1.3-1.6,2.4c-0.3,1.1-0.1,1.4-0.1,1.4
			s-0.1-0.9,0.1-1.8c0.3-1,1-2.1,1.7-2.3C332.4,230.3,333.5,230.7,333.5,230.7L333.5,230.7z"/>
		<path style="fill:#F8C83C;stroke:#977C2E;stroke-width:0.35;" d="M370.2,262.3c0,0,1-0.5,1.7-1c0.7-0.5,2.2-1.6,2.2-1.6l0.5,3
			l-2,1.8l-1.7,0l-1-0.9L370.2,262.3z"/>
		<path style="fill:#F8C83C;stroke:#977C2E;stroke-width:0.35;" d="M367.4,262.6c0,0,0,0,1.2,0.1c1.2,0,1.3-0.5,1.5-0.4
			c0.2,0.1,0.5,1.6,0.5,1.6l-0.4,0.9l-1.7,1.1l-1.5-0.9l-0.1-2.4L367.4,262.6z M381.1,261.6c0,0-0.3-0.7-1-1.4l-2.4-2.5l0,6.5
			l2.6-0.1l1.2-2L381.1,261.6z"/>
		<path style="fill:#F8C83C;stroke:#977C2E;stroke-width:0.35;" d="M367.4,262.6c0,0-0.4-0.7-1.5-0.5c-1.1,0.1-2.2,1.2-2.3,2
			c-0.1,0.9,0,3.4,0.6,3.9c0.6,0.5,1.3,0.7,2.5,0.4c1.2-0.3,7.1-4.6,7.1-4.6s-0.7,0.2-1.5,0.4c-0.8,0.2-1.6-0.2-1.6-0.2
			s-0.8,1.1-1.8,1.2c-0.9,0.2-1.2-0.5-1.4-1C367.4,263.6,367.4,262.6,367.4,262.6L367.4,262.6z"/>
		<path style="fill:#F8C83C;stroke:#977C2E;stroke-width:0.35;" d="M371.4,264.8c0,0-0.9,0.4-1.2,0.7c-0.3,0.3-1.5,0.8-1.5,0.8
			l0.5,2.1l2.5,0.8l1.6-1.5l0-2.1L371.4,264.8z M383.2,263.3c0,0-0.4-0.4-0.9-1.1c-0.5-0.6-1.1-0.8-1.2-0.7
			c-0.2,0.1-1.4,1.9-1.4,1.9l-0.1,1.4l1.4,0.9l1,0.2l1.3-1L383.2,263.3z"/>
		<path style="fill:#F8C83C;stroke:#977C2E;stroke-width:0.35;" d="M374.5,262.3c0,0-1.1,0.6-1.7,1.1c-0.5,0.5-1.4,1.1-1.4,1.4
			c0,0.2,1.3,1.8,1.3,1.8l1.3,0.1l2.8-2.3l-0.2-2.1L374.5,262.3L374.5,262.3z M385.2,265c0,0-0.2-0.5-0.7-1c-0.4-0.5-1-0.7-1.3-0.7
			c-0.3,0-1.4,1.9-1.4,1.9l-0.1,0.5l1,1.4l1.8,0.5l1.2-1.5L385.2,265z"/>
		<path style="fill:#F8C83C;stroke:#977C2E;stroke-width:0.35;stroke-linecap:round;stroke-linejoin:round;" d="M380.6,267.3
			l1.3,0.3c0,0,0,0.4,0.3,0.7c0.4,0.3,0.4,0.1,0.4,0.1s0.2,1.4,1.5,2.6c0,0,1.6,0.6,2.4,0.1c0.8-0.5,0.7,0.2,0.7,0.2l2.3-3.3
			c0,0,0-0.7-0.5-0.7c0,0,0.4-2-1.1-2.5c-1.5-0.4-2.6,0.2-2.6,0.2s-1.1,2.4-1.8,2.1c-0.2-0.1-0.5-0.3-0.8-0.6
			c-0.6-0.8-0.8-1.2-0.8-1.2s-0.5,0.2-1-0.3c-0.6-0.4-1-1.5-1-1.5s-0.8-0.2-1.1-0.5c-0.3-0.3-0.6-1-0.6-1l-2.1,1.8
			c0,0-0.1,0.8-1.3,1.8c-1.2,1-1.9,1-1.9,1s-0.3,2.1-1.7,1.8c-1.4-0.3-2.3-2.1-2.3-2.1s-1-0.2-1.6,0.8c-0.6,1-0.9,1.3-0.9,2.3
			c0,1,0.5,2.4,1,2.8c0.4,0.5,1.8,1.7,3.4,0.7c1.6-1,1.1-2.6,1.1-2.6s0,0.1,0.9-0.6c1-0.8,2-1.9,2.8-2.2"/>
		<path style="fill:#F8C83C;stroke:#977C2E;stroke-width:0.35;" d="M378.1,254.2l0,4.2c0,0,0.4,3.7-0.3,4.9
			c-0.7,1.2-3.2,0.9-3.6-0.1c-0.4-1-0.2-4.2-0.2-4.2L378.1,254.2z"/>
		<path style="fill:#F8C83C;stroke:#977C2E;stroke-width:0.35;stroke-linecap:round;stroke-linejoin:round;" d="M375.2,266.9
			c0,0-0.5,1.1,1.1,1.3c0.5,0,0.8-0.1,1-0.4c0.4-0.6,0.3-1.1,0.3-1.1s-0.1,1.5,1.3,1.6c1.7,0.1,1.5-1.8,1.5-1.8"/>
		<path style="fill:#202220;" d="M361.6,270.4c0,0-0.9-1.8,0.2-2.5c1.1-0.7,1.7,0,2.3,0.1c0.7,0,0.4-2,0.3-2.4
			c-0.1-0.4-0.5-1.3-0.8-1.5c-0.3-0.2-3.9,0.2-3.9,3C359.8,269.8,361.6,270.4,361.6,270.4L361.6,270.4z M367.3,277.1
			c0,0-1.2-1.9-0.5-3.1c0.6-1.2,1.1-0.5,1.4-0.5c0.3,0,0.5-0.9-0.1-2.1c-0.5-1.3-1.2-1.9-1.6-2c-0.4-0.1-2.6,1.8-2.1,4.2
			C364.9,276.6,367.3,277.1,367.3,277.1L367.3,277.1z M387.7,274.8c0,0,3.9,1.9,4.2-2.7c0.1-2.5-1.8-4.2-2.4-4.2
			c-0.4,0-0.7,0.3-1.4,1.3c-0.7,1-1.2,1.7-1,2.1c0.3,0.4,1.5-0.4,2,1.1C390,274.8,387.7,274.8,387.7,274.8z M0.5,0"/>
	</g>
	<g>
		<path style="fill:#904720;" d="M340.7,177.4l-0.7-0.2l0.5-1.4l2.1-0.9l2.1-0.1l2.2-0.1l1,0.8l1.1,3l-4.1,2.9l-0.7,0.3l-0.3-1.2
			l-0.6-1.9L340.7,177.4z"/>
		<path style="fill:#202020;" d="M379.3,247.2L379,240l-16.7,6l6.6,7.2L379.3,247.2z"/>
		<path style="fill:#D2A567;" d="M348.4,234.6l-1.4-1.3c0,0-1-0.8-1.6-1c-0.6-0.2-1.3,0-1.3,0l-0.2,0.4l0.2,0.7l1.5,2.1
			c0,0,2.5,1.5,2.5,1.5c0.1,0,0.9,1,0.9,1l0.6,0.3L348.4,234.6z M348,237.7l1,0.1l1,1.3l0.6,1.4l0.8,1.8l0.2,1l-1.9-0.5l-5.4-2
			l0.5-1.5l0.9-1l0.8-0.4l1.1-0.2L348,237.7z"/>
		<path style="fill:#D2A567;" d="M351.5,242.9l0.9-0.1l0.6-0.6l-0.3-2.4l0.3-7.6l-4.4-6.1l-0.9,3.5l1.3,6.1l1,3.7L351.5,242.9z"/>
		<path style="fill:#AB6D29;" d="M348.4,229c0,0-0.3,0.6,0.1,2.6c0.4,2,1,6.4,2.5,9.5c1.5,3-1.5-2.4-1.5-2.4s-2.3-6.1-2-10.8
			C347.9,223.3,348.4,229,348.4,229L348.4,229z"/>
		<path style="fill:#AB6D29;" d="M0.5,0"/>
		<path style="fill:#D2A567;" d="M342.5,242.9c0.2-0.3,0.3,0.8,2,1.1c1.7,0.3,2.5-0.3,2.5-0.3l0.8,0.6l0.9,0.2l-0.8,1.4l-3.1-1.1
			l-1.7-1.1L342.5,242.9z"/>
		<path style="fill:#AB6D29;" d="M353.6,240.3l0.9,1.5l0.5-3.2l0-3.3l-1.8-1.4L353.6,240.3z"/>
		<path style="fill:#4D2A15;" d="M348.6,234.9l-1.5-2.9l-1.9-4.1l1.2-2.3l1.4,2.4c0,0-0.4,1.6-0.1,3.2
			C348,232.8,348.7,234.9,348.6,234.9L348.6,234.9z"/>
		<path style="fill:#D2A567;" d="M338.6,245.3c0,0,0.6-1.2,2.1-1.4c1.5-0.1,2.7,0.2,2.7,0.2l3,1.8l0.6,1.2l-5.7-0.9L338.6,245.3
			L338.6,245.3z"/>
		<path style="fill:#8F4620;" d="M353.5,233.5c0,0,0.1,4,0.2,5.2c0.1,1.3,0.8,2.5,0.7,3c-0.1,0.5-0.3,0.8-1.1,1.1
			c-0.7,0.3-2.2,0-2.2,0s1.4-0.2,1.5-0.6c0.1-0.3-0.4-1.9-0.5-3.2c-0.1-1.4,0.1-2.9-0.3-2.9c-0.4,0-0.8,0.6-0.9,0.8
			c-0.1,0.2,0.4-4.9,0.9-5.5C352.2,230.9,353.5,233.5,353.5,233.5z"/>
		<path style="fill:#AB6D29;" d="M343,244c0,0-0.6-0.6-0.6-1.1c0-0.4,0.7,2.1,3.8,1.9c3.1-0.1,2.9-0.2,2.9-0.2h1.5
			c0,0-0.3,1.6-0.6,1.7c-0.3,0.1-2.4,1.9-2.5,1.9l-0.8,0.5l0.1-0.3l-0.1,0l-0.3-2.8l-2.7-1.2L343,244z"/>
		<path style="fill:#8F4620;" d="M348.6,234.9c0,0-3.6-4.4-4.8-7.3c-1.2-2.9-0.5-6.9-0.5-6.9l3.4,5.2c0,0-0.4,1-0.3,2.6
			C346.6,230.3,348.6,234.9,348.6,234.9L348.6,234.9z"/>
		<path style="fill:#AB6D29;" d="M346.3,250.8c-0.1-0.3-0.3-1.3,0.4-2.3c2.1-3.1,7.6-5.4,7.6-5.4l0,3.8l-7,3.9L346.3,250.8z"/>
		<path style="fill:#AB6D29;" d="M0.5,0"/>
		<path style="fill:#AB6D29;" d="M356.1,248.8c0,0-1.2-0.5-2.1-6.4c-0.9-5.9-0.6-7.4-0.6-7.4l2,1.7l1.8,3.9L356.1,248.8z"/>
		<path style="fill:#8F4620;" d="M356.7,239.1c0,0-0.9,3.3-0.9,5.2c0,1.9-0.2,3.2,0.3,4.6c0.5,1.3,2.1,3,2.1,3l0.7-0.9l0.3-2.7
			l0.2-4.4L356.7,239.1L356.7,239.1z"/>
		<path style="fill:#202020;" d="M359.6,243.6c0,0,0.5,8.3-1.3,8.5c-0.9,0.1-2.2-3.1-2.2-3.2c0-0.1,1.6,3,2.2,2.7
			c1.1-0.5,0.8-8.6,0.8-8.6L359.6,243.6L359.6,243.6z M356.1,248.8c0,0-0.3-0.2-0.8-1.1c-0.5-0.9-0.1,0.8-3.8,2.4
			c-3.8,1.6-5.1,0.7-5.1,0.7s1.3,1.1,5.1-0.2c3.8-1.3,3.5-1.6,4-1.7C355.9,248.8,356.1,248.8,356.1,248.8L356.1,248.8z"/>
		<path style="fill:#AB6D29;" d="M349.1,238.3c0,0,0.6,0.6,1.3,2.2c0.7,1.6,1.2,2.7,1.2,2.7l0.2-0.2c0,0-0.5-1.6-1.1-2.8
			c-0.6-1.2-2.5-4.2-2.5-4.2L349.1,238.3z"/>
		<path style="fill:#AB6D29;" d="M0.5,0"/>
		<path style="fill:#202020;" d="M346.8,248.6c0,0,0.1-0.4-0.2-0.7c-0.3-0.4-0.8,0.2-3.9-0.8c-3.1-1-3.9-1.7-3.9-1.7s1.1,1.1,3.9,2
			C345.3,248.1,346.8,248.6,346.8,248.6L346.8,248.6z"/>
		<path style="fill:#AB6D29;" d="M348.2,237.7c0,0-2.4,0.1-3.1,0.9c-0.8,0.7-1.8,2.6-1.8,2.6l1.5,0.2c0,0-0.2-1.7,0.5-2.5
			C346,238,347.1,237.9,348.2,237.7L348.2,237.7z"/>
		<path style="fill:#8F4620;" d="M343.7,232.4c0,0,1,1.5,1.9,2c1,0.5,2,1,2.4,1.5c0.5,0.6,1,2.4,1,2.4s-3.4-1.8-4.1-2.6
			C344.3,234.8,343.7,232.4,343.7,232.4L343.7,232.4z"/>
		<path style="fill:#8F4620;" d="M347,233.3c0,0-0.3-0.6-1.2-1.1c-0.9-0.5-1.6-0.4-1.9-0.2c-0.3,0.2-0.2,0.4-0.2,0.4l1.2,2.2
			l0.7-0.2c0,0-1.8-1.4-1.4-1.8C345.1,231.7,347,233.3,347,233.3L347,233.3z"/>
		<path style="fill:#202020;" d="M356.1,228.3l19-11.5l9,14.6l-16.4,5.1l-8.7,0.9l-4.2-3.6L356.1,228.3z"/>
		<path style="fill:#4D2A15;" d="M381.6,234.6l23.7,24l-2.6,2.1l-5.6-1.8l-11.5-13.3l-4.3-5L381.6,234.6z"/>
		<path style="fill:#4D2A15;" d="M412,253.8c0,0-5.9-5.4-13.5-12.1c-7.7-6.6-17.1-15-17.1-15l0.4,7.2l19.6,21l6.5,3.6l3.3-1.2l1.7-2
			L412,253.8L412,253.8z"/>
		<path style="fill:#803F1D;" d="M381.6,236.9c0,0,6.8,9,12,13.6c5.2,4.6,10.2,9.6,11.2,8.9c1-0.7,0.7-1.5,0.7-1.5l-24-22.9
			L381.6,236.9L381.6,236.9z"/>
		<path style="fill:#4D2A15;" d="M398.3,259.9l-2.4,2.2l-2.8-1.3l-14.6-17.4l0.7-3.2l2,0.3L398.3,259.9z"/>
		<path style="fill:#202020;" d="M412,253.8c0,0-1.8,4.9-5.6,3.8c-3.8-1.2-24.7-24.4-24.7-24.4l0,2.4c0,0,21.2,22.7,25.3,23.6
			c4.1,0.9,7.4-3.2,7-3.7C413.7,255.3,412,253.8,412,253.8L412,253.8z"/>
		<path style="fill:#803F1D;" d="M379.2,240.5c0,0,6.8,10.1,10.3,13.8c3.6,3.7,6.7,6.7,8.1,6.3c1.5-0.3-0.9-2.2-0.9-2.2l-10.2-11.8
			l-5.2-6.1C381.4,240.5,379.3,239.6,379.2,240.5L379.2,240.5z"/>
		<path style="fill:#202020;" d="M380.9,240.5c0,0,17.2,20.4,18.5,20.9c2.9,1,7-2.5,7-2.5l-1.5-1l-0.2,0.6c0,0-0.7,2.1-4.4,1.2
			c-3.7-0.9-18.8-19.8-18.8-19.8L380.9,240.5L380.9,240.5z"/>
		<path style="fill:#4D2A15;" d="M387.4,260.1l-6.2-8.4l-1.4-2.8l-0.4-3.6l12.5,14.6l-1.8,1.4l-1.5-0.6L387.4,260.1z"/>
		<path style="fill:#202020;" d="M398.7,260.4c0,0-1.5,2.6-3.6,2.1c-2-0.5-3.2-2.2-3.2-2.2l-11.9-13.7l-0.3-2.1
			c0,0,13.1,16.2,15.5,16.9c1.7,0.5,3-1.9,3-1.9L398.7,260.4L398.7,260.4z"/>
		<path style="fill:#202020;" d="M392,259.9c0,0-0.6,2-2.3,1.7c-1.8-0.3-2.3-1.1-2.3-1.1l-7.3-10.2l-0.1-2.7c0,0,7.6,12.3,9.4,13
			c1.8,0.7,2.2-1.4,2.2-1.4L392,259.9L392,259.9z"/>
		<path style="fill:#B07229;" d="M384.2,233.3c0,0,7.1,7.1,7.7,7.4c0.6,0.3,3.1,0.4,3.2,0.9c0.1,0.4-1.6,0-1.8,0.4
			c-0.1,0.4,3.6,4,4.2,4.1c0.6,0.1,3.6,0.1,3.5,0.5c-0.1,0.4-2,0-2.1,0.5c-0.1,0.5,3.2,3.6,3.8,3.6c0.6,0.1,4.4,0.1,4.4,0.5
			c0,0.4-3.1-0.1-3,0.7c0.1,0.8,5.2,4.5,5,5c-0.2,0.5-6.1-4.7-6.3-4.4c-0.1,0.3-0.4,1.9-0.7,2.2c-0.4,0.3,0-2.2-0.3-3.2
			c-0.3-1-3.7-4.1-4.1-3.7c-0.4,0.3-0.1,2.2-0.4,2.2c-0.4,0,0.1-2.3-0.3-3c-0.4-0.8-3.6-3.9-4-3.9c-0.4,0-0.1,1.6-0.4,1.9
			c-0.3,0.3-0.2-1.9-0.7-2.6C391.4,241.7,383.9,233.8,384.2,233.3L384.2,233.3z"/>
		<path style="fill:#B07229;" d="M0.5,0"/>
		<path style="fill:#4D2A15;" d="M379.1,260.1c0.4-0.1-0.4-4.4-0.4-4.4l-2.2-6.3l-0.6-2.2l-1.8-0.8l-1.2,1.6l0.3,2.5
			c0,0,1.7,4.2,2.5,5.7C376.6,257.5,378.4,260.4,379.1,260.1L379.1,260.1z"/>
		<path style="fill:#202020;" d="M377.2,246.7c0.6,0.5,1.4,2.2,1.5,3.4c0,0,1.5,4.7,1.3,5.1c-0.2,0.5-1.1,0.5-1.1,0.5s2,2.4,2.5,2.1
			c0.6-0.3,0.3-2.6,0.1-3.1c-0.2-0.5-0.8-0.2-1.1-0.7c-0.2-0.5-1-3.6-1-5.5c0-1.8-0.1-3.1,0.1-3.6c0.2-0.5,1.7,3.9,1.7,6.2l0.6,0.9
			c0,0-0.4-3.2-0.6-4.2c-0.2-1-0.8-2.7-0.8-3c0-0.3,0.3-1.2,0.3-2c0-0.8,0-1.3,0-1.3s0.8,0.6,1.1,0.6c0.3-0.1,0.7-0.5,0.9-2.5
			c0.2-2-0.2-7.9-0.2-7.9l-7.6,11.7L377.2,246.7L377.2,246.7z"/>
		<path style="fill:#202020;" d="M377.2,245.6c0,0-0.3,3.1,0.7,6.4c1,3.2,1.3,3.4,1.5,3.8c0.2,0.5,0.2,3.9-0.2,4.3
			c0,0-1.9-5.8-2.6-8.7c-0.7-2.9-0.8-4-1.2-4.2c-0.3-0.2-0.9-0.3-0.9-0.3L377.2,245.6z"/>
		<path style="fill:#4D2A15;" d="M376.4,262.4c0.2-0.1,0.1-1.3,0.1-1.3l-0.3-3l-2.7-6.4l-2.9-3.1l-1.5-2.8l-0.2,5.3
			c0,0,2.1,5.3,3.5,6.8C373.7,259.4,376,262.5,376.4,262.4L376.4,262.4z"/>
		<path style="fill:#202020;" d="M365.5,248c0,0,0.5,1.4,0.5,2.3v1.8c0,0,1.1,2.5,2,4.6c1,2,1.9,4.1,2.7,3.6c0.8-0.5,1.1-2,1.2-2.1
			c0-0.2-0.9,1.7-1.4,1.4c-0.5-0.3-2.7-8.5-2.6-8.7c0-0.2-0.6-0.5-1.1-1.1C366.3,249.2,365.5,248,365.5,248z M373.5,255.2
			c0,0-1.5-2.9-2-4.2c-0.5-1.3-1.3-2.3-1.6-2.3s-0.6-2.6-0.6-2.6s0.8,1.7,1.8,2.3c1,0.6,1.7,1,2.1,0.8c0,0,0.3,1.3,0.3,2.7
			C373.6,253.3,373.5,255.2,373.5,255.2L373.5,255.2z"/>
		<path style="fill:#5C3A1D;" d="M368.6,250.9c0,0,0.5,1.8,1.5,3.5c1,1.7,2.6,3.8,2.6,3.8s-1.8-2.1-2.8-3.7c-1-1.6-1.6-3.7-1.6-3.7
			L368.6,250.9z"/>
		<path style="fill:#202020;" d="M373.8,248.8c0,0,0.5-1.6,0.9-1.6c0.4-0.1,1.3-0.4,1.3-0.4s-0.8-0.2-1.4-1
			c-0.6-0.9-0.8-0.8-1.5-1.7c0,0,0.4,1.7,0.5,2.6C373.8,247.3,373.8,248.8,373.8,248.8z M373.3,249.3c0,0,2.2,5.4,2.7,7.2
			c0.6,1.8,0.5,4.5,0.5,4.5s-0.3-1.9-0.8-3.5c-0.5-1.6-2.5-6-2.6-6.5C373,250.5,373.3,249.3,373.3,249.3L373.3,249.3z"/>
		<path style="fill:#4D2A15;" d="M376.3,245.8l0.5-8l-0.5-2.8l-3.1-8c0,0-0.1,1.2-0.9,1.1c-0.8,0-2.8-1.3-3.5-2.4
			c0,0,0.4,1.9,0.3,3.6c-0.1,1.8-0.4,2.7-0.4,2.7l5.9,13L376.3,245.8z"/>
		<path style="fill:#8B441F;" d="M364.5,251c0,0,0.9,1.3,1.5,1.1c0.5-0.2,0.3-2.7-0.3-4c-0.7-1.4-7.9-12.6-9-13.3
			C355.6,234,364.5,251,364.5,251L364.5,251z"/>
		<path style="fill:#8B441F;stroke:#5C3A1D;stroke-width:7.000000e-02;" d="M369.4,246.3c0.1,0.5,0.7,4.1-0.6,4.4
			c-1.7,0.5-9.6-12.3-10.9-14.1c0,0-5-3.6-5.1-4.6c-0.1-0.9,5.4,1.3,5.4,1.3l10.6,11.9C368.9,245.3,369.3,245.8,369.4,246.3
			L369.4,246.3z"/>
		<path style="fill:#8B441F;stroke:#5C3A1D;stroke-width:7.000000e-02;" d="M0.5,0"/>
		<path style="fill:#4D2A15;" d="M373.3,249.3c0.8-0.5,0.4-3.6,0.1-4.6c-0.3-1-5-12.5-5-12.5l-1.4,0.6l-2.7-2.5l-1.5-1.9
			c0,0,0.5,2.7,0.5,4.1c0,1.3-0.1,2.1-0.1,2.1l3.7,7.7L373.3,249.3L373.3,249.3z M378.6,242.4l1.1-1.7l-0.6-5.7l-3.1-12.5
			c0,0-0.8,0.2-1.6-0.3c-0.8-0.6-1.6-1.7-1.6-1.7l0.8,7.4l3.2,10.4l0.2,3.1L378.6,242.4L378.6,242.4z M0.5,0"/>
		<path style="fill:#8B441F;" d="M376.5,246.6c1.3-0.6,1.3-7.1,0-11.5c-1.2-4.4-3.3-8.1-3.3-8.1s2.6,7,3.1,9.9
			c0.5,2.9,0,4.9-0.4,4.7c-0.4-0.2-0.4-1.7-1.5-4.5c-1-2.8-1.7-3.5-1.7-3.5s3.6,11.6,2.6,11.3c-1-0.2-6.1-13-6.3-13.4
			c-0.2-0.3-0.4,0.5-0.4,0.5S373.1,248.2,376.5,246.6L376.5,246.6z"/>
		<path style="fill:#4D2A15;" d="M379.4,215.4l2.2,5.5l0.7,5.8l0.2,4.9c0,0,0.1,9.7-0.9,9.9c-1,0.2-1.5-0.9-1.6-1.2
			c0-0.2-1.9-10.9-1.9-10.9l-1.9-11.1l0.7-0.8l0.2-1.6l1.5-0.1L379.4,215.4z"/>
		<path style="fill:#8B441F;" d="M373.3,249.3c0.9-0.1,0-2.8,0-2.8s-0.7,1.3-1.3,0.4c-0.6-0.9-1.5-4.1-1.5-4.1l-0.6-1.9
			c0,0-0.6,2.1-1.5,2.1c-0.8,0-5.1-8.5-5.1-8.5l-0.5,0.8C362.8,235.4,368.9,250,373.3,249.3z"/>
		<path style="fill:#8B441F;" d="M0.5,0"/>
		<path style="fill:#904720;" d="M379.6,243.8c1.2,0,0.1-7.8-0.3-9.9c-0.5-2-3.3-11.5-3.3-11.5s3.3,13.5,3.1,14.2
			c-0.4,1-1.7-4.1-1.9-4c-0.2,0.1,2.5,9.1,1.5,9.2c-1,0.1-1.5-1.9-1.5-1.9l0.1,2C377.3,241.8,377.9,243.7,379.6,243.8L379.6,243.8z"
			/>
		<path style="fill:#904720;" d="M381.1,239.8c0.8,0-0.2-7.4-0.8-10.7c-0.6-3.3-2.2-9.9-2.2-9.9s1.7,4.6,2.6,9.8
			c0.9,5.2,1.6,12,0.7,12.1c-0.9,0.1-1.3-1-1.3-1l-0.1-1.2C379.9,238.9,380.2,239.8,381.1,239.8L381.1,239.8z"/>
		<path style="fill:#312317;" d="M370.1,248.6c0.1,0.5,0.1,3.1-1.1,2.9c-1.2-0.2-3.3-2.5-3.7-4c0,0,2.5,3.3,3.4,3.2
			c0.9,0,0.9-3.4,0.7-4.2C369.3,245.6,370.1,248.6,370.1,248.6L370.1,248.6z"/>
		<path style="fill:#D2A567;" d="M376.2,213.1c0,0,1.5,1.1,2.7,0.3c1.2-0.8,2-2.8,2-3.9c0-1.1-0.1-2-0.8-3.2c-0.7-1.1,1.2,1,1.1,3
			c0,2.1,0.1,5.7-2.7,6.4c-2.9,0.8-1.6-0.2-1.6-0.2L376.2,213.1z"/>
		<path style="fill:#8F4620;" d="M373.9,206.8c0,0,1.8,3.4,2.5,6.5c0.7,3.1,0.6,4.3,0.1,4.3c-0.4,0.1-0.6-0.4-0.7-1.1
			C375.7,215.7,373.9,206.8,373.9,206.8L373.9,206.8z"/>
		<path style="fill:#1E2121;" d="M342.4,211l11.9,20.2l14.9-19.6l-9.4-11.3L342.4,211z"/>
		<path style="fill:#4D2A15;" d="M357.4,198.6l-0.7,3.2l1.5,5.4l2.5,3l2.9,2.2l0.7-2.5l0.7-2.9l0.7-0.3l1.8,0.8l1.2-2l1.9-4.1
			l-0.4-1.6l-0.5-1.1l-3-6.1l-1,2.3l-0.9,0.7l-1.8-1.2l-2.1,3.2l-2.6-1.4L357.4,198.6z"/>
		<path style="fill:#5C3818;" d="M363.6,212.4c0,0,0.5-0.4,0.7-2c0.2-1.6,0.3-6.5-0.1-8.4c-0.4-1.9-1.5-5.8-1.7-5.5
			c-0.2,0.3,1.7,4.2,1.4,9c-0.3,4.8-0.1,6.1-1,6.6C362,212.5,363.6,212.4,363.6,212.4L363.6,212.4z"/>
		<path style="fill:#5C3818;" d="M364.3,204.3c0,0,2,3.3,2.9,2.1c0.9-1.2,0.5-5.4-0.1-7c-0.6-1.6-1.3-4-1.3-4l0.6-0.7
			c0,0,0.7,2.8,1,4.5c0.4,1.7,1.5,6.8,0.1,7.7c-1.3,0.9-3.2-1.9-3.2-1.9L364.3,204.3L364.3,204.3z"/>
		<path style="fill:#8F4620;" d="M357.9,206.5c0,0,0.7-1.1,1.6-1.2c0.9-0.1,1.1,0.3,1.1,0.3l0.8,2.7l1.3,2.8l1.2,1.4l-0.7,0.8
			l-0.9,0.2c0,0-2.8-1.7-2.9-1.8c0-0.1-0.8-1.2-0.8-1.2L357.9,206.5L357.9,206.5z"/>
		<path style="fill:#D2A567;" d="M362.6,235.2c-0.9,0.6-3.1-0.7-4.3-1.9c-1.2-1.2-7.6-8.8-7.6-8.8l-0.9-4.2l2.5,0.8l4.3-2.2l0.8-1.8
			l5.2-3.2l2.9-1.8l6.3-0.1l1.5-3.6c0,0,2.1,4.3,2.5,6c0.4,1.7,0.3,7.1-0.3,7.5c-0.5,0.3-2.6-1.6-2.9-1.7c-0.3-0.1,1.5,7.5,0,7.8
			c-1.5,0.3-4.1-2.9-4.1-2.9s1,6.8-0.2,6.9c-1.2,0-4.3-1.7-5.7-3.4C362.7,228.6,364.1,234.2,362.6,235.2L362.6,235.2z"/>
		<path style="fill:#8F4620;" d="M361.3,226.3c0,0,1,1.7,1.3,2.3c0.3,0.5-0.1,3.8-0.2,4.4c-0.4,1.2-1.8-1.5-2.6-3.9
			c0,0-2.3-4.4-2.4-5C357.2,223.5,361.3,226.3,361.3,226.3z M373.6,209.4c0,0,2.2,10.7,1.1,11c-1.1,0.4-4.1-3.4-4.5-3.9
			c-0.3-0.5-4.6-8.4-4.6-8.4l-0.9-1.1l0.3-0.5l1.8,0.8L373.6,209.4L373.6,209.4z M0.5,0 M0.5,0"/>
		<path style="fill:#8F4620;" d="M358.3,233.3c0.1,0.7-0.5,0.8-1.2,0.6c-0.7-0.2-3.4-1.3-7.7-6.9c-4.3-5.6-6-9.6-6-9.7
			c0-0.1-0.2-2.4-0.2-2.4l1.3-0.6l7.4,13.2L358.3,233.3L358.3,233.3z"/>
		<path style="fill:#4D2A15;" d="M365.5,227.6c0,0-2.2-1.9-3.7-3.9c-1.4-2-4.3-6.6-4.2-7.5c0.1-0.9,1.3-0.9,1.3-0.9l-0.1-2.3
			l0.4-0.8l2.1,1l2.6,3.8l1,1.5c0,0,1.7,4.8,1.4,5.2c-0.3,0.4-2.7-2.7-3-2.3C362.9,221.8,365.9,227.3,365.5,227.6L365.5,227.6z
			 M361.3,226.3c0,0,0.7,1.3,0.4,2.2c-0.3,0.9-0.6,1.4-1.7-0.5c-1.1-1.9-2.4-4-2.5-3.9c-0.1,0.2,0.1,2.9-0.4,2.9
			c-0.6,0-2.3-2.4-3.4-4.3c-1.1-1.9-2.8-5.1-2.8-5.1s0.1-0.7,0.1-2.8c-0.1-2.2-0.2-3.3-0.2-3.3s0.2,0.7,0.4,1.2
			c0.2,0.5,0.5,0.9,0.5,0.9l4,5.5l1.1-0.9l2.4,5.4L361.3,226.3L361.3,226.3z M346.1,218.3c0,0,3.1,6.4,6,9.9
			c2.9,3.5,6.2,5.1,6.2,5.1l-9.4-13L346.1,218.3L346.1,218.3z M369.9,222c-0.2,0.1-2.1-2.3-3.3-4.5c-1.2-2.2-2.2-5.2-2.1-6.5
			c0.1-1.3,0.4-4.6,0.4-4.6s3.2,3.9,3.8,5.7c0.6,1.8,1.9,4.3,1.7,4.6c-0.3,0.3-2.5-1.7-2.7-1.2C367.5,216,370.2,221.8,369.9,222z
			 M373.6,218c-0.4,0.2-2-2-2.4-3.4c-0.4-1.4-0.6-4.1-0.6-4.1l-1.4-3.9l0.1-4.4l1.4-0.3l2.2,3.5c0,0,0.8,2,0.8,5
			C373.6,213.3,374,217.7,373.6,218z M348.2,228.7c-2.9-4.2-4.6-8.1-4.6-8.1l-1-3.7l0.5,0.5c0,0,0.8,4.3,5.3,9.4
			c4.5,5.1,5.4,5.5,5.4,5.5s0.9,2.8,0.4,3.8C354.3,236.1,351.1,232.8,348.2,228.7L348.2,228.7z"/>
		<path style="fill:#202020;" d="M353.1,234.6c0,0-3.8-3.9-6.8-8.4c-3-4.4-4.9-8.7-4.9-8.7l1.3-1.4c0,0,2.5,6.8,4.3,9.6
			C348.7,228.4,353.1,234.6,353.1,234.6L353.1,234.6z M358.3,233.3c0,0-4.4-5.1-6.6-8c-2.2-2.9-3.5-5.8-3.5-5.8l1.9,0.8
			c0,0,0.7,2.2,2.3,4.6C354,227.2,358.3,233.3,358.3,233.3L358.3,233.3z M357.5,224.1c0,0-2.4-3.4-3.6-5.6c-1.1-2.2-2.3-4.9-2.3-4.9
			s3.2,4.3,4.2,4.6c0.9,0.3,0.9,0,0.9,0s-0.4,1.6-0.1,2.9C357,222.3,357.5,224.1,357.5,224.1L357.5,224.1z M358.4,210.2
			c0,0,0.4,2.4,0.1,3.8c-0.3,1.4-0.9,1.4-0.9,1.4s1.3,2.1,2,2.9c0.7,0.9,2.6,2.4,2.6,2.4s-1.5-2.4-2-3.6c-0.6-1.2-1.4-2.6-1.1-3.8
			c0.4-1.2,2.3,0.8,2.9,1.4c0.6,0.5,2.9,3.8,2.9,3.8s-0.9-3.3-2-4.5C361.7,212.8,358.4,210.2,358.4,210.2L358.4,210.2z"/>
		<path style="fill:#202020;" d="M368.2,217.5c0,0-1.2-3.5-2-5.6c-0.7-2.1-1.8-6.8-1.8-6.8s0.1,2.1,0,3.7c-0.1,1.6-0.6,3.9-1.2,4.3
			c-0.6,0.3-0.7,0.4-1.8,0.1c-1.1-0.3,0.7,0.6,0.7,0.6s1.1,0,1.6-0.7c0.5-0.6,0.6-2,1.1-1.8c0.5,0.2,1.1,2.2,1.5,3.1
			C366.8,215.2,368.2,217.5,368.2,217.5L368.2,217.5z"/>
		<path style="fill:#202020;" d="M364.4,205c0,0,2.3,3,3.3,1.7c1-1.4,0.4-5.2,0.4-5.2s1.4,0.6,1.8,0.2c0.4-0.4,0.2-1.9,0.2-1.9
			s2.5,4.3,3.7,7c1.2,2.7,1.8,7.6,1.8,7.6s-2.1-3.9-3.1-7.6c-1-3.4-2.4-4.9-2.6-4.6c-0.3,0.3-0.6,2.7-0.3,3.9
			c0.3,1.2,1.2,2.8,1.8,4.6c0.6,1.8,1.2,4.5,1.2,4.5s-1.2-2.1-1.9-3.2c-0.7-1.1-1.4-1.6-1.9-2.1c-0.5-0.5-1.2-1.5-1.9-1.9
			c-0.7-0.3-2.1-1.1-2.1-0.5c0,0.6-0.3-1.2-0.3-1.2L364.4,205z"/>
		<path style="fill:#202020;" d="M0.5,0"/>
		<path style="fill:#8F4620;" d="M371.7,218.8c-0.3,0.2-1.4-0.3-1.5,0.2c-0.1,0.5,0.6,2.2,1.4,3.2c0.8,0.9,1.1,1,1.3,0.9
			c0.2-0.1-0.1-0.9-0.2-1.9c-0.1-1,0-2-0.1-2.3C372.5,218.5,371.7,218.8,371.7,218.8L371.7,218.8z"/>
		<path style="fill:#D2A567;" d="M344.4,199.7l-1.3,1l-1.6,3.8l0.4,7c0,0,1.5,2.5,2.4,4c0.9,1.5,3.9,5.5,4.7,5.3
			c0.8-0.2,1.6-3,1.7-4.5c0.1-1.5,0.2-4.3,0.2-4.3s0.7,1.5,2,3.1c1.3,1.6,2.3,3.1,2.9,3c0.6-0.1,2.3-4.2,2.4-4.7
			c0-0.5-4.4-13.2-4.4-13.2l-2-1.2L344.4,199.7L344.4,199.7z"/>
		<path style="fill:#AB6D29;" d="M354.4,210.3c0,0,0.8,3.2,1.2,4.8c0.5,1.6,0,3,0.2,3c0.3,0,2.6-3.6,2.6-5.2c0-1.6,0-3.3-0.6-8.4
			c-0.6-5,0.2-6.5,0.2-6.5l-1.3-1.3l-2.3,5.4L354.4,210.3L354.4,210.3z M346.6,207.4c0,0,0.5,4.9,0.8,6.5c0.3,1.6,1.1,4.3,1.5,4.3
			c0.4,0,1.8-4.3,1.9-5.8c0,0-0.9-2.1-0.9-7.3c0-5.2-0.4-5.8-0.4-5.8L346.6,207.4L346.6,207.4z"/>
		<path style="fill:#45392D;" d="M340.6,197.3c0,0-3.5,5.9-3.4,9.2c0.1,3.3,0.5,2.5,1.3,5.5c0.8,2.9,1.2,7.3,1.3,7.7
			c0,0.4,0.6-0.2,0.6-0.6C340.5,218.6,340.6,197.3,340.6,197.3L340.6,197.3z"/>
		<path style="fill:#AB6D29;" d="M340.5,198c0,0-3.1,5.5-2.8,8.6c0.2,3.1,0.6,3,1.5,5.7c0.9,2.7,1,7.2,1,7.2s1-0.3,2.1-1.3
			c1.1-0.9,2.1-2.8,2.1-2.8s-0.4-1-1.1-2.8c-0.7-1.8-0.8-2.5-0.8-2.5l-0.9-1.5l0.3-5.3l0.8-3.8v-1.4L340.5,198z"/>
		<path style="fill:#DBAD6C;" d="M357.1,207.6c0,0-1.5-0.4-2.2-0.8c-0.6-0.4-0.9-1.5-0.9-1.5l0.4-1L357.1,207.6z"/>
		<path style="fill:#D2A567;" d="M341.2,198.6c0,0-2.2,5.6-1.9,9.4c0.3,3.8,2.1,8.7,2.2,8.8c0.2,0.1,0.1-0.4,0.1-1.2
			c0-0.9-0.1-11.5-0.1-11.5l1.1-3.7l0-1.9L341.2,198.6L341.2,198.6z"/>
		<path style="fill:#8F4620;" d="M346.5,199.9c0,0,0.3,1.7,0.1,2.4c-0.2,0.7-1.4,1.6-1.9,2.7c-0.5,1.1-1.2,3.6-1.2,3.6
			s0.5-1.4,1.3-2.4c0.7-0.9,1-1.6,1.2-1c0.1,0.5,0.4,2.7,0.2,3.1c-0.1,0.4-0.7,1.1-1.1,2.6c-0.4,1.6,0,3.1,0,3.1s0.3-1.9,0.5-2.8
			c0.2-0.9,0.8-1.3,0.8-1.3l1.2,3.1c0,0,0-1.4,0.2-2.5c0.2-1.1,1.2-2.6,1.5-2.6c0.3,0,0.8-0.2-0.4-1c-0.4-0.3-0.1-5.6,0.2-5.8
			c0.3-0.2,2-0.3,1.9-1c-0.2-0.7-1.7-2.7-1.8-2.9C349.2,196.9,346.5,199.9,346.5,199.9L346.5,199.9z"/>
		<path style="fill:#DBAD6C;" d="M356.9,211.2c0,0-1.1-0.2-1.6-0.3c-0.6-0.1-0.7-0.8-0.7-0.8l0.2-0.8l1.3,0.9L356.9,211.2z"/>
		<path style="fill:#DBAD6C;" d="M0.5,0"/>
		<path style="fill:#DBAD6C;" d="M0.5,0"/>
		<path style="fill:#DBAD6C;" d="M340.1,196.6c0,0,0.9,0.1,1.5,0.1c0.6,0,0.9-0.3,0.9-0.3l0.9-1.6c0,0-0.5,1.9-0.1,3.3
			c0.3,1.4,1,1.6,1.3,1.6c0.3,0,1.5-0.3,2.5-1.5c1-1.2,2.4-2.5,2.4-2.5s-0.3,1.7,0.2,3.5c0.5,1.7,1.4,1.7,2.5,0.6
			c1.1-1.1,2.3-2.9,2.9-3.7c0.3-0.4,0.8-1.4,0.8-1.4l1.3-1.2l1.1-7.1l-0.6-0.9l-1.6,0.9l-1.9-0.9l-0.6-0.9l-1.1,2.1l-1.1,0.9
			l-0.6,0.1l-1.3,0.3l-0.6-1.4l-0.4-1.1l-0.6-0.3l-2.7,3.2l-1.5-0.1l-1.5,2.8l-1.1,1.8l-1.1,3.2L340.1,196.6z"/>
		<path style="fill:#8F4620;" d="M353.4,189.4c0,0,0.2,1.8-0.5,4.8c-0.8,3-1.8,5.1-1.8,5.1s2.7-1.9,4.1-5.5c1.3-3.5,1-7.5,1-7.5
			L353.4,189.4L353.4,189.4z M356.7,186.1c0,0,0.3,0.5,0,3.2c-0.3,2.7-0.8,5.3-0.8,5.3s0.3,0.6,0.7,1.5c0.4,0.9,1.3,2.4,1.9,2.1
			c0.7-0.3,1.7-1.2,2.4-2.9c0.7-1.8,1.3-3.5,1.6-3.8c0.3-0.3,0.4,0.2,0.5,0.3c0.1,0.1,0.3,1.6,1,2.3c0.7,0.6,1.5,1.7,1.9,1.4
			c0.4-0.3,0.8-1.2,0.7-1.6c-0.1-0.4-1.5-5.3-1.5-5.3l-1.8-5.2l-1.1-2l-3.2,0.3L356.7,186.1L356.7,186.1z"/>
		<path style="fill:#AB6D29;" d="M362.2,181.3c0,0,0.9,2.3,1,4.7c0,2.4-0.4,5-0.4,5s0.2-3-0.1-4.8s-0.8-3-0.7-3.5
			C362,182.1,362.2,181.3,362.2,181.3L362.2,181.3z"/>
		<path style="fill:#AB6D29;" d="M0.5,0"/>
		<path style="fill:#1E2121;" d="M365.6,179.1c0,0,0.7,2.2,1,5.2c0.3,3,0,6.5,0,6.5s-1.6-2.8-1.9-4c-0.4-1.2-0.4-2.9-0.7-3.8
			c-0.2-0.5-0.8-1-1.2-1.4c-0.3-0.2-1.1-0.2-1.1-0.2s0.9-0.5,1-1.4c0.1-0.9,0-1.4,0-1.4s0.6,0.3,1.5,0.5
			C365,179.3,365.6,179.1,365.6,179.1z M358.8,191.9c0,0,1.7-2.7,2.1-6.1c0.4-3.3-0.1-4.5-0.1-4.5s-0.7-0.1-1.2-0.8
			c-0.6-0.6-1.4-2.3-1.4-2.3s0.2,1.7-0.1,3.8c-0.3,2.1-2,4.1-2,4.1s0.9,0.4,1.7-0.2c1.7-1.1,1.5-3.3,1.5-3.3s0.4,0.3,0.3,2.9
			C359.5,188.4,358.8,191.9,358.8,191.9L358.8,191.9z"/>
		<path style="fill:#8F4620;" d="M339.1,196.5c-0.4-0.1,1.1-2.7,2.1-4.5l2.4-4.4c0,0,0.3,0.3,0.8,0.3c0.6,0,2.1-0.8,2.7-2.2
			c0.6-1.3,1.1-2.8,1.1-3.2c0-0.4-0.1,2.3,1,3.9c1.1,1.5,1.1,1.4,1.6,1.3c0,0,0,1.9-0.5,3.7c-0.4,1.8-0.9,4.3-0.9,4.3
			s0.2-3.3-0.3-4.3c-0.5-1-0.7,0.1-1.1,1.3c-0.4,1.2-1.3,2.1-1.3,2.1s0.7-1.5,1.1-3c0.4-1.6,0.2-1.6,0.1-1.6c-0.1,0-0.3-0.1-0.8,0.6
			c-0.5,0.6-1,0.8-1,0.8s0.6-0.6,0.8-1.3c0.2-0.8,0.7-1.9,1.1-2.3c0.3-0.4,0.5-1,0.5-1.3c0-0.3-0.1-1-0.3-1c-0.2,0-0.5,0.4-1.6,1.6
			c-1.1,1.2-1.2,1.3-1.4,1.7c-0.2,0.4-0.3,1-1,3.4c-0.7,2.4-1.1,3.4-1.2,3.6c-0.1,0.2-0.6,0.6-0.6,0.6s0.4-1.4,0.9-3.1
			c0.5-1.8,1.3-4.1,1.1-4.5c-0.2-0.4-0.7-0.3-0.8,0c-0.1,0.3-1.2,1.9-2.3,3.7c-1.1,1.8-1.1,4.1-1.3,4.2
			C340.1,196.6,339.4,196.5,339.1,196.5z"/>
		<path style="fill:#874F20;" d="M366.6,177.1c0,0.2,0.1,1.5-1,2c-1.1,0.5-2.5-0.1-2.7-0.2c-0.1-0.2-0.1-1.9-0.1-1.9L366.6,177.1z"
			/>
		<path style="fill:#B27129;" d="M344.5,181.3c0,0-0.2,1.2-0.8,2.8c-0.6,1.5-1.7,2.8-1.5,3c0.1,0.2,0.7,0.9,1.6,0.9
			c0.9,0,1.2-6.4,1.2-6.4l-0.2-0.2L344.5,181.3z"/>
		<path style="fill:#DBAD6C;" d="M358.5,177.8c0,0-0.4,8.4-2.4,8.4c-2,0-2.9-4.3-2.9-4.3s-0.2,5.7-2.8,5.7c-1.2,0-2.4-4.4-2.1-5.2
			c0,0-0.5,3-1.7,4.1c-2.4,2.2-4,1.1-4,0.8c-0.1-0.3,2-2.7,2.3-6c0,0,0.4,0.1,1-0.8c0.6-1,0.9-2.1,1.5-1.9c0.6,0.2,3.5-1.4,3.5-1.4
			l1.5-2.3c0,0,0.2,0.7,1.3-0.2c1.1-0.9,1.5-2.2,1.5-2.2l3,3L358.5,177.8L358.5,177.8z"/>
		<path style="fill:#B27129;" d="M350.6,169.8c0,0,1.8,3.2,3,5c0.1,0.1,0.7-0.7,0.7-0.7c0.4,0.6,0.6,1.2,0.5,1.5
			c-0.5,1.3-1.5,3.1-0.7,4.9c0,0-0.3-1,0.2-2.4c0.4-1.3,0.8-1.8,1-1.8c0.3,0,0.7,7.7,1.1,7.7c0.4,0,1-3.5,1-5.9c0-2.4,0.4-0.4,0.6,0
			c0.2,0.5,2,3.9,3.5,3.4c1.5-0.5,1.3-3.7,1.3-4.4c0-0.7-1.1-4.9-1.1-4.9l-6.9-5c0,0-0.2,0.6-0.6,2.1
			C354,170.8,350.6,169.8,350.6,169.8L350.6,169.8z"/>
		<path style="fill:#8F4620;" d="M360.3,169.1c0,0,0.4,0.4,1.1,2.4c0.7,2,0.7,8.4-0.1,8.4c-0.9,0-2.6-1.2-2.9-2.1
			c-0.3-0.9,0.1-4.1-0.5-4.9c-0.6-0.9-1.3-3-1.3-3.6c0-0.6,0.1-2.6,0.1-2.6l1.5-0.7L360.3,169.1z"/>
		<path style="fill:#4D2A15;" d="M359.9,167.1l2.9,5.1l2.6,4.4c0,0,1.3,0.5,1.3,0.6c0,0.1-1.5,2-3.5,0.6c-1-0.7-0.5-2.7-1.8-6
			c-1.3-3.3-3.6-4.7-3.6-4.7l0.8-0.9L359.9,167.1z"/>
		<path style="fill:#1E2121;" d="M358.2,164.3c0,0,2.6,2,3.5,4.2c0.9,2.2,1.5,3.5,2.6,5.7c1.1,2.1,2.3,2.8,2.3,2.9
			c0,0.1-0.8,0.3-1.4-0.1c-0.6-0.5-1.1-1.1-1.6-2s-2.1-4.6-2.7-5.5c-0.6-0.9-2.6-2.7-2.6-2.5c0,0.2,0.6,0.7,1.7,2.8
			c1.1,2.1,1.4,4,1.3,4c-0.1,0-0.3-0.8-1.3-2.7c-1-1.9-3.1-4.4-3.2-4c-0.1,0.3,1,2.6,1.6,3.9c0.6,1.3,1.6,4.3,1.5,4.3
			c-0.1,0-0.8-1.7-2-3.8c-1.2-2.1-1.4-1.8-1.9-2.5c-0.5-0.7-1.5-2.3-1.5-2.3s1,0.4,2.1-0.4C357.7,165.5,358.2,164.3,358.2,164.3
			L358.2,164.3z"/>
		<path style="fill:#8F4620;" d="M351.6,169.9c0,0,1.7,0.5,2.6,0.3c0.9-0.1,1.2-0.1,1.2-0.1s0.5,0.9,0.5,1.9c0,1-0.6,2.9-0.8,2.9
			c-0.3,0-0.2-1.7-0.6-2.3C354.1,172,351.6,169.9,351.6,169.9z"/>
		<path style="fill:#8F4620;" d="M0.5,0"/>
		<path style="fill:#8F4620;" d="M349.3,177.3c-0.5,0.7-1.3,0.5-2,0.8c-0.7,0.2-0.9,1.5-0.9,1.5s0.5-0.5,0.8-0.3
			c0.3,0.1,0.6,0.1,0,1.6c-0.5,1.5-2.5,4-2.4,4c0.1,0,2.2-2.1,2.9-3.3c0.7-1.2,0.6-1.9,0.8-2.4c0.1-0.4,1-1,1.2-1
			c0.2,0,0.6,0,0.8,0.9c0.2,0.9,0.5,3.3,0.6,3.4c0.1,0.1,0.7-2.3,0.9-3.4c0.2-1.2,0.2-3.7,0.2-3.7s-0.1-0.1-0.6-0.2
			c-0.5-0.1-1.7-1.2-1.7-1.2S350,176.3,349.3,177.3L349.3,177.3z"/>
		<path style="fill:#DBAD6C;" d="M358.3,162.2c0,0,0.7,2-0.7,3.4c-0.4,0.4-0.8,0.7-1.6,0.7c-0.8,0-2-0.7-2-0.7l-4.4-2.1l-2.3-0.8
			l-1.1-0.4l0.2-1.5l3.4,0.2l3.4,1.5l1.5,0.6l1.3,0.3h1l0.8-0.3c0,0,0.4-0.2,0.5-0.4C358.2,162.4,358.3,162.2,358.3,162.2
			L358.3,162.2z"/>
		<path style="fill:#AB6D29;" d="M358.3,162.2c0.1,0.3-0.3,1.5-0.6,1.6c-0.3,0.2-0.9,0.5-2.2,0.1c-1.3-0.3-2.7-1.3-4.1-1.8
			c-1.5-0.5-2.6-0.9-3.7-0.9c-1.1,0-0.6-0.6-0.6-0.6s2.6-0.3,4.9,0.7c2.3,1,3.2,1.7,4.4,1.6C358,163,358.3,162.2,358.3,162.2
			L358.3,162.2z"/>
		<path style="fill:#4D2A15;" d="M346.4,160.6c0,0,0.5,0.1,1,0c0.4-0.1,0.8-0.4,0.8-0.4s0.1,0.7-0.2,0.9c-0.3,0.2-1.2,0.1-1.3,0.1
			C346.4,161.3,346.4,160.6,346.4,160.6L346.4,160.6z"/>
		<path style="fill:#DBAD6C;" d="M354.9,166.9c0,0,1.5,1.7,1.1,3.3l-2.9-1.6l-4.8-2.3l-2.6-0.9l-0.3-0.5c0,0,0.5-0.5,0.7-1.1
			c0.2-0.5,0.2-1,0.2-1l3.2,0.5l3.3,1.2L354.9,166.9z"/>
		<path style="fill:#DBAD6C;" d="M351.7,169.4c0,0,2.7,4.1,2.1,5.5l-6.4-4.7l-2.3,4.3l-5.3-3c0,0,4.2-3.8,4.7-4.5
			c0.5-0.7,0.5-1,0.5-1l2.4,0.5l3.7,1.4L351.7,169.4z"/>
		<path style="fill:#AB6D29;" d="M350.2,163.3c0,0,2.2,0.6,3.7,1.5c1.4,0.9,3.4,1.1,3.4,1.1s-0.8,1-2.4,1c-0.5,0-1.6-1-2.3-1.6
			c-0.7-0.6-2.8-1.3-2.8-1.3L350.2,163.3z"/>
		<path style="fill:#4D2A15;" d="M346.2,161.9c0,0,1.6,0.4,2.6,0.9c1,0.5,1.1,0.4,1.3,0.3c0.3-0.1,0.3-0.3,0.3-0.3s0.2,1.1-0.6,1.1
			s-1.1-0.3-2.1-0.8c-1-0.5-1.6,0-1.6,0L346.2,161.9z"/>
		<path style="fill:#AB6D29;" d="M355.1,169.1c0,0,1.1,0.8,0.9,1c-0.2,0.2-0.8,0.5-1.8,0.6s-1.5-0.1-2.2-0.4
			c-0.7-0.4-1.1-1.8-2.8-2.6c-1.7-0.8-2-0.9-3.2-1.2c-1.2-0.3-1.4-0.3-1.4-0.3l1.1-0.5l3.7,0.9l3.1,1.1l1.9,1.1L355.1,169.1
			L355.1,169.1z M349,171.7l0.7,3.4l-0.4,2l-1,0.7l-0.9-0.4l-0.3-0.6c0,0,0.4-0.8,0-1.5c-0.4-0.7-2.3-1.6-2.3-1.6s0.7-1.6,1.6-2
			c0.8-0.4,0.4-1.6,0.4-1.6L349,171.7z"/>
		<path style="fill:#4D2A15;" d="M345.4,164.8c0,0,0.6,0.6,1.8,0.7c0.5,0.1,1.5,0.3,2.4,0.6c0.3,0.1,1.1-0.4,1.2-0.4l-0.7,0.5
			c1.1,0.4,2.4,0.9,2.9,1.1c1.3,0.7,2.3,1.7,2.2,1.8c0,0-0.7-0.5-2.2-1.2c-1.1-0.5-2.4-1-3.4-1.2c-2.2-0.5-4.4-0.3-4.8-0.5
			c-0.5-0.2,0.2-0.2,0.4-0.5C345.4,165.4,345.4,164.8,345.4,164.8L345.4,164.8z"/>
		<path style="fill:#AB6D29;" d="M353.5,174c0,0,0.7,0.9,0,1.2c-0.7,0.3-2.7,0.3-3.7-0.9c0,0-0.2-1.1-0.6-1.6
			c-0.4-0.5-1.8-1.6-2.7-2.2c-0.8-0.6,0.3-0.7,0.3-0.7s3,1.3,4.1,2C352.1,172.5,353.5,174,353.5,174L353.5,174z"/>
		<path style="fill:#4D2A15;" d="M353.6,174.1c0,0-1.5-2.4-5.6-4.3c-0.1-0.1,1.4-0.3,1.3-0.4c-0.2-0.1-2,0-2.2,0
			c-0.3-0.1-0.6-0.2-1-0.4c-2.2-0.8-2.3-0.7-2.5-1c-0.1-0.3-0.4,0.1-0.6,0.5c-0.2,0.4-0.8,1.4-0.8,1.3c0-0.1,1.6-0.5,2.8-0.2
			c1.2,0.3,1.2,0.9,1.1,1.4c-0.1,0.5-1.6,2.7-1.4,2.7c0.2,0.1,1-2,2.1-1.7c1.1,0.3,1.5,1,1.5,1s0-0.8-0.2-1.1
			c-0.2-0.3-1.5-1.7-1.1-1.7c0.3,0,1.7,0.4,3.7,1.6C352.7,173.1,353,173.4,353.6,174.1L353.6,174.1z"/>
		<path style="fill:#4D2A15;" d="M0.5,0"/>
		<path style="fill:#6C3F18;" d="M333.3,161c0,0,0.3,0.3-0.6,3c-0.9,2.7-1.4,3.7-2.7,5.5c-2.5,3.3-3.7,3.3-3.4,4.7
			c0.3,1.4,1.3,1,1.5,1.1c0.2,0,4.8-7.8,4.8-7.8l1-4.7l-0.2-1.3L333.3,161z"/>
		<path style="fill:#DBAD6C;" d="M344.6,155.4c0,0,1.3,2.3,0.9,6.7c-0.4,4.4-5.3,8.2-5.3,8.2L333,176l-3-0.2c0,0-0.5,0.1-0.9-0.1
			c-0.5-0.1-0.9-0.7-1-0.7c-0.2,0-0.6-1.5-0.6-1.5l1-1.4l2.6-3l1.6-2.7c0,0,0.7-1.6,0.8-3.1c0.1-1.5-0.2-2.3-0.2-2.3l0.6,1.1
			l0.3,2.3L334,167l1.9-1.5l2.5-1.3c0,0,0.7-0.1,1.2-1.7c0.5-1.6,0.9-4,0.9-5c0-1.1-0.1-2.3-0.1-2.3s0.2,0,0.3,0.1
			c0.2,0.1,0.8,1.5,0.8,2.2c0,0.8,0.4,3.6,0.4,3.6l1.2-1.4c0,0,0.8-1.2,1.1-1.9C344.3,157.1,344.6,156.1,344.6,155.4L344.6,155.4z"
			/>
		<path style="fill:#904720;" d="M345.4,177.2c0,0,0.5,0.5,0.3,2.1c-0.2,1.6-1.3,2.4-1.8,2.5l0.1-2.2l-1.6-1.5l-1.7-0.6
			c0,0,0.1-0.1,0.3-0.3c0.2-0.2,2-1.1,2-1.1L345.4,177.2z"/>
		<path style="fill:#AB6D29;" d="M344.2,177.2c0,0,0.5,0.6,1.3,0.3c0.8-0.2,1.1-1.7,0.7-2.3c-0.4-0.6-0.2,1.4-0.7,1.6
			c-0.5,0.2-1.1-1.5-1.8-1.7c-0.7-0.2-1.8,0.4-2.1,0.9c-0.3,0.5,1.1,0.1,1.1,0.1l0.7,0.2l0.5,0.2L344.2,177.2z"/>
		<path style="fill:#904720;" d="M333.8,171.1c0,0,0.9,0.3,1.9,0.2c1-0.2,3.5-1.4,3.5-1.4s1.1-0.8,2-1.7c0.8-1,3.5-2.9,3.8-6.8
			c0.3-3.9-0.4-6.1-0.4-6.1s3.9,5,0.5,10.8c-2.2,3.7-4.2,4.8-4.2,4.8s3.8-1.3,4.1-0.2c0.3,1.1-0.2,2.7-0.3,3c0,0,2.2,0.6,2.5,1.9
			c0.2,0.8-2.4-0.9-4.4-0.3c-2,0.6-2.9,1.9-2.9,1.9s-0.4-0.7-2.1-0.7c-1.8,0-2.6,1-3.6,0.9c-1,0-4.2-0.8-4.8-1.8
			c0,0,0.8-1.1,2.1-2.9C332.5,170.7,333.8,171.1,333.8,171.1L333.8,171.1z"/>
		<path style="fill:#904720;" d="M0.5,0"/>
		<path style="fill:#904720;" d="M341.6,156.8c0,0,1.3,5.7-0.1,8c-1.3,2.3-7.2,5.4-7.2,5.4s4.4-2.8,5.8-6c1.4-3.2,1.3-5.9,1.3-5.9
			L341.6,156.8L341.6,156.8z"/>
		<path style="fill:#1E2121;" d="M335.8,171.3c0,0,1.9,0,2.9-0.8c1.1-0.7,2.6-2.3,2.6-2.3s-1.4,1.4-1.8,1.4c-0.4,0-0.7-0.7-0.5-1.3
			c0,0-0.3,1.1-1.2,1.8C336.9,170.9,335.8,171.3,335.8,171.3L335.8,171.3z M340.1,164.2c0,0,1.6-1.9,1.5-5.9c0-4-1.3-3.2-1.3-3.2
			s1.1,0.9,0.8,3.9C340.9,162.1,340.1,164.2,340.1,164.2L340.1,164.2z M342,164.6c0,0,1.8-0.5,2.4-1.7c0.6-1.2,0.6-3.5,0.6-3.5
			s-0.2,2.1-0.7,2.9C343.8,163,342,164.6,342,164.6z M341,177.1c0,0,0.9-2,2-1.5c1.2,0.5,1.2,1.6,1.2,1.6s-0.5-0.9-1.3-0.9
			C342,176.2,341,177.1,341,177.1L341,177.1z M337.7,173.5c0,0,2.6-0.7,4.1-1.3c1.5-0.6,3.3-1.4,3.3-1.4s-1.3,1.9-3.2,3.1
			c-1.9,1.3-3.5,1.3-3.5,1.3s3.6-1.8,3.9-2.6C342.3,172.7,338.9,173.7,337.7,173.5L337.7,173.5z M0.5,0 M0.5,0 M0.5,0 M0.5,0"/>
		<path style="fill:#AB6D29;" d="M334.2,166.6c0,0,1.7-2,2.1-4.6c0.4-2.6,0.2-4.1,0.2-4.1l0.9,1.1l0.4,2l-0.6,3.3l1.9-1
			c0.6-1,1.6-5.5,1.3-8.3c0,0,0.5,1.2-0.2,5c-0.7,3.8-1.2,4.2-3.7,5.8c-1.3,0.8-2.8,2.3-4.3,5.5c-0.6,1.4-2.4,3.7-2.6,4
			c0,0.1,1.2-2,1.8-3.6c0.9-2.3,1.9-3.6,1.9-3.6L334.2,166.6L334.2,166.6z"/>
		<path style="fill:#904720;" d="M333.4,168.2c0,0,0.8-2.7,0.8-4.1c0-1.4-0.8-3.1-0.8-3.1s1.1-0.2,1.2,3
			C334.6,167.1,334,167.3,333.4,168.2z"/>
		<path style="fill:#4D2A15;" d="M336.8,164.9c0,0,0.8-2.3,0.7-3.9c-0.1-1.6-1.2-3.1-1.2-3.1s1.4,0.3,1.5,3.1
			C338,163.9,337.6,163.9,336.8,164.9L336.8,164.9z"/>
		<path style="fill:#AB6D29;" d="M328.9,175.5c0,0-0.6-0.9-0.6-1.7c0.1-0.7,0-0.9,1.6-2.8c1.6-1.9,2.4-3.1,2.8-4.1
			c0.4-1,1.6-3.8,0.6-5.9c0,0,0.7,3.1-0.9,5.6c-1.6,2.5-2.4,3.8-3.7,4.9c-1.3,1.1-1.4,1.6-1.4,2.3c0,0.6,0.2,1.3,0.4,1.4
			C328.1,175.4,328.9,175.5,328.9,175.5L328.9,175.5z"/>
		<path style="fill:#6C4119;" d="M343.9,181.7c0,0,0.3,0,0.6-0.4c0.2-0.5,0.2-1.3-0.3-2.1c-0.5-0.8-1.2-1.3-1.9-1.5
			c-0.8-0.3-2.2-0.4-2.2-0.4s0.5,1,1.5,1.7c0.5,0.3,1.3-0.1,1.8,0.5C343.8,180,343.9,181.7,343.9,181.7L343.9,181.7z"/>
		<path style="fill:#6C4119;" d="M343.9,181.7c0,0,1.7-0.7,1.8-2.6c0.1-1.2-0.1-1.6-0.1-1.6s0.3,0.6,1,0.9l0.6-0.3
			C347.2,178.1,346.2,181.8,343.9,181.7L343.9,181.7z"/>
	</g>
	<g>
		<path style="fill:#BF802D;" d="M331.9,181.3c0,0,0.3,0.2,1,1c0.6,0.9,0.9,1.1,0.9,1.1l4.2-1.3l1.4-1.6l-1.1-2.1h-3L331.9,181.3z"
			/>
		<path style="fill:#F9C83A;stroke:#8F4620;stroke-width:0.481;" d="M342,179.7l-0.8-1.3c0,0-0.2-0.5-0.8-0.9
			c-0.6-0.4-3.1-0.3-3.1-0.3l-1.8,0.4c0,0-0.5,0.5-1.4,0.3c-0.9-0.2-3-1.2-3-1.2l-2-1c0,0-1.5-0.8-1.9-0.6c-0.3,0.1-1.6,1.8-1.6,1.8
			s-0.2,0.9,0.3,0.9c0.5,0-0.7,0.3-0.7,0.3s-3.2,2-3.7,5.7c-0.5,3.6,5.2,9,7.3,6.3c0,0-3.1-2.7-2.5-4.9c0.6-2.2,2-3.6,4.5-3.8
			c2.4-0.2,2.6-0.5,3.7-1.4c1.1-0.9,3-1.4,4.5,0.4c1.5,1.8-5.6,3.5-5.6,3.5l0.8,1.3C334.1,185,342.7,181.5,342,179.7L342,179.7z"/>
		<path style="fill:#FCF3D8;" d="M325.8,188.3c0,0-3.5-1-3.2-4.8c0.3-3.8,3.2-5.1,3.7-5.3c0.5-0.2,0.4-2.1,1-2.3
			c0.6-0.2,1.7,0,2.2,0.6c0.5,0.6,1.6,1.1,1.6,1.1s-6.2,3.2-6.3,7.4C324.8,187.7,325.8,188.3,325.8,188.3L325.8,188.3z"/>
		<path style="fill:#FDEAAF;" d="M342,179.3c0,0-0.4,0.3-0.5,0.1c-0.7-1.4-2.2-1.8-3.4-1.8c-1.6,0-2.7,0.7-3.7,0.7
			c-1.1,0-0.8-0.2-2-0.3c-1.3-0.1-4-2.4-4.6-2.2c-0.6,0.2-0.9,1.1-0.8,1.5c0.1,0.4-1.1,0.5-1.3,0.1c-0.2-0.3,0.9-2.4,2-2.4
			c2.9,0,5.1,2.3,6.5,2.3c1.4,0,1.9-1,3.8-1C339.9,176.5,341.9,177.5,342,179.3L342,179.3z"/>
		<path style="fill:#513625;" d="M332.3,181.9c0,0,1.4-0.3,2.5-0.9c1.1-0.5,2.5-1,2.5-1s-1.3,1-2.2,1.5c-0.9,0.5-2.3,0.8-2.3,0.8
			L332.3,181.9z"/>
		<path style="fill:#F9C83A;" d="M327.4,190.4c-0.3,0.1-1.5,0.1-3.4-1.5c-2-1.5-2.5-4.1-2.5-4.1s-0.5-2.5,1.6-5
			c2-2.5,2.4-1.8,2.5-1.7c0.1,0.1-0.1,0.2-0.1,0.2l-1.8,1.7l-0.9,1.7l-0.8,1.6l0.1,1.9l0.9,1.9l2.8,2L327.4,190.4L327.4,190.4z"/>
		<path style="fill:#F9C83A;" d="M0.5,0"/>
		<path style="fill:#F9C83A;" d="M0.5,0"/>
		<path style="fill:#8F4620;" d="M326.1,186.8c0.3,1,1,2.5,1.8,3c0,0,0.1,0,0.1,0.1c0,0.1-0.6,0.5-2,0.1c-1.3-0.4-3.4-1-4.6-5.4l0,1
			l0.7,1.7l1.3,1.6l2.1,1.5l1.4,0.4l1.2-0.4l0.5-0.5l-1.2-1.3l-1.5-3C326,185.6,325.9,186,326.1,186.8L326.1,186.8z"/>
	</g>
	<g>
		<path style="fill:#FCCA3D;" d="M340.1,230.3l-0.1,1.6l-0.8-0.1l0.1-2L340.1,230.3z M334.8,185.1l-1.4-1.8l-0.9,0.2l1.4,2.3
			L334.8,185.1z M0.5,0 M0.5,0"/>
		<path style="fill:#A8AC71;" d="M328.8,185.4l-0.4-0.4l-0.4,0.2l0.7,0.7L328.8,185.4z M330,186.6l-0.3-0.4l-0.2,0.1l0.3,0.4
			L330,186.6z"/>
		<path style="fill:#78732E;" d="M331.6,188.7l-0.3-0.4l-0.2,0.2l0.3,0.4L331.6,188.7z M332.7,190.7l-0.2-0.4l-0.3,0.1l0.4,0.5
			L332.7,190.7z M333.4,192.7l-0.2-0.6l0,0.1l0,0.4L333.4,192.7z M333.5,194.6l0-0.5l-0.2-0.2l0,0.7L333.5,194.6z M333.4,195.9
			l0-0.6l-0.1-0.1L333.4,195.9L333.4,195.9z M319.7,215.3c0,0,0-0.5,0.2-0.9c0.1-0.4-0.3,0.2-0.3,0.2l-0.1,0.6L319.7,215.3
			L319.7,215.3z"/>
		<path style="fill:#FFFFFF;" d="M319.6,216.5l-0.2,0.1l0.1,0.6l0.1-0.2C319.6,217,319.6,216.7,319.6,216.5L319.6,216.5z"/>
		<path style="fill:#78732E;" d="M319.7,218.8l0-0.6l-0.1-0.1v0.9L319.7,218.8z"/>
		<path style="fill:#FFFFFF;" d="M319.8,220.1l0-0.5l-0.2,0l0,0.5H319.8z M320.1,222l-0.1-0.5l-0.1,0.1l0.1,0.5L320.1,222z
			 M320.5,223.9l-0.2-0.7l-0.1,0.1l0.2,0.6L320.5,223.9z"/>
		<path style="fill:#A8AC71;" d="M321.6,226.5l-0.2-0.4l-0.2,0l0.3,0.5L321.6,226.5z M323.2,228.3c0,0-0.2-0.2-0.5-0.5
			c-0.3-0.3-0.1,0.3-0.1,0.3l0.5,0.3L323.2,228.3z M334.2,229.3c0,0-0.3-0.2-0.4-0.3c-0.2-0.1,0.1,0,0.3,0.4
			C334.2,229.9,334.2,229.3,334.2,229.3L334.2,229.3z"/>
		<path style="fill:#FFFFFF;" d="M335.1,230.2c0,0-0.2-0.3-0.3-0.4c-0.1-0.1-0.1,0.3-0.1,0.3l0.3,0.1L335.1,230.2z"/>
		<path style="fill:#A8AC71;" d="M335.3,230.7c-0.1-0.2-0.2,0.3-0.2,0.3l0.3,0.4C335.4,231.3,335.5,230.9,335.3,230.7z M335.4,232.5
			c0,0,0.1-0.4,0.1-0.6c0-0.2-0.2,0.1-0.2,0.1l0,0.5H335.4z"/>
		<path style="fill:#FFFFFF;" d="M334.9,234.3l0.1-0.5l-0.2,0l-0.1,0.5L334.9,234.3z M318.1,165.9c0,0,0.6-0.2,0.2,0.7
			c-0.5,0.8,0.3-0.7,0.3-0.7l-0.3-0.1L318.1,165.9z"/>
	</g>
	<path style="fill:#F9C83A;" d="M331.7,180.8l0.4,0.5c0,0-0.4-0.1-0.5-0.1C331.4,181.1,331.7,180.8,331.7,180.8L331.7,180.8z"/>
	<path style="fill:#8F4620;" d="M332.1,181.3c0,0-0.5,0.1-0.7,0.1c-0.2,0,0.2-0.2,0.2-0.2L332.1,181.3z"/>
	<path style="fill:#977C2E;" d="M338.8,238.8c0,0,0.5-0.1,0.7-0.4c0.2-0.3-0.1,0.5-0.1,0.5l-0.3,0.1L338.8,238.8L338.8,238.8z"/>
</g>
</svg>
