<?xml version="1.0" encoding="utf-8"?>
<!-- Generator: Adobe Illustrator 25.2.1, SVG Export Plug-In . SVG Version: 6.00 Build 0)  -->
<svg version="1.1" id="Layer_1" xmlns="http://www.w3.org/2000/svg" xmlns:xlink="http://www.w3.org/1999/xlink" x="0px" y="0px"
	 viewBox="0 0 720 480" style="enable-background:new 0 0 720 480;" xml:space="preserve">
<g>
	<rect style="fill:#007934;" width="720" height="480"/>
	<rect x="219.1" style="fill:#FFFFFF;" width="281.7" height="480"/>
	<path style="fill:#007934;" d="M362.6,31.9c-0.6,9.1-1.3,18.2-1.9,27.3c-2.3,0.5-4.6,0.9-6.9,1.4c0,0,4.8,3.6,5.6,7.2
		c0.1,0.6,0.1,1.1-0.1,1.4c-0.1,0.1-0.2,0.2-0.3,0.3c-1.4,1.4-5.5,0.8-5.5,0.8c0,0,5.5,6.1,5.9,8.4c0,0.1,0,0.1,0,0.2
		c0,0,0,0.1,0,0.2c0,0,0,0.1,0,0.1c0,0.1-0.1,0.2-0.2,0.3c-1.3,1.6-7.3,2-7.3,2s6.7,6.4,7.1,10c0.4,3.3,0.1,5.2,0,5.5
		c-0.5-0.5-11.3-12.6-18.3-9.1c-0.3,0.2-0.6,0.5-0.6,0.7c0,0.1,0,0.3,0,0.4c0.5,2,10.4,4.1,17.2,12c-0.2,2-19.6-6.3-20.3-1.1
		c0.6,1.5,20.9,5.4,22.4,8.9c-7.5,0.4-22.9-2.2-22.4,1.1c-1.6,3.8,14.6,1.6,21.4,4.7c2,3,1.8,5.5-1.7,5.8
		c-6.5-4.1-21.2-7.2-21.2-1.9c0,0,0,0,0,0c0,0,0,0,0,0c0,0,0,0,0,0.1c0,0,0.1,0.1,0.1,0.1c1.7,1.1,15.3,0.6,20.4,5.1
		c-7.3,2.2-31.9-4.4-32.1-1.2c0.7,1.5,4.6,8.2,11.3,7.9c6.7-0.3,22.2,3.6,23.3,6.4c0,0.1,0,0.2,0,0.2c-0.5,1.9-20.4-5.9-28.1-1.1
		c-8,5,22.9,2,27.9,8.1c5,6.1-10.1-0.6-10.1-0.6c0,0-21-3.9-24.1-1.9c-3.1,1.9-6.7,6.4-6.7,6.4s2.1,5.5,4.2,4.4
		c0.3-0.2,0.5-0.2,0.7-0.2c0,0,0,0,0,0c0,0,0,0,0,0c0,0,0,0,0,0c0,0,0,0,0,0c0,0,0,0,0,0c0,0,0,0.1,0,0.1c0,0.8-1.4,3.3-1.4,3.3
		s29.4,9.4,35.9,17.8c6.5,8.3-37.3-13.1-37.3-13.1c0,0-17.6,8.6,1,9.2c-2.1,4,0.9,6.5,1,6.7c0,0,31,8.6,34.2,15.3
		c3.1,6.7-21.2-6.4-26.6-10c-5.3-3.5-19.9,1.8-20.7,3.5c0,0,0,0,0,0.1c0,0,0,0,0,0c0,0,0,0,0,0.1c0,0,0,0,0,0c0,0,0,0,0,0
		c0,0,0,0,0,0c0,0,0,0,0,0c0,0,0,0.1,0,0.1c0,0,0,0,0,0c0.9,1.4,7.5,3.3,7.7,5.6c0,0,0,0,0,0c0,0.1,0,0.3-0.1,0.4
		c-0.8,2.1-8.6,3-8.9,5c0,0,0,0.1,0,0.1c0,2.2,39.2,13.1,49.7,24.7c10.5,11.7-30.8-13.9-30.8-13.9s2.3,4.2,0,5.3
		c-2.3,1.1-10.5-15.6-23.9-5.3c-2.4,4.2,11.7,7.6,15.3,8.1c-1.2,4.2-2.3,5.6,2.7,9.7c0.6,0.5,0.9,0.7,1,0.9c0,0,0,0,0,0l0,0
		c0,0,0,0,0,0c0,0,0,0,0,0c0,0,0,0,0,0c0,0,0,0,0,0c-0.8-0.2-9.8-6.3-10.8-6.6c0,0,0,0,0,0c0,0,0,0,0,0c0,0.6,1,7.2,1,7.2
		c-4.6-5-10.3-6.5-15.5-1.4c0,0.3,0,5.1,5.2,8.1c-3,8.1,3.4,5.6,13.4,13.1c-15-5.2-16.2,4.4-5.5,6.7s40.1,3.6,47,15.6
		c1.5,2.5,1.9,3.8,1.6,4.2c-1.2,1.4-11.8-8.8-13.3-9.2c0,0,0,0,0,0c0,0,0,0,0,0c0,0,0,0.1-0.1,0.2c-0.4,1.1-0.7,5.9-0.7,5.9
		c-4.5-3.4-8.6-6.5-13.9-8c-0.4,1.1-0.3,2.7-0.8,3.8c-4.9-4.6-9.1-7.9-16.1-8.4c-0.3,1.5-0.6,3-0.8,4.5c0,0-5.9-9.7-17.4,0
		c-6.4,6.1,24.3,2.2,29.4,9.4c5,7.2,1,8.3,1,8.3c-4.2-2-8.4-4.1-12.6-6.1c0,0-14.9-3.6-19.1,0.8c-4.2,4.4,61.2,15.3,63.1,27.3
		c1.3,6.5-15.4-6.8-29.8-12.5c-0.6,2.1-1.1,4.2-1.7,6.4c-0.3-0.4-5.9-7.6-12.2-8.9c0,0,0,0,0,0c0,0,0,0,0,0.1c0,0.9,1.3,7.4,1.3,7.4
		c0,0-16.1-10-24.3-4.7c-8.2,5.3,28.5,8.1,31.9,13.1c0.4,0.5,0.5,0.9,0.5,1.2c0,0,0,0.1,0,0.2c-0.8,1.6-11.8-4.2-12.8-1.4
		c-1.3,3.3-19.1-6.1-18.9-1.7c0.2,4.4,2.5,6.9,2.5,6.9c0,0,37.1,4.7,38.4,10.6c1.3,5.8-20.6-3.3-20.6-3.3s-2.1,4.2-0.4,6.1
		c0.1,0.1,0.1,0.1,0.1,0.2c0,0,0,0,0,0c0,0,0,0,0,0c-0.8-0.3-12.6-10.6-11.4-2.7c-4.6-2.4-16.6-10-14.9-4.2
		c1.7,5.8,32.8,13.9,33.7,14.2c-0.8,0.1-14,1.5-13.4,6.1c-17.7-14.3-17.6-5.7-17.2-5c0,0,0,0,0,0c-1-0.2-22.7-7.4-5.4,5
		c9.3,6.6,11.5,9.2,11.6,10.2c0,0,0,0.1,0,0.1c0,0,0,0.1,0,0.1c0,0,0,0,0,0c0,0,0,0,0,0.1c0,0,0,0,0,0c0,0,0,0,0,0c0,0,0,0,0,0
		c0,0,0,0,0,0c-0.4,0.3-1.2,0.2-1.5,0.2c0,0,0,0,0,0c0,0,0,0,0,0l0,0c0.2,0.5,1.6,5.4,1.5,6.2c0,0,0,0,0,0.1c0,0,0,0,0,0
		c0,0,0,0,0,0c0,0,0,0,0,0c0,0,0,0,0,0c0,0,0,0,0,0c-0.8-0.3-12.2-8.4-16.1-8.9c-4-0.6-22.9,6.9-2.7,18.6
		c20.1,11.7,32.5-2.8,43.6-1.1c11.1,1.7,16.4,4.2,15.3,8.9c-1,4.7-11.4-15.5-22.2,2c-12.3-3.2-20.7-5.1-14.3,6.9
		c-20.1-10-32.5,3-7.1,8.3c24.9,1,40.3-8.1,40.3-8.1c0,0,4.2,10.3,10.3,3.1c5.8-6.9,6.3,1.9,6.5,2.7c0,0,0,0,0,0c0,0,0,0,0,0
		c0,0,0,0,0,0c0.4-0.1,5.9-3.3,5.9-3.3c0.5,0,1,0,1.5,0v66.7c6.8,0.1,13.5,0.2,20.3,0.3c0,0-6.5-58.1-2.9-65.9
		c3.5-7.5,6.7-6.7,6.9-6.7c0,0,13.2,5.3,14.7,4.4c0,0,0.1,0,0.1,0c0,0,0,0,0,0c0,0,0.1-0.1,0.1-0.1c0,0,0,0,0,0
		c1.1-1.3,0-6.4,6.7-5.6c2.1-1,1.3-5.4,2.6-6.5c0,0,0.1,0,0.1-0.1c0.1,0,0.1-0.1,0.2-0.1c0.1,0,0.2,0,0.3-0.1
		c2.1-0.3,42.6,15,51.4,0.5c-2.3-8.1-10.3-0.5-12.4-0.3c-1.9,0-9.9-5-14.5,0c-4.2-4.2-23.3-6.9-23.3-6.9c-2.5-3.3,45.5,1.7,48.2-0.8
		c5.7-7.5-10.5-6.7-13-4.2c-4.5-3.6-10.1-3.3-13.5-0.8c-1.6-5.2-17.2-3-25.9-4.4c-2.8-2.2-2.3-3.4-0.4-4.7c18.1,1,36.1,4.2,54.3,3.1
		c4.9-8.5-6.2-11.7-13-4.5c-4-8.7-12.2-0.3-17.6-1.1c-5.5-0.8-2.9-9.7,4-8.3c6.9,1.4,19.3-0.6,21.6-4.7c2.3-4.2-1.4-8.4-12.8-4.4
		c-3.9-5-12.4,0-16.3,1.7c-5.3-3.9-17.6-0.5-21.8,0.8c-4.1-3.4,21.6-8.9,21.6-8.9c9.9-0.2,15.5-2.5,18.7-3.6c15-10.7-0.2-11.8-8.1-4
		c-4.9-5.1-9.5,0.4-13.9,2.4c-4.1,1.8-11.8,3.2-12.7,2.6c0,0,0,0,0,0c0,0,0,0,0,0l0,0c0,0,0,0,0,0c0,0,0,0,0,0c0,0,0,0,0-0.1
		c0.6-1.3,11.9-10.5,11.9-10.5c0,0,14.7-1.4,17.6-2c1.8-0.3,8.1-4.3,8.1-5.7c-0.1-0.9-2.7-0.8-10.6,1.8c-7.1,0.8-11.3,0.3-14,0.6
		c-4.4-0.6-6.2-1.2-6.6-1.8c0,0,0-0.1,0-0.1c0-0.1,0-0.2,0-0.3c0,0,0-0.1,0.1-0.1c1.1-1.1,8-2,8-2c0,0,21.2-2.6,22.6-4c0,0,0,0,0,0
		c0,0,0,0,0-0.1c0,0,0,0,0,0c0.4-11.5-18-6.2-18.5-6.1c0.1-8.1-16.6-0.1-17.4,0c0,0,0,0,0,0c-0.7-0.6-1-1.2-1.1-1.7
		c0-0.2,0-0.4,0-0.6c0.4-1.7,2.9-3,2.9-3c4.6-1.5,11.5-1.9,13.3-3.9c0,0,13-0.2,14.6-4.7c-3.2-11.7-27.6,2.1-30.8,4.2
		c-0.7,0-1.1-0.2-1.3-0.6c-1.1-2.1,4.2-8.9,4.4-9.1c0,0,0,0,0,0c0.8-0.3,20.3-1.6,29.5-18.3c0.7-10.3-11.1,5.8-11.1,5.8
		c-0.9-13.4-12.8,0.8-19.7,2c-6.9,1.1-7.1-4.2-2.3-5c4.8-0.8,10.3-0.3,13-10c2.7-9.7,10.9,0.6,12.4-3c1.4-3.5-2.7-6.5-2.9-6.7
		c0,0,6.1-8.4-3.8-8.1c-9.8,0.3-22.4-1.6-22.6-1.7c0.6-0.3,10.5-5.3,19.9-5c9.6,0.3,4.4-9.2-4.8-9.2c-9.2,0-14-4.2-14-4.2
		c5.2-2.6,10.5-5.2,15.7-7.8c-0.3-1.9-0.7-3.9-1-5.8c0,0,9.2-9.7-3.8-7.5c-13,2.2-14.5,2.5-14.5,2.5c0,0-25.6,5.2-26.2,5.3
		c0,0,0,0,0,0c-0.2-0.1-2.8-1.1-3.3-2.4c0,0,0-0.1,0-0.2c0-0.1,0-0.1,0-0.2c0-0.1,0-0.1,0-0.2c0.1-0.7,0.9-1.4,2.9-2.1
		c6.7-2.2,30.4-8.6,34-6.9c0.5,0.2,0.8,0.2,1-0.1c1.3-1.6-3.1-11.8-14-13.3c-12.6-1.7-20.3,4.2-20.3,4.2s-8.2-3.9-0.6-7.2
		c7.5-3.3,19.5,1.1,19.5,1.1c0,0,13.4-5.3,2.3-7.5c-11.1-2.2-14.6,2-19.7,2.2c-2-3.4,17.4-4.2,18.7-6.9c-2.1-5-14.1,0-21.2,0
		c-3-1.7-3.2-4.4,0.2-6.1c7.2-0.4,14,0.2,21.2-0.2c-0.2-5.1,0-11.1-0.2-16.2c-9.1-2.2-19.8,1.6-25,1.3c1.4-5.6,21.1-7,23.3-8.5
		c4.5-7.5-18.9-0.1-19.5,0c-4.2-0.8-3.9-4.3-1.3-6.4c6.1-0.9,19.7,1.2,18.7-4.3c-0.8-5.1-9.5-2.4-13-1.3c-3.6,1.1-8.8,0.3-8.8,0.3
		c-2.3-4.1,20.6-2.4,20.4-5.6c-0.3-3.6-14.5-1.1-19.3-0.8c-3.7-3.4,17.4-5.6,18.4-6.1c0,0,0,0,0,0c0.8-9.2-14.7,0-17.6,0
		c-0.5,0-0.9-0.2-1.2-0.5c-0.1-0.1-0.1-0.2-0.2-0.2c-1-1.6-0.1-5.1-0.1-5.1s5.5-3.3,5.9-4.1c0,0,0,0,0,0c0,0,0,0,0,0c0,0,0,0,0,0
		c0,0,0,0,0,0c0,0,0-0.1-0.1-0.1c-0.6-0.7-4.4-2.3-4.9-2.4c0,0,0,0,0,0c0,0,0,0,0,0c0,0,0,0,0,0c0,0,0,0,0,0
		c-0.3-0.8,0.1-6.3,0.1-6.3s4.4-4.3,4.6-6.1c0,0,0,0,0-0.1c0,0,0,0,0-0.1c0,0,0,0,0-0.1c0,0,0,0,0-0.1c0,0,0,0,0,0c0,0,0,0,0-0.1
		c0,0,0,0,0,0c0,0,0,0,0,0c0,0,0,0,0,0c0,0,0,0,0-0.1c0,0,0,0,0,0c0,0,0,0-0.1-0.1c0,0,0,0,0,0c-1.1-0.7-5.7,1.4-5.7,1.4
		c0-1.9,0-3.7,0-5.6c0,0,4-0.6,4.4-3.1c0-0.1,0-0.3,0-0.4c0-0.1,0-0.1,0-0.2c0-0.1-0.1-0.2-0.1-0.3c0,0,0,0,0-0.1
		c-0.9-1.6-4.6-1.8-4.6-1.8C364,51.4,363.3,41.6,362.6,31.9L362.6,31.9z M358.9,127.2v3.8c0,0-4.7-0.3-5.6-1.3c0,0,0,0,0,0
		c0,0,0,0,0,0c0,0,0,0,0,0c0,0,0,0,0,0c0,0,0,0,0-0.1c0,0,0,0,0,0c0,0,0,0,0,0c0,0,0,0,0,0c0,0,0,0,0-0.1c0,0,0,0,0,0c0,0,0,0,0,0
		c0,0,0-0.1,0-0.1c0,0,0,0,0,0c0,0,0-0.1,0-0.1c0,0,0,0,0,0c0,0,0,0,0-0.1c0,0,0.1-0.1,0.1-0.1C355,127.5,358.2,127.5,358.9,127.2
		C358.8,127.3,358.8,127.3,358.9,127.2C358.8,127.3,358.8,127.2,358.9,127.2C358.8,127.2,358.8,127.2,358.9,127.2
		C358.8,127.2,358.9,127.2,358.9,127.2L358.9,127.2z M365.5,132.3c0.2,0,9.4,0.1,10.2,1.7c0,0,0,0,0,0.1c0,0,0,0.1,0,0.1
		c0,0,0,0,0,0.1c0,0,0,0.1,0,0.1c0,0,0,0.1,0,0.1c-0.7,2-10,3.2-10,3.2L365.5,132.3L365.5,132.3z M365,139.9
		C365,139.9,365,139.9,365,139.9C365,139.9,365.1,139.9,365,139.9c0.6,0.2,4.4,0.4,4.9,1.2c0,0,0,0,0,0c0,0,0,0,0,0c0,0,0,0,0,0
		c0,0,0,0,0,0c0,0,0,0,0,0c0,0,0,0,0,0c0,0,0,0,0,0c0,0,0,0,0,0c0,0,0,0,0,0c0,0,0,0,0,0c0,0,0,0,0,0.1c0,0,0,0,0,0c0,0,0,0,0,0
		c-0.8,1.3-4.3,1.6-4.5,1.6c0,0,0,0,0,0c0,0,0,0,0,0c0,0,0,0,0,0C365.2,142.6,365,139.9,365,139.9L365,139.9z M336.9,150
		c3-0.2,9,0.7,20.2,4.8c0,0.3,0.2,4.2,0.1,4.8c0,0,0,0,0,0c0,0,0,0,0,0c0,0,0,0,0,0c-0.2-0.1-20.4-7.8-22.2-7.7c-0.1,0-0.1,0-0.2,0
		c0,0-0.1,0-0.1,0c-0.1,0-0.1-0.1-0.2-0.1c0,0-0.1,0-0.1,0c0,0,0,0,0,0c-0.1-0.1-0.1-0.1-0.2-0.2c0,0,0,0,0,0c0,0,0,0,0-0.1
		c0,0,0,0,0,0c0,0,0,0,0-0.1c0,0,0,0,0,0c0,0,0,0,0-0.1c0,0,0,0,0-0.1c0,0,0-0.1,0-0.1c0-0.1,0.1-0.2,0.1-0.3
		C334.7,150.5,335.5,150.1,336.9,150L336.9,150z M347.4,161.3c3.2-0.2,10.9,2.3,11.4,2.2c0,0.8,0.3,4.7,0,5.5c0,0,0,0,0,0
		c0,0,0,0,0,0c0,0,0,0,0,0c0,0,0,0,0,0c0,0,0,0,0,0c0,0,0,0,0,0c0,0,0,0,0,0c-0.7-0.2-12-5-12.5-7c0,0,0-0.1,0-0.1
		c0-0.1,0-0.2,0.1-0.2c0,0,0,0,0,0c0,0,0,0,0,0C346.4,161.5,346.8,161.4,347.4,161.3L347.4,161.3z M379.1,171.9
		c3.1-0.1,5.2,0.3,4.4,1.5c-2.2,3.4-17.4,6.2-17.4,6.2l-0.3-6.2C366.2,173.3,373.9,172,379.1,171.9L379.1,171.9z M335.7,191.1
		c2.6-0.2,8.6,1.7,22,9.2l0.1,4.4c0,0-22.7-9.1-23.4-10.6C333.9,193.4,333.2,191.3,335.7,191.1L335.7,191.1z M380.1,197.7
		c0.7,0,1.2,0,1.3,0.3c0,0,0,0,0,0c0,0,0,0.1,0,0.1c0,0,0,0.1,0,0.1c0,0.1-0.1,0.3-0.2,0.5c-2.1,3.1-13.4,6.3-13.4,6.3s0-4,0-4.1
		c0,0,0,0,0,0C368.4,200.8,376.7,197.9,380.1,197.7L380.1,197.7z M330.4,198.2c3.4-0.2,11,2.1,28.1,12.9c0,0.1,0.2,3.8,0.1,4.2
		c0,0,0,0,0,0c-1-0.4-30.8-14.3-30.8-14.3C327.8,200.8,327.3,198.5,330.4,198.2L330.4,198.2z M387.1,215.6c0.9,0,1.4,0.1,1.6,0.3
		c0,0,0,0.1,0,0.1c0,0.1-0.1,0.3-0.2,0.5c-2.7,3.2-19.9,7.2-20.5,7.2c0,0,0,0,0,0c0,0,0,0,0,0c0,0,0,0,0,0c0,0,0,0,0-0.1
		c0,0,0,0,0,0c0,0,0,0,0-0.1c-0.1-0.7,0.2-3.4,0.3-3.7c0,0,0,0,0,0c0,0,0,0,0,0c0,0,0,0,0,0c0,0,0,0,0,0
		C369.3,219.7,382.4,215.9,387.1,215.6L387.1,215.6z M336.5,225.7c5.1-0.4,20.7,9.1,21.4,9.4c0,0,0,0,0,0c-0.1,0.4-0.1,3.8-0.2,4.4
		c0,0,0,0.1,0,0.1c0,0,0,0,0,0c-0.4-0.3-21.7-12-22.6-11.1C334.5,226.6,335.1,225.8,336.5,225.7L336.5,225.7z M382.3,228.2
		c1.1-0.1,1.8,0,2.1,0.2c0,0,0.1,0.1,0.1,0.1c0,0,0,0,0,0c0,0,0,0,0,0c0,0,0,0,0,0.1c0,0,0,0,0,0c0,0,0,0.1-0.1,0.1
		c-1.6,1.9-16.3,5.7-16.3,5.7s-0.1-3.6-0.1-4C368.4,230.3,377.9,228.4,382.3,228.2L382.3,228.2z M381.1,240.6c1,0,1.8,0,1.9,0.3l0,0
		c0,0,0,0,0,0.1c0,0,0,0,0,0c0,0,0,0,0,0c0,0,0,0,0,0.1c0,0,0,0,0,0c0,0,0,0.1,0,0.1c0,0-0.1,0.1-0.1,0.1c-1.6,1.8-14,5.3-14,5.3
		s-0.3-4-0.3-4.1C368.9,242.6,377.2,240.8,381.1,240.6L381.1,240.6z M328.6,241.6c3-0.3,10.4,1.4,28.8,10.2l0.6,4.8
		c0,0-30.6-13.1-31.4-13.5c0,0,0,0,0,0c0,0,0-0.1,0-0.2c0-0.1,0.1-0.3,0.2-0.5C326.9,242.1,327.4,241.7,328.6,241.6L328.6,241.6z
		 M368.9,252c0.4,0.1,5.5,0.3,6.4,1.4c0,0,0,0,0,0c0,0,0,0,0,0c0,0,0,0,0,0c0,0,0,0,0,0.1c0,0,0,0,0,0c0,0,0,0.1,0,0.1c0,0,0,0,0,0
		c0,0,0,0,0,0c0,0,0,0,0,0.1c0,0,0,0,0,0c0,0,0,0,0,0.1c0,0,0,0,0,0c0,0,0,0,0,0.1c-0.8,1.6-6.1,2.2-6.1,2.2S369,253,368.9,252
		L368.9,252z M381.3,261.3c1.2,0,2,0.1,2.2,0.6c0.1,0.3-0.1,0.8-0.7,1.4c-4.4,4.8-14,5.7-14,5.7v-5.3c0,0,0,0,0,0
		C369.4,263.6,377.3,261.4,381.3,261.3L381.3,261.3z M393.4,266.2c1.5-0.1,2.2,0.3,2.4,0.7c0,0,0,0.1,0,0.2c0,0.1,0,0.2,0,0.3
		c0,0.6-0.5,1.3-0.9,1.8c-1.5,1.9-25.3,11.9-25.3,11.9s-0.2-6.6-0.1-7.2C383.5,268.2,390.3,266.3,393.4,266.2L393.4,266.2z
		 M378.1,284.9c1.5-0.1,2.7,0,3.1,0.5c0,0,0.1,0.1,0.1,0.1c0,0,0,0.1,0,0.1c0,0,0,0.1,0,0.1c0,0,0,0.1,0,0.2c0,0.1-0.1,0.2-0.1,0.3
		c-2,2.6-11.9,3-11.9,3V286C371,285.9,375.1,285.1,378.1,284.9L378.1,284.9z M388,290.4c0.5,0,0.8,0.1,0.8,0.3c0,0,0,0,0,0.1
		c0,0.2-0.2,0.4-0.5,0.7c-4,3.7-18.8,7.5-18.8,7.5s0.2-2.6,0.3-3.2C370.2,295.7,384.4,290.5,388,290.4L388,290.4z M396.3,294.5
		c1.7,0,3.1,0.3,3.8,1.1c0,0,0,0,0,0c0,0,0,0,0,0c0,0,0,0,0,0c0,0,0,0,0,0.1c-0.1,0.7-1.2,4.1-5.1,5.6c-4.9-0.6-25.6,7.5-26,7.7
		c0,0,0,0,0,0c0,0,0,0,0-0.1c0-0.5,0.3-3.3,0.3-3.3C376.5,299.9,389.4,294.6,396.3,294.5L396.3,294.5z M343.3,310.4c0,0,0.1,0,0.1,0
		c9,1.3,12.3,5.7,13.2,7.5c-1.8,4.2-15.9-5.2-14.5-7.2C342.4,310.6,342.7,310.4,343.3,310.4L343.3,310.4z M394.6,311.2
		c0.4,0,0.7,0.1,0.9,0.3c0.1,0.1,0.2,0.2,0.3,0.3c0.1,0.2,0.1,0.4,0.2,0.7c-0.9,1.9-5.8,1.1-6.1,1
		C390.1,313.4,392.9,311.3,394.6,311.2L394.6,311.2z M375.4,324.1c0.7,0,1.2,0.1,1.5,0.3c0,0,0.1,0.1,0.1,0.1c0,0,0,0,0,0.1
		c0,0,0,0.1,0,0.1c0,0,0,0.1,0,0.1c0.1,0.2,0,0.5-0.1,0.9c-1.4,3.5-7.6,2.2-7.6,2.2v-2.4c0,0,0,0,0,0
		C369.9,325.5,373.3,324.2,375.4,324.1L375.4,324.1z M339.2,333.3c1.9-0.1,3.5,1.5,5.3,2.8c3.9-1,11.8,0.8,11.8,0.8v4.6c0,0,0,0,0,0
		c0,0,0,0,0,0c-0.7,0.2-10-0.4-12.1-2.1c-1.7,0-6.5-3.4-6.9-5.1c0,0,0,0,0-0.1c0,0,0-0.1,0-0.1c0,0,0,0,0-0.1c0,0,0,0,0-0.1
		c0,0,0,0,0,0c0,0,0,0,0-0.1c0,0,0,0,0,0C337.9,333.6,338.6,333.4,339.2,333.3L339.2,333.3z M379.8,335.6c1.5-0.1,2.1,0.5,0.9,2.6
		c-3.2,5.9-11.3,3.5-11.3,3.5l-0.3-3.7C371.9,338.2,377.2,335.8,379.8,335.6L379.8,335.6z M349.3,347.7c3.3-0.2,6.9,1.5,6.9,1.5
		c0.1,0.2,1.8,4.6,0.3,6.1c-0.1,0.1-0.1,0.1-0.2,0.2c-1.8,1.3-10.7-1-11.2-5.7C346.1,348.3,347.6,347.8,349.3,347.7L349.3,347.7z
		 M315.2,350c3-0.2,6.4,2.2,6.8,2.5c0,0,0,0,0,0c0,0.1-0.1,4.5-0.1,4.5s-6-2.2-7.9-6.7C314.4,350.1,314.8,350,315.2,350L315.2,350z
		 M372.8,350.6c3.4,0,7.4,1,8,2.5c0.1,0.3,0.1,0.7-0.1,1c-1.7,2.7-11.2,0.2-11.2,0.2v-3.3C370.3,350.7,371.5,350.6,372.8,350.6
		L372.8,350.6z"/>
</g>
</svg>
