<?xml version="1.0" encoding="utf-8"?>
<!-- Generator: Adobe Illustrator 25.2.1, SVG Export Plug-In . SVG Version: 6.00 Build 0)  -->
<svg version="1.1" id="Layer_1" xmlns="http://www.w3.org/2000/svg" xmlns:xlink="http://www.w3.org/1999/xlink" x="0px" y="0px"
	 viewBox="0 0 720 480" style="enable-background:new 0 0 720 480;" xml:space="preserve">
<g>
	<path style="fill:#002B7F;" d="M0,0h720v480H0V0z"/>
	<path style="fill:#FFC61E;" d="M0,220h720v40H0V220z"/>
	<path style="fill:#FFFFFF;" d="M180,420l-7.8-41.4L150,409.3l8.8-41L128,380l23-29.6L120,340l31-10.4L128,300l30.7,11.7l-8.8-41
		l22.2,30.6L180,260l7.8,41.4l22.2-30.6l-8.8,41L232,300l-23,29.6l31,10.4l-31,10.4l23,29.6l-30.7-11.7l8.8,41l-22.2-30.6L180,420z"
		/>
</g>
</svg>
