<?xml version="1.0" encoding="utf-8"?>
<!-- Generator: Adobe Illustrator 25.2.1, SVG Export Plug-In . SVG Version: 6.00 Build 0)  -->
<svg version="1.1" id="Layer_1" xmlns="http://www.w3.org/2000/svg" xmlns:xlink="http://www.w3.org/1999/xlink" x="0px" y="0px"
	 viewBox="0 0 720 480" style="enable-background:new 0 0 720 480;" xml:space="preserve">
<g>
	<path style="fill:#FF0000;" d="M0,0h720v480H0V0z"/>
	<path style="fill:#006600;" d="M0,0h288v480H0V0z"/>
	<g>
		
			<path style="fill-rule:evenodd;clip-rule:evenodd;fill:#FFFF00;stroke:#000000;stroke-width:0.573;stroke-linecap:round;stroke-linejoin:round;" d="
			M381.9,314.2c-36.3-1.1-202.5-104.9-203.6-121.4l9.2-15.3c16.5,24,186.4,124.9,203.1,121.3L381.9,314.2"/>
		
			<path style="fill-rule:evenodd;clip-rule:evenodd;fill:#FFFF00;stroke:#000000;stroke-width:0.573;stroke-linecap:round;stroke-linejoin:round;" d="
			M185.5,175.5c-3.3,8.8,43.4,37.6,99.5,71.7c56.1,34.1,104.5,55.2,108.1,52.2c0.2-0.4,1.8-3,1.6-3c-0.7,1-2.3,1.3-4.9,0.6
			c-15.2-4.4-54.7-22.5-103.6-52.2c-49-29.7-91.6-57.1-98.2-68.7c-0.5-0.8-0.8-2.3-0.7-3.4l-0.2,0l-1.4,2.5L185.5,175.5L185.5,175.5
			L185.5,175.5z M382.7,314.7c-0.6,1.1-1.8,1.2-3.9,0.9c-13.6-1.5-54.7-21.5-103.4-50.7c-56.7-33.9-103.4-64.8-98.4-72.9l1.4-2.4
			l0.3,0.1c-4.6,13.7,92.3,69.1,98,72.6c56.1,34.7,103.3,55,107.5,49.7L382.7,314.7L382.7,314.7L382.7,314.7z"/>
		
			<path style="fill-rule:evenodd;clip-rule:evenodd;fill:#FFFF00;stroke:#000000;stroke-width:0.573;stroke-linecap:round;stroke-linejoin:round;" d="
			M288.2,202.9c36.3-0.3,81.1-5,106.8-15.2l-5.6-9c-15.2,8.4-60.3,14-101.6,14.8c-48.9-0.4-83.4-5-100.7-16.6l-5.2,9.6
			C213.8,199.9,246.3,202.7,288.2,202.9"/>
		
			<path style="fill-rule:evenodd;clip-rule:evenodd;fill:#FFFF00;stroke:#000000;stroke-width:0.573;stroke-linecap:round;stroke-linejoin:round;" d="
			M396.5,187.8c-0.9,1.4-17.7,7.2-42.4,11.5c-16.8,2.6-38.7,4.7-66,4.8c-26,0-47.2-1.8-63.2-4c-26-4.1-39.4-9.7-44.4-11.7
			c0.5-0.9,0.8-1.6,1.2-2.5c14.3,5.7,27.7,9.1,43.5,11.5c15.9,2.2,36.9,4,62.7,4c27.2,0,48.9-2.4,65.5-4.9
			c25.4-4.1,39.3-9.4,41.2-11.8L396.5,187.8L396.5,187.8L396.5,187.8z M391.7,178.7c-2.8,2.2-16.5,7.1-40.6,10.9
			c-16.1,2.3-36.6,4.4-62.7,4.4c-24.8,0-45.1-1.6-60.6-3.9c-24.5-3.2-37.5-9-42.2-10.7c0.5-0.8,0.9-1.6,1.4-2.4
			c3.7,1.8,16.2,6.9,41.1,10.5c15.3,2.2,35.6,3.8,60.3,3.8c26,0,46.3-2.1,62.3-4.4c24.2-3.3,37.3-9.5,39.3-11.1L391.7,178.7
			L391.7,178.7L391.7,178.7z M169.1,246.6c22.3,12,71.9,18.1,118.8,18.5c42.7,0.1,98.3-6.6,119.2-17.6l-0.6-12
			c-6.5,10.2-66.1,19.9-119,19.5c-52.9-0.4-102-8.6-118.4-19.2L169.1,246.6"/>
		
			<path style="fill-rule:evenodd;clip-rule:evenodd;fill:#FFFF00;stroke:#000000;stroke-width:0.573;stroke-linecap:round;stroke-linejoin:round;" d="
			M408.1,244.9v2.9c-3.1,3.7-22.7,9.4-47.3,13.4c-18.7,2.9-43.1,5-73.5,5c-28.9,0-51.9-2.1-69.8-4.8c-28.2-4.1-46.3-11.3-49.9-13.5
			l0-3.3c10.9,7.2,40.4,12.5,50.3,14.2c17.7,2.7,40.6,4.8,69.4,4.8c30.3,0,54.5-2.2,73.1-5C378.1,255.9,403.2,249.3,408.1,244.9
			L408.1,244.9L408.1,244.9z M408.2,234.7v2.9c-3.1,3.7-22.7,9.4-47.3,13.4c-18.7,2.9-43.1,5-73.5,5c-28.9,0-51.9-2.1-69.8-4.8
			c-28.2-4.1-46.3-11.3-49.9-13.5l0-3.3c10.9,7.2,40.4,12.5,50.3,14.2c17.7,2.7,40.6,4.8,69.4,4.8c30.3,0,54.5-2.2,73.1-5
			C378.1,245.7,403.2,239.1,408.2,234.7L408.2,234.7L408.2,234.7z M287.7,312.2c-51.3-0.3-95.3-14-104.6-16.3l6.8,10.6
			c16.4,6.9,59.3,17.2,98.3,16c39-1.1,73.1-4.2,97.1-15.9l6.9-11C375.9,303.4,320.2,312.1,287.7,312.2"/>
		
			<path style="fill-rule:evenodd;clip-rule:evenodd;fill:#FFFF00;stroke:#000000;stroke-width:0.55;stroke-linecap:round;stroke-linejoin:round;" d="
			M388,304.3c-1,1.5-2.1,3.1-3.1,4.6c-11.3,4-29.2,8.2-36.7,9.4c-15.4,3.2-39.2,5.5-60.3,5.5c-45.5-0.7-82.7-9.6-100.2-17.2
			l-1.4-2.4l0.2-0.4l2.4,0.9c31.1,11.1,66.1,15.6,99.2,16.4c21,0.1,42.1-2.4,59.2-5.5c26.1-5.2,36.7-9.2,39.9-11L388,304.3
			L388,304.3L388,304.3z M394,294.3L394,294.3c-0.7,1.4-1.5,2.7-2.3,4c-6,2.2-22.4,7-46.4,10.3c-15.8,2.1-25.6,4.2-57,4.8
			c-58.8-1.5-96.9-13-105.9-15.8l-1.3-2.6c34.1,8.9,68.9,15.1,107.3,15.7c28.7-0.6,40.9-2.7,56.6-4.9c27.9-4.3,42-8.9,46.2-10.3
			c-0.1-0.1-0.1-0.2-0.2-0.2L394,294.3L394,294.3L394,294.3z"/>
		
			<path style="fill-rule:evenodd;clip-rule:evenodd;fill:#FFFF00;stroke:#000000;stroke-width:0.573;stroke-linecap:round;stroke-linejoin:round;" d="
			M394.6,237.1c0.2,33.8-17.1,64.1-31,77.4c-19.7,18.9-45.8,31.1-76.3,31.6c-34,0.6-66.1-21.6-74.8-31.3
			c-16.8-19.1-30.5-43.3-31-75.9c2.1-36.9,16.6-62.5,37.5-80.1s48.9-26.2,72.1-25.6c26.8,0.7,58.2,13.9,79.8,40
			C385.2,190.4,391.4,209,394.6,237.1L394.6,237.1z M287.6,121.5c65.4,0,119.2,53.2,119.2,118.4c0,65.2-53.8,118.4-119.2,118.4
			s-118.7-53.2-118.7-118.4S222.2,121.5,287.6,121.5"/>
		
			<path style="fill-rule:evenodd;clip-rule:evenodd;fill:#FFFF00;stroke:#000000;stroke-width:0.573;stroke-linecap:round;stroke-linejoin:round;" d="
			M287.9,121.1c65.4,0,118.8,53.4,118.8,118.8c0,65.4-53.4,118.8-118.8,118.8c-65.4,0-118.8-53.4-118.8-118.8
			C169.1,174.5,222.5,121.1,287.9,121.1L287.9,121.1z M171.7,239.9c0,63.9,52.5,116.2,116.2,116.2c63.7,0,116.2-52.3,116.2-116.2
			c0-63.9-52.5-116.2-116.2-116.2S171.7,176,171.7,239.9L171.7,239.9z"/>
		
			<path style="fill-rule:evenodd;clip-rule:evenodd;fill:#FFFF00;stroke:#000000;stroke-width:0.573;stroke-linecap:round;stroke-linejoin:round;" d="
			M288,131c59.7,0,108.8,49,108.8,108.8c0,59.9-49.2,108.8-108.8,108.8s-108.8-49-108.8-108.8C179.2,180,228.3,131,288,131L288,131z
			 M181.8,239.8c0,58.4,48,106.2,106.2,106.2s106.2-47.8,106.2-106.2c0-58.4-48-106.2-106.2-106.2
			C229.7,133.6,181.8,181.4,181.8,239.8L181.8,239.8z"/>
		
			<path style="fill-rule:evenodd;clip-rule:evenodd;fill:#FFFF00;stroke:#000000;stroke-width:0.573;stroke-linecap:round;stroke-linejoin:round;" d="
			M292.8,120.6h-10.2l0,238.8h10.2L292.8,120.6z"/>
		
			<path style="fill-rule:evenodd;clip-rule:evenodd;fill:#FFFF00;stroke:#000000;stroke-width:0.573;stroke-linecap:round;stroke-linejoin:round;" d="
			M291.8,119.2h2.6l0,241.5h-2.6L291.8,119.2L291.8,119.2z M281.7,119.3h2.6l0,241.5h-2.6L281.7,119.3L281.7,119.3z"/>
		
			<path style="fill-rule:evenodd;clip-rule:evenodd;fill:#FFFF00;stroke:#000000;stroke-width:0.573;stroke-linecap:round;stroke-linejoin:round;" d="
			M406.8,244.5v-8.8l-7.2-6.7l-40.8-10.8l-58.8-6l-70.8,3.6l-50.4,12l-10.2,7.5v8.8l25.8-11.6l61.2-9.6h58.8l43.2,4.8l30,7.2
			L406.8,244.5z"/>
		
			<path style="fill-rule:evenodd;clip-rule:evenodd;fill:#FFFF00;stroke:#000000;stroke-width:0.573;stroke-linecap:round;stroke-linejoin:round;" d="
			M287.9,221.5c28.1-0.1,55.3,2.7,76.9,6.9c22.3,4.5,38,10,43.3,16.3l0,3.1c-6.5-7.8-27.6-13.5-43.8-16.8
			c-21.4-4.2-48.5-6.9-76.4-6.8c-29.4,0.1-56.9,2.8-78,7c-16.9,3.4-39.5,10-42.4,16.6v-3.2c1.5-4.6,18.4-11.4,42-16.1
			C230.9,224.3,258.3,221.6,287.9,221.5L287.9,221.5z M288,211.3c28.1-0.1,55.3,2.7,76.9,6.9c22.3,4.5,38,10,43.3,16.3l0,3.1
			c-6.5-7.8-27.6-13.5-43.8-16.8c-21.4-4.2-48.5-6.9-76.4-6.8c-29.4,0.1-56.7,2.8-77.9,7c-16.4,3.1-39.9,10-42.5,16.6v-3.2
			c1.5-4.5,18.7-11.6,42-16.1C230.9,214.1,258.3,211.4,288,211.3L288,211.3z M287.4,159.3c44.2-0.2,82.8,6.2,100.4,15.2l6.4,11.1
			c-15.3-8.3-56.9-16.9-106.8-15.6c-40.6,0.2-84,4.5-105.8,16.1l7.7-12.9C207.2,164.1,249.3,159.4,287.4,159.3"/>
		
			<path style="fill-rule:evenodd;clip-rule:evenodd;fill:#FFFF00;stroke:#000000;stroke-width:0.573;stroke-linecap:round;stroke-linejoin:round;" d="
			M288,168.5c25.2-0.1,49.6,1.4,69,4.9c18,3.4,35.3,8.4,37.7,11.1l1.9,3.4c-6-3.9-20.9-8.3-40-11.9c-19.2-3.6-43.6-4.8-68.6-4.7
			c-28.5-0.1-50.6,1.4-69.6,4.7c-20.1,3.8-34,9.1-37.4,11.7l1.9-3.6c6.7-3.4,17.3-7.5,35.1-10.7C237.5,169.8,259.8,168.7,288,168.5
			L288,168.5L288,168.5z M288,158.4c24.1-0.1,48,1.3,66.5,4.6c14.7,2.9,29.1,7.3,34.4,11.3l2.8,4.4c-4.7-5.3-22.6-10.3-38.4-13.1
			c-18.4-3.2-41.3-4.4-65.4-4.6c-25.3,0.1-48.7,1.6-66.9,4.9c-17.3,3.3-28.5,7.2-33.2,10.3l2.5-3.7c6.5-3.4,17.1-6.6,30.4-9.2
			C238.9,159.9,262.5,158.4,288,158.4L288,158.4z M347,289.3c-21.9-4.1-43.8-4.7-59.1-4.5c-73.7,0.9-97.5,15.1-100.4,19.5l-5.5-9
			c18.8-13.6,58.9-21.2,106.3-20.4c24.6,0.4,45.9,2,63.7,5.5L347,289.3"/>
		
			<path style="fill-rule:evenodd;clip-rule:evenodd;fill:#FFFF00;stroke:#000000;stroke-width:0.55;stroke-linecap:round;stroke-linejoin:round;" d="
			M287.5,283.5c20.5,0.3,40.6,1.2,60,4.8l-1.4,2.5c-18-3.3-37.3-4.6-58.6-4.5c-27.2-0.2-54.7,2.3-78.6,9.2c-7.6,2.1-20.1,7-21.3,11
			l-1.4-2.3c0.4-2.4,8-7.3,22.1-11.3C235.7,285,261.4,283.7,287.5,283.5L287.5,283.5L287.5,283.5z M288.4,273.2
			c21.2,0.4,43.2,1.4,64.5,5.6l-1.5,2.6c-19.3-3.8-37.6-5.1-62.9-5.5c-27.3,0-56.2,2-82.5,9.6c-8.5,2.5-23.2,7.8-23.6,12.1l-1.4-2.5
			c0.3-3.8,13-8.9,24.4-12.2C231.9,275.3,260.9,273.3,288.4,273.2L288.4,273.2z"/>
		
			<path style="fill-rule:evenodd;clip-rule:evenodd;fill:#FFFF00;stroke:#000000;stroke-width:0.573;stroke-linecap:round;stroke-linejoin:round;" d="
			M393.1,296.6l-8.9,13.7l-25.4-22.6l-66-44.4l-74.4-40.8l-38.6-13.2l8.2-15.3l2.8-1.5l24,6l79.2,40.8l45.6,28.8l38.4,27.6l15.6,18
			L393.1,296.6z"/>
		
			<path style="fill-rule:evenodd;clip-rule:evenodd;fill:#FFFF00;stroke:#000000;stroke-width:0.573;stroke-linecap:round;stroke-linejoin:round;" d="
			M178.4,189.7c6.8-4.6,56.6,17.6,108.7,49c52,31.5,101.6,67.1,97.1,73.8l-1.5,2.3l-0.7,0.5c0.1-0.1,0.9-1-0.1-3.5
			c-2.2-7.3-37.4-35.4-95.9-70.7c-57-34-104.4-54.4-109.2-48.6L178.4,189.7L178.4,189.7L178.4,189.7z M394.9,296.5
			c4.3-8.5-41.9-43.3-99.2-77.1c-58.6-33.2-100.8-52.7-108.5-46.9l-1.7,3.1c0,0.2,0.1-0.2,0.4-0.5c1.4-1.2,3.7-1.1,4.8-1.2
			c13.3,0.2,51.2,17.7,104.4,48.2c23.3,13.6,98.5,61.8,98.2,75.3c0,1.2,0.1,1.4-0.3,2L394.9,296.5L394.9,296.5L394.9,296.5z"/>
	</g>
	<g transform="translate(0 -.172)">
		<path style="fill:#FFFFFF;stroke:#000000;stroke-width:0.67;" d="M216.7,253.2c0,19.5,8,37.2,20.9,50.1
			c13,12.9,30.6,21.1,50.2,21.1c19.7,0,37.5-8,50.4-20.9c12.9-12.9,20.9-30.7,20.9-50.3h0v-95L216.7,158L216.7,253.2L216.7,253.2
			L216.7,253.2z"/>
		<path style="fill:#FF0000;stroke:#000000;stroke-width:0.507;" d="M219.4,253.3L219.4,253.3c0,18.7,7.7,35.7,20.1,48.1
			c12.4,12.4,29.5,20.1,48.3,20.1c18.8,0,35.9-7.6,48.3-20c12.4-12.3,20-29.3,20-48.1h0v-92.2l-136.6,0L219.4,253.3 M328.6,188.8
			l0,58.7l0,6.2l0,0c0,1.6-0.1,3.5-0.3,5.1c-1.1,9.3-5.4,17.4-11.7,23.6c-7.4,7.4-17.6,11.9-28.9,11.9c-11.2,0-21.2-4.7-28.6-12.1
			c-7.6-7.6-12-18-12-28.7l0-64.8L328.6,188.8L328.6,188.8L328.6,188.8z"/>
		<g id="e">
			<g id="d">
				<path style="fill:#FFFF00;" d="M228.2,185.3c0.2-6.6,4.9-8.2,4.9-8.2c0,0,5.1,1.7,5.1,8.3L228.2,185.3"/>
				<path style="fill:#FFFF00;stroke:#000000;stroke-width:0.5;" d="M224.2,177.2l-0.8,7.6l5,0c0-6.3,4.8-7.3,4.9-7.3
					c0.1,0,4.8,1.4,4.9,7.3h5l-0.9-7.7L224.2,177.2L224.2,177.2z M223,184.8h20.3c0.4,0,0.8,0.4,0.8,0.9c0,0.5-0.4,0.9-0.8,0.9H223
					c-0.4,0-0.8-0.4-0.8-0.9S222.6,184.8,223,184.8L223,184.8z"/>
				<path style="fill:#FFFF00;stroke:#000000;stroke-width:0.5;" d="M230.4,184.8c0-4,2.7-5.1,2.7-5.1c0,0,2.8,1.2,2.8,5.1H230.4
					 M223.5,174h19.5c0.4,0,0.7,0.4,0.7,0.8c0,0.5-0.3,0.8-0.7,0.8h-19.5c-0.4,0-0.7-0.4-0.7-0.8C222.7,174.4,223,174,223.5,174
					L223.5,174z M223.9,175.7h18.6c0.4,0,0.7,0.4,0.7,0.8c0,0.5-0.3,0.8-0.7,0.8h-18.6c-0.4,0-0.7-0.4-0.7-0.8
					C223.1,176.1,223.5,175.7,223.9,175.7L223.9,175.7z M229.9,163l1.5,0v1h1.1V163l1.5,0v1.1h1.1V163h1.5l0,2.4
					c0,0.4-0.3,0.6-0.7,0.6h-5.3c-0.4,0-0.7-0.3-0.7-0.6L229.9,163L229.9,163L229.9,163z M235.4,166.2l0.3,7.7l-5.2,0l0.3-7.7
					L235.4,166.2"/>
				<path id="a" style="fill:#FFFF00;stroke:#000000;stroke-width:0.5;" d="M229.1,169.8l0.2,4.2l-4.9,0l0.1-4.2H229.1L229.1,169.8
					L229.1,169.8z"/>
				<g>
					<path id="a_1_" style="fill:#FFFF00;stroke:#000000;stroke-width:0.5;" d="M241.9,169.8l0.2,4.2l-5,0l0.1-4.2H241.9
						L241.9,169.8L241.9,169.8z"/>
				</g>
				<path id="b" style="fill:#FFFF00;stroke:#000000;stroke-width:0.5;" d="M223.6,166.8l1.4,0v1h1.1v-1.1l1.5,0v1.1h1.1v-1.1l1.5,0
					l0,2.4c0,0.4-0.3,0.6-0.6,0.6h-5.2c-0.3,0-0.7-0.3-0.7-0.6L223.6,166.8L223.6,166.8L223.6,166.8z"/>
				<g>
					<path id="b_1_" style="fill:#FFFF00;stroke:#000000;stroke-width:0.5;" d="M236.3,166.8l1.4,0v1h1.1v-1.1l1.5,0v1.1h1.1v-1.1
						l1.5,0l0,2.4c0,0.4-0.3,0.6-0.6,0.6H237c-0.3,0-0.7-0.3-0.7-0.6L236.3,166.8L236.3,166.8L236.3,166.8z"/>
				</g>
				<path d="M232.7,168.7c0-0.8,1.1-0.8,1,0v1.8h-1V168.7"/>
				<path id="c" d="M226.3,171.4c0-0.7,1-0.7,1,0v1.4h-1V171.4"/>
				<g>
					<path id="c_1_" d="M239.1,171.4c0-0.7,1-0.7,1,0v1.4h-1V171.4"/>
				</g>
			</g>
			<g>
				<g id="d_1_">
					<path style="fill:#FFFF00;" d="M228.2,240.9c0.2-6.6,4.9-8.2,4.9-8.2c0,0,5.1,1.7,5.1,8.3L228.2,240.9"/>
					<path style="fill:#FFFF00;stroke:#000000;stroke-width:0.5;" d="M224.2,232.8l-0.8,7.6l5,0c0-6.3,4.8-7.3,4.9-7.3
						c0.1,0,4.8,1.4,4.9,7.3h5l-0.9-7.7L224.2,232.8L224.2,232.8z M223,240.4h20.3c0.4,0,0.8,0.4,0.8,0.9c0,0.5-0.4,0.9-0.8,0.9H223
						c-0.4,0-0.8-0.4-0.8-0.9S222.6,240.4,223,240.4L223,240.4z"/>
					<path style="fill:#FFFF00;stroke:#000000;stroke-width:0.5;" d="M230.4,240.4c0-4,2.7-5.1,2.7-5.1c0,0,2.8,1.2,2.8,5.1H230.4
						 M223.5,229.6h19.5c0.4,0,0.7,0.4,0.7,0.8c0,0.5-0.3,0.8-0.7,0.8h-19.5c-0.4,0-0.7-0.4-0.7-0.8
						C222.7,230,223,229.6,223.5,229.6L223.5,229.6z M223.9,231.3h18.6c0.4,0,0.7,0.4,0.7,0.8c0,0.5-0.3,0.8-0.7,0.8h-18.6
						c-0.4,0-0.7-0.4-0.7-0.8C223.1,231.7,223.5,231.3,223.9,231.3L223.9,231.3z M229.9,218.6l1.5,0v1h1.1v-1.1l1.5,0v1.1h1.1v-1.1
						h1.5l0,2.4c0,0.4-0.3,0.6-0.7,0.6h-5.3c-0.4,0-0.7-0.3-0.7-0.6L229.9,218.6L229.9,218.6L229.9,218.6z M235.4,221.8l0.3,7.7
						l-5.2,0l0.3-7.7L235.4,221.8"/>
					<path id="a_2_" style="fill:#FFFF00;stroke:#000000;stroke-width:0.5;" d="M229.1,225.4l0.2,4.2l-4.9,0l0.1-4.2H229.1
						L229.1,225.4L229.1,225.4z"/>
					<g>
						<path id="a_3_" style="fill:#FFFF00;stroke:#000000;stroke-width:0.5;" d="M241.9,225.4l0.2,4.2l-5,0l0.1-4.2H241.9
							L241.9,225.4L241.9,225.4z"/>
					</g>
					<path id="b_2_" style="fill:#FFFF00;stroke:#000000;stroke-width:0.5;" d="M223.6,222.4l1.4,0v1h1.1v-1.1l1.5,0v1.1h1.1v-1.1
						l1.5,0l0,2.4c0,0.4-0.3,0.6-0.6,0.6h-5.2c-0.3,0-0.7-0.3-0.7-0.6L223.6,222.4L223.6,222.4L223.6,222.4z"/>
					<g>
						<path id="b_3_" style="fill:#FFFF00;stroke:#000000;stroke-width:0.5;" d="M236.3,222.4l1.4,0v1h1.1v-1.1l1.5,0v1.1h1.1v-1.1
							l1.5,0l0,2.4c0,0.4-0.3,0.6-0.6,0.6H237c-0.3,0-0.7-0.3-0.7-0.6L236.3,222.4L236.3,222.4L236.3,222.4z"/>
					</g>
					<path d="M232.7,224.3c0-0.8,1.1-0.8,1,0v1.8h-1V224.3"/>
					<path id="c_2_" d="M226.3,227c0-0.7,1-0.7,1,0v1.4h-1V227"/>
					<g>
						<path id="c_3_" d="M239.1,227c0-0.7,1-0.7,1,0v1.4h-1V227"/>
					</g>
				</g>
			</g>
			<g transform="rotate(-45.202 312.766 180.004)">
				<g id="d_2_">
					<path style="fill:#FFFF00;" d="M249.9,298.7c-4.6-4.8-2.4-9.2-2.4-9.3c0,0,4.8-2.4,9.4,2.2L249.9,298.7"/>
					<path style="fill:#FFFF00;stroke:#000000;stroke-width:0.5;" d="M241.3,295.9l4.8,5.9l3.5-3.5c-4.4-4.5-1.9-8.6-1.8-8.6
						c0.1-0.1,4.4-2.4,8.7,1.7l3.5-3.5l-6.1-4.8L241.3,295.9L241.3,295.9z M245.9,302.1l14.3-14.4c0.3-0.3,0.9-0.3,1.2,0.1
						c0.4,0.4,0.4,0.9,0.1,1.2l-14.3,14.4c-0.3,0.3-0.8,0.3-1.2-0.1C245.7,303,245.6,302.4,245.9,302.1L245.9,302.1z"/>
					<path style="fill:#FFFF00;stroke:#000000;stroke-width:0.5;" d="M251.1,296.8c-2.8-2.8-1.7-5.5-1.7-5.5c0,0,2.8-1.2,5.6,1.6
						L251.1,296.8 M238.5,294.2l13.7-13.8c0.3-0.3,0.8-0.3,1.1,0.1c0.3,0.3,0.4,0.8,0.1,1.1l-13.7,13.8c-0.3,0.3-0.8,0.3-1.1-0.1
						C238.3,295,238.3,294.5,238.5,294.2L238.5,294.2z M240,295.1l13.1-13.2c0.3-0.3,0.8-0.2,1.1,0.1c0.3,0.3,0.4,0.8,0.1,1.1
						l-13.1,13.2c-0.3,0.3-0.8,0.2-1.1-0.1C239.8,295.9,239.8,295.4,240,295.1L240,295.1z M235.3,281.9l1-1l0.7,0.7l0.8-0.8
						l-0.8-0.8l1.1-1.1l0.8,0.7l0.8-0.8l-0.8-0.8l1.1-1.1l1.7,1.7c0.3,0.3,0.2,0.7,0,0.9l-3.7,3.8c-0.3,0.3-0.7,0.3-0.9,0
						L235.3,281.9L235.3,281.9L235.3,281.9z M241.5,280.2l5.7,5.2l-3.7,3.7l-5.3-5.7L241.5,280.2"/>
					<path id="a_4_" style="fill:#FFFF00;stroke:#000000;stroke-width:0.5;" d="M239.6,287.2l3.1,2.8l-3.5,3.5l-2.9-3L239.6,287.2
						L239.6,287.2L239.6,287.2z"/>
					<g>
						<path id="a_5_" style="fill:#FFFF00;stroke:#000000;stroke-width:0.5;" d="M248.5,278.2l3.1,2.8l-3.5,3.5l-2.9-3L248.5,278.2
							L248.5,278.2L248.5,278.2z"/>
					</g>
					<path id="b_4_" style="fill:#FFFF00;stroke:#000000;stroke-width:0.5;" d="M233.5,289l1-1l0.7,0.7l0.7-0.7l-0.8-0.8l1-1
						l0.8,0.8l0.7-0.7l-0.8-0.8l1-1l1.7,1.7c0.3,0.3,0.2,0.6,0,0.9l-3.7,3.7c-0.2,0.2-0.7,0.3-0.9,0L233.5,289L233.5,289L233.5,289z
						"/>
					<g>
						<path id="b_5_" style="fill:#FFFF00;stroke:#000000;stroke-width:0.5;" d="M242.5,280l1-1l0.7,0.7l0.7-0.7l-0.8-0.8l1-1
							l0.8,0.8l0.7-0.7l-0.8-0.8l1-1l1.7,1.7c0.3,0.3,0.2,0.7,0,0.9l-3.7,3.7c-0.2,0.2-0.7,0.3-0.9,0L242.5,280L242.5,280L242.5,280
							z"/>
					</g>
					<path d="M241.3,283.9c-0.6-0.5,0.2-1.3,0.7-0.7l1.3,1.3l-0.7,0.7L241.3,283.9"/>
					<path id="c_4_" d="M238.7,290.3c-0.5-0.5,0.2-1.2,0.7-0.7l1,1l-0.7,0.7L238.7,290.3"/>
					<g>
						<path id="c_5_" d="M247.7,281.2c-0.5-0.5,0.2-1.2,0.7-0.7l1,1l-0.7,0.7L247.7,281.2"/>
					</g>
				</g>
			</g>
		</g>
		<g>
			<g id="d_3_">
				<path style="fill:#FFFF00;" d="M283.1,185.3c0.2-6.6,4.9-8.2,4.9-8.2c0,0,5.1,1.7,5.1,8.3L283.1,185.3"/>
				<path style="fill:#FFFF00;stroke:#000000;stroke-width:0.5;" d="M279,177.2l-0.8,7.6l5,0c0-6.3,4.8-7.3,4.9-7.3
					c0.1,0,4.8,1.4,4.9,7.3h5l-0.9-7.7L279,177.2L279,177.2z M277.9,184.8h20.3c0.4,0,0.8,0.4,0.8,0.9c0,0.5-0.4,0.9-0.8,0.9h-20.3
					c-0.4,0-0.8-0.4-0.8-0.9S277.4,184.8,277.9,184.8L277.9,184.8z"/>
				<path style="fill:#FFFF00;stroke:#000000;stroke-width:0.5;" d="M285.3,184.8c0-4,2.7-5.1,2.7-5.1c0,0,2.8,1.2,2.8,5.1H285.3
					 M278.3,174h19.5c0.4,0,0.7,0.4,0.7,0.8c0,0.5-0.3,0.8-0.7,0.8h-19.5c-0.4,0-0.7-0.4-0.7-0.8C277.6,174.4,277.9,174,278.3,174
					L278.3,174z M278.7,175.7h18.6c0.4,0,0.7,0.4,0.7,0.8c0,0.5-0.3,0.8-0.7,0.8h-18.6c-0.4,0-0.7-0.4-0.7-0.8
					C278,176.1,278.3,175.7,278.7,175.7L278.7,175.7z M284.7,163l1.5,0v1h1.1V163l1.5,0v1.1h1.1V163h1.5l0,2.4
					c0,0.4-0.3,0.6-0.7,0.6h-5.3c-0.4,0-0.7-0.3-0.7-0.6L284.7,163L284.7,163L284.7,163z M290.3,166.2l0.3,7.7l-5.2,0l0.3-7.7
					L290.3,166.2"/>
				<path id="a_6_" style="fill:#FFFF00;stroke:#000000;stroke-width:0.5;" d="M284,169.8l0.2,4.2l-5,0l0.1-4.2H284L284,169.8
					L284,169.8z"/>
				<g>
					<path id="a_7_" style="fill:#FFFF00;stroke:#000000;stroke-width:0.5;" d="M296.7,169.8l0.2,4.2l-5,0l0.1-4.2H296.7
						L296.7,169.8L296.7,169.8z"/>
				</g>
				<path id="b_6_" style="fill:#FFFF00;stroke:#000000;stroke-width:0.5;" d="M278.4,166.8l1.4,0v1h1.1v-1.1l1.5,0v1.1h1.1v-1.1
					l1.5,0l0,2.4c0,0.4-0.3,0.6-0.6,0.6h-5.2c-0.3,0-0.7-0.3-0.7-0.6L278.4,166.8L278.4,166.8L278.4,166.8z"/>
				<g>
					<path id="b_7_" style="fill:#FFFF00;stroke:#000000;stroke-width:0.5;" d="M291.1,166.8l1.4,0v1h1.1v-1.1l1.5,0v1.1h1.1v-1.1
						l1.5,0l0,2.4c0,0.4-0.3,0.6-0.6,0.6h-5.2c-0.3,0-0.7-0.3-0.7-0.6L291.1,166.8L291.1,166.8L291.1,166.8z"/>
				</g>
				<path d="M287.5,168.7c0-0.8,1.1-0.8,1,0v1.8h-1V168.7"/>
				<path id="c_6_" d="M281.1,171.4c0-0.7,1-0.7,1,0v1.4h-1V171.4"/>
				<g>
					<path id="c_7_" d="M293.9,171.4c0-0.7,1-0.7,1,0v1.4h-1V171.4"/>
				</g>
			</g>
		</g>
		<g transform="matrix(-1 0 0 1 479.792 0)">
			<g id="e_1_">
				<g id="d_4_">
					<path style="fill:#FFFF00;" d="M347.5,185.3c-0.2-6.6-4.9-8.2-4.9-8.2c0,0-5.1,1.7-5.1,8.3L347.5,185.3"/>
					<path style="fill:#FFFF00;stroke:#000000;stroke-width:0.5;" d="M351.6,177.2l0.8,7.6l-5,0c0-6.3-4.8-7.3-4.9-7.3
						c-0.1,0-4.8,1.4-4.9,7.3h-5l0.9-7.7L351.6,177.2L351.6,177.2z M352.7,184.8h-20.3c-0.4,0-0.8,0.4-0.8,0.9
						c0,0.5,0.4,0.9,0.8,0.9h20.3c0.4,0,0.8-0.4,0.8-0.9S353.2,184.8,352.7,184.8L352.7,184.8z"/>
					<path style="fill:#FFFF00;stroke:#000000;stroke-width:0.5;" d="M345.3,184.8c0-4-2.7-5.1-2.7-5.1c0,0-2.8,1.2-2.8,5.1H345.3
						 M352.3,174h-19.5c-0.4,0-0.7,0.4-0.7,0.8c0,0.5,0.3,0.8,0.7,0.8h19.5c0.4,0,0.7-0.4,0.7-0.8C353,174.4,352.7,174,352.3,174
						L352.3,174z M351.9,175.7h-18.6c-0.4,0-0.7,0.4-0.7,0.8c0,0.5,0.3,0.8,0.7,0.8h18.6c0.4,0,0.7-0.4,0.7-0.8
						C352.6,176.1,352.3,175.7,351.9,175.7L351.9,175.7z M345.9,163l-1.5,0v1h-1.1V163l-1.5,0v1.1h-1.1V163h-1.5l0,2.4
						c0,0.4,0.3,0.6,0.7,0.6h5.3c0.4,0,0.7-0.3,0.7-0.6L345.9,163L345.9,163L345.9,163z M340.3,166.2L340,174l5.2,0l-0.3-7.7
						L340.3,166.2"/>
					<path id="a_8_" style="fill:#FFFF00;stroke:#000000;stroke-width:0.5;" d="M346.6,169.8l-0.2,4.2l5,0l-0.1-4.2H346.6
						L346.6,169.8L346.6,169.8z"/>
					<g>
						<path id="a_9_" style="fill:#FFFF00;stroke:#000000;stroke-width:0.5;" d="M333.9,169.8l-0.2,4.2l4.9,0l-0.1-4.2H333.9
							L333.9,169.8L333.9,169.8z"/>
					</g>
					<path id="b_8_" style="fill:#FFFF00;stroke:#000000;stroke-width:0.5;" d="M352.2,166.8l-1.4,0v1h-1.1v-1.1l-1.5,0v1.1h-1.1
						v-1.1l-1.5,0l0,2.4c0,0.4,0.3,0.6,0.6,0.6h5.2c0.3,0,0.7-0.3,0.7-0.6L352.2,166.8L352.2,166.8L352.2,166.8z"/>
					<g>
						<path id="b_9_" style="fill:#FFFF00;stroke:#000000;stroke-width:0.5;" d="M339.5,166.8l-1.4,0v1H337v-1.1l-1.5,0v1.1h-1.1
							v-1.1l-1.5,0l0,2.4c0,0.4,0.3,0.6,0.6,0.6h5.2c0.3,0,0.7-0.3,0.7-0.6L339.5,166.8L339.5,166.8L339.5,166.8z"/>
					</g>
					<path d="M343.1,168.7c0-0.8-1.1-0.8-1,0v1.8h1V168.7"/>
					<path id="c_8_" d="M349.5,171.4c0-0.7-1-0.7-1,0v1.4h1V171.4"/>
					<g>
						<path id="c_9_" d="M336.7,171.4c0-0.7-1-0.7-1,0v1.4h1V171.4"/>
					</g>
				</g>
				<g>
					<g id="d_5_">
						<path style="fill:#FFFF00;" d="M347.5,240.9c-0.2-6.6-4.9-8.2-4.9-8.2c0,0-5.1,1.7-5.1,8.3L347.5,240.9"/>
						<path style="fill:#FFFF00;stroke:#000000;stroke-width:0.5;" d="M351.6,232.8l0.8,7.6l-5,0c0-6.3-4.8-7.3-4.9-7.3
							c-0.1,0-4.8,1.4-4.9,7.3h-5l0.9-7.7L351.6,232.8L351.6,232.8z M352.7,240.4h-20.3c-0.4,0-0.8,0.4-0.8,0.9
							c0,0.5,0.4,0.9,0.8,0.9h20.3c0.4,0,0.8-0.4,0.8-0.9S353.2,240.4,352.7,240.4L352.7,240.4z"/>
						<path style="fill:#FFFF00;stroke:#000000;stroke-width:0.5;" d="M345.3,240.4c0-4-2.7-5.1-2.7-5.1c0,0-2.8,1.2-2.8,5.1H345.3
							 M352.3,229.6h-19.5c-0.4,0-0.7,0.4-0.7,0.8c0,0.5,0.3,0.8,0.7,0.8h19.5c0.4,0,0.7-0.4,0.7-0.8
							C353,230,352.7,229.6,352.3,229.6L352.3,229.6z M351.9,231.3h-18.6c-0.4,0-0.7,0.4-0.7,0.8c0,0.5,0.3,0.8,0.7,0.8h18.6
							c0.4,0,0.7-0.4,0.7-0.8C352.6,231.7,352.3,231.3,351.9,231.3L351.9,231.3z M345.9,218.6l-1.5,0v1h-1.1v-1.1l-1.5,0v1.1h-1.1
							v-1.1h-1.5l0,2.4c0,0.4,0.3,0.6,0.7,0.6h5.3c0.4,0,0.7-0.3,0.7-0.6L345.9,218.6L345.9,218.6L345.9,218.6z M340.3,221.8
							l-0.3,7.7l5.2,0l-0.3-7.7L340.3,221.8"/>
						<path id="a_10_" style="fill:#FFFF00;stroke:#000000;stroke-width:0.5;" d="M346.6,225.4l-0.2,4.2l5,0l-0.1-4.2H346.6
							L346.6,225.4L346.6,225.4z"/>
						<g>
							<path id="a_11_" style="fill:#FFFF00;stroke:#000000;stroke-width:0.5;" d="M333.9,225.4l-0.2,4.2l4.9,0l-0.1-4.2H333.9
								L333.9,225.4L333.9,225.4z"/>
						</g>
						<path id="b_10_" style="fill:#FFFF00;stroke:#000000;stroke-width:0.5;" d="M352.2,222.4l-1.4,0v1h-1.1v-1.1l-1.5,0v1.1h-1.1
							v-1.1l-1.5,0l0,2.4c0,0.4,0.3,0.6,0.6,0.6h5.2c0.3,0,0.7-0.3,0.7-0.6L352.2,222.4L352.2,222.4L352.2,222.4z"/>
						<g>
							<path id="b_11_" style="fill:#FFFF00;stroke:#000000;stroke-width:0.5;" d="M339.5,222.4l-1.4,0v1H337v-1.1l-1.5,0v1.1h-1.1
								v-1.1l-1.5,0l0,2.4c0,0.4,0.3,0.6,0.6,0.6h5.2c0.3,0,0.7-0.3,0.7-0.6L339.5,222.4L339.5,222.4L339.5,222.4z"/>
						</g>
						<path d="M343.1,224.3c0-0.8-1.1-0.8-1,0v1.8h1V224.3"/>
						<path id="c_10_" d="M349.5,227c0-0.7-1-0.7-1,0v1.4h1V227"/>
						<g>
							<path id="c_11_" d="M336.7,227c0-0.7-1-0.7-1,0v1.4h1V227"/>
						</g>
					</g>
				</g>
				<g transform="rotate(-45.202 312.766 180.004)">
					<g id="d_6_">
						<path style="fill:#FFFF00;" d="M325.8,298.7c4.6-4.8,2.4-9.2,2.4-9.3c0,0-4.8-2.4-9.4,2.2L325.8,298.7"/>
						<path style="fill:#FFFF00;stroke:#000000;stroke-width:0.5;" d="M334.4,295.9l-4.8,5.9l-3.5-3.5c4.4-4.5,1.9-8.6,1.8-8.6
							c-0.1-0.1-4.4-2.4-8.7,1.7l-3.5-3.5l6.1-4.8L334.4,295.9L334.4,295.9z M329.8,302.1l-14.3-14.4c-0.3-0.3-0.9-0.3-1.2,0.1
							c-0.4,0.4-0.4,0.9-0.1,1.2l14.3,14.4c0.3,0.3,0.8,0.3,1.2-0.1C330.1,303,330.1,302.4,329.8,302.1L329.8,302.1z"/>
						<path style="fill:#FFFF00;stroke:#000000;stroke-width:0.5;" d="M324.7,296.8c2.8-2.8,1.7-5.5,1.7-5.5c0,0-2.8-1.2-5.6,1.6
							L324.7,296.8 M337.2,294.2l-13.7-13.8c-0.3-0.3-0.8-0.3-1.1,0.1c-0.3,0.3-0.4,0.8-0.1,1.1l13.7,13.8c0.3,0.3,0.8,0.3,1.1-0.1
							C337.5,295,337.5,294.5,337.2,294.2L337.2,294.2z M335.7,295.1l-13.1-13.2c-0.3-0.3-0.8-0.2-1.1,0.1c-0.3,0.3-0.4,0.8-0.1,1.1
							l13.1,13.2c0.3,0.3,0.8,0.2,1.1-0.1C335.9,295.9,336,295.4,335.7,295.1L335.7,295.1z M340.5,281.9l-1-1l-0.7,0.7l-0.8-0.8
							l0.8-0.8l-1.1-1.1l-0.8,0.7l-0.8-0.8l0.8-0.8l-1.1-1.1l-1.7,1.7c-0.3,0.3-0.2,0.7,0,0.9l3.7,3.8c0.3,0.3,0.7,0.3,0.9,0
							L340.5,281.9L340.5,281.9L340.5,281.9z M334.3,280.2l-5.7,5.2l3.7,3.7l5.3-5.7L334.3,280.2"/>
						<path id="a_12_" style="fill:#FFFF00;stroke:#000000;stroke-width:0.5;" d="M336.2,287.2l-3.1,2.8l3.5,3.5l2.9-3L336.2,287.2
							L336.2,287.2L336.2,287.2z"/>
						<g>
							<path id="a_13_" style="fill:#FFFF00;stroke:#000000;stroke-width:0.5;" d="M327.2,278.2l-3.1,2.8l3.5,3.5l2.9-3L327.2,278.2
								L327.2,278.2L327.2,278.2z"/>
						</g>
						<path id="b_12_" style="fill:#FFFF00;stroke:#000000;stroke-width:0.5;" d="M342.2,289l-1-1l-0.7,0.7l-0.7-0.7l0.8-0.8l-1-1
							l-0.8,0.8l-0.7-0.7l0.8-0.8l-1-1l-1.7,1.7c-0.3,0.3-0.2,0.6,0,0.9l3.7,3.7c0.2,0.2,0.7,0.3,0.9,0L342.2,289L342.2,289
							L342.2,289z"/>
						<g>
							<path id="b_13_" style="fill:#FFFF00;stroke:#000000;stroke-width:0.5;" d="M333.3,280l-1-1l-0.7,0.7l-0.7-0.7l0.8-0.8l-1-1
								l-0.8,0.8l-0.7-0.7l0.8-0.8l-1-1l-1.7,1.7c-0.3,0.3-0.2,0.7,0,0.9l3.7,3.7c0.2,0.2,0.7,0.3,0.9,0L333.3,280L333.3,280
								L333.3,280z"/>
						</g>
						<path d="M334.5,283.9c0.6-0.5-0.2-1.3-0.7-0.7l-1.3,1.3l0.7,0.7L334.5,283.9"/>
						<path id="c_12_" d="M337.1,290.3c0.5-0.5-0.2-1.2-0.7-0.7l-1,1l0.7,0.7L337.1,290.3"/>
						<g>
							<path id="c_13_" d="M328.1,281.2c0.5-0.5-0.2-1.2-0.7-0.7l-1,1l0.7,0.7L328.1,281.2"/>
						</g>
					</g>
				</g>
			</g>
		</g>
		<g id="f">
			<path style="fill:#003399;" d="M279.2,242.9L279.2,242.9c0,2.7,1,5.1,2.7,6.8c1.6,1.8,3.9,2.9,6.4,2.9c2.5,0,4.7-1.1,6.4-2.8
				c1.6-1.8,2.6-4.2,2.6-6.8v-12.9l-18,0L279.2,242.9"/>
			<circle style="fill:#FFFFFF;" cx="283.3" cy="234.8" r="1.8"/>
			<circle style="fill:#FFFFFF;" cx="293.3" cy="234.9" r="1.8"/>
			<circle style="fill:#FFFFFF;" cx="288.3" cy="239.6" r="1.8"/>
			<circle style="fill:#FFFFFF;" cx="283.3" cy="244.7" r="1.8"/>
			<circle style="fill:#FFFFFF;" cx="293.3" cy="244.7" r="1.8"/>
		</g>
		<g>
			<g id="f_1_">
				<path style="fill:#003399;" d="M279.2,211.6L279.2,211.6c0,2.7,1,5.1,2.7,6.8c1.6,1.8,3.9,2.9,6.4,2.9c2.5,0,4.7-1.1,6.4-2.8
					c1.6-1.8,2.6-4.2,2.6-6.8v-12.9l-18,0L279.2,211.6"/>
				<circle style="fill:#FFFFFF;" cx="283.3" cy="203.6" r="1.8"/>
				<circle style="fill:#FFFFFF;" cx="293.3" cy="203.6" r="1.8"/>
				<circle style="fill:#FFFFFF;" cx="288.3" cy="208.4" r="1.8"/>
				<circle style="fill:#FFFFFF;" cx="283.3" cy="213.4" r="1.8"/>
				<circle style="fill:#FFFFFF;" cx="293.3" cy="213.4" r="1.8"/>
			</g>
		</g>
		<g>
			<g id="f_2_">
				<path style="fill:#003399;" d="M254.2,242.9L254.2,242.9c0,2.7,1,5.1,2.7,6.8c1.6,1.8,3.9,2.9,6.4,2.9c2.5,0,4.7-1.1,6.4-2.8
					c1.6-1.8,2.6-4.2,2.6-6.8v-12.9l-18,0L254.2,242.9"/>
				<circle style="fill:#FFFFFF;" cx="258.3" cy="234.8" r="1.8"/>
				<circle style="fill:#FFFFFF;" cx="268.3" cy="234.9" r="1.8"/>
				<circle style="fill:#FFFFFF;" cx="263.3" cy="239.6" r="1.8"/>
				<circle style="fill:#FFFFFF;" cx="258.3" cy="244.7" r="1.8"/>
				<circle style="fill:#FFFFFF;" cx="268.3" cy="244.7" r="1.8"/>
			</g>
		</g>
		<g>
			<g id="f_3_">
				<path style="fill:#003399;" d="M304.1,242.9L304.1,242.9c0,2.7,1,5.1,2.7,6.8c1.6,1.8,3.9,2.9,6.4,2.9c2.5,0,4.7-1.1,6.4-2.8
					c1.6-1.8,2.6-4.2,2.6-6.8v-12.9l-18,0L304.1,242.9"/>
				<circle style="fill:#FFFFFF;" cx="308.2" cy="234.8" r="1.8"/>
				<circle style="fill:#FFFFFF;" cx="318.2" cy="234.9" r="1.8"/>
				<circle style="fill:#FFFFFF;" cx="313.2" cy="239.6" r="1.8"/>
				<circle style="fill:#FFFFFF;" cx="308.2" cy="244.7" r="1.8"/>
				<circle style="fill:#FFFFFF;" cx="318.2" cy="244.7" r="1.8"/>
			</g>
		</g>
		<g>
			<g id="f_4_">
				<path style="fill:#003399;" d="M279.2,273.8L279.2,273.8c0,2.7,1,5.1,2.7,6.8c1.6,1.8,3.9,2.9,6.4,2.9c2.5,0,4.7-1.1,6.4-2.8
					c1.6-1.8,2.6-4.2,2.6-6.8v-12.9l-18,0L279.2,273.8"/>
				<circle style="fill:#FFFFFF;" cx="283.3" cy="265.8" r="1.8"/>
				<circle style="fill:#FFFFFF;" cx="293.3" cy="265.8" r="1.8"/>
				<circle style="fill:#FFFFFF;" cx="288.3" cy="270.6" r="1.8"/>
				<circle style="fill:#FFFFFF;" cx="283.3" cy="275.6" r="1.8"/>
				<circle style="fill:#FFFFFF;" cx="293.3" cy="275.6" r="1.8"/>
			</g>
		</g>
	</g>
</g>
</svg>
