<?xml version="1.0" encoding="utf-8"?>
<!-- Generator: Adobe Illustrator 25.2.1, SVG Export Plug-In . SVG Version: 6.00 Build 0)  -->
<svg version="1.1" id="Layer_1" xmlns="http://www.w3.org/2000/svg" xmlns:xlink="http://www.w3.org/1999/xlink" x="0px" y="0px"
	 viewBox="0 0 720 480" style="enable-background:new 0 0 720 480;" xml:space="preserve">
<g>
	<path style="fill:#006C35;" d="M720,480V0H0v480H720z"/>
	<path style="fill:#FFFFFF;" d="M509.5,128.5c4.1-2.9,7.9-6.2,12.4-8.5c-1.3,5.2-5.2,9.2-9.2,12.5c-2,1.6-1.1,4.5-1.4,6.7
		c-1.1-0.3-2.2-0.5-3.2-0.9c1,13.2,2.5,26.4,3.2,39.6c0.1,1.5,0.2,3.1,1.5,4.1c6.1,5.5,12.4,10.8,16.9,17.8c1.8,2.7,2.7,5.8,3.6,8.9
		c1-5.1,1.1-10.4,0.5-15.6c-2.2-20.1-4.2-40.2-6-60.5c-0.2-2.5-0.6-5-0.3-7.5c0.3-2.4,2.4-4.2,4.8-4.1c1.3,1.2,2.3,2.7,2.9,4.3
		c1.9,4.1,3.5,8.6,3.1,13.3c-1.1-0.4-2.2-0.8-3.4-1.2c1.7,13.7,3.3,27.3,4.4,41.1c0.5,9.3,1.9,18.6-0.1,27.8
		c-1.7,8.5-5.8,17-13.2,21.9c-6.2,4.1-13.4,6.3-20.7,7.8c-2.9,0.7-6,0.8-8.9,0.1c3.1-1.7,6.5-2.9,9.7-4.3c4.7-1.9,9.2-4.3,13.5-7.1
		c4-2.6,8.2-5.3,11.1-9.2c-3.7-9.9-9.8-19.1-18.5-25.2c0.3,9.7,0.7,19.6-0.7,29.2c-0.3,2.2-1.3,4.3-2.9,5.9c-1-4.1-1.1-8.3-1.6-12.4
		c-0.8-9-1.6-18-2.2-27.1c0-1.9-1.2-3.3-2.6-4.3c-5.5-4.6-10.6-9.7-15.8-14.5c0.2,5.6,1,11,1.4,16.5c0.6,7.4,0.7,14.8,1.5,22.2
		c0.5,5.2,0.6,10.7-1.4,15.6c-1.9,4.7-6.3,8.6-11.5,9c-2.8,0.2-5.5,0.1-8.2-0.4c-2.9-0.4-5.1-2.6-6.4-5.1c-1.6-3-2.4-6.3-3.7-9.4
		c-2.4,0.5-4.9,1.1-6.7,2.9c-3.7,3.5-4.8,8.9-6.6,13.5c-1,2.7-2.2,5.7-4.9,7.2c-2.8,1.6-6.2,1-8.9-0.5c-4.1-2.2-6.6-6.4-7.8-10.8
		c-1.2-3.3,0.5-7.2-1.6-10.4c-1.5-2.9-0.6-6.3,0.1-9.3c1.6-5.4,4.9-10,8.9-13.8l-15.8-13.7c0.5,12.7,1.5,25.4-0.2,38
		c-0.2,2.5-1.3,4.9-3.1,6.8c-0.6-2.4-0.9-4.9-1.1-7.3c-1.3-13.9-2.4-27.9-3.3-41.8c-0.1-1.6-0.4-3.3-1.7-4.4
		c-5.4-5.1-10.6-10.6-15.4-16.3c-2.8-3.5-5.7-7.1-7.1-11.4c-0.6-1.8-1-4.2,0.6-5.6c1.9,0.3,3.7,0.9,5.4,1.9c3.1,1.8,6,4.1,8.4,6.7
		c1,1.2,1.8,2.6,2.1,4.1c-1.6,0-3.1-0.1-4.6-0.1c3.1,4.5,6.9,8.6,11.1,12.2c-0.4-11.8-1.7-23.7-2.2-35.5c0-1.6,0-3.3,1.1-4.7
		c1-1.1,2.6-1.6,4-2.1c2.6,3.8,4.5,8,5.6,12.5c0.4,1.8,0.5,3.6,0.3,5.5c-1.1-0.3-2.2-0.6-3.2-1c0.7,9.6,1.8,19.1,2.4,28.7
		c0,1.4,0.2,2.7,0.6,4.1c0.6,0.9,1.3,1.6,2.1,2.3c6.6,5.6,13.2,11.1,19.8,16.5c4-3.4,7.9-7,11.9-10.3c0.9-0.7,1.8-1.5,2.6-2.4
		c0.7-0.8,0.5-1.9,0.5-2.9c-1.3-11.5-2.2-23.1-3.2-34.6c-0.3-4.2-0.9-8.4-0.9-12.5c-0.1-2.5,1.9-4.9,4.4-5c1.1-0.1,1.6,1.1,2.1,1.9
		c1.9,3.3,3.2,6.8,4.1,10.5c0.4,1.8,0.4,3.7-0.1,5.5c-1-0.4-2.1-1-3.2-1.4c1.4,10.8,2.5,21.7,3.5,32.5c2.9-2.1,5.5-4.6,8.2-6.9
		c3-2.6,6.1-5,9-7.8c-3.4-3.7-7-7.1-10.6-10.8c-2.2-2.3-4.9-4.5-5.8-7.8c-0.7-2.3-0.3-4.8,0.2-7c4.2,0.7,7.8,3.2,11.1,5.6
		c2.3,1.8,4.4,3.7,6.4,5.8c-0.2-4.6-0.7-9.2-1.1-13.7c0-1.8-0.2-3.7,1-5.1c1-1.1,2.6-1.6,3.9-2.2c2.6,3.6,4.4,7.7,5.5,12
		c0.5,1.9,0.6,3.9,0.5,5.8c-1.1-0.3-2.3-0.5-3.4-0.8c0.4,3.5,0.7,7,1.2,10.5c4.4-3.3,8.3-7,12.7-10.2c1.5-1.4,4.2-2.5,4.2-4.9
		c0.1-2.6-0.5-5.4-0.1-8c0.4-2.4,2.4-4.1,4.8-4C507.5,123.5,508.3,126.2,509.5,128.5L509.5,128.5z M486.9,153.9
		c-0.7,0.8-2.1,1.5-2,2.8c0.6,1.1,1.7,2,2.6,3c5.4,4.8,10.5,10,16.1,14.4c-0.2-5.2-0.7-10.3-1-15.5c-0.5-5.5-0.6-10.9-1.2-16.4
		C496.4,145.8,491.8,150.1,486.9,153.9z M473.3,144.3c1.2,1.3,2.3,2.6,3.5,4c0-1.3-0.1-2.6-0.1-4H473.3z M460.3,176.5
		c-0.9,0.8-2,1.7-1.9,3c-0.1,6.7,0.6,13.6-1,20.1c-0.4,1.7-1.6,2.8-2.8,3.9c-1.5-6.4-1.6-13-2.7-19.6c-4,3.2-7.8,6.6-11.5,10
		c2.1,2.4,4.3,4.9,5,8.2c1.3,4.6-0.3,9.6-3.9,12.7c-4.5,3.8-10.7,4.4-16.3,5.1c0.8,3.7,1.6,7.6,3.8,10.8c1.4,1.9,3.6,3.6,6,2.9
		c2.6-0.7,4.2-3.2,5.1-5.5c1.8-4.7,4-9.2,6.7-13.5c2.2-3.5,5.8-6.4,10.1-6.5c1.4,0.1,3.2-0.4,4.1,1.1c1.9,3.1,2.5,6.8,4.8,9.7
		c3.9,5.1,12.1,5.2,16.8,1c1.6-1.4,1.6-3.7,1.4-5.6c-2.1-17.5-3.7-35.3-5.6-52.8C472.2,166.4,466.4,171.5,460.3,176.5L460.3,176.5z
		 M427.6,206.5c-1,1.4-1.7,3-2,4.7c4.2,0.4,8.4-0.4,12-2.6c1.1-0.7,2.4-1.9,2.1-3.3c-0.3-3-2.8-5.1-5-6.9
		C432.2,200.9,429.8,203.6,427.6,206.5L427.6,206.5z M253.6,121c1.1-0.7,2.1,0.5,2.9,1.3c2.2,2.7,4.6,5.5,5.9,8.8
		c-1.1,0.2-2.3,0.4-3.4,0.5c0.3,5.3,4.7,8.9,6,13.9c0.9,3.1,1,6.4,0.4,9.5c-0.9,4.4-4.4,7.8-8.8,8.6c-5.1,0.9-10.8-0.4-14.6-4.1
		c-2.5-2.5-3.4-6-4.5-9.2c-1.2,4.3-3,8.5-6,11.8c-1.8,1.9-4,3.5-6.4,4.7c0.6,11.8,1.9,23.6,0.8,35.3c-0.4,3.3-0.6,7.3-3.6,9.5
		c-1.1-4.7-1.3-9.5-1.9-14.4c-1-9.8-1.8-19.6-2.8-29.3c-2.9-0.7-6-1.3-8.2-3.4c-3.7-3.3-4.9-8.5-4.6-13.3c0.1-3.7,1.3-7.3,2.1-10.9
		c-1.4,1.4-2.5,3.1-3.2,4.9c-1.9,5.9-3.2,12.1-5.9,17.7c-1,2.3-3,4-5.4,4.6c-3,0.6-6.5,0.4-8.8-1.9c-2.5-2.5-3.1-6.2-3.4-9.5
		c-0.2-3.4-0.5-7.1,1.1-10.3c0.9-1.9,2.9-3,4.5-4c-1.1,1.9-2.4,3.7-2.7,5.8c-0.4,3,0.2,6.1,0.7,9c0.4,1.8,0.7,3.7,2.1,4.9
		c2.3,1.9,5.6,1.8,7.8-0.2c1-1.3,1.8-2.8,2.2-4.3c1.9-5.6,3.3-11.5,5.7-16.9c2-4.6,5.7-9.1,10.8-10c-0.6,6.3-3.4,12.1-3.6,18.4
		c-0.1,2.8,0.2,5.9,2,8.1c1.4,1.9,3.7,2.5,5.8,3.1c-0.6-8.5-1.4-17.1-1.9-25.7c-0.2-3.2-0.7-6.4-0.2-9.6c0.5-2.2,2.9-3,4.7-3.7
		c3.5,5.2,6.1,11.4,6,17.7c-1.2-0.3-2.3-0.5-3.5-0.8c0.7,7.3,1.5,14.7,2.3,22c3.1-0.9,5.8-2.9,7.6-5.6c3.6-5.2,4.2-12,2.4-18
		c-0.7-2.6-1.9-4.9-2.5-7.6c-0.6-2.5,1.2-5,3.4-5.8c1-0.4,1.5,0.8,1.9,1.5c1.4,3,1.9,6.3,2.5,9.6c0.8,4.3,0,8.8,1.6,13
		c1.2,3.6,3.7,6.7,6.9,8.6c2.7,1.4,5.9,1.9,8.9,1.3c1.5-0.3,2.7-1.5,3.1-3c0.7-2.8-0.3-5.7-1.5-8.3c-2.8-5.8-6.2-11.4-7.5-17.7
		C250.6,125.6,251.2,122.4,253.6,121L253.6,121z"/>
	<path style="fill:#FFFFFF;" d="M380.8,127.8c1.8-3,4.5-5.3,7.7-6.8c-0.9,2.1-2,4.1-3.3,6c-0.9,1.4-0.9,3.2-1,4.8
		c2.1-0.1,4.2-0.4,6.3-1c-0.6,1.7-1.1,3.4-2.7,4.5c-1.8,1.2-4.4,2-6.2,0.5C379.6,133.5,379.3,130.3,380.8,127.8z M265.9,123.9
		c0.9-1.4,2.7-1.9,4.1-2.6c2.8,3.8,4.7,8.1,5.7,12.7c0.4,1.7,0.4,3.5,0.1,5.3c-1-0.4-2.1-0.7-3.2-1.1c1.2,8.5,2.7,17,3.7,25.6
		c4.9-2.4,9.5-5.3,14.5-7.4c1.6-0.7,3.3-1.1,5-1.2c-0.6,1.4-1.4,2.8-2.9,3.4c-5.4,2.7-10.8,5.1-16.1,8.1c0.5,4.2,0.9,8.5,1.5,12.8
		c2.4-3.1,4.5-7,8.7-7.9c0.2,2.3-0.6,5,1.1,6.9c2.6,2,6.1,0.8,8.5-1.1c-0.2-3.3,0.7-6.6,1.4-9.9c1,0.4,2.3,0.6,2.7,1.9
		c1.1,3.1,0.8,6.5,0,9.6c-0.8,3.5-3.7,6.2-6.9,7.8c-1.9,1-4.4,1.5-6.5,0.6c-2.2-0.9-3.6-3-5.1-4.8c-1.3,3.2-3.4,6.1-3.5,9.7
		c-0.5,7.6-3.2,14.8-7.9,20.8c-7.9,10.3-19.9,16.5-32.2,20.1c-7,1.9-14.4,3.7-21.8,3.3c-4,0-8-1.1-11.5-3.1c-1.5-1-2.8-2.3-4.3-3.2
		c-1.9-0.4-3.8,0.2-5.7,0.2c-4.6,0.2-9.3,0.4-13.8-0.4c5.6-1.9,11.2-3.3,16.7-5.3c-1.5-10,0.5-20.2,5.6-28.9c1.4-2.2,3.1-4.3,5-6.1
		c-1.6,3.2-3.5,6.3-4.4,9.8c-2,7.4-1.8,15.2,0.4,22.6c3.8-1.2,7.5-2.9,11.1-4.5c8.4-3.7,16.7-7.7,24.4-12.8c2.9-2,5.8-4.1,7.8-7.2
		c0.9-1.5,0.7-3.3,0.7-4.9c-4,0.8-7.9,2.6-12,2.6c-2.6-0.2-5.4-0.7-7.2-2.7s-1.9-4.9-1.6-7.5c0.5-3.4,2.1-6.6,4.7-8.9
		c3.1-2.6,7.6-2.5,11.1-0.9c3.4,1.6,5.4,4.9,7,8.1c5.2-1.9,8.7-6.5,13.8-8.7c0.2,2.6-0.1,5.7,1.9,7.8c1.2,1.5,3.2,1.4,4.9,1.6
		c-0.3-4.2-0.9-8.4-1.5-12.5c-1.8-13.8-3.5-27.8-5-41.7C265.2,127.7,264.9,125.6,265.9,123.9L265.9,123.9z M234.3,184.1
		c-0.5,1,0.6,1.6,1.4,1.9c2.8,1,5.8,0.4,8.7-0.2c-1.5-1.6-3.2-3.3-5.7-3.4C237.1,182.3,234.9,182.4,234.3,184.1L234.3,184.1z
		 M254.5,189.8c0.2,2.8,0.3,5.6-0.6,8.3c-1.5,4.5-4.9,8.1-8.4,11.1c-6.8,5.6-14.7,9.2-22.4,13.2c-3.5,2-7.1,3.7-10.8,5.2
		c4.7,0.4,9.5-0.4,14.1-0.8c7.1-0.4,14-2.5,20.6-5.1c6.9-2.8,13.5-6.4,18.9-11.7c3.3-3.2,5.8-7.2,6.9-11.6c0.4-2.2,0.7-4.5,0.6-6.8
		c-2.8-0.1-5.7,0-8.2-1.4c-2-1.1-3.2-3.3-4.4-5.3C258.7,186.7,256.7,188.3,254.5,189.8L254.5,189.8z M329.8,123.6
		c1-1.1,2.9-1,4.1-0.2c2.7,1.8,4.2,4.9,4.1,8.2c-0.2,1.4-0.6,2.8-1.2,4.1c-0.4-2-0.3-4.1-1.2-6c-1.4-1.9-4-2.3-5.7-3.9
		C329.2,125.4,328.9,124.1,329.8,123.6z"/>
	<path style="fill:#FFFFFF;" d="M367.8,124.7c0.2-1.2,1.4-2.6,2.7-1.9c3.6,1.8,6.2,5.1,7.9,8.7c-1.3,0-2.6-0.1-3.8-0.2
		c0.6,2.5,1.4,4.9,2.3,7.2c1.4,3.3,3.3,6.5,3.9,10.2c0.6,4.1-0.1,8.6-3,11.7c-5.4,6-16.1,4.9-20.8-1.5c-1.8-2.3-2.7-4.9-3.6-7.7
		c-1.5,5.8-4.6,11.5-9.9,14.5c-5.5,3.2-12.3,2.9-17.6-0.6c-3.2-2-5.2-5.5-5.3-9.3c-0.4-5.5,1.8-10.6,2.5-15.9
		c-1.4,1.3-2.4,2.9-3.1,4.7c-2.2,5.9-3.1,12.3-6.3,17.8c-1.5,2.6-4,5-7.1,5.3c-3.1,0.2-6.4-1-8.2-3.6c-1.6-2.5-1.9-5.5-1.9-8.4
		c0.1-4.4,1.1-8.8,3.2-12.8c0,5.6-1.7,11.6,1.1,16.8c1.4,2.9,5.1,4.6,8,3c2.6-1.6,3.8-4.6,4.7-7.3c1.9-5.8,4-11.7,6.9-17.2
		c1.2-2.2,2.5-4.5,4.5-6.1c1-0.9,2.5-0.9,3.8-1.1c0.3,4.9-2.5,9.3-3.4,14c-0.9,4.1-1.2,9.1,1.8,12.5c3.3,3.6,8.9,4.5,13.5,3.3
		c6.4-2,11-8.5,11.3-15.2c0.2-4,0.4-8.3-1.8-11.8c-0.9-1.9-2.7-3.8-1.9-6.1c0.5-2.2,2-4.1,4.1-5.1c1.5,2.2,2.5,4.6,2.9,7.2
		c0.7,6.1,0.8,12.3,3,18.2c1.3,3.3,3.2,6.8,6.7,8.4c3.2,1.5,7,1.9,10.1,0.3c1.9-1,2.4-3.3,1.9-5.3c-1.3-6.3-5.7-11.4-7.7-17.5
		C368,131,367.1,127.8,367.8,124.7L367.8,124.7z M430,123.3c1.9-0.9,4.7-0.2,5.7,1.9c0.3,0.9-0.2,1.9-1,2.4
		c-1.3-0.4-2.6-0.9-3.8-1.5c-1.6,3-2.4,6.3-3.3,9.7c-0.6-1.6-1.3-3.2-2.2-4.7c-1.3-1.8-3.3-2.6-4.8-4.2c-0.5-1.4,1.2-3,2.6-2.6
		c2,0.6,3.2,2.5,4.4,4.1C428.1,126.6,428.4,124.4,430,123.3L430,123.3z M180.8,130.8c1.6-3.3,4.6-5.8,8-7.4
		c-0.8,2.2-2.2,4.1-3.3,6.1c-0.9,1.4-0.8,3.2-0.9,4.8c2.2-0.2,4.3-0.6,6.4-1.3c-0.6,1.7-1.3,3.5-2.9,4.7c-1.7,1.2-4.2,1.9-5.9,0.7
		C180.1,136.5,179.7,133.2,180.8,130.8L180.8,130.8z"/>
	<path style="fill:#FFFFFF;" d="M299.3,126.3c0.6-2.9,4.9-2.8,6.3-0.6c0.9,1.6,1.4,3.3,2.3,4.8c0.8,1.6,1.9,3.3,1.3,5.1
		c-0.8,2.9-3,5.2-3.2,8.3c1-0.4,2-1,3.1-1.5c-0.3,1.6,0,3.7-1.7,4.6c-2,1-4.5-1-4.4-3.2c0.3-4,4.2-7.1,3-11.3
		c-3.9,5.2-9.3,9.9-15.8,10.8c2.9-2.3,6.1-3.9,8.7-6.5c1.6-1.7,2.9-3.5,3.9-5.6C301.3,129.9,298.9,128.5,299.3,126.3L299.3,126.3z
		 M302,126c0.6,0.9,1.4,1.7,2.4,2.3C304,127.2,303.1,126.3,302,126z M278.7,128.1c1.4-0.4,3.1-0.9,4.2,0.4c3.4,3.2,4.8,7.9,3.8,12.4
		c-0.7-1.7-1.3-3.4-2.1-5C283.2,132.9,280.1,131.1,278.7,128.1L278.7,128.1z M248.9,130c1.4,1.4,2,3.4,1.8,5.4
		c-2.2,0.4-4.4,1-6.7,1.5c-1.2,0.3-2.5-0.5-2.8-1.7c0,0,0,0,0,0c0-1.3,0.3-2.6,0.6-3.9c0.5,1.3,0.9,2.6,1.4,4.1
		c0.6-0.3,1.2-0.4,1.8-0.7v-3.6h1.3c0.2,1.1,0.4,2.2,0.6,3.3c0.7-0.1,1.4-0.2,2.1-0.3C248.9,132.6,248.9,131.3,248.9,130L248.9,130z
		 M437.1,132.9c1.8-0.5,3.7-0.7,5.6-0.7c-0.9,1.1-2,2-3.2,2.6c-6.4,2.6-13,4.4-19.1,7.7c0.6,1.1,1.1,2.2,1.7,3.3
		c-1.5-0.3-3.2-0.3-4.4-1.5c-1-0.9-1.1-2.5-0.1-3.5c0.1-0.1,0.1-0.1,0.2-0.2c1-0.7,2.2-1.3,3.3-1.8
		C426.3,136.8,431.6,134.6,437.1,132.9L437.1,132.9z M340.3,137.5c0.7-0.6,1.5-1.1,2.3-1.5c-0.1,2.4,0.7,4.5,1.8,6.6
		c1,2.1,0.2,5.1-2.3,5.6c-2.1,0.7-4.1-0.6-5.6-1.9c-1.2,1.1-2.5,2.5-4.3,2.2c-3.2-0.2-4.8-4-4.2-6.8c0.3-1.9,1.8-3,3.1-4.1
		c-0.2,1.9-0.9,3.9-0.5,5.8c0.4,1.3,1.9,1.3,3.1,1.8c0.4-2.1,0.5-4.3,1-6.5c0.2-1.1,1.6-1.2,2.3-1.8c0.2,1.9,0.1,3.7,0.6,5.5
		c0.5,1.3,2,1.8,3.1,2.4C341.4,142.2,340.3,139.8,340.3,137.5L340.3,137.5z M244.1,140.8c1.4,0,3.1-0.3,4.2,0.9
		c3.3,3.2,4.6,7.8,3.5,12.3c-1.1-2.9-2-6.1-4.4-8.3C245.8,144.3,244.4,142.8,244.1,140.8L244.1,140.8z M435.9,151.9
		c0.7-0.7,1.5-1.4,2.3-1.9c0.1,2.2,0.7,4.3,1.7,6.2c0.9,1.9,0.9,5-1.4,5.9c-2.1,1-4.4-0.2-6.1-1.4c-1.4,1.1-3.1,2.4-5,1.9
		c-2.9-0.6-4.1-4-3.6-6.6c0.2-1.9,1.9-3.2,3.2-4.4c-0.3,2-1.1,4.1-0.6,6.1c0.5,1.3,2,1.1,3.2,1.3c0.4-2.3,0.2-4.7,1.1-6.8
		c0.7-0.5,1.5-0.9,2.3-1.2c0.1,2-0.3,4.2,0.7,6.1c0.6,1.1,2,1.2,3.2,1.6C436.7,156.3,436.1,154.1,435.9,151.9L435.9,151.9z
		 M512.9,155.1c-0.4-1.1,0.2-2.3,1.2-2.7c0.3-0.1,0.5-0.1,0.8-0.1c2.3,0,4.1,1.9,5.2,3.8c1.9,3.8,2.9,8.4,1.3,12.4
		c-0.8-3.6-0.7-8.2-4.1-10.6C515.8,157,514.1,156.5,512.9,155.1L512.9,155.1z M384.9,163c1.1-1.1,2.7-1.5,4.2-1.1
		c1.9,1.8,1.5,4.9,0,6.8c-2.7,3.5-7.1,5.2-11.5,5.2c2.7-1.6,5.7-2.5,8.2-4.5c1.1-0.8,0.9-2.3,1.1-3.5c-1.3,0.2-2.6,0.4-3.8,0.6
		C383.5,165.2,384.2,164.1,384.9,163L384.9,163z M447.2,165.7c0.8-0.2,1.9-0.7,2.5,0.2c-0.6,2.1-2.9,3-4.6,3.9
		c-6.7,3.1-13.2,6.5-19.7,9.9c-0.3-0.6-0.6-1.1-0.9-1.8c3.7-2.7,7.8-4.8,11.8-7C439.9,169.1,443.4,167.1,447.2,165.7L447.2,165.7z
		 M321.6,170.9c0.2-1.3,1.1-2.3,1.9-3.3c5.1,5.6,9.5,12,11.8,19.3c2.2,7,2.8,14.3,4.2,21.4c0.7,3.6,1.4,7.4,3.8,10.3
		c1.6,2,3.9,3.3,6.1,4.5c0.5-2.3,1-4.8,3.1-6.1c6.5-4.3,14-7,21.4-9.3c-6-0.2-12.1,0-18.2-0.1c-4.9-0.1-9.8,0.4-14.6-0.5
		c0.2-1.9,0.2-3.8,1.3-5.5c2.2-3.7,6.1-5.8,9.8-7.8c5.6-3,11.4-5.4,17.5-7.1c-1.6-1.7-4-3.5-3.3-6.3c1.1-3.2,3.9-6.3,7.4-6.3
		c3.9,0,7.7,1.6,11,3.5c2,1.3,4.5,2.7,5.3,5.2c-0.2,1.7-0.9,3.4-2,4.8c-2.1,2.6-5.9,2.5-9.1,2.8c-0.2,2.1-0.5,4.7-2.6,5.6
		c-0.6-1.7-1.3-3.3-2-4.9c-7.7,1.4-14.5,5.4-20.6,10.1c17,0.1,34-0.4,51.1-0.3c1.1,0.1,2.2,0.2,3.3,0.4c-0.7,4.5-5.3,6.7-9.3,7.7
		c-8.1,1.8-16.1,3.3-24.2,4.9c-6,1.2-12.1,2.6-17.6,5.4c-2,1.1-3.8,2.6-5.1,4.5c4,1.4,8.1,2.5,12.3,3.2c1.4,0.4,3.3,0.6,3.7,2.3
		c0.6,2.2,0.6,5.3-1.5,6.7c-2.7,0.6-5.5,0-8.2-0.4c-7.4-1.1-14.5-5-18.8-11.4c-3.2-4.6-4.2-10.3-5-15.8c-2,3.1-4.4,5.9-7,8.5
		c-7.2,6.8-15.9,11.7-25,15.7c-3.2,1.4-7.1,1.9-10.3-0.1c-2.2-1.3-3.1-4.1-4-6.3c-8.4,4.3-17,8.5-26.4,10.2
		c-5.7,1.2-11.6,1.7-17.4,1.8c3.1-1.5,6.2-2.6,9.3-3.9c10.2-4.2,20.2-9,30-14.1c1.2-0.7,2.7-1.3,3.5-2.5c0.9-2.6,1-5.3,2.4-7.8
		c1.5-2.9,3.8-5.4,6.6-7.1c-1.8,3.9-3.6,7.8-4.2,12.1c6-3.5,11.6-7.8,16.6-12.6c1.3-1.4,3.2-3.2,2.4-5.3c-0.9-3-2.5-5.6-3.6-8.5
		c-1.7-4.2-3.7-8.6-3.2-13.3c0.1-1.5,1.2-2.6,1.9-3.8c4.1,2.6,6.7,7,9,11.1c-0.8,0.2-1.8,0.4-2.6,0.5c1.6,4.3,4.2,8.2,4.9,12.8
		c0.7,3.6-0.4,7.3-2.8,10c-6.3,6.8-14.1,11.9-21.4,17.5c1.3,0.7,2.7,1.7,4.3,1.6c3.1-0.1,6-1.1,8.8-2.3c10.2-4.5,18.5-12,27.1-18.9
		c-2.1-8.3-5.9-16-9.9-23.6C322,177.4,321.3,174.2,321.6,170.9L321.6,170.9z M370.8,181.9c1,1.4,2.4,2.5,4.1,3.2
		c2.5,0.5,4.9-1,6.8-2.6c-2.3-1.8-5-3.2-8-3.2C372.3,179.3,370.8,180.5,370.8,181.9L370.8,181.9z M194.1,170.9c0-1.2,1-2.1,2.1-2.1
		c3.2-0.4,5.4,2.2,7.3,4.2c1,1.1,1.9,2.5,1.2,4c-0.4,1.7-2.3,1.6-3.6,1.9c-2.8,0.2-3.9,3.2-6,4.5c-4.3,2.9-9.5,5.2-14.8,4.5
		c1.3-1.9,3.4-2.6,5.5-3.3c3.8-1.2,6.9-4,9.6-6.8C194.7,175.6,193.8,173.3,194.1,170.9L194.1,170.9z M195.9,171.3
		c0.1,1.6,0.6,3.1,1.4,4.4c0.6-1.2,1.1-2.5,1.6-3.8C197.9,171.7,196.9,171.4,195.9,171.3L195.9,171.3z M200.1,177
		c1-0.1,2-0.3,3.1-0.4c-0.2-1.3-0.5-2.6-1-3.9C200.8,173.8,200.6,175.5,200.1,177L200.1,177z"/>
	<path style="fill:#FFFFFF;" d="M351.5,171.6c0.6-0.7,1.4-1.2,2.2-1.6c0,3.1,2.2,5.5,2.5,8.5c0.3,3.1-3.7,4.7-6.1,3.3
		c-0.7-0.5-1.4-1.1-2-1.7c-1.3,1.1-2.7,2.8-4.6,2.4c-3-0.5-4.5-4-4-6.8c0.3-1.9,1.9-3.2,3.2-4.3c-0.3,1.9-0.9,3.6-0.7,5.6
		c0.2,1.4,1.8,1.9,2.9,2.5c0.6-2.2,1.1-4.4,1.3-6.7c0.2-1.2,1.7-1.4,2.5-2c0.1,1.9,0,3.8,0.6,5.6c0.6,1.2,1.9,1.9,2.9,2.6
		C353.1,176.4,351.6,174,351.5,171.6L351.5,171.6z M203.6,182.9c1.6-0.7,3.2-1.6,5-1.8c1.7-0.1,2.5,2.5,1.2,3.5
		c-1.9,1.5-4.3,2.1-6.5,3.1c-5.2,2.5-10.4,4.8-15.5,7.6c-1.1,0.7-2.5,0.5-3.7,0.4c0.7-1.6,1.8-2.9,3.2-3.8
		C192.7,188.7,198.1,185.7,203.6,182.9L203.6,182.9z M398.4,185.7c0.4-1.8,2.4-2,3.9-2.6c0.4,2.6,0.6,5.2,2.2,7.3
		c-0.8,0.1-1.7,0.2-2.4,0.3c-1.1,1.7-2.3,3.5-4.2,4.4c-3.1,1.5-6.5,1.5-9.8,1.3c3.5-1,7.9-1.2,10.2-4.4
		C399.9,190.2,398.3,187.8,398.4,185.7L398.4,185.7z M468.4,188.2c0.5-1.4,2.1-1.4,3.3-1.2c2.6,0.4,4.4,2.6,6.1,4.5
		c1.3,1.2,1.5,3.2,0.5,4.6c-1.7,1.3-4.4,0.5-5.8,2.3c-4.4,5.1-11.3,8.4-18.2,7.7c1.3-1.9,3.4-2.6,5.6-3.3c3.8-1.2,6.8-4.1,9.5-6.8
		C468.7,193.5,467.6,190.9,468.4,188.2L468.4,188.2z M470.2,189.3c0.2,1.6,0.6,3.2,1.1,4.7c0.7-1.2,1.2-2.5,1.7-3.8
		C472,189.8,471,189.5,470.2,189.3L470.2,189.3z M475.5,191.2c-0.5,1.3-1,2.6-1.3,3.9c1-0.1,2-0.3,3.1-0.4c-0.2-1.2-0.5-2.5-1-3.6
		C476.1,191.1,475.7,191.2,475.5,191.2L475.5,191.2z M293.1,190.9c1.8-1.7,4.9-0.8,6,1.2c0.6,1.1-0.6,2-1.1,2.9
		c-0.9-0.6-1.9-1.1-2.9-1.5c-0.9-0.3-1.2,0.8-1.5,1.4c-1.1,2.6-1.7,5.5-2.5,8.2c-0.5-1.7-1.2-3.3-2.1-4.8c-1.1-1.6-3-2.5-4.4-3.8
		c-1.3-1.1,0.1-3.3,1.6-3.1c2.1,0.3,3.4,2.2,4.9,3.6C291.7,193.7,292.1,192.1,293.1,190.9z M181.7,206.3c1.8-3,4.5-5.3,7.7-6.8
		c-0.9,2.1-2,4.2-3.3,6.1c-0.9,1.4-0.9,3.1-1,4.7c2.2-0.1,4.3-0.4,6.4-0.9c-0.6,1.7-1.2,3.5-2.8,4.5c-1.8,1.1-4.3,2-6.1,0.5
		C180.6,212.1,180.3,208.9,181.7,206.3L181.7,206.3z M329.6,219.9c1.6-0.3,3.4-1,4.8,0.2c1.3,0.9,1.7,2.7,0.8,4.1
		c-0.1,0.1-0.2,0.2-0.3,0.3c-1.9,1.1-4.4,0.4-6.1,1.9c0.3,2.3,2,4.1,2.4,6.3c0.1,1.4-1,2.6-1.7,3.7c-0.5-2.2-0.8-4.6-2-6.5
		c-0.7-1.4-1.9-2.8-1.5-4.5c0.4-1.9,2.3-2.7,3.7-3.6C329.7,221.2,329.6,220.5,329.6,219.9L329.6,219.9z M400.7,222.6
		c0.7-1.9,2.5-2.7,4.1-3.7c-0.6,1.5-1.8,3-1.9,4.7c0.7,1.3,1.9,2.3,2.6,3.7c0.2,2.3-3.2,2.6-4.4,1.2
		C399.6,226.9,399.8,224.4,400.7,222.6L400.7,222.6z M383.5,220c2.6-0.9,5.4,0,7.7,1.3c-1.7,3.4-5.6,4.3-8.4,6.4
		c0.1,0.5,0.2,0.9,0.2,1.4c2,0.1,4.2,0.4,5.9-0.7c2.3-1.3,4.8-2.3,7.3-2.9c-2,1.8-4,3.5-6,5.2c-2.4,1.9-5.7,1.9-8.6,1.1
		c-1.4-0.4-3.2-1.7-2.7-3.4c0.7-2.2,3-3.3,4.7-4.7c-1.3-0.1-2.5-0.2-3.8-0.3C380.8,222.1,381.8,220.4,383.5,220L383.5,220z
		 M450.7,226.3c-0.6-0.8-0.4-2,0.4-2.7c0.2-0.2,0.5-0.3,0.8-0.3c2.5-0.4,4.6,1.6,5.7,3.6c1.6,2.9,1.7,6.3,0.2,9.3
		c-0.5-2-0.5-4.1-1.5-6C455,228.3,452.4,228,450.7,226.3z M492.7,227.6c3.4-1.2,6.9-2.8,10.6-2.5c-0.7,1.4-2,2.5-3.4,3.1
		c-5.7,2.1-11.6,4.1-17.2,6.4c-1.8,0.8-3.6,1.4-5.6,1.9c-0.2-0.5-0.5-1.1-0.6-1.6C481.5,231.9,487.1,229.8,492.7,227.6L492.7,227.6z
		 M481.5,340.8h-28.5v-2.7c1.3-1.1,3-2.6,3-3.5c0-1.5-3.6-4.6-4.4-4.6c-0.9,0-4.4,3.2-4.4,4.6c0,1,1.6,2.3,2.9,3.4l0.1,0.1v2.8H225
		c8,8,19.9,7.9,43.7,8.1c21.3,0.3,21.2,0.3,181.3,0v2.9c-1.3,1.1-2.9,2.6-2.9,3.5c0,1.5,3.4,4.6,4.4,4.6c0.6,0,2.8-1.8,3.9-3.3h9.8
		c0.6,1.1,2.1,1.8,3.9,1.8c1.5,0.1,2.9-0.6,3.9-1.8h11.8c1.2,1.3,2.9,1.9,4.7,1.8c4.5-0.2,5.5-2.5,5.5-10.4
		C494.9,341.4,490.4,340.7,481.5,340.8L481.5,340.8z M483.5,354.3H473c-1.7-2.1-4.9-2.4-7-0.7c-0.3,0.2-0.5,0.4-0.7,0.7h-9.7
		c-0.7-1-1.6-1.8-2.6-2.5v-2.9h30.6C483,350.7,483,352.5,483.5,354.3z"/>
</g>
</svg>
