<?xml version="1.0" encoding="utf-8"?>
<!-- Generator: Adobe Illustrator 25.2.1, SVG Export Plug-In . SVG Version: 6.00 Build 0)  -->
<svg version="1.1" id="Layer_1" xmlns="http://www.w3.org/2000/svg" xmlns:xlink="http://www.w3.org/1999/xlink" x="0px" y="0px"
	 viewBox="0 0 720 480" style="enable-background:new 0 0 720 480;" xml:space="preserve">
<g>
	<g>
		<defs>
			<rect id="SVGID_1_" x="0" width="720" height="480"/>
		</defs>
		<clipPath id="SVGID_2_">
			<use xlink:href="#SVGID_1_"  style="overflow:visible;"/>
		</clipPath>
		<g style="clip-path:url(#SVGID_2_);">
			<path style="fill:#0051BA;" d="M0,480V0h720L0,480z"/>
			<path style="fill:#215B33;" d="M0,480h720V0L0,480z"/>
			<path style="stroke:#FCD116;stroke-width:36;" d="M0,480L720,0"/>
			<g>
				<polygon style="fill:#FFFFFF;" points="134.1,129.2 126,96 117.9,129.2 91.8,129.2 112.9,149.7 104.8,182.8 126,162.3 
					147.2,182.8 139.1,149.7 160.2,129.2 				"/>
				<polygon style="fill:#FFFFFF;" points="54.9,14.8 46.8,48 20.7,48 41.9,68.4 33.8,101.6 54.9,81.1 76.1,101.6 68,68.4 89.2,48 
					63,48 				"/>
				<polygon style="fill:#FFFFFF;" points="205.2,210.4 197.1,177.2 189,210.4 162.8,210.4 184,230.9 175.9,264 197.1,243.6 
					218.2,264 210.1,230.9 231.3,210.4 				"/>
				<polygon style="fill:#FFFFFF;" points="184,68.4 175.9,101.6 197.1,81.1 218.2,101.6 210.1,68.4 231.3,48 205.2,48 197.1,14.8 
					189,48 162.8,48 				"/>
				<polygon style="fill:#FFFFFF;" points="63,210.4 54.9,177.2 46.8,210.4 20.7,210.4 41.9,230.9 33.8,264 54.9,243.6 76.1,264 
					68,230.9 89.2,210.4 				"/>
			</g>
		</g>
	</g>
</g>
</svg>
