<?xml version="1.0" encoding="utf-8"?>
<!-- Generator: Adobe Illustrator 25.2.1, SVG Export Plug-In . SVG Version: 6.00 Build 0)  -->
<svg version="1.1" id="Layer_1" xmlns="http://www.w3.org/2000/svg" xmlns:xlink="http://www.w3.org/1999/xlink" x="0px" y="0px"
	 viewBox="0 0 720 480" style="enable-background:new 0 0 720 480;" xml:space="preserve">
<g>
	<g>
		<g>
			<g>
				<defs>
					<rect id="SVGID_1_" width="720" height="480"/>
				</defs>
				<clipPath id="SVGID_2_">
					<use xlink:href="#SVGID_1_"  style="overflow:visible;"/>
				</clipPath>
				<g style="clip-path:url(#SVGID_2_);">
					<path style="fill:#012169;" d="M0,0v480h720V0H0z"/>
					<g>
						<path d="M0,0l720,480 M720,0L0,480"/>
						<polygon style="fill:#FFFFFF;" points="703.8,522.9 360.1,293.6 16.2,522.9 -16.2,437.1 279.4,240 -16.2,42.9 16.2,-42.9 
							360.1,186.4 703.8,-42.9 736.2,42.9 440.6,240 736.2,437.1 						"/>
					</g>
					<g>
						<g>
							<g>
								<defs>
									<polygon id="SVGID_3_" points="360.1,240 720,240 720,480 360.1,480 0,480 0,240 0,0 360.1,0 720,0 									"/>
								</defs>
								<clipPath id="SVGID_4_">
									<use xlink:href="#SVGID_3_"  style="overflow:visible;"/>
								</clipPath>
								<g style="clip-path:url(#SVGID_4_);">
									<path d="M0,0l720,480 M720,0L0,480"/>
									<polygon style="fill:#C8102E;" points="709.4,508.5 360.1,275.8 10.6,508.5 -10.6,451.5 306.3,240 -10.6,28.5 10.6,-28.5 
										360.1,204.2 709.4,-28.5 730.6,28.5 413.7,240 730.6,451.5 									"/>
								</g>
							</g>
						</g>
					</g>
					<g>
						<path d="M360.1,0v480 M0,240h720"/>
						<polygon style="fill:#FFFFFF;" points="420,480 300,480 300,319.9 0,319.9 0,160.1 300,160.1 300,0 420,0 420,160.1 
							720,160.1 720,319.9 420,319.9 						"/>
					</g>
					<g>
						<path d="M360.1,0v480 M0,240h720"/>
						<polygon style="fill:#C8102E;" points="396,480 324,480 324,288 0,288 0,192 324,192 324,0 396,0 396,192 720,192 720,288 
							396,288 						"/>
					</g>
				</g>
			</g>
		</g>
	</g>
</g>
</svg>
