<?xml version="1.0" encoding="utf-8"?>
<!-- Generator: Adobe Illustrator 25.2.1, SVG Export Plug-In . SVG Version: 6.00 Build 0)  -->
<svg version="1.1" id="Layer_1" xmlns="http://www.w3.org/2000/svg" xmlns:xlink="http://www.w3.org/1999/xlink" x="0px" y="0px"
	 viewBox="0 0 720 480" style="enable-background:new 0 0 720 480;" xml:space="preserve">
<g>
	<path style="fill:#FF0000;" d="M0,0h720v480H0V0z"/>
	<path style="fill:#005CE5;" d="M0,0h720v320H0V0z"/>
	<path style="fill:#FFFFFF;" d="M0,0h720v160H0V0z"/>
	<g transform="matrix(.021 0 0 .021 -.106 3.478)">
		<path style="fill-rule:evenodd;clip-rule:evenodd;fill:#005CE5;" d="M8577,3842.5c-38.4,0-76.6,1.1-114.8,2.6
			c-742.2,25.6-1439,281.2-1935.1,592.8l0.1,1c-54.2,30.2-107.4,60.6-157.9,90.9l170.5,3561.5
			c118.2,1861.1,1027.9,2944.8,2038.6,3370.2c1010.8-425.5,1920.4-1509.1,2038.5-3370.2l169.6-3550.2
			c-52.1-35.6-104.7-69.7-157.9-102.2v-0.9c-521.4-327.6-1264.4-593.6-2049-595.4l-1.7-0.1C8577.8,3842.5,8577,3842.5,8577,3842.5z"
			/>
		<path style="fill-rule:evenodd;clip-rule:evenodd;fill:#FFFFFF;" d="M8578.2,6306.9l-498.8,1299l-322.5-558.6l-842.8,1484.9
			c15.2,92.2,33.1,181.2,52.7,268c94.1,211.8,275,453.6,506.9,453.6c184.1,0,368.2-196.3,552.2-196.3
			c184.1,0,368.2,196.4,552.2,196.4c184.1,0,368.2-196.4,552.3-196.4c184.1,0,368.2,196.4,552.2,196.4
			c229.9,0,409.5-237.4,504.4-447.8c20.3-89.2,38.4-181,54.1-275.8l-841.6-1483l-322.5,558.6L8578.2,6306.9z M8026,9253.8
			c-184.1,0-368.2,196.3-552.2,196.3c-145.7,0-270.8-68.8-367.8-166.4c33.4,95.7,70.1,189.2,110.1,280.3
			c75.9,63,162.2,105.5,257.7,105.5c184.1,0,368.2-196.4,552.2-196.4c184.1,0,368.2,196.4,552.2,196.4
			c184.1,0,368.2-196.4,552.3-196.4c184.1,0,368.2,196.4,552.2,196.4c94.1,0,179.2-41.6,254.4-103.1
			c39.9-90.8,76.7-183.9,110.1-279.3c-96.5,95.8-220.5,163-364.5,163c-184.1,0-368.2-196.3-552.2-196.3
			c-184.1,0-368.2,196.3-552.3,196.3C8394.2,9450.1,8210.1,9253.8,8026,9253.8z M8026,9669.6c-184.1,0-368.2,196.3-552.2,196.3
			c-40,0-78-6.2-114.8-15.7c318.4,567.3,752.9,947,1219,1165.4c465.1-218,898.9-598,1217.2-1164.4c-36,9-73.2,14.7-112.3,14.7
			c-184.1,0-368.2-196.3-552.2-196.3c-184.1,0-368.2,196.3-552.3,196.3C8394.2,9865.9,8210.1,9669.6,8026,9669.6z"/>
		<g>
			<polygon style="fill-rule:evenodd;clip-rule:evenodd;fill:#FFE500;" points="8026.3,4319.1 7956.6,4158.2 7887,4319.1 
				7747.8,4319.1 7817.4,4479.7 7747.8,4640.4 7887,4640.4 7956.6,4801.3 8026.3,4640.4 8165.4,4640.4 8095.9,4479.7 8165.4,4319.1 
							"/>
			<polygon style="fill-rule:evenodd;clip-rule:evenodd;fill:#FFE500;" points="9339.1,4479.7 9408.6,4319.1 9269.5,4319.1 
				9199.8,4158.2 9130.2,4319.1 8991,4319.1 9060.6,4479.7 8991,4640.4 9130.2,4640.4 9199.8,4801.3 9269.5,4640.4 9408.6,4640.4 
							"/>
			<polygon style="fill-rule:evenodd;clip-rule:evenodd;fill:#FFE500;" points="8647.9,5429.1 8578.2,5268.2 8508.6,5429.1 
				8369.4,5429.1 8439,5589.7 8369.4,5750.4 8508.6,5750.4 8578.2,5911.3 8647.9,5750.4 8787,5750.4 8717.5,5589.7 8787,5429.1 			
				"/>
		</g>
	</g>
	<path style="fill-rule:evenodd;clip-rule:evenodd;fill:#FF0000;" d="M136.9,96.7c-1.1,0.6-2.2,1.2-3.3,1.8l3.6,74.8
		c2.5,39.1,21.6,61.8,42.8,70.8c21.2-9,40.3-31.7,42.8-70.8l3.5-74.6c-1.1-0.7-2.2-1.4-3.3-2.1l-3.4,74.2
		c-1.1,31.8-17,59.3-39.7,68.8c-22.8-9.5-38.6-37-39.7-68.8L136.9,96.7z"/>
</g>
</svg>
