<?xml version="1.0" encoding="utf-8"?>
<!-- Generator: Adobe Illustrator 25.2.1, SVG Export Plug-In . SVG Version: 6.00 Build 0)  -->
<svg version="1.1" id="Layer_1" xmlns="http://www.w3.org/2000/svg" xmlns:xlink="http://www.w3.org/1999/xlink" x="0px" y="0px"
	 viewBox="0 0 720 480" style="enable-background:new 0 0 720 480;" xml:space="preserve">
<g>
	<path style="fill:#DC171D;" d="M0.5,1l318.3,239.3H720V1H0.5z"/>
	<path style="fill:#FFFFFF;stroke:#FFFFFF;" d="M0.5,1l318.7,239.8L0.5,479V1z"/>
	<path style="fill:#012A87;" d="M0.5,479l318.3-238.7H720V479H0.5z"/>
	<path style="fill:#FFFF00;" d="M161.3,181.9l0.1-3.7c0,0-2-3.2,0.3-6.6c0,0-4.9-2.6-3.8-6.7c0,0-4.4-1.1-4.1-6c0,0-4.8-0.3-5.3-4.4
		c0,0-4.8,0.8-6.9-3.2c0,0-4.7,0.9-6-2.4c0,0-4.6,1.6-7.3-2.3c0,0-4.8,1.9-6.8-1.7c-2,3.6-6.8,1.7-6.8,1.7c-2.7,3.8-7.3,2.2-7.3,2.2
		c-1.3,3.3-5.9,2.4-5.9,2.4c-2.1,4-6.9,3.2-6.9,3.2c-0.5,4.1-5.3,4.4-5.3,4.4c0.4,4.9-4.1,6-4.1,6c1.2,4.1-3.7,6.6-3.7,6.6
		c2.4,3.4,0.4,6.6,0.4,6.6l-0.1,3.4L161.3,181.9"/>
	<path style="fill:#F9D90F;stroke:#000000;stroke-width:0.273;stroke-miterlimit:4.0302;" d="M161.3,181.9l0.1-3.7
		c0,0-2-3.2,0.3-6.6c0,0-4.9-2.6-3.8-6.7c0,0-4.4-1.1-4.1-6c0,0-4.8-0.3-5.3-4.4c0,0-4.8,0.8-6.9-3.2c0,0-4.7,0.9-6-2.4
		c0,0-4.6,1.6-7.3-2.3c0,0-4.8,1.9-6.8-1.7c-2,3.6-6.8,1.7-6.8,1.7c-2.7,3.8-7.3,2.2-7.3,2.2c-1.3,3.3-5.9,2.4-5.9,2.4
		c-2.1,4-6.9,3.2-6.9,3.2c-0.5,4.1-5.3,4.4-5.3,4.4c0.4,4.9-4.1,6-4.1,6c1.2,4.1-3.7,6.6-3.7,6.6c2.4,3.4,0.4,6.6,0.4,6.6l-0.1,3.4
		L161.3,181.9L161.3,181.9L161.3,181.9z"/>
	<path style="fill:#DC171D;" d="M159.4,177.3c-12.5-1.2-26.8-4.2-37.9,2c-7.4-4.4-17.8-4.1-26.6-3.2c-4.8,0.9-10.4,0.9-15.4,1.7
		l-0.8,0.1c-9.1,0.6-17.3-2.1-25.2-5.6c2.5,14.2,5.3,28.7,6.6,43.5c3,22-10.4,40.4-4.9,62.1c3.3,10.4,14.8,16.5,25.3,17.7
		c10.2,0.6,20.7,2.3,30.1,4.3c1.8,0.4,3.9,1.2,5.2,1.7c2.6,1.1,4.5,2.7,6.2,4.4c5.7-5.9,14-7.5,22.2-8.4
		c14.8-1.7,33.1-0.8,42.2-14.2v-0.8c4.9-7.4,4.3-18.7,2.1-27.1c-0.1-2.9-0.9-5.5-1.4-8.3c-9.1-23.8-1.3-50.6,2.6-74.6
		c-4.8,2.6-10.1,3.8-15.4,5.1c-4.2,0.6-8.9,0.3-13.2,0.1L159.4,177.3"/>
	<path style="fill:#62AFE1;" d="M178,245.6c-0.1,1.6,0.8,2.8,1.1,4.3c1.7,10.4,3.4,24.2-7.4,30.7c-11.9,7.5-27.5,4.3-41.3,8.3
		c-2.8,0.8-6.5,3.3-8.5,5.1c-1.2-0.8-2.5-2.1-4.1-2.8c-11.3-6-26.1-4-38.9-7.2c-6.4-2-13.1-7-14.8-13.6c-4.2-17.2,5.8-31.9,4.7-48.9
		c-0.8-13-3-25.5-6-37.7c10,4.6,21.6,5.4,32.8,3.2c8.3-1.2,18-1.2,25.8,2.3c4.3-1.8,9.3-2.7,14-3.2c8.8,0.9,18.3,2.4,27.4,2.4
		c6.1-0.3,11.6-2.1,16.8-4.4C176.7,204.2,170.7,225.3,178,245.6"/>
	<path style="fill:#FFFFFF;" d="M160.1,249.7l-0.1-19h2.3l-29.1-18.7l-0.1-9.7h2.8l-14.6-10.4l-14.5,10.4h2.8l0.1,9.7l-29,18.7
		l2.3,0l0.1,19L160.1,249.7"/>
	<path style="fill:none;stroke:#000000;stroke-width:1.1728;stroke-miterlimit:4.0302;" d="M160.1,249.7l-0.1-19h2.3l-29.1-18.7
		l-0.1-9.7h2.8l-14.6-10.4l-14.5,10.4h2.8l0.1,9.7l-29,18.7l2.3,0l0.1,19L160.1,249.7L160.1,249.7L160.1,249.7z"/>
	<path style="fill:#FFFFFF;" d="M169,274.6l0,5.9l-93.8-0.1l0-5.9L169,274.6"/>
	<path style="fill:none;stroke:#000000;stroke-width:1.1728;stroke-miterlimit:4.0302;" d="M169,274.6l0,5.9l-93.8-0.1l0-5.9
		L169,274.6L169,274.6L169,274.6z"/>
	<path style="fill:#FFFFFF;" d="M81.4,274.2l-0.1-20.1l3.8,0l-0.2,20.3l0.2-20.2l-5.5-0.2v-4.3l83.8,0.1l0,4.3h-5.2l0.1,20.4
		l-0.2-20.4h3.9l0.1,20.1"/>
	<path style="fill:none;stroke:#000000;stroke-width:1.1728;stroke-miterlimit:4.0302;" d="M81.4,274.2l-0.1-20.1l3.8,0l-0.2,20.3
		l0.2-20.2l-5.5-0.2v-4.3l83.8,0.1l0,4.3h-5.2l0.1,20.4l-0.2-20.4h3.9l0.1,20.1 M99.5,269.3l-0.1-14H88.1l0.1,14L99.5,269.3
		 M99.5,269.3l-0.1-14H88.1l0.1,14L99.5,269.3 M99.5,269.3l-0.1-14H88.1l0.1,14L99.5,269.3 M99.5,269.3l-0.1-14H88.1l0.1,14
		L99.5,269.3 M99.5,269.3l-0.1-14H88.1l0.1,14L99.5,269.3 M91.2,258.2l0,8.1h5.2l0-8.1H91.2 M154.5,269.3l-0.1-14l-11.2,0l0.1,14
		H154.5 M146.2,258.3l0.1,8.1h5.1l0-8.1H146.2 M154.4,246.5l-0.1-14h-11.2l0,14H154.4L154.4,246.5L154.4,246.5z M146.2,235.4l0,8.1
		h5.1l0-8.1H146.2 M99.4,246.5l-0.1-14l-11.2,0l0.1,14L99.4,246.5L99.4,246.5L99.4,246.5z M91.1,235.4l0,8.1l5.2,0l0-8.1L91.1,235.4
		 M119.7,246.5l-0.1-14l-11.2,0l0,14L119.7,246.5 M111.5,235.4l0,8.1l5.2,0l0-8.1H111.5 M135.4,246.5l-0.1-14l-11.2,0l0.1,14
		L135.4,246.5 M127.2,235.4l0,8.1h5.2l0-8.1H127.2"/>
	<path style="fill:#FFFFFF;" d="M138.2,242.2l0.1,32.3l-32.6-0.1l-0.1-32.3L138.2,242.2"/>
	<path style="fill:none;stroke:#000000;stroke-width:1.1728;stroke-miterlimit:4.0302;" d="M138.2,242.2l0.1,32.3l-32.6-0.1
		l-0.1-32.3L138.2,242.2L138.2,242.2L138.2,242.2z M105.5,251.4l32.8,0 M105.5,251.4l32.8,0 M105.5,251.4l32.8,0 M105.5,251.4
		l32.8,0 M105.5,251.4l32.8,0 M109.6,274.5l-0.1-22.8 M134.4,274.5l-0.1-22.8 M150.1,228.4l-18.3-13.3l-20.6,0L93,228.4L150.1,228.4
		 M112.7,204l0,8.1l17.3,0l0-8.1L112.7,204 M112.7,204l0,8.1l17.3,0l0-8.1L112.7,204"/>
	<path style="fill:none;stroke:#000000;stroke-width:1.1728;stroke-miterlimit:4.0302;" d="M112.7,204l0,8.1l17.3,0l0-8.1L112.7,204
		"/>
	<path style="fill:none;stroke:#000000;stroke-width:1.1728;stroke-miterlimit:4.0302;" d="M117.5,206l0,4.1h8l0-4.1H117.5
		 M121.4,194.8l9.6,6.8l-19.2,0L121.4,194.8 M121.4,194.8l9.6,6.8l-19.2,0L121.4,194.8 M121.4,194.8l9.6,6.8l-19.2,0L121.4,194.8
		 M121.4,194.8l9.6,6.8l-19.2,0L121.4,194.8 M121.4,194.8l9.6,6.8l-19.2,0L121.4,194.8"/>
	<path style="fill:#FFFFFF;" d="M160.4,190.2c2.7-0.1,3.4,11.2,3.5,16.8c2.4,0.7,7.6,3.9,9.9,6.9l-26.5,0c2.3-2.9,7.5-6.2,9.8-6.9
		C157,201.4,157.6,190.1,160.4,190.2"/>
	<path style="fill:none;stroke:#000000;stroke-width:1.1728;stroke-miterlimit:4.0302;" d="M160.4,190.2c2.7-0.1,3.4,11.2,3.5,16.8
		c2.4,0.7,7.6,3.9,9.9,6.9l-26.5,0c2.3-2.9,7.5-6.2,9.8-6.9C157,201.4,157.6,190.1,160.4,190.2 M107.2,243.1h2.4l-0.7,1.3
		 M107.2,243.1h2.4l-0.7,1.3 M107.2,243.1h2.4l-0.7,1.3 M107.2,243.1h2.4l-0.7,1.3 M107.2,243.1h2.4l-0.7,1.3c0,0,1.1,1.5,0,3.1
		l0.6,1.2h-2.3l0.6-1.1c0,0-1.2-1.9,0.1-3.2L107.2,243.1 M112,243.1h2.4l-0.7,1.3c0,0,1.1,1.4,0,3.1l0.6,1.2H112l0.6-1.1
		c0,0-1.1-1.9,0.1-3.2L112,243.1 M117.3,243.1h2.4l-0.7,1.3c0,0,1.2,1.5,0,3.1l0.6,1.2l-2.3,0l0.6-1.1c0,0-1.2-1.9,0-3.2
		L117.3,243.1L117.3,243.1L117.3,243.1z M123.2,243.1h2.4l-0.7,1.3c0,0,1.1,1.4,0,3.1l0.6,1.2h-2.3l0.6-1.1c0,0-1.1-2,0.1-3.2
		L123.2,243.1L123.2,243.1L123.2,243.1z M128.5,243.1h2.4l-0.7,1.3c0,0,1.2,1.4,0,3.1l0.6,1.2h-2.3l0.6-1.1c0,0-1.2-1.9,0.1-3.2
		L128.5,243.1 M133.8,243.1l2.4,0l-0.7,1.3c0,0,1.2,1.4,0,3.1l0.6,1.2h-2.3l0.6-1.1c0,0-1.1-1.9,0.1-3.2L133.8,243.1"/>
	<path style="fill:#F9D90F;" d="M122.1,315.9c12.2,0,27.2-2.4,34.2-6.1l15.4-1.4l0.3,18.8c-13.1,7.2-43.3,8.7-49.9,8.7
		c-6.6,0.1-37.2-1.5-50.3-8.7l0.2-18.8l15.5,1.4C94.5,313.4,109.9,315.9,122.1,315.9L122.1,315.9"/>
	<path style="fill:none;stroke:#000000;stroke-width:0.273;stroke-miterlimit:4.0302;" d="M122.1,315.9c12.2,0,27.2-2.4,34.2-6.1
		l15.4-1.4l0.3,18.8c-13.1,7.2-43.3,8.7-49.9,8.7c-6.6,0.1-37.2-1.5-50.3-8.7l0.2-18.8l15.5,1.4C94.5,313.4,109.9,315.9,122.1,315.9
		L122.1,315.9"/>
	<path style="fill:#F9D90F;" d="M32.1,235.9l13.6,4.3l-4.1,21.9l-12.9,2C28.7,264.1,26.5,252.6,32.1,235.9"/>
	<path style="fill:none;stroke:#000000;stroke-width:0.273;stroke-miterlimit:4.0302;" d="M32.1,235.9l13.6,4.3l-4.1,21.9l-12.9,2
		C28.7,264.1,26.5,252.6,32.1,235.9L32.1,235.9L32.1,235.9z"/>
	<path style="fill:#7E7E7E;" d="M41.6,261.9l-12.9,2.2l8.1-11.5L41.6,261.9"/>
	<path style="fill:#F9B60F;stroke:#000000;stroke-width:0.273;stroke-miterlimit:4.0302;" d="M41.6,261.9l-12.9,2.2l8.1-11.5
		L41.6,261.9"/>
	<path style="fill:#F9D90F;" d="M24,251.7l13.1,0.9c0.3,11.1,1.6,53.3,52.3,55.6l-1.6,15.4C26.1,324.2,21.4,271.8,24,251.7"/>
	<path style="fill:none;stroke:#000000;stroke-width:0.273;stroke-miterlimit:4.0302;" d="M24,251.7l13.1,0.9
		c0.3,11.1,1.6,53.3,52.3,55.6l-1.6,15.4C26.1,324.2,21.4,271.8,24,251.7L24,251.7z M72.1,326.7l15.4-3.4 M72.1,326.7l15.4-3.4
		 M72.1,326.7l15.4-3.4 M72.1,326.7l15.4-3.4 M72.1,326.7l15.4-3.4"/>
	<path style="fill:#FFFF00;" d="M211,236.1l-13.5,4.3l4.3,21.9l12.9,2.1C214.7,264.3,216.8,252.8,211,236.1"/>
	<path style="fill:#F9D90F;stroke:#000000;stroke-width:0.273;stroke-miterlimit:4.0302;" d="M211,236.1l-13.5,4.3l4.3,21.9
		l12.9,2.1C214.7,264.3,216.8,252.8,211,236.1L211,236.1L211,236.1z"/>
	<path style="fill:#7E7E7E;" d="M201.8,262l12.9,2.3l-8.3-11.5L201.8,262"/>
	<path style="fill:#F9B60F;stroke:#000000;stroke-width:0.273;stroke-miterlimit:4.0302;" d="M201.8,262l12.9,2.3l-8.3-11.5
		L201.8,262"/>
	<path style="fill:#F9D90F;" d="M219.3,251.9l-13.1,0.9c-0.2,11.1-1.2,53.3-51.8,55.5l1.7,15.4C217.7,324.4,222,272,219.3,251.9"/>
	<path style="fill:none;stroke:#000000;stroke-width:0.271;" d="M219.3,251.9l-13.1,0.9c-0.2,11.1-1.2,53.3-51.8,55.5l1.7,15.4
		C217.7,324.4,222,272,219.3,251.9L219.3,251.9L219.3,251.9z M171.9,326.8l-15.5-3.4 M0.5,1"/>
	<path style="fill:#BC715F;" d="M73.4,165.5c1-2.5,10.6-9.3,42-6.3c0,0,5.3,3.2,8.4,2.8c1.8-0.2-1,0.1-3.4-1.8
		c-2.4-1.9-2.9-5.9,2.5-5.8c5.4,0.1,25.5,1.3,25.9,3.1c0.4,1.8-10.7,2.6-14.7,2.5c-4.1-0.1-3.6,2,0.5,1.8
		c12.8-0.5,26.7-4.9,41.5,5.4c1.8,1.3-4.4,1.5-9.2-0.6c0,0-13,0.7-18.6-0.2c0,0-4.3,3.5-9.9,3.2c0.7,1.8-2.1,8.6-19.8,3.5
		c-2.9,0.9-13.6,2.7-12.4-0.5c-2.8,0-7.7,0.9-8.5-0.7c-0.7-1.6,8.7-3.9,10.3-5.6c0,0-19.8,0.2-23.6-1.2
		C84.4,165.1,72.7,167.7,73.4,165.5"/>
	<path style="fill:#008830;" d="M79.7,193.1c0.4-0.6,0.6-1.6,1.5-1.6c2,0.5,3.3,4.1,5.7,1.8c0.9-0.2,1.2,1,1.9,1.1
		c0.5,2,2.1-0.4,3.2-0.3c2.6-1.1,5.7-1.4,8.7-0.8c0.1,1.9-1.4,4.1-3.4,5.2c0,2,1.8,3.2,1.8,5.2c-0.3,0.7-0.1,1.9-1.2,2.1
		c-1.4-0.3-2.8-0.4-4-1.2c-0.1-0.1-0.3-0.4-0.6-0.3c-0.1,0.7,0.9,1.3,1.3,2c-0.7,1.2-1.9,0.1-2.9,0.1c-0.3,0.7,0,1.6-0.7,2
		c-1.3,0-1.5-1.4-2.3-2.1c-0.8,0.9,0.6,1.4,0.7,2c-0.5,2.6-0.4,5.1-3,6.8l-1.7,0.9c-0.5-1.3-0.2-3.2-0.5-4.6c-1,1.7-1.8,3.1-3.3,4.5
		c-1.8-0.6-2.8-2.6-3.2-4.3c-0.7-2-0.3-4.4,1.3-5.8c-0.5-1-2.4-0.8-2.6-2.3c-2.8-1.8-4.3,3.1-6.1,0.6c-0.6-2.4,0.1-5.3,1.8-7.1
		c-0.4-1-1.7-0.7-2.4-1.3c-1.7-1.5-4.2-3-4.1-5.7C70.6,188.2,76.3,189.5,79.7,193.1"/>
	<path style="fill:#F9D90F;" d="M82.2,192.8c-0.1,2.2,1.5,0.6,2.6,1.9c-0.9-0.4-1.6,1.6-2.5,0.5l-0.6,0.5c0.3,0.7,1,0.8,0.3,1.7
		c-1,0.4-1.2-0.9-1.6-1.3c-0.1-0.2,0.2-0.6-0.2-0.8c-0.6,0.5-1.1,0.6-1.9,0.6c-0.2-0.4-0.6-1-0.2-1.3c0.8-1,1.9,0.4,2.5-0.3
		c0.1-0.6-0.5-1.4,0.3-1.8C81.3,192.5,82,192.2,82.2,192.8 M88,194.6c0.1,0.4-0.2,1,0.3,1.3c0.7-0.4,1.5-0.1,1.9,0.6
		c0,0.4,0.1,0.9-0.4,1.1l-1.1-0.2c0.1-0.2-0.3-0.4-0.4-0.6c-0.5-0.1-0.8,0.2-1.1,0.5c0.3,0.4,0.9,0.6,0.8,1.2
		c-0.7,0.7-1-0.6-1.7-0.3c-0.5-0.2,0.2-1.2-0.6-1.5c-0.9,0-0.3,1.5-1.5,0.9c-0.4-0.5-0.8-1.1-0.4-1.6c0.5-0.3,1.3-0.2,1.7,0.2
		C86.3,195.4,86.3,192.3,88,194.6 M80.7,197.7c0.5,0.7-0.1,1.6,0.5,2.4c1-1.8,1.9,0.4,3,0.2c0.3,0.4,0.1,1,0.2,1.5
		c-1.4,0.4-3.1,0.8-4.3-0.3l-0.3,0.4c0.7,0.7,1.4,1.5,0.8,2.6c-1.1,0.2-2.7,0.3-3.2-0.8c-0.3-0.9,0.6-1.5-0.3-2.3
		c-0.7,0.9-0.7,2-2.1,1.2c-0.9-0.5-1.2-1.5-0.7-2.4c0.9-1.5,2.6,0,3.6-0.7c0.1-1.3-0.3-2.4,0.8-3.1
		C79.7,196.4,80.1,197.1,80.7,197.7"/>
	<path style="fill:#FFFFFF;" d="M84.7,198.5c-0.5,2.2-2.1-0.1-2.9-0.2C82.9,196.5,83.5,198.9,84.7,198.5 M89.8,200.9
		c-1.1,0.3-1-1.1-1.5-1.6l0.4-0.4C89.1,199.3,89.5,200.2,89.8,200.9"/>
	<path style="fill:#F9D90F;" d="M88.3,200.4c0.3,0.7-0.7,1.3,0.2,1.9c0.3-0.2,0.6-0.6,0.8-0.7c0.8,0.2,1.7,0.4,2.2,1.1
		c0.6,1.6-1,1.6-1.9,2l-0.9,0c0.2-0.4-0.4-0.6-0.5-0.9c-0.4-0.1-0.8,0-1,0.4c0.2,1,1.4,1.8,0.2,2.7c-1.1-0.1-2.8,0.3-2.7-1.1
		c-0.4-0.8,1.1-2.1-0.5-2.2c-0.5,1.1-1.1,2.2-2.5,1.2l0.2-1.6c1.3,0,2.9,0.3,3.5-1.2c0.4-1.1-0.7-2.1,0.3-2.9
		C86.8,198.6,87.6,199.5,88.3,200.4"/>
	<path d="M87.3,202.9c0.3,0.8-0.6,0.9-1,1.3c-0.6,0-1-0.2-1.3-0.6c-0.3-1,0.5-1.1,1-1.5C86.6,201.8,86.9,202.6,87.3,202.9"/>
	<path style="fill:#FFFFFF;" d="M86.5,203.4c-0.1,0.2-0.3,0.1-0.6,0.2l-0.2-1C86.2,202.6,86.7,202.8,86.5,203.4"/>
</g>
</svg>
