<?xml version="1.0" encoding="utf-8"?>
<!-- Generator: Adobe Illustrator 25.2.1, SVG Export Plug-In . SVG Version: 6.00 Build 0)  -->
<svg version="1.1" id="Layer_1" xmlns="http://www.w3.org/2000/svg" xmlns:xlink="http://www.w3.org/1999/xlink" x="0px" y="0px"
	 viewBox="0 0 720 480" style="enable-background:new 0 0 720 480;" xml:space="preserve">
<g>
	<path d="M0,0h720v480H0V0z"/>
	<path style="fill:#FFFFFF;" d="M0,0h720v320H0V0z"/>
	<path style="fill:#CE1126;" d="M0,0h720v160H0V0z"/>
	<g>
		<polygon style="fill:#007A3D;" points="254.9,225.8 240,180 225.1,225.8 176.9,225.8 215.9,254.2 201,300 240,271.7 279,300 
			264.1,254.2 303.1,225.8 		"/>
		<polygon style="fill:#007A3D;" points="504.1,254.2 543.1,225.8 494.9,225.8 480,180 465.1,225.8 416.9,225.8 455.9,254.2 
			441,300 480,271.7 519,300 		"/>
	</g>
</g>
</svg>
