<?xml version="1.0" encoding="utf-8"?>
<!-- Generator: Adobe Illustrator 25.2.1, SVG Export Plug-In . SVG Version: 6.00 Build 0)  -->
<svg version="1.1" id="Layer_1" xmlns="http://www.w3.org/2000/svg" xmlns:xlink="http://www.w3.org/1999/xlink" x="0px" y="0px"
	 viewBox="0 0 720 480" style="enable-background:new 0 0 720 480;" xml:space="preserve">
<g>
	<rect style="fill:#E70013;" width="720" height="480"/>
	<path style="fill:#FFFFFF;" d="M360,120c-66.3,0-120,53.7-120,120s53.7,120,120,120s120-53.7,120-120S426.3,120,360,120z
		 M427.7,271.7l-37.3-12.1l-23.1,31.7v-39.2L330,240l37.3-12.1v-39.2l23.1,31.7l37.3-12.1L404.6,240L427.7,271.7z M384,168
		c-39.8,0-72,32.2-72,72s32.2,72,72,72c18.8,0,36-7.2,48.8-19.1C416.4,315.4,389.9,330,360,330c-49.7,0-90-40.3-90-90s40.3-90,90-90
		c29.9,0,56.4,14.6,72.8,37.1C420,175.2,402.8,168,384,168z"/>
</g>
</svg>
