<?xml version="1.0" encoding="utf-8"?>
<!-- Generator: Adobe Illustrator 25.2.1, SVG Export Plug-In . SVG Version: 6.00 Build 0)  -->
<svg version="1.1" id="Layer_1" xmlns="http://www.w3.org/2000/svg" xmlns:xlink="http://www.w3.org/1999/xlink" x="0px" y="0px"
	 viewBox="0 0 720 480" style="enable-background:new 0 0 720 480;" xml:space="preserve">
<g>
	<g>
		<path style="fill-rule:evenodd;clip-rule:evenodd;fill:#FE0000;" d="M0,0h720v480H0V0z"/>
		<path style="fill-rule:evenodd;clip-rule:evenodd;fill:#000095;" d="M0,0h360v240H0V0z"/>
	</g>
	<g>
		<path style="fill:#FFFFFF;" d="M214.3,82.1L225,42.1l-29.4,29.4C202.6,73.7,208.9,77.4,214.3,82.1z"/>
		<path style="fill:#FFFFFF;" d="M180.2,69.1c3.6,0,7.1,0.4,10.5,1.1L180,30l-10.8,40.3C172.8,69.5,176.4,69.1,180.2,69.1z"/>
		<path style="fill:#FFFFFF;" d="M164.5,71.6L135,42.1l10.8,40.4C151.1,77.6,157.5,73.8,164.5,71.6z"/>
		<circle style="fill:#FFFFFF;" cx="180.2" cy="120.1" r="45"/>
		<path style="fill:#FFFFFF;" d="M270,120l-39.9-10.7c0.8,3.5,1.2,7.1,1.2,10.8c0,3.6-0.4,7.2-1.1,10.6L270,120z"/>
		<path style="fill:#FFFFFF;" d="M228.7,104.2L257.9,75l-40.1,10.7C222.7,91,226.4,97.3,228.7,104.2z"/>
		<path style="fill:#FFFFFF;" d="M142.5,85.8L102.1,75l29.6,29.6C133.9,97.5,137.6,91.2,142.5,85.8z"/>
		<path style="fill:#FFFFFF;" d="M195.7,168.7l29.3,29.3L214.3,158C209,162.8,202.7,166.4,195.7,168.7z"/>
		<path style="fill:#FFFFFF;" d="M129.2,120.1c0-3.7,0.4-7.4,1.2-10.9L90,120l40.4,10.8C129.6,127.4,129.2,123.8,129.2,120.1z"/>
		<path style="fill:#FFFFFF;" d="M180.2,171.1c-3.8,0-7.4-0.4-11-1.2L180,210l10.7-40C187.3,170.7,183.8,171.1,180.2,171.1z"/>
		<path style="fill:#FFFFFF;" d="M218,154.3l39.9,10.7l-29.2-29.2C226.5,142.7,222.8,149,218,154.3z"/>
		<path style="fill:#FFFFFF;" d="M145.8,157.7L135,197.9l29.4-29.4C157.4,166.3,151.1,162.5,145.8,157.7z"/>
		<path style="fill:#FFFFFF;" d="M131.6,135.5L102.1,165l40.3-10.8C137.5,148.9,133.8,142.5,131.6,135.5z"/>
	</g>
</g>
</svg>
