<?xml version="1.0" encoding="utf-8"?>
<!-- Generator: Adobe Illustrator 25.2.1, SVG Export Plug-In . SVG Version: 6.00 Build 0)  -->
<svg version="1.1" id="Layer_1" xmlns="http://www.w3.org/2000/svg" xmlns:xlink="http://www.w3.org/1999/xlink" x="0px" y="0px"
	 viewBox="0 0 720 480" style="enable-background:new 0 0 720 480;" xml:space="preserve">
<g>
	<path style="fill:#B22234;" d="M0,0h720v480H0V0z"/>
	<g>
		<path d="M0,55.4h720 M720,129.2H0 M0,203.1h720 M720,276.9H0 M0,350.8h720 M720,424.6H0"/>
		<path style="fill:#FFFFFF;" d="M720,443.1H0v-36.9h720V443.1z M720,369.2H0v-36.9h720V369.2z M720,295.4H0v-36.9h720V295.4z
			 M720,221.5H0v-36.9h720V221.5z M720,147.7H0v-36.9h720V147.7z M720,73.8H0V36.9h720V73.8z"/>
	</g>
	<path style="fill:#3C3B6E;" d="M0,0h288v258.5H0V0z"/>
	<g>
		<polygon style="fill:#FFFFFF;" points="24,11.1 21.4,21.3 12.9,21.3 19.8,27.6 17.1,37.8 24,31.5 30.9,37.8 28.2,27.6 35.1,21.3 
			26.6,21.3 		"/>
		<polygon style="fill:#FFFFFF;" points="24,62.8 21.4,73 12.9,73 19.8,79.3 17.1,89.5 24,83.2 30.9,89.5 28.2,79.3 35.1,73 
			26.6,73 		"/>
		<polygon style="fill:#FFFFFF;" points="24,114.5 21.4,124.7 12.9,124.7 19.8,131 17.1,141.2 24,134.9 30.9,141.2 28.2,131 
			35.1,124.7 26.6,124.7 		"/>
		<polygon style="fill:#FFFFFF;" points="24,166.2 21.4,176.4 12.9,176.4 19.8,182.7 17.1,192.9 24,186.6 30.9,192.9 28.2,182.7 
			35.1,176.4 26.6,176.4 		"/>
		<polygon style="fill:#FFFFFF;" points="26.6,228.1 24,217.8 21.4,228.1 12.9,228.1 19.8,234.4 17.1,244.6 24,238.3 30.9,244.6 
			28.2,234.4 35.1,228.1 		"/>
		<polygon style="fill:#FFFFFF;" points="48,36.9 45.4,47.1 36.9,47.1 43.8,53.4 41.1,63.6 48,57.3 54.9,63.6 52.2,53.4 59.1,47.1 
			50.6,47.1 		"/>
		<polygon style="fill:#FFFFFF;" points="48,88.6 45.4,98.8 36.9,98.8 43.8,105.1 41.1,115.3 48,109 54.9,115.3 52.2,105.1 
			59.1,98.8 50.6,98.8 		"/>
		<polygon style="fill:#FFFFFF;" points="48,140.3 45.4,150.5 36.9,150.5 43.8,156.8 41.1,167 48,160.7 54.9,167 52.2,156.8 
			59.1,150.5 50.6,150.5 		"/>
		<polygon style="fill:#FFFFFF;" points="50.6,202.2 48,192 45.4,202.2 36.9,202.2 43.8,208.5 41.1,218.7 48,212.4 54.9,218.7 
			52.2,208.5 59.1,202.2 		"/>
		<polygon style="fill:#FFFFFF;" points="72,11.1 69.4,21.3 60.9,21.3 67.8,27.6 65.1,37.8 72,31.5 78.9,37.8 76.2,27.6 83.1,21.3 
			74.6,21.3 		"/>
		<polygon style="fill:#FFFFFF;" points="72,62.8 69.4,73 60.9,73 67.8,79.3 65.1,89.5 72,83.2 78.9,89.5 76.2,79.3 83.1,73 
			74.6,73 		"/>
		<polygon style="fill:#FFFFFF;" points="72,114.5 69.4,124.7 60.9,124.7 67.8,131 65.1,141.2 72,134.9 78.9,141.2 76.2,131 
			83.1,124.7 74.6,124.7 		"/>
		<polygon style="fill:#FFFFFF;" points="72,166.2 69.4,176.4 60.9,176.4 67.8,182.7 65.1,192.9 72,186.6 78.9,192.9 76.2,182.7 
			83.1,176.4 74.6,176.4 		"/>
		<polygon style="fill:#FFFFFF;" points="74.6,228.1 72,217.8 69.4,228.1 60.9,228.1 67.8,234.4 65.1,244.6 72,238.3 78.9,244.6 
			76.2,234.4 83.1,228.1 		"/>
		<polygon style="fill:#FFFFFF;" points="96,36.9 93.4,47.1 84.9,47.1 91.8,53.4 89.1,63.6 96,57.3 102.9,63.6 100.2,53.4 
			107.1,47.1 98.6,47.1 		"/>
		<polygon style="fill:#FFFFFF;" points="96,88.6 93.4,98.8 84.9,98.8 91.8,105.1 89.1,115.3 96,109 102.9,115.3 100.2,105.1 
			107.1,98.8 98.6,98.8 		"/>
		<polygon style="fill:#FFFFFF;" points="96,140.3 93.4,150.5 84.9,150.5 91.8,156.8 89.1,167 96,160.7 102.9,167 100.2,156.8 
			107.1,150.5 98.6,150.5 		"/>
		<polygon style="fill:#FFFFFF;" points="98.6,202.2 96,192 93.4,202.2 84.9,202.2 91.8,208.5 89.1,218.7 96,212.4 102.9,218.7 
			100.2,208.5 107.1,202.2 		"/>
		<polygon style="fill:#FFFFFF;" points="120,11.1 117.4,21.3 108.9,21.3 115.8,27.6 113.1,37.8 120,31.5 126.9,37.8 124.2,27.6 
			131.1,21.3 122.6,21.3 		"/>
		<polygon style="fill:#FFFFFF;" points="120,62.8 117.4,73 108.9,73 115.8,79.3 113.1,89.5 120,83.2 126.9,89.5 124.2,79.3 
			131.1,73 122.6,73 		"/>
		<polygon style="fill:#FFFFFF;" points="120,114.5 117.4,124.7 108.9,124.7 115.8,131 113.1,141.2 120,134.9 126.9,141.2 
			124.2,131 131.1,124.7 122.6,124.7 		"/>
		<polygon style="fill:#FFFFFF;" points="120,166.2 117.4,176.4 108.9,176.4 115.8,182.7 113.1,192.9 120,186.6 126.9,192.9 
			124.2,182.7 131.1,176.4 122.6,176.4 		"/>
		<polygon style="fill:#FFFFFF;" points="122.6,228.1 120,217.8 117.4,228.1 108.9,228.1 115.8,234.4 113.1,244.6 120,238.3 
			126.9,244.6 124.2,234.4 131.1,228.1 		"/>
		<polygon style="fill:#FFFFFF;" points="144,36.9 141.4,47.1 132.9,47.1 139.8,53.4 137.1,63.6 144,57.3 150.9,63.6 148.2,53.4 
			155.1,47.1 146.6,47.1 		"/>
		<polygon style="fill:#FFFFFF;" points="144,88.6 141.4,98.8 132.9,98.8 139.8,105.1 137.1,115.3 144,109 150.9,115.3 148.2,105.1 
			155.1,98.8 146.6,98.8 		"/>
		<polygon style="fill:#FFFFFF;" points="144,140.3 141.4,150.5 132.9,150.5 139.8,156.8 137.1,167 144,160.7 150.9,167 
			148.2,156.8 155.1,150.5 146.6,150.5 		"/>
		<polygon style="fill:#FFFFFF;" points="146.6,202.2 144,192 141.4,202.2 132.9,202.2 139.8,208.5 137.1,218.7 144,212.4 
			150.9,218.7 148.2,208.5 155.1,202.2 		"/>
		<polygon style="fill:#FFFFFF;" points="168,11.1 165.4,21.3 156.9,21.3 163.8,27.6 161.1,37.8 168,31.5 174.9,37.8 172.2,27.6 
			179.1,21.3 170.6,21.3 		"/>
		<polygon style="fill:#FFFFFF;" points="168,62.8 165.4,73 156.9,73 163.8,79.3 161.1,89.5 168,83.2 174.9,89.5 172.2,79.3 
			179.1,73 170.6,73 		"/>
		<polygon style="fill:#FFFFFF;" points="168,114.5 165.4,124.7 156.9,124.7 163.8,131 161.1,141.2 168,134.9 174.9,141.2 
			172.2,131 179.1,124.7 170.6,124.7 		"/>
		<polygon style="fill:#FFFFFF;" points="168,166.2 165.4,176.4 156.9,176.4 163.8,182.7 161.1,192.9 168,186.6 174.9,192.9 
			172.2,182.7 179.1,176.4 170.6,176.4 		"/>
		<polygon style="fill:#FFFFFF;" points="170.6,228.1 168,217.8 165.4,228.1 156.9,228.1 163.8,234.4 161.1,244.6 168,238.3 
			174.9,244.6 172.2,234.4 179.1,228.1 		"/>
		<polygon style="fill:#FFFFFF;" points="192,36.9 189.4,47.1 180.9,47.1 187.8,53.4 185.1,63.6 192,57.3 198.9,63.6 196.2,53.4 
			203.1,47.1 194.6,47.1 		"/>
		<polygon style="fill:#FFFFFF;" points="192,88.6 189.4,98.8 180.9,98.8 187.8,105.1 185.1,115.3 192,109 198.9,115.3 196.2,105.1 
			203.1,98.8 194.6,98.8 		"/>
		<polygon style="fill:#FFFFFF;" points="192,140.3 189.4,150.5 180.9,150.5 187.8,156.8 185.1,167 192,160.7 198.9,167 
			196.2,156.8 203.1,150.5 194.6,150.5 		"/>
		<polygon style="fill:#FFFFFF;" points="194.6,202.2 192,192 189.4,202.2 180.9,202.2 187.8,208.5 185.1,218.7 192,212.4 
			198.9,218.7 196.2,208.5 203.1,202.2 		"/>
		<polygon style="fill:#FFFFFF;" points="216,11.1 213.4,21.3 204.9,21.3 211.8,27.6 209.1,37.8 216,31.5 222.9,37.8 220.2,27.6 
			227.1,21.3 218.6,21.3 		"/>
		<polygon style="fill:#FFFFFF;" points="216,62.8 213.4,73 204.9,73 211.8,79.3 209.1,89.5 216,83.2 222.9,89.5 220.2,79.3 
			227.1,73 218.6,73 		"/>
		<polygon style="fill:#FFFFFF;" points="216,114.5 213.4,124.7 204.9,124.7 211.8,131 209.1,141.2 216,134.9 222.9,141.2 
			220.2,131 227.1,124.7 218.6,124.7 		"/>
		<polygon style="fill:#FFFFFF;" points="216,166.2 213.4,176.4 204.9,176.4 211.8,182.7 209.1,192.9 216,186.6 222.9,192.9 
			220.2,182.7 227.1,176.4 218.6,176.4 		"/>
		<polygon style="fill:#FFFFFF;" points="218.6,228.1 216,217.8 213.4,228.1 204.9,228.1 211.8,234.4 209.1,244.6 216,238.3 
			222.9,244.6 220.2,234.4 227.1,228.1 		"/>
		<polygon style="fill:#FFFFFF;" points="240,36.9 237.4,47.1 228.9,47.1 235.8,53.4 233.1,63.6 240,57.3 246.9,63.6 244.2,53.4 
			251.1,47.1 242.6,47.1 		"/>
		<polygon style="fill:#FFFFFF;" points="240,88.6 237.4,98.8 228.9,98.8 235.8,105.1 233.1,115.3 240,109 246.9,115.3 244.2,105.1 
			251.1,98.8 242.6,98.8 		"/>
		<polygon style="fill:#FFFFFF;" points="240,140.3 237.4,150.5 228.9,150.5 235.8,156.8 233.1,167 240,160.7 246.9,167 
			244.2,156.8 251.1,150.5 242.6,150.5 		"/>
		<polygon style="fill:#FFFFFF;" points="242.6,202.2 240,192 237.4,202.2 228.9,202.2 235.8,208.5 233.1,218.7 240,212.4 
			246.9,218.7 244.2,208.5 251.1,202.2 		"/>
		<polygon style="fill:#FFFFFF;" points="259.8,27.6 257.1,37.8 264,31.5 270.9,37.8 268.2,27.6 275.1,21.3 266.6,21.3 264,11.1 
			261.4,21.3 252.9,21.3 		"/>
		<polygon style="fill:#FFFFFF;" points="264,62.8 261.4,73 252.9,73 259.8,79.3 257.1,89.5 264,83.2 270.9,89.5 268.2,79.3 
			275.1,73 266.6,73 		"/>
		<polygon style="fill:#FFFFFF;" points="264,114.5 261.4,124.7 252.9,124.7 259.8,131 257.1,141.2 264,134.9 270.9,141.2 
			268.2,131 275.1,124.7 266.6,124.7 		"/>
		<polygon style="fill:#FFFFFF;" points="264,166.2 261.4,176.4 252.9,176.4 259.8,182.7 257.1,192.9 264,186.6 270.9,192.9 
			268.2,182.7 275.1,176.4 266.6,176.4 		"/>
		<polygon style="fill:#FFFFFF;" points="266.6,228.1 264,217.8 261.4,228.1 252.9,228.1 259.8,234.4 257.1,244.6 264,238.3 
			270.9,244.6 268.2,234.4 275.1,228.1 		"/>
	</g>
</g>
</svg>
