<?xml version="1.0" encoding="utf-8"?>
<!-- Generator: Adobe Illustrator 25.2.1, SVG Export Plug-In . SVG Version: 6.00 Build 0)  -->
<svg version="1.1" id="Layer_1" xmlns="http://www.w3.org/2000/svg" xmlns:xlink="http://www.w3.org/1999/xlink" x="0px" y="0px"
	 viewBox="0 0 720 480" style="enable-background:new 0 0 720 480;" xml:space="preserve">
<g>
	<path style="fill:#FFFFFF;" d="M0,0h720v480H0V0z"/>
	<path style="fill:#0038A8;" d="M266.7,53.3H720v53.3H266.7V53.3z M266.7,160H720v53.3H266.7V160z M0,266.7h720V320H0V266.7z
		 M0,373.3h720v53.3H0V373.3z"/>
	<g transform="translate(234.285 -392.52) scale(3.77953)">
		<g>
			<g>
				<path style="fill:#FCD116;stroke:#7B3F00;stroke-width:2.3093;stroke-linecap:square;stroke-miterlimit:75.5906;" d="M-28.3,146
					l2.3,3.5c-9.6,6.9-3.7,11.1-10.5,13.3c4.2-4.1-0.6-4.8,3-13.4"/>
				<g>
					<path style="fill:#FCD116;stroke:#7B3F00;stroke-width:2.3093;stroke-linecap:square;stroke-miterlimit:75.5906;" d="
						M-32.7,142.9l-0.8,4.1c-11.7-1.9-10.5,5.2-16.8,1.9c5.9,0.1,3.1-3.8,11.7-7.4"/>
					<path style="fill:#7B3F00;stroke:#7B3F00;stroke-width:1.0507;stroke-linecap:square;stroke-miterlimit:75.5906;" d="
						M-32.7,142.9l-1.8-0.3l0,0.1c-4.9,1.2-7.6,3.2-9.7,4.8c-1,0.8-1.9,1.4-2.9,1.8c-0.6,0.2-1.3,0.3-2,0.2
						c5.1,1.8,4.7-4.2,15.6-2.5L-32.7,142.9z"/>
					<path style="fill:none;stroke:#7B3F00;stroke-width:2.3093;stroke-miterlimit:75.5906;" d="M-34.6,142.4
						c-9.9,2.4-10.9,8.3-15.8,6.5"/>
				</g>
				<path style="fill:#FCD116;stroke:#7B3F00;stroke-width:2.3093;stroke-miterlimit:75.5906;" d="M-26.7,139.1l-3.3-3.3l-14.8,21.4
					l21.4-14.8L-26.7,139.1l-18.1,18.1"/>
				<g>
					<path style="fill:#FCD116;stroke:#7B3F00;stroke-width:2.3093;stroke-linecap:square;stroke-miterlimit:75.5906;" d="
						M-33.6,137.5l-3.5,2.3c-6.9-9.6-11.1-3.7-13.3-10.5c4.1,4.2,4.8-0.6,13.4,3"/>
					<path style="fill:#7B3F00;stroke:#7B3F00;stroke-width:1.0507;stroke-linecap:square;stroke-miterlimit:75.5906;" d="
						M-33.6,137.5l-1.1-1.5l0,0.1c-4.3-2.6-7.7-3.1-10.2-3.5c-1.3-0.2-2.4-0.4-3.3-0.8c-0.6-0.3-1.2-0.7-1.6-1.3
						c2.3,4.9,6.3,0.4,12.8,9.3L-33.6,137.5z"/>
					<path style="fill:none;stroke:#7B3F00;stroke-width:2.3093;stroke-miterlimit:75.5906;" d="M-34.6,135.9
						c-8.7-5.3-13.5-1.8-15.8-6.5"/>
					<path style="fill:#FCD116;stroke:#7B3F00;stroke-width:2.3093;stroke-miterlimit:75.5906;" d="M-26.7,139.1v-4.7l-25.6,4.7
						l25.6,4.7L-26.7,139.1h-25.6"/>
					<path style="fill:#7B3F00;" d="M-26.7,139.1v4.7V139.1h-25.6l25.6,4.7"/>
					<path style="fill:#FCD116;stroke:#7B3F00;stroke-width:2.3093;stroke-linecap:square;stroke-miterlimit:75.5906;" d="
						M-30.5,133.1l-4.1-0.8c1.9-11.7-5.2-10.5-1.9-16.8c-0.1,5.9,4,3.6,7.6,12.2"/>
					<path style="fill:#7B3F00;stroke:#7B3F00;stroke-width:1.0507;stroke-linecap:square;stroke-miterlimit:75.5906;" d="
						M-30.5,133.1l0.3-1.8l-0.1,0c-1.2-4.9-3.2-7.6-4.8-9.7c-0.8-1-1.4-1.9-1.8-2.9c-0.2-0.6-0.3-1.3-0.2-2
						c-1.8,5.1,4.2,4.7,2.5,15.6L-30.5,133.1z"/>
					<path style="fill:none;stroke:#7B3F00;stroke-width:2.3093;stroke-miterlimit:75.5906;" d="M-30,131.2
						c-2.4-9.9-8.3-10.9-6.5-15.8"/>
					<path style="fill:#FCD116;stroke:#7B3F00;stroke-width:2.3093;stroke-miterlimit:75.5906;" d="M-26.7,139.1l3.3-3.3L-44.8,121
						l14.8,21.4L-26.7,139.1L-44.8,121"/>
					<path style="fill:#7B3F00;" d="M-26.7,139.1l-3.3,3.3L-26.7,139.1L-44.8,121l14.8,21.4"/>
					<path style="fill:#FCD116;stroke:#7B3F00;stroke-width:2.3093;stroke-linecap:square;stroke-miterlimit:75.5906;" d="
						M-25.1,132.2l-2.3-3.5c9.6-6.9,3.7-11.1,10.5-13.3c-4.2,4.1,0.5,4.8-3,13.4"/>
					<path style="fill:#7B3F00;stroke:#7B3F00;stroke-width:1.0507;stroke-linecap:square;stroke-miterlimit:75.5906;" d="
						M-25.1,132.2l1.5-1.1l-0.1,0c2.6-4.3,3.1-7.7,3.5-10.2c0.2-1.3,0.4-2.4,0.8-3.3c0.3-0.6,0.7-1.2,1.3-1.6
						c-4.9,2.3-0.4,6.3-9.3,12.8L-25.1,132.2z"/>
					<path style="fill:none;stroke:#7B3F00;stroke-width:2.3093;stroke-miterlimit:75.5906;" d="M-23.4,131.2
						c5.3-8.7,1.8-13.5,6.5-15.8"/>
					<path style="fill:#FCD116;stroke:#7B3F00;stroke-width:2.3093;stroke-miterlimit:75.5906;" d="M-26.7,139.1h4.7l-4.7-25.6
						l-4.7,25.6H-26.7v-25.6"/>
					<path style="fill:#7B3F00;" d="M-26.7,139.1h-4.7H-26.7v-25.6l-4.7,25.6"/>
					<path style="fill:#FCD116;stroke:#7B3F00;stroke-width:2.3093;stroke-linecap:square;stroke-miterlimit:75.5906;" d="
						M-20.7,135.4l0.8-4.1c11.7,1.9,10.5-5.2,16.8-1.9c-5.9-0.1-3.3,3.8-11.9,7.4"/>
					<path style="fill:#7B3F00;stroke:#7B3F00;stroke-width:1.0507;stroke-linecap:square;stroke-miterlimit:75.5906;" d="
						M-20.7,135.4l1.8,0.3l0-0.1c4.9-1.2,7.6-3.2,9.7-4.8c1-0.8,1.9-1.4,2.9-1.8c0.6-0.2,1.3-0.3,2-0.2c-5.1-1.8-4.7,4.2-15.6,2.5
						L-20.7,135.4z"/>
					<path style="fill:none;stroke:#7B3F00;stroke-width:2.3093;stroke-miterlimit:75.5906;" d="M-18.8,135.9
						c9.9-2.4,10.9-8.3,15.8-6.5"/>
					<path style="fill:#FCD116;stroke:#7B3F00;stroke-width:2.3093;stroke-miterlimit:75.5906;" d="M-26.7,139.1l3.3,3.3L-8.6,121
						L-30,135.8L-26.7,139.1L-8.6,121"/>
					<path style="fill:#7B3F00;" d="M-26.7,139.1l-3.3-3.3L-26.7,139.1L-8.6,121L-30,135.8"/>
					<path style="fill:#FCD116;stroke:#7B3F00;stroke-width:2.3093;stroke-linecap:square;stroke-miterlimit:75.5906;" d="
						M-19.8,140.7l3.5-2.3c6.9,9.6,11.1,3.7,13.3,10.5c-4.1-4.2-4.9,0.5-13.5-3.1"/>
					<path style="fill:#7B3F00;stroke:#7B3F00;stroke-width:1.0507;stroke-linecap:square;stroke-miterlimit:75.5906;" d="
						M-19.8,140.7l1.1,1.5l0-0.1c4.3,2.6,7.7,3.1,10.2,3.5c1.3,0.2,2.4,0.4,3.3,0.8c0.6,0.3,1.2,0.7,1.6,1.3
						c-2.3-4.9-6.3-0.4-12.8-9.3L-19.8,140.7z"/>
					<path style="fill:none;stroke:#7B3F00;stroke-width:2.3093;stroke-miterlimit:75.5906;" d="M-18.8,142.4
						c8.7,5.3,13.5,1.8,15.8,6.5"/>
					<path style="fill:#FCD116;stroke:#7B3F00;stroke-width:2.3093;stroke-miterlimit:75.5906;" d="M-26.7,139.1v4.7l25.6-4.7
						l-25.6-4.7V139.1h25.6"/>
					<path style="fill:#7B3F00;" d="M-26.7,139.1v-4.7V139.1h25.6l-25.6-4.7"/>
					<path style="fill:#FCD116;stroke:#7B3F00;stroke-width:2.3093;stroke-linecap:square;stroke-miterlimit:75.5906;" d="
						M-23,145.1l4.1,0.8c-1.9,11.7,5.2,10.5,1.9,16.8c0.1-5.9-3.8-3.2-7.4-11.8"/>
					<path style="fill:#7B3F00;stroke:#7B3F00;stroke-width:1.0507;stroke-linecap:square;stroke-miterlimit:75.5906;" d="
						M-23,145.1l-0.3,1.8l0.1,0c1.2,4.9,3.2,7.6,4.8,9.7c0.8,1,1.4,1.9,1.8,2.9c0.2,0.6,0.3,1.3,0.2,2c1.8-5.1-4.2-4.7-2.5-15.6
						L-23,145.1z"/>
					<path style="fill:none;stroke:#7B3F00;stroke-width:2.3093;stroke-miterlimit:75.5906;" d="M-23.4,147
						c2.4,9.9,8.3,10.9,6.5,15.8"/>
					<path style="fill:#FCD116;stroke:#7B3F00;stroke-width:2.3093;stroke-miterlimit:75.5906;" d="M-26.7,139.1l-3.3,3.3l21.4,14.8
						l-14.8-21.4L-26.7,139.1l18.1,18.1"/>
					<path style="fill:#7B3F00;" d="M-26.7,139.1l3.3-3.3L-26.7,139.1l18.1,18.1l-14.8-21.4"/>
				</g>
			</g>
			<path style="fill:#7B3F00;stroke:#7B3F00;stroke-width:1.0507;stroke-linecap:square;stroke-miterlimit:75.5906;" d="M-28.3,146
				l-1.5,1.1l0.1,0c-2.6,4.3-3.1,7.7-3.5,10.2c-0.2,1.3-0.4,2.4-0.8,3.3c-0.3,0.6-0.7,1.2-1.3,1.6c4.9-2.3,0.4-6.3,9.3-12.8
				L-28.3,146z"/>
			<g>
				<path style="fill:none;stroke:#7B3F00;stroke-width:2.3093;stroke-miterlimit:75.5906;" d="M-30,147c-5.3,8.7-1.8,13.5-6.5,15.8
					"/>
				<path style="fill:#FCD116;stroke:#7B3F00;stroke-width:2.3093;stroke-miterlimit:75.5906;" d="M-26.7,139.1h-4.7l4.7,25.6
					l4.7-25.6H-26.7v25.6"/>
			</g>
		</g>
		<path style="fill:#7B3F00;" d="M-26.7,139.1h4.7H-26.7v25.6l4.7-25.6"/>
		<path style="fill:#7B3F00;" d="M-26.7,139.1l3.3,3.3L-26.7,139.1l-18.1,18.1l21.4-14.8"/>
		<circle style="fill:#FCD116;stroke:#7B3F00;stroke-width:2.3093;stroke-miterlimit:75.5906;" cx="-26.7" cy="139.1" r="8.5"/>
		<g>
			<path style="fill:#7B3F00;" d="M-20.4,135.7c-0.5,0.6-0.9-0.5-2.8-0.5s-2.3,1.2-2.6,0.9c-0.3-0.2,1.6-1.6,2.3-1.7
				C-22.9,134.4-21.1,135-20.4,135.7 M-22.7,136.4c0.5,0.5,0.1,1.5-0.5,1.5c-0.5,0-1.6-0.9-1.1-1.6"/>
			<path style="fill:#7B3F00;" d="M-25.2,137.1c0.1-0.9,0.9-1.1,2.1-1.1c1.2,0,1.8,0.9,2.3,1.2c-0.5,0-1-0.8-2.3-0.8
				C-24.4,136.4-24.4,136.4-25.2,137.1 M-25,137.3c0.3-0.5,0.7,0.5,1.6,0.5c0.9,0,1.3-0.2,1.9-0.6c0.5-0.4-0.8,0.9-1.6,0.9
				C-24.1,138.1-25.2,137.7-25,137.3 M-31.1,136.3c-0.4,0.2-1,0.9,0,1.5C-31.8,137.3-31.2,136.5-31.1,136.3z"/>
			<path style="fill:#7B3F00;" d="M-22.4,136.3c0.2,0.2,0.8,0.9,0,1.5C-21.4,137.3-22,136.5-22.4,136.3z M-28,139.7
				c-0.7,0.2-0.5,1.2-1.1,1.2c-0.6,0.1-0.9,0.8-0.9,0.7c0.4-0.3,1.2-0.5,1.9-0.5c0.6,0,0.8,0.4,1.3,0.4s0.7-0.4,1.3-0.4
				s1.5,0.2,1.9,0.5c0.1,0.1-0.2-0.6-0.9-0.7c-0.6-0.1-0.4-1.1-1.1-1.2c0,0.3,0.2,0.2,0.3,0.7c0,0.4-0.7,0.4-0.9,0
				c0.2,0.6-0.3,0.6-0.7,0.6s-0.9,0-0.7-0.6c-0.2,0.4-0.9,0.4-0.9,0C-28.2,139.9-28,140-28,139.7z M-30.4,142.3
				c-0.6,0.5-0.8,0.7-0.9,1.2c0.2-0.3,0.3-0.5,0.4-0.7l-0.1,0c0,0,0.1,0,0.1,0C-30.7,142.7-30.6,142.6-30.4,142.3L-30.4,142.3z"/>
			<path style="fill:#7B3F00;" d="M-30.8,142.9L-30.8,142.9c0.1,0,0.2,0,0.3,0C-30.6,142.9-30.7,142.9-30.8,142.9L-30.8,142.9z
				 M-30.5,142.9c0.5,0.1,0.9,0.2,1.2,0.3c0.4,0,1-0.1,2.6-0.1s2.1,0.1,2.6,0.1c0.3-0.1,0.7-0.2,1.2-0.3c-0.9,0-2-0.6-2.5-0.6
				c-0.6,0-0.8,0.2-1.2,0.2c-0.5,0-0.6-0.2-1.2-0.2C-28.5,142.3-29.6,142.9-30.5,142.9L-30.5,142.9z M-22.9,142.9c0.1,0,0.2,0,0.3,0
				l0,0C-22.8,142.9-22.9,142.9-22.9,142.9L-22.9,142.9z"/>
			<path style="fill:#7B3F00;" d="M-22.6,142.9c0,0,0.1,0,0.1,0C-22.6,142.9-22.6,142.9-22.6,142.9c0.2,0.2,0.3,0.4,0.4,0.7
				c-0.1-0.5-0.2-0.8-0.9-1.2C-22.8,142.6-22.7,142.7-22.6,142.9L-22.6,142.9z"/>
			<path style="fill:#7B3F00;" d="M-22.6,142.9C-22.6,142.9-22.6,142.9-22.6,142.9c-0.8,0.3-1.1,0.4-1.5,0.3
				c-0.7,0.2-1.3,0.5-2.6,0.5s-1.8-0.2-2.6-0.5c-0.4,0-0.7,0-1.5-0.3c0,0,0,0,0,0c2.4,1,2.2,1.4,4.1,1.4S-25.1,144-22.6,142.9
				L-22.6,142.9z M-30.8,142.9C-30.8,142.9-30.8,142.9-30.8,142.9c0,0-0.1,0-0.1,0C-30.9,142.9-30.8,142.9-30.8,142.9L-30.8,142.9z
				 M-22.6,142.9c0,0,0.1,0,0.1,0C-22.6,142.9-22.6,142.9-22.6,142.9C-22.6,142.9-22.6,142.9-22.6,142.9L-22.6,142.9z M-33,135.7
				c0.5,0.6,0.9-0.5,2.8-0.5s2.3,1.2,2.6,0.9c0.3-0.2-1.6-1.6-2.3-1.7C-30.5,134.4-32.3,135-33,135.7 M-30.7,136.4
				c-0.5,0.5-0.1,1.5,0.5,1.5s1.6-0.9,1.1-1.6"/>
			<path style="fill:#7B3F00;" d="M-28.2,137.1c-0.1-0.9-0.9-1.1-2.1-1.1c-1.2,0-1.8,0.9-2.3,1.2c0.5,0,1-0.8,2.3-0.8
				C-29,136.4-29,136.4-28.2,137.1 M-28.4,137.3c-0.3-0.5-0.7,0.5-1.6,0.5s-1.3-0.2-1.9-0.6c-0.5-0.4,0.8,0.9,1.6,0.9
				S-28.2,137.7-28.4,137.3 M-26.7,145c-0.4,0-1.4,0.2,0,0.2S-26.3,145-26.7,145"/>
		</g>
	</g>
</g>
</svg>
