<?xml version="1.0" encoding="utf-8"?>
<!-- Generator: Adobe Illustrator 25.2.1, SVG Export Plug-In . SVG Version: 6.00 Build 0)  -->
<svg version="1.1" id="Layer_1" xmlns="http://www.w3.org/2000/svg" xmlns:xlink="http://www.w3.org/1999/xlink" x="0px" y="0px"
	 viewBox="0 0 720 480" style="enable-background:new 0 0 720 480;" xml:space="preserve">
<g>
	<path style="fill:#CF142B;" d="M0,0h720v480H0V0z"/>
	<path style="fill:#00247D;" d="M0,0h720v320H0V0z"/>
	<path style="fill:#FFCC00;" d="M0,0h720v160H0V0z"/>
	<g>
		<polygon style="fill:#FFFFFF;" points="390.5,188.9 388.5,174.5 381.7,187.3 367.3,184.8 377.4,195.3 370.6,208.1 383.7,201.7 
			393.8,212.2 391.8,197.8 404.8,191.4 		"/>
		<polygon style="fill:#FFFFFF;" points="437.1,217 451.6,215.5 439,208.2 442,194 431.2,203.7 418.6,196.4 424.5,209.7 
			413.7,219.4 428.2,217.9 434.1,231.2 		"/>
		<polygon style="fill:#FFFFFF;" points="473.2,250.5 487.3,254 477.9,242.9 485.6,230.6 472.2,236 462.8,224.9 463.8,239.4 
			450.4,244.8 464.5,248.3 465.5,262.8 		"/>
		<polygon style="fill:#FFFFFF;" points="502.7,288.9 514.1,279.9 499.6,280.4 494.6,266.8 490.6,280.7 476.1,281.2 488.1,289.4 
			484.1,303.3 495.6,294.4 507.6,302.5 		"/>
		<polygon style="fill:#FFFFFF;" points="229.4,280.7 225.4,266.8 220.4,280.4 205.9,279.9 217.3,288.9 212.4,302.5 224.4,294.4 
			235.9,303.3 231.9,289.4 243.9,281.2 		"/>
		<polygon style="fill:#FFFFFF;" points="256.2,239.4 257.2,224.9 247.8,236 234.4,230.6 242.1,242.9 232.7,254 246.8,250.5 
			254.5,262.8 255.5,248.3 269.6,244.8 		"/>
		<polygon style="fill:#FFFFFF;" points="295.5,209.7 301.4,196.4 288.8,203.7 278,194 281,208.2 268.4,215.5 282.9,217 
			285.9,231.2 291.8,217.9 306.3,219.4 		"/>
		<polygon style="fill:#FFFFFF;" points="338.3,187.3 331.5,174.5 329.5,188.9 315.2,191.4 328.2,197.8 326.2,212.2 336.3,201.7 
			349.4,208.1 342.6,195.3 352.7,184.8 		"/>
	</g>
</g>
</svg>
