<?xml version="1.0" encoding="utf-8"?>
<!-- Generator: Adobe Illustrator 25.2.1, SVG Export Plug-In . SVG Version: 6.00 Build 0)  -->
<svg version="1.1" id="Layer_1" xmlns="http://www.w3.org/2000/svg" xmlns:xlink="http://www.w3.org/1999/xlink" x="0px" y="0px"
	 viewBox="0 0 1200 600" style="enable-background:new 0 0 1200 600;" xml:space="preserve">
<path style="fill:#012169;" d="M0,0h1200v600H0V0z"/>
<path style="fill:#FFFFFF;" d="M776.3,144.1l250.4-0.9l-0.5,223c0,0,8.8,33.9-105,85.5c40.9-4.2,85.5-47.9,85.5-47.9
	s18.1-23.2,26.9-10.2c8.8,13,17.2,19.5,23.7,24.6c6.5,5.1,11.6,19,1.9,29.3s-25.1,11.6-29.3-0.9c-6.5,3.3-46.5,51.6-128.2,53.9
	C818.5,499,773,446,773,446s-11.2,17.7-26.9,3.7c-15.3-18.1-3.7-29.7-3.7-29.7s13-7.4,16.7-12.5c6-7,7.9-16.3,18.1-16.3
	c12.1,0.9,16.7,10.7,16.7,10.7s41.8,44.1,86.9,49.7c-101.7-48.8-105.5-79-105-86.4L776.3,144.1L776.3,144.1z"/>
<path style="fill:#006129;stroke:#000000;stroke-width:1.887;" d="M782.3,150.1l238.8-1.4v214.6c0.5,27.9-46.5,56.2-119.9,92.4
	c-75.7-39-119.4-62.7-119.9-92.9L782.3,150.1L782.3,150.1z"/>
<g id="c">
	<path style="fill:none;stroke:#FFC72C;stroke-width:1.887;" d="M814.8,181.8l14.1-20.7l14.2,20.7"/>
	<path style="fill:none;stroke:#FFC72C;stroke-width:1.887;" d="M0,0"/>
	<path style="fill:#FFC72C;stroke:#000000;stroke-width:0.944;" d="M817.4,197.1l21.9,0.1c0,0,0.3-2.8-2.3-4.6
		c11.4-1.6,8.5-11.7,18.1-12.2c1.9,0.3-5,4.3-5,4.3s-5.8,4.1-3.1,6.2c2.1,1.6,3-1,3.3-3c0.3-2,9.3-3.3,8-9
		c-2.1-4.7-14.7,3.1-14.7,3.1l-9-0.1c-0.6-1-3-5.1-5.6-5.1c-3,0.1-5.2,5.1-5.2,5.1h-20.3c0,0-0.7,5.2,9.6,6.2c2.3,3,4.1,3.9,6.1,4.7
		C817.8,193.9,817.4,195.3,817.4,197.1L817.4,197.1z M819,192.7l18.2-0.1 M810.7,182c0,0,1.5,8.5,8.2,10.5"/>
	
		<linearGradient id="SVGID_1_" gradientUnits="userSpaceOnUse" x1="102.5398" y1="557.7775" x2="92.0078" y2="561.2895" gradientTransform="matrix(0.9961 0 0 -2.2525 705.0077 1427.7937)">
		<stop  offset="0" style="stop-color:#FF0000"/>
		<stop  offset="1" style="stop-color:#FFFF00"/>
	</linearGradient>
	<path style="fill:url(#SVGID_1_);stroke:#000000;stroke-width:0.944;" d="M809.6,181.8c0.7-3.2,1.9-3.8,3.2-8
		c0.2-4-3.2-3.6-2.2-6.2c1.8-2.8,0.9-5.5-2.5-7.6c0.7,3.7-4.4,7.2-4.4,10.2c0,3,2.6,2.4,2.2,6.9c0.2,2.7-0.7,2-0.9,4.6H809.6z"/>
	
		<linearGradient id="SVGID_2_" gradientUnits="userSpaceOnUse" x1="-707.7396" y1="633.8566" x2="-707.7396" y2="633.8566" gradientTransform="matrix(0.9961 0 0 -2.2525 705.0077 1427.7937)">
		<stop  offset="0" style="stop-color:#FF0000"/>
		<stop  offset="1" style="stop-color:#FFFF00"/>
	</linearGradient>
	<path style="fill:url(#SVGID_2_);stroke:#000000;stroke-width:0.944;" d="M0,0"/>
</g>
<g>
	<g id="c_1_">
		<path style="fill:none;stroke:#FFC72C;stroke-width:1.887;" d="M814,223.1l14.1-20.7l14.2,20.7"/>
		<path style="fill:none;stroke:#FFC72C;stroke-width:1.887;" d="M-0.8,41.3"/>
		<path style="fill:#FFC72C;stroke:#000000;stroke-width:0.944;" d="M816.7,238.4l21.9,0.1c0,0,0.3-2.8-2.3-4.6
			c11.4-1.6,8.5-11.7,18.1-12.2c1.9,0.3-5,4.3-5,4.3s-5.8,4.1-3.1,6.2c2.1,1.6,3-1,3.3-3c0.3-2,9.3-3.3,8-9
			c-2.1-4.7-14.7,3.1-14.7,3.1l-9-0.1c-0.6-1-3-5.1-5.6-5.1c-3,0.1-5.2,5.1-5.2,5.1h-20.3c0,0-0.7,5.2,9.6,6.2
			c2.3,3,4.1,3.9,6.1,4.7C817,235.3,816.7,236.6,816.7,238.4L816.7,238.4z M818.2,234l18.2-0.1 M809.9,223.3c0,0,1.5,8.5,8.2,10.5"
			/>
		
			<linearGradient id="SVGID_3_" gradientUnits="userSpaceOnUse" x1="102.5398" y1="557.7775" x2="92.0078" y2="561.2895" gradientTransform="matrix(0.9961 0 0 -2.2525 704.2357 1469.0977)">
			<stop  offset="0" style="stop-color:#FF0000"/>
			<stop  offset="1" style="stop-color:#FFFF00"/>
		</linearGradient>
		<path style="fill:url(#SVGID_3_);stroke:#000000;stroke-width:0.944;" d="M808.8,223.1c0.7-3.2,1.9-3.8,3.2-8
			c0.2-4-3.2-3.6-2.2-6.2c1.8-2.8,0.9-5.5-2.5-7.6c0.7,3.7-4.4,7.2-4.4,10.2c0,3,2.6,2.4,2.2,6.9c0.2,2.7-0.7,2-0.9,4.6H808.8z"/>
		
			<linearGradient id="SVGID_4_" gradientUnits="userSpaceOnUse" x1="-707.7396" y1="633.8566" x2="-707.7396" y2="633.8566" gradientTransform="matrix(0.9961 0 0 -2.2525 704.2357 1469.0977)">
			<stop  offset="0" style="stop-color:#FF0000"/>
			<stop  offset="1" style="stop-color:#FFFF00"/>
		</linearGradient>
		<path style="fill:url(#SVGID_4_);stroke:#000000;stroke-width:0.944;" d="M-0.8,41.3"/>
	</g>
</g>
<g>
	<g id="c_2_">
		<path style="fill:none;stroke:#FFC72C;stroke-width:1.887;" d="M813.7,263.8l14.1-20.7l14.2,20.7"/>
		<path style="fill:none;stroke:#FFC72C;stroke-width:1.887;" d="M-1.1,82"/>
		<path style="fill:#FFC72C;stroke:#000000;stroke-width:0.944;" d="M816.4,279.1l21.9,0.1c0,0,0.3-2.8-2.3-4.6
			c11.4-1.6,8.5-11.7,18.1-12.2c1.9,0.3-5,4.3-5,4.3s-5.8,4.1-3.1,6.2c2.1,1.6,3-1,3.3-3c0.3-2,9.3-3.3,8-9
			c-2.1-4.7-14.7,3.1-14.7,3.1l-9,0c-0.6-1-3-5.1-5.6-5.1c-3,0.1-5.2,5.1-5.2,5.1h-20.3c0,0-0.7,5.2,9.6,6.2c2.3,3,4.1,3.9,6.1,4.7
			C816.7,276,816.3,277.3,816.4,279.1L816.4,279.1z M817.9,274.7l18.2-0.1 M809.6,264c0,0,1.5,8.5,8.2,10.5"/>
		
			<linearGradient id="SVGID_5_" gradientUnits="userSpaceOnUse" x1="102.5398" y1="557.7775" x2="92.0078" y2="561.2895" gradientTransform="matrix(0.9961 0 0 -2.2525 703.9187 1509.8066)">
			<stop  offset="0" style="stop-color:#FF0000"/>
			<stop  offset="1" style="stop-color:#FFFF00"/>
		</linearGradient>
		<path style="fill:url(#SVGID_5_);stroke:#000000;stroke-width:0.944;" d="M808.5,263.9c0.7-3.2,1.9-3.8,3.2-8
			c0.2-4-3.2-3.6-2.2-6.2c1.8-2.8,0.9-5.5-2.5-7.6c0.7,3.7-4.4,7.2-4.4,10.2c0,3,2.6,2.4,2.2,6.9c0.2,2.7-0.7,2-0.9,4.6H808.5z"/>
		
			<linearGradient id="SVGID_6_" gradientUnits="userSpaceOnUse" x1="-707.7396" y1="633.8566" x2="-707.7396" y2="633.8566" gradientTransform="matrix(0.9961 0 0 -2.2525 703.9187 1509.8066)">
			<stop  offset="0" style="stop-color:#FF0000"/>
			<stop  offset="1" style="stop-color:#FFFF00"/>
		</linearGradient>
		<path style="fill:url(#SVGID_6_);stroke:#000000;stroke-width:0.944;" d="M-1.1,82"/>
	</g>
</g>
<g>
	<g id="c_3_">
		<path style="fill:none;stroke:#FFC72C;stroke-width:1.887;" d="M840.4,307.9l14.1-20.7l14.2,20.7"/>
		<path style="fill:none;stroke:#FFC72C;stroke-width:1.887;" d="M25.6,126.1"/>
		<path style="fill:#FFC72C;stroke:#000000;stroke-width:0.944;" d="M843.1,323.2l21.9,0.1c0,0,0.3-2.8-2.3-4.6
			c11.4-1.6,8.5-11.7,18.1-12.2c1.9,0.3-5,4.3-5,4.3s-5.8,4.1-3.1,6.2c2.1,1.6,3-1,3.3-3c0.3-2,9.3-3.3,8-9
			c-2.1-4.7-14.7,3.1-14.7,3.1l-9,0c-0.6-1-3-5.1-5.6-5.1c-3,0.1-5.2,5.1-5.2,5.1H829c0,0-0.7,5.2,9.6,6.2c2.3,3,4.1,3.9,6.1,4.7
			C843.4,320,843.1,321.4,843.1,323.2L843.1,323.2z M844.6,318.8l18.2-0.1 M836.3,308.1c0,0,1.5,8.5,8.2,10.5"/>
		
			<linearGradient id="SVGID_7_" gradientUnits="userSpaceOnUse" x1="102.5398" y1="557.7775" x2="92.0078" y2="561.2895" gradientTransform="matrix(0.9961 0 0 -2.2525 730.6347 1553.8927)">
			<stop  offset="0" style="stop-color:#FF0000"/>
			<stop  offset="1" style="stop-color:#FFFF00"/>
		</linearGradient>
		<path style="fill:url(#SVGID_7_);stroke:#000000;stroke-width:0.944;" d="M835.2,307.9c0.7-3.2,1.9-3.8,3.2-8
			c0.2-4-3.2-3.6-2.2-6.2c1.8-2.8,0.9-5.5-2.5-7.6c0.7,3.7-4.4,7.2-4.4,10.2c0,3,2.6,2.4,2.2,6.9c0.2,2.7-0.7,2-0.9,4.6H835.2z"/>
		
			<linearGradient id="SVGID_8_" gradientUnits="userSpaceOnUse" x1="-707.7396" y1="633.8566" x2="-707.7396" y2="633.8566" gradientTransform="matrix(0.9961 0 0 -2.2525 730.6347 1553.8927)">
			<stop  offset="0" style="stop-color:#FF0000"/>
			<stop  offset="1" style="stop-color:#FFFF00"/>
		</linearGradient>
		<path style="fill:url(#SVGID_8_);stroke:#000000;stroke-width:0.944;" d="M25.6,126.1"/>
	</g>
</g>
<g>
	<g id="c_4_">
		<path style="fill:none;stroke:#FFC72C;stroke-width:1.887;" d="M810.2,344l14.1-20.7l14.2,20.7"/>
		<path style="fill:none;stroke:#FFC72C;stroke-width:1.887;" d="M-4.6,162.2"/>
		<path style="fill:#FFC72C;stroke:#000000;stroke-width:0.944;" d="M812.9,359.3l21.9,0.1c0,0,0.3-2.8-2.3-4.6
			c11.4-1.6,8.5-11.7,18.1-12.2c1.9,0.3-5,4.3-5,4.3s-5.8,4.1-3.1,6.2c2.1,1.6,3-1,3.3-3c0.3-2,9.3-3.3,8-9
			c-2.1-4.7-14.7,3.1-14.7,3.1l-9,0c-0.6-1-3-5.1-5.6-5.1c-3,0.1-5.2,5.1-5.2,5.1h-20.3c0,0-0.7,5.2,9.6,6.2c2.3,3,4.1,3.9,6.1,4.7
			C813.2,356.1,812.9,357.5,812.9,359.3L812.9,359.3z M814.4,354.8l18.2-0.1 M806.1,344.1c0,0,1.5,8.5,8.2,10.5"/>
		
			<linearGradient id="SVGID_9_" gradientUnits="userSpaceOnUse" x1="102.5398" y1="557.7775" x2="92.0078" y2="561.2895" gradientTransform="matrix(0.9961 0 0 -2.2525 700.4337 1589.9567)">
			<stop  offset="0" style="stop-color:#FF0000"/>
			<stop  offset="1" style="stop-color:#FFFF00"/>
		</linearGradient>
		<path style="fill:url(#SVGID_9_);stroke:#000000;stroke-width:0.944;" d="M805,344c0.7-3.2,1.9-3.8,3.2-8c0.2-4-3.2-3.6-2.2-6.2
			c1.8-2.8,0.9-5.5-2.5-7.6c0.7,3.7-4.4,7.2-4.4,10.2c0,3,2.6,2.4,2.2,6.9c0.2,2.7-0.7,2-0.9,4.6H805z"/>
		
			<linearGradient id="SVGID_10_" gradientUnits="userSpaceOnUse" x1="-707.7396" y1="633.8566" x2="-707.7396" y2="633.8566" gradientTransform="matrix(0.9961 0 0 -2.2525 700.4337 1589.9567)">
			<stop  offset="0" style="stop-color:#FF0000"/>
			<stop  offset="1" style="stop-color:#FFFF00"/>
		</linearGradient>
		<path style="fill:url(#SVGID_10_);stroke:#000000;stroke-width:0.944;" d="M-4.6,162.2"/>
	</g>
</g>
<g>
	<g id="c_5_">
		<path style="fill:none;stroke:#FFC72C;stroke-width:1.887;" d="M811,386.6l14.1-20.7l14.2,20.7"/>
		<path style="fill:none;stroke:#FFC72C;stroke-width:1.887;" d="M-3.8,204.8"/>
		<path style="fill:#FFC72C;stroke:#000000;stroke-width:0.944;" d="M813.7,401.9l21.9,0.1c0,0,0.3-2.8-2.3-4.6
			c11.4-1.6,8.5-11.7,18.1-12.2c1.9,0.3-5,4.3-5,4.3s-5.8,4.1-3.1,6.2c2.1,1.6,3-1,3.3-3c0.3-2,9.3-3.3,8-9
			c-2.1-4.7-14.7,3.1-14.7,3.1l-9-0.1c-0.6-1-3-5-5.6-5.1c-3,0.1-5.2,5.1-5.2,5.1h-20.3c0,0-0.7,5.2,9.6,6.2c2.3,3,4.1,3.9,6.1,4.7
			C814,398.7,813.7,400.1,813.7,401.9L813.7,401.9z M815.2,397.5l18.2-0.1 M806.9,386.7c0,0,1.5,8.5,8.2,10.5"/>
		
			<linearGradient id="SVGID_11_" gradientUnits="userSpaceOnUse" x1="102.5398" y1="557.7775" x2="92.0078" y2="561.2895" gradientTransform="matrix(0.9961 0 0 -2.2525 701.2257 1632.5667)">
			<stop  offset="0" style="stop-color:#FF0000"/>
			<stop  offset="1" style="stop-color:#FFFF00"/>
		</linearGradient>
		<path style="fill:url(#SVGID_11_);stroke:#000000;stroke-width:0.944;" d="M805.8,386.6c0.7-3.2,1.9-3.8,3.2-8
			c0.2-4-3.2-3.6-2.2-6.2c1.8-2.8,0.9-5.5-2.5-7.6c0.7,3.7-4.4,7.2-4.4,10.2c0,3,2.6,2.4,2.2,6.9c0.2,2.7-0.7,2-0.9,4.6H805.8z"/>
		
			<linearGradient id="SVGID_12_" gradientUnits="userSpaceOnUse" x1="-707.7396" y1="633.8566" x2="-707.7396" y2="633.8566" gradientTransform="matrix(0.9961 0 0 -2.2525 701.2257 1632.5667)">
			<stop  offset="0" style="stop-color:#FF0000"/>
			<stop  offset="1" style="stop-color:#FFFF00"/>
		</linearGradient>
		<path style="fill:url(#SVGID_12_);stroke:#000000;stroke-width:0.944;" d="M-3.8,204.8"/>
	</g>
</g>
<g>
	<g id="c_6_">
		<path style="fill:none;stroke:#FFC72C;stroke-width:1.887;" d="M961.1,182.5l14.1-20.7l14.2,20.7"/>
		<path style="fill:none;stroke:#FFC72C;stroke-width:1.887;" d="M146.3,0.7"/>
		<path style="fill:#FFC72C;stroke:#000000;stroke-width:0.944;" d="M963.7,197.8l21.9,0.1c0,0,0.3-2.8-2.3-4.6
			c11.4-1.6,8.5-11.7,18.1-12.2c1.9,0.3-5,4.3-5,4.3s-5.8,4.1-3.1,6.2c2.1,1.6,3-1,3.3-3c0.3-2,9.3-3.3,8-9
			c-2.1-4.7-14.7,3.1-14.7,3.1l-9-0.1c-0.6-1-3-5.1-5.6-5.1c-3,0.1-5.2,5.1-5.2,5.1h-20.3c0,0-0.7,5.2,9.6,6.2
			c2.3,3,4.1,3.9,6.1,4.7C964.1,194.6,963.7,196,963.7,197.8L963.7,197.8z M965.3,193.4l18.2-0.1 M957,182.6c0,0,1.5,8.5,8.2,10.5"
			/>
		
			<linearGradient id="SVGID_13_" gradientUnits="userSpaceOnUse" x1="102.5398" y1="557.7775" x2="92.0078" y2="561.2895" gradientTransform="matrix(0.9961 0 0 -2.2525 851.2877 1428.4657)">
			<stop  offset="0" style="stop-color:#FF0000"/>
			<stop  offset="1" style="stop-color:#FFFF00"/>
		</linearGradient>
		<path style="fill:url(#SVGID_13_);stroke:#000000;stroke-width:0.944;" d="M955.8,182.5c0.7-3.2,1.9-3.8,3.2-8
			c0.2-4-3.2-3.6-2.2-6.2c1.8-2.8,0.9-5.5-2.5-7.6c0.7,3.7-4.4,7.2-4.4,10.2c0,3,2.6,2.4,2.2,6.9c0.2,2.7-0.7,2-0.9,4.6H955.8z"/>
		
			<linearGradient id="SVGID_14_" gradientUnits="userSpaceOnUse" x1="-707.7396" y1="633.8566" x2="-707.7396" y2="633.8566" gradientTransform="matrix(0.9961 0 0 -2.2525 851.2877 1428.4657)">
			<stop  offset="0" style="stop-color:#FF0000"/>
			<stop  offset="1" style="stop-color:#FFFF00"/>
		</linearGradient>
		<path style="fill:url(#SVGID_14_);stroke:#000000;stroke-width:0.944;" d="M146.3,0.7"/>
	</g>
</g>
<g>
	<g id="c_7_">
		<path style="fill:none;stroke:#FFC72C;stroke-width:1.887;" d="M959.7,223l14.1-20.7l14.2,20.7"/>
		<path style="fill:none;stroke:#FFC72C;stroke-width:1.887;" d="M144.9,41.2"/>
		<path style="fill:#FFC72C;stroke:#000000;stroke-width:0.944;" d="M962.4,238.3l21.9,0.1c0,0,0.3-2.8-2.3-4.6
			c11.4-1.6,8.5-11.7,18.1-12.2c1.9,0.3-5,4.3-5,4.3s-5.8,4.1-3.1,6.2c2.1,1.6,3-1,3.3-3c0.3-2,9.3-3.3,8-9
			c-2.1-4.7-14.7,3.1-14.7,3.1l-9-0.1c-0.6-1-3-5.1-5.6-5.1c-3,0.1-5.2,5.1-5.2,5.1h-20.3c0,0-0.7,5.2,9.6,6.2
			c2.3,3,4.1,3.9,6.1,4.7C962.8,235.2,962.4,236.5,962.4,238.3L962.4,238.3z M964,233.9l18.2-0.1 M955.6,223.2c0,0,1.5,8.5,8.2,10.5
			"/>
		
			<linearGradient id="SVGID_15_" gradientUnits="userSpaceOnUse" x1="102.5398" y1="557.7775" x2="92.0078" y2="561.2895" gradientTransform="matrix(0.9961 0 0 -2.2525 849.9437 1469.0117)">
			<stop  offset="0" style="stop-color:#FF0000"/>
			<stop  offset="1" style="stop-color:#FFFF00"/>
		</linearGradient>
		<path style="fill:url(#SVGID_15_);stroke:#000000;stroke-width:0.944;" d="M954.5,223.1c0.7-3.2,1.9-3.8,3.2-8
			c0.2-4-3.2-3.6-2.2-6.2c1.8-2.8,0.9-5.5-2.5-7.6c0.7,3.7-4.4,7.2-4.4,10.2c0,3,2.6,2.4,2.2,6.9c0.2,2.7-0.7,2-0.9,4.6H954.5z"/>
		
			<linearGradient id="SVGID_16_" gradientUnits="userSpaceOnUse" x1="-707.7396" y1="633.8566" x2="-707.7396" y2="633.8566" gradientTransform="matrix(0.9961 0 0 -2.2525 849.9437 1469.0117)">
			<stop  offset="0" style="stop-color:#FF0000"/>
			<stop  offset="1" style="stop-color:#FFFF00"/>
		</linearGradient>
		<path style="fill:url(#SVGID_16_);stroke:#000000;stroke-width:0.944;" d="M144.9,41.2"/>
	</g>
</g>
<g>
	<g id="c_8_">
		<path style="fill:none;stroke:#FFC72C;stroke-width:1.887;" d="M957.9,264.5l14.1-20.7l14.2,20.7"/>
		<path style="fill:none;stroke:#FFC72C;stroke-width:1.887;" d="M143.1,82.7"/>
		<path style="fill:#FFC72C;stroke:#000000;stroke-width:0.944;" d="M960.6,279.8l21.9,0.1c0,0,0.3-2.8-2.3-4.6
			c11.4-1.6,8.5-11.7,18.1-12.2c1.9,0.3-5,4.3-5,4.3s-5.8,4.1-3.1,6.2c2.1,1.6,3-1,3.3-3c0.3-2,9.3-3.3,8-9
			c-2.1-4.7-14.7,3.1-14.7,3.1l-9-0.1c-0.6-1-3-5-5.6-5.1c-3,0.1-5.2,5.1-5.2,5.1h-20.3c0,0-0.7,5.2,9.6,6.2c2.3,3,4.1,3.9,6.1,4.7
			C961,276.6,960.6,278,960.6,279.8L960.6,279.8z M962.2,275.3l18.2-0.1 M953.8,264.6c0,0,1.5,8.5,8.2,10.5"/>
		
			<linearGradient id="SVGID_17_" gradientUnits="userSpaceOnUse" x1="102.5398" y1="557.7775" x2="92.0078" y2="561.2895" gradientTransform="matrix(0.9961 0 0 -2.2525 848.1517 1510.4547)">
			<stop  offset="0" style="stop-color:#FF0000"/>
			<stop  offset="1" style="stop-color:#FFFF00"/>
		</linearGradient>
		<path style="fill:url(#SVGID_17_);stroke:#000000;stroke-width:0.944;" d="M952.7,264.5c0.7-3.2,1.9-3.8,3.2-8
			c0.2-4-3.2-3.6-2.2-6.2c1.8-2.8,0.9-5.5-2.5-7.6c0.7,3.7-4.4,7.2-4.4,10.2c0,3,2.6,2.4,2.2,6.9c0.2,2.7-0.7,2-0.9,4.6H952.7z"/>
		
			<linearGradient id="SVGID_18_" gradientUnits="userSpaceOnUse" x1="-707.7396" y1="633.8566" x2="-707.7396" y2="633.8566" gradientTransform="matrix(0.9961 0 0 -2.2525 848.1517 1510.4547)">
			<stop  offset="0" style="stop-color:#FF0000"/>
			<stop  offset="1" style="stop-color:#FFFF00"/>
		</linearGradient>
		<path style="fill:url(#SVGID_18_);stroke:#000000;stroke-width:0.944;" d="M143.1,82.7"/>
	</g>
</g>
<g>
	<g id="c_9_">
		<path style="fill:none;stroke:#FFC72C;stroke-width:1.887;" d="M960,305.3l14.1-20.7l14.2,20.7"/>
		<path style="fill:none;stroke:#FFC72C;stroke-width:1.887;" d="M145.2,123.4"/>
		<path style="fill:#FFC72C;stroke:#000000;stroke-width:0.944;" d="M962.6,320.5l21.9,0.1c0,0,0.3-2.8-2.3-4.6
			c11.4-1.6,8.5-11.7,18.1-12.2c1.9,0.3-5,4.3-5,4.3s-5.8,4.1-3.1,6.2c2.1,1.6,3-1,3.3-3s9.3-3.3,8-9c-2.1-4.7-14.7,3.1-14.7,3.1
			l-9,0c-0.6-1-3-5.1-5.6-5.1c-3,0.1-5.2,5.1-5.2,5.1h-20.3c0,0-0.7,5.2,9.6,6.2c2.3,3,4.1,3.9,6.1,4.7
			C963,317.4,962.6,318.7,962.6,320.5L962.6,320.5z M964.2,316.1l18.2-0.1 M955.8,305.4c0,0,1.5,8.5,8.2,10.5"/>
		
			<linearGradient id="SVGID_19_" gradientUnits="userSpaceOnUse" x1="102.5398" y1="557.7775" x2="92.0078" y2="561.2895" gradientTransform="matrix(0.9961 0 0 -2.2525 850.1677 1551.2247)">
			<stop  offset="0" style="stop-color:#FF0000"/>
			<stop  offset="1" style="stop-color:#FFFF00"/>
		</linearGradient>
		<path style="fill:url(#SVGID_19_);stroke:#000000;stroke-width:0.944;" d="M954.7,305.3c0.7-3.2,1.9-3.8,3.2-8
			c0.2-4-3.2-3.6-2.2-6.2c1.8-2.8,0.9-5.5-2.5-7.6c0.7,3.7-4.4,7.2-4.4,10.2c0,3,2.6,2.4,2.2,6.9c0.2,2.7-0.7,2-0.9,4.6H954.7z"/>
		
			<linearGradient id="SVGID_20_" gradientUnits="userSpaceOnUse" x1="-707.7396" y1="633.8566" x2="-707.7396" y2="633.8566" gradientTransform="matrix(0.9961 0 0 -2.2525 850.1677 1551.2247)">
			<stop  offset="0" style="stop-color:#FF0000"/>
			<stop  offset="1" style="stop-color:#FFFF00"/>
		</linearGradient>
		<path style="fill:url(#SVGID_20_);stroke:#000000;stroke-width:0.944;" d="M145.2,123.4"/>
	</g>
</g>
<g>
	<g id="c_10_">
		<path style="fill:none;stroke:#FFC72C;stroke-width:1.887;" d="M959.5,346l14.1-20.7l14.2,20.7"/>
		<path style="fill:none;stroke:#FFC72C;stroke-width:1.887;" d="M144.7,164.2"/>
		<path style="fill:#FFC72C;stroke:#000000;stroke-width:0.944;" d="M962.2,361.3l21.9,0.1c0,0,0.3-2.8-2.3-4.6
			c11.4-1.6,8.5-11.7,18.1-12.2c1.9,0.3-5,4.3-5,4.3s-5.8,4.1-3.1,6.2c2.1,1.6,3-1,3.3-3c0.3-2,9.3-3.3,8-9
			c-2.1-4.7-14.7,3.1-14.7,3.1l-9-0.1c-0.6-1-3-5-5.6-5.1c-3,0.1-5.2,5.1-5.2,5.1h-20.3c0,0-0.7,5.2,9.6,6.2c2.3,3,4.1,3.9,6.1,4.7
			C962.5,358.1,962.1,359.5,962.2,361.3L962.2,361.3z M963.7,356.9l18.2-0.1 M955.4,346.2c0,0,1.5,8.5,8.2,10.5"/>
		
			<linearGradient id="SVGID_21_" gradientUnits="userSpaceOnUse" x1="102.5398" y1="557.7775" x2="92.0078" y2="561.2895" gradientTransform="matrix(0.9961 0 0 -2.2525 849.7197 1591.9946)">
			<stop  offset="0" style="stop-color:#FF0000"/>
			<stop  offset="1" style="stop-color:#FFFF00"/>
		</linearGradient>
		<path style="fill:url(#SVGID_21_);stroke:#000000;stroke-width:0.944;" d="M954.3,346c0.7-3.2,1.9-3.8,3.2-8
			c0.2-4-3.2-3.6-2.2-6.2c1.8-2.8,0.9-5.5-2.5-7.6c0.7,3.7-4.4,7.2-4.4,10.2c0,3,2.6,2.4,2.2,6.9c0.2,2.7-0.7,2-0.9,4.6H954.3z"/>
		
			<linearGradient id="SVGID_22_" gradientUnits="userSpaceOnUse" x1="-707.7396" y1="633.8566" x2="-707.7396" y2="633.8566" gradientTransform="matrix(0.9961 0 0 -2.2525 849.7197 1591.9946)">
			<stop  offset="0" style="stop-color:#FF0000"/>
			<stop  offset="1" style="stop-color:#FFFF00"/>
		</linearGradient>
		<path style="fill:url(#SVGID_22_);stroke:#000000;stroke-width:0.944;" d="M144.7,164.2"/>
	</g>
</g>
<g>
	<g id="c_11_">
		<path style="fill:none;stroke:#FFC72C;stroke-width:1.887;" d="M959.7,387l14.1-20.7l14.2,20.7"/>
		<path style="fill:none;stroke:#FFC72C;stroke-width:1.887;" d="M144.9,205.2"/>
		<path style="fill:#FFC72C;stroke:#000000;stroke-width:0.944;" d="M962.4,402.3l21.9,0.1c0,0,0.3-2.8-2.3-4.6
			c11.4-1.6,8.5-11.7,18.1-12.2c1.9,0.3-5,4.3-5,4.3s-5.8,4.1-3.1,6.2c2.1,1.6,3-1,3.3-3s9.3-3.3,8-9c-2.1-4.7-14.7,3.1-14.7,3.1
			l-9,0c-0.6-1-3-5.1-5.6-5.1c-3,0.1-5.2,5.1-5.2,5.1h-20.3c0,0-0.7,5.2,9.6,6.2c2.3,3,4.1,3.9,6.1,4.7
			C962.8,399.1,962.4,400.5,962.4,402.3L962.4,402.3z M964,397.9l18.2-0.1 M955.6,387.1c0,0,1.5,8.5,8.2,10.5"/>
		
			<linearGradient id="SVGID_23_" gradientUnits="userSpaceOnUse" x1="102.5398" y1="557.7775" x2="92.0078" y2="561.2895" gradientTransform="matrix(0.9961 0 0 -2.2525 849.9437 1632.9886)">
			<stop  offset="0" style="stop-color:#FF0000"/>
			<stop  offset="1" style="stop-color:#FFFF00"/>
		</linearGradient>
		<path style="fill:url(#SVGID_23_);stroke:#000000;stroke-width:0.944;" d="M954.5,387c0.7-3.2,1.9-3.8,3.2-8
			c0.2-4-3.2-3.6-2.2-6.2c1.8-2.8,0.9-5.5-2.5-7.6c0.7,3.7-4.4,7.2-4.4,10.2c0,3,2.6,2.4,2.2,6.9c0.2,2.7-0.7,2-0.9,4.6H954.5z"/>
		
			<linearGradient id="SVGID_24_" gradientUnits="userSpaceOnUse" x1="-707.7396" y1="633.8566" x2="-707.7396" y2="633.8566" gradientTransform="matrix(0.9961 0 0 -2.2525 849.9437 1632.9886)">
			<stop  offset="0" style="stop-color:#FF0000"/>
			<stop  offset="1" style="stop-color:#FFFF00"/>
		</linearGradient>
		<path style="fill:url(#SVGID_24_);stroke:#000000;stroke-width:0.944;" d="M144.9,205.2"/>
	</g>
</g>
<g>
	<path style="fill:#FFC72C;stroke:#000000;stroke-width:0.944;" d="M915.8,406.3c0,0,5.7,13.1,12.2,5.1c6.5-8.1,4.1-11.6,4.1-11.6
		l-14.6-7.9l-4.3,9L915.8,406.3z"/>
	<path style="fill:#FFC6B5;stroke:#000000;stroke-width:0.944;" d="M928.4,404.6c0,0,1,0.2,1.7-1.3s-1.7-2.1-2.8-3.6l-1.3,2.5
		L928.4,404.6z M895.4,401.1l-12.8,7c0,0-6.3,1.3-6.8,0c-0.5-1.3,0.2-2.4,3.5-2.5c3.3-0.2,12.4-8.4,12.4-8.4L895.4,401.1
		L895.4,401.1z M895.6,173.1c0,0,0.3,3,0.5,4.6c0.2,1.6-2.5,4.9-2.7,4.8s-1.4,0.2-1.3,1.1c0.2,0.9,2.1,1.3,2.1,1.3s-0.8,3.3,0,3.5
		c0.8,0.2-2.1,4.3,0,5.4c2.1,1.1,5.5,2.5,7.1,2.2c1.6-0.3,0,6.2,0,6.2l-4.4,9.5l24.4-2.5l-5.1-8.1c0,0-2.4-1.6-1.7-6.2
		c0.6-4.6-0.3-25.3-0.3-25.3l-17.4-2.4L895.6,173.1L895.6,173.1z M891.1,209.3c0,0-7.9,3.6-7.6,13.5c-2.1,9.5-3.2,19-3.2,19
		s-9.3,10.6-12.2,14.4c-2.9,3.8-7.1,11.6-8.7,13.6c-1.6,2.1-7.8,8.9-7.6,11.4c0.2,2.5-1.4,13.8,4.8,15c1.6,0.6,6.7-13,6.7-13
		s0.3-5.9-1.4-7c-1.7-1.1,3.8-4.9,3.8-4.9s10.6-7.8,13-9.7c2.4-1.9,8.9-9.2,8.9-9.2L891.1,209.3L891.1,209.3z"/>
	<path style="fill:#FFFFFF;stroke:#000000;stroke-width:0.944;" d="M900.2,201.8c0,0,2.1,5.5,6.7,4.6c4.6-0.9,10-5.2,10-5.2
		s4.3-0.2,4.9,0.5c0.6,0.6,11.6,11.2,11.2,14.6c-0.3,3.3-5.1,2.4-6.8,4.6c-1.7,2.2-4.6,7.8-3.8,11.9c0.8,4.1,3.2,9.5,2.9,11.6
		c-0.3,2.1-2.1,2.7-2.1,3.8s1.4,3,1.4,5.1c0,2.1-1.9,5.1-1.6,7.1c0.3,2.1,0.5,8.1,0.5,8.1l-0.5,27.9c0,0,1.6,1,1.7,2.5
		c0.2,1.6,10.8,47.7,10.8,47.7s-0.5,1.4-1.6,1.3c-1.1-0.2,4.3,7.1,4.4,9.2c0.2,2.1,5.5,18.2,5.4,20.4c-0.2,2.2-1,7.1-1.4,7.3
		c-0.5,0.2,3.5,10.1,2.8,11.7c-0.6,1.6-7.1,1.4-7.1,1.4l-1.7-0.3c0,0,0.2,2.1-1.1,2.2s-10.6-0.5-10.6-0.5s-2.7,4.1-4.3,4
		c-1.6-0.2-3.6-3-4.1-2.5c-0.5,0.5,1.4,3.2,1,4c-0.5,0.8-8.6,2.5-10.1-1.3c-1.6-3.8,1-2.9,0.5-3.6c-0.5-0.8-4.1-2.9-5.2-2.2
		c-1.1,0.6,2.9,1.6,2.7,3.2c-0.2,1.6-3.5,4-4.8,4s-4.3-5.9-8.7-5.2c-4.4,0.6-7.3,1.7-7.3,1.7s-5.2,2.2-7.4,1.7
		c-2.2-0.5-3.2-2.2-3.2-3.2s1.6-5.1,1.4-6.3s-1.4-2.5-1.4-4.4c0-1.9,3.6-8.4,3.6-8.4l-0.2-29.1c0,0-3.3,0-3.5-2.1s5.1-46.1,5.9-48.9
		c0.8-2.9,2.9-13,2.9-13s-2.4,1.1-2.5,0c-0.2-1.1,7.1-26.3,7.1-26.3s1.3-12.5,1.3-15.8c0-3.3-0.6-7.9-0.6-7.9s-6.5-2.8-6.7-7
		c-0.6-6.7,6.2-10.5,7-12.7l3.2-8.9C891,208.8,894.5,202.8,900.2,201.8L900.2,201.8z"/>
	<path style="fill:#FFC72C;stroke:#000000;stroke-width:0.944;" d="M897.8,403c0,0-15.4,8.1-17.6,8.7c-2.2,0.6-3.6-2.7-1.4-3.3
		c2.2-0.6,5.7-1,5.7-1s-5.2-4.1-5.1-4.3c0.2-0.2,7.1-2.7,7.3-2.7s2.2,4.1,3.6,3.8c1.4-0.3,5.5-3.5,5.5-3.5S898.1,403.3,897.8,403
		L897.8,403z"/>
	<path style="fill:#FFC6B5;stroke:#000000;stroke-width:0.944;" d="M919.4,407.4c1.5,1.9,2,5.1,5.3,3.2c3.3-1.9-1.7-5.4-1.7-5.4
		L919.4,407.4L919.4,407.4z"/>
	<path style="fill:#FFC6B5;stroke:#000000;stroke-width:0.944;" d="M925.5,407.1c0,0,1.6,1.3,3-0.2s-2.9-4.4-2.9-4.4l-2.1,2.4
		L925.5,407.1z M932.3,217c0.2,0,5.2,15.7,5.9,19.6c0.6,4,2.7,19.8,1.9,22c-0.8,2.2-8.9,12.8-9.8,15.5c-1,2.7-6.7,13-6.7,13
		s-1.4,10.1-2.1,10.6c-0.6,0.5,1.6,3,1.4,3.8c-0.3,0.9-4.6,5.4-6.5,4.9c-1.9-0.5-4.9-2.7-5.1-4.8s0.2-8.9,1.6-10.6
		c1.4-1.7,8.9-19.3,9.3-20.4c0.5-1.1,6.8-14.9,7-17.3c0.2-2.4-2-7.9-4.2-9.9C920.1,228.8,922.1,220,932.3,217L932.3,217z"/>
	<path style="fill:#9C5100;stroke:#000000;stroke-width:0.944;" d="M895.1,172.2c0,0,3.5,0.5,5.4-0.6c1.9-1.1,4.1-1.6,5.7,0.6
		c1.6,2.2,2.7,2.1,2.7,2.1s-2.4,5.9,0,6.5c2.4,0.6,3.5,0.6,3.6,1.4c0.2,0.8-2.1,2.5-1.4,3.3c0.6,0.8,1.7,1.7,1.9,2.4
		c0.2,0.6-1.4,3.3-1,4c0.5,0.6,1.9,3.2,2.9,3.2c1,0,0.3,4,3.2,3s2.7-3.5,2.7-3.5s3-0.5,3.8-3.2c0.8-2.7,2.7-3.3,2.7-3.3
		s3.8-2.1-1.3-5.2c0-22.2-14.6-19.8-14.6-19.8s-1.7-4-4.6-3.5s-3,3.8-5.1,3.5c-2.1-0.3-2.5-1.7-2.7-1.6c-0.2,0.2-1.9,3.3-1.9,4.1
		c0,0.8-5.5-1.1-5.1,3C892.6,172.7,895.2,172.5,895.1,172.2L895.1,172.2z"/>
	<g>
		<path style="fill:none;stroke:#000000;stroke-width:0.944;" d="M920.8,208c0,0-14.1,9-13.8,12.2 M923.9,209.6c0,0-3.2,3.5-3.3,3.5
			 M928.2,213.4c0,0-7,5.7-5.9,9.3 M895.3,207.2c0,0-2.1,4.3-1.6,5.7c0.5,1.4,4,6.8,4.4,10.1s0,5.7,0,5.7 M891.6,215.1
			c0,0,0.6,5.1,1.6,6c1,0.9,3.5,5.2,3.8,7 M890.3,236.2c0,0,4.1,2.1,7.9-5.9 M904.4,224.8c-0.2,0-3,7.8,2.1,10.6
			c5.1,2.9,8.9,2.5,11.1,1.7c2.2-0.8,4.6-2.2,4.6-2.2 M902.2,234.3c0,0,0.3,10.5,15.7,20.8 M902.9,244.1c0,0-0.2,9.2,5.9,13.3
			 M899.7,233.3c0,0-4.6,13.6-8.2,15 M898.3,243.3c0,0-0.2,9.8-1.4,13.3 M895.6,259c0,0,3.2,4,6.7,3.6c3.5-0.3,4.9-4.4,7.3-3.8
			c2.4,0.6,4.6,2.5,10.1,2.1 M911.7,265c0,0,0,8.1,1.4,8.9s0.8,8.2,0.8,8.2 M892.4,261.2c0,0-0.2,7.6-1.1,10.3
			c-1,2.7-2.9,7.3-2.5,11.2 M882.7,287.2c0.8-0.3,3.5-2.7,3.5-2.7 M887.6,286.2c0,0-6.8,29.1-4.9,46.6 M889.2,287.7
			c0,0-3.5,21.9-1.9,26 M887.5,287c0.2,0,13.3,1,13.3,1 M902.7,286.2c0,0,3.6,1.9,8.7,1.6 M901.1,296.9c0,0-0.6,37.4-1.6,45.6
			 M920.6,305.4c0,0,4.1,32.8,6.5,35.8 M912.7,309.5c0,0,2.5,29,4,31.5 M876.7,351.2c0,0,4.9-1.6,9.3-6.3c5.1,6.8,12.8,0.3,12.8,0.3
			s12,8.2,17.4-1c8.2,5.4,12.4-0.8,12.4-0.8s3,4.6,5.2,4.1 M920.8,350.7c0,0,6.2,29,15.4,37.2 M888.9,347.7c0,0,0.8,24.2,2.2,41.3
			 M887.8,375.1c0,0-0.8,15.8-1.7,16.9 M878.5,393.6c0,0,1.7,6.8,10.5,0.5s8.9,2.4,9.2,3.3c0.3,1,1.7,7.8,5.1,2.1 M910.1,390.2
			c0,0-1.4,14.1,11.1,3.8c12.5-10.3,14.6-0.2,14.9,3 M910.3,166.8c0,0-1.1,7,6.3,6.3c-1,3.8,1.9,5.1,1.9,5.1 M924.1,182.5
			c0.2,0,3.3,2.1-0.2,4.6 M913.3,188c0,0,1.6,1.9,3.3,1.4c1.7-0.5,4.6,1.7,4.6,1.7s2.4,0.8,2.7,0.3 M903.6,194.1
			c0,0,5.4,2.1,8.9-6.5 M893.7,185l3.2,0.2 M858.5,284.9l0.2,6.9 M852,284.4c0,0,4.5,7.4,4.1,11.4"/>
		<path style="fill:none;stroke:#000000;stroke-width:0.944;stroke-linejoin:round;" d="M894.1,188.2h2.9l-2.5,1.1 M911.7,300
			c0,0,3.3-0.4,3.2,5.2c2.1-6.9,6.4-7.1,6.4-7.1"/>
		<path style="fill:none;stroke:#000000;stroke-width:1.699;stroke-linejoin:round;" d="M898.1,179.3c0.5,0,2.2-0.6,2.5-0.2
			C901,179.6,898.7,180,898.1,179.3z"/>
	</g>
</g>
<g>
	<path style="fill:#FFC72C;stroke:#000000;stroke-width:1.887;" d="M900.3,458.6c66.9-1.9,110.1-50.2,109.6-50.6
		c-0.5-0.5,8.8-13.5,16.3-11.6s18.1,23.7,31.1,28.3c6.5,10.2-1.9,19.5-4.6,21.4c-2.8,1.9-15.3,7-17.2-0.5c-1.9-7.4-5.6-6-5.6-6
		s-59.5,58.1-128.2,55.7c-71.1,0.5-129.6-55.7-129.6-55.7l-5.1,5.6c0,0-5.6,6-8.4,5.6c-2.8-0.5-14.9-8.4-15.8-16.3
		c-0.9-7.9,7.4-13,7.4-13s20.4-15.8,22.8-24.2c4.6-4.6,13.5,3.3,13.5,3.3S840.4,462.3,900.3,458.6L900.3,458.6z"/>
	<path style="fill:none;stroke:#000000;stroke-width:1.887;" d="M748.9,422.6c0,0,5.5-1.5,7.6,0.8c2,2.3,15.9,15.9,15.9,15.9"/>
	<path style="fill:none;stroke:#000000;stroke-width:1.887;" d="M761.5,429.1l-5.5,4.1c0,0,13.9,2.8,10.8,11.9 M1052.3,422.2
		c0,0-2.8-1.5-7.1,1.8c-4.3,3.2-15.3,15.5-15.3,15.5"/>
	<path style="fill:none;stroke:#000000;stroke-width:1.887;" d="M1039.9,428.7l6,4.6c0,0-12.5,0.8-9.8,12.7"/>
</g>
<path d="M819.7,437.4c-0.4,1.1-1.3,0-2.1,0.2c-2.1,0.1-3.8,1.4-5.6,2.4l-18.4,10.7c-0.6-0.2-0.5-0.7-0.3-1.2
	c1.6-7.7,3.3-15.3,4.9-23c0.3-1.3,0.7-3-0.6-4c-0.6-0.4,0.3-1.1,0.7-0.4l9.4,6.7c-0.3,0.9-0.8,0.3-1.4-0.1c-1.3-1.3-2.9-0.1-2.8,1.5
	c-1.1,5.1-2.2,10.1-3.3,15.2c4.2-2.5,8.4-4.9,12.5-7.4c1.5-0.7,2.6-2.6,1-3.9c-0.6-0.3-1.5-1.3-0.6-1.4L819.7,437.4L819.7,437.4z
	 M826.3,469.4c-0.2,0.6-0.5,0.7-0.9,0.3l-11.1-6.1c0.2-0.6,0.5-0.7,0.9-0.3c1,0.7,2.6,0.9,3.4-0.3c1.5-2.4,2.7-4.8,4.1-7.3
	c1.8-3.4,3.8-6.8,5.6-10.2c0.9-1.2-0.1-2.7-1.3-3.3c-0.4-0.2-1-0.4-0.5-0.9c0.2-0.3,0.8,0.3,1.1,0.4l10.6,5.8
	c-0.2,0.6-0.5,0.7-0.9,0.3c-1-0.7-2.6-0.9-3.4,0.2c-1.5,2.4-2.7,4.8-4.1,7.3c-1.8,3.4-3.8,6.8-5.6,10.2c-0.9,1.2,0.1,2.7,1.3,3.3
	L826.3,469.4L826.3,469.4z M868.9,459.4l-3,8.4c-1.2-0.1-0.4-1.7-0.8-2.5c-0.4-3.8-3.2-7.3-7.1-8.2c-2.9-0.8-6,0.7-7.7,3.1
	c-2.6,3.5-4.2,7.9-4.4,12.2c-0.1,2.5,1,5,3.2,6.4c1.7,1.1,3.8,1.6,5.9,1.5c0.7-2.1,1.6-4.2,2.2-6.4c0.2-1.4-1.2-2.3-2.4-2.6
	c-0.2-0.4,0.3-0.9,0.7-0.5l11,3.9c-0.1,1.4-1.7-0.1-2.5,0.4c-1.4,0.5-1.5,2.2-2,3.3l-1.3,3.8c-4.9,0.4-10-0.7-14.3-3.2
	c-4.2-2.6-7-7.7-6.2-12.7c0.6-4.3,3.3-8.3,7.2-10.2c3.6-1.9,8-1.9,11.8-0.4c2.1,0.7,3.8,2,5.4,3.4c1,1.3,2.8,1.3,3.6-0.2
	L868.9,459.4 M886.8,488.2c0,0.4-0.1,0.9-0.6,0.6l-12.6-1.9c0-0.4,0.1-0.9,0.6-0.6c1.1,0.2,2.6,0.2,3.1-1c0.5-1.7,0.6-3.5,1-5.2
	c0.7-4.9,1.5-9.7,2.2-14.6c0.3-1-0.1-2.2-1.2-2.6c-0.6-0.3-1.3-0.3-2-0.4c0-0.5,0.1-0.9,0.6-0.6l12.6,1.9c0,0.4-0.1,0.9-0.6,0.6
	c-1.1-0.2-2.6-0.2-3.1,1c-0.5,1.7-0.6,3.5-1,5.2c-0.7,4.9-1.5,9.7-2.2,14.6c-0.3,1,0.1,2.3,1.2,2.6
	C885.5,488,886.2,488.1,886.8,488.2L886.8,488.2z M921,479.9l-0.5,9l-22.5,1.1c-0.1-0.5,0-0.8,0.6-0.7c1.1,0,2.6-0.5,2.7-1.8
	c0.1-2.2-0.2-4.5-0.2-6.7c-0.2-4.4-0.4-8.9-0.7-13.3c0.1-1.3-1.1-2.3-2.3-2.3c-0.4-0.2-1.5,0.4-1.4-0.3c-0.2-0.6,0.6-0.3,1-0.4
	l12.5-0.6c0.1,0.5,0,0.8-0.6,0.7c-1.2,0-2.7,0.3-3,1.6c-0.2,1.9,0.1,3.9,0.1,5.8c0.3,4.6,0.4,9.3,0.7,13.9c-0.1,1.2,0.9,2.3,2.1,2
	c1.8-0.1,3.7,0,5.5-0.5c2.5-0.7,3.9-3.1,4.6-5.5c0.5-0.6,0.1-2.2,1.1-2.1L921,479.9 M938.5,458.2c-0.6,0-0.3,0.8-0.5,1.2
	c-1,7.5-1.9,15-3,22.4c-0.3,1.7-0.7,3.6-2.3,4.4c-0.6,0.2-0.1,1.2,0.5,0.6l7.5-2.3c-0.1-1.3-1.5-0.1-2.3-0.3c-1.7,0-2-2.1-1.7-3.4
	l0.3-2.7l8.6-2.6c1.1,1.4,2.3,2.7,3.3,4.2c0.7,1.4-1.1,2.1-2.1,2.3c-0.5,0.1-0.1,1.1,0.4,0.6l11.3-3.4c0-1.3-1.7-0.1-2.4-0.9
	c-2.1-1.6-3.6-3.8-5.4-5.8L938.5,458.2L938.5,458.2z M938.5,467.2l6.1,7.3l-7.3,2.2L938.5,467.2z M977.1,441.4l3.3,6.1
	c-1,0.9-1.5-1.1-2.5-1.5c-1.5-1.3-3.8-1.5-5.5-0.4c-0.7,0.4-1.4,0.7-2,1.1c3.3,6.1,6.5,12.2,9.8,18.2c0.5,1.6,2.4,1.8,3.6,1
	c0.5-0.3,0.9-0.5,1.1,0.2c-1.7,1-3.5,1.9-5.2,2.8l-6.5,3.5c-0.5-0.5-0.2-0.8,0.4-1c1.5-0.6,2.1-2.4,1.1-3.8c-3.2-6-6.5-12-9.7-18
	c-1.8,1-4.1,1.9-4.5,4.1c-0.5,1.4,0.2,3.1,0.2,4.3c-0.6,0.6-0.7-0.2-1-0.6l-2.8-5.2L977.1,441.4L977.1,441.4z M992.4,432.3l6.2,8.3
	c1.4-0.9,2.7-2.6,2.2-4.4c0.2-1.4-1.8-3-1.1-4c0.5-0.3,0.7,0.8,1.1,1l7.1,9.4c-0.9,1.1-1.6-1.1-2.6-1.3c-1.4-1-3.3-1.5-4.8-0.4
	c-1.1,0.4-1.1,1-0.3,1.7c1.7,2.2,3.2,4.4,5,6.5c1.1,1.1,2.4,0,3.4-0.8c2.4-1.6,4.5-4.2,4.4-7.2c0.2-1.3-0.7-2.8-0.7-3.9
	c0.5-0.7,0.7,0.4,1,0.8l3.4,6.1L999,457.3c-0.8-0.5,0-0.9,0.5-1.2c1.6-1,1.1-3.1-0.1-4.2c-3.7-4.9-7.4-9.9-11.2-14.8
	c-1-1.3-2.8-0.6-3.7,0.3c-0.4,0.6-1-0.6-0.3-0.7l16.5-12.5l4.5,6c-1,1.1-2-1.3-3.2-1.4c-2.2-1.1-4.8-0.2-6.6,1.2
	C994.4,430.7,993.4,431.5,992.4,432.3"/>
<g>
	<g>
		<g>
			<g>
				<defs>
					<rect id="SVGID_25_" width="517" height="305.4"/>
				</defs>
				<clipPath id="SVGID_26_">
					<use xlink:href="#SVGID_25_"  style="overflow:visible;"/>
				</clipPath>
				<g style="clip-path:url(#SVGID_26_);">
					<path style="fill:#012169;" d="M0,0v305.4h517V0H0z"/>
					<g>
						<path d="M0,0l517,305.4 M517,0L0,305.4"/>
						<polygon style="fill:#FFFFFF;" points="505.4,332.7 258.6,186.8 11.6,332.7 -11.6,278.1 200.7,152.7 -11.6,27.3 11.6,-27.3 
							258.6,118.6 505.4,-27.3 528.6,27.3 316.3,152.7 528.6,278.1 						"/>
					</g>
					<g>
						<g>
							<g>
								<defs>
									<polygon id="SVGID_27_" points="258.6,152.7 517,152.7 517,305.4 258.6,305.4 0,305.4 0,152.7 0,0 258.6,0 517,0 									
										"/>
								</defs>
								<clipPath id="SVGID_28_">
									<use xlink:href="#SVGID_27_"  style="overflow:visible;"/>
								</clipPath>
								<g style="clip-path:url(#SVGID_28_);">
									<path d="M0,0l517,305.4 M517,0L0,305.4"/>
									<polygon style="fill:#C8102E;" points="509.4,323.6 258.6,175.5 7.6,323.6 -7.6,287.3 219.9,152.7 -7.6,18.2 7.6,-18.2 
										258.6,129.9 509.4,-18.2 524.6,18.2 297.1,152.7 524.6,287.3 									"/>
								</g>
							</g>
						</g>
					</g>
					<g>
						<path d="M258.6,0v305.4 M0,152.7h517"/>
						<polygon style="fill:#FFFFFF;" points="301.6,305.4 215.4,305.4 215.4,203.6 0,203.6 0,101.8 215.4,101.8 215.4,0 301.6,0 
							301.6,101.8 517,101.8 517,203.6 301.6,203.6 						"/>
					</g>
					<g>
						<path d="M258.6,0v305.4 M0,152.7h517"/>
						<polygon style="fill:#C8102E;" points="284.3,305.4 232.7,305.4 232.7,183.2 0,183.2 0,122.2 232.7,122.2 232.7,0 284.3,0 
							284.3,122.2 517,122.2 517,183.2 284.3,183.2 						"/>
					</g>
				</g>
			</g>
		</g>
	</g>
</g>
</svg>
