<?xml version="1.0" encoding="utf-8"?>
<!-- Generator: Adobe Illustrator 25.2.1, SVG Export Plug-In . SVG Version: 6.00 Build 0)  -->
<svg version="1.1" id="svg30" xmlns="http://www.w3.org/2000/svg" xmlns:xlink="http://www.w3.org/1999/xlink" x="0px" y="0px"
	 viewBox="0 0 720 480" style="enable-background:new 0 0 720 480;" xml:space="preserve">
<g>
	<path id="path7" style="fill:#006400;" d="M1.3,0h717.5v480H1.3V0z"/>
	<path id="path9" style="fill:#FFD200;" d="M1.3,68.6h717.5v342.9H1.3V68.6z"/>
	<path id="path11" style="fill:#D40000;" d="M1.3,137.1h717.5v205.7H1.3V137.1z"/>
	<path id="path13" d="M1.3,205.7h717.5v68.6H1.3V205.7z"/>
	<g>
		<defs>
			<rect id="SVGID_1_" x="1.3" width="717.5" height="480"/>
		</defs>
		<clipPath id="SVGID_2_">
			<use xlink:href="#SVGID_1_"  style="overflow:visible;"/>
		</clipPath>
		<g style="clip-path:url(#SVGID_2_);">
			<path id="path15" style="stroke:#000000;stroke-width:30;" d="M1.3,0v480l239.2-240L1.3,0z"/>
		</g>
	</g>
	<path id="path17" style="fill:#FFFFFF;" d="M1.3,0v480l239.2-240L1.3,0z"/>
	<polygon style="fill:#D40000;" points="121.5,239.9 168.9,193.8 110.3,193.8 92.2,119.3 74.1,193.8 15.6,193.8 63,239.9 
		44.9,314.4 92.2,268.3 139.6,314.4 	"/>
</g>
</svg>
